<?xml version="1.0" encoding="utf-8"?>
<!-- Generator: Adobe Illustrator 24.3.0, SVG Export Plug-In . SVG Version: 6.00 Build 0)  -->
<svg version="1.1" id="レイヤー_1" xmlns="http://www.w3.org/2000/svg" xmlns:xlink="http://www.w3.org/1999/xlink" x="0px"
	 y="0px" viewBox="0 0 300 300" style="enable-background:new 0 0 300 300;" xml:space="preserve">
<style type="text/css">
	.st0{fill:#FCA468;}
	.st1{fill:#FFFFFF;}
	.st2{fill:#6E351D;}
	.st3{fill:#ED464E;}
</style>
<circle class="st0" cx="150" cy="150" r="150"/>
<path id="XMLID_4033_" class="st1" d="M81.9,155.8h136.4c7.2,0,12.6,6.5,11.4,13.6c-0.5,3.2-1.3,6.4-2.2,9.4H72.7
	c-0.9-3.1-1.7-6.2-2.2-9.4C69.3,162.3,74.7,155.8,81.9,155.8z"/>
<path id="XMLID_3665_" class="st2" d="M72.7,178.9h154.8c-4.8,16.3-14.7,30.4-27.8,40.6c-4.4-10.3-14.6-17.5-26.5-17.5
	c-9.5,0-17.8,4.6-23.1,11.5c-5.2-7-13.6-11.5-23.1-11.5c-11.9,0-22.1,7.3-26.5,17.5C87.4,209.3,77.5,195.2,72.7,178.9z"/>
<path id="XMLID_3661_" class="st3" d="M173.1,201.9c11.9,0,22.1,7.3,26.5,17.5c-13.7,10.7-30.9,17.1-49.6,17.1s-35.9-6.3-49.6-17.1
	c4.4-10.3,14.6-17.5,26.5-17.5c9.5,0,17.8,4.6,23.1,11.5C155.3,206.5,163.7,201.9,173.1,201.9z"/>
<g id="XMLID_3417_">
	<path id="XMLID_337_" class="st2" d="M100,124.6c-2.1,0-2.9-1-4.5-4.7c-0.9-1.8-1.9-4.4-4.6-7.1c-2.6-2.7-6.9-5.6-13.1-5.7
		c-6.2,0.1-10.6,3-13.1,5.7c-2.7,2.7-3.7,5.3-4.6,7.1c-0.8,1.8-1.3,2.7-2,3.8c-0.7,0.9-1.5,1.1-2.5,1c-1-0.1-2-0.2-2.8-0.9
		c-0.4-0.4-0.8-0.9-1.2-1.6c-0.3-0.8-0.5-2-0.5-3.5c-0.1-2.8,0.7-7.2,4.4-12.4c3.6-5,11-10.9,22.3-11.1c11.3,0.1,18.7,6.1,22.3,11.1
		c3.7,5.2,4.4,9.6,4.4,12.4c-0.1,2.9-0.8,4.4-1.7,5.2C102,124.5,101,124.6,100,124.6z"/>
</g>
<g id="XMLID_3416_">
	<path id="XMLID_336_" class="st2" d="M241.4,124.6c-2.1,0-2.9-1-4.5-4.7c-0.9-1.8-1.9-4.4-4.6-7.1c-2.6-2.7-6.9-5.6-13.1-5.7
		c-6.2,0.1-10.6,3-13.1,5.7c-2.7,2.7-3.7,5.3-4.6,7.1c-0.8,1.8-1.3,2.7-2,3.8c-0.7,0.9-1.5,1.1-2.5,1c-1-0.1-2-0.2-2.8-0.9
		c-0.4-0.4-0.8-0.9-1.2-1.6c-0.3-0.8-0.5-2-0.5-3.5c-0.1-2.8,0.7-7.2,4.4-12.4c3.6-5,11-10.9,22.3-11.1c11.3,0.1,18.7,6.1,22.3,11.1
		c3.7,5.2,4.4,9.6,4.4,12.4c-0.1,2.9-0.8,4.4-1.7,5.2C243.3,124.5,242.4,124.6,241.4,124.6z"/>
</g>
</svg>
