<?xml version="1.0" encoding="utf-8"?>
<!-- Generator: Adobe Illustrator 24.3.0, SVG Export Plug-In . SVG Version: 6.00 Build 0)  -->
<svg version="1.1" id="レイヤー_1" xmlns="http://www.w3.org/2000/svg" xmlns:xlink="http://www.w3.org/1999/xlink" x="0px"
	 y="0px" viewBox="0 0 300 300" style="enable-background:new 0 0 300 300;" xml:space="preserve">
<style type="text/css">
	.st0{fill:#64CCE8;}
	.st1{fill:#6E351D;}
</style>
<circle id="XMLID_611_" class="st0" cx="150" cy="150.5" r="150.6"/>
<g id="XMLID_3431_">
	<path id="XMLID_171_" class="st1" d="M57.7,131.4c0.6-1.9,2.4-2.5,10.3-0.8c4,0.9,9.5,2.3,17.1,4.5c3.8,1.1,8.1,2.4,13.1,3.8
		c2.5,0.7,5.1,1.5,7.9,2.3c1.4,0.4,2.8,0.8,4.3,1.3c0.7,0.2,1.5,0.4,2.2,0.7l0.6,0.2l0.3,0.1l0.1,0l0.7,0.3c2.5,0.9,4.3,3.8,4.2,6.4
		c0.1,2.6-1.6,5.4-4.4,6.4l-0.7,0.3l-0.3,0.1l-0.6,0.2c-0.8,0.2-1.5,0.5-2.2,0.7c-1.5,0.4-2.9,0.9-4.3,1.3c-2.8,0.8-5.4,1.6-7.9,2.3
		c-4.9,1.4-9.3,2.7-13.1,3.8c-7.6,2.2-13.1,3.6-17.1,4.5c-7.9,1.7-9.8,1.1-10.3-0.8c-0.6-1.9-0.5-3.8,6.4-7.2
		c3.5-1.7,8.6-3.8,16.3-6.5c3.8-1.3,8.3-2.8,13.4-4.5c2.6-0.8,5.3-1.7,8.3-2.6c1.5-0.5,3-0.9,4.6-1.4c0.8-0.2,1.6-0.5,2.4-0.7
		l0.6-0.2l0.3-0.1l0.2,0l0.1,0l0,0c2.5,9,0.7,2.5,1.3,4.5c0.3,0.3,0.1,0.1,0.1,0.1c0,0,0.2-0.2,0,0.1l-1.4,4.5l0,0l-0.1,0l-0.2,0
		l-0.3-0.1l-0.6-0.2c-0.8-0.2-1.6-0.5-2.4-0.7c-1.6-0.5-3.1-0.9-4.6-1.4c-2.9-0.9-5.7-1.8-8.3-2.6c-5.2-1.7-9.6-3.1-13.4-4.5
		c-7.6-2.7-12.8-4.8-16.3-6.5C57.2,135.2,57.1,133.3,57.7,131.4z"/>
</g>
<g id="XMLID_3430_">
	<path id="XMLID_170_" class="st1" d="M243,133.9c0.6,1.9-0.6,3.5-8.2,6.4c-3.8,1.5-9.2,3.3-16.7,5.7c-3.8,1.2-8.1,2.5-13,4
		c-2.5,0.7-5.1,1.5-7.9,2.4c-1.4,0.4-2.8,0.9-4.3,1.3c-0.7,0.2-1.5,0.4-2.2,0.7l-0.6,0.2l-0.3,0.1l-0.1,0l0.5-0.2
		c1.7-0.6,3.1-2.7,3-4.5c0-1.7-1.1-3.8-3.1-4.5l0.1,0l0,0c0.1,0-0.8-0.3-0.4-0.2l0.1,0l0.3,0.1l0.6,0.2c0.8,0.2,1.5,0.5,2.2,0.7
		c1.5,0.4,2.9,0.9,4.3,1.3c2.8,0.8,5.4,1.6,7.9,2.4c4.9,1.5,9.2,2.9,13,4c7.5,2.4,12.9,4.2,16.7,5.7c7.6,2.9,8.8,4.5,8.2,6.4
		c-0.6,1.9-1.7,3.5-9.3,2.5c-3.8-0.5-9.3-1.6-17.1-3.5c-3.9-1-8.4-2.2-13.7-3.7c-2.6-0.7-5.4-1.5-8.4-2.4c-1.5-0.4-3-0.9-4.6-1.3
		c-0.8-0.2-1.6-0.5-2.4-0.7l-1.7-0.5l-0.2-0.1c-0.5-0.2-0.9-0.5-1.3-0.7c-0.6-0.5-1.1-1-1.6-1.6c-0.9-1.2-1.3-2.7-1.3-4
		c-0.2-2.7,2.1-5.8,4.7-6.6l1.4-0.4c0.8-0.2,1.6-0.5,2.4-0.7c1.6-0.5,3.1-0.9,4.6-1.3c3-0.8,5.8-1.6,8.4-2.4
		c5.2-1.5,9.7-2.7,13.7-3.7c7.9-2,13.3-3.1,17.1-3.5C241.4,130.4,242.5,132,243,133.9z"/>
</g>
<g id="XMLID_3429_">
	<path id="XMLID_179_" class="st1" d="M218.6,234.7c-1.4,1.4-4.1,0.4-13.9-8.6c-1.2-1.1-2.6-2.4-4.1-3.7l-1.1-1.1
		c0,0-0.2-0.2-0.1-0.1c0.1,0.1,0.3,0.3,0.4,0.4c0.3,0.2,0.7,0.4,1.1,0.6c0.8,0.3,1.6,0.3,2.4,0.1c0.4-0.1,0.8-0.3,1.1-0.5
		c0.2-0.1,0.7-0.6,0.5-0.4l0,0c0.1-0.1-0.2,0.2,0.2-0.2l0,0l-0.1,0.1l-0.6,0.6l-1.2,1.3c-3.3,3.4-7.2,7.5-11.8,12.1l-0.9,0.9
		l-0.4,0.4l-0.2,0.2c-0.4,0.4-0.8,0.7-1.3,1c-1.9,1.2-4.3,1.4-6.4,0.6c-0.6-0.2-0.9-0.4-1.6-0.9l-0.5-0.4l-0.3-0.3l-0.5-0.5
		c-1.2-1.2-2.5-2.5-3.9-3.8c-2.7-2.6-5.5-5.4-8.5-8.4c-0.8-0.7-1.5-1.5-2.3-2.3l-0.3-0.3c0,0,0.6,0.5,0.9,0.7
		c0.8,0.5,1.7,0.7,2.6,0.6c1-0.1,1.7-0.3,2.7-1.2c0.2-0.2-0.3,0.3-0.4,0.4c-1.6,1.6-3.2,3.2-4.9,4.9c-1.7,1.7-3.4,3.4-5.2,5.2
		c-0.9,0.9-1.8,1.8-2.7,2.7l-1.4,1.4l-0.9,0.9c-1.3,1.2-3.1,1.9-4.9,1.9c-1.8,0-3.6-0.7-4.9-1.9l-0.9-0.9l-1.4-1.4
		c-0.9-0.9-1.8-1.8-2.7-2.7c-1.8-1.8-3.5-3.5-5.2-5.2c-1.7-1.7-3.3-3.3-4.9-4.9l-0.3-0.3c0,0-0.5-0.5,0.1,0c0.7,0.6,1.6,1,2.5,1
		c0.9,0.1,1.8-0.1,2.6-0.6c1.6-1.1,0.6-0.5,0.6-0.4c-0.8,0.8-1.5,1.5-2.3,2.3c-3,3-5.8,5.8-8.5,8.4c-1.3,1.3-2.6,2.6-3.9,3.8
		l-0.5,0.5c0.1-0.1-0.6,0.6-1,0.8c-0.5,0.3-1,0.6-1.5,0.8c-2.1,0.8-4.5,0.6-6.4-0.6c-2-1.5-1.5-1.3-2-1.7l-0.9-0.9
		c-4.5-4.7-8.4-8.7-11.8-12.1l-1.2-1.3l-0.6-0.6c-0.3-0.3,0.3,0.3,0.6,0.4c0.4,0.2,0.7,0.4,1.1,0.5c0.8,0.2,1.6,0.2,2.4-0.1
		c0.4-0.2,0.6-0.3,1.1-0.6c0.4-0.3,0.3-0.3,0.2-0.2c0.3-0.3,0,0,0.1-0.1l-1.1,1.1c-1.5,1.4-2.8,2.6-4.1,3.7c-9.9,9-12.5,10-14,8.6
		c-1.4-1.4-2-3.4,6-13.2c1-1.2,2.1-2.5,3.4-4c0.6-0.7,1.3-1.5,2-2.3l0.5-0.6c0.3-0.3-0.1-0.1,1.4-1.3c2.1-1.4,5.1-1.2,7.1,0.5
		c4,3.6,7.8,7.1,12.7,11.8c0.6,0.6,1.2,1.2,1.9,1.8l0.9,0.9l0.5,0.5l0.2,0.2c-1.3,1.3,2.9-2.8-2.9,2.8l0,0l0.1,0.1l-0.1,0
		c0,0,0,0,0,0l0,0l0,0l-2.9-2.9l0,0l0.1-0.1l0.5-0.5c0.6-0.7,1.3-1.4,2-2.1c2.7-2.8,5.6-5.8,8.7-9c0.8-0.8,1.6-1.6,2.4-2.4l1.2-1.2
		l0.5-0.5l0.1-0.1l0.6-0.5c0.4-0.2,0.7-0.4,1-0.6c1.4-0.7,3-0.8,4.6-0.5c0.8,0.2,1.5,0.5,2.2,0.9c0.6,0.3,1.5,1.2,1.4,1.1l0.6,0.6
		l1.3,1.3c0.9,0.9,1.8,1.7,2.7,2.6c1.8,1.8,3.7,3.6,5.6,5.6c1,1,1.9,1.9,2.9,2.9l1.5,1.5l0.8,0.8c-6.4,6.3-1.8,1.8-3.2,3.2l0,0.1
		l0,0h0l0,0l0,0h0l-3.2-3.2l0.8-0.8l1.5-1.5c1-1,2-2,2.9-2.9c1.9-1.9,3.8-3.8,5.6-5.6c0.9-0.9,1.8-1.8,2.7-2.6l1.3-1.3l0.6-0.6
		c0,0,0.5-0.6,1.4-1.1c0.7-0.4,1.4-0.7,2.2-0.9c1.5-0.3,3.1-0.2,4.6,0.5c0.7,0.3,1.4,0.8,1.9,1.3l0.4,0.4l1.2,1.2
		c0.8,0.8,1.6,1.6,2.4,2.4c3.1,3.2,6,6.2,8.7,9c0.7,0.7,1.3,1.4,2,2.1l0.5,0.5l0.1,0.1l0,0c-5.9,5.7-1.6,1.6-2.9,2.9l0.1,0.1
		c0,0-0.1,0-0.1,0c0,0,0,0,0,0l-2.9-2.9l0.2-0.2l0.5-0.5l0.9-0.9c0.6-0.6,1.3-1.2,1.9-1.8c4.9-4.7,8.8-8.2,12.7-11.7
		c2.1-1.8,5-1.9,7.1-0.6c0.4,0.2,1.2,1,1.1,0.9l0.3,0.3l0.5,0.6c0.7,0.8,1.4,1.6,2,2.3c1.3,1.5,2.4,2.8,3.4,4
		C220.5,231.3,220,233.2,218.6,234.7z"/>
</g>
</svg>
