<svg id="レイヤー_1" data-name="レイヤー 1" xmlns="http://www.w3.org/2000/svg" viewBox="0 0 300 300"><defs><style>.cls-1{fill:#5d639e;}.cls-2{fill:#fff;}.cls-3{fill:none;stroke:#fff;stroke-linecap:round;stroke-miterlimit:10;stroke-width:12px;}</style></defs><title>sad</title><circle class="cls-1" cx="150" cy="150" r="150"/><ellipse class="cls-2" cx="80.83" cy="156.23" rx="31.54" ry="17.87" transform="translate(-82.99 220.29) rotate(-84)"/><ellipse class="cls-2" cx="217.84" cy="156.23" rx="17.87" ry="31.54" transform="translate(-15.14 23.63) rotate(-6)"/><path class="cls-3" d="M103.34,240.8s21.52-14.66,48.07-14.66,48.07,14.66,48.07,14.66"/><polygon class="cls-1" points="117.2 127.29 38.77 141.85 38.77 114.64 117.2 100.08 117.2 127.29"/><polygon class="cls-1" points="178.78 127.29 257.2 141.85 257.2 114.64 178.78 100.08 178.78 127.29"/><path class="cls-2" d="M270.33,209.46c4.82,12.26-.41,19.62-5.15,21.57s-13.79,0-18.83-11.72c-5.71-13.31-1.1-36.8-1.1-36.8S265,196,270.33,209.46Z"/></svg>