<?xml version="1.0" encoding="utf-8"?>
<!-- Generator: Adobe Illustrator 24.3.0, SVG Export Plug-In . SVG Version: 6.00 Build 0)  -->
<svg version="1.1" id="レイヤー_1" xmlns="http://www.w3.org/2000/svg" xmlns:xlink="http://www.w3.org/1999/xlink" x="0px"
	 y="0px" viewBox="0 0 300 300" style="enable-background:new 0 0 300 300;" xml:space="preserve">
<style type="text/css">
	.st0{fill:#FCA468;}
	.st1{fill:#FFFFFF;}
	.st2{fill:#6E351D;}
	.st3{fill:#ED464E;}
	.st4{display:none;}
	.st5{display:inline;fill:#6E351D;}
</style>
<circle class="st0" cx="150" cy="150" r="150"/>
<path id="XMLID_4033_" class="st1" d="M81.9,155.8h136.4c7.2,0,12.6,6.5,11.4,13.6c-0.5,3.2-1.3,6.4-2.2,9.4H72.7
	c-0.9-3.1-1.7-6.2-2.2-9.4C69.3,162.3,74.7,155.8,81.9,155.8z"/>
<path id="XMLID_3665_" class="st2" d="M72.7,178.9h154.8c-4.8,16.3-14.7,30.4-27.8,40.6c-4.4-10.3-14.6-17.5-26.5-17.5
	c-9.5,0-17.8,4.6-23.1,11.5c-5.2-7-13.6-11.5-23.1-11.5c-11.9,0-22.1,7.3-26.5,17.5C87.4,209.3,77.5,195.2,72.7,178.9z"/>
<path id="XMLID_3661_" class="st3" d="M173.1,201.9c11.9,0,22.1,7.3,26.5,17.5c-13.7,10.7-30.9,17.1-49.6,17.1s-35.9-6.3-49.6-17.1
	c4.4-10.3,14.6-17.5,26.5-17.5c9.5,0,17.8,4.6,23.1,11.5C155.3,206.5,163.7,201.9,173.1,201.9z"/>
<g id="XMLID_3650_" class="st4">
	<path id="XMLID_508_" class="st5" d="M58.2,96.9c0.6-1.9,2.4-2.5,10.5-0.8c4,0.9,9.6,2.3,17.4,4.5c3.9,1.1,8.3,2.4,13.3,3.9
		c2.5,0.7,5.2,1.5,8,2.4c1.4,0.4,2.9,0.9,4.4,1.3c0.7,0.2,1.5,0.4,2.3,0.7l1.2,0.4l0.6,0.2l0.1,0c0.1,0,0.6,0.2,0.9,0.3
		c0.7,0.3,1.4,0.8,1.9,1.4c1.1,1.2,1.7,2.8,1.7,4.3c0,1.5-0.5,3.1-1.7,4.3c-0.3,0.3-0.6,0.6-0.9,0.8c-0.4,0.3-1.1,0.7-1.4,0.7
		l-0.6,0.2l-0.6,0.2L114,122c-0.8,0.2-1.5,0.5-2.3,0.7c-1.5,0.4-3,0.9-4.4,1.3c-2.8,0.8-5.5,1.6-8,2.4c-5,1.5-9.4,2.7-13.3,3.9
		c-7.7,2.2-13.3,3.7-17.4,4.5c-8.1,1.8-9.9,1.1-10.5-0.8c-0.6-1.9-0.5-3.8,6.5-7.2c3.5-1.7,8.8-3.9,16.5-6.6
		c3.9-1.4,8.4-2.9,13.7-4.5c2.6-0.8,5.4-1.7,8.4-2.6c1.5-0.5,3.1-0.9,4.7-1.4c0.8-0.2,1.6-0.5,2.4-0.7l1.2-0.4l0.6-0.2l0.1,0l0,0
		c3,10.3,0.9,2.9,1.6,5.2c0.1,0,0,0.1,0,0.1l0,0l0,0l0,0.1l-1.6,5.2l0,0l-0.1,0l-0.6-0.2l-1.2-0.4c-0.8-0.2-1.6-0.5-2.4-0.7
		c-1.6-0.5-3.1-1-4.7-1.4c-3-0.9-5.8-1.8-8.4-2.6c-5.3-1.7-9.8-3.2-13.7-4.5c-7.8-2.7-13-4.8-16.5-6.6
		C57.7,100.7,57.6,98.8,58.2,96.9z"/>
</g>
<g id="XMLID_3649_" class="st4">
	<path id="XMLID_507_" class="st5" d="M242.7,99.4c0.6,1.9-0.6,3.4-8.1,6.4c-3.8,1.5-9.1,3.3-16.6,5.6c-3.8,1.2-8,2.5-13,4
		c-2.5,0.7-5.1,1.5-7.8,2.4c-1.4,0.4-2.8,0.8-4.3,1.3c-0.7,0.2-1.5,0.4-2.2,0.7l-0.6,0.2l-0.3,0.1l-0.1,0l0.5-0.2
		c1.7-0.6,3.1-2.7,2.9-4.4c0-1.7-1.1-3.7-3.1-4.5l0.1,0l0,0c0.1,0-0.8-0.3-0.4-0.1l0.1,0l0.3,0.1l0.6,0.2c0.8,0.2,1.5,0.4,2.2,0.7
		c1.5,0.4,2.9,0.9,4.3,1.3c2.8,0.8,5.4,1.6,7.8,2.4c4.9,1.5,9.2,2.8,13,4c7.5,2.4,12.9,4.2,16.6,5.6c7.5,2.9,8.7,4.5,8.1,6.4
		c-0.6,1.9-1.7,3.4-9.3,2.5c-3.8-0.5-9.2-1.6-17.1-3.5c-3.9-1-8.4-2.2-13.6-3.6c-2.6-0.7-5.4-1.5-8.3-2.4c-1.5-0.4-3-0.9-4.6-1.3
		c-0.8-0.2-1.6-0.5-2.4-0.7l-1.7-0.5l-0.2-0.1c-0.5-0.2-0.9-0.4-1.3-0.7c-0.6-0.5-1.1-1-1.6-1.6c-0.9-1.2-1.3-2.6-1.3-4
		c-0.2-2.7,2.1-5.8,4.7-6.5l1.4-0.4c0.8-0.2,1.6-0.5,2.4-0.7c1.6-0.5,3.1-0.9,4.6-1.3c3-0.8,5.7-1.6,8.3-2.4
		c5.2-1.5,9.7-2.7,13.6-3.6c7.8-2,13.3-3.1,17.1-3.5C241,95.9,242.1,97.5,242.7,99.4z"/>
</g>
<g id="XMLID_3417_">
	<path id="XMLID_337_" class="st2" d="M100,124.6c-2.1,0-2.9-1-4.5-4.7c-0.9-1.8-1.9-4.4-4.6-7.1c-2.6-2.7-6.9-5.6-13.1-5.7
		c-6.2,0.1-10.6,3-13.1,5.7c-2.7,2.7-3.7,5.3-4.6,7.1c-0.8,1.8-1.3,2.7-2,3.8c-0.7,0.9-1.5,1.1-2.5,1c-1-0.1-2-0.2-2.8-0.9
		c-0.4-0.4-0.8-0.9-1.2-1.6c-0.3-0.8-0.5-2-0.5-3.5c-0.1-2.8,0.7-7.2,4.4-12.4c3.6-5,11-10.9,22.3-11.1c11.3,0.1,18.7,6.1,22.3,11.1
		c3.7,5.2,4.4,9.6,4.4,12.4c-0.1,2.9-0.8,4.4-1.7,5.2C102,124.5,101,124.6,100,124.6z"/>
</g>
<g id="XMLID_3416_">
	<path id="XMLID_336_" class="st2" d="M241.4,124.6c-2.1,0-2.9-1-4.5-4.7c-0.9-1.8-1.9-4.4-4.6-7.1c-2.6-2.7-6.9-5.6-13.1-5.7
		c-6.2,0.1-10.6,3-13.1,5.7c-2.7,2.7-3.7,5.3-4.6,7.1c-0.8,1.8-1.3,2.7-2,3.8c-0.7,0.9-1.5,1.1-2.5,1c-1-0.1-2-0.2-2.8-0.9
		c-0.4-0.4-0.8-0.9-1.2-1.6c-0.3-0.8-0.5-2-0.5-3.5c-0.1-2.8,0.7-7.2,4.4-12.4c3.6-5,11-10.9,22.3-11.1c11.3,0.1,18.7,6.1,22.3,11.1
		c3.7,5.2,4.4,9.6,4.4,12.4c-0.1,2.9-0.8,4.4-1.7,5.2C243.3,124.5,242.4,124.6,241.4,124.6z"/>
</g>
</svg>
