<?xml version="1.0" encoding="utf-8"?>
<!-- Generator: Adobe Illustrator 24.3.0, SVG Export Plug-In . SVG Version: 6.00 Build 0)  -->
<svg version="1.1" id="レイヤー_1" xmlns="http://www.w3.org/2000/svg" xmlns:xlink="http://www.w3.org/1999/xlink" x="0px"
	 y="0px" viewBox="0 0 300 300" style="enable-background:new 0 0 300 300;" xml:space="preserve">
<style type="text/css">
	.st0{display:none;fill:#D8CC2F;}
	.st1{fill:#FFCB2B;}
	.st2{fill:#6E351D;}
	.st3{display:none;}
	.st4{display:inline;fill:#6E351D;}
</style>
<circle class="st0" cx="150" cy="150" r="150"/>
<path id="XMLID_3854_" class="st1" d="M150.1,0C232.9,0,300,67.1,300,149.9s-67.1,149.9-149.9,149.9S0.2,232.7,0.2,149.9
	S67.3,0,150.1,0z"/>
<circle id="XMLID_3832_" class="st2" cx="219.3" cy="133.8" r="23.1"/>
<circle id="XMLID_3824_" class="st2" cx="80.9" cy="133.8" r="23.1"/>
<g id="XMLID_3621_" class="st3">
	<path id="XMLID_504_" class="st4" d="M186,161.4c1,0,1.8,0.4,2.3,1.9c0.5,1.5,0.9,4.1,0.1,8.3c-0.9,4.2-2.7,10.3-8.4,16.8
		c-2.8,3.2-6.6,6.5-11.6,9c-2.5,1.3-5.3,2.4-8.3,3.2c-1.5,0.4-3.2,0.7-5,0.9c-1.9,0.3-3,0.2-4.6,0.3c-14.9-0.2-24.5-7.1-30.2-13.5
		c-5.7-6.5-7.6-12.6-8.4-16.8c-0.4-2.1-0.5-4-0.5-5.4c0-1.5,0.3-2.2,0.6-2.9c0.5-1.3,1.3-1.7,2.3-1.8c1-0.1,1.9,0,2.8,1
		c0.5,0.5,0.9,1.2,1.3,2.2c0.5,0.9,1,2,1.7,3.4c1.3,2.9,3.2,7.1,7.5,11.9c2.2,2.3,5,4.7,8.8,6.7c3.6,1.9,8.7,3.3,13.5,3.4
		c11.6-0.2,18.5-5.5,22.9-10.1c4.2-4.8,6.2-9,7.5-11.9c1.3-2.9,2.1-4.7,3-5.6C184.1,161.6,185,161.4,186,161.4z"/>
</g>
<g id="XMLID_3526_">
	<path id="XMLID_535_" class="st2" d="M203.5,199.1c0.6,1.3-0.4,3.1-7.7,5.8c-7.3,2.6-21.1,6.4-45.6,6.5c-24.8-0.2-38.4-4-45.7-6.5
		c-7.3-2.7-8.4-4.6-7.7-5.8c0.7-1.4,1.6-2.2,8.4-1c3.4,0.5,8.3,1.5,15.5,2.5c7.2,1,16.8,1.9,29.4,2c12.9-0.1,22.2-1,29.5-2
		c7.2-1,12.1-1.9,15.5-2.5C201.8,196.9,202.8,197.7,203.5,199.1z"/>
</g>
</svg>
