<?xml version="1.0" encoding="UTF-8"?><svg id="_レイヤー_1" xmlns="http://www.w3.org/2000/svg" viewBox="0 0 310.74849 314.97948"><defs><style>.cls-1{fill:#fff;}.cls-2{fill:#0f0f0f;}</style></defs><rect class="cls-2" width="311.57473" height="314.97948"/><path class="cls-1" d="m256.54338,136.09112v-.07938c5.35703-16.08064,3.5202-33.69031-5.03998-48.31934-12.88348-22.39929-38.80344-33.92212-64.08279-28.56184-11.28452-12.64407-27.45186-19.83852-44.399-19.75745-25.84062,0-48.79839,16.63934-56.8006,41.19868-16.6127,3.42448-30.95041,13.82794-39.35898,28.55905-12.96002,22.39934-10.00063,50.55867,7.36153,69.75774-5.36028,16.08092-3.52061,33.67836,5.04002,48.23991,12.8806,22.47876,38.79776,33.99875,64.15929,28.63843,11.23343,12.67799,27.381,19.90645,44.31967,19.83966,25.84058,0,48.79834-16.63939,56.80055-41.19873,16.63939-3.44124,30.95998-13.84154,39.27965-28.55901,13.03935-22.39938,10.08-50.55872-7.27936-69.75774Zm-56.85727-62.82133v.00284c15.86664-.03049,30.53668,8.43132,38.45476,22.18108,5.11935,8.96031,7.03844,19.43999,5.27811,29.59932-.3203-.24092-.9581-.55843-1.36066-.79935l-47.03806-27.20123c-2.40701-1.36125-5.35139-1.36125-7.75841,0l-55.11964,31.8387v-23.36028l45.51874-26.31967c6.69264-3.88014,14.28909-5.92932,22.02516-5.94141Zm-44.34517,57.30231l23.20157,13.43903v26.79872l-23.20157,13.43907-23.19873-13.43907v-26.79872l23.19873-13.43903Zm-56.55679-31.5184c-.00938-24.44934,19.78812-44.28493,44.23746-44.32246v.00284l-.07938.07938c10.4003,0,20.40092,3.59999,28.4003,10.24155-.32034.15875-.96094.55843-1.43999.79935l-47.0381,27.11906c-2.40092,1.36061-3.84091,3.92029-3.84091,6.72093v63.6774l-20.23938-11.6787v-52.63934Zm-38.48026,17.83557c5.17534-8.97075,13.32623-15.84805,23.03998-19.43999v55.92183c0,2.80064,1.43999,5.28094,3.84091,6.72093l55.03743,31.75937-20.32155,11.75807-45.43932-26.2403c-21.14397-12.25374-28.3732-39.31398-16.15746-60.47992Zm12.3165,102.63959h.07938c-5.19873-8.88094-7.04123-19.43999-5.28094-29.59932.32034.24092.96094.55843,1.36066.79935l47.03806,27.20123c2.40701,1.36125,5.35139,1.36125,7.75841,0l55.04311-31.8387v23.35744l-45.51869,26.2403c-21.20032,12.16063-48.23996,4.96065-60.47997-16.16029Zm139.43893-3.59715c0,24.47997-19.83966,44.31963-44.23746,44.31963v-.07938c-10.32092,0-20.40092-3.59999-28.32092-10.23871.32034-.15875,1.04031-.56126,1.43999-.80223l47.0381-27.11902c2.40092-1.36061,3.92029-3.92029,3.83807-6.72093l.00284-63.59807,20.23938,11.67874v52.55997Zm38.39804-17.92062l.07938.07938c-5.19873,8.96027-13.35965,15.83995-23.03998,19.36061v-55.92183c0-2.80064-1.43999-5.36032-3.84096-6.71809l-55.11676-31.84158,20.24217-11.6787,45.51869,26.24025c21.20032,12.24001,28.39746,39.27969,16.15746,60.47997Z"/></svg>