<?xml version="1.0" encoding="UTF-8"?>
<svg id="_レイヤー_1" data-name="レイヤー 1" xmlns="http://www.w3.org/2000/svg" viewBox="0 0 420 420">
  <defs>
    <style>
      .cls-1 {
        fill: #9ec6c8;
      }

      .cls-2 {
        fill: #dbdad4;
      }

      .cls-3 {
        fill: #fabe19;
      }

      .cls-4 {
        fill: #cdb603;
      }

      .cls-5 {
        fill: #454554;
      }

      .cls-6 {
        fill: #fff;
      }

      .cls-7 {
        fill: #b2b1aa;
      }

      .cls-8 {
        fill: #6b966b;
      }

      .cls-9 {
        fill: #f4d84e;
      }
    </style>
  </defs>
  <path class="cls-6" d="M101.11,147.47c-8.61-13.81-4.68-31.13,2.87-44.64.48.4,1.08.66,1.63.82,5.13,1.88,10.42,3.44,15.77,4.55,5.8,1.22,11.71,1.93,17.65,1.95.49,6.23,1.01,12.44,1.57,18.62.34,3.5.67,6.99,1.05,10.49-7.36,2.62-13.95,7.4-19.48,12.8-.24.2-.25.57-.01.77,11.66,11.77,31.18,15.7,45.67,6.86,4.59-2.67,8.7-6.12,12.01-10.27.12-.14.27-.34.36-.55,0,0,0-.01,0-.02.03-.08.06-.17.06-.26-.03-.09-.09-.17-.15-.25-.01-.02-.03-.03-.04-.05-.13-.15-.29-.28-.43-.37-4.13-3.11-8.67-5.63-13.47-7.56-2.39-.96-4.88-1.74-7.42-2.28-.07-7.34-.27-14.68-.57-22-.11-2.49-.23-4.98-.36-7.48.47.06.91.06,1.12,0,5.55-.88,10.96-2.52,16.18-4.54,5.18-2.09,10.19-4.55,15.01-7.35.48-.33,1.21-.57,1.62-1.06,5.22,7.23,8.78,15.81,9.47,24.57.42,7.28.14,14.83-2.32,21.71-4.98,11.95-14.54,19.04-25.2,25.72-13.99,8.32-33.34,8.69-48.14,2.41-10.37-4.46-18.96-12.71-24.44-22.58Z"/>
  <path class="cls-8" d="M186.28,78.19c-7.11,4.48-14.65,8.3-22.64,10.94-2.05.7-4.14,1.3-6.25,1.79-.18.05-.37.11-.54.19-.87-14.31-1.96-28.65-3.3-42.85,16.38,2.14,26.77,15.23,32.74,29.93Z"/>
  <path class="cls-8" d="M135.24,49.99c.29,6.95.67,13.9,1.08,20.84.42,7.19.89,14.43,1.39,21.69-10.36.14-20.72-2.38-30.25-6.34.24-.85.49-1.7.75-2.54,4.69-15.63,13.43-28.7,27.03-33.65Z"/>
  <path class="cls-2" d="M80.84,207.36c3.74-5.24,10.19-7.99,15.8-10.98,8.28-4.19,17.23-7.41,25.25-12.26.65-.36,1.32-.86,1.91-1.45,3.56,2.97,7.61,5.23,11.9,7,12.85,5.34,29.06,4.74,39.91-4.56.4.64.86,1.26,1.41,1.82,1.47,1.6,3.62,2.36,5.54,3.22,3.71,1.59,7.45,3.06,11.19,4.49,3.53,1.3,6.85,2.94,10.55,3.69l-10.39,14.81c-9.24,13.11-18.12,26.47-26.37,40.23-1.53,2.58-3.05,5.17-4.53,7.78-8.75-9.11-18.25-17.38-27.74-25.69-4.34-3.67-10.55-9.29-15.01-12.72-5.41-3.88-11.41-6.74-17.7-8.83-.66-.21-.96.77-.36,1,7.38,3.28,14.36,7.35,20.16,12.91l3.61,3.31c11.8,10.61,23.7,21.6,36.42,31.12-2.25,4.02-4.38,8.12-6.2,12.39-.1.25,0,.54.23.67.27.15.6.04.74-.23,1.93-3.46,4.05-6.85,6.22-10.21,10.06-15.61,22.66-34.82,32.37-50.55,4.17-6.72,8.42-13.38,12.72-20.02,1.71.08,3.41.41,5.03.97,3.45,1.22,6.36,3.69,8.4,6.71.98,1.46,1.82,3.07,2.38,4.7-4.97,12.56-10,25.09-15.09,37.6-4.55,10.92-8.8,22.01-13.97,32.65-3.83,7.27-7.33,15.32-14.27,20.1-16.06,10.64-41.01-3.03-55.36-11.98-11.34-7.19-22.17-15.29-31.29-25.22-4.5-4.9-8.97-9.94-12.51-15.58-7.06-11.06-7.7-25.63-.95-36.93Z"/>
  <path class="cls-2" d="M141.53,330.3c0,1.14.02,2.28.04,3.42-9.9-1-19.9-1.24-29.75-2.63-5.55-.81-11.39-1.51-16.59-3.7.83-7.91.82-15.95.55-23.82-.58-14.43-2.22-28.8-5.24-42.91.45.49.9.98,1.35,1.47,9.32,10.07,20.37,18.4,32.06,25.56,15.43,9.36,41.22,22.94,58.33,11.29,7.26-5.12,10.84-13.45,14.71-21.07,5.02-10.66,9.12-21.75,13.51-32.68-.02,12.28-.14,25.56-.36,37.7-.21,15.96-.81,31.9-1.52,47.85-2.21.26-4.5.36-6.76.51-7.4.44-15.52.81-22.88,1.78,0-.16,0-.32,0-.48,0-.6-.01-2.25,0-2.82.03-.69.05-1.39-.65-1.76-.49-.27-1.2-.08-1.66-.12-1.18.02-4.43.09-5.64.11-8.59.11-17.79.08-26.34.34-.32,0-1.16.04-1.46.04-.97.02-1.76.97-1.67,1.92Z"/>
  <polygon class="cls-2" points="358.31 208.64 334.87 220.28 281.49 260.64 233.93 224.44 223.68 211.17 211.59 242.44 212 254.4 264.06 291.66 277.05 298.73 293.63 294.79 309.69 282.42 353.47 234.23 363.42 220.2 368.67 210.74 358.31 208.64"/>
  <path class="cls-3" d="M178.34,149.32c-14.11,13.51-31.45,16.54-48.86,7.07-1.91-1.01-3.76-2.19-5.49-3.48,4.31-.24,8.61-.51,12.9-.83,12.79-.97,28.51-1.8,41.45-2.76Z"/>
  <path class="cls-3" d="M165.35,147.84c-13.62.15-27.24,1.36-40.66,3.71,19.53-13.91,31.09-14.7,52.72-3.51-4.02-.18-8.04-.25-12.06-.2Z"/>
  <path class="cls-2" d="M125.83,177.26l.68-3.39c8.17,3.16,17.11,4.42,25.84,3.54,7.37-.52,14.73-2.43,21.18-6.07-.41,3.28-.36,6.6.42,9.87.26.96.6,1.92,1.06,2.84-17.43,7.96-33.81,7.21-50.52-2.23.43-.63.74-1.32.8-2.07l.52-2.49Z"/>
  <path class="cls-1" d="M103.01,101.15c-5.53-.13-11.71-1.48-16.19-4.34-9.14-5.84-12-18.43-8.17-28.32,1.73-4.63,4.55-8.91,7.93-12.57-1.06,9.03,1.39,22.66,10.29,26.27,2.89,1.06,5.87,1.22,8.76.85-.25,1.09-.49,2.18-.7,3.28-.01.03-.03.05-.04.08-.08.19-.11.39-.09.59-.91,4.7-1.46,9.45-1.54,14.24-.05-.05-.12-.09-.24-.08Z"/>
  <path class="cls-1" d="M196.69,75.17c8.22-5.51,9.2-18.02,6.83-27.09,3.78,3.21,7.09,7.08,9.39,11.43,5.02,9.26,3.9,21.95-4.26,28.96-4.01,3.43-10.49,5.56-15.95,6.52-.02,0-.03,0-.04.01-.13-.16-.26-.33-.4-.49-.55-5.63-1.69-11.43-3.5-17.03,2.75-.09,5.49-.81,7.94-2.31Z"/>
  <path class="cls-4" d="M106.83,88.52c4.9,1.99,9.9,3.47,15.07,4.57,5.24,1.11,10.6,1.67,15.96,1.52.31,4.46.64,8.92.99,13.38-10.32-.33-20.56-2.35-30.39-5.46l-2.18-.73c-.61-.21-1.21-.46-1.9-.43.55-4.32,1.37-8.63,2.46-12.84Z"/>
  <path class="cls-4" d="M191.09,94.22c-.33,0-.6.12-.85.27-7.91,4.23-16.31,7.57-24.95,9.96-2.24.62-4.5,1.15-6.79,1.53-.28.05-.55.12-.82.22-.21-4.12-.44-8.24-.69-12.36.41.05.79.05,1-.02,5.19-1.03,10.25-2.69,15.08-4.82,5.01-2.22,9.78-4.99,14.19-8.24,1.65,4.48,2.91,9.05,3.81,13.46Z"/>
  <path class="cls-4" d="M138.51,49c-.15,1.26.1,2.59.82,3.7,2.62,4.34,9.64,3.3,10.81-1.68.27-1.02.22-2.09-.08-3.07.74.04,1.49.1,2.25.18.13,7.11.37,14.22.67,21.33.6,15.36,1.48,31.46,2.6,46.78.54,7.21,1.18,14.42,1.95,21.62-3.08-.54-6.22-.69-9.33-.29-1.85.3-3.66.74-5.42,1.31-1.24-29.76-3.49-59.62-6.36-89.27.69-.22,1.39-.43,2.11-.61Z"/>
  <g>
    <rect class="cls-6" x="225.48" y="40.97" width="131.67" height="181.14" rx="2.62" ry="2.62" transform="translate(-4.16 9.62) rotate(-1.88)"/>
    <path class="cls-9" d="M357.41,218.45c.63-.03,1.14-.59,1.05-1.24l-.02-.61-.14-4.85c-1.38-47.99-3.51-116.61-4.92-164.91l-.14-4.85c-.03-.34.01-.63-.09-.92-.27-.76-1-1.24-1.85-1.13-6.03.23-41.65,1.1-48.51,1.34-22.84.89-55.09,1.42-77.6,2.37-1.5.14-2.2,1.36-1.96,2.86l.17,4.85c1.58,47.98,4.15,116.6,5.89,164.88l.18,4.85c-.01.61.05,1.08.47,1.5.36.38.89.5,1.4.44,39.63-1.45,86.57-3.3,126.08-4.58Z"/>
    <path class="cls-5" d="M357.51,221.53c-39.47,1.36-86.51,2.48-126.11,3.69-2,.2-3.95-1.37-4.06-3.4-.03-.31-.02-.43-.03-.66l-.14-4.85c-1.34-48.4-3.44-116.82-4.93-164.91l-.15-4.85c-.06-.81-.03-1.96.56-2.67.56-.81,1.52-1.32,2.5-1.35,22.39-.83,54.86-1.81,77.59-2.72,7-.26,42.22-1.61,48.49-1.84,1.91-.21,3.89,1.31,3.99,3.3.61,16.75,3.03,84.51,3.67,102.49.63,17.83,1.8,50.34,2.43,67.89l.17,4.85.02.61c.18,2.25-1.72,4.41-4.01,4.43ZM357.41,218.45c.63-.03,1.14-.59,1.05-1.24l-.02-.61-.14-4.85c-1.38-47.99-3.51-116.61-4.92-164.91l-.14-4.85c-.03-.34.01-.63-.09-.92-.27-.76-1-1.24-1.85-1.13-6.03.23-41.65,1.1-48.51,1.34-22.84.89-55.09,1.42-77.6,2.37-1.5.14-2.2,1.36-1.96,2.86l.17,4.85c1.58,47.98,4.15,116.6,5.89,164.88l.18,4.85c-.01.61.05,1.08.47,1.5.36.38.89.5,1.4.44,39.63-1.45,86.57-3.3,126.08-4.58Z"/>
    <path class="cls-6" d="M350.42,211.03c.6-.02,1.11-.56,1.08-1.16v-.27s-.13-4.4-.13-4.4c-1.2-43.54-3.01-105.78-4.24-149.59l-.13-4.4-.03-1.1c.03-.97-.1-1.68-.9-2.2-.47-.29-.87-.29-1.69-.25l-2.2.06c-1.6.13-37.02,1.02-39.6,1.15l-70.39,2.22c-1.2.03-2.19,1.13-2.01,2.43l.15,4.4c1.4,43.52,3.7,105.77,5.31,149.55l.16,4.4.04,1.1c.02.36.02.78.06.95.35,1.08,1.03,1.46,2.36,1.3,26.19-.97,85.34-3.19,112.16-4.19Z"/>
    <path class="cls-5" d="M350.51,214.03c-25.9.73-84.76,2.4-109.99,3.11l-2.2.06c-.37,0-.69.05-1.25-.01-1.52-.17-2.83-1.4-3.09-2.91-.13-1.45-.18-5.22-.24-6.75-1.19-43.9-3.13-105.96-4.5-149.58l-.14-4.4c-.02-.33-.02-.85.11-1.26.36-1.29,1.59-2.26,2.93-2.29l70.38-2.4c2.7,0,37.78-1.45,39.59-1.45.69.02,2.64-.16,3.42-.08,1.44.16,2.69,1.31,2.94,2.74.71,16.44,2.87,77.2,3.56,94.69.6,16.17,1.71,45.67,2.3,61.58l.16,4.4v.27s0,.43,0,.43c-.12,2.05-1.93,3.81-3.99,3.84ZM350.42,211.03c.6-.02,1.11-.56,1.08-1.16v-.27s-.13-4.4-.13-4.4c-1.2-43.54-3.01-105.78-4.24-149.59l-.13-4.4-.03-1.1c.03-.97-.1-1.68-.9-2.2-.47-.29-.87-.29-1.69-.25l-2.2.06c-1.6.13-37.02,1.02-39.6,1.15l-70.39,2.22c-1.2.03-2.19,1.13-2.01,2.43l.15,4.4c1.4,43.52,3.7,105.77,5.31,149.55l.16,4.4.04,1.1c.02.36.02.78.06.95.35,1.08,1.03,1.46,2.36,1.3,26.19-.97,85.34-3.19,112.16-4.19Z"/>
    <g>
      <path class="cls-5" d="M144.34,128.6c4.72,6.33,14.2-.55,9.25-6.93-4.77-5.66-13.33.75-9.25,6.93ZM145.41,127.79c-3.59-4.75,3.37-9.97,6.92-5.18,2.73,4.53-3.32,9.31-6.92,5.18Z"/>
      <path class="cls-5" d="M151.02,106.6c2.84-1.9,3.24-5.91,1.02-8.4-3-3.91-9.57-2.12-10.23,2.71-.88,5.01,5.05,8.71,9.21,5.69ZM150.76,99.17c2.51,4.51-3.25,9.21-6.9,5.16-3.63-4.73,3.37-9.97,6.9-5.16Z"/>
      <path class="cls-5" d="M150.63,81.18c-4.81-5.63-13.31.76-9.3,6.97,4.75,6.47,14.49-.5,9.3-6.97ZM149.33,82.16c2.5,4.44-3.26,9.14-6.86,5.14-3.66-4.71,3.36-9.96,6.86-5.14Z"/>
      <path class="cls-5" d="M175.57,100.86c2.82-1.85,3.36-5.98,1.1-8.45-3.03-3.93-9.66-2.11-10.28,2.77-.84,4.99,5.04,8.65,9.19,5.68ZM175.24,93.48c2.51,4.55-3.2,9.17-6.86,5.13-3.59-4.72,3.37-9.93,6.86-5.13Z"/>
      <path class="cls-5" d="M127.2,104.59c2.88-1.89,3.18-6.05.98-8.53-3.03-3.88-9.58-2.08-10.29,2.74-.95,5.09,5.09,8.88,9.31,5.8ZM126.82,97.08c2.46,4.33-3.28,8.99-6.79,5.09-3.7-4.68,3.32-9.94,6.79-5.09Z"/>
      <path class="cls-5" d="M148.85,72.27c2.84-1.85,3.18-6.13,1.01-8.58-3.05-3.89-9.61-2.04-10.35,2.76-.99,5.11,5.11,8.94,9.34,5.82ZM148.41,64.77c2.54,4.28-3.3,8.89-6.73,5.04-3.7-4.69,3.24-9.9,6.73-5.04Z"/>
      <path class="cls-5" d="M125.7,138.01c2.31-.15,4.33-1.38,5.75-3.21,1.42-1.83,2.26-4.28,2.27-6.94,0-.28,0-.57-.03-.85h0c-.19-2.75-1.24-5.2-2.83-6.97-1.59-1.77-3.73-2.87-6.06-2.87-.16,0-.33,0-.5.02-2.31.15-4.33,1.38-5.75,3.21-1.42,1.83-2.27,4.28-2.27,6.94,0,.28,0,.57.03.85.19,2.75,1.24,5.2,2.83,6.97,1.59,1.77,3.73,2.87,6.06,2.87.16,0,.33,0,.5-.02Z"/>
      <path class="cls-5" d="M181.56,123.79h0c-.19-2.75-1.24-5.2-2.83-6.97-1.59-1.77-3.73-2.87-6.06-2.87-.16,0-.33,0-.5.02-2.31.15-4.33,1.38-5.75,3.21-1.42,1.83-2.26,4.28-2.27,6.94,0,.28,0,.57.03.85.19,2.75,1.24,5.2,2.83,6.97,1.59,1.77,3.73,2.87,6.06,2.87.16,0,.33,0,.5-.02,2.31-.15,4.33-1.38,5.75-3.21,1.42-1.83,2.27-4.28,2.27-6.94,0-.28,0-.57-.03-.85Z"/>
      <path class="cls-5" d="M234.6,223.62c-.53-.39-1.15.41-.67.83,4.07,3.72,8.2,7.36,12.37,10.95,3.12,2.67,9.47,8,12.64,10.61,6.62,5.4,13.21,10.83,20.2,15.73.05.06.12.1.19.13,1.96,1.37,3.95,2.71,5.99,3.99.52.35,1.1-.41.67-.83-1.47-1.5-2.98-2.96-4.51-4.39l12.36-8.83c13.54-9.75,28.5-20.51,41.63-30.65.55-.42-.08-1.21-.61-.87-4.86,3.09-9.63,6.3-14.37,9.55-13.62,9.41-27.35,19.13-39.92,29.95-6.26-5.76-12.93-11.02-19.6-16.32-8.41-6.61-17.68-13.71-26.39-19.85Z"/>
      <path class="cls-5" d="M372.34,163.05s-12.41-19.77-14.81-20.83c-2.4-1.05-20.67-1.28-20.67,0s-.55,3.64,6.8,5.32c7.35,1.68,11.12,1.66,11.12,1.66l4.17,5.62s-6.59-4.52-9.13-4.3c-2.55.21-14,4.15-14.65,4.3-.65.16-.65,4.51,6.15,3.61,6.8-.9,9.95-1.34,9.95-1.34l2.54,2.72s-4.13.54-5.22,1.09c-1.09.54-7.61,3.53-8.15,4.21-.54.68,1.49,4.35,4.62,3.8,3.12-.54,6.54-1.91,6.54-1.91l7.73,3.54s-9.78,2.58-12.09,3.94c-2.31,1.36-.68,3.94,2.99,3.67,3.67-.27,8.45-1.09,8.45-1.09l1.02,31.06s0,.03,0,.07c-.51,0-.78.78-.21,1.02,2.59,1.05,5.25,1.49,7.97,1.88-1.11,3.88-3.63,7.38-5.83,10.76-2.47,3.56-5.12,7.01-7.84,10.41-13.7,16.9-28.58,32.87-43.89,48.32-6.02,6.04-12.31,12.15-20.6,14.58-8.63,2.71-16.43.84-23.71-4.24-17.14-10.83-36.65-24.92-53.6-36.51-.12-3.99-.26-7.98-.41-11.96,3.93-10.04,7.82-20.1,11.67-30.17l4.59,4.68c.21.21.54.21.75,0,.21-.21.21-.54,0-.75l-4.93-5.03c.55-1.42,1.1-2.84,1.64-4.27-.05-.22-.11-.44-.18-.66.77-1.15,2.96-4.31,6.16-8.22,4.05-4.94,4.69-15.09,5.54-17.43s4.47-3.41,8.73-6.84c4.26-3.43,3.41-7.22.21-5.73-3.2,1.49-12.36,5.73-12.36,5.73,3.2-3.43,6.82-5.09,13-8.5,6.18-3.41,5.33-8.73,1.28-7.46-4.05,1.28-17.26,7.67-17.26,7.67,0,0,5.75-5.96,11.72-8.95,5.96-2.98,7.46-4.05,7.67-5.96.21-1.92-1.49-2.13-4.69-1.35-3.2.78-14.91,5.62-14.91,5.62,0,0,8.73-5.76,11.5-8.53,2.77-2.77,2.56-6.18,1.07-6.39-1.49-.21-22.58,13-24.5,14.92-1.92,1.93-3.83,24.91-4.05,28.54-.18,3.02-4.3,8.25-5.66,9.89-.13-.01-.27-.03-.4-.04-.18-.01-.38.08-.48.24l-2.58,3.68c-2.93-2.73-6.79-3.65-10.39-5.12l-11.25-4.18c-1.73-.7-3.57-1.15-4.93-2.49-3.65-3.79-3.98-9.59-3.7-14.79.42-.26.83-.52,1.24-.79,10.88-6.84,20.44-14.38,25.54-26.63,2.68-7.4,2.66-15.43,1.98-23.13-.96-8.78-4.7-17.04-10.12-23.93,2.87.05,6.49-.37,9.11-1.09,2.85-.83,5.62-2.12,8.07-3.94,7.57-5.5,10.42-15.85,8.44-24.76-1.99-8.8-8.45-16.11-16.35-20.16-.4-.29-.98.14-.78.6,1.11,7.83.71,16.44-3.48,23.31-2.28,3.48-6.16,5.35-10.24,6.09-4.35-12.57-12.19-23.9-24.58-29.39-10.72-4.52-23.43-4.15-33.88.96-12.99,6.58-20.41,20.37-23.88,34-4.32-.16-8.9-.96-11.72-4.28-4.98-6.44-6.33-15.01-6.37-23,.11-.48-.5-.81-.86-.48-7.18,5.15-12.54,13.23-13.3,22.18-1.16,16.99,12.12,28.73,28.82,26.11.22-.03.42-.18.57-.35-2.6,3.86-4.62,8.01-6.27,12.35-1.67,4.43-2.82,9.09-3.18,13.88-1.03,9.7,2.95,19.21,8.62,26.92,5.71,8.37,13.9,14.63,23.15,18.43-.53,1.93-1.3,4.6-1.62,5.96-.46,2.45-3.09,3.24-5.05,4.33-7.65,3.64-15.57,6.51-23.34,10.07-6.26,3.05-13.17,5.92-17.38,11.85-7.6,12.3-6.85,28.41.88,40.4,2.88,4.56,6.31,8.71,9.9,12.71.43,7.29.87,14.57,1.22,21.83,1.12,23.08,1.67,46.14-1.29,69.11-.12.64.79.86,1.02.3.54-1.3,1.03-2.62,1.49-3.94,4.08,1.49,8.24,2.67,12.45,3.65,12.52,2.84,25.58,4.52,38.37,2.72,0,.55.01,1.1.01,1.65,0,.57.42,1.09.98,1.2.43.06.73-.01,1.06,0,9.39-.36,18.85-.39,28.24-.85l3.77-.21c.3-.01,1.15-.1,1.44-.11.6,0,1.21-.25,1.53-.77.4-.51.21-1.36.26-1.91,0-.68-.01-1.38-.02-2.1,4.68.2,9.35.23,14.03.09,4.86-.21,9.71-.35,14.44-1.69-.06,1.23-.12,2.46-.18,3.7-.01.27.18.52.46.56.29.04.56-.16.6-.46,4.02-31.71,4.27-63.78,3.33-95.72,18.92,14.08,37.6,28.71,57.97,40.67,10.45,5.31,23.22,1.94,31.98-5.08,3.53-2.73,6.58-5.88,9.72-9,9.25-9.31,18.14-18.93,26.76-28.82,8.59-9.91,17.09-19.96,24.36-30.91,2.34-3.77,4.88-7.46,5.83-11.91.06-.29-.15-.56-.43-.61.54-3.06,3.34-19.09,4.11-29.24.85-11.26,0-17.84,0-17.84ZM196.69,75.17c8.22-5.51,9.2-18.02,6.83-27.09,3.78,3.21,7.09,7.08,9.39,11.43,5.02,9.26,3.9,21.95-4.26,28.96-4.01,3.43-10.49,5.56-15.95,6.52-.02,0-.03,0-.04.01-.13-.16-.26-.33-.4-.49-.55-5.63-1.69-11.43-3.5-17.03,2.75-.09,5.49-.81,7.94-2.31ZM191.09,94.22c-.33,0-.6.12-.85.27-7.91,4.23-16.31,7.57-24.95,9.96-2.24.62-4.5,1.15-6.79,1.53-.28.05-.55.12-.82.22-.21-4.12-.44-8.24-.69-12.36.41.05.79.05,1-.02,5.19-1.03,10.25-2.69,15.08-4.82,5.01-2.22,9.78-4.99,14.19-8.24,1.65,4.48,2.91,9.05,3.81,13.46ZM165.35,147.84c-13.62.15-27.24,1.36-40.66,3.71,19.53-13.91,31.09-14.7,52.72-3.51-4.02-.18-8.04-.25-12.06-.2ZM178.34,149.32c-14.11,13.51-31.45,16.54-48.86,7.07-1.91-1.01-3.76-2.19-5.49-3.48,4.31-.24,8.61-.51,12.9-.83,12.79-.97,28.51-1.8,41.45-2.76ZM186.28,78.19c-7.11,4.48-14.65,8.3-22.64,10.94-2.05.7-4.14,1.3-6.25,1.79-.18.05-.37.11-.54.19-.87-14.31-1.96-28.65-3.3-42.85,16.38,2.14,26.77,15.23,32.74,29.93ZM139.99,48.66c2.59-.54,5.34-.81,8.24-.77.96,4-4,7.61-7.34,3.74-.64-.81-.96-1.88-.9-2.97ZM138.51,49c-.15,1.26.1,2.59.82,3.7,2.62,4.34,9.64,3.3,10.81-1.68.27-1.02.22-2.09-.08-3.07.74.04,1.49.1,2.25.18.13,7.11.37,14.22.67,21.33.6,15.36,1.48,31.46,2.6,46.78.54,7.21,1.18,14.42,1.95,21.62-3.08-.54-6.22-.69-9.33-.29-1.85.3-3.66.74-5.42,1.31-1.24-29.76-3.49-59.62-6.36-89.27.69-.22,1.39-.43,2.11-.61ZM108.21,83.64c4.69-15.63,13.43-28.7,27.03-33.65.29,6.95.67,13.9,1.08,20.84.42,7.19.89,14.43,1.39,21.69-10.36.14-20.72-2.38-30.25-6.34.24-.85.49-1.7.75-2.54ZM106.83,88.52c4.9,1.99,9.9,3.47,15.07,4.57,5.24,1.11,10.6,1.67,15.96,1.52.31,4.46.64,8.92.99,13.38-10.32-.33-20.56-2.35-30.39-5.46l-2.18-.73c-.61-.21-1.21-.46-1.9-.43.55-4.32,1.37-8.63,2.46-12.84ZM103.01,101.15c-5.53-.13-11.71-1.48-16.19-4.34-9.14-5.84-12-18.43-8.17-28.32,1.73-4.63,4.55-8.91,7.93-12.57-1.06,9.03,1.39,22.66,10.29,26.27,2.89,1.06,5.87,1.22,8.76.85-.25,1.09-.49,2.18-.7,3.28-.01.03-.03.05-.04.08-.08.19-.11.39-.09.59-.91,4.7-1.46,9.45-1.54,14.24-.05-.05-.12-.09-.24-.08ZM101.11,147.47c-8.61-13.81-4.68-31.13,2.87-44.64.48.4,1.08.66,1.63.82,5.13,1.88,10.42,3.44,15.77,4.55,5.8,1.22,11.71,1.93,17.65,1.95.49,6.23,1.01,12.44,1.57,18.62.34,3.5.67,6.99,1.05,10.49-7.36,2.62-13.95,7.4-19.48,12.8-.24.2-.25.57-.01.77,11.66,11.77,31.18,15.7,45.67,6.86,4.59-2.67,8.7-6.12,12.01-10.27.12-.14.27-.34.36-.55,0,0,0-.01,0-.02.03-.08.06-.17.06-.26-.03-.09-.09-.17-.15-.25-.01-.02-.03-.03-.04-.05-.13-.15-.29-.28-.43-.37-4.13-3.11-8.67-5.63-13.47-7.56-2.39-.96-4.88-1.74-7.42-2.28-.07-7.34-.27-14.68-.57-22-.11-2.49-.23-4.98-.36-7.48.47.06.91.06,1.12,0,5.55-.88,10.96-2.52,16.18-4.54,5.18-2.09,10.19-4.55,15.01-7.35.48-.33,1.21-.57,1.62-1.06,5.22,7.23,8.78,15.81,9.47,24.57.42,7.28.14,14.83-2.32,21.71-4.98,11.95-14.54,19.04-25.2,25.72-13.99,8.32-33.34,8.69-48.14,2.41-10.37-4.46-18.96-12.71-24.44-22.58ZM125.31,179.75l.52-2.49.68-3.39c8.17,3.16,17.11,4.42,25.84,3.54,7.37-.52,14.73-2.43,21.18-6.07-.41,3.28-.36,6.6.42,9.87.26.96.6,1.92,1.06,2.84-17.43,7.96-33.81,7.21-50.52-2.23.43-.63.74-1.32.8-2.07ZM81.79,244.28c-7.06-11.06-7.7-25.63-.95-36.93,3.74-5.24,10.19-7.99,15.8-10.98,8.28-4.19,17.23-7.41,25.25-12.26.65-.36,1.32-.86,1.91-1.45,3.56,2.97,7.61,5.23,11.9,7,12.85,5.34,29.06,4.74,39.91-4.56.4.64.86,1.26,1.41,1.82,1.47,1.6,3.62,2.36,5.54,3.22,3.71,1.59,7.45,3.06,11.19,4.49,3.53,1.3,6.85,2.94,10.55,3.69l-10.39,14.81c-9.24,13.11-18.12,26.47-26.37,40.23-1.53,2.58-3.05,5.17-4.53,7.78-8.75-9.11-18.25-17.38-27.74-25.69-4.34-3.67-10.55-9.29-15.01-12.72-5.41-3.88-11.41-6.74-17.7-8.83-.66-.21-.96.77-.36,1,7.38,3.28,14.36,7.35,20.16,12.91l3.61,3.31c11.8,10.61,23.7,21.6,36.42,31.12-2.25,4.02-4.38,8.12-6.2,12.39-.1.25,0,.54.23.67.27.15.6.04.74-.23,1.93-3.46,4.05-6.85,6.22-10.21,10.06-15.61,22.66-34.82,32.37-50.55,4.17-6.72,8.42-13.38,12.72-20.02,1.71.08,3.41.41,5.03.97,3.45,1.22,6.36,3.69,8.4,6.71.98,1.46,1.82,3.07,2.38,4.7-4.97,12.56-10,25.09-15.09,37.6-4.55,10.92-8.8,22.01-13.97,32.65-3.83,7.27-7.33,15.32-14.27,20.1-16.06,10.64-41.01-3.03-55.36-11.98-11.34-7.19-22.17-15.29-31.29-25.22-4.5-4.9-8.97-9.94-12.51-15.58ZM91.6,345.03c1.74-5.31,2.83-10.8,3.49-16.36.42.21.85.4,1.29.58,6.81,2.69,14.11,3.76,21.34,4.66,7.93.9,15.91,1.36,23.89,1.01.13,5.45.4,10.9.47,16.36-17-.28-34-1.89-50.47-6.24ZM177.88,332.59c-.05,6.12-.39,13.47-.41,19.59l-1.47.14c-9.48.63-22.48,1.53-31.91,1.86l-.47.02c-.28,0-.42.09-.47-.13,0-7.83.52-15.67.55-23.5,1.21-.04,3.93-.13,4.75-.17,9.52-.4,19.61-1.08,29.15-1.42.36-.05.25.14.28.32v.47c0,.58,0,2.23,0,2.82ZM207.88,346.57c-9.36,1.62-19.05,1.35-28.55,1.61-.09-4.54-.28-9.53-.34-13.95,5.08.31,10.15.19,15.21-.13,4.84-.39,9.65-.71,14.36-2.03-.22,4.83-.45,9.67-.68,14.5ZM210.14,282.93c-.21,15.96-.81,31.9-1.52,47.85-2.21.26-4.5.36-6.76.51-7.4.44-15.52.81-22.88,1.78,0-.16,0-.32,0-.48,0-.6-.01-2.25,0-2.82.03-.69.05-1.39-.65-1.76-.49-.27-1.2-.08-1.66-.12-1.18.02-4.43.09-5.64.11-8.59.11-17.79.08-26.34.34-.32,0-1.16.04-1.46.04-.97.02-1.76.97-1.67,1.92,0,1.14.02,2.28.04,3.42-9.9-1-19.9-1.24-29.75-2.63-5.55-.81-11.39-1.51-16.59-3.7.83-7.91.82-15.95.55-23.82-.58-14.43-2.22-28.8-5.24-42.91.45.49.9.98,1.35,1.47,9.32,10.07,20.37,18.4,32.06,25.56,15.43,9.36,41.22,22.94,58.33,11.29,7.26-5.12,10.84-13.45,14.71-21.07,5.02-10.66,9.12-21.75,13.51-32.68-.02,12.28-.14,25.56-.36,37.7Z"/>
    </g>
  </g>
  <path class="cls-9" d="M120.03,102.16c-3.7-4.68,3.32-9.94,6.79-5.09,2.46,4.33-3.28,8.99-6.79,5.09"/>
  <path class="cls-9" d="M150.76,99.17c2.51,4.51-3.25,9.21-6.9,5.16-3.63-4.73,3.37-9.97,6.9-5.16Z"/>
  <path class="cls-9" d="M175.24,93.48c2.51,4.55-3.2,9.17-6.86,5.13-3.59-4.72,3.37-9.93,6.86-5.13Z"/>
  <path class="cls-9" d="M145.41,127.79c-3.59-4.75,3.37-9.97,6.92-5.18,2.73,4.53-3.32,9.31-6.92,5.18Z"/>
  <path class="cls-9" d="M139.99,48.66c2.59-.54,5.34-.81,8.24-.77.96,4-4,7.61-7.34,3.74-.64-.81-.96-1.88-.9-2.97Z"/>
  <path class="cls-9" d="M148.41,64.77c2.54,4.28-3.3,8.89-6.73,5.04-3.7-4.69,3.24-9.9,6.73-5.04Z"/>
  <path class="cls-9" d="M142.47,87.3c-3.66-4.71,3.36-9.96,6.86-5.14,2.5,4.44-3.26,9.14-6.86,5.14"/>
  <path class="cls-7" d="M91.6,345.03c1.74-5.31,2.83-10.8,3.49-16.36.42.21.85.4,1.29.58,6.81,2.69,14.11,3.76,21.34,4.66,7.93.9,15.91,1.36,23.89,1.01.13,5.45.4,10.9.47,16.36-17-.28-34-1.89-50.47-6.24Z"/>
  <path class="cls-7" d="M207.88,346.57c-9.36,1.62-19.05,1.35-28.55,1.61-.09-4.54-.28-9.53-.34-13.95,5.08.31,10.15.19,15.21-.13,4.84-.39,9.65-.71,14.36-2.03-.22,4.83-.45,9.67-.68,14.5Z"/>
  <path class="cls-4" d="M177.88,332.59c-.05,6.12-.39,13.47-.41,19.59l-1.47.14c-9.48.63-22.48,1.53-31.91,1.86l-.47.02c-.28,0-.42.09-.47-.13,0-7.83.52-15.67.55-23.5,1.21-.04,3.93-.13,4.75-.17,9.52-.4,19.61-1.08,29.15-1.42.36-.05.25.14.28.32v.47c0,.58,0,2.23,0,2.82Z"/>
  <g>
    <g>
      <path class="cls-5" d="M257.22,104.42c-.37,1.62-.98,2.96-1.81,4.07.82.45,1.77.77,2.83.97-.48.46-1.09,1.39-1.38,1.99-1.14-.28-2.15-.72-3.03-1.3-.76.63-1.63,1.14-2.59,1.57-.24-.45-.67-1.09-1.09-1.55l.06,1.55-2.37.09-.05-1.23c-1.89.21-3.78.42-5.26.59l-.23-2.11c.43-.03.9-.07,1.42-.12l-.19-4.89-1.26.05-.07-1.95,15.39-.59.07,1.95-7.74.3.23,5.91c.71-.28,1.36-.67,1.94-1.12-.57-.65-1.05-1.38-1.47-2.2l1.28-.41-1.59.06-.07-1.86,5.02-.19.41-.08,1.56.51ZM255.56,101.22l-11.4.44-.21-5.4,11.4-.44.21,5.4ZM247.71,108.56l-.02-.44-1.76.07.02.55,1.76-.17ZM245.87,106.51l1.76-.07-.02-.46-1.76.07.02.46ZM245.78,103.97l.02.41,1.76-.07-.02-.41-1.76.07ZM252.99,99.33l-6.53.25.02.43,6.53-.25-.02-.43ZM252.92,97.47l-6.53.25.02.41,6.53-.25-.02-.41ZM252.68,105.96c.24.42.54.8.88,1.16.29-.39.53-.79.74-1.23l-1.62.06Z"/>
      <path class="cls-5" d="M268.86,101.77c1.23,3.05,3.31,5.47,6.5,6.56-.59.57-1.39,1.7-1.75,2.43-3.06-1.27-5.03-3.47-6.46-6.44-.87,2.67-2.59,5.11-5.9,6.92-.42-.67-1.2-1.53-1.96-2.05,3.68-1.83,5.15-4.46,5.73-7.27l-5.66.22-.1-2.58,6.07-.23c.06-1.51-.01-3.01-.05-4.43l2.73-.1c.04,1.42.08,2.92,0,4.43l6.56-.25.1,2.58-5.81.22Z"/>
    </g>
    <g>
      <path class="cls-5" d="M277.29,188.33c.74,1.67,1.58,3.79,1.99,5.24l-3.05,1.23c-.28-1.1-.8-2.63-1.33-4.07l.32,8.25-3.67.14-.33-8.52c-.2,2.43-.66,4.9-1.26,6.53-.75-.44-2.35-1.11-3.24-1.39.69-1.72,1-4.36,1.08-6.79l3.38.45-.07-1.87-4.04.42-.49-3.63,2.21-.17c.33-.45.66-.93.99-1.44-.9-1.25-2.24-2.69-3.42-3.75l1.87-2.99.55.48c.7-1.63,1.35-3.5,1.73-5l3.7,1.2c-1,2.08-2.08,4.37-3.04,6.05.21.22.43.48.61.71.87-1.58,1.66-3.16,2.25-4.56l3.47,1.41c-1.04,1.74-2.25,3.65-3.47,5.45l2.21-1.02c1.19,1.97,2.37,4.52,2.73,6.23l-2.89,1.43c-.07-.41-.18-.84-.34-1.3l-.96.1.08,2.1,2.45-.91ZM274.45,183.74c-.25-.52-.51-1.06-.76-1.55-.41.6-.83,1.17-1.22,1.71l1.98-.16ZM280.85,181.59c-.7.76-1.4,1.43-2.17,2.04-.57-1.12-1.65-2.71-2.51-3.61,2.78-2.1,5.49-5.94,6.76-8.56l4-.16c2.07,2.87,4.97,6.09,7.8,7.55-.83,1.11-1.76,2.7-2.41,4.07-.6-.41-1.23-.94-1.87-1.5l.09,2.27-9.6.37-.1-2.48ZM279.37,186.21l13.27-.52.49,12.45-4.05.16-.05-1.37-5.34.21.06,1.49-3.88.15-.49-12.57ZM288.88,179.94c-1.43-1.46-2.72-3.05-3.64-4.33-.79,1.4-1.9,3.02-3.15,4.59l6.8-.27ZM283.39,189.76l.14,3.67,5.34-.21-.14-3.67-5.34.21Z"/>
      <path class="cls-5" d="M306.2,171.52c-.66,1.9-1.46,3.88-2.4,5.79l.8,20.47-4.32.17-.54-13.91c-.47.63-.97,1.24-1.48,1.78-.48-1.03-1.83-3.38-2.63-4.4,2.58-2.67,4.99-6.88,6.32-11.08l4.25,1.18ZM323.53,179.87l-2.97.12.48,12.28c.1,2.54-.41,3.64-1.96,4.34-1.55.7-3.91.88-7.18.98-.25-1.19-1.08-3.05-1.77-4.14,2.16.03,4.79-.07,5.52-.13.73-.03,1.01-.27.99-.91l-.48-12.25-10.76.42-.17-4.29,10.76-.42-.23-5.89,4.4-.17.23,5.89,2.97-.12.17,4.29ZM310.3,190.58c-.74-1.75-2.49-4.61-3.77-6.75l3.69-1.9c1.28,1.99,3.16,4.73,4.05,6.44l-3.97,2.2Z"/>
    </g>
    <g>
      <path class="cls-5" d="M315.99,141.02c0-3.28,1.74-5.17,4.14-5.17s4.16,1.89,4.16,5.17-1.76,5.24-4.16,5.24-4.14-1.96-4.14-5.24ZM321.56,141.02c0-2.29-.66-3.02-1.43-3.02s-1.43.73-1.43,3.02.66,3.08,1.43,3.08,1.43-.79,1.43-3.08ZM329.54,135.85h2.25l-8.83,17h-2.25l8.83-17ZM328.19,147.6c0-3.28,1.76-5.2,4.14-5.2s4.14,1.92,4.14,5.2-1.76,5.24-4.14,5.24-4.14-1.96-4.14-5.24ZM333.76,147.6c0-2.31-.66-3.02-1.43-3.02s-1.43.7-1.43,3.02.66,3.06,1.43,3.06,1.43-.77,1.43-3.06Z"/>
      <g>
        <path class="cls-5" d="M252.55,149.74c-.2-4.89,2.71-7.99,6.44-10.23v-.22c-3.31-2.28-5.68-5.17-5.86-9.38-.29-7.08,5.09-11.64,12.79-11.95,7.53-.31,12.71,3.86,12.99,10.72.16,3.82-2.19,7.01-4.92,8.98v.28c4.03,1.97,7.25,4.99,7.48,10.44.27,6.46-5.37,11.59-14.14,11.95-8.2.34-14.52-3.96-14.79-10.59ZM272.19,148.37c-.14-3.37-3.45-4.47-8.59-6.4-1.57,1.58-2.65,3.88-2.56,6.24.14,3.43,2.98,5.28,6.24,5.14,2.92-.12,5.05-1.67,4.92-4.99ZM270.85,129.68c-.13-3.03-1.95-4.87-4.87-4.75-2.3.1-4.21,1.53-4.09,4.62.13,3.09,2.83,4.5,6.94,5.96,1.38-1.91,2.09-3.8,2.01-5.82Z"/>
        <path class="cls-5" d="M282.63,138.17c-.58-13.93,5.09-21.26,13.96-21.63,8.82-.37,15.07,6.52,15.65,20.4.58,13.93-5.07,21.6-13.89,21.96-8.88.37-15.14-6.8-15.72-20.74ZM302.8,137.34c-.46-11.01-2.91-13.16-5.89-13.04-2.98.12-5.3,2.47-4.84,13.48.46,11.01,2.98,13.5,5.96,13.37,2.98-.12,5.23-2.81,4.77-13.82Z"/>
      </g>
    </g>
    <g>
      <path class="cls-5" d="M263.88,74.42c-.88,2.21-2.19,4-3.86,5.44,2.19.52,4.68.82,7.4.92-.7.81-1.55,2.35-1.96,3.31-3.41-.26-6.38-.87-8.92-1.92-2.59,1.31-5.62,2.17-8.9,2.72-.36-.83-1.39-2.3-2.13-2.98,2.77-.35,5.29-.85,7.45-1.65-1.21-.82-2.29-1.79-3.26-2.93l1.09-.49-1.18.05-.13-3.13,11.42-.47.58-.14,1.88,1.01-.1-2.31-14.36.59.1,2.4-3.2.13-.22-5.34,3.18-.13c-.24-.63-.6-1.39-.93-1.99l1.89-.6c-1.1.09-2.21.16-3.27.23-.08-.85-.54-2.15-.87-2.86,6.3-.42,13.3-1.26,17.76-2.29l2.4,2.68c-2.59.58-5.57,1.08-8.64,1.46.46.83.86,1.87,1,2.62l-1.44.41,3.46-.14c.4-1.05.8-2.3,1.02-3.3l3.71.65c-.44.89-.9,1.73-1.31,2.51l2.97-.12.22,5.34-3.18.13.34.17ZM255.65,66.32c-1.57.18-3.15.34-4.7.48.48.76.94,1.64,1.13,2.29l-.98.32,3.77-.16c-.17-.75-.52-1.72-.86-2.49l1.63-.44ZM253.39,76.74c.83.72,1.82,1.36,2.98,1.88.92-.6,1.72-1.3,2.37-2.1l-5.34.22Z"/>
      <path class="cls-5" d="M276.76,68.28l-8.38.35-.11-2.66,8.38-.35.11,2.66ZM276.74,83.16l-4,.16.03.85-2.78.11-.34-8.17,6.78-.28.3,7.32ZM276.17,71.65l-6.59.27-.1-2.54,6.59-.27.1,2.54ZM269.61,72.72l6.59-.27.1,2.54-6.59.27-.1-2.54ZM275.8,64.87l-6.38.26-.1-2.54,6.38-.26.1,2.54ZM272.54,78.66l.08,2,1.18-.05-.08-2-1.18.05ZM291.37,80.08l-1.13.05.02.45c.06,1.34-.18,2.03-1.05,2.5-.88.44-2.08.51-3.68.58-.13-.77-.5-1.84-.86-2.56.78.02,1.84-.03,2.12-.04.3-.04.4-.11.38-.39l-.02-.4-6.12.25.14,3.34-2.85.12-.14-3.34-1.04.04-.11-2.64,1.04-.04-.24-5.84,4.57-.19-.02-.59-5.56.23-.1-2.54,2.87-.12-.03-.68-1.86.08-.1-2.31,1.86-.08-.03-.64-2.28.09-.1-2.38,2.28-.09-.06-1.46,3.04-.13.06,1.46,2.14-.09-.06-1.46,3.06-.13.06,1.46,2.52-.1.1,2.38-2.52.1.03.64,2-.08.1,2.31-2,.08.03.68,2.99-.12.1,2.54-5.77.24.02.59,4.71-.19.24,5.84,1.13-.05.11,2.64ZM280.78,74.34l.03.71,1.72-.07-.03-.71-1.72.07ZM280.93,77.87l1.72-.07-.03-.78-1.72.07.03.78ZM282.51,65.82l2.14-.09-.03-.64-2.14.09.03.64ZM282.63,68.81l2.14-.09-.03-.68-2.14.09.03.68ZM285.28,74.15l.03.71,1.62-.07-.03-.71-1.62.07ZM287.05,77.62l-.03-.78-1.62.07.03.78,1.62-.07Z"/>
      <path class="cls-5" d="M312.18,76.25l.26,6.26-3.2.13-.23-5.67-6.12,1.36-.59-2.92-1.83,2.57c-.33-.67-.87-1.54-1.42-2.42l.31,7.44-3.15.13-.31-7.6c-.6,2.05-1.34,4.02-2.18,5.42-.33-1.05-1.12-2.57-1.65-3.52,1.03-1.36,1.97-3.62,2.58-5.55l-2.33.1-.13-3.18,3.44-.14-.32-7.67,3.15-.13.27,6.59c.36-1.57.74-3.9.88-5.55l2.87.47c-.53,2-1.12,4.29-1.63,5.75l-2.12-.48.04.89,3.27-.13.13,3.18-3.27.13v.09c.73.56,2.78,2.62,3.42,3.33l6.57-1.45-.55-13.39,3.2-.13.53,12.83,2.2-.49.63,3.16-2.69.61ZM292.95,68.58c-.09-1.53-.58-3.87-1.17-5.61l2.33-.71c.66,1.74,1.18,4.01,1.34,5.53l-2.49.79ZM303.6,67.36c1.37.67,3.21,1.75,4.09,2.59l-1.61,2.8c-.81-.86-2.61-2.09-3.99-2.88l1.5-2.51ZM306.62,66.83c-.74-.89-2.45-2.12-3.78-2.93l1.55-2.37c1.33.72,3.07,1.83,3.88,2.67l-1.66,2.64Z"/>
      <path class="cls-5" d="M327.39,81l-2.09-2.99c.89-.14,1.46-.29,2.07-.47,2.68-.77,4.41-2.74,4.29-5.55s-1.54-4.65-4.01-5.13c-.21,1.74-.51,3.6-1.03,5.61-1.08,4.31-2.88,7.24-5.39,7.35-2.64.11-4.76-2.66-4.91-6.3-.21-5.07,3.98-9.55,9.67-9.78,5.43-.22,9.01,3.38,9.21,8.22.19,4.49-2.32,7.88-7.82,9.05ZM321.16,75.8c.85-.04,1.44-1.36,2.1-3.86.41-1.47.7-3.16.89-4.84-3.12.98-4.57,3.92-4.49,5.94.08,1.85.75,2.78,1.5,2.75Z"/>
    </g>
  </g>
</svg>
