<?xml version="1.0" standalone="no"?>
<!DOCTYPE svg PUBLIC "-//W3C//DTD SVG 20010904//EN"
 "http://www.w3.org/TR/2001/REC-SVG-20010904/DTD/svg10.dtd">
<svg version="1.0" xmlns="http://www.w3.org/2000/svg"
 width="1024.000000pt" height="1024.000000pt" viewBox="0 0 1024.000000 1024.000000"
 preserveAspectRatio="xMidYMid meet">
<metadata>
Created by potrace 1.11, written by Peter Selinger 2001-2013
</metadata>
<g transform="translate(0.000000,1024.000000) scale(0.100000,-0.100000)"
fill="#000000" stroke="none">
<path d="M8911 10133 c5 -21 11 -45 13 -53 3 -8 9 -35 15 -60 7 -25 13 -52 15
-60 2 -8 12 -44 21 -80 9 -36 18 -72 20 -80 2 -8 19 -76 38 -150 53 -208 61
-263 61 -415 0 -183 -27 -300 -104 -460 -138 -283 -402 -495 -768 -615 -110
-36 -269 -75 -347 -85 -34 -4 -36 -2 -61 47 -65 129 -212 349 -353 528 -114
146 -354 394 -491 507 -372 308 -779 517 -1240 634 -61 15 -262 48 -370 59
-111 12 -399 16 -487 6 -29 -3 -77 -8 -105 -11 -291 -29 -632 -132 -938 -285
-196 -97 -325 -177 -505 -314 -392 -297 -764 -745 -1000 -1205 -48 -91 -49
-93 -79 -87 -212 38 -451 134 -621 250 -255 174 -424 431 -469 719 -12 74 -14
292 -3 342 9 40 19 105 16 107 -1 2 2 12 8 23 6 11 14 37 17 59 4 21 9 42 12
47 3 5 7 20 10 33 2 13 18 77 35 142 17 66 33 128 35 139 2 11 14 62 28 113
13 50 22 92 19 92 -5 0 -60 -38 -80 -55 -6 -5 -27 -20 -45 -33 -168 -118 -495
-358 -529 -388 -148 -133 -286 -288 -362 -406 -69 -109 -84 -135 -120 -208
-91 -186 -151 -380 -172 -556 -4 -33 -9 -68 -11 -79 -7 -34 -6 -247 1 -320 61
-657 496 -1247 1148 -1559 161 -78 356 -146 490 -172 10 -2 26 -5 35 -8 9 -3
33 -8 52 -11 98 -16 104 -19 103 -48 -1 -15 -1 -44 -2 -66 -1 -31 -10 -48 -46
-87 -215 -230 -416 -513 -558 -785 -56 -105 -83 -164 -147 -314 -36 -85 -111
-312 -126 -380 -1 -5 -7 -28 -12 -50 -11 -38 -35 -157 -47 -220 -2 -16 -7 -39
-9 -50 -2 -11 -7 -49 -11 -85 -4 -36 -9 -72 -10 -81 -23 -120 -22 -522 0 -701
79 -618 292 -1144 669 -1648 492 -658 1248 -1176 2096 -1437 96 -29 228 -65
290 -78 8 -2 38 -9 65 -15 63 -15 62 -14 170 -35 89 -17 112 -20 190 -30 49
-6 121 -16 155 -20 143 -20 704 -28 885 -12 135 12 228 23 275 32 14 3 41 7
60 9 94 12 271 46 355 68 22 5 48 12 58 14 132 25 506 151 702 236 113 49 317
151 410 204 38 22 85 49 104 60 36 21 225 145 281 184 400 284 813 724 1038
1106 108 183 162 289 229 444 41 95 126 332 138 384 3 12 20 85 39 164 19 78
38 165 41 194 4 28 8 58 10 67 4 25 15 103 22 168 15 137 7 594 -12 705 -2 13
-11 66 -19 118 -8 52 -22 127 -31 165 -8 39 -18 81 -21 95 -19 91 -110 364
-159 477 -67 155 -171 357 -227 441 -15 24 -28 46 -28 49 0 18 -283 403 -311
423 -12 9 -17 457 -5 457 20 0 106 13 159 24 29 6 63 13 77 15 61 12 268 75
325 99 17 7 55 23 85 35 84 34 248 122 345 185 259 169 502 421 653 680 47 79
134 265 125 265 -3 0 -1 6 5 13 10 12 56 158 67 212 35 176 42 242 43 400 0
94 -4 195 -9 225 -5 30 -11 73 -15 95 -36 240 -192 590 -351 786 -174 215
-266 298 -573 519 -102 73 -201 145 -220 159 -19 14 -54 40 -78 56 -24 17 -51
36 -62 43 -17 12 -18 11 -9 -25z"/>
</g>
</svg>
