<svg id="materials" xmlns="http://www.w3.org/2000/svg" viewBox="0 0 460 39.07"><defs><style>.cls-1{fill:none;}.cls-2{fill:#474747;}.cls-3{fill:#fff;}</style></defs><title>about-title</title><path class="cls-1" d="M197.4,19.18c.3.3.7.6,1,.9a6.54,6.54,0,0,1,1.3-2.3,6.79,6.79,0,0,1-.7-2C198.5,16.88,197.9,18,197.4,19.18Z"/><path class="cls-1" d="M367.5,20.88c4.1,0,5-.8,5-.8a2,2,0,0,0,.1-.8v-.2h-.5a25.59,25.59,0,0,0-7.1,1.3l-.2.1c-.2.1-.4.1-.6.2.3,0,.8.1,1.6.1A9.7,9.7,0,0,0,367.5,20.88Z"/><path class="cls-1" d="M354.9,21a7.19,7.19,0,0,1,2.2,2.4,8,8,0,0,1,1.7-1.5h0A6.63,6.63,0,0,1,354.9,21Z"/><path class="cls-1" d="M176,18.08a8.58,8.58,0,0,1-4.9-1.4,15.18,15.18,0,0,1,1.6,5.1,21.66,21.66,0,0,0,4.9-3.7Z"/><path class="cls-1" d="M105.4,23.88c.1-.2.1-.4.2-.6-.2.1-.3.2-.5.3C105.2,23.58,105.3,23.78,105.4,23.88Z"/><path class="cls-1" d="M167.9,12.58c.1.1.2.2.3.2-.1-.2-.1-.3-.2-.5C168,12.48,168,12.58,167.9,12.58Z"/><path class="cls-1" d="M352.5,19a8.81,8.81,0,0,1-3.3.6h-2.4c0,.1.1.3.1.4h.2a22.34,22.34,0,0,1,3.1-.4,8.3,8.3,0,0,1,3.9.9A5.72,5.72,0,0,1,352.5,19Z"/><path class="cls-2" d="M60.6,22.58h-1a.53.53,0,0,0-.6.6v1.1h2.2v-1.1C61.1,22.78,61,22.58,60.6,22.58Z"/><path class="cls-2" d="M63.7,11.88c-.2,1.3-.2,1.5-.4,2.8h1.6l-.1-3.5A1.51,1.51,0,0,1,63.7,11.88Z"/><path class="cls-2" d="M59,28.38a.53.53,0,0,0,.6.6h1a.53.53,0,0,0,.6-.6v-1.2H59Z"/><path class="cls-2" d="M49.8,26a8.87,8.87,0,0,0,1.4-.3v-2.6H49.8Z"/><path class="cls-2" d="M23.3,16.78H19.8a.53.53,0,0,0-.6.6v1a.58.58,0,0,0,.6.6h3.5a.57.57,0,0,0,.6-.6v-1C24,17,23.7,16.78,23.3,16.78Z"/><path class="cls-2" d="M152.3,26c-1.4,0-2.4.6-2.4,1.6s1.3,1.7,3.4,1.7a5.85,5.85,0,0,0,1.3-.2,3,3,0,0,0,.2-1A2.2,2.2,0,0,0,152.3,26Z"/><path class="cls-2" d="M55.1,10c-.2.2-.2.2-.4.2V15a1.93,1.93,0,0,1,1.1-.4h.7a16.7,16.7,0,0,0-.4-2.9C55.2,11.58,55.2,10.48,55.1,10Z"/><path class="cls-2" d="M59.3,14.68h1.1a12.65,12.65,0,0,0,.3-2.8H59.1C59.3,14.08,59.3,14.38,59.3,14.68Z"/><rect class="cls-2" x="49.8" y="10.28" width="1.4" height="2.5"/><rect class="cls-2" x="49.8" y="16.58" width="1.4" height="2.6"/><rect class="cls-2" x="303.8" y="15.38" width="11.7" height="1.3"/><path class="cls-2" d="M303.8,21.18c3.1-.1,7.5-.2,10.9-.5a5,5,0,0,0,.8-.7v-.4H303.8v1.6Z"/><path class="cls-2" d="M314.9,11.28H304.3c-.4,0-.5.2-.5.5v.8h11.7v-.8C315.5,11.48,315.3,11.28,314.9,11.28Z"/><path class="cls-2" d="M447.2,12.58a9.21,9.21,0,0,0,.7-3.6c0-4-2.7-8.1-8.8-8.1h-1.8c-3.3.1-4.2.1-9.9.2h-2.3c-3.5.1-7.1,2-8.1,6-.3-.1-.6-.3-.9-.4-.7-4-3.9-6.6-8.3-6.6a8,8,0,0,0-7.7,4.7,7.78,7.78,0,0,0-7.2-4.6c-4.5,0-7.3,2-8.4,5.8,0,.1-.1.2-.1.3-4.6-3.7-10.3-3.7-12.3-3.7a53,53,0,0,0-14.6,2.3,19.45,19.45,0,0,0-2.2.8,7.21,7.21,0,0,0-3.7-2.1,20.09,20.09,0,0,0-5.1-.3c-3.2,0-7.3.1-9.1.3a8.3,8.3,0,0,0-5.7-2.1c-4.3,0-6.4,2-7.4,4a9.11,9.11,0,0,0-7.9-3.8h-.7a8.72,8.72,0,0,0-6.6-2.5,8,8,0,0,0-6.3,2.5h-.1c-3.8,0-6.7,1.6-8.3,4.4a8.2,8.2,0,0,0-6.1-2.6c-.4,0-1.4,0-4,.1h0a8.43,8.43,0,0,0-6.4-2.7,7.94,7.94,0,0,0-6.5,3h-1.5c-4.8,0-8.1,3.2-8.2,7.8a9.85,9.85,0,0,0-1.7-.2,12.31,12.31,0,0,0-2,.2V8.78c0-4.8-3.5-8.2-8.4-8.2a9.73,9.73,0,0,0-4.3,1,8.73,8.73,0,0,0-3.7-.7c-4.3,0-7.5,2.6-8.2,6.4a8,8,0,0,0-6.6-3.2h-.7l-1.9.1C223,1.78,220.7,0,216.7,0a8.34,8.34,0,0,0-6.4,2.6,6.89,6.89,0,0,0-1.6,2.7l-1.9.1A8.3,8.3,0,0,0,200.3,9a8.39,8.39,0,0,0-4.5-6.5,11.64,11.64,0,0,0-5-1.1H176.2a8,8,0,0,0-7.8,5.1c-.9-3.1-3.6-5.6-8.4-5.6h-1.8c-3.3.1-4.2.1-9.9.2H146a8.46,8.46,0,0,0-7.6,4.6,7.79,7.79,0,0,0-6.6-3.4,11.3,11.3,0,0,0-2.2.2,7.34,7.34,0,0,0-6.3-2.9,8.73,8.73,0,0,0-7.3,3.6h-2.5a10.25,10.25,0,0,0-4.7,1,7.94,7.94,0,0,0-2.7-2,16.71,16.71,0,0,0-5-.6c-5.7,0-20.2.5-21.9.7h-.1a7.13,7.13,0,0,0-2.6.7A7.07,7.07,0,0,0,71,.38a8.58,8.58,0,0,0-4.3-1.1,8.81,8.81,0,0,0-3.3.6,9.48,9.48,0,0,0-3.5-.7A7.84,7.84,0,0,0,55.8.28a12.25,12.25,0,0,0-1.9-.2H47.3a7.39,7.39,0,0,0-3.4.7,7.34,7.34,0,0,0-4.8-1.5,6.45,6.45,0,0,0-2,.3,8.85,8.85,0,0,0-2.9-.4,8,8,0,0,0-6.1,2.6,8.52,8.52,0,0,0-6.5-2.6,8,8,0,0,0-6.4,2.9,7.68,7.68,0,0,0-7.2,8,8.47,8.47,0,0,0,1.3,4.5,7.83,7.83,0,0,0-.4,2.6v1.4a13.3,13.3,0,0,0,.6,4.2L9.2,24c-.2.8-.4,1.6-.6,2.2a10.36,10.36,0,0,0-.9,3.9,7.67,7.67,0,0,0,5.6,7.3,9,9,0,0,0,6.8,2.3,13.3,13.3,0,0,0,4.7-.7,7.67,7.67,0,0,0,3.4.7,7.59,7.59,0,0,0,4-1.1,12.78,12.78,0,0,0,5.5,1c2.4,0,5.9,0,8.3-3h.5a7.47,7.47,0,0,0,6.6,3.3,7.63,7.63,0,0,0,4.9-1.7h1.1a8,8,0,0,0,4.3,1.3,7.63,7.63,0,0,0,2.7-.5,9.21,9.21,0,0,0,3.8.8A9.38,9.38,0,0,0,77.5,36a13.82,13.82,0,0,0,2.5-4.8c1.6,2.5,4.4,4.9,9.2,6.1a31.77,31.77,0,0,0,8.2,1,14.12,14.12,0,0,0,5.4-.8,8.09,8.09,0,0,0,4.4-4.5,12.14,12.14,0,0,0,6.5,4.5,29.24,29.24,0,0,0,9.4,1.2c6.2,0,9.9-1.1,10.8-1.5a8,8,0,0,0,5.7-7.2l.6.3a11,11,0,0,0,4.5,6.1h.1c2.7,1.7,5.8,2.4,9.9,2.4a22.52,22.52,0,0,0,9.4-1.8,15.41,15.41,0,0,0,4.2-2.8,8.42,8.42,0,0,0,6.9,3.9c3.4,0,7.8-2.8,11.7-6,.7.7,1.4,1.5,2,2.1l.1.1.1.1a8.66,8.66,0,0,0,15.4-3.7,11,11,0,0,0,1.8.2h.6l2.7-.2v.1c.4,5.9,4.6,8,8.4,8a8.71,8.71,0,0,0,6.4-2.5,8.87,8.87,0,0,0,2.1-6.5v-.1l2.3-.1h.1v.1c0,5.1,4.6,8.6,8.8,8.6a8,8,0,0,0,6-2.6,8.93,8.93,0,0,0,6.3,2.4c4.4,0,10.9-2.9,14.8-8.6a8.86,8.86,0,0,0,1.7.8,10.38,10.38,0,0,0,6.1,6.2c2.5,1,5,1.4,9.6,1.4a30.29,30.29,0,0,0,8.3-.9,8.86,8.86,0,0,0,1.7-.8,8.09,8.09,0,0,0,5.9,2.6,28.78,28.78,0,0,0,7.4-1.9,7.91,7.91,0,0,0,3,2,15.7,15.7,0,0,0,5.9.7c2.4,0,4.6,0,6.8-1a7.78,7.78,0,0,0,3.8-3.7,8.71,8.71,0,0,0,12.2.4,25,25,0,0,0,7.7,1.1c2.2,0,6.2-.2,8.5-1.2a10,10,0,0,0,2.9-2,8.11,8.11,0,0,0,4.6,3.7,20.76,20.76,0,0,0,5.9.6,34.25,34.25,0,0,0,11.7-1.8,18.05,18.05,0,0,0,5.9-3.5,8.08,8.08,0,0,0,7.9,5.9,9.43,9.43,0,0,0,3-.5,8.47,8.47,0,0,0,4.5,1.3,23.17,23.17,0,0,0,6.5-1.2c6.3-2.1,8.8-6.3,9.8-10.1a8.62,8.62,0,0,0,3.4,2.6,11,11,0,0,0,4.5,6.1h.1c2.7,1.7,5.8,2.4,9.9,2.4a22.52,22.52,0,0,0,9.4-1.8,14.71,14.71,0,0,0,8.9-13.7A14.74,14.74,0,0,0,447.2,12.58ZM38.9,5.38a1.8,1.8,0,0,1,1.9,1,8.34,8.34,0,0,1,1.3,2.8c0,1.2-1.2,1.7-2.1,1.7a1.71,1.71,0,0,1-1.6-.9,13.75,13.75,0,0,1-1.2-2.9C37.1,5.58,38.9,5.38,38.9,5.38ZM23.7,30.78c0,2.5-.4,3-3.6,3-1.7,0-3.2,0-3.1-2.4a1.5,1.5,0,0,1-1.2.5c-.8,0-2.1-.5-2.1-1.7a5.07,5.07,0,0,1,.5-1.9,16.66,16.66,0,0,0,.8-3c.3-1.4.5-2.2,1.8-2.2.4,0,1.9.2,1.9,1.5a22.13,22.13,0,0,1-1.1,5.1c.3-.2.5-.2,1.5-.2a.63.63,0,0,0,.7-.7v-6.3H18.7c-3.1,0-3.8-.5-3.8-3.8v-1.4c0-3.1.5-3.7,3.8-3.7h5.7c3.2,0,3.8.6,3.8,3.7v1.4c0,3.1-.6,3.8-3.8,3.8h-.7Zm13.9-11.5v8.9c0,.4.1.6.5.6.7,0,.8,0,.8-1,0-.5.1-2.3.1-2.4.2-.9,1.1-.9,1.5-.9,1.6,0,1.7,1,1.7,2,0,7.1-.6,7.1-4.5,7.1-3.2,0-3.9-.4-3.9-3.7v-3.3A28.5,28.5,0,0,1,30.6,32c-1.1,1.3-1.6,1.6-2.4,1.6a2.6,2.6,0,0,1-2.5-2.4c0-.7.2-.8,1.4-2.3-.9-.2-1-.5-1.8-2.4a9.75,9.75,0,0,1-.8-2.2c0-1.5,1.6-1.7,1.9-1.7a1.72,1.72,0,0,1,1.5.9A24.43,24.43,0,0,1,29.2,26a19.34,19.34,0,0,0,2.2-5.8,33.42,33.42,0,0,0,.6-4.1v-.7H30.2c-.8,0-2.2-.1-2.2-2.2a3.21,3.21,0,0,1,.3-1.4,3.09,3.09,0,0,1-1.1.2H15.9a1.85,1.85,0,0,1-2.1-2,1.85,1.85,0,0,1,2.1-2.1h3.5V7c0-1.1.6-1.7,2-1.7s2.3.3,2.3,1.7v1.1H27a1.82,1.82,0,0,1,2.1,2,2.74,2.74,0,0,1-.2,1.2,2.34,2.34,0,0,1,1.2-.2h1.8V7.48c0-.8.2-2.2,2-2.2,1.6,0,2.4.5,2.4,2.2v3.7H40a1.93,1.93,0,0,1,2.2,2.1c0,1.9-.9,2.4-2.2,2.4H36.1v1.7A1.6,1.6,0,0,1,37.6,19.28ZM71,6.38c.9,0,1.2.6,1.8,2a19,19,0,0,1,1,3.7c0,1.5-1.7,1.7-2,1.7-1.1,0-1.2-.6-1.6-2.1-.1-.4-.5-1.7-.6-2.1a8.09,8.09,0,0,1-.5-1.8C69,7.08,70,6.38,71,6.38Zm1.8,26a3.37,3.37,0,0,1-2.9,1.5c-1.5,0-2.4-.8-3.2-2.5-2.2,2.1-2.7,2.2-3.3,2.2a2.14,2.14,0,0,1-1.9-1.3H59.3c-3.1,0-3.7-.5-3.7-3.7v-5.5c0-3.1.6-3.7,3.7-3.7h1.4c3.1,0,3.7.5,3.7,3.7v5a13.58,13.58,0,0,0,1.2-1.2,77.13,77.13,0,0,1-.7-8.4h-9c-.7,0-1-.2-1.1-.4V32c0,.8-.1,1.8-1.6,1.8-1.2,0-1.9-.3-1.9-1.8v-2.5a26.15,26.15,0,0,1-4.5,1c-1.2,0-1.7-1.3-1.7-2.5,0-1.5.8-1.7,1.3-1.8V10.28c-.6-.2-1.1-.8-1.1-2,0-2,1.3-2.1,1.9-2.1h6.6c1.1,0,1.9.3,1.9,2.2A2,2,0,0,1,57,8h1.1V6.88a1.58,1.58,0,0,1,1.8-1.6c.6,0,2,.1,2,1.6V8h1.4c1,0,1.3.4,1.5.8V6.68c.1-1.3,1.6-1.3,1.9-1.3,1.8,0,2,1,2,2v7.3h3.1c.7,0,2.2.1,2.2,1.9,0,1.4-.5,2.1-2.2,2.1h-3c.1,1.7.1,2.4.2,3.8.4-.8.9-2,1.3-2.7a1.16,1.16,0,0,1,1.1-.6c.8,0,2.1.4,2.1,1.5s-1.8,4.8-3.6,7.3c.2.4.5,1,.8,1s.5-.3.6-.8.4-1,1.2-1A1.8,1.8,0,0,1,74.4,29,7.73,7.73,0,0,1,72.8,32.38Zm28.9-14c-.2,0-.5,0-.9-.6l-.7-1.4c-.1-.2-.7-1.3-.8-1.5a1.09,1.09,0,0,1-.1-.5c0-.6.8-.9,1.2-.9.6,0,.9.5,1.4,1.5a7.26,7.26,0,0,1,1,2.5C102.9,18,102.2,18.38,101.7,18.38Zm-2,.4c0,.8-.8,1-1.2,1-.1,0-.5,0-.8-.6l-.7-1.4c-.1-.2-.6-1.1-.7-1.3a1.85,1.85,0,0,1-.2-.7c0-.6.8-1,1.2-1s.8.3,1.4,1.4A8.25,8.25,0,0,1,99.7,18.78Zm1.5-6.4a12.23,12.23,0,0,0-6.3,1.9c-3.1,1.8-6.2,5.1-6.2,8.6,0,3.7,3.1,4.6,8.1,4.6h2.6a2,2,0,0,1,2.3,2.2c0,2.8-2.2,2.8-4.3,2.8a26.73,26.73,0,0,1-6.7-.8c-1.6-.4-7-1.8-7-8.3a11.16,11.16,0,0,1,3.2-7.7,16.11,16.11,0,0,1,3.9-3.2c-1.5.1-10.1.8-10.9.8a2.21,2.21,0,0,1-2.3-2.5,2.22,2.22,0,0,1,2.2-2.5c1.3-.2,15.5-.7,21.3-.7,1.6,0,3.4,0,3.4,2.3S102.9,12.38,101.2,12.38Zm4.2,11.5-.3-.3c.2-.1.3-.2.5-.3C105.5,23.38,105.5,23.58,105.4,23.88Zm28.6-5.8a29.75,29.75,0,0,1-4.3.5,23.81,23.81,0,0,0,2.2,3.2,2.41,2.41,0,0,1-1.8,4,3.3,3.3,0,0,1-1.3-.3,23.2,23.2,0,0,0-7.9-1.4c-4.3,0-5,1.4-5,2.2,0,2.1,4.2,2.2,6.2,2.2a28.53,28.53,0,0,0,7.1-.9,8.27,8.27,0,0,1,2.2-.4,2.07,2.07,0,0,1,2,2.3,2.13,2.13,0,0,1-1.7,2.2c-.5.2-3.4,1.1-8.9,1.1-4.1,0-11.8-.3-11.8-6.1,0-5.1,5.8-6.1,9.8-6.1a20.92,20.92,0,0,1,4.9.5,17.62,17.62,0,0,1-1.3-2.2c-7.1.3-7.7.3-9.6.3a29.55,29.55,0,0,1-4.3-.2c-.5-.1-1.1-.6-1.1-1.8a1.83,1.83,0,0,1,2.1-2c.7,0,3.7.1,4.3.1s4,0,6.8-.2c-.2-.5-.6-1.4-.8-1.9-4.5.1-5,.2-6.6.2a19.48,19.48,0,0,1-3.7-.2c-.5-.1-1.1-.6-1.1-1.9,0-2,1.3-2,2.7-2h5.1c.4,0,2-.1,2.3-.1a3.9,3.9,0,0,1-.2-1.4c0-1.7,2-2,2.7-2,1.7,0,1.8.6,2.6,3.2a12.53,12.53,0,0,0,2.4-.2c.6-.1,3-.4,3.5-.4s2,0,2,2.1c0,1.5-1.1,1.8-2,2s-4.1.4-4.7.5c.4,1,.5,1.3.7,1.8,1.9-.2,3.4-.3,4.7-.5a6.92,6.92,0,0,1,1.6-.2,1.78,1.78,0,0,1,1.8,2A1.69,1.69,0,0,1,134,18.08Zm27.4,13.7a16.76,16.76,0,0,1-7,1.3c-3.7,0-5.5-.8-6.7-1.5a4.53,4.53,0,0,1-2.1-3.8c0-3.7,3.2-5.4,6.6-5.4,1.9,0,6.1.5,6.1,5.1a4.25,4.25,0,0,1-.2,1.1,4.68,4.68,0,0,0,3.6-4.6,4.36,4.36,0,0,0-2.6-4.1,9,9,0,0,0-3.4-.5,13.11,13.11,0,0,0-9.5,4c-2,1.8-2.2,2-2.9,2a2.61,2.61,0,0,1-2.5-2.5c0-1,.4-1.3,2.5-2.9,3.9-2.8,6.8-5,10-7.6a8.12,8.12,0,0,0,1-.9c-1.3,0-7.8.5-8.5.5a2.11,2.11,0,0,1-2.4-2.3c0-2.1,1.6-2.2,2.6-2.3,7.8-.1,8.5-.1,12.2-.3h1.6c.9,0,2.8,0,2.8,2.1,0,1.6-.4,1.8-3.8,3.9a33.69,33.69,0,0,0-3.9,2.7,9.82,9.82,0,0,1,2.8-.4,12.16,12.16,0,0,1,4.8,1,7.75,7.75,0,0,1,4.3,7.3A8.7,8.7,0,0,1,161.4,31.78Zm6.5-19.2a.35.35,0,0,1,.1-.2c.1.2.1.3.2.5Zm3.2,4A8.81,8.81,0,0,0,176,18h1.5a21.66,21.66,0,0,1-4.9,3.7A13.08,13.08,0,0,0,171.1,16.58Zm24.6,15.5c-1.1,0-1.6-.7-2.5-1.6a77.33,77.33,0,0,0-6.6-6.5c-5.1,5.4-10,8.2-11.6,8.2a2.61,2.61,0,0,1-2.3-2.6c0-1.1.5-1.3,2.4-2.4,9.6-5.2,13.2-14.1,13.2-14.8,0-.4-.4-.4-.7-.4H176a2.11,2.11,0,0,1-2.4-2.3,2.09,2.09,0,0,1,2.4-2.3h14.6c1.3,0,3.5.1,3.5,2.8,0,1.9-1.9,6.4-4.7,10.4a65,65,0,0,1,7.2,5.9c1.3,1.2,1.8,1.8,1.8,2.9A2.69,2.69,0,0,1,195.7,32.08ZM198.4,20c-.3-.3-.7-.6-1-.9a37.27,37.27,0,0,0,1.6-3.5,11.76,11.76,0,0,0,.7,2A9.45,9.45,0,0,0,198.4,20Zm29.9,3.9-8.3.5.4,6.2c.1,1,.1,2.6-2.5,2.6-2.3,0-2.4-1.4-2.5-2.4l-.4-6.1-8.7.5a2.12,2.12,0,0,1-2.5-2.3,2.1,2.1,0,0,1,2.2-2.2l8.6-.5-.3-4.6-7.2.5a2.08,2.08,0,0,1-2.5-2.3c0-1.5.9-2.1,2.2-2.2l7.2-.4-.1-2.3c-.1-1.2.1-2.6,2.5-2.6,1.4,0,2.4.2,2.5,2.2l.2,2.3,7.2-.5a2,2,0,0,1,2.5,2.2c0,1.5-.9,2.1-2.2,2.2l-7.1.5.3,4.6,8.3-.5a2.11,2.11,0,0,1,2.5,2.3C230.6,23.18,229.6,23.78,228.3,23.88Zm15.5-8.2c0,6.5-.3,10.8-3.4,14.9-1.6,2-2.3,2-2.8,2a2.82,2.82,0,0,1-2.8-2.6,2.62,2.62,0,0,1,.9-1.9c2.8-3.3,3.3-4.7,3.3-12.6V9.18c0-1,.3-2.2,2.4-2.2,1.6,0,2.5.6,2.5,2.2v6.5ZM260,26c-3,4.5-7.9,6.3-10.1,6.3a2.54,2.54,0,0,1-2.8-2.9V8.78c0-1.2.5-2.2,2.4-2.2,1.5,0,2.4.5,2.4,2.2v17c0,.4,0,.7.3.7,1.2,0,4.1-2.4,5.5-6.6.5-1.5.8-2.3,2.2-2.3.5,0,2.7.3,2.7,2.1A18,18,0,0,1,260,26Zm29.2-5.6a42.89,42.89,0,0,0-4.4,1.1c.1,1.1.1,2.2.1,2.8,0,1.3,0,2.9-2.1,2.9a1.94,1.94,0,0,1-2.2-2V23c-2.4,1.1-4.1,2-4.1,3.6,0,1.3,1.8,1.6,4.7,1.6a54.38,54.38,0,0,0,5.8-.5,5.38,5.38,0,0,1,1.1-.1,1.75,1.75,0,0,1,1.9,2,1.76,1.76,0,0,1-1.3,1.9,29.1,29.1,0,0,1-6.5.6c-4.2,0-5.9-.3-7.4-.9a4.3,4.3,0,0,1-2.9-4c0-4.2,4.8-6.7,8-8.2a2.27,2.27,0,0,0-1.6-.6c-3.1,0-5.4,2.9-6.1,3.8-.3.3-1.3,1.7-1.5,1.9a2.3,2.3,0,0,1-1.7.8,2.13,2.13,0,0,1-2.1-2.2c0-.9.5-1.4,2-3.1a41.21,41.21,0,0,0,4.3-5.8H270c-.6,0-2.3,0-2.3-2a1.87,1.87,0,0,1,2.2-2c3.3,0,3.6,0,5.3-.1a15.39,15.39,0,0,1,.8-1.9c.2-.4.6-1,2-1,1,0,2.3.4,2.3,1.7a3.5,3.5,0,0,1-.3,1.2c2.8-.1,7.8-.3,8.5-.3a1.93,1.93,0,0,1,2.2,2,1.87,1.87,0,0,1-1.7,2c-.7.1-8.3.3-11.2.4-.8,1.2-.8,1.3-1.3,2.1a7,7,0,0,1,3.6-1,5.3,5.3,0,0,1,2.5.6,5.22,5.22,0,0,1,1.7,1.8,27.19,27.19,0,0,1,5.5-1.5c1.9,0,2,1.9,2,2.3C291.5,19.88,290.3,20.08,289.2,20.38Zm32.6-.9c-.8.8-1.5,1.6-1.8,1.9v8.8c0,3.7-2.1,3.7-5.7,3.7s-5.1,0-5.1-2.4c0-2.1,1.7-2.1,2.5-2.1h2.5c.8,0,1.2,0,1.2-1.1v-3a46.22,46.22,0,0,1-17.5,7.8,2.4,2.4,0,0,1-2.2-2.5c0-1.5,1.1-1.8,2.2-2a36.5,36.5,0,0,0,11.1-4c-1.5.2-10.7,1-11.8,1s-1.9-.5-1.9-2.1a1.93,1.93,0,0,1,.8-1.8c.4-.3.5-.3,3-.3v-10c0-2.8,1.3-3.6,3.6-3.6h3.7c.5-1.9.7-2.5,2.7-2.5.4,0,2.5,0,2.5,1.3a3.46,3.46,0,0,1-.3,1.2h5.1c2.2,0,3.6.8,3.6,3.6v4c.5-.6.9-1.1,1.7-1.1a2.38,2.38,0,0,1,2.3,2.2C324.1,17.08,323.8,17.48,321.8,19.48Zm16.3-10c.6-.1,4-.3,8.5-.3a21.17,21.17,0,0,1,3.7.2,1.81,1.81,0,0,1,1.3,2c0,2-1.3,2.2-2.4,2.2h-2.9c-1.2,0-4.5.1-6.9.2-.1,0-.6.1-.8.1a2,2,0,0,1-2.2-2.2A1.84,1.84,0,0,1,338.1,9.48Zm-4.6,2.4a94.33,94.33,0,0,0-.6,9.6c0,.9,0,3.2.2,5.1.1.4.3,2.8.3,3.1,0,.8-.2,2.1-2.4,2.1-1.6,0-2-.9-2.2-2.1a54.17,54.17,0,0,1-.4-7.2,75.56,75.56,0,0,1,1-13.5c.4-1.5,1.3-1.5,2.4-1.5.5,0,2.1.2,2.1,1.8C333.9,9.58,333.6,11.48,333.5,11.88Zm17.5,18c-1.3.6-5.2.7-6.2.7-4.6,0-9.3-.8-9.3-5.6,0,0,0-4.7,3.1-4.7,1.1,0,2.5.6,2.5,1.8,0,.5-.1.7-.6,1.6a2.71,2.71,0,0,0-.4,1.2c0,1.1,1.2,1.5,4,1.5a28.61,28.61,0,0,0,3.5-.3,24.18,24.18,0,0,1,2.5-.3,1.87,1.87,0,0,1,2,2.1C352.2,29.18,351.7,29.58,351,29.88Zm-.8-10.3a22.34,22.34,0,0,0-3.1.4h-.2c0-.1-.1-.3-.1-.4h2.4a8.81,8.81,0,0,0,3.3-.6,7.52,7.52,0,0,0,1.6,1.5A10.13,10.13,0,0,0,350.2,19.58Zm6.9,3.9a7.28,7.28,0,0,0-2.2-2.4,8.68,8.68,0,0,0,3.9,1h0A5.52,5.52,0,0,0,357.1,23.48Zm19.3,6.8a28.86,28.86,0,0,1-9.7,1.4,13.29,13.29,0,0,1-4.1-.4,2.09,2.09,0,0,1-1.4-2.2c0-1,.2-2.5,2.4-2.5.3,0,1.4.1,1.8.1a17,17,0,0,0,2.2.1c3.8,0,11.1-.4,11.1-7.6,0-4.5-3-6.2-6.5-6.2a33.12,33.12,0,0,0-9,1.6c-3.4,1.1-3.7,1.2-4.3,1.2-1.9,0-2.3-1.9-2.3-2.7,0-1.8,1-2.2,2.7-2.7a47.21,47.21,0,0,1,12.9-2c1.6,0,5.9,0,8.9,3.1a10.92,10.92,0,0,1,2.7,7.6C383.7,27.18,378.1,29.68,376.4,30.28Zm-12.2-9.5c.2-.1.4-.1.6-.2l.2-.1a27.27,27.27,0,0,1,7.1-1.3h.5v.2a2,2,0,0,1-.1.8c-.1.1-.9.8-5,.8a10.28,10.28,0,0,1-1.7-.1A11.8,11.8,0,0,0,364.2,20.78Zm30.3,7.8a14.89,14.89,0,0,1,.1,1.7c0,1.9-1.8,2-2.4,2-1.5,0-2-.7-2.3-2a54.89,54.89,0,0,1-.6-9,77.83,77.83,0,0,1,1-13.3c.4-1.5,1.3-1.5,2.6-1.5a1.77,1.77,0,0,1,1.9,2c0,.5-.4,3-.4,3.5a82.12,82.12,0,0,0-.5,8.8A46.65,46.65,0,0,0,394.5,28.58Zm19.8-11.8a16.82,16.82,0,0,1-3.8.3c.1,2.7.1,3.1.1,4.2,0,3.9-.1,8.9-6.4,11a18.12,18.12,0,0,1-4.6.8,2.25,2.25,0,0,1-2.3-2.5c0-1.3.6-1.8,1.8-2,2.4-.3,3.7-.5,5-1.7s1.6-3,1.6-6.2c0-1.2-.1-2.4-.1-3.5-1.4,0-5,.1-6.3.1-1.8,0-3.4,0-3.4-2.2s1.4-2.3,3.2-2.3c3.6,0,4,0,6.3-.1,0-.5-.1-3.8-.1-4,0-1.2.2-2.5,2.4-2.5,1.7,0,2.4.6,2.5,2.2,0,.6.1,3.4.1,4,.5,0,2.5-.1,2.8-.1a2,2,0,0,1,2.3,2.2A1.76,1.76,0,0,1,414.3,16.78Zm26.4,15a16.76,16.76,0,0,1-7,1.3c-3.7,0-5.5-.8-6.7-1.5a4.53,4.53,0,0,1-2.1-3.8c0-3.7,3.2-5.4,6.6-5.4,1.9,0,6.1.5,6.1,5.1a4.25,4.25,0,0,1-.2,1.1A4.68,4.68,0,0,0,441,24a4.36,4.36,0,0,0-2.6-4.1,9,9,0,0,0-3.4-.5,13.11,13.11,0,0,0-9.5,4c-2,1.8-2.2,2-2.9,2a2.61,2.61,0,0,1-2.5-2.5c0-1,.4-1.3,2.5-2.9,3.9-2.8,6.8-5,10-7.6a8.12,8.12,0,0,0,1-.9c-1.3,0-7.8.5-8.5.5a2.11,2.11,0,0,1-2.4-2.3c0-2.1,1.6-2.2,2.5-2.3,7.8-.1,8.5-.1,12.2-.3H439c.9,0,2.8,0,2.8,2.1,0,1.6-.4,1.8-3.8,3.9a33.69,33.69,0,0,0-3.9,2.7,9.82,9.82,0,0,1,2.8-.4,12.16,12.16,0,0,1,4.8,1,7.75,7.75,0,0,1,4.3,7.3A8.42,8.42,0,0,1,440.7,31.78Z"/><path class="cls-2" d="M431.6,26c-1.4,0-2.4.6-2.4,1.6s1.3,1.7,3.4,1.7a5.85,5.85,0,0,0,1.3-.2,3,3,0,0,0,.2-1A2.2,2.2,0,0,0,431.6,26Z"/><path class="cls-3" d="M36.1,15.68H40c1.3,0,2.2-.5,2.2-2.4a1.93,1.93,0,0,0-2.2-2.1H36.3V7.48c0-1.7-.8-2.2-2.4-2.2-1.9,0-2,1.4-2,2.2v3.7H30.1a2.34,2.34,0,0,0-1.2.2,3,3,0,0,0,.2-1.2c0-2-1.4-2-2.1-2H23.7V7c0-1.4-1-1.7-2.3-1.7s-2,.6-2,1.7v1.1H15.9a1.85,1.85,0,0,0-2.1,2.1c0,2,1.4,2,2.1,2H27.1a2.68,2.68,0,0,0,1.1-.2,3.21,3.21,0,0,0-.3,1.4c0,2.2,1.5,2.2,2.2,2.2h1.8v.7a21,21,0,0,1-.6,4.1,23.92,23.92,0,0,1-2.2,5.8,16.68,16.68,0,0,0-1.3-2.5,1.72,1.72,0,0,0-1.5-.9,1.78,1.78,0,0,0-1.9,1.7c0,.3.7,1.8.8,2.2.7,1.9.9,2.2,1.8,2.4-1.3,1.4-1.4,1.6-1.4,2.3a2.68,2.68,0,0,0,2.5,2.4c.8,0,1.4-.4,2.4-1.6a28.5,28.5,0,0,0,3.2-5.4v3.3c0,3.3.7,3.7,3.9,3.7,3.9,0,4.5,0,4.5-7.1,0-1-.1-2-1.7-2-.4,0-1.3.1-1.5.9,0,.1-.1,1.9-.1,2.4,0,1-.1,1-.8,1-.4,0-.5-.2-.5-.6v-8.9a1.64,1.64,0,0,0-1.5-1.9v-1.9Z"/><path class="cls-3" d="M28.2,18.68v-1.4c0-3.1-.6-3.7-3.8-3.7H18.7c-3.2,0-3.8.7-3.8,3.7v1.4c0,3.2.7,3.8,3.8,3.8h1.1v6.3a.63.63,0,0,1-.7.7c-1,0-1.1,0-1.5.2a22.13,22.13,0,0,0,1.1-5.1c0-1.3-1.5-1.5-1.9-1.5-1.3,0-1.5.8-1.8,2.2-.2.9-.5,2-.8,3a5.07,5.07,0,0,0-.5,1.9c0,1.2,1.3,1.7,2.1,1.7a1.34,1.34,0,0,0,1.2-.5c0,2.4,1.5,2.4,3.1,2.4,3.3,0,3.6-.5,3.6-3v-8.3h.7C27.6,22.38,28.2,21.78,28.2,18.68Zm-4.2-.3a.57.57,0,0,1-.6.6H19.9a.58.58,0,0,1-.6-.6v-1a.53.53,0,0,1,.6-.6h3.5a.53.53,0,0,1,.6.6Z"/><path class="cls-3" d="M39.9,11c.9,0,2.1-.5,2.1-1.7a5.8,5.8,0,0,0-1.3-2.8,1.69,1.69,0,0,0-1.9-1s-1.7.2-1.7,1.7a13.75,13.75,0,0,0,1.2,2.9A1.81,1.81,0,0,0,39.9,11Z"/><path class="cls-3" d="M70.1,11.78c.4,1.5.5,2.1,1.6,2.1.3,0,2-.2,2-1.7a21,21,0,0,0-1-3.7c-.5-1.5-.8-2-1.8-2s-2,.7-2,1.5c0,.3,0,.4.5,1.8A11.76,11.76,0,0,1,70.1,11.78Z"/><path class="cls-3" d="M72.5,27.08c-.8,0-1,.6-1.2,1s-.3.8-.6.8-.6-.5-.8-1c1.8-2.5,3.6-6.1,3.6-7.3,0-1-1.3-1.5-2.1-1.5a1.16,1.16,0,0,0-1.1.6c-.5.7-.9,2-1.3,2.7-.1-1.4-.1-2.1-.2-3.8h3c1.6,0,2.2-.7,2.2-2.1,0-1.8-1.4-1.9-2.2-1.9H68.7V7.28c0-1-.2-2-2-2-.3,0-1.7,0-1.9,1.3v2.1c-.2-.4-.5-.8-1.5-.8H61.9v-1c0-1.6-1.4-1.6-2-1.6a1.58,1.58,0,0,0-1.8,1.6V8H57a1.84,1.84,0,0,0-1.3.4c0-1.9-.8-2.2-1.9-2.2H47.2c-.6,0-1.9.1-1.9,2.1,0,1.2.5,1.8,1.1,2v16.2c-.6.1-1.3.3-1.3,1.8,0,1.1.5,2.5,1.7,2.5a40.83,40.83,0,0,0,4.5-1v2.5c0,1.5.7,1.8,1.9,1.8,1.5,0,1.6-1.1,1.6-1.8V18.18c.1.2.4.4,1.1.4H65a58.28,58.28,0,0,0,.7,8.4,13.58,13.58,0,0,1-1.2,1.2v-5c0-3.2-.6-3.7-3.7-3.7H59.4c-3.1,0-3.7.6-3.7,3.7v5.5c0,3.2.6,3.7,3.7,3.7h2.2a2.14,2.14,0,0,0,1.9,1.3c.6,0,1.1-.1,3.3-2.2.8,1.8,1.7,2.5,3.2,2.5a3.37,3.37,0,0,0,2.9-1.5A6.35,6.35,0,0,0,74.4,29,1.87,1.87,0,0,0,72.5,27.08Zm-21.3-1.4a12.08,12.08,0,0,1-1.4.3v-2.9h1.4Zm0-6.5H49.8v-2.6h1.4Zm0-6.3H49.8v-2.5h1.4Zm4.7,1.8c-.7,0-1,.2-1.1.4v-4.8l.4-.2c0,.5.1,1.7,1.1,1.8.2,1.3.3,1.7.4,2.9h-.8Zm4.5,0H59.3c0-.3,0-.5-.2-2.8h1.6A13.33,13.33,0,0,1,60.4,14.68Zm2.9,0c.2-1.3.2-1.4.4-2.8a1.08,1.08,0,0,0,1.1-.8l.1,3.5H63.3Zm-2.2,13.7a.53.53,0,0,1-.6.6h-1a.53.53,0,0,1-.6-.6v-1.2h2.2Zm0-4.1H58.9v-1.1a.53.53,0,0,1,.6-.6h1a.53.53,0,0,1,.6.6Z"/><path class="cls-3" d="M101.1,7.58c-5.8,0-20.1.5-21.3.7a2.22,2.22,0,0,0-2.2,2.5,2.21,2.21,0,0,0,2.3,2.5c.8,0,9.4-.7,10.9-.8a16.11,16.11,0,0,0-3.9,3.2,11.16,11.16,0,0,0-3.2,7.7c0,6.5,5.4,7.9,7,8.3a26.31,26.31,0,0,0,6.7.8c2.2,0,4.3,0,4.3-2.8a2,2,0,0,0-2.3-2.2H96.8c-5,0-8.1-.8-8.1-4.6,0-3.5,3.1-6.8,6.2-8.6a12.23,12.23,0,0,1,6.3-1.9c1.7,0,3.3-.1,3.3-2.5S102.8,7.58,101.1,7.58Z"/><path class="cls-3" d="M97.3,14.78c-.4,0-1.2.4-1.2,1a1.85,1.85,0,0,0,.2.7c.1.2.6,1.1.7,1.3a9.14,9.14,0,0,0,.7,1.4c.3.6.7.6.8.6.4,0,1.2-.2,1.2-1a9.34,9.34,0,0,0-1-2.5C98.1,15.18,97.8,14.78,97.3,14.78Z"/><path class="cls-3" d="M100.4,13.38c-.4,0-1.2.3-1.2.9a1.09,1.09,0,0,0,.1.5c.1.2.6,1.2.8,1.5a9.14,9.14,0,0,0,.7,1.4.9.9,0,0,0,.9.6,1.11,1.11,0,0,0,1.2-1,7.26,7.26,0,0,0-1-2.5C101.3,13.88,101,13.38,100.4,13.38Z"/><path class="cls-3" d="M133.9,14.18a7.49,7.49,0,0,0-1.6.2c-1.3.2-2.7.3-4.7.5-.2-.5-.3-.8-.7-1.8.6,0,3.6-.3,4.7-.5.9-.2,2-.5,2-2,0-2.1-1.5-2.1-2-2.1s-2.9.3-3.5.4c-.2,0-1.6.1-2.4.2-.8-2.6-1-3.2-2.6-3.2-.7,0-2.7.3-2.7,2a7.84,7.84,0,0,0,.2,1.4c-.3,0-1.9.1-2.3.1h-5.1c-1.4,0-2.7,0-2.7,2a1.83,1.83,0,0,0,1.1,1.9,19.48,19.48,0,0,0,3.7.2c1.6,0,2.1,0,6.6-.2.2.4.5,1.4.8,1.9-2.8.2-6.3.2-6.8.2s-3.6-.1-4.3-.1c-.9,0-2.1.2-2.1,2,0,1.3.7,1.7,1.1,1.8a30.24,30.24,0,0,0,4.3.2c1.9,0,2.5,0,9.6-.3a13.78,13.78,0,0,0,1.3,2.2,20.92,20.92,0,0,0-4.9-.5c-4,0-9.8,1-9.8,6.1,0,5.8,7.7,6.1,11.8,6.1a31.36,31.36,0,0,0,8.9-1.1,2.13,2.13,0,0,0,1.7-2.2,2.07,2.07,0,0,0-2-2.3,8.27,8.27,0,0,0-2.2.4,28.53,28.53,0,0,1-7.1.9c-2,0-6.2-.1-6.2-2.2,0-.7.6-2.2,5-2.2a21,21,0,0,1,7.9,1.4,3.3,3.3,0,0,0,1.3.3,2.37,2.37,0,0,0,2.4-2.4,2.45,2.45,0,0,0-.6-1.6,18.6,18.6,0,0,1-2.2-3.2,29.75,29.75,0,0,0,4.3-.5,1.89,1.89,0,0,0,1.7-2C135.7,15.88,135.7,14.18,133.9,14.18Z"/><path class="cls-3" d="M162.5,16.18a12.16,12.16,0,0,0-4.8-1,9.82,9.82,0,0,0-2.8.4,46,46,0,0,1,3.9-2.7c3.4-2.1,3.8-2.3,3.8-3.9,0-2.1-1.9-2.1-2.8-2.1h-1.6c-3.8.2-4.4.2-12.2.3-1,0-2.6.1-2.6,2.3a2.11,2.11,0,0,0,2.4,2.3c.7,0,7.1-.5,8.5-.5-.4.4-.7.6-1,.9-3.2,2.5-6.1,4.7-10,7.6-2.1,1.6-2.5,1.8-2.5,2.9a2.54,2.54,0,0,0,2.5,2.5c.8,0,1-.1,2.9-2,3.8-3.4,7.1-4,9.5-4a9,9,0,0,1,3.4.5,4.21,4.21,0,0,1,2.6,4.1,4.63,4.63,0,0,1-3.6,4.6,4.25,4.25,0,0,0,.2-1.1c0-4.6-4.2-5.1-6.1-5.1-3.4,0-6.6,1.7-6.6,5.4a4.41,4.41,0,0,0,2.1,3.8c1.3.8,3,1.5,6.7,1.5a16.76,16.76,0,0,0,7-1.3,8.65,8.65,0,0,0,5.3-8.3A7.4,7.4,0,0,0,162.5,16.18Zm-8,12.9a5.85,5.85,0,0,1-1.3.2c-2.1,0-3.4-.7-3.4-1.7s1.1-1.6,2.4-1.6,2.4.5,2.4,2.1C154.7,28.18,154.7,28.48,154.5,29.08Z"/><path class="cls-3" d="M196.7,26.48c-2.8-2.5-4.8-4.1-7.2-5.9,2.8-4,4.7-8.4,4.7-10.4,0-2.6-2.2-2.8-3.5-2.8H176.1a2.13,2.13,0,0,0-2.4,2.3,2.11,2.11,0,0,0,2.4,2.3h11.6c.3,0,.7,0,.7.4,0,.8-3.6,9.6-13.2,14.8-2,1.1-2.4,1.3-2.4,2.4a2.54,2.54,0,0,0,2.3,2.6c1.6,0,6.5-2.8,11.6-8.2a64.63,64.63,0,0,1,6.6,6.5c.8.9,1.4,1.6,2.5,1.6a2.84,2.84,0,0,0,2.8-2.7C198.5,28.28,198,27.68,196.7,26.48Z"/><path class="cls-3" d="M228.1,19.38l-8.3.5-.3-4.6,7.1-.5a2.1,2.1,0,0,0,2.2-2.2,2,2,0,0,0-2.5-2.2l-7.2.5-.2-2.3c-.1-2-1.1-2.2-2.5-2.2-2.3,0-2.6,1.3-2.5,2.6l.1,2.3-7.2.4a2.1,2.1,0,0,0-2.2,2.2,2.15,2.15,0,0,0,2.5,2.3l7.2-.5.3,4.6-8.6.5c-1.3.1-2.2.7-2.2,2.2,0,1.2.5,2.4,2.5,2.3l8.7-.5.4,6.1c.1,1,.2,2.4,2.5,2.4,2.7,0,2.6-1.7,2.5-2.6l-.4-6.2,8.3-.5a2.1,2.1,0,0,0,2.2-2.2A2,2,0,0,0,228.1,19.38Z"/><path class="cls-3" d="M241.4,7c-2,0-2.4,1.1-2.4,2.2v6.3c0,7.9-.5,9.4-3.3,12.6a2.62,2.62,0,0,0-.9,1.9,2.82,2.82,0,0,0,2.8,2.6c.5,0,1.2,0,2.8-2,3.1-4,3.4-8.4,3.4-14.9V9.18C243.8,7.58,243,7,241.4,7Z"/><path class="cls-3" d="M259.9,17.48c-1.4,0-1.7.8-2.2,2.3-1.4,4.3-4.3,6.6-5.5,6.6-.3,0-.3-.3-.3-.7v-17c0-1.6-.9-2.2-2.4-2.2-1.9,0-2.4,1-2.4,2.2v20.6a2.54,2.54,0,0,0,2.8,2.9c2.2,0,7.1-1.8,10.1-6.3,1.2-1.8,2.5-4.9,2.5-6.3C262.5,17.78,260.4,17.48,259.9,17.48Z"/><path class="cls-3" d="M289.5,15.88a24.13,24.13,0,0,0-5.5,1.5,4.36,4.36,0,0,0-1.7-1.8,5.3,5.3,0,0,0-2.5-.6,7.21,7.21,0,0,0-3.6,1c.5-.8.5-.9,1.3-2.1,3-.1,10.6-.3,11.2-.4a1.87,1.87,0,0,0,1.7-2c0-1.6-1.1-2-2.2-2-.6,0-5.6.2-8.5.3a3,3,0,0,0,.3-1.2c0-1.3-1.3-1.7-2.3-1.7-1.5,0-1.8.6-2,1s-.5,1.4-.8,1.9c-1.7,0-2,0-5.3.1a1.87,1.87,0,0,0-2.2,2c0,2,1.7,2,2.3,2h3.2a35.92,35.92,0,0,1-4.3,5.8c-1.5,1.7-2,2.2-2,3.1a2.27,2.27,0,0,0,2.1,2.2,2.13,2.13,0,0,0,1.7-.8c.2-.3,1.2-1.6,1.5-1.9.7-.9,3-3.8,6.1-3.8a2.45,2.45,0,0,1,1.6.6c-3.3,1.5-8,4-8,8.2a4.3,4.3,0,0,0,2.9,4c1.5.6,3.2.9,7.4.9a29.1,29.1,0,0,0,6.5-.6c.4-.1,1.3-.4,1.3-1.9a1.75,1.75,0,0,0-1.9-2,5.38,5.38,0,0,0-1.1.1,37.85,37.85,0,0,1-5.8.5c-2.9,0-4.7-.3-4.7-1.6,0-1.6,1.7-2.6,4.1-3.6v2.2a1.93,1.93,0,0,0,2.2,2c2.1,0,2.1-1.6,2.1-2.9,0-.6-.1-1.7-.1-2.8,1.3-.4,1.4-.4,4.4-1.1,1.1-.2,2.3-.5,2.3-2.2A1.74,1.74,0,0,0,289.5,15.88Z"/><path class="cls-3" d="M321.7,14.08c-.8,0-1.2.5-1.7,1.1v-4c0-2.8-1.3-3.6-3.6-3.6h-5.1a3,3,0,0,0,.3-1.2c0-1.3-2.1-1.3-2.5-1.3-1.9,0-2.1.6-2.7,2.5h-3.7c-2.2,0-3.6.8-3.6,3.6v10c-2.4.1-2.6.1-3,.3a2.17,2.17,0,0,0-.8,1.8c0,1.6.8,2.1,1.9,2.1s10.3-.8,11.8-1a34,34,0,0,1-11.1,4c-1,.2-2.2.5-2.2,2a2.34,2.34,0,0,0,2.2,2.5,46.22,46.22,0,0,0,17.5-7.8v3c0,1.1-.4,1.1-1.2,1.1h-2.5c-.8,0-2.5,0-2.5,2.1,0,2.4,1.6,2.4,5.1,2.4,3.7,0,5.7,0,5.7-3.7v-8.8c.3-.3,1-1,1.8-1.9,2-2,2.2-2.5,2.2-3.2C324.1,15.18,323,14.08,321.7,14.08ZM315.5,20a5,5,0,0,1-.8.7c-3.4.3-7.8.4-10.9.5v-1.6h11.7V20Zm0-3.3H303.8v-1.3h11.7Zm0-4.1H303.8v-.8a.47.47,0,0,1,.5-.5h10.6c.4,0,.6.2.6.5Z"/><path class="cls-3" d="M338.6,13.78c.2,0,.8-.1.8-.1,2.4-.1,5.7-.2,6.9-.2h2.9c1.1,0,2.4-.2,2.4-2.2a1.81,1.81,0,0,0-1.3-2,21.17,21.17,0,0,0-3.7-.2c-4.5,0-7.9.2-8.5.3a1.85,1.85,0,0,0-1.7,2.1C336.3,13.18,337.2,13.78,338.6,13.78Z"/><path class="cls-3" d="M331.8,7.38c-1.1,0-2,0-2.4,1.5a75.56,75.56,0,0,0-1,13.5,54.17,54.17,0,0,0,.4,7.2c.3,1.2.6,2.1,2.2,2.1,2.1,0,2.4-1.3,2.4-2.1,0-.2-.3-2.7-.3-3.1-.2-1.9-.2-4.2-.2-5.1a71.17,71.17,0,0,1,.6-9.6,25.12,25.12,0,0,0,.4-2.7C333.9,7.58,332.3,7.38,331.8,7.38Z"/><path class="cls-3" d="M350.2,25.58c-.4,0-2.1.3-2.5.3a28.61,28.61,0,0,1-3.5.3c-2.8,0-4-.4-4-1.5a2.71,2.71,0,0,1,.4-1.2c.5-.9.6-1.1.6-1.6,0-1.2-1.4-1.8-2.5-1.8-3.1,0-3.1,4.7-3.1,4.7,0,4.8,4.7,5.6,9.3,5.6,1,0,4.9-.1,6.2-.7.7-.3,1.2-.7,1.2-2.2A2,2,0,0,0,350.2,25.58Z"/><path class="cls-3" d="M372.1,8.58a46.28,46.28,0,0,0-12.9,2c-1.7.5-2.7.9-2.7,2.7,0,.8.4,2.7,2.3,2.7.6,0,1-.1,4.3-1.2a29.68,29.68,0,0,1,9-1.6c3.5,0,6.5,1.7,6.5,6.2,0,7.2-7.3,7.6-11.1,7.6a17,17,0,0,1-2.2-.1c-.4,0-1.4-.1-1.8-.1-2.2,0-2.4,1.5-2.4,2.5a2.21,2.21,0,0,0,1.4,2.2,13.61,13.61,0,0,0,4.1.4,28.86,28.86,0,0,0,9.7-1.4c1.7-.6,7.3-3.2,7.3-11a10.92,10.92,0,0,0-2.7-7.6C378.1,8.58,373.7,8.58,372.1,8.58Z"/><path class="cls-3" d="M413.3,12.48c-.4,0-2.4.1-2.8.1,0-.6-.1-3.4-.1-4-.1-1.6-.8-2.2-2.5-2.2-2.2,0-2.4,1.3-2.4,2.5,0,.2.1,3.5.1,4-2.4.1-2.8.1-6.3.1-1.8,0-3.2,0-3.2,2.3s1.5,2.2,3.4,2.2c1.3,0,4.9-.1,6.3-.1,0,1.1.1,2.3.1,3.5,0,3.2-.2,5.1-1.6,6.2s-2.6,1.4-5,1.7c-1.2.2-1.8.7-1.8,2a2.3,2.3,0,0,0,2.3,2.5,18.12,18.12,0,0,0,4.6-.8c6.3-2.1,6.4-7.1,6.4-11,0-1,0-1.5-.1-4.2a18.51,18.51,0,0,0,3.8-.3,2,2,0,0,0,1.3-2.1C415.6,12.58,414.1,12.48,413.3,12.48Z"/><path class="cls-3" d="M394.9,8.48a1.81,1.81,0,0,0-1.9-2c-1.4,0-2.2,0-2.6,1.5a77.83,77.83,0,0,0-1,13.3,53.93,53.93,0,0,0,.6,9c.3,1.3.8,2,2.3,2,.6,0,2.4-.1,2.4-2a14.89,14.89,0,0,0-.1-1.7,63,63,0,0,1-.5-7.9c0-3.5.4-7.2.5-8.8C394.5,11.38,394.9,9,394.9,8.48Z"/><path class="cls-3" d="M441.8,16.18a12.16,12.16,0,0,0-4.8-1,9.82,9.82,0,0,0-2.8.4,46,46,0,0,1,3.9-2.7c3.4-2.1,3.8-2.3,3.8-3.9,0-2.1-1.9-2.1-2.8-2.1h-1.6c-3.8.2-4.4.2-12.2.3-1,0-2.5.1-2.5,2.3a2.11,2.11,0,0,0,2.4,2.3c.7,0,7.1-.5,8.5-.5-.4.4-.7.6-1,.9-3.2,2.5-6.1,4.7-10,7.6-2.1,1.6-2.5,1.8-2.5,2.9a2.54,2.54,0,0,0,2.5,2.5c.8,0,1-.1,2.9-2,3.8-3.4,7.1-4,9.5-4a9,9,0,0,1,3.4.5,4.21,4.21,0,0,1,2.6,4.1,4.63,4.63,0,0,1-3.6,4.6,4.25,4.25,0,0,0,.2-1.1c0-4.6-4.2-5.1-6.1-5.1-3.4,0-6.6,1.7-6.6,5.4a4.41,4.41,0,0,0,2.1,3.8c1.3.8,3,1.5,6.7,1.5a16.76,16.76,0,0,0,7-1.3,8.65,8.65,0,0,0,5.3-8.3A7.66,7.66,0,0,0,441.8,16.18Zm-8,12.9a5.85,5.85,0,0,1-1.3.2c-2.1,0-3.4-.7-3.4-1.7s1.1-1.6,2.4-1.6,2.4.5,2.4,2.1C434,28.18,434,28.48,433.8,29.08Z"/></svg>