<svg id="materials" xmlns="http://www.w3.org/2000/svg" viewBox="0 0 460 39.07"><defs><style>.cls-1{fill:#515556;}.cls-2{fill:#fff;}</style></defs><title>about-title</title><g id="about-title"><path class="cls-1" d="M437.65,13a7.18,7.18,0,0,0,.94-3.84c0-3.53-2.4-7.1-7.79-7.1l-1.2,0H429c-3.31.14-4.19.15-9.92.24l-2.17,0h-.08c-3.64.12-5.7,1.87-6.68,4-.67-1.13-2.3-3.68-5.62-3.68a6.37,6.37,0,0,0-2.75.64,5.27,5.27,0,0,0-.7,0,6.53,6.53,0,0,0-4.49,1.85,8.9,8.9,0,0,0-4.8-1.22c-5,0-7.34,3.62-8.59,5.56l-.29.46a8,8,0,0,0-1.31-2.21V7.43c0-3.9-3.34-6.95-7.61-6.95A6.68,6.68,0,0,0,369.57,2,6.63,6.63,0,0,0,365,.3a8.46,8.46,0,0,0-4.64,1.32A6.8,6.8,0,0,0,356.49.54a7.6,7.6,0,0,0-6.72,3.67l-.11-.06a9.72,9.72,0,0,0-4.2-.71c-5.2,0-18.86.5-20.38.64a9,9,0,0,0-1.7.36A6.79,6.79,0,0,0,316.82.27a7.55,7.55,0,0,0-5.63,2,7.65,7.65,0,0,0-1.48-.15,6.92,6.92,0,0,0-2.09.32A8,8,0,0,0,304.85,2h-.3a7,7,0,0,0-4.61-1.6A7.51,7.51,0,0,0,295,2h-.29a7.44,7.44,0,0,0-4.2,1.26,7.85,7.85,0,0,0-3.64-.84H273A7.86,7.86,0,0,0,267.69.33,7.09,7.09,0,0,0,262.15,3V3l0,0-.07.09c-.46.57-.81,1-1.11,1.33A6.31,6.31,0,0,0,255.37.73a6.16,6.16,0,0,0-2.51.52,6.33,6.33,0,0,0-.76-.05,6.22,6.22,0,0,0-5.78,3.91,7.52,7.52,0,0,0-6.35-3,6.75,6.75,0,0,0-6.19,3.71q-.21-.62-.48-1.32C231.81.58,229,0,227.46,0a6.58,6.58,0,0,0-2.14.35A6.7,6.7,0,0,0,224,.21a6.14,6.14,0,0,0-5.48,3.17,7.83,7.83,0,0,0-5.58-2.15c-4.52,0-6.18,3.21-7.18,5.13a17.94,17.94,0,0,1-3.08,4.23,7.25,7.25,0,0,0-5.28-4.77,7.8,7.8,0,0,0-2.14-.27c-4.27,0-5.83,2.89-6.63,5-1.39-2.5-4.35-4.05-7.65-5.76-2.73-1.44-4.44-2.18-6.17-2.18a6.77,6.77,0,0,0-2.15.35h-.05A7.71,7.71,0,0,0,168.66,6a10.63,10.63,0,0,0-5.2-2.36,115.37,115.37,0,0,0-16.52-2c-4.15,0-6.37,2.36-7.18,4.88a6.9,6.9,0,0,0-6.59-4H116.38a7.76,7.76,0,0,0-3.57.82A5.87,5.87,0,0,0,107.46,0a6.58,6.58,0,0,0-2.14.35A6.7,6.7,0,0,0,104,.21a6.14,6.14,0,0,0-5.48,3.17,7.83,7.83,0,0,0-5.58-2.15c-4.52,0-6.18,3.21-7.18,5.13a17.7,17.7,0,0,1-3.88,5c-.37-5.13-3.7-8.16-9.08-8.16H56.92a11.23,11.23,0,0,0-3.76.6A8.37,8.37,0,0,0,39,4.17H24.64a7.08,7.08,0,0,0-7.4,7.4,7.05,7.05,0,0,0,7.4,7.34H34c-1.2,1.48-3.36,3.11-7.44,4.21s-6.22,3.45-6.22,7a7.48,7.48,0,0,0,7.34,7.73c3.13,0,11.19-2.37,16.55-8.09a25,25,0,0,0,3.57-4.92v2.28c0,5.7,3.4,9.11,9.11,9.11H72.75a9,9,0,0,0,6.86-2.6A7.15,7.15,0,0,0,86.31,38,30.91,30.91,0,0,0,101.8,31.9a25.2,25.2,0,0,0,7.29-9.31,7.36,7.36,0,0,0,5,1.81h.56a7,7,0,0,0-3.47,6.07,7.91,7.91,0,0,0,1.55,4.67l.05.08.06.06A7.15,7.15,0,0,0,118.72,38a30.8,30.8,0,0,0,13-3.62,19.75,19.75,0,0,0,6-5.29A6.79,6.79,0,0,0,139,31.83a7.88,7.88,0,0,0,5.72,2.77h.13a91.83,91.83,0,0,1,14.39,2.09l.1,0c3.09.81,3.82,1,5.11,1a7.07,7.07,0,0,0,5.8-2.93,7.25,7.25,0,0,0,5.4,2.33A31.06,31.06,0,0,0,182.05,36h.06A27.58,27.58,0,0,0,196,27.46a31.16,31.16,0,0,0,3.22-4.52,7.61,7.61,0,0,0,2.52,1.94A6.23,6.23,0,0,0,199,30.47,7.26,7.26,0,0,0,206.31,38,30.91,30.91,0,0,0,221.8,31.9a24.28,24.28,0,0,0,5.07-5.43,7.19,7.19,0,0,0-.69,3.11,7.49,7.49,0,0,0,7.6,7.16,6.68,6.68,0,0,0,3.45-.88,14.52,14.52,0,0,0,5.82,1.22c6.25,0,9-3.8,10.31-7.9.23,0,.46,0,.7,0a8.34,8.34,0,0,0,3-.53,6.08,6.08,0,0,0-.7,3,7.42,7.42,0,0,0,7.61,7.22,6.61,6.61,0,0,0,3.79-1.1,7.75,7.75,0,0,0,4.21,1.16,8.09,8.09,0,0,0,4-1,7.36,7.36,0,0,0,3.36.74,8.76,8.76,0,0,0,4.12-1,6.63,6.63,0,0,0,3.62.94,7.7,7.7,0,0,0,6.46-3.17,6.68,6.68,0,0,0,6.15,3.56c4.23,0,7-2.57,7.29-6.59.25,0,.5,0,.76,0a7.47,7.47,0,0,0,1.4-.14l.17,0A6.72,6.72,0,0,0,316.34,39a8.16,8.16,0,0,0,5-1.48A7,7,0,0,0,324,31.76V28.89a6.57,6.57,0,0,0,1.06-1c1.11,3,3.68,6.38,9.44,7.87a30.05,30.05,0,0,0,7.48.92A11.53,11.53,0,0,0,346.7,36a6.85,6.85,0,0,0,4-4.68,7.55,7.55,0,0,0,1.69.29,7,7,0,0,0,5.16,7.07l.09,0,.09,0a22.82,22.82,0,0,0,4.42.23c2.15,0,4.36,0,6.4-1.08a7.58,7.58,0,0,0,3.95-6.24h4.74a7.13,7.13,0,0,0,5.48-2.3,8.31,8.31,0,0,0,1.51.14c4.05,0,5.91-3,6.71-4.28.3-.48.79-1.3,1.29-2.14a85.1,85.1,0,0,0,6.16,8.32c2.39,2.76,4.5,4.88,8,4.88a7.82,7.82,0,0,0,6.56-3.72,9.55,9.55,0,0,0,3.15,3.3h0l0,0a16.86,16.86,0,0,0,9.35,2.28,21.3,21.3,0,0,0,9-1.7,13.77,13.77,0,0,0,8.28-12.84A12.93,12.93,0,0,0,437.65,13ZM66.94,17.59v4.22H62.73V17.59ZM140,12.38c0-.05,0-.11,0-.16a6.5,6.5,0,0,0,.32.59A4.82,4.82,0,0,0,140,12.38Zm28.12,11.5a8.15,8.15,0,0,0,1-3.94,7.08,7.08,0,0,0-.67-3.17,7.15,7.15,0,0,0,1.16-1.5,10,10,0,0,0,2.23,1.56c.78.42,3.28,1.79,5,3a12.34,12.34,0,0,0,2.42,1.38,24.74,24.74,0,0,1-4,.82,8,8,0,0,0-5.64,2.9A8.46,8.46,0,0,0,168.14,23.88ZM412,15.31l-.68.49A14.19,14.19,0,0,0,407.9,19c-.39-.44-.79-.91-1.21-1.42a6.22,6.22,0,0,0,4.5-3A7.14,7.14,0,0,0,412,15.31Z"/><path class="cls-2" d="M24.64,13.91a2.12,2.12,0,0,1-2.4-2.34,2.12,2.12,0,0,1,2.4-2.4H41.19A12.68,12.68,0,0,1,43,9.32a4.28,4.28,0,0,1-.12-.87,3.38,3.38,0,0,1,3.39-3.36,3.32,3.32,0,0,1,3.33,3.3,3.39,3.39,0,0,1-3.48,3.39,6.14,6.14,0,0,1,.18,1.56,21.78,21.78,0,0,1-5.67,13c-4.53,4.83-11.28,6.51-12.9,6.51-1.85,0-2.34-1.92-2.34-2.73,0-1.41,1-1.77,2.53-2.16,9.32-2.52,11.52-7.74,12.38-10.32a10.89,10.89,0,0,0,.69-3c0-.72-.42-.72-.78-.72ZM46.2,7a1.43,1.43,0,1,0,0,2.85A1.43,1.43,0,1,0,46.2,7Z"/><path class="cls-2" d="M72.75,8.18c2.85,0,4.11,1.11,4.11,4.11V27.11c0,3.12-1.38,4.11-4.11,4.11H56.92c-2.82,0-4.11-1.08-4.11-4.11V12.29c0-3.33,1.62-4.11,4.11-4.11Zm-14,4.41a.91.91,0,0,0-1,1V25.79a.9.9,0,0,0,1,1H71a.9.9,0,0,0,1-1V13.61a.91.91,0,0,0-1-1Z"/><path class="cls-2" d="M103.35,10.49c3.12,0,3.18,1.95,3.18,2.82A21.59,21.59,0,0,1,98.7,28a26.64,26.64,0,0,1-12.39,5A2.33,2.33,0,0,1,84,30.47c0-1.59.69-1.74,3-2.28,5.11-1.23,9.81-3,12.79-8.91a14,14,0,0,0,1.37-3.9c0-.48-.27-.48-.95-.48H91.74A27.15,27.15,0,0,1,87,19.7a3.74,3.74,0,0,1-2.17.87,2.51,2.51,0,0,1-2.39-2.43c0-.93.14-1.05,2.06-2.52a21.81,21.81,0,0,0,5.67-7c.91-1.74,1.26-2.43,2.74-2.43,1.08,0,2.6.6,2.6,1.83a5,5,0,0,1-.84,2.43Zm-.48-3.75a2.64,2.64,0,0,1-.09-.6c0-.81.93-.93,1.17-.93.6,0,.84.42,1.2,1.29a10.67,10.67,0,0,1,.75,2.7,1.06,1.06,0,0,1-1.17,1.05.94.94,0,0,1-1-.75c-.06-.24-.36-1.26-.42-1.47S102.93,6.92,102.87,6.74Zm3.48-.24a1.58,1.58,0,0,1-.09-.54c0-.78.87-1,1.2-1,.57,0,.84.39,1.17,1.26A8.55,8.55,0,0,1,109.38,9c0,1-1.08,1-1.17,1-.69,0-.78-.21-1.38-2.19C106.77,7.61,106.41,6.68,106.35,6.5Z"/><path class="cls-2" d="M114.1,19.4a2,2,0,0,1-2.25-2.19A2,2,0,0,1,114.1,15H134c1.44,0,3,.45,3,2.76A16,16,0,0,1,129.21,30a26.2,26.2,0,0,1-10.49,3,2.34,2.34,0,0,1-2-.78,3,3,0,0,1-.58-1.71c0-1.74,1.33-1.95,2.2-2.07,4.31-.6,9.47-1.32,12.11-5.91a7.66,7.66,0,0,0,1-2.55c0-.42-.18-.54-.78-.54ZM133.17,7.58a2,2,0,0,1,2.25,2.22,2,2,0,0,1-2.25,2.25H116.38a2,2,0,0,1-2.22-2.22c0-2.22,1.61-2.25,2.22-2.25Z"/><path class="cls-2" d="M145.15,24.92a113.13,113.13,0,0,1,18.29,2.55c2.43.57,3.27,1.08,3.27,2.49,0,.6-.24,2.76-2.31,2.76-.66,0-1.11-.12-4-.87a95.63,95.63,0,0,0-15.18-2.22c-1.17-.12-3-.27-2.67-2.73A2.23,2.23,0,0,1,145.15,24.92Zm1.56-9.27a94.69,94.69,0,0,1,14.3,2c2.07.48,3.09.75,3.09,2.31,0,.27-.09,2.58-2,2.58-.48,0-.54,0-4-.84A85.31,85.31,0,0,0,147,20c-1.24-.12-2.64-.27-2.64-2a4.62,4.62,0,0,1,.06-.57A2,2,0,0,1,146.71,15.65Zm.23-8.94a112.89,112.89,0,0,1,15.51,1.86c2.19.45,3.24.84,3.24,2.52,0,.42-.15,2.61-2.07,2.61-.54,0-.69,0-3.78-.75a84.06,84.06,0,0,0-12.62-1.71c-1.14-.09-3.21-.24-2.79-2.73A2.12,2.12,0,0,1,146.94,6.71Z"/><path class="cls-2" d="M174.76,7.61c.8,0,2.84,1.08,3.87,1.62,5.36,2.79,5.78,3.54,5.78,4.68,0,1-1,2.79-2.48,2.79-.58,0-1-.12-2.28-1-1.84-1.26-4.32-2.64-5.49-3.27-.81-.42-1.81-.93-1.81-2.19a2.82,2.82,0,0,1,1.84-2.52A1.75,1.75,0,0,1,174.76,7.61ZM198,12.77c0,1.41-2,7.17-5.73,11.4a22.76,22.76,0,0,1-11.48,7,27.93,27.93,0,0,1-5.16,1,2.5,2.5,0,0,1-2.43-2.79c0-1.8,1.08-2.16,2.67-2.37C183.52,26,189.52,23,193,13.07c.66-1.92.87-2.52,2.22-2.52a3,3,0,0,1,.81.09A2.23,2.23,0,0,1,198,12.77Z"/><path class="cls-2" d="M223.35,10.49c3.12,0,3.18,1.95,3.18,2.82A21.59,21.59,0,0,1,218.7,28a26.64,26.64,0,0,1-12.39,5A2.33,2.33,0,0,1,204,30.47c0-1.59.69-1.74,3-2.28,5.11-1.23,9.81-3,12.79-8.91a14,14,0,0,0,1.37-3.9c0-.48-.27-.48-.95-.48h-8.41A27.15,27.15,0,0,1,207,19.7a3.74,3.74,0,0,1-2.17.87,2.51,2.51,0,0,1-2.39-2.43c0-.93.14-1.05,2.06-2.52a21.81,21.81,0,0,0,5.67-7c.91-1.74,1.26-2.43,2.74-2.43,1.08,0,2.6.6,2.6,1.83a5,5,0,0,1-.84,2.43Zm-.48-3.75a2.64,2.64,0,0,1-.09-.6c0-.81.93-.93,1.17-.93.6,0,.84.42,1.2,1.29a10.67,10.67,0,0,1,.75,2.7,1.06,1.06,0,0,1-1.17,1.05.94.94,0,0,1-1-.75c-.06-.24-.36-1.26-.42-1.47S222.93,6.92,222.87,6.74Zm3.48-.24a1.58,1.58,0,0,1-.09-.54c0-.78.87-1,1.2-1,.57,0,.84.39,1.17,1.26A8.55,8.55,0,0,1,229.38,9c0,1-1.08,1-1.17,1-.69,0-.78-.21-1.38-2.19C226.77,7.61,226.41,6.68,226.35,6.5Z"/><path class="cls-2" d="M238.07,8.44A1.78,1.78,0,0,1,240,7.07c.93,0,2.49.25,2.49,1.82a18.25,18.25,0,0,1-.56,3,9.58,9.58,0,0,1,4.12.48c2.86,1.26,3.36,5.21,3.36,8.06,0,8-1.57,11.6-6.33,11.6a9.33,9.33,0,0,1-4.25-1,1.88,1.88,0,0,1-1.18-1.77c0-.25.11-2.24,1.85-2.24a3.21,3.21,0,0,1,1.45.37,5.75,5.75,0,0,0,1.74.36c1.2,0,1.57-.59,1.93-2.29a30,30,0,0,0,.45-5.58c0-2.91-.42-4-3.08-4-.39,0-.81,0-1.09.05a104.67,104.67,0,0,1-3.7,11.32c-1.43,3.55-2.1,4.42-3.39,4.42a2.59,2.59,0,0,1-2.6-2.16c0-.7.25-1.12,1-2.52a53.84,53.84,0,0,0,4.06-10.64c-2.1.23-2.86.31-3.06.31a1.86,1.86,0,0,1-2-2.13,1.88,1.88,0,0,1,1.2-2,24.12,24.12,0,0,1,4.9-.48C237.45,11.55,237.93,9,238.07,8.44Zm10.13,4.12a1.69,1.69,0,0,1-.42-1.12,1.87,1.87,0,0,1,.79-1.46,2.33,2.33,0,0,1,1.34-.42c1.77,0,3.86,2.5,4.85,4.48a19.17,19.17,0,0,1,1.76,7.79c0,.59,0,2.38-2.46,2.38a1.84,1.84,0,0,1-2.08-2c-.19-2.66-.5-6.33-2.54-8.4Zm2.94-4.82A1.65,1.65,0,0,1,251,7.1c0-.56.7-.9,1.12-.9s.78.4,1.31,1.32a6.35,6.35,0,0,1,1,2.44c0,.75-.81.95-1.09.95s-.53,0-.84-.62c-.08-.19-.53-1.12-.62-1.31S251.28,8,251.14,7.74Zm3.25-.47a1.56,1.56,0,0,1-.14-.65c0-.56.67-.89,1.12-.89s.76.39,1.26,1.29a7.29,7.29,0,0,1,1,2.46c0,.64-.67.92-1.09.92a.85.85,0,0,1-.84-.58c-.11-.23-.53-1.15-.62-1.32S254.5,7.49,254.39,7.27Z"/><path class="cls-2" d="M286.91,7.4c.75,0,2.16.12,2.16,1.92,0,1.08-.27,2.16-2.07,2.16h-.51v2.91h1.23c1,0,2.16.21,2.16,1.92,0,1.44-.45,2.19-2.16,2.19h-1.23v3h.57c1.32,0,2.07.66,2.07,1.92s-.48,2.16-2.16,2.16H264.15A1.87,1.87,0,0,1,262,23.66c0-1.56.75-2.13,2.19-2.13h1.53v-3H263.4c-.6,0-2.17,0-2.17-1.92,0-1.41.49-2.19,2.17-2.19H266V12.5c-1.57,1.41-2.07,1.62-2.74,1.62a2.39,2.39,0,0,1-2.16-2.34c0-.87.22-1,2-2.52A18.8,18.8,0,0,0,266,6.2a2,2,0,0,1,1.68-.87c1,0,2.54.72,2.33,2.07Zm-19,20.22a7,7,0,0,1-.91,2.82c-1.53,3.27-2.18,3.42-3.08,3.42a2.5,2.5,0,0,1-2.61-2.22c0-.54.06-.63,1.07-2.16a20,20,0,0,0,1.38-2.64,1.71,1.71,0,0,1,1.74-1.05C265.94,25.79,267.93,26,267.93,27.62Zm6.14,0c.09.81.24,2.82.24,4.08,0,.81,0,2.22-2.37,2.22-1,0-2.25-.24-2.25-2,0-.36,0-2,0-2.34-.09-2.16-.07-2.34.21-2.79a2.19,2.19,0,0,1,1.91-.81C273.2,26,274,26.45,274.07,27.62Zm-2.3-16.14H269.9v2.91h1.87Zm0,7H269.9v3h1.87Zm5.36-7h-1.89v2.91h1.89Zm0,7h-1.89v3h1.89Zm4.08,10.23a13.85,13.85,0,0,1,.75,3.12c0,1.83-2.37,1.86-2.67,1.86-1.8,0-2-1-2.22-2.52-.09-.57-.75-3.09-.75-3.63,0-1.35,1.59-1.62,2.4-1.62C280.28,25.94,280.43,26.39,281.21,28.73Zm1.29-17.25h-1.92v2.91h1.92Zm0,7h-1.92v3h1.92Zm5.91,9.84a9.08,9.08,0,0,1,1.38,3.18c0,1.68-2,2.16-2.76,2.16-1.26,0-1.44-.39-2.49-2.73-.15-.36-.93-1.89-1.08-2.19a2.56,2.56,0,0,1-.27-1.05c0-1.53,1.86-1.92,2.37-1.92C286.94,25.79,287,25.88,288.41,28.34Z"/><path class="cls-2" d="M308.15,27.47c-1.25.24-2.21-.45-2.34-2.16a2.15,2.15,0,0,1-1.83,1.2c-.92,0-1.53-.93-2-1.92v7.29c0,1.68-.78,2.19-2.3,2.19a1.87,1.87,0,0,1-2-2.19V26.42c-1,1.92-1.71,2.82-2.7,2.82a2.62,2.62,0,0,1-2.34-2.61c0-.78.14-1,1.5-2.61a35.6,35.6,0,0,0,3.51-5.34h-2.5c-1.62,0-2.25-.66-2.25-2.16a1.91,1.91,0,0,1,2.25-1.95h2.53v-7c0-1.62.74-2.19,2.31-2.19a1.88,1.88,0,0,1,2,2.19v7h2.13c1.56,0,2.22.66,2.22,2.16a1.91,1.91,0,0,1-2.22,1.95h-2a29.2,29.2,0,0,0,2.43,3.3c1.29,1.41,1.41,1.56,1.53,2,.18-.33.36-.72,1.45-.93l6.8-1.29V7.49c0-1.89.84-2.22,2.58-2.22s2.13,1,2.13,2.19V20.93a2.56,2.56,0,0,1,.75-.12c1.77,0,1.89,2,1.89,2.61,0,1-.3,1.62-1.74,1.86l-.9.15v6.33a2.25,2.25,0,0,1-.69,1.83,4.16,4.16,0,0,1-1.92.39c-1.68,0-2.1-1-2.1-2.22V26.33ZM296.24,8.36a21.36,21.36,0,0,1,.94,3.9c0,1.11-1.24,1.5-2,1.5-1.06,0-1.23-.75-1.44-1.77a20.15,20.15,0,0,0-.67-2.4,3.71,3.71,0,0,1-.29-1.2c0-1,1.17-1.41,2-1.41S295.94,7.52,296.24,8.36Zm10.68.12a16.29,16.29,0,0,1-.93,3.78c-.39,1.11-.78,1.53-1.53,1.53s-2-.51-2-1.53a3.77,3.77,0,0,1,.27-1.23c.27-.87.45-1.71.69-2.76.12-.45.3-1.32,1.41-1.32C306.32,7,306.92,7.76,306.92,8.48Zm4.89,7.92c1,.84,1.41,1.26,1.41,2a2.59,2.59,0,0,1-2.31,2.49c-.72,0-.9-.18-2.37-1.53-.21-.21-1.2-1.05-1.41-1.26a1.44,1.44,0,0,1-.48-1.14,2.3,2.3,0,0,1,2.13-2.31C309.62,14.66,310.25,15.08,311.81,16.4Zm.3-8.07C313.61,9.62,314,10,314,10.88a2.37,2.37,0,0,1-2.22,2.37c-.69,0-.87-.15-2.4-1.62-.24-.21-1.29-1.14-1.47-1.35a1.66,1.66,0,0,1-.33-1,2.16,2.16,0,0,1,2.1-2.16A3.69,3.69,0,0,1,312.11,8.33Z"/><path class="cls-2" d="M325.66,13.74a2.05,2.05,0,0,1-2.12-2.33,2,2,0,0,1,2-2.35c1.18-.11,14.48-.62,19.91-.62,1.54,0,3.14,0,3.14,2.13s-1.52,2.33-3.11,2.33a11.37,11.37,0,0,0-5.91,1.76c-2.89,1.65-5.74,4.76-5.74,8,0,3.5,2.88,4.28,7.59,4.28h2.41a1.92,1.92,0,0,1,2.15,2.1c0,2.63-2,2.63-4.06,2.63a25.91,25.91,0,0,1-6.21-.75c-1.52-.4-6.53-1.68-6.53-7.73a10.5,10.5,0,0,1,3-7.23,15.17,15.17,0,0,1,3.66-3C334.4,13.12,326.39,13.74,325.66,13.74Zm15.29,3a1.75,1.75,0,0,1-.17-.61c0-.56.7-.9,1.12-.9s.76.31,1.35,1.35a8.51,8.51,0,0,1,.89,2.35c0,.75-.78.95-1.12.95-.14,0-.5,0-.78-.59-.11-.19-.53-1.12-.62-1.31S341,16.9,341,16.7Zm2.89-1.45a1.31,1.31,0,0,1-.12-.51c0-.56.7-.86,1.09-.86.57,0,.84.44,1.35,1.37a6.61,6.61,0,0,1,.92,2.32c0,.62-.64.93-1.12.93-.14,0-.5,0-.81-.59-.11-.2-.53-1.12-.62-1.29S343.92,15.44,343.84,15.25Z"/><path class="cls-2" d="M363.4,10a11.07,11.07,0,0,1-1.09-2.88c0-1.38,1.68-1.8,2.64-1.8,1.14,0,1.53.51,2.16,1.8a6.2,6.2,0,0,1,.75,2.34,1.78,1.78,0,0,1-.09.54h2.82c.57-1.08.9-1.8,1.2-2.52.51-1.2.87-2,2.22-2,1,0,2.61.51,2.61,1.95,0,.66-.33,1.17-1.14,2.55,1.2,0,3.12.39,3.12,3.63v2.16c0,1.8-1.11,2.1-2.16,2.1a3.3,3.3,0,0,1-1.71-.39A2.85,2.85,0,0,1,373.29,20a27.2,27.2,0,0,1-4.56,2.46h8.52a1.9,1.9,0,0,1,2.19,2c0,1.86-1.32,2.07-2.19,2.07h-9.66v3.51c0,3.75-1.86,3.81-5.43,3.81a27.06,27.06,0,0,1-3.39-.12c-1.2-.3-1.37-1.74-1.37-2.22a1.87,1.87,0,0,1,2.09-2.07c.4,0,2.16.06,2.53,0,.63-.09.77-.39.77-1.23V26.6H353a1.9,1.9,0,0,1-2.19-2c0-1.77,1.17-2.07,2.19-2.07h9.83c0-.75,0-1.29,1.15-1.53.26-.09,2.36-1,2.36-1.32s-.21-.21-.36-.21h-8.79c-.59,0-1.73,0-1.88-1.83a2.81,2.81,0,0,1-1.26.27c-1.48,0-2.41-.42-2.41-2.1V13.61c0-2.76,1.24-3.6,3.49-3.63-1.11-2-1.17-2.13-1.17-2.58,0-1.14,1.35-1.86,2.57-1.86.94,0,1.53.27,2.53,2.28a4.26,4.26,0,0,1,.63,2.16Zm-7.3,5.82a2.41,2.41,0,0,1,1.09-.3h14.72c1.14,0,1.68,0,2.19.42V14.48a.55.55,0,0,0-.63-.6H356.7a.54.54,0,0,0-.6.6Z"/><path class="cls-2" d="M398.13,14.36a64.84,64.84,0,0,0,9.09,11.1c1.32,1.26,1.89,1.92,1.89,2.91a2.89,2.89,0,0,1-2.76,2.85c-1,0-1.68-.27-4.17-3.15a112.91,112.91,0,0,1-8-11.19c-1.21-1.77-1.66-2.1-2.13-2.1-.67,0-1,.36-2.34,2.73-.33.57-2.28,3.9-3,5-.84,1.35-1.4,1.92-2.46,1.92-1.26,0-3-1-3-2.61a4.52,4.52,0,0,1,1.24-2.58c1.41-1.8,3.26-4.53,4.92-7.14,1.4-2.19,2.42-3.27,4.38-3.27C394.29,8.84,395,9.8,398.13,14.36ZM400,9.68a1.16,1.16,0,0,1-.12-.51c0-.66.81-1,1.2-1s.81.36,1.41,1.44a7.83,7.83,0,0,1,1,2.55c0,.81-.84,1-1.2,1s-.69-.27-.9-.66c-.12-.21-.54-1.2-.63-1.38S400.14,10,400,9.68Zm3.45-.57a1.58,1.58,0,0,1-.12-.54c0-.63.78-1,1.2-1s.75.27,1.38,1.35A9,9,0,0,1,407,11.6a1.11,1.11,0,0,1-1.2,1c-.15,0-.54,0-.87-.6-.12-.21-.57-1.23-.66-1.41S403.53,9.32,403.47,9.11Z"/><path class="cls-2" d="M428.67,15.26a11.72,11.72,0,0,1,4.8,1,7.7,7.7,0,0,1,4.29,7.29,8.75,8.75,0,0,1-5.34,8.28,16.76,16.76,0,0,1-7,1.26c-3.69,0-5.46-.75-6.72-1.53a4.54,4.54,0,0,1-2.09-3.84c0-3.69,3.17-5.37,6.59-5.37,1.89,0,6.09.51,6.09,5.07a4.92,4.92,0,0,1-.15,1.11A4.59,4.59,0,0,0,432.75,24a4.3,4.3,0,0,0-2.64-4.11,8.73,8.73,0,0,0-3.36-.54c-2.4,0-5.76.54-9.53,4-2,1.83-2.16,1.95-3,1.95a2.59,2.59,0,0,1-2.48-2.55c0-1,.36-1.29,2.48-2.85,3.93-2.85,6.84-5,10.05-7.59a10.15,10.15,0,0,0,1-.87c-1.35,0-7.82.51-8.49.51a2.09,2.09,0,0,1-2.4-2.31c0-2.13,1.6-2.25,2.56-2.28,7.76-.12,8.45-.12,12.2-.27.3,0,1,0,1.59,0,.9,0,2.79,0,2.79,2.1,0,1.56-.39,1.8-3.81,3.87-1.83,1.11-3.15,2.13-3.93,2.7A8.6,8.6,0,0,1,428.67,15.26Zm-3,12.87c0-1.62-1.15-2.07-2.38-2.07s-2.42.6-2.42,1.56,1.28,1.68,3.38,1.68a6.44,6.44,0,0,0,1.26-.15A3.71,3.71,0,0,0,425.65,28.13Z"/></g></svg>