<?xml version="1.0" encoding="utf-8"?>
<!-- Generator: Adobe Illustrator 23.0.2, SVG Export Plug-In . SVG Version: 6.00 Build 0)  -->
<svg version="1.1" id="materials" xmlns="http://www.w3.org/2000/svg" xmlns:xlink="http://www.w3.org/1999/xlink" x="0px" y="0px"
	 viewBox="0 0 460 42" style="enable-background:new 0 0 460 42;" xml:space="preserve">
<style type="text/css">
	.st0{fill:none;}
	.st1{fill:#515556;}
	.st2{fill:#FFFFFF;}
</style>
<g>
	<path class="st0" d="M197.5,20.6c0.3,0.3,0.7,0.6,1,0.9c0.3-0.9,0.7-1.6,1.3-2.3c-0.3-0.6-0.6-1.3-0.7-2
		C198.6,18.3,198,19.4,197.5,20.6z"/>
	<path class="st0" d="M367.6,22.3c4.1,0,5-0.8,5-0.8c0,0,0.1-0.2,0.1-0.8l0-0.2c-0.1,0-0.3,0-0.5,0c-2.9,0-6.2,1-7.1,1.3l-0.2,0.1
		c-0.2,0.1-0.4,0.1-0.6,0.2c0.3,0,0.8,0.1,1.6,0.1C366.5,22.3,367,22.3,367.6,22.3z"/>
	<path class="st0" d="M355,22.4c0.9,0.6,1.7,1.5,2.2,2.4c0.5-0.6,1.1-1.1,1.7-1.5h0C357.5,23.4,356.2,23.1,355,22.4z"/>
	<path class="st0" d="M176.1,19.5c-1.9,0-3.6-0.5-4.9-1.4c0.8,1.6,1.4,3.3,1.6,5.1c2-1.1,3.6-2.4,4.9-3.7H176.1z"/>
	<path class="st0" d="M105.5,25.3c0.1-0.2,0.1-0.4,0.2-0.6c-0.2,0.1-0.3,0.2-0.5,0.3C105.3,25,105.4,25.2,105.5,25.3z"/>
	<path class="st0" d="M168,14c0.1,0.1,0.2,0.2,0.3,0.2c-0.1-0.2-0.1-0.3-0.2-0.5C168.1,13.9,168.1,14,168,14z"/>
	<path class="st0" d="M352.6,20.4c-1,0.4-2.1,0.6-3.3,0.6c-0.2,0-0.9,0-1.5,0c-0.3,0-0.6,0-0.9,0c0,0.1,0.1,0.3,0.1,0.4l0,0l0.2,0
		c1.9-0.3,2.5-0.4,3.1-0.4c1.4,0,2.8,0.3,3.9,0.9C353.6,21.5,353,21,352.6,20.4z"/>
	<path class="st1" d="M60.7,24h-1c-0.4,0-0.6,0.2-0.6,0.6v1.1h2.2v-1.1C61.2,24.2,61.1,24,60.7,24z"/>
	<path class="st1" d="M63.8,13.3c-0.2,1.3-0.2,1.5-0.4,2.8H65l-0.1-3.5C64.6,13.1,64.2,13.2,63.8,13.3z"/>
	<path class="st1" d="M59.1,29.8c0,0.4,0.2,0.6,0.6,0.6h1c0.4,0,0.6-0.2,0.6-0.6v-1.2h-2.2V29.8z"/>
	<path class="st1" d="M49.9,27.4c0.6-0.1,0.7-0.1,1.4-0.3v-2.6h-1.4V27.4z"/>
	<path class="st1" d="M23.4,18.2h-3.5c-0.4,0-0.6,0.2-0.6,0.6v1c0,0.3,0.2,0.6,0.6,0.6h3.5c0.5,0,0.6-0.4,0.6-0.6v-1
		C24.1,18.4,23.8,18.2,23.4,18.2z"/>
	<path class="st1" d="M152.4,27.4c-1.4,0-2.4,0.6-2.4,1.6c0,1,1.3,1.7,3.4,1.7c0.5,0,0.8-0.1,1.3-0.2c0.2-0.6,0.2-0.9,0.2-1
		C154.8,27.9,153.6,27.4,152.4,27.4z"/>
	<path class="st1" d="M55.2,11.4c-0.2,0.2-0.2,0.2-0.4,0.2v4.8c0.2-0.1,0.5-0.4,1.1-0.4h0.7c-0.1-1.1-0.1-1.6-0.4-2.9
		C55.3,13,55.3,11.9,55.2,11.4z"/>
	<path class="st1" d="M59.4,16.1h1.1c0.2-0.5,0.3-2.2,0.3-2.8h-1.6C59.4,15.5,59.4,15.8,59.4,16.1z"/>
	<rect x="49.9" y="11.7" class="st1" width="1.4" height="2.5"/>
	<rect x="49.9" y="18" class="st1" width="1.4" height="2.6"/>
	<rect x="303.9" y="16.8" class="st1" width="11.7" height="1.3"/>
	<path class="st1" d="M303.9,22.6c3.1-0.1,7.5-0.2,10.9-0.5c0.3-0.2,0.5-0.4,0.8-0.7V21h-11.7V22.6z"/>
	<path class="st1" d="M315,12.7h-10.6c-0.4,0-0.5,0.2-0.5,0.5V14h11.7v-0.8C315.6,12.9,315.4,12.7,315,12.7z"/>
	<path class="st1" d="M447.3,14c0.4-1,0.7-2.1,0.7-3.6c0-4-2.7-8.1-8.8-8.1c-0.4,0-0.9,0-1.2,0c-0.1,0-0.3,0-0.4,0l-0.2,0
		c-3.3,0.1-4.2,0.1-9.9,0.2l-2.2,0l-0.1,0c-3.5,0.1-7.1,2-8.1,6c-0.3-0.1-0.6-0.3-0.9-0.4c-0.7-4-3.9-6.6-8.3-6.6
		c-4,0-6.5,2.1-7.7,4.7c-1.2-2.7-3.9-4.6-7.2-4.6c-4.5,0-7.3,2-8.4,5.8c0,0.1-0.1,0.2-0.1,0.3C379.9,4,374.2,4,372.2,4
		c-2.5,0-7.8,0.3-14.6,2.3c-0.7,0.2-1.5,0.5-2.2,0.8c-1-1-2.2-1.8-3.7-2.1c-1-0.3-2.3-0.3-5.1-0.3c-3.2,0-7.3,0.1-9.1,0.3
		c-1.4-1.3-3.4-2.1-5.7-2.1c-4.3,0-6.4,2-7.4,4c-1.6-2.4-4.4-3.8-7.9-3.8h-0.7c-1.4-1.5-3.6-2.5-6.6-2.5c-3.1,0-5,1.1-6.3,2.5h-0.1
		c-3.8,0-6.7,1.6-8.3,4.4c-1.5-1.6-3.6-2.6-6.1-2.6c-0.4,0-1.4,0-4,0.1l0,0c-1.5-1.7-3.8-2.7-6.4-2.7c-2.7,0-5.1,1.1-6.5,3l0,0
		l-1.5,0c-4.8,0-8.1,3.2-8.2,7.8c-0.6-0.1-1.1-0.2-1.7-0.2c-0.7,0-1.4,0.1-2,0.2v-2.9c0-4.8-3.5-8.2-8.4-8.2c-1.6,0-3.1,0.4-4.3,1
		c-1.1-0.5-2.3-0.7-3.7-0.7c-4.3,0-7.5,2.6-8.2,6.4c-1.5-2-3.8-3.2-6.6-3.2c-0.2,0-0.5,0-0.7,0l-1.9,0.1c-1.2-2.4-3.5-4.2-7.5-4.2
		c-3.3,0-5.3,1.4-6.4,2.6c-0.6,0.6-1.2,1.5-1.6,2.7l-1.9,0.1c-2.8,0.2-5.1,1.5-6.5,3.6c-0.4-2.9-2-5.2-4.5-6.5
		c-1.9-0.9-3.7-1.1-5-1.1h-14.6c-3.7,0-6.6,2-7.8,5.1c-0.9-3.1-3.6-5.6-8.4-5.6c-0.4,0-0.9,0-1.2,0c-0.1,0-0.3,0-0.4,0l-0.2,0
		c-3.3,0.1-4.2,0.1-9.9,0.2l-2.2,0l-0.1,0c-3.1,0.1-6.2,1.6-7.6,4.6c-1.4-2.1-3.8-3.4-6.6-3.4c-0.5,0-1,0-2.2,0.2
		c-1.2-1.6-3.1-2.9-6.3-2.9c-3.1,0-5.8,1.4-7.3,3.6c-1.1,0-2.1,0-2.5,0c-2,0-3.5,0.4-4.7,1c-0.7-0.8-1.6-1.5-2.7-2
		C104.2,3,102.4,3,101.2,3C95.5,3,81,3.5,79.3,3.7l-0.1,0c-1,0.1-1.8,0.3-2.6,0.7c-1.1-1.4-2.9-2.5-5.5-2.6
		c-1.2-0.7-2.7-1.1-4.3-1.1c-1.2,0-2.3,0.2-3.3,0.6c-1-0.4-2.2-0.7-3.5-0.7c-1.5,0-3,0.4-4.1,1.1c-0.6-0.1-1.3-0.2-1.9-0.2h-6.6
		c-1.3,0-2.4,0.2-3.4,0.7c-1.9-1.5-3.9-1.5-4.8-1.5c-0.7,0-1.4,0.1-2,0.3c-0.9-0.3-1.8-0.4-2.9-0.4c-2.5,0-4.7,1-6.1,2.6
		c-1.4-1.5-3.5-2.6-6.5-2.6c-2.7,0-5,1.1-6.4,2.9c-4.3,0.4-7.2,3.6-7.2,8c0,1.7,0.5,3.2,1.3,4.5C9.1,16.9,9,17.7,9,18.6v1.4
		c0,1.6,0.2,3,0.6,4.2c-0.1,0.4-0.2,0.8-0.3,1.2c-0.2,0.8-0.4,1.6-0.6,2.2c-0.6,1.6-0.9,2.6-0.9,3.9c0,3.7,2.6,6.4,5.6,7.3
		c2.3,2.3,5.2,2.3,6.8,2.3c1.8,0,3.4-0.2,4.7-0.7c1,0.5,2.2,0.7,3.4,0.7c1.7,0,3-0.5,4-1.1c2.1,1,4.4,1,5.5,1c2.4,0,5.9,0,8.3-3
		c0.2,0,0.3,0,0.5,0c1.3,2.1,3.7,3.3,6.6,3.3c2,0,3.7-0.7,4.9-1.7c0.4,0,0.7,0,1.1,0c1.3,0.8,2.7,1.3,4.3,1.3c1,0,1.9-0.2,2.7-0.5
		c1.1,0.5,2.4,0.8,3.8,0.8c4.5,0,6.8-2.8,7.6-3.8c1.2-1.5,2-3.1,2.5-4.8c1.6,2.5,4.4,4.9,9.2,6.1c2.6,0.7,5.4,1,8.2,1
		c1.4,0,3.4,0,5.4-0.8c2.1-0.9,3.6-2.5,4.4-4.5c1.4,2,3.6,3.6,6.5,4.5c3.2,1.1,6.7,1.2,9.4,1.2c6.2,0,9.9-1.1,10.8-1.5
		c3.4-1.1,5.4-3.8,5.7-7.2c0.2,0.1,0.4,0.2,0.6,0.3c0.7,2.5,2.3,4.6,4.5,6.1l0.1,0c2.7,1.7,5.8,2.4,9.9,2.4c3.7,0,6.7-0.6,9.4-1.8
		c1.6-0.7,3-1.7,4.2-2.8c1.5,2.3,4.1,3.9,6.9,3.9c3.4,0,7.8-2.8,11.7-6c0.7,0.7,1.4,1.5,2,2.1l0.1,0.1l0.1,0.1
		c1,1.1,3.1,3.4,6.8,3.4c4.2,0,7.8-3.1,8.6-7.1c0.6,0.1,1.2,0.2,1.8,0.2c0.2,0,0.4,0,0.6,0l2.7-0.2l0,0.1c0.4,5.9,4.6,8,8.4,8
		c3.3,0,5.3-1.4,6.4-2.5c2.3-2.5,2.1-5.5,2.1-6.5l0-0.1l2.3-0.1c0,0,0.1,0,0.1,0c0,0,0,0.1,0,0.1c0,5.1,4.6,8.6,8.8,8.6
		c2.3,0,4.2-0.8,6-2.6c1.6,1.5,3.7,2.4,6.3,2.4c4.4,0,10.9-2.9,14.8-8.6c0.5,0.3,1.1,0.6,1.7,0.8c1,2.8,3.2,5.1,6.1,6.2
		c2.5,1,5,1.4,9.6,1.4c3.5,0,6.3-0.3,8.3-0.9c0.6-0.2,1.2-0.5,1.7-0.8c1.5,1.6,3.6,2.6,5.9,2.6c0.8,0,3.6-0.5,7.4-1.9
		c0.8,0.9,1.8,1.5,3,2c1.8,0.7,3.6,0.7,5.9,0.7c2.4,0,4.6,0,6.8-1c1.1-0.5,2.8-1.6,3.8-3.7c2,2.4,4.8,2.7,6.2,2.7
		c2.5,0,4.6-0.8,6-2.3c2.7,0.9,5.6,1.1,7.7,1.1c2.2,0,6.2-0.2,8.5-1.2c1.1-0.5,2.1-1.2,2.9-2c1,1.7,2.6,3.1,4.6,3.7
		c2,0.6,4.2,0.6,5.9,0.6c4.6,0,8.3-0.6,11.7-1.8c2-0.7,4.1-1.9,5.9-3.5c1.7,5.4,6.4,5.9,7.9,5.9c1.1,0,2.1-0.2,3-0.5
		c1.3,0.8,2.8,1.3,4.5,1.3c1.5,0,4.1-0.4,6.5-1.2c6.3-2.1,8.8-6.3,9.8-10.1c0.9,1.1,2.1,2.1,3.4,2.6c0.7,2.5,2.3,4.6,4.5,6.1l0.1,0
		c2.7,1.7,5.8,2.4,9.9,2.4c3.7,0,6.7-0.6,9.4-1.8c5.6-2.5,8.9-7.7,8.9-13.7C452.2,20.5,450.4,16.6,447.3,14z M39,6.8
		c0.8,0,1.2,0,1.9,1c0.6,1,1.3,2.2,1.3,2.8c0,1.2-1.2,1.7-2.1,1.7c-0.6,0-1.2-0.2-1.6-0.9c-0.3-0.6-1.2-2.4-1.2-2.9
		C37.2,7,39,6.8,39,6.8z M23.8,32.2c0,2.5-0.4,3-3.6,3c-1.7,0-3.2,0-3.1-2.4c-0.2,0.2-0.5,0.5-1.2,0.5c-0.8,0-2.1-0.5-2.1-1.7
		c0-0.3,0-0.5,0.5-1.9c0.4-1,0.6-2,0.8-3c0.3-1.4,0.5-2.2,1.8-2.2c0.4,0,1.9,0.2,1.9,1.5c0,0.4-0.2,2.2-1.1,5.1
		c0.3-0.2,0.5-0.2,1.5-0.2c0.4,0,0.7-0.2,0.7-0.7v-6.3h-1.1c-3.1,0-3.8-0.5-3.8-3.8v-1.4c0-3.1,0.5-3.7,3.8-3.7h5.7
		c3.2,0,3.8,0.6,3.8,3.7v1.4c0,3.1-0.6,3.8-3.8,3.8h-0.7V32.2z M37.7,20.7v8.9c0,0.4,0.1,0.6,0.5,0.6c0.7,0,0.8,0,0.8-1
		c0-0.5,0.1-2.3,0.1-2.4c0.2-0.9,1.1-0.9,1.5-0.9c1.6,0,1.7,1,1.7,2c0,7.1-0.6,7.1-4.5,7.1c-3.2,0-3.9-0.4-3.9-3.7v-3.3
		c-0.8,1.8-2.1,4-3.2,5.4c-1.1,1.3-1.6,1.6-2.4,1.6c-1.3,0-2.5-1.2-2.5-2.4c0-0.7,0.2-0.8,1.4-2.3c-0.9-0.2-1-0.5-1.8-2.4
		c-0.2-0.4-0.8-1.8-0.8-2.2c0-1.5,1.6-1.7,1.9-1.7c0.8,0,1.1,0.4,1.5,0.9c0.3,0.5,0.7,1.2,1.3,2.5c1-1.8,1.8-3.7,2.2-5.8
		c0.3-1.4,0.6-3.6,0.6-4.1v-0.7h-1.8c-0.8,0-2.2-0.1-2.2-2.2c0-0.8,0.2-1.1,0.3-1.4c-0.4,0.1-0.5,0.2-1.1,0.2H16
		c-0.6,0-2.1-0.1-2.1-2c0-1.7,1-2.1,2.1-2.1h3.5V8.4c0-1.1,0.6-1.7,2-1.7s2.3,0.3,2.3,1.7v1.1h3.3c0.7,0,2.1,0.1,2.1,2
		c0,0.3,0,0.8-0.2,1.2c0.3-0.2,0.8-0.2,1.2-0.2H32V8.9c0-0.8,0.2-2.2,2-2.2c1.6,0,2.4,0.5,2.4,2.2v3.7h3.7c0.5,0,2.2,0,2.2,2.1
		c0,1.9-0.9,2.4-2.2,2.4h-3.9v0.7c0,0.2,0,0.7,0,1C37.7,19,37.7,20.1,37.7,20.7z M71.1,7.8c0.9,0,1.2,0.6,1.8,2c0.4,1,1,3.2,1,3.7
		c0,1.5-1.7,1.7-2,1.7c-1.1,0-1.2-0.6-1.6-2.1c-0.1-0.4-0.5-1.7-0.6-2.1c-0.4-1.3-0.5-1.5-0.5-1.8C69.1,8.5,70.1,7.8,71.1,7.8z
		 M72.9,33.8c-0.7,0.9-1.5,1.5-2.9,1.5c-1.5,0-2.4-0.8-3.2-2.5c-2.2,2.1-2.7,2.2-3.3,2.2c-1,0-1.6-0.7-1.9-1.3h-2.2
		c-3.1,0-3.7-0.5-3.7-3.7v-5.5c0-3.1,0.6-3.7,3.7-3.7h1.4c3.1,0,3.7,0.5,3.7,3.7v5c0.5-0.5,0.8-0.7,1.2-1.2
		c-0.4-2.7-0.6-5.6-0.7-8.4H56c-0.7,0-1-0.2-1.1-0.4v13.9c0,0.8-0.1,1.8-1.6,1.8c-1.2,0-1.9-0.3-1.9-1.8v-2.5c-0.9,0.3-3.7,1-4.5,1
		c-1.2,0-1.7-1.3-1.7-2.5c0-1.5,0.8-1.7,1.3-1.8V11.7c-0.6-0.2-1.1-0.8-1.1-2c0-2,1.3-2.1,1.9-2.1h6.6c1.1,0,1.9,0.3,1.9,2.2
		c0.4-0.3,0.8-0.4,1.3-0.4h1.1V8.3c0-0.9,0.6-1.6,1.8-1.6c0.6,0,2,0.1,2,1.6v1.1h1.4c1,0,1.3,0.4,1.5,0.8c0-1.7,0-1.8,0-2.1
		c0.1-1.3,1.6-1.3,1.9-1.3c1.8,0,2,1,2,2c0,2.8,0,3.3,0,7.3h3.1c0.7,0,2.2,0.1,2.2,1.9c0,1.4-0.5,2.1-2.2,2.1h-3
		c0.1,1.7,0.1,2.4,0.2,3.8c0.4-0.8,0.9-2,1.3-2.7c0.3-0.5,0.7-0.6,1.1-0.6c0.8,0,2.1,0.4,2.1,1.5c0,1.2-1.8,4.8-3.6,7.3
		c0.2,0.4,0.5,1,0.8,1c0.3,0,0.5-0.3,0.6-0.8c0.2-0.5,0.4-1,1.2-1c0.4,0,1.9,0.2,1.9,1.8C74.4,31.2,73.9,32.5,72.9,33.8z
		 M101.8,19.8c-0.2,0-0.5,0-0.9-0.6c-0.1-0.2-0.6-1.2-0.7-1.4c-0.1-0.2-0.7-1.3-0.8-1.5s-0.1-0.4-0.1-0.5c0-0.6,0.8-0.9,1.2-0.9
		c0.6,0,0.9,0.5,1.4,1.5c0.4,0.7,1,1.9,1,2.5C103,19.4,102.3,19.8,101.8,19.8z M99.8,20.2c0,0.8-0.8,1-1.2,1c-0.1,0-0.5,0-0.8-0.6
		c-0.1-0.2-0.6-1.2-0.7-1.4c-0.1-0.2-0.6-1.1-0.7-1.3s-0.2-0.5-0.2-0.7c0-0.6,0.8-1,1.2-1c0.5,0,0.8,0.3,1.4,1.4
		C99.1,18.1,99.8,19.6,99.8,20.2z M101.3,13.8c-1.8,0-3.6,0.4-6.3,1.9c-3.1,1.8-6.2,5.1-6.2,8.6c0,3.7,3.1,4.6,8.1,4.6h2.6
		c1.1,0,2.3,0.4,2.3,2.2c0,2.8-2.2,2.8-4.3,2.8c-0.9,0-3.6,0-6.7-0.8c-1.6-0.4-7-1.8-7-8.3c0-3.4,1.5-5.8,3.2-7.7
		c1.5-1.7,2.8-2.5,3.9-3.2C89.4,14,80.8,14.7,80,14.7c-1.6,0-2.3-1.1-2.3-2.5c0-1.3,0.5-2.3,2.2-2.5C81.2,9.5,95.4,9,101.2,9
		c1.6,0,3.4,0,3.4,2.3C104.6,13.7,103,13.8,101.3,13.8z M105.5,25.3c-0.1-0.1-0.2-0.2-0.3-0.3c0.2-0.1,0.3-0.2,0.5-0.3
		C105.6,24.8,105.6,25,105.5,25.3z M134.1,19.5c-1.3,0.3-2.9,0.4-4.3,0.5c1.2,1.9,1.3,2.1,2.2,3.2c0.4,0.5,0.6,1,0.6,1.6
		c0,1.4-1.2,2.4-2.4,2.4c-0.2,0-0.5,0-1.3-0.3c-1.6-0.5-4-1.4-7.9-1.4c-4.3,0-5,1.4-5,2.2c0,2.1,4.2,2.2,6.2,2.2
		c1.6,0,3.8-0.1,7.1-0.9c1.7-0.4,1.8-0.4,2.2-0.4c1.4,0,2,1.2,2,2.3c0,1.6-1.1,2-1.7,2.2c-0.5,0.2-3.4,1.1-8.9,1.1
		c-4.1,0-11.8-0.3-11.8-6.1c0-5.1,5.8-6.1,9.8-6.1c1.6,0,3.2,0.1,4.9,0.5c-0.4-0.6-0.5-0.7-1.3-2.2c-7.1,0.3-7.7,0.3-9.6,0.3
		c-0.8,0-3.7,0-4.3-0.2c-0.5-0.1-1.1-0.6-1.1-1.8c0-1.8,1.3-2,2.1-2c0.7,0,3.7,0.1,4.3,0.1c0.5,0,4,0,6.8-0.2
		c-0.2-0.5-0.6-1.4-0.8-1.9c-4.5,0.1-5,0.2-6.6,0.2c-1.2,0-3.1,0-3.7-0.2c-0.5-0.1-1.1-0.6-1.1-1.9c0-2,1.3-2,2.7-2
		c0.8,0,4.4,0,5.1,0c0.4,0,2-0.1,2.3-0.1c-0.2-0.6-0.2-1-0.2-1.4c0-1.7,2-2,2.7-2c1.7,0,1.8,0.6,2.6,3.2c0.8,0,2.2-0.1,2.4-0.2
		c0.6-0.1,3-0.4,3.5-0.4c0.5,0,2,0,2,2.1c0,1.5-1.1,1.8-2,2c-1,0.2-4.1,0.4-4.7,0.5c0.4,1,0.5,1.3,0.7,1.8c1.9-0.2,3.4-0.3,4.7-0.5
		c1.1-0.2,1.2-0.2,1.6-0.2c1.8,0,1.8,1.7,1.8,2C135.8,18.7,135.2,19.3,134.1,19.5z M161.5,33.2c-2.2,1-4.6,1.3-7,1.3
		c-3.7,0-5.5-0.8-6.7-1.5c-1.3-0.8-2.1-2.3-2.1-3.8c0-3.7,3.2-5.4,6.6-5.4c1.9,0,6.1,0.5,6.1,5.1c0,0.4-0.1,0.7-0.2,1.1
		c3.2-0.9,3.6-3.6,3.6-4.6c0-1.2-0.5-3.2-2.6-4.1c-1.2-0.5-2.6-0.5-3.4-0.5c-2.4,0-5.8,0.5-9.5,4c-2,1.8-2.2,2-2.9,2
		c-1.2,0-2.5-1.1-2.5-2.5c0-1,0.4-1.3,2.5-2.9c3.9-2.8,6.8-5,10-7.6c0.4-0.3,0.6-0.5,1-0.9c-1.3,0-7.8,0.5-8.5,0.5
		c-0.7,0-2.4-0.1-2.4-2.3c0-2.1,1.6-2.2,2.6-2.3c7.8-0.1,8.5-0.1,12.2-0.3c0.3,0,1,0,1.6,0c0.9,0,2.8,0,2.8,2.1
		c0,1.6-0.4,1.8-3.8,3.9c-1.8,1.1-3.2,2.1-3.9,2.7c0.7-0.2,1.6-0.4,2.8-0.4c1.5,0,3.2,0.3,4.8,1c2.9,1.3,4.3,4.3,4.3,7.3
		C166.9,27.3,166,31.2,161.5,33.2z M168,14c0-0.1,0.1-0.2,0.1-0.2c0.1,0.2,0.1,0.3,0.2,0.5C168.2,14.2,168.1,14.1,168,14z M171.2,18
		c1.4,0.9,3,1.4,4.9,1.4h1.5c-1.3,1.3-2.9,2.6-4.9,3.7C172.6,21.3,172,19.6,171.2,18z M195.8,33.5c-1.1,0-1.6-0.7-2.5-1.6
		c-2.1-2.4-5.3-5.4-6.6-6.5c-5.1,5.4-10,8.2-11.6,8.2c-1.2,0-2.3-1.3-2.3-2.6c0-1.1,0.5-1.3,2.4-2.4c9.6-5.2,13.2-14.1,13.2-14.8
		c0-0.4-0.4-0.4-0.7-0.4h-11.6c-0.7,0-2.4-0.1-2.4-2.3c0-1.6,0.9-2.3,2.4-2.3h14.6c1.3,0,3.5,0.1,3.5,2.8c0,1.9-1.9,6.4-4.7,10.4
		c2.4,1.7,4.4,3.3,7.2,5.9c1.3,1.2,1.8,1.8,1.8,2.9C198.6,32.3,197.2,33.5,195.8,33.5z M198.5,21.4c-0.3-0.3-0.7-0.6-1-0.9
		c0.6-1.1,1.1-2.3,1.6-3.5c0.2,0.7,0.4,1.4,0.7,2C199.2,19.8,198.8,20.6,198.5,21.4z M228.4,25.3l-8.3,0.5l0.4,6.2
		c0.1,1,0.1,2.6-2.5,2.6c-2.3,0-2.4-1.4-2.5-2.4l-0.4-6.1l-8.7,0.5c-1.9,0.1-2.5-1.1-2.5-2.3c0-1.5,1-2.1,2.2-2.2l8.6-0.5l-0.3-4.6
		l-7.2,0.5c-2.1,0.2-2.5-1.3-2.5-2.3c0-1.5,0.9-2.1,2.2-2.2l7.2-0.4l-0.1-2.3c-0.1-1.2,0.1-2.6,2.5-2.6c1.4,0,2.4,0.2,2.5,2.2
		l0.2,2.3l7.2-0.5c2.2-0.2,2.5,1.4,2.5,2.2c0,1.5-0.9,2.1-2.2,2.2l-7.1,0.5l0.3,4.6l8.3-0.5c2.1-0.1,2.5,1.3,2.5,2.3
		C230.7,24.6,229.7,25.2,228.4,25.3z M243.9,17.1c0,6.5-0.3,10.8-3.4,14.9c-1.6,2-2.3,2-2.8,2c-1.2,0-2.8-1-2.8-2.6
		c0-0.5,0.1-1,0.9-1.9c2.8-3.3,3.3-4.7,3.3-12.6v-6.3c0-1,0.3-2.2,2.4-2.2c1.6,0,2.5,0.6,2.5,2.2V17.1z M260.1,27.4
		c-3,4.5-7.9,6.3-10.1,6.3c-2.8,0-2.8-2.2-2.8-2.9V10.2c0-1.2,0.5-2.2,2.4-2.2c1.5,0,2.4,0.5,2.4,2.2v17c0,0.4,0,0.7,0.3,0.7
		c1.2,0,4.1-2.4,5.5-6.6c0.5-1.5,0.8-2.3,2.2-2.3c0.5,0,2.7,0.3,2.7,2.1C262.6,22.5,261.3,25.6,260.1,27.4z M289.3,21.8
		c-3.1,0.7-3.1,0.7-4.4,1.1c0.1,1.1,0.1,2.2,0.1,2.8c0,1.3,0,2.9-2.1,2.9c-2.1,0-2.1-1.5-2.2-2c0-0.6,0-1.6,0-2.2
		c-2.4,1.1-4.1,2-4.1,3.6c0,1.3,1.8,1.6,4.7,1.6c2,0,3.9-0.3,5.8-0.5c0.5-0.1,0.9-0.1,1.1-0.1c1.5,0,1.9,1,1.9,2
		c0,1.5-1,1.8-1.3,1.9c-2.1,0.6-5.7,0.6-6.5,0.6c-4.2,0-5.9-0.3-7.4-0.9c-1.7-0.7-2.9-2.1-2.9-4c0-4.2,4.8-6.7,8-8.2
		c-0.4-0.4-1-0.6-1.6-0.6c-3.1,0-5.4,2.9-6.1,3.8c-0.3,0.3-1.3,1.7-1.5,1.9c-0.4,0.4-0.9,0.8-1.7,0.8c-1.3,0-2.1-1.1-2.1-2.2
		c0-0.9,0.5-1.4,2-3.1c1.4-1.6,2.3-2.7,4.3-5.8c-0.5,0-2.7,0-3.2,0c-0.6,0-2.3,0-2.3-2c0-2,1.6-2,2.2-2c3.3,0,3.6,0,5.3-0.1
		c0.2-0.5,0.5-1.4,0.8-1.9c0.2-0.4,0.6-1,2-1c1,0,2.3,0.4,2.3,1.7c0,0.4-0.2,1-0.3,1.2c2.8-0.1,7.8-0.3,8.5-0.3c1,0,2.2,0.4,2.2,2
		c0,1.7-1.3,1.9-1.7,2c-0.7,0.1-8.3,0.3-11.2,0.4c-0.8,1.2-0.8,1.3-1.3,2.1c1.7-1,3.2-1,3.6-1c0.6,0,1.6,0.1,2.5,0.6
		c1,0.6,1.5,1.5,1.7,1.8c1.7-0.6,4.5-1.5,5.5-1.5c1.9,0,2,1.9,2,2.3C291.6,21.3,290.4,21.5,289.3,21.8z M321.9,20.9
		c-0.8,0.8-1.5,1.6-1.8,1.9v8.8c0,3.7-2.1,3.7-5.7,3.7c-3.5,0-5.1,0-5.1-2.4c0-2.1,1.7-2.1,2.5-2.1c0.4,0,2.1,0,2.5,0
		c0.8,0,1.2,0,1.2-1.1v-3c-8,6-17.3,7.8-17.5,7.8c-1.5,0-2.2-1.5-2.2-2.5c0-1.5,1.1-1.8,2.2-2c3.8-0.9,6.9-1.6,11.1-4
		c-1.5,0.2-10.7,1-11.8,1c-1.1,0-1.9-0.5-1.9-2.1c0-0.6,0.1-1.4,0.8-1.8c0.4-0.3,0.5-0.3,3-0.3v-10c0-2.8,1.3-3.6,3.6-3.6h3.7
		c0.5-1.9,0.7-2.5,2.7-2.5c0.4,0,2.5,0,2.5,1.3c0,0.3-0.1,0.7-0.3,1.2h5.1c2.2,0,3.6,0.8,3.6,3.6v4c0.5-0.6,0.9-1.1,1.7-1.1
		c1.2,0,2.3,1.1,2.3,2.2C324.2,18.5,323.9,18.9,321.9,20.9z M338.2,10.9c0.6-0.1,4-0.3,8.5-0.3c0.9,0,3.1,0,3.7,0.2
		c0.9,0.2,1.3,1,1.3,2c0,2-1.3,2.2-2.4,2.2c-0.4,0-2.4,0-2.9,0c-1.2,0-4.5,0.1-6.9,0.2c-0.1,0-0.6,0.1-0.8,0.1
		c-1.3,0-2.2-0.6-2.2-2.2C336.4,11.2,337.7,11,338.2,10.9z M333.6,13.3c-0.1,1.2-0.6,5.1-0.6,9.6c0,0.9,0,3.2,0.2,5.1
		c0.1,0.4,0.3,2.8,0.3,3.1c0,0.8-0.2,2.1-2.4,2.1c-1.6,0-2-0.9-2.2-2.1c-0.1-0.6-0.4-3.3-0.4-7.2c0-6.9,0.7-12.4,1-13.5
		c0.4-1.5,1.3-1.5,2.4-1.5c0.5,0,2.1,0.2,2.1,1.8C334,11,333.7,12.9,333.6,13.3z M351.1,31.3c-1.3,0.6-5.2,0.7-6.2,0.7
		c-4.6,0-9.3-0.8-9.3-5.6c0,0,0-4.7,3.1-4.7c1.1,0,2.5,0.6,2.5,1.8c0,0.5-0.1,0.7-0.6,1.6c-0.3,0.6-0.4,0.9-0.4,1.2
		c0,1.1,1.2,1.5,4,1.5c1.3,0,2.7-0.2,3.5-0.3c0.4-0.1,2.2-0.3,2.5-0.3c1.4,0,2,0.9,2,2.1C352.3,30.6,351.8,31,351.1,31.3z M350.3,21
		c-0.6,0-1.2,0.1-3.1,0.4l-0.2,0l0,0c0-0.1-0.1-0.3-0.1-0.4c0.3,0,0.6,0,0.9,0c0.6,0,1.3,0,1.5,0c1.2,0,2.3-0.2,3.3-0.6
		c0.5,0.6,1,1.1,1.6,1.5C353,21.4,351.7,21,350.3,21z M357.2,24.9c-0.6-1-1.3-1.8-2.2-2.4c1.2,0.6,2.5,1,3.9,1h0
		C358.3,23.8,357.7,24.3,357.2,24.9z M376.5,31.7c-3.1,1.1-6.4,1.4-9.7,1.4c-1.4,0-3,0-4.1-0.4c-1-0.3-1.4-1.2-1.4-2.2
		s0.2-2.5,2.4-2.5c0.3,0,1.4,0.1,1.8,0.1c0.8,0.1,1.5,0.1,2.2,0.1c3.8,0,11.1-0.4,11.1-7.6c0-4.5-3-6.2-6.5-6.2c-3.4,0-7,1-9,1.6
		c-3.4,1.1-3.7,1.2-4.3,1.2c-1.9,0-2.3-1.9-2.3-2.7c0-1.8,1-2.2,2.7-2.7c6.6-1.9,11.4-2,12.9-2c1.6,0,5.9,0,8.9,3.1
		c1.9,2,2.7,4.8,2.7,7.6C383.8,28.6,378.2,31.1,376.5,31.7z M364.3,22.2c0.2-0.1,0.4-0.1,0.6-0.2l0.2-0.1c1-0.3,4.3-1.3,7.1-1.3
		c0.2,0,0.3,0,0.5,0l0,0.2c0,0.6-0.1,0.8-0.1,0.8c-0.1,0.1-0.9,0.8-5,0.8c-0.5,0-1.1,0-1.7-0.1C365.1,22.2,364.6,22.2,364.3,22.2z
		 M394.6,30c0.1,0.9,0.1,1.5,0.1,1.7c0,1.9-1.8,2-2.4,2c-1.5,0-2-0.7-2.3-2c-0.3-1.4-0.6-5-0.6-9c0-6.4,0.7-12.2,1-13.3
		c0.4-1.5,1.3-1.5,2.6-1.5c1.3,0,1.9,0.8,1.9,2c0,0.5-0.4,3-0.4,3.5c-0.2,1.6-0.5,5.3-0.5,8.8C394,25,394.2,27.7,394.6,30z
		 M414.4,18.2c-0.5,0.2-1.4,0.2-3.8,0.3c0.1,2.7,0.1,3.1,0.1,4.2c0,3.9-0.1,8.9-6.4,11c-1.9,0.6-3.9,0.8-4.6,0.8
		c-1.7,0-2.3-1.3-2.3-2.5c0-1.3,0.6-1.8,1.8-2c2.4-0.3,3.7-0.5,5-1.7c1.3-1.1,1.6-3,1.6-6.2c0-1.2-0.1-2.4-0.1-3.5
		c-1.4,0-5,0.1-6.3,0.1c-1.8,0-3.4,0-3.4-2.2c0-2.2,1.4-2.3,3.2-2.3c3.6,0,4,0,6.3-0.1c0-0.5-0.1-3.8-0.1-4c0-1.2,0.2-2.5,2.4-2.5
		c1.7,0,2.4,0.6,2.5,2.2c0,0.6,0.1,3.4,0.1,4c0.5,0,2.5-0.1,2.8-0.1c0.8,0,2.3,0.2,2.3,2.2C415.7,16.4,415.7,17.9,414.4,18.2z
		 M440.8,33.2c-2.2,1-4.6,1.3-7,1.3c-3.7,0-5.5-0.8-6.7-1.5c-1.3-0.8-2.1-2.3-2.1-3.8c0-3.7,3.2-5.4,6.6-5.4c1.9,0,6.1,0.5,6.1,5.1
		c0,0.4-0.1,0.7-0.2,1.1c3.2-0.9,3.6-3.6,3.6-4.6c0-1.2-0.5-3.2-2.6-4.1c-1.2-0.5-2.6-0.5-3.4-0.5c-2.4,0-5.8,0.5-9.5,4
		c-2,1.8-2.2,2-2.9,2c-1.2,0-2.5-1.1-2.5-2.5c0-1,0.4-1.3,2.5-2.9c3.9-2.8,6.8-5,10-7.6c0.4-0.3,0.6-0.5,1-0.9
		c-1.3,0-7.8,0.5-8.5,0.5c-0.7,0-2.4-0.1-2.4-2.3c0-2.1,1.6-2.2,2.5-2.3c7.8-0.1,8.5-0.1,12.2-0.3c0.3,0,1,0,1.6,0
		c0.9,0,2.8,0,2.8,2.1c0,1.6-0.4,1.8-3.8,3.9c-1.8,1.1-3.2,2.1-3.9,2.7c0.7-0.2,1.6-0.4,2.8-0.4c1.5,0,3.2,0.3,4.8,1
		c2.9,1.3,4.3,4.3,4.3,7.3C446.2,27.3,445.3,31.2,440.8,33.2z"/>
	<path class="st1" d="M431.7,27.4c-1.4,0-2.4,0.6-2.4,1.6c0,1,1.3,1.7,3.4,1.7c0.5,0,0.8-0.1,1.3-0.2c0.2-0.6,0.2-0.9,0.2-1
		C434.1,27.9,432.9,27.4,431.7,27.4z"/>
	<path class="st2" d="M36.2,17.1h3.9c1.3,0,2.2-0.5,2.2-2.4c0-2.1-1.7-2.1-2.2-2.1h-3.7V8.9c0-1.7-0.8-2.2-2.4-2.2
		c-1.9,0-2,1.4-2,2.2v3.7h-1.8c-0.4,0-0.9,0-1.2,0.2c0.2-0.5,0.2-0.9,0.2-1.2c0-2-1.4-2-2.1-2h-3.3V8.4c0-1.4-1-1.7-2.3-1.7
		s-2,0.6-2,1.7v1.1H16c-1.1,0-2.1,0.4-2.1,2.1c0,2,1.4,2,2.1,2h11.2c0.6,0,0.8-0.1,1.1-0.2c-0.1,0.3-0.3,0.6-0.3,1.4
		c0,2.2,1.5,2.2,2.2,2.2H32v0.7c0,0.5-0.2,2.7-0.6,4.1c-0.5,2-1.2,4-2.2,5.8c-0.6-1.3-1-2.1-1.3-2.5c-0.4-0.5-0.7-0.9-1.5-0.9
		c-0.4,0-1.9,0.2-1.9,1.7c0,0.3,0.7,1.8,0.8,2.2c0.7,1.9,0.9,2.2,1.8,2.4c-1.3,1.4-1.4,1.6-1.4,2.3c0,1.1,1.2,2.4,2.5,2.4
		c0.8,0,1.4-0.4,2.4-1.6c1.1-1.4,2.4-3.6,3.2-5.4v3.3c0,3.3,0.7,3.7,3.9,3.7c3.9,0,4.5,0,4.5-7.1c0-1-0.1-2-1.7-2
		c-0.4,0-1.3,0.1-1.5,0.9c0,0.1-0.1,1.9-0.1,2.4c0,1-0.1,1-0.8,1c-0.4,0-0.5-0.2-0.5-0.6v-8.9c0-0.6,0-1.6-1.5-1.9c0-0.4,0-0.9,0-1
		V17.1z"/>
	<path class="st2" d="M28.3,20.1v-1.4c0-3.1-0.6-3.7-3.8-3.7h-5.7c-3.2,0-3.8,0.7-3.8,3.7v1.4c0,3.2,0.7,3.8,3.8,3.8h1.1v6.3
		c0,0.5-0.3,0.7-0.7,0.7c-1,0-1.1,0-1.5,0.2c0.9-2.9,1.1-4.7,1.1-5.1c0-1.3-1.5-1.5-1.9-1.5c-1.3,0-1.5,0.8-1.8,2.2
		c-0.2,0.9-0.5,2-0.8,3c-0.5,1.4-0.5,1.6-0.5,1.9c0,1.2,1.3,1.7,2.1,1.7c0.8,0,1-0.3,1.2-0.5c0,2.4,1.5,2.4,3.1,2.4
		c3.3,0,3.6-0.5,3.6-3v-8.3h0.7C27.7,23.8,28.3,23.2,28.3,20.1z M24.1,19.8c0,0.2-0.1,0.6-0.6,0.6h-3.5c-0.4,0-0.6-0.3-0.6-0.6v-1
		c0-0.4,0.2-0.6,0.6-0.6h3.5c0.4,0,0.6,0.2,0.6,0.6V19.8z"/>
	<path class="st2" d="M40,12.4c0.9,0,2.1-0.5,2.1-1.7c0-0.7-0.6-1.9-1.3-2.8c-0.6-1-1-1-1.9-1c0,0-1.7,0.2-1.7,1.7
		c0,0.5,0.9,2.3,1.2,2.9C38.9,12.2,39.4,12.4,40,12.4z"/>
	<path class="st2" d="M70.2,13.2c0.4,1.5,0.5,2.1,1.6,2.1c0.3,0,2-0.2,2-1.7c0-0.5-0.6-2.6-1-3.7c-0.5-1.5-0.8-2-1.8-2
		c-1,0-2,0.7-2,1.5c0,0.3,0,0.4,0.5,1.8C69.7,11.5,70.1,12.8,70.2,13.2z"/>
	<path class="st2" d="M72.6,28.5c-0.8,0-1,0.6-1.2,1c-0.2,0.4-0.3,0.8-0.6,0.8c-0.3,0-0.6-0.5-0.8-1c1.8-2.5,3.6-6.1,3.6-7.3
		c0-1-1.3-1.5-2.1-1.5c-0.4,0-0.8,0.1-1.1,0.6c-0.5,0.7-0.9,2-1.3,2.7C69,22.4,69,21.7,68.9,20h3c1.6,0,2.2-0.7,2.2-2.1
		c0-1.8-1.4-1.9-2.2-1.9h-3.1c0-4,0-4.5,0-7.3c0-1-0.2-2-2-2c-0.3,0-1.7,0-1.9,1.3c0,0.3,0,0.5,0,2.1c-0.2-0.4-0.5-0.8-1.5-0.8H62
		V8.3c0-1.6-1.4-1.6-2-1.6c-1.2,0-1.8,0.7-1.8,1.6v1.1h-1.1c-0.5,0-1,0.1-1.3,0.4c0-1.9-0.8-2.2-1.9-2.2h-6.6
		c-0.6,0-1.9,0.1-1.9,2.1c0,1.2,0.5,1.8,1.1,2v16.2c-0.6,0.1-1.3,0.3-1.3,1.8c0,1.1,0.5,2.5,1.7,2.5c0.8,0,3.6-0.8,4.5-1v2.5
		c0,1.5,0.7,1.8,1.9,1.8c1.5,0,1.6-1.1,1.6-1.8V19.6C55,19.8,55.3,20,56,20h9.1c0.1,2.8,0.2,5.7,0.7,8.4c-0.4,0.5-0.7,0.7-1.2,1.2
		v-5c0-3.2-0.6-3.7-3.7-3.7h-1.4c-3.1,0-3.7,0.6-3.7,3.7v5.5c0,3.2,0.6,3.7,3.7,3.7h2.2c0.3,0.6,0.9,1.3,1.9,1.3
		c0.6,0,1.1-0.1,3.3-2.2c0.8,1.8,1.7,2.5,3.2,2.5c1.4,0,2.2-0.6,2.9-1.5c1-1.3,1.5-2.6,1.5-3.5C74.4,28.7,73,28.5,72.6,28.5z
		 M51.3,27.1c-0.8,0.2-0.8,0.2-1.4,0.3v-2.9h1.4V27.1z M51.3,20.6h-1.4V18h1.4V20.6z M51.3,14.3h-1.4v-2.5h1.4V14.3z M56,16.1
		c-0.7,0-1,0.2-1.1,0.4v-4.8c0.2-0.1,0.2-0.1,0.4-0.2c0,0.5,0.1,1.7,1.1,1.8c0.2,1.3,0.3,1.7,0.4,2.9H56z M60.5,16.1h-1.1
		c0-0.3,0-0.5-0.2-2.8h1.6C60.8,13.9,60.7,15.5,60.5,16.1z M63.4,16.1c0.2-1.3,0.2-1.4,0.4-2.8c0.4,0,0.8-0.1,1.1-0.8l0.1,3.5H63.4z
		 M61.2,29.8c0,0.4-0.2,0.6-0.6,0.6h-1c-0.4,0-0.6-0.2-0.6-0.6v-1.2h2.2V29.8z M61.2,25.7h-2.2v-1.1c0-0.4,0.2-0.6,0.6-0.6h1
		c0.4,0,0.6,0.2,0.6,0.6V25.7z"/>
	<path class="st2" d="M101.2,9c-5.8,0-20.1,0.5-21.3,0.7c-1.7,0.2-2.2,1.2-2.2,2.5c0,1.4,0.7,2.5,2.3,2.5c0.8,0,9.4-0.7,10.9-0.8
		c-1.1,0.7-2.4,1.5-3.9,3.2c-1.7,1.9-3.2,4.3-3.2,7.7c0,6.5,5.4,7.9,7,8.3c3,0.8,5.8,0.8,6.7,0.8c2.2,0,4.3,0,4.3-2.8
		c0-1.8-1.2-2.2-2.3-2.2h-2.6c-5,0-8.1-0.8-8.1-4.6c0-3.5,3.1-6.8,6.2-8.6c2.7-1.5,4.5-1.9,6.3-1.9c1.7,0,3.3-0.1,3.3-2.5
		C104.6,9,102.9,9,101.2,9z"/>
	<path class="st2" d="M97.4,16.2c-0.4,0-1.2,0.4-1.2,1c0,0.2,0.1,0.5,0.2,0.7s0.6,1.1,0.7,1.3c0.1,0.2,0.5,1.2,0.7,1.4
		c0.3,0.6,0.7,0.6,0.8,0.6c0.4,0,1.2-0.2,1.2-1c0-0.6-0.8-2.1-1-2.5C98.2,16.6,97.9,16.2,97.4,16.2z"/>
	<path class="st2" d="M100.5,14.8c-0.4,0-1.2,0.3-1.2,0.9c0,0.1,0,0.3,0.1,0.5s0.6,1.2,0.8,1.5c0.1,0.2,0.5,1.2,0.7,1.4
		c0.3,0.6,0.7,0.6,0.9,0.6c0.5,0,1.2-0.3,1.2-1c0-0.6-0.6-1.8-1-2.5C101.4,15.3,101.1,14.8,100.5,14.8z"/>
	<path class="st2" d="M134,15.6c-0.3,0-0.5,0-1.6,0.2c-1.3,0.2-2.7,0.3-4.7,0.5c-0.2-0.5-0.3-0.8-0.7-1.8c0.6,0,3.6-0.3,4.7-0.5
		c0.9-0.2,2-0.5,2-2c0-2.1-1.5-2.1-2-2.1c-0.5,0-2.9,0.3-3.5,0.4c-0.2,0-1.6,0.1-2.4,0.2c-0.8-2.6-1-3.2-2.6-3.2
		c-0.7,0-2.7,0.3-2.7,2c0,0.5,0.1,0.8,0.2,1.4c-0.3,0-1.9,0.1-2.3,0.1c-0.7,0-4.3,0-5.1,0c-1.4,0-2.7,0-2.7,2c0,1.2,0.6,1.7,1.1,1.9
		c0.6,0.2,2.5,0.2,3.7,0.2c1.6,0,2.1,0,6.6-0.2c0.2,0.4,0.5,1.4,0.8,1.9c-2.8,0.2-6.3,0.2-6.8,0.2c-0.6,0-3.6-0.1-4.3-0.1
		c-0.9,0-2.1,0.2-2.1,2c0,1.3,0.7,1.7,1.1,1.8c0.7,0.2,3.5,0.2,4.3,0.2c1.9,0,2.5,0,9.6-0.3c0.7,1.4,0.9,1.6,1.3,2.2
		c-1.7-0.4-3.3-0.5-4.9-0.5c-4,0-9.8,1-9.8,6.1c0,5.8,7.7,6.1,11.8,6.1c5.5,0,8.4-1,8.9-1.1c0.6-0.2,1.7-0.6,1.7-2.2
		c0-1.1-0.6-2.3-2-2.3c-0.4,0-0.5,0-2.2,0.4c-3.3,0.8-5.5,0.9-7.1,0.9c-2,0-6.2-0.1-6.2-2.2c0-0.7,0.6-2.2,5-2.2
		c3.9,0,6.3,0.8,7.9,1.4c0.8,0.3,1.1,0.3,1.3,0.3c1.3,0,2.4-1,2.4-2.4c0-0.6-0.2-1.1-0.6-1.6c-0.9-1-1-1.3-2.2-3.2
		c1.4-0.1,3-0.2,4.3-0.5c1-0.2,1.7-0.8,1.7-2C135.8,17.3,135.8,15.6,134,15.6z"/>
	<path class="st2" d="M162.6,17.6c-1.6-0.7-3.3-1-4.8-1c-1.2,0-2.1,0.2-2.8,0.4c0.8-0.6,2.1-1.6,3.9-2.7c3.4-2.1,3.8-2.3,3.8-3.9
		c0-2.1-1.9-2.1-2.8-2.1c-0.6,0-1.3,0-1.6,0c-3.8,0.2-4.4,0.2-12.2,0.3c-1,0-2.6,0.1-2.6,2.3c0,2.2,1.7,2.3,2.4,2.3
		c0.7,0,7.1-0.5,8.5-0.5c-0.4,0.4-0.7,0.6-1,0.9c-3.2,2.5-6.1,4.7-10,7.6c-2.1,1.6-2.5,1.8-2.5,2.9c0,1.5,1.3,2.5,2.5,2.5
		c0.8,0,1-0.1,2.9-2c3.8-3.4,7.1-4,9.5-4c0.8,0,2.2,0,3.4,0.5c2.2,0.9,2.6,2.9,2.6,4.1c0,0.9-0.3,3.7-3.6,4.6
		c0.1-0.4,0.2-0.7,0.2-1.1c0-4.6-4.2-5.1-6.1-5.1c-3.4,0-6.6,1.7-6.6,5.4c0,1.6,0.8,3,2.1,3.8c1.3,0.8,3,1.5,6.7,1.5
		c2.4,0,4.8-0.3,7-1.3c4.5-2,5.3-5.9,5.3-8.3C166.9,21.9,165.5,18.9,162.6,17.6z M154.6,30.5c-0.5,0.1-0.8,0.2-1.3,0.2
		c-2.1,0-3.4-0.7-3.4-1.7c0-1,1.1-1.6,2.4-1.6c1.2,0,2.4,0.5,2.4,2.1C154.8,29.6,154.8,29.9,154.6,30.5z"/>
	<path class="st2" d="M196.8,27.9c-2.8-2.5-4.8-4.1-7.2-5.9c2.8-4,4.7-8.4,4.7-10.4c0-2.6-2.2-2.8-3.5-2.8h-14.6
		c-1.5,0-2.4,0.8-2.4,2.3c0,2.2,1.7,2.3,2.4,2.3h11.6c0.3,0,0.7,0,0.7,0.4c0,0.8-3.6,9.6-13.2,14.8c-2,1.1-2.4,1.3-2.4,2.4
		c0,1.4,1.1,2.6,2.3,2.6c1.6,0,6.5-2.8,11.6-8.2c1.3,1.1,4.5,4,6.6,6.5c0.8,0.9,1.4,1.6,2.5,1.6c1.4,0,2.8-1.2,2.8-2.7
		C198.6,29.7,198.1,29.1,196.8,27.9z"/>
	<path class="st2" d="M228.2,20.8l-8.3,0.5l-0.3-4.6l7.1-0.5c1.3-0.1,2.2-0.8,2.2-2.2c0-0.8-0.3-2.4-2.5-2.2l-7.2,0.5l-0.2-2.3
		c-0.1-2-1.1-2.2-2.5-2.2c-2.3,0-2.6,1.3-2.5,2.6l0.1,2.3l-7.2,0.4c-1.3,0.1-2.2,0.8-2.2,2.2c0,0.9,0.4,2.4,2.5,2.3l7.2-0.5l0.3,4.6
		l-8.6,0.5c-1.3,0.1-2.2,0.7-2.2,2.2c0,1.2,0.5,2.4,2.5,2.3l8.7-0.5l0.4,6.1c0.1,1,0.2,2.4,2.5,2.4c2.7,0,2.6-1.7,2.5-2.6l-0.4-6.2
		l8.3-0.5c1.2-0.1,2.2-0.7,2.2-2.2C230.7,22.1,230.3,20.6,228.2,20.8z"/>
	<path class="st2" d="M241.5,8.4c-2,0-2.4,1.1-2.4,2.2v6.3c0,7.9-0.5,9.4-3.3,12.6c-0.8,0.9-0.9,1.4-0.9,1.9c0,1.6,1.6,2.6,2.8,2.6
		c0.5,0,1.2,0,2.8-2c3.1-4,3.4-8.4,3.4-14.9v-6.5C243.9,9,243.1,8.4,241.5,8.4z"/>
	<path class="st2" d="M260,18.9c-1.4,0-1.7,0.8-2.2,2.3c-1.4,4.3-4.3,6.6-5.5,6.6c-0.3,0-0.3-0.3-0.3-0.7v-17c0-1.6-0.9-2.2-2.4-2.2
		c-1.9,0-2.4,1-2.4,2.2v20.6c0,0.7,0,2.9,2.8,2.9c2.2,0,7.1-1.8,10.1-6.3c1.2-1.8,2.5-4.9,2.5-6.3C262.6,19.2,260.5,18.9,260,18.9z"
		/>
	<path class="st2" d="M289.6,17.3c-1.1,0-3.9,0.9-5.5,1.5c-0.2-0.3-0.6-1.2-1.7-1.8c-0.9-0.5-1.9-0.6-2.5-0.6c-0.4,0-1.8,0-3.6,1
		c0.5-0.8,0.5-0.9,1.3-2.1c3-0.1,10.6-0.3,11.2-0.4c0.4-0.1,1.7-0.3,1.7-2c0-1.6-1.1-2-2.2-2c-0.6,0-5.6,0.2-8.5,0.3
		c0.1-0.2,0.3-0.7,0.3-1.2c0-1.3-1.3-1.7-2.3-1.7c-1.5,0-1.8,0.6-2,1c-0.3,0.5-0.5,1.4-0.8,1.9c-1.7,0-2,0-5.3,0.1
		c-0.6,0-2.2,0-2.2,2c0,2,1.7,2,2.3,2c0.4,0,2.7,0,3.2,0c-2,3.1-2.9,4.3-4.3,5.8c-1.5,1.7-2,2.2-2,3.1c0,1,0.9,2.2,2.1,2.2
		c0.8,0,1.4-0.4,1.7-0.8c0.2-0.3,1.2-1.6,1.5-1.9c0.7-0.9,3-3.8,6.1-3.8c0.6,0,1.1,0.2,1.6,0.6c-3.3,1.5-8,4-8,8.2
		c0,1.9,1.2,3.3,2.9,4c1.5,0.6,3.2,0.9,7.4,0.9c0.8,0,4.4,0,6.5-0.6c0.4-0.1,1.3-0.4,1.3-1.9c0-1-0.4-2-1.9-2c-0.2,0-0.6,0-1.1,0.1
		c-1.9,0.3-3.9,0.5-5.8,0.5c-2.9,0-4.7-0.3-4.7-1.6c0-1.6,1.7-2.6,4.1-3.6c0,0.6,0,1.6,0,2.2c0,0.4,0.1,2,2.2,2
		c2.1,0,2.1-1.6,2.1-2.9c0-0.6-0.1-1.7-0.1-2.8c1.3-0.4,1.4-0.4,4.4-1.1c1.1-0.2,2.3-0.5,2.3-2.2C291.6,19.2,291.5,17.3,289.6,17.3z
		"/>
	<path class="st2" d="M321.8,15.5c-0.8,0-1.2,0.5-1.7,1.1v-4c0-2.8-1.3-3.6-3.6-3.6h-5.1c0.2-0.5,0.3-0.8,0.3-1.2
		c0-1.3-2.1-1.3-2.5-1.3c-1.9,0-2.1,0.6-2.7,2.5h-3.7c-2.2,0-3.6,0.8-3.6,3.6v10c-2.4,0.1-2.6,0.1-3,0.3c-0.6,0.4-0.8,1.2-0.8,1.8
		c0,1.6,0.8,2.1,1.9,2.1c1.1,0,10.3-0.8,11.8-1c-4.2,2.4-7.3,3.2-11.1,4c-1,0.2-2.2,0.5-2.2,2c0,1.1,0.7,2.5,2.2,2.5
		c0.2,0,9.5-1.8,17.5-7.8v3c0,1.1-0.4,1.1-1.2,1.1c-0.4,0-2.2,0-2.5,0c-0.8,0-2.5,0-2.5,2.1c0,2.4,1.6,2.4,5.1,2.4
		c3.7,0,5.7,0,5.7-3.7v-8.8c0.3-0.3,1-1,1.8-1.9c2-2,2.2-2.5,2.2-3.2C324.2,16.6,323.1,15.5,321.8,15.5z M315.6,21.4
		c-0.3,0.3-0.5,0.5-0.8,0.7c-3.4,0.3-7.8,0.4-10.9,0.5V21h11.7V21.4z M315.6,18.1h-11.7v-1.3h11.7V18.1z M315.6,14h-11.7v-0.8
		c0-0.3,0.2-0.5,0.5-0.5H315c0.4,0,0.6,0.2,0.6,0.5V14z"/>
	<path class="st2" d="M338.7,15.2c0.2,0,0.8-0.1,0.8-0.1c2.4-0.1,5.7-0.2,6.9-0.2c0.4,0,2.4,0,2.9,0c1.1,0,2.4-0.2,2.4-2.2
		c0-1-0.4-1.8-1.3-2c-0.6-0.2-2.8-0.2-3.7-0.2c-4.5,0-7.9,0.2-8.5,0.3c-0.5,0.1-1.7,0.3-1.7,2.1C336.4,14.6,337.3,15.2,338.7,15.2z"
		/>
	<path class="st2" d="M331.9,8.8c-1.1,0-2,0-2.4,1.5c-0.3,1.1-1,6.6-1,13.5c0,3.9,0.3,6.6,0.4,7.2c0.3,1.2,0.6,2.1,2.2,2.1
		c2.1,0,2.4-1.3,2.4-2.1c0-0.2-0.3-2.7-0.3-3.1c-0.2-1.9-0.2-4.2-0.2-5.1c0-4.5,0.4-8.4,0.6-9.6c0.1-0.4,0.4-2.3,0.4-2.7
		C334,9,332.4,8.8,331.9,8.8z"/>
	<path class="st2" d="M350.3,27c-0.4,0-2.1,0.3-2.5,0.3c-0.8,0.1-2.2,0.3-3.5,0.3c-2.8,0-4-0.4-4-1.5c0-0.3,0.1-0.6,0.4-1.2
		c0.5-0.9,0.6-1.1,0.6-1.6c0-1.2-1.4-1.8-2.5-1.8c-3.1,0-3.1,4.7-3.1,4.7c0,4.8,4.7,5.6,9.3,5.6c1,0,4.9-0.1,6.2-0.7
		c0.7-0.3,1.2-0.7,1.2-2.2C352.3,27.9,351.7,27,350.3,27z"/>
	<path class="st2" d="M372.2,10c-1.6,0-6.4,0.1-12.9,2c-1.7,0.5-2.7,0.9-2.7,2.7c0,0.8,0.4,2.7,2.3,2.7c0.6,0,1-0.1,4.3-1.2
		c2-0.7,5.6-1.6,9-1.6c3.5,0,6.5,1.7,6.5,6.2c0,7.2-7.3,7.6-11.1,7.6c-0.7,0-1.4,0-2.2-0.1c-0.4,0-1.4-0.1-1.8-0.1
		c-2.2,0-2.4,1.5-2.4,2.5s0.5,1.9,1.4,2.2c1.1,0.4,2.8,0.4,4.1,0.4c3.3,0,6.6-0.3,9.7-1.4c1.7-0.6,7.3-3.2,7.3-11
		c0-2.8-0.8-5.6-2.7-7.6C378.2,10,373.8,10,372.2,10z"/>
	<path class="st2" d="M413.4,13.9c-0.4,0-2.4,0.1-2.8,0.1c0-0.6-0.1-3.4-0.1-4c-0.1-1.6-0.8-2.2-2.5-2.2c-2.2,0-2.4,1.3-2.4,2.5
		c0,0.2,0.1,3.5,0.1,4c-2.4,0.1-2.8,0.1-6.3,0.1c-1.8,0-3.2,0-3.2,2.3c0,2.2,1.5,2.2,3.4,2.2c1.3,0,4.9-0.1,6.3-0.1
		c0,1.1,0.1,2.3,0.1,3.5c0,3.2-0.2,5.1-1.6,6.2c-1.4,1.2-2.6,1.4-5,1.7c-1.2,0.2-1.8,0.7-1.8,2c0,1.2,0.7,2.5,2.3,2.5
		c0.7,0,2.7-0.2,4.6-0.8c6.3-2.1,6.4-7.1,6.4-11c0-1,0-1.5-0.1-4.2c2.3-0.1,3.2-0.1,3.8-0.3c1.3-0.4,1.3-1.8,1.3-2.1
		C415.7,14,414.2,13.9,413.4,13.9z"/>
	<path class="st2" d="M395,9.9c0-1.2-0.7-2-1.9-2c-1.4,0-2.2,0-2.6,1.5c-0.3,1.1-1,6.9-1,13.3c0,4,0.3,7.7,0.6,9
		c0.3,1.3,0.8,2,2.3,2c0.6,0,2.4-0.1,2.4-2c0-0.2,0-0.8-0.1-1.7c-0.3-2.4-0.5-5-0.5-7.9c0-3.5,0.4-7.2,0.5-8.8
		C394.6,12.8,395,10.4,395,9.9z"/>
	<path class="st2" d="M441.9,17.6c-1.6-0.7-3.3-1-4.8-1c-1.2,0-2.1,0.2-2.8,0.4c0.8-0.6,2.1-1.6,3.9-2.7c3.4-2.1,3.8-2.3,3.8-3.9
		c0-2.1-1.9-2.1-2.8-2.1c-0.6,0-1.3,0-1.6,0c-3.8,0.2-4.4,0.2-12.2,0.3c-1,0-2.5,0.1-2.5,2.3c0,2.2,1.7,2.3,2.4,2.3
		c0.7,0,7.1-0.5,8.5-0.5c-0.4,0.4-0.7,0.6-1,0.9c-3.2,2.5-6.1,4.7-10,7.6c-2.1,1.6-2.5,1.8-2.5,2.9c0,1.5,1.3,2.5,2.5,2.5
		c0.8,0,1-0.1,2.9-2c3.8-3.4,7.1-4,9.5-4c0.8,0,2.2,0,3.4,0.5c2.2,0.9,2.6,2.9,2.6,4.1c0,0.9-0.3,3.7-3.6,4.6
		c0.1-0.4,0.2-0.7,0.2-1.1c0-4.6-4.2-5.1-6.1-5.1c-3.4,0-6.6,1.7-6.6,5.4c0,1.6,0.8,3,2.1,3.8c1.3,0.8,3,1.5,6.7,1.5
		c2.4,0,4.8-0.3,7-1.3c4.5-2,5.3-5.9,5.3-8.3C446.2,21.9,444.8,18.9,441.9,17.6z M433.9,30.5c-0.5,0.1-0.8,0.2-1.3,0.2
		c-2.1,0-3.4-0.7-3.4-1.7c0-1,1.1-1.6,2.4-1.6c1.2,0,2.4,0.5,2.4,2.1C434.1,29.6,434.1,29.9,433.9,30.5z"/>
</g>
</svg>
