<svg id="materials" xmlns="http://www.w3.org/2000/svg" viewBox="0 0 460 39.07"><defs><style>.cls-1{fill:#fff;}.cls-2{fill:#474747;}</style></defs><title>about-title</title><path class="cls-1" d="M85.33,36.11a4.65,4.65,0,0,1-4.47-3.37A8.24,8.24,0,0,1,78,33.5c-2.9,0-4.46-2.76-4.46-5.36s1.32-3.39,3.18-4v-1.9a4.11,4.11,0,0,1-2.55-4.06c0-2.16.92-3.67,2.55-4.32v-.33a4.11,4.11,0,0,1-3-4.3c0-3,1.63-4.78,4.48-4.78h5.71a5,5,0,0,1,2.21.45A6.36,6.36,0,0,1,90.18,3.7h9.45c5,0,6,3.26,6,6V20a7.74,7.74,0,0,1-.44,2.76,4.85,4.85,0,0,1,1.34,3.81c0,.79,0,4.8-1,6.63-1.27,2.54-3.59,2.54-6.29,2.54-2.47,0-4,0-5.29-.73a3.91,3.91,0,0,1-1.8-2l-.19.19A10.31,10.31,0,0,1,85.33,36.11Z"/><path class="cls-2" d="M99.63,5.7c2.52,0,4,.87,4,4V20c0,.81,0,3.06-2.07,3.75l.52,0c2.22,0,2.45,1.31,2.45,2.84s-.15,4.53-.75,5.73-1.68,1.44-4.5,1.44c-2.49,0-3.51,0-4.32-.48-1.2-.66-1.2-2-1.2-3.78V24H93.3c-.06,4.17-1.23,6.33-2.7,7.74a8.32,8.32,0,0,1-5.27,2.37c-2.2,0-2.79-2.25-2.79-3.21A2.07,2.07,0,0,1,83,29.64c-1.12.51-4,1.86-5,1.86-1.62,0-2.46-1.77-2.46-3.36s.6-1.8,3.18-2.55v-5a2.23,2.23,0,0,1-2.55-2.39c0-2.25,1.23-2.67,2.55-2.67V11.7h-.49a2.21,2.21,0,0,1-2.48-2.49c0-2,.86-2.78,2.48-2.78h5.71a2.09,2.09,0,0,1,2.39,1.82c.54-2.39,2.55-2.55,3.87-2.55h9.45m-8.16,5.46h6.81v-.5a.32.32,0,0,0-.33-.34H91.77a.3.3,0,0,0-.3.34v.5M83.85,23.67a2.8,2.8,0,0,1,1.2-.33c2,0,2,2.43,2,2.76A2.22,2.22,0,0,1,86.29,28c1.38-.84,1.92-1.5,2.06-4.17-2.16-.69-2.16-2.94-2.16-3.78V10.36a2.12,2.12,0,0,1-2.34,1.34v3.79C85.54,15.49,86,16.8,86,18a2.23,2.23,0,0,1-2.19,2.52v3.12m7.62-8.13h6.81V14.7H91.47v.84m.3,4.35H98a.3.3,0,0,0,.33-.33v-.51H91.47v.51c0,.3.21.33.3.33m9.09,4a8.48,8.48,0,0,1-1.23.09h-.75v3.66c0,.69,0,.84.51.84.3,0,.42-.15.42-.39V26c0-.93.09-1.71,1-2.07M99.63,1.7H90.18a9.52,9.52,0,0,0-4.27,1,7.59,7.59,0,0,0-2-.24H78.21c-3.94,0-6.48,2.66-6.48,6.78a6.49,6.49,0,0,0,1.72,4.64,7.05,7.05,0,0,0-1.3,4.31A6.25,6.25,0,0,0,74.22,23a5.39,5.39,0,0,0-2.7,5.1c0,4.2,2.77,7.36,6.46,7.36a6.74,6.74,0,0,0,1.88-.29,6.45,6.45,0,0,0,5.47,2.9,12,12,0,0,0,6.48-2.2,6,6,0,0,0,1.22.87c1.75,1,3.54,1,6.24,1s6.26,0,8.08-3.65c1.06-2.12,1.17-6,1.17-7.52a7.56,7.56,0,0,0-1.12-4.3,11.06,11.06,0,0,0,.22-2.27V9.7C107.62,4.69,104.64,1.7,99.63,1.7Z"/><path class="cls-1" d="M130.5,36a6.17,6.17,0,0,1-4.33-1.27A5.19,5.19,0,0,1,123,36a4.06,4.06,0,0,1-3.62-2.3,6.5,6.5,0,0,1-2.8.92,4.08,4.08,0,0,1-3.84-3.32,8.79,8.79,0,0,1-3.42.89c-3.12,0-4.54-2.73-4.54-5.27a4,4,0,0,1,2.61-3.89v-3.9a4.47,4.47,0,0,1-2.28-4.24,4.6,4.6,0,0,1,2.28-4.32V7.78a4.79,4.79,0,0,1,8.78-2.61c1-.85,2.49-1.22,4.58-1.22h9.69c4.47,0,6.2,1.69,6.2,6v2.17a8.57,8.57,0,0,1-.53,3.33A3.72,3.72,0,0,1,138,18.93a4,4,0,0,1-1.37,3.1,5.36,5.36,0,0,1,.71,2.78,34.51,34.51,0,0,1-.83,7.31C135.35,35.72,132.91,36,130.5,36Z"/><path class="cls-2" d="M112,5a2.41,2.41,0,0,1,2.69,2.76v4.34c.75,0,1.86.58,1.86,2.46,0,1.29-.15,3.06-1.86,3.06V23.1a2.13,2.13,0,0,1,.91.27,7.26,7.26,0,0,1,1.74-1.14A6.08,6.08,0,0,0,119,20.91h-1.45a2,2,0,1,1,0-4h16.23a2,2,0,1,1,0,4H123.67c-.19.36-.25.45-.4.72h8.52c2,0,3.54,1,3.54,3.18a33.18,33.18,0,0,1-.75,6.72c-.69,2.16-1.71,2.49-4.08,2.49-2.19,0-3.45-.42-3.45-2.22a4,4,0,0,1,.12-.87A17.53,17.53,0,0,1,125,33.09,3.38,3.38,0,0,1,123,34a2.2,2.2,0,0,1-2.09-2.22c0-.9.41-1.23,2.36-2.73a12.2,12.2,0,0,0,3-3.81h-.9a17,17,0,0,1-5.28,5.64c-.84.6-2.67,1.74-3.51,1.74a2.2,2.2,0,0,1-2-2.28c0-1.14.78-1.5,1.6-1.89a16.22,16.22,0,0,0,4.61-3.21H120a5.4,5.4,0,0,1-2.94,1.41,1.78,1.78,0,0,1-.48-.09c-.41.9-1.08,1.23-2.58,1.92-.24.12-1.32.66-1.53.75-2.24.93-2.76,1-3.18,1-2.54,0-2.54-3.12-2.54-3.27,0-1.68,1.17-2,2.61-2.49V17.64c-.84,0-2.28-.51-2.28-2.73,0-1.43.63-2.79,2.28-2.79V7.78A2.42,2.42,0,0,1,112,5m16,24.77a1.59,1.59,0,0,1,.75-.21c.12,0,.6.09.69.09a.66.66,0,0,0,.72-.45,12.51,12.51,0,0,0,.51-3.57c0-.39-.12-.39-.42-.39A13.83,13.83,0,0,1,128,29.79M130.41,6c3.45,0,4.2.9,4.2,4v2.17c0,3.17-.75,4.08-4.2,4.08h-9.69c-3.47,0-4.2-.91-4.2-4.08V10c0-3.14.73-4,4.2-4h9.69m-8.66,3.92h7.61V9.36A.34.34,0,0,0,129,9h-7a.32.32,0,0,0-.32.33v.51m.32,3.4h7a.32.32,0,0,0,.33-.33v-.52h-7.61v.52a.31.31,0,0,0,.32.33M112,1a6.35,6.35,0,0,0-6.67,6.76V9.56a6.9,6.9,0,0,0-2.28,5.35,6.64,6.64,0,0,0,2.28,5.3v1.68a5.75,5.75,0,0,0-2.61,5.05c0,4.22,2.75,7.27,6.54,7.27a7.62,7.62,0,0,0,2.31-.37,5.87,5.87,0,0,0,5,2.8,6.27,6.27,0,0,0,2.13-.42A6,6,0,0,0,123,38a6.45,6.45,0,0,0,3.19-.87,9.59,9.59,0,0,0,4.34.87c2,0,6.21,0,7.9-5.27a36.8,36.8,0,0,0,.93-7.94,7.45,7.45,0,0,0-.37-2.4,6.06,6.06,0,0,0,1-3.48,5.87,5.87,0,0,0-1.61-4.18,12.93,12.93,0,0,0,.23-2.59V10c0-5.49-2.6-8-8.2-8h-9.69a11.21,11.21,0,0,0-4.13.66A6.76,6.76,0,0,0,112,1Z"/><path class="cls-1" d="M153.11,33.83a4.38,4.38,0,0,1-4.37-3,7.57,7.57,0,0,1-3.47.81c-4.83,0-8.08-4.23-8.08-10.52,0-10.64,8.14-15.49,15.69-15.49,8.78,0,14.24,5.32,14.24,13.9,0,4.6-1.64,8.46-4.61,10.85A16.37,16.37,0,0,1,153.11,33.83Zm3.4-17.95a45.13,45.13,0,0,1-2.39,8.31c1.93-.46,3.37-1.46,3.37-4.9A5.28,5.28,0,0,0,156.51,15.88Z"/><path class="cls-2" d="M152.88,7.67c7.45,0,12.24,4.34,12.24,11.9,0,3.53-1.12,7.08-3.87,9.29a14.38,14.38,0,0,1-8.14,3,2.61,2.61,0,0,1-2.69-2.8c0-2.18,1.4-2.41,2.94-2.66,2.3-.36,6.13-1.2,6.13-7.08,0-3.08-1.29-5.85-4.51-6.41-.44,3.44-1.9,9.91-4.08,13.24-1.52,2.3-3.25,3.56-5.63,3.56-4.34,0-6.08-4.29-6.08-8.52,0-9.57,7.25-13.49,13.69-13.49m-3.25,5.4c-3.61,1.4-5.2,4.29-5.2,8.15,0,1.82.61,2.63,1.15,2.63.95,0,1.7-2,2.12-3.11a40.89,40.89,0,0,0,1.93-7.67m3.25-9.4a18.49,18.49,0,0,0-11.82,4.08c-2.67,2.23-5.87,6.36-5.87,13.41,0,7.49,4.05,12.52,10.08,12.52a9.82,9.82,0,0,0,2.56-.33,6.39,6.39,0,0,0,5.28,2.48A18.23,18.23,0,0,0,163.78,32c3.44-2.76,5.34-7.17,5.34-12.39C169.12,9.91,162.75,3.67,152.88,3.67Z"/><path class="cls-1" d="M186,36a4.33,4.33,0,0,1-3.48-1.54,7.65,7.65,0,0,1-2.57.49,3.58,3.58,0,0,1-3.41-2l-3.14,1.13a11.4,11.4,0,0,1-3.47.83c-2.72,0-4.34-2.64-4.34-5.21a4,4,0,0,1,1.68-3.44V10c0-2.74,1-6,6-6h5.36a6,6,0,0,1,4.58,1.62,5.93,5.93,0,0,1,4.25-1.38h4.76c4.86,0,5.87,3.2,5.87,5.89V26.43c0,2.73,0,6.11-5.48,6.11-.67,0-1.32,0-1.93,0C190.25,34.78,188.63,36,186,36Z"/><path class="cls-2" d="M178.59,6c2.56,0,4,.92,4,4v7.68c0,3.09-1.47,4-4,4h-4.07v4.74c.27-.09,1.56-.39,1.8-.45a6.57,6.57,0,0,1-.45-1.8c0-1.32,1.55-2.1,3-2.1s2,1,2.58,2.61,1.71,4.65,1.71,5.94a1.94,1.94,0,0,1-.84,1.77,5.39,5.39,0,0,1-2.4.63c-1.44,0-1.77-.93-2.22-2.55-1.38.51-3.6,1.29-5,1.8a10.34,10.34,0,0,1-2.79.72c-1.71,0-2.34-2.07-2.34-3.21a2.07,2.07,0,0,1,1.68-2.19V10c0-3.18,1.53-4,4-4h5.36m-4.07,6.17h2.64v-.63a.32.32,0,0,0-.33-.33h-2a.31.31,0,0,0-.3.33v.63m0,4.68h2.31a.32.32,0,0,0,.33-.33v-.63h-2.64v1M192.18,6.19c2.46,0,3.87.89,3.87,3.89V26.43c0,2.82,0,4.11-3.48,4.11-2.19,0-3.15,0-3.84-1.26v2c0,2-.9,2.7-2.76,2.7a2.32,2.32,0,0,1-2.43-2.7V10.08c0-3,1.38-3.89,3.88-3.89h4.76m-3.45,19.28a1.49,1.49,0,0,1,1.56-.81c.36,0,.39-.15.39-.63V12.36a.49.49,0,0,0-.54-.5h-.87a.49.49,0,0,0-.54.5V25.47M178.59,2h-5.36c-5,0-8,3-8,8V25.39a6.11,6.11,0,0,0-1.68,4.34c0,3.55,2.37,7.21,6.34,7.21A12.82,12.82,0,0,0,174,36l1.77-.64A5.45,5.45,0,0,0,179.92,37a9.15,9.15,0,0,0,2-.24A6.66,6.66,0,0,0,186,38c2.95,0,5.1-1.27,6.12-3.48h.48c7.48,0,7.48-5.68,7.48-8.11V10.08c0-4.94-2.94-7.89-7.87-7.89h-4.76a9,9,0,0,0-4.17.91A9,9,0,0,0,178.59,2Z"/><path class="cls-1" d="M208.6,36.17c-3.37,0-4.56-1.72-4.88-3.54h-1.48c-4.36,0-4.7-3.43-4.7-4.49a4.24,4.24,0,0,1,1.8-3.76,7.17,7.17,0,0,1-.78-3.5v-6a7.25,7.25,0,0,1,.68-3.29,8.29,8.29,0,0,1-.76-1.67l-.31-.79A5.41,5.41,0,0,1,197.66,7c0-2.64,2.4-4,4.79-4a4.07,4.07,0,0,1,2.39.72A5.13,5.13,0,0,1,208,2.9a4.32,4.32,0,0,1,3.22,1.19A4.09,4.09,0,0,1,214,3.2a5.87,5.87,0,0,1,2.82.71,4.83,4.83,0,0,1,3-.8,5.54,5.54,0,0,1,2.9.67,5.21,5.21,0,0,1,2.41-.62c2.25,0,3.39,1.85,3.87,2.64a8.65,8.65,0,0,1,1.49,4.07,3.63,3.63,0,0,1-.57,1.94,5.72,5.72,0,0,1,.69,2.89,5,5,0,0,1-.84,3.07,4.23,4.23,0,0,1,.42,1.91,10.81,10.81,0,0,1-1.78,4.62A4.15,4.15,0,0,1,231,28.14c0,3.1-1.86,8-6.86,8a5.87,5.87,0,0,1-4.71-1.8,5.15,5.15,0,0,1-2.81.9,4.82,4.82,0,0,1-3.76-1.88A4.13,4.13,0,0,1,208.6,36.17Z"/><path class="cls-2" d="M208,4.9c1.78,0,2,.9,2.2,1.32a14.48,14.48,0,0,1,.33,2.46c0,1.43-.57,2.06-2.32,2.24h2a29.5,29.5,0,0,0,1.21-3.2C212,6,212.25,5.2,214,5.2c1.26,0,3.07.71,3.07,2.28,0,.63-.12,1.38-2,4.26a2.73,2.73,0,0,1,.84,1.29,2.33,2.33,0,0,1,1.41-.49c0-1.38,0-2.18,0-3.68,0-2.46,0-3.75,2.54-3.75,1.38,0,2.46.33,2.67,1.67a2.91,2.91,0,0,1,2.64-1.62c1,0,1.59.75,2.16,1.69a7.11,7.11,0,0,1,1.2,3,2.38,2.38,0,0,1-1.79,2c1.73.15,1.91,2,1.91,2.82,0,1.75-.54,2.5-2.22,2.55l-.78,0a2.55,2.55,0,0,1,2.58,2.4c0,1.8-3.27,6.3-3.9,7.11,0,0,.21.33.36.33s.21-.06.48-.42a1.63,1.63,0,0,1,1.47-.75A2.26,2.26,0,0,1,229,28.14c0,2-1.17,6-4.86,6a4,4,0,0,1-4.22-2.7c-1.68,1.47-2.53,1.8-3.3,1.8a3.09,3.09,0,0,1-2.88-2.61h-2.58v.81c0,1.2-.33,2.73-2.52,2.73-2,0-3-.6-3-2.73v-.81h-3.39c-1.2,0-2.7-.27-2.7-2.49,0-1.77.9-2.52,2.7-2.52h3.39V24.9h-1.08c-2.49,0-4-.87-4-4v-6c0-.84,0-2.91,1.95-3.68-1.5,0-1.65-.63-2.25-2.23a5.63,5.63,0,0,1-.6-2c0-1.71,2.1-2,2.79-2a2.12,2.12,0,0,1,2.07,1.43,8.17,8.17,0,0,1,.81,2.74c0,.47-.09,1.17-1.5,1.76a7,7,0,0,1,.72,0h2.76a1.56,1.56,0,0,1-1.5-1.19,23.18,23.18,0,0,1-.39-2.88c0-1.2.57-1.95,2.54-1.95m14.58,7.26L225,12c-.63-.24-.69-.42-1.44-2-.11-.26-.9-1.59-1.05-1.89,0,.46.06,4,.06,4.09m-12,4.1h1.11v-.65a.33.33,0,0,0-.33-.33h-.78v1m-5.4,0h1.11v-1h-.78a.32.32,0,0,0-.33.33v.65m19.67,1.11-2.1.16c.06.53.13,1.43.15,2.13.81-1.63,1.11-2,1.95-2.29m-13.73,8.25H214a2.63,2.63,0,0,1,2.43,1.08,19.8,19.8,0,0,0,1.74-1.35c-.24-1.41-.37-2.67-.43-3.21s-.27-3.57-.32-4.23h-.18a1.81,1.81,0,0,1-1.2-.34v3.3c0,3.27-1.65,4-4,4h-1v.72m-.54-4.83h.78a.33.33,0,0,0,.33-.33V19.8h-1.11v1m-5.07,0h.78v-1h-1.11v.66a.32.32,0,0,0,.33.33M208,.9a8,8,0,0,0-3.12.57A6.24,6.24,0,0,0,202.45,1c-3.3,0-6.79,2.1-6.79,6a7.12,7.12,0,0,0,.65,2.85l.21.54.08.23c.12.31.26.69.45,1.09a9.81,9.81,0,0,0-.49,3.17v6a10.07,10.07,0,0,0,.4,2.95,6.58,6.58,0,0,0-1.42,4.31c0,3,1.75,6.49,6.7,6.49h0c1,2.27,3.23,3.54,6.35,3.54a6.42,6.42,0,0,0,4.68-1.81,6.59,6.59,0,0,0,5.81.38,8.2,8.2,0,0,0,5,1.4c5.55,0,8.86-5.08,8.86-10a6,6,0,0,0-2-4.5,9.64,9.64,0,0,0,1.14-4A6.36,6.36,0,0,0,231.9,18a7.88,7.88,0,0,0,.64-3.27,8.28,8.28,0,0,0-.47-2.86,5.63,5.63,0,0,0,.35-2,10.25,10.25,0,0,0-1.78-5.11c-.55-.89-2.2-3.6-5.58-3.6a7,7,0,0,0-2.36.43,8.35,8.35,0,0,0-2.95-.48,7.71,7.71,0,0,0-3.07.57A7.83,7.83,0,0,0,214,1.2a6.77,6.77,0,0,0-2.67.49A6.83,6.83,0,0,0,208,.9Z"/><path class="cls-1" d="M235.06,36c-3.16,0-5.51-3.11-5.51-5.9,0-2.46,1.33-3.32,4-5a9.82,9.82,0,0,0,4.78-7h-3.9c-3.05,0-4.73-1.72-4.73-4.84,0-3.28,1.59-5,4.73-5h4.54a8,8,0,0,1,.21-2.08c.25-.92,1.22-3.07,4.88-3.07,3.45,0,5.21,1.68,5.21,5a1.36,1.36,0,0,1,0,.15h5.11c4.69,0,6.68,2.06,6.68,6.87,0,2.48-.33,12.35-1.41,15.75a6.53,6.53,0,0,1-4.52,4.46,22.38,22.38,0,0,1-4.74.32,15.63,15.63,0,0,1-4.72-.39,4.54,4.54,0,0,1-2.8-4.11C240.56,33.71,237.51,36,235.06,36Zm12.29-10.21,1.48,0,1.13,0h.09c.07-.41.14-1,.18-1.29.34-3.16.46-5.22.49-6.5H248.6a25.41,25.41,0,0,1-2.22,7.79A5.72,5.72,0,0,1,247.35,25.78Z"/><path class="cls-2" d="M244,5.14c2.93,0,3.21,1.4,3.21,3,0,.06,0,1-.07,2.15h7.17c3.51,0,4.68,1.06,4.68,4.87,0,2.9-.39,12.2-1.32,15.14a4.65,4.65,0,0,1-3.09,3.12,21.76,21.76,0,0,1-4.26.27,19.55,19.55,0,0,1-4-.27c-1.22-.42-1.5-2-1.5-2.76a3,3,0,0,1,1.06-2.46,2.57,2.57,0,0,1,1.49-.42c.43,0,2.25.09,2.61.09,1.77,0,1.92-.3,2.25-3.06.16-1.38.51-4.83.51-7.38,0-1.05-.05-1.35-1-1.35h-4.89a23.51,23.51,0,0,1-4.32,12.36c-2.22,3-5.49,5.55-7.44,5.55s-3.51-2.19-3.51-3.9c0-1.38.57-1.74,3.09-3.36,4.53-2.91,5.55-6.45,6-10.65H234.4c-1.68,0-2.73-.54-2.73-2.84,0-2,.48-3,2.73-3h6.51a15.85,15.85,0,0,1,.17-3.56c.37-1.36,1.87-1.59,2.95-1.59m0-4c-5.19,0-6.52,3.48-6.81,4.55-.05.21-.1.4-.13.6H234.4c-2,0-6.73.68-6.73,7,0,4.22,2.57,6.84,6.73,6.84h1.2a8.1,8.1,0,0,1-3.13,3.29c-2.76,1.78-4.92,3.17-4.92,6.72,0,3.74,3.08,7.9,7.51,7.9,2.33,0,4.79-1.37,6.92-3.18a5.9,5.9,0,0,0,3,2.39,17.22,17.22,0,0,0,5.37.49,23.2,23.2,0,0,0,5.24-.39,8.47,8.47,0,0,0,5.91-5.74l0,0C262.75,27.63,263,17,263,15.16c0-6-2.83-8.87-8.68-8.87h-3.27C250.19,1.68,246,1.14,244,1.14Z"/><path class="cls-1" d="M267.73,34.85a4.44,4.44,0,0,1-4.07-2.15c-.84-1.43-1.26-4.8-1.26-10a92.93,92.93,0,0,1,1.07-14.84c.85-3.51,3.68-3.51,5-3.51a4.64,4.64,0,0,1,4.43,2.74,4.83,4.83,0,0,1,1.88-.59,80.54,80.54,0,0,1,9.35-.37c3.1,0,4.15,0,5.3.64A4.65,4.65,0,0,1,291.68,11c0,1.45-.5,4.84-5.18,4.84l-2.94,0c-2.21,0-4.52.06-6.77.24h-.37l-.71,0a5.2,5.2,0,0,1-3.18-.94c-.11,1.31-.19,2.63-.23,3.9A5.11,5.11,0,0,1,276,17.56c2.54,0,5.23,1.53,5.23,4.34a4.66,4.66,0,0,1-.43,2h.72a30.2,30.2,0,0,0,4.48-.45,11.32,11.32,0,0,1,1.78-.21,4.45,4.45,0,0,1,4.67,4.73,4.62,4.62,0,0,1-2.66,4.61c-1.82.84-5.75,1-7.94,1-4.55,0-7.39-1-9.14-2.39C272.26,33.42,270.4,34.85,267.73,34.85Z"/><path class="cls-2" d="M268.51,6.33c.84,0,2.73.43,2.73,2.37,0,.46-.3,2.43-.36,2.83a90.06,90.06,0,0,0-.63,10.28c0,.6,0,2.88.18,4.56.06.51.36,3.39.36,3.66,0,1.92-1.21,2.82-3.06,2.82a2.4,2.4,0,0,1-2.34-1.17c-.9-1.53-1-7-1-9a92.24,92.24,0,0,1,1-14.36c.48-2,1.77-2,3.09-2m15.66,1.78c2.75,0,3.62,0,4.31.38a2.75,2.75,0,0,1,1.2,2.5c0,2.75-2.1,2.84-3.18,2.84l-2.94,0c-2.31,0-4.61.06-6.93.24l-.92,0c-2.52,0-2.92-1.67-2.92-2.84,0-2.44,1.71-2.7,2.25-2.77a82.15,82.15,0,0,1,9.13-.35M276,19.56c1.31,0,3.23.66,3.23,2.34a2.68,2.68,0,0,1-.38,1.35,3,3,0,0,0-.72,1.53c0,.57.35,1.08,3.39,1.08a32.37,32.37,0,0,0,4.82-.48,11.63,11.63,0,0,1,1.44-.18,2.48,2.48,0,0,1,2.67,2.73c0,2-1,2.55-1.55,2.82-1.57.72-6.21.75-7.05.75-5,0-9.84-1.2-9.84-6.24,0-1.77.84-5.7,4-5.7M268.51,2.33c-3.82,0-6.17,1.7-7,5a94.32,94.32,0,0,0-1.13,15.31c0,8.41,1.08,10.25,1.54,11a6.41,6.41,0,0,0,5.79,3.14A6.91,6.91,0,0,0,273.61,34a19.61,19.61,0,0,0,8.22,1.49c4.18,0,7.11-.37,8.72-1.11l.12-.06a6.74,6.74,0,0,0,3.76-6.4,6.48,6.48,0,0,0-6.67-6.73,12.46,12.46,0,0,0-2.05.23h-.07c-.55.1-1.48.24-2.43.33a5.92,5.92,0,0,0-1.6-3.94l2,0,1.35,0h1.56c3.32,0,7.18-1.79,7.18-6.84a6.6,6.6,0,0,0-3.24-6c-1.59-.89-3-.89-6.27-.89a86.51,86.51,0,0,0-9.64.39,6,6,0,0,0-.76.13A7.05,7.05,0,0,0,268.51,2.33Z"/><path class="cls-1" d="M309.75,35.18c-5.48,0-8.23-2.66-9.18-5.63a4.55,4.55,0,0,1-2.33.59c-2.48,0-5.15-1.79-5.15-4.7,0-1.27.3-1.82,2-4.87l.15-.26a27.47,27.47,0,0,0,1.37-3,4.26,4.26,0,0,1-1-.37,4.65,4.65,0,0,1-2.27-4.26,4.35,4.35,0,0,1,3.87-4.62,20.25,20.25,0,0,1,2-.09,8,8,0,0,1,.28-1.11A4.28,4.28,0,0,1,303.79,4c2.82,0,4.78,1.5,5,3.79.17,0,.34.06.5.09a5,5,0,0,1,4.37-2.57c2.13,0,6.37,2.84,8,4.14a5.07,5.07,0,0,1,2.27,4.1,5,5,0,0,1-4.85,5q-.3,0-.6,0l.12,2.64a21.61,21.61,0,0,1,3.21,2.46,4.85,4.85,0,0,1,1.67,3.64,5,5,0,0,1-4.84,5.09A4.16,4.16,0,0,1,317,32C315.86,33.67,313.72,35.18,309.75,35.18Zm-3.07-17.94q-.31,1-.63,1.86a11.89,11.89,0,0,1,3-.55l-.09-1.21a2.44,2.44,0,0,1,0-.27A18.42,18.42,0,0,1,306.68,17.24Z"/><path class="cls-2" d="M303.79,6c.75,0,3.09.18,3.09,2.34a6.87,6.87,0,0,1-.15,1.43l1.14-.05a2.47,2.47,0,0,1,2.79,2.75A2.35,2.35,0,0,1,309.09,15c-.66.19-.87.22-3.89.33a61,61,0,0,1-4.45,11.1,2.65,2.65,0,0,1-2.51,1.74c-1.38,0-3.15-1-3.15-2.7,0-.78.18-1.08,1.89-4.17a35.66,35.66,0,0,0,2.43-5.82l-1.14,0a3.76,3.76,0,0,1-1.77-.28,2.78,2.78,0,0,1-1.2-2.49,2.35,2.35,0,0,1,2.19-2.64c.18,0,3.05-.1,3.39-.12.06-.37.36-2,.48-2.37A2.31,2.31,0,0,1,303.79,6m9.92,1.31c1.12,0,4.56,2,6.72,3.7A3.09,3.09,0,0,1,322,13.53a3,3,0,0,1-2.85,3,3.23,3.23,0,0,1-2.19-1,22.13,22.13,0,0,0-4.65-3.25,2.44,2.44,0,0,1-1.52-2.18,2.94,2.94,0,0,1,3-2.77m0,7.36c1.47,0,2.64.59,2.73,2.3l.24,5.34A19.32,19.32,0,0,1,320.46,25a2.87,2.87,0,0,1,1.05,2.19,3,3,0,0,1-2.84,3.09c-1,0-1.29-.3-2.46-1.53-.63,3.15-3,4.41-6.46,4.41-5.27,0-7.58-2.91-7.58-6.24s2.61-6.42,7.76-6.42c.52,0,.87,0,1.24.06l-.25-3.38c-.05-.94.28-2.55,2.79-2.55m-4.43,13.61c1.47,0,2.13-.48,2-2.61a3.51,3.51,0,0,0-1.65-.3c-.51,0-2.73.06-2.73,1.47s1.56,1.44,2.34,1.44M303.79,2A6.27,6.27,0,0,0,297.65,6a7.1,7.1,0,0,0-.83.07,6.29,6.29,0,0,0-5.52,6.59A6.78,6.78,0,0,0,294,18.33c-.16.34-.33.68-.51,1l-.15.26c-1.77,3.2-2.24,4-2.24,5.84,0,4.14,3.71,6.7,7.15,6.7a8,8,0,0,0,1.25-.1c1.68,2.94,5,5.14,10.26,5.14,4,0,6.46-1.32,8-2.93a8.65,8.65,0,0,0,.92,0,7,7,0,0,0,6.84-7.09,6.82,6.82,0,0,0-2.34-5.13,21.57,21.57,0,0,0-2.25-1.83,7.07,7.07,0,0,0,5-6.72,7.16,7.16,0,0,0-3.06-5.69c-.53-.42-5.89-4.55-9.19-4.55a7.14,7.14,0,0,0-4,1.31A7.14,7.14,0,0,0,303.79,2Z"/><path class="cls-1" d="M335.23,35.24a4.52,4.52,0,0,1-4.78-3.57,9.08,9.08,0,0,1-.09-1.79,4.53,4.53,0,0,1-1.37.2,5.08,5.08,0,0,1-5-4.91,4.89,4.89,0,0,1,1.51-3.5l.32-.34c1-1.1,2-2.12,2.91-3.22a4.51,4.51,0,0,1-4.14-4.75c0-2.17,1.26-4.54,4.83-4.73l1.25-.06a6.22,6.22,0,0,1,.23-1.48c.33-1.18,1.38-3.14,4.68-3.14,2.54,0,4.28,1.25,4.79,3.36a10.17,10.17,0,0,1,4.42-1c3.65,0,7.92,2,7.92,7.75,0,1.51-.17,2.2-1.09,6.07l-.26,1.09c-.12.53-.39,1.71-.54,2.61a3.8,3.8,0,0,1,1.06-.13c2.54,0,4.24,1.86,4.24,4.61,0,1.36-.52,5.78-7.31,5.78-4.89,0-7.93-3.12-7.93-8.15a24.07,24.07,0,0,1,.49-4.6c0-.23.13-.66.25-1.19.15-.74.46-2.2.7-3.39a12.51,12.51,0,0,0-2.25,2c0,1.11,0,7.54,0,7.68s0,1,0,1.68,0,1.55,0,1.83C340.11,34.56,337.05,35.24,335.23,35.24Z"/><path class="cls-2" d="M335.58,6c2.5,0,2.95,1.5,2.95,2.73,0,.32,0,.51-.12,2.15,2.37-1.71,4.1-2.51,6.38-2.51,2.59,0,5.92,1.22,5.92,5.75,0,1.38-.16,1.89-1.29,6.69a20.91,20.91,0,0,0-.7,4c0,1.17.51,1.44,1.14,1.44a1.38,1.38,0,0,0,.52-.09,4,4,0,0,1,1.5-.36c1.37,0,2.24.9,2.24,2.61,0,3-2.67,3.78-5.31,3.78-3.89,0-5.93-2.37-5.93-6.15a22.2,22.2,0,0,1,.45-4.2c.21-1.05,1.29-5.93,1.29-6.66s-.16-1-.87-1c-1.59,0-4,1.85-5.67,3.89,0,.84,0,8.07,0,8.43,0,.51.07,3,.07,3.51,0,1.08,0,3.3-2.88,3.3a2.63,2.63,0,0,1-2.82-2c-.06-.36-.06-1,0-6.18-1.3,2-1.95,3-3.39,3a3.1,3.1,0,0,1-3-2.91A3,3,0,0,1,327,23a42.64,42.64,0,0,0,5.49-6.62V16l-2.67.18-.36,0a2.58,2.58,0,0,1-2.88-2.8,2.72,2.72,0,0,1,2.94-2.74l3.05-.14a12.69,12.69,0,0,1,.25-2.86c.27-1,1-1.67,2.75-1.67m0-4c-3.32,0-5.79,1.71-6.6,4.59l0,.12c-3.82.36-6.35,3-6.35,6.7a6.61,6.61,0,0,0,2.73,5.58c-.3.33-.62.66-.95,1l-.27.29-.06.06A6.92,6.92,0,0,0,322,25.17a7.06,7.06,0,0,0,6.5,6.9h0a6.51,6.51,0,0,0,6.74,5.16c.93,0,4.86-.23,6.32-4a9.82,9.82,0,0,0,7.26,2.86c4.3,0,9.31-2,9.31-7.78,0-3.37-1.93-5.87-4.85-6.47l0-.19.26-1.06c.94-4,1.14-4.79,1.14-6.53,0-4.85-3.07-9.75-9.92-9.75a12.43,12.43,0,0,0-3.37.45A6.74,6.74,0,0,0,335.58,2Z"/><path class="cls-1" d="M372.13,35.24c-9.59,0-10.78-5.25-10.82-7.65H361a5.11,5.11,0,0,1-5-5.09,4.78,4.78,0,0,1,2.34-4c2.44-1.73,3.76-2.67,5.26-3.8h-.11c-3.05,0-4.94-1.85-4.94-4.83s2-4.79,5.09-4.79c3.63,0,7.93-.08,11.49-.23.51,0,1.72-.07,2-.07,4.87,0,5.39,3.19,5.39,4.55A4.88,4.88,0,0,1,380,13.69a9.89,9.89,0,0,1,6.48,9.71C386.48,30.71,381,35.24,372.13,35.24Z"/><path class="cls-2" d="M377.13,6.78c2,0,3.39.54,3.39,2.55a3,3,0,0,1-1.71,2.74,48,48,0,0,0-4.61,2.84c.35,0,.71,0,1.05,0,5.08,0,9.23,2.86,9.23,8.53,0,7.2-6.18,9.84-12.35,9.84-1.47,0-8.82,0-8.82-5.79,0-3.69,3.06-5.61,6.72-5.61s6.47,1.86,6.21,5.7a3.79,3.79,0,0,0,2.18-3.63c0-4-4.22-4-5.25-4a12.5,12.5,0,0,0-8.93,3.6c-2.07,1.89-2.37,2.1-3.24,2.1a3.13,3.13,0,0,1-3-3.09,2.85,2.85,0,0,1,1.53-2.4c4.55-3.24,5.16-3.69,10.64-7.89-2.54.15-3.09.21-5.78.42a8.64,8.64,0,0,1-.9.07c-1.47,0-2.94-.58-2.94-2.83s1.71-2.79,3.09-2.79c4.35,0,8.69-.11,11.57-.23.51,0,1.66-.07,1.92-.07M370.66,28.5a7.64,7.64,0,0,0,.89-.09c0-.15,0-.39,0-.57,0-1.17-.83-1.5-1.7-1.5-.69,0-1.75.27-1.75,1.05s1.17,1.11,2.53,1.11m6.47-25.72c-.35,0-1.53,0-2.11.07-3.54.15-7.79.23-11.38.23-4.18,0-7.09,2.8-7.09,6.79a6.58,6.58,0,0,0,2.64,5.56l-2,1.41,0,0A6.8,6.8,0,0,0,354,22.5a7.14,7.14,0,0,0,5.5,6.91,9.18,9.18,0,0,0,6.32,6.88,19.23,19.23,0,0,0,6.31,1c9.93,0,16.35-5.43,16.35-13.84a12,12,0,0,0-5.1-10.17,6.88,6.88,0,0,0,1.14-3.9C384.52,6.17,382.58,2.78,377.13,2.78Z"/></svg>