<svg id="materials" xmlns="http://www.w3.org/2000/svg" viewBox="0 0 460 39.07"><defs><style>.cls-1{fill:#474747;}.cls-2{fill:#fff;}</style></defs><title>administrator-title</title><path class="cls-1" d="M171,36.18A5.27,5.27,0,0,1,166,31,4.83,4.83,0,0,1,168.08,27l1-.87V23.06a4.3,4.3,0,0,1-3-4.32c0-2.69,1.39-4.42,3.77-4.77-.38-.43-.78-.93-1.25-1.52l-.35-.43c-.77-.93-1.13-1.38-1.34-1.7a4.1,4.1,0,0,1-.74-2.38A4.93,4.93,0,0,1,171,3.25,5.06,5.06,0,0,1,174.82,5c.94-.91,2.39-1.31,4.46-1.31h14c4.22,0,5.86,1.65,5.86,5.89v.84a4.51,4.51,0,0,1-1.75,4,8.84,8.84,0,0,1,.61,3.64v1.41a10.69,10.69,0,0,1-.28,2.69,4,4,0,0,1,1.78,3.52,4.57,4.57,0,0,1-.67,2.47,4.74,4.74,0,0,1,.94,3,4.4,4.4,0,0,1-4.6,4.69H181.41a11.55,11.55,0,0,1-6.54-1.63A5,5,0,0,1,171,36.18Z"/><path class="cls-1" d="M171,5.75c.66,0,1.23,0,3.08,2.13.61.66,1.75,1.92,1.75,2.82a2.5,2.5,0,0,1-2.5,2.37c-1,0-1.19-.24-2.75-2.22-.24-.3-1.38-1.65-1.56-1.95a1.59,1.59,0,0,1-.3-1A2.43,2.43,0,0,1,171,5.75m22.31.48c2.85,0,3.36.54,3.36,3.39v.84c0,.73,0,2.31-2,2.31l-.49,0c-.3.69-.81.81-1.5.81h-4.22v.84h3.38c3,0,3.69.51,3.69,3.69v1.41c0,3.15-.6,3.72-3.69,3.72h-3.38v.84h6.77c.78,0,1.8.12,1.8,1.65s-.9,1.68-1.8,1.68h-6.77c0,.78,0,1.29-.79,1.68h7.56a1.86,1.86,0,0,1,2.07,2.07,1.91,1.91,0,0,1-2.1,2.19H181.41c-4.22,0-5.76-1.44-6.86-2.76a17.18,17.18,0,0,1-1.5,1.92c-.63.69-1.11,1.2-2,1.2A2.8,2.8,0,0,1,168.46,31c0-1,.48-1.35,1.29-2,.6-.54,1.59-1.38,1.83-1.59V21.56c0-.27,0-.78-.52-.78h-.5a1.83,1.83,0,0,1-1.95-2c0-1.62.6-2.34,2.22-2.34h1.38c3.06,0,3.72.54,3.72,3.69v5.49c0,1.53,1.34,3.48,4.92,3.48h3.89c-.75-.36-.75-.93-.75-1.68h-6.26a1.47,1.47,0,0,1-1.68-1.62,1.49,1.49,0,0,1,1.68-1.71H184v-.84h-3.33c-3.06,0-3.65-.54-3.65-3.72V18.08c0-3.12.59-3.69,3.65-3.69H184v-.84h-4.17a1.39,1.39,0,0,1-1.5-.81,3.24,3.24,0,0,1-.43,0c-2,0-2-1.54-2-2.3V9.62c0-2.82.45-3.39,3.35-3.39h14m-4.85,4.5h4V10a.51.51,0,0,0-.54-.57h-4a1.46,1.46,0,0,1,.46,1.29m-4-1.29h-3.77a.51.51,0,0,0-.54.57v.72H184a1.52,1.52,0,0,1,.42-1.29m4,8.31h2.81v-.54a.51.51,0,0,0-.54-.57h-2.27v1.11m-7.24,0H184V16.64h-2.25a.5.5,0,0,0-.54.57v.54m7.24,3.06h2.27a.5.5,0,0,0,.54-.57V19.7h-2.81v1.11m-6.7,0H184V19.7H181.2v.54a.5.5,0,0,0,.54.57M171,.75a7.43,7.43,0,0,0-7.28,7.19,6.61,6.61,0,0,0,1.17,3.79,17,17,0,0,0,1.07,1.37,7.29,7.29,0,0,0-2.33,5.64,6.94,6.94,0,0,0,3,5.84V25l-.13.1a7.24,7.24,0,0,0-3,5.81A7.74,7.74,0,0,0,171,38.68a6.86,6.86,0,0,0,4.27-1.45,15.69,15.69,0,0,0,6.13,1.09h13.77a6.84,6.84,0,0,0,7.1-7.19,7.55,7.55,0,0,0-.63-3.09A7.36,7.36,0,0,0,202,25.7a6.62,6.62,0,0,0-1.59-4.47,16.06,16.06,0,0,0,.09-1.74V18.08a13.69,13.69,0,0,0-.28-2.91,7.61,7.61,0,0,0,1.42-4.71V9.62c0-5.65-2.73-8.39-8.36-8.39h-14A10.85,10.85,0,0,0,175,2,7,7,0,0,0,171,.75Z"/><path class="cls-1" d="M205.75,35.88c-5.29,0-6.07-3.8-6.07-6.07V27.53c0-2.57.93-4.38,2.69-5.31a8.47,8.47,0,0,1-.44-2.88,4.3,4.3,0,0,1-3.81-4.65V13c0-2,.53-4.23,2.64-5.37V7.52c0-2.71,2.65-4.39,5.11-4.39a4.34,4.34,0,0,1,3.82,2.09,5.44,5.44,0,0,1,4.6-2.36c2.67,0,3.68,1.82,4.46,3.36.23-.46.43-.86.56-1.06a4.22,4.22,0,0,1,3.84-2.09c2.94,0,5.16,1.85,5.16,4.3,0,.1,0,.21,0,.31a4.9,4.9,0,0,1,1.49,1.54,6.92,6.92,0,0,1,.89,3.76v1.71a4.3,4.3,0,0,1-3.78,4.65,8.66,8.66,0,0,1-.43,2.86c1.77.93,2.71,2.74,2.71,5.33v2.28c0,3.91-2.14,6.07-6,6.07Z"/><path class="cls-1" d="M214.29,5.36c1.08,0,1.44.42,2.31,2.16a3.89,3.89,0,0,1,.6,1.83H220c.21-.45,1.17-2.49,1.42-2.88a1.73,1.73,0,0,1,1.71-.9c1.13,0,2.66.54,2.66,1.8a4.47,4.47,0,0,1-.9,2,2.83,2.83,0,0,1,2.76,1.2,4.41,4.41,0,0,1,.51,2.43v1.71c0,1.17-.33,2.22-2.22,2.22a2.74,2.74,0,0,1-1.62-.42,8.79,8.79,0,0,1,.06,1.29v1.38c0,2.82-.54,3.36-3.38,3.36H216.6c-.15.48-.36,1.08-.45,1.47h7c2.39,0,3.53.9,3.53,3.54v2.28c0,2.76-1.23,3.57-3.53,3.57h-17.4c-2.23,0-3.57-.72-3.57-3.57V27.53c0-2.7,1.23-3.54,3.57-3.54h5.69c.37-1,.4-1.11.51-1.47h-4.14c-2.79,0-3.38-.48-3.38-3.36V17.78c0-.69,0-1,0-1.35a2.27,2.27,0,0,1-1.52.48c-1.53,0-2.34-.48-2.34-2.22V13c0-2.88,1.32-3.6,3.51-3.63-.69-1.08-.87-1.35-.87-1.83,0-1.11,1.34-1.89,2.61-1.89,1,0,1.32.27,2.36,1.89A4.24,4.24,0,0,1,209,9.35h3.58c-.84-1.56-.93-1.74-.93-2.22,0-.9,1.28-1.77,2.66-1.77m-9.23,9.69c.6-.54,1.17-.66,2.75-.66H221c1.4,0,2.09.09,2.69.6V13.61a.56.56,0,0,0-.6-.63H205.69a.55.55,0,0,0-.6.63v1.08a1.59,1.59,0,0,1,0,.36m4.17,4.38h10.34a.52.52,0,0,0,.58-.54v-.78a.52.52,0,0,0-.58-.57H209.23c-.37,0-.54.21-.54.57v.78a.49.49,0,0,0,.54.54m-1.77,10.32h14a.69.69,0,0,0,.78-.78v-.84a.69.69,0,0,0-.78-.78H207.43c-.54,0-.75.27-.75.78V29a.69.69,0,0,0,.78.78M214.29.36a8.33,8.33,0,0,0-4.6,1.36A6.68,6.68,0,0,0,205.87.63a7.47,7.47,0,0,0-7.47,5.56A8.43,8.43,0,0,0,195.62,13v1.71a6.75,6.75,0,0,0,3.91,6.55,8.48,8.48,0,0,0-2.35,6.29v2.28c0,5.29,3.28,8.57,8.57,8.57h17.4c5.26,0,8.53-3.28,8.53-8.57V27.53a8.53,8.53,0,0,0-2.36-6.31,6.82,6.82,0,0,0,3.86-6.53V13A9.27,9.27,0,0,0,232,8l-.07-.1a7.53,7.53,0,0,0-1.16-1.45C230.27,3,227.16.57,223.15.57A6.9,6.9,0,0,0,218.8,2,6.43,6.43,0,0,0,214.29.36Z"/><path class="cls-1" d="M256.2,36.27a3.93,3.93,0,0,1-3.33-1.71c-2.27.26-3.9.4-7.4.62s-10.37.64-10.66.64c-3.47,0-4.71-2.5-4.71-4.84a4.31,4.31,0,0,1,2.92-4.4,7.32,7.32,0,0,1,2.25-.25l.09-.2h-.87c-3,0-4.72-1.8-4.72-4.81a4.82,4.82,0,0,1,.81-2.74,5.39,5.39,0,0,1-1.53-3.8,4.53,4.53,0,0,1,3.13-4.37,22.39,22.39,0,0,0,8-5c1.76-1.64,2.91-2.71,5.74-2.71s4.1,1.14,5.77,2.72a22.81,22.81,0,0,0,7.94,5,4.49,4.49,0,0,1,3.16,4.38,5.34,5.34,0,0,1-1.56,3.81,5.25,5.25,0,0,1,.78,2.94,4.22,4.22,0,0,1-3.27,4.4c.39.49.64.81.64.82,1.71,2.2,2.21,3.08,2.21,4.59C261.58,34.52,258.4,36.27,256.2,36.27Z"/><path class="cls-1" d="M245.91,5.21c1.86,0,2.46.54,4.05,2a25.26,25.26,0,0,0,8.7,5.49c.87.36,1.62.72,1.62,2.07A2.52,2.52,0,0,1,258,17.48c-1.11,0-3.15-1.2-4-1.71-.26,1.26-1.2,1.47-2.13,1.47H240a1.84,1.84,0,0,1-2.13-1.47,10.37,10.37,0,0,1-4.08,1.68,2.49,2.49,0,0,1-2.25-2.67,2.05,2.05,0,0,1,1.62-2.07,24.71,24.71,0,0,0,8.69-5.46c1.66-1.53,2.2-2,4-2m-4.26,8h8.55a30.12,30.12,0,0,1-3.39-3c-.45-.48-.59-.63-.9-.63s-.39.12-.86.63a36.3,36.3,0,0,1-3.4,3m15.66,6.06c1.44,0,2.19.57,2.19,2.28a1.91,1.91,0,0,1-2.19,2.07h-4.2c1.17.75,3.9,4.17,4.26,4.65,1.65,2.13,1.71,2.46,1.71,3.09,0,1.5-1.8,2.4-2.88,2.4a1.51,1.51,0,0,1-1.35-.72c-.12-.15-.66-1-.78-1.14-3.09.36-4.5.51-8.76.78-3.83.27-10.4.63-10.5.63-.59,0-2.21,0-2.21-2.34,0-.48.12-1.71,1.17-2a13,13,0,0,1,3.08-.18,38.17,38.17,0,0,0,2.2-5.16h-4.56c-1.56,0-2.22-.66-2.22-2.31a1.91,1.91,0,0,1,2.22-2h22.82M251,23.63h-7a54.76,54.76,0,0,1-2.37,5c3.58-.09,4-.12,9.72-.42-1.52-1.74-1.83-2.07-1.83-2.85A2.07,2.07,0,0,1,251,23.63M245.91.21c-3.81,0-5.56,1.63-7.42,3.35a19.86,19.86,0,0,1-7.18,4.51l-.07,0a6.9,6.9,0,0,0-4.69,6.69,7.94,7.94,0,0,0,1.1,4.07,7.89,7.89,0,0,0-.38,2.47,7.45,7.45,0,0,0,1.8,5.1A7.39,7.39,0,0,0,227.6,31a7,7,0,0,0,7.21,7.34c.49,0,7.81-.43,10.86-.64,2.86-.18,4.48-.31,6.22-.5a6.56,6.56,0,0,0,4.31,1.59c3.81,0,7.88-3,7.88-7.4a7.53,7.53,0,0,0-1.64-4.66,7,7,0,0,0,2.06-5.15,8.6,8.6,0,0,0-.38-2.6,7.84,7.84,0,0,0,1.16-4.15,6.89,6.89,0,0,0-4.7-6.69,20.3,20.3,0,0,1-7.2-4.52C251.62,1.94,249.79.21,245.91.21Z"/><path class="cls-1" d="M269.23,36.57a4.3,4.3,0,0,1-4.57-4.69V27.6a5.17,5.17,0,0,1-4.35-5.08c0-2.53,1.54-3.63,3.69-5.16a14.1,14.1,0,0,0,1.22-1,4.32,4.32,0,0,1-4.58-4.72,4.27,4.27,0,0,1,4-4.48c.16-2.73,1.93-4.29,4.92-4.29a4.35,4.35,0,0,1,4.62,4.52,4.62,4.62,0,0,1,3.16,3.07H278V7.67A4.33,4.33,0,0,1,282.66,3c4.4,0,5,2.94,5,4.69v2.81h1.1c3.57,0,4.84,2.39,4.84,4.63,0,3.15-1.76,5-4.84,5h-1.1v6.19h1.52a4.41,4.41,0,0,1,4.81,4.6c0,3.11-1.75,4.9-4.81,4.9H276.15a5.88,5.88,0,0,1-3-.68A4.88,4.88,0,0,1,269.23,36.57ZM278,26.26V24.8a5,5,0,0,1-1.25,1.46Zm0-6v-.22h-.15Z"/><path class="cls-1" d="M269.59,5.39a1.9,1.9,0,0,1,2.13,2.19V9.65h.63a2.49,2.49,0,0,1,2.81,2.76c0,1.47-.42,3-2.51,5.91a23.47,23.47,0,0,0,2,2c1.15,1.05,1.54,1.44,1.54,2.13a2.33,2.33,0,0,1-2.1,2.25c-1,0-1.69-.84-2.37-1.74v8.91c0,1.71-.75,2.19-2.49,2.19s-2.07-1.14-2.07-2.19V24.26a3.15,3.15,0,0,1-2,.87,2.66,2.66,0,0,1-2.37-2.61c0-1.23.66-1.71,2.64-3.12A12.87,12.87,0,0,0,270,14.24c0-.36-.37-.36-.51-.36h-4.12c-1.5,0-2.21-.6-2.21-2.22a1.91,1.91,0,0,1,2.21-2h1.81v-2c0-1.62.65-2.22,2.43-2.22m13.07.09c1.86,0,2.55.57,2.55,2.19V13h3.6c.69,0,2.34,0,2.34,2.13,0,1.8-.66,2.46-2.34,2.46h-3.6V28.76h4a2,2,0,0,1,2.31,2.1c0,1.71-.63,2.4-2.31,2.4H276.15c-.71,0-2.6,0-2.6-2.1,0-1.77.8-2.4,2.6-2.4h4.38V17.57H277a1.94,1.94,0,0,1-2.22-2.16c0-1.8.7-2.43,2.22-2.43h3.54V7.67c0-.9.18-2.19,2.13-2.19M269.59.39c-3.6,0-6.18,1.8-7.08,4.75a6.66,6.66,0,0,0-4.37,6.52,7.14,7.14,0,0,0,2.17,5.4,7,7,0,0,0-2.5,5.46,7.75,7.75,0,0,0,4.35,6.92v2.44a6.82,6.82,0,0,0,7.07,7.19A8.17,8.17,0,0,0,273.66,38a9.64,9.64,0,0,0,2.49.31h13.08c4.45,0,7.31-2.91,7.31-7.4a6.81,6.81,0,0,0-6.33-7V22.47c3.66-.56,5.94-3.32,5.94-7.36a6.78,6.78,0,0,0-5.94-7V7.67c0-5.31-4.06-7.19-7.55-7.19a6.81,6.81,0,0,0-6.52,4.07A6.77,6.77,0,0,0,269.59.39Z"/><path class="cls-2" d="M177.73,27.38a1.47,1.47,0,0,1-1.68-1.62,1.49,1.49,0,0,1,1.68-1.71H184v-.84h-3.33c-3.06,0-3.65-.54-3.65-3.72V18.08c0-3.12.59-3.69,3.65-3.69H184v-.84h-4.17a1.39,1.39,0,0,1-1.5-.81c-2.39.24-2.39-1.47-2.39-2.28V9.62c0-2.82.45-3.39,3.35-3.39h14c2.85,0,3.36.54,3.36,3.39v.84c0,.78,0,2.55-2.49,2.28-.3.69-.81.81-1.5.81h-4.22v.84h3.38c3,0,3.69.51,3.69,3.69v1.41c0,3.15-.6,3.72-3.69,3.72h-3.38v.84h6.77c.78,0,1.8.12,1.8,1.65s-.9,1.68-1.8,1.68h-6.77c0,.78,0,1.29-.79,1.68h7.56a1.86,1.86,0,0,1,2.07,2.07,1.91,1.91,0,0,1-2.1,2.19H181.41c-4.22,0-5.76-1.44-6.86-2.76a17.18,17.18,0,0,1-1.5,1.92c-.63.69-1.11,1.2-2,1.2A2.8,2.8,0,0,1,168.46,31c0-1,.48-1.35,1.29-2,.6-.54,1.59-1.38,1.83-1.59V21.56c0-.27,0-.78-.52-.78h-.5a1.83,1.83,0,0,1-1.95-2c0-1.62.6-2.34,2.22-2.34h1.38c3.06,0,3.72.54,3.72,3.69v5.49c0,1.53,1.34,3.48,4.92,3.48h3.89c-.75-.36-.75-.93-.75-1.68Zm-3.67-19.5c.61.66,1.75,1.92,1.75,2.82a2.5,2.5,0,0,1-2.5,2.37c-1,0-1.19-.24-2.75-2.22-.24-.3-1.38-1.65-1.56-1.95a1.59,1.59,0,0,1-.3-1A2.43,2.43,0,0,1,171,5.75C171.64,5.75,172.21,5.75,174.06,7.88ZM184,10.73a1.52,1.52,0,0,1,.42-1.29h-3.77a.51.51,0,0,0-.54.57v.72Zm0,7V16.64h-2.25a.5.5,0,0,0-.54.57v.54Zm0,1.95H181.2v.54a.5.5,0,0,0,.54.57H184Zm8.49-9V10a.51.51,0,0,0-.54-.57h-4a1.46,1.46,0,0,1,.46,1.29Zm-4,7h2.81v-.54a.51.51,0,0,0-.54-.57h-2.27Zm0,1.95v1.11h2.27a.5.5,0,0,0,.54-.57V19.7Z"/><path class="cls-2" d="M212.56,9.35c-.84-1.56-.93-1.74-.93-2.22,0-.9,1.28-1.77,2.66-1.77,1.08,0,1.44.42,2.31,2.16a3.89,3.89,0,0,1,.6,1.83H220c.21-.45,1.17-2.49,1.42-2.88a1.73,1.73,0,0,1,1.71-.9c1.13,0,2.66.54,2.66,1.8a4.47,4.47,0,0,1-.9,2,2.83,2.83,0,0,1,2.76,1.2,4.41,4.41,0,0,1,.51,2.43v1.71c0,1.17-.33,2.22-2.22,2.22a2.74,2.74,0,0,1-1.62-.42,8.79,8.79,0,0,1,.06,1.29v1.38c0,2.82-.54,3.36-3.38,3.36H216.6c-.15.48-.36,1.08-.45,1.47h7c2.39,0,3.53.9,3.53,3.54v2.28c0,2.76-1.23,3.57-3.53,3.57h-17.4c-2.23,0-3.57-.72-3.57-3.57V27.53c0-2.7,1.23-3.54,3.57-3.54h5.69c.37-1,.4-1.11.51-1.47h-4.14c-2.79,0-3.38-.48-3.38-3.36V17.78c0-.69,0-1,0-1.35a2.27,2.27,0,0,1-1.52.48c-1.53,0-2.34-.48-2.34-2.22V13c0-2.88,1.32-3.6,3.51-3.63-.69-1.08-.87-1.35-.87-1.83,0-1.11,1.34-1.89,2.61-1.89,1,0,1.32.27,2.36,1.89A4.24,4.24,0,0,1,209,9.35Zm-7.47,5.34a1.59,1.59,0,0,1,0,.36c.6-.54,1.17-.66,2.75-.66H221c1.4,0,2.09.09,2.69.6V13.61a.56.56,0,0,0-.6-.63H205.69a.55.55,0,0,0-.6.63Zm17.18,13.44a.69.69,0,0,0-.78-.78H207.43c-.54,0-.75.27-.75.78V29a.69.69,0,0,0,.78.78h14a.69.69,0,0,0,.78-.78Zm-2.12-10a.52.52,0,0,0-.58-.57H209.23c-.37,0-.54.21-.54.57v.78a.49.49,0,0,0,.54.54h10.34a.52.52,0,0,0,.58-.54Z"/><path class="cls-2" d="M240,17.24a1.84,1.84,0,0,1-2.13-1.47,10.37,10.37,0,0,1-4.08,1.68,2.49,2.49,0,0,1-2.25-2.67,2.05,2.05,0,0,1,1.62-2.07,24.71,24.71,0,0,0,8.69-5.46c1.66-1.53,2.2-2,4-2s2.46.54,4.05,2a25.26,25.26,0,0,0,8.7,5.49c.87.36,1.62.72,1.62,2.07A2.52,2.52,0,0,1,258,17.48c-1.11,0-3.15-1.2-4-1.71-.26,1.26-1.2,1.47-2.13,1.47Zm13.1,6.39c1.17.75,3.9,4.17,4.26,4.65,1.65,2.13,1.71,2.46,1.71,3.09,0,1.5-1.8,2.4-2.88,2.4a1.51,1.51,0,0,1-1.35-.72c-.12-.15-.66-1-.78-1.14-3.09.36-4.5.51-8.76.78-3.83.27-10.4.63-10.5.63-.59,0-2.21,0-2.21-2.34,0-.48.12-1.71,1.17-2a13,13,0,0,1,3.08-.18,38.17,38.17,0,0,0,2.2-5.16h-4.56c-1.56,0-2.22-.66-2.22-2.31a1.91,1.91,0,0,1,2.22-2h22.82c1.44,0,2.19.57,2.19,2.28a1.91,1.91,0,0,1-2.19,2.07ZM250.2,13.22a30.12,30.12,0,0,1-3.39-3c-.45-.48-.59-.63-.9-.63s-.39.12-.86.63a36.3,36.3,0,0,1-3.4,3ZM244,23.63a54.76,54.76,0,0,1-2.37,5c3.58-.09,4-.12,9.72-.42-1.52-1.74-1.83-2.07-1.83-2.85A2.07,2.07,0,0,1,251,23.63Z"/><path class="cls-2" d="M272.35,9.65a2.49,2.49,0,0,1,2.81,2.76c0,1.47-.42,3-2.51,5.91a23.47,23.47,0,0,0,2,2c1.15,1.05,1.54,1.44,1.54,2.13a2.33,2.33,0,0,1-2.1,2.25c-1,0-1.69-.84-2.37-1.74v8.91c0,1.71-.75,2.19-2.49,2.19s-2.07-1.14-2.07-2.19V24.26a3.15,3.15,0,0,1-2,.87,2.66,2.66,0,0,1-2.37-2.61c0-1.23.66-1.71,2.64-3.12A12.87,12.87,0,0,0,270,14.24c0-.36-.37-.36-.51-.36h-4.12c-1.5,0-2.21-.6-2.21-2.22a1.91,1.91,0,0,1,2.21-2h1.81v-2c0-1.62.65-2.22,2.43-2.22a1.9,1.9,0,0,1,2.13,2.19V9.65ZM288.81,13c.69,0,2.34,0,2.34,2.13,0,1.8-.66,2.46-2.34,2.46h-3.6V28.76h4a2,2,0,0,1,2.31,2.1c0,1.71-.63,2.4-2.31,2.4H276.15c-.71,0-2.6,0-2.6-2.1,0-1.77.8-2.4,2.6-2.4h4.38V17.57H277a1.94,1.94,0,0,1-2.22-2.16c0-1.8.7-2.43,2.22-2.43h3.54V7.67c0-.9.18-2.19,2.13-2.19s2.55.57,2.55,2.19V13Z"/></svg>