<svg id="icon-mentor" data-name="icon-mentor" xmlns="http://www.w3.org/2000/svg" viewBox="0 0 375.61 365.8"><defs><style>.cls-1{fill:none;}.cls-2{fill:#403f47;}</style></defs><path class="cls-1" d="M262.19,196.77c-12.54,0-22.71,12-22.71,26.71s10.17,26.71,22.71,26.71,22.7-12,22.7-26.71S274.72,196.77,262.19,196.77Z"/><path class="cls-1" d="M112.64,196.77c-12.54,0-22.7,12-22.7,26.71s10.16,26.71,22.7,26.71,22.69-12,22.69-26.71S125.17,196.77,112.64,196.77Z"/><path class="cls-2" d="M375.61,72.78c0-21.77-10.89-42.1-29.88-55.79L326.81,3.35,332.53,26A47.58,47.58,0,0,1,334,37.64c0,17.69-11.56,36.34-42.27,42.18C275.31,44.05,246.05,17.6,211.25,9V8.75l-6.05-1-.83-.15-.16,0-.18,0c-2.57-.43-5.16-.75-7.73-1l-1.58-.14c-2.68-.21-5.34-.35-8-.35s-5.3.14-8,.35l-1.58.14c-2.58.25-5.17.57-7.75,1l-.16,0-.15,0-.85.15-6.05,1V9c-33.66,8.31-62.13,33.36-78.84,67.38C53,70.45,41.58,51.89,41.58,34.28a47.57,47.57,0,0,1,1.5-11.68L48.8,0,29.89,13.63C10.89,27.33,0,47.66,0,69.42,0,105,29.31,134.6,67.56,140.15c-.07,1.7-.1,3.39-.11,5.08-22.6,23.37-36.27,53.59-36.27,86.57,0,73.89,68.5,134,152.7,134s152.69-60.11,152.69-134c0-30.14-11.4-58-30.61-80.39l0-2.17,0-1c0-.63,0-1.26,0-1.89,0-.87,0-1.75-.06-2.62C345.25,139,375.61,109,375.61,72.78Zm-263,177.41c-12.54,0-22.7-12-22.7-26.71s10.16-26.71,22.7-26.71,22.69,12,22.69,26.71S125.17,250.19,112.64,250.19Zm149.55,0c-12.54,0-22.71-12-22.71-26.71s10.17-26.71,22.71-26.71,22.7,12,22.7,26.71S274.72,250.19,262.19,250.19Z"/></svg>
