<svg id="materials" xmlns="http://www.w3.org/2000/svg" viewBox="0 0 240 240"><defs><style>.cls-1{fill:#cecdc6;}.cls-2{fill:#474747;}.cls-3{fill:#adaba5;}.cls-4{fill:#4eaec4;}.cls-5{fill:#62d2dd;}.cls-6{fill:#eae9e1;}.cls-7{fill:#c9c7c0;}</style></defs><title>alien</title><path class="cls-1" d="M82.48,236.5a24.55,24.55,0,0,1-7.3-1.16C67.61,233,60,228.5,61.25,223.16A5.62,5.62,0,0,1,63.52,220l5.67-16.24a38.23,38.23,0,0,1-4.43-9.11,38.94,38.94,0,0,1-8.11.79h-.42a34.08,34.08,0,0,1-8.5-1.09,38.65,38.65,0,0,1-4.54,9.41L48.86,220a5.59,5.59,0,0,1,2.27,3.21c1.27,5.34-6.36,9.8-13.93,12.18a24.49,24.49,0,0,1-7.29,1.16c-2,0-4.69-.32-5.66-1.24a2.27,2.27,0,0,1-.72-1.91,2.46,2.46,0,0,1,.1-.47,5.73,5.73,0,0,1-1.37.2,2.09,2.09,0,0,1-1.75-.76,1.77,1.77,0,0,1-.35-1.46,2.36,2.36,0,0,1,.45-1H20l-.56-.66-.44-.63.24-.79c1.34-3.86,6.91-7.56,13.85-9.21.67-.16,1.35-.3,2-.42L31.82,207.8c-2.9-3.3-3.11-11.17-.48-19.83a45.82,45.82,0,0,1,1.88-5.07c-4.51-8.57-3.82-19.08-2.79-23.54q.3-1.29.48-2.43a35.7,35.7,0,0,1-7.37,8.66,63.45,63.45,0,0,1-1.61,14.29c-1.38,6.29-3.42,11.91-5.63,15.59,2.34,6.28,3.11,17,3.11,21.36a1.6,1.6,0,0,1-1.56,1.82c-1.09,0-1.36-.32-2-3a3.19,3.19,0,0,1-.84,2.44l-.42.36-.61,0c-1.19,0-1.6-.66-2-3.07-.33,2.78-.68,3.37-1.93,3.37H9.52l-.41-.26a1.85,1.85,0,0,1-.8-1.4c-.46,2.32-.8,2.51-1.83,2.51H5.41L5,218.56c-.8-2.3-.6-10.37-.48-12.33.34-5.39,1.07-9.44,2.15-12.07-.69-4.42-.2-11.09,1.31-18s3.89-13.18,6.35-16.72c.43-4.64,2.39-10.63,5.4-16.53,3.74-7.3,8.38-13,12.22-15.07.85-1.12,1.76-2.17,2.71-3.27s1.93-2.23,2.88-3.47c-3.82-2.27-5.85-6.06-7.81-9.74s-3.7-6.9-6.95-8.51C13.89,98.44,3.47,88.4,3.45,74.63c0-9,3.62-17.44,10.51-24.33,9.83-9.84,25.09-15.48,41.89-15.48h.79c28.6,0,51.61,17.46,52.4,39.75.56,16-14.62,25.68-19.29,28.26-3.27,1.8-5.06,5.11-7,8.6-2,3.65-4,7.41-7.86,9.68.95,1.24,1.92,2.37,2.88,3.46.71.82,1.39,1.61,2,2.42,4.85.14,11,8.07,15.07,15.93,3,5.9,5,11.89,5.4,16.53,2.46,3.54,4.82,9.74,6.35,16.72,1.64,7.45,2.06,14.64,1.14,19,2.43,6.23,3.23,17.22,3.23,21.68a1.84,1.84,0,0,1-.48,1.38l-.44.44h-.64c-1.09,0-1.36-.33-2-3-.07,1.31-.31,2-.84,2.44l-.42.36-.6,0c-1.19,0-1.61-.66-2-3.07-.33,2.78-.69,3.37-1.93,3.37h-.46l-.41-.26a1.84,1.84,0,0,1-.79-1.4c-.47,2.32-.81,2.51-1.84,2.51H97l-.39-1.06c-.8-2.31-.6-10.37-.48-12.33A44.1,44.1,0,0,1,98,194.91a56.66,56.66,0,0,1-5.29-15,63.5,63.5,0,0,1-1.62-14.29c-3.24-2.54-6.84-7.25-9.85-12.91a24.73,24.73,0,0,0,.78,6.68c.82,3.53,3,15.58-2.32,24.9.49,1.24.93,2.48,1.3,3.71,2.63,8.66,2.42,16.53-.48,19.83l-3.33,10.36c.7.12,1.38.26,2,.42,7,1.65,12.51,5.35,13.85,9.21l.25.73-.45.69-.45.63-.71,0a2.56,2.56,0,0,1,.46,1,1.81,1.81,0,0,1-.36,1.46,2.09,2.09,0,0,1-1.75.76,5.73,5.73,0,0,1-1.37-.2,2.46,2.46,0,0,1,.1.47,2.24,2.24,0,0,1-.72,1.91C87.16,236.18,84.48,236.5,82.48,236.5Z"/><path class="cls-2" d="M56.64,36.31c28.11,0,50.15,17,50.9,38.32C108,88.15,96.24,97.53,89,101.52c-7.69,4.25-7.8,15.47-16.34,19,2.18,3.15,4.54,5.45,6.49,8a3.33,3.33,0,0,1,.56,0c3.49,0,9.27,6.17,13.86,15.12,3.12,6.09,5,12.08,5.27,16.37,2.34,3.18,4.76,9.25,6.35,16.51,1.71,7.78,2,14.86,1,18.78,2.43,5.78,3.3,17,3.3,21.56,0,.22,0,.33-.05.33-.37,0-2.5-11.32-3.37-11.32L106,206c-.59,1.48.56,10.2-.31,10.94l0,0c-.68,0-1.57-10.86-2.34-10.86s-1.08,11.15-1.64,11.15h0c-.57-.39-.49-10.75-1-11.46l0,0c-.53,0-2,12.34-2.47,12.34l0-.05c-.65-1.87-.56-9.3-.4-11.75.28-4.51.9-8.79,2-11.54-2-3.4-4.08-8.86-5.48-15.22a59.85,59.85,0,0,1-1.55-14.71c-3.26-2.28-7.21-7.3-10.53-13.78-.49-1-.94-1.91-1.36-2.86-1,2.36-1.58,5.38-.17,11.49,1,4.12,2.79,15.86-2.53,24.44.56,1.35,1.08,2.77,1.54,4.27,2.53,8.33,2.27,16-.37,18.62l-4,12.37a31.34,31.34,0,0,1,3.67.63c6.58,1.57,11.65,5,12.78,8.25l-.11.09c-.92,0-7-2.77-8.15-2.77l-.2.08c-.08.33,8.33,4.6,7.44,5.71a.67.67,0,0,1-.57.19c-1.87,0-7.2-2.84-8.32-2.84l-.17,0c-.76.5,7.3,3.67,5.47,5.4-.37.35-2.09.83-4.62.83a23,23,0,0,1-6.85-1.08c-7.86-2.49-13.84-6.58-12.92-10.41a4.29,4.29,0,0,1,2.06-2.6l6.09-17.43a36.5,36.5,0,0,1-5.1-10.66,35.57,35.57,0,0,1-9.1,1.07h-.41a31.34,31.34,0,0,1-9.51-1.44l-.05.18a36.91,36.91,0,0,1-5.16,10.85l6.08,17.43a4.34,4.34,0,0,1,2.07,2.6c.91,3.83-5.07,7.92-12.93,10.41A23,23,0,0,1,29.9,235c-2.52,0-4.25-.48-4.62-.83-1.82-1.73,6.23-4.9,5.47-5.4l-.16,0c-1.13,0-6.46,2.84-8.33,2.84a.67.67,0,0,1-.57-.19c-.88-1.11,7.52-5.38,7.44-5.71l-.19-.08c-1.18,0-7.24,2.77-8.16,2.77l-.11-.09c1.14-3.28,6.2-6.68,12.78-8.25a31.34,31.34,0,0,1,3.67-.63l-4-12.37c-2.65-2.62-2.9-10.29-.38-18.62a43.08,43.08,0,0,1,2.12-5.57c-4.77-8.41-3.91-19.19-3-23.14a22.65,22.65,0,0,0,.66-8.63h0c-3.32,6.48-7.28,11.5-10.53,13.78a60.41,60.41,0,0,1-1.56,14.71C19,186.28,16.8,192,14.63,195.32c2.41,5.79,3.28,16.93,3.28,21.51q0,.33-.06.33c-.36,0-2.49-11.32-3.36-11.32l-.17.17c-.59,1.48.56,10.2-.31,10.94L14,217c-.68,0-1.57-10.86-2.34-10.86-.62,0-1.07,11.15-1.63,11.15h0c-.57-.39-.49-10.75-1-11.46l0,0c-.53,0-2,12.34-2.46,12.34l-.05-.05c-.64-1.87-.55-9.3-.39-11.75.3-4.75,1-9.25,2.2-12-.73-4-.36-10.65,1.22-17.86s4-13.33,6.35-16.51c.31-4.29,2.16-10.28,5.28-16.37C24.88,136.19,29.5,130.7,33,129c2-2.72,4.54-5.11,6.85-8.45-8.54-3.58-8.67-15.25-16.34-19C15.41,97.53,5,88.16,5,74.63c0-22,22.79-38.32,50.9-38.32h.79m0-3h-.79c-17.19,0-32.85,5.8-42.95,15.92-7.17,7.18-11,16-11,25.39,0,14.46,10.89,25,20.19,29.57,2.82,1.4,4.43,4.4,6.28,7.87,1.75,3.26,3.67,6.86,7,9.37-.61.74-1.23,1.45-1.83,2.15-.87,1-1.76,2-2.59,3.1-4.08,2.33-8.72,8.06-12.55,15.55-3,5.9-5,11.92-5.52,16.68-2.49,3.75-4.84,10-6.36,16.93s-2,13.54-1.39,18.13A44,44,0,0,0,3,206.13c0,.1-.48,9.91.56,12.92l.7,2,2.18.06a2.75,2.75,0,0,0,2.28-1l.27.18h1a2.85,2.85,0,0,0,2.12-.83A2.93,2.93,0,0,0,14,220h1.1l.72-.59a2.63,2.63,0,0,0,2.08.77,3.08,3.08,0,0,0,3-3.32c0-4.31-.73-14.65-2.95-21.2a58.35,58.35,0,0,0,5.44-15.43A66.06,66.06,0,0,0,25,166.3a29.4,29.4,0,0,0,3.32-3.36c-.5,5.32-.16,13.18,3.2,20a45.54,45.54,0,0,0-1.65,4.59c-2.11,7-3.14,16.41.58,21L33.21,217l-.45.1c-7.55,1.8-13.4,5.79-14.92,10.18l-.5,1.46.89,1.32a4.32,4.32,0,0,0,.45.5h0a3.36,3.36,0,0,0,.65,2.66,3.61,3.61,0,0,0,2.82,1.33,3.88,3.88,0,0,0,1.07,1.77c1.58,1.49,5.2,1.65,6.68,1.65a25.85,25.85,0,0,0,7.75-1.23c10.64-3.35,16.22-8.57,14.94-14A6.94,6.94,0,0,0,50.13,219l-5.27-15.12a40,40,0,0,0,3.83-7.84,36.82,36.82,0,0,0,7.53.81h.44a41.31,41.31,0,0,0,7.12-.58,38.81,38.81,0,0,0,3.75,7.61L62.25,219a7,7,0,0,0-2.46,3.78c-1.28,5.38,4.3,10.6,14.94,14A25.9,25.9,0,0,0,82.48,238c1.48,0,5.1-.16,6.68-1.66a3.8,3.8,0,0,0,1.07-1.76,3.61,3.61,0,0,0,2.82-1.33,3.36,3.36,0,0,0,.65-2.66h0a3.57,3.57,0,0,0,.45-.5l.9-1.26-.51-1.52c-1.51-4.39-7.37-8.38-14.92-10.18l-.45-.1,2.73-8.47c3.72-4.6,2.68-14.06.58-21-.32-1-.69-2.11-1.09-3.17,5-9.37,3.1-21,2.22-25a35.52,35.52,0,0,0,6,6.89,66.65,66.65,0,0,0,1.65,13.9,60.54,60.54,0,0,0,5.13,14.86,48.23,48.23,0,0,0-1.73,11.07c0,.1-.49,9.91.56,12.92l.69,2,2.18.06a2.75,2.75,0,0,0,2.28-1l.27.18h1a2.84,2.84,0,0,0,2.12-.83,2.94,2.94,0,0,0,1.86.53h1.1l.71-.59a2.64,2.64,0,0,0,2.09.77,3.08,3.08,0,0,0,3-3.32c0-4.46-.78-15.31-3.17-21.81.87-4.61.42-11.66-1.22-19.17-1.53-6.95-3.88-13.18-6.37-16.93-.51-4.76-2.5-10.78-5.52-16.68-3.75-7.34-10-15.85-15.63-16.68-.56-.67-1.13-1.33-1.68-2s-1.22-1.4-1.83-2.14c3.32-2.51,5.25-6.07,7-9.3s3.48-6.42,6.36-8a47.15,47.15,0,0,0,13-10.57c4.92-5.9,7.3-12.31,7.07-19C109.72,51.42,86.05,33.32,56.64,33.32Z"/><path class="cls-3" d="M75.33,165.93a39,39,0,0,0-18.72-5.11c-10.1,0-18.73,5.11-18.73,5.11s11.47-3.07,18.73-3.07S75.33,165.93,75.33,165.93Z"/><path class="cls-4" d="M64.56,110.94a15.12,15.12,0,0,1-8.21,2.81,15.07,15.07,0,0,1-8.2-2.81,15,15,0,0,1,8.2-2.82A15.09,15.09,0,0,1,64.56,110.94Z"/><path class="cls-2" d="M64.56,110.94l-.46-.6,0,0A14.4,14.4,0,0,1,56.35,113a13.12,13.12,0,0,1-5.48-1.34,17.23,17.23,0,0,1-1.68-.92l-.45-.3-.11-.08,0,0-.45.6.45.59,0,0a14.44,14.44,0,0,1,7.72-2.64,13,13,0,0,1,5.48,1.34,14.43,14.43,0,0,1,1.68.92l.45.3.11.08,0,0,.46-.59-.46-.6.46.6.45-.6a15.8,15.8,0,0,0-8.66-3,15.84,15.84,0,0,0-8.66,3l-.77.6.77.59a15.66,15.66,0,0,0,8.66,3,15.62,15.62,0,0,0,8.66-3l.78-.59-.78-.6Z"/><path class="cls-5" d="M36.09,94.59c-.69,0-1.38,0-2.05-.1-7.6-.73-13.27-10.12-14.65-12.61a30.07,30.07,0,0,1,14.2-4.06,19.88,19.88,0,0,1,2.06.1c7.59.73,13.26,10.11,14.64,12.61A30.07,30.07,0,0,1,36.09,94.59Z"/><path class="cls-2" d="M33.59,78.57h0c.67,0,1.34,0,2,.09,6.7.65,11.91,8.51,13.7,11.59a29,29,0,0,1-13.18,3.59c-.66,0-1.33,0-2-.09-6.69-.65-11.9-8.51-13.7-11.59a28.92,28.92,0,0,1,13.18-3.59m0-1.5A30.8,30.8,0,0,0,18.4,81.6S24.73,94.34,34,95.24c.72.07,1.42.1,2.12.1a30.82,30.82,0,0,0,15.2-4.54S45,78.07,35.72,77.17C35,77.1,34.29,77.07,33.59,77.07Z"/><path class="cls-5" d="M77.55,94.55c-7,0-13-3.45-14.86-4.61,1.47-2.44,7.5-11.6,15.11-12,.42,0,.82,0,1.23,0,7,0,13,3.44,14.86,4.6-1.47,2.45-7.5,11.61-15.11,12.06q-.61,0-1.23,0Z"/><path class="cls-2" d="M79,78.61a28.69,28.69,0,0,1,13.83,4.1c-1.91,3-7.42,10.66-14.13,11.06-.39,0-.79,0-1.18,0a28.69,28.69,0,0,1-13.83-4.1c1.91-3,7.42-10.67,14.13-11.06.39,0,.79,0,1.18,0m0-1.5-1.27,0c-9.27.55-16.08,13-16.08,13s7.16,5.12,15.87,5.12c.42,0,.84,0,1.27,0,9.27-.54,16.08-13,16.08-13S87.74,77.11,79,77.11Z"/><path class="cls-2" d="M54.52,102s-2,1.24-3.72.61-2.41-2.9-2.41-2.9,2-1.24,3.72-.61S54.52,102,54.52,102Z"/><path class="cls-2" d="M57.38,102s2,1.24,3.72.61,2.41-2.9,2.41-2.9-2-1.24-3.72-.61S57.38,102,57.38,102Z"/><path class="cls-3" d="M75.58,70.81s-8.19,6.91-18.72,6.91c-10.1,0-18.73-6.91-18.73-6.91S49.6,75,56.86,75,75.58,70.81,75.58,70.81Z"/><path class="cls-1" d="M207.48,236.5a24.49,24.49,0,0,1-7.29-1.16c-7.57-2.38-15.2-6.84-13.93-12.18a5.62,5.62,0,0,1,2.27-3.21l5.67-16.24a38.23,38.23,0,0,1-4.43-9.11,39,39,0,0,1-8.12.79h-.41a34,34,0,0,1-8.5-1.09,38.65,38.65,0,0,1-4.54,9.41L173.87,220a5.59,5.59,0,0,1,2.27,3.21c1.27,5.34-6.36,9.8-13.93,12.18a24.5,24.5,0,0,1-7.3,1.16c-2,0-4.68-.32-5.65-1.24a2.27,2.27,0,0,1-.72-1.91,2.46,2.46,0,0,1,.1-.47,5.73,5.73,0,0,1-1.37.2,2.09,2.09,0,0,1-1.75-.76,1.81,1.81,0,0,1-.36-1.46,2.39,2.39,0,0,1,.46-1H145l-.56-.66-.45-.63.25-.79c1.34-3.86,6.9-7.56,13.85-9.21.67-.16,1.35-.3,2-.42l-3.33-10.36c-2.9-3.3-3.11-11.17-.48-19.83a43.89,43.89,0,0,1,1.88-5.07c-4.52-8.57-3.82-19.08-2.79-23.54.2-.86.35-1.67.48-2.43a35.7,35.7,0,0,1-7.37,8.66,64,64,0,0,1-1.61,14.29c-1.38,6.29-3.42,11.91-5.63,15.59,2.34,6.28,3.1,17,3.1,21.36a1.6,1.6,0,0,1-1.55,1.82c-1.09,0-1.36-.32-2-3a3.15,3.15,0,0,1-.85,2.44l-.42.36-.6,0c-1.19,0-1.6-.66-2.05-3.07-.33,2.78-.68,3.37-1.93,3.37h-.45l-.41-.26a1.85,1.85,0,0,1-.8-1.4c-.47,2.32-.81,2.51-1.84,2.51h-1.06l-.39-1.06c-.8-2.3-.61-10.37-.48-12.33.34-5.39,1.06-9.44,2.15-12.07-.69-4.42-.21-11.09,1.31-18s3.89-13.18,6.35-16.72c.43-4.64,2.38-10.63,5.4-16.53,3.74-7.3,8.38-13,12.22-15.07.85-1.12,1.75-2.17,2.71-3.27s1.93-2.23,2.88-3.47c-3.82-2.27-5.85-6.06-7.82-9.74s-3.69-6.9-6.94-8.51c-8.92-4.42-19.34-14.46-19.35-28.23,0-9,3.62-17.44,10.5-24.33,9.83-9.84,25.1-15.48,41.9-15.48h.79c28.6,0,51.61,17.46,52.4,39.75.56,16-14.63,25.68-19.29,28.26-3.28,1.8-5.06,5.11-7,8.6-2,3.65-4,7.41-7.86,9.68.95,1.24,1.92,2.37,2.87,3.46.72.82,1.4,1.61,2.05,2.42,4.84.14,11,8.07,15.07,15.93,3,5.9,5,11.89,5.4,16.53,2.46,3.54,4.82,9.74,6.35,16.72,1.63,7.45,2.06,14.64,1.14,19,2.43,6.23,3.22,17.22,3.22,21.68a1.84,1.84,0,0,1-.48,1.38l-.44.44h-.63c-1.09,0-1.36-.33-2-3a3.15,3.15,0,0,1-.85,2.44l-.41.36-.61,0c-1.19,0-1.6-.66-2-3.07-.34,2.78-.69,3.37-1.93,3.37h-.46l-.41-.26a1.85,1.85,0,0,1-.8-1.4c-.46,2.32-.81,2.51-1.83,2.51h-1.07l-.39-1.06c-.8-2.31-.6-10.37-.48-12.33a44.1,44.1,0,0,1,1.87-11.32,57,57,0,0,1-5.3-15,64,64,0,0,1-1.61-14.29c-3.24-2.54-6.84-7.25-9.85-12.91a24.73,24.73,0,0,0,.78,6.68c.82,3.53,3,15.58-2.33,24.9.5,1.24.94,2.48,1.31,3.71,2.63,8.66,2.42,16.53-.48,19.83l-3.33,10.36c.69.12,1.38.26,2,.42,7,1.65,12.51,5.35,13.85,9.21l.25.73-.45.69-.45.63-.71,0a2.39,2.39,0,0,1,.45,1,1.8,1.8,0,0,1-.35,1.46,2.11,2.11,0,0,1-1.75.76,5.73,5.73,0,0,1-1.37-.2,2.46,2.46,0,0,1,.1.47,2.27,2.27,0,0,1-.72,1.91C212.17,236.18,209.49,236.5,207.48,236.5Z"/><path class="cls-2" d="M181.65,36.31c28.11,0,50.15,17,50.9,38.32.48,13.52-11.3,22.9-18.52,26.89-7.7,4.25-7.8,15.47-16.34,19,2.17,3.15,4.54,5.45,6.49,8a3.33,3.33,0,0,1,.56,0c3.49,0,9.27,6.17,13.85,15.12,3.13,6.09,5,12.08,5.28,16.37,2.33,3.18,4.76,9.25,6.35,16.51,1.7,7.78,2,14.86,1,18.78,2.43,5.78,3.3,17,3.3,21.56q0,.33-.06.33c-.36,0-2.49-11.32-3.36-11.32L231,206c-.59,1.48.56,10.2-.32,10.94l0,0c-.68,0-1.56-10.86-2.34-10.86-.62,0-1.07,11.15-1.63,11.15h0c-.58-.39-.49-10.75-1-11.46l0,0c-.53,0-2,12.34-2.46,12.34l-.05-.05c-.64-1.87-.55-9.3-.39-11.75.28-4.51.9-8.79,2-11.54a53.28,53.28,0,0,1-5.48-15.22,60.41,60.41,0,0,1-1.56-14.71c-3.25-2.28-7.2-7.3-10.52-13.78-.49-1-.94-1.91-1.37-2.86-1,2.36-1.57,5.38-.16,11.49.95,4.12,2.79,15.86-2.54,24.44a44.51,44.51,0,0,1,1.55,4.27c2.52,8.33,2.27,16-.38,18.62l-4,12.37a31.34,31.34,0,0,1,3.67.63c6.58,1.57,11.65,5,12.78,8.25l-.11.09c-.92,0-7-2.77-8.16-2.77l-.19.08c-.08.33,8.32,4.6,7.44,5.71a.67.67,0,0,1-.57.19c-1.87,0-7.2-2.84-8.33-2.84l-.16,0c-.76.5,7.29,3.67,5.47,5.4-.37.35-2.1.83-4.62.83a23,23,0,0,1-6.85-1.08c-7.86-2.49-13.84-6.58-12.93-10.41a4.34,4.34,0,0,1,2.07-2.6l6.08-17.43a37,37,0,0,1-5.1-10.66,35.51,35.51,0,0,1-9.1,1.07h-.41a31.32,31.32,0,0,1-9.5-1.44l-.05.18a36.92,36.92,0,0,1-5.17,10.85l6.09,17.43a4.32,4.32,0,0,1,2.06,2.6c.91,3.83-5.06,7.92-12.92,10.41a23,23,0,0,1-6.85,1.08c-2.53,0-4.25-.48-4.62-.83-1.83-1.73,6.23-4.9,5.47-5.4l-.17,0c-1.12,0-6.45,2.84-8.32,2.84a.67.67,0,0,1-.57-.19c-.89-1.11,7.52-5.38,7.44-5.71l-.2-.08c-1.17,0-7.23,2.77-8.15,2.77l-.11-.09c1.13-3.28,6.2-6.68,12.78-8.25a31.34,31.34,0,0,1,3.67-.63l-4-12.37c-2.64-2.62-2.9-10.29-.37-18.62a43.08,43.08,0,0,1,2.12-5.57c-4.77-8.41-3.92-19.19-3-23.14a22.4,22.4,0,0,0,.65-8.63h0c-3.32,6.48-7.27,11.5-10.52,13.78a60.41,60.41,0,0,1-1.56,14.71c-1.47,6.72-3.66,12.42-5.83,15.76,2.41,5.79,3.27,16.93,3.27,21.51,0,.22,0,.33,0,.33-.36,0-2.49-11.32-3.37-11.32l-.16.17c-.59,1.48.56,10.2-.32,10.94l0,0c-.68,0-1.57-10.86-2.34-10.86s-1.08,11.15-1.64,11.15h0c-.57-.39-.48-10.75-1-11.46l0,0c-.53,0-2,12.34-2.47,12.34l0-.05c-.65-1.87-.55-9.3-.4-11.75.3-4.75,1-9.25,2.21-12-.73-4-.36-10.65,1.22-17.86s4-13.33,6.35-16.51c.31-4.29,2.15-10.28,5.28-16.37,3.79-7.42,8.41-12.91,11.87-14.59,2-2.72,4.54-5.11,6.85-8.45-8.54-3.58-8.67-15.25-16.35-19-8.05-4-18.5-13.36-18.51-26.89,0-22,22.79-38.32,50.9-38.32h.79m0-3h-.79c-17.19,0-32.85,5.8-43,15.92-7.17,7.18-11,16-10.94,25.39,0,14.46,10.88,25,20.18,29.57,2.83,1.4,4.43,4.4,6.29,7.87,1.75,3.26,3.67,6.86,7,9.37-.61.74-1.22,1.45-1.83,2.15-.86,1-1.75,2-2.58,3.1-4.08,2.33-8.72,8.06-12.55,15.55-3,5.9-5,11.92-5.52,16.68-2.49,3.75-4.84,10-6.36,16.93s-2,13.54-1.39,18.13a44,44,0,0,0-2.11,12.15c0,.1-.48,9.91.56,12.92l.7,2,2.17.06a2.77,2.77,0,0,0,2.29-1l.27.18H135a2.82,2.82,0,0,0,2.12-.83A3,3,0,0,0,139,220h1.1l.72-.59a2.62,2.62,0,0,0,2.08.77,3.08,3.08,0,0,0,3-3.32c0-4.31-.74-14.65-3-21.2a58,58,0,0,0,5.45-15.43,66.06,66.06,0,0,0,1.65-13.9,29.4,29.4,0,0,0,3.32-3.36c-.5,5.32-.16,13.18,3.2,20a48.2,48.2,0,0,0-1.66,4.59c-2.1,7-3.14,16.41.59,21l2.72,8.47-.45.1c-7.55,1.8-13.41,5.79-14.92,10.18l-.51,1.46.9,1.32a3.57,3.57,0,0,0,.45.5h0a3.36,3.36,0,0,0,.65,2.66,3.61,3.61,0,0,0,2.82,1.33,3.88,3.88,0,0,0,1.07,1.77c1.58,1.49,5.2,1.65,6.68,1.65a25.9,25.9,0,0,0,7.75-1.23c10.63-3.35,16.22-8.57,14.94-14a7,7,0,0,0-2.46-3.78l-5.28-15.12a39.45,39.45,0,0,0,3.84-7.84,36.82,36.82,0,0,0,7.53.81h.43a41.23,41.23,0,0,0,7.12-.58,40,40,0,0,0,3.75,7.61L187.26,219a6.94,6.94,0,0,0-2.46,3.78c-1.28,5.38,4.3,10.6,14.94,14a25.85,25.85,0,0,0,7.75,1.23c1.48,0,5.1-.16,6.68-1.66a3.8,3.8,0,0,0,1.07-1.76,3.56,3.56,0,0,0,2.81-1.33,3.32,3.32,0,0,0,.66-2.66h0a4.32,4.32,0,0,0,.45-.5l.89-1.26-.5-1.52c-1.52-4.39-7.37-8.38-14.92-10.18l-.45-.1,2.72-8.47c3.72-4.6,2.69-14.06.58-21-.32-1-.68-2.11-1.09-3.17,5-9.37,3.11-21,2.23-25a35.19,35.19,0,0,0,6,6.89,66,66,0,0,0,1.65,13.9,60.54,60.54,0,0,0,5.13,14.86,48.23,48.23,0,0,0-1.73,11.07c0,.1-.49,9.91.55,12.92l.7,2,2.18.06a2.75,2.75,0,0,0,2.28-1l.27.18h1a2.84,2.84,0,0,0,2.12-.83,2.93,2.93,0,0,0,1.85.53h1.11l.71-.59a2.63,2.63,0,0,0,2.08.77,3.08,3.08,0,0,0,3-3.32c0-4.46-.78-15.31-3.17-21.81.86-4.61.42-11.66-1.23-19.17-1.52-6.95-3.87-13.18-6.36-16.93-.51-4.76-2.5-10.78-5.52-16.68-3.76-7.34-10-15.85-15.63-16.68-.56-.67-1.13-1.33-1.68-2s-1.22-1.4-1.83-2.14c3.32-2.51,5.25-6.07,7-9.3s3.47-6.42,6.36-8a47.15,47.15,0,0,0,13-10.57c4.92-5.9,7.3-12.31,7.06-19C234.73,51.42,211.06,33.32,181.65,33.32Z"/><path class="cls-3" d="M200.34,165.93a39,39,0,0,0-18.73-5.11c-10.09,0-18.72,5.11-18.72,5.11s11.47-3.07,18.72-3.07S200.34,165.93,200.34,165.93Z"/><path class="cls-4" d="M189.56,110.94a13.38,13.38,0,0,1-16.41,0,13.35,13.35,0,0,1,16.41,0Z"/><path class="cls-2" d="M189.56,110.94l-.45-.6,0,0a14.44,14.44,0,0,1-7.72,2.64,13.12,13.12,0,0,1-5.48-1.34,16.11,16.11,0,0,1-1.68-.92l-.45-.3-.11-.08,0,0-.46.6.46.59,0,0a14.4,14.4,0,0,1,7.72-2.64,13,13,0,0,1,5.48,1.34,15.32,15.32,0,0,1,1.68.92l.45.3.11.08,0,0,.45-.59-.45-.6.45.6.46-.6a14.11,14.11,0,0,0-17.32,0l-.78.6.78.59a14.11,14.11,0,0,0,17.32,0l.78-.59-.78-.6Z"/><path class="cls-5" d="M161.1,94.59c-.69,0-1.38,0-2-.1-7.6-.73-13.27-10.12-14.65-12.61a30.07,30.07,0,0,1,14.2-4.06,19.82,19.82,0,0,1,2.05.1c7.6.73,13.27,10.11,14.65,12.61A30.07,30.07,0,0,1,161.1,94.59Z"/><path class="cls-2" d="M158.6,78.57h0q1,0,2,.09c6.69.65,11.9,8.51,13.7,11.59a29,29,0,0,1-13.18,3.59q-1,0-2-.09c-6.69-.65-11.9-8.51-13.7-11.59a28.92,28.92,0,0,1,13.18-3.59m0-1.5a30.8,30.8,0,0,0-15.19,4.53S149.74,94.34,159,95.24c.71.07,1.42.1,2.12.1a30.82,30.82,0,0,0,15.2-4.54S170,78.07,160.72,77.17C160,77.1,159.3,77.07,158.6,77.07Z"/><path class="cls-5" d="M202.56,94.55c-7,0-13-3.45-14.86-4.61,1.47-2.44,7.5-11.6,15.11-12q.62,0,1.23,0c7,0,13,3.44,14.86,4.6-1.47,2.45-7.5,11.61-15.12,12.06-.41,0-.81,0-1.22,0Z"/><path class="cls-2" d="M204,78.61a28.73,28.73,0,0,1,13.83,4.1c-1.91,3-7.42,10.66-14.13,11.06l-1.18,0a28.69,28.69,0,0,1-13.83-4.1c1.91-3,7.41-10.67,14.12-11.06l1.19,0m0-1.5c-.42,0-.85,0-1.27,0-9.27.55-16.08,13-16.08,13s7.16,5.12,15.87,5.12c.42,0,.84,0,1.27,0,9.27-.54,16.08-13,16.08-13S212.74,77.11,204,77.11Z"/><path class="cls-2" d="M179.53,102s-2,1.24-3.72.61-2.41-2.9-2.41-2.9,2-1.24,3.72-.61S179.53,102,179.53,102Z"/><path class="cls-2" d="M182.39,102s2,1.24,3.72.61,2.41-2.9,2.41-2.9-2-1.24-3.72-.61S182.39,102,182.39,102Z"/><path class="cls-3" d="M200.59,70.81s-8.19,6.91-18.72,6.91c-10.1,0-18.73-6.91-18.73-6.91S174.61,75,181.87,75,200.59,70.81,200.59,70.81Z"/><path class="cls-6" d="M151.8,237.27a28.48,28.48,0,0,1-8.41-1.33c-8.73-2.76-17.53-7.89-16.06-14.05a6.44,6.44,0,0,1,2.61-3.7l6.54-18.73a44,44,0,0,1-5.11-10.5,44.94,44.94,0,0,1-9.35.91h-.48a39.39,39.39,0,0,1-9.8-1.25,44.59,44.59,0,0,1-5.23,10.84L113,218.19a6.5,6.5,0,0,1,2.62,3.7c1.47,6.16-7.33,11.29-16.06,14.05a28.48,28.48,0,0,1-8.41,1.33c-2.31,0-5.4-.37-6.52-1.43a2.6,2.6,0,0,1-.84-2.2,3.37,3.37,0,0,1,.12-.55,6.2,6.2,0,0,1-1.58.24,2.45,2.45,0,0,1-2-.88,2.09,2.09,0,0,1-.41-1.68,2.89,2.89,0,0,1,.53-1.15h-.69l-.65-.76-.51-.72.29-.91c1.53-4.45,8-8.72,16-10.62q1.16-.29,2.37-.48l-3.85-11.95c-3.34-3.81-3.58-12.88-.55-22.86A50.47,50.47,0,0,1,95,175.47c-5.21-9.88-4.41-22-3.22-27.14.23-1,.41-1.92.56-2.81a41.51,41.51,0,0,1-8.5,10A73.36,73.36,0,0,1,82,172c-1.59,7.26-3.94,13.74-6.49,18,2.7,7.25,3.58,19.59,3.58,24.63a1.85,1.85,0,0,1-1.79,2.1c-1.26,0-1.57-.37-2.35-3.46-.08,1.51-.36,2.3-1,2.82l-.48.41-.7,0c-1.37,0-1.85-.77-2.36-3.55-.38,3.21-.79,3.89-2.22,3.89h-.53l-.47-.31a2.09,2.09,0,0,1-.92-1.6c-.54,2.67-.93,2.89-2.12,2.89H62.94l-.45-1.23c-.92-2.65-.69-12-.55-14.21.4-6.21,1.23-10.89,2.48-13.92-.79-5.09-.24-12.78,1.51-20.74s4.48-15.2,7.32-19.28c.5-5.35,2.75-12.26,6.23-19.05,4.31-8.42,9.66-15,14.08-17.39,1-1.29,2-2.5,3.14-3.77s2.22-2.56,3.32-4c-4.41-2.61-6.75-7-9-11.23-2.19-4.09-4.25-7.95-8-9.81C72.71,78.09,60.7,66.51,60.68,50.63c0-10.41,4.18-20.11,12.12-28.05C84.13,11.23,101.73,4.73,121.1,4.73H122c33,0,59.51,20.13,60.42,45.84.65,18.47-16.86,29.6-22.25,32.57-3.77,2.09-5.83,5.89-8,9.93-2.28,4.21-4.63,8.54-9.07,11.16,1.09,1.43,2.22,2.72,3.32,4,.82.94,1.6,1.85,2.36,2.79,5.58.15,12.73,9.3,17.37,18.37,3.48,6.79,5.73,13.7,6.23,19.05,2.84,4.08,5.56,11.23,7.32,19.28,1.88,8.59,2.37,16.88,1.31,21.88,2.81,7.18,3.72,19.86,3.72,25a2.12,2.12,0,0,1-.55,1.59l-.51.51h-.73c-1.26,0-1.57-.38-2.34-3.46-.09,1.51-.37,2.3-1,2.82l-.48.41-.69,0c-1.38,0-1.85-.77-2.37-3.55-.38,3.21-.78,3.89-2.22,3.89h-.53l-.47-.31a2.12,2.12,0,0,1-.92-1.6c-.53,2.67-.93,2.89-2.12,2.89H168.6l-.46-1.23c-.92-2.65-.69-12-.55-14.21a51,51,0,0,1,2.15-13.05,65.84,65.84,0,0,1-6.1-17.34,73.36,73.36,0,0,1-1.86-16.47c-3.73-2.93-7.89-8.36-11.36-14.89a28.8,28.8,0,0,0,.9,7.71c1,4.07,3.47,18-2.68,28.71.57,1.43,1.08,2.86,1.51,4.28,3,10,2.78,19.05-.56,22.86l-3.84,11.95c.8.13,1.59.29,2.36.48,8,1.9,14.43,6.17,16,10.62l.29.84-.52.79-.51.73-.83,0a2.7,2.7,0,0,1,.53,1.15,2.05,2.05,0,0,1-.41,1.68,2.41,2.41,0,0,1-2,.88,6.13,6.13,0,0,1-1.58-.24,3.35,3.35,0,0,1,.11.55,2.56,2.56,0,0,1-.83,2.2C157.2,236.9,154.11,237.27,151.8,237.27Z"/><path class="cls-2" d="M122,6.45c32.41,0,57.83,19.63,58.69,44.18.55,15.6-13,26.41-21.35,31-8.88,4.9-9,17.85-18.85,22,2.51,3.63,5.24,6.28,7.49,9.2a2.67,2.67,0,0,1,.64-.07c4,0,10.7,7.11,16,17.43,3.6,7,5.72,13.94,6.08,18.88,2.69,3.67,5.49,10.67,7.32,19,2,9,2.32,17.14,1.2,21.65C182,196.39,183,209.3,183,214.59c0,.26,0,.38-.06.38-.42,0-2.87-13.05-3.88-13.05l-.19.2c-.68,1.7.65,11.75-.36,12.61l-.06,0c-.79,0-1.81-12.52-2.7-12.52-.73,0-1.24,12.86-1.89,12.86h0c-.66-.44-.56-12.39-1.11-13.21l-.05,0c-.61,0-2.36,14.23-2.84,14.23l-.05-.06c-.75-2.16-.64-10.73-.46-13.54.33-5.21,1-10.14,2.33-13.32-2.36-3.91-4.71-10.21-6.32-17.55a69,69,0,0,1-1.79-17c-3.76-2.63-8.31-8.42-12.14-15.89-.57-1.11-1.08-2.2-1.57-3.3-1.13,2.72-1.82,6.21-.19,13.24,1.1,4.76,3.21,18.3-2.92,28.19.64,1.55,1.25,3.19,1.77,4.92,2.92,9.61,2.62,18.45-.43,21.47l-4.58,14.26a35.13,35.13,0,0,1,4.23.74c7.59,1.8,13.43,5.72,14.74,9.5l-.13.11c-1.06,0-8-3.2-9.4-3.2l-.22.09c-.1.38,9.59,5.3,8.58,6.59a.8.8,0,0,1-.66.22c-2.16,0-8.3-3.28-9.6-3.28l-.19,0c-.88.58,8.41,4.23,6.3,6.22-.43.41-2.41,1-5.33,1a26.38,26.38,0,0,1-7.89-1.26c-9.07-2.86-16-7.58-14.9-12a5,5,0,0,1,2.38-3l7-20.11a42.18,42.18,0,0,1-5.88-12.28A41.24,41.24,0,0,1,122,188.15h-.47a35.79,35.79,0,0,1-11-1.66l-.06.2a42.37,42.37,0,0,1-6,12.51l7,20.11a5,5,0,0,1,2.38,3c1,4.42-5.84,9.14-14.9,12a26.43,26.43,0,0,1-7.89,1.26c-2.92,0-4.91-.56-5.33-1-2.11-2,7.17-5.64,6.3-6.22l-.19,0c-1.3,0-7.44,3.28-9.6,3.28a.79.79,0,0,1-.66-.22c-1-1.29,8.67-6.21,8.58-6.59l-.22-.09c-1.35,0-8.34,3.2-9.4,3.2l-.13-.11c1.31-3.78,7.15-7.7,14.73-9.5a35.28,35.28,0,0,1,4.24-.74l-4.59-14.26c-3-3-3.34-11.86-.43-21.47a50.17,50.17,0,0,1,2.44-6.42c-5.49-9.7-4.51-22.13-3.46-26.69s1.14-7.61.76-10h0c-3.83,7.47-8.39,13.26-12.14,15.89a69,69,0,0,1-1.79,17c-1.7,7.76-4.22,14.33-6.73,18.18,2.78,6.67,3.78,19.52,3.78,24.8,0,.26,0,.38-.06.38-.42,0-2.88-13.05-3.88-13.05l-.19.2c-.68,1.7.64,11.75-.37,12.61l-.06,0c-.78,0-1.81-12.52-2.7-12.52-.72,0-1.24,12.86-1.88,12.86h0c-.66-.44-.56-12.39-1.11-13.21l0,0c-.6,0-2.35,14.23-2.84,14.23l0-.06c-.74-2.16-.64-10.73-.46-13.54.35-5.48,1.11-10.67,2.55-13.81-.85-4.67-.41-12.28,1.41-20.59s4.63-15.37,7.32-19c.36-4.94,2.48-11.85,6.08-18.88,4.37-8.54,9.7-14.88,13.69-16.81,2.32-3.14,5.23-5.89,7.9-9.75-9.85-4.12-10-17.59-18.85-22-9.29-4.6-21.33-15.39-21.35-31,0-25.42,26.28-44.18,58.69-44.18H122M122,3h-.91C101.28,3,83.23,9.69,71.57,21.36,63.31,29.63,58.94,39.76,59,50.63c0,16.67,12.55,28.79,23.27,34.1,3.25,1.61,5.11,5.07,7.25,9.08,2,3.75,4.23,7.9,8,10.8-.71.85-1.42,1.67-2.11,2.47-1,1.15-2,2.34-3,3.58-4.7,2.69-10,9.3-14.47,17.93-3.48,6.8-5.77,13.74-6.36,19.23-2.87,4.32-5.58,11.51-7.34,19.52s-2.31,15.61-1.6,20.9c-1.22,3.22-2,7.92-2.42,14,0,.11-.56,11.42.64,14.89l.8,2.32,2.51.06a3.14,3.14,0,0,0,2.63-1.2l.32.22h1.09a3.23,3.23,0,0,0,2.44-1,3.44,3.44,0,0,0,2.14.61h1.27l.83-.68a3,3,0,0,0,2.4.89,3.56,3.56,0,0,0,3.52-3.83c0-5-.85-16.89-3.41-24.45a67.32,67.32,0,0,0,6.28-17.78,76.77,76.77,0,0,0,1.9-16,33.45,33.45,0,0,0,3.83-3.87c-.58,6.12-.19,15.19,3.69,23.07a50.25,50.25,0,0,0-1.91,5.28c-2.43,8-3.62,18.93.67,24.23L95,214.81c-.18,0-.35.08-.53.12C85.77,217,79,221.6,77.27,226.66l-.58,1.69,1,1.51a3.21,3.21,0,0,0,.52.58v0a3.81,3.81,0,0,0,.75,3.06,4.11,4.11,0,0,0,3.25,1.54,4.43,4.43,0,0,0,1.23,2c1.82,1.72,6,1.91,7.71,1.91a30,30,0,0,0,8.93-1.42c12.26-3.86,18.7-9.88,17.22-16.09a8,8,0,0,0-2.84-4.35l-6.08-17.43a46.19,46.19,0,0,0,4.43-9.05,42.05,42.05,0,0,0,8.68.94h.5a47.55,47.55,0,0,0,8.21-.67,45.15,45.15,0,0,0,4.32,8.78l-6.08,17.43a8,8,0,0,0-2.83,4.35c-1.48,6.21,5,12.23,17.22,16.09A29.94,29.94,0,0,0,151.8,239c1.71,0,5.89-.19,7.71-1.91a4.43,4.43,0,0,0,1.23-2,4.13,4.13,0,0,0,3.25-1.54,3.81,3.81,0,0,0,.75-3.06v0a3.21,3.21,0,0,0,.52-.58l1-1.45-.58-1.75c-1.75-5.06-8.5-9.66-17.2-11.73-.17,0-.34-.09-.52-.12l3.14-9.77c4.29-5.3,3.1-16.21.67-24.23-.37-1.21-.79-2.43-1.26-3.64,5.75-10.81,3.58-24.16,2.57-28.78a41,41,0,0,0,6.94,7.94,76.77,76.77,0,0,0,1.9,16,69.61,69.61,0,0,0,5.92,17.13,56,56,0,0,0-2,12.77c0,.11-.56,11.42.64,14.89l.81,2.32,2.51.06a3.17,3.17,0,0,0,2.63-1.2l.31.22h1.09a3.27,3.27,0,0,0,2.45-1,3.4,3.4,0,0,0,2.14.61h1.27l.82-.68a3,3,0,0,0,2.4.89,3.56,3.56,0,0,0,3.52-3.83c0-5.14-.91-17.65-3.66-25.15,1-5.31.49-13.44-1.41-22.1-1.76-8-4.47-15.2-7.34-19.52-.59-5.49-2.88-12.43-6.36-19.23-4.34-8.46-11.52-18.27-18-19.24-.64-.77-1.3-1.52-1.94-2.26s-1.4-1.62-2.1-2.47c3.82-2.89,6-7,8.07-10.73s4-7.4,7.33-9.24a53.87,53.87,0,0,0,15-12.18c5.68-6.8,8.43-14.19,8.15-22C183.22,23.87,155.92,3,122,3Z"/><path class="cls-7" d="M143.56,155.9A45,45,0,0,0,122,150c-11.63,0-21.59,5.89-21.59,5.89s13.23-3.53,21.59-3.53S143.56,155.9,143.56,155.9Z"/><path class="cls-4" d="M131.14,92.5a17.42,17.42,0,0,1-9.46,3.24,17.38,17.38,0,0,1-9.46-3.24,17.35,17.35,0,0,1,9.46-3.25A17.39,17.39,0,0,1,131.14,92.5Z"/><path class="cls-2" d="M131.14,92.5l-.53-.69,0,0a16.55,16.55,0,0,1-8.9,3,15,15,0,0,1-6.32-1.54,18.69,18.69,0,0,1-1.94-1.07l-.51-.34-.13-.09,0,0-.52.69.52.68,0,0a16.52,16.52,0,0,1,8.9-3A15.19,15.19,0,0,1,128,91.65a17.39,17.39,0,0,1,1.93,1.07c.23.14.4.26.52.34l.13.1,0,0,.53-.68-.53-.69.53.69.52-.69a18.18,18.18,0,0,0-10-3.42,18.23,18.23,0,0,0-10,3.42l-.89.69.89.68a18.2,18.2,0,0,0,10,3.43,18.15,18.15,0,0,0,10-3.43l.9-.68-.9-.69Z"/><path class="cls-5" d="M98.32,73.64A23.22,23.22,0,0,1,96,73.53C87.19,72.68,80.66,61.87,79.06,59c2.08-1.21,8.73-4.68,16.38-4.68.8,0,1.59,0,2.36.11,8.76.85,15.3,11.67,16.89,14.55C112.61,70.17,106,73.64,98.32,73.64Z"/><path class="cls-2" d="M95.44,55.17h0c.77,0,1.53,0,2.28.11,7.72.75,13.73,9.81,15.8,13.36a33.44,33.44,0,0,1-15.2,4.14c-.77,0-1.54,0-2.28-.11-7.72-.74-13.73-9.81-15.8-13.36a33.4,33.4,0,0,1,15.2-4.14m0-1.72c-9.6,0-17.52,5.22-17.52,5.22s7.3,14.69,18,15.72c.83.08,1.64.12,2.45.12,9.59,0,17.52-5.23,17.52-5.23s-7.3-14.69-18-15.72C97.06,53.48,96.24,53.45,95.44,53.45Z"/><path class="cls-5" d="M146.12,73.6c-8.05,0-15-4-17.14-5.31,1.71-2.82,8.66-13.38,17.43-13.9.48,0,1,0,1.42,0,8.06,0,15,4,17.14,5.32-1.71,2.81-8.66,13.38-17.43,13.89-.48,0-.95,0-1.41,0Z"/><path class="cls-2" d="M147.83,55.22c7.07,0,13.3,3.17,15.94,4.73-2.2,3.47-8.55,12.29-16.29,12.75-.45,0-.91,0-1.36,0-7.07,0-13.3-3.17-16-4.74,2.21-3.47,8.55-12.29,16.29-12.74.46,0,.91,0,1.37,0m0-1.73c-.49,0-1,0-1.47,0-10.68.63-18.54,15-18.54,15s8.26,5.9,18.3,5.9c.49,0,1,0,1.47,0,10.68-.62,18.53-15,18.53-15S157.87,53.49,147.83,53.49Z"/><path class="cls-2" d="M119.57,82.24s-2.34,1.43-4.29.7-2.78-3.34-2.78-3.34,2.34-1.43,4.29-.7S119.57,82.24,119.57,82.24Z"/><path class="cls-2" d="M122.87,82.24s2.34,1.43,4.29.7,2.77-3.34,2.77-3.34-2.34-1.43-4.29-.7S122.87,82.24,122.87,82.24Z"/><path class="cls-7" d="M143.85,46.23s-9.44,8-21.59,8c-11.64,0-21.59-8-21.59-8S113.89,51,122.26,51,143.85,46.23,143.85,46.23Z"/></svg>