<?xml version="1.0" encoding="UTF-8"?>
<svg id="_レイヤー_1" data-name="レイヤー_1" xmlns="http://www.w3.org/2000/svg" viewBox="0 0 660 660">
  <defs>
    <style>
      .cls-1 {
        fill: #4742c2;
      }

      .cls-2 {
        fill: #fff;
      }

      .cls-3 {
        fill: #dadaea;
      }

      .cls-4 {
        fill: #ebebf7;
      }
    </style>
  </defs>
  <g>
    <path class="cls-4" d="M573.86,573.07c-5.91-.04-11.78-.97-17.41-2.77-18.06-5.58-36.21-16.32-33.23-29.05.85-3.08,2.77-5.75,5.41-7.54l13.52-38.74c-4.47-6.74-8.02-14.05-10.57-21.73-6.36,1.3-12.85,1.93-19.34,1.88h-1c-6.84-.01-13.65-.88-20.27-2.6-2.58,7.94-6.22,15.49-10.83,22.45l13.52,38.74c2.67,1.81,4.6,4.53,5.41,7.66,3.03,12.74-15.17,23.38-33.23,29.05-5.62,1.8-11.49,2.73-17.39,2.77-4.77,0-11.19-.76-13.5-2.96-1.26-1.16-1.9-2.85-1.72-4.56.04-.38.12-.76.24-1.12-1.07.29-2.16.45-3.27.48-1.6.1-3.16-.57-4.17-1.81-.78-.98-1.09-2.26-.83-3.48.17-.87.53-1.69,1.07-2.39h-1.46l-1.34-1.57-1.05-1.5.57-1.88c3.2-9.21,16.48-18.03,33.04-21.97,1.6-.38,3.22-.72,4.77-1l-7.8-24.81c-6.92-7.87-7.42-26.64-1.14-47.3,1.26-4.12,2.75-8.15,4.48-12.09-10.76-20.44-9.11-45.51-6.65-56.15.48-2.05.86-3.98,1.14-5.8-4.72,7.78-10.65,14.75-17.58,20.66.02,11.47-1.27,22.91-3.84,34.09-3.29,15-8.16,28.41-13.43,37.19,5.58,14.98,7.42,40.55,7.42,50.95.29,2.09-1.17,4.02-3.25,4.31-.15.02-.31.03-.47.04-2.6,0-3.24-.76-4.77-7.16.18,2.14-.55,4.25-2,5.82l-1,.86h-1.46c-2.84,0-3.82-1.57-4.77-7.32-.79,6.63-1.62,8.04-4.6,8.04h-1.26l-.98-.62c-1.11-.76-1.82-1.99-1.91-3.34-1.1,5.53-1.91,5.99-4.37,5.99h-2.55l-.98-2.48c-1.91-5.49-1.43-24.74-1.14-29.41.81-12.86,2.55-22.52,5.13-28.79-1.65-10.54-.48-26.45,3.12-42.94,3.6-16.48,9.28-31.44,15.15-39.88,1.03-11.07,5.7-25.36,12.88-39.43,8.92-17.41,19.99-31.01,29.15-35.95,2.03-2.67,4.2-5.18,6.46-7.8,2.27-2.62,4.6-5.32,6.87-8.28-9.11-5.41-13.95-14.45-18.63-23.23s-8.83-16.46-16.58-20.3c-21.21-10.52-46.06-34.47-46.11-67.31,0-21.47,8.63-41.6,25.07-58.03,23.45-23.47,59.85-36.92,99.92-36.92h1.88c68.22,0,123.11,41.65,124.99,94.82,1.34,38.16-34.87,61.25-46.01,67.41-7.8,4.29-12.07,12.19-16.7,20.51-4.77,8.71-9.54,17.68-18.75,23.09,2.27,2.96,4.58,5.65,6.87,8.25,1.69,1.96,3.32,3.84,4.77,5.77,11.57.33,26.24,19.25,35.95,38,7.16,14.07,11.93,28.36,12.88,39.43,5.87,8.44,11.5,23.23,15.15,39.88,3.91,17.77,4.91,34.92,2.72,45.32,5.8,14.86,7.7,41.07,7.7,51.71.09,1.21-.33,2.4-1.14,3.29l-1.05,1.05h-1.53c-2.6,0-3.24-.79-4.77-7.16-.17,3.12-.74,4.77-2,5.82l-1,.86h-1.43c-2.84,0-3.84-1.57-4.77-7.32-.79,6.63-1.65,8.04-4.6,8.04h-1.1l-.98-.62c-1.11-.77-1.8-2-1.88-3.34-1.12,5.53-1.93,5.99-4.39,5.99h-2.65l-.93-2.53c-1.91-5.51-1.43-24.74-1.14-29.41.3-9.16,1.8-18.23,4.46-27-5.87-11.27-10.12-23.32-12.62-35.78-2.57-11.18-3.87-22.61-3.86-34.09-7.73-6.06-16.32-17.29-23.5-30.79-.11,5.37.52,10.73,1.86,15.93,1.96,8.42,7.16,37.16-5.53,59.39,1.17,2.96,2.22,5.92,3.1,8.85,6.27,20.66,5.77,39.43-1.14,47.3l-7.94,24.71c1.67.29,3.29.62,4.77,1,16.7,3.94,29.84,12.76,33.04,21.97l.6,1.74-1.07,1.65-1.07,1.5h-1.69c.53.71.91,1.52,1.1,2.39.23,1.23-.08,2.5-.86,3.48-1.02,1.24-2.57,1.92-4.17,1.81-1.1-.03-2.2-.19-3.27-.48.12.37.2.74.24,1.12.19,1.71-.45,3.4-1.72,4.56-2.1,2.17-8.49,2.93-13.26,2.93Z"/>
    <path class="cls-3" d="M556.81,404.74c-13.62-7.76-28.98-11.95-44.65-12.19-24.09,0-44.68,12.19-44.68,12.19,0,0,27.36-7.32,44.68-7.32s44.65,7.32,44.65,7.32Z"/>
    <path class="cls-3" d="M531.12,273.57c-5.73,4.1-12.54,6.43-19.58,6.7-7.04-.27-13.84-2.6-19.56-6.7,5.72-4.12,12.52-6.46,19.56-6.73,7.05.28,13.86,2.61,19.58,6.73Z"/>
    <path class="cls-3" d="M463.21,234.57c-1.65,0-3.29,0-4.89-.24-18.13-1.74-31.65-24.14-34.94-30.08,10.31-5.99,21.95-9.32,33.87-9.68,1.64,0,3.28.07,4.91.24,18.1,1.74,31.63,24.12,34.92,30.08-10.31,5.99-21.95,9.32-33.87,9.68Z"/>
    <path class="cls-3" d="M562.1,234.48c-16.7,0-31.01-8.23-35.45-11,3.51-5.82,17.89-27.67,36.04-28.62h2.93c16.7,0,31.01,8.21,35.45,10.97-3.51,5.84-17.89,27.69-36.04,28.77h-2.93v-.12Z"/>
    <path class="cls-3" d="M557.41,177.85s-19.54,16.48-44.65,16.48-44.68-16.48-44.68-16.48c0,0,27.36,9.99,44.68,9.99s44.65-9.99,44.65-9.99Z"/>
    <path class="cls-1" d="M645,526.73v-.16s0,0,0,0c0-.13,0-.25-.02-.38v-.04c0-10.58-1.87-36.47-7.53-51.84l-.02-.29c.69-3.64,1.03-7.95,1.03-12.74,0-9.5-1.34-20.9-3.93-32.77-3.64-16.53-9.24-31.35-15.12-40.2l-.09-.24c-1.2-11.26-5.93-25.57-13.11-39.6-4.45-8.72-10.4-18.14-16.89-25.61-6.48-7.47-13.51-12.95-19.99-13.89-.13-.02-.25-.09-.34-.19-1.33-1.59-2.69-3.17-4.01-4.77-1.3-1.58-2.9-3.32-4.36-5.1-.09-.11-.14-.26-.12-.41s.09-.28.21-.37c7.8-5.9,12.38-14.3,16.55-22.01,4.18-7.7,8.32-15.41,15.38-19.3,11.7-6.45,22.15-14.95,30.86-25.09h0c11.15-13.38,16.77-27.81,16.77-42.86,0-.69-.01-1.39-.04-2.09h0c-.96-27.4-15.46-51.84-38.48-69.45-23.02-17.61-54.56-28.37-89.53-28.37-.04,0-.08-.01-.13-.02h-1.64c-40.88,0-78.1,13.8-102.07,37.82-17.01,17.04-26.08,37.93-26.08,60.18,0,17.11,6.44,31.9,15.65,43.78,9.21,11.88,21.19,20.85,32.21,26.27h0c3.47,1.72,6.17,4.42,8.55,7.7,2.38,3.28,4.45,7.16,6.66,11.3h0c4.17,7.78,8.72,16.28,16.55,22.17.12.09.19.22.21.37.02.15-.03.29-.12.41-1.46,1.77-2.94,3.47-4.37,5.14h0c-2.08,2.39-4.19,4.77-6.15,7.37l-.16.14c-9.57,5.45-20.62,19.06-29.72,36.87-7.13,14.03-11.88,28.34-13.11,39.6l-.09.24c-5.88,8.85-11.48,23.72-15.09,40.2-2.6,11.84-3.92,23.29-3.92,32.82,0,3.74.2,7.18.61,10.24l-.02.24c-3.07,9.33-4.81,19.04-5.17,28.86h0v.09s-.01.2-.01.2c0,.17-.02.42-.03.73-.02.63-.06,1.52-.09,2.61-.07,2.18-.13,5.14-.13,8.35,0,3.48.08,7.24.31,10.58.23,3.34.64,6.29,1.26,8.06h0s1.55,4.42,1.55,4.42l4.83.13h.02c.11,0,.23.01.34.01,1.79,0,3.5-.8,4.65-2.2.18-.21.49-.26.72-.11l.51.34h2.24s.24,0,.24,0c1.65,0,3.24-.65,4.42-1.83.19-.19.48-.21.7-.06,1.1.78,2.41,1.2,3.75,1.2.14,0,.27,0,.41-.01h.03s2.43,0,2.43,0l1.57-1.28c.22-.18.53-.16.73.04,1.08,1.09,2.55,1.7,4.07,1.7.15,0,.31,0,.46-.02h.03c3.7-.09,6.65-3.12,6.65-6.8v-.16s0,0,0,0c0-.13,0-.25-.02-.38v-.04c0-10.22-1.75-34.89-7.01-50.39-.05-.14-.03-.29.03-.42,6.01-11.55,10.36-23.9,12.93-36.66h0c2.45-10.88,3.73-21.98,3.83-33.13,0-.16.07-.3.19-.4,2.83-2.44,5.46-5.1,7.86-7.95.15-.18.4-.24.62-.15.22.09.35.31.33.55-.27,2.89-.44,6.11-.44,9.53,0,11.52,1.89,25.45,8.02,37.88.07.14.07.3.01.45-1.5,3.56-2.81,7.2-3.92,10.89-2.6,8.62-4.51,18.8-4.51,28.08,0,8.6,1.65,16.41,5.79,21.52l.09.17,6.58,20.2c.05.15.03.3-.04.44s-.2.23-.35.26l-1.07.24c-8.95,2.13-16.88,5.56-23,9.74-6.13,4.18-10.44,9.11-12.19,14.19l-1.11,3.23,1.96,2.91c.31.4.65.78,1.01,1.12.13.13.19.31.16.49-.08.45-.12.89-.12,1.34,0,1.64.54,3.25,1.56,4.57,1.53,1.88,3.83,2.97,6.25,2.97h.05c.24,0,.46.16.52.39.43,1.52,1.26,2.89,2.4,3.97,1.74,1.65,4.75,2.64,7.78,3.16,3.02.53,6.04.63,7.78.63,6.22-.03,12.4-1.01,18.33-2.91,11.44-3.6,20.4-8.11,26.47-13.13,6.07-5.02,9.22-10.5,9.22-16.09,0-1.17-.14-2.34-.42-3.53-.89-3.42-2.88-6.45-5.67-8.62-.08-.06-.14-.15-.18-.25l-12.57-36.07c-.05-.15-.03-.33.05-.47,3.7-5.85,6.74-12.08,9.08-18.59.09-.25.36-.4.62-.35,5.87,1.25,11.85,1.9,17.85,1.92h1.05c.17,0,.35,0,.52,0,5.49,0,10.96-.46,16.37-1.38.26-.04.51.1.6.35,2.3,6.32,5.28,12.37,8.89,18.05.09.14.11.31.05.47l-12.59,36.07-.18.25c-2.8,2.2-4.8,5.27-5.68,8.72-.28,1.17-.42,2.34-.42,3.5,0,5.54,3.15,11.01,9.22,16.04,6.07,5.02,15.03,9.56,26.47,13.22,5.93,1.89,12.1,2.86,18.32,2.88,1.75,0,4.76-.1,7.78-.63,3.02-.53,6.04-1.52,7.78-3.18h0c1.15-1.07,1.98-2.44,2.4-3.95.07-.23.28-.4.52-.4h.05c2.42,0,4.72-1.09,6.25-2.97,1.02-1.32,1.56-2.93,1.56-4.57,0-.45-.04-.89-.12-1.34-.03-.18.03-.37.17-.49.37-.34.71-.71,1.01-1.12l1.98-2.77-1.13-3.36c-1.74-5.08-6.05-10-12.18-14.18-6.13-4.18-14.07-7.61-23.02-9.74l-1.07-.24c-.15-.03-.28-.13-.35-.26-.08-.13-.09-.29-.05-.43l6.51-20.2.09-.17c4.14-5.11,5.79-12.95,5.79-21.55,0-9.3-1.91-19.49-4.5-28.04-.76-2.38-1.64-5.02-2.59-7.53-.06-.15-.04-.31.03-.45,6.07-11.37,7.85-24.2,7.85-35.27,0-10.48-1.59-19.38-2.6-23.99-.06-.25.08-.51.32-.61.24-.1.52-.02.66.2,4.02,6.03,8.8,11.52,14.22,16.33.11.1.18.24.18.4.14,11.12,1.46,22.2,3.92,33.04h0c2.51,12.26,6.61,24.13,12.19,35.32.06.12.07.26.04.39-2.39,8.57-3.76,17.39-4.11,26.28h0v.09s-.01.2-.01.2c0,.17-.02.42-.03.74-.03.63-.06,1.53-.09,2.63-.07,2.2-.14,5.19-.14,8.43,0,3.46.08,7.2.32,10.53.24,3.32.64,6.24,1.26,8h0s1.52,4.42,1.52,4.42l4.83.13h.02c.11,0,.23.01.34.01,1.79,0,3.5-.8,4.65-2.2.18-.21.49-.26.72-.11l.51.34h2.24s.24,0,.24,0c1.65,0,3.24-.65,4.41-1.83.19-.19.48-.21.69-.06,1.09.77,2.39,1.18,3.72,1.18.12,0,.25,0,.37-.01h.03s2.43,0,2.43,0l1.54-1.28c.22-.18.53-.16.73.03,1.09,1.09,2.56,1.7,4.08,1.7.16,0,.32,0,.47-.02h.03c3.7-.09,6.65-3.12,6.65-6.8ZM638.83,526.67c0,.13-.01.24-.05.39-.03.09-.07.24-.25.37-.1.07-.24.12-.35.11-.15,0-.26-.06-.34-.1l-.15-.14-.16-.25c-.08-.17-.16-.37-.25-.62-.17-.5-.37-1.2-.6-2.06-.45-1.72-1.01-4.07-1.63-6.64-1.22-5.14-2.66-11.15-3.84-14.6-.32-.94-.62-1.69-.88-2.14-.07.31-.12.7-.16,1.16-.06.75-.09,1.68-.09,2.72,0,4.48.49,11.09.49,15.86,0,2.23-.1,4.04-.45,5.16-.12.37-.27.69-.55.94-.1.08-.22.13-.35.13-.16,0-.3-.06-.4-.12-.1-.07-.17-.14-.23-.22-.12-.15-.2-.31-.29-.51-.16-.38-.31-.89-.46-1.51-.3-1.24-.61-2.94-.92-4.88-.63-3.88-1.28-8.71-1.93-12.53-.43-2.54-.87-4.66-1.26-5.67-.02-.06-.05-.1-.07-.16-.11.29-.22.72-.33,1.25-.25,1.21-.48,2.94-.69,4.92-.43,3.96-.8,8.92-1.18,12.87-.25,2.64-.5,4.81-.79,6-.08.32-.16.58-.28.8-.07.11-.14.23-.31.35-.09.06-.21.1-.35.1-.11,0-.22-.03-.31-.09-.21-.16-.28-.32-.36-.49-.07-.17-.13-.36-.18-.59-.11-.45-.19-1.02-.27-1.72-.16-1.38-.29-3.22-.4-5.29-.22-4.13-.38-9.17-.6-13.11-.11-1.98-.24-3.69-.39-4.85-.05.18-.09.38-.14.59-.31,1.36-.67,3.28-1.04,5.47-.75,4.39-1.58,9.88-2.32,14.25-.49,2.92-.94,5.32-1.3,6.62-.1.35-.19.62-.3.84-.06.11-.12.22-.27.35-.08.06-.21.13-.38.13-.14,0-.28-.06-.38-.16-.1-.1-.16-.24-.16-.38v-.04c-.49-1.48-.77-4-.97-7.03-.19-3.1-.26-6.7-.26-10.13,0-4.48.12-8.65.28-10.98h0c.67-10.66,2.11-20.77,4.72-27.44-4.77-8.2-9.68-21.15-13-36.23h0c-2.48-10.66-3.74-21.57-3.74-32.5,0-.81,0-1.62.02-2.43-7.85-5.6-17.18-17.53-25.06-32.89h0c-.97-1.99-1.87-3.82-2.73-5.69-1.11,2.92-1.9,6.31-1.9,10.98,0,3.93.56,8.76,1.99,14.93h0c1.13,4.65,2.67,13.31,2.67,23.33,0,11.24-1.94,24.2-8.63,35.14,1.3,3.16,2.52,6.48,3.59,9.98,2.85,9.38,4.22,18.41,4.22,26.02,0,4.3-.44,8.15-1.31,11.37-.85,3.15-2.12,5.7-3.84,7.45l-9.31,28.77c2.74.33,5.47.8,8.16,1.43h0c7.9,1.89,14.9,4.89,20.29,8.41,5.38,3.53,9.16,7.56,10.58,11.62.07.21,0,.45-.17.6l-.26.21c-.1.08-.22.12-.34.12-.35,0-.75-.1-1.28-.24-.52-.15-1.15-.35-1.86-.6-1.42-.5-3.16-1.17-4.99-1.88-3.65-1.42-7.66-3-9.92-3.62-.13-.04-.25-.07-.37-.09.03.02.05.03.08.05.79.51,1.92,1.19,3.22,1.97,2.59,1.56,5.85,3.51,8.52,5.36,1.78,1.24,3.3,2.42,4.22,3.46.52.6.89,1.15.9,1.8,0,.28-.09.57-.28.79l-.04.04c-.4.41-.95.63-1.51.63-.1,0-.2,0-.31-.02h0c-1.08-.02-2.44-.35-4.01-.85-1.6-.51-3.38-1.21-5.18-1.94-3.58-1.46-7.22-3.08-9.3-3.71-.29-.09-.55-.16-.77-.2.09.07.17.13.27.21.59.43,1.46.97,2.45,1.56,1.99,1.2,4.51,2.65,6.59,4.16,1.39,1.01,2.58,2.03,3.31,3.08.41.6.69,1.23.69,1.89,0,.64-.28,1.26-.82,1.76-.33.3-.79.53-1.43.78-.64.24-1.45.46-2.41.66-1.93.4-4.5.69-7.55.69-5.6-.03-11.16-.91-16.5-2.6-13.16-4.18-24.14-10.18-28.92-16.72-1.59-2.18-2.5-4.45-2.5-6.74,0-.67.08-1.34.24-2.01v-.02c.76-2.71,2.56-5.01,4.99-6.41l14.38-41.14c-5.27-7.61-9.29-16-11.93-24.86-6.65,1.63-13.47,2.46-20.31,2.46-.34,0-.69,0-1.03,0h-1.25c-7.47,0-14.89-1.12-22.03-3.3-2.65,9.17-6.78,17.86-12.2,25.71l14.35,41.14c2.43,1.41,4.23,3.7,5.01,6.41v.02c.16.66.24,1.32.24,1.99,0,2.29-.91,4.56-2.5,6.75-1.59,2.19-3.88,4.3-6.7,6.32-5.65,4.02-13.45,7.64-22.24,10.42,0,0,0,0,0,0h0c-5.43,1.76-11.1,2.67-16.81,2.7-4.56,0-8.05-.64-9.96-1.35-.64-.24-1.1-.47-1.43-.78-.53-.49-.81-1.12-.81-1.75,0-.9.5-1.73,1.2-2.54.71-.81,1.66-1.61,2.74-2.39,2.15-1.57,4.78-3.08,6.82-4.31,1.08-.65,2-1.23,2.55-1.66-.44.09-1.03.26-1.73.52-1.07.38-2.39.91-3.82,1.51-2.86,1.19-6.18,2.62-9,3.58-1.85.63-3.47,1.06-4.7,1.08h0s-.05,0-.07,0c0,0,0,0,0,0h0c-.08,0-.15.02-.23.02-.56,0-1.11-.22-1.51-.63l-.04-.05c-.18-.22-.27-.51-.27-.79,0-.45.19-.84.46-1.24.27-.4.64-.8,1.09-1.23.9-.85,2.12-1.78,3.5-2.74,2.76-1.92,6.17-3.95,8.82-5.55,1.25-.75,2.33-1.41,3.08-1.9-.04.01-.08.02-.13.03-.54.14-1.19.33-1.92.58-1.46.49-3.25,1.16-5.09,1.87-3.69,1.42-7.59,3-9.78,3.65-.64.18-1.11.3-1.5.31-.13,0-.25-.04-.34-.12l-.26-.21c-.18-.14-.24-.38-.17-.6,1.43-4.09,5.21-8.13,10.59-11.64,5.38-3.51,12.38-6.5,20.28-8.38h0c2.69-.63,5.42-1.1,8.16-1.43l-9.31-28.77c-1.72-1.75-2.99-4.3-3.85-7.46-.87-3.22-1.31-7.07-1.31-11.37,0-7.62,1.38-16.65,4.21-26.02,1.36-4.48,3.02-8.85,4.97-13.11-6.84-12.2-8.79-26.38-8.79-37.78,0-7.49.84-13.79,1.71-17.56v-.02c1.28-4.63,1.92-9.41,1.92-14.19,0-1.46-.08-2.91-.2-4.37-7.69,14.57-16.65,25.86-24.2,31.26.01.73.02,1.46.02,2.19,0,11.02-1.26,22-3.75,32.74h0c-3.39,15.86-8.58,29.42-13.76,37.46,2.85,6.98,4.77,16.97,6,26.61,1.24,9.76,1.76,19.15,1.76,24.64,0,.37,0,.61-.09.87-.03.09-.07.2-.22.33-.09.07-.23.13-.37.13-.16,0-.27-.06-.34-.11l-.15-.14-.15-.25c-.08-.17-.16-.37-.24-.62-.17-.5-.37-1.2-.59-2.06-.45-1.72-1.01-4.07-1.62-6.64-1.22-5.14-2.66-11.15-3.84-14.6-.33-.98-.65-1.76-.91-2.21-.04-.07-.08-.12-.11-.18-.11.32-.2.84-.25,1.5-.06.75-.09,1.68-.09,2.72,0,4.48.49,11.09.49,15.86,0,2.23-.1,4.04-.45,5.16-.1.29-.22.53-.39.74h0c-.05.27-.27.45-.53.45-.16,0-.3-.06-.4-.12-.1-.07-.17-.14-.23-.22-.12-.15-.2-.31-.29-.51-.16-.38-.31-.89-.46-1.51-.3-1.24-.61-2.94-.92-4.88-.63-3.88-1.28-8.71-1.93-12.53-.43-2.54-.87-4.66-1.26-5.67,0-.02-.01-.03-.02-.05-.08.29-.17.67-.25,1.13-.22,1.22-.44,2.95-.66,4.93-.43,3.96-.84,8.92-1.25,12.87-.28,2.64-.55,4.81-.86,6-.08.32-.16.58-.28.8-.07.11-.14.23-.31.34-.09.05-.21.1-.35.1-.11,0-.22-.03-.31-.09-.21-.16-.28-.32-.36-.49-.07-.17-.13-.36-.18-.59-.11-.45-.19-1.02-.27-1.72-.16-1.38-.29-3.22-.4-5.29-.22-4.13-.38-9.17-.6-13.11-.11-1.98-.24-3.69-.39-4.85-.05.18-.09.38-.14.59-.31,1.36-.67,3.28-1.04,5.47-.75,4.39-1.58,9.88-2.31,14.25-.49,2.92-.93,5.32-1.29,6.61-.1.35-.19.62-.29.84-.06.11-.11.22-.27.35-.08.06-.21.13-.38.13-.14,0-.28-.06-.38-.16l-.12-.12-.13-.21c-.49-1.46-.78-4.01-.98-7.09-.19-3.08-.26-6.67-.26-10.08,0-4.51.13-8.72.28-11.06.72-11.28,2.36-21.96,5.23-28.65-.56-3.13-.84-6.89-.84-11.13,0-8.9,1.23-19.91,3.78-31.52,3.77-17.16,9.49-31.72,15.15-39.46.78-10.33,5.21-24.59,12.63-39.09h0c4.43-8.91,9.41-16.65,14.34-22.68,4.89-5.98,9.72-10.28,13.98-12.39,4.69-6.35,10.53-11.92,15.87-19.52-7.43-3.32-12.18-9.2-16.1-15.67-4.03-6.66-7.21-13.96-11.55-19.89-2.89-3.96-6.27-7.3-10.74-9.49h0c-9.73-4.83-20.82-12.85-29.5-23.75-8.68-10.89-14.95-24.67-14.95-40.95,0-26.43,13.7-49.45,35.78-65.82,22.08-16.37,52.54-26.13,86.17-26.13h1.88s0,0,.01,0c33.58.03,63.55,10.19,85.37,26.74,21.85,16.57,35.55,39.57,36.45,65.18h0c.02.62.03,1.24.03,1.85,0,15.79-6.9,29.16-15.9,39.73-9,10.57-20.11,18.36-28.63,23.05-6.74,3.72-11.02,9.76-14.81,16.37-3.79,6.6-7.08,13.76-11.9,19.61-3.08,3.74-6.82,6.94-11.7,9.08,5,7.1,10.37,12.43,14.91,18.31.14,0,.28-.02.42-.02.22,0,.45.01.67.03h0s.03,0,.05,0h0c2.23.02,4.72.99,7.39,2.72,2.69,1.75,5.56,4.28,8.51,7.48,5.9,6.4,12.1,15.45,17.6,26.16,7.43,14.51,11.93,28.76,12.62,39.1,5.63,7.73,11.36,22.18,15.15,39.46,2.53,11.53,3.77,22.43,3.77,31.3,0,5.36-.45,9.97-1.34,13.57,2.9,6.98,4.84,17.06,6.08,26.78,1.25,9.8,1.77,19.22,1.77,24.69,0,.17,0,.32,0,.45Z"/>
    <path class="cls-1" d="M531.12,273.57l-1.1-1.43c-5.42,3.86-11.84,6.06-18.49,6.34-4.54-.1-9-1.2-13.07-3.2-1.38-.66-2.71-1.39-4.01-2.19l-1.07-.72-.26-.19-1.07,1.43,1.07,1.41c5.41-3.83,11.8-6.01,18.41-6.3,4.54.1,9,1.19,13.07,3.2,1.38.64,2.72,1.38,4.01,2.19l1.07.72.26.19,1.1-1.41-1.1-1.43,1.1,1.43,1.07-1.43c-6.03-4.37-13.22-6.86-20.66-7.16-7.44.3-14.63,2.79-20.66,7.16l-1.84,1.43,1.84,1.41c6.02,4.39,13.21,6.88,20.66,7.16,7.45-.27,14.64-2.76,20.66-7.16l1.86-1.41-1.86-1.43-1,1.38Z"/>
    <path class="cls-1" d="M457.25,196.36h0c1.6,0,3.2,0,4.77.21,15.98,1.55,28.41,20.3,32.68,27.65-9.65,5.32-20.43,8.25-31.44,8.56-1.57,0-3.17,0-4.77-.21-15.96-1.55-28.38-20.3-32.68-27.65,9.64-5.32,20.43-8.26,31.44-8.56M457.25,192.78c-12.81.38-25.3,4.1-36.23,10.81,0,0,15.1,30.39,37.21,32.54,1.72.17,3.39.24,5.06.24,12.82-.38,25.32-4.12,36.26-10.83,0,0-15.07-30.36-37.21-32.51-1.72-.17-3.41-.24-5.08-.24Z"/>
    <path class="cls-1" d="M565.56,196.46c11.65.4,23,3.76,32.99,9.78-4.56,7.16-17.7,25.43-33.7,26.38h-2.82c-11.65-.4-23-3.76-32.99-9.78,4.56-7.16,17.7-25.45,33.7-26.38h2.81M565.56,192.88h-3.03c-22.11,1.31-38.36,31.01-38.36,31.01,0,0,17.08,12.21,37.85,12.21h3.03c22.11-1.29,38.36-31.01,38.36-31.01,0,0-17.01-12.21-37.85-12.21Z"/>
    <path class="cls-1" d="M507.17,252.25s-4.77,2.96-8.87,1.46c-4.1-1.5-5.75-6.92-5.75-6.92,0,0,4.77-2.96,8.87-1.46,4.1,1.5,5.75,6.92,5.75,6.92Z"/>
    <path class="cls-1" d="M513.99,252.25s4.77,2.96,8.87,1.46c4.1-1.5,5.75-6.92,5.75-6.92,0,0-4.77-2.96-8.87-1.46-4.1,1.5-5.75,6.92-5.75,6.92Z"/>
  </g>
  <g>
    <path class="cls-4" d="M206.07,573.07c-5.9-.04-11.77-.97-17.39-2.77-18.06-5.68-36.26-16.32-33.23-29.05.82-3.12,2.75-5.84,5.41-7.66l13.52-38.74c-4.47-6.74-8.02-14.05-10.57-21.73-6.37,1.3-12.86,1.94-19.37,1.88h-.98c-6.84,0-13.65-.88-20.27-2.6-2.58,7.94-6.22,15.49-10.83,22.45l13.52,38.86c2.67,1.81,4.6,4.53,5.41,7.66,3.03,12.74-15.17,23.38-33.23,29.05-5.63,1.8-11.5,2.73-17.41,2.77-4.77,0-11.16-.76-13.48-2.96-1.26-1.16-1.9-2.85-1.72-4.56.04-.38.12-.76.24-1.12-1.07.29-2.16.45-3.27.48-1.6.1-3.16-.57-4.17-1.81-.78-.98-1.09-2.25-.86-3.48.18-.87.55-1.69,1.1-2.39h-1.48l-1.34-1.57-1.07-1.5.6-1.88c3.2-9.21,16.46-18.03,33.04-21.97,1.6-.38,3.22-.72,4.77-1l-7.94-24.71c-6.92-7.87-7.42-26.64-1.14-47.3,1.24-4.12,2.74-8.16,4.48-12.09-10.78-20.44-9.11-45.51-6.65-56.15.48-2.05.83-3.98,1.14-5.8-4.72,7.78-10.65,14.75-17.58,20.66,0,11.47-1.28,22.9-3.84,34.09-3.29,15-8.16,28.41-13.43,37.19,5.58,14.98,7.39,40.55,7.39,50.95.29,2.09-1.17,4.02-3.25,4.31-.15.02-.29.03-.44.04-2.6,0-3.24-.76-4.77-7.16.19,2.14-.55,4.26-2.03,5.82l-1,.86h-1.43c-2.84,0-3.82-1.57-4.89-7.32-.79,6.63-1.62,8.04-4.6,8.04h-1.07l-.98-.62c-1.11-.76-1.82-1.99-1.91-3.34-1.12,5.53-1.93,5.99-4.39,5.99h-2.53l-.93-2.53c-1.91-5.49-1.46-24.74-1.14-29.41.81-12.86,2.53-22.52,5.13-28.79-1.65-10.54-.5-26.45,3.12-42.94,3.63-16.48,9.28-31.44,15.15-39.88,1.03-11.07,5.68-25.36,12.88-39.43,8.92-17.41,19.99-31.01,29.15-35.95,2.03-2.67,4.17-5.18,6.46-7.8s4.6-5.32,6.87-8.28c-9.11-5.41-13.95-14.45-18.65-23.23-4.7-8.78-8.8-16.46-16.55-20.3-21.28-10.54-46.13-34.49-46.16-67.34,0-21.47,8.63-41.6,25.05-58.03,23.45-23.47,59.87-36.92,99.94-36.92h1.88c68.22,0,123.11,41.65,124.99,94.82,1.34,38.16-34.9,61.25-46.01,67.41-7.82,4.29-12.07,12.19-16.7,20.51-4.77,8.71-9.54,17.68-18.75,23.09,2.27,2.96,4.58,5.65,6.85,8.25,1.72,1.96,3.34,3.84,4.89,5.77,11.54.33,26.24,19.25,35.95,38,7.16,14.07,11.93,28.36,12.88,39.43,5.87,8.44,11.5,23.23,15.15,39.88,3.89,17.77,4.91,34.92,2.72,45.32,5.8,14.86,7.68,41.07,7.68,51.71.09,1.21-.33,2.4-1.14,3.29l-1.05,1.05h-1.5c-2.6,0-3.24-.79-4.77-7.16.19,2.14-.55,4.26-2.03,5.82l-.98.86h-1.46c-2.84,0-3.82-1.57-4.77-7.32-.81,6.63-1.65,8.04-4.6,8.04h-1.1l-.98-.62c-1.11-.76-1.82-1.99-1.91-3.34-1.1,5.53-1.93,5.99-4.37,5.99h-2.55l-.93-2.53c-1.91-5.51-1.43-24.74-1.14-29.41.3-9.16,1.8-18.23,4.46-27-5.87-11.28-10.12-23.32-12.64-35.78-2.56-11.18-3.84-22.62-3.84-34.09-7.73-6.06-16.32-17.29-23.5-30.79-.11,5.37.52,10.73,1.86,15.93,1.96,8.42,7.16,37.16-5.56,59.39,1.19,2.96,2.24,5.92,3.12,8.85,6.27,20.66,5.77,39.43-1.14,47.3l-7.94,24.71c1.65.29,3.29.62,4.77,1,16.7,3.94,29.84,12.76,33.04,21.97l.6,1.74-1.07,1.65-1.07,1.5h-1.69c.54.7.91,1.52,1.07,2.39.24,1.23-.06,2.5-.83,3.48-1.02,1.23-2.57,1.91-4.17,1.81-1.1-.03-2.2-.19-3.27-.48.12.37.2.74.24,1.12.18,1.7-.46,3.39-1.72,4.56-2.17,2.15-8.56,2.91-13.36,2.91Z"/>
    <path class="cls-3" d="M189.04,404.74c-13.63-7.76-28.99-11.96-44.68-12.19-24.07,0-44.65,12.19-44.65,12.19,0,0,27.36-7.32,44.65-7.32s44.68,7.32,44.68,7.32Z"/>
    <path class="cls-3" d="M163.33,273.57c-11.52,8.94-27.63,8.94-39.14,0,11.51-8.97,27.64-8.97,39.14,0Z"/>
    <path class="cls-3" d="M95.44,234.57c-1.65,0-3.29,0-4.77-.24-18.13-1.74-31.65-24.14-34.94-30.08,10.31-5.99,21.95-9.32,33.87-9.68,1.63,0,3.27.07,4.89.24,18.13,1.74,31.65,24.12,34.94,30.08-10.34,6.01-22.03,9.34-33.99,9.68Z"/>
    <path class="cls-3" d="M194.34,234.48c-16.7,0-31.01-8.23-35.45-11,3.51-5.82,17.89-27.67,36.04-28.62h2.93c16.7,0,31.01,8.21,35.45,10.97-3.51,5.84-17.89,27.69-36.07,28.77h-2.91v-.12Z"/>
    <path class="cls-3" d="M189.64,177.85s-19.54,16.48-44.65,16.48-44.68-16.48-44.68-16.48c0,0,27.36,9.99,44.68,9.99s44.65-9.99,44.65-9.99Z"/>
    <path class="cls-1" d="M277.21,526.75v-.16h0c0-.13,0-.25-.02-.38v-.03s0-.01,0-.01c0-10.58-1.87-36.47-7.53-51.84l-.05-.14.03-.15c.68-3.64,1.02-7.94,1.02-12.72,0-9.51-1.34-20.91-3.95-32.79-3.61-16.53-9.21-31.35-15.09-40.2l-.07-.11v-.13c-1.22-11.26-5.94-25.57-13.13-39.6-4.47-8.72-10.41-18.14-16.89-25.61-6.48-7.47-13.51-12.95-19.98-13.89l-.2-.03-.13-.16c-1.33-1.59-2.69-3.17-4.01-4.77-1.3-1.58-2.9-3.32-4.36-5.1l-.36-.43.45-.34c7.8-5.9,12.38-14.3,16.55-22.01,4.18-7.7,8.3-15.41,15.39-19.3h0c11.7-6.45,22.15-14.95,30.85-25.09,11.13-13.35,16.75-27.76,16.75-42.78,0-.72-.01-1.45-.04-2.17h0c-.94-27.41-15.42-51.86-38.44-69.47-23.01-17.61-54.55-28.38-89.52-28.38h0s-1.34,0-1.34,0c-40.88,0-78.1,13.8-102.18,37.81h0c-16.88,16.91-25.94,37.61-25.94,59.67,0,.17,0,.34,0,.51h0c0,17.11,6.43,31.9,15.64,43.79,9.2,11.88,21.18,20.85,32.2,26.27,3.48,1.72,6.18,4.42,8.57,7.7,2.38,3.28,4.45,7.16,6.67,11.3,4.17,7.78,8.72,16.28,16.55,22.17l.45.34-.36.44c-1.46,1.77-2.92,3.47-4.37,5.14h0c-2.06,2.39-4.17,4.76-6.13,7.36l-.07.09-.1.06c-9.57,5.45-20.62,19.06-29.72,36.87h0c-7.13,14.02-11.88,28.34-13.11,39.6v.13s-.09.11-.09.11c-5.88,8.85-11.48,23.72-15.09,40.2-2.6,11.84-3.92,23.29-3.92,32.82,0,3.74.2,7.18.61,10.24l.02.12-.04.12c-3.01,9.33-4.7,19.03-5.01,28.83v.09s-.01.2-.01.2c0,.17-.02.42-.03.73-.02.63-.06,1.52-.09,2.61-.07,2.18-.13,5.14-.13,8.35,0,3.48.08,7.24.31,10.59.23,3.34.64,6.29,1.26,8.06h0s1.55,4.42,1.55,4.42l4.8.13h.02c.11,0,.23.01.34.01,1.8,0,3.52-.8,4.67-2.2l.31-.38.41.27.51.34h1.6s.26,0,.26,0c1.64,0,3.22-.66,4.39-1.83l.32-.32.37.26c1.12.78,2.44,1.2,3.8,1.2.12,0,.23,0,.35,0h.03s2.43,0,2.43,0l1.95-1.6.35.35c1.08,1.09,2.54,1.7,4.06,1.7.16,0,.31,0,.47-.02h.03c3.7-.09,6.65-3.12,6.65-6.8v-.16s0,0,0,0c0-.12,0-.25-.02-.37v-.02s0-.03,0-.03c0-10.22-1.77-34.89-7.13-50.39l-.08-.22.11-.21c6.03-11.55,10.39-23.89,12.95-36.66h0s0-.01,0-.01c2.47-10.84,3.79-21.92,3.92-33.04v-.24s.19-.16.19-.16c2.83-2.44,5.46-5.1,7.86-7.95l1.11-1.33-.16,1.72c-.27,2.89-.44,6.11-.44,9.53,0,11.52,1.89,25.45,8.02,37.88l.11.22-.1.23c-1.5,3.56-2.81,7.2-3.94,10.9h0c-2.59,8.62-4.5,18.8-4.5,28.08,0,8.6,1.65,16.41,5.8,21.51l.06.08,6.7,20.86-.58.13-1.07.24c-8.95,2.13-16.88,5.56-23.01,9.74-6.13,4.18-10.44,9.11-12.18,14.19h0s-1.13,3.23-1.13,3.23l1.98,2.91c.3.4.63.78,1,1.11l.22.2-.05.29c-.08.45-.12.89-.12,1.34,0,1.64.54,3.25,1.56,4.57,1.53,1.88,3.83,2.97,6.25,2.97h.05s.41,0,.41,0l.11.4c.43,1.52,1.26,2.89,2.4,3.98,1.74,1.65,4.76,2.64,7.78,3.16,3.02.53,6.04.63,7.78.63,6.22-.03,12.4-1.01,18.33-2.91,11.44-3.6,20.4-8.12,26.46-13.13,6.07-5.02,9.23-10.51,9.23-16.1,0-1.17-.14-2.34-.42-3.52-.88-3.45-2.87-6.52-5.68-8.72l-.12-.1-12.73-36.46.14-.22c3.71-5.84,6.77-12.08,9.11-18.59l.16-.44.46.1c5.87,1.25,11.85,1.9,17.85,1.92h1.03c.18,0,.36,0,.53,0,5.48,0,10.95-.46,16.36-1.38l.44-.08.15.42c2.32,6.31,5.3,12.37,8.89,18.05l.14.22-12.59,36.49-.13.1c-2.81,2.19-4.81,5.26-5.67,8.72-.28,1.17-.42,2.34-.42,3.5,0,5.54,3.15,11.01,9.22,16.04,6.07,5.02,15.03,9.56,26.47,13.22,5.92,1.9,12.1,2.88,18.32,2.91,1.75,0,4.76-.1,7.78-.63,3.02-.53,6.04-1.52,7.78-3.18h0c1.15-1.07,1.98-2.44,2.4-3.95l.11-.4h.41s.08,0,.08,0c2.41,0,4.69-1.09,6.2-2.97h0c1.04-1.31,1.59-2.92,1.59-4.57,0-.45-.04-.89-.12-1.34l-.05-.29.21-.2c.37-.35.71-.73,1.02-1.13l1.96-2.77-1.11-3.36h0c-1.75-5.08-6.06-10.01-12.19-14.19-6.13-4.18-14.06-7.61-23.01-9.75h0l-1.64-.37,6.7-20.87.06-.08c4.15-5.11,5.8-12.96,5.79-21.58,0-9.29-1.91-19.46-4.5-28.01h0c-.76-2.38-1.62-5.02-2.59-7.53l-.09-.23.12-.22c6.08-11.39,7.86-24.24,7.86-35.33,0-10.45-1.58-19.33-2.59-23.93l-.62-2.82,1.6,2.41c4.01,6.04,8.79,11.53,14.22,16.33l.18.16v.24c.14,11.12,1.45,22.2,3.93,33.04h0c2.51,12.26,6.61,24.13,12.19,35.32l.09.19-.06.2c-2.38,8.57-3.76,17.39-4.11,26.28h0v.09s-.01.21-.01.21c0,.18-.02.43-.03.75-.03.64-.06,1.55-.1,2.66-.07,2.22-.14,5.23-.14,8.49,0,3.45.08,7.17.31,10.48.23,3.3.64,6.21,1.24,7.96h0s1.55,4.42,1.55,4.42l4.83.13h.02c.11,0,.23.01.34.01,1.79,0,3.5-.8,4.65-2.2l.31-.38.41.27.51.34h2.24s.24,0,.24,0c1.65,0,3.24-.65,4.41-1.83l.32-.32.37.26c1.09.77,2.38,1.18,3.71,1.18.12,0,.24,0,.36,0h.03s2.45,0,2.45,0l1.92-1.6.35.35c1.08,1.09,2.55,1.7,4.07,1.7.15,0,.31,0,.46-.02h.03c3.7-.09,6.65-3.12,6.65-6.8ZM271.02,527.09c-.03.09-.07.2-.22.33-.09.07-.23.13-.37.13-.16,0-.27-.06-.34-.11l-.15-.14-.15-.25c-.08-.17-.16-.37-.24-.62-.17-.5-.37-1.2-.59-2.06-.45-1.72-1.01-4.07-1.62-6.64-1.22-5.14-2.66-11.15-3.84-14.6-.33-.98-.65-1.76-.91-2.21,0-.01-.01-.01-.02-.03-.07.32-.14.74-.18,1.26-.06.75-.09,1.68-.09,2.73,0,4.46.48,11.02.48,15.77,0,2.26-.1,4.1-.46,5.23-.13.38-.27.7-.56.95l-.15.13h-.2c-.16,0-.3-.06-.4-.12-.1-.07-.17-.14-.23-.22-.12-.15-.2-.31-.29-.51-.16-.38-.31-.89-.46-1.51-.3-1.24-.61-2.94-.92-4.88-.63-3.88-1.28-8.71-1.92-12.53-.43-2.54-.87-4.66-1.26-5.67,0-.02-.02-.03-.02-.05-.08.29-.17.68-.25,1.14-.22,1.22-.44,2.95-.66,4.93-.43,3.96-.84,8.92-1.25,12.87-.28,2.64-.55,4.81-.86,6-.08.32-.16.58-.28.8-.07.11-.14.23-.31.34-.09.05-.21.1-.35.1h-.16l-.14-.09c-.22-.16-.29-.32-.37-.49-.07-.17-.13-.36-.18-.59-.11-.45-.2-1.02-.28-1.72-.16-1.38-.29-3.23-.4-5.29-.22-4.13-.38-9.17-.6-13.11-.11-1.97-.24-3.69-.39-4.84-.05.18-.09.37-.14.58-.31,1.36-.67,3.28-1.04,5.47-.75,4.39-1.58,9.88-2.31,14.25-.49,2.92-.93,5.32-1.29,6.61-.1.35-.19.62-.29.84-.06.11-.11.22-.27.35-.08.06-.21.13-.38.13h-.22l-.16-.16-.21-.21-.04-.12c-.49-1.46-.79-4.01-.98-7.09-.19-3.08-.26-6.67-.26-10.08,0-4.51.13-8.72.28-11.06h0c.66-10.66,2.11-20.78,4.72-27.46-6.14-11.35-10.53-23.56-13.01-36.22h0c-2.5-10.74-3.76-21.73-3.76-32.75,0-.73,0-1.46.02-2.19-7.83-5.6-17.16-17.53-25.03-32.89v.02s0-.02,0-.02c0,0,0,0,0,0h0c-.97-1.99-1.88-3.83-2.75-5.71-1.1,2.91-1.89,6.29-1.89,10.94,0,3.94.57,8.78,2,14.99,1.07,4.66,2.62,13.36,2.62,23.42,0,11.22-1.92,24.14-8.6,35.04,1.36,3.26,2.57,6.58,3.6,9.96l-.03-.1.04.13v-.03s0,.03,0,.03c2.84,9.38,4.21,18.41,4.21,26.02,0,4.3-.44,8.15-1.31,11.37-.86,3.15-2.13,5.7-3.85,7.46l-9.31,28.77c2.75.33,5.47.8,8.16,1.43h0c7.9,1.89,14.9,4.89,20.29,8.41,5.38,3.53,9.16,7.56,10.58,11.62l.12.36-.29.24-.41.34h-.19c-.35,0-.75-.1-1.28-.24-.52-.15-1.15-.35-1.86-.6-1.42-.5-3.17-1.17-5-1.88-3.66-1.42-7.66-3-9.94-3.62-.12-.03-.23-.06-.35-.09.03.02.05.03.07.05.79.51,1.92,1.19,3.21,1.97,2.59,1.56,5.85,3.51,8.52,5.37,1.78,1.24,3.3,2.42,4.22,3.46.52.6.89,1.15.9,1.8,0,.27-.09.56-.27.79l-.02.02-.02.02c-.4.4-.95.63-1.51.63-.1,0-.2,0-.31-.02h0c-1.08-.02-2.44-.35-4.01-.85-1.6-.51-3.38-1.21-5.18-1.94-3.59-1.46-7.23-3.08-9.31-3.71-.28-.09-.53-.15-.75-.2.08.07.17.13.27.2.59.43,1.46.97,2.45,1.56,1.99,1.2,4.51,2.66,6.59,4.17,1.39,1.01,2.58,2.03,3.31,3.08.41.6.69,1.23.69,1.89,0,.63-.28,1.26-.81,1.75-.33.3-.79.53-1.43.78-.64.24-1.45.46-2.42.66-1.94.4-4.5.69-7.54.69h0c-5.6-.03-11.16-.91-16.5-2.6-13.17-4.18-24.15-10.19-28.94-16.74-1.59-2.19-2.5-4.46-2.5-6.75,0-.66.08-1.33.23-1.99h0s0-.02,0-.02c.78-2.71,2.58-5,5.01-6.41l14.35-41.14c-5.25-7.62-9.27-16-11.93-24.86-6.64,1.63-13.46,2.46-20.3,2.46-.35,0-.7,0-1.05,0h-1.24c-7.46,0-14.89-1.12-22.02-3.3-2.66,9.17-6.79,17.86-12.22,25.71l14.38,41.14c2.43,1.41,4.22,3.7,4.99,6.41v.02c.16.66.24,1.33.24,1.99,0,2.29-.9,4.56-2.5,6.75-1.59,2.19-3.87,4.3-6.7,6.32-5.64,4.02-13.44,7.64-22.22,10.42-5.34,1.7-10.9,2.57-16.5,2.6-4.58,0-8.06-.64-9.96-1.35-.64-.24-1.1-.47-1.43-.78-.53-.49-.82-1.12-.82-1.76,0-.9.5-1.73,1.2-2.54.71-.81,1.66-1.6,2.74-2.39,2.15-1.57,4.78-3.08,6.82-4.31,1.09-.65,2.01-1.24,2.56-1.67-.43.09-1.04.26-1.75.52-1.07.38-2.38.91-3.81,1.51-2.86,1.19-6.17,2.62-8.99,3.58-1.85.63-3.47,1.06-4.7,1.08h0s-.05,0-.07,0c0,0,0,0,0,0h0c-.08,0-.15.02-.23.02-.56,0-1.11-.22-1.51-.63l-.02-.02-.02-.02c-.18-.22-.28-.52-.28-.79,0-.45.19-.84.46-1.24.27-.4.64-.8,1.09-1.23.9-.85,2.12-1.78,3.5-2.74,2.76-1.92,6.17-3.95,8.82-5.55,1.25-.75,2.34-1.41,3.09-1.9-.05.01-.1.02-.16.04-.53.14-1.18.33-1.91.58-1.46.49-3.24,1.16-5.08,1.87-3.68,1.42-7.58,3-9.77,3.65-.64.18-1.11.3-1.5.31h-.19l-.15-.12-.55-.45.12-.36c1.42-4.09,5.2-8.13,10.58-11.65,5.38-3.51,12.38-6.5,20.29-8.38h0c2.69-.63,5.42-1.1,8.16-1.43l-9.31-28.77c-1.71-1.75-2.98-4.3-3.84-7.45-.87-3.22-1.31-7.07-1.31-11.37,0-7.62,1.38-16.65,4.22-26.02,1.36-4.48,3.02-8.85,4.97-13.11-6.84-12.21-8.8-26.39-8.8-37.8,0-7.49.84-13.77,1.72-17.55h0s0-.02,0-.02c1.27-4.6,1.91-9.34,1.91-14.09,0-1.49-.09-2.99-.21-4.48-7.69,14.57-16.63,25.86-24.18,31.27.01.73.02,1.46.02,2.19,0,11.02-1.26,22-3.76,32.74h0c-3.49,15.93-8.65,29.44-13.83,37.53,2.85,6.98,4.77,16.97,5.99,26.61,1.23,9.76,1.75,19.15,1.75,24.64v1.33h-.54c-.16,0-.27-.06-.34-.11l-.15-.14-.15-.25c-.08-.17-.16-.37-.24-.62-.17-.5-.37-1.2-.59-2.06-.45-1.72-1.01-4.07-1.62-6.64-1.22-5.14-2.66-11.15-3.85-14.6-.34-.98-.66-1.76-.92-2.21-.04-.07-.07-.11-.1-.16-.1.32-.19.83-.25,1.48-.06.75-.09,1.68-.09,2.73,0,4.46.48,11.01.48,15.77,0,2.26-.1,4.1-.46,5.23-.13.38-.27.7-.56.95l-.15.13h-.2c-.16,0-.3-.06-.4-.12-.1-.07-.17-.14-.23-.22-.12-.15-.2-.31-.29-.51-.16-.38-.31-.89-.46-1.51-.3-1.24-.61-2.94-.92-4.88-.63-3.88-1.28-8.71-1.93-12.53-.43-2.54-.87-4.66-1.26-5.67-.02-.06-.05-.1-.07-.16-.11.29-.22.72-.33,1.25-.25,1.21-.48,2.94-.69,4.92-.43,3.96-.8,8.92-1.18,12.87-.25,2.64-.5,4.81-.79,6-.08.32-.16.58-.28.8-.07.11-.14.23-.31.35-.09.06-.21.1-.35.1h-.17l-.14-.09c-.22-.16-.28-.32-.36-.49-.07-.17-.13-.36-.18-.59-.11-.45-.19-1.02-.27-1.72-.16-1.38-.29-3.22-.4-5.29-.22-4.13-.38-9.17-.6-13.11-.11-1.99-.24-3.71-.4-4.87-.05.19-.1.39-.15.6-.31,1.36-.67,3.28-1.04,5.47-.75,4.39-1.58,9.88-2.32,14.25-.49,2.92-.94,5.32-1.3,6.62-.1.35-.19.62-.3.84-.06.11-.12.22-.27.35-.08.06-.21.13-.38.13h-.54v-.58c-.48-1.48-.77-3.98-.96-7.01-.19-3.08-.26-6.68-.26-10.09,0-4.5.12-8.7.27-11.04.72-11.28,2.36-21.96,5.25-28.65-.56-3.13-.84-6.89-.84-11.13,0-8.9,1.23-19.91,3.78-31.52,3.77-17.16,9.49-31.72,15.15-39.46.78-10.33,5.18-24.59,12.64-39.1h0c4.54-8.88,9.57-16.61,14.52-22.63,4.9-5.97,9.7-10.25,13.92-12.34,4.69-6.35,10.53-11.92,15.87-19.52-7.43-3.32-12.18-9.2-16.1-15.67-4.03-6.66-7.22-13.96-11.55-19.89-2.89-3.96-6.28-7.3-10.76-9.49h0c-9.67-4.81-20.75-12.81-29.45-23.69-8.69-10.88-14.99-24.65-15-40.93,0-26.43,13.7-49.45,35.78-65.82,22.08-16.37,52.54-26.13,86.17-26.13h1.22s.08-.02.12-.02c33.63,0,63.65,10.17,85.51,26.74,21.85,16.57,35.55,39.57,36.45,65.18h0c.02.65.03,1.29.03,1.93,0,15.78-6.91,29.13-15.9,39.68-9,10.56-20.1,18.34-28.58,23.03-6.75,3.72-11.03,9.76-14.82,16.37-3.79,6.6-7.07,13.76-11.89,19.61-3.08,3.74-6.82,6.94-11.69,9.08,4.97,7.1,10.37,12.43,14.91,18.31.14,0,.28-.02.41-.02.22,0,.45.01.67.03h0s.03,0,.05,0h0c2.23.02,4.72.99,7.39,2.72,2.69,1.75,5.56,4.28,8.51,7.48,5.9,6.4,12.1,15.45,17.58,26.16,7.46,14.51,11.93,28.77,12.64,39.1,5.61,7.73,11.36,22.18,15.15,39.46,2.53,11.56,3.76,22.47,3.76,31.35,0,5.34-.45,9.93-1.34,13.52,2.9,6.98,4.84,17.06,6.08,26.78,1.25,9.8,1.77,19.22,1.77,24.69,0,.37,0,.61-.09.87Z"/>
    <path class="cls-1" d="M163.33,273.57l-1.07-1.43c-5.41,3.83-11.8,6.01-18.41,6.3-4.54-.1-9-1.2-13.07-3.2-1.38-.65-2.72-1.38-4.01-2.19l-1.07-.72-.26-.19-1.1,1.43,1.1,1.41c5.4-3.83,11.8-6.02,18.41-6.3,4.54.1,9,1.19,13.07,3.2,1.38.65,2.72,1.38,4.01,2.19l1.07.72.26.19,1.07-1.41-1.07-1.43,1.07,1.43,1.1-1.43c-12.15-9.45-29.16-9.45-41.31,0l-1.86,1.43,1.86,1.41c12.15,9.45,29.16,9.45,41.31,0l1.86-1.41-1.86-1.43-1.1,1.43Z"/>
    <path class="cls-1" d="M89.48,196.36h0c1.59,0,3.18.07,4.77.21,15.96,1.55,28.38,20.3,32.68,27.65-9.65,5.32-20.43,8.25-31.44,8.56-1.59,0-3.18-.07-4.77-.21-15.96-1.55-28.39-20.3-32.68-27.65,9.65-5.32,20.43-8.26,31.44-8.56M89.48,192.78c-12.81.38-25.3,4.1-36.23,10.81,0,0,15.1,30.39,37.19,32.54,1.69.17,3.39.24,5.06.24,12.82-.38,25.32-4.12,36.26-10.83,0,0-15.07-30.36-37.21-32.51-1.72-.17-3.39-.24-5.06-.24Z"/>
    <path class="cls-1" d="M197.77,196.46c11.65.4,23,3.77,32.99,9.78-4.56,7.16-17.7,25.43-33.7,26.38h-2.81c-11.65-.4-23-3.76-32.99-9.78,4.56-7.16,17.67-25.45,33.68-26.38h2.84M197.77,192.88h-3.03c-22.11,1.31-38.35,31.01-38.35,31.01,0,0,17.08,12.21,37.85,12.21h3.03c22.11-1.29,38.36-31.01,38.36-31.01,0,0-17.01-12.21-37.85-12.21Z"/>
    <path class="cls-1" d="M139.4,252.25s-4.77,2.96-8.87,1.46c-4.1-1.5-5.75-6.92-5.75-6.92,0,0,4.77-2.96,8.87-1.46,4.1,1.5,5.75,6.92,5.75,6.92Z"/>
    <path class="cls-1" d="M146.22,252.25s4.77,2.96,8.87,1.46c4.1-1.5,5.75-6.92,5.75-6.92,0,0-4.77-2.96-8.87-1.46-4.1,1.5-5.75,6.92-5.75,6.92Z"/>
  </g>
  <g>
    <path class="cls-2" d="M410.06,607.34c-6.81-.05-13.57-1.12-20.06-3.17-20.82-6.58-41.81-18.82-38.31-33.51.94-3.6,3.15-6.73,6.23-8.83l15.6-44.68c-5.16-7.77-9.26-16.19-12.19-25.05-7.34,1.5-14.81,2.23-22.3,2.17h-1.14c-7.89,0-15.74-1.01-23.38-2.98-2.97,9.14-7.17,17.84-12.48,25.86l15.48,44.68c3.07,2.1,5.29,5.23,6.25,8.83,3.51,14.69-17.48,26.93-38.31,33.51-6.49,2.06-13.25,3.13-20.06,3.17-5.51,0-12.88-.88-15.55-3.41-1.47-1.33-2.21-3.28-2-5.25.06-.44.15-.88.29-1.31-1.23.35-2.49.55-3.77.57-1.83.09-3.6-.69-4.77-2.1-.89-1.13-1.25-2.59-.98-4.01.21-1,.65-1.93,1.26-2.74h-1.65l-1.55-1.81-1.22-1.72.69-2.17c3.65-10.61,19.08-20.8,38.16-25.33,1.84-.46,3.73-.84,5.65-1.14l-9.18-28.5c-7.97-9.09-8.54-30.72-1.31-54.53,1.41-4.75,3.12-9.41,5.1-13.95-12.43-23.57-10.52-52.48-7.68-64.74.55-2.39.98-4.58,1.34-6.7-5.45,8.98-12.29,17.03-20.27,23.85.03,13.23-1.44,26.41-4.39,39.31-3.79,17.32-9.4,32.77-15.48,42.94,6.44,17.29,8.54,46.73,8.54,58.75.33,2.41-1.36,4.64-3.77,4.97-.16.02-.33.04-.5.04-3.01,0-3.74-.88-5.61-8.25-.19,3.6-.86,5.49-2.39,6.73l-1.14.98h-1.67c-3.27,0-4.41-1.84-5.63-8.47-.91,7.66-1.88,9.28-5.3,9.28h-1.26l-1.12-.74c-1.28-.86-2.09-2.27-2.19-3.82-1.29,6.37-2.22,6.89-5.06,6.89h-2.89l-1.07-2.93c-2.19-6.32-1.65-28.62-1.31-33.9.95-14.81,2.93-25.98,5.92-33.2-1.88-12.14-.57-30.48,3.6-49.47,4.17-18.99,10.69-36.26,17.46-45.99,1.19-12.76,6.56-29.24,14.86-45.44,10.28-20.08,23.04-35.78,33.58-41.48,2.39-3.08,4.77-5.96,7.49-8.99,2.72-3.03,5.3-6.11,7.92-9.54-10.52-6.23-16.1-16.7-21.47-26.79-5.22-9.76-10.14-18.96-19.08-23.4-24.59-12.17-53.24-39.79-53.29-77.67,0-24.83,9.97-47.97,28.91-66.91,27.03-27.07,69.01-42.58,115.21-42.58h2.15c78.71,0,141.95,48.02,144.12,109.34,1.55,44.06-40.22,70.6-53.07,77.69-8.99,4.99-13.91,14.05-19.08,23.69-5.44,10.04-11.04,20.37-21.63,26.62,2.6,3.41,5.3,6.49,7.92,9.54,1.96,2.24,3.82,4.41,5.63,6.65,13.31.36,30.36,22.18,41.43,43.82,8.3,16.2,13.67,32.68,14.86,45.44,6.77,9.73,13.26,26.79,17.46,45.99,4.48,20.49,5.65,40.26,3.12,52.19,6.7,17.13,8.87,47.37,8.87,59.63.1,1.39-.37,2.76-1.31,3.79l-1.22,1.22h-1.74c-3.01,0-3.74-.91-5.58-8.25-.21,3.6-.88,5.49-2.39,6.73l-1.14.98h-1.65c-3.29,0-4.41-1.84-5.65-8.47-.91,7.66-1.86,9.28-5.3,9.28h-1.26l-1.12-.74c-1.28-.87-2.08-2.28-2.19-3.82-1.26,6.37-2.22,6.89-5.06,6.89h-2.86l-1.1-2.93c-2.19-6.32-1.65-28.62-1.31-33.9.35-10.55,2.08-21.02,5.13-31.13-6.76-13.04-11.66-26.96-14.55-41.36-2.96-12.89-4.45-26.06-4.44-39.29-8.9-6.99-18.82-19.94-27.1-35.52-.12,6.2.6,12.39,2.15,18.39,2.39,9.71,8.28,42.94-6.39,68.48,1.36,3.41,2.58,6.82,3.6,10.21,7.16,23.85,6.63,45.44-1.34,54.53l-9.16,28.5c1.91.31,3.79.69,5.63,1.14,19.08,4.53,34.42,14.72,38.16,25.33l.69,2-1.24,1.88-1.22,1.74h-1.98c.63.8,1.07,1.74,1.26,2.74.28,1.41-.08,2.88-.98,4.01-1.16,1.42-2.94,2.2-4.77,2.1-1.28-.03-2.54-.22-3.77-.57.12.43.21.87.26,1.31.23,1.97-.51,3.92-1.98,5.25-2.77,2.65-10.14,3.53-15.65,3.53Z"/>
    <path class="cls-3" d="M390.4,413.25c-15.69-8.94-33.37-13.78-51.43-14.07-27.74,0-51.5,14.05-51.5,14.05,0,0,31.56-8.42,51.5-8.42s51.43,8.44,51.43,8.44Z"/>
    <path class="cls-3" d="M360.78,262.02c-6.6,4.73-14.45,7.41-22.56,7.73-8.12-.31-15.96-3-22.56-7.73,6.6-4.74,14.45-7.44,22.56-7.75,8.12.32,15.96,3.01,22.56,7.75Z"/>
    <path class="cls-3" d="M282.49,217.03c-1.85,0-3.69-.08-5.53-.26-21.01-2.03-36.59-27.81-40.41-34.66,4.96-2.89,20.82-11.16,39.07-11.16,1.91,0,3.79,0,5.63.26,20.9,2.03,36.5,27.84,40.29,34.71-4.96,2.84-20.73,11.12-39.05,11.12Z"/>
    <path class="cls-3" d="M396.51,216.94c-19.2,0-35.78-9.54-40.88-12.67,4.08-6.73,20.66-31.92,41.58-33.16h3.39c19.23,0,35.78,9.54,40.88,12.69-4.08,6.7-20.66,31.92-41.58,33.13h-3.39Z"/>
    <path class="cls-1" d="M491.58,553.21v-.04c0-6.07-.54-16.57-1.9-27.75-1.35-11.18-3.54-23.06-6.77-31.86l-.1-.28.05-.29c.78-4.16,1.18-9.11,1.18-14.62,0-10.91-1.54-24.01-4.53-37.66-4.17-18.98-10.63-36.08-17.35-46.2l-.15-.22-.03-.26c-1.38-12.9-6.8-29.37-15.06-45.49h0c-3.86-7.52-8.67-15.49-13.96-22.63-5.3-7.13-11.09-13.42-16.87-17.57-3.85-2.77-7.68-4.58-11.3-5.12l-.41-.06-.26-.32c-1.51-1.82-3.08-3.6-4.61-5.37-1.53-1.77-3.35-3.87-5.03-5.91l-.72-.87.9-.68c8.87-6.71,14.02-16.34,18.96-25.26,2.47-4.44,4.87-8.89,7.68-12.82,2.82-3.92,6.06-7.34,10.23-9.65h0c13.46-7.39,25.48-17.14,35.47-28.8,12.79-15.32,19.23-31.8,19.23-49.2,0-.84-.02-1.69-.05-2.54h0c-1.12-31.32-17.76-59.31-44.23-79.53-26.47-20.21-62.75-32.59-102.98-32.59h-2.17c-47.01,0-89.8,15.89-117.36,43.48h0c-19.39,19.42-29.66,43.09-29.67,68.53,0,.17,0,.35,0,.52h0c0,19.61,7.37,36.54,17.94,50.17,10.56,13.63,24.32,23.94,36.97,30.2,4.08,2.02,7.26,5.19,10.03,9.02,2.78,3.83,5.18,8.32,7.73,13.1,4.77,8.95,10.03,18.68,18.79,25.41l.89.69-.72.86c-1.69,2.02-3.37,3.97-5.01,5.86l.04-.04-.08.09s.02-.03.04-.04l-.04.05c-2.38,2.73-4.75,5.56-7.13,8.51l-.13.16-.18.1c-5.43,3.1-11.32,8.56-17.16,15.81-5.84,7.25-11.63,16.28-16.93,26.52h0c-8.25,16.12-13.68,32.59-15.06,45.49l-.03.26-.15.22c-6.73,10.11-13.18,27.19-17.35,46.19-2.99,13.62-4.51,26.75-4.51,37.67,0,4.32.24,8.29.71,11.81l.04.27-.1.26c-2.85,7.5-4.71,18.63-5.7,33.07h0s0,.08,0,.08c0,.06,0,.14-.01.24,0,.2-.02.49-.04.85-.03.73-.07,1.76-.11,3.03-.08,2.53-.16,5.97-.16,9.69,0,3.99.09,8.29.36,12.1.27,3.81.74,7.16,1.42,9.11l1.66,4.82,5.24.13h.03c.11,0,.22,0,.32,0,1.96,0,3.83-.9,5.04-2.46l.63-.8.84.58.49.33h2.3s.21,0,.21,0c1.81,0,3.54-.74,4.79-2.05l.64-.67.76.53c1.2.83,2.61,1.27,4.06,1.27.12,0,.25,0,.37,0h.03s2.67,0,2.67,0l2.45-2,.69.71c1.15,1.17,2.71,1.82,4.34,1.82.17,0,.35,0,.52-.02h.04s.04,0,.04,0c4.07-.03,7.35-3.35,7.35-7.41v-.05s0-.01,0-.01c0-.17,0-.33-.02-.5v-.04s0-.04,0-.04c0-5.91-.5-15.95-1.77-26.74-1.26-10.79-3.29-22.34-6.31-31.23l-.15-.44.21-.41c6.91-13.27,11.92-27.45,14.88-42.12v-.03c2.83-12.45,4.34-25.17,4.51-37.94v-.49s.38-.32.38-.32c3.25-2.79,6.26-5.83,9.01-9.11l2.23-2.66-.33,3.45c-.32,3.33-.51,7.03-.51,10.98,0,13.21,2.18,29.21,9.2,43.47l.22.44-.19.46c-1.74,4.07-3.24,8.24-4.51,12.48h0c-2.98,9.82-5.18,21.53-5.17,32.2,0,4.94.47,9.66,1.53,13.85,1.06,4.2,2.71,7.87,5.05,10.75l.13.16,8,25h-1.48c-.05,0-.16.02-.34.07-.17.05-.39.13-.68.19h0c-10.26,2.44-19.37,6.38-26.39,11.16-7.02,4.78-11.92,10.4-13.87,16.12l-1.21,3.53,2.08,3.14c.31.44.66.84,1.06,1.19l.47.41-.11.61c-.09.49-.14.99-.14,1.48,0,1.78.59,3.53,1.71,4.95,1.66,2.06,4.16,3.26,6.8,3.26h.09s.82,0,.82,0l.23.79c.48,1.64,1.39,3.12,2.63,4.28h0c.94.9,2.26,1.64,3.78,2.22,1.52.59,3.24,1.01,4.96,1.32,3.44.61,6.9.72,8.9.72,7.12-.05,14.19-1.17,20.98-3.34h0c9.86-3.1,18.11-6.79,24.54-10.86,6.43-4.06,11.03-8.5,13.65-13.06,1.75-3.04,2.63-6.12,2.63-9.24,0-1.3-.15-2.61-.47-3.93-.98-3.88-3.23-7.32-6.39-9.78l-.25-.2-14.78-42.37.28-.44c4.26-6.72,7.77-13.89,10.46-21.38l.32-.89.92.2c6.73,1.45,13.6,2.19,20.48,2.22h1.19c.2,0,.4,0,.59,0,6.3,0,12.59-.53,18.8-1.58l.89-.15.31.85c2.64,7.26,6.06,14.21,10.2,20.73l.28.44-14.78,42.37-.25.2c-3.15,2.46-5.39,5.9-6.37,9.78-.31,1.31-.47,2.62-.47,3.91,0,3.12.88,6.2,2.64,9.24,1.75,3.04,4.38,6.03,7.85,8.89,6.94,5.72,17.22,10.91,30.32,15.05h-.02s.03,0,.03,0c6.81,2.22,13.91,3.38,21.07,3.45,1.5,0,3.82-.06,6.34-.35,2.52-.29,5.25-.81,7.53-1.69,1.52-.58,2.84-1.33,3.78-2.22l-.06.05.06-.06c1.25-1.16,2.16-2.64,2.63-4.28l.23-.78h.82s.07,0,.07,0c2.65,0,5.16-1.2,6.83-3.26,1.12-1.42,1.71-3.17,1.71-4.95,0-.49-.05-.99-.14-1.48l-.11-.61.47-.41c.4-.35.76-.75,1.06-1.19l2.08-3.01-1.21-3.65h0c-1.97-5.72-6.87-11.35-13.88-16.12-7.01-4.78-16.1-8.71-26.36-11.15-.27-.03-.51-.08-.69-.14-.23-.07-.4-.12-.49-.14l-1.24-.21,7.94-24.69.13-.16c2.34-2.88,3.99-6.55,5.05-10.74,1.06-4.19,1.53-8.9,1.53-13.84,0-10.66-2.19-22.37-5.17-32.22l.05.17-.05-.17c-.88-2.86-1.87-5.75-2.98-8.61l-.18-.46.23-.44c6.95-13.06,8.99-27.78,8.99-40.49,0-11.96-1.81-22.13-2.96-27.42l-1.22-5.58,3.17,4.75c4.63,6.92,10.13,13.22,16.37,18.73l.36.32v.48c.17,12.77,1.68,25.49,4.51,37.94v.02c2.89,14.08,7.61,27.73,14.03,40.59l.19.37-.11.4c-2.74,9.85-4.33,19.99-4.73,30.21v.03s0,.07,0,.07c0,.06,0,.14-.01.24,0,.2-.02.49-.04.85-.03.73-.07,1.76-.11,3.03-.08,2.53-.16,5.97-.16,9.69,0,3.99.09,8.29.36,12.1.27,3.81.74,7.16,1.42,9.11h0s1.68,4.82,1.68,4.82l5.24.13h.02c.1,0,.2,0,.3,0,1.97,0,3.85-.9,5.08-2.46l.64-.81.84.59.46.33h2.29s.19,0,.19,0c1.82,0,3.57-.74,4.84-2.06l.64-.67.76.53c1.18.83,2.59,1.27,4.03,1.27.13,0,.26,0,.39-.01h.03s2.67,0,2.67,0l2.42-2.01.7.71c1.15,1.17,2.71,1.82,4.34,1.82.17,0,.35,0,.52-.02h.04s.04,0,.04,0c4.07-.03,7.35-3.35,7.35-7.41v-.06c0-.17,0-.34-.02-.5v-.04ZM485.55,553.72c0,.15,0,.28-.04.46-.03.12-.05.27-.18.48-.07.12-.19.26-.36.37-.19.13-.45.2-.64.19-.29,0-.51-.11-.64-.2-.14-.09-.21-.18-.27-.25-.12-.14-.17-.25-.23-.37-.11-.22-.2-.46-.3-.76-.2-.58-.42-1.37-.68-2.34-.51-1.94-1.14-4.58-1.83-7.48-1.38-5.79-3-12.63-4.35-16.69-.24-.71-.46-1.33-.67-1.84-.01.11-.02.21-.03.32-.07.84-.1,1.89-.1,3.09,0,5.13.57,12.74.57,18.27,0,1.3-.03,2.48-.11,3.51-.08,1.03-.2,1.89-.43,2.61-.16.47-.34.91-.78,1.3l-.3.26h-.54c-.34,0-.63-.14-.8-.28-.18-.14-.29-.28-.38-.42-.18-.27-.3-.54-.42-.87-.23-.64-.44-1.46-.66-2.46-.43-1.99-.86-4.68-1.31-7.59-.88-5.82-1.81-12.58-2.68-16.21-.02-.07-.03-.12-.05-.19-.02.1-.03.19-.05.3-.3,1.84-.59,4.43-.88,7.28-.57,5.7-1.11,12.43-1.68,16.58-.17,1.19-.33,2.16-.52,2.89-.1.39-.2.71-.37,1.03-.1.17-.21.36-.52.56-.16.1-.39.18-.64.18h-.33l-.27-.18c-.23-.16-.35-.32-.44-.46-.09-.14-.15-.28-.2-.42-.1-.27-.18-.57-.25-.91-.14-.68-.25-1.53-.35-2.56-.2-2.04-.35-4.73-.49-7.65-.25-5.43-.43-11.65-.73-15.76-.26,1.28-.53,2.78-.82,4.42-.88,5.06-1.85,11.38-2.7,16.42-.57,3.37-1.07,6.13-1.48,7.66-.11.42-.21.73-.35,1.03-.08.16-.14.31-.4.55-.13.11-.39.28-.75.28h-.51l-.32-.39-.25-.29-.06-.19c-.31-.9-.54-2.07-.73-3.49-.19-1.41-.33-3.05-.44-4.84-.22-3.57-.3-7.72-.3-11.67,0-5.2.14-10.03.32-12.73.4-6.24.99-12.32,1.9-17.81.87-5.26,2.01-9.97,3.54-13.8-5.63-9.51-11.13-24.4-14.93-41.72h0c-2.87-12.33-4.33-24.95-4.33-37.6,0-.88.01-1.76.03-2.64-4.49-3.24-9.33-8.19-14.19-14.5-5.02-6.52-10.05-14.48-14.65-23.45-.96-1.87-1.83-3.71-2.68-5.55-1.05,3.1-1.77,6.69-1.78,11.48,0,4.48.64,9.99,2.27,17.04,1.25,5.41,3.03,15.47,3.03,27.12,0,12.92-2.2,27.82-9.85,40.45,1.46,3.58,2.86,7.35,4.06,11.34h0c3.3,10.85,4.89,21.3,4.89,30.14,0,4.99-.51,9.47-1.53,13.23-.99,3.64-2.45,6.61-4.47,8.71l-10.46,32.55c3,.38,5.97.92,8.91,1.62,9.16,2.17,17.28,5.62,23.54,9.71,6.25,4.09,10.69,8.79,12.39,13.65l.24.7-.57.48-.61.52h-.4c-.5,0-.97-.12-1.59-.29-.61-.17-1.34-.41-2.16-.7-1.63-.58-3.64-1.36-5.74-2.18-2.88-1.13-5.94-2.33-8.43-3.21.06.04.12.07.18.11,2.7,1.63,6.17,3.7,9.21,5.73,2.03,1.36,3.86,2.69,5.19,3.91.76.7,1.36,1.36,1.75,2.07.2.38.36.79.36,1.28,0,.4-.14.85-.41,1.18l-.04.06-.05.05c-.56.55-1.31.85-2.08.85-.08,0-.17,0-.25-.02-1.02,0-2.18-.24-3.49-.6-1.31-.37-2.76-.87-4.28-1.44-3.03-1.15-6.31-2.57-9.1-3.72-.8-.33-1.54-.63-2.24-.9.07.04.13.08.19.12,2.29,1.38,5.2,3.06,7.63,4.82,1.62,1.18,3.02,2.37,3.92,3.66.51.74.87,1.54.88,2.43,0,.43-.09.87-.28,1.27-.19.4-.46.77-.8,1.09,0,0,0,0,0,0h0s0,0,0,0c-.46.42-1.03.71-1.79,1.01-.76.3-1.72.58-2.85.82-2.27.49-5.26.85-8.81.85h0c-6.5-.04-12.95-1.07-19.14-3.06h0c-7.6-2.4-14.59-5.34-20.38-8.62-5.79-3.29-10.39-6.91-13.22-10.76-1.88-2.57-2.97-5.27-2.98-8.03,0-.83.1-1.67.31-2.49v-.02s0-.02,0-.02c.91-3.18,3-5.88,5.82-7.57l16.4-47.1c-5.94-8.63-10.51-18.13-13.56-28.16-7.78,1.92-15.77,2.9-23.78,2.9-.21,0-.42,0-.64,0h-1.11c-.18,0-.36,0-.54,0-8.47,0-16.88-1.26-24.98-3.7-3.08,10.39-7.8,20.22-13.98,29.13l16.39,47.1c2.83,1.7,4.91,4.39,5.82,7.57v.03s.01.03.01.03c.17.77.26,1.54.26,2.31,0,2.77-1.09,5.49-2.95,8.07-1.87,2.59-4.53,5.06-7.81,7.41-6.55,4.69-15.58,8.88-25.76,12.1,0,0,0,0,0,0h0s0,0,0,0c-6.19,1.98-12.64,3.01-19.14,3.06h0c-2.66,0-5.02-.19-6.98-.49-1.97-.3-3.54-.7-4.7-1.15-.75-.3-1.32-.59-1.78-1.04h0s-.01-.01-.02-.02c0,0-.01,0-.02-.02h0c-.32-.32-.59-.67-.77-1.06-.19-.4-.28-.84-.28-1.27,0-.7.23-1.35.57-1.95.34-.6.79-1.16,1.33-1.71,1.07-1.1,2.46-2.16,3.98-3.2,2.22-1.51,4.71-2.95,6.69-4.14-1.38.54-2.98,1.21-4.68,1.92-4.02,1.69-8.49,3.57-11.79,4.36-.89.21-1.7.34-2.44.35h0s-.09,0-.14.01c0,0,0,0,0,0h0c-.08,0-.17.02-.25.02-.77,0-1.52-.3-2.08-.85l-.05-.05-.04-.06c-.26-.33-.4-.78-.4-1.18,0-.65.27-1.16.59-1.65.33-.49.76-.96,1.27-1.46,1.02-.98,2.39-2.04,3.94-3.12,3.1-2.17,6.93-4.48,9.98-6.32.28-.17.56-.34.83-.5-.7.25-1.45.52-2.22.81-3.24,1.22-6.96,2.72-9.97,3.85-2.01.75-3.67,1.34-4.79,1.58-.3.06-.57.11-.86.11h-.4l-1.18-1,.24-.7c1.7-4.87,6.14-9.56,12.39-13.65,6.26-4.08,14.37-7.53,23.52-9.71,2.95-.7,5.93-1.24,8.94-1.62l-10.48-32.56c-1.99-2.09-3.44-5.08-4.43-8.73-1.01-3.78-1.52-8.28-1.52-13.3,0-8.82,1.57-19.24,4.84-30.05,1.55-5.11,3.44-10.1,5.65-14.95-7.84-14.15-10.08-30.49-10.08-43.64,0-8.66.97-15.92,1.98-20.31,1.63-7.09,2.28-12.6,2.28-17.11,0-1.01-.04-1.96-.1-2.87-4.14,7.69-8.57,14.56-13,20.31-4.86,6.31-9.7,11.26-14.18,14.5.01.88.03,1.76.03,2.63,0,12.66-1.45,25.28-4.33,37.61h0c-4.01,18.3-9.91,33.82-15.9,43.24,3.27,8.11,5.46,19.53,6.86,30.58,1.43,11.28,2.03,22.11,2.03,28.47,0,.18,0,.33,0,.48,0,.15,0,.28-.04.46-.03.12-.05.27-.18.48-.07.12-.19.26-.36.37-.19.13-.45.2-.64.19-.29,0-.51-.11-.64-.2-.14-.09-.21-.18-.27-.25-.12-.14-.17-.25-.23-.37-.11-.22-.2-.46-.3-.76-.2-.58-.42-1.37-.68-2.34-.51-1.94-1.14-4.58-1.83-7.48-1.38-5.79-3.01-12.63-4.35-16.69-.23-.71-.46-1.31-.66-1.82-.01.11-.02.21-.03.33-.07.85-.1,1.92-.1,3.12,0,5.1.55,12.64.55,18.14,0,1.31-.03,2.51-.11,3.54-.08,1.04-.21,1.91-.43,2.63-.16.48-.34.92-.78,1.31l-.3.26h-.54c-.35,0-.63-.15-.81-.28-.18-.14-.29-.28-.38-.42-.18-.27-.29-.54-.41-.86-.23-.64-.44-1.46-.65-2.46-.43-1.99-.86-4.68-1.31-7.59-.88-5.82-1.81-12.58-2.69-16.21-.01-.06-.03-.11-.04-.17-.02.09-.03.18-.05.28-.3,1.84-.59,4.43-.88,7.28-.57,5.7-1.11,12.43-1.68,16.58-.16,1.19-.33,2.16-.51,2.89-.1.39-.19.7-.37,1.03-.1.16-.2.36-.51.56-.16.1-.39.19-.64.19h-.33l-.27-.18c-.23-.16-.35-.32-.44-.46-.09-.14-.15-.28-.2-.42-.1-.27-.18-.57-.25-.91-.14-.68-.25-1.53-.35-2.56-.2-2.04-.35-4.73-.49-7.65-.24-5.22-.42-11.16-.69-15.26-.23,1.16-.47,2.49-.72,3.92-.88,5.06-1.85,11.38-2.7,16.42-.57,3.37-1.07,6.13-1.48,7.67-.11.42-.21.74-.35,1.03-.09.16-.14.32-.41.55-.14.11-.39.27-.75.27h-1.08v-1.07c-.28-.88-.49-1.99-.66-3.31-.19-1.42-.33-3.08-.44-4.88-.22-3.61-.3-7.79-.3-11.76,0-5.13.14-9.89.31-12.56.42-6.56,1.08-12.96,2.08-18.68.97-5.57,2.25-10.49,3.96-14.33-.64-3.65-.96-7.96-.96-12.8,0-10.31,1.44-22.98,4.38-36.41,2.18-9.96,4.96-19.18,8-27.01,2.99-7.69,6.23-14.03,9.47-18.47.94-11.98,6.02-28.41,14.59-45.14,5.24-10.25,11.06-19.18,16.79-26.15,5.64-6.86,11.17-11.82,16.11-14.29,5.37-7.21,11.88-13.51,17.91-21.98-3.99-1.86-7.33-4.36-10.18-7.27-3.15-3.21-5.74-6.89-8.07-10.76-4.66-7.73-8.34-16.17-13.3-23-3.31-4.56-7.16-8.39-12.23-10.92h0c-11.21-5.55-24.04-14.81-34.12-27.42-10.07-12.6-17.38-28.59-17.41-47.49h0c0-30.71,15.89-57.38,41.44-76.3,25.55-18.93,60.77-30.16,99.63-30.17h2.12v-.1c38.87,0,73.58,11.77,98.87,30.95,25.29,19.18,41.16,45.82,42.2,75.47.03.75.04,1.49.04,2.23,0,18.34-8.01,33.84-18.42,46.06-10.42,12.23-23.25,21.22-33.1,26.63h0c-7.67,4.23-12.56,11.11-16.92,18.72-4.36,7.6-8.16,15.9-13.77,22.76-3.48,4.25-7.7,7.93-13.15,10.48,5.56,7.82,11.55,13.79,16.67,20.34.33-.05.67-.08,1-.08h.09c2.71.01,5.65,1.18,8.79,3.21,3.14,2.04,6.48,4.99,9.91,8.69,6.85,7.41,14.05,17.88,20.41,30.26,8.57,16.67,13.65,33.16,14.59,45.15,3.23,4.48,6.47,10.81,9.46,18.48,3.04,7.81,5.82,17,8.01,26.99h0c2.99,13.44,4.41,26.08,4.41,36.37,0,6.06-.5,11.29-1.48,15.42,3.31,8.12,5.52,19.68,6.94,30.85,1.43,11.32,2.03,22.19,2.03,28.56,0,.18,0,.33,0,.48Z"/>
    <path class="cls-1" d="M360.78,262.02l-1.26-1.65c-6.24,4.39-13.61,6.87-21.23,7.16-5.23-.11-10.38-1.36-15.07-3.67-1.59-.76-3.14-1.61-4.63-2.55l-1.22-.81-.31-.21-1.24,1.65,1.24,1.62c6.24-4.39,13.61-6.87,21.23-7.16,5.2.11,10.32,1.34,15,3.6,1.59.75,3.12,1.6,4.6,2.55.55.33.95.62,1.24.81l.31.24,1.26-1.62-1.26-1.65,1.26,1.65,1.24-1.65c-6.97-5.02-15.27-7.86-23.85-8.16-8.58.3-16.88,3.14-23.85,8.16l-2.12,1.65,2.12,1.62c6.97,5.03,15.27,7.87,23.85,8.18,8.59-.3,16.89-3.15,23.85-8.18l2.15-1.62-2.15-1.65-1.17,1.69Z"/>
    <path class="cls-1" d="M275.62,172.98h0c1.84,0,3.65,0,5.44.26,18.41,1.79,32.75,23.4,37.69,31.87-11.13,6.13-23.56,9.52-36.26,9.88-1.84,0-3.67,0-5.44-.26-18.41-1.77-32.75-23.4-37.69-31.87,11.13-6.14,23.56-9.52,36.26-9.88M275.62,168.87c-22.9,0-41.79,12.45-41.79,12.45,0,0,17.41,35.04,42.94,37.5,1.98.19,3.91.29,5.84.29,22.88,0,41.79-12.48,41.79-12.48,0,0-17.41-35.04-42.94-37.5-1.98-.19-3.94-.26-5.84-.26Z"/>
    <path class="cls-1" d="M400.59,173.1c16.86,0,31.72,7.56,38.02,11.28-5.25,8.28-20.39,29.32-38.86,30.41h-3.24c-16.86,0-31.72-7.56-38.16-11.31,5.27-8.28,20.39-29.32,38.86-30.39h3.27M400.47,168.97h-3.51c-25.47,1.5-44.22,35.78-44.22,35.78,0,0,19.7,14.07,43.65,14.07h3.51c25.48-1.48,44.2-35.78,44.2-35.78,0,0-19.56-14.07-43.51-14.07h-.12Z"/>
    <path class="cls-1" d="M333.18,237.55s-5.58,3.41-10.23,1.67-6.63-7.97-6.63-7.97c0,0,5.58-3.41,10.23-1.67,4.65,1.74,6.63,7.97,6.63,7.97Z"/>
    <path class="cls-1" d="M341.05,237.55s5.58,3.41,10.23,1.67,6.61-7.97,6.61-7.97c0,0-5.58-3.41-10.23-1.67-4.65,1.74-6.61,7.97-6.61,7.97Z"/>
    <path class="cls-3" d="M393.95,151.65s-22.52,19.08-51.5,19.08-51.5-19.08-51.5-19.08c0,0,31.53,11.38,51.5,11.38s51.5-11.38,51.5-11.38Z"/>
  </g>
</svg>