<?xml version="1.0" encoding="utf-8"?>
<!-- Generator: Adobe Illustrator 16.0.4, SVG Export Plug-In . SVG Version: 6.00 Build 0)  -->
<!DOCTYPE svg PUBLIC "-//W3C//DTD SVG 1.1//EN" "http://www.w3.org/Graphics/SVG/1.1/DTD/svg11.dtd">
<svg version="1.1" id="Layer_1" xmlns="http://www.w3.org/2000/svg" xmlns:xlink="http://www.w3.org/1999/xlink" x="0px" y="0px"
	 width="164px" height="128px" viewBox="-18.5 0 164 128" enable-background="new -18.5 0 164 128" xml:space="preserve">
<path fill="#E4E3BD" d="M107.912,9.725l-3.287,3.285c-2.291,2.293-2.299,6.006-0.012,8.292l4.252,4.255H-3.92
	c-3.204,0-5.804,2.605-5.804,5.821v4.608c0,3.213,2.6,5.818,5.804,5.818h112.786l-4.252,4.254c-2.287,2.287-2.279,6,0.012,8.291
	l3.285,3.289c2.295,2.291,6.006,2.299,8.293,0.01l19.811-19.807c1.146-1.146,1.715-2.656,1.707-4.162
	c0.008-1.508-0.561-3.014-1.709-4.162L116.203,9.709C113.918,7.426,110.205,7.432,107.912,9.725z"/>
<path fill="#B6D4DD" d="M20.084,116.275l3.287-3.287c2.292-2.293,2.299-6.004,0.014-8.291l-4.253-4.254h112.786
	c3.205,0,5.805-2.606,5.805-5.821v-4.608c0-3.215-2.6-5.82-5.805-5.82H19.132l4.252-4.254c2.287-2.287,2.279-6-0.014-8.291
	l-3.286-3.287c-2.293-2.293-6.004-2.299-8.292-0.012L-8.017,88.157c-1.146,1.147-1.716,2.655-1.708,4.161
	c-0.006,1.509,0.562,3.015,1.709,4.164l19.808,19.808C14.079,118.575,17.792,118.57,20.084,116.275z"/>
</svg>
