<svg id="materials" xmlns="http://www.w3.org/2000/svg" viewBox="0 0 460 39.07"><defs><style>.cls-1{fill:#515556;}.cls-2{fill:#fff;}</style></defs><title>auth-form-title</title><path class="cls-1" d="M125,36.39c-3.15,0-5-1.72-5-4.72v-2h-3.89c-5.39,0-6.52-3.53-6.52-6.49v-10c0-3,1.13-6.52,6.52-6.52h3.93a4.38,4.38,0,0,1,4.65-4c2.85,0,4.65,1.49,4.92,4h4c5.65,0,6.49,4.08,6.49,6.52v10c0,3-1.13,6.49-6.49,6.49h-4v2A4.42,4.42,0,0,1,125,36.39Z"/><path class="cls-1" d="M124.7,5.18c1.92,0,2.46.81,2.46,2.22V9.2h6.45c2.52,0,4,.87,4,4v10c0,3.21-1.53,4-4,4h-6.45v4.5A2,2,0,0,1,125,33.89c-1.89,0-2.46-.75-2.46-2.22v-4.5h-6.39c-2.49,0-4-.78-4-4v-10c0-3.15,1.47-4,4-4h6.39V7.4a2,2,0,0,1,2.19-2.22m2.46,11H133v-2.1a.76.76,0,0,0-.84-.84h-5v2.94m-10.53,0h5.88V13.28h-5a.75.75,0,0,0-.84.84v2.1m10.53,6.84h5a.75.75,0,0,0,.84-.84V20h-5.88v3.06m-9.69,0h5V20h-5.88v2.22a.73.73,0,0,0,.84.84M124.7.18a6.87,6.87,0,0,0-6.55,4h-2c-5.65,0-9,3.37-9,9v10c0,5.63,3.37,9,9,9h1.4c.22,4.1,3.09,6.72,7.45,6.72a6.87,6.87,0,0,0,7.18-6.72h1.46c5.63,0,9-3.36,9-9v-10c0-5.65-3.36-9-9-9h-2.07c-1.09-2.51-3.54-4-6.84-4Z"/><path class="cls-1" d="M154.31,35.16c-5.19,0-8.65-1.4-10.86-4.41-1.27-1.69-2-3.72-2-9.55,0-.75.18-12.66.26-13.25.36-3.84,3.38-4.43,5.15-4.43a4.65,4.65,0,0,1,5,5.05c0,.43-.21,4.94-.21,5-.21,4-.27,5.23-.27,8.67,0,2.87.08,3.35,2.78,3.35,3.89,0,5.5-1.26,6.15-4.82.33-1.79.94-5.11,5-5.11,3.11,0,5.2,1.88,5.2,4.69a16.86,16.86,0,0,1-3.32,9.26C164.44,33.29,160.1,35.16,154.31,35.16Z"/><path class="cls-1" d="M146.9,6a2.21,2.21,0,0,1,2.46,2.55c0,.3-.18,4.26-.21,4.86-.21,4.11-.27,5.34-.27,8.79,0,3,.21,5.85,5.28,5.85,5.25,0,7.77-2.25,8.61-6.87.33-1.8.57-3.06,2.55-3.06.45,0,2.7,0,2.7,2.19a14.31,14.31,0,0,1-2.82,7.77c-2.4,3.21-6.15,4.56-10.89,4.56-4.47,0-7.17-1.11-8.85-3.39-.81-1.08-1.47-2.49-1.47-8.07,0-2.07.21-12.69.24-12.93C144.35,7,144.77,6,146.9,6m0-5c-4.32,0-7.25,2.6-7.65,6.78h0c-.12,1.76-.27,13.29-.27,13.4,0,5.81.62,8.6,2.47,11.07,2.67,3.61,6.88,5.39,12.85,5.39,6.63,0,11.64-2.21,14.89-6.57A19.3,19.3,0,0,0,173,20.33c0-4.17-3.24-7.19-7.7-7.19-6.16,0-7.14,5.39-7.47,7.16a4.32,4.32,0,0,1-.9,2.2,5,5,0,0,1-2.79.57h-.27c0-.23,0-.51,0-.84,0-3.37.06-4.57.26-8.53,0-.06.22-4.6.22-5.12A7.11,7.11,0,0,0,146.9,1Z"/><path class="cls-1" d="M173.06,36a5.2,5.2,0,0,1-5-5.23,4.77,4.77,0,0,1,2.13-3.95l1.44-1.13V22.89a4.26,4.26,0,0,1-3.42-4.45c0-3,1.74-4.79,4.66-4.81l-.12-.11c-.19-.2-.75-.68-1.3-1.16s-1.25-1.09-1.46-1.3a4.37,4.37,0,0,1-1.36-3,5,5,0,0,1,4.87-5c1.47,0,2.73.66,5.16,2.72l.3.26a4.45,4.45,0,0,1,4.26-2.44h5.37c5.63,0,6,3.89,6.21,6.47a19.2,19.2,0,0,0,1.46,6,15,15,0,0,0,3,4.58c1.35,1.5,2.31,2.57,2.31,4.43a5,5,0,0,1-.88,2.78,4.65,4.65,0,0,1,1,3A4.5,4.5,0,0,1,197,35.55h-12.9a12.16,12.16,0,0,1-6.91-1.81l-.2.2A5.27,5.27,0,0,1,173.06,36Zm17.83-9.77-.29-.44c-.39-.58-.75-1.18-1.08-1.79-.39.57-.79,1.12-1.23,1.65-.15.2-.31.39-.46.58Zm-11.15-11a6.26,6.26,0,0,1,1.24,4,17.9,17.9,0,0,0,1.62-2.18A18.09,18.09,0,0,0,184.53,13H183.2a5.5,5.5,0,0,1-1.5-.19A5.41,5.41,0,0,1,179.74,15.19Z"/><path class="cls-1" d="M173.48,5.51c.51,0,1.17.12,3.54,2.13,1.2,1,2.55,2.19,2.55,3.36a2.65,2.65,0,0,1-2.46,2.49c-.78,0-1-.18-2.61-1.74-.42-.42-2.37-2.07-2.76-2.46A1.91,1.91,0,0,1,171.11,8a2.47,2.47,0,0,1,2.37-2.52m15.09.54c3.36,0,3.48,1.53,3.72,4.23A21.46,21.46,0,0,0,193.94,17a17.72,17.72,0,0,0,3.48,5.31c1.35,1.5,1.65,1.92,1.65,2.73a2.72,2.72,0,0,1-2.55,2.58c-.9,0-2-.36-3.84-3.21a20.4,20.4,0,0,1-2.85-6.51,21.61,21.61,0,0,1-3.48,6.18c-1.26,1.59-3.06,3.54-4.59,3.54a2.59,2.59,0,0,1-2.46-2.52,1.93,1.93,0,0,1,.63-1.41,20.76,20.76,0,0,0,4.77-5.25A17.89,17.89,0,0,0,187.52,11c0-.42-.3-.54-.66-.54H183.2A2,2,0,0,1,181,8.3a2,2,0,0,1,2.25-2.25h5.37m-13.8,10.08c3.12,0,3.72.57,3.72,3.69v5.46c.27,2.52,2.73,3.42,5.43,3.42h13.14a2,2,0,0,1,2.16,2.13A2.05,2.05,0,0,1,197,33.05h-12.9c-4.83,0-6.45-2-7.17-3a11.61,11.61,0,0,1-1.74,2.19c-.87.9-1.32,1.26-2.16,1.26a2.68,2.68,0,0,1-2.52-2.73,2.33,2.33,0,0,1,1.17-2c1.14-.87,1.32-1,2.4-1.92V21.29c0-.21,0-.78-.54-.78h-.81a1.86,1.86,0,0,1-2.07-2.07c0-1.62.63-2.31,2.22-2.31h1.86M173.48.51A7.45,7.45,0,0,0,166.11,8a6.87,6.87,0,0,0,2,4.71,7.2,7.2,0,0,0-2.43,5.7A6.87,6.87,0,0,0,169,24.53l-.33.26-.05,0a7.32,7.32,0,0,0-3.09,5.92,7.64,7.64,0,0,0,7.52,7.73,7,7,0,0,0,4.56-1.66,15.75,15.75,0,0,0,6.51,1.24H197a7,7,0,0,0,7.19-7.22,7.44,7.44,0,0,0-.66-3.14,7.3,7.3,0,0,0,.51-2.68c0-2.82-1.49-4.47-2.93-6.08l0-.05A12.5,12.5,0,0,1,198.53,15a16.66,16.66,0,0,1-1.26-5.1V9.84a11.1,11.1,0,0,0-1.53-5.5c-1.48-2.18-3.89-3.29-7.17-3.29H183.2a7.42,7.42,0,0,0-4.58,1.46,8.3,8.3,0,0,0-5.14-2Z"/><path class="cls-1" d="M216.17,35.4a5.06,5.06,0,0,1-4.55-3.18,6.37,6.37,0,0,1-4.27,1.59,9,9,0,0,1-8.53-9.31A10.29,10.29,0,0,1,206,14.56a15.41,15.41,0,0,1,2.93-.75,0,0,0,0,1,0,0l-.6,0c-1.36.08-2.22.13-2.64.13a4.5,4.5,0,0,1-4.9-4.78c0-4.34,3.72-4.81,5.32-4.81h1.68c.6,0,3.28-.08,4.56-.12l1,0c5.61,0,5.89,4.26,5.89,5.11v.09a5.15,5.15,0,0,1,3.29-1c1.91,0,5.11.73,5.11,5.59,0,1.14-.08,2.54-.18,3.8,1.89,1,3.57,2.29,3.57,4.78s-2,5.17-4.78,5.17a4.79,4.79,0,0,1-.79-.06C223.45,32.11,219.65,35.4,216.17,35.4Zm0-11.83c-.14.46-.31,1-.5,1.5a3.47,3.47,0,0,0,1-1.34Z"/><path class="cls-1" d="M213.38,6.71c.84,0,3.39,0,3.39,2.61a23.59,23.59,0,0,1-.51,3.51c-.09.57-.72,3-.84,3.51a46.88,46.88,0,0,1,4.68,1.14c0-.78-.06-4.29.09-5s.54-1.62,2.37-1.62c2.31,0,2.61,1.41,2.61,3.09s-.18,3.78-.3,5.31c2.22,1,3.69,1.71,3.69,3.27,0,1-.87,2.67-2.28,2.67-.72,0-1.11-.24-2.25-.87-1.26,4.74-5.07,8.55-7.86,8.55a2.57,2.57,0,0,1-2.4-2.46c0-1.17.42-1.44,3.15-3.21.69-.45,2.25-1.8,2.76-5a20.23,20.23,0,0,0-5.31-1.65,36.94,36.94,0,0,1-2.52,7.11c-.87,1.77-2.1,3.6-4.5,3.6-2.76,0-6-2.43-6-6.81a7.83,7.83,0,0,1,5.55-7.59,13.58,13.58,0,0,1,4.08-.78c.09-.39.54-2.07.57-2.34s.3-1.65.3-1.89c0-.63-.39-.72-.87-.72-.84,0-4.47.27-5.22.27a2.07,2.07,0,0,1-2.4-2.28c0-2.31,1.74-2.31,2.82-2.31h1.68c.87,0,5.43-.15,5.55-.15M209.9,20.27a10.86,10.86,0,0,0-1.89.48,4,4,0,0,0-2.67,3.84c0,1.74,1.11,2.16,1.47,2.16.63,0,1.11-.75,1.65-2.07a25.16,25.16,0,0,0,1.44-4.41m3.48-18.56-1.06,0c-1.18,0-3.93.12-4.49.12h-1.68a8.63,8.63,0,0,0-4.07.83,7,7,0,0,0-3.75,6.48,7.13,7.13,0,0,0,2.42,5.57,12.69,12.69,0,0,0-4.43,9.76,12,12,0,0,0,3.46,8.59,10.83,10.83,0,0,0,7.57,3.22,8.86,8.86,0,0,0,3.55-.7,7.35,7.35,0,0,0,5.27,2.29c4.4,0,8.4-3.46,10.81-7.72,4-.39,6.58-4.13,6.58-7.63a7.1,7.1,0,0,0-3.47-6.15c0-.84.08-1.68.08-2.43,0-6-3.93-8.09-7.61-8.09a8.75,8.75,0,0,0-1.47.12c-1.36-2.94-4.55-4.29-7.71-4.29Z"/><path class="cls-1" d="M237.8,34.74a4.94,4.94,0,0,1-4.84-5.2c0-3.38,2.92-4.18,4.32-4.57,5-1.37,8.5-3.85,10.08-7.16a15.94,15.94,0,0,0,1-2.51H234.83a4.56,4.56,0,0,1-4.9-4.84,4.59,4.59,0,0,1,4.9-4.9h18.42c1.77,0,5.89.54,5.89,5.59a27.35,27.35,0,0,1-4.33,13.43A24.66,24.66,0,0,1,241.61,34,13.36,13.36,0,0,1,237.8,34.74Z"/><path class="cls-1" d="M253.25,8.06c3.33,0,3.39,2,3.39,3.09a25.09,25.09,0,0,1-3.9,12,22.18,22.18,0,0,1-11.88,8.43,11.84,11.84,0,0,1-3.06.63c-1.92,0-2.34-2-2.34-2.7,0-1.44,1.08-1.77,2.49-2.16,5.7-1.56,9.78-4.53,11.67-8.49a16.27,16.27,0,0,0,1.59-5.37c0-.69-.42-.72-.78-.72h-15.6a2.11,2.11,0,0,1-2.4-2.34,2.12,2.12,0,0,1,2.4-2.4h18.42m0-5H234.83a7.08,7.08,0,0,0-7.4,7.4,7.05,7.05,0,0,0,7.4,7.34h9.65c-1.49,2.1-4.22,3.76-7.85,4.76-4.1,1.13-6.17,3.48-6.17,7a7.47,7.47,0,0,0,7.34,7.7,15.73,15.73,0,0,0,4.56-.86A27.25,27.25,0,0,0,256.87,26a30.24,30.24,0,0,0,4.77-14.85c0-5-3.21-8.09-8.39-8.09Z"/><path class="cls-1" d="M275.48,35.16c-2.31,0-6,0-6.73-3.54a6.08,6.08,0,0,1-2.69.75,4.76,4.76,0,0,1-4.6-4.87c0-2.53,2-3.61,3-4.13a21.17,21.17,0,0,0,3.11-2.1H266.3a4.37,4.37,0,0,1-4.72-4.6A4.38,4.38,0,0,1,266.3,12h6.86a4.72,4.72,0,0,1,9.32,0h1.1a4.38,4.38,0,0,1,4.72,4.6,4.38,4.38,0,0,1-4.72,4.63h-1.07v7.67C282.51,33.07,280.15,35.16,275.48,35.16Z"/><path class="cls-1" d="M277.79,10.55c1.32,0,2.22.51,2.22,2.07v1.92h3.57a1.91,1.91,0,0,1,2.22,2.1c0,1.71-1,2.13-2.22,2.13H280V28.94c0,3.72-2.76,3.72-4.53,3.72-2.76,0-4.35,0-4.35-2.34,0-1.71,1-2.07,1.86-2.07,0,0,1.44.09,1.71.09.81,0,.93-.12.93-.69V22.4A27.66,27.66,0,0,1,271,27c-1.44,1.14-3.63,2.85-5,2.85A2.27,2.27,0,0,1,264,27.5c0-1,.78-1.44,1.68-1.92a32.56,32.56,0,0,0,8.13-6.81H266.3a1.93,1.93,0,0,1-2.22-2.1c0-1.74,1.05-2.13,2.22-2.13h9.33V12.62c0-1.2.54-2.07,2.16-2.07m0-5a6.82,6.82,0,0,0-6.54,4H266.3a6.86,6.86,0,0,0-7.22,7.13,6.91,6.91,0,0,0,2.52,5.56A6.53,6.53,0,0,0,259,27.5a7.27,7.27,0,0,0,7.1,7.37,7,7,0,0,0,1.38-.14,6.84,6.84,0,0,0,3,2.29,13.31,13.31,0,0,0,5,.64c8.6,0,9.53-6.1,9.53-8.72V23.65a6.78,6.78,0,0,0,5.79-7,6.78,6.78,0,0,0-6.4-7.06,6.88,6.88,0,0,0-6.61-4Z"/><path class="cls-1" d="M294.14,24.48c-3.79,0-5.14-2.56-5.14-5,0-1.18.37-5,5.14-5h21.42c3.79,0,5.14,2.56,5.14,5,0,1.18-.37,5-5.14,5Z"/><path class="cls-1" d="M315.56,17c.75,0,2.64,0,2.64,2.46S316.52,22,315.56,22H294.14c-.75,0-2.64,0-2.64-2.46S293.09,17,294.14,17h21.42m0-5H294.14c-3.8,0-7.64,2.32-7.64,7.52,0,3.71,2.36,7.46,7.64,7.46h21.42c3.8,0,7.64-2.33,7.64-7.52,0-3.71-2.36-7.46-7.64-7.46Z"/><path class="cls-1" d="M345,34.74A4.15,4.15,0,0,1,341.35,33a4.83,4.83,0,0,1-.6-1.06c-5.71.78-7,1-13.52,1.74-.53.08-2.69.32-3.42.32a4.66,4.66,0,0,1-2.67-.73A5.25,5.25,0,0,1,319,28.91a4.19,4.19,0,0,1,3.33-4.46c1.73-4.65,2.9-8,5.13-16,.43-1.58,1.23-4.56,4.84-4.56,3.14,0,5.5,2,5.5,4.6a13.92,13.92,0,0,1-.95,4l0,.15c-1.73,5.18-2.64,7.87-3.78,10.85l4.13-.43-.07-.13c-1.16-2.23-1.47-2.83-1.47-4.05,0-3,2.62-4.6,5.08-4.6s3.61,1.53,4.72,3.37c.38.61,4.95,9.19,4.95,12.3S347.63,34.74,345,34.74Z"/><path class="cls-1" d="M332.33,6.35c1.38,0,3,.66,3,2.1a14.08,14.08,0,0,1-.87,3.36c-2.43,7.32-3.21,9.54-5.22,14.49,3.78-.33,4.59-.42,11.64-1.17-.33-.72-1.2-2.76-1.44-3.21-1.14-2.19-1.29-2.46-1.29-3.09,0-1.8,2-2.1,2.58-2.1,1,0,1.53.42,2.58,2.16.81,1.32,4.59,9,4.59,11,0,1.65-1.62,2.34-2.88,2.34a1.71,1.71,0,0,1-1.65-.72,8.16,8.16,0,0,1-1-2.34c-7.44,1-8.28,1.14-15.48,2-.63.09-2.61.3-3.12.3a2.23,2.23,0,0,1-1.32-.33,2.82,2.82,0,0,1-1-2.25c0-2,1.26-2.1,2.67-2.22a179.45,179.45,0,0,0,5.7-17.61c.42-1.56.75-2.73,2.43-2.73m0-5c-5.53,0-6.83,4.84-7.26,6.43-2,7.25-3.16,10.66-4.66,14.74a6.71,6.71,0,0,0-3.88,6.39,7.59,7.59,0,0,0,3.19,6.41l.06,0a7.18,7.18,0,0,0,4,1.13c.91,0,3.15-.26,3.76-.34,5.84-.71,7.48-.92,11.88-1.52A6.68,6.68,0,0,0,345,37.24c4.42,0,7.88-3.23,7.88-7.34s-5.28-13.54-5.33-13.63c-.94-1.56-2.74-4.54-6.84-4.54a8.43,8.43,0,0,0-1,.06,11.6,11.6,0,0,0,.61-3.34c0-4-3.44-7.1-8-7.1Z"/><path class="cls-2" d="M122.51,7.4a2,2,0,0,1,2.19-2.22c1.92,0,2.46.81,2.46,2.22V9.2h6.45c2.52,0,4,.87,4,4v10c0,3.21-1.53,4-4,4h-6.45v4.5A2,2,0,0,1,125,33.89c-1.89,0-2.46-.75-2.46-2.22v-4.5h-6.39c-2.49,0-4-.78-4-4v-10c0-3.15,1.47-4,4-4h6.39Zm-5.88,8.82h5.88V13.28h-5a.75.75,0,0,0-.84.84Zm5.88,6.84V20h-5.88v2.22a.73.73,0,0,0,.84.84Zm4.65-9.78v2.94H133v-2.1a.76.76,0,0,0-.84-.84ZM133,20h-5.88v3.06h5a.75.75,0,0,0,.84-.84Z"/><path class="cls-2" d="M149.36,8.57c0,.3-.18,4.26-.21,4.86-.21,4.11-.27,5.34-.27,8.79,0,3,.21,5.85,5.28,5.85,5.25,0,7.77-2.25,8.61-6.87.33-1.8.57-3.06,2.55-3.06.45,0,2.7,0,2.7,2.19a14.31,14.31,0,0,1-2.82,7.77c-2.4,3.21-6.15,4.56-10.89,4.56-4.47,0-7.17-1.11-8.85-3.39-.81-1.08-1.47-2.49-1.47-8.07,0-2.07.21-12.69.24-12.93C144.35,7,144.77,6,146.9,6A2.21,2.21,0,0,1,149.36,8.57Z"/><path class="cls-2" d="M197.06,28.7a2,2,0,0,1,2.16,2.13A2.05,2.05,0,0,1,197,33.05h-12.9c-4.83,0-6.45-2-7.17-3a11.61,11.61,0,0,1-1.74,2.19c-.87.9-1.32,1.26-2.16,1.26a2.68,2.68,0,0,1-2.52-2.73,2.33,2.33,0,0,1,1.17-2c1.14-.87,1.32-1,2.4-1.92V21.29c0-.21,0-.78-.54-.78h-.81a1.86,1.86,0,0,1-2.07-2.07c0-1.62.63-2.31,2.22-2.31h1.86c3.12,0,3.72.57,3.72,3.69v5.46c.27,2.52,2.73,3.42,5.43,3.42ZM173.48,5.51c.51,0,1.17.12,3.54,2.13,1.2,1,2.55,2.19,2.55,3.36a2.65,2.65,0,0,1-2.46,2.49c-.78,0-1-.18-2.61-1.74-.42-.42-2.37-2.07-2.76-2.46A1.91,1.91,0,0,1,171.11,8,2.47,2.47,0,0,1,173.48,5.51Zm9.72,5A2,2,0,0,1,181,8.3a2,2,0,0,1,2.25-2.25h5.37c3.36,0,3.48,1.53,3.72,4.23A21.46,21.46,0,0,0,193.94,17a17.72,17.72,0,0,0,3.48,5.31c1.35,1.5,1.65,1.92,1.65,2.73a2.72,2.72,0,0,1-2.55,2.58c-.9,0-2-.36-3.84-3.21a20.4,20.4,0,0,1-2.85-6.51,21.61,21.61,0,0,1-3.48,6.18c-1.26,1.59-3.06,3.54-4.59,3.54a2.59,2.59,0,0,1-2.46-2.52,1.93,1.93,0,0,1,.63-1.41,20.76,20.76,0,0,0,4.77-5.25A17.89,17.89,0,0,0,187.52,11c0-.42-.3-.54-.66-.54Z"/><path class="cls-2" d="M220.19,12.5c.15-.66.54-1.62,2.37-1.62,2.31,0,2.61,1.41,2.61,3.09s-.18,3.78-.3,5.31c2.22,1,3.69,1.71,3.69,3.27,0,1-.87,2.67-2.28,2.67-.72,0-1.11-.24-2.25-.87-1.26,4.74-5.07,8.55-7.86,8.55a2.57,2.57,0,0,1-2.4-2.46c0-1.17.42-1.44,3.15-3.21.69-.45,2.25-1.8,2.76-5a20.23,20.23,0,0,0-5.31-1.65,36.94,36.94,0,0,1-2.52,7.11c-.87,1.77-2.1,3.6-4.5,3.6-2.76,0-6-2.43-6-6.81a7.83,7.83,0,0,1,5.55-7.59,13.58,13.58,0,0,1,4.08-.78c.09-.39.54-2.07.57-2.34s.3-1.65.3-1.89c0-.63-.39-.72-.87-.72-.84,0-4.47.27-5.22.27a2.07,2.07,0,0,1-2.4-2.28c0-2.31,1.74-2.31,2.82-2.31h1.68c.87,0,5.43-.15,5.55-.15.84,0,3.39,0,3.39,2.61a23.59,23.59,0,0,1-.51,3.51c-.09.57-.72,3-.84,3.51a46.88,46.88,0,0,1,4.68,1.14C220.13,16.7,220,13.19,220.19,12.5ZM208,20.75a4,4,0,0,0-2.67,3.84c0,1.74,1.11,2.16,1.47,2.16.63,0,1.11-.75,1.65-2.07a25.16,25.16,0,0,0,1.44-4.41A10.86,10.86,0,0,0,208,20.75Z"/><path class="cls-2" d="M253.25,8.06c3.33,0,3.39,2,3.39,3.09a25.09,25.09,0,0,1-3.9,12,22.18,22.18,0,0,1-11.88,8.43,11.84,11.84,0,0,1-3.06.63c-1.92,0-2.34-2-2.34-2.7,0-1.44,1.08-1.77,2.49-2.16,5.7-1.56,9.78-4.53,11.67-8.49a16.27,16.27,0,0,0,1.59-5.37c0-.69-.42-.72-.78-.72h-15.6a2.11,2.11,0,0,1-2.4-2.34,2.12,2.12,0,0,1,2.4-2.4Z"/><path class="cls-2" d="M275.63,12.62c0-1.2.54-2.07,2.16-2.07,1.32,0,2.22.51,2.22,2.07v1.92h3.57a1.91,1.91,0,0,1,2.22,2.1c0,1.71-1,2.13-2.22,2.13H280V28.94c0,3.72-2.76,3.72-4.53,3.72-2.76,0-4.35,0-4.35-2.34,0-1.71,1-2.07,1.86-2.07,0,0,1.44.09,1.71.09.81,0,.93-.12.93-.69V22.4A27.66,27.66,0,0,1,271,27c-1.44,1.14-3.63,2.85-5,2.85A2.27,2.27,0,0,1,264,27.5c0-1,.78-1.44,1.68-1.92a32.56,32.56,0,0,0,8.13-6.81H266.3a1.93,1.93,0,0,1-2.22-2.1c0-1.74,1.05-2.13,2.22-2.13h9.33Z"/><path class="cls-2" d="M294.14,22c-.75,0-2.64,0-2.64-2.46S293.09,17,294.14,17h21.42c.75,0,2.64,0,2.64,2.46S316.52,22,315.56,22Z"/><path class="cls-2" d="M329.9,9.08c.42-1.56.75-2.73,2.43-2.73,1.38,0,3,.66,3,2.1a14.08,14.08,0,0,1-.87,3.36c-2.43,7.32-3.21,9.54-5.22,14.49,3.78-.33,4.59-.42,11.64-1.17-.33-.72-1.2-2.76-1.44-3.21-1.14-2.19-1.29-2.46-1.29-3.09,0-1.8,2-2.1,2.58-2.1,1,0,1.53.42,2.58,2.16.81,1.32,4.59,9,4.59,11,0,1.65-1.62,2.34-2.88,2.34a1.71,1.71,0,0,1-1.65-.72,8.16,8.16,0,0,1-1-2.34c-7.44,1-8.28,1.14-15.48,2-.63.09-2.61.3-3.12.3a2.23,2.23,0,0,1-1.32-.33,2.82,2.82,0,0,1-1-2.25c0-2,1.26-2.1,2.67-2.22A179.45,179.45,0,0,0,329.9,9.08Z"/></svg>