<?xml version="1.0" encoding="UTF-8"?>
<svg id="_レイヤー_1" data-name="レイヤー_1" xmlns="http://www.w3.org/2000/svg" viewBox="0 0 660 660">
  <defs>
    <style>
      .cls-1 {
        fill: #4742c2;
      }

      .cls-2 {
        fill: #fff;
      }

      .cls-3 {
        fill: #dadaea;
      }
    </style>
  </defs>
  <path class="cls-1" d="M249.07,603.77l-125.76-152.28-.42-.52-.58-.82-.38-.58-.1-.17c-8.6-14.34-15.05-29.83-19.15-46.04-4.33-16.43-6.59-33.32-6.73-50.25-.05-7.73.63-15.53,2-23.15l44.1-234.49c1.98-12.15,7.59-23.2,16.23-31.96,8.64-8.45,20.14-13.14,32.32-13.14h.65c7.89.09,15.6,1.76,22.87,4.97,7.56,3.36,14.57,7.83,20.83,13.27l75.04,63.86c11.22,9.57,21.99,19.35,30.36,33.61l.34.61c.47.83.93,1.65,1.37,2.5.71,1.35,1.99,2.31,3.49,2.59.31.06.62.09.94.09,1.19,0,2.35-.42,3.27-1.21,5.26-4.53,11.03-8.49,17.15-11.77,8.27-4.27,17.03-7.91,25.96-10.8l93.06-32.24c8.33-2.96,17-4.57,25.8-4.8h1.39c6.53,0,12.96,1.09,19.11,3.25,6.42,2.26,12.18,5.79,17.11,10.49,4.87,4.69,8.73,10.53,11.14,16.87,2.49,6.53,3.68,13.39,3.56,20.38-.02,4.43-.44,8.82-1.26,13.11l-44.09,234.5c-3.31,17.28-11.63,36.7-24.06,56.14-11.06,17.78-24.97,33.3-41.38,46.19l-.28.2-.54.4-.19.12-.7.45-.62.38-172.22,96.12-29.63-5.86Z"/>
  <path class="cls-2" d="M266.79,590.51l-126.19-152.9c-17.04-27.3-26.43-73.87-20.87-103.51l44.09-234.41c5.56-29.7,31.16-35.99,56.7-14.15l75.08,63.77c25.68,21.87,46.2,42.44,31.51,120.58l-60.32,320.61"/>
  <path class="cls-3" d="M266.79,590.51l173.12-96.6c25.81-19.25,51.46-59.24,57.05-88.85l44.06-234.43c5.59-29.7-15.93-44.85-47.79-33.83l-93.01,32.21c-31.86,11.04-58.43,22.76-73.11,100.9l-60.32,320.61"/>
</svg>