<svg id="materials" xmlns="http://www.w3.org/2000/svg" viewBox="0 0 240 240"><defs><style>.cls-1{fill:#fff;}.cls-2{fill:#515556;}.cls-3{fill:#f8ed00;}.cls-4{fill:#00ad9c;}</style></defs><title>beginner</title><path class="cls-1" d="M196.7,48.13a12.77,12.77,0,0,0-9-3.28,23.71,23.71,0,0,0-7.75,1.43L145.45,58.2a59.62,59.62,0,0,0-8.69,3.6,28.92,28.92,0,0,0-11.43,11,44.57,44.57,0,0,0-3,5.91c-.19-7.22-1.74-12.53-4.2-16.73-2.62-4.48-6.17-7.66-9.84-10.78L80.57,27.6c-4-3.42-8.17-5.2-12-5.21a10.72,10.72,0,0,0-7.61,3,15.43,15.43,0,0,0-4.13,8.38L40.47,120.63a40,40,0,0,0-.63,7.37c0,10.74,3.28,23.65,8.58,32.17l.13.18L95.29,217l.16.15.15.15h0l.25.12.18.09.23.05.23,0,.2,0,.27,0h0l.2-.08.2-.08,64.12-35.79.18-.12A60.16,60.16,0,0,0,175.49,166c3.91-6.11,6.89-12.69,8-18.49L199.8,60.7a19.38,19.38,0,0,0,.36-3.62A12,12,0,0,0,196.7,48.13Z"/><polygon class="cls-1" points="58.58 23.02 58.59 23.02 58.59 23.02 58.58 23.02"/><polygon class="cls-2" points="58.58 23.02 59.17 23.62 59.18 23.61 59.24 23.55 59.28 23.48 57.96 22.46 57.95 22.46 59.17 23.62 58.58 23.02 59.21 23.58 59.21 23.57 58.59 23.02 57.89 22.55 57.89 22.55 58.59 23.02 57.99 22.42 57.99 22.43 58.58 23.02 59.21 23.58 58.58 23.02"/><polygon class="cls-1" points="135.17 58.85 135.18 58.85 135.18 58.84 135.17 58.85"/><polygon class="cls-2" points="135.17 58.85 135.55 59.6 135.55 59.6 135.62 59.56 135.68 59.52 134.71 58.15 134.71 58.15 135.55 59.6 135.17 58.85 135.64 59.55 135.64 59.54 135.18 58.84 134.68 58.17 134.67 58.18 135.18 58.85 134.8 58.1 134.8 58.1 135.17 58.85 135.64 59.55 135.17 58.85"/><polygon class="cls-1" points="199.02 45.7 199.03 45.71 199.03 45.71 199.02 45.7"/><polygon class="cls-2" points="199.02 45.7 198.43 46.3 198.43 46.3 198.44 46.3 199.62 45.12 199.62 45.11 198.43 46.3 199.02 45.7 198.43 46.3 198.44 46.3 199.62 45.12 199.62 45.11 199.62 45.11 198.43 46.3 199.02 45.7"/><path class="cls-1" d="M96.35,223.48l-.43,0-.7-.13-.76-.15a2.32,2.32,0,0,1-.61-.21l-.59-.29-.79-.4a3.07,3.07,0,0,1-.58-.42l-.47-.45-.26-.23-.25-.26L44,164l-.37-.5-.15-.23a63,63,0,0,1-7-16.86A74.41,74.41,0,0,1,34,128a47.1,47.1,0,0,1,.72-8.47L51,32.73a21.26,21.26,0,0,1,5.81-11.52,16.56,16.56,0,0,1,11.63-4.69h.14a21,21,0,0,1,8.22,1.8,30.44,30.44,0,0,1,7.56,4.81l27.77,23.62c3.29,2.82,7.81,6.67,11.1,12.29a33.12,33.12,0,0,1,2.06,4.18A34,34,0,0,1,134,56.63a62.51,62.51,0,0,1,9.54-4L178,40.73A29.64,29.64,0,0,1,187.52,39h0a20.85,20.85,0,0,1,7.12,1.16,17,17,0,0,1,6.08,3.74,16.5,16.5,0,0,1,4,6A19.71,19.71,0,0,1,206,57a26,26,0,0,1-.45,4.75l-16.34,86.89c-1.22,6.3-4.26,13.38-8.79,20.48l0,0a65.85,65.85,0,0,1-15.2,17l-.24.17-.36.23-64.56,36-.32.15-.38.15-.56.23a3,3,0,0,1-.71.18l-.78.08-.75.07Zm1.24-12.93,60.8-33.94a55,55,0,0,0,12.15-13.76c3.67-5.71,6.28-11.69,7.17-16.41L194,59.62a13.77,13.77,0,0,0,.26-2.54,8.17,8.17,0,0,0-.49-2.93,4.76,4.76,0,0,0-1.17-1.79,5.34,5.34,0,0,0-1.92-1.16,9.14,9.14,0,0,0-3-.47,18.06,18.06,0,0,0-5.86,1.1L147.37,63.75A54.12,54.12,0,0,0,139.58,67l0,0a23.08,23.08,0,0,0-9.18,8.88l0,0A41.55,41.55,0,0,0,127.79,81l-6.05,14.41A2.52,2.52,0,0,1,119.42,97a2.4,2.4,0,0,1-.46,0,2.51,2.51,0,0,1-2-2.41l-.4-15.62c-.16-5.79-1.23-10.21-3.4-13.92s-5.14-6.35-8.58-9.27L76.77,32.07a18.4,18.4,0,0,0-4.61-3,9.22,9.22,0,0,0-3.64-.85l0-2.52v2.52A4.91,4.91,0,0,0,65,29.61l0,0a9.7,9.7,0,0,0-2.45,5.25L46.24,121.72a34.08,34.08,0,0,0-.53,6.28,63,63,0,0,0,2.12,15.42,51.87,51.87,0,0,0,5.44,13.43Z"/><path class="cls-2" d="M68.46,19h.08a18.5,18.5,0,0,1,7.28,1.6A28,28,0,0,1,82.75,25h0l27.77,23.63c3.69,3.16,7.61,6.61,10.56,11.65a31.47,31.47,0,0,1,3.27,8,31.7,31.7,0,0,1,10.83-9.43A60.81,60.81,0,0,1,144.35,55l34.46-11.92a27.1,27.1,0,0,1,8.73-1.61h.14a18.26,18.26,0,0,1,6.16,1A14.62,14.62,0,0,1,199,45.71a14,14,0,0,1,3.37,5.11A17.12,17.12,0,0,1,203.51,57v0a23,23,0,0,1-.41,4.24l-16.32,86.83h0c-1.22,6.43-4.38,13.3-8.46,19.68h0a63.71,63.71,0,0,1-14.6,16.32l-.09.07-.1.06-.27.18L98.83,220.42l-.22.09-.16.06-.62.26-.48,0h0l-.3,0h0l-.63.06-.42-.08-.27,0h0L95,220.7l-.39-.18-.21-.11,0,0-.24-.13h0l-.45-.23-.35-.33-.12-.12-.3-.28-47-56.9-.07-.09-.19-.27-.06-.1a59.9,59.9,0,0,1-6.66-16.17A71.71,71.71,0,0,1,36.49,128h0a43,43,0,0,1,.68-8L53.49,33.19A18.72,18.72,0,0,1,58.58,23a14.09,14.09,0,0,1,9.88-4M97,213.77l62.78-35a57.42,57.42,0,0,0,12.89-14.52c3.75-5.83,6.55-12.12,7.52-17.31l16.33-86.82a16.41,16.41,0,0,0,.29-3h0v0a10.49,10.49,0,0,0-.66-3.8,7.36,7.36,0,0,0-1.76-2.69h0a7.71,7.71,0,0,0-2.8-1.7,11.58,11.58,0,0,0-3.89-.63h0A20.58,20.58,0,0,0,181,49.45L146.55,61.37a55.8,55.8,0,0,0-8.2,3.39h0a25.42,25.42,0,0,0-10.13,9.8l0-.07,0,.07A43.68,43.68,0,0,0,125.47,80l-6,14.41L119,78.83c-.18-6.79-1.6-11.47-3.73-15.12-2.3-3.93-5.48-6.83-9.13-9.93h0L78.4,30.16h0a21.2,21.2,0,0,0-5.24-3.37,11.9,11.9,0,0,0-4.63-1.05h0a7.34,7.34,0,0,0-5.23,2.09h0a12,12,0,0,0-3.17,6.59L43.76,121.25A37,37,0,0,0,43.2,128a64.52,64.52,0,0,0,2.2,16.06,53.87,53.87,0,0,0,5.82,14.26L97,213.77M122.45,71.09h0M68.46,14h0a19,19,0,0,0-13.39,5.42,23.73,23.73,0,0,0-6.52,12.84L32.22,119.08a48.67,48.67,0,0,0-.77,8.92A77.25,77.25,0,0,0,34,147.05,65.17,65.17,0,0,0,41.3,164.6l.06.1.18.27.19.27.07.1.21.26,47,56.91a6.14,6.14,0,0,0,.5.52l.26.23.08.08.34.33a4.81,4.81,0,0,0,1.16.83l.44.23h0l.2.11.17.08.21.11.39.19a5.15,5.15,0,0,0,1.22.41l.65.13.17,0,.27,0,.43.07a4.91,4.91,0,0,0,.86.08l.41,0,.63,0,.2,0,.3,0,.46,0a5.21,5.21,0,0,0,1.41-.35l.56-.24.11,0,.22-.08c.22-.09.43-.19.64-.3l64.41-35.95.28-.17.28-.18.1-.06.27-.2.09-.06a68,68,0,0,0,15.8-17.61l0,0c4.73-7.4,7.9-14.82,9.17-21.45l16.33-86.85a28.17,28.17,0,0,0,.5-5.17A22.09,22.09,0,0,0,207.09,49a19,19,0,0,0-4.58-6.93,19.58,19.58,0,0,0-7-4.29,23.22,23.22,0,0,0-7.85-1.31h-.38a32.73,32.73,0,0,0-10.14,1.88L142.71,50.28a65.76,65.76,0,0,0-9.92,4.13A36.85,36.85,0,0,0,126.1,59c-.22-.42-.45-.82-.68-1.23-3.24-5.52-7.35-9.26-11.64-12.92L86,21.21l0,0A32.75,32.75,0,0,0,77.82,16a23.42,23.42,0,0,0-9.22-2h-.14ZM66.74,31.47l0,0a2.32,2.32,0,0,1,1.72-.66h0a6.71,6.71,0,0,1,2.66.64A16.29,16.29,0,0,1,75.11,34l0,0L102.9,57.61c3.26,2.77,6.11,5.34,8,8.63s2.91,7.37,3,12.72l.4,15.62a5,5,0,0,0,4.1,4.82,4.94,4.94,0,0,0,.93.08,5,5,0,0,0,4.64-3.08L130.11,82a37.79,37.79,0,0,1,2.39-4.81v0a20.42,20.42,0,0,1,8.22-8,50.61,50.61,0,0,1,7.47-3.06l34.45-11.92a15.7,15.7,0,0,1,5-1,6.79,6.79,0,0,1,2.22.33,3,3,0,0,1,1,.59l0,0a2.24,2.24,0,0,1,.56.89,5.46,5.46,0,0,1,.32,2,11.52,11.52,0,0,1-.21,2.12L175.23,146c-.82,4.42-3.3,10.07-6.8,15.52a52.92,52.92,0,0,1-11.42,13L98.2,207.33,55.33,155.39a49.47,49.47,0,0,1-5.06-12.6,60.45,60.45,0,0,1-2-14.8,31.72,31.72,0,0,1,.48-5.81L65,35.36A7.15,7.15,0,0,1,66.74,31.47Z"/><path class="cls-3" d="M96.58,215.91,49.84,159.28c-6.31-10.11-9.79-27.36-7.73-38.34L58.44,34.12c2.06-11,11.54-13.33,21-5.24L107.25,52.5c9.51,8.1,17.11,15.72,11.67,44.66Z"/><path class="cls-4" d="M96.58,215.91l64.12-35.78c9.56-7.13,19.06-21.94,21.13-32.91l16.32-86.83c2.07-11-5.9-16.61-17.7-12.53L146,59.79c-11.8,4.09-21.64,8.43-27.08,37.37Z"/></svg>