<svg id="materials" xmlns="http://www.w3.org/2000/svg" viewBox="0 0 240 240"><defs><style>.cls-1{fill:#474747;}.cls-2{fill:#f3f6f8;}.cls-3{fill:#e5e3ea;}.cls-4{fill:#45525b;}.cls-5{fill:#d3d3d3;}.cls-6{fill:#576672;}.cls-7{fill:#ef4b72;}.cls-8{fill:#fff;}.cls-9{fill:#f23652;}.cls-10{fill:#967127;}.cls-11{fill:#f2d1d7;}</style></defs><title>book</title><path class="cls-1" d="M60.73,231.71a15,15,0,0,1-14.95-14.42,1.4,1.4,0,0,1-.1-.54V52.45a15,15,0,0,1,8.76-13.59l.22-.11.41-.17a16.15,16.15,0,0,1,3.4-1l.25,0h.22a14.78,14.78,0,0,1,1.69-.11H192.74a1.59,1.59,0,0,1,1.59,1.59V206.63a1.59,1.59,0,0,1-1.59,1.58h-.42v.61a1.49,1.49,0,0,1-.06.43,1.54,1.54,0,0,1,.06.43v.77a1.65,1.65,0,0,0,0,1v.77a1.59,1.59,0,0,1-.06.43,1.47,1.47,0,0,1,.06.42v.77a1.65,1.65,0,0,0,0,1v.77a1.54,1.54,0,0,1-.06.43,1.49,1.49,0,0,1,.06.43v.76a1.68,1.68,0,0,0,0,1v.76a1.57,1.57,0,0,0,0,.86v.77a1.65,1.65,0,0,0,0,1v.76a1.54,1.54,0,0,1-.12.61l0,.25v.77l0,.33a1.6,1.6,0,0,1,.13.62v.52h.42a1.59,1.59,0,0,1,1.59,1.59v3.24a1.59,1.59,0,0,1-1.59,1.59Z"/><path class="cls-1" d="M192.74,39.08V206.63h-2v.47h-.19v1h.19v.76h-.19v.86h.19v.77h-.19v1h.19v.77h-.19V213h.19v.77h-.19v1h.19v.77h-.19v.86h.19v.76h-.19v1h.19v.76h-.19v.86h.19v.77h-.19v1h.19v.76h-.19v.86h.1v.77h-.1v1h.19v.77h-.19v.86h.1v.48h2.1v3.24h-132a13.4,13.4,0,0,1-13.37-13.37h-.1V52.45A13.4,13.4,0,0,1,55.1,40.3l.21-.1c.15-.07.3-.12.46-.18a12.8,12.8,0,0,1,2.95-.84v0a13.42,13.42,0,0,1,1.91-.15H192.74m0-3.17H60.63a15.07,15.07,0,0,0-1.73.1h-.2l-.48,0a17.4,17.4,0,0,0-3.64,1l-.08,0-.47.19-.25.12a16.61,16.61,0,0,0-9.69,15v164.3a3.43,3.43,0,0,0,.11.86A16.57,16.57,0,0,0,60.73,233.3h132a3.17,3.17,0,0,0,3.17-3.18v-3.24a3.17,3.17,0,0,0-2.1-3V223a3.33,3.33,0,0,0,.1-.78v-.76a2.59,2.59,0,0,0,0-.48,2.42,2.42,0,0,0,0-.47v-.77a3.11,3.11,0,0,0,0-.43,3,3,0,0,0,0-.43v-.76a2.9,2.9,0,0,1,0-1v-.76a3,3,0,0,0,0-.43,3.11,3.11,0,0,0,0-.43v-.77a2.42,2.42,0,0,0,0-.47,2.59,2.59,0,0,0,0-.48V213a3,3,0,0,0,0-.42,3.22,3.22,0,0,0,0-.43v-.77a2.59,2.59,0,0,0,0-.48,2.42,2.42,0,0,0,0-.47v-.87a3.17,3.17,0,0,0,2-3V39.08A3.17,3.17,0,0,0,192.74,35.91Z"/><rect class="cls-2" x="49.74" y="206.34" width="140.99" height="0.76"/><rect class="cls-2" x="49.74" y="208.06" width="140.99" height="0.76"/><rect class="cls-2" x="49.74" y="209.68" width="140.99" height="0.76"/><rect class="cls-2" x="49.74" y="211.4" width="140.99" height="0.76"/><rect class="cls-2" x="49.74" y="213.02" width="140.99" height="0.76"/><rect class="cls-2" x="49.74" y="214.74" width="140.99" height="0.76"/><rect class="cls-2" x="49.74" y="216.37" width="140.99" height="0.76"/><rect class="cls-2" x="49.74" y="218.09" width="140.99" height="0.76"/><rect class="cls-2" x="49.74" y="219.71" width="140.99" height="0.76"/><rect class="cls-2" x="49.74" y="221.43" width="140.99" height="0.76"/><rect class="cls-2" x="50.51" y="223.05" width="140.13" height="0.76"/><rect class="cls-2" x="54.9" y="226.4" width="135.74" height="0.76"/><rect class="cls-2" x="52.23" y="224.77" width="138.51" height="0.76"/><path class="cls-3" d="M190.54,205H60.63a11.75,11.75,0,0,0,0,23.5H190.54Z"/><path class="cls-4" d="M191.12,40.7H60.63a11.75,11.75,0,0,0,0,23.5H191.12Z"/><path class="cls-5" d="M60.63,39.08A13.41,13.41,0,0,0,47.26,52.45v164.3h3.25a10.13,10.13,0,0,1,10.12-10.13H192.74V39.08Z"/><path class="cls-6" d="M50.6,216.75a10.2,10.2,0,0,0,10.13,10.13H192.36v3.24H60.73a13.4,13.4,0,0,1-13.37-13.37Z"/><path class="cls-7" d="M47.36,52.45v164.3H50.6a10.23,10.23,0,0,1,8.12-9.93V39.18A13.45,13.45,0,0,0,47.36,52.45Z"/><path class="cls-8" d="M60.73,230.92a14.17,14.17,0,0,1,0-28.34h132.8v4.84H60.73a9.33,9.33,0,1,0,0,18.66h132.8v4.84Z"/><path class="cls-1" d="M192.74,203.38v3.24h-132a10.13,10.13,0,0,0,0,20.26h132v3.24h-132a13.37,13.37,0,1,1,0-26.74h132m1.59-1.59H60.73a15,15,0,1,0,0,29.92h133.6v-6.42H60.73a8.54,8.54,0,0,1,0-17.08h133.6v-6.42Z"/><path class="cls-9" d="M155.37,192.09c-9.63,0-19.54-5-24.08-12.07-6.49-10.12-1.74-24.77,10.57-32.66a30.15,30.15,0,0,1,16.19-4.91c7.73,0,14.25,3.27,17.9,9,3.22,5,4.41,12.25,3.2,19.35-1.33,7.77-5.21,14.07-10.94,17.74A23.78,23.78,0,0,1,155.37,192.09Z"/><path class="cls-1" d="M158.05,143.24c7.14,0,13.61,3,17.24,8.62,6.25,9.77,4.46,28.33-7.51,36a22.85,22.85,0,0,1-12.41,3.45c-9.49,0-19.12-5-23.42-11.7-6.25-9.78-1.62-23.91,10.34-31.57a29.52,29.52,0,0,1,15.76-4.79m0-1.58h0a30.91,30.91,0,0,0-16.61,5c-12.69,8.12-17.54,23.27-10.82,33.76,4.68,7.32,14.86,12.43,24.75,12.43a24.51,24.51,0,0,0,13.27-3.69c5.92-3.79,9.93-10.28,11.29-18.28,1.24-7.29,0-14.73-3.31-19.91C172.82,145.06,166.05,141.66,158.05,141.66Z"/><path class="cls-10" d="M129.72,86.35l-5.47,4.29a2.79,2.79,0,0,0-.9,3.09A17.08,17.08,0,0,0,121,97.12c-1.77,3.21-3.37,8.2-2.92,15.28a33.42,33.42,0,0,0,3.18,11.19,89.77,89.77,0,0,0,6.26,11.35,157.65,157.65,0,0,0,11.41,15.49,1.39,1.39,0,1,0,2.12-1.8l-.26-.3a156.3,156.3,0,0,1-10.93-14.89,86.53,86.53,0,0,1-6.06-11,30.89,30.89,0,0,1-2.94-10.23c-.41-6.58,1.06-11,2.57-13.76a15.51,15.51,0,0,1,2-2.91,2.76,2.76,0,0,0,2.24-.53l5.47-4.29a2.78,2.78,0,1,0-3.43-4.38Z"/><path class="cls-1" d="M129.72,86.35l-.49-.62-5.68,4.45.21-.16a3.58,3.58,0,0,0-1.17,4l.76-.25-.59-.54a18.88,18.88,0,0,0-2.5,3.55h0a27.34,27.34,0,0,0-3.09,13.3c0,.77,0,1.58.08,2.41h0a34.34,34.34,0,0,0,3.24,11.46h0a91.12,91.12,0,0,0,6.32,11.45l.15.23-.15-.23c2.78,4.34,5.64,8.22,7.81,11,1.08,1.4,2,2.54,2.64,3.32.32.4.58.7.75.91l.21.24.05.06h0a2.2,2.2,0,0,0,3.08.24h0a2.2,2.2,0,0,0,.24-3.08l-.6.52h.79a.68.68,0,0,0-.07-.32c-.07-.14-.07-.12-.08-.15l0,0-.26-.3h0A153.68,153.68,0,0,1,130.49,133a87,87,0,0,1-6-10.88h0a30.27,30.27,0,0,1-2.87-9.95h0c0-.74-.07-1.45-.07-2.13a22.92,22.92,0,0,1,2.55-11.2h0A14.45,14.45,0,0,1,126,96.08l-.59-.53-.14.78a3.82,3.82,0,0,0,.68.06,3.53,3.53,0,0,0,2.19-.74h0l5.68-4.46-.21.17a3.58,3.58,0,0,0-4.41-5.63l.49.62.49.63a2,2,0,0,1,2.45,3.13h0L127,94.52l.16-.12a1.92,1.92,0,0,1-1.21.41l-.39,0-.43-.08-.3.33a15.55,15.55,0,0,0-2.16,3.06h0A24.43,24.43,0,0,0,120,110c0,.71,0,1.46.07,2.23v0a32,32,0,0,0,3,10.51h0a87.29,87.29,0,0,0,6.13,11.08,153.61,153.61,0,0,0,11,15h0l.19.22,0,.06h0l.36-.3-.36.29h0l.36-.3-.36.29.58-.47-.59.46h0l.58-.47-.59.46.62-.48-.65.45,0,0,.62-.48-.65.45.65-.45-.68.39,0,.06.65-.45-.68.39.69-.39-.73.31,0,.08.69-.39-.73.31.73-.31h-.8a.66.66,0,0,0,.07.31l.73-.31h-.8v.29l.19.22.15.39a.62.62,0,0,1-.21.45l-.06.06.06-.06-.39.15a.6.6,0,0,1-.46-.21l-.6.51.62-.49,0,0a157.43,157.43,0,0,1-11.34-15.41h0a89.61,89.61,0,0,1-6.21-11.25h0a33,33,0,0,1-3.11-10.92h0c0-.8-.07-1.57-.07-2.31a25.71,25.71,0,0,1,2.89-12.54h0a17.35,17.35,0,0,1,2.28-3.24l.32-.35-.15-.44a1.81,1.81,0,0,1-.11-.65,1.94,1.94,0,0,1,.75-1.55L130.21,87Z"/><path class="cls-11" d="M161.43,147.91c4.29,1.68,6.76,5.65,5.5,8.87s-5.75,4.47-10.05,2.79-6.75-5.64-5.49-8.86S157.14,146.24,161.43,147.91Z"/><path class="cls-1" d="M93.12,73.39h-6c-1.33-2.1-2.54-3.9-3.62-5.43s-2.24-3.09-3.5-4.71H77.69v7.09a2.63,2.63,0,0,0,.17,1,1.23,1.23,0,0,0,.74.64,5.6,5.6,0,0,0,1,.21c.47.06.87.1,1.19.11v1.12H71.33V72.27l1.1-.11a3.77,3.77,0,0,0,1-.21,1.33,1.33,0,0,0,.69-.6,2.13,2.13,0,0,0,.21-1V54.17a2.69,2.69,0,0,0-.16-1,1.16,1.16,0,0,0-.74-.65,6.33,6.33,0,0,0-1-.25,9.17,9.17,0,0,0-1.08-.15V51H81.66a11.38,11.38,0,0,1,2.67.29,6.92,6.92,0,0,1,2.25.94,4.71,4.71,0,0,1,1.56,1.64,4.85,4.85,0,0,1,.58,2.45,6.21,6.21,0,0,1-.39,2.29,4.7,4.7,0,0,1-1.17,1.72,6.9,6.9,0,0,1-1.7,1.17,12.8,12.8,0,0,1-2.19.85q1.65,2.19,2.75,3.68l2.69,3.65A7.49,7.49,0,0,0,90,71.09a5.88,5.88,0,0,0,1.11.73,3.58,3.58,0,0,0,1,.32,8.34,8.34,0,0,0,1,.13ZM84.83,56.72a4.09,4.09,0,0,0-4.46-4.41H77.69v9.58h2.06a4.87,4.87,0,0,0,5.08-5.17Z"/><path class="cls-1" d="M110.24,73.1l-5.07.35-.24-.22v-2h-.09l-.85.84a6.05,6.05,0,0,1-1.09.81,6.75,6.75,0,0,1-1.37.65,6.11,6.11,0,0,1-1.87.22,3.77,3.77,0,0,1-3.14-1.35,6.11,6.11,0,0,1-1.08-3.91V61.09a1.89,1.89,0,0,0-.22-1,2.06,2.06,0,0,0-.62-.67,2.17,2.17,0,0,0-.72-.27,6.12,6.12,0,0,0-.9-.12V58l5.19-.38.23.22v10.8a3.69,3.69,0,0,0,.76,2.54,2.34,2.34,0,0,0,1.81.85,4.16,4.16,0,0,0,1.55-.27,3.92,3.92,0,0,0,1.13-.63,5,5,0,0,0,.75-.7,3.77,3.77,0,0,0,.5-.68V61a1.92,1.92,0,0,0-.22-.92,2.15,2.15,0,0,0-.62-.69,1.76,1.76,0,0,0-.84-.23L102,59.07V58l5.65-.38.24.22V70.2a1.87,1.87,0,0,0,.22.92,2.1,2.1,0,0,0,.62.64,1.71,1.71,0,0,0,.68.23,7.3,7.3,0,0,0,.86.07Z"/><path class="cls-1" d="M127.93,65.6a8.34,8.34,0,0,1-2.21,5.88,6.78,6.78,0,0,1-5.12,2.38,8.09,8.09,0,0,1-2.52-.4,10.57,10.57,0,0,1-2.32-1l-1.17,1.81-1-.22c0-.78.08-1.71.11-2.81s0-2.15,0-3.17V52.63a2.5,2.5,0,0,0-.25-1.08,1.69,1.69,0,0,0-.62-.77,2.45,2.45,0,0,0-1-.31c-.47-.07-.84-.11-1.13-.13v-1l5.71-.35.22.24V59.47l.11,0a6.42,6.42,0,0,1,2.14-1.56,5.46,5.46,0,0,1,2.27-.52,6,6,0,0,1,4.8,2.27A8.83,8.83,0,0,1,127.93,65.6Zm-3.29.11a11.56,11.56,0,0,0-.26-2.38,6.44,6.44,0,0,0-.79-2.11,4.35,4.35,0,0,0-1.4-1.49,3.78,3.78,0,0,0-2.08-.56,4.07,4.07,0,0,0-1.93.43,5.35,5.35,0,0,0-1.49,1.17v9a4.07,4.07,0,0,0,1.12,1.85,3.91,3.91,0,0,0,1.07.71,3.41,3.41,0,0,0,1.47.28,3.54,3.54,0,0,0,3.1-1.86A9.42,9.42,0,0,0,124.64,65.71Z"/><path class="cls-1" d="M129.05,78.46a1.87,1.87,0,0,1,.43-1.28,1.38,1.38,0,0,1,1.08-.5,1.8,1.8,0,0,1,.87.19,2.55,2.55,0,0,1,.65.48,5,5,0,0,1,.5.64l.43.68a6.48,6.48,0,0,0,1.88-2.22,17.4,17.4,0,0,0,1.58-3.15c-1-2.49-1.9-4.71-2.71-6.68s-1.65-4-2.53-6.1a2.31,2.31,0,0,0-1-1.13,4.6,4.6,0,0,0-1.42-.51v-1h7.1V59a5,5,0,0,0-1.14.19q-.66.18-.66.42a1,1,0,0,0,.07.31c.05.15.1.3.17.46q.58,1.56,1.82,4.5c.82,2,1.45,3.52,1.9,4.7.47-1.12,1-2.29,1.48-3.49s1.08-2.62,1.71-4.26c.07-.2.18-.47.32-.83a2.68,2.68,0,0,0,.2-.9c0-.28-.24-.53-.72-.77a4.35,4.35,0,0,0-1.36-.43v-1h5.77v1a3.78,3.78,0,0,0-1.24.54,2.87,2.87,0,0,0-1.16,1.32q-1.87,4.35-3.33,7.93t-2.21,5.26a30.05,30.05,0,0,1-1.78,3.45,10.94,10.94,0,0,1-1.52,2,4.4,4.4,0,0,1-1.31.89,3.48,3.48,0,0,1-1.23.23,2.93,2.93,0,0,1-1.93-.59A1.7,1.7,0,0,1,129.05,78.46Z"/><path class="cls-1" d="M60.73,202.51a15,15,0,0,1-14.95-14.43,1.32,1.32,0,0,1-.1-.53V23.25a15,15,0,0,1,8.76-13.6l.22-.1.42-.17a15.35,15.35,0,0,1,3.39-1l.25,0h.22a14.78,14.78,0,0,1,1.69-.11H192.74a1.59,1.59,0,0,1,1.59,1.59V177.42a1.59,1.59,0,0,1-1.59,1.59h-.42v.61a1.54,1.54,0,0,1-.06.43,1.49,1.49,0,0,1,.06.43v.76a1.68,1.68,0,0,0,0,1V183a1.57,1.57,0,0,0,0,.86v.77a1.65,1.65,0,0,0,0,.95v.76a1.49,1.49,0,0,1-.06.43,1.59,1.59,0,0,1,.06.43v.77a1.65,1.65,0,0,0,0,.95v.77a1.54,1.54,0,0,1-.06.43,1.49,1.49,0,0,1,.06.43v.76a1.68,1.68,0,0,0,0,1V193a1.5,1.5,0,0,1-.12.6l0,.26v.77l0,.32a1.69,1.69,0,0,1,.13.63v.52h.42a1.59,1.59,0,0,1,1.59,1.58v3.25a1.59,1.59,0,0,1-1.59,1.59Z"/><path class="cls-1" d="M192.74,9.88V177.42h-2v.48h-.19v.95h.19v.77h-.19v.86h.19v.76h-.19v1h.19V183h-.19v.86h.19v.77h-.19v.95h.19v.76h-.19v.86h.19v.77h-.19v.95h.19v.77h-.19v.86h.19v.76h-.19v1h.19V193h-.19v.86h.1v.77h-.1v.95h.19v.76h-.19v.86h.1v.48h2.1v3.25h-132a13.41,13.41,0,0,1-13.37-13.37h-.1V23.25A13.4,13.4,0,0,1,55.1,11.1l.21-.1.46-.19A13.88,13.88,0,0,1,58.72,10V10a13.42,13.42,0,0,1,1.91-.15H192.74m0-3.18H60.63a15.17,15.17,0,0,0-1.73.11h-.2a2.59,2.59,0,0,0-.48,0,16.82,16.82,0,0,0-3.64,1l-.08,0L54,8.09l-.25.12a16.6,16.6,0,0,0-9.69,15v164.3a3.56,3.56,0,0,0,.11.86,16.57,16.57,0,0,0,16.53,15.68h132a3.17,3.17,0,0,0,3.17-3.17v-3.25a3.17,3.17,0,0,0-2.1-3v-.91a3.33,3.33,0,0,0,.1-.78v-.76a2.9,2.9,0,0,1,0-1v-.76a3,3,0,0,0,0-.43,3.11,3.11,0,0,0,0-.43v-.77a2.42,2.42,0,0,0,0-.47,2.59,2.59,0,0,0,0-.48v-.77a3.22,3.22,0,0,0,0-.43,3,3,0,0,0,0-.43v-.76a2.59,2.59,0,0,0,0-.48,2.42,2.42,0,0,0,0-.47v-.77a3.11,3.11,0,0,0,0-.43,3,3,0,0,0,0-.43v-.76a2.52,2.52,0,0,0,0-.48,2.59,2.59,0,0,0,0-.48v-.87a3.16,3.16,0,0,0,2-3V9.88A3.17,3.17,0,0,0,192.74,6.7Z"/><rect class="cls-2" x="49.74" y="177.13" width="140.99" height="0.76"/><rect class="cls-2" x="49.74" y="178.85" width="140.99" height="0.76"/><rect class="cls-2" x="49.74" y="180.48" width="140.99" height="0.76"/><rect class="cls-2" x="49.74" y="182.2" width="140.99" height="0.76"/><rect class="cls-2" x="49.74" y="183.82" width="140.99" height="0.76"/><rect class="cls-2" x="49.74" y="185.54" width="140.99" height="0.76"/><rect class="cls-2" x="49.74" y="187.16" width="140.99" height="0.76"/><rect class="cls-2" x="49.74" y="188.88" width="140.99" height="0.76"/><rect class="cls-2" x="49.74" y="190.51" width="140.99" height="0.76"/><rect class="cls-2" x="49.74" y="192.23" width="140.99" height="0.76"/><rect class="cls-2" x="50.51" y="193.85" width="140.13" height="0.76"/><rect class="cls-2" x="54.9" y="197.19" width="135.74" height="0.76"/><rect class="cls-2" x="52.23" y="195.57" width="138.51" height="0.76"/><path class="cls-3" d="M190.54,175.8H60.63a11.75,11.75,0,0,0,0,23.5H190.54Z"/><path class="cls-4" d="M191.12,11.5H60.63a11.75,11.75,0,0,0,0,23.5H191.12Z"/><path class="cls-5" d="M60.63,9.88A13.41,13.41,0,0,0,47.26,23.25v164.3h3.25a10.13,10.13,0,0,1,10.12-10.13H192.74V9.88Z"/><path class="cls-6" d="M50.6,187.55a10.19,10.19,0,0,0,10.13,10.12H192.36v3.25H60.73a13.41,13.41,0,0,1-13.37-13.37Z"/><path class="cls-7" d="M47.36,23.25v164.3H50.6a10.24,10.24,0,0,1,8.12-9.94V10A13.45,13.45,0,0,0,47.36,23.25Z"/><path class="cls-8" d="M60.73,201.71a14.17,14.17,0,1,1,0-28.33h132.8v4.83H60.73a9.34,9.34,0,0,0,0,18.67h132.8v4.83Z"/><path class="cls-1" d="M192.74,174.17v3.25h-132a10.13,10.13,0,1,0,0,20.25h132v3.25h-132a13.38,13.38,0,0,1,0-26.75h132m1.59-1.58H60.73a15,15,0,0,0,0,29.92h133.6v-6.42H60.73a8.54,8.54,0,1,1,0-17.08h133.6v-6.42Z"/><path class="cls-9" d="M155.37,162.89c-9.63,0-19.54-5-24.08-12.07-3.16-4.93-3.78-11.06-1.75-17.25a29.42,29.42,0,0,1,12.32-15.41,30.06,30.06,0,0,1,16.19-4.91c7.72,0,14.25,3.27,17.9,9,3.22,5,4.41,12.25,3.2,19.35-1.33,7.77-5.21,14.07-10.94,17.73A23.7,23.7,0,0,1,155.37,162.89Z"/><path class="cls-1" d="M158.05,114c7.14,0,13.61,3,17.24,8.61,6.25,9.78,4.46,28.34-7.51,36a22.85,22.85,0,0,1-12.41,3.45c-9.49,0-19.12-5-23.42-11.71-6.25-9.77-1.62-23.9,10.34-31.56A29.43,29.43,0,0,1,158.05,114m0-1.59h0a30.83,30.83,0,0,0-16.61,5c-12.69,8.12-17.54,23.26-10.82,33.76,4.68,7.32,14.86,12.43,24.75,12.43a24.52,24.52,0,0,0,13.27-3.7c5.92-3.79,9.93-10.28,11.29-18.27,1.24-7.29,0-14.73-3.31-19.91C172.82,115.86,166.05,112.45,158.05,112.45Z"/><path class="cls-10" d="M129.72,57.15l-5.47,4.29a2.78,2.78,0,0,0-.9,3.08,17.51,17.51,0,0,0-2.39,3.4c-1.77,3.2-3.37,8.19-2.92,15.27a33.48,33.48,0,0,0,3.18,11.2,89.65,89.65,0,0,0,6.26,11.34,157.1,157.1,0,0,0,11.41,15.5,1.39,1.39,0,0,0,2.12-1.81l-.26-.3a153.53,153.53,0,0,1-10.93-14.89,86.42,86.42,0,0,1-6.06-11A31,31,0,0,1,120.82,83c-.41-6.59,1.06-11,2.57-13.76a15.51,15.51,0,0,1,2-2.91,2.8,2.8,0,0,0,2.24-.53l5.47-4.29a2.78,2.78,0,1,0-3.43-4.38Z"/><path class="cls-1" d="M129.72,57.15l-.49-.62-5.47,4.29a3.58,3.58,0,0,0-1.17,4l.76-.26-.59-.53a18.88,18.88,0,0,0-2.5,3.55h0a27.31,27.31,0,0,0-3.09,13.3c0,.77,0,1.57.08,2.4h0a34.39,34.39,0,0,0,3.24,11.47h0a91.12,91.12,0,0,0,6.32,11.45h0c2.78,4.33,5.64,8.22,7.81,11,1.08,1.4,2,2.53,2.64,3.32l.75.91.21.24.05.06h0v0a2.2,2.2,0,0,0,3.08.24h0a2.18,2.18,0,0,0,.24-3.07h0l-.25-.29h0a153,153,0,0,1-10.87-14.8,87.07,87.07,0,0,1-6-10.89h0a30.21,30.21,0,0,1-2.87-10h0c0-.74-.07-1.45-.07-2.14a22.87,22.87,0,0,1,2.55-11.19h0A14.13,14.13,0,0,1,126,66.88l-.59-.53-.14.78a3.85,3.85,0,0,0,.69.06,3.54,3.54,0,0,0,2.18-.75l5.47-4.29a3.57,3.57,0,0,0-4.41-5.62l.49.62.49.63a1.92,1.92,0,0,1,1.22-.42,2,2,0,0,1,1.23,3.55l-5.47,4.28a1.92,1.92,0,0,1-1.2.41l-.4,0-.43-.09-.3.33a15.55,15.55,0,0,0-2.16,3.06h0a24.39,24.39,0,0,0-2.75,12c0,.72,0,1.46.07,2.24h0a31.9,31.9,0,0,0,3,10.5l.07.15-.07-.15a87.41,87.41,0,0,0,6.13,11.09,154.32,154.32,0,0,0,11,15h0c.17.2.25.31.25.31h0l.15.39a.62.62,0,0,1-.21.45h0l-.39.14a.6.6,0,0,1-.46-.21l-.6.52.62-.49,0,0a157.43,157.43,0,0,1-11.34-15.41h0a88.8,88.8,0,0,1-6.21-11.24h0a32.89,32.89,0,0,1-3.11-10.92h0c0-.79-.07-1.56-.07-2.3a25.71,25.71,0,0,1,2.89-12.54l.13-.23-.13.23a17,17,0,0,1,2.28-3.24l.32-.35-.15-.44a1.81,1.81,0,0,1-.11-.65,2,2,0,0,1,.75-1.56l5.47-4.28Z"/><path class="cls-11" d="M161.43,118.71c4.29,1.68,6.76,5.64,5.5,8.86s-5.75,4.47-10.05,2.8-6.75-5.64-5.49-8.86S157.14,117,161.43,118.71Z"/><path class="cls-1" d="M93.12,44.18h-6q-2-3.13-3.62-5.42c-1.07-1.52-2.24-3.1-3.5-4.71H77.69v7.09a2.63,2.63,0,0,0,.17,1,1.23,1.23,0,0,0,.74.64,5,5,0,0,0,1,.2,10.27,10.27,0,0,0,1.19.11v1.12H71.33V43.06c.26,0,.62-.05,1.1-.11a3.87,3.87,0,0,0,1-.2,1.37,1.37,0,0,0,.69-.6,2.13,2.13,0,0,0,.21-1V25a2.69,2.69,0,0,0-.16-1,1.14,1.14,0,0,0-.74-.65,7.43,7.43,0,0,0-1-.26,9.17,9.17,0,0,0-1.08-.15V21.81H81.66a11.94,11.94,0,0,1,2.67.29,7.39,7.39,0,0,1,2.25.94,4.74,4.74,0,0,1,1.56,1.65,4.83,4.83,0,0,1,.58,2.45,6.28,6.28,0,0,1-.39,2.29,4.7,4.7,0,0,1-1.17,1.72,6.9,6.9,0,0,1-1.7,1.17,12.79,12.79,0,0,1-2.19.84q1.65,2.19,2.75,3.69t2.69,3.64A7.61,7.61,0,0,0,90,41.89a6.41,6.41,0,0,0,1.11.73,3.92,3.92,0,0,0,1,.32,8,8,0,0,0,1,.12ZM84.83,27.51a4.07,4.07,0,0,0-4.46-4.4H77.69v9.58h2.06a4.87,4.87,0,0,0,5.08-5.18Z"/><path class="cls-1" d="M110.24,43.9l-5.07.35-.24-.23v-2h-.09c-.26.27-.54.55-.85.85a6.05,6.05,0,0,1-1.09.81,7.34,7.34,0,0,1-1.37.65,6.44,6.44,0,0,1-1.87.22,3.77,3.77,0,0,1-3.14-1.35,6.13,6.13,0,0,1-1.08-3.91V31.88a1.88,1.88,0,0,0-.22-.95A1.82,1.82,0,0,0,93.88,30a6.12,6.12,0,0,0-.9-.12v-1l5.19-.38.23.22v10.8A3.71,3.71,0,0,0,99.16,42a2.38,2.38,0,0,0,1.81.85,4.16,4.16,0,0,0,1.55-.27,4.46,4.46,0,0,0,1.13-.63,5,5,0,0,0,.75-.7,4.16,4.16,0,0,0,.5-.68V31.77a2,2,0,0,0-.22-.92,2.11,2.11,0,0,0-.62-.68,1.76,1.76,0,0,0-.84-.23L102,29.87v-1l5.65-.38.24.22V41a1.83,1.83,0,0,0,.22.91,2,2,0,0,0,.62.65,1.88,1.88,0,0,0,.68.23c.26,0,.55.06.86.07Z"/><path class="cls-1" d="M127.93,36.39a8.35,8.35,0,0,1-2.21,5.89,6.82,6.82,0,0,1-5.12,2.38,8.4,8.4,0,0,1-2.52-.4,10.57,10.57,0,0,1-2.32-1L114.59,45l-1-.22c0-.78.08-1.72.11-2.81s0-2.15,0-3.17V23.42a2.46,2.46,0,0,0-.25-1.07,1.64,1.64,0,0,0-.62-.77,2.45,2.45,0,0,0-1-.31c-.47-.07-.84-.11-1.13-.14v-1l5.71-.34.22.23V30.26l.11,0a6.72,6.72,0,0,1,2.14-1.56,5.62,5.62,0,0,1,2.27-.52,6.06,6.06,0,0,1,4.8,2.27A8.86,8.86,0,0,1,127.93,36.39Zm-3.29.11a11.63,11.63,0,0,0-.26-2.38,6.61,6.61,0,0,0-.79-2.11,4.32,4.32,0,0,0-1.4-1.48,3.7,3.7,0,0,0-2.08-.57,4.07,4.07,0,0,0-1.93.44,5.35,5.35,0,0,0-1.49,1.17v9a3.8,3.8,0,0,0,.37.88,3.69,3.69,0,0,0,.75,1,3.73,3.73,0,0,0,1.07.72,3.41,3.41,0,0,0,1.47.28,3.54,3.54,0,0,0,3.1-1.86A9.43,9.43,0,0,0,124.64,36.5Z"/><path class="cls-1" d="M129.05,49.26a1.9,1.9,0,0,1,.43-1.29,1.38,1.38,0,0,1,1.08-.49,1.8,1.8,0,0,1,.87.19,2.33,2.33,0,0,1,.65.48,5,5,0,0,1,.5.64c.18.27.32.5.43.67a6.32,6.32,0,0,0,1.88-2.21,17.72,17.72,0,0,0,1.58-3.15c-1-2.49-1.9-4.72-2.71-6.68s-1.65-4-2.53-6.1a2.31,2.31,0,0,0-1-1.13,4.13,4.13,0,0,0-1.42-.51v-1h7.1v1.1a5.07,5.07,0,0,0-1.14.2q-.66.18-.66.42a1.11,1.11,0,0,0,.07.31c.05.15.1.3.17.46q.58,1.56,1.82,4.5t1.9,4.7c.47-1.13,1-2.29,1.48-3.49s1.08-2.62,1.71-4.26c.07-.2.18-.48.32-.83a2.69,2.69,0,0,0,.2-.91c0-.27-.24-.52-.72-.76a4.1,4.1,0,0,0-1.36-.43v-1h5.77v1a3.78,3.78,0,0,0-1.24.54,2.87,2.87,0,0,0-1.16,1.32q-1.87,4.35-3.33,7.93c-1,2.38-1.71,4.14-2.21,5.26a30.92,30.92,0,0,1-1.78,3.45,10.48,10.48,0,0,1-1.52,1.94,4.4,4.4,0,0,1-1.31.89,3.27,3.27,0,0,1-1.23.23,2.93,2.93,0,0,1-1.93-.58A1.71,1.71,0,0,1,129.05,49.26Z"/></svg>