<?xml version="1.0" encoding="UTF-8"?>
<svg id="_レイヤー_1" data-name="レイヤー_1" xmlns="http://www.w3.org/2000/svg" viewBox="0 0 660 660">
  <defs>
    <style>
      .cls-1 {
        fill: #4742c2;
      }

      .cls-2 {
        fill: #576672;
      }

      .cls-3 {
        fill: #f3f6f8;
      }

      .cls-4 {
        fill: #fff;
      }

      .cls-5 {
        fill: #ebebf7;
      }
    </style>
  </defs>
  <g>
    <path class="cls-1" d="M225.37,628.56c-21.25,5.25-42.85-7.21-48.96-28.23-.29-.4-.5-.85-.61-1.33L67.54,165.45c-3.82-15.46,1.71-31.73,14.15-41.66l.51-.41,1-.73c2.57-1.94,5.35-3.57,8.29-4.87l.66-.16.58-.14c1.43-.55,2.9-1.02,4.39-1.4L445.73,29.02c2.32-.58,4.66.83,5.24,3.15l110.41,442.16c.58,2.32-.83,4.66-3.15,5.24l-1.11.28.4,1.61c.1.38.14.78.13,1.17.2.34.35.71.44,1.1l.5,2.01c-.05.93.18,1.85.66,2.64l.5,2.01c-.03.79.17,1.58.57,2.27l.51,2.03c-.04.88.18,1.75.63,2.51l.5,2.01c.1.38.14.78.13,1.17.2.34.35.71.44,1.1l.51,2.03c-.04.88.18,1.75.63,2.51l.51,2.03c.1.38.14.78.13,1.17.2.34.35.71.44,1.1l.5,2.01c-.05.93.18,1.85.66,2.64l.45,1.82c.14.54.17,1.11.08,1.66l.17.69.51,2.03.21.84c.35.47.61,1.01.76,1.58l.34,1.37,1.11-.28c2.31-.58,4.65.82,5.24,3.12l2.14,8.58c.58,2.32-.83,4.66-3.15,5.24l-348.38,86.97Z"/>
    <rect class="cls-3" x="174.19" y="522.35" width="383.47" height="2.07" transform="translate(-115.9 104.24) rotate(-14.02)"/>
    <rect class="cls-3" x="175.32" y="526.89" width="383.47" height="2.07" transform="translate(-116.97 104.65) rotate(-14.02)"/>
    <rect class="cls-3" x="176.39" y="531.19" width="383.47" height="2.07" transform="translate(-117.98 105.04) rotate(-14.02)"/>
    <rect class="cls-3" x="177.53" y="535.73" width="383.47" height="2.07" transform="translate(-119.04 105.45) rotate(-14.02)"/>
    <rect class="cls-3" x="178.59" y="540" width="383.47" height="2.07" transform="translate(-120.05 105.84) rotate(-14.02)"/>
    <rect class="cls-3" x="179.73" y="544.54" width="383.47" height="2.07" transform="translate(-121.11 106.25) rotate(-14.02)"/>
    <rect class="cls-3" x="180.79" y="548.82" width="383.47" height="2.07" transform="translate(-122.11 106.63) rotate(-14.02)"/>
    <rect class="cls-3" x="181.93" y="553.36" width="383.47" height="2.07" transform="translate(-123.18 107.04) rotate(-14.02)"/>
    <rect class="cls-3" x="183" y="557.66" width="383.47" height="2.07" transform="translate(-124.19 107.43) rotate(-14.02)"/>
    <rect class="cls-3" x="184.14" y="562.2" width="383.47" height="2.07" transform="translate(-125.26 107.84) rotate(-14.02)"/>
    <rect class="cls-3" x="187.27" y="566.25" width="381.13" height="2.07" transform="translate(-126.18 108.44) rotate(-14.02)"/>
    <rect class="cls-3" x="201.23" y="573.61" width="369.19" height="2.07" transform="translate(-127.73 110.59) rotate(-14.02)"/>
    <rect class="cls-3" x="193.01" y="570.19" width="376.72" height="2.07" transform="translate(-127.03 109.41) rotate(-14.02)"/>
    <path class="cls-4" d="M98.18,120.32c-19.45,4.92-31.27,24.62-26.47,44.09l108.26,433.55,8.58-2.14c-3.68-14.75,5.28-29.7,20.03-33.4l348.61-87.05L446.79,33.27,98.18,120.32Z"/>
    <path class="cls-2" d="M188.78,595.76c3.78,14.69,18.66,23.62,33.4,20.03l347.35-86.74,2.14,8.58-347.35,86.74c-19.48,4.8-39.17-7.02-44.09-26.47l8.55-2.14Z"/>
    <path class="cls-5" d="M71.97,164.34l108.26,433.55,8.55-2.14c-3.07-12.71,3.12-25.85,14.88-31.58L93.22,121.89c-16.55,7.01-25.55,25-21.25,42.45Z"/>
    <path class="cls-4" d="M223.27,628.41c-21.22,5.3-42.44-7.05-48.3-28.11-2.87-10.3-1.54-21.11,3.72-30.42,5.27-9.31,13.85-16.02,24.16-18.89.34-.09.69-.19,1.03-.27s.69-.17,1.04-.24l352.24-87.96,3.91,15.66-352.28,87.97c-6.1,1.74-11.2,5.78-14.31,11.36-3.11,5.58-3.86,12.03-2.11,18.17,3.44,12.07,15.76,19.46,28.04,16.81l352.23-87.96,3.91,15.66-352.28,87.97c-.31.09-.66.18-1.01.27Z"/>
    <path class="cls-1" d="M204.25,552.16c.33-.08.66-.16,1-.24l350.82-87.6,3.18,12.75-350.82,87.6c-13.51,3.85-21.34,17.9-17.5,31.4,3.67,12.87,16.7,20.69,29.8,17.87l350.82-87.6,3.18,12.75-350.82,87.6c-.34.09-.67.18-1.01.27-20.21,5.05-40.88-6.89-46.49-27.06-5.7-20.51,6.31-41.76,26.84-47.47.33-.09.66-.18.99-.26M203.52,549.25c-.36.09-.71.18-1.07.28-10.7,2.98-19.6,9.94-25.07,19.6-5.47,9.66-6.84,20.87-3.86,31.56,2.92,10.5,9.72,19.3,19.15,24.78,9.41,5.46,20.4,7.02,30.95,4.39.35-.09.7-.18,1.05-.28l350.79-87.59,2.91-.73-.73-2.91-3.18-12.75-.73-2.91-2.91.73-350.77,87.59c-11.5,2.45-23.02-4.47-26.24-15.77-1.64-5.75-.94-11.8,1.98-17.03,2.91-5.22,7.67-8.99,13.41-10.64l350.77-87.59,2.91-.73-.73-2.91-3.18-12.75-.73-2.91-2.91.73-350.79,87.59c-.35.08-.69.16-1.04.24Z"/>
    <path class="cls-5" d="M273.16,486.4c-22.95-11.96-40.35-36.19-42.39-58.68-1.41-15.67,4.73-31.05,17.26-43.28,13.22-12.51,30.35-20.07,48.5-21.42,15.39-1.53,30.9,1.39,44.68,8.41,18.4,9.59,29.9,25.5,31.48,43.69,1.46,15.92-4.71,34.67-16.42,50.09-12.82,16.86-29.9,27.06-48.1,28.66-12.15.91-24.3-1.68-35.02-7.47Z"/>
    <path class="cls-1" d="M340.29,373.22c17.01,8.87,28.71,24.06,30.39,41.94,2.74,31.07-24.58,73.08-62.62,76.46-11.74.9-23.5-1.6-33.86-7.2-22.62-11.79-39.35-35.67-41.26-57-2.76-31.05,25.83-58.97,63.85-62.36,14.98-1.48,30.08,1.36,43.51,8.17M342.26,369.43h0c-14.12-7.23-30.01-10.26-45.79-8.72-40.33,3.58-70.7,33.64-67.73,67.01,2.06,23.26,19.97,48.08,43.54,60.37,11.09,5.97,23.66,8.63,36.22,7.67,18.82-1.68,36.44-12.16,49.6-29.51,12.01-15.83,18.3-35.1,16.85-51.56-1.78-18.69-13.67-35.22-32.74-45.16l.05-.1Z"/>
    <path class="cls-4" d="M342.49,388.65c8.14,9.33,9.1,21.84,2.1,27.95-7,6.11-19.26,3.51-27.43-5.81s-9.08-21.83-2.08-27.93,19.31-3.6,27.4,5.8Z"/>
    <path class="cls-5" d="M286.97,249.58c-.9,1.78-1.66,3.71-2.62,5.61-3.64,9.59-5.6,19.75-5.77,30.03-.41,11.54,0,23.1,1.25,34.59,1.79,17.08,4.62,34.04,8.46,50.78h0c.11.46.42.85.85,1.06l1.1.14c.45-.12.83-.41,1.05-.82l.11-1.12s-.06-.36-.22-1.05c-3.71-16.32-6.43-32.84-8.16-49.48-1.24-11.33-1.65-22.74-1.24-34.13v.45s0-.45,0-.45c.18-9.88,2.05-19.65,5.53-28.88.78-1.96,1.67-3.74,2.54-5.46,4.75-10.16,12.01-18.93,21.1-25.45.87-.61,1.77-1.17,2.68-1.7l-.79-3.03c-1.3.72-2.57,1.49-3.79,2.34-9.49,6.83-17.09,15.97-22.09,26.57Z"/>
    <polyline class="cls-1" points="281.77 285.64 281.78 285.19 281.77 285.64"/>
    <path class="cls-1" d="M313.63,223.69c-.91.54-1.81,1.1-2.68,1.7-9.09,6.52-16.35,15.29-21.1,25.45-.87,1.73-1.77,3.51-2.54,5.46-3.48,9.23-5.35,19-5.53,28.88-.41,11.39,0,22.8,1.24,34.13,1.73,16.64,4.46,33.16,8.16,49.48.16.69.22,1.05.22,1.05l-.11,1.12c-.22.41-.6.71-1.05.82l-1.1-.14c-.42-.21-.73-.6-.85-1.07h0c-3.84-16.74-6.66-33.7-8.46-50.78-1.25-11.49-1.67-23.05-1.25-34.59.18-10.27,2.13-20.43,5.77-30.03.96-1.9,1.72-3.83,2.62-5.61,5-10.6,12.6-19.75,22.09-26.57,1.22-.85,2.49-1.62,3.79-2.34l-1.14-4.38c-1.69.9-3.33,1.9-4.92,2.99-10.08,7.23-18.16,16.91-23.48,28.15-.93,1.85-1.9,3.77-2.71,5.86-3.85,10.06-5.93,20.72-6.13,31.51-.42,11.75,0,23.53,1.26,35.23,1.41,13.8,3.55,26.64,5.37,35.97.89,4.68,1.72,8.52,2.3,11.2l.69,3.1.21.83.05.21c.79,3.15,3.94,5.08,7.08,4.34,3.13-.76,5.05-3.93,4.29-7.08l-.25-1c-3.67-16.1-6.37-32.41-8.09-48.84-1.18-11.12-1.58-22.32-1.18-33.49.15-9.41,1.92-18.73,5.23-27.52.9-1.78,1.59-3.57,2.42-5.22,4.43-9.47,11.19-17.65,19.64-23.75.41-.28.84-.55,1.26-.82l-1.12-4.27Z"/>
    <path class="cls-5" d="M452.19,461.56c-26.03,5.3-55.56-2.76-71.72-19.36-11.25-11.58-16.3-27.81-14.23-45.66,2.45-18.52,11.21-35.62,24.81-48.43,11.28-11.17,25.53-18.87,41.05-22.18,20.86-4.25,40.31.99,53.33,14.47,11.45,11.74,18.66,30.68,19.3,50.53.68,21.73-6.34,40.89-19.81,53.94-9.09,8.58-20.46,14.37-32.74,16.69Z"/>
    <path class="cls-1" d="M432.52,327.96c19.3-3.93,38.43.62,51.33,13.78,22.27,22.99,27.65,74.14-.48,101.43-8.78,8.31-19.76,13.92-31.64,16.16-25.65,5.22-54.43-2.99-69.74-18.76-22.27-22.96-17.53-63.7,10.57-90.99,10.99-10.86,24.85-18.36,39.96-21.62M431.64,323.66h0c-15.92,3.36-30.55,11.23-42.14,22.66-29.83,28.93-34.6,72.52-10.66,97.2,16.68,17.21,47,25.41,73.73,19.97,12.7-2.42,24.44-8.42,33.83-17.3,13.91-13.5,21.18-33.25,20.46-55.59-.66-20.38-8.11-39.81-19.91-51.99-13.5-13.75-33.67-19.23-55.29-14.83l-.02-.11Z"/>
    <path class="cls-5" d="M326.35,196.7l-12.42,14.61c-2.09,2.49-2.38,6.02-.74,8.82-1.94,3.31-3.48,6.83-4.59,10.5-3.02,9.62-4.6,23.99.51,42.88,3.22,10.3,8.21,19.95,14.76,28.52,7.05,9.61,14.79,18.7,23.16,27.2,12.38,12.66,25.53,24.56,39.37,35.61,1.67,1.31,4.09,1.01,5.4-.66,1.31-1.67,1.01-4.09-.66-5.4l-.87-.67c-13.25-10.64-25.86-22.07-37.74-34.23-8.11-8.24-15.61-17.06-22.43-26.39-5.99-7.83-10.59-16.63-13.58-26.03-4.74-17.58-3.19-30.31-.63-38.6.92-3.12,2.2-6.13,3.8-8.97,2.21-.02,4.31-.99,5.76-2.67l12.42-14.61c2.75-3.23,2.36-8.07-.87-10.82-3.23-2.75-8.07-2.36-10.82.87l.15.03Z"/>
    <path class="cls-1" d="M326.35,196.7l-1.67-1.41-12.42,14.61c-2.74,3.22-3.12,7.82-.96,11.45l1.91-1.12-1.89-1.11c-2.02,3.46-3.63,7.14-4.8,10.97-3.53,12.26-3.88,25.21-1.03,37.65.42,2.08.86,4.24,1.54,6.44,3.29,10.54,8.38,20.43,15.07,29.22,7.13,9.7,14.94,18.88,23.38,27.47,9.9,10.17,19.77,19.11,27.16,25.43,3.69,3.19,6.8,5.74,8.96,7.52l2.53,2.05.7.53.17.13c2.63,2.02,6.4,1.56,8.46-1.05,2.04-2.62,1.57-6.39-1.04-8.43l-.84-.65c-13.18-10.58-25.71-21.94-37.52-34.01-8.02-8.17-15.44-16.9-22.21-26.13-5.86-7.65-10.35-16.26-13.26-25.45-.41-2-.99-3.88-1.37-5.75-2.45-10.44-2.2-21.33.73-31.65.9-2.93,2.14-5.74,3.7-8.38l-1.89-1.11.05,2.19c.64-.02,1.27-.09,1.9-.22,2.14-.43,4.06-1.57,5.48-3.23l12.42-14.61c3.52-4.15,3.02-10.36-1.13-13.89-4.15-3.52-10.36-3.02-13.89,1.13l1.67,1.41,1.67,1.43c.78-.94,1.87-1.58,3.07-1.81,3-.56,5.88,1.42,6.43,4.41.3,1.6-.12,3.25-1.15,4.5l-12.43,14.58c-.78.91-1.84,1.54-3.02,1.77l-1.08.22h-1.21s-.63,1.05-.63,1.05c-1.76,2.97-3.16,6.15-4.15,9.46-3.17,11.06-3.46,22.75-.83,33.95.4,1.95.8,3.95,1.42,6.02,3.06,9.64,7.76,18.68,13.89,26.73l.27.37-.27-.37c6.9,9.4,14.48,18.29,22.67,26.6,11.96,12.25,24.64,23.76,37.99,34.48.57.45.85.7.85.7l.62.97c.08.47-.03.95-.32,1.33l-.98.59c-.48.1-.97-.01-1.36-.31l-1.34,1.74,1.41-1.67c-13.75-11-26.82-22.82-39.13-35.4-8.3-8.42-15.97-17.43-22.97-26.96-6.38-8.36-11.26-17.77-14.42-27.8-.44-2.14-1.05-4.18-1.46-6.18-2.71-11.71-2.4-23.92.91-35.48l.22-.69-.22.69c1.06-3.5,2.53-6.86,4.38-10.01l.67-1.12-.65-1.11c-.32-.52-.54-1.1-.66-1.7-.33-1.64.1-3.34,1.17-4.63l12.43-14.58-1.72-1.79Z"/>
    <path class="cls-4" d="M444.24,338.82c12.52,2.18,21.37,11.52,19.74,20.92-1.63,9.4-13.08,15.25-25.62,13.1s-21.35-11.53-19.71-20.92c1.63-9.4,13.06-15.35,25.59-13.09Z"/>
    <path class="cls-1" d="M206.51,189.42l-15.83,3.95c-4.89-4.63-9.27-8.6-13.12-11.92-3.83-3.31-7.95-6.7-12.34-10.12l-6.1,1.52,4.67,18.71c.2.91.58,1.76,1.11,2.53.59.71,1.45,1.15,2.37,1.2.93.05,1.85,0,2.77-.13,1.08-.1,2.15-.27,3.21-.49l.74,2.96-24.96,6.23-.76-3.03c.69-.17,1.6-.54,2.83-1.02.88-.28,1.73-.68,2.51-1.19.69-.5,1.2-1.22,1.43-2.04.19-.92.16-1.87-.1-2.78l-10.64-42.62c-.2-.91-.56-1.76-1.08-2.53-.57-.75-1.44-1.2-2.38-1.23-.94-.07-1.87-.08-2.81-.03-.99.05-1.97.15-2.95.32l-.74-2.98,27.21-6.79c2.37-.6,4.79-.94,7.24-.99,2.23-.03,4.44.3,6.56,1,1.98.67,3.76,1.81,5.2,3.33,1.57,1.71,2.65,3.81,3.15,6.08.55,2.05.71,4.19.48,6.3-.25,1.89-.91,3.71-1.95,5.31-1.02,1.58-2.27,3-3.72,4.21-1.63,1.38-3.38,2.6-5.23,3.66,3.87,3.13,7.09,5.77,9.69,7.92,2.59,2.16,5.76,4.77,9.5,7.83,1.32,1.13,2.77,2.08,4.33,2.84,1.09.52,2.24.92,3.41,1.19.94.19,1.9.25,2.85.19.91-.06,1.82-.17,2.72-.34l.76,2.95ZM173.65,150.89c-.97-6.04-6.64-10.15-12.68-9.18-.68.11-1.34.28-1.99.51l-7.07,1.77,6.31,25.28,5.44-1.36c7.17-1.45,11.81-8.44,10.36-15.61-.1-.48-.22-.95-.37-1.41Z"/>
    <path class="cls-1" d="M251.5,177.4l-13.15,4.26-.78-.45-1.32-5.28-.24.06c-.51.88-1.06,1.81-1.68,2.8-.67,1.04-1.46,1.99-2.34,2.86-.97.98-2.04,1.86-3.19,2.62-1.5.84-3.11,1.45-4.79,1.81-3.12,1-6.53.44-9.18-1.49-2.85-2.49-4.76-5.88-5.43-9.61l-4.88-19.55c-.19-.88-.6-1.69-1.21-2.36-1.06-1.15-2.6-1.73-4.15-1.57-.82.03-1.64.12-2.45.28l-.66-2.64,13.44-4.42.75.43,7.12,28.5c.45,2.39,1.74,4.53,3.64,6.04,1.54,1.12,3.49,1.5,5.34,1.05,1.4-.32,2.73-.91,3.91-1.73.97-.67,1.83-1.48,2.57-2.41.59-.73,1.09-1.51,1.52-2.34.36-.68.65-1.39.87-2.12l-5.8-23.22c-.21-.84-.61-1.63-1.19-2.28-.58-.61-1.3-1.08-2.08-1.39-.77-.22-1.59-.23-2.37-.05l-3.27.62-.66-2.64,14.66-4.73.78.42,8.1,32.43c.19.84.6,1.62,1.18,2.26.58.59,1.29,1.03,2.06,1.31.63.18,1.29.23,1.95.16.69-.17,1.49-.2,2.32-.38l.61,2.76Z"/>
    <path class="cls-1" d="M293.24,145.93c1.59,5.7.89,11.8-1.95,17-2.4,4.79-6.75,8.31-11.94,9.65-2.26.55-4.59.76-6.91.61-2.3-.1-4.57-.47-6.78-1.11l-1.94,5.36-2.78.08c-.51-2.06-.92-4.59-1.56-7.49-.64-2.9-1.42-5.67-2.09-8.36l-10.13-40.58c-.25-.98-.72-1.89-1.36-2.66-.53-.75-1.28-1.32-2.14-1.62-.93-.26-1.9-.31-2.84-.16-1.29.13-2.29.26-3.07.38l-.66-2.64,14.84-4.66.73.46,6.75,27.02.29-.07c1.16-2.13,2.73-4.01,4.62-5.53,1.66-1.34,3.59-2.32,5.65-2.87,4.9-1.29,10.13-.24,14.16,2.83,4.69,3.52,7.94,8.63,9.14,14.37ZM284.63,148.38c-.54-2.11-1.29-4.16-2.25-6.11-.86-1.87-2.04-3.58-3.47-5.05-1.3-1.35-2.9-2.38-4.67-2.98-1.9-.63-3.94-.67-5.86-.13-1.78.4-3.43,1.24-4.8,2.43-1.29,1.16-2.36,2.54-3.16,4.07l5.93,23.75c.43.76.95,1.45,1.56,2.08.75.86,1.64,1.59,2.64,2.14,1.02.59,2.14.99,3.3,1.19,1.36.23,2.74.15,4.06-.23,3.42-.87,6.08-3.54,6.95-6.95,1.27-4.66,1.2-9.59-.21-14.22Z"/>
    <path class="cls-1" d="M304.67,179.15c-.36-1.22-.26-2.54.29-3.69.5-1.01,1.43-1.75,2.53-2,.79-.23,1.62-.25,2.42-.07.72.16,1.41.44,2.03.84.62.41,1.2.86,1.74,1.36.65.59,1.17,1.11,1.58,1.48,1.7-2.05,2.9-4.47,3.5-7.07,1.01-3.04,1.71-6.17,2.09-9.35-4.28-5.91-8.12-11.2-11.55-15.84-3.43-4.64-6.99-9.47-10.7-14.43-.84-1.13-2.03-1.95-3.38-2.32-1.32-.39-2.71-.53-4.08-.41l-.66-2.64,18.74-4.68.72,2.9c-1,.32-1.97.74-2.88,1.28-1.08.61-1.57,1.12-1.46,1.54.09.27.22.53.39.77.23.36.46.73.75,1.1,1.71,2.49,4.29,6.05,7.77,10.68,3.47,4.63,6.18,8.34,8.11,11.15.5-3.29,1.13-6.7,1.61-10.18.48-3.48,1.12-7.63,1.71-12.37.05-.57.16-1.39.3-2.4.12-.84.1-1.7-.07-2.53-.18-.71-.98-1.21-2.4-1.53-1.27-.31-2.58-.39-3.87-.24l-.66-2.64,15.23-3.8.66,2.64c-1.1.57-2.09,1.33-2.92,2.24-1.16,1.15-1.92,2.64-2.19,4.25-1.38,8.47-2.57,16.18-3.56,23.12-1.07,6.94-1.78,12.05-2.37,15.34-.59,3.47-1.4,6.91-2.42,10.28-.67,2.14-1.58,4.2-2.73,6.12-.75,1.24-1.73,2.32-2.87,3.21-.93.67-1.98,1.15-3.09,1.42-1.8.56-3.74.47-5.48-.26-1.41-.56-2.45-1.78-2.8-3.25Z"/>
  </g>
  <g>
    <path class="cls-1" d="M225.72,584.62c-21.89-.25-39.68-17.72-40.32-39.6-.18-.46-.27-.95-.26-1.44l3.91-446.85c.18-15.92,9.61-30.28,24.15-36.78l.6-.27,1.15-.45c2.97-1.23,6.07-2.12,9.24-2.64h.68s.6.01.6.01c1.53-.17,3.06-.26,4.6-.26l359.3,3.14c2.39.02,4.31,1.97,4.29,4.36l-3.98,455.72c-.02,2.39-1.97,4.31-4.36,4.29h-1.14s-.01,1.65-.01,1.65c0,.4-.06.79-.17,1.17.11.38.16.78.15,1.17l-.02,2.07c-.28.88-.29,1.83-.02,2.72l-.02,2.07c-.22.76-.23,1.57-.02,2.34l-.02,2.09c-.26.84-.27,1.74-.02,2.58l-.02,2.07c0,.4-.06.79-.17,1.17.1.38.16.78.15,1.17l-.02,2.09c-.26.84-.27,1.74-.02,2.58l-.02,2.09c0,.4-.06.79-.17,1.17.11.38.16.78.15,1.17l-.02,2.07c-.28.88-.29,1.83-.02,2.72l-.02,1.88c0,.56-.12,1.12-.34,1.63v.71s-.02,2.09-.02,2.09v.87c.21.55.33,1.13.33,1.72v1.41s1.13,0,1.13,0c2.38.02,4.29,1.96,4.29,4.33l-.08,8.84c-.02,2.39-1.97,4.31-4.36,4.29l-359.06-3.17Z"/>
    <rect class="cls-3" x="387.12" y="326.3" width="2.07" height="383.47" transform="translate(-133.26 901.65) rotate(-89.5)"/>
    <rect class="cls-3" x="387.08" y="330.98" width="2.07" height="383.47" transform="translate(-137.98 906.24) rotate(-89.5)"/>
    <rect class="cls-3" x="387.04" y="335.42" width="2.07" height="383.47" transform="translate(-142.45 910.6) rotate(-89.5)"/>
    <rect class="cls-3" x="387" y="340.09" width="2.07" height="383.47" transform="translate(-147.17 915.19) rotate(-89.5)"/>
    <rect class="cls-3" x="386.96" y="344.5" width="2.07" height="383.47" transform="translate(-151.61 919.52) rotate(-89.5)"/>
    <rect class="cls-3" x="386.92" y="349.18" width="2.07" height="383.47" transform="translate(-156.33 924.12) rotate(-89.5)"/>
    <rect class="cls-3" x="386.88" y="353.58" width="2.07" height="383.47" transform="translate(-160.78 928.45) rotate(-89.5)"/>
    <rect class="cls-3" x="386.84" y="358.26" width="2.07" height="383.47" transform="translate(-165.49 933.04) rotate(-89.5)"/>
    <rect class="cls-3" x="386.8" y="362.69" width="2.07" height="383.47" transform="translate(-169.97 937.4) rotate(-89.5)"/>
    <rect class="cls-3" x="386.76" y="367.37" width="2.07" height="383.47" transform="translate(-174.68 942) rotate(-89.5)"/>
    <rect class="cls-3" x="387.64" y="372.96" width="2.07" height="381.13" transform="translate(-178.22 947.26) rotate(-89.5)"/>
    <rect class="cls-3" x="393.53" y="388.06" width="2.07" height="369.19" transform="translate(-181.52 962.2) rotate(-89.5)"/>
    <rect class="cls-3" x="390.08" y="379.86" width="2.07" height="376.72" transform="translate(-180.51 954.35) rotate(-89.5)"/>
    <path class="cls-4" d="M230.03,60.71c-20.06-.12-36.45,15.99-36.68,36.04l-3.91,446.85,8.84.08c.13-15.21,12.56-27.43,27.76-27.31l359.3,3.14,3.98-455.66-359.3-3.14Z"/>
    <path class="cls-2" d="M198.52,543.69c-.03,15.17,12.14,27.54,27.31,27.76l358,3.13-.08,8.84-358-3.13c-20.06-.24-36.16-16.62-36.04-36.68l8.81.08Z"/>
    <path class="cls-5" d="M193.62,96.76l-3.91,446.85,8.81.08c.21-13.08,9.5-24.25,22.32-26.84l3.99-455.85c-17.78,2.64-31,17.8-31.21,35.77Z"/>
    <path class="cls-4" d="M223.72,583.94c-21.88-.19-39.32-17.46-39.71-39.32-.19-10.69,3.8-20.82,11.23-28.52,7.43-7.7,17.42-12.04,28.13-12.23.35,0,.71,0,1.06,0s.71.01,1.07.02l363.04,3.17-.14,16.14-363.08-3.17c-6.34.15-12.29,2.78-16.7,7.4-4.41,4.62-6.75,10.68-6.6,17.06.3,12.55,10.38,22.79,22.93,23.31l363.03,3.17-.14,16.14-363.08-3.17c-.32,0-.68,0-1.04,0Z"/>
    <path class="cls-1" d="M224.43,505.36c.34,0,.68.01,1.02.02l361.58,3.16-.11,13.14-361.58-3.16c-14.04.34-25.15,11.98-24.81,26,.32,13.38,10.98,24.22,24.37,24.77l361.58,3.16-.11,13.14-361.58-3.16c-.35,0-.7,0-1.04,0-20.83-.18-37.85-16.92-38.22-37.85-.38-21.28,16.58-38.84,37.89-39.22.34,0,.68,0,1.02,0M224.46,502.36c-.37,0-.74,0-1.1,0-11.1.2-21.47,4.7-29.18,12.69-7.71,7.98-11.85,18.49-11.65,29.59.19,10.9,4.57,21.12,12.33,28.79,7.74,7.65,17.99,11.92,28.87,12.01.36,0,.72,0,1.08,0l361.54,3.16,3,.03.03-3,.11-13.14.03-3-3-.03-361.53-3.16c-11.75-.51-21.17-10.1-21.45-21.85-.14-5.98,2.05-11.66,6.19-15.99,4.12-4.32,9.68-6.78,15.65-6.94l361.53,3.16,3,.03.03-3,.11-13.14.03-3-3-.03-361.54-3.16c-.35-.01-.71-.02-1.06-.02Z"/>
    <path class="cls-5" d="M307.63,458.98c-19.22-17.34-29.99-45.15-26.32-67.43,2.57-15.53,12.37-28.87,27.56-37.57,15.94-8.79,34.42-11.82,52.32-8.57,15.28,2.38,29.57,9.09,41.14,19.35,15.4,13.9,22.55,32.18,19.52,50.18-2.58,15.77-13.25,32.38-28.45,44.37-16.64,13.11-35.73,18.7-53.75,15.68-11.99-2.16-23.1-7.72-32.03-16.01Z"/>
    <path class="cls-1" d="M400.99,366.25c14.25,12.85,21.76,30.49,18.9,48.22-5.14,30.77-42.12,64.58-79.79,58.31-11.59-2.08-22.34-7.44-30.97-15.46-18.94-17.08-29.15-44.4-25.65-65.53,5.12-30.75,39.79-50.61,77.45-44.36,14.88,2.33,28.78,8.86,40.07,18.81M403.85,363.07h0c-11.85-10.54-26.48-17.45-42.14-19.93-39.94-6.64-76.87,14.84-82.37,47.89-3.84,23.03,7.27,51.55,27.01,69.36,9.24,8.56,20.74,14.28,33.14,16.51,18.64,3.09,38.32-2.64,55.42-16.13,15.6-12.31,26.52-29.39,29.24-45.69,2.97-18.53-4.4-37.53-20.37-51.93l.07-.08Z"/>
    <path class="cls-4" d="M399.25,381.73c5.54,11.08,3.34,23.42-4.98,27.58-8.31,4.16-19.52-1.43-25.09-12.51-5.57-11.07-3.32-23.41,5-27.56,8.31-4.16,19.59,1.35,25.07,12.49Z"/>
    <path class="cls-5" d="M380.38,233.18c-1.31,1.5-2.54,3.18-3.94,4.77-5.93,8.37-10.37,17.72-13.12,27.62-3.29,11.07-5.79,22.36-7.46,33.8-2.55,16.99-4.06,34.11-4.55,51.28h0c0,.48.19.93.55,1.25l1.03.41c.46,0,.91-.19,1.22-.53l.39-1.06s.03-.37.05-1.07c.5-16.72,2.01-33.4,4.5-49.94,1.65-11.28,4.1-22.43,7.35-33.35l-.13.43.13-.43c2.65-9.52,6.91-18.51,12.59-26.57,1.24-1.7,2.55-3.2,3.83-4.65,7.14-8.65,16.37-15.31,26.81-19.35.99-.37,2.01-.69,3.02-.98v-3.13c-1.44.37-2.87.8-4.26,1.32-10.9,4.23-20.55,11.18-28.04,20.19Z"/>
    <polyline class="cls-1" points="366.3 266.79 366.42 266.36 366.3 266.79"/>
    <path class="cls-1" d="M412.68,214.81c-1.02.29-2.03.61-3.02.98-10.43,4.04-19.66,10.7-26.81,19.35-1.28,1.46-2.59,2.95-3.83,4.65-5.69,8.06-9.95,17.05-12.59,26.57-3.25,10.92-5.71,22.07-7.35,33.35-2.5,16.54-4,33.22-4.5,49.94-.01.71-.05,1.07-.05,1.07l-.39,1.06c-.32.34-.76.54-1.22.53l-1.03-.41c-.36-.31-.56-.77-.55-1.25h0c.48-17.17,2-34.3,4.55-51.28,1.67-11.43,4.16-22.73,7.46-33.8,2.75-9.9,7.19-19.25,13.12-27.62,1.4-1.6,2.63-3.28,3.94-4.77,7.5-9.01,17.15-15.96,28.04-20.19,1.4-.51,2.82-.94,4.25-1.32v-4.53c-1.87.45-3.71,1-5.52,1.67-11.57,4.47-21.82,11.82-29.79,21.37-1.37,1.56-2.78,3.17-4.1,4.99-6.25,8.77-10.93,18.57-13.83,28.96-3.35,11.27-5.9,22.78-7.61,34.42-2.09,13.71-3.25,26.68-3.82,36.17-.31,4.76-.47,8.68-.58,11.42l-.11,3.18v.86s0,.21,0,.21c-.03,3.24,2.54,5.91,5.76,5.98,3.22.05,5.87-2.54,5.93-5.78v-1.03c.5-16.51,1.97-32.97,4.42-49.31,1.64-11.07,4.07-22,7.26-32.71,2.5-9.08,6.55-17.65,11.97-25.33,1.31-1.5,2.43-3.06,3.65-4.45,6.66-8.06,15.25-14.28,24.97-18.07.47-.17.95-.32,1.43-.47v-4.41Z"/>
    <path class="cls-5" d="M487.16,479.82c-26.52-1.39-53.1-16.6-64.58-36.73-7.99-14.04-8.81-31.01-2.32-47.76,7.02-17.31,19.79-31.67,36.16-40.66,13.72-7.99,29.44-11.87,45.3-11.18,21.26,1.12,38.78,11.07,48,27.38,8.14,14.24,10.37,34.38,6.01,53.76-4.79,21.21-16.39,38-32.7,47.25-10.95,6.03-23.41,8.78-35.88,7.95Z"/>
    <path class="cls-1" d="M501.62,345.55c19.67,1.03,37.05,10.23,46.24,26.21,15.8,27.84,8.18,78.7-25.9,98.07-10.58,5.84-22.62,8.52-34.68,7.71-26.14-1.37-51.94-16.54-62.81-35.64-15.8-27.81-1-66.06,33.05-85.43,13.36-7.76,28.66-11.55,44.1-10.91M501.85,341.17h0c-16.26-.74-32.39,3.21-46.47,11.37-36.13,20.53-51.68,61.53-34.69,91.42,11.83,20.84,39.13,36.39,66.37,37.82,12.9.84,25.77-2.03,37.08-8.27,16.85-9.58,28.84-26.88,33.74-48.69,4.47-19.9,2.13-40.57-6.23-55.32-9.62-16.69-27.77-27.06-49.81-28.22v-.11Z"/>
    <path class="cls-5" d="M431.76,191.87l-15.69,11.02c-2.65,1.88-3.82,5.23-2.92,8.35-2.71,2.71-5.08,5.74-7.07,9.02-5.34,8.56-10.47,22.07-10.25,41.64.53,10.77,2.95,21.37,7.14,31.31,4.42,11.08,9.63,21.82,15.6,32.14,8.81,15.36,18.56,30.17,29.18,44.34,1.29,1.68,3.7,2,5.39.71,1.68-1.29,2-3.7.71-5.39l-.67-.86c-10.16-13.62-19.5-27.85-27.95-42.59-5.78-10.01-10.83-20.43-15.1-31.17-3.84-9.08-6.08-18.76-6.62-28.6-.18-18.21,4.51-30.14,9.07-37.53,1.68-2.79,3.67-5.38,5.93-7.73,2.15.53,4.42.12,6.25-1.14l15.69-11.02c3.47-2.43,4.31-7.22,1.87-10.69-2.43-3.47-7.22-4.31-10.69-1.87l.14.06Z"/>
    <path class="cls-1" d="M431.76,191.87l-1.26-1.78-15.69,11.02c-3.46,2.43-4.99,6.79-3.8,10.85l2.13-.61-1.55-1.55c-2.82,2.84-5.3,6-7.4,9.42-6.49,10.98-10.08,23.43-10.44,36.18-.11,2.12-.23,4.32-.13,6.62.54,11.03,2.99,21.88,7.26,32.06,4.47,11.18,9.73,22.03,15.75,32.45,7.03,12.33,14.34,23.46,19.92,31.43,2.77,4.01,5.14,7.26,6.79,9.53l1.93,2.61.54.69.13.17c2.04,2.62,5.8,3.11,8.45,1.11,2.63-2.02,3.12-5.79,1.11-8.42l-.65-.83c-10.1-13.54-19.39-27.68-27.8-42.34-5.71-9.92-10.71-20.23-14.95-30.86-3.75-8.88-5.94-18.34-6.46-27.96.11-2.04.02-4,.12-5.9.25-10.72,3.22-21.2,8.64-30.45,1.6-2.61,3.51-5.02,5.68-7.19l-1.55-1.55-.5,2.13c.62.15,1.25.23,1.89.27,2.18.12,4.33-.5,6.11-1.75l15.69-11.02c4.45-3.13,5.52-9.27,2.39-13.73-3.13-4.45-9.27-5.52-13.73-2.39l1.26,1.78,1.26,1.81c.99-.71,2.2-1.06,3.42-.98,3.04.21,5.33,2.85,5.12,5.88-.11,1.62-.93,3.11-2.25,4.07l-15.69,11c-.98.69-2.17,1.03-3.36.96l-1.1-.06-1.17-.31-.87.87c-2.45,2.44-4.6,5.16-6.39,8.12-5.85,9.91-9.05,21.15-9.31,32.65-.1,1.98-.21,4.02-.13,6.18.54,10.1,2.82,20.03,6.74,29.35l.17.42-.17-.42c4.33,10.83,9.43,21.34,15.28,31.43,8.5,14.85,17.9,29.18,28.13,42.91.44.58.64.89.64.89l.36,1.1c-.04.48-.27.91-.64,1.21l-1.09.33c-.49-.02-.94-.26-1.24-.64l-1.73,1.35,1.78-1.26c-10.55-14.09-20.24-28.82-29-44.09-5.92-10.23-11.09-20.88-15.48-31.86-4.08-9.69-6.44-20.02-6.99-30.53.11-2.18.03-4.31.14-6.35.31-12.02,3.68-23.76,9.78-34.12l.39-.61-.39.61c1.91-3.12,4.17-6,6.75-8.59l.93-.92-.35-1.23c-.18-.58-.25-1.2-.21-1.81.09-1.67.93-3.21,2.29-4.19l15.69-11-1.21-2.16Z"/>
    <path class="cls-4" d="M510.25,359.01c11.57,5.25,17.8,16.51,13.87,25.2-3.94,8.69-16.48,11.48-28.09,6.26-11.6-5.22-17.78-16.51-13.84-25.2,3.94-8.69,16.49-11.59,28.06-6.26Z"/>
    <path class="cls-1" d="M317.57,154.77l-16.32-.14c-3.58-5.71-6.82-10.65-9.72-14.83-2.87-4.16-6.02-8.48-9.41-12.89l-6.28-.05-.17,19.28c-.03.93.12,1.85.44,2.72.39.84,1.12,1.47,2,1.76.88.28,1.79.47,2.71.57,1.07.17,2.15.28,3.23.33l-.03,3.05-25.73-.22.03-3.13c.71,0,1.69-.12,2.99-.27.93-.05,1.84-.23,2.72-.52.8-.31,1.46-.88,1.89-1.62.42-.84.62-1.77.6-2.71l.38-43.92c.04-.93-.1-1.85-.41-2.72-.36-.87-1.1-1.52-2-1.79-.89-.31-1.79-.55-2.71-.73-.97-.2-1.95-.35-2.93-.43l.03-3.07,28.04.25c2.44.01,4.88.3,7.26.85,2.16.53,4.22,1.41,6.1,2.61,1.75,1.15,3.19,2.7,4.2,4.52,1.09,2.05,1.61,4.36,1.52,6.68.02,2.12-.36,4.23-1.11,6.22-.71,1.77-1.82,3.36-3.22,4.65-1.38,1.27-2.95,2.33-4.65,3.14-1.92.93-3.92,1.67-5.98,2.23,2.96,4,5.42,7.36,7.39,10.1,1.97,2.74,4.38,6.06,7.23,9.96.99,1.42,2.16,2.71,3.48,3.84.93.77,1.93,1.45,3,2.01.86.42,1.77.72,2.71.89.9.17,1.8.29,2.72.35v3.05ZM295.42,109.24c.58-6.09-3.89-11.49-9.97-12.07-.68-.07-1.37-.07-2.05,0l-7.29-.06-.23,26.05,5.6.05c7.3.39,13.55-5.21,13.94-12.51.03-.48.03-.97,0-1.46Z"/>
    <path class="cls-1" d="M364.14,154.42l-13.8.83-.65-.63.05-5.44h-.24c-.71.73-1.48,1.48-2.33,2.29-.91.84-1.91,1.57-2.98,2.18-1.18.71-2.44,1.29-3.74,1.74-1.66.43-3.38.62-5.09.55-3.27.18-6.43-1.21-8.51-3.75-2.13-3.13-3.13-6.89-2.84-10.66l.18-20.15c.04-.9-.16-1.79-.58-2.59-.74-1.38-2.08-2.33-3.62-2.56-.81-.18-1.62-.29-2.44-.35l.02-2.72,14.12-.91.62.6-.26,29.37c-.17,2.42.55,4.82,2.01,6.76,1.21,1.47,3,2.33,4.9,2.35,1.44.04,2.87-.2,4.22-.7,1.11-.41,2.15-.98,3.09-1.69.75-.56,1.44-1.19,2.06-1.89.52-.56.98-1.18,1.38-1.84l.21-23.93c.01-.87-.19-1.73-.58-2.51-.41-.74-.98-1.37-1.67-1.86-.69-.4-1.48-.62-2.28-.65l-3.32-.22.02-2.72,15.38-.9.65.6-.29,33.43c-.03.86.17,1.72.58,2.48.41.71.99,1.32,1.67,1.78.57.33,1.19.55,1.84.64.71,0,1.49.18,2.34.21l-.11,2.83Z"/>
    <path class="cls-1" d="M412.43,134.41c.11,5.92-2.1,11.65-6.15,15.97-3.52,4.04-8.62,6.35-13.98,6.35-2.33-.03-4.63-.42-6.84-1.15-2.2-.67-4.31-1.6-6.29-2.77l-3.22,4.7-2.71-.62c.02-2.12.26-4.68.37-7.64.11-2.96.05-5.85.08-8.62l.37-41.83c0-1.01-.22-2.01-.65-2.92-.33-.86-.91-1.59-1.67-2.11-.83-.48-1.76-.78-2.71-.87-1.28-.2-2.28-.32-3.07-.41l.02-2.72,15.54-.79.59.63-.24,27.85h.3c1.66-1.77,3.65-3.19,5.86-4.19,1.94-.88,4.05-1.34,6.19-1.36,5.07-.02,9.87,2.3,13,6.29,3.66,4.58,5.53,10.34,5.24,16.2ZM403.48,134.64c0-2.18-.21-4.35-.65-6.48-.36-2.03-1.07-3.97-2.1-5.76-.92-1.63-2.21-3.03-3.77-4.06-1.68-1.08-3.65-1.64-5.64-1.6-1.82-.06-3.63.34-5.26,1.15-1.54.8-2.92,1.86-4.08,3.15l-.21,24.48c.23.84.56,1.65.99,2.4.51,1.02,1.19,1.95,2.02,2.74.84.82,1.82,1.5,2.89,1.98,1.26.56,2.62.83,3.99.8,3.52.01,6.78-1.9,8.48-4.98,2.4-4.2,3.56-8.99,3.36-13.82Z"/>
    <path class="cls-1" d="M415.17,169.44c-.05-1.27.38-2.52,1.2-3.5.74-.86,1.82-1.34,2.95-1.31.82-.02,1.63.16,2.36.54.66.33,1.25.78,1.76,1.32.5.55.94,1.13,1.34,1.75.48.74.86,1.37,1.15,1.83,2.16-1.56,3.93-3.6,5.17-5.97,1.74-2.69,3.2-5.55,4.37-8.53-2.66-6.8-5.06-12.88-7.21-18.23-2.16-5.35-4.39-10.92-6.74-16.65-.53-1.3-1.47-2.4-2.69-3.1-1.19-.71-2.49-1.19-3.85-1.42l.02-2.72,19.31.17-.03,2.99c-1.05.05-2.09.23-3.11.52-1.2.32-1.8.69-1.8,1.13.02.29.08.57.18.84.13.41.27.82.45,1.26,1.03,2.84,2.64,6.93,4.84,12.28,2.2,5.35,3.89,9.63,5.06,12.83,1.31-3.06,2.77-6.2,4.11-9.46,1.33-3.25,3-7.1,4.75-11.55.19-.54.5-1.3.89-2.25.33-.78.52-1.62.57-2.47,0-.73-.64-1.42-1.94-2.08-1.15-.61-2.4-1.02-3.69-1.2l.02-2.72,15.69.14-.02,2.72c-1.21.27-2.35.76-3.39,1.44-1.41.83-2.52,2.07-3.19,3.56-3.46,7.86-6.54,15.02-9.25,21.49-2.78,6.45-4.75,11.22-6.14,14.25-1.44,3.21-3.09,6.33-4.92,9.34-1.18,1.91-2.59,3.66-4.18,5.24-1.04,1.01-2.25,1.82-3.58,2.39-1.07.41-2.21.62-3.35.6-1.88.09-3.74-.48-5.24-1.62-1.22-.9-1.93-2.34-1.9-3.85Z"/>
  </g>
</svg>