<svg id="レイヤー_1" data-name="レイヤー 1" xmlns="http://www.w3.org/2000/svg" viewBox="0 0 200 200"><defs><style>.cls-1{fill:#484f5b;}.cls-2{fill:#fff;}.cls-3{fill:#f0f2f4;}.cls-4{fill:#d4dddd;}.cls-5{fill:#f5876e;}.cls-6{fill:#06b0c1;}</style></defs><title>book</title><rect class="cls-1" x="4" y="64.08" width="192" height="115.92"/><rect class="cls-2" x="100" y="56.7" width="84.14" height="113.01"/><rect class="cls-3" x="15.86" y="56.7" width="84.14" height="113.01"/><polygon class="cls-2" points="15.86 56.7 9.15 62.29 9.15 175.97 15.86 169.48 15.86 56.7"/><polygon class="cls-4" points="15.86 169.48 100 169.48 95.08 175.97 9.15 175.97 15.86 169.48"/><polygon class="cls-3" points="184.14 56.7 190.85 62.29 190.85 175.97 184.14 169.48 184.14 56.7"/><polygon class="cls-4" points="184.14 169.48 100 169.48 104.92 175.97 190.85 175.97 184.14 169.48"/><path class="cls-4" d="M100,56.7S121.26,25.82,162.66,20V137.26s-41.4,1.79-62.66,32.45Z"/><path class="cls-1" d="M148.34,42.6l-.68-2a101,101,0,0,0-42.29,26.18l1.57,1.57A98.16,98.16,0,0,1,148.34,42.6Z"/><path class="cls-1" d="M105.37,84.22l1.57,1.57a98.16,98.16,0,0,1,41.4-25.73l-.68-2C127.52,64.08,113.65,75.72,105.37,84.22Z"/><path class="cls-1" d="M105.37,101.68l1.57,1.56a98.25,98.25,0,0,1,41.4-25.73l-.68-2C127.52,81.54,113.65,93.17,105.37,101.68Z"/><path class="cls-1" d="M105.37,119.13l1.57,1.57A98.16,98.16,0,0,1,148.34,95l-.68-2.24A98.92,98.92,0,0,0,105.37,119.13Z"/><path class="cls-1" d="M105.37,136.59l1.57,1.56a98.16,98.16,0,0,1,41.4-25.73l-.68-2A96.68,96.68,0,0,0,105.37,136.59Z"/><polygon class="cls-5" points="49.65 82.88 49.65 77.96 41.15 77.96 41.15 69.68 36.22 69.68 36.22 77.96 27.94 77.96 27.94 82.88 36.22 82.88 36.22 91.39 41.15 91.39 41.15 82.88 49.65 82.88"/><rect class="cls-1" x="59.5" y="68.56" width="29.31" height="2.24"/><rect class="cls-1" x="59.5" y="79.3" width="29.31" height="2.24"/><rect class="cls-1" x="59.5" y="90.27" width="29.31" height="2.24"/><rect class="cls-1" x="27.94" y="101.01" width="61.09" height="2.24"/><rect class="cls-1" x="27.94" y="111.97" width="61.09" height="2.24"/><rect class="cls-1" x="27.94" y="155.38" width="61.09" height="2.24"/><rect class="cls-6" x="27.94" y="119.36" width="61.09" height="29.76"/></svg>