<svg id="materials" xmlns="http://www.w3.org/2000/svg" viewBox="0 0 240 240"><defs><style>.cls-1{fill:#62d2dd;}.cls-2{fill:#474747;}.cls-3{fill:#ffc400;}.cls-4{fill:#e53935;}.cls-5{fill:#8d6e63;}.cls-6{fill:#ffd54f;}.cls-7{fill:none;stroke:#fbc02d;stroke-miterlimit:10;stroke-width:5px;}.cls-8{fill:#fff;}.cls-9{fill:#bccebc;}.cls-10{fill:#6a896b;}.cls-11{fill:#515556;}.cls-12{fill:#c5b823;}.cls-13{fill:#f8ed00;}</style></defs><title>card</title><rect class="cls-1" x="5.64" y="45.48" width="229.46" height="145.68" rx="11.95"/><path class="cls-2" d="M235.1,57.43h-2V179.21a9.94,9.94,0,0,1-9.9,9.91H17.59a9.94,9.94,0,0,1-9.91-9.91V57.43a9.94,9.94,0,0,1,9.91-9.9H223.15a9.94,9.94,0,0,1,9.9,9.9h4.09a14,14,0,0,0-14-14H17.59a14,14,0,0,0-14,14V179.21a14,14,0,0,0,14,14H223.15a14,14,0,0,0,14-14V57.43Z"/><circle class="cls-3" cx="193.03" cy="158.36" r="19.6" transform="translate(-5.44 309.84) rotate(-76.72)"/><circle class="cls-4" cx="164.05" cy="158.36" r="19.6" transform="translate(-27.77 281.64) rotate(-76.72)"/><rect class="cls-5" x="29.42" y="123.16" width="7.77" height="7.77" rx="2.09"/><path class="cls-5" d="M45,130.93H41.43a2.11,2.11,0,0,1-2.09-2.09v-3.58a2.12,2.12,0,0,1,2.09-2.1H45a2.12,2.12,0,0,1,2.09,2.1v3.58A2.08,2.08,0,0,1,45,130.93Z"/><rect class="cls-5" x="49.32" y="123.16" width="7.77" height="7.77" rx="2.09"/><rect class="cls-5" x="59.3" y="123.16" width="7.77" height="7.77" rx="2.09"/><rect class="cls-5" x="74.71" y="123.16" width="7.77" height="7.77" rx="2.09"/><rect class="cls-5" x="84.69" y="123.16" width="7.77" height="7.77" rx="2.09"/><path class="cls-5" d="M100.29,130.93H96.7a2.12,2.12,0,0,1-2.09-2.09v-3.58a2.12,2.12,0,0,1,2.09-2.1h3.59a2.12,2.12,0,0,1,2.09,2.1v3.58A2.08,2.08,0,0,1,100.29,130.93Z"/><rect class="cls-5" x="104.59" y="123.16" width="7.77" height="7.77" rx="2.09"/><rect class="cls-5" x="120.07" y="123.16" width="7.77" height="7.77" rx="2.09"/><rect class="cls-5" x="129.99" y="123.16" width="7.77" height="7.77" rx="2.09"/><rect class="cls-5" x="139.97" y="123.16" width="7.77" height="7.77" rx="2.09"/><rect class="cls-5" x="149.95" y="123.16" width="7.77" height="7.77" rx="2.09"/><rect class="cls-5" x="165.36" y="123.16" width="7.77" height="7.77" rx="2.09"/><rect class="cls-5" x="175.34" y="123.16" width="7.77" height="7.77" rx="2.09"/><path class="cls-5" d="M190.94,130.93h-3.59a2.12,2.12,0,0,1-2.09-2.09v-3.58a2.12,2.12,0,0,1,2.09-2.1h3.59a2.12,2.12,0,0,1,2.09,2.1v3.58A2.08,2.08,0,0,1,190.94,130.93Z"/><rect class="cls-5" x="195.24" y="123.16" width="7.77" height="7.77" rx="2.09"/><path class="cls-5" d="M54.64,152.74H19.14a2.45,2.45,0,1,1,0-4.9h35.5a2.45,2.45,0,1,1,0,4.9Z"/><path class="cls-5" d="M84.45,152.74H65a2.45,2.45,0,0,1,0-4.9H84.45a2.45,2.45,0,1,1,0,4.9Z"/><path class="cls-5" d="M27.21,164.69H19.14a2.45,2.45,0,1,1,0-4.9h8.07a2.47,2.47,0,0,1,2.45,2.45A2.39,2.39,0,0,1,27.21,164.69Z"/><path class="cls-5" d="M41.19,164.69H33.12a2.45,2.45,0,1,1,0-4.9h8.07a2.46,2.46,0,0,1,2.45,2.45A2.42,2.42,0,0,1,41.19,164.69Z"/><path class="cls-5" d="M59.6,164.69H51.53a2.45,2.45,0,0,1,0-4.9H59.6a2.47,2.47,0,0,1,2.45,2.45A2.42,2.42,0,0,1,59.6,164.69Z"/><path class="cls-5" d="M73.58,164.69H65.51a2.45,2.45,0,0,1,0-4.9h8.07a2.45,2.45,0,0,1,0,4.9Z"/><path class="cls-6" d="M49,107.93H20.87a4.2,4.2,0,0,1-4.18-4.19V86.24a4.19,4.19,0,0,1,4.18-4.19H49.08a4.2,4.2,0,0,1,4.18,4.19V103.8A4.24,4.24,0,0,1,49,107.93Z"/><line class="cls-7" x1="35.69" y1="84.62" x2="35.69" y2="105.84"/><line class="cls-7" x1="21.47" y1="86.06" x2="31.33" y2="86.06"/><line class="cls-7" x1="30.08" y1="90.18" x2="30.08" y2="100.04"/><line class="cls-7" x1="23.86" y1="95.68" x2="23.86" y2="105.54"/><line class="cls-7" x1="21.47" y1="91.91" x2="26.25" y2="91.91"/><line class="cls-7" x1="27.69" y1="103.86" x2="32.47" y2="103.86"/><line class="cls-7" x1="50.39" y1="86.06" x2="40.53" y2="86.06"/><line class="cls-7" x1="41.79" y1="90.42" x2="41.79" y2="105.84"/><line class="cls-7" x1="48" y1="95.68" x2="48" y2="105.54"/><line class="cls-7" x1="50.39" y1="91.91" x2="45.61" y2="91.91"/><path class="cls-8" d="M205.57,81.22a4.23,4.23,0,0,1-.42.25l-.2.12-.22.13a22.08,22.08,0,0,1-7.88,2.49l-.29,0-.18,0v5.41a15.08,15.08,0,0,1,6.24,4.21.67.67,0,0,1,0,.88c-.16.19-4,4.62-8.88,4.62S185,95,184.87,94.76a.67.67,0,0,1,0-.88,15.08,15.08,0,0,1,6.24-4.21V84.26l-.18,0-.29,0a22.08,22.08,0,0,1-7.88-2.49l-.23-.13-.2-.12-.42-.25-.12-.08c-.16-.1-.31-.19-.46-.3l-.16-.1A12.35,12.35,0,0,0,177.94,89c0,7.44,6.94,13.48,15.49,13.48s15.5-6,15.5-13.48a12.29,12.29,0,0,0-3-8l-.22.14Zm-19.79,4a2.91,2.91,0,1,1-2.44,2.87A2.68,2.68,0,0,1,185.78,85.21ZM201.85,91a2.91,2.91,0,1,1,2.44-2.87A2.68,2.68,0,0,1,201.85,91Z"/><path class="cls-9" d="M213.12,71a6.51,6.51,0,0,0-2.83-5.26,6.06,6.06,0,0,1,.19,1.48c0,3.06-2.3,4.88-5.46,5.45a17.08,17.08,0,0,1,1.42,5.06C210.21,77.24,213.12,74.4,213.12,71Z"/><path class="cls-9" d="M177.23,67.75a6,6,0,0,1,.19-1.47,6.5,6.5,0,0,0-2.83,5.25c0,3.35,2.77,6.14,6.4,6.69a17.35,17.35,0,0,1,1.26-5.1C179.32,72.46,177.23,70.67,177.23,67.75Z"/><path class="cls-10" d="M196.38,76.64v2.63a19.67,19.67,0,0,0,8.55-3l.29-.28c-1.16-5-4.56-8.9-8.84-10Z"/><path class="cls-10" d="M191.11,79.27V66c-4.3,1.15-7.71,5.07-8.86,10.11l.31.22A19.67,19.67,0,0,0,191.11,79.27Z"/><path class="cls-11" d="M181.91,81.22l.42.25Z"/><path class="cls-11" d="M182.53,81.59l.23.13Z"/><path class="cls-11" d="M205.15,81.47a4.23,4.23,0,0,0,.42-.25C205.44,81.31,205.29,81.39,205.15,81.47Z"/><path class="cls-11" d="M204.73,81.72l.22-.13Z"/><path class="cls-11" d="M196.56,84.24l.29,0Z"/><path class="cls-11" d="M190.64,84.21l.29,0Z"/><path class="cls-12" d="M195.46,89.44v-6a21,21,0,0,0,10.18-3.34,2.81,2.81,0,0,0,0-.29,17.54,17.54,0,0,0-.22-2.73,20.94,20.94,0,0,1-10,3.2V65.78a9.94,9.94,0,0,0-3.44,0V80.27a20.93,20.93,0,0,1-10-3.2,16.4,16.4,0,0,0-.22,2.73v.29A21,21,0,0,0,192,83.43v6a8.31,8.31,0,0,1,3.44,0Zm6.95-10.23a1,1,0,1,1-1,1A1,1,0,0,1,202.41,79.21Zm-4.15,1.23a1,1,0,1,1-1,1A1,1,0,0,1,198.26,80.44Zm-13.64.69a1,1,0,1,1,1-1A1,1,0,0,1,184.62,81.13Zm4.15,1.36a1,1,0,1,1,1-1A1,1,0,0,1,188.77,82.49Zm5-1.67a1,1,0,1,1-1,1A1,1,0,0,1,193.74,80.82Zm-1-3.19a1,1,0,1,1,1,1A1,1,0,0,1,192.72,77.63Zm1-9.46a1,1,0,1,1-1,1A1,1,0,0,1,193.74,68.17Zm0,4.22a1,1,0,1,1-1,1A1,1,0,0,1,193.74,72.39Zm-1,13.67a1,1,0,1,1,1,1A1,1,0,0,1,192.72,86.06Z"/><path class="cls-11" d="M185.78,91a2.91,2.91,0,1,0-2.44-2.87A2.68,2.68,0,0,0,185.78,91Z"/><path class="cls-11" d="M201.85,85.21a2.91,2.91,0,1,0,2.44,2.87A2.68,2.68,0,0,0,201.85,85.21Z"/><path class="cls-13" d="M193.74,93.88h0a46.54,46.54,0,0,0-8.13.67c.85.91,4.17,4.15,8.14,4.15s7.3-3.25,8.15-4.15a46.7,46.7,0,0,0-8.15-.67Z"/><path class="cls-13" d="M193.74,89.94c-3.58,0-6.64,2.64-7.83,3.82a51.39,51.39,0,0,1,15.66,0C200.39,92.59,197.33,89.94,193.74,89.94Z"/><polygon class="cls-11" points="192.53 64.66 192.53 64.66 192.53 64.66 192.53 64.66"/><polygon class="cls-11" points="195.25 64.7 195.25 64.7 195.25 64.7 195.25 64.7"/><path class="cls-11" d="M214.16,71a7.52,7.52,0,0,0-3.26-6.1l-2-1.47a.14.14,0,0,0-.15,0,.15.15,0,0,0-.05.14l.61,2.43h0a4.7,4.7,0,0,1,.16,1.22,4,4,0,0,1-1.09,2.76,6.19,6.19,0,0,1-3.68,1.71,13.2,13.2,0,0,0-8.26-6.73h0l-.62-.13h0l-.13,0h0l-.28,0h-.06l-.3,0h0l-.31,0-.35,0h-1l-.35,0h0l-.3,0h-.05l-.3,0h0l-.47.08h0l-.63.13h0a13.33,13.33,0,0,0-8.52,7.22,5.85,5.85,0,0,1-3.3-1.74,4,4,0,0,1-1-2.65,5.24,5.24,0,0,1,.16-1.22l.62-2.43a.13.13,0,0,0-.2-.13l-2,1.46a7.53,7.53,0,0,0-3.27,6.1,7.33,7.33,0,0,0,2.13,5.1,9,9,0,0,0,5.13,2.61c0,.13,0,.25,0,.38A13.46,13.46,0,0,0,176.9,89a13.67,13.67,0,0,0,4.86,10.27,18.16,18.16,0,0,0,23.35,0A13.67,13.67,0,0,0,210,89a13.36,13.36,0,0,0-3.29-8.69V80h0V79.8c0-.37,0-.73,0-1.09A9.17,9.17,0,0,0,212,76.14,7.32,7.32,0,0,0,214.16,71ZM191,76.64v2.49a19.59,19.59,0,0,1-8.35-2.93l-.24-.17c1.14-4.89,4.45-8.7,8.59-9.88Zm5.52-10.49c4.14,1.18,7.43,5,8.58,9.84l-.23.22a19.67,19.67,0,0,1-8.35,2.92v-13Zm10,11.39a16.87,16.87,0,0,0-1.34-4.81,7.7,7.7,0,0,0,3.82-1.8,5,5,0,0,0,1.59-3.75,6.45,6.45,0,0,0-.12-1.17A6.34,6.34,0,0,1,213,71a6.16,6.16,0,0,1-1.89,4.39A7.91,7.91,0,0,1,206.54,77.54Zm-2.23,20.87a17,17,0,0,1-21.75,0A12.49,12.49,0,0,1,178.07,89a12.23,12.23,0,0,1,3.12-8.08l.07,0,.46.3.12.08.43.25.2.12.23.13a22.16,22.16,0,0,0,7.92,2.5l.29,0H191v5.2A14,14,0,0,0,186.62,92a15.08,15.08,0,0,0-1.85,1.76.83.83,0,0,0,0,1.06,16.25,16.25,0,0,0,2.69,2.4,9.86,9.86,0,0,0,12.56,0,16.57,16.57,0,0,0,2.7-2.4h0a.83.83,0,0,0,0-1.06h0A15.63,15.63,0,0,0,200.86,92a13.87,13.87,0,0,0-4.36-2.45v-5.2h.08l.28,0a22.15,22.15,0,0,0,7.93-2.5l.22-.13.21-.12.42-.25.13-.08.13-.09A12.22,12.22,0,0,1,208.8,89,12.49,12.49,0,0,1,204.31,98.41ZM192,80.4a.17.17,0,0,0,.1,0,.18.18,0,0,0,0-.1V65.89a9.31,9.31,0,0,1,1.59-.13,9.42,9.42,0,0,1,1.6.13V80.27a.13.13,0,0,0,0,.1.14.14,0,0,0,.09,0,21.19,21.19,0,0,0,9.86-3.12,17.38,17.38,0,0,1,.19,2.52V80a20.77,20.77,0,0,1-10.06,3.28.13.13,0,0,0-.12.13v5.86a8.43,8.43,0,0,0-1.6-.16,8.32,8.32,0,0,0-1.59.16V83.43a.13.13,0,0,0-.12-.13A20.73,20.73,0,0,1,182,80c0-.08,0-.15,0-.22a16.07,16.07,0,0,1,.2-2.52A21.19,21.19,0,0,0,192,80.4ZM193.74,94h0a46.31,46.31,0,0,1,7.88.63,16.57,16.57,0,0,1-2.71,2.22,8.69,8.69,0,0,1-10.35,0,16.57,16.57,0,0,1-2.71-2.22,46.19,46.19,0,0,1,7.87-.63h0Zm0-1v0a48.81,48.81,0,0,0-7.45.53,15.77,15.77,0,0,1,2.7-2,8.51,8.51,0,0,1,9.5,0,15.38,15.38,0,0,1,2.7,2A48.62,48.62,0,0,0,193.74,93ZM178.55,71.37a7.34,7.34,0,0,0,3.53,1.84,17.15,17.15,0,0,0-1.2,4.86,7.91,7.91,0,0,1-4.36-2.23,6.21,6.21,0,0,1-1.8-4.31,6.3,6.3,0,0,1,2.5-4.94,6.42,6.42,0,0,0-.11,1.16A5,5,0,0,0,178.55,71.37Z"/><polygon class="cls-11" points="195.31 64.7 195.31 64.7 195.31 64.7 195.31 64.7"/><circle class="cls-13" cx="193.74" cy="69.19" r="1.03"/><circle class="cls-13" cx="193.74" cy="73.41" r="1.03"/><circle class="cls-13" cx="193.74" cy="77.63" r="1.03"/><circle class="cls-13" cx="193.74" cy="81.85" r="1.03"/><circle class="cls-13" cx="198.26" cy="81.47" r="1.03"/><circle class="cls-13" cx="202.41" cy="80.24" r="1.03"/><circle class="cls-13" cx="188.77" cy="81.47" r="1.03"/><circle class="cls-13" cx="184.62" cy="80.1" r="1.03"/><circle class="cls-13" cx="193.74" cy="86.06" r="1.03"/></svg>