<svg id="レイヤー_1" data-name="レイヤー 1" xmlns="http://www.w3.org/2000/svg" viewBox="0 0 200 200"><defs><style>.cls-1{fill:#83cf8f;}.cls-2{fill:#fff;}.cls-3{fill:#ff7069;}</style></defs><title>chat</title><g id="Layer_1"><g id="_498166304" data-name=" 498166304"><path class="cls-1" d="M84.94,14.38H181.7a13.41,13.41,0,0,1,13.38,13.38v62.6a13.4,13.4,0,0,1-13.38,13.37H158.12l16,23.65L116,104.67a12.81,12.81,0,0,0-4.85-.94H85A13.39,13.39,0,0,1,71.63,90.36V27.76A13.39,13.39,0,0,1,85,14.38Z"/><path class="cls-2" d="M98.69,46.86h67.08a1.38,1.38,0,0,0,1.37-1.37v-1a1.38,1.38,0,0,0-1.37-1.37H98.69a1.39,1.39,0,0,0-1.37,1.37v1A1.39,1.39,0,0,0,98.69,46.86Zm0,18.54h67.08A1.38,1.38,0,0,0,167.14,64V63a1.38,1.38,0,0,0-1.37-1.37H98.69A1.39,1.39,0,0,0,97.32,63v1A1.39,1.39,0,0,0,98.69,65.4Zm0-9.27h67.08a1.38,1.38,0,0,0,1.37-1.37v-1a1.38,1.38,0,0,0-1.37-1.37H98.69a1.39,1.39,0,0,0-1.37,1.37v1A1.39,1.39,0,0,0,98.69,56.13Zm0,18.55h67.08a1.39,1.39,0,0,0,1.37-1.37v-1a1.38,1.38,0,0,0-1.37-1.37H98.69a1.39,1.39,0,0,0-1.37,1.37v1A1.39,1.39,0,0,0,98.69,74.68Z"/><path class="cls-3" d="M127.32,61.42H18.3A13.41,13.41,0,0,0,4.92,74.8v71.43A13.4,13.4,0,0,0,18.3,159.61H45.55L28,185.62,92.1,160.54a13,13,0,0,1,4.85-.93h30.3a13.4,13.4,0,0,0,13.38-13.38V74.8a13.4,13.4,0,0,0-13.38-13.38Z"/><path class="cls-2" d="M111,127.69H37a1.38,1.38,0,0,1-1.37-1.37V125A1.38,1.38,0,0,1,37,123.58h74a1.38,1.38,0,0,1,1.37,1.37v1.37A1.38,1.38,0,0,1,111,127.69Zm0-10.21H37a1.38,1.38,0,0,1-1.37-1.36v-1.37A1.38,1.38,0,0,1,37,113.38h74a1.38,1.38,0,0,1,1.37,1.37v1.37A1.38,1.38,0,0,1,111,117.48Zm0-10.2H37a1.38,1.38,0,0,1-1.37-1.37v-1.37A1.39,1.39,0,0,1,37,103.17h74a1.39,1.39,0,0,1,1.37,1.37v1.37A1.38,1.38,0,0,1,111,107.28Zm0-10.2H37a1.39,1.39,0,0,1-1.37-1.37V94.34A1.38,1.38,0,0,1,37,93h74a1.38,1.38,0,0,1,1.37,1.37v1.37A1.39,1.39,0,0,1,111,97.08Z"/></g></g></svg>