<svg id="materials" xmlns="http://www.w3.org/2000/svg" xmlns:xlink="http://www.w3.org/1999/xlink" viewBox="0 0 240 240"><defs><style>.cls-1{fill:none;}.cls-2{fill:#60605d;}.cls-3{fill:#474747;}.cls-4{fill:#62d2dd;}.cls-5{clip-path:url(#clip-path);}.cls-6{fill:#6d6d69;}.cls-7{fill:#f9e4d4;}.cls-8{fill:#ddddd3;}.cls-9{fill:#f8ed00;}.cls-10{fill:#a39916;}</style><clipPath id="clip-path"><rect class="cls-1" x="31.74" y="84.5" width="173.23" height="102.41"/></clipPath></defs><title>chat</title><rect class="cls-2" x="18.11" y="69.98" width="200.49" height="136.67" rx="20.34"/><path class="cls-3" d="M198.26,71.54A18.83,18.83,0,0,1,217,90.32v96a18.83,18.83,0,0,1-18.77,18.78H38.45a18.83,18.83,0,0,1-18.78-18.78v-96A18.83,18.83,0,0,1,38.45,71.54H198.26m0-3.13H38.45A21.94,21.94,0,0,0,16.54,90.32v96a21.94,21.94,0,0,0,21.91,21.91H198.26a21.93,21.93,0,0,0,21.9-21.91v-96A21.93,21.93,0,0,0,198.26,68.41Z"/><rect class="cls-4" x="30.95" y="83.72" width="174.8" height="103.97"/><path class="cls-3" d="M205,84.5V186.91H31.74V84.5H205m1.56-1.57H30.17V188.47H206.53V82.93Z"/><g class="cls-5"><path class="cls-6" d="M112.27,235.25c-2.26,0-4-1.13-4.46-2.81s2-3.29,4.33-4.45L110.3,199.4a.64.64,0,0,1,.17-.47.65.65,0,0,1,.45-.2h6.52a.63.63,0,0,1,.63.63v29.81l0,.2a4.56,4.56,0,0,1,.18.52,3.58,3.58,0,0,1-.91,3.2A6.45,6.45,0,0,1,114,235,7.13,7.13,0,0,1,112.27,235.25Z"/><path class="cls-3" d="M117.44,199.36v29.81l-.1.2a2.7,2.7,0,0,1,.27.66c.45,1.81-1.25,3.79-3.79,4.41a6.5,6.5,0,0,1-1.55.19c-1.91,0-3.51-.9-3.86-2.34s2.58-3.06,4.38-3.93l-1.87-29h6.52m0-1.25h-6.52a1.26,1.26,0,0,0-.91.39,1.29,1.29,0,0,0-.33.94l1.81,28.17c-1.89,1-4.84,2.72-4.29,5,.48,2,2.52,3.29,5.07,3.29a7.73,7.73,0,0,0,1.84-.23c3.26-.8,5.33-3.4,4.71-5.91a3.19,3.19,0,0,0-.13-.44V199.36A1.24,1.24,0,0,0,117.44,198.11Z"/><path class="cls-6" d="M129.12,235.25a7,7,0,0,1-1.69-.21c-2.87-.7-4.78-3-4.26-5.15a4.56,4.56,0,0,1,.18-.52l0-.2V199.36a.63.63,0,0,1,.63-.63h6.52a.63.63,0,0,1,.45.2.64.64,0,0,1,.17.47L129.25,228c2.33,1.16,4.77,2.68,4.34,4.45S131.38,235.25,129.12,235.25Z"/><path class="cls-3" d="M130.47,199.36l-1.86,29c1.79.87,4.73,2.45,4.37,3.93s-1.95,2.34-3.86,2.34a6.36,6.36,0,0,1-1.54-.19c-2.54-.62-4.24-2.6-3.8-4.41a2.38,2.38,0,0,1,.28-.66l-.11-.2V199.36h6.52m0-1.25H124a1.25,1.25,0,0,0-1.25,1.25V229.3a2.25,2.25,0,0,0-.14.44c-.62,2.51,1.45,5.11,4.71,5.91a7.73,7.73,0,0,0,1.84.23c2.55,0,4.59-1.33,5.07-3.29.55-2.26-2.4-4-4.29-5l1.81-28.17a1.29,1.29,0,0,0-.33-.94A1.26,1.26,0,0,0,130.47,198.11Z"/><path class="cls-7" d="M88,204.05a2.25,2.25,0,0,1-.85-.16,3,3,0,0,1-1.42-4,3.2,3.2,0,0,1,2.85-2.18,2.48,2.48,0,0,1,.86.16A2.54,2.54,0,0,1,91,199.5a3.46,3.46,0,0,1-.07,2.37A3.2,3.2,0,0,1,88,204.05Z"/><path class="cls-3" d="M88.61,198.15a1.94,1.94,0,0,1,.71.13,2.6,2.6,0,0,1,1.18,3.44A2.78,2.78,0,0,1,88,203.63a1.93,1.93,0,0,1-.7-.13,2.59,2.59,0,0,1-1.18-3.44,2.79,2.79,0,0,1,2.46-1.91m0-.83h0a3.61,3.61,0,0,0-3.24,2.45,4,4,0,0,0-.08,2.65A3,3,0,0,0,87,204.28a2.85,2.85,0,0,0,1,.18A3.61,3.61,0,0,0,91.28,202a3.44,3.44,0,0,0-1.66-4.52A2.87,2.87,0,0,0,88.61,197.32Z"/><path class="cls-7" d="M152.37,204.05a3.19,3.19,0,0,1-2.85-2.18,3,3,0,0,1,1.42-4,2.46,2.46,0,0,1,.85-.16,3.21,3.21,0,0,1,2.86,2.18,3,3,0,0,1-1.42,4A2.3,2.3,0,0,1,152.37,204.05Z"/><path class="cls-3" d="M151.79,198.15a2.81,2.81,0,0,1,2.47,1.91,2.59,2.59,0,0,1-1.18,3.44,1.94,1.94,0,0,1-.71.13,2.77,2.77,0,0,1-2.46-1.91,2.59,2.59,0,0,1,1.18-3.44,1.89,1.89,0,0,1,.7-.13m0-.83a2.85,2.85,0,0,0-1,.18,3.43,3.43,0,0,0-1.66,4.52,3.61,3.61,0,0,0,3.24,2.44,2.81,2.81,0,0,0,1-.18,2.93,2.93,0,0,0,1.74-1.86,3.9,3.9,0,0,0-.07-2.65A3.62,3.62,0,0,0,151.79,197.32Z"/></g><path class="cls-8" d="M23.64,216.22c-5.55,0-13.12-3.35-16.86-7.46l-.42-.47c-2.86-3.15-2.47-5.48-2-6.59s2-3,6.21-3H98.86c5.28,0,11,1.51,11,4.83.27.39,3,1.7,7.83,1.7h4.72c4.88,0,7.56-1.31,7.85-1.85,0-3.17,5.65-4.68,10.93-4.68h88.27c4.26,0,5.72,1.86,6.21,3s.88,3.44-2,6.59l-.42.47c-3.74,4.11-11.31,7.46-16.86,7.46Z"/><path class="cls-3" d="M229.41,200.29c5.16,0,6.55,3.13,3.07,7l-.42.47c-3.47,3.82-10.54,6.94-15.7,6.94H23.64c-5.16,0-12.23-3.12-15.7-6.94l-.42-.47c-3.48-3.82-2.1-7,3.07-7H98.86c5.17,0,9.39,1.47,9.39,3.27s4.23,3.26,9.39,3.26h4.72c5.16,0,9.39-1.47,9.39-3.26s4.22-3.27,9.39-3.27h88.27m0-3.13H141.14c-5.37,0-11.57,1.45-12.42,5.44a15.64,15.64,0,0,1-6.36,1.09h-4.72a15.64,15.64,0,0,1-6.36-1.09c-.85-4-7-5.44-12.42-5.44H10.59c-5.14,0-7,2.45-7.64,3.91s-1.21,4.47,2.25,8.27l.42.47c4.07,4.47,12,8,18,8H216.36c6,0,13.95-3.5,18-8l.42-.46c3.46-3.81,2.89-6.83,2.25-8.28S234.55,197.16,229.41,197.16Z"/><path class="cls-8" d="M122.61,76.27A2.61,2.61,0,1,1,120,73.66,2.61,2.61,0,0,1,122.61,76.27Z"/><path class="cls-3" d="M122.61,76.27h-.78A1.83,1.83,0,1,1,120,74.44a1.83,1.83,0,0,1,1.83,1.83h1.56A3.39,3.39,0,1,0,120,79.66a3.39,3.39,0,0,0,3.39-3.39Z"/><path class="cls-9" d="M143,107.2a1.4,1.4,0,0,1-1.05-.48,1.39,1.39,0,0,1-.05-1.75c3.92-5.16,8.16-11.47,8.82-13.54-12.22-7.25-19.21-18.08-19.21-29.81,0-21,22.72-38,50.64-38s50.63,17,50.63,38-22.71,38-50.63,38a66.22,66.22,0,0,1-17.48-2.32c-2.09,0-13.56,5.69-21,9.72A1.3,1.3,0,0,1,143,107.2Z"/><path class="cls-3" d="M182.17,25c27.2,0,49.25,16.39,49.25,36.62s-22,36.62-49.25,36.62A64.82,64.82,0,0,1,165.06,96l-.3,0c-3.49,0-21.74,9.88-21.74,9.88s10.8-14.2,9-15.24c-11.61-6.7-19.09-17.18-19.09-28.95C132.92,41.39,155,25,182.17,25m0-2.78c-28.69,0-52,17.67-52,39.4C130.14,73.51,137,84.49,149,92a104.66,104.66,0,0,1-8.17,12.14,2.78,2.78,0,0,0,3.53,4.13c8.06-4.36,17.93-9.15,20.3-9.53A67.05,67.05,0,0,0,182.17,101c28.68,0,52-17.67,52-39.39S210.85,22.22,182.17,22.22Z"/><path class="cls-10" d="M213.34,74.51H152a1.14,1.14,0,0,1-1.13-1.13V72.24A1.14,1.14,0,0,1,152,71.11h61.31a1.14,1.14,0,0,1,1.13,1.13v1.14A1.14,1.14,0,0,1,213.34,74.51Zm0-8.45H152a1.14,1.14,0,0,1-1.13-1.14V63.79A1.14,1.14,0,0,1,152,62.65h61.31a1.14,1.14,0,0,1,1.13,1.14v1.13A1.14,1.14,0,0,1,213.34,66.06Zm0-8.46H152a1.14,1.14,0,0,1-1.13-1.13V55.33A1.14,1.14,0,0,1,152,54.2h61.31a1.14,1.14,0,0,1,1.13,1.13v1.14A1.14,1.14,0,0,1,213.34,57.6Zm0-8.45H152A1.14,1.14,0,0,1,150.9,48V46.88A1.14,1.14,0,0,1,152,45.74h61.31a1.14,1.14,0,0,1,1.13,1.14V48A1.14,1.14,0,0,1,213.34,49.15Z"/></svg>