<svg id="レイヤー_1" data-name="レイヤー 1" xmlns="http://www.w3.org/2000/svg" viewBox="0 0 200 200"><defs><style>.cls-1{fill:#83cf8f;}.cls-2{fill:#fff;}.cls-3{fill:#ff7069;}</style></defs><title>chat</title><g id="Layer_1"><g id="_498166304" data-name=" 498166304"><path class="cls-1" d="M84,15h96.76a13.4,13.4,0,0,1,13.38,13.38V91a13.4,13.4,0,0,1-13.38,13.38H157.18l16,23.65-58.12-22.71a12.77,12.77,0,0,0-4.85-.94H84.07A13.39,13.39,0,0,1,70.69,91V28.38A13.39,13.39,0,0,1,84.07,15Z"/><path class="cls-2" d="M97.76,47.48h67.07a1.38,1.38,0,0,0,1.37-1.37v-1a1.38,1.38,0,0,0-1.37-1.37H97.76a1.38,1.38,0,0,0-1.37,1.37v1A1.38,1.38,0,0,0,97.76,47.48Zm0,18.54h67.07a1.38,1.38,0,0,0,1.37-1.37v-1a1.38,1.38,0,0,0-1.37-1.37H97.76a1.38,1.38,0,0,0-1.37,1.37v1A1.38,1.38,0,0,0,97.76,66Zm0-9.27h67.07a1.38,1.38,0,0,0,1.37-1.37v-1A1.38,1.38,0,0,0,164.83,53H97.76a1.38,1.38,0,0,0-1.37,1.37v1A1.38,1.38,0,0,0,97.76,56.75Zm0,18.54h67.07a1.38,1.38,0,0,0,1.37-1.36v-1a1.38,1.38,0,0,0-1.37-1.37H97.76a1.38,1.38,0,0,0-1.37,1.37v1A1.38,1.38,0,0,0,97.76,75.29Z"/><path class="cls-3" d="M126.38,62h-109A13.4,13.4,0,0,0,4,75.42v71.43a13.39,13.39,0,0,0,13.37,13.38H44.62l-17.55,26,64.09-25.08a13,13,0,0,1,4.85-.93h30.31a13.4,13.4,0,0,0,13.37-13.38V75.42A13.39,13.39,0,0,0,126.32,62Z"/><path class="cls-2" d="M110.08,128.31h-74a1.39,1.39,0,0,1-1.37-1.37v-1.37a1.39,1.39,0,0,1,1.37-1.37h74a1.38,1.38,0,0,1,1.36,1.37v1.37A1.38,1.38,0,0,1,110.08,128.31Zm0-10.21h-74a1.38,1.38,0,0,1-1.37-1.36v-1.37A1.39,1.39,0,0,1,36.09,114h74a1.38,1.38,0,0,1,1.36,1.37v1.37A1.37,1.37,0,0,1,110.08,118.1Zm0-10.2h-74a1.39,1.39,0,0,1-1.37-1.37v-1.37a1.39,1.39,0,0,1,1.37-1.37h74a1.38,1.38,0,0,1,1.36,1.37v1.37A1.38,1.38,0,0,1,110.08,107.9Zm0-10.21h-74a1.38,1.38,0,0,1-1.37-1.36V95a1.39,1.39,0,0,1,1.37-1.37h74A1.38,1.38,0,0,1,111.44,95v1.37A1.37,1.37,0,0,1,110.08,97.69Z"/></g></g></svg>