<svg id="レイヤー_1" data-name="レイヤー 1" xmlns="http://www.w3.org/2000/svg" viewBox="0 0 200 200"><defs><style>.cls-1{fill:#43b763;}.cls-2{fill:#5993ce;}.cls-3{fill:#505251;}</style></defs><title>cogs</title><path class="cls-1" d="M127.06,60.06l-11.58-2.6a48.65,48.65,0,0,0-4-13l7.81-8.68a.54.54,0,0,0,0-.87l-13.6-16.21a.54.54,0,0,0-.87,0l-9.83,6.37a60.87,60.87,0,0,0-12.16-6.37L82.2,7.11a.62.62,0,0,0-.58-.58l-20.83-2c-.29,0-.58.29-.87.58L57.31,16.37a61.38,61.38,0,0,0-13,4.05L35.61,12.6a.54.54,0,0,0-.87,0L18.54,26.21a1,1,0,0,0-.29.86l6.36,9.84a60.57,60.57,0,0,0-6.36,12.16l-11.58.58a.62.62,0,0,0-.58.57L4.36,71.35c0,.29.29.58.57.87l11.58,2.6a47.19,47.19,0,0,0,4,12.74l-8.1,8.68a.54.54,0,0,0,0,.87l13.6,16.2a1.07,1.07,0,0,0,.87.29l10.13-6.37a41.44,41.44,0,0,0,11.86,6.08l.58,11.87a.62.62,0,0,0,.58.58l21.13,1.73c.28,0,.57-.29.86-.58l2.61-11.57a50.47,50.47,0,0,0,12.73-4l9,8.1a.54.54,0,0,0,.87,0l16.21-13.6a1.07,1.07,0,0,0,.29-.87l-6.66-9.84a58.73,58.73,0,0,0,6.37-11.86l11.86-.58a.62.62,0,0,0,.58-.58l1.74-21.13C127.64,60.64,127.64,60.35,127.06,60.06ZM63.39,96A29.92,29.92,0,1,1,95.8,68.75,29.88,29.88,0,0,1,63.39,96Z"/><path class="cls-2" d="M127.35,161.64l-5.79-.87a52,52,0,0,0-2.32-6.07l3.48-4.35v-.57l-7-6.95h-.58l-4.34,3.47a19.39,19.39,0,0,0-6.08-2.6l-.86-5.5a.28.28,0,0,0-.29-.29H93.49c-.29,0-.29,0-.29.29l-.58,5.5a27.89,27.89,0,0,0-6.08,2.6l-4.34-3.47h-.58l-6.94,6.95v.57l3.47,4.35a14,14,0,0,0-2.31,6.07l-5.5.87a.28.28,0,0,0-.29.29v10.13c0,.29,0,.29.29.29l5.5.87A33.5,33.5,0,0,0,78.15,179l-3.47,4.34v.58l6.94,7h.58l4.63-3.47a20.46,20.46,0,0,0,5.79,2.31l.87,5.5a.28.28,0,0,0,.29.29h10.13c.29,0,.29,0,.29-.29l.86-5.5a35,35,0,0,0,5.79-2.31l4.63,3.47h.58l7-7v-.58L119.53,179a14.3,14.3,0,0,0,2.32-5.78l5.5-.87a.28.28,0,0,0,.29-.29V161.93A.28.28,0,0,0,127.35,161.64ZM98.7,181a14.18,14.18,0,1,1,14.18-14.18A14.2,14.2,0,0,1,98.7,181Z"/><path class="cls-3" d="M191.88,102l-7.81.57a42.83,42.83,0,0,0-4.92-7.52l3.47-7c0-.28,0-.57-.29-.57L170.76,80h-.58l-4.92,5.79a44.8,44.8,0,0,0-9-1.74l-2.61-7.23c0-.29-.29-.29-.58-.29l-13.6,2.89c-.29,0-.29.29-.29.58l.58,7.82a43.52,43.52,0,0,0-7.52,5.2l-7-3.18c-.29,0-.58,0-.58.29l-7.52,11.58v.58l5.79,4.91a46.14,46.14,0,0,0-1.74,8.69l-7.23,2.6c-.29,0-.29.29-.29.58l2.89,13.6c0,.29.29.29.58.29l7.81-.58a45.88,45.88,0,0,0,4.92,7.24l-3.47,6.94c0,.29,0,.58.29.58l11.57,7.53h.58l5.21-6.08a46.17,46.17,0,0,0,8.68,1.73l2.61,7.53c0,.29.29.29.58.29l13.6-2.9c.29,0,.29-.29.29-.57l-.58-7.82a31.78,31.78,0,0,0,7.23-4.92l7.24,3.47c.29,0,.58,0,.58-.28l7.52-11.58V133l-5.79-5.21a46,46,0,0,0,1.74-8.68l7.52-2.6c.29,0,.29-.29.29-.58l-2.89-13.6A1.07,1.07,0,0,0,191.88,102ZM158.6,136.75a19.81,19.81,0,1,1,15.34-23.44A19.79,19.79,0,0,1,158.6,136.75Z"/></svg>