<svg id="レイヤー_1" data-name="レイヤー 1" xmlns="http://www.w3.org/2000/svg" viewBox="0 0 200 200"><defs><style>.cls-1{fill:#43b763;}.cls-2{fill:#5993ce;}.cls-3{fill:#505251;}</style></defs><title>cogs</title><path class="cls-1" d="M126.91,59.56,115.34,57a49,49,0,0,0-4-13l7.81-8.68a.54.54,0,0,0,0-.87L105.5,18.18a.54.54,0,0,0-.87,0l-9.84,6.37a60.52,60.52,0,0,0-12.15-6.37L82.06,6.61A.62.62,0,0,0,81.48,6L60.64,4c-.29,0-.58.29-.86.58L57.17,15.87a61.38,61.38,0,0,0-13,4.05L35.47,12.1a.56.56,0,0,0-.87,0L18.39,25.71a1,1,0,0,0-.29.86l6.37,9.84A61.39,61.39,0,0,0,18.1,48.57l-11.57.58a.62.62,0,0,0-.58.58L4.21,70.85c0,.29.29.58.58.87l11.58,2.6a46.39,46.39,0,0,0,4.05,12.74l-8.1,8.68a.54.54,0,0,0,0,.87l13.6,16.2a1.06,1.06,0,0,0,.86.29l10.13-6.36a41.86,41.86,0,0,0,11.87,6.07l.58,11.87a.62.62,0,0,0,.58.58L71.06,127c.29,0,.58-.29.87-.58l2.6-11.57a50.41,50.41,0,0,0,12.74-4l9,8.1a.54.54,0,0,0,.87,0l16.2-13.6a1.07,1.07,0,0,0,.29-.87L107,94.58a58.2,58.2,0,0,0,6.36-11.86l11.87-.58a.62.62,0,0,0,.58-.58l1.73-21.13C127.49,60.14,127.49,59.85,126.91,59.56ZM63.25,95.45a29.92,29.92,0,1,1,32.41-27.2A29.87,29.87,0,0,1,63.25,95.45Z"/><path class="cls-2" d="M127.2,161.14l-5.78-.87a52,52,0,0,0-2.32-6.07l3.47-4.35v-.57l-6.94-6.95h-.58l-4.34,3.47a19.5,19.5,0,0,0-6.08-2.6l-.87-5.5a.28.28,0,0,0-.29-.29H93.34c-.28,0-.28,0-.28.29l-.58,5.5a27.89,27.89,0,0,0-6.08,2.6l-4.34-3.47h-.58l-7,6.95v.57L78,154.2a14,14,0,0,0-2.32,6.07l-5.5.87a.28.28,0,0,0-.29.29v10.13c0,.29,0,.29.29.29l5.5.87A34.34,34.34,0,0,0,78,178.5l-3.48,4.35v.57l7,7h.58l4.63-3.47a20.46,20.46,0,0,0,5.79,2.31l.86,5.5a.28.28,0,0,0,.29.29h10.13c.29,0,.29,0,.29-.29l.87-5.5a34.43,34.43,0,0,0,5.79-2.31l4.63,3.47h.58l6.94-7v-.57l-3.47-4.35a14.3,14.3,0,0,0,2.32-5.78l5.49-.87a.28.28,0,0,0,.29-.29V161.43A.28.28,0,0,0,127.2,161.14ZM98.55,180.53a14.18,14.18,0,1,1,14.18-14.18A14.21,14.21,0,0,1,98.55,180.53Z"/><path class="cls-3" d="M191.74,101.53l-7.82.58A41.45,41.45,0,0,0,179,94.58l3.48-6.94c0-.29,0-.58-.29-.58l-11.58-7.53H170l-4.92,5.79a44.53,44.53,0,0,0-9-1.74l-2.6-7.23c0-.29-.29-.29-.58-.29L139.36,79c-.29,0-.29.29-.29.58l.58,7.82a43.1,43.1,0,0,0-7.53,5.21l-6.94-3.19c-.29,0-.58,0-.58.29l-7.53,11.58v.58l5.79,4.92a45.85,45.85,0,0,0-1.73,8.68l-7.24,2.6c-.29,0-.29.29-.29.58l2.9,13.6c0,.29.29.29.57.29l7.82-.58a45.21,45.21,0,0,0,4.92,7.24l-3.47,6.94c0,.29,0,.58.28.58l11.58,7.53h.58l5.21-6.08a45.23,45.23,0,0,0,8.68,1.73l2.6,7.53c0,.29.29.29.58.29l13.6-2.9c.29,0,.29-.28.29-.57l-.57-7.82a31.68,31.68,0,0,0,7.23-4.92l7.23,3.48c.29,0,.58,0,.58-.29l7.53-11.58v-.58L186,127.28a46,46,0,0,0,1.74-8.68l7.52-2.6c.29,0,.29-.29.29-.58l-2.89-13.6A1.07,1.07,0,0,0,191.74,101.53Zm-33.28,34.72a19.81,19.81,0,1,1,15.34-23.44A19.78,19.78,0,0,1,158.46,136.25Z"/></svg>