<svg id="レイヤー_1" data-name="レイヤー 1" xmlns="http://www.w3.org/2000/svg" viewBox="0 0 200 200"><defs><style>.cls-1{fill:#d3dcdc;}.cls-2{fill:#474f5a;}.cls-3{fill:#00afc0;}</style></defs><title>company</title><rect class="cls-1" x="53.95" y="24.54" width="92.1" height="161.03"/><rect class="cls-2" x="53.95" y="182" width="92.1" height="3.37"/><rect class="cls-3" x="61.28" y="33.85" width="10.1" height="15.45"/><rect class="cls-3" x="78.11" y="33.85" width="10.1" height="15.45"/><rect class="cls-3" x="94.95" y="33.85" width="10.1" height="15.45"/><rect class="cls-3" x="111.98" y="33.85" width="10.1" height="15.45"/><rect class="cls-3" x="128.82" y="33.85" width="10.1" height="15.45"/><rect class="cls-3" x="61.28" y="56.82" width="10.1" height="15.45"/><rect class="cls-3" x="78.11" y="56.82" width="10.1" height="15.45"/><rect class="cls-3" x="94.95" y="56.82" width="10.1" height="15.45"/><rect class="cls-3" x="111.98" y="56.82" width="10.1" height="15.45"/><rect class="cls-3" x="128.82" y="56.82" width="10.1" height="15.45"/><rect class="cls-3" x="61.28" y="80" width="10.1" height="15.45"/><rect class="cls-3" x="78.11" y="80" width="10.1" height="15.45"/><rect class="cls-3" x="94.95" y="80" width="10.1" height="15.45"/><rect class="cls-3" x="111.98" y="80" width="10.1" height="15.45"/><rect class="cls-3" x="128.82" y="80" width="10.1" height="15.45"/><rect class="cls-3" x="61.28" y="102.97" width="10.1" height="15.45"/><rect class="cls-3" x="78.11" y="102.97" width="10.1" height="15.45"/><rect class="cls-3" x="94.95" y="102.97" width="10.1" height="15.45"/><rect class="cls-3" x="111.98" y="102.97" width="10.1" height="15.45"/><rect class="cls-3" x="128.82" y="102.97" width="10.1" height="15.45"/><rect class="cls-3" x="61.28" y="126.14" width="10.1" height="15.45"/><rect class="cls-3" x="78.11" y="126.14" width="10.1" height="15.45"/><rect class="cls-3" x="94.95" y="126.14" width="10.1" height="15.45"/><rect class="cls-3" x="111.98" y="126.14" width="10.1" height="15.45"/><rect class="cls-3" x="128.82" y="126.14" width="10.1" height="15.45"/><rect class="cls-3" x="61.28" y="149.12" width="10.1" height="15.45"/><rect class="cls-3" x="78.11" y="149.12" width="10.1" height="15.45"/><rect class="cls-3" x="94.95" y="149.12" width="10.1" height="15.45"/><rect class="cls-3" x="111.98" y="149.12" width="10.1" height="15.45"/><rect class="cls-3" x="128.82" y="149.12" width="10.1" height="15.45"/><rect class="cls-2" x="65.04" y="14.44" width="70.11" height="10.1"/></svg>