<svg id="materials" xmlns="http://www.w3.org/2000/svg" viewBox="0 0 240 240"><defs><style>.cls-1{fill:#eaeae4;}.cls-2{fill:#474747;}.cls-3{fill:#62d2dd;}.cls-4{fill:#979b9b;}.cls-5{fill:#a5a48b;}.cls-6{fill:#e08644;}</style></defs><title>company</title><rect class="cls-1" x="46.67" y="49.49" width="128.32" height="185.43"/><path class="cls-2" d="M175,234.92v-1.41H48.08V50.9h125.5v184H175v0h1.41V49.49a1.41,1.41,0,0,0-.41-1,1.38,1.38,0,0,0-1-.42H46.67a1.43,1.43,0,0,0-1.41,1.41V234.92a1.38,1.38,0,0,0,.42,1,1.41,1.41,0,0,0,1,.41H175a1.4,1.4,0,0,0,1.41-1.41Z"/><polygon class="cls-1" points="193.33 234.92 174.99 234.92 174.99 49.49 193.33 71.5 193.33 234.92"/><path class="cls-2" d="M193.33,234.92v-1.41H176.4V53.39L191.92,72V234.92h1.41v0h1.41V71.49a1.43,1.43,0,0,0-.33-.9l-18.33-22a1.43,1.43,0,0,0-1.57-.42,1.42,1.42,0,0,0-.93,1.32V234.92a1.38,1.38,0,0,0,.42,1,1.41,1.41,0,0,0,1,.41h18.34a1.41,1.41,0,0,0,1-.41,1.38,1.38,0,0,0,.42-1Z"/><rect class="cls-3" x="56.55" y="60.78" width="22.7" height="15.68"/><path class="cls-2" d="M79.25,76.45v-.7h-22V61.48H78.54v15h.71v0H80V60.78a.7.7,0,0,0-.2-.5.69.69,0,0,0-.5-.21H56.55a.72.72,0,0,0-.71.71V76.45a.72.72,0,0,0,.71.71h22.7a.73.73,0,0,0,.5-.21.7.7,0,0,0,.2-.5Z"/><rect class="cls-3" x="56.55" y="84.29" width="22.7" height="15.68"/><path class="cls-2" d="M79.25,100v-.71h-22V85H78.54v15h.71v0H80V84.29a.68.68,0,0,0-.7-.7H56.55a.7.7,0,0,0-.5.2.73.73,0,0,0-.21.5V100a.73.73,0,0,0,.21.5.7.7,0,0,0,.5.2h22.7a.68.68,0,0,0,.7-.7Z"/><rect class="cls-3" x="56.55" y="107.81" width="22.7" height="15.68"/><path class="cls-2" d="M79.25,123.48v-.7h-22V108.51H78.54v15h.71v0H80V107.81a.7.7,0,0,0-.2-.5.69.69,0,0,0-.5-.21H56.55a.72.72,0,0,0-.71.71v15.67a.72.72,0,0,0,.71.71h22.7a.69.69,0,0,0,.5-.21.7.7,0,0,0,.2-.5Z"/><rect class="cls-3" x="56.55" y="131.32" width="22.7" height="15.68"/><path class="cls-2" d="M79.25,147v-.71h-22V132H78.54v15h.71v0H80V131.32a.68.68,0,0,0-.7-.7H56.55a.7.7,0,0,0-.5.2.73.73,0,0,0-.21.5V147a.72.72,0,0,0,.71.71h22.7a.73.73,0,0,0,.5-.21.7.7,0,0,0,.2-.5Z"/><rect class="cls-3" x="56.55" y="154.84" width="22.7" height="15.68"/><path class="cls-2" d="M79.25,170.51v-.7h-22V155.54H78.54v15h.71v0H80V154.84a.7.7,0,0,0-.2-.5.73.73,0,0,0-.5-.21H56.55a.72.72,0,0,0-.71.71v15.67a.72.72,0,0,0,.71.71h22.7a.69.69,0,0,0,.5-.21.7.7,0,0,0,.2-.5Z"/><rect class="cls-3" x="56.55" y="178.35" width="22.7" height="15.68"/><path class="cls-2" d="M79.25,194v-.7h-22V179.06H78.54v15h.71v0H80V178.35a.7.7,0,0,0-.2-.49.69.69,0,0,0-.5-.21H56.55a.67.67,0,0,0-.5.21.71.71,0,0,0-.21.49V194a.72.72,0,0,0,.71.71h22.7a.73.73,0,0,0,.5-.21.7.7,0,0,0,.2-.5Z"/><rect class="cls-3" x="84.94" y="60.78" width="22.7" height="15.68"/><path class="cls-2" d="M107.64,76.45v-.7h-22V61.48h21.29v15h.71v0h.7V60.78a.7.7,0,0,0-.2-.5.69.69,0,0,0-.5-.21H84.94a.72.72,0,0,0-.71.71V76.45a.72.72,0,0,0,.71.71h22.7a.73.73,0,0,0,.5-.21.7.7,0,0,0,.2-.5Z"/><rect class="cls-3" x="84.94" y="84.29" width="22.7" height="15.68"/><path class="cls-2" d="M107.64,100v-.71h-22V85h21.29v15h.71v0h.7V84.29a.68.68,0,0,0-.7-.7H84.94a.7.7,0,0,0-.5.2.73.73,0,0,0-.21.5V100a.73.73,0,0,0,.21.5.7.7,0,0,0,.5.2h22.7a.68.68,0,0,0,.7-.7Z"/><rect class="cls-3" x="84.94" y="107.81" width="22.7" height="15.68"/><path class="cls-2" d="M107.64,123.48v-.7h-22V108.51h21.29v15h.71v0h.7V107.81a.7.7,0,0,0-.2-.5.69.69,0,0,0-.5-.21H84.94a.72.72,0,0,0-.71.71v15.67a.72.72,0,0,0,.71.71h22.7a.69.69,0,0,0,.5-.21.7.7,0,0,0,.2-.5Z"/><rect class="cls-3" x="84.94" y="131.32" width="22.7" height="15.68"/><path class="cls-2" d="M107.64,147v-.71h-22V132h21.29v15h.71v0h.7V131.32a.68.68,0,0,0-.7-.7H84.94a.7.7,0,0,0-.5.2.73.73,0,0,0-.21.5V147a.72.72,0,0,0,.71.71h22.7a.73.73,0,0,0,.5-.21.7.7,0,0,0,.2-.5Z"/><rect class="cls-3" x="84.94" y="154.84" width="22.7" height="15.68"/><path class="cls-2" d="M107.64,170.51v-.7h-22V155.54h21.29v15h.71v0h.7V154.84a.7.7,0,0,0-.2-.5.73.73,0,0,0-.5-.21H84.94a.72.72,0,0,0-.71.71v15.67a.72.72,0,0,0,.71.71h22.7a.69.69,0,0,0,.5-.21.7.7,0,0,0,.2-.5Z"/><rect class="cls-3" x="84.94" y="178.35" width="22.7" height="15.68"/><path class="cls-2" d="M107.64,194v-.7h-22V179.06h21.29v15h.71v0h.7V178.35a.7.7,0,0,0-.2-.49.69.69,0,0,0-.5-.21H84.94a.67.67,0,0,0-.5.21.71.71,0,0,0-.21.49V194a.72.72,0,0,0,.71.71h22.7a.73.73,0,0,0,.5-.21.7.7,0,0,0,.2-.5Z"/><rect class="cls-3" x="113.33" y="60.78" width="22.7" height="15.68"/><path class="cls-2" d="M136,76.45v-.7H114V61.48h21.29v15H136v0h.7V60.78a.7.7,0,0,0-.2-.5.69.69,0,0,0-.5-.21h-22.7a.72.72,0,0,0-.71.71V76.45a.72.72,0,0,0,.71.71H136a.73.73,0,0,0,.5-.21.7.7,0,0,0,.2-.5Z"/><rect class="cls-3" x="113.33" y="84.29" width="22.7" height="15.68"/><path class="cls-2" d="M136,100v-.71H114V85h21.29v15H136v0h.7V84.29a.68.68,0,0,0-.7-.7h-22.7a.7.7,0,0,0-.5.2.73.73,0,0,0-.21.5V100a.73.73,0,0,0,.21.5.7.7,0,0,0,.5.2H136a.68.68,0,0,0,.7-.7Z"/><rect class="cls-3" x="113.33" y="107.81" width="22.7" height="15.68"/><path class="cls-2" d="M136,123.48v-.7H114V108.51h21.29v15H136v0h.7V107.81a.7.7,0,0,0-.2-.5.69.69,0,0,0-.5-.21h-22.7a.72.72,0,0,0-.71.71v15.67a.72.72,0,0,0,.71.71H136a.69.69,0,0,0,.5-.21.7.7,0,0,0,.2-.5Z"/><rect class="cls-3" x="113.33" y="131.32" width="22.7" height="15.68"/><path class="cls-2" d="M136,147v-.71H114V132h21.29v15H136v0h.7V131.32a.68.68,0,0,0-.7-.7h-22.7a.7.7,0,0,0-.5.2.73.73,0,0,0-.21.5V147a.72.72,0,0,0,.71.71H136a.73.73,0,0,0,.5-.21.7.7,0,0,0,.2-.5Z"/><rect class="cls-3" x="113.33" y="154.84" width="22.7" height="15.68"/><path class="cls-2" d="M136,170.51v-.7H114V155.54h21.29v15H136v0h.7V154.84a.7.7,0,0,0-.2-.5.73.73,0,0,0-.5-.21h-22.7a.72.72,0,0,0-.71.71v15.67a.72.72,0,0,0,.71.71H136a.69.69,0,0,0,.5-.21.7.7,0,0,0,.2-.5Z"/><rect class="cls-3" x="113.33" y="178.35" width="22.7" height="15.68"/><path class="cls-2" d="M136,194v-.7H114V179.06h21.29v15H136v0h.7V178.35a.7.7,0,0,0-.2-.49.69.69,0,0,0-.5-.21h-22.7a.67.67,0,0,0-.5.21.71.71,0,0,0-.21.49V194a.72.72,0,0,0,.71.71H136a.73.73,0,0,0,.5-.21.7.7,0,0,0,.2-.5Z"/><rect class="cls-3" x="141.72" y="60.78" width="22.7" height="15.68"/><path class="cls-2" d="M164.42,76.45v-.7h-22V61.48h21.29v15h.71v0h.7V60.78a.7.7,0,0,0-.2-.5.69.69,0,0,0-.5-.21h-22.7a.72.72,0,0,0-.71.71V76.45a.72.72,0,0,0,.71.71h22.7a.73.73,0,0,0,.5-.21.7.7,0,0,0,.2-.5Z"/><rect class="cls-3" x="141.72" y="84.29" width="22.7" height="15.68"/><path class="cls-2" d="M164.42,100v-.71h-22V85h21.29v15h.71v0h.7V84.29a.68.68,0,0,0-.7-.7h-22.7a.7.7,0,0,0-.5.2.73.73,0,0,0-.21.5V100a.73.73,0,0,0,.21.5.7.7,0,0,0,.5.2h22.7a.68.68,0,0,0,.7-.7Z"/><rect class="cls-3" x="141.72" y="107.81" width="22.7" height="15.68"/><path class="cls-2" d="M164.42,123.48v-.7h-22V108.51h21.29v15h.71v0h.7V107.81a.7.7,0,0,0-.2-.5.69.69,0,0,0-.5-.21h-22.7a.72.72,0,0,0-.71.71v15.67a.72.72,0,0,0,.71.71h22.7a.69.69,0,0,0,.5-.21.7.7,0,0,0,.2-.5Z"/><rect class="cls-3" x="141.72" y="131.32" width="22.7" height="15.68"/><path class="cls-2" d="M164.42,147v-.71h-22V132h21.29v15h.71v0h.7V131.32a.68.68,0,0,0-.7-.7h-22.7a.7.7,0,0,0-.5.2.73.73,0,0,0-.21.5V147a.72.72,0,0,0,.71.71h22.7a.73.73,0,0,0,.5-.21.7.7,0,0,0,.2-.5Z"/><rect class="cls-3" x="141.72" y="154.84" width="22.7" height="15.68"/><path class="cls-2" d="M164.42,170.51v-.7h-22V155.54h21.29v15h.71v0h.7V154.84a.7.7,0,0,0-.2-.5.73.73,0,0,0-.5-.21h-22.7a.72.72,0,0,0-.71.71v15.67a.72.72,0,0,0,.71.71h22.7a.69.69,0,0,0,.5-.21.7.7,0,0,0,.2-.5Z"/><rect class="cls-3" x="141.72" y="178.35" width="22.7" height="15.68"/><path class="cls-2" d="M164.42,194v-.7h-22V179.06h21.29v15h.71v0h.7V178.35a.7.7,0,0,0-.2-.49.69.69,0,0,0-.5-.21h-22.7a.67.67,0,0,0-.5.21.71.71,0,0,0-.21.49V194a.72.72,0,0,0,.71.71h22.7a.73.73,0,0,0,.5-.21.7.7,0,0,0,.2-.5Z"/><rect class="cls-4" x="84.04" y="203.2" width="23.57" height="30.32"/><path class="cls-2" d="M107.61,233.51v-.7H84.75V203.9h22.16v29.61h.7v0h.71V203.2a.71.71,0,0,0-.21-.5.67.67,0,0,0-.5-.21H84a.75.75,0,0,0-.5.21.7.7,0,0,0-.2.5v30.31a.7.7,0,0,0,.2.5.75.75,0,0,0,.5.21h23.57a.67.67,0,0,0,.5-.21.71.71,0,0,0,.21-.5Z"/><rect class="cls-4" x="111.24" y="203.2" width="23.57" height="30.32"/><path class="cls-2" d="M134.81,233.51v-.7H111.94V203.9H134.1v29.61h.71v0h.7V203.2a.72.72,0,0,0-.7-.71H111.24a.72.72,0,0,0-.71.71v30.31a.72.72,0,0,0,.71.71h23.57a.72.72,0,0,0,.7-.71Z"/><rect class="cls-5" x="108.72" y="4.37" width="7.05" height="45.12"/><path class="cls-2" d="M115.77,49.49v-.7h-6.35V5.08h5.64V49.49h.71v0h.7V4.37a.72.72,0,0,0-.2-.5.7.7,0,0,0-.5-.2h-7a.7.7,0,0,0-.5.2.73.73,0,0,0-.21.5V49.49a.72.72,0,0,0,.71.71h7a.71.71,0,0,0,.5-.21.7.7,0,0,0,.2-.5Z"/><polygon class="cls-6" points="167.24 36.1 115.77 36.1 115.77 7.9 167.24 7.9 159.48 22.7 167.24 36.1"/><path class="cls-2" d="M167.24,36.1v-.71H116.47V8.6h49.6l-7.21,13.78a.71.71,0,0,0,0,.68l7.76,13.39.61-.35v0l.61-.35-7.56-13.06,7.57-14.47a.68.68,0,0,0,0-.69.7.7,0,0,0-.6-.34H115.77a.72.72,0,0,0-.71.71V36.1a.73.73,0,0,0,.21.5.7.7,0,0,0,.5.2h51.47a.7.7,0,0,0,.61-1Z"/></svg>