<?xml version="1.0" encoding="UTF-8"?>
<svg id="_レイヤー_1" data-name="レイヤー_1" xmlns="http://www.w3.org/2000/svg" viewBox="0 0 660 660">
  <defs>
    <style>
      .cls-1 {
        fill: none;
      }

      .cls-2 {
        fill: #4742c2;
      }

      .cls-3 {
        fill: #fff;
      }

      .cls-4 {
        fill: #dadaea;
      }

      .cls-5 {
        fill: #ebebf7;
      }
    </style>
  </defs>
  <rect class="cls-5" x="32.91" y="141.38" width="594.19" height="377.24" rx="30.94" ry="30.94"/>
  <g>
    <path class="cls-1" d="M622.91,172.33c0-.18-.05-.36-.14-.5-.33-14.4-12.17-26.07-26.62-26.13H63.85c-14.64.04-26.6,11.99-26.66,26.63v315.35c.04,14.66,12,26.62,26.66,26.66h532.43c14.64-.06,26.59-12.02,26.64-26.66V172.33Z"/>
    <path class="cls-2" d="M629.4,172.67v-.12s-.03-.23-.03-.23c0-18.34-14.92-33.25-33.25-33.25H63.85c-18.34,0-33.25,14.92-33.25,33.25v315.35c0,18.34,14.92,33.25,33.25,33.25h532.3c18.34,0,33.25-14.92,33.25-33.25V172.67ZM624.91,487.68c-.05,15.74-12.89,28.6-28.63,28.66H63.84c-15.75-.05-28.6-12.9-28.65-28.66V172.32c.06-15.74,12.92-28.58,28.65-28.63h532.31c15.31.06,28.06,12.45,28.61,27.7.1.3.15.61.15.93v315.35Z"/>
  </g>
  <circle class="cls-3" cx="518.14" cy="433.65" r="50.75"/>
  <circle class="cls-4" cx="443.08" cy="433.67" r="50.75"/>
  <rect class="cls-3" x="94.49" y="342.53" width="20.12" height="20.12" rx="5.41" ry="5.41"/>
  <path class="cls-3" d="M134.83,362.65h-9.24c-2.98-.03-5.38-2.43-5.41-5.41v-9.27c.03-2.98,2.43-5.4,5.41-5.44h9.24c2.98.04,5.38,2.46,5.41,5.44v9.27c.01,2.97-2.39,5.4-5.36,5.41-.02,0-.03,0-.05,0Z"/>
  <rect class="cls-3" x="146.02" y="342.53" width="20.12" height="20.12" rx="5.41" ry="5.41"/>
  <rect class="cls-3" x="171.86" y="342.53" width="20.12" height="20.12" rx="5.41" ry="5.41"/>
  <rect class="cls-3" x="211.76" y="342.53" width="20.12" height="20.12" rx="5.41" ry="5.41"/>
  <rect class="cls-3" x="237.61" y="342.53" width="20.12" height="20.12" rx="5.41" ry="5.41"/>
  <path class="cls-3" d="M278,362.65h-9.3c-2.97-.04-5.37-2.44-5.41-5.41v-9.27c.03-2.98,2.43-5.4,5.41-5.44h9.3c2.98.04,5.38,2.46,5.41,5.44v9.27c.01,2.97-2.39,5.4-5.36,5.41-.02,0-.03,0-.05,0Z"/>
  <rect class="cls-3" x="289.14" y="342.53" width="20.12" height="20.12" rx="5.41" ry="5.41"/>
  <rect class="cls-3" x="329.22" y="342.53" width="20.12" height="20.12" rx="5.41" ry="5.41"/>
  <rect class="cls-3" x="354.91" y="342.53" width="20.12" height="20.12" rx="5.41" ry="5.41"/>
  <rect class="cls-3" x="380.75" y="342.53" width="20.12" height="20.12" rx="5.41" ry="5.41"/>
  <rect class="cls-3" x="406.6" y="342.53" width="20.12" height="20.12" rx="5.41" ry="5.41"/>
  <rect class="cls-3" x="446.5" y="342.53" width="20.12" height="20.12" rx="5.41" ry="5.41"/>
  <rect class="cls-3" x="472.34" y="342.53" width="20.12" height="20.12" rx="5.41" ry="5.41"/>
  <path class="cls-3" d="M512.74,362.65h-9.3c-2.97-.04-5.37-2.44-5.41-5.41v-9.27c.03-2.98,2.43-5.4,5.41-5.44h9.3c2.98.04,5.38,2.46,5.41,5.44v9.27c.01,2.97-2.39,5.4-5.36,5.41-.02,0-.03,0-.05,0Z"/>
  <rect class="cls-3" x="523.88" y="342.53" width="20.12" height="20.12" rx="5.41" ry="5.41"/>
  <path class="cls-3" d="M159.79,419.13h-91.93c-3.5,0-6.35-2.83-6.35-6.33,0-3.5,2.83-6.35,6.33-6.35h91.95c3.5,0,6.35,2.83,6.35,6.33,0,3.5-2.83,6.35-6.33,6.35h-.02Z"/>
  <path class="cls-3" d="M236.99,419.13h-50.37c-3.5,0-6.34-2.85-6.33-6.35,0-3.5,2.84-6.33,6.33-6.33h50.37c3.5,0,6.35,2.83,6.35,6.33,0,3.5-2.83,6.35-6.33,6.35h-.02Z"/>
  <path class="cls-3" d="M88.76,450.08h-20.9c-3.5,0-6.35-2.83-6.35-6.33,0-3.5,2.83-6.35,6.33-6.35h20.92c3.49.03,6.32,2.85,6.34,6.34.09,3.42-2.61,6.26-6.03,6.34-.1,0-.21,0-.31,0Z"/>
  <path class="cls-3" d="M124.96,450.08h-20.9c-3.5,0-6.35-2.83-6.35-6.33,0-3.5,2.83-6.35,6.33-6.35h20.92c3.5.01,6.33,2.85,6.34,6.34.04,3.46-2.73,6.3-6.19,6.34-.05,0-.1,0-.16,0Z"/>
  <path class="cls-3" d="M172.64,450.08h-20.9c-3.5,0-6.34-2.85-6.33-6.35,0-3.5,2.84-6.33,6.33-6.33h20.9c3.49.03,6.32,2.85,6.34,6.34.04,3.46-2.73,6.3-6.19,6.34-.05,0-.1,0-.16,0Z"/>
  <path class="cls-3" d="M208.84,450.08h-20.9c-3.5,0-6.34-2.85-6.33-6.35,0-3.5,2.84-6.33,6.33-6.33h20.9c3.5,0,6.34,2.85,6.33,6.35,0,3.5-2.84,6.33-6.33,6.33Z"/>
  <path class="cls-2" d="M145.19,303.1h-72.84c-5.98-.03-10.81-4.87-10.82-10.85v-45.32c0-5.98,4.84-10.84,10.82-10.85h73.05c5.98.03,10.81,4.87,10.82,10.85v45.47c-.15,5.97-5.06,10.72-11.03,10.69Z"/>
  <g>
    <polyline class="cls-4" points="105.75 242.73 105.75 297.68 110.75 297.68 110.75 242.73"/>
    <polyline class="cls-4" points="71.43 248.96 96.96 248.96 96.96 243.96 71.43 243.96"/>
    <polyline class="cls-4" points="91.22 257.13 91.22 282.66 96.22 282.66 96.22 257.13"/>
    <polyline class="cls-4" points="75.11 271.37 75.11 296.91 80.11 296.91 80.11 271.37"/>
    <polyline class="cls-4" points="71.43 264.11 83.8 264.11 83.8 259.11 71.43 259.11"/>
    <polyline class="cls-4" points="87.53 295.06 99.91 295.06 99.91 290.06 87.53 290.06"/>
    <polyline class="cls-4" points="146.31 243.96 120.78 243.96 120.78 248.96 146.31 248.96"/>
    <polyline class="cls-4" points="121.54 257.75 121.54 297.68 126.54 297.68 126.54 257.75"/>
    <polyline class="cls-4" points="137.62 271.37 137.62 296.91 142.62 296.91 142.62 271.37"/>
    <polyline class="cls-4" points="146.31 259.11 133.94 259.11 133.94 264.11 146.31 264.11"/>
  </g>
  <path class="cls-2" d="M262.98,259.25c-.14-3.02.18-6.05.93-8.99,1.55-5.14,6.45-8.53,11.81-8.16,5.05-.31,9.72,2.67,11.58,7.38.13.28,0,.49-.26.57l-5.18,2.41c-.28,0-.54,0-.67-.26-.75-2.23-2.83-3.73-5.18-3.75-2.33-.15-4.43,1.4-4.97,3.68-.54,2.33-.8,4.72-.78,7.12-.1,2.39.08,4.78.54,7.12.55,2.26,2.65,3.8,4.97,3.65,2.35-.02,4.43-1.53,5.18-3.75.05-.22.27-.37.49-.32.07.01.13.04.18.09l5.18,2.38c.36,0,.39.28.26.57-1.85,4.71-6.53,7.69-11.58,7.38-5.36.38-10.27-3.01-11.81-8.16-.68-2.94-.91-5.95-.7-8.96Z"/>
  <path class="cls-2" d="M310.29,275.93c-.33.03-.63-.18-.73-.49l-5.72-12.14h-4.43c-.21,0-.28,0-.28.31v11.83c0,.36-.16.49-.49.49h-6.21c-.34,0-.49,0-.49-.49v-32.19c-.03-.24.14-.46.38-.49.04,0,.07,0,.11,0h13.31c2.99-.12,5.91.91,8.16,2.87,2.09,1.89,3.22,4.62,3.11,7.43.11,4.05-2.32,7.73-6.09,9.22l6.55,12.95c.1.19.03.42-.16.52-.05.03-.11.04-.17.04l-6.84.13ZM305.27,257.21c2.28.18,4.28-1.52,4.46-3.8.18-2.28-1.52-4.28-3.8-4.46-.22-.02-.44-.02-.65,0h-5.85c-.21,0-.28,0-.28.31v7.77c0,.21,0,.31.28.31l5.85-.13Z"/>
  <path class="cls-2" d="M322.41,243.25c-.03-.24.14-.46.38-.49.04,0,.07,0,.11,0h21.26c.36,0,.49.16.49.49v5.18c0,.36,0,.49-.49.49h-14.29c-.18,0-.28,0-.28.31v6.58c-.02.14.09.27.23.28.02,0,.04,0,.05,0h11.91c.24-.03.46.14.49.38,0,.04,0,.07,0,.11v5.18c.03.24-.14.46-.38.49-.04,0-.07,0-.11,0h-11.91c-.14-.02-.27.09-.28.23,0,.02,0,.04,0,.05v6.89c-.02.14.09.27.23.28.02,0,.04,0,.05,0h14.29c.36,0,.49.16.49.49v5.18c0,.36,0,.49-.49.49h-21.26c-.34,0-.49,0-.49-.49v-32.14Z"/>
  <path class="cls-2" d="M349.99,243.25c-.03-.24.14-.46.38-.49.04,0,.07,0,.11,0h12.35c6.03,0,9.84,2.59,11.47,7.46.7,2.99,1,6.07.88,9.14.12,3.06-.18,6.13-.88,9.12-1.63,4.97-5.44,7.46-11.47,7.46h-12.35c-.34,0-.49,0-.49-.49v-32.19ZM357.16,269.15c0,.21,0,.28.31.28h3.75c3.37,0,5.41-1.22,6.14-3.65.46-2.14.63-4.34.52-6.53.1-2.2-.08-4.4-.54-6.55-.73-2.43-2.77-3.65-6.14-3.65h-3.68c-.21,0-.31,0-.31.28l-.05,19.81Z"/>
  <path class="cls-2" d="M380.83,243.25c-.03-.24.14-.46.38-.49.04,0,.07,0,.11,0h6.19c.24-.03.46.14.49.38,0,.04,0,.07,0,.11v32.19c0,.36-.16.49-.49.49h-6.19c-.34,0-.49,0-.49-.49v-32.19Z"/>
  <path class="cls-2" d="M401.55,275.93c-.34,0-.49,0-.49-.49v-25.89c.02-.14-.09-.27-.23-.28-.02,0-.04,0-.05,0h-8.39c-.24.03-.46-.14-.49-.38,0-.04,0-.07,0-.11v-5.52c-.03-.24.14-.46.38-.49.04,0,.07,0,.11,0h24.7c.36,0,.49.16.49.49v5.41c0,.34,0,.49-.49.49h-8.39c-.14-.02-.27.09-.28.23,0,.02,0,.04,0,.05v25.89c0,.36-.16.49-.49.49l-6.37.1Z"/>
  <path class="cls-2" d="M432.1,259.25c-.14-3.02.18-6.05.93-8.99,1.55-5.14,6.45-8.53,11.81-8.16,5.05-.31,9.72,2.67,11.58,7.38.13.28,0,.49-.26.57l-5.31,2.41c-.28,0-.54,0-.67-.26-.75-2.23-2.83-3.73-5.18-3.75-2.33-.15-4.43,1.4-4.97,3.68-.47,2.34-.65,4.73-.54,7.12-.1,2.39.08,4.78.54,7.12.55,2.26,2.65,3.8,4.97,3.65,2.35-.02,4.43-1.53,5.18-3.75.05-.22.27-.37.49-.32.07.01.13.04.18.09l5.31,2.38c.36,0,.39.28.26.57-1.85,4.71-6.53,7.69-11.58,7.38-5.36.38-10.27-3.01-11.81-8.16-.75-2.92-1.07-5.94-.93-8.96Z"/>
  <path class="cls-2" d="M470.14,243.25c.05-.3.32-.51.62-.49h6.16c.31-.03.58.19.62.49l11.24,32.19c0,.36,0,.49-.34.49h-6.37c-.31.03-.58-.19-.62-.49l-1.89-5.83h-11.63l-1.86,5.8c-.03.3-.29.52-.59.5-.01,0-.02,0-.03,0h-6.4c-.34,0-.44,0-.34-.49l11.42-32.16ZM469.94,263.55h7.77l-3.75-11.63h-.16l-3.86,11.63Z"/>
  <path class="cls-2" d="M510.85,275.93c-.33.03-.63-.18-.73-.49l-5.72-12.14h-4.45c-.21,0-.28,0-.28.31v11.83c0,.36-.16.49-.49.49h-6.21c-.34,0-.49,0-.49-.49v-32.19c-.03-.24.14-.46.38-.49.04,0,.07,0,.11,0h13.23c2.99-.12,5.91.91,8.16,2.87,2.09,1.89,3.22,4.62,3.11,7.43.14,4-2.21,7.67-5.9,9.22l6.55,12.95c.1.19.03.42-.16.52-.05.03-.11.04-.17.04l-6.91.13ZM505.83,257.21c2.28.18,4.28-1.52,4.46-3.8.18-2.28-1.52-4.28-3.8-4.46-.22-.02-.44-.02-.65,0h-5.88c-.21,0-.28,0-.28.31v7.77c0,.21,0,.31.28.31l5.88-.13Z"/>
  <path class="cls-2" d="M522.97,243.25c-.03-.24.14-.46.38-.49.04,0,.07,0,.11,0h12.35c6.04,0,9.86,2.49,11.45,7.46.72,2.99,1.01,6.07.88,9.14.13,3.06-.16,6.13-.88,9.12-1.61,4.97-5.42,7.46-11.45,7.46h-12.35c-.34,0-.49,0-.49-.49v-32.19ZM530.14,269.15c-.02.14.09.27.23.28.02,0,.04,0,.05,0h3.75c3.37,0,5.44-1.22,6.16-3.65.47-2.14.65-4.34.54-6.53.1-2.2-.08-4.4-.54-6.55-.73-2.43-2.8-3.65-6.16-3.65h-3.75c-.14-.02-.27.09-.28.23,0,.02,0,.04,0,.05v19.81Z"/>
</svg>