<svg id="materials" xmlns="http://www.w3.org/2000/svg" viewBox="0 0 240 240"><defs><style>.cls-1{fill:#474747;}.cls-2{fill:#0170ba;}.cls-3{fill:#29a9df;}.cls-4{fill:#cfcfcf;}.cls-5{fill:#fff;}</style></defs><title>css</title><path class="cls-1" d="M72.05,5.85c9.83-.12,19.65,0,29.47,0,0,3.07.07,6.14,0,9.22-6.81,0-13.61,0-20.41,0,0,4.46-.14,8.92-.09,13.39,6.83,0,13.66.11,20.49.08.08,2.52,0,5.06,0,7.59-9.8-.07-19.59,0-29.39,0Q72.11,21,72.05,5.85Z"/><path class="cls-1" d="M105,5.82c10,0,19.89-.08,29.84,0,0,2.91,0,5.81,0,8.71q-10.84,0-21.71.09c0,1.15,0,2.29,0,3.43,7.23.12,14.45.13,21.67.17,0,6,0,11.91.05,17.85q-14.93,0-29.84,0-.09-3.6,0-7.21c6.89,0,13.79,0,20.69,0q.06-2.32.06-4.65c-6.93,0-13.86,0-20.79,0Q105,15,105,5.82Z"/><path class="cls-1" d="M138.19,5.87H168c.05,2.92.09,5.84,0,8.75-7.27,0-14.54,0-21.81.05,0,1.19.05,2.39.11,3.58,7.22,0,14.45.06,21.67.13.07,5.93.11,11.85,0,17.78q-14.92,0-29.85,0c-.06-2.4-.07-4.8,0-7.2q10.32.09,20.65,0c0-1.55,0-3.1,0-4.65-6.91.06-13.83,0-20.74,0C138.1,18.17,138.15,12,138.19,5.87Z"/><path class="cls-2" d="M119.68,232.07a2.1,2.1,0,0,1-.61-.09c-5-1.47-9.94-2.86-14.92-4.24s-10-2.79-15-4.27c-5.71-1.54-11.44-3.18-17.18-4.82s-11.89-3.4-17.86-5a2.17,2.17,0,0,1-1.58-1.87c-1.58-16.43-3-33.2-4.27-47.63Q46.67,146.11,45,128c-1.54-17-3.14-34.56-4.59-51.85-.32-3.27-.61-6.57-.89-9.87-.47-5.43-1-11-1.6-16.55V48.65a2.14,2.14,0,0,1,2.14-2.15H199.93a2.16,2.16,0,0,1,2.14,2.34l-1.88,21.22c-2.26,25.63-4.59,52.14-7,78.2-2,23.64-3.88,44.42-5.66,63.51a2.15,2.15,0,0,1-1.59,1.88c-5.77,1.53-11.61,3.2-17.27,4.81-5.47,1.56-11.12,3.17-16.72,4.66-5.42,1.59-10.92,3.12-16.42,4.65-5,1.38-10,2.77-14.94,4.21a2.08,2.08,0,0,1-.6.09Z"/><path class="cls-1" d="M132.26,48.64h67.67c-2.93,33.14-5.82,66.28-8.88,99.41q-2.72,31.77-5.65,63.51c-11.38,3-22.64,6.45-34,9.48-10.44,3.06-21,5.83-31.41,8.87h-.31c-9.94-2.95-20-5.55-29.92-8.51-11.73-3.16-23.36-6.69-35.09-9.84-1.53-15.86-2.91-31.73-4.27-47.6-2.57-29.32-5.37-58.63-7.83-88-.86-8.82-1.47-17.68-2.5-26.48v-.88h92.19m0-4.29H40.09a4.3,4.3,0,0,0-4.31,4.29v.88l0,.49c.63,5.47,1.12,11.09,1.59,16.51.29,3.3.57,6.6.89,9.9,1.45,17.25,3.05,34.82,4.59,51.82q1.63,18,3.24,36.1c1.3,15.17,2.7,31.35,4.27,47.64a4.31,4.31,0,0,0,3.16,3.73c6,1.59,12,3.32,17.83,5,5.63,1.61,11.44,3.28,17.21,4.83,5,1.48,10.06,2.9,15,4.26s10,2.77,14.9,4.24a4.19,4.19,0,0,0,1.22.18H120a4.4,4.4,0,0,0,1.2-.17c5-1.45,10.07-2.87,15-4.24,5.37-1.49,10.91-3,16.36-4.63,5.61-1.49,11.27-3.11,16.74-4.67,5.63-1.6,11.46-3.27,17.2-4.79a4.3,4.3,0,0,0,3.18-3.75c1.79-19.18,3.64-40,5.66-63.54,2.4-26,4.74-52.49,7-78.1L204.2,49a4.29,4.29,0,0,0-4.27-4.67Z"/><path class="cls-3" d="M120.25,61.72c21.73-.07,43.46,0,65.2,0-2,21.52-3.76,43.06-5.76,64.58q-2.56,28.22-5,56.43c-.62,6.19-1,12.41-1.77,18.58-15.69,4.31-31.38,8.66-47.09,12.92a42.07,42.07,0,0,1-5.64,1.35c-.1-6.79.32-13.61-.23-20.39l.57-.11c14.6-3.67,29.11-7.71,43.69-11.51,1.84-20.67,3.89-41.33,5.18-62-12.39.06-24.79,0-37.19.08-1.8,0-3.61,0-5.41-.13,6.67-3.44,13.69-6.16,20.54-9.22,6.57-3,13.22-5.77,19.82-8.7a18.18,18.18,0,0,0,3.74-1.94,30.41,30.41,0,0,0,.59-5c.38-5.24,1.05-10.45,1.31-15.7-17.56-.14-35.11,0-52.67-.11C120.33,74.46,120.14,68.09,120.25,61.72Z"/><path class="cls-3" d="M120.34,141.15c8.47-.14,17,.09,25.44,0-.48,8.67-1.2,17.32-1.65,26-5.19,1.7-10.47,3.14-15.71,4.71a60.44,60.44,0,0,0-8.31,2.77C120.45,163.49,120,152.31,120.34,141.15Z"/><path class="cls-4" d="M65.29,80.83c18.28,0,36.57-.07,54.85,0,.24,20.12-.06,40.23.2,60.33-7.27.16-14.53,0-21.8,0-9.06,0-18.12.16-27.19.2-.48-6.78-1.58-13.53-1.7-20.31a19.6,19.6,0,0,1,3.8-1.84c14.94-6.53,30-12.82,44.88-19.49-17-.51-34,.14-51-.49C66.44,93.14,65.61,87,65.29,80.83Z"/><path class="cls-4" d="M72.7,153.25c5.5-.08,11,0,16.49-.07a12,12,0,0,1,3.38.33c.48,5.36.86,10.73,1.39,16.09,3.79,1.1,7.72,1.53,11.56,2.37,4.87.86,9.7,1.95,14.59,2.68.46,6.79-.35,13.63.43,20.4l-.57.11a10.36,10.36,0,0,1-3-.49c-8.29-2.22-16.68-4.09-25-6.35-5.4-1.47-10.83-2.86-16.24-4.27A305.82,305.82,0,0,1,72.7,153.25Z"/><path class="cls-5" d="M120.14,80.82c17.56.1,35.11,0,52.67.11-.26,5.25-.93,10.46-1.31,15.7a30.41,30.41,0,0,1-.59,5,17.93,17.93,0,0,1-3.74,1.94c-6.6,2.93-13.25,5.72-19.82,8.7-6.85,3.06-13.87,5.78-20.54,9.22,1.8.13,3.61.14,5.41.13,12.4,0,24.8,0,37.19-.08-1.29,20.72-3.34,41.38-5.18,62.05-14.58,3.8-29.09,7.84-43.69,11.51-.79-6.77,0-13.61-.43-20.4a60.44,60.44,0,0,1,8.31-2.77c5.24-1.58,10.52-3,15.71-4.71.45-8.67,1.17-17.32,1.65-26-8.48.06-17-.17-25.44,0C120.08,121.05,120.38,100.94,120.14,80.82Z"/></svg>