<svg id="レイヤー_1" data-name="レイヤー 1" xmlns="http://www.w3.org/2000/svg" viewBox="0 0 200 200"><defs><style>.cls-1{fill:#0170ba;}.cls-2{fill:#29a9df;}.cls-3{fill:#cfcfcf;}.cls-4{fill:#fff;}</style></defs><title>css</title><g id="_000000ff" data-name="#000000ff"><path d="M61.53,10.13c7.88-.1,15.76,0,23.64,0,0,2.47.06,4.93,0,7.4-5.46,0-10.92,0-16.38,0,0,3.58-.11,7.16-.07,10.75,5.48,0,11,.08,16.44.06.07,2,0,4.06,0,6.09-7.86-.05-15.72,0-23.58,0C61.55,26.31,61.57,18.22,61.53,10.13Z"/><path d="M88,10.1c8,0,16-.06,24,0,0,2.33,0,4.65,0,7q-8.72,0-17.42.08v2.75c5.79.09,11.59.1,17.39.14,0,4.77,0,9.55,0,14.32q-12,0-24,0c0-1.93,0-3.85,0-5.78,5.53,0,11.07,0,16.6,0,0-1.25,0-2.49,0-3.73-5.55,0-11.12,0-16.68,0C88,20,88,15,88,10.1Z"/><path d="M114.6,10.14h23.9c0,2.34.06,4.68,0,7-5.83,0-11.67,0-17.5,0,0,1,0,1.92.09,2.88,5.8,0,11.6,0,17.39.1.05,4.76.09,9.51,0,14.27q-12,0-24,0c-.05-1.92-.06-3.85,0-5.77q8.28.06,16.57,0c0-1.25,0-2.49,0-3.73-5.54,0-11.09,0-16.64,0C114.52,20,114.56,15.07,114.6,10.14Z"/></g><g id="_0170baff" data-name="#0170baff"><path class="cls-1" d="M35.86,44.47H164.14c-2.36,26.59-4.67,53.18-7.12,79.77q-2.19,25.49-4.55,51c-9.12,2.42-18.15,5.18-27.27,7.6-8.38,2.46-16.83,4.69-25.21,7.13h-.25c-8-2.37-16-4.46-24-6.83-9.42-2.54-18.75-5.37-28.17-7.9-1.22-12.72-2.33-25.46-3.42-38.19-2.06-23.53-4.3-47-6.29-70.58-.68-7.09-1.17-14.19-2-21.26v-.7M100.2,55c-.09,5.11.07,10.22-.09,15.32-14.67,0-29.34,0-44,0,.25,5,.92,9.88,1.6,14.8,13.65.5,27.31,0,41,.39-11.94,5.35-24,10.4-36,15.64a17,17,0,0,0-3,1.47c.1,5.45,1,10.87,1.36,16.3,7.28,0,14.55-.14,21.82-.15,5.83,0,11.66.08,17.49,0-.28,9,.09,17.93-.19,26.88-3.92-.58-7.79-1.45-11.7-2.15-3.08-.67-6.24-1-9.27-1.9-.44-4.3-.74-8.61-1.12-12.91a9.56,9.56,0,0,0-2.72-.26c-4.4,0-8.81,0-13.22.05a243.91,243.91,0,0,0,2.44,24.72c4.34,1.13,8.7,2.24,13,3.42,6.64,1.81,13.37,3.32,20,5.1A8.26,8.26,0,0,0,100,162c.45,5.44.11,10.91.19,16.37a33.42,33.42,0,0,0,4.52-1.09c12.61-3.42,25.2-6.91,37.79-10.37.63-4.95.92-9.94,1.42-14.9q2-22.65,4-45.29c1.61-17.26,3-34.55,4.63-51.81C135.08,55,117.64,54.9,100.2,55Z"/></g><g id="_29a9dfff" data-name="#29a9dfff"><path class="cls-2" d="M100.2,55c17.44-.06,34.88,0,52.32,0-1.62,17.26-3,34.55-4.62,51.81q-2.07,22.63-4,45.29c-.5,5-.79,10-1.41,14.9-12.6,3.46-25.19,6.95-37.79,10.37a33.93,33.93,0,0,1-4.53,1.09c-.08-5.46.26-10.93-.18-16.37l.45-.09c11.72-2.94,23.36-6.18,35.06-9.23,1.48-16.59,3.12-33.17,4.16-49.79-10,0-19.9,0-29.84.06-1.45,0-2.9,0-4.34-.11,5.35-2.75,11-4.93,16.47-7.39,5.28-2.39,10.61-4.63,15.91-7a14.48,14.48,0,0,0,3-1.56,24.05,24.05,0,0,0,.48-4c.3-4.21.84-8.39,1-12.6-14.08-.11-28.17,0-42.26-.09C100.27,65.18,100.11,60.07,100.2,55Z"/><path class="cls-2" d="M100.27,118.7c6.8-.12,13.61.06,20.41,0-.38,7-1,13.9-1.31,20.85-4.17,1.36-8.41,2.52-12.61,3.78a49.34,49.34,0,0,0-6.68,2.22C100.36,136.62,100,127.65,100.27,118.7Z"/></g><g id="_cfcfcfff" data-name="#cfcfcfff"><path class="cls-3" d="M56.1,70.29c14.67,0,29.34-.06,44,0,.19,16.14,0,32.28.16,48.42-5.83.12-11.66,0-17.49,0-7.27,0-14.54.12-21.82.15-.38-5.43-1.26-10.85-1.36-16.3a17,17,0,0,1,3-1.47c12-5.24,24.08-10.29,36-15.64-13.64-.41-27.31.11-41-.39C57,80.17,56.35,75.25,56.1,70.29Z"/><path class="cls-3" d="M62.05,128.4c4.41-.07,8.82,0,13.23-.05a9.52,9.52,0,0,1,2.71.26c.39,4.3.69,8.61,1.12,12.91,3,.88,6.19,1.23,9.27,1.9,3.91.7,7.78,1.57,11.71,2.15.37,5.45-.29,10.94.34,16.37L100,162a8.33,8.33,0,0,1-2.42-.39c-6.65-1.78-13.38-3.29-20-5.1-4.34-1.18-8.7-2.29-13-3.42A243.91,243.91,0,0,1,62.05,128.4Z"/></g><g id="_ffffffff" data-name="#ffffffff"><path class="cls-4" d="M100.11,70.28c14.09.08,28.18,0,42.26.09-.2,4.21-.74,8.39-1,12.6a24.05,24.05,0,0,1-.48,4,14.48,14.48,0,0,1-3,1.56c-5.3,2.35-10.63,4.59-15.91,7-5.49,2.46-11.12,4.64-16.47,7.39,1.44.11,2.89.12,4.34.11,9.94,0,19.89,0,29.84-.06-1,16.62-2.68,33.2-4.16,49.79-11.7,3-23.34,6.29-35.06,9.23-.63-5.43,0-10.92-.35-16.37a49.34,49.34,0,0,1,6.68-2.22c4.2-1.26,8.44-2.42,12.6-3.78.36-6.95.94-13.9,1.32-20.85-6.8,0-13.61-.14-20.41,0C100.06,102.56,100.3,86.42,100.11,70.28Z"/></g></svg>