<?xml version="1.0" encoding="utf-8"?>
<!-- Generator: Adobe Illustrator 16.0.4, SVG Export Plug-In . SVG Version: 6.00 Build 0)  -->
<!DOCTYPE svg PUBLIC "-//W3C//DTD SVG 1.1//EN" "http://www.w3.org/Graphics/SVG/1.1/DTD/svg11.dtd">
<svg version="1.1" id="レイヤー_1" xmlns="http://www.w3.org/2000/svg" xmlns:xlink="http://www.w3.org/1999/xlink" x="0px"
	 y="0px" width="308.594px" height="356.25px" viewBox="0 0 308.594 356.25" enable-background="new 0 0 308.594 356.25"
	 xml:space="preserve">
<g>
	<g id="_x23_000000ff">
		<path d="M81.452,6.921c15.189-0.188,30.378-0.058,45.568-0.065c0.036,4.752,0.108,9.504-0.065,14.256
			c-10.524-0.072-21.041,0-31.558,0.065c-0.072,6.9-0.21,13.8-0.144,20.701c10.559,0.065,21.127,0.167,31.688,0.123
			c0.123,3.906,0.08,7.826-0.036,11.739c-15.146-0.102-30.292-0.058-45.438-0.043C81.502,38.102,81.531,22.516,81.452,6.921z"/>
		<path d="M132.437,6.871c15.378-0.029,30.755-0.124,46.14,0.05c-0.059,4.492-0.015,8.977-0.015,13.468
			c-11.19-0.036-22.387,0.015-33.576,0.145c0.015,1.765,0.015,3.53,0,5.295c11.175,0.181,22.343,0.203,33.511,0.268
			c0.043,9.208,0.021,18.408,0.08,27.608c-15.385-0.029-30.77-0.015-46.154,0.058c-0.08-3.718-0.087-7.429,0.021-11.146
			c10.662,0.029,21.331,0.043,31.992-0.043c0.065-2.394,0.094-4.795,0.087-7.189c-10.712,0-21.432,0.036-32.144-0.036
			C132.38,25.857,132.38,16.36,132.437,6.871z"/>
		<path d="M183.727,6.95c15.349,0,30.704,0,46.051,0c0.066,4.514,0.132,9.026-0.014,13.533c-11.239-0.007-22.479,0.058-33.719,0.08
			c0.027,1.844,0.071,3.689,0.165,5.533c11.176-0.051,22.351,0.086,33.519,0.202c0.102,9.164,0.173,18.328,0.042,27.493
			c-15.384-0.043-30.767-0.043-46.153,0.029c-0.094-3.703-0.121-7.42,0.037-11.124c10.639,0.08,21.286,0.065,31.934-0.037
			c0.028-2.401,0.079-4.802,0.058-7.197c-10.684,0.102-21.374,0.044-32.064,0.008C183.581,25.965,183.654,16.454,183.727,6.95z"/>
	</g>
	<g id="_x23_0170baff">
		<path fill="#0170BA" d="M32,73.103c82.398-0.007,164.789-0.014,247.187,0c-4.534,51.246-8.996,102.492-13.721,153.724
			c-2.806,32.743-5.699,65.486-8.752,98.209c-17.583,4.658-34.993,9.967-52.568,14.646c-16.145,4.739-32.419,9.027-48.57,13.729
			h-0.478c-15.37-4.571-30.892-8.594-46.262-13.164c-18.14-4.89-36.122-10.343-54.269-15.211
			c-2.365-24.527-4.499-49.069-6.604-73.609c-3.971-45.344-8.289-90.659-12.108-136.01c-1.324-13.648-2.271-27.34-3.855-40.96
			V73.103 M155.981,93.319c-0.174,9.844,0.129,19.695-0.174,29.532C127.54,122.75,99.266,122.83,71,122.858
			c0.484,9.555,1.765,19.045,3.081,28.52c26.299,0.976,52.634-0.036,78.934,0.752c-23.008,10.321-46.298,20.042-69.408,30.147
			c-1.982,0.882-4.101,1.548-5.874,2.835c0.196,10.495,1.888,20.932,2.633,31.405c14.017-0.051,28.027-0.275,42.045-0.296
			c11.233-0.059,22.473,0.166,33.706-0.08c-0.536,17.258,0.166,34.537-0.362,51.796c-7.559-1.122-15.023-2.807-22.553-4.146
			c-5.938-1.293-12.021-1.966-17.873-3.666c-0.831-8.281-1.411-16.593-2.148-24.881c-1.693-0.521-3.486-0.471-5.237-0.499
			c-8.492,0.051-16.991-0.029-25.489,0.101c0.832,15.936,2.264,31.848,4.701,47.63c8.375,2.185,16.766,4.324,25.127,6.603
			c12.81,3.486,25.779,6.387,38.61,9.816c1.526,0.325,3.067,0.89,4.65,0.759c0.854,10.48,0.196,21.026,0.354,31.537
			c2.959-0.479,5.867-1.209,8.723-2.092c24.289-6.597,48.548-13.314,72.823-19.978c1.207-9.547,1.771-19.159,2.727-28.729
			c2.524-29.091,5.07-58.182,7.718-87.265c3.102-33.272,5.786-66.58,8.91-99.852C223.189,93.305,189.585,93.21,155.981,93.319z"/>
	</g>
	<g id="_x23_29a9dfff">
		<path fill="#29A9DF" d="M155.981,93.319c33.604-0.109,67.208-0.015,100.82-0.044c-3.124,33.272-5.809,66.58-8.91,99.852
			c-2.647,29.083-5.193,58.174-7.718,87.265c-0.955,9.57-1.52,19.183-2.727,28.729c-24.274,6.663-48.534,13.381-72.823,19.978
			c-2.856,0.883-5.764,1.613-8.723,2.092c-0.158-10.511,0.5-21.057-0.354-31.537c0.217-0.043,0.659-0.13,0.875-0.173
			c22.589-5.672,45.025-11.913,67.564-17.787c2.85-31.97,6.011-63.924,8.013-95.96c-19.167,0.102-38.34,0.044-57.508,0.123
			c-2.792,0.015-5.584,0-8.362-0.202c10.315-5.309,21.165-9.518,31.753-14.257c10.164-4.607,20.447-8.925,30.646-13.445
			c1.967-0.904,4.064-1.656,5.794-3.001c0.68-2.496,0.644-5.107,0.912-7.66c0.585-8.101,1.627-16.159,2.018-24.267
			c-27.146-0.217-54.291-0.029-81.444-0.173C156.11,113.014,155.807,103.163,155.981,93.319z"/>
		<path fill="#29A9DF" d="M156.118,216.143c13.106-0.225,26.22,0.131,39.333,0.042c-0.729,13.403-1.846,26.784-2.539,40.188
			c-8.035,2.626-16.194,4.847-24.295,7.276c-4.318,1.316-8.753,2.358-12.86,4.29C156.284,250.68,155.583,233.4,156.118,216.143z"/>
	</g>
	<g id="_x23_cfcfcfff">
		<path fill="#CFCFCF" d="M71,122.858c28.266-0.029,56.54-0.108,84.807-0.007c0.368,31.102-0.094,62.204,0.311,93.291
			c-11.233,0.246-22.473,0.021-33.706,0.08c-14.018,0.021-28.028,0.245-42.045,0.296c-0.746-10.474-2.438-20.91-2.633-31.405
			c1.772-1.288,3.892-1.953,5.874-2.835c23.109-10.105,46.4-19.826,69.408-30.147c-26.299-0.788-52.634,0.224-78.934-0.752
			C72.765,141.903,71.484,132.413,71,122.858z"/>
		<path fill="#CFCFCF" d="M82.458,234.847c8.498-0.13,16.997-0.05,25.489-0.101c1.75,0.028,3.544-0.021,5.237,0.499
			c0.737,8.288,1.317,16.6,2.148,24.881c5.852,1.7,11.934,2.373,17.873,3.666c7.53,1.34,14.994,3.024,22.553,4.146
			c0.723,10.501-0.542,21.076,0.665,31.543c-0.216,0.043-0.658,0.13-0.875,0.173c-1.583,0.131-3.124-0.434-4.65-0.759
			c-12.831-3.43-25.8-6.33-38.61-9.816c-8.361-2.278-16.752-4.418-25.127-6.603C84.721,266.694,83.29,250.782,82.458,234.847z"/>
	</g>
	<g id="_x23_ffffffff">
		<path fill="#FFFFFF" d="M155.807,122.852c27.153,0.145,54.298-0.043,81.444,0.173c-0.391,8.108-1.433,16.166-2.018,24.267
			c-0.269,2.553-0.232,5.165-0.912,7.66c-1.729,1.346-3.827,2.097-5.794,3.001c-10.199,4.52-20.482,8.838-30.646,13.445
			c-10.588,4.739-21.438,8.948-31.753,14.257c2.778,0.202,5.571,0.217,8.362,0.202c19.168-0.079,38.341-0.021,57.508-0.123
			c-2.002,32.036-5.163,63.99-8.013,95.96c-22.539,5.874-44.975,12.115-67.564,17.787c-1.208-10.467,0.058-21.042-0.665-31.543
			c4.107-1.932,8.542-2.974,12.86-4.29c8.102-2.43,16.26-4.65,24.295-7.276c0.693-13.403,1.81-26.784,2.539-40.188
			c-13.113,0.089-26.227-0.267-39.333-0.042C155.713,185.055,156.175,153.953,155.807,122.852z"/>
	</g>
</g>
</svg>
