<svg id="materials" xmlns="http://www.w3.org/2000/svg" xmlns:xlink="http://www.w3.org/1999/xlink" viewBox="0 0 9.49 9.49"><defs><style>.cls-1{fill:none;}.cls-2{clip-path:url(#clip-path);}.cls-3{fill:#b6dde0;}</style><clipPath id="clip-path"><rect class="cls-1" width="9.49" height="9.49"/></clipPath></defs><title>dots</title><g class="cls-2"><path class="cls-3" d="M6.4,4.74A1.66,1.66,0,1,1,4.74,3.08,1.66,1.66,0,0,1,6.4,4.74Z"/><circle class="cls-3" r="1.66"/><path class="cls-3" d="M11.15,0A1.66,1.66,0,0,1,9.49,1.66,1.66,1.66,0,0,1,7.83,0,1.66,1.66,0,0,1,9.49-1.66,1.66,1.66,0,0,1,11.15,0Z"/><path class="cls-3" d="M1.66,9.48A1.66,1.66,0,0,1,0,11.15,1.66,1.66,0,0,1-1.66,9.48,1.65,1.65,0,0,1,0,7.83,1.65,1.65,0,0,1,1.66,9.48Z"/><path class="cls-3" d="M11.15,9.48A1.66,1.66,0,1,1,9.49,7.83,1.66,1.66,0,0,1,11.15,9.48Z"/></g></svg>