<svg id="レイヤー_1" data-name="レイヤー 1" xmlns="http://www.w3.org/2000/svg" viewBox="0 0 200 200"><defs><style>.cls-1{fill:#48c0eb;}.cls-2{fill:#9fd661;}</style></defs><title>earth</title><g id="Layer_1" data-name="Layer 1"><circle class="cls-1" cx="99.99" cy="100" r="86.45"/><path class="cls-2" d="M186,109.26s-1.82,3.44-6.24,1.36c-3.93-1.87-3.89-7.63-4.82-10.1s-6.39-13.7-14.76-18.7c-2.78-1.65-5.67-1.69-9.65-1.58S146,79.43,143.32,77s-8.9-2.06-12.65-1.7-8.49,2.55-10.42,6.49-5.73,7-7.33,8.74-2.62,5-2.83,7.92-1.77,6.2-.56,13,6.73,7.59,10.33,7.89,6.33-1.59,10.24-1.18a11.21,11.21,0,0,1,8.23,5c1.18,2.11,4.46,5.55,5.19,9.42.7,3.64-1.13,9-1.36,11.77a34.18,34.18,0,0,0,8.33,25.85S180.25,153.1,186,109.26Z"/><path class="cls-2" d="M81.86,15.45s.66,2.67,2.91,3.22,5.06-.09,5.43,1A4.56,4.56,0,0,1,90,23.27c-.6,1.18-1,6.75.45,8A5.18,5.18,0,0,0,97.65,31c2.59-2.55,5.43-2.87,7.33-3.24s5.68-1.66,6.33-3.6.44-3.38,2.26-4.31,8.7-4,6.25-4A87.17,87.17,0,0,0,81.86,15.45Z"/><path class="cls-2" d="M56,25.57c4.47.7,7.87,5.35,6.06,8.34-2.07,3.41-8,5-11.57,6.68s-2.21,6,1.63,5.95c4.13-.1,5.81-4.8,11.19-6.62,3.58-1.22,9.89-.72,12.2.52,4.37,2.36,6.58,6.06,2.31,10.43C74.65,54.09,68,54.4,65.42,55c-5.26,1.2-4.69,6.18-10.17,10.51-7.51,6-8.13,10.87-15,14.67-4.88,2.68-8.86,1.2-14.69,2.08s-6.95,6.14-6.33,9.42,6.6,2.26,9,2.85,6.14.81,6.14,4.8a7.53,7.53,0,0,0,5.42,7.46c2.93.9,5.16-1.87,10.39-2.77,12.1-2.08,18.52,8.79,22.19,13.7s9.75,5,12.28,5.66,5.44,3,5.68,5.63a12,12,0,0,1-2.88,8.71c-1.78,2-1.25,3.85-1.41,9.53s-7.08,8.49-8.28,9.11-3.15,2.54-3.15,6.28c0,6.17-7.26,10.71-8.62,11.69s-2.19,4.19-2.19,4.19a99.84,99.84,0,0,1-12.57-7.15c0-1.12-.08-14.9-.34-18.55s-6.91-8-10.54-10.92-3.67-7.67-3.82-10.53-2.4-5.79-2.82-8.3,2.65-5,2.81-7-1.14-3.71-3.71-4.45a6.94,6.94,0,0,1-5.12-4.45c-1.06-2.54-4.39-2.95-5.65-3.1-4.28-.5-8.46-4-8.46-4S10.59,53.39,56,25.57Z"/><path class="cls-2" d="M123.43,50.87c-1.1-1.73-4.06-1.35-3.78-3.65.37-3,3.36-4.35,5.37-4.25a7.61,7.61,0,0,1,6.78,6.67c.4,3.53-2.43,7-5.45,6.66S124.54,52.6,123.43,50.87Z"/><path class="cls-2" d="M148.05,28.13C147,29.5,144.17,31,142.9,31.88s-3.82,3.54-3.36,5.51,1.92,4.9,4.93,5.31c2.58.35,6.49-2.07,7.18-2.39a1.51,1.51,0,0,1,2.27,1.44c.08,1.85-6.18,4.07-7,6.25-1.56,3.91-6.07,1.7-8.51,2.2-3.64.74-4.77,3.53-5.61,5.56-1.81,4.37-7.81,5-10.23,5.81-3.07,1-4.09,6.07-1,7.69s8.07.76,11-.91,5.15-6.32,7.55-6.52S145,68.29,147,67.58c2.81-1-.21-5.34,1.1-5.65s3.34,2.58,5.84,3.59,6,.23,8.09-.77,5.47-5.82,7.28-6.13,3.52,0,3.8,2.41c.2,1.68-2.58,2.69-5.14,3-5.3.69-4.71,6.4-3.4,7.52s2.78,1.86,3.86,4.09,1.32,6.71,2.86,9.56,5.32,3.94,6.48,9.27,8.64,7.26,8.64,7.26S189.4,55.76,148.05,28.13Z"/></g></svg>