<svg id="materials" xmlns="http://www.w3.org/2000/svg" viewBox="0 0 240 240"><defs><style>.cls-1{fill:#f4c18a;}.cls-2{fill:#515556;}.cls-3{fill:#efb576;}.cls-4{fill:#e8b276;}.cls-5{fill:#fee3c5;}.cls-6{fill:#fec689;}.cls-7{fill:#c18448;}.cls-8{fill:#62d2dd;}.cls-9{fill:#9fd661;}</style></defs><title>earth</title><path class="cls-1" d="M54.42,74.25A35.84,35.84,0,1,1,90.26,38.41,35.87,35.87,0,0,1,54.42,74.25Z"/><path class="cls-2" d="M54.42,4.1A34.31,34.31,0,1,1,20.11,38.41,34.31,34.31,0,0,1,54.42,4.1m0-3A37.37,37.37,0,1,0,91.79,38.41,37.4,37.4,0,0,0,54.42,1.05Z"/><path class="cls-3" d="M41.42,36.56s19.94-1.27,38.47-21.14a34.49,34.49,0,0,0-9.4-7.32C66.58,16.16,58.37,26.29,41.42,36.56Z"/><path class="cls-4" d="M88.49,42.49C72,57.91,53.1,66,40.88,69.94c1,.45,2.13.85,3.23,1.2,7.55-1.76,20.41-5.84,29.8-14.47,0,0-4,9.5-18.75,16,.89,0,1.78-.08,2.68-.17A34.75,34.75,0,0,0,65.33,71a49.77,49.77,0,0,0,8.73-6.36,17.68,17.68,0,0,1-2,3.23A34.36,34.36,0,0,0,88.49,42.49Z"/><path class="cls-5" d="M51,4.28A34.31,34.31,0,0,0,21,30.5C32.82,24.13,48.62,14.82,60.9,4.72A34,34,0,0,0,51,4.28Z"/><path class="cls-3" d="M63.48,36.36c-8.42,8.39-25.76,15.31-38.56,19.58a34.43,34.43,0,0,0,2.48,3.61C54.18,49.48,63.48,36.36,63.48,36.36Z"/><path class="cls-6" d="M86.72,26.82C77.3,37.63,57.52,56.66,30.51,63a34.5,34.5,0,0,0,6.65,5.05,33.22,33.22,0,0,0,3.72,1.88c12.22-4,31.1-12,47.61-27.45a33,33,0,0,0,.24-3.87,34.43,34.43,0,0,0-2-11.8Z"/><path class="cls-6" d="M73.91,56.67c-9.39,8.63-22.25,12.71-29.8,14.47a34.14,34.14,0,0,0,11,1.58C69.91,66.17,73.91,56.67,73.91,56.67Z"/><path class="cls-1" d="M65.33,71a34.27,34.27,0,0,0,6.78-3.13,18.46,18.46,0,0,0,2-3.23A49.77,49.77,0,0,1,65.33,71Z"/><path class="cls-3" d="M73.92,25.83a33.11,33.11,0,0,0,9.83-5.23c-.53-.87-1.1-1.72-1.71-2.54A53.7,53.7,0,0,1,73.92,25.83Z"/><path class="cls-7" d="M6.52,65.79c-2.34,0-3.87-.48-4.3-1.34-1-2.07,3.11-8,18-18.11.17.75.36,1.48.58,2.2-5.56,4.55-7.85,7.92-6.8,10,.58,1.15,2.06,1.74,4.41,1.74A35.31,35.31,0,0,0,26.63,59c8.45-2.13,20-6.72,31.79-12.58S80.82,34.07,87.6,28.61c5.85-4.71,8.28-8.19,7.21-10.34-.59-1.17-2-1.74-4.42-1.74a33.85,33.85,0,0,0-7.67,1.15c-.45-.6-.92-1.2-1.41-1.79,9.1-3.13,16.53-4.85,21-4.85,2.34,0,3.86.47,4.29,1.34,1.06,2.11-3.28,8.29-19,18.73A274.15,274.15,0,0,1,59,47.51,270.58,270.58,0,0,1,28.6,60.56C19,63.93,11.18,65.79,6.52,65.79Z"/><path class="cls-2" d="M102.33,11.8c2.33,0,3.4.49,3.61.92.55,1.1-1.73,6.45-18.71,17.75-2.52,1.68-5.21,3.38-8,5.09,3.39-2.21,6.39-4.35,8.88-6.36,6.35-5.11,8.7-8.69,7.41-11.27-.72-1.44-2.43-2.17-5.1-2.17A33.75,33.75,0,0,0,83,16.82c-.14-.19-.29-.37-.44-.56,8.55-2.88,15.51-4.46,19.74-4.46M19.78,47.59c.06.23.12.46.19.69C14.23,53,12.12,56.43,13.36,58.9c.71,1.44,2.43,2.16,5.1,2.16a35.79,35.79,0,0,0,8.36-1.3,106.73,106.73,0,0,0,10.42-3.28c-3.06,1.23-6,2.36-8.9,3.36C18.84,63.19,11.09,65,6.52,65c-2.33,0-3.4-.5-3.61-.92C2.37,63,4.47,58.05,19.78,47.59m82.55-37.32c-4.82,0-12.7,1.88-22.33,5.27a36.81,36.81,0,0,1,2.4,3,35,35,0,0,1,8-1.26c2,0,3.29.42,3.74,1.32.89,1.81-1.8,5.21-7,9.4-6.48,5.23-16.87,11.67-29,17.74S34.52,56.24,26.45,58.28a35,35,0,0,1-8,1.26c-2,0-3.29-.43-3.74-1.32-.9-1.81,1.8-5.22,7-9.41a34.5,34.5,0,0,1-.95-3.73C7.61,53.84-.14,61.42,1.54,64.79c.59,1.2,2.32,1.76,5,1.76,4.82,0,12.7-1.88,22.33-5.26A273.45,273.45,0,0,0,59.3,48.19,270.83,270.83,0,0,0,88.08,31.74C101.24,23,109,15.41,107.31,12,106.71,10.84,105,10.27,102.33,10.27Z"/><path class="cls-8" d="M143,51.2a92.4,92.4,0,1,1-92.39,92.4A92.4,92.4,0,0,1,143,51.2Z"/><path class="cls-9" d="M234.84,153.49s-1.94,3.69-6.66,1.46C224,153,224,146.8,223,144.16s-6.83-14.65-15.77-20c-3-1.77-6.06-1.81-10.31-1.69s-4.78-.86-7.67-3.5-9.51-2.2-13.52-1.82-9.07,2.72-11.13,6.93-6.13,7.47-7.84,9.35-2.8,5.33-3,8.46-1.9,6.63-.61,13.94,7.21,8.1,11,8.43,6.77-1.7,10.94-1.26a12,12,0,0,1,8.8,5.39c1.26,2.25,4.76,5.93,5.55,10.06.74,3.89-1.21,9.62-1.46,12.59a36.52,36.52,0,0,0,8.91,27.62S228.74,200.35,234.84,153.49Z"/><path class="cls-2" d="M234.84,153.49,234,153l.11.06L234,153h0l.11.06L234,153a3.75,3.75,0,0,1-.77.87,3.31,3.31,0,0,1-2.15.76,5.69,5.69,0,0,1-2.41-.62,5,5,0,0,1-2-1.8A12.86,12.86,0,0,1,225,148a36.94,36.94,0,0,0-1-4.18,50.62,50.62,0,0,0-5-9.19c-2.75-4.07-6.52-8.51-11.19-11.31-2.63-1.57-5.35-1.88-8.5-1.88-.75,0-1.54,0-2.36,0h-.65a6,6,0,0,1-3.32-.68,23.19,23.19,0,0,1-3-2.57,8.78,8.78,0,0,0-4.12-1.92,23.49,23.49,0,0,0-4.91-.45c-1.92,0-3.79.15-5.28.29a17.18,17.18,0,0,0-6.7,2.16,12.85,12.85,0,0,0-5.25,5.33,22.43,22.43,0,0,1-3.87,5.3c-1.46,1.55-2.88,2.81-3.8,3.81-1.94,2.18-3,5.77-3.28,9.08-.13,2-1.09,4.66-1.1,8.8a31.17,31.17,0,0,0,.5,5.39,10.06,10.06,0,0,0,5.09,7.55,17.55,17.55,0,0,0,6.88,1.72c.32,0,.63,0,.94,0a19.88,19.88,0,0,0,4.61-.71A18.16,18.16,0,0,1,174,164,10.29,10.29,0,0,1,175,164a11.31,11.31,0,0,1,5,1.85,9.51,9.51,0,0,1,3,3h0c.71,1.25,1.89,2.71,3,4.38a15.27,15.27,0,0,1,2.44,5.37h0a9.66,9.66,0,0,1,.15,1.77,30.25,30.25,0,0,1-.71,5.55c-.38,1.87-.79,3.61-.91,5h0c-.09,1.15-.14,2.28-.14,3.37a37.19,37.19,0,0,0,9.34,25.06l.55.55.68-.39c.07,0,8.12-4.69,16.93-15.25s18.39-27,21.47-50.67l.73-5.59L234,153l.89.47-1-.13c-3,23.22-12.4,39.32-21,49.64a79.45,79.45,0,0,1-11.45,11.28c-1.51,1.21-2.76,2.09-3.62,2.67-.43.29-.76.5-1,.64l-.25.16-.08,0,.51.88.72-.72-.09-.08a35.46,35.46,0,0,1-8.66-23.54c0-1,0-2.1.14-3.2h0a46.65,46.65,0,0,1,.87-4.76,31.35,31.35,0,0,0,.75-6,11.63,11.63,0,0,0-.18-2.15h0a17.23,17.23,0,0,0-2.75-6.1c-1.16-1.76-2.36-3.27-2.92-4.27h0a11.38,11.38,0,0,0-3.63-3.72,13.28,13.28,0,0,0-5.94-2.18c-.45,0-.88-.06-1.3-.06a19.87,19.87,0,0,0-4.75.7,17.4,17.4,0,0,1-4.14.66,6.74,6.74,0,0,1-.77,0,15.38,15.38,0,0,1-6.08-1.48c-1.88-1-3.43-2.72-4.06-6.12a29,29,0,0,1-.47-5c0-3.82.9-6.15,1.09-8.65.19-3,1.31-6.3,2.76-7.86.79-.87,2.25-2.18,3.77-3.78a24.49,24.49,0,0,0,4.23-5.8,10.73,10.73,0,0,1,4.42-4.46,15.11,15.11,0,0,1,5.9-1.91c1.46-.14,3.26-.28,5.08-.28a21.18,21.18,0,0,1,4.47.4,6.86,6.86,0,0,1,3.19,1.44,23.88,23.88,0,0,0,3.31,2.81,8.13,8.13,0,0,0,4.36,1l.71,0c.81,0,1.58,0,2.3,0,3,0,5.28.3,7.46,1.59,4.27,2.55,7.9,6.78,10.55,10.7a49.32,49.32,0,0,1,4.79,8.77,16.87,16.87,0,0,1,.59,2.37,24.1,24.1,0,0,0,1.37,4.88,7.71,7.71,0,0,0,3.72,4.1,7.6,7.6,0,0,0,3.28.82,5.38,5.38,0,0,0,3.58-1.34,5.25,5.25,0,0,0,1.13-1.37l-.9-.48-1-.13Z"/><path class="cls-9" d="M123.58,53.23s.71,2.86,3.11,3.44,5.41-.09,5.8,1.12a4.87,4.87,0,0,1-.17,3.81c-.65,1.25-1.08,7.21.48,8.59a5.54,5.54,0,0,0,7.66-.38c2.77-2.73,5.8-3.07,7.84-3.46s6.06-1.77,6.76-3.85.47-3.62,2.42-4.61,9.3-4.23,6.67-4.23A93.28,93.28,0,0,0,123.58,53.23Z"/><path class="cls-2" d="M123.58,53.23l-1,.25a7,7,0,0,0,.77,1.78,5,5,0,0,0,3.08,2.4,20.72,20.72,0,0,0,3.85.35,4.93,4.93,0,0,1,1.16.15l.11,0h0l.09-.12-.12.09,0,0,.09-.12-.12.09.21-.16-.25.08,0,.08.21-.16-.25.08.06.2-.06-.2a5,5,0,0,1,.25,1.49,3.35,3.35,0,0,1-.36,1.54h0a6.84,6.84,0,0,0-.52,2,20.22,20.22,0,0,0-.18,2.69,13.67,13.67,0,0,0,.26,2.83A4.25,4.25,0,0,0,132.12,71a6.56,6.56,0,0,0,9-.42c2.54-2.48,5.21-2.78,7.32-3.18A17.2,17.2,0,0,0,152.62,66a9.78,9.78,0,0,0,2-1.27A4.32,4.32,0,0,0,156,62.82c.38-1.14.51-2.07.73-2.69a2.19,2.19,0,0,1,1.19-1.34c.79-.4,2.62-1.24,4.24-2.06.81-.41,1.58-.82,2.18-1.2a6.3,6.3,0,0,0,.78-.57l.33-.36a1.2,1.2,0,0,0,.26-.74,1.21,1.21,0,0,0-.3-.77,1.34,1.34,0,0,0-.71-.39,2.81,2.81,0,0,0-.57-.05v1l.23-1a95.63,95.63,0,0,0-21.66-2.45,84.85,84.85,0,0,0-19.39,2l-1,.25.24,1,1-.25.26,1,.33-.08a85.15,85.15,0,0,1,18.55-1.89,93.56,93.56,0,0,1,21.2,2.4l.11,0h.26l.11-.59-.35.48.24.11.11-.59-.35.48.53-.71h-.88a.89.89,0,0,0,.35.71l.53-.71h-.15l-.61-.44a.8.8,0,0,0-.12.44h.73l-.61-.44.14.1-.12-.12,0,0,.14.1-.12-.12a6,6,0,0,1-1,.69c-1.69,1-4.62,2.3-5.79,2.89a4.23,4.23,0,0,0-2.18,2.47c-.32.92-.43,1.79-.75,2.73a2.26,2.26,0,0,1-.75,1,13.27,13.27,0,0,1-5.23,2.21c-2,.37-5.35.75-8.36,3.73a4.57,4.57,0,0,1-3.29,1.44,4.64,4.64,0,0,1-3-1.1,2.56,2.56,0,0,1-.51-1.22,11.82,11.82,0,0,1-.21-2.41,17.45,17.45,0,0,1,.16-2.4,6,6,0,0,1,.31-1.34l0-.05,0,.05a5.33,5.33,0,0,0,.59-2.47,7,7,0,0,0-.35-2.11h0a1.79,1.79,0,0,0-.6-.86,3,3,0,0,0-1.41-.54,20.34,20.34,0,0,0-2.27-.14,12,12,0,0,1-2.25-.25,3,3,0,0,1-1.82-1.48,5,5,0,0,1-.43-.88l-.09-.27,0-.06h0l-.3.07.3-.07h0l-.3.07.3-.07-1,.24.26,1Z"/><path class="cls-9" d="M95.93,64.05c4.79.75,8.42,5.72,6.48,8.92-2.2,3.64-8.52,5.3-12.36,7.13s-2.37,6.46,1.74,6.36c4.41-.1,6.21-5.13,12-7.08,3.83-1.3,10.57-.76,13,.57,4.67,2.51,7,6.47,2.46,11.14-3.37,3.44-10.48,3.77-13.24,4.4-5.62,1.29-5,6.61-10.86,11.24-8,6.35-8.7,11.61-16.06,15.67-5.21,2.87-9.46,1.28-15.7,2.23s-7.43,6.56-6.76,10.06,7,2.42,9.6,3.05,6.55.87,6.55,5.13a8.07,8.07,0,0,0,5.8,8c3.14,1,5.52-2,11.11-3,12.93-2.22,19.79,9.4,23.71,14.65s10.42,5.36,13.13,6.05,5.81,3.2,6.07,6a12.84,12.84,0,0,1-3.08,9.3c-1.9,2.16-1.34,4.12-1.51,10.19s-7.56,9.08-8.85,9.74-3.37,2.71-3.37,6.71c0,6.59-7.76,11.44-9.2,12.49s-2.35,4.48-2.35,4.48a107.14,107.14,0,0,1-13.43-7.64c0-1.2-.09-15.93-.36-19.83s-7.39-8.54-11.28-11.67-3.92-8.19-4.08-11.26-2.56-6.19-3-8.86,2.83-5.39,3-7.52-1.21-4-4-4.76a7.4,7.4,0,0,1-5.46-4.75c-1.13-2.72-4.7-3.16-6.05-3.32-4.57-.53-9-4.3-9-4.3S47.41,93.78,95.93,64.05Z"/><path class="cls-2" d="M95.93,64.05l-.15,1a8,8,0,0,1,4.39,2.31A5.56,5.56,0,0,1,101.93,71a2.6,2.6,0,0,1-.39,1.42c-.9,1.51-2.85,2.79-5.13,3.85s-4.79,1.94-6.8,2.9a4.51,4.51,0,0,0-2.81,4,4.11,4.11,0,0,0,1.36,3,5.12,5.12,0,0,0,3.5,1.28h.15a6.94,6.94,0,0,0,3.41-1,32.13,32.13,0,0,0,4-3.23,14.71,14.71,0,0,1,4.81-2.89,17.4,17.4,0,0,1,5.21-.69,25.63,25.63,0,0,1,4.15.34,10.23,10.23,0,0,1,2.88.85,11.14,11.14,0,0,1,3.25,2.5,4.39,4.39,0,0,1,1.14,2.81c0,1.17-.57,2.58-2.17,4.23-1.44,1.48-3.89,2.41-6.36,3s-4.88.81-6.38,1.15a8,8,0,0,0-3.71,1.89,20.74,20.74,0,0,0-3.27,4.55,18,18,0,0,1-4.29,5,48.39,48.39,0,0,0-8.44,8.86,23.52,23.52,0,0,1-7.48,6.72,14.37,14.37,0,0,1-7,1.71,64.35,64.35,0,0,0-8.35.4,8.72,8.72,0,0,0-6.11,3.6,9.94,9.94,0,0,0-1.68,5.68,10.6,10.6,0,0,0,.18,2h0a3.66,3.66,0,0,0,1.94,2.57,11.3,11.3,0,0,0,4.62,1,27.65,27.65,0,0,1,3.8.28,19.4,19.4,0,0,1,4,1.13,3.21,3.21,0,0,1,1.27,1.07,3.43,3.43,0,0,1,.5,2,9.06,9.06,0,0,0,6.52,8.95,5.23,5.23,0,0,0,1.54.23,11.25,11.25,0,0,0,4.5-1.35,22.38,22.38,0,0,1,5.53-1.82,18,18,0,0,1,3-.26c5.11,0,9.08,2.36,12.29,5.39s5.58,6.68,7.41,9.13a14.45,14.45,0,0,0,7.53,5.1c2.57.8,5,1,6.15,1.32a8.67,8.67,0,0,1,3.52,2,5.17,5.17,0,0,1,1.8,3.15q0,.42,0,.87a11.87,11.87,0,0,1-2.86,7.67,6.15,6.15,0,0,0-1.52,3.11,23.36,23.36,0,0,0-.2,4.07v.22c0,1,0,2.11,0,3.43a6.73,6.73,0,0,1-1.11,3.47,12.76,12.76,0,0,1-4,3.67c-.71.45-1.39.81-2,1.1l-1.29.63h0a6.7,6.7,0,0,0-2.56,2.47,9.51,9.51,0,0,0-1.36,5.14c0,2.88-1.73,5.54-3.77,7.61a26.18,26.18,0,0,1-3,2.6c-.91.69-1.63,1.17-2,1.46h0a7.29,7.29,0,0,0-2.06,3.07,19.27,19.27,0,0,0-.67,2l1,.26.44-.92s-.5-.23-1.34-.65a100.26,100.26,0,0,1-11.94-6.89l-.59.82h1c0-1.22-.08-15.91-.36-19.9a7.07,7.07,0,0,0-1.53-3.56A28.78,28.78,0,0,0,85,191.62c-1.86-1.5-3.78-2.89-5.2-4a9.12,9.12,0,0,1-3.09-5.11,26.82,26.82,0,0,1-.61-5.41,14,14,0,0,0-1.49-4.94,18.73,18.73,0,0,1-1.54-4h0l0-.35a6.56,6.56,0,0,1,1.31-3.15c.36-.59.75-1.18,1.08-1.79a5.14,5.14,0,0,0,.65-2h0l0-.42a5.07,5.07,0,0,0-1.26-3.34A7.23,7.23,0,0,0,71.4,155a7.63,7.63,0,0,1-3-1.46,6.79,6.79,0,0,1-1.84-2.71h0a5.92,5.92,0,0,0-3.5-3.17,13.19,13.19,0,0,0-3.36-.76,15.68,15.68,0,0,1-5.83-2.22,22.48,22.48,0,0,1-2-1.3c-.24-.17-.42-.32-.54-.41l-.14-.11,0,0-.65.78,1-.07s0-.14,0-.45,0-.76,0-1.36a89.59,89.59,0,0,1,6.53-32.09C64,94.83,75.2,78,96.46,64.91l-.53-.86-.15,1,.15-1-.53-.87c-21.67,13.28-33.17,30.57-39.22,45.7a91.41,91.41,0,0,0-6.67,32.84c0,1.24,0,1.92,0,1.94l0,.44.33.27a23.14,23.14,0,0,0,2.94,2,17.38,17.38,0,0,0,6.64,2.49,11.63,11.63,0,0,1,2.85.64,4,4,0,0,1,2.37,2.06h0a8.8,8.8,0,0,0,2.4,3.49A9.8,9.8,0,0,0,70.83,157a5.1,5.1,0,0,1,2.49,1.44,3,3,0,0,1,.76,2v.27h0a3.32,3.32,0,0,1-.43,1.19c-.39.75-1,1.63-1.57,2.6a6.77,6.77,0,0,0-1,3.29,4,4,0,0,0,.06.69h0A19.88,19.88,0,0,0,72.77,173a12.2,12.2,0,0,1,1.31,4.22,29,29,0,0,0,.67,5.8,11.27,11.27,0,0,0,3.78,6.19c2,1.6,4.72,3.53,7,5.52a20.47,20.47,0,0,1,2.81,2.94,5.08,5.08,0,0,1,1.13,2.49c.27,3.81.36,18.58.36,19.77v.52l.42.3a109.71,109.71,0,0,0,13.59,7.73l1.11.52.31-1.18,0-.13a16.83,16.83,0,0,1,.7-1.93,5.11,5.11,0,0,1,1.22-1.86h0c.33-.23,1.11-.75,2.07-1.48a25.72,25.72,0,0,0,4.82-4.64,11.89,11.89,0,0,0,2.74-7.19,7.57,7.57,0,0,1,1-4.07,4.89,4.89,0,0,1,1.77-1.74h0c.26-.14,1-.47,1.91-.95a19,19,0,0,0,4.67-3.41,9.36,9.36,0,0,0,2.82-6.25c0-1.35,0-2.5,0-3.49v-.22a22.71,22.71,0,0,1,.17-3.7,4.1,4.1,0,0,1,1-2.14,13.84,13.84,0,0,0,3.37-9c0-.36,0-.71,0-1.05a7.16,7.16,0,0,0-2.44-4.46,10.58,10.58,0,0,0-4.39-2.45c-1.51-.38-3.72-.57-6-1.3a12.38,12.38,0,0,1-6.51-4.37c-1.77-2.36-4.21-6.17-7.64-9.4s-7.92-5.94-13.69-5.94a19.76,19.76,0,0,0-3.37.29,24.44,24.44,0,0,0-6,2A9.8,9.8,0,0,1,79.83,150a3.22,3.22,0,0,1-1-.14,7.06,7.06,0,0,1-5.08-7A5.55,5.55,0,0,0,73,139.8a6,6,0,0,0-3.23-2.25c-1.18-.39-2.38-.58-3.27-.8a14.37,14.37,0,0,0-2.68-.27,21.87,21.87,0,0,1-4.24-.43,3.65,3.65,0,0,1-1.37-.62,1.48,1.48,0,0,1-.55-.92l0-.17,0,.16a8.49,8.49,0,0,1,1.16-6.12,6.73,6.73,0,0,1,4.75-2.75,63,63,0,0,1,8.12-.38,16.5,16.5,0,0,0,7.92-2,25.39,25.39,0,0,0,8.08-7.23,46.24,46.24,0,0,1,8.12-8.53,24,24,0,0,0,5.75-7.14,11.48,11.48,0,0,1,1.92-2.5,5.88,5.88,0,0,1,2.79-1.41c1.25-.29,3.78-.54,6.39-1.15S118,93.76,120,91.8a8.23,8.23,0,0,0,2.75-5.65A6.4,6.4,0,0,0,121.12,82a13,13,0,0,0-3.85-3A12.1,12.1,0,0,0,113.78,78a26.79,26.79,0,0,0-4.5-.37,19,19,0,0,0-5.86.8,19.41,19.41,0,0,0-6.82,4.43,16.85,16.85,0,0,1-2.4,1.86,5,5,0,0,1-2.44.74h-.1c-1.91,0-2.81-1.19-2.83-2.27A2.47,2.47,0,0,1,90.49,81c1.84-.88,4.39-1.76,6.79-2.89s4.69-2.51,6-4.64A4.68,4.68,0,0,0,104,71a7.53,7.53,0,0,0-2.34-5.08,10,10,0,0,0-5.53-2.89L95.72,63l-.32.19Z"/><path class="cls-9" d="M168,91.09c-1.18-1.85-4.35-1.44-4-3.9.39-3.19,3.59-4.65,5.73-4.54A8.11,8.11,0,0,1,177,89.78c.42,3.77-2.6,7.47-5.82,7.11S169.2,92.93,168,91.09Z"/><path class="cls-2" d="M168,91.09l.85-.55a6.07,6.07,0,0,0-2.87-2,3,3,0,0,1-.84-.51.62.62,0,0,1-.19-.49l0-.19h0a3.82,3.82,0,0,1,1.67-2.72,5.09,5.09,0,0,1,2.82-.93h.18a7.29,7.29,0,0,1,3.65,1.5A6.77,6.77,0,0,1,176,89.89q0,.3,0,.6a6,6,0,0,1-1.4,3.81,4.07,4.07,0,0,1-3,1.6l-.32,0a1.42,1.42,0,0,1-1-.44,3.92,3.92,0,0,1-.55-1.93,7.14,7.14,0,0,0-.81-3l-.85.55-.86.54a3.47,3.47,0,0,1,.39,1.25,13.64,13.64,0,0,0,.55,2.88,3.36,3.36,0,0,0,1,1.42,3.7,3.7,0,0,0,1.9.72,4.89,4.89,0,0,0,.54,0,6.07,6.07,0,0,0,4.56-2.32A8.07,8.07,0,0,0,178,90.49a7.86,7.86,0,0,0-.05-.83,8.76,8.76,0,0,0-3.42-6.11,9,9,0,0,0-4.79-1.91h-.28a7.06,7.06,0,0,0-4,1.3A5.92,5.92,0,0,0,163,87.06h0l0,.46a2.69,2.69,0,0,0,.77,1.91,6.87,6.87,0,0,0,2.1,1.24,3,3,0,0,1,1.35,1Z"/><path class="cls-9" d="M194.33,66.78c-1.16,1.48-4.15,3.07-5.51,4s-4.08,3.78-3.59,5.89,2.05,5.23,5.27,5.67c2.76.37,6.94-2.21,7.68-2.55a1.6,1.6,0,0,1,2.42,1.54c.08,2-6.6,4.34-7.54,6.68-1.66,4.17-6.48,1.81-9.09,2.34-3.89.79-5.1,3.78-6,5.94-1.93,4.67-8.34,5.33-10.93,6.21-3.28,1.12-4.38,6.49-1,8.22s8.63.81,11.75-1,5.51-6.75,8.07-7,5.18,6.91,7.41,6.15c3-1-.23-5.71,1.18-6s3.56,2.76,6.24,3.84,6.37.24,8.64-.83,5.85-6.21,7.79-6.54,3.76,0,4.05,2.57c.21,1.8-2.75,2.88-5.49,3.23-5.66.73-5,6.84-3.63,8s3,2,4.13,4.37,1.4,7.17,3.05,10.22,5.69,4.2,6.92,9.9,9.24,7.76,9.24,7.76S238.52,96.32,194.33,66.78Z"/><path class="cls-2" d="M194.33,66.78l-.8-.63a10.88,10.88,0,0,1-2.44,2c-1,.68-2.11,1.31-2.85,1.82h0a13,13,0,0,0-2.52,2.46,6.53,6.53,0,0,0-1.56,3.74,2.81,2.81,0,0,0,.08.76h0a10.32,10.32,0,0,0,1.8,3.85,6.5,6.5,0,0,0,4.32,2.59,4.31,4.31,0,0,0,.71,0,12.25,12.25,0,0,0,4.73-1.26c.71-.32,1.34-.64,1.83-.91l1-.51h0l.47-.1a.44.44,0,0,1,.32.09c.05,0,.17.17.2.67l1,0-1,0h0l-.19.29A7.75,7.75,0,0,1,198,82.83c-1,.67-2.2,1.39-3.3,2.15a14.21,14.21,0,0,0-1.51,1.2,4.43,4.43,0,0,0-1.06,1.47,2.76,2.76,0,0,1-1.27,1.53,4.41,4.41,0,0,1-2,.37c-1.22,0-2.62-.27-3.95-.27a5.78,5.78,0,0,0-1.17.1,7.8,7.8,0,0,0-4.7,2.81,14.43,14.43,0,0,0-2,3.73c-.81,2-2.6,3.16-4.66,4s-4.23,1.19-5.67,1.67a5.36,5.36,0,0,0-2.77,2.26,6.51,6.51,0,0,0-1,3.37,5.33,5.33,0,0,0,.61,2.52,4.64,4.64,0,0,0,2,1.93,10.45,10.45,0,0,0,4.81,1,16.72,16.72,0,0,0,7.91-2,19.71,19.71,0,0,0,4.5-4.28,17.1,17.1,0,0,1,1.8-1.86,2.71,2.71,0,0,1,1.34-.7h0a.88.88,0,0,1,.4.14,5.54,5.54,0,0,1,1.3,1.2c.73.86,1.5,2,2.3,2.94a8.55,8.55,0,0,0,1.27,1.28,2.8,2.8,0,0,0,1.68.65,1.89,1.89,0,0,0,.67-.11,2.85,2.85,0,0,0,1.61-1.27,3.45,3.45,0,0,0,.41-1.72,9.77,9.77,0,0,0-.28-2.06,7.41,7.41,0,0,1-.24-1.31v0l-.45-.08.34.28.11-.2-.45-.08.34.28-.44-.37.14.57.3-.2-.44-.37.14.57,0-.07v.07h0l0-.07v.07l.18,0a11.67,11.67,0,0,1,2.15,1.59,13.29,13.29,0,0,0,3.32,2.15,8.91,8.91,0,0,0,3.27.57,15.2,15.2,0,0,0,6.18-1.42,9.11,9.11,0,0,0,2.16-1.61c1.07-1,2.18-2.22,3.19-3.19a13.22,13.22,0,0,1,1.37-1.21,2.06,2.06,0,0,1,.81-.45,5.71,5.71,0,0,1,1-.1,2,2,0,0,1,1.28.35,2,2,0,0,1,.62,1.43h0v.07a.76.76,0,0,1-.22.46,4.49,4.49,0,0,1-1.71,1,13.07,13.07,0,0,1-2.69.62,6.12,6.12,0,0,0-4.29,2.31,6.3,6.3,0,0,0-1.19,3.77,6.52,6.52,0,0,0,.34,2.13,3.6,3.6,0,0,0,1,1.61c.76.65,1.49,1.13,2.13,1.72a7.21,7.21,0,0,1,1.74,2.32,23.53,23.53,0,0,1,1.26,4.64,22.25,22.25,0,0,0,1.81,5.62c1,1.79,2.5,2.87,3.79,4.19a10.33,10.33,0,0,1,3,5.44,8.72,8.72,0,0,0,2.22,4.09,18,18,0,0,0,7.76,4.44l1.19.31.08-1.23s.05-.8.05-2.22a96.93,96.93,0,0,0-6.11-32.6A91.2,91.2,0,0,0,194.9,65.94l-.78-.52-.59.73.8.63-.56.85a89.2,89.2,0,0,1,34.66,43.79,95.06,95.06,0,0,1,6,31.89c0,.68,0,1.21,0,1.57s0,.52,0,.53l1,.06.26-1-.07,0a18.46,18.46,0,0,1-4.22-1.85c-1.92-1.17-3.73-2.88-4.21-5.13a12.47,12.47,0,0,0-3.59-6.44c-1.45-1.44-2.77-2.46-3.44-3.73a19.78,19.78,0,0,1-1.61-5.09,25.43,25.43,0,0,0-1.42-5.08,9.49,9.49,0,0,0-2.2-3c-.79-.71-1.54-1.21-2.18-1.76a1.78,1.78,0,0,1-.38-.7,5,5,0,0,1-.23-1.49,4.23,4.23,0,0,1,.79-2.55,4.09,4.09,0,0,1,2.92-1.52,13.54,13.54,0,0,0,4.06-1.11,5.1,5.1,0,0,0,1.58-1.12,2.71,2.71,0,0,0,.75-1.82l0-.3h0a3.65,3.65,0,0,0-3.92-3.58,8.41,8.41,0,0,0-1.32.12,5.07,5.07,0,0,0-2.2,1.24c-1,.89-2.13,2.08-3.19,3.14a12,12,0,0,1-2.66,2.25,13.09,13.09,0,0,1-5.31,1.23,6.7,6.7,0,0,1-2.52-.43,13.07,13.07,0,0,1-3.17-2.15,16.84,16.84,0,0,0-1.5-1.16,3.2,3.2,0,0,0-1.73-.62l-.45,0a1.45,1.45,0,0,0-.95.72,1.82,1.82,0,0,0-.2.91,8.63,8.63,0,0,0,.28,1.75,8.14,8.14,0,0,1,.24,1.62,1.46,1.46,0,0,1-.14.71.84.84,0,0,1-.5.36h0l-.27-.11a5.84,5.84,0,0,1-1.22-1.21c-.72-.87-1.5-2-2.33-3a8.24,8.24,0,0,0-1.36-1.29,3.11,3.11,0,0,0-1.77-.63h-.2a4.52,4.52,0,0,0-2.46,1.16,30.27,30.27,0,0,0-3,3.22,13.37,13.37,0,0,1-3,2.72,14.69,14.69,0,0,1-6.9,1.76,8.54,8.54,0,0,1-3.88-.81,2.71,2.71,0,0,1-1.13-1.09,3.33,3.33,0,0,1-.37-1.56,4.39,4.39,0,0,1,.67-2.29,3.3,3.3,0,0,1,1.7-1.42c1.16-.4,3.48-.8,5.77-1.7a9.73,9.73,0,0,0,5.78-5.08,12.94,12.94,0,0,1,1.73-3.23,5.77,5.77,0,0,1,3.53-2.1,4,4,0,0,1,.76-.06c1,0,2.47.27,3.95.27a6.28,6.28,0,0,0,2.9-.6A4.77,4.77,0,0,0,194,88.4a3.79,3.79,0,0,1,1.24-1.31c1-.81,2.52-1.66,3.78-2.51a11.1,11.1,0,0,0,1.68-1.34,3.39,3.39,0,0,0,.61-.8,2.15,2.15,0,0,0,.3-1.06V81.3a2.83,2.83,0,0,0-.84-2.07,2.49,2.49,0,0,0-1.7-.63,3.2,3.2,0,0,0-1.32.29h0c-.25.12-.58.31-1.07.56A24.38,24.38,0,0,1,194,80.71a8.54,8.54,0,0,1-2.9.67l-.43,0a4.48,4.48,0,0,1-3-1.82,8.29,8.29,0,0,1-1.43-3.08l-.05-.19.05.19,0-.29a4.61,4.61,0,0,1,1.14-2.49,10.78,10.78,0,0,1,2.07-2h0c.62-.43,1.72-1.08,2.81-1.8a12.81,12.81,0,0,0,2.92-2.42l-.8-.63-.56.85Z"/><path class="cls-2" d="M143,51.2v2A90.36,90.36,0,1,1,79.06,79.7,90.07,90.07,0,0,1,143,53.23V49.17A94.43,94.43,0,1,0,237.4,143.6,94.42,94.42,0,0,0,143,49.17Z"/></svg>