<svg id="materials" xmlns="http://www.w3.org/2000/svg" viewBox="0 0 460 39.07"><defs><style>.cls-1{fill:#515556;}.cls-2{fill:#fff;}</style></defs><title>eligibility-title</title><path class="cls-1" d="M372,16.94a7.61,7.61,0,0,0,1.47-4.7,6.8,6.8,0,0,0-6.64-7c-.86-3-3.5-4.9-7.21-4.9a7.55,7.55,0,0,0-3.92,1,8.29,8.29,0,0,0-2.2-.28,7.73,7.73,0,0,0-2.24.33,8.18,8.18,0,0,0-4-1,6.69,6.69,0,0,0-6.7,5l0,.07a30,30,0,0,1-1.59,4.65c0-.3.05-.6.05-.9,0-3.4-2.1-7.38-8-7.38h-4.27A8.44,8.44,0,0,0,321,0c-2.66,0-3.92.89-6.2,2.5A20.62,20.62,0,0,1,309.61,5c-.32.1-.61.21-.89.32-1.48-2.32-4.1-3.61-7.59-3.61h-3.54c-3.21,0-5.69,1.08-7.23,3.06C289.4,2,286.88.29,283.43.29a6.7,6.7,0,0,0-6.89,5.77,6.72,6.72,0,0,0-.7.4,28.85,28.85,0,0,0-2.44-2.09c-1.17-.93-2.22-1.71-3.12-2.33L270.17,2A7.4,7.4,0,0,0,265.94.58,7.57,7.57,0,0,0,261.49,2a8.26,8.26,0,0,0-5.57-2c-4,0-5.74,2.71-6.67,4.17l0,.07-.05.08h-.38a6.57,6.57,0,0,0-6.54,4.86,7.6,7.6,0,0,0-2.81-.53,22.68,22.68,0,0,0-4.92.91c-.69-2.78-2.19-6.15-7.29-6.15-4.27,0-7.49,3-7.49,7a11.93,11.93,0,0,0,.67,3.48l.06.23c.09.34.17.66.25.94-.51.31-1,.66-1.57,1.05-.29.2-.56.44-.83.66a6.27,6.27,0,0,0-1.88-2.36,8.57,8.57,0,0,0,1.11-4.21c0-3.63-2.18-7.85-8.33-7.85h-1.36A8,8,0,0,0,202.4.22a6.89,6.89,0,0,0-5.49,2.55A6.92,6.92,0,0,0,191.36.35a6.73,6.73,0,0,0-6.44,3.85,6.91,6.91,0,0,0-2.52-1.8,9.06,9.06,0,0,0-3.46-.61h-6.31A7.44,7.44,0,0,0,167.78,0a6.92,6.92,0,0,0-5,2.1l-.25.24-.11.1c-.29-.15-.55-.25-.74-.34A13.44,13.44,0,0,0,156.5.71a7,7,0,0,0-5.24,2.49,9.79,9.79,0,0,0-5.53-1.5h-3.54C139,1.7,136.5,2.78,135,4.76,134,2,131.48.29,128,.29a6.7,6.7,0,0,0-6.89,5.77,6.72,6.72,0,0,0-.7.4A28.85,28.85,0,0,0,118,4.37c-1.17-.93-2.22-1.71-3.12-2.33L114.77,2A7.4,7.4,0,0,0,110.54.58,7.57,7.57,0,0,0,106.09,2a8.26,8.26,0,0,0-5.57-2c-4,0-5.74,2.71-6.67,4.17l0,.07,0,.08h-.38a6.6,6.6,0,0,0-6.8,6.79,7.66,7.66,0,0,0,.13,1.42,6.83,6.83,0,0,0-.82,3.32A7.17,7.17,0,0,0,86.58,19a6.73,6.73,0,0,0-.72,3.13,7.54,7.54,0,0,0,2.84,5.95A6.7,6.7,0,0,0,89,29.84a7.35,7.35,0,0,0-.3,2.08,6.76,6.76,0,0,0,7,6.95,45.2,45.2,0,0,0,18.89-4.59,20.87,20.87,0,0,0,2.58-1.5,7.87,7.87,0,0,0,7.54,5.79,6.81,6.81,0,0,0,2.28-.37,10.67,10.67,0,0,0,4.23.64,10.56,10.56,0,0,0,6.2-1.6,10.3,10.3,0,0,0,4.69,1h3.54a9.76,9.76,0,0,0,5.49-1.48,7,7,0,0,0,5.07,2.05,14.84,14.84,0,0,0,2.81-.33,36.3,36.3,0,0,0,4.07-1.1A15.18,15.18,0,0,0,168,35.16,12.35,12.35,0,0,0,171.88,37a28.4,28.4,0,0,0,7.93,1.74,7,7,0,0,0,5.63-2.68A7,7,0,0,0,191.51,39a6.89,6.89,0,0,0,4.75-1.75,11.68,11.68,0,0,0,5.24,1h6.63c4.87,0,7.14-1.8,8.19-4.06a12.41,12.41,0,0,0,5,3.25,28,28,0,0,0,9.58,1.32,51.6,51.6,0,0,0,9.67-.82,7.41,7.41,0,0,0,4.39-2.68,6.83,6.83,0,0,0,6.26,3.62,45.2,45.2,0,0,0,18.89-4.59,20.87,20.87,0,0,0,2.58-1.5,7.88,7.88,0,0,0,7.54,5.79,6.77,6.77,0,0,0,2.28-.37,10.67,10.67,0,0,0,4.23.64,10.56,10.56,0,0,0,6.2-1.6,10.3,10.3,0,0,0,4.69,1h3.54a9.38,9.38,0,0,0,6.06-1.9,6.93,6.93,0,0,0,4.5,1.63,12.62,12.62,0,0,0,5.65-2,6.8,6.8,0,0,0,5.93,3.06,7.42,7.42,0,0,0,6.33-3,12,12,0,0,0,5.49,1.9A7,7,0,0,0,339.88,36a7.07,7.07,0,0,0,6.1,3,6.78,6.78,0,0,0,6.81-4.88c.87,3,3.52,4.88,7.23,4.88a6.86,6.86,0,0,0,7.13-7.22v-2.2c4.32-.11,7-2.93,7-7.43A6.85,6.85,0,0,0,372,16.94ZM238.56,23.55h0Z"/><path class="cls-2" d="M100.88,14a6.15,6.15,0,0,0,.72-1.14c-2.07.06-5.73.12-7.83.12-.87,0-2.19,0-2.19-1.86a1.68,1.68,0,0,1,1.89-1.8c1,0,2.07,0,3,0,.45-.68.69-1,1.56-2.43C98.81,5.73,99.26,5,100.52,5c.87,0,2.67.34,2.67,1.69,0,.38,0,.75-1.65,2.69h1.17c2.22,0,4.44-.06,6.63-.09-1-.87-1.23-1.08-1.23-1.68a2.4,2.4,0,0,1,2.43-2.07,2.64,2.64,0,0,1,1.5.57c.48.33,1.41,1,2.85,2.13,2.34,1.87,2.88,2.37,2.88,3.33a2.36,2.36,0,0,1-2.34,2.22c-.72,0-.78,0-2.4-1.44-2.52.21-3.57.24-7.17.39-.3.6-.45.87-.66,1.26h11.88a1.91,1.91,0,0,1,2.22,1.89c0,1.86-1.8,1.86-2.22,1.86h-4.26l1.23.84A17.39,17.39,0,0,0,116.84,20c1.77.69,2.37.93,2.37,2.22a2.29,2.29,0,0,1-2,2.46c-1.17,0-3.21-1.32-4.44-2.16a23.82,23.82,0,0,1-5.25-4.77h-4.89a26.57,26.57,0,0,1-4,3.69,18.63,18.63,0,0,0,5.07-1.89c1.74-.93,1.83-1,2.28-1a1.8,1.8,0,0,1,1.65,1.8c0,.63-.12,1-2.58,2.19a23.82,23.82,0,0,1-7.71,2.28c-.93,0-1.32-.81-1.41-1.53a6.64,6.64,0,0,1-3.09,1.2,2.22,2.22,0,0,1-2-2.4c0-1,.42-1.35,1.71-1.89A22.07,22.07,0,0,0,97,17.79H93.08a1.88,1.88,0,0,1-2.19-1.89C90.89,14,92.66,14,93.08,14Zm10.47,9.39c0,.78-.6,1.29-2.16,2.1a39.3,39.3,0,0,1-14,3.75,1.57,1.57,0,0,1-1.56-1.71c0-1.17.87-1.41,1.86-1.53,5.7-.69,9.3-1.8,12.87-3.93a2.48,2.48,0,0,1,1.23-.48A1.91,1.91,0,0,1,111.35,23.43Zm4.35,3.36c0,.72-.27,1.5-3.3,3a40.43,40.43,0,0,1-16.62,4,1.82,1.82,0,0,1-2-1.95c0-1.59,1.23-1.71,2.52-1.83,7.41-.66,12.12-2.22,15.78-4.77a2.83,2.83,0,0,1,1.62-.66A2.23,2.23,0,0,1,115.7,26.79Z"/><path class="cls-2" d="M124.49,14.85c-1,0-2.19-.24-2.19-2s.45-2.43,2.19-2.43H126V7.5c0-.77.12-2.21,2-2.21,1.59,0,2.37.5,2.37,2.21v2.88h2c1.56,0,2.67,0,3.51,1,.69.78.72,1.5.72,3.93,0,2.16-.15,8.76-.3,11.07-.42,6.54-1,7.5-5.07,7.5a5.76,5.76,0,0,1-2.43-.33,2.65,2.65,0,0,1-1-2.25,2.34,2.34,0,0,1,.84-2,1.82,1.82,0,0,1,1-.24c1.17,0,1.41,0,1.71-.72.57-1.35.72-9.75.72-12.54,0-.84-.12-.93-.87-.93h-.93c-.18,8.76-1.62,12.75-2.58,15.12-1.23,3-2.07,3.6-3,3.6a2.74,2.74,0,0,1-2.73-2.31,4.49,4.49,0,0,1,.84-2.16c1.11-2,3.12-5.55,3.12-14.25Zm25.23,14.37c0,3.15-1.44,4-4,4h-3.54c-2.46,0-4-.81-4-4V10.68c0-3.15,1.47-4,4-4h3.54c2.58,0,4,.9,4,4ZM145.4,12a.86.86,0,0,0-.93-1h-1.05a.86.86,0,0,0-.93,1V27.9a.84.84,0,0,0,.93.93h1.05a.83.83,0,0,0,.93-.93Z"/><path class="cls-2" d="M179.84,25.08c0,2.79-1.29,3.57-3.57,3.57h-1.59A26.94,26.94,0,0,0,180.29,30a1.65,1.65,0,0,1,1.59,1.74,1.93,1.93,0,0,1-2.07,2,24.5,24.5,0,0,1-6.3-1.47c-2.22-.75-2.79-1.08-2.79-2.13a2,2,0,0,1,.63-1.53h-6.6a2.36,2.36,0,0,1,.66,1.53c0,1.08-.81,1.5-3.75,2.43a31.1,31.1,0,0,1-3.54,1,10.4,10.4,0,0,1-1.83.24,2,2,0,0,1-2.07-2.1c0-1.35,1.11-1.62,1.83-1.74a24.1,24.1,0,0,0,5.4-1.32H159.8c-2.25,0-3.57-.75-3.57-3.57V19.56a4,4,0,0,1,.54-2.34,3.87,3.87,0,0,1-1.35.33c-1.14,0-1.74-1.41-1.74-2.46,0-1.38.63-1.56,2.19-2,1.26-.39,1.53-.48,3.21-1.08a5.56,5.56,0,0,1,1.77-.48c1.41,0,1.71,1.53,1.71,2.1,0,1.05-.6,1.44-2.73,2.37H163a1.94,1.94,0,0,1-.27-1.05c0-1,.6-1.35,1.29-1.56,2.25-.63,3.72-1.05,4.95-2.79a1.7,1.7,0,0,1,.63-.57h-2.4c-.9.75-2.82,2.22-3.69,2.22a2,2,0,0,1-1.89-2c0-.84.21-1,1.89-2.1a19.29,19.29,0,0,0,2.79-2.39A2,2,0,0,1,167.78,5c1,0,2.25.65,2.07,1.76h9.09c.63,0,2.64,0,2.64,1.92a6.73,6.73,0,0,1-.9,2.91c-.45.9-.84,1.38-1.74,1.38-.09,0-2.43-.06-2.43-1.56,0-.18.06-.3.36-.9a.57.57,0,0,0,.09-.27c0-.24-.33-.24-.39-.24h-3.3c.42.18.48.27,1,.9a8.26,8.26,0,0,0,4.32,2.46c2.55.54,2.82.6,3.21,1a1.76,1.76,0,0,1,.36,1.17c0,1.32-.72,2.37-1.86,2.37a3.88,3.88,0,0,1-.72-.09,5.2,5.2,0,0,1,.24,1.74ZM156.5,5.71a9.77,9.77,0,0,1,3.21,1c1,.42,1.8.77,1.8,1.82a2.23,2.23,0,0,1-2,2.31c-.36,0-.57-.09-2.25-.84-.3-.12-1.65-.62-1.92-.78a1.43,1.43,0,0,1-.72-1.44C154.61,7.21,155.12,5.71,156.5,5.71Zm18.75,13.85v-.45a.51.51,0,0,0-.57-.57H161.36a.5.5,0,0,0-.57.57v.45Zm-14.46,2.13v1h14.46v-1Zm0,3.21v.51a.51.51,0,0,0,.57.57h13.32a.52.52,0,0,0,.57-.57V24.9ZM175.13,16a12.5,12.5,0,0,1-3.57-3.18,9.62,9.62,0,0,1-4,3.18Z"/><path class="cls-2" d="M209.21,7.35c1,0,3.33,0,3.33,2.85A4.63,4.63,0,0,1,211.4,13a19.14,19.14,0,0,1-2.94,3.3,25,25,0,0,0,3.63,1.41c.9.3,1.83.63,1.83,2A2.59,2.59,0,0,1,212.66,22a2.18,2.18,0,0,1-1.23.12c.72.72.75,1.65.75,3.06v4.26c0,3.18-.66,3.78-4.05,3.78H201.5c-3.39,0-4.05-.57-4.05-3.78V25.2a4.73,4.73,0,0,1,.51-2.82,1.82,1.82,0,0,1-.93-.21c-.12.6-.72,2.16-1.89,2.16-.84,0-1.2-.66-1.68-1.53v9c0,.87-.18,2.19-2,2.19-1.41,0-2.28-.42-2.28-2.19V24.18c-.9,2.31-1.5,3-2.37,3a2.31,2.31,0,0,1-2-2.55c0-.78.24-1.29,1.23-2.82a25.5,25.5,0,0,0,3.09-7h-1.62c-.57,0-2.25,0-2.25-2,0-1.47.51-2.25,2.25-2.25h1.65V7.48c0-1.15.3-2.13,2.13-2.13,1.38,0,2.1.5,2.1,2.13v3.14h.72A1.59,1.59,0,0,1,196,11.73c.3-.27,1.62-1.41,1.86-1.65a18.15,18.15,0,0,0,2.85-4,1.85,1.85,0,0,1,1.74-.89c.84,0,2.64.44,2.4,2.12Zm-15.75,8.58a24.93,24.93,0,0,0,2.28,3.6c.15-.72.45-1.11,1.56-1.5a32,32,0,0,0,4.35-1.8,22,22,0,0,1-1.77-2c-.75.78-1.35,1.26-2.07,1.26a2.24,2.24,0,0,1-2-1.35,1.65,1.65,0,0,1-1.62.69h-.72ZM205,19.05a36,36,0,0,1-4.23,2.37h8.43A23.43,23.43,0,0,1,205,19.05Zm2.91,6.84a.57.57,0,0,0-.63-.63h-4.92a.57.57,0,0,0-.63.63v2.7a.57.57,0,0,0,.63.63h4.92a.57.57,0,0,0,.63-.63Zm-5.34-14.64A12.85,12.85,0,0,0,205,14c1.38-1.11,2.25-2.13,2.25-2.46a.38.38,0,0,0-.42-.33Z"/><path class="cls-2" d="M239.43,13.7a2.2,2.2,0,0,1,2.27,2.38c0,1.68-1.15,2-3,2.35a44.58,44.58,0,0,0-11.4,3.39c-1,.48-3.94,2-3.94,4.51,0,2.24,1.73,3.08,6.77,3.08a41.13,41.13,0,0,0,7-.62,17.57,17.57,0,0,1,2-.25,2,2,0,0,1,2.24,2.3c0,1.51-.83,2-2,2.24a48.63,48.63,0,0,1-8.49.67c-4.56,0-12.29-.37-12.29-7a8.2,8.2,0,0,1,3.5-6.58,26.9,26.9,0,0,1,4.34-2.47,38.85,38.85,0,0,0-1.12-4.87,11.12,11.12,0,0,1-.56-2.41c0-1.42,1.29-2,2.49-2,2,0,2.16.84,2.72,3.67,0,.17.64,3.67.67,3.95C233.16,15.1,238.17,13.7,239.43,13.7Z"/><path class="cls-2" d="M256.28,14A6.15,6.15,0,0,0,257,12.9c-2.07.06-5.73.12-7.83.12-.87,0-2.19,0-2.19-1.86a1.68,1.68,0,0,1,1.89-1.8c1,0,2.07,0,3,0,.45-.68.69-1,1.56-2.43.75-1.17,1.2-1.86,2.46-1.86.87,0,2.67.34,2.67,1.69,0,.38,0,.75-1.65,2.69h1.17c2.22,0,4.44-.06,6.63-.09-1-.87-1.23-1.08-1.23-1.68a2.4,2.4,0,0,1,2.43-2.07,2.64,2.64,0,0,1,1.5.57c.48.33,1.41,1,2.85,2.13,2.34,1.87,2.88,2.37,2.88,3.33a2.36,2.36,0,0,1-2.34,2.22c-.72,0-.78,0-2.4-1.44-2.52.21-3.57.24-7.17.39-.3.6-.45.87-.66,1.26h11.88a1.91,1.91,0,0,1,2.22,1.89c0,1.86-1.8,1.86-2.22,1.86h-4.26l1.23.84A17.39,17.39,0,0,0,272.24,20c1.77.69,2.37.93,2.37,2.22a2.29,2.29,0,0,1-2,2.46c-1.17,0-3.21-1.32-4.44-2.16a23.82,23.82,0,0,1-5.25-4.77H258a26.57,26.57,0,0,1-4,3.69,18.63,18.63,0,0,0,5.07-1.89c1.74-.93,1.83-1,2.28-1a1.8,1.8,0,0,1,1.65,1.8c0,.63-.12,1-2.58,2.19a23.82,23.82,0,0,1-7.71,2.28c-.93,0-1.32-.81-1.41-1.53a6.64,6.64,0,0,1-3.09,1.2,2.22,2.22,0,0,1-2-2.4c0-1,.42-1.35,1.71-1.89a22.07,22.07,0,0,0,4.38-2.46h-3.87a1.88,1.88,0,0,1-2.19-1.89c0-1.86,1.77-1.86,2.19-1.86Zm10.47,9.39c0,.78-.6,1.29-2.16,2.1a39.3,39.3,0,0,1-13.95,3.75,1.57,1.57,0,0,1-1.56-1.71c0-1.17.87-1.41,1.86-1.53,5.7-.69,9.3-1.8,12.87-3.93a2.48,2.48,0,0,1,1.23-.48A1.91,1.91,0,0,1,266.75,23.43Zm4.35,3.36c0,.72-.27,1.5-3.3,3a40.43,40.43,0,0,1-16.62,4,1.82,1.82,0,0,1-2-1.95c0-1.59,1.23-1.71,2.52-1.83,7.41-.66,12.12-2.22,15.78-4.77a2.83,2.83,0,0,1,1.62-.66A2.23,2.23,0,0,1,271.1,26.79Z"/><path class="cls-2" d="M279.89,14.85c-1,0-2.19-.24-2.19-2s.45-2.43,2.19-2.43h1.53V7.5c0-.77.12-2.21,2-2.21,1.59,0,2.37.5,2.37,2.21v2.88h2c1.56,0,2.67,0,3.51,1,.69.78.72,1.5.72,3.93,0,2.16-.15,8.76-.3,11.07-.42,6.54-1,7.5-5.07,7.5a5.76,5.76,0,0,1-2.43-.33,2.65,2.65,0,0,1-1-2.25,2.34,2.34,0,0,1,.84-2,1.82,1.82,0,0,1,1-.24c1.17,0,1.41,0,1.71-.72.57-1.35.72-9.75.72-12.54,0-.84-.12-.93-.87-.93h-.93c-.18,8.76-1.62,12.75-2.58,15.12-1.23,3-2.07,3.6-3,3.6a2.74,2.74,0,0,1-2.73-2.31,4.49,4.49,0,0,1,.84-2.16c1.11-2,3.12-5.55,3.12-14.25Zm25.23,14.37c0,3.15-1.44,4-4,4h-3.54c-2.46,0-4-.81-4-4V10.68c0-3.15,1.47-4,4-4h3.54c2.58,0,4,.9,4,4ZM300.8,12a.86.86,0,0,0-.93-1h-1.05a.86.86,0,0,0-.93,1V27.9a.84.84,0,0,0,.93.93h1.05a.83.83,0,0,0,.93-.93Z"/><path class="cls-2" d="M329,24.51a25.84,25.84,0,0,0,6.78,3.87c1.11.45,1.56.84,1.56,1.8,0,1.23-.81,2.73-2.28,2.73s-6.12-2.79-9.36-6.33v5.25c0,1.77-.81,2.22-2.46,2.22s-2.07-1.17-2.07-2.22V26.67a30.24,30.24,0,0,1-4.32,3.69c-1.26.87-4.17,2.61-5.19,2.61-1.5,0-2.34-1.59-2.34-2.79,0-1,.48-1.41,1.5-1.8a21.18,21.18,0,0,0,7-3.87h-6.81c-1.17,0-1.89-.42-1.89-2.1a1.66,1.66,0,0,1,1.89-1.89H321.2v-.87c0-1.47,1.17-1.68,2.46-1.68,1,0,2.07.27,2.07,1.68v.87h10c.63,0,1.92,0,1.92,2s-1.35,2-1.92,2ZM331,6.81c.93,0,3,0,3,2.38,0,1.73-1.65,3.44-4.65,5.39a44.27,44.27,0,0,0,6.24.72c1.41.09,2.07.45,2.07,1.89,0,2-1.11,2.43-2.1,2.43a41.13,41.13,0,0,1-11.73-2.49,58.15,58.15,0,0,1-12.45,2.52,1.86,1.86,0,0,1-1.53-.63,3.13,3.13,0,0,1-.51-1.74c0-1.8,1.23-1.89,2.34-2a59.67,59.67,0,0,0,6.93-.93,24.73,24.73,0,0,1-2.4-2A14.11,14.11,0,0,1,311.45,14c-1.65,0-1.95-1.89-1.95-2.49,0-1.23.84-1.56,1.62-1.8a26.1,26.1,0,0,0,6.57-3.12C319.73,5.19,319.94,5,321,5c1.35,0,2.82.31,2.82,1.44a.88.88,0,0,1-.06.33Zm-11,3.57-.27.15a15.85,15.85,0,0,0,4,2.43,11.51,11.51,0,0,0,3.18-1.65c.54-.42.6-.48.6-.66s-.27-.27-.42-.27Z"/><path class="cls-2" d="M348.11,31.74A2,2,0,0,1,346,34c-2,0-2.31-1-2.31-2.22V20.64a1.62,1.62,0,0,1-1,.24,2.58,2.58,0,0,1-2.37-2.73,2.93,2.93,0,0,1,.72-1.92,25.88,25.88,0,0,0,4.29-9.5,1.74,1.74,0,0,1,1.89-1.35c.45,0,2.43.08,2.43,1.83,0,.38-.12,1.82-1.56,5.78Zm9.36-21.57V7.5a1.92,1.92,0,0,1,2.16-2.21c1.83,0,2.52.56,2.52,2.21v2.67h4.11a1.91,1.91,0,0,1,2.22,2.07c0,1.56-.57,2.31-2.22,2.31h-4.11v5.52h4.77c1,0,2.22.24,2.22,2s-.54,2.43-2.25,2.43h-4.74v7.2c0,.87-.15,2.22-2.13,2.22s-2.55-.6-2.55-2.22v-7.2h-6.84a1.91,1.91,0,0,1-2.22-2.07c0-1.74.63-2.4,2.22-2.4h6.84V14.55H354c-1.56,3.75-2,4.29-3.12,4.29a2.49,2.49,0,0,1-2.52-2.16c0-.51.09-.72,1.08-2.7a24.85,24.85,0,0,0,2.13-6.18C351.8,6.9,352,6,353.51,6c.81,0,2.31.38,2.31,1.73a12,12,0,0,1-.42,2.4Z"/></svg>