<svg id="materials" xmlns="http://www.w3.org/2000/svg" xmlns:xlink="http://www.w3.org/1999/xlink" viewBox="0 0 100 100"><defs><style>.cls-1{fill:none;}.cls-2{clip-path:url(#clip-path);}.cls-3{opacity:0.7;}.cls-4{fill:#b3aed8;}.cls-5{fill:#433b76;}.cls-6{fill:#9e98c6;}.cls-7{clip-path:url(#clip-path-2);}.cls-8{fill:#9791c0;}.cls-9{fill:#615990;}.cls-10{fill:#8881b2;}.cls-11{clip-path:url(#clip-path-3);}.cls-12{clip-path:url(#clip-path-4);}.cls-13{clip-path:url(#clip-path-5);}</style><clipPath id="clip-path"><rect class="cls-1" width="100" height="100"/></clipPath><clipPath id="clip-path-2"><path class="cls-1" d="M8.91,87.59S9.73,98.07,3.77,104s-16.44,5.14-16.44,5.14-.82-10.49,5.14-16.44S8.91,87.59,8.91,87.59Z"/></clipPath><clipPath id="clip-path-3"><path class="cls-1" d="M108.92,87.59s.82,10.48-5.14,16.44-16.44,5.14-16.44,5.14-.82-10.49,5.14-16.44S108.92,87.59,108.92,87.59Z"/></clipPath><clipPath id="clip-path-4"><path class="cls-1" d="M108.92-12.42S109.74-1.94,103.78,4,87.34,9.16,87.34,9.16,86.52-1.32,92.48-7.28,108.92-12.42,108.92-12.42Z"/></clipPath><clipPath id="clip-path-5"><path class="cls-1" d="M8.91-12.42S9.73-1.94,3.77,4-12.67,9.16-12.67,9.16-13.49-1.32-7.53-7.28,8.91-12.42,8.91-12.42Z"/></clipPath></defs><title>error-background-main-color</title><g class="cls-2"><g class="cls-3"><path class="cls-4" d="M8.82,109.87c-11.35,11.36-28.67,12.52-38.59,2.6s-8.77-27.24,2.59-38.6,28.67-12.52,38.6-2.59S20.18,98.52,8.82,109.87Z"/><path class="cls-5" d="M-26.59,74.46c11.05-11,27.8-12.21,37.42-2.59s8.45,26.37-2.6,37.42-27.8,12.21-37.41,2.59-8.46-26.37,2.59-37.42m-1.18-1.18C-39.45,85-40.61,102.81-30.36,113.06s28.09,9.08,39.77-2.6S22.26,80.94,12,70.69-16.09,61.6-27.77,73.28Z"/><path class="cls-5" d="M3.68,76.71c2.05,2,2.3,5.11.56,6.85S-.57,85.05-2.62,83s-2.29-5.11-.55-6.85S1.63,74.66,3.68,76.71Z"/><path class="cls-6" d="M4.21,104.47c-6.09,6.09-16.49,5.35-16.93,5.32a.62.62,0,0,1-.57-.57c0-.44-.77-10.84,5.32-16.94S8.52,86.93,9,87a.61.61,0,0,1,.57.58C9.57,88,10.31,98.38,4.21,104.47Z"/><path class="cls-5" d="M-7.53,92.73c6-6,16.44-5.14,16.44-5.14S9.73,98.07,3.77,104s-16.44,5.14-16.44,5.14-.82-10.49,5.14-16.44m-.88-.89c-6.3,6.3-5.54,17-5.5,17.42a1.24,1.24,0,0,0,1.14,1.15c.46,0,11.13.8,17.43-5.5s5.53-17,5.5-17.42A1.26,1.26,0,0,0,9,86.34c-.44,0-11.12-.79-17.41,5.5Z"/><g class="cls-7"><path class="cls-5" d="M-2.73,97.52A80.15,80.15,0,0,1,10,86.93v-.59A79.9,79.9,0,0,0-3.08,97.18a80.33,80.33,0,0,0-10.84,13.14h.6A80.14,80.14,0,0,1-2.73,97.52Z"/><path class="cls-5" d="M-2.73,97.52l.29.29a80,80,0,0,1,12.7-10.53l.18-.11V85.61l-.6.39A80.15,80.15,0,0,0-3.37,96.88a80.27,80.27,0,0,0-10.9,13.21l-.42.67h1.61l.11-.18A80.25,80.25,0,0,1-2.46,97.83h0l-.29-.29-.29-.3h0a81,81,0,0,0-10.62,12.82l.35.23v-.42h-.59v.42l.35.22a79.7,79.7,0,0,1,10.77-13A79.82,79.82,0,0,1,10.28,86.69l-.22-.35H9.65v.59h.41l-.22-.35A80.36,80.36,0,0,0-3,97.23l.3.29-.29-.3Z"/></g><path class="cls-4" d="M108.83,109.87c-11.36,11.36-28.67,12.52-38.6,2.6s-8.76-27.24,2.6-38.6,28.67-12.52,38.59-2.59S120.19,98.52,108.83,109.87Z"/><path class="cls-5" d="M73.42,74.46c11-11,27.8-12.21,37.41-2.59s8.46,26.37-2.59,37.42-27.8,12.21-37.42,2.59-8.45-26.37,2.6-37.42m-1.18-1.18C60.56,85,59.39,102.81,69.65,113.06s28.09,9.08,39.77-2.6S122.26,80.94,112,70.69,83.92,61.6,72.24,73.28Z"/><path class="cls-8" d="M92.35,62.54c-5,5-12.24,6.23-17.63,3l-2-1.17L75,64a5.3,5.3,0,0,0,2.91-1.69c.53-.53,1-1.14,1.57-1.78s1.21-1.43,1.91-2.13c4.34-4.34,7.65-11.16,2.7-16.11a10.34,10.34,0,0,0-2-1.54l-2-1.17,2.26-.36A12.63,12.63,0,0,1,93.57,42.6C98.74,47.76,98.19,56.71,92.35,62.54Z"/><path class="cls-5" d="M82.54,40.06A11.83,11.83,0,0,1,93,43.19C97.83,48,97.28,56.44,91.76,62,87,66.73,80.07,67.77,75.15,64.84a6.13,6.13,0,0,0,3.37-1.93c1.14-1.14,2.17-2.6,3.47-3.9,5.52-5.52,7.55-12.44,2.71-17.29a11.6,11.6,0,0,0-2.16-1.66m-4.78-.91,3.93,2.34a9.6,9.6,0,0,1,1.83,1.41c3,3,3.8,8.43-2.7,14.93-.73.73-1.35,1.47-1.95,2.19a18.74,18.74,0,0,1-1.53,1.72,4.45,4.45,0,0,1-2.46,1.45l-4.51.74,3.93,2.34c5.72,3.41,13.38,2.12,18.64-3.14C99.1,57,99.65,47.5,94.16,42a13.49,13.49,0,0,0-11.88-3.6Z"/><path class="cls-8" d="M63.33,93.05c-5.84,5.83-14.78,6.38-19.95,1.22A12.68,12.68,0,0,1,40,83.1l.37-2.25,1.17,2a9.61,9.61,0,0,0,1.54,2c5,5,11.77,1.64,16.11-2.7.7-.7,1.43-1.31,2.13-1.9a17.84,17.84,0,0,0,1.77-1.57,5.27,5.27,0,0,0,1.69-2.92l.37-2.26,1.17,2C69.56,80.81,68.32,88.06,63.33,93.05Z"/><path class="cls-5" d="M40.84,83.24a11.26,11.26,0,0,0,1.67,2.15c4.85,4.85,11.77,2.82,17.29-2.7,1.3-1.3,2.76-2.33,3.9-3.47a6.15,6.15,0,0,0,1.93-3.38c2.93,4.93,1.88,11.85-2.89,16.62C57.22,98,48.82,98.53,44,93.68a11.89,11.89,0,0,1-3.13-10.44M40,78.46,39.2,83a13.48,13.48,0,0,0,3.59,11.89c5.49,5.48,15,4.94,21.13-1.22,5.26-5.26,6.55-12.93,3.14-18.65l-2.35-3.93L64,75.58A4.47,4.47,0,0,1,62.52,78c-.5.5-1.09,1-1.71,1.52a25,25,0,0,0-2.19,2c-6.5,6.5-12,5.66-14.93,2.7a9.35,9.35,0,0,1-1.42-1.83Z"/><path class="cls-9" d="M84.73,85A40,40,0,0,1,64.54,96.19l-.42.08-.71-.68C53,85.18,51.69,69.55,60.49,60.74s24.44-7.49,34.85,2.92l.68.71-.08.42A40.08,40.08,0,0,1,84.73,85Z"/><path class="cls-5" d="M61.08,61.33c8.49-8.49,23.57-7.18,33.67,2.92l.37.39a39,39,0,0,1-11,19.75,39,39,0,0,1-19.75,11L64,95C53.9,84.9,52.59,69.82,61.08,61.33M59.9,60.15c-9.12,9.13-7.81,25.29,2.93,36l.26.26.14.13.62.6L64.7,97A40.79,40.79,0,0,0,85.32,85.57,40.71,40.71,0,0,0,96.75,65l.17-.85-.6-.62-.13-.14-.26-.26C85.19,52.34,69,51,59.9,60.15Z"/><path class="cls-10" d="M91.92,97.8,81.8,87.67a38.54,38.54,0,0,1-17.26,8.52l-.42.08-.71-.68a31.76,31.76,0,0,1-3.32-3.91l-.74-1,1.25-.26a37.3,37.3,0,0,0,15.94-8L58,63.84l.4-.57A18.82,18.82,0,0,1,63,58.62l.57-.4L82.16,76.79a37.3,37.3,0,0,0,8-15.94l.26-1.25,1,.74a31.76,31.76,0,0,1,3.91,3.32l.68.71-.08.42a38.54,38.54,0,0,1-8.52,17.26L97.55,92.17Z"/><path class="cls-5" d="M61.08,61.33a19.33,19.33,0,0,1,2.42-2l14,14L82.21,78a38.36,38.36,0,0,0,8.73-17,30.12,30.12,0,0,1,3.81,3.23l.37.39a38.2,38.2,0,0,1-8.83,17.45l10.08,10.1-4.45,4.45L81.84,86.54a38.2,38.2,0,0,1-17.45,8.83L64,95a30.12,30.12,0,0,1-3.23-3.81,38.36,38.36,0,0,0,17-8.73l-4.69-4.68-14-14a19.33,19.33,0,0,1,2-2.42M59.9,60.15a20.61,20.61,0,0,0-2.21,2.64l-.81,1.14,1,1,14,14,3.4,3.4a35.94,35.94,0,0,1-14.87,7.21l-2.51.53,1.5,2.08a33.35,33.35,0,0,0,3.41,4l.26.26.14.13.62.6L64.7,97a39.07,39.07,0,0,0,17-8.21l9,9L91.92,99l1.18-1.2,4.45-4.45,1.18-1.18L97.55,91l-9-9a39.07,39.07,0,0,0,8.21-17l.17-.85-.6-.62-.13-.14-.26-.26a33.35,33.35,0,0,0-4-3.41l-2.08-1.5-.53,2.51A35.91,35.91,0,0,1,82.1,75.55l-3.4-3.4-14-14-1-1L62.56,58A21.5,21.5,0,0,0,59.9,60.15Z"/><path class="cls-5" d="M82.94,97.45c2,2,2.3,5.12.56,6.86s-4.81,1.49-6.86-.56-2.29-5.11-.55-6.85S80.89,95.41,82.94,97.45Z"/><path class="cls-5" d="M103.69,76.71c2,2,2.29,5.11.55,6.85s-4.81,1.49-6.85-.56-2.3-5.11-.56-6.85S101.64,74.66,103.69,76.71Z"/><path class="cls-6" d="M104.22,104.47c-6.09,6.09-16.49,5.35-16.93,5.32a.62.62,0,0,1-.58-.57c0-.44-.77-10.84,5.32-16.94s16.5-5.35,17-5.28a.62.62,0,0,1,.57.58C109.57,88,110.31,98.38,104.22,104.47Z"/><path class="cls-5" d="M92.48,92.73c6-6,16.44-5.14,16.44-5.14s.82,10.48-5.14,16.44-16.44,5.14-16.44,5.14-.82-10.49,5.14-16.44m-.89-.89c-6.29,6.3-5.53,17-5.5,17.42a1.26,1.26,0,0,0,1.15,1.15c.45,0,11.13.8,17.42-5.5s5.54-17,5.5-17.42A1.24,1.24,0,0,0,109,86.34C108.56,86.31,97.89,85.55,91.59,91.84Z"/><g class="cls-11"><path class="cls-5" d="M97.27,97.52A81.15,81.15,0,0,1,110,86.93v-.59a89.26,89.26,0,0,0-24,24h.6A80.34,80.34,0,0,1,97.27,97.52Z"/><path class="cls-5" d="M97.27,97.52l.3.29a79.56,79.56,0,0,1,12.7-10.53l.17-.11v-1.6l-.66.42a89.18,89.18,0,0,0-24.11,24.1l-.42.67h1.6l.12-.18A79.27,79.27,0,0,1,97.55,97.83h0l-.3-.29-.29-.3h0a80.56,80.56,0,0,0-10.62,12.82l.35.23v-.42H86.1v.42l.35.22a88.86,88.86,0,0,1,23.84-23.82l-.22-.35h-.42v.59h.41l-.22-.35A80.36,80.36,0,0,0,97,97.23l.29.29-.29-.3Z"/></g><circle class="cls-6" cx="65.68" cy="65.93" r="1.87"/><circle class="cls-6" cx="71.13" cy="71.38" r="1.87"/><circle class="cls-6" cx="76.58" cy="76.83" r="1.87"/><circle class="cls-6" cx="82.02" cy="82.27" r="1.87"/><circle class="cls-6" cx="87.36" cy="75.95" r="1.87"/><circle class="cls-6" cx="91.13" cy="69.01" r="1.87"/><circle class="cls-6" cx="75.12" cy="88.2" r="1.87"/><circle class="cls-6" cx="67.99" cy="91.79" r="1.87"/><circle class="cls-6" cx="87.47" cy="87.72" r="1.87"/><path class="cls-4" d="M108.83,9.87c-11.36,11.35-28.67,12.52-38.6,2.59s-8.76-27.24,2.6-38.59,28.67-12.52,38.59-2.6S120.19-1.49,108.83,9.87Z"/><path class="cls-5" d="M73.42-25.55c11-11,27.8-12.21,37.41-2.59s8.46,26.37-2.59,37.42-27.8,12.21-37.42,2.59-8.45-26.37,2.6-37.42m-1.18-1.17C60.56-15,59.39,2.8,69.65,13.05s28.09,9.09,39.77-2.59S122.26-19.07,112-29.32,83.92-38.4,72.24-26.72Z"/><path class="cls-5" d="M82.94-2.55c2,2,2.3,5.11.56,6.85s-4.81,1.49-6.86-.56-2.29-5.11-.55-6.85S80.89-4.6,82.94-2.55Z"/><path class="cls-6" d="M104.22,4.46c-6.09,6.1-16.49,5.36-16.93,5.32a.61.61,0,0,1-.58-.57c0-.44-.77-10.84,5.32-16.93s16.5-5.36,17-5.28a.62.62,0,0,1,.57.57C109.57-12,110.31-1.63,104.22,4.46Z"/><path class="cls-5" d="M92.48-7.28c6-6,16.44-5.14,16.44-5.14S109.74-1.94,103.78,4,87.34,9.16,87.34,9.16,86.52-1.32,92.48-7.28m-.89-.88c-6.29,6.29-5.53,17-5.5,17.42a1.26,1.26,0,0,0,1.15,1.15c.45,0,11.13.79,17.42-5.5s5.54-17,5.5-17.43A1.22,1.22,0,0,0,109-13.66C108.56-13.7,97.89-14.46,91.59-8.16Z"/><g class="cls-12"><path class="cls-5" d="M97.27-2.49A81.09,81.09,0,0,1,110-13.07v-.6A79.83,79.83,0,0,0,96.93-2.83,79.83,79.83,0,0,0,86.09,10.31h.6A80.61,80.61,0,0,1,97.27-2.49Z"/><path class="cls-5" d="M97.27-2.49l.3.3a79.12,79.12,0,0,1,12.7-10.53l.17-.12v-1.6l-.66.42A80.34,80.34,0,0,0,96.63-3.12,80.21,80.21,0,0,0,85.74,10.09l-.42.66h1.6l.12-.18A79.2,79.2,0,0,1,97.55-2.17h0l-.3-.3L97-2.79h0A80.5,80.5,0,0,0,86.34,10.06l.35.22V9.87H86.1v.42l.35.22a79.7,79.7,0,0,1,10.77-13,79,79,0,0,1,13.07-10.78l-.22-.36h-.42v.58h.41l-.22-.35A80.42,80.42,0,0,0,97-2.78l.29.29L97-2.79Z"/></g><path class="cls-4" d="M8.82,9.87C-2.53,21.22-19.85,22.39-29.77,12.46s-8.77-27.24,2.59-38.59,28.67-12.52,38.6-2.6S20.18-1.49,8.82,9.87Z"/><path class="cls-5" d="M-26.59-25.55c11.05-11,27.8-12.21,37.42-2.59S19.28-1.77,8.23,9.28s-27.8,12.21-37.41,2.59-8.46-26.37,2.59-37.42m-1.18-1.17C-39.45-15-40.61,2.8-30.36,13.05s28.09,9.09,39.77-2.59S22.26-19.07,12-29.32-16.09-38.4-27.77-26.72Z"/><path class="cls-6" d="M4.21,4.46c-6.09,6.1-16.49,5.36-16.93,5.32a.61.61,0,0,1-.57-.57c0-.44-.77-10.84,5.32-16.93S8.52-13.08,9-13a.61.61,0,0,1,.57.57C9.57-12,10.31-1.63,4.21,4.46Z"/><path class="cls-5" d="M-7.53-7.28c6-6,16.44-5.14,16.44-5.14S9.73-1.94,3.77,4-12.67,9.16-12.67,9.16-13.49-1.32-7.53-7.28m-.88-.88c-6.3,6.29-5.54,17-5.5,17.42a1.24,1.24,0,0,0,1.14,1.15c.46,0,11.13.79,17.43-5.5s5.53-17,5.5-17.43A1.24,1.24,0,0,0,9-13.66C8.56-13.7-2.12-14.46-8.41-8.16Z"/><g class="cls-13"><path class="cls-5" d="M-2.73-2.49A80.09,80.09,0,0,1,10-13.07v-.6A79.9,79.9,0,0,0-3.08-2.83,80.33,80.33,0,0,0-13.92,10.31h.6A80.67,80.67,0,0,1-2.73-2.49Z"/><path class="cls-5" d="M-2.73-2.49l.29.3a79.56,79.56,0,0,1,12.7-10.53l.18-.12v-1.55l-.6.39A80.15,80.15,0,0,0-3.37-3.12a79.77,79.77,0,0,0-10.9,13.21l-.42.66h1.61l.11-.18A79.2,79.2,0,0,1-2.46-2.17h0l-.29-.3L-3-2.79h0A80.56,80.56,0,0,0-13.67,10.06l.35.22V9.87h-.59v.42l.35.22a79.25,79.25,0,0,1,10.78-13A79.4,79.4,0,0,1,10.28-13.31l-.22-.36H9.65v.58h.41l-.22-.35A80.42,80.42,0,0,0-3-2.78l.3.29-.3-.3Z"/></g></g></g></svg>