<svg id="レイヤー_1" data-name="レイヤー 1" xmlns="http://www.w3.org/2000/svg" viewBox="0 0 300 40"><defs><style>.cls-1{fill:#fff;}.cls-2{fill:#474747;}</style></defs><title>faq-page-title</title><path class="cls-1" d="M12.52,35.17C6,35.17,2,31.94,2,26.75s4.26-8.56,10.88-8.66l-.29-9a4.41,4.41,0,0,1,1.12-3.36A4.42,4.42,0,0,1,17.05,4.5c2.95,0,4.64,1.66,4.64,4.55v.13c.84,0,1.94,0,3.45-.12.3,0,1.05,0,1.58-.06l.68,0a4,4,0,0,1,4.22,4.37c0,1.52-.56,4.12-4.28,4.39l-.3,0c-.73,0-2.65.12-5.2.16l.05,1.86a30.29,30.29,0,0,1,8.63,5,4.78,4.78,0,0,1,2,3.75,5,5,0,0,1-4.73,5.06c-1.94,0-3.14-1.2-4.65-2.72a14.61,14.61,0,0,0-1.63-1.44,6.89,6.89,0,0,1-1.76,3.34C18.19,34.36,15.75,35.17,12.52,35.17ZM10.76,26.7a3.21,3.21,0,0,0,1.28.21,3.57,3.57,0,0,0,.89-.08c0-.1,0-.26,0-.54h0A4.43,4.43,0,0,0,10.76,26.7Z"/><path class="cls-2" d="M17.05,6.5c1.95,0,2.64.84,2.64,2.55v2.13h1c1,0,2.34,0,4.56-.12.3,0,2.07-.09,2.16-.09a2.09,2.09,0,0,1,2.22,2.37c0,2.28-1.68,2.34-2.49,2.4-.66,0-3.57.18-7.35.18l.15,5.25a30.31,30.31,0,0,1,9.27,5.1c.84.75,1.32,1.29,1.32,2.25a3,3,0,0,1-2.73,3.06c-1.11,0-1.86-.75-3.24-2.13a15.85,15.85,0,0,0-4.8-3.39c.06,2.58.15,7.11-7.23,7.11C8.08,33.17,4,31.4,4,26.75c0-4.2,3.69-6.66,9.18-6.66a13.41,13.41,0,0,1,1.77.09L14.59,9.05A2.17,2.17,0,0,1,17.05,6.5M12,28.91c.72,0,2.13-.06,2.61-1,.3-.6.33-.9.33-3.39a8.1,8.1,0,0,0-2-.24c-1,0-4.2.15-4.2,2.43,0,1.89,2.1,2.19,3.3,2.19m5-26.41a6.38,6.38,0,0,0-4.78,1.87,6.38,6.38,0,0,0-1.68,4.84l.23,7C4.26,17,0,21,0,26.75c0,6.33,4.91,10.42,12.52,10.42,3.79,0,6.71-1,8.66-3a9.4,9.4,0,0,0,1.08-1.35c1.48,1.45,3.08,2.77,5.53,2.77a7,7,0,0,0,6.73-7.06,6.77,6.77,0,0,0-2.66-5.23,26.58,26.58,0,0,0-5.19-3.52l.47,0h.34c3-.22,6.14-2,6.14-6.39A6,6,0,0,0,27.4,7l-.77,0-1.41.06h-.17l-1.58.07c-.69-2.9-3-4.63-6.42-4.63Z"/><path class="cls-1" d="M55.13,35.44a6.11,6.11,0,0,1-3.61-1.32l-.5-.36a64.26,64.26,0,0,0-10.23-6.34l-1.72-.82c-1.59-.76-2.75-1.32-3.17-1.54a5.5,5.5,0,0,1-3.29-5A5.71,5.71,0,0,1,36,15l.1-.06c9.8-5.66,10.82-6.25,14-8.84a5.49,5.49,0,0,1,3.58-1.53,4.51,4.51,0,0,1,4.7,4.37c0,2-1.18,3.24-3.21,4.62a96.12,96.12,0,0,1-10.93,6.29,96.26,96.26,0,0,1,12.07,6.33c1.61,1,3.42,2.19,3.42,4.69A4.73,4.73,0,0,1,55.13,35.44Z"/><path class="cls-2" d="M53.69,6.53a2.54,2.54,0,0,1,2.7,2.37c0,.87-.27,1.56-2.34,3A98.74,98.74,0,0,1,42.41,18.5c-1.35.69-1.74.93-1.74,1.38S41,20.54,42,21a101.57,101.57,0,0,1,13.26,6.84c1.5,1,2.49,1.59,2.49,3a2.73,2.73,0,0,1-2.61,2.61,4.15,4.15,0,0,1-2.46-1,67.83,67.83,0,0,0-11-6.84c-.78-.39-4.17-2-4.83-2.34A3.64,3.64,0,0,1,34.61,20,3.77,3.77,0,0,1,37,16.7c9.87-5.7,11.07-6.39,14.37-9.09a3.55,3.55,0,0,1,2.31-1.08m0-4a7.38,7.38,0,0,0-4.86,2c-3,2.47-4,3.05-13.7,8.64l-.12.07A7.67,7.67,0,0,0,30.61,20,7.49,7.49,0,0,0,35,26.83c.49.26,1.6.8,3.22,1.57.75.36,1.41.67,1.7.82a62.18,62.18,0,0,1,10,6.17l.49.35a8.05,8.05,0,0,0,4.77,1.7,6.71,6.71,0,0,0,6.61-6.61c0-3.59-2.6-5.26-4.32-6.36a86.39,86.39,0,0,0-8.64-4.76,86,86,0,0,0,7.53-4.54c2.11-1.44,4.08-3.2,4.08-6.27a6.47,6.47,0,0,0-6.7-6.37ZM43.28,17.18Z"/><path class="cls-1" d="M79.05,35.35a4.21,4.21,0,0,1-3.84-2,4.7,4.7,0,0,1-1.2.16,4.12,4.12,0,0,1-1.47-.26,9.36,9.36,0,0,1-4.41,1.19c-4.22,0-7.28-3.44-7.28-8.18,0-4.23,2.21-7.92,6.14-10.39h-.87c-4.11,0-4.55-3-4.55-4.25,0-1,.32-4.1,4.4-4.22l2.13,0a5.33,5.33,0,0,1,.17-.66,3.86,3.86,0,0,1,4-2.57,4.49,4.49,0,0,1,3.41,1.21,3.64,3.64,0,0,1,1,1.92c2.23-.05,3.23-.09,4.83-.19l.63,0C83.8,7.05,85.69,7,86.25,7c3.24,0,4.4,2.18,4.4,4.22a3.91,3.91,0,0,1-3.41,4.14l-.46,0,.54.39a10.28,10.28,0,0,1,4.17,8.62C91.49,32,85.24,35.35,79.05,35.35Zm3-13A33.26,33.26,0,0,1,79.34,27c3.06-.35,3.32-1.49,3.32-2.83A2.47,2.47,0,0,0,82.1,22.34Z"/><path class="cls-2" d="M72.24,6.23c2.61,0,2.52,1.5,2.46,3.18,3.78-.09,4.86-.12,6.87-.24.63,0,4-.21,4.68-.21a2.08,2.08,0,0,1,2.4,2.22,1.93,1.93,0,0,1-1.71,2.16c-1.77.24-10,.42-12.48.48,0,.9,0,1.17-.06,1.56a27.12,27.12,0,0,1,3.48-.24c4.65,0,6.84,1.17,8.25,2.22a8.39,8.39,0,0,1,3.36,7c0,7.83-7.5,9-10.44,9-1.92,0-2.4-1.14-2.4-2.22,0-1.89,1.11-2,2.43-2.1,3-.24,5.58-1.26,5.58-4.86a4.4,4.4,0,0,0-1.14-3.24,4.75,4.75,0,0,0-2.37-1.35,29.24,29.24,0,0,1-5.1,8.31,2.78,2.78,0,0,1,.39,1.35A2.46,2.46,0,0,1,74,31.55a1.71,1.71,0,0,1-1.44-.63,8,8,0,0,1-4.44,1.56c-3.24,0-5.28-2.64-5.28-6.18,0-4.89,3.39-8,6.93-9.63,0-.42,0-2.37,0-2.76H66.12c-.81,0-2.55,0-2.55-2.25C63.57,9.71,65,9.47,66,9.44l3.93,0a6.82,6.82,0,0,1,.21-2c.15-.51.66-1.2,2.07-1.2m4.62,12.69a9.11,9.11,0,0,0-2.55.27,24.71,24.71,0,0,0,.21,4.17,19.37,19.37,0,0,0,2.34-4.44M68.7,28.31a4.25,4.25,0,0,0,2.1-1,27.35,27.35,0,0,1-1-6.15,6,6,0,0,0-2.67,4.95c0,.33,0,2.16,1.59,2.16M72.24,2.23a6,6,0,0,0-5.57,3.21h-.76c-4.68.14-6.34,3.44-6.34,6.22a6,6,0,0,0,2.91,5.39,13.5,13.5,0,0,0-3.63,9.25c0,5.9,3.9,10.18,9.28,10.18a11,11,0,0,0,4.61-1,6.59,6.59,0,0,0,1.27.12h.35a6.49,6.49,0,0,0,4.69,1.81,17.65,17.65,0,0,0,8.29-2.06,12,12,0,0,0,6.15-10.91,12.4,12.4,0,0,0-3-8.38,6.11,6.11,0,0,0,2.15-4.82A6,6,0,0,0,86.25,5c-.55,0-2,.07-4.28.18l-.59,0c-1.21.07-2.07.11-3.37.14a5.51,5.51,0,0,0-.92-1.27,6.42,6.42,0,0,0-4.85-1.82Z"/><path class="cls-1" d="M108.06,35.41c-4.25,0-6.31-.93-7.77-1.83A6.53,6.53,0,0,1,97.24,28c0-.17,0-.34,0-.5h-.39A4.58,4.58,0,0,1,92.38,23c0-2,1-2.8,3.31-4.46s4.22-3.1,6-4.47c-1.35.09-2,.13-2.26.13a4,4,0,0,1-4.4-4.31c0-1.24.44-4.15,4.49-4.28l2.2,0c5.76-.09,6.65-.1,10-.24h.55l1.12,0c4.32,0,4.79,2.87,4.79,4.1,0,2.26-.85,3.14-3.25,4.65a12.53,12.53,0,0,1,2,.7,9.65,9.65,0,0,1,5.47,9.11A10.77,10.77,0,0,1,115.85,34,18.5,18.5,0,0,1,108.06,35.41Zm2.4-13.72a6.19,6.19,0,0,1,2.86,3,3.17,3.17,0,0,0,0-.41A2.3,2.3,0,0,0,111.94,22,4.76,4.76,0,0,0,110.46,21.69Z"/><path class="cls-2" d="M113.4,7.31c.9,0,2.79,0,2.79,2.1,0,1.56-.39,1.8-3.81,3.87-1.83,1.11-3.15,2.13-3.93,2.7a8.6,8.6,0,0,1,2.82-.42,11.72,11.72,0,0,1,4.8,1,7.7,7.7,0,0,1,4.29,7.29A8.75,8.75,0,0,1,115,32.15a16.76,16.76,0,0,1-7,1.26c-3.69,0-5.46-.75-6.72-1.53A4.53,4.53,0,0,1,99.24,28c0-3.69,3.18-5.37,6.6-5.37,1.89,0,6.09.51,6.09,5.07a4.92,4.92,0,0,1-.15,1.11,4.59,4.59,0,0,0,3.57-4.56,4.3,4.3,0,0,0-2.64-4.11,8.73,8.73,0,0,0-3.36-.54c-2.4,0-5.76.54-9.54,4-2,1.83-2.16,1.95-2.94,1.95A2.59,2.59,0,0,1,94.38,23c0-1,.36-1.29,2.49-2.85,3.93-2.85,6.84-5,10-7.59a11.4,11.4,0,0,0,1-.87c-1.35,0-7.83.51-8.49.51a2.08,2.08,0,0,1-2.4-2.31c0-2.13,1.59-2.25,2.55-2.28,7.77-.12,8.46-.12,12.21-.27.3,0,1,0,1.59,0M106.83,29.6a6.53,6.53,0,0,0,1.26-.15,3.94,3.94,0,0,0,.15-1c0-1.62-1.14-2.07-2.37-2.07s-2.43.6-2.43,1.56,1.29,1.68,3.39,1.68M113.4,3.31l-1.18,0h-.57c-3.32.14-4.2.15-9.94.24l-2.17,0h-.07c-4.73.15-6.42,3.34-6.42,6.28a6,6,0,0,0,3.34,5.66l-1.87,1.36c-2.41,1.77-4.14,3-4.14,6.09a6.65,6.65,0,0,0,5,6.36,8.48,8.48,0,0,0,3.85,5.89l0,0c1.61,1,4.06,2.13,8.83,2.13a20.24,20.24,0,0,0,8.61-1.62,12.78,12.78,0,0,0,7.69-11.92,11.8,11.8,0,0,0-5.53-10.36,5.86,5.86,0,0,0,1.36-4.1c0-2.81-1.78-6.1-6.79-6.1Z"/><path class="cls-1" d="M127.35,36.22a3.92,3.92,0,0,1-4-4.1,3.45,3.45,0,0,1,2.71-3.48,6.56,6.56,0,0,1-.67-3.09V19.67c0-.14,0-.27,0-.39a4.48,4.48,0,0,1-.86-.58,3.9,3.9,0,0,1-1.43-3,5.15,5.15,0,0,1,1.06-2.88,5.32,5.32,0,0,0,.71-2.55V9.5c0-4.51,2.49-5,5.26-5.15,1.4-.06,2.71-.11,4-.26l.52-.07a20.83,20.83,0,0,1,2.4-.3,3.46,3.46,0,0,1,2.87,1.47,7.81,7.81,0,0,1,3.81-.81c1.76-.08,3.15-.17,4.56-.34l.77-.1a17.36,17.36,0,0,1,1.79-.19A3.46,3.46,0,0,1,153.71,5a4.29,4.29,0,0,1,.84,2.52,3.86,3.86,0,0,1-.33,1.66,3.4,3.4,0,0,1,1.26,2.72,3.44,3.44,0,0,1-3.76,3.65s0,.08,0,.13a5.63,5.63,0,0,1,1.31,4v5.88a6.62,6.62,0,0,1-.66,3.07,3.43,3.43,0,0,1,2.7,3.53,3.91,3.91,0,0,1-4,4A28.33,28.33,0,0,1,144,34.61c-1.88-.65-3.81-1.32-4-3.55h-1.35c-.22,2.36-2.58,3.09-5.07,3.87A24.38,24.38,0,0,1,127.35,36.22Z"/><path class="cls-2" d="M137.07,5.72a1.58,1.58,0,0,1,1.56,1.74c0,1.62-1,1.71-4,1.92-.54,0-3.42.15-3.48.18-.33.06-.33.36-.33.84h6.66c.57,0,1.77.09,1.77,1.56,0,1.11-.63,1.59-1.74,1.59h-1.11V15.2a1.59,1.59,0,0,1-.18,1h3a1.6,1.6,0,0,1-.45-1.11,3.18,3.18,0,0,1,.6-1.65,5.9,5.9,0,0,0,.75-3.09V9.44c0-2.91,1.32-3,3.75-3.06,1.92-.09,3.3-.18,4.74-.36.75-.09,2.07-.27,2.31-.27a1.57,1.57,0,0,1,1.29.51,2.22,2.22,0,0,1,.39,1.26c0,1.47-.9,1.62-3.93,1.83-1.11.06-2.91.09-4,.18-.6,0-.6.27-.6.87h7.71a1.51,1.51,0,0,1,1.77,1.5c0,1.14-.54,1.65-1.77,1.65h-2V15.2a1.44,1.44,0,0,1-.42,1.23c1.68.66,1.71,2.4,1.71,3.24v5.88c0,2.73-1.26,3.51-3.57,3.51h-1.77a32,32,0,0,0,5.82,1.41c.81.15,1.56.45,1.56,1.68a1.93,1.93,0,0,1-2,2,25.69,25.69,0,0,1-6.42-1.47c-2.07-.72-2.7-1-2.7-2.1a2,2,0,0,1,.66-1.56H135.9a2.36,2.36,0,0,1,.69,1.62c0,1.05-.9,1.47-3.69,2.34a22.78,22.78,0,0,1-5.55,1.2,2,2,0,0,1-2-2.1c0-1.38,1.14-1.56,1.77-1.68a29,29,0,0,0,5.67-1.38H131c-2.22,0-3.57-.72-3.57-3.51V19.67a4.81,4.81,0,0,1,.3-1.89h-.21a2.3,2.3,0,0,1-2.37-2c0-.51.12-.75.78-1.86a7.25,7.25,0,0,0,1-3.57V9.5c0-2.88,1-3,3.36-3.15,1.38-.06,2.76-.12,4.11-.27.45-.06,2.31-.36,2.7-.36m5.52,10.44h3.06a1.86,1.86,0,0,1-.18-1V13.55h-1.83a7.83,7.83,0,0,1-1,2.61m-13.14.15a6.56,6.56,0,0,1,1.53-.15h1.35a1.86,1.86,0,0,1-.18-1V13.55h-1.74a8,8,0,0,1-1,2.76M132,19.88h14.46V19.4a.51.51,0,0,0-.57-.57H132.54a.51.51,0,0,0-.57.57v.48m0,3.18h14.46V22H132v1.08m.57,3.18h13.32a.51.51,0,0,0,.57-.57v-.48H132v.48a.51.51,0,0,0,.57.57m4.53-24.52a20.32,20.32,0,0,0-2.7.32l-.49.07c-1.2.13-2.46.19-3.79.24-2.17.11-7.19.36-7.19,7.15v.81a3.21,3.21,0,0,1-.43,1.52,7,7,0,0,0-1.34,3.91,6,6,0,0,0,2.28,4.6v5.21a9.68,9.68,0,0,0,.21,2.07,5.49,5.49,0,0,0-2.25,4.5,5.92,5.92,0,0,0,6,6.1,25.66,25.66,0,0,0,6.77-1.39c1.69-.53,3.78-1.18,5.12-2.59a9.68,9.68,0,0,0,4,2.26A29.26,29.26,0,0,0,151,38.19a5.92,5.92,0,0,0,6-6,5.55,5.55,0,0,0-2.24-4.56,10.08,10.08,0,0,0,.2-2V19.67a9.51,9.51,0,0,0-.39-2.78,5.33,5.33,0,0,0,2.85-5,5.44,5.44,0,0,0-1-3.24,6.76,6.76,0,0,0,.09-1.14,6.25,6.25,0,0,0-1.19-3.66l-.1-.12a5.39,5.39,0,0,0-4.39-2,16.38,16.38,0,0,0-2,.21l-.75.09c-1.37.17-2.66.25-4.45.33a12.82,12.82,0,0,0-3.27.42,5.47,5.47,0,0,0-3.29-1.08Z"/><path class="cls-1" d="M159.69,36.28a3.91,3.91,0,0,1-4.28-4.22V10.13c0-2.54,1-5.57,5.54-5.57h5.46a5.46,5.46,0,0,1,4.29,1.59A5.47,5.47,0,0,1,175,4.56h5.43c3.64,0,5.57,1.93,5.57,5.57V30.86c0,2.56-1.34,4.54-3.41,5.06a25.17,25.17,0,0,1-4.35.27c-2.15,0-4.37,0-5.47-2.39a4.1,4.1,0,0,1-.23-.64h-4.32c-2.08,0-3.5-.36-4.42-1.23v.13A3.91,3.91,0,0,1,159.69,36.28Z"/><path class="cls-2" d="M180.45,6.56c2.49,0,3.57,1,3.57,3.57V30.86c0,1.41-.57,2.79-1.89,3.12a26.91,26.91,0,0,1-3.87.21c-2,0-3.09,0-3.66-1.23a3.49,3.49,0,0,1-.18-1.83c-.3,0-.51,0-1.23,0h-4.95c-3.15,0-3.78-.6-3.78-3.81V24.2c0-3.12.57-3.78,3.78-3.78h4.95c3.18,0,3.78.6,3.78,3.78v3.15a8.45,8.45,0,0,1-.15,2.07l2.07.06c.69,0,.69-.51.69-1V19.22H175c-2.25,0-3.57-.78-3.57-3.57V10.13c0-2.7,1.2-3.57,3.57-3.57h5.43m-4.71,5h3.84v-.75a.51.51,0,0,0-.57-.57h-2.7a.51.51,0,0,0-.57.57v.75m.57,4.29h3.27V14.51h-3.84v.81a.51.51,0,0,0,.57.57m-7.11,11.4h3a.54.54,0,0,0,.6-.6v-2a.55.55,0,0,0-.6-.63h-3c-.42,0-.6.24-.6.63v2a.53.53,0,0,0,.6.6M166.41,6.56c2.46,0,3.54,1,3.54,3.57v5.52c0,2.7-1.17,3.57-3.54,3.57h-4.59V32.06a2,2,0,0,1-2.13,2.22c-1.92,0-2.28-1.05-2.28-2.22V10.13c0-2.7,1.17-3.57,3.54-3.57h5.46m-4.59,5h3.84v-.75a.51.51,0,0,0-.57-.57h-2.7c-.42,0-.57.21-.57.57v.75m0,4.29h3.27a.51.51,0,0,0,.57-.57v-.81h-3.84v1.38M180.45,2.56H175a8.34,8.34,0,0,0-4.31,1,8.33,8.33,0,0,0-4.3-1H161c-4.72,0-7.54,2.83-7.54,7.57V32.06c0,3.78,2.47,6.22,6.28,6.22a5.84,5.84,0,0,0,5.57-3.44,12.72,12.72,0,0,0,3,.32h3c1.72,3,4.89,3,7,3a19.68,19.68,0,0,0,4.88-.34c3-.74,4.88-3.49,4.88-7V10.13c0-4.74-2.83-7.57-7.57-7.57Z"/></svg>