<svg id="materials" xmlns="http://www.w3.org/2000/svg" viewBox="0 0 300 40"><defs><style>.cls-1{fill:#fff;}.cls-2{fill:#474747;}</style></defs><title>faq-page-title</title><path class="cls-1" d="M8.39,34.27C3.53,34.27,3,30.84,3,29.36v-18c0-3,1.14-6.56,6.56-6.56H20.21c2.95,0,4.79,1.9,4.79,5s-1.84,5-4.79,5h-.55c2.36.36,3.78,2.11,3.78,4.75,0,3.06-1.77,4.88-4.73,4.88h-5v5C13.69,32.43,11.71,34.27,8.39,34.27Z"/><path class="cls-2" d="M20.21,6.83c1.29,0,2.79.48,2.79,3,0,2.19-1.17,3-2.79,3H12.32c-.48,0-.63.24-.63.6V16.7h7c1.74,0,2.73.87,2.73,2.82,0,1.29-.36,2.88-2.73,2.88h-7v7c0,.78,0,2.91-3.3,2.91C6.2,32.27,5,31.49,5,29.36v-18C5,7.73,6.86,6.83,9.56,6.83H20.21m0-4H9.56C4.12,2.83,1,6,1,11.39v18c0,3.34,1.94,6.91,7.39,6.91,4.43,0,7.3-2.71,7.3-6.91v-3h3c4,0,6.73-2.77,6.73-6.88a7.19,7.19,0,0,0-1.1-4A6.82,6.82,0,0,0,27,9.8c0-4.17-2.73-7-6.79-7Z"/><path class="cls-1" d="M45,34.27A4.47,4.47,0,0,1,40.82,31l-.59-1.65H33.91L33.34,31a4.41,4.41,0,0,1-4.2,3.28c-2.52,0-6-1.67-6-4.79a5.6,5.6,0,0,1,.35-1.91S30,9.4,30,9.4C31.2,5.93,33.58,4.17,37,4.17c3.61,0,5.88,1.66,7.16,5.22l6.48,18.06a6,6,0,0,1,.36,2C51,32.74,47.42,34.27,45,34.27Z"/><path class="cls-2" d="M37,6.17c2.43,0,4.17.81,5.28,3.9l6.48,18.06A4,4,0,0,1,49,29.45c0,2-2.7,2.82-4.05,2.82a2.55,2.55,0,0,1-2.28-2l-1.05-3H32.5l-1.05,3a2.5,2.5,0,0,1-2.31,2c-1.56,0-4-1-4-2.79a3.88,3.88,0,0,1,.27-1.35l6.45-18.06c.84-2.34,2.25-3.9,5.19-3.9M34.6,21.53h4.95l-2-5.55c-.21-.6-.3-.69-.48-.69s-.3.09-.51.69l-2,5.55M37,2.17c-3,0-7,1.14-9,6.55L21.62,26.78l0,.08v.06a7.57,7.57,0,0,0-.46,2.56c0,3.26,3.07,6.79,8,6.79a6.42,6.42,0,0,0,6.07-4.58l.12-.34h3.49l.11.3a6.5,6.5,0,0,0,6,4.62c5,0,8.05-3.47,8.05-6.82a7.67,7.67,0,0,0-.45-2.58l0-.09L46.07,8.72c-1.56-4.35-4.6-6.55-9-6.55Z"/><path class="cls-1" d="M74,35.83a4.79,4.79,0,0,1-3.27-1.39l-1-.95a15.17,15.17,0,0,1-5,.78c-8.41,0-14.06-6-14.06-14.84,0-11.25,7.26-15.26,14.06-15.26,6.47,0,14,3.92,14,15a18.71,18.71,0,0,1-1.67,8l.21.19a4.61,4.61,0,0,1,1.67,3.43C78.93,33.05,76.65,35.83,74,35.83ZM64.69,14.2c-.87,0-3.19,0-3.19,5,0,2.38.51,3.63,1.16,4.29a5.37,5.37,0,0,1,4.67-3.68,4.36,4.36,0,0,1,.51,0c0-.24,0-.48,0-.73C67.85,14.2,65.47,14.2,64.69,14.2Z"/><path class="cls-2" d="M64.69,6.17c6.18,0,12,3.81,12,13,0,.75,0,5.28-2.22,8.4l1.41,1.29a2.64,2.64,0,0,1,1,1.95A3.44,3.44,0,0,1,74,33.83,2.81,2.81,0,0,1,72.07,33l-1.95-1.8a12.77,12.77,0,0,1-5.43,1.11C58,32.27,52.63,28,52.63,19.43c0-11.31,7.89-13.26,12.06-13.26m.07,20.07h.17a2.38,2.38,0,0,1-.51-1.38,3.41,3.41,0,0,1,2.91-3,3,3,0,0,1,2.07,1,12.25,12.25,0,0,0,.45-3.66c0-1.11,0-6.93-5.16-6.93s-5.19,5.76-5.19,7,0,7,5.26,7M64.69,2.17c-7.41,0-16.06,4.52-16.06,17.26,0,10.07,6.45,16.84,16.06,16.84a17.29,17.29,0,0,0,4.48-.54l.19.17A6.72,6.72,0,0,0,74,37.83a7.37,7.37,0,0,0,6.94-7.06,6.41,6.41,0,0,0-1.51-4.06,21.72,21.72,0,0,0,1.3-7.58c0-6.76-2.7-10.71-5-12.83A16.05,16.05,0,0,0,64.69,2.17Zm-1.19,17a7.28,7.28,0,0,1,.35-2.42c.2-.48.26-.54.84-.54s.6,0,.81.55A4.74,4.74,0,0,1,65.79,18a7.07,7.07,0,0,0-2.29,1.12Z"/></svg>