<svg id="materials" xmlns="http://www.w3.org/2000/svg" viewBox="0 0 460 39.07"><defs><style>.cls-1{fill:#fff;}.cls-2{fill:#474747;}</style></defs><title>faq-title</title><path class="cls-1" d="M197.43,33.8c-4.87,0-5.39-3.43-5.39-4.91v-18c0-3,1.13-6.56,6.56-6.56h10.64c3,0,4.79,1.91,4.79,5s-1.83,5-4.79,5h-.55c2.36.37,3.79,2.12,3.79,4.75,0,3.06-1.77,4.88-4.74,4.88h-5v5C202.73,32,200.74,33.8,197.43,33.8Z"/><path class="cls-2" d="M209.24,6.36c1.29,0,2.79.48,2.79,3,0,2.19-1.17,3-2.79,3h-7.88c-.48,0-.63.24-.63.6v3.33h7c1.74,0,2.74.87,2.74,2.82,0,1.29-.37,2.88-2.74,2.88h-7v7c0,.78,0,2.91-3.3,2.91-2.19,0-3.39-.78-3.39-2.91v-18c0-3.67,1.86-4.57,4.56-4.57h10.64m0-4H198.6c-5.44,0-8.56,3.12-8.56,8.57v18c0,3.34,1.94,6.91,7.39,6.91,4.43,0,7.3-2.71,7.3-6.91v-3h3c4,0,6.74-2.76,6.74-6.88a7.3,7.3,0,0,0-1.1-4A6.81,6.81,0,0,0,216,9.33c0-4.16-2.72-7-6.79-7Z"/><path class="cls-1" d="M234,33.8a4.48,4.48,0,0,1-4.16-3.26l-.58-1.66H223l-.58,1.64a4.39,4.39,0,0,1-4.2,3.28c-2.52,0-6-1.66-6-4.79a5.65,5.65,0,0,1,.35-1.91S219,8.93,219,8.93c1.25-3.47,3.63-5.22,7.07-5.22,3.61,0,5.89,1.65,7.17,5.22L239.71,27a6.24,6.24,0,0,1,.35,2C240.06,32.27,236.45,33.8,234,33.8Z"/><path class="cls-2" d="M226.06,5.71c2.43,0,4.17.8,5.28,3.89l6.48,18.06a4,4,0,0,1,.24,1.32c0,2-2.7,2.82-4.05,2.82a2.55,2.55,0,0,1-2.28-1.95l-1-3h-9.15l-1.05,3a2.5,2.5,0,0,1-2.31,1.95c-1.56,0-4-1-4-2.79a3.88,3.88,0,0,1,.27-1.35L220.87,9.6c.84-2.34,2.25-3.89,5.19-3.89m-2.43,15.35h5l-2-5.55c-.21-.6-.3-.69-.48-.69s-.3.09-.51.69l-2,5.55m2.43-19.35c-3,0-7,1.13-8.95,6.54l-6.45,18.07,0,.08,0,.05a7.57,7.57,0,0,0-.46,2.56c0,3.27,3.07,6.79,8,6.79a6.41,6.41,0,0,0,6.07-4.58l.12-.34h3.5l.1.31a6.49,6.49,0,0,0,6,4.61c5,0,8.05-3.46,8.05-6.82a8.08,8.08,0,0,0-.44-2.58l0-.09L235.11,8.25c-1.56-4.34-4.61-6.54-9.05-6.54Z"/><path class="cls-1" d="M263,35.36A4.74,4.74,0,0,1,259.76,34l-1-.95a15.22,15.22,0,0,1-5,.78c-8.41,0-14.06-6-14.06-14.84,0-11.25,7.27-15.25,14.06-15.25,6.48,0,14,3.91,14,15a18.71,18.71,0,0,1-1.67,8l.21.2A4.55,4.55,0,0,1,268,30.3C268,32.58,265.68,35.36,263,35.36Zm-9.3-21.63c-.87,0-3.19,0-3.19,5,0,2.39.52,3.64,1.17,4.3a5.36,5.36,0,0,1,4.66-3.69,4.12,4.12,0,0,1,.51,0c0-.23,0-.48,0-.73C256.88,13.73,254.51,13.73,253.72,13.73Z"/><path class="cls-2" d="M253.72,5.71c6.18,0,12,3.8,12,13,0,.75,0,5.28-2.22,8.4l1.41,1.29a2.64,2.64,0,0,1,1,1.95A3.44,3.44,0,0,1,263,33.36a2.81,2.81,0,0,1-1.92-.87l-2-1.8a12.77,12.77,0,0,1-5.43,1.11c-6.69,0-12.06-4.32-12.06-12.84,0-11.31,7.89-13.25,12.06-13.25m.08,20.07H254a2.38,2.38,0,0,1-.51-1.38,3.41,3.41,0,0,1,2.91-3,3,3,0,0,1,2.07,1,12.25,12.25,0,0,0,.45-3.66c0-1.11,0-6.93-5.16-6.93s-5.19,5.76-5.19,7,0,7,5.27,7m-.08-24.07c-7.4,0-16.06,4.52-16.06,17.25,0,10.08,6.46,16.84,16.06,16.84a17.4,17.4,0,0,0,4.49-.54l.18.17A6.77,6.77,0,0,0,263,37.36,7.37,7.37,0,0,0,270,30.3a6.38,6.38,0,0,0-1.51-4.05,21.8,21.8,0,0,0,1.3-7.59c0-6.75-2.69-10.7-5-12.82a16,16,0,0,0-11.07-4.13Zm-1.19,17a7.3,7.3,0,0,1,.36-2.42c.19-.48.25-.55.83-.55s.6,0,.81.55a5.22,5.22,0,0,1,.3,1.29,7,7,0,0,0-2.3,1.13Z"/></svg>