<svg id="materials" xmlns="http://www.w3.org/2000/svg" viewBox="0 0 460 39.07"><defs><style>.cls-1{fill:#515556;}.cls-2{fill:#fff;}</style></defs><title>faq-title</title><path class="cls-1" d="M146.51,35.2c-6.69,0-11-3.5-11-8.92s4.24-8.87,10.87-9.14l-.28-8.47a4.93,4.93,0,0,1,1.26-3.73A4.93,4.93,0,0,1,151,3.53c3.09,0,5,1.74,5.13,4.67.76,0,1.71,0,2.94-.1h.12L160.69,8l.7,0a4.54,4.54,0,0,1,4.72,4.87c0,1.37-.46,4.58-4.74,4.89l-.31,0c-.69,0-2.41.11-4.72.15l0,1a30,30,0,0,1,8.47,5A5.31,5.31,0,0,1,167,28.05a5.47,5.47,0,0,1-5.23,5.56c-2.15,0-3.41-1.26-5-2.86q-.48-.49-1-.93a7.06,7.06,0,0,1-1.69,2.82C152.44,34.34,149.88,35.2,146.51,35.2Z"/><path class="cls-1" d="M151,6c2,0,2.64.84,2.64,2.55v2.13h1c1,0,2.34,0,4.56-.13.3,0,2.07-.09,2.16-.09a2.09,2.09,0,0,1,2.22,2.37c0,2.28-1.68,2.34-2.49,2.4-.66,0-3.57.18-7.35.18l.15,5.25a30.31,30.31,0,0,1,9.27,5.1c.84.75,1.32,1.29,1.32,2.25a3,3,0,0,1-2.73,3.06c-1.11,0-1.86-.75-3.24-2.13a15.85,15.85,0,0,0-4.8-3.39c.06,2.58.15,7.11-7.23,7.11-4.44,0-8.52-1.77-8.52-6.42,0-4.2,3.69-6.66,9.18-6.66a13.41,13.41,0,0,1,1.77.09l-.36-11.13A2.17,2.17,0,0,1,151,6m-5,22.41c.72,0,2.13-.06,2.61-1,.3-.6.33-.9.33-3.39a8.1,8.1,0,0,0-2-.24c-1,0-4.2.15-4.2,2.43,0,1.89,2.1,2.19,3.3,2.19M151,1a7.35,7.35,0,0,0-5.5,2.18,7.32,7.32,0,0,0-2,5.57l.2,6.11C137.21,16,133,20.29,133,26.28c0,6.83,5.43,11.42,13.52,11.42,4.07,0,7.23-1.11,9.37-3.31a6.37,6.37,0,0,0,.5-.55,7.84,7.84,0,0,0,5.4,2.27,8,8,0,0,0,7.73-8.06,7.79,7.79,0,0,0-3-6,25.17,25.17,0,0,0-2.93-2.2,6.9,6.9,0,0,0,5-7,7.06,7.06,0,0,0-7.22-7.37l-.82,0-1.38,0H159l-.79,0C157.18,2.77,154.59,1,151,1Z"/><path class="cls-1" d="M191.12,35.47a6.63,6.63,0,0,1-3.9-1.41l-.49-.35a62.66,62.66,0,0,0-10.18-6.31l-1.71-.82c-1.64-.78-2.75-1.32-3.19-1.55a6,6,0,0,1-3.55-5.47,6.23,6.23,0,0,1,3.67-5.5l.1-.06c9.77-5.64,10.79-6.23,13.92-8.79a5.94,5.94,0,0,1,3.89-1.65,5,5,0,0,1,5.2,4.87c0,2.25-1.31,3.6-3.43,5a93,93,0,0,1-10,5.85,93.43,93.43,0,0,1,11.18,5.93c1.64,1.05,3.65,2.34,3.65,5.11A5.25,5.25,0,0,1,191.12,35.47Z"/><path class="cls-1" d="M189.68,6.06a2.54,2.54,0,0,1,2.7,2.37c0,.87-.27,1.56-2.34,3A98.74,98.74,0,0,1,178.4,18c-1.35.69-1.74.93-1.74,1.38s.3.66,1.32,1.11a101.57,101.57,0,0,1,13.26,6.84c1.5,1,2.49,1.59,2.49,3A2.73,2.73,0,0,1,191.12,33a4.15,4.15,0,0,1-2.46-1,67.83,67.83,0,0,0-11-6.84c-.78-.39-4.17-2-4.83-2.34a3.64,3.64,0,0,1-2.25-3.27,3.77,3.77,0,0,1,2.4-3.33c9.87-5.7,11.07-6.39,14.37-9.09a3.55,3.55,0,0,1,2.31-1.08m0-5a8.43,8.43,0,0,0-5.5,2.23c-2.88,2.36-3.7,2.85-13.56,8.55l-.1.05c-3.26,1.85-4.92,4.43-4.92,7.67a8.45,8.45,0,0,0,4.9,7.69c.51.27,1.58.79,3.26,1.59.74.35,1.4.66,1.68.81a59.9,59.9,0,0,1,9.84,6.09l.49.35A9.06,9.06,0,0,0,191.12,38a7.72,7.72,0,0,0,7.61-7.61c0-4.14-3-6.05-4.78-7.2-2.38-1.51-4.8-2.84-7-4,2-1.11,4-2.33,5.94-3.67,2.35-1.59,4.52-3.56,4.52-7.1A7.46,7.46,0,0,0,189.68,1.06Z"/><path class="cls-1" d="M217,35.38a4.76,4.76,0,0,1-4.06-1.9,4.92,4.92,0,0,1-2.41-.11,9.7,9.7,0,0,1-4.45,1.14c-4.51,0-7.78-3.65-7.78-8.68a12.34,12.34,0,0,1,5.09-9.91,4.46,4.46,0,0,1-4.37-4.73c0-2.21,1.28-4.61,4.89-4.71h1.74a2.81,2.81,0,0,1,.1-.31,4.33,4.33,0,0,1,4.44-2.92A5,5,0,0,1,214,4.63a3.93,3.93,0,0,1,1,1.76c1.95,0,2.92-.09,4.41-.18l.63,0c1.73-.09,3.62-.19,4.2-.19a4.51,4.51,0,0,1,4.9,4.72A4.43,4.43,0,0,1,226,15.19a10.88,10.88,0,0,1,4,8.72C230,31.84,223.48,35.38,217,35.38ZM220.09,23c-.52,1-1.09,2-1.68,2.85,1.74-.44,1.74-1.3,1.74-2.14A4.49,4.49,0,0,0,220.09,23Z"/><path class="cls-1" d="M210.23,5.76c2.61,0,2.52,1.5,2.46,3.18,3.78-.09,4.86-.12,6.87-.24.63,0,4-.21,4.68-.21a2.08,2.08,0,0,1,2.4,2.22,1.93,1.93,0,0,1-1.71,2.16c-1.77.24-10.05.42-12.48.48,0,.9,0,1.17-.06,1.56a27.12,27.12,0,0,1,3.48-.24c4.65,0,6.84,1.17,8.25,2.22a8.39,8.39,0,0,1,3.36,7c0,7.83-7.5,9-10.44,9-1.92,0-2.4-1.14-2.4-2.22,0-1.89,1.11-2,2.43-2.1,3-.24,5.58-1.26,5.58-4.86a4.4,4.4,0,0,0-1.14-3.24,4.75,4.75,0,0,0-2.37-1.35,29.24,29.24,0,0,1-5.1,8.31,2.78,2.78,0,0,1,.39,1.35A2.46,2.46,0,0,1,212,31.08a1.71,1.71,0,0,1-1.44-.63A8,8,0,0,1,206.12,32c-3.24,0-5.28-2.64-5.28-6.18,0-4.89,3.39-8,6.93-9.63,0-.42,0-2.37,0-2.76h-3.69c-.81,0-2.55,0-2.55-2.25C201.56,9.24,203,9,204,9L208,9a6.82,6.82,0,0,1,.21-2c.15-.51.66-1.2,2.07-1.2m4.62,12.69a9.11,9.11,0,0,0-2.55.27,24.71,24.71,0,0,0,.21,4.17,19.37,19.37,0,0,0,2.34-4.44m-8.16,9.39a4.25,4.25,0,0,0,2.1-1,27.35,27.35,0,0,1-1-6.15,6,6,0,0,0-2.67,4.95c0,.33,0,2.16,1.59,2.16M210.23.76A7.05,7.05,0,0,0,204.07,4h-.2c-5.05.14-7.31,3.73-7.31,7.21A7.22,7.22,0,0,0,199,16.77a14.37,14.37,0,0,0-3.16,9.06c0,6.48,4.32,11.18,10.28,11.18a12,12,0,0,0,4.75-1,6.84,6.84,0,0,0,1.07.08,7.58,7.58,0,0,0,5.1,1.8c7.44,0,15.44-4.37,15.44-14a13.48,13.48,0,0,0-2.63-8.29,7.2,7.2,0,0,0,1.79-4.91c0-4.25-3-7.22-7.4-7.22-.58,0-2,.07-4.33.19l-.59,0h-.06c-1,.06-1.73.1-2.7.13a6.46,6.46,0,0,0-.76-.95A7.41,7.41,0,0,0,210.23.76Z"/><path class="cls-1" d="M246.05,35.44c-4.4,0-6.6-1-8-1.9a7,7,0,0,1-3.28-6,5.09,5.09,0,0,1-4.86-5c0-2.29,1.25-3.2,3.51-4.86,1.75-1.27,3.28-2.39,4.7-3.46-.31,0-.52,0-.64,0a4.51,4.51,0,0,1-4.9-4.81c0-1.08.36-4.63,5-4.77l2.22,0c5.75-.09,6.63-.1,10-.23l.55,0,1.14,0c4.91,0,5.29,3.53,5.29,4.6,0,2.18-.79,3.24-2.59,4.49.34.12.67.26,1,.41a10.14,10.14,0,0,1,5.76,9.56A11.24,11.24,0,0,1,254,34,18.94,18.94,0,0,1,246.05,35.44Z"/><path class="cls-1" d="M251.39,6.84c.9,0,2.79,0,2.79,2.1,0,1.56-.39,1.8-3.81,3.87-1.83,1.11-3.15,2.13-3.93,2.7a8.6,8.6,0,0,1,2.82-.42,11.72,11.72,0,0,1,4.8,1,7.7,7.7,0,0,1,4.29,7.29A8.75,8.75,0,0,1,253,31.68a16.76,16.76,0,0,1-7,1.26c-3.69,0-5.46-.75-6.72-1.53a4.53,4.53,0,0,1-2.1-3.84c0-3.69,3.18-5.37,6.6-5.37,1.89,0,6.09.51,6.09,5.07a4.92,4.92,0,0,1-.15,1.11,4.59,4.59,0,0,0,3.57-4.56,4.3,4.3,0,0,0-2.64-4.11,8.73,8.73,0,0,0-3.36-.54c-2.4,0-5.76.54-9.54,4-2,1.83-2.16,1.95-2.94,1.95a2.59,2.59,0,0,1-2.49-2.55c0-1,.36-1.29,2.49-2.85,3.93-2.85,6.84-5,10-7.59a11.4,11.4,0,0,0,1-.87c-1.35,0-7.83.51-8.49.51A2.08,2.08,0,0,1,235,9.42c0-2.13,1.59-2.24,2.55-2.28,7.77-.12,8.46-.12,12.21-.27.3,0,1,0,1.59,0m-6.57,22.29a6.53,6.53,0,0,0,1.26-.15,3.94,3.94,0,0,0,.15-1c0-1.62-1.14-2.07-2.37-2.07s-2.43.6-2.43,1.56,1.29,1.68,3.39,1.68m6.57-27.29c-.42,0-.85,0-1.21,0h-.58c-3.3.13-4.18.14-9.91.23l-2.18,0h-.08c-5.45.17-7.39,4-7.39,7.27a7.15,7.15,0,0,0,2.57,5.72l-.69.5c-2.45,1.79-4.55,3.33-4.55,6.89a7.66,7.66,0,0,0,5.09,7.14,9.44,9.44,0,0,0,4.19,6l0,0a16.92,16.92,0,0,0,9.35,2.27,21.33,21.33,0,0,0,9-1.7,13.76,13.76,0,0,0,8.28-12.84,12.93,12.93,0,0,0-5.11-10.62,7.18,7.18,0,0,0,.94-3.84C259.18,5.41,256.77,1.84,251.39,1.84Z"/><path class="cls-1" d="M265.34,36.25a4.4,4.4,0,0,1-4.48-4.6,3.86,3.86,0,0,1,2.53-3.77,7.53,7.53,0,0,1-.49-2.8v-6a5.14,5.14,0,0,1-.67-.48,4.43,4.43,0,0,1-1.61-3.35,5.58,5.58,0,0,1,1.13-3.13,4.82,4.82,0,0,0,.64-2.3V9c0-5.36,3.59-5.54,5.74-5.64,1.39-.06,2.69-.12,3.95-.26l.5-.07a19.4,19.4,0,0,1,2.48-.3,4,4,0,0,1,3,1.32,9.29,9.29,0,0,1,3.66-.66c1.75-.09,3.13-.17,4.52-.35L287,3c1.21-.15,1.57-.2,1.86-.2a4,4,0,0,1,3.23,1.44,4.75,4.75,0,0,1,1,2.83,4.88,4.88,0,0,1-.22,1.52A4,4,0,0,1,294,11.43a3.87,3.87,0,0,1-3.41,4.09,6.52,6.52,0,0,1,.95,3.68v5.88a7.56,7.56,0,0,1-.48,2.77,3.94,3.94,0,0,1,2.52,3.83A4.39,4.39,0,0,1,289,36.22a28.75,28.75,0,0,1-7.24-1.6c-1.81-.64-3.84-1.34-4.29-3.53H277c-.49,2.33-3,3.1-5.36,3.85A24.59,24.59,0,0,1,265.34,36.25Z"/><path class="cls-1" d="M275.06,5.26A1.57,1.57,0,0,1,276.62,7c0,1.62-1,1.71-4.05,1.92-.54,0-3.42.15-3.48.18-.33.06-.33.36-.33.84h6.66c.57,0,1.77.09,1.77,1.56,0,1.11-.63,1.59-1.74,1.59h-1.11v1.65a1.59,1.59,0,0,1-.18,1h3a1.6,1.6,0,0,1-.45-1.11,3.18,3.18,0,0,1,.6-1.65,5.9,5.9,0,0,0,.75-3.09V9c0-2.91,1.32-3,3.75-3.06,1.92-.09,3.3-.18,4.74-.36.75-.08,2.07-.27,2.31-.27a1.57,1.57,0,0,1,1.29.51,2.24,2.24,0,0,1,.39,1.26c0,1.47-.9,1.62-3.93,1.83-1.11.06-2.91.09-4,.18-.6,0-.6.27-.6.87h7.71a1.51,1.51,0,0,1,1.77,1.5c0,1.14-.54,1.65-1.77,1.65h-2v1.65A1.44,1.44,0,0,1,287.3,16c1.68.66,1.71,2.4,1.71,3.24v5.88c0,2.73-1.26,3.51-3.57,3.51h-1.77A32,32,0,0,0,289.49,30c.81.15,1.56.45,1.56,1.68a1.93,1.93,0,0,1-2,2,25.69,25.69,0,0,1-6.42-1.47c-2.07-.72-2.7-1-2.7-2.1a2,2,0,0,1,.66-1.56h-6.66a2.36,2.36,0,0,1,.69,1.62c0,1.05-.9,1.47-3.69,2.34a22.78,22.78,0,0,1-5.55,1.2,2,2,0,0,1-2-2.1c0-1.38,1.14-1.56,1.77-1.68a29,29,0,0,0,5.67-1.38H269c-2.22,0-3.57-.72-3.57-3.51V19.2a4.81,4.81,0,0,1,.3-1.89h-.21a2.3,2.3,0,0,1-2.37-2.05c0-.51.12-.75.78-1.86a7.25,7.25,0,0,0,1-3.57V9c0-2.87,1-3,3.36-3.14,1.38-.07,2.76-.13,4.11-.28.45-.06,2.31-.35,2.7-.35m5.52,10.43h3.06a1.86,1.86,0,0,1-.18-1V13.08h-1.83a7.83,7.83,0,0,1-1.05,2.61m-13.14.15a6.56,6.56,0,0,1,1.53-.15h1.35a1.86,1.86,0,0,1-.18-1V13.08H268.4a8,8,0,0,1-1,2.76M270,19.41h14.46v-.48a.51.51,0,0,0-.57-.57H270.53a.51.51,0,0,0-.57.57v.48m0,3.18h14.46V21.51H270v1.08m.57,3.18h13.32a.51.51,0,0,0,.57-.57v-.48H270v.48a.51.51,0,0,0,.57.57M275.06.26a21.34,21.34,0,0,0-2.85.32l-.46.07c-1.17.13-2.41.18-3.72.24a9.17,9.17,0,0,0-5.4,1.56c-2.74,2.1-2.74,5.48-2.74,6.58v.81a2.28,2.28,0,0,1-.29,1,8,8,0,0,0-1.48,4.41,6.89,6.89,0,0,0,2.28,5.05v4.76a11.49,11.49,0,0,0,.12,1.69,6.09,6.09,0,0,0-2.16,4.88,6.89,6.89,0,0,0,7,7.1,26.67,26.67,0,0,0,7.08-1.43,14.92,14.92,0,0,0,4.78-2.2A12.52,12.52,0,0,0,281,37,30.47,30.47,0,0,0,289,38.72a6.89,6.89,0,0,0,7-7,6.57,6.57,0,0,0-2.15-5,12,12,0,0,0,.11-1.62V19.2a10.89,10.89,0,0,0-.23-2.31,6.42,6.42,0,0,0,2.69-5.46,6.49,6.49,0,0,0-1-3.51,8.14,8.14,0,0,0,.05-.87,7.26,7.26,0,0,0-1.39-4.26L294,2.64A6.47,6.47,0,0,0,288.86.28a18.45,18.45,0,0,0-2.17.22L286,.59c-1.35.17-2.63.25-4.38.33a14.4,14.4,0,0,0-3,.33A6.49,6.49,0,0,0,275.06.26Z"/><path class="cls-1" d="M297.68,36.31a4.4,4.4,0,0,1-4.78-4.72V9.66c0-3.91,2.15-6.07,6-6.07h5.46A6.19,6.19,0,0,1,308.69,5,6.28,6.28,0,0,1,313,3.59h5.43c3.91,0,6.07,2.16,6.07,6.07V30.39c0,2.8-1.49,5-3.78,5.55a24.7,24.7,0,0,1-4.48.28c-2.2,0-4.69,0-5.93-2.67-.05-.12-.1-.24-.14-.36h-3.95a8.14,8.14,0,0,1-4-.77A4.31,4.31,0,0,1,297.68,36.31Z"/><path class="cls-1" d="M318.44,6.09c2.49,0,3.57,1,3.57,3.57V30.39c0,1.41-.57,2.79-1.89,3.12a26.91,26.91,0,0,1-3.87.21c-2,0-3.09,0-3.66-1.23a3.49,3.49,0,0,1-.18-1.83c-.3,0-.51,0-1.23,0h-4.95c-3.15,0-3.78-.6-3.78-3.81V23.73c0-3.12.57-3.78,3.78-3.78h4.95c3.18,0,3.78.6,3.78,3.78v3.15a8.45,8.45,0,0,1-.15,2.07l2.07.06c.69,0,.69-.51.69-1V18.75H313c-2.25,0-3.57-.78-3.57-3.57V9.66c0-2.7,1.2-3.57,3.57-3.57h5.43m-4.71,5h3.84v-.75a.51.51,0,0,0-.57-.57h-2.7a.51.51,0,0,0-.57.57v.75m.57,4.29h3.27V14h-3.84v.81a.51.51,0,0,0,.57.57m-7.11,11.4h3a.54.54,0,0,0,.6-.6v-2a.55.55,0,0,0-.6-.63h-3c-.42,0-.6.24-.6.63v2a.53.53,0,0,0,.6.6M304.4,6.09c2.46,0,3.54,1,3.54,3.57v5.52c0,2.7-1.17,3.57-3.54,3.57h-4.59V31.59a2,2,0,0,1-2.13,2.22c-1.92,0-2.28-1.05-2.28-2.22V9.66c0-2.7,1.17-3.57,3.54-3.57h5.46m-4.59,5h3.84v-.75a.51.51,0,0,0-.57-.57h-2.7c-.42,0-.57.21-.57.57v.75m0,4.29h3.27a.51.51,0,0,0,.57-.57V14h-3.84v1.38M318.44,1.09H313A9.7,9.7,0,0,0,308.7,2a9.66,9.66,0,0,0-4.3-.92h-5.46c-5.27,0-8.54,3.29-8.54,8.57V31.59a7.3,7.3,0,0,0,13.41,3.91,14.06,14.06,0,0,0,2.42.19h2.44c2.08,3,5.6,3,7.58,3a20.18,20.18,0,0,0,5.13-.37c3.4-.85,5.63-4,5.63-8V9.66C327,4.38,323.73,1.09,318.44,1.09Z"/><path class="cls-2" d="M153.92,20.7a30.31,30.31,0,0,1,9.27,5.1c.84.75,1.32,1.29,1.32,2.25a3,3,0,0,1-2.73,3.06c-1.11,0-1.86-.75-3.24-2.13a15.85,15.85,0,0,0-4.8-3.39c.06,2.58.15,7.11-7.23,7.11-4.44,0-8.52-1.77-8.52-6.42,0-4.2,3.69-6.66,9.18-6.66a13.41,13.41,0,0,1,1.77.09l-.36-11.13A2.17,2.17,0,0,1,151,6c2,0,2.64.84,2.64,2.55v2.13c1,0,2.43,0,5.55-.12.3,0,2.07-.09,2.16-.09a2.09,2.09,0,0,1,2.22,2.37c0,2.28-1.68,2.34-2.49,2.4-.66,0-3.57.18-7.35.18Zm-7,3.12c-1,0-4.2.15-4.2,2.43,0,1.89,2.1,2.19,3.3,2.19.72,0,2.13-.06,2.61-1,.3-.6.33-.9.33-3.39A8.1,8.1,0,0,0,146.93,23.82Z"/><path class="cls-2" d="M173,16.23c9.87-5.7,11.07-6.39,14.37-9.09a3.55,3.55,0,0,1,2.31-1.08,2.54,2.54,0,0,1,2.7,2.37c0,.87-.27,1.56-2.34,3A98.74,98.74,0,0,1,178.4,18c-1.35.69-1.74.93-1.74,1.38s.3.66,1.32,1.11a101.57,101.57,0,0,1,13.26,6.84c1.5,1,2.49,1.59,2.49,3A2.73,2.73,0,0,1,191.12,33a4.15,4.15,0,0,1-2.46-1,67.83,67.83,0,0,0-11-6.84c-.78-.39-4.17-2-4.83-2.34a3.64,3.64,0,0,1-2.25-3.27A3.77,3.77,0,0,1,173,16.23Z"/><path class="cls-2" d="M204.11,13.44c-.81,0-2.55,0-2.55-2.25C201.56,9.24,203,9,204,9L208,9a6.82,6.82,0,0,1,.21-2c.15-.51.66-1.2,2.07-1.2,2.61,0,2.52,1.5,2.46,3.18,3.78-.09,4.86-.12,6.87-.24.63,0,4-.21,4.68-.21a2.08,2.08,0,0,1,2.4,2.22,1.93,1.93,0,0,1-1.71,2.16c-1.77.24-10.05.42-12.48.48,0,.9,0,1.17-.06,1.56a27.12,27.12,0,0,1,3.48-.24c4.65,0,6.84,1.17,8.25,2.22a8.39,8.39,0,0,1,3.36,7c0,7.83-7.5,9-10.44,9-1.92,0-2.4-1.14-2.4-2.22,0-1.89,1.11-2,2.43-2.1,3-.24,5.58-1.26,5.58-4.86a4.4,4.4,0,0,0-1.14-3.24,4.75,4.75,0,0,0-2.37-1.35,29.24,29.24,0,0,1-5.1,8.31,2.78,2.78,0,0,1,.39,1.35A2.46,2.46,0,0,1,212,31.08a1.71,1.71,0,0,1-1.44-.63A8,8,0,0,1,206.12,32c-3.24,0-5.28-2.64-5.28-6.18,0-4.89,3.39-8,6.93-9.63,0-.42,0-2.37,0-2.76Zm3.66,7.29a6,6,0,0,0-2.67,4.95c0,.33,0,2.16,1.59,2.16a4.25,4.25,0,0,0,2.1-1A27.35,27.35,0,0,1,207.77,20.73Zm7.08-2.28a9.11,9.11,0,0,0-2.55.27,24.71,24.71,0,0,0,.21,4.17A19.37,19.37,0,0,0,214.85,18.45Z"/><path class="cls-2" d="M249.26,15.09a11.72,11.72,0,0,1,4.8,1,7.7,7.7,0,0,1,4.29,7.29A8.75,8.75,0,0,1,253,31.68a16.76,16.76,0,0,1-7,1.26c-3.69,0-5.46-.75-6.72-1.53a4.53,4.53,0,0,1-2.1-3.84c0-3.69,3.18-5.37,6.6-5.37,1.89,0,6.09.51,6.09,5.07a4.92,4.92,0,0,1-.15,1.11,4.59,4.59,0,0,0,3.57-4.56,4.3,4.3,0,0,0-2.64-4.11,8.73,8.73,0,0,0-3.36-.54c-2.4,0-5.76.54-9.54,4-2,1.83-2.16,1.95-2.94,1.95a2.59,2.59,0,0,1-2.49-2.55c0-1,.36-1.29,2.49-2.85,3.93-2.85,6.84-5,10-7.59a11.4,11.4,0,0,0,1-.87c-1.35,0-7.83.51-8.49.51A2.08,2.08,0,0,1,235,9.42c0-2.13,1.59-2.24,2.55-2.28,7.77-.12,8.46-.12,12.21-.27.3,0,1,0,1.59,0,.9,0,2.79,0,2.79,2.1,0,1.56-.39,1.8-3.81,3.87-1.83,1.11-3.15,2.13-3.93,2.7A8.6,8.6,0,0,1,249.26,15.09Zm-3,12.87c0-1.62-1.14-2.07-2.37-2.07s-2.43.6-2.43,1.56,1.29,1.68,3.39,1.68a6.53,6.53,0,0,0,1.26-.15A3.94,3.94,0,0,0,246.23,28Z"/><path class="cls-2" d="M277.16,15.69a1.6,1.6,0,0,1-.45-1.11,3.18,3.18,0,0,1,.6-1.65,5.9,5.9,0,0,0,.75-3.09V9c0-2.91,1.32-3,3.75-3.06,1.92-.09,3.3-.18,4.74-.36.75-.08,2.07-.27,2.31-.27a1.57,1.57,0,0,1,1.29.51,2.24,2.24,0,0,1,.39,1.26c0,1.47-.9,1.62-3.93,1.83-1.11.06-2.91.09-4,.18-.6,0-.6.27-.6.87h7.71a1.51,1.51,0,0,1,1.77,1.5c0,1.14-.54,1.65-1.77,1.65h-2v1.65A1.44,1.44,0,0,1,287.3,16c1.68.66,1.71,2.4,1.71,3.24v5.88c0,2.73-1.26,3.51-3.57,3.51h-1.77A32,32,0,0,0,289.49,30c.81.15,1.56.45,1.56,1.68a1.93,1.93,0,0,1-2,2,25.69,25.69,0,0,1-6.42-1.47c-2.07-.72-2.7-1-2.7-2.1a2,2,0,0,1,.66-1.56h-6.66a2.36,2.36,0,0,1,.69,1.62c0,1.05-.9,1.47-3.69,2.34a22.78,22.78,0,0,1-5.55,1.2,2,2,0,0,1-2-2.1c0-1.38,1.14-1.56,1.77-1.68a29,29,0,0,0,5.67-1.38H269c-2.22,0-3.57-.72-3.57-3.51V19.2a4.81,4.81,0,0,1,.3-1.89,2.33,2.33,0,0,1-2.58-2c0-.51.12-.75.78-1.86a7.25,7.25,0,0,0,1-3.57V9c0-2.87,1-3,3.36-3.14,1.38-.07,2.76-.13,4.11-.28.45-.06,2.31-.35,2.7-.35A1.57,1.57,0,0,1,276.62,7c0,1.62-1,1.71-4.05,1.92-.54,0-3.42.15-3.48.18-.33.06-.33.36-.33.84h6.66c.57,0,1.77.09,1.77,1.56,0,1.11-.63,1.59-1.74,1.59h-1.11v1.65a1.59,1.59,0,0,1-.18,1Zm-6.84,0a1.86,1.86,0,0,1-.18-1V13.08H268.4a8,8,0,0,1-1,2.76,6.56,6.56,0,0,1,1.53-.15Zm14.1,3.72v-.48a.51.51,0,0,0-.57-.57H270.53a.51.51,0,0,0-.57.57v.48Zm0,2.1H270v1.08h14.46Zm0,3.21H270v.48a.51.51,0,0,0,.57.57h13.32a.51.51,0,0,0,.57-.57Zm-.78-9a1.86,1.86,0,0,1-.18-1V13.08h-1.83a7.83,7.83,0,0,1-1.05,2.61Z"/><path class="cls-2" d="M299.81,31.59a2,2,0,0,1-2.13,2.22c-1.92,0-2.28-1.05-2.28-2.22V9.66c0-2.7,1.17-3.57,3.54-3.57h5.46c2.46,0,3.54,1,3.54,3.57v5.52c0,2.7-1.17,3.57-3.54,3.57h-4.59Zm3.84-20.46v-.75a.51.51,0,0,0-.57-.57h-2.7c-.42,0-.57.21-.57.57v.75Zm-3.84,4.29h3.27a.51.51,0,0,0,.57-.57V14h-3.84Zm6.42,15.27c-3.15,0-3.78-.6-3.78-3.81V23.73c0-3.12.57-3.78,3.78-3.78h4.95c3.18,0,3.78.6,3.78,3.78v3.15a8.45,8.45,0,0,1-.15,2.07l2.07.06c.69,0,.69-.51.69-1V18.75H313c-2.25,0-3.57-.78-3.57-3.57V9.66c0-2.7,1.2-3.57,3.57-3.57h5.43c2.49,0,3.57,1,3.57,3.57V30.39c0,1.41-.57,2.79-1.89,3.12a26.91,26.91,0,0,1-3.87.21c-2,0-3.09,0-3.66-1.23a3.49,3.49,0,0,1-.18-1.83c-.3,0-.51,0-1.23,0Zm4.59-6.45a.55.55,0,0,0-.6-.63h-3c-.42,0-.6.24-.6.63v2a.53.53,0,0,0,.6.6h3a.54.54,0,0,0,.6-.6Zm6.75-13.11v-.75a.51.51,0,0,0-.57-.57h-2.7a.51.51,0,0,0-.57.57v.75Zm0,4.29V14h-3.84v.81a.51.51,0,0,0,.57.57Z"/></svg>