<svg id="materials" xmlns="http://www.w3.org/2000/svg" viewBox="0 0 460 39.07"><defs><style>.cls-1{fill:#515556;}.cls-2{fill:#fff;}</style></defs><title>finding-employment-title</title><path class="cls-1" d="M82.19,36.45a4.23,4.23,0,0,1-4.48-3.6c-.41.28-.87.58-1.38.89-1.81,1.14-3.75,2.2-5.48,2.2a4.58,4.58,0,0,1-4.44-4.78,4,4,0,0,1,.94-2.7,4.56,4.56,0,0,1-1.69-3.78,4,4,0,0,1,3.62-4.21c0-.12,0-.25,0-.38A3.91,3.91,0,0,1,65.6,16a3.88,3.88,0,0,1,2.31-3.68v-.13a4,4,0,0,1,0-.6,4,4,0,0,1-1.48-3.21A4,4,0,0,1,70.8,4.27h7.58c.65-1,1.87-1.68,4.06-1.68,2,0,3.38.56,4.15,1.68h7.69a4,4,0,0,1,4.3,4.09,4,4,0,0,1-1.51,3.22,3.81,3.81,0,0,1,0,.59v.14A3.91,3.91,0,0,1,99.39,16a3.86,3.86,0,0,1-3,3.94c1.66,2.07,2.72,3.77,2.72,5.36a4.47,4.47,0,0,1-1.46,3.21A3.78,3.78,0,0,1,98.52,31C98.52,33.37,96.65,36,94,36c-1.78,0-3.81-1.3-5.9-2.75l-.91-.65C86.92,34.29,85.92,36.45,82.19,36.45Z"/><path class="cls-1" d="M82.44,5.09c2.07,0,2.3.54,2.33,1.68h9.51c.6,0,1.8.12,1.8,1.59a1.53,1.53,0,0,1-1.8,1.56H84.77v.87h8.28c.81,0,1.56.24,1.56,1.38,0,1.32-1,1.38-1.56,1.38H84.77v.87H95.06c.75,0,1.83.15,1.83,1.62s-1.29,1.59-1.83,1.59H87.29c.75.27,1.48.81,1.48,1.59,0,1.14-2.25,2.67-3.67,3.57,2.73-.09,3-.09,4.65-.18A2.52,2.52,0,0,1,89,21,2.39,2.39,0,0,1,91.34,19c.78,0,1.2.21,2.88,2.22.9,1.11,2.4,3,2.4,4.08a2.33,2.33,0,0,1-2.34,2.07c-1,0-1.41-.63-2-1.56-2.55.18-5,.36-7.55.45v5.46c0,1.71-.72,2.19-2.5,2.19s-2.06-1.11-2.06-2.19V26.51c-.21,0-3.07.12-4.11.12a2.15,2.15,0,0,1,1.83,2.13c0,.66-.12,1.2-2.83,2.85-1.19.75-3,1.83-4.17,1.83-1.52,0-1.94-1.56-1.94-2.28,0-1.11.69-1.47,1.62-1.89a18.72,18.72,0,0,0,3-1.62,4.58,4.58,0,0,1,2.16-1c-2.52,0-5,.09-5.61.09s-2,0-2-2.07a1.55,1.55,0,0,1,1.62-1.74c.28,0,.93,0,1.71,0,1.57,0,3.65,0,4.28,0-.75-.36-1.92-1-2.67-1.32s-1.34-.69-1.34-1.59a2.11,2.11,0,0,1,2.07-1.92,5.17,5.17,0,0,1,2.4.87,11.11,11.11,0,0,0,1.5-1.35h-7.8c-.81,0-1.83-.18-1.83-1.65a1.56,1.56,0,0,1,1.83-1.56H80.22v-.87H71.94c-.78,0-1.53-.24-1.53-1.38,0-1.35,1-1.38,1.53-1.38h8.28V9.92H70.8c-.54,0-1.83,0-1.83-1.56A1.57,1.57,0,0,1,70.8,6.77h9.42c0-1.32.51-1.68,2.22-1.68m3.29,12.54H82.89a35,35,0,0,1-3.45,3c.75.45,1.08.66,1.46.9,1.24-.93,1.71-1.35,4-3.33a3.2,3.2,0,0,1,.87-.6m3.39,8.79c.63,0,.82.12,2.34,1.17a30.69,30.69,0,0,0,3.18,1.8c.72.36,1.38.72,1.38,1.65s-.78,2.43-2.07,2.43-3.36-1.53-4.53-2.34c-2.15-1.5-2.36-1.86-2.36-2.58a2.09,2.09,0,0,1,2.06-2.13M82.44.09a7.5,7.5,0,0,0-5.16,1.68H70.8A6.49,6.49,0,0,0,64,8.36a6.93,6.93,0,0,0,.77,3.2A6.46,6.46,0,0,0,63.1,16a6.62,6.62,0,0,0,1.5,4.36,6.85,6.85,0,0,0-1.44,4.34,7.53,7.53,0,0,0,1.13,4.14,6.84,6.84,0,0,0-.38,2.34,7.06,7.06,0,0,0,6.94,7.28,11.86,11.86,0,0,0,5.79-2A6.87,6.87,0,0,0,82.19,39c3,0,4.9-1.07,6.06-2.59A10.94,10.94,0,0,0,94,38.47c4.23,0,7.07-3.84,7.07-7.43a6.5,6.5,0,0,0-.37-2.24,6.68,6.68,0,0,0,1-3.46,8.58,8.58,0,0,0-1.58-4.6,6.69,6.69,0,0,0,1.85-4.7,6.63,6.63,0,0,0-1.59-4.45,6.68,6.68,0,0,0,.78-3.23,6.47,6.47,0,0,0-6.8-6.59h-6.6A7.57,7.57,0,0,0,82.44.09Z"/><path class="cls-1" d="M101,36.42A4.15,4.15,0,0,1,96.62,32V16.85a6.58,6.58,0,0,1,.84-3.61,4.33,4.33,0,0,1-1.8-3.74c0-2.17,1.15-4.48,4.39-4.48h2.44a4.49,4.49,0,0,1,4.31-2.34c2.49,0,3.88,1.06,4.5,2.34h2.18a5.66,5.66,0,0,1,1.43.17A4,4,0,0,1,119,2.62c2.8,0,4.75,1.77,4.75,4.3v0h1.1a4.36,4.36,0,0,1,4.48,4.72,4.54,4.54,0,0,1-1.91,4.07,32.59,32.59,0,0,1-1.77,10c.4.41.92.87,1.87,1.68A4.44,4.44,0,0,1,129.36,31a5.16,5.16,0,0,1-5,5.2c-1.67,0-2.82-.79-4.14-2.16a6.14,6.14,0,0,1-4.11,2,4.64,4.64,0,0,1-1.73-.34,7.07,7.07,0,0,1-3.15.55c-1.52,0-4.77,0-5.68-2.91l-.29,0A4.09,4.09,0,0,1,101,36.42Z"/><path class="cls-1" d="M119,5.12c.4,0,2.25,0,2.25,1.8a12.48,12.48,0,0,1-.45,2.52h4a1.93,1.93,0,0,1,2,2.22c0,2.19-1.26,2.22-1.86,2.25-.12,7.32-1.47,10.59-2.22,12.21a17,17,0,0,0,3.15,3.15,2,2,0,0,1,1,1.71,2.7,2.7,0,0,1-2.46,2.7c-.72,0-1.29-.24-2.64-1.71a23.25,23.25,0,0,1-1.44-1.83c-.84,1.08-2.63,3.42-4.17,3.42a2.38,2.38,0,0,1-1.92-1c-.59,1.17-1.58,1.23-3,1.23-2,0-3.42,0-3.42-2.16a2,2,0,0,1,.09-.72h-1.68c-2.37,0-2.55-1-2.55-2.91V25.55c0-1.38,0-2.58,1.59-2.82V21.62h-1.47a1.08,1.08,0,0,1-.87-.48V32A1.69,1.69,0,0,1,101,33.92c-1.92,0-1.92-1.38-1.92-1.92V16.85c0-2,.3-2.94,2.37-3a13.92,13.92,0,0,0-.57-2.4h-1c-.6,0-1.8-.12-1.8-1.95s1.2-2,1.89-2h4.55V6.8c0-1.5,1.59-1.62,2.2-1.62.84,0,2.39.12,2.39,1.62v.72h4.29c.58,0,1.92,0,1.92,2,0,1.77-1.05,2-1.85,2h-1c-.17.81-.29,1.35-.59,2.37a2.51,2.51,0,0,1,2.3.9,27.94,27.94,0,0,0,2.64-7.38c.31-1.35.48-2.22,2.13-2.22m-10.47,6.33H105c.09.24.56,2.16.6,2.37h2.46a15.49,15.49,0,0,0,.47-2.37M121,13.91h-1.62c-.15.36-.26.69-.59,1.44A29.23,29.23,0,0,0,120.15,21a40.35,40.35,0,0,0,.83-7.11m-12.5,4.56h1.46a1.07,1.07,0,0,1,.91.45v-1.2a.51.51,0,0,0-.58-.57h-2.09a1,1,0,0,1,.3.72v.6m-2.88-1.32h-2.08c-.44,0-.56.24-.56.57V19a1.08,1.08,0,0,1,.87-.48h1.47v-.6a1,1,0,0,1,.3-.72m9.3,3.48a.82.82,0,0,1-.34-.06v8.7a1.8,1.8,0,0,1,.25-.21,16,16,0,0,0,3.09-3.18A30.17,30.17,0,0,1,116,20.12a1.59,1.59,0,0,1-1.08.51m-5,9c.61,0,.91,0,.91-.72V21.17a1,1,0,0,1-.91.45h-1.46v1.11c1.55.24,1.62,1.35,1.62,2.82V28a5.8,5.8,0,0,1-.16,1.68m-3.38-1.8h.59c.37,0,.52-.18.52-.54V26.27c0-.36-.15-.54-.52-.54h-.59a.47.47,0,0,0-.54.54v1.05a.47.47,0,0,0,.54.54M119,.12a6.41,6.41,0,0,0-5.38,2.4h-1A7.41,7.41,0,0,0,106.8.18a7.33,7.33,0,0,0-5.62,2.34h-1.13a6.63,6.63,0,0,0-6.89,7,7.27,7.27,0,0,0,1.33,4.35,11,11,0,0,0-.37,3V32A6.62,6.62,0,0,0,101,38.92a7,7,0,0,0,4.55-1.54,5.62,5.62,0,0,0,1.17.68,10.47,10.47,0,0,0,4.51.71,10.6,10.6,0,0,0,3.23-.41,7,7,0,0,0,1.65.2,7.43,7.43,0,0,0,4-1.26,7,7,0,0,0,4.21,1.38,7.69,7.69,0,0,0,7.46-7.7,6.87,6.87,0,0,0-2.74-5.54l-.59-.51A35.78,35.78,0,0,0,129.85,17a7.34,7.34,0,0,0,2-5.32,6.87,6.87,0,0,0-6-7.16A7,7,0,0,0,119,.12Z"/><path class="cls-1" d="M142.11,36.45c-4.93,0-7.81-2.29-8.91-5.13a4.89,4.89,0,0,1-1.76.32,4.74,4.74,0,0,1-4.93-4.52c0-1.35.38-2,1.82-4.59l.35-.61a22.49,22.49,0,0,0,1.22-2.58l-.19,0a4.36,4.36,0,0,1-3.15-4.44,4.32,4.32,0,0,1,3.69-4.47l.14,0c.23,0,1.18-.07,2.12-.1.09-.44.15-.72.21-.91a4.29,4.29,0,0,1,4.32-3c2.66,0,4.59,1.47,4.9,3.64h0l.06-.1a1.81,1.81,0,0,1,.19-.29A4.8,4.8,0,0,1,146,7.74c2.88,0,8,4,8,4a5.14,5.14,0,0,1,2.28,4.07,4.82,4.82,0,0,1-4.74,4.77,4.26,4.26,0,0,1-.64,0l.1,2.2a19.22,19.22,0,0,1,3.22,2.39,4.8,4.8,0,0,1-3,8.5,4.3,4.3,0,0,1-1.8-.37C148,35.33,145.4,36.45,142.11,36.45ZM139.8,19.22c-.15.45-.3.92-.47,1.4a12.74,12.74,0,0,1,2.24-.31l-.08-1.17-.31,0-1.05,0Z"/><path class="cls-1" d="M137,8.89c.56,0,2.44.12,2.44,1.77a8.76,8.76,0,0,1-.31,1.9c.31,0,1.65-.08,1.93-.08a1.88,1.88,0,0,1,2.16,2.1c0,2-1.43,2-2.27,2.1l-3.05.11a56.61,56.61,0,0,1-4.42,10.92,2.24,2.24,0,0,1-2.08,1.43,2.3,2.3,0,0,1-2.43-2c0-.76.22-1.09,1.85-4A35.77,35.77,0,0,0,133.4,17l-1.82,0a4.58,4.58,0,0,1-1.26-.11,1.87,1.87,0,0,1-1.26-2,1.8,1.8,0,0,1,1.68-2c.2,0,3.36-.11,3.84-.11.08-.42.42-2.27.53-2.63A1.8,1.8,0,0,1,137,8.89M146,10.24c1.26,0,4.56,2,6.49,3.47,1,.78,1.32,1.37,1.32,2.1a2.34,2.34,0,0,1-2.24,2.27,2.75,2.75,0,0,1-1.82-.87A21,21,0,0,0,145.11,14a1.92,1.92,0,0,1-1.29-1.7,2.24,2.24,0,0,1,.36-1.12,2.39,2.39,0,0,1,1.8-1m.19,6.77a1.87,1.87,0,0,1,2.16,1.82l.25,5.41A17.21,17.21,0,0,1,152.53,27a2.32,2.32,0,0,1,.95,1.82,2.28,2.28,0,0,1-2.21,2.35,1.74,1.74,0,0,1-1.15-.39c-1.12-1-1.34-1.17-1.88-1.68a5.17,5.17,0,0,1-.58,2.41c-1.29,2.24-4.12,2.49-5.55,2.49-4.87,0-6.94-2.6-6.94-5.49,0-2.68,2-5.68,7.31-5.68a17.32,17.32,0,0,1,1.79.11L144,19c-.14-1.76,1.45-2,2.18-2m-4.39,13.25c2.18,0,2.66-1.07,2.63-3.45a4.42,4.42,0,0,0-2.19-.45c-.89,0-3.24.17-3.24,2s2.4,1.88,2.8,1.88M137,3.89a6.83,6.83,0,0,0-6.41,4l-.59,0-.22,0a6.78,6.78,0,0,0-5.76,6.93,7.16,7.16,0,0,0,2.55,5.63l-.1.19-.36.62C124.64,24,124,25.11,124,27.12a7.24,7.24,0,0,0,7.43,7h.42c1.84,2.76,5.2,4.82,10.25,4.82a11.64,11.64,0,0,0,8.22-2.89,7.22,7.22,0,0,0,8.15-7.29,7.21,7.21,0,0,0-2.59-5.52c-.36-.33-.73-.65-1.12-1a7.36,7.36,0,0,0,4-6.48,7.66,7.66,0,0,0-3.2-6l0,0c-1-.76-6-4.53-9.57-4.53a6.94,6.94,0,0,0-3.32.84A7.7,7.7,0,0,0,137,3.89Z"/><path class="cls-1" d="M158.71,35.37A4.35,4.35,0,0,1,154,30.8c0-2.62,1.33-4.32,3.63-4.72V19.75a5.12,5.12,0,0,1-4-5.12,4.5,4.5,0,0,1,3.09-4.35,22.67,22.67,0,0,0,8.46-5.45,6.84,6.84,0,0,1,5.31-2.27,6.92,6.92,0,0,1,5.26,2.24,23.55,23.55,0,0,0,8.52,5.47,4.48,4.48,0,0,1,3.09,4.36,5.17,5.17,0,0,1-2.77,4.73,5.48,5.48,0,0,1,.13,1.24c0,3-1.76,4.78-4.72,4.78h-4.31V26h6.59A4.31,4.31,0,0,1,187,30.5c0,4.39-3.28,4.87-4.69,4.87Zm7.33-19c.08.09.15.19.22.28v-.42Z"/><path class="cls-1" d="M170.49,5.06a4.45,4.45,0,0,1,3.57,1.59,25.94,25.94,0,0,0,9.27,5.94,2,2,0,0,1,1.53,2,2.52,2.52,0,0,1-2.31,2.7c-1.32,0-5.45-2.16-8.94-5.22-.92-.81-2-1.83-2.25-2.1s-.56-.6-.87-.6-.33.09-1.22.93A31.1,31.1,0,0,1,163,15.29c-1.22.75-3.44,2-4.55,2a2.55,2.55,0,0,1-2.34-2.7,2,2,0,0,1,1.56-2,25.38,25.38,0,0,0,9.21-5.94,4.37,4.37,0,0,1,3.59-1.59m.31,7.74c1.59,0,2.39.48,2.39,2.19v3.6H180a1.92,1.92,0,0,1,2.22,2c0,1.56-.6,2.28-2.22,2.28h-6.81v5.61h9.09c.81,0,2.19.15,2.19,2,0,1.62-.51,2.37-2.19,2.37H158.71a1.91,1.91,0,0,1-2.22-2.07c0-1.56.57-2.31,2.22-2.31h1.41v-9c0-.84.15-2.19,2-2.19,1.59,0,2.4.45,2.4,2.19v9h4.2V15c0-.87.18-2.19,2-2.19M170.49.06a9.22,9.22,0,0,0-7.05,3A20.45,20.45,0,0,1,155.8,8a6.87,6.87,0,0,0-4.67,6.67,7.75,7.75,0,0,0,4,6.85V24.3a7,7,0,0,0-3.63,6.5,6.83,6.83,0,0,0,7.22,7.07h23.57c4.37,0,7.19-2.89,7.19-7.37a6.73,6.73,0,0,0-3.21-6,7.93,7.93,0,0,0,1-3.92v-.05a7.82,7.82,0,0,0,2.64-5.92A6.9,6.9,0,0,0,185.34,8L185.2,8A21.26,21.26,0,0,1,177.49,3l0,0A9.31,9.31,0,0,0,170.49.06Z"/><path class="cls-1" d="M200.31,36.39a4.23,4.23,0,0,1-4.39-3.24,17.56,17.56,0,0,1-7.24,2.58c-2.91,0-4.48-2.54-4.48-4.93a3.93,3.93,0,0,1,1.13-2.95,4,4,0,0,1-1.64-3.38,4,4,0,0,1,2.06-3.64,3.89,3.89,0,0,1-.05-.68,4,4,0,0,1,.19-1.28A4.26,4.26,0,0,1,184.8,16a4.65,4.65,0,0,1,.37-1.84,4.15,4.15,0,0,1-1.48-3.32A4.12,4.12,0,0,1,187,6.58c.32-2.27,2.55-3.6,4.72-3.6a4.38,4.38,0,0,1,2.76,1,4.5,4.5,0,0,1,3.18-1.15,4.57,4.57,0,0,1,2.79.87,4.78,4.78,0,0,1,2.81-.87,4.65,4.65,0,0,1,3.11,1.11,4.69,4.69,0,0,1,3-.9c3.06,0,4.56,1.83,4.74,3.66a4.17,4.17,0,0,1,3,4.15,4.1,4.1,0,0,1-1.41,3.24A4.54,4.54,0,0,1,216.1,16,4.23,4.23,0,0,1,215,18.84a4,4,0,0,1,.2,1.31,4.32,4.32,0,0,1-.06.73,4,4,0,0,1,2,3.59,4,4,0,0,1-1.49,3.27,4,4,0,0,1,1.22,3.06,4.74,4.74,0,0,1-4.6,4.93A18.2,18.2,0,0,1,205,33.08C204.56,35.2,202.9,36.39,200.31,36.39Z"/><path class="cls-1" d="M203.28,5.3a1.88,1.88,0,0,1,2,2.19V8.93h1.08c0-.06.94-2.07,1-2.28.26-.6.54-1.14,2-1.14s2.25.69,2.25,1.53a6.37,6.37,0,0,1-.6,1.89h1.38a1.89,1.89,0,0,1,2.19,1.89c0,1.83-1.83,1.83-2.19,1.83H208a15.16,15.16,0,0,1-.54,1.59h4.29A1.6,1.6,0,0,1,213.6,16a1.59,1.59,0,0,1-1.86,1.68h-9.05v1.05H211c.33,0,1.74,0,1.74,1.47s-1.41,1.47-1.74,1.47h-8.3V22.7h9.77c.75,0,2.16.18,2.16,1.77,0,1.77-1.8,1.77-2.16,1.77H205.9A22.18,22.18,0,0,0,212,28.7c1.32.33,2.37.66,2.37,2.1a2.27,2.27,0,0,1-2.1,2.43,19.34,19.34,0,0,1-9.56-5V31.7c0,1.59-.7,2.19-2.38,2.19a1.91,1.91,0,0,1-2.07-2.19V28.37c-3.89,3.57-8.48,4.86-9.56,4.86-1.65,0-2-1.8-2-2.43,0-1.32.84-1.65,2.52-2a20.69,20.69,0,0,0,6.05-2.52h-6.89c-.78,0-2.19-.21-2.19-1.77,0-1.77,1.83-1.77,2.19-1.77h9.86V21.62h-8.3c-.36,0-1.74,0-1.74-1.47s1.4-1.47,1.74-1.47h8.3V17.63h-9.08A1.59,1.59,0,0,1,187.3,16a1.6,1.6,0,0,1,1.86-1.71h4.38s-.36-1-.63-1.59h-4.53c-.39,0-2.19,0-2.19-1.86s1.83-1.86,2.19-1.86h1.74c-.57-1.2-.63-1.35-.63-1.8,0-1.11,1.32-1.65,2.25-1.65,2,0,2.85,3,2.87,3.45h1V7.49c0-.84.17-2.19,2-2.19a1.91,1.91,0,0,1,2,2.19V8.93h1.58V7.49c0-.78.13-2.19,2-2.19m.24,7.35h-6c.09.24.49,1.35.61,1.59H203a6.65,6.65,0,0,0,.5-1.59M203.28.3a7.43,7.43,0,0,0-2.83.53A7.16,7.16,0,0,0,197.68.3a7.47,7.47,0,0,0-3.26.71,6.78,6.78,0,0,0-2.68-.53A7.07,7.07,0,0,0,185,4.65a6.6,6.6,0,0,0-3.82,6.14,6.82,6.82,0,0,0,1.2,4,7.88,7.88,0,0,0-.09,1.2,6.82,6.82,0,0,0,.93,3.52v.15a6.52,6.52,0,0,0-2,4.85,6.72,6.72,0,0,0,1,3.62,6.86,6.86,0,0,0-.5,2.71c0,3.65,2.61,7.43,7,7.43a16.58,16.58,0,0,0,6.2-1.72,6.94,6.94,0,0,0,5.43,2.38,7.29,7.29,0,0,0,5.8-2.42,17.69,17.69,0,0,0,6.14,1.76,7.19,7.19,0,0,0,7.1-7.43,7.1,7.1,0,0,0-.6-2.94,6.78,6.78,0,0,0,.87-3.39,6.58,6.58,0,0,0-1.9-4.74c0-.1,0-.21,0-.31a6.81,6.81,0,0,0,.9-3.47,6.91,6.91,0,0,0-.11-1.3,6.73,6.73,0,0,0,1.13-3.83,6.63,6.63,0,0,0-3.33-5.91c-.85-2.41-3.18-4.4-6.89-4.4a8.26,8.26,0,0,0-2.88.49A7.52,7.52,0,0,0,203.28.3Z"/><path class="cls-1" d="M232.44,36.51c-4.2,0-6.3-.28-8.34-1.11a6.76,6.76,0,0,1-4.46-6.07h-.39a4.7,4.7,0,0,1-4.63-4.66c0-1.88,1-3,2.64-4.76.56-.62,1-1.15,1.51-1.78a4.28,4.28,0,0,1-3.34-4.38c0-2.07,1.24-4.48,4.74-4.48l3.57,0,.22-.5a4.33,4.33,0,0,1,4.28-2.47A4.53,4.53,0,0,1,232.76,9l2-.07c2.24-.08,3.53-.12,3.89-.12a4.39,4.39,0,0,1,4.66,4.51,4.62,4.62,0,0,1-.84,2.77A4.75,4.75,0,0,1,244.32,20c0,2.49-1.43,4.06-4.26,4.66l-2.32.51c0,.35,0,.64,0,.88s0,.58,0,.85c.31,0,.56,0,.7,0a4.21,4.21,0,0,1,4.37,4.51,4.28,4.28,0,0,1-3.1,4.32A26.32,26.32,0,0,1,232.44,36.51Z"/><path class="cls-1" d="M228.24,8.78c1,0,2.26.36,2.26,1.65a3.51,3.51,0,0,1-.3,1.18c2.82-.09,7.84-.28,8.45-.28a1.91,1.91,0,0,1,2.16,2,1.76,1.76,0,0,1-1.68,2c-.67.12-8.26.34-11.23.4-.78,1.23-.81,1.28-1.29,2.1a7.27,7.27,0,0,1,3.56-1,5.14,5.14,0,0,1,2.46.61,4.61,4.61,0,0,1,1.68,1.79,26.1,26.1,0,0,1,5.52-1.45c1.9,0,2,1.9,2,2.27,0,1.71-1.21,2-2.27,2.21-3.05.67-3.14.7-4.43,1.06.09,1.09.14,2.21.14,2.78,0,1.28,0,2.85-2.12,2.85S231,27.43,231,27s0-1.57,0-2.15c-2.44,1.06-4.14,2-4.14,3.63,0,1.26,1.82,1.57,4.7,1.57a40.49,40.49,0,0,0,5.82-.53,6.27,6.27,0,0,1,1.07-.08c1.45,0,1.87,1,1.87,2A1.74,1.74,0,0,1,239,33.36a27.15,27.15,0,0,1-6.52.65c-4.2,0-5.88-.31-7.4-.92a4.32,4.32,0,0,1-2.91-4c0-4.2,4.76-6.72,8-8.2a2.18,2.18,0,0,0-1.57-.62c-3.14,0-5.43,2.91-6.13,3.81-.25.31-1.26,1.65-1.49,1.93a2.15,2.15,0,0,1-3.86-1.32c0-.89.48-1.42,2-3.08a36.54,36.54,0,0,0,4.31-5.82l-3.16,0c-.62,0-2.33,0-2.33-2.05s1.63-2,2.24-2c3.28,0,3.64,0,5.29-.06.23-.53.51-1.37.76-1.9s.56-1,2-1m0-5a6.93,6.93,0,0,0-6,3h-.6l-1.48,0c-4.22,0-7.2,2.87-7.2,7a6.73,6.73,0,0,0,2,5c-1.54,1.71-2.79,3.32-2.79,5.9a7.16,7.16,0,0,0,5.36,6.94,9.39,9.39,0,0,0,5.7,6.11c2.34.94,4.76,1.28,9.26,1.28a29,29,0,0,0,8-.86,6.77,6.77,0,0,0,4.89-6.72,7.07,7.07,0,0,0-2.11-5.2A6.79,6.79,0,0,0,246.82,20a7.54,7.54,0,0,0-1.36-4.41,7.37,7.37,0,0,0,.35-2.29,6.85,6.85,0,0,0-7.16-7c-.38,0-1.39,0-4,.12l-.49,0A7.34,7.34,0,0,0,228.24,3.78Z"/><path class="cls-1" d="M250.31,36.36a4,4,0,0,1-3.66-2.06,4.6,4.6,0,0,1-.84.08,3.94,3.94,0,0,1-4.18-4A20.3,20.3,0,0,1,242,27.9c.18-1.2.38-2.57.43-3a13.39,13.39,0,0,1,.3-2,4.74,4.74,0,0,1-1.06-3.18,3.83,3.83,0,0,1,2.48-4l-.06-.06c-1.56-1.63-2.27-2.37-2.27-4.15a4.68,4.68,0,0,1,3.65-4.62c.19-.31.37-.64.63-1.13.78-1.42,1.61-2.93,4.07-2.93a4.75,4.75,0,0,1,4.19,2.43,4.47,4.47,0,0,1,3.82-1.71h10.4c2.81,0,6.16,1.07,6.16,6.16,0,.06-.11,6.17-1.27,8.54a6.34,6.34,0,0,1-.6,1,6.65,6.65,0,0,1,1.33,4.29v6c0,4-2.17,6.13-6.13,6.13h-7.64c-2.48,0-4.26-.85-5.25-2.44a4.44,4.44,0,0,1-.63,0h-.14A4,4,0,0,1,250.31,36.36ZM265,26.56v-.13h-1.53v.13Z"/><path class="cls-1" d="M250.13,5.33c.66,0,2.1.48,2.1,1.65s-1.92,3.78-2.79,4.95c.21.21.57.63.72.81.93-1.38,1.05-1.59,2.24-3.51a1.69,1.69,0,0,1,1.54-1c.59,0,2,.42,2,1.68a2.5,2.5,0,0,1-.42,1.26,43.38,43.38,0,0,1-2.73,3.66,1.45,1.45,0,0,1,.69-.18c1,0,1.25.81,1.62,1.92a32,32,0,0,1,1.17,4.44,1.51,1.51,0,0,1-1.66,1.35c-.77,0-1.13-.39-1.34-1.41-.75.12-1.05.15-1.29.18V32a1.7,1.7,0,1,1-3.39,0V21.56c-.3,0-2.46.21-2.61.21-.45,0-1.89,0-1.89-2.07,0-1.74,1-1.8,2.28-1.89l1.32-1.71A24.32,24.32,0,0,0,245.9,14c-1.44-1.5-1.62-1.68-1.62-2.46a2.12,2.12,0,0,1,1.89-2.19,1.33,1.33,0,0,1,.6.15c.69-1.08.9-1.41,1.5-2.52s.87-1.62,1.86-1.62m2,10.35c-.27.36-.75.93-1.62,1.95.3,0,1.71-.15,2-.15a5.86,5.86,0,0,1-.35-1.8m16.37-9.63c2.76,0,3.66,1.14,3.66,3.66,0,1.26-.3,6-1,7.44-.9,1.92-2.4,1.92-4.7,1.92a5.27,5.27,0,0,1-2-.15,2.14,2.14,0,0,1-1.29-2.07c0-2,1.47-2,2.17-2,1.43,0,1.58,0,1.85-.27.54-.54.66-2.88.66-3.63,0-.51-.21-.81-.78-.81h-2.61c-.6,5.88-4.76,9.69-6.83,9.69a2.31,2.31,0,0,1-2.13-2.43c0-.93.5-1.29,1.13-1.71a6.46,6.46,0,0,0,3.42-5.55h-2a1.89,1.89,0,0,1-2.2-2,1.89,1.89,0,0,1,2.2-2.07h10.4M268,19.91c2.25,0,3.63.75,3.63,3.66v6c0,2.76-1.23,3.63-3.63,3.63h-7.64c-2.44,0-3.66-.9-3.66-3.63v-6c0-2.94,1.43-3.66,3.66-3.66H268m-6.3,9.15h4.92a.73.73,0,0,0,.81-.81V24.74a.73.73,0,0,0-.81-.81h-4.92a.73.73,0,0,0-.8.81v3.51a.73.73,0,0,0,.8.81M254,22.52c1.12,0,1.21.63,1.48,2.52a37.25,37.25,0,0,1,.53,4.53c0,1-.84,1.2-1.52,1.2-1.17,0-1.2-.42-1.41-2.49-.06-.75-.49-4.29-.49-4.65,0-1,.91-1.11,1.41-1.11m-7.58,0c1.44,0,1.47,1.14,1.47,1.86,0,1.56-.51,5.4-.57,5.88-.21,1.26-.78,1.59-1.53,1.59-.12,0-1.68,0-1.68-1.47,0-.18.66-4.41.75-5.25.21-2.13.24-2.61,1.56-2.61M250.13.33c-3.94,0-5.42,2.7-6.21,4.15l0,.07-.12.22a7.19,7.19,0,0,0-4.48,6.74,6.27,6.27,0,0,0,1.21,3.87,6.81,6.81,0,0,0-1.36,4.32,7.64,7.64,0,0,0,.91,3.74c-.06.45-.1.84-.13,1.15v.08c0,.3-.27,1.91-.41,2.87a18.34,18.34,0,0,0-.36,2.87,6.4,6.4,0,0,0,6.34,6.46,6.89,6.89,0,0,0,9.76-.07,9.39,9.39,0,0,0,5.16,1.37H268c5.33,0,8.63-3.31,8.63-8.63v-6a9.9,9.9,0,0,0-.92-4.36c1.4-3.05,1.46-9.44,1.46-9.5,0-5.42-3.23-8.66-8.66-8.66h-10.4a7.84,7.84,0,0,0-3.53.79A7.55,7.55,0,0,0,250.13.33Z"/><path class="cls-1" d="M294.1,36.36c-3.16,0-5-1.76-5-4.69v-14a4.76,4.76,0,0,1,1-3.09c-.61-.5-1.14-1-1.57-1.33-.47.42-1.05.91-1.71,1.44a4.85,4.85,0,0,1,1,3.07v3.42c0,5.63-1.38,9.4-4.47,12.25-1.11,1-3.34,2.76-5.74,2.76a5,5,0,0,1-5-5.11,4.57,4.57,0,0,1,2-3.81c2.44-1.49,2.48-1.55,2.76-2.09a9.79,9.79,0,0,0,.73-4.39v-.67a5.49,5.49,0,0,1-1.64.32,5,5,0,0,1-4.81-5.2A4.56,4.56,0,0,1,274.27,11c4.3-2.14,5.08-2.52,9.35-6.46a6.52,6.52,0,0,1,4.85-1.95A7.15,7.15,0,0,1,294,5.08a27.45,27.45,0,0,0,7,5c2.46,1.15,4.39,2.05,4.39,5.15a5,5,0,0,1-4.78,5.2,5.49,5.49,0,0,1-1.73-.34V31.67A4.42,4.42,0,0,1,294.1,36.36Z"/><path class="cls-1" d="M288.47,5.06c1.82,0,2.57.69,3.77,1.83a29.63,29.63,0,0,0,7.68,5.49c2.31,1.08,2.94,1.38,2.94,2.88a2.51,2.51,0,0,1-2.28,2.7c-2.25,0-9-5-11.18-7.29-.46-.48-.63-.66-.91-.66s-.44.18-.93.66c-2.25,2.31-9,7.26-11.12,7.26a2.52,2.52,0,0,1-2.31-2.7,2.08,2.08,0,0,1,1.23-2c4.47-2.22,5.43-2.7,9.95-6.87a4.1,4.1,0,0,1,3.16-1.29m5.34,10.41c1.64,0,2.54.48,2.54,2.19v14c0,.6,0,2.19-2.25,2.19-1.77,0-2.54-.63-2.54-2.19v-14c0-.87.23-2.19,2.25-2.19m-11,.06c2.25,0,2.43,1.23,2.43,2.22v3.42c0,5.4-1.38,8.31-3.67,10.41-.41.39-2.33,2.1-4,2.1a2.53,2.53,0,0,1-2.46-2.61,2.08,2.08,0,0,1,.84-1.68c2.52-1.53,3-1.86,3.66-3a12.64,12.64,0,0,0,1-5.58v-3a2,2,0,0,1,2.22-2.22M288.47.06A9,9,0,0,0,281.9,2.7c-4,3.67-4.54,3.94-8.77,6a7.06,7.06,0,0,0-4,6.49,7.59,7.59,0,0,0,6.32,7.63,3.45,3.45,0,0,1-.27,1.07c-.37.27-1.23.79-1.88,1.18a7.08,7.08,0,0,0-3.24,6,7.46,7.46,0,0,0,7.46,7.61c3.26,0,6.07-2.16,7.45-3.44a15.47,15.47,0,0,0,1.74-1.89c.76,3.79,4.09,5.51,7.39,5.51a6.91,6.91,0,0,0,7.25-7.19V22.92a7.56,7.56,0,0,0,6.51-7.66c0-4.69-3.36-6.26-5.82-7.41a24.5,24.5,0,0,1-6.38-4.61A9.54,9.54,0,0,0,288.47.06Z"/><path class="cls-1" d="M318,35.22c-5.19,0-8.64-1.4-10.86-4.41-1.26-1.68-1.95-3.71-1.95-9.55,0-.74.18-12.63.26-13.24.36-3.85,3.38-4.44,5.15-4.44a4.65,4.65,0,0,1,5,5.05c0,.42-.2,4.67-.22,5-.2,4-.27,5.23-.27,8.66,0,2.87.08,3.35,2.79,3.35,3.89,0,5.5-1.26,6.14-4.82.33-1.79.94-5.11,5-5.11,3.11,0,5.2,1.88,5.2,4.69a16.83,16.83,0,0,1-3.31,9.26C328.09,33.35,323.75,35.22,318,35.22Z"/><path class="cls-1" d="M310.55,6.08A2.21,2.21,0,0,1,313,8.63c0,.3-.18,4.26-.21,4.86-.21,4.11-.28,5.34-.28,8.79,0,3,.21,5.85,5.29,5.85,5.25,0,7.76-2.25,8.6-6.87.33-1.8.57-3.06,2.55-3.06.45,0,2.7,0,2.7,2.19a14.31,14.31,0,0,1-2.82,7.77c-2.4,3.21-6.15,4.56-10.89,4.56-4.47,0-7.16-1.11-8.85-3.39-.8-1.08-1.46-2.49-1.46-8.07,0-2.07.21-12.69.24-12.93.12-1.26.54-2.25,2.67-2.25m0-5c-4.32,0-7.25,2.6-7.65,6.77h0c-.11,1.67-.26,13.3-.26,13.41,0,5.81.62,8.61,2.46,11.07,2.67,3.61,6.88,5.39,12.85,5.39,6.63,0,11.64-2.21,14.9-6.57a19.27,19.27,0,0,0,3.81-10.76c0-4.17-3.23-7.19-7.7-7.19-6.15,0-7.14,5.39-7.46,7.16a4.25,4.25,0,0,1-.91,2.2,4.93,4.93,0,0,1-2.78.57h-.27c0-.23,0-.51,0-.84,0-3.37.07-4.57.27-8.54,0,0,.22-4.58.22-5.11A7.11,7.11,0,0,0,310.55,1.08Z"/><path class="cls-1" d="M344.69,35.25c-8.27,0-11.2-4.47-11.2-8.29a7.42,7.42,0,0,1,2.32-5.4l-.24-.13a4.44,4.44,0,0,1-2.11-4,4.54,4.54,0,0,1,1-2.91,4.7,4.7,0,0,1-1.22-3.27c0-1.07.35-4.57,5-4.57l1.65,0c.64,0,2.7,0,4.43-.05a4.17,4.17,0,0,1,1-1.86,5,5,0,0,1,3.68-1.39c2.76,0,4.18,1.43,4.7,3.1,1.63,0,3.77-.09,4.33-.13h.27l.75,0a4.34,4.34,0,0,1,4.6,4.57,4.27,4.27,0,0,1-1.21,3.28,4.63,4.63,0,0,1,.94,2.93c0,4.47-4.12,4.54-5.48,4.57l-1.21,0a32.3,32.3,0,0,1,5,3.31,5,5,0,0,1,2,3.88,5.19,5.19,0,0,1-5,5.23,5.42,5.42,0,0,1-3.81-1.74c-.27-.24-.89-.74-1.64-1.31C351.79,33.87,348.94,35.25,344.69,35.25Z"/><path class="cls-1" d="M348.94,5.93c1.24,0,2.37.39,2.43,2.1l0,1.05c1.05,0,5.76-.12,6.72-.18l.87,0a1.86,1.86,0,0,1,2.1,2.07c0,2-1.29,2-2.52,2.07s-6.09.15-7.1.18l0,2.13c1,0,5.46-.12,6.36-.18l.84,0a1.84,1.84,0,0,1,2.1,2c0,2-1.32,2-3,2.07l-6.21.15.07,2.91A29.25,29.25,0,0,1,360,27a2.48,2.48,0,0,1,1.08,2,2.7,2.7,0,0,1-2.49,2.73c-.72,0-1.14-.21-2.15-1.11-.52-.45-1.81-1.47-3.13-2.4a17.78,17.78,0,0,0-1.7-1c-.13,1.77-.37,5.61-7,5.61-5.64,0-8.7-2.43-8.7-5.79s3-5.82,8.57-5.82a17.07,17.07,0,0,1,2.29.15l0-1.83-7.46.06a5.65,5.65,0,0,1-2.55-.27,2,2,0,0,1-.84-1.8c0-1.47.89-2,2.13-2l8.64,0-.06-2.13-7,.06H339a5.11,5.11,0,0,1-2.4-.27,2,2,0,0,1-.87-1.8c0-2.07,1.62-2.07,2.46-2.07l1.65,0c1.08,0,5.81-.06,6.8-.06l0-1.14c-.05-1.86,1.5-2.1,2.37-2.1M344.06,28.7c.9,0,2-.12,2.51-.9.28-.48.31-1,.31-2.55a7.18,7.18,0,0,0-2.61-.45c-.81,0-3.79.12-3.79,2,0,1.26,1.42,1.89,3.58,1.89M348.94.93a7.37,7.37,0,0,0-5.47,2.15,6.65,6.65,0,0,0-.87,1.11l-2.85,0h-.63l-1,0c-3.72,0-7.46,2.19-7.46,7.07a7.4,7.4,0,0,0,.79,3.4,7.65,7.65,0,0,0,.9,7.21A9.84,9.84,0,0,0,331,27c0,5.37,4.23,10.79,13.7,10.79,4.37,0,7.16-1.28,8.94-3a7.46,7.46,0,0,0,5,2,7.71,7.71,0,0,0,7.49-7.73,7.38,7.38,0,0,0-2.86-5.78l-.29-.24a6.74,6.74,0,0,0,2.85-5.77,7.62,7.62,0,0,0-.5-2.8,7.89,7.89,0,0,0,.77-3.41A6.85,6.85,0,0,0,359,3.87l-.85,0h-.33L355.19,4A7.23,7.23,0,0,0,348.94.93Z"/><path class="cls-1" d="M372.65,35.49c-3.82,0-5.17-2.61-5.17-4.84a3.9,3.9,0,0,1,2.06-3.83,7.85,7.85,0,0,1-2.84-6.19A8.07,8.07,0,0,1,368.13,16a8.89,8.89,0,0,1-2.42-.22,4.33,4.33,0,0,1-3.15-4.46c0-1.4.5-4.66,5.2-4.66l4.92,0c2.31,0,3.65,0,5.43-.08a4.29,4.29,0,0,1,1.05-1.9,4.9,4.9,0,0,1,3.69-1.41,4.6,4.6,0,0,1,4.7,3.09l2-.06c3.57,0,4.84,2.39,4.84,4.63,0,1.07-.34,4.56-4.82,4.69-.37,0-.66,0-1.77,0v3.51a13.32,13.32,0,0,1,.65,4.21c0,6.37-3.86,10.49-10.87,11.59A35.5,35.5,0,0,1,372.65,35.49Z"/><path class="cls-1" d="M382.85,5.84c2.46,0,2.46,1.77,2.46,2.4V9c.65,0,3.63-.12,4.25-.12,1,0,2.34.21,2.34,2.13s-1.38,2.16-2.4,2.19c-.6,0-1,0-4.19.09v6.36a11.32,11.32,0,0,1,.65,3.81c0,5.31-3.21,8.25-8.76,9.12a33,33,0,0,1-4.55.42A2.3,2.3,0,0,1,370,30.65c0-1.95,1.37-1.95,2.91-1.95a14.8,14.8,0,0,0,6.17-1.11,3.73,3.73,0,0,0,2-2.37,6.22,6.22,0,0,1-4.5,1.41c-4.28,0-7.37-2.34-7.37-6,0-3.21,2.57-6,7.49-6a11.13,11.13,0,0,1,3.91.63l0-1.89c-5.3.09-7.2.15-10.46.15-3,0-3.3,0-3.75-.15s-1.29-.51-1.29-2c0-2.13,1.62-2.16,2.7-2.16l4.92,0c3.24,0,4.55-.06,7.8-.12l0-.81c0-.63-.05-2.46,2.41-2.46M377.2,23c1.69,0,3.4-.69,3.4-2.4,0-2.31-2.83-2.4-3.3-2.4-1.36,0-3.45.57-3.45,2.4,0,2.16,2.6,2.4,3.35,2.4M382.85.84A7.31,7.31,0,0,0,377.35,3a7,7,0,0,0-.88,1.15c-1.12,0-2.25,0-3.84.05h-2.29l-2.58,0a8.67,8.67,0,0,0-4,.82,6.81,6.81,0,0,0-3.68,6.34,6.84,6.84,0,0,0,4.43,6.69,11.14,11.14,0,0,0-.29,2.58,10.39,10.39,0,0,0,1.88,6.08,7.26,7.26,0,0,0-1.1,3.94C365,35,368.13,38,372.65,38A37,37,0,0,0,378,37.5c8.23-1.29,13-6.41,13-14a16.08,16.08,0,0,0-.65-4.59v-.71A6.84,6.84,0,0,0,396.9,11c0-4.2-3-7.13-7.34-7.13h-.49A7.19,7.19,0,0,0,382.85.84Z"/><path class="cls-2" d="M87.29,17.63c.75.27,1.48.81,1.48,1.59,0,1.14-2.25,2.67-3.67,3.57,2.73-.09,3-.09,4.65-.18A2.52,2.52,0,0,1,89,21,2.39,2.39,0,0,1,91.34,19c.78,0,1.2.21,2.88,2.22.9,1.11,2.4,3,2.4,4.08a2.33,2.33,0,0,1-2.34,2.07c-1,0-1.41-.63-2-1.56-2.55.18-5,.36-7.55.45v5.46c0,1.71-.72,2.19-2.5,2.19s-2.06-1.11-2.06-2.19V26.51c-.21,0-3.07.12-4.11.12a2.15,2.15,0,0,1,1.83,2.13c0,.66-.12,1.2-2.83,2.85-1.19.75-3,1.83-4.17,1.83-1.52,0-1.94-1.56-1.94-2.28,0-1.11.69-1.47,1.62-1.89a18.72,18.72,0,0,0,3-1.62,4.58,4.58,0,0,1,2.16-1c-2.52,0-5,.09-5.61.09s-2,0-2-2.07a1.55,1.55,0,0,1,1.62-1.74c.84-.06,5,0,6,0-.75-.36-1.92-1-2.67-1.32s-1.34-.69-1.34-1.59a2.11,2.11,0,0,1,2.07-1.92,5.17,5.17,0,0,1,2.4.87,11.11,11.11,0,0,0,1.5-1.35h-7.8c-.81,0-1.83-.18-1.83-1.65a1.56,1.56,0,0,1,1.83-1.56H80.22v-.87H71.94c-.78,0-1.53-.24-1.53-1.38,0-1.35,1-1.38,1.53-1.38h8.28V9.92H70.8c-.54,0-1.83,0-1.83-1.56A1.57,1.57,0,0,1,70.8,6.77h9.42c0-1.32.51-1.68,2.22-1.68,2.07,0,2.3.54,2.33,1.68h9.51c.6,0,1.8.12,1.8,1.59a1.53,1.53,0,0,1-1.8,1.56H84.77v.87h8.28c.81,0,1.56.24,1.56,1.38,0,1.32-1,1.38-1.56,1.38H84.77v.87H95.06c.75,0,1.83.15,1.83,1.62s-1.29,1.59-1.83,1.59Zm-4.4,0a35,35,0,0,1-3.45,3c.75.45,1.08.66,1.46.9,1.24-.93,1.71-1.35,4-3.33a3.2,3.2,0,0,1,.87-.6Zm8.57,10a30.69,30.69,0,0,0,3.18,1.8c.72.36,1.38.72,1.38,1.65s-.78,2.43-2.07,2.43-3.36-1.53-4.53-2.34c-2.15-1.5-2.36-1.86-2.36-2.58a2.09,2.09,0,0,1,2.06-2.13C89.75,26.42,89.94,26.54,91.46,27.59Z"/><path class="cls-2" d="M124.85,9.44a1.93,1.93,0,0,1,2,2.22c0,2.19-1.26,2.22-1.86,2.25-.12,7.32-1.47,10.59-2.22,12.21a17,17,0,0,0,3.15,3.15,2,2,0,0,1,1,1.71,2.7,2.7,0,0,1-2.46,2.7c-.72,0-1.29-.24-2.64-1.71a23.25,23.25,0,0,1-1.44-1.83c-.84,1.08-2.63,3.42-4.17,3.42a2.38,2.38,0,0,1-1.92-1c-.59,1.17-1.58,1.23-3,1.23-2,0-3.42,0-3.42-2.16a2,2,0,0,1,.09-.72h-1.68c-2.37,0-2.55-1-2.55-2.91V25.55c0-1.38,0-2.58,1.59-2.82V21.62h-1.47a1.08,1.08,0,0,1-.87-.48V32A1.69,1.69,0,0,1,101,33.92c-1.92,0-1.92-1.38-1.92-1.92V16.85c0-2,.3-2.94,2.37-3a13.92,13.92,0,0,0-.57-2.4h-1c-.6,0-1.8-.12-1.8-1.95s1.2-2,1.89-2h4.55V6.8c0-1.5,1.59-1.62,2.2-1.62.84,0,2.39.12,2.39,1.62v.72h4.29c.58,0,1.92,0,1.92,2,0,1.77-1.05,2-1.85,2h-1c-.17.81-.29,1.35-.59,2.37a2.51,2.51,0,0,1,2.3.9,27.94,27.94,0,0,0,2.64-7.38c.31-1.35.48-2.22,2.13-2.22.4,0,2.25,0,2.25,1.8a12.48,12.48,0,0,1-.45,2.52ZM105.3,17.87a1,1,0,0,1,.3-.72h-2.08c-.44,0-.56.24-.56.57V19a1.08,1.08,0,0,1,.87-.48h1.47Zm2.76-4.05a15.49,15.49,0,0,0,.47-2.37H105c.09.24.56,2.16.6,2.37Zm-.39,12.45c0-.36-.15-.54-.52-.54h-.59a.47.47,0,0,0-.54.54v1.05a.47.47,0,0,0,.54.54h.59c.37,0,.52-.18.52-.54Zm2.27-7.8a1.07,1.07,0,0,1,.91.45v-1.2a.51.51,0,0,0-.58-.57h-2.09a1,1,0,0,1,.3.72v.6ZM110.1,28a5.8,5.8,0,0,1-.16,1.68c.61,0,.91,0,.91-.72V21.17a1,1,0,0,1-.91.45h-1.46v1.11c1.55.24,1.62,1.35,1.62,2.82Zm4.8-7.35a.82.82,0,0,1-.34-.06v8.7a1.8,1.8,0,0,1,.25-.21,16,16,0,0,0,3.09-3.18A30.17,30.17,0,0,1,116,20.12,1.59,1.59,0,0,1,114.9,20.63Zm4.46-6.72c-.15.36-.26.69-.59,1.44A29.23,29.23,0,0,0,120.15,21a40.35,40.35,0,0,0,.83-7.11Z"/><path class="cls-2" d="M133.52,27.71a2.24,2.24,0,0,1-2.08,1.43,2.3,2.3,0,0,1-2.43-2c0-.76.22-1.09,1.85-4A35.77,35.77,0,0,0,133.4,17a13.76,13.76,0,0,1-3.08-.09,1.87,1.87,0,0,1-1.26-2,1.8,1.8,0,0,1,1.68-2c.2,0,3.36-.11,3.84-.11.08-.42.42-2.27.53-2.63A1.8,1.8,0,0,1,137,8.89c.56,0,2.44.12,2.44,1.77a8.76,8.76,0,0,1-.31,1.9c.31,0,1.65-.08,1.93-.08a1.88,1.88,0,0,1,2.16,2.1c0,2-1.43,2-2.27,2.1l-3.05.11A56.61,56.61,0,0,1,133.52,27.71ZM144,19c-.14-1.76,1.45-2,2.18-2a1.87,1.87,0,0,1,2.16,1.82l.25,5.41A17.21,17.21,0,0,1,152.53,27a2.32,2.32,0,0,1,.95,1.82,2.28,2.28,0,0,1-2.21,2.35,1.74,1.74,0,0,1-1.15-.39c-1.12-1-1.34-1.17-1.88-1.68a5.17,5.17,0,0,1-.58,2.41c-1.29,2.24-4.12,2.49-5.55,2.49-4.87,0-6.94-2.6-6.94-5.49,0-2.68,2-5.68,7.31-5.68a17.32,17.32,0,0,1,1.79.11Zm-1.77,7.36c-.89,0-3.24.17-3.24,2s2.4,1.88,2.8,1.88c2.18,0,2.66-1.07,2.63-3.45A4.42,4.42,0,0,0,142.22,26.36ZM146,10.24c1.26,0,4.56,2,6.49,3.47,1,.78,1.32,1.37,1.32,2.1a2.34,2.34,0,0,1-2.24,2.27,2.75,2.75,0,0,1-1.82-.87A21,21,0,0,0,145.11,14a1.92,1.92,0,0,1-1.29-1.7,2.24,2.24,0,0,1,.36-1.12A2.39,2.39,0,0,1,146,10.24Z"/><path class="cls-2" d="M169.27,10.34A31.1,31.1,0,0,1,163,15.29c-1.22.75-3.44,2-4.55,2a2.55,2.55,0,0,1-2.34-2.7,2,2,0,0,1,1.56-2,25.38,25.38,0,0,0,9.21-5.94,4.37,4.37,0,0,1,3.59-1.59,4.45,4.45,0,0,1,3.57,1.59,25.94,25.94,0,0,0,9.27,5.94,2,2,0,0,1,1.53,2,2.52,2.52,0,0,1-2.31,2.7c-1.32,0-5.45-2.16-8.94-5.22-.92-.81-2-1.83-2.25-2.1s-.56-.6-.87-.6S170.16,9.5,169.27,10.34Zm3.92,18.15h9.09c.81,0,2.19.15,2.19,2,0,1.62-.51,2.37-2.19,2.37H158.71a1.91,1.91,0,0,1-2.22-2.07c0-1.56.57-2.31,2.22-2.31h1.41v-9c0-.84.15-2.19,2-2.19,1.59,0,2.4.45,2.4,2.19v9h4.2V15c0-.87.18-2.19,2-2.19,1.59,0,2.39.48,2.39,2.19v3.6H180a1.92,1.92,0,0,1,2.22,2c0,1.56-.6,2.28-2.22,2.28h-6.81Z"/><path class="cls-2" d="M195.64,8.93V7.49c0-.84.17-2.19,2-2.19a1.91,1.91,0,0,1,2,2.19V8.93h1.58V7.49c0-.78.13-2.19,2-2.19a1.88,1.88,0,0,1,2,2.19V8.93h1.08c0-.06.94-2.07,1-2.28.26-.6.54-1.14,2-1.14s2.25.69,2.25,1.53a6.37,6.37,0,0,1-.6,1.89h1.38a1.89,1.89,0,0,1,2.19,1.89c0,1.83-1.83,1.83-2.19,1.83H208a15.16,15.16,0,0,1-.54,1.59h4.29A1.6,1.6,0,0,1,213.6,16a1.59,1.59,0,0,1-1.86,1.68h-9.05v1.05H211c.33,0,1.74,0,1.74,1.47s-1.41,1.47-1.74,1.47h-8.3V22.7h9.77c.75,0,2.16.18,2.16,1.77,0,1.77-1.8,1.77-2.16,1.77H205.9A22.18,22.18,0,0,0,212,28.7c1.32.33,2.37.66,2.37,2.1a2.27,2.27,0,0,1-2.1,2.43,19.34,19.34,0,0,1-9.56-5V31.7c0,1.59-.7,2.19-2.38,2.19a1.91,1.91,0,0,1-2.07-2.19V28.37c-3.89,3.57-8.48,4.86-9.56,4.86-1.65,0-2-1.8-2-2.43,0-1.32.84-1.65,2.52-2a20.69,20.69,0,0,0,6.05-2.52h-6.89c-.78,0-2.19-.21-2.19-1.77,0-1.77,1.83-1.77,2.19-1.77h9.86V21.62h-8.3c-.36,0-1.74,0-1.74-1.47s1.4-1.47,1.74-1.47h8.3V17.63h-9.08A1.59,1.59,0,0,1,187.3,16a1.6,1.6,0,0,1,1.86-1.71h4.38s-.36-1-.63-1.59h-4.53c-.39,0-2.19,0-2.19-1.86s1.83-1.86,2.19-1.86h1.74c-.57-1.2-.63-1.35-.63-1.8,0-1.11,1.32-1.65,2.25-1.65,2,0,2.85,3,2.87,3.45ZM203,14.24a6.65,6.65,0,0,0,.5-1.59h-6c.09.24.49,1.35.61,1.59Z"/><path class="cls-2" d="M226.22,9.82c.17-.39.56-1,2-1,1,0,2.26.36,2.26,1.65a3.51,3.51,0,0,1-.3,1.18c2.82-.09,7.84-.28,8.45-.28a1.91,1.91,0,0,1,2.16,2,1.76,1.76,0,0,1-1.68,2c-.67.12-8.26.34-11.23.4-.78,1.23-.81,1.28-1.29,2.1a7.27,7.27,0,0,1,3.56-1,5.14,5.14,0,0,1,2.46.61,4.61,4.61,0,0,1,1.68,1.79,26.1,26.1,0,0,1,5.52-1.45c1.9,0,2,1.9,2,2.27,0,1.71-1.21,2-2.27,2.21-3.05.67-3.14.7-4.43,1.06.09,1.09.14,2.21.14,2.78,0,1.28,0,2.85-2.12,2.85S231,27.43,231,27s0-1.57,0-2.15c-2.44,1.06-4.14,2-4.14,3.63,0,1.26,1.82,1.57,4.7,1.57a40.49,40.49,0,0,0,5.82-.53,6.27,6.27,0,0,1,1.07-.08c1.45,0,1.87,1,1.87,2A1.74,1.74,0,0,1,239,33.36a27.15,27.15,0,0,1-6.52.65c-4.2,0-5.88-.31-7.4-.92a4.32,4.32,0,0,1-2.91-4c0-4.2,4.76-6.72,8-8.2a2.18,2.18,0,0,0-1.57-.62c-3.14,0-5.43,2.91-6.13,3.81-.25.31-1.26,1.65-1.49,1.93a2.15,2.15,0,0,1-3.86-1.32c0-.89.48-1.42,2-3.08a36.54,36.54,0,0,0,4.31-5.82l-3.16,0c-.62,0-2.33,0-2.33-2.05s1.63-2,2.24-2c3.28,0,3.64,0,5.29-.06C225.69,11.19,226,10.35,226.22,9.82Z"/><path class="cls-2" d="M247.73,16.1A24.32,24.32,0,0,0,245.9,14c-1.44-1.5-1.62-1.68-1.62-2.46a2.12,2.12,0,0,1,1.89-2.19,1.33,1.33,0,0,1,.6.15c.69-1.08.9-1.41,1.5-2.52s.87-1.62,1.86-1.62c.66,0,2.1.48,2.1,1.65s-1.92,3.78-2.79,4.95c.21.21.57.63.72.81.93-1.38,1.05-1.59,2.24-3.51a1.69,1.69,0,0,1,1.54-1c.59,0,2,.42,2,1.68a2.5,2.5,0,0,1-.42,1.26,43.38,43.38,0,0,1-2.73,3.66,1.45,1.45,0,0,1,.69-.18c1,0,1.25.81,1.62,1.92a32,32,0,0,1,1.17,4.44,1.51,1.51,0,0,1-1.66,1.35c-.77,0-1.13-.39-1.34-1.41-.75.12-1.05.15-1.29.18V32a1.7,1.7,0,1,1-3.39,0V21.56c-.3,0-2.46.21-2.61.21-.45,0-1.89,0-1.89-2.07,0-1.74,1-1.8,2.28-1.89Zm.18,8.31c0,1.56-.51,5.4-.57,5.88-.21,1.26-.78,1.59-1.53,1.59-.12,0-1.68,0-1.68-1.47,0-.18.66-4.41.75-5.25.21-2.13.24-2.61,1.56-2.61S247.91,23.69,247.91,24.41Zm2.64-6.78c.3,0,1.71-.15,2-.15a5.86,5.86,0,0,1-.35-1.8C251.9,16,251.42,16.61,250.55,17.63Zm4,13.14c-1.17,0-1.2-.42-1.41-2.49-.06-.75-.49-4.29-.49-4.65,0-1,.91-1.11,1.41-1.11,1.12,0,1.21.63,1.48,2.52a37.25,37.25,0,0,1,.53,4.53C256,30.56,255.19,30.77,254.51,30.77Zm3.63-20.64a1.89,1.89,0,0,1-2.2-2,1.89,1.89,0,0,1,2.2-2.07h10.4c2.76,0,3.66,1.14,3.66,3.66,0,1.26-.3,6-1,7.44-.9,1.92-2.4,1.92-4.7,1.92a5.27,5.27,0,0,1-2-.15,2.14,2.14,0,0,1-1.29-2.07c0-2,1.47-2,2.17-2,1.43,0,1.58,0,1.85-.27.54-.54.66-2.88.66-3.63,0-.51-.21-.81-.78-.81h-2.61c-.6,5.88-4.76,9.69-6.83,9.69a2.31,2.31,0,0,1-2.13-2.43c0-.93.5-1.29,1.13-1.71a6.46,6.46,0,0,0,3.42-5.55Zm13.52,19.41c0,2.76-1.23,3.63-3.63,3.63h-7.64c-2.44,0-3.66-.9-3.66-3.63v-6c0-2.94,1.43-3.66,3.66-3.66H268c2.25,0,3.63.75,3.63,3.66Zm-4.2-4.8a.73.73,0,0,0-.81-.81h-4.92a.73.73,0,0,0-.8.81v3.51a.73.73,0,0,0,.8.81h4.92a.73.73,0,0,0,.81-.81Z"/><path class="cls-2" d="M287.56,10.67c-2.25,2.31-9,7.26-11.12,7.26a2.52,2.52,0,0,1-2.31-2.7,2.08,2.08,0,0,1,1.23-2c4.47-2.22,5.43-2.7,9.95-6.87a4.1,4.1,0,0,1,3.16-1.29c1.82,0,2.57.69,3.77,1.83a29.63,29.63,0,0,0,7.68,5.49c2.31,1.08,2.94,1.38,2.94,2.88a2.51,2.51,0,0,1-2.28,2.7c-2.25,0-9-5-11.18-7.29-.46-.48-.63-.66-.91-.66S288.05,10.19,287.56,10.67Zm-2.33,10.5c0,5.4-1.38,8.31-3.67,10.41-.41.39-2.33,2.1-4,2.1a2.53,2.53,0,0,1-2.46-2.61,2.08,2.08,0,0,1,.84-1.68c2.52-1.53,3-1.86,3.66-3a12.64,12.64,0,0,0,1-5.58v-3a2,2,0,0,1,2.22-2.22c2.25,0,2.43,1.23,2.43,2.22Zm11.12,10.5c0,.6,0,2.19-2.25,2.19-1.77,0-2.54-.63-2.54-2.19v-14c0-.87.23-2.19,2.25-2.19,1.64,0,2.54.48,2.54,2.19Z"/><path class="cls-2" d="M313,8.63c0,.3-.18,4.26-.21,4.86-.21,4.11-.28,5.34-.28,8.79,0,3,.21,5.85,5.29,5.85,5.25,0,7.76-2.25,8.6-6.87.33-1.8.57-3.06,2.55-3.06.45,0,2.7,0,2.7,2.19a14.31,14.31,0,0,1-2.82,7.77c-2.4,3.21-6.15,4.56-10.89,4.56-4.47,0-7.16-1.11-8.85-3.39-.8-1.08-1.46-2.49-1.46-8.07,0-2.07.21-12.69.24-12.93.12-1.26.54-2.25,2.67-2.25A2.21,2.21,0,0,1,313,8.63Z"/><path class="cls-2" d="M351.52,15.32c1,0,5.46-.12,6.36-.18l.84,0a1.84,1.84,0,0,1,2.1,2c0,2-1.32,2-3,2.07l-6.21.15.07,2.91A29.25,29.25,0,0,1,360,27a2.48,2.48,0,0,1,1.08,2,2.7,2.7,0,0,1-2.49,2.73c-.72,0-1.14-.21-2.15-1.11-.52-.45-1.81-1.47-3.13-2.4a17.78,17.78,0,0,0-1.7-1c-.13,1.77-.37,5.61-7,5.61-5.64,0-8.7-2.43-8.7-5.79s3-5.82,8.57-5.82a17.07,17.07,0,0,1,2.29.15l0-1.83-7.46.06a5.65,5.65,0,0,1-2.55-.27,2,2,0,0,1-.84-1.8c0-1.47.89-2,2.13-2l8.64,0-.06-2.13-7,.06H339a5.11,5.11,0,0,1-2.4-.27,2,2,0,0,1-.87-1.8c0-2.07,1.62-2.07,2.46-2.07l1.65,0c1.08,0,5.81-.06,6.8-.06l0-1.14c-.05-1.86,1.5-2.1,2.37-2.1,1.24,0,2.37.39,2.43,2.1l0,1.05c1.05,0,5.76-.12,6.72-.18l.87,0a1.86,1.86,0,0,1,2.1,2.07c0,2-1.29,2-2.52,2.07s-6.09.15-7.1.18Zm-7.25,9.48c-.81,0-3.79.12-3.79,2,0,1.26,1.42,1.89,3.58,1.89.9,0,2-.12,2.51-.9.28-.48.31-1,.31-2.55A7.18,7.18,0,0,0,344.27,24.8Z"/><path class="cls-2" d="M385.31,19.64a11.32,11.32,0,0,1,.65,3.81c0,5.31-3.21,8.25-8.76,9.12a33,33,0,0,1-4.55.42A2.3,2.3,0,0,1,370,30.65c0-1.95,1.37-1.95,2.91-1.95a14.8,14.8,0,0,0,6.17-1.11,3.73,3.73,0,0,0,2-2.37,6.22,6.22,0,0,1-4.5,1.41c-4.28,0-7.37-2.34-7.37-6,0-3.21,2.57-6,7.49-6a11.13,11.13,0,0,1,3.91.63l0-1.89c-5.3.09-7.2.15-10.46.15-3,0-3.3,0-3.75-.15s-1.29-.51-1.29-2c0-2.13,1.62-2.16,2.7-2.16l4.92,0c3.24,0,4.55-.06,7.8-.12l0-.81c0-.63-.05-2.46,2.41-2.46s2.46,1.77,2.46,2.4V9c.65,0,3.63-.12,4.25-.12,1,0,2.34.21,2.34,2.13s-1.38,2.16-2.4,2.19c-.6,0-1,0-4.19.09Zm-4.71,1c0-2.31-2.83-2.4-3.3-2.4-1.36,0-3.45.57-3.45,2.4,0,2.16,2.6,2.4,3.35,2.4C378.89,23,380.6,22.34,380.6,20.63Z"/></svg>