<svg id="materials" xmlns="http://www.w3.org/2000/svg" viewBox="0 0 460 39.07"><defs><style>.cls-1{fill:#fff;}.cls-2{fill:#474747;}</style></defs><title>free-trial-title</title><path class="cls-1" d="M168.83,34.94a5.42,5.42,0,0,1-4.16-1.54,8.27,8.27,0,0,1-5,1.42,8.74,8.74,0,0,1-9.14-8.93c0-2.77,1-6.35,5.32-9.1h-.17c-4.62,0-5-3.57-5-4.67,0-2.88,1.87-4.67,4.88-4.67l2.36,0h.44c.53-3.17,3.08-3.69,4.66-3.69s4,.49,4.65,3.42l.36,0a5.07,5.07,0,0,1,4-2.47c1.24,0,2.21.25,4.11,1.61a21.16,21.16,0,0,1,4.34,4.22l.06.09a5.68,5.68,0,0,1,1,3.1A4.83,4.83,0,0,1,179.1,18,9.87,9.87,0,0,1,181,24.09C181,30.58,176.13,34.94,168.83,34.94Zm-1-9.19c.21,0,.42,0,.64,0,2.41,0,2.41-.77,2.41-1.45s0-1.59-3-1.65Z"/><path class="cls-2" d="M163.07,5.73c2.71,0,2.79,1.8,2.79,2.91v.51c.35,0,.72,0,1.08,0,1.5,0,2.94.38,2.94,2.68,0,2.58-1.85,2.64-4,2.7v1.14a20.56,20.56,0,0,1,2.13-.12c5.46,0,11,2.22,11,8.58,0,5.94-4.77,8.85-10.2,8.85-1.86,0-3.3-.66-3.3-2.79,0-2.4,2.07-2.43,3-2.43,2.37,0,4.41-.72,4.41-3.45,0-2.25-1.17-3.66-5.46-3.66a11.74,11.74,0,0,0-1.59.12V25a10.21,10.21,0,0,1-.71,4.71c-1.24,2.61-3.42,3.12-5.46,3.12a6.7,6.7,0,0,1-7.14-6.93c0-6.06,6-8.4,7.77-9.06V14.7c-.75,0-4,.09-4.62.09-.84,0-3,0-3-2.67,0-2.52,2-2.67,2.88-2.67l4.71-.06V8.67c0-1,0-2.94,2.75-2.94m-3.8,21.69c.75,0,1.1-.72,1.1-2.64V22.26c-.8.48-2.46,1.41-2.46,3.39,0,1.11.61,1.77,1.36,1.77M172.1,6.72c.69,0,1.26,0,2.94,1.23a19,19,0,0,1,3.87,3.75,3.82,3.82,0,0,1,.75,2,3,3,0,0,1-3,2.88c-1.17,0-1.62-.6-2.61-1.86a20.32,20.32,0,0,0-3.54-3.51,2.49,2.49,0,0,1-1-1.92,2.91,2.91,0,0,1,2.61-2.61m-9-5a6.35,6.35,0,0,0-6.16,3.71h-1.3c-4.12,0-6.88,2.68-6.88,6.67a6.49,6.49,0,0,0,2.91,5.65,12.1,12.1,0,0,0-3.09,8.12,10.67,10.67,0,0,0,11.14,10.93,11,11,0,0,0,4.8-1,8.18,8.18,0,0,0,4.34,1.11c8.37,0,14.2-5.28,14.2-12.85a12.35,12.35,0,0,0-1.29-5.66,6.78,6.78,0,0,0,1.92-4.69,7.54,7.54,0,0,0-1.35-4.15l-.13-.19a22.85,22.85,0,0,0-4.81-4.7,8.31,8.31,0,0,0-5.27-2A6.73,6.73,0,0,0,168.41,4,6.8,6.8,0,0,0,163.07,1.73Z"/><path class="cls-1" d="M209.35,35.87a5.28,5.28,0,0,1-4.65-2.37c-.41.15-.87.29-1.4.44a26.21,26.21,0,0,1-5.31,1,4.42,4.42,0,0,1-1.8-.36,6.6,6.6,0,0,1-4.2,1h-2.64c-4.33,0-5.72-1.4-5.72-5.78V28.05a7.72,7.72,0,0,1,.73-3.85,3.79,3.79,0,0,1-.85-2.51,4,4,0,0,1,.66-2.25,4.35,4.35,0,0,1-.29-4.06,4.13,4.13,0,0,1-1.12-2.93,3.91,3.91,0,0,1,1.13-2.91,4.25,4.25,0,0,1-.38-1.8c0-1.93,1.1-4,4.22-4h5.76a3.84,3.84,0,0,1,4.21,3.83,6.55,6.55,0,0,1,1.37-.14h3.13v-.1C202.2,4.59,203.93,3,207,3a4.74,4.74,0,0,1,2.35.57A4.46,4.46,0,0,1,211.39,3a3.52,3.52,0,0,1,3.15,1.81,7.46,7.46,0,0,1,1.37,3.64,3.43,3.43,0,0,1-.55,1.88,7.25,7.25,0,0,1,.22,1.93,4.11,4.11,0,0,1-4.15,4.41c.06,1.65.21,6.47.22,6.8a4.38,4.38,0,0,1,.52,0,4,4,0,0,1,4,4.13A10.33,10.33,0,0,1,214.37,33C212.62,35.54,210.77,35.87,209.35,35.87Z"/><path class="cls-2" d="M207,5c1.62,0,2,.91,2.1,1.2.15.46.15.67.21,3.21h1.23c-.12-.18-.51-1.08-.6-1.26-.51-1-.54-1.14-.54-1.47,0-1,1.08-1.65,2-1.65a1.58,1.58,0,0,1,1.47.9,6.49,6.49,0,0,1,1,2.55,1.75,1.75,0,0,1-1,1.5c.42.3.72,1,.72,2.31,0,1.8-1.05,2.43-2.7,2.43h-1.53c.06,1.29.33,9.93.36,10.71.09,1.32.36,1.5.66,1.5s.3-.09.63-.63a1.22,1.22,0,0,1,1.17-.84,2,2,0,0,1,2,2.13,8.37,8.37,0,0,1-1.47,4.23c-1.26,1.86-2.4,2-3.36,2-2.16,0-3.21-1.29-3.81-3.3-.33.57-.69.84-2.79,1.44a24.8,24.8,0,0,1-4.76.93,2.33,2.33,0,0,1-2.32-1.8c-.18,2.43-1.64,2.46-3.68,2.46h-2.64c-3.24,0-3.72-.51-3.72-3.78V28.05c0-3.3.51-3.78,3.78-3.78h2.52c1.64,0,2.36,0,3.09.69s.68,1.68.68,3.09v1c.39-.9,1.08-1.14,2.2-1.35V22.08c-1.69,0-2.41-.9-2.41-2.58A2.2,2.2,0,0,1,197.86,17h4.56a2.13,2.13,0,0,1,2,1.05l-.09-3.36h-5.27c-1.21,0-2.25-.3-2.62-1.65a1.9,1.9,0,0,1-2.16,1.44H187a2,2,0,0,1-2.25-2.07,2,2,0,0,1,2.25-2h7.28a2,2,0,0,1,2.11,1.11c.12-1.11.56-2.1,2.67-2.1h5.18c0-.57-.05-1.5-.05-2.1S204.2,5,207,5m-4.08,21.75c.27,0,.51-.06.69-.06a2.2,2.2,0,0,1,1.41.45c-.33-3-.39-5.13-.45-6.09a2,2,0,0,1-1.65,1v4.68M190.66,29.4h.66a.29.29,0,0,0,.3-.33v-.66a.29.29,0,0,0-.3-.33h-.66a.3.3,0,0,0-.33.33v.66a.3.3,0,0,0,.33.33m2.83-23.67a1.91,1.91,0,0,1,2.21,2,1.89,1.89,0,0,1-2.21,2h-5.76a1.9,1.9,0,0,1-2.22-1.95c0-1.92,1.52-2,2.22-2h5.76m0,9.51a1.94,1.94,0,1,1,0,3.84h-5.79a1.94,1.94,0,1,1,0-3.84h5.79m0,4.56c.39,0,2.22,0,2.22,1.86s-1.78,1.89-2.38,1.89h-5.63c-.42,0-2.22,0-2.22-1.86a1.91,1.91,0,0,1,2.22-1.89h5.79M207,1c-3.38,0-5.77,1.68-6.51,4.41H199.3a5.91,5.91,0,0,0-5.81-3.69h-5.76a5.85,5.85,0,0,0-6.22,6,7,7,0,0,0,.14,1.42,6.11,6.11,0,0,0-.89,3.29,6.3,6.3,0,0,0,.89,3.32,7,7,0,0,0-.14,1.39,6.42,6.42,0,0,0,.4,2.28,6.29,6.29,0,0,0-.4,2.25,6.15,6.15,0,0,0,.59,2.69,12.26,12.26,0,0,0-.47,3.67v1.77c0,1.53,0,4.09,1.78,5.92s4.4,1.86,5.94,1.86H192a10.1,10.1,0,0,0,4.47-.83,6.9,6.9,0,0,0,1.53.17,29.6,29.6,0,0,0,5.86-1.08l.18,0a7.53,7.53,0,0,0,5.32,2.06A7.73,7.73,0,0,0,216,34.08a12.34,12.34,0,0,0,2.15-6.48,6,6,0,0,0-4.59-6c0-1.08-.07-2.24-.11-3.32a6,6,0,0,0,4.1-6,10.49,10.49,0,0,0-.12-1.63,5.35,5.35,0,0,0,.45-2.18c0-.49,0-2-1.65-4.65l0-.09A5.63,5.63,0,0,0,211.39,1a6.28,6.28,0,0,0-2.09.36A7,7,0,0,0,207,1Z"/><path class="cls-1" d="M229.24,34.91c-5.09,0-8.47-1.31-10.63-4.14-1.31-1.76-2-3.82-2-9.71,0-1.58.23-12.12.27-12.67.39-3,2.12-4.54,5.17-4.54s5,1.88,5,5c0,0,0,.51,0,1.08-.38,6.94-.48,9.12-.48,12.42,0,2.48,0,2.92,2.71,2.92,4.14,0,5.23-1.63,5.81-4.64.33-1.73.94-5,5-5,3.14,0,5.24,1.88,5.24,4.67a16,16,0,0,1-3.43,9.31C239.09,33.2,235,34.91,229.24,34.91Z"/><path class="cls-2" d="M222,5.85a2.67,2.67,0,0,1,3,3s0,.45,0,1c-.4,7.11-.49,9.27-.49,12.54,0,3,.4,4.92,4.71,4.92,5.4,0,7.08-2.67,7.77-6.27.33-1.74.63-3.33,3-3.33.33,0,3.24,0,3.24,2.67a14.13,14.13,0,0,1-3,8.07c-2.49,3.21-6.27,4.47-11,4.47-4.54,0-7.29-1.08-9-3.36-.8-1.08-1.61-2.49-1.61-8.49,0-1.83.23-12.15.27-12.51.17-1.41.63-2.7,3.17-2.7m0-4c-1.91,0-6.43.61-7.14,6.2l0,.17c-.06.69-.28,11.46-.28,12.84,0,6.41.88,8.85,2.41,10.89,3.4,4.45,8.61,5,12.24,5,6.3,0,11.07-2,14.17-6a18.21,18.21,0,0,0,3.83-10.53c0-3.92-3-6.67-7.24-6.67-5.71,0-6.65,5-6.95,6.59-.43,2.23-.85,3-3.85,3l-.68,0c0-.22,0-.51,0-.9,0-3.1.08-5.05.48-12.32,0-.56,0-1,0-1.18A6.63,6.63,0,0,0,222,1.85Z"/><path class="cls-1" d="M271.63,36.05a8.07,8.07,0,0,1-3.83-.6,4.15,4.15,0,0,1-.57-.35,4,4,0,0,1-2.44.74,5.77,5.77,0,0,1-2.45-.55,3.94,3.94,0,0,1-1.75.4c-1.82,0-2.66-.91-3.81-2.18l-.61-.66-.06.06c-2.15,2.1-3.75,3-5.2,3a4.63,4.63,0,0,1-4.52-4.64,3.61,3.61,0,0,1,.94-2.56A4.4,4.4,0,0,1,245.67,25,4.13,4.13,0,0,1,248,21.05V14A4.37,4.37,0,0,1,246,10.05a4.25,4.25,0,0,1,2.19-4,4.34,4.34,0,0,1,4.39-2.95,4.62,4.62,0,0,1,3.47,1.42,4.69,4.69,0,0,1,3.56-1.42,4.58,4.58,0,0,1,3.7,1.64c1.26-1.13,3.11-1.13,4.6-1.13h4C276.62,3.61,278,5,278,9.69V29.91C278,34.07,277.09,36.05,271.63,36.05Z"/><path class="cls-2" d="M259.61,5.1a2.37,2.37,0,0,1,2.63,2.55,1.51,1.51,0,0,1,1.59.78c.21-2.7,1.45-2.82,4.08-2.82h4c3.54,0,4.08.51,4.08,4.08V29.91c0,3.24-.24,4.14-4.41,4.14a8.55,8.55,0,0,1-2.94-.39c-1.56-.81-1.26-2.82-1.26-2.94-.72,2.67-1.5,3.12-2.64,3.12a3.76,3.76,0,0,1-2.49-1,2.37,2.37,0,0,1-1.71.81c-1,0-1.31-.42-2.6-1.83s-1.75-1.8-1.75-2.61a2.11,2.11,0,0,1,1.17-1.74h-2.58a2.5,2.5,0,0,1,1.06,1.92,3.68,3.68,0,0,1-1.2,2.07c-1.26,1.23-2.74,2.43-3.78,2.43a2.65,2.65,0,0,1-2.52-2.64c0-1.08.57-1.5,2.34-2.76.21-.12,1-.87,1.22-1H250c-.71,0-2.36-.09-2.36-2.52A2.12,2.12,0,0,1,250,22.62V12.51c-1.71,0-1.95-1.62-1.95-2.46s.3-2.4,1.95-2.4a2.63,2.63,0,0,1,5.25,0h1.71a2.39,2.39,0,0,1,2.7-2.55m9.32,8.1h2V11.46a.25.25,0,0,0-.27-.27h-1.5a.25.25,0,0,0-.27.27V13.2M263.62,23c.06-.63.18-1.71.18-2.79v-8.4a1.48,1.48,0,0,1-1.56.72V22.62a1.87,1.87,0,0,1,1.38.36m-8.42-9.39h1.71V12.51H255.2v1.08m0,4.56h1.71V17.07H255.2v1.08m13.73,1.92h2V18.15h-2v1.92M255.2,22.62h1.71v-1H255.2v1M267.64,30c.6-1.44,1.8-1.44,3-1.44.3,0,.3-.27.3-.48v-3h-2.46a29.92,29.92,0,0,1-.87,4.92m-4.82-2.52a5.77,5.77,0,0,1-.82.06h-2.25a10.94,10.94,0,0,1,2.32,1.89c.23-.66.68-1.77.75-1.95M259.61,1.1a7.25,7.25,0,0,0-3.56.88,7,7,0,0,0-3.47-.88,6.42,6.42,0,0,0-6,3.56A6.38,6.38,0,0,0,244,10.05,6.63,6.63,0,0,0,246,15v5a6.3,6.3,0,0,0-2.28,5,6.92,6.92,0,0,0,1.15,4,6,6,0,0,0-.43,2.3,6.66,6.66,0,0,0,6.52,6.64c1.65,0,3.24-.69,5.14-2.27a5.91,5.91,0,0,0,4.54,2,6.07,6.07,0,0,0,1.75-.25,7.86,7.86,0,0,0,2.45.4,6.35,6.35,0,0,0,2.43-.45,11.1,11.1,0,0,0,4.41.66C280,38.05,280,33,280,29.91V9.69C280,4,277.7,1.61,272,1.61h-4a11.16,11.16,0,0,0-4.36.67A6.85,6.85,0,0,0,259.61,1.1Z"/><path class="cls-1" d="M282.86,36c-4.12,0-4.73-2.73-4.73-4.37V10c0-2.73,1-6,6-6h5.22a6.1,6.1,0,0,1,4.4,1.46A6.08,6.08,0,0,1,298.12,4h5.34c5,0,6,3.26,6,6V29.07c0,3.55-.54,6.74-7.16,6.74-2.92,0-5.71,0-7-2.46h-4.95a7.33,7.33,0,0,1-3.22-.64A4.06,4.06,0,0,1,282.86,36Z"/><path class="cls-2" d="M303.46,6c2.34,0,4,.75,4,4V29.07c0,3.12-.21,4.74-5.16,4.74-4.08,0-5.13-.3-5.51-2.46h-6.4c-2.67,0-4-1.05-4-4V23c0-3.09,1.46-4,4-4h6.75c2.64,0,4,1,4,4v4.35c0,.27,0,.48,0,.84.87,0,1,0,1.11-.12s.12-.27.12-.69v-9h-4.2c-2.61,0-4-1-4-4V10c0-3.08,1.47-4,4-4h5.34m-4.2,4.59h3.06V9.93A.31.31,0,0,0,302,9.6h-2.4a.31.31,0,0,0-.33.33v.63m.33,4.26h2.73v-1h-3.06v.63a.3.3,0,0,0,.33.33m-8.18,8.79h4.64V23a.33.33,0,0,0-.33-.36h-4c-.17,0-.29.15-.29.36v.6m.29,3.78h4a.3.3,0,0,0,.33-.33v-.63h-4.64v.63a.29.29,0,0,0,.29.33M289.33,6c2.46,0,4,.84,4,4v4.41c0,3.15-1.53,4-4,4h-4.07V31.62c0,.63,0,2.37-2.4,2.37-2,0-2.73-.72-2.73-2.37V10c0-3.08,1.44-4,4-4h5.22m-4.07,4.59h3.18V9.93a.31.31,0,0,0-.3-.33h-2.56a.29.29,0,0,0-.32.33v.63m0,4.26h2.85a.32.32,0,0,0,.33-.33v-.63h-3.18v1M303.46,2h-5.34a9,9,0,0,0-4.39,1,9.06,9.06,0,0,0-4.4-1h-5.22c-5,0-8,3-8,8V31.62c0,3.08,1.76,6.37,6.73,6.37a6.11,6.11,0,0,0,5.47-2.82,11.17,11.17,0,0,0,2.05.18h3.87c2,2.46,5.52,2.46,8,2.46,8.08,0,9.16-4.41,9.16-8.74V10C311.45,5,308.47,2,303.46,2Z"/></svg>