<svg id="materials" xmlns="http://www.w3.org/2000/svg" viewBox="0 0 143.32 143.32"><defs><style>.cls-1{fill:#ef6085;}.cls-2{fill:#eda921;}.cls-3{fill:#f8ed00;}.cls-4{fill:#474747;}.cls-5{fill:#fff;}</style></defs><title>free</title><circle class="cls-1" cx="71.66" cy="71.66" r="71.66" transform="translate(-10.55 12.4) rotate(-9.22)"/><path class="cls-2" d="M126.78,71.66A55.12,55.12,0,1,1,71.66,16.54,55.12,55.12,0,0,1,126.78,71.66Z"/><path class="cls-3" d="M114.06,72.92A41.14,41.14,0,1,1,72.92,31.78,41.14,41.14,0,0,1,114.06,72.92Z"/><path class="cls-4" d="M47.21,93.48c-4.13,0-5.23-2.54-5.51-4.21-1.51,2.79-3,4.13-5.5,4.13-2.93,0-6.09-2.12-6.09-5.55,0-1.5.4-2.1,1.89-4.34a20.24,20.24,0,0,0,1.22-2.26A4.94,4.94,0,0,1,31,76.88a5,5,0,0,1,2.62-4.81A4.77,4.77,0,0,1,30,67.15a6.18,6.18,0,0,1,.86-3.36,6,6,0,0,1-1-3.23c0-2.41,1.1-3.29,3.74-5.42A22.91,22.91,0,0,0,37,51.43l.09-.12a5.37,5.37,0,0,1,4.25-2.12A6.38,6.38,0,0,1,46,51.25a4.6,4.6,0,0,1,.54.79H67.78c4,0,5.46,2.65,5.46,5.14a5.14,5.14,0,0,1-2.32,4.72,4.81,4.81,0,0,1,3.44,4.88c0,3.51-1.84,4.84-3.63,5.29a4.85,4.85,0,0,1,2.6,4.52,5.26,5.26,0,0,1-1.92,4.46l.59,1c2.23,3.69,2.23,5.1,2.23,5.63,0,3.77-3.68,5.47-6.29,5.47S64.23,92,63.16,89.9c-.78,2-2.94,3.29-5.85,3.29s-4.1-1.28-4.77-2.75C51.52,93,48.91,93.48,47.21,93.48Z"/><path class="cls-4" d="M41.35,51.69c1.36,0,3.51,1,3.22,2.85H67.78c1,0,3,.16,3,2.64,0,1.48-.37,3-2.84,3h-.7v4h1.69c1.32,0,3,.29,3,2.64,0,2-.62,3-3,3H67.2V74H68c1.82,0,2.85.91,2.85,2.64,0,1.9-.66,3-3,3H36.49c-.79,0-3,0-3-2.68,0-2.14,1-2.93,3-2.93h2.1V69.79H35.46c-.83,0-3,0-3-2.64,0-1.94.66-3,3-3H39V61.55c-2.14,1.93-2.84,2.22-3.75,2.22a3.28,3.28,0,0,1-3-3.21c0-1.2.29-1.45,2.81-3.47A25.66,25.66,0,0,0,39,52.89a2.78,2.78,0,0,1,2.31-1.2M59.08,64.14h2.64v-4H59.08v4m-7.34,0h2.6v-4h-2.6v4m-7.34,0H47v-4H44.4v4M59.08,74h2.64V69.79H59.08V74m-7.34,0h2.6V69.79h-2.6V74M44.4,74H47V69.79H44.4V74m21.52,5.86c1.9,0,1.94.12,3.92,3.5.7,1.16,1.89,3.3,1.89,4.37,0,2.31-2.76,3-3.79,3-1.73,0-2-.54-3.42-3.75-.21-.5-1.28-2.6-1.48-3a3.45,3.45,0,0,1-.38-1.44c0-2.11,2.56-2.64,3.26-2.64m-27.54,0c.58,0,3.3.29,3.3,2.51a9.75,9.75,0,0,1-1.24,3.88c-2.1,4.49-3,4.7-4.24,4.7-1.57,0-3.59-1.12-3.59-3.05,0-.74.08-.87,1.48-3A30.48,30.48,0,0,0,36,81.25a2.34,2.34,0,0,1,2.39-1.44m18.14.2c2.15,0,2.35.62,3.42,3.84a18.94,18.94,0,0,1,1,4.29c0,2.51-3.25,2.55-3.67,2.55-2.47,0-2.68-1.32-3-3.46-.12-.78-1-4.25-1-5,0-1.85,2.19-2.23,3.3-2.23m-9.44,0c1.86,0,2.89.66,3.05,2.26.13,1.12.33,3.88.33,5.61,0,1.11,0,3-3.25,3-1.41,0-3.1-.33-3.1-2.76,0-.5,0-2.72,0-3.22-.12-3-.08-3.21.29-3.83a3,3,0,0,1,2.64-1.11M41.35,46.69a7.89,7.89,0,0,0-6.16,3l0,0-.1.12A21.32,21.32,0,0,1,32,53.21c-2.8,2.25-4.66,3.74-4.66,7.35a8.23,8.23,0,0,0,.7,3.33,9.53,9.53,0,0,0-.53,3.26,7.74,7.74,0,0,0,2.06,5.4,8.5,8.5,0,0,0-1.07,4.33,7.83,7.83,0,0,0,1.64,4.93l-.19.3c-1.59,2.39-2.32,3.48-2.32,5.74A8.34,8.34,0,0,0,36.2,95.9a7.24,7.24,0,0,0,5.2-2A8.58,8.58,0,0,0,47.21,96a9.09,9.09,0,0,0,5.38-1.61,8,8,0,0,0,4.71,1.32A9.67,9.67,0,0,0,63.06,94a6.93,6.93,0,0,0,4.88,1.67,10.19,10.19,0,0,0,4.71-1.24,7.57,7.57,0,0,0,4.08-6.73c0-1.16-.26-2.91-2.23-6.31a8.46,8.46,0,0,0,1.33-4.78,7.92,7.92,0,0,0-1-4,8.09,8.09,0,0,0,2.07-5.78,7.32,7.32,0,0,0-2.08-5.41,8.82,8.82,0,0,0,1-4.19c0-3.81-2.46-7.64-8-7.64h-20A8.81,8.81,0,0,0,41.35,46.69Z"/><path class="cls-4" d="M83.19,93.69c-2.54,0-5.26-1.45-5.26-5.51V86.89a4.66,4.66,0,0,1-1.21.16A6.07,6.07,0,0,1,71,81c0-2,.65-2.76,2.59-5.13.52-.63,1.46-1.88,2.43-3.34-3-.33-4.65-2.26-4.65-5.42a5.07,5.07,0,0,1,1.73-4,10,10,0,0,1-.49-1.73,24.23,24.23,0,0,0-.83-3,6.88,6.88,0,0,1-.54-2.42c0-2.78,2.66-4.44,5.22-4.44a4.48,4.48,0,0,1,2.06.45c.85-1.73,2.6-2.68,5.08-2.68a5,5,0,0,1,4.67,2.67,4.54,4.54,0,0,1,2.09-.48A5.74,5.74,0,0,1,94,52.57a5.28,5.28,0,0,1,3-.94,6.22,6.22,0,0,1,3.87,1.44c.79-4,4.56-4,5.9-4,3.39,0,5.42,2.06,5.42,5.51v16c2.25.65,3.63,2.82,3.63,5.89a4.62,4.62,0,0,1-3.63,4.84V88a5.38,5.38,0,0,1-1.9,4.49c-1.15,1-3.31,1.06-4.18,1.06-3.38,0-5.39-2.07-5.39-5.55V83.56l-5.41,1a5.86,5.86,0,0,1-1.1.11,4.86,4.86,0,0,1-3.65-1.6,5,5,0,0,1-1.44.22h-.3v4.89C88.87,90.23,88.13,93.69,83.19,93.69Zm8-21.38c.17.2.34.41.52.61.32.36.61.67.86.94.26-.08.55-.15.86-.22l1-.18-.76-.71L92.83,72l-.3-.27A5.25,5.25,0,0,1,91.19,72.31Zm3-10.05a4.34,4.34,0,0,1,.62-.16l-.43-.38C94.37,61.85,94.24,62.2,94.22,62.26Z"/><path class="cls-4" d="M106.82,51.61c2.35,0,2.92,1.32,2.92,3V73.13a3.65,3.65,0,0,1,1-.16c2.44,0,2.6,2.72,2.6,3.58,0,1.32-.41,2.23-2.39,2.56l-1.24.2V88a3.1,3.1,0,0,1-.95,2.52,5.69,5.69,0,0,1-2.63.53c-2.31,0-2.89-1.32-2.89-3V80.55L94.9,82.12a3.63,3.63,0,0,1-.64.06c-1.41,0-2.43-1-2.57-3a3,3,0,0,1-2.52,1.65c-1.28,0-2.1-1.28-2.8-2.64v10c0,2.31-1.07,3-3.18,3-2.72,0-2.76-2.19-2.76-3V80.67c-1.4,2.64-2.35,3.88-3.71,3.88A3.6,3.6,0,0,1,73.51,81c0-1.07.2-1.32,2.06-3.58A47.62,47.62,0,0,0,80.39,70H77c-2.23,0-3.09-.91-3.09-3,0-2.68,2.35-2.68,3.09-2.68h3.46V54.74c0-2.22,1-3,3.18-3,2.68,0,2.76,2.15,2.76,3v9.65H89.3c2.14,0,3,.91,3,3C92.35,70,90,70,89.3,70H86.49a40,40,0,0,0,3.34,4.53c1.77,1.94,1.94,2.15,2.1,2.81.25-.46.5-1,2-1.28l9.36-1.77V54.66c0-2.6,1.16-3,3.55-3M90.37,53.92c2,0,2.84,1.11,2.84,2.1a22,22,0,0,1-1.28,5.2c-.53,1.52-1.07,2.1-2.1,2.1s-2.72-.7-2.72-2.1a5.07,5.07,0,0,1,.37-1.69c.37-1.2.62-2.35,1-3.8.16-.62.41-1.81,1.94-1.81m-13.9,0c1.32,0,1.65.74,2.07,1.9a29.38,29.38,0,0,1,1.27,5.36c0,1.52-1.69,2.06-2.76,2.06-1.44,0-1.69-1-2-2.43a28,28,0,0,0-.9-3.3,5,5,0,0,1-.42-1.65c0-1.32,1.61-1.94,2.72-1.94m20.58.17c1.11,0,1.93.53,3.29,1.69,2.07,1.77,2.64,2.22,2.64,3.5a3.26,3.26,0,0,1-3,3.26c-1,0-1.19-.21-3.3-2.23-.33-.29-1.77-1.57-2-1.86a2.25,2.25,0,0,1-.45-1.4,3,3,0,0,1,2.89-3M95.77,64.51c1.15,0,2,.58,4.16,2.4,1.4,1.15,1.94,1.73,1.94,2.76a3.56,3.56,0,0,1-3.17,3.42c-1,0-1.24-.25-3.26-2.1-.29-.29-1.65-1.45-1.94-1.74a1.91,1.91,0,0,1-.66-1.56,3.17,3.17,0,0,1,2.93-3.18m11-17.9a9,9,0,0,0-5.66,1.54,7,7,0,0,0-1.43,1.44,8,8,0,0,0-2.68-.46,7.83,7.83,0,0,0-3,.57,8.76,8.76,0,0,0-3.73-.78,8.39,8.39,0,0,0-1.08.08,7.86,7.86,0,0,0-5.68-2.27A8.23,8.23,0,0,0,77.54,49,7.4,7.4,0,0,0,76.47,49c-3.79,0-7.72,2.6-7.72,6.94a9.38,9.38,0,0,0,.67,3.23,21.8,21.8,0,0,1,.76,2.77c0,.17.08.35.13.53a8,8,0,0,0-1.43,4.64A7.6,7.6,0,0,0,72.1,73.7c-.15.2-.29.37-.4.5-2.07,2.54-3.19,3.91-3.19,6.76a8.75,8.75,0,0,0,7,8.49,7.38,7.38,0,0,0,7.68,6.74c5,0,8.18-3.07,8.18-8V86.61a7.41,7.41,0,0,0,2.89.57A8.53,8.53,0,0,0,95.84,87l2.43-.46V88c0,4.89,3.1,8,7.89,8a9.37,9.37,0,0,0,5.76-1.63A7.77,7.77,0,0,0,114.74,88v-5a7.06,7.06,0,0,0,3.63-6.5c0-3.36-1.38-6-3.63-7.47V54.62C114.74,49.83,111.56,46.61,106.82,46.61Z"/><path class="cls-5" d="M67.78,54.53c1,0,3,.17,3,2.64,0,1.49-.37,3-2.84,3H67.2v4h1.7c1.31,0,3,.29,3,2.64,0,2-.61,3-3,3H67.2V74H68c1.81,0,2.84.91,2.84,2.64,0,1.9-.66,3-3,3H36.49c-.78,0-3,0-3-2.68,0-2.14,1-2.93,3-2.93h2.1V69.79H35.46c-.83,0-3,0-3-2.64,0-1.94.66-3,3-3h3.59v-2.6c-2.15,1.94-2.85,2.23-3.76,2.23a3.28,3.28,0,0,1-3-3.22c0-1.19.28-1.44,2.8-3.46a26.23,26.23,0,0,0,3.92-4.21,2.77,2.77,0,0,1,2.3-1.19c1.36,0,3.51,1,3.22,2.84ZM41.68,82.32a9.86,9.86,0,0,1-1.23,3.88c-2.11,4.49-3,4.7-4.25,4.7-1.57,0-3.59-1.12-3.59-3.05,0-.75.09-.87,1.49-3A30.87,30.87,0,0,0,36,81.25a2.34,2.34,0,0,1,2.4-1.44C39,79.81,41.68,80.1,41.68,82.32Zm8.46,0c.12,1.12.33,3.88.33,5.61,0,1.11,0,3-3.26,3-1.4,0-3.09-.33-3.09-2.76,0-.5,0-2.72,0-3.22-.13-3-.08-3.21.29-3.83a3,3,0,0,1,2.63-1.12C48.94,80.05,50,80.71,50.14,82.32ZM47,60.14H44.41v4H47Zm0,9.65H44.41V74H47Zm7.38-9.65h-2.6v4h2.6Zm0,9.65h-2.6V74h2.6ZM60,83.85a18.94,18.94,0,0,1,1,4.29c0,2.51-3.26,2.55-3.67,2.55-2.48,0-2.68-1.32-3.05-3.46-.12-.78-1-4.25-1-5,0-1.86,2.18-2.23,3.3-2.23C58.67,80,58.88,80.63,60,83.85Zm1.77-23.71H59.08v4h2.64Zm0,9.65H59.08V74h2.64Zm8.12,13.52c.7,1.16,1.9,3.3,1.9,4.37,0,2.31-2.76,3-3.79,3-1.73,0-2-.54-3.43-3.75-.2-.5-1.27-2.6-1.48-3a3.62,3.62,0,0,1-.37-1.44c0-2.11,2.56-2.64,3.26-2.64C67.82,79.81,67.86,79.93,69.84,83.31Z"/><path class="cls-5" d="M94.91,82.12c-1.74.33-3.06-.62-3.22-3a3,3,0,0,1-2.52,1.65c-1.27,0-2.1-1.28-2.8-2.64v10c0,2.31-1.07,3-3.17,3-2.72,0-2.77-2.19-2.77-3V80.67c-1.4,2.64-2.35,3.88-3.71,3.88A3.6,3.6,0,0,1,73.51,81c0-1.07.2-1.32,2.06-3.58A48.13,48.13,0,0,0,80.39,70H77c-2.22,0-3.09-.91-3.09-3,0-2.68,2.35-2.68,3.09-2.68h3.46V54.74c0-2.23,1-3,3.18-3,2.68,0,2.76,2.14,2.76,3v9.65H89.3c2.14,0,3,.9,3,3C92.35,70,90,70,89.3,70H86.5a41.22,41.22,0,0,0,3.33,4.53c1.78,1.94,1.94,2.15,2.11,2.81.24-.46.49-1,2-1.28l9.36-1.78V54.66c0-2.6,1.15-3,3.54-3s2.93,1.32,2.93,3V73.13a3.33,3.33,0,0,1,1-.17c2.43,0,2.6,2.72,2.6,3.59,0,1.32-.42,2.23-2.39,2.56l-1.24.2V88a3.1,3.1,0,0,1-1,2.52,5.73,5.73,0,0,1-2.64.53c-2.31,0-2.88-1.32-2.88-3V80.55ZM78.54,55.85a29.68,29.68,0,0,1,1.28,5.36c0,1.53-1.69,2.06-2.77,2.06-1.44,0-1.69-1-2-2.43a29.11,29.11,0,0,0-.91-3.3,5,5,0,0,1-.42-1.65c0-1.31,1.61-1.93,2.73-1.93C77.8,54,78.13,54.7,78.54,55.85ZM93.22,56a22.4,22.4,0,0,1-1.28,5.19c-.54,1.53-1.07,2.11-2.11,2.11s-2.72-.71-2.72-2.11a5.26,5.26,0,0,1,.38-1.69c.37-1.19.61-2.35.94-3.79.17-.62.41-1.81,1.94-1.81C92.39,53.92,93.22,55,93.22,56ZM99.94,66.9c1.4,1.16,1.93,1.73,1.93,2.77a3.55,3.55,0,0,1-3.17,3.42c-1,0-1.24-.25-3.26-2.11-.29-.28-1.65-1.44-1.94-1.73a1.93,1.93,0,0,1-.66-1.56,3.18,3.18,0,0,1,2.93-3.18C96.93,64.51,97.79,65.09,99.94,66.9Zm.41-11.09C102.41,57.58,103,58,103,59.32a3.26,3.26,0,0,1-3,3.25c-1,0-1.2-.2-3.3-2.22-.33-.29-1.78-1.57-2-1.86a2.28,2.28,0,0,1-.46-1.4,3,3,0,0,1,2.89-3C98.16,54.12,99,54.66,100.35,55.81Z"/></svg>