<svg id="materials" xmlns="http://www.w3.org/2000/svg" xmlns:xlink="http://www.w3.org/1999/xlink" viewBox="0 0 240 240"><defs><style>.cls-1{fill:none;}.cls-2{fill:#fff;}.cls-3{fill:#fff2dc;}.cls-4{fill:#515556;}.cls-5{clip-path:url(#clip-path);}.cls-6{fill:#ef8eac;}.cls-7{fill:#fffaf0;}.cls-8{clip-path:url(#clip-path-2);}.cls-9{fill:#62d2dd;}.cls-10{clip-path:url(#clip-path-3);}.cls-11{fill:#e05d4f;}.cls-12{clip-path:url(#clip-path-4);}.cls-13{fill:#bf3e3e;}.cls-14{fill:#ef4d4d;}.cls-15{fill:#f27171;}.cls-16{fill:#ef8b8b;}</style><clipPath id="clip-path"><rect class="cls-1" x="52.68" y="125.52" width="157.17" height="89.75"/></clipPath><clipPath id="clip-path-2"><path class="cls-1" d="M200.4,134c0,14.18-13.07,25.69-29.19,25.69S142,148.18,142,134s13.06-25.69,29.18-25.69S200.4,119.81,200.4,134Z"/></clipPath><clipPath id="clip-path-3"><path class="cls-1" d="M120.49,134c0,14.18-13,25.69-29,25.69s-29-11.51-29-25.69,13-25.69,29-25.69S120.49,119.81,120.49,134Z"/></clipPath><clipPath id="clip-path-4"><path class="cls-1" d="M111.34,152.61c-2,2.39-5.09,6.37-5.09,11.45,0,11.06,12.27,13.64,24.17,14v0l.64,0,.63,0v0c11.91-.33,24.18-2.91,24.18-14,0-5.08-3.11-9.06-5.09-11.45"/></clipPath></defs><title>getting-skils</title><ellipse class="cls-2" cx="200.44" cy="76.4" rx="8.93" ry="2.87" transform="translate(56.97 235.87) rotate(-68.89)"/><rect class="cls-3" x="51.41" y="124.25" width="159.71" height="92.29"/><path class="cls-4" d="M209.84,125.52v89.75H52.68V125.52H209.84m2.55-2.54H50.13v94.83H212.39V123Z"/><g class="cls-5"><ellipse class="cls-6" cx="131.2" cy="215.64" rx="73.85" ry="47.27"/><path class="cls-4" d="M205.05,215.64h-.64c0,12.77-8.09,24.41-21.34,32.89s-31.59,13.75-51.87,13.75S92.56,257,79.32,248.53,58,228.41,58,215.64s8.09-24.4,21.34-32.89S110.91,169,131.2,169s38.63,5.26,51.87,13.74,21.34,20.12,21.34,32.89h1.27c0-13.34-8.44-25.34-21.92-34s-32.06-13.94-52.56-14-39.08,5.32-52.56,14-21.93,20.62-21.93,34,8.45,25.34,21.93,34,32.05,13.94,52.56,13.94,39.07-5.31,52.56-13.94,21.92-20.63,21.92-34Z"/><path class="cls-7" d="M187.08,215.64c0,18.77-26.57,34-55.88,34s-55.89-15.21-55.89-34,26.57-34,55.89-34S187.08,196.88,187.08,215.64Z"/><path class="cls-4" d="M187.08,215.64h-.63A21.83,21.83,0,0,1,182,228.5c-4.33,6-11.55,11.1-20.44,14.73A81.14,81.14,0,0,1,131.2,249c-14.55,0-28.42-3.79-38.61-9.87A40.47,40.47,0,0,1,80.44,228.5a20.65,20.65,0,0,1,0-25.71c4.32-6,11.55-11.11,20.43-14.73a81.23,81.23,0,0,1,30.33-5.76c14.55,0,28.42,3.78,38.61,9.86A40.6,40.6,0,0,1,182,202.79a21.8,21.8,0,0,1,4.49,12.85h1.27A23.08,23.08,0,0,0,183,202c-4.52-6.22-11.94-11.46-21-15.16A82.3,82.3,0,0,0,131.2,181c-14.77,0-28.84,3.82-39.26,10a41.64,41.64,0,0,0-12.53,11,21.92,21.92,0,0,0,0,27.2c4.52,6.23,11.94,11.47,21,15.17a82.55,82.55,0,0,0,30.81,5.85c14.77,0,28.83-3.83,39.26-10a41.91,41.91,0,0,0,12.53-11,23.06,23.06,0,0,0,4.73-13.6Z"/></g><g class="cls-8"><path class="cls-9" d="M200.4,134c0,14.18-13.07,25.69-29.19,25.69S142,148.18,142,134s13.06-25.69,29.18-25.69S200.4,119.81,200.4,134Z"/><path class="cls-4" d="M200.4,134h-.63a23.56,23.56,0,0,1-8.34,17.68,31.42,31.42,0,0,1-40.44,0,22.94,22.94,0,0,1,0-35.37,31.46,31.46,0,0,1,40.44,0A23.59,23.59,0,0,1,199.77,134H201a24.82,24.82,0,0,0-8.77-18.64,32.72,32.72,0,0,0-42.12,0,24.21,24.21,0,0,0,0,37.28,32.72,32.72,0,0,0,42.12,0A24.82,24.82,0,0,0,201,134Z"/><polygon class="cls-7" points="218.17 133.33 174.26 133.33 174.26 87.04 168.17 87.04 168.17 133.33 124.26 133.33 124.26 139.75 168.17 139.75 168.17 186.04 174.26 186.04 174.26 139.75 218.17 139.75 218.17 133.33"/><polygon class="cls-4" points="218.17 133.33 218.17 132.7 174.9 132.7 174.9 86.41 167.53 86.41 167.53 132.7 123.62 132.7 123.62 140.39 167.53 140.39 167.53 186.68 174.9 186.68 174.9 140.39 218.8 140.39 218.8 132.7 218.17 132.7 218.17 133.33 217.53 133.33 217.53 139.12 173.62 139.12 173.62 185.41 168.8 185.41 168.8 139.12 124.89 139.12 124.89 133.97 168.8 133.97 168.8 87.68 173.62 87.68 173.62 133.97 218.17 133.97 218.17 133.33 217.53 133.33 218.17 133.33"/></g><path class="cls-4" d="M200.4,134h-.63a23.56,23.56,0,0,1-8.34,17.68,31.42,31.42,0,0,1-40.44,0,22.94,22.94,0,0,1,0-35.37,31.46,31.46,0,0,1,40.44,0A23.59,23.59,0,0,1,199.77,134H201a24.82,24.82,0,0,0-8.77-18.64,32.72,32.72,0,0,0-42.12,0,24.21,24.21,0,0,0,0,37.28,32.72,32.72,0,0,0,42.12,0A24.82,24.82,0,0,0,201,134Z"/><g class="cls-10"><path class="cls-9" d="M120.49,134c0,14.18-13,25.69-29,25.69s-29-11.51-29-25.69,13-25.69,29-25.69S120.49,119.81,120.49,134Z"/><path class="cls-4" d="M120.49,134h-.64a23.61,23.61,0,0,1-8.28,17.69,31.07,31.07,0,0,1-40.16,0,23,23,0,0,1,0-35.38,31.07,31.07,0,0,1,40.16,0A23.6,23.6,0,0,1,119.85,134h1.27a24.89,24.89,0,0,0-8.7-18.64,32.35,32.35,0,0,0-41.85,0,24.3,24.3,0,0,0,0,37.28,32.35,32.35,0,0,0,41.85,0,24.89,24.89,0,0,0,8.7-18.64Z"/><polygon class="cls-7" points="138.14 133.33 94.52 133.33 94.52 87.04 88.47 87.04 88.47 133.33 44.84 133.33 44.84 139.75 88.47 139.75 88.47 186.04 94.52 186.04 94.52 139.75 138.14 139.75 138.14 133.33"/><polygon class="cls-4" points="138.14 133.33 138.14 132.7 95.15 132.7 95.15 86.41 87.83 86.41 87.83 132.7 44.21 132.7 44.21 140.39 87.83 140.39 87.83 186.68 95.15 186.68 95.15 140.39 138.77 140.39 138.77 132.7 138.14 132.7 138.14 133.33 137.5 133.33 137.5 139.12 93.88 139.12 93.88 185.41 89.1 185.41 89.1 139.12 45.48 139.12 45.48 133.97 89.1 133.97 89.1 87.68 93.88 87.68 93.88 133.97 138.14 133.97 138.14 133.33 137.5 133.33 138.14 133.33"/></g><path class="cls-4" d="M120.49,134h-.64a23.61,23.61,0,0,1-8.28,17.69,31.07,31.07,0,0,1-40.16,0,23,23,0,0,1,0-35.38,31.07,31.07,0,0,1,40.16,0A23.6,23.6,0,0,1,119.85,134h1.27a24.89,24.89,0,0,0-8.7-18.64,32.35,32.35,0,0,0-41.85,0,24.3,24.3,0,0,0,0,37.28,32.35,32.35,0,0,0,41.85,0,24.89,24.89,0,0,0,8.7-18.64Z"/><polygon class="cls-11" points="209.14 65.94 131.52 65.94 131.21 65.94 53.59 65.94 39.46 128.17 131.21 128.17 131.52 128.17 223.27 128.17 209.14 65.94"/><polygon class="cls-4" points="209.14 65.94 209.14 64.67 131.52 64.67 131.21 64.67 52.57 64.67 37.87 129.44 131.21 129.44 131.52 129.44 224.86 129.44 210.16 64.67 209.14 64.67 209.14 65.94 207.9 66.22 221.67 126.9 131.52 126.9 131.21 126.9 41.06 126.9 54.6 67.21 131.21 67.21 131.52 67.21 209.14 67.21 209.14 65.94 207.9 66.22 209.14 65.94"/><path class="cls-7" d="M78.39,66.59l-10.85,61.6Z"/><polygon class="cls-4" points="78.39 66.59 77.76 66.48 66.92 128.08 68.17 128.3 79.01 66.7 77.76 66.48 78.39 66.59 77.76 66.48 66.92 128.08 68.17 128.3 79.01 66.7 77.76 66.48 78.39 66.59"/><path class="cls-7" d="M103.7,66l-5.61,61.66Z"/><polygon class="cls-4" points="103.7 66.02 103.06 65.96 97.46 127.62 98.72 127.74 104.33 66.08 103.06 65.96 103.7 66.02 103.06 65.96 97.46 127.62 98.72 127.74 104.33 66.08 103.06 65.96 103.7 66.02"/><path class="cls-7" d="M131.68,66v0Z"/><polygon class="cls-4" points="131.68 66.02 131.05 66.02 131.06 128.13 132.33 128.13 132.32 66.02 131.05 66.02 131.68 66.02 131.05 66.02 131.06 128.13 132.33 128.13 132.32 66.02 131.05 66.02 131.68 66.02"/><path class="cls-7" d="M158.2,66.59l3.9,61.6Z"/><polygon class="cls-4" points="158.2 66.59 157.57 66.63 161.47 128.23 162.74 128.15 158.84 66.55 157.57 66.63 158.2 66.59 157.57 66.63 161.47 128.23 162.74 128.15 158.84 66.55 157.57 66.63 158.2 66.59"/><path class="cls-7" d="M184.66,66.16l9.11,61.59Z"/><polygon class="cls-4" points="184.66 66.16 184.03 66.25 193.14 127.85 194.4 127.66 185.29 66.06 184.03 66.25 184.66 66.16 184.03 66.25 193.14 127.85 194.4 127.66 185.29 66.06 184.03 66.25 184.66 66.16"/><polyline class="cls-4" points="131.89 215.27 131.89 181.63 130.62 181.63 130.62 215.27"/><polyline class="cls-4" points="113.67 215.27 113.67 184.44 112.4 184.44 112.4 215.27"/><polyline class="cls-4" points="95.46 215.27 95.46 190.04 94.18 190.04 94.18 215.27"/><polyline class="cls-4" points="168.33 215.27 168.33 190.04 167.06 190.04 167.06 215.27"/><polyline class="cls-4" points="150.11 215.27 150.11 184.44 148.84 184.44 148.84 215.27"/><path class="cls-7" d="M106.25,164.06c0,11.06,12.27,13.64,24.17,14v0l.64,0,.63,0v0c11.91-.33,24.18-2.91,24.18-14a13.1,13.1,0,0,0-.59-3.81H106.84A13.1,13.1,0,0,0,106.25,164.06Z"/><g class="cls-12"><path class="cls-7" d="M118.94,179.46a12,12,0,0,1-4.25-.83,11,11,0,0,1-5-3.76,5.25,5.25,0,0,1-.89-5c.79-2,3.09-3.29,6-3.29a11.93,11.93,0,0,1,4.25.83c4.46,1.73,7.1,5.65,5.9,8.74C124.17,178.19,121.86,179.46,118.94,179.46Z"/><path class="cls-4" d="M114.8,167.23a11.23,11.23,0,0,1,4,.78c4.13,1.61,6.62,5.15,5.54,7.92-.72,1.85-2.85,2.89-5.42,2.89a11,11,0,0,1-4-.79c-4.13-1.6-6.61-5.15-5.54-7.92.72-1.85,2.85-2.88,5.42-2.88m0-1.28h0c-3.19,0-5.72,1.42-6.61,3.7-1.35,3.48,1.41,7.68,6.27,9.57a12.55,12.55,0,0,0,4.48.87c3.19,0,5.72-1.42,6.61-3.7,1.35-3.47-1.41-7.67-6.27-9.56A12.57,12.57,0,0,0,114.8,166Z"/><path class="cls-7" d="M145.24,179.41c-3,0-5.24-1.22-6-3.25a5.25,5.25,0,0,1,1-5,11.46,11.46,0,0,1,5.16-3.81,12.48,12.48,0,0,1,4.45-.87c3,0,5.24,1.22,6,3.25,1.2,3.09-1.55,7-6.12,8.83a12.48,12.48,0,0,1-4.45.87Z"/><path class="cls-4" d="M149.78,167.1c2.59,0,4.72,1,5.44,2.84,1.07,2.77-1.51,6.35-5.76,8a11.77,11.77,0,0,1-4.22.82c-2.6,0-4.73-1-5.44-2.84-1.07-2.77,1.51-6.35,5.76-8a11.73,11.73,0,0,1,4.22-.82m0-1.27a13.05,13.05,0,0,0-4.68.91c-5,1.94-7.83,6.17-6.48,9.65.87,2.26,3.41,3.66,6.62,3.66a13.07,13.07,0,0,0,4.68-.92c5-1.93,7.83-6.17,6.48-9.65C155.52,167.23,153,165.83,149.78,165.83Z"/></g><path class="cls-4" d="M110.85,152.21c-2,2.4-5.23,6.5-5.23,11.85a11.67,11.67,0,0,0,2.22,7.18c2.14,2.87,5.56,4.65,9.53,5.75a55.64,55.64,0,0,0,13,1.68l0-.64h-.63v0a.6.6,0,0,0,.19.45.59.59,0,0,0,.45.18h.64v0h.64a.6.6,0,0,0,.45-.18.64.64,0,0,0,.19-.45v0h-.64l0,.64c6-.17,12.1-.89,16.8-3a14.53,14.53,0,0,0,5.76-4.41,11.74,11.74,0,0,0,2.23-7.18c0-5.35-3.24-9.45-5.23-11.85l-1,.81c2,2.37,5,6.23,4.94,11a10.48,10.48,0,0,1-2,6.43c-1.87,2.53-5,4.22-8.85,5.28a54.44,54.44,0,0,1-12.72,1.62.64.64,0,0,0-.62.64v0h.63v-.64h-1.29v.64h.64v0a.65.65,0,0,0-.62-.64c-5.91-.16-11.89-.89-16.3-2.9a13.1,13.1,0,0,1-5.27-4,10.41,10.41,0,0,1-2-6.43c0-4.81,3-8.67,4.94-11l-1-.81Z"/><path class="cls-2" d="M23.43,68.65c-15.22-11.42-7-42.12,29.9-45.13,50.64-4.11,62.3,35.79,39.82,47.76,10.39,13.56-11.05,31-25.5,21.06-38,5.17-52.92-11.74-44.22-23.69"/><path class="cls-4" d="M24.06,67.81a17.35,17.35,0,0,1-6.84-14.17c0-6.16,2.81-12.91,8.74-18.38s15-9.68,27.46-10.7c2.44-.2,4.78-.29,7-.29,14.55,0,25.21,4,32.22,9.56S103,46.7,103,53.43A18.8,18.8,0,0,1,92.66,70.36a1,1,0,0,0-.53.7,1,1,0,0,0,.19.85,11.42,11.42,0,0,1,2.53,7c0,3.86-2.11,7.69-5.44,10.55a19.19,19.19,0,0,1-12.3,4.72,15.44,15.44,0,0,1-8.87-2.75,1,1,0,0,0-.73-.17,98.26,98.26,0,0,1-13.21,1c-10.91,0-19.06-2.19-24.39-5.39A18.3,18.3,0,0,1,24,81.52a10.57,10.57,0,0,1-1.91-5.93,10.69,10.69,0,0,1,2.2-6.33A1,1,0,1,0,22.59,68,12.87,12.87,0,0,0,20,75.59a12.65,12.65,0,0,0,2.27,7.09C24.5,86,28.33,88.92,33.68,91s12.23,3.34,20.62,3.34a100.55,100.55,0,0,0,13.49-1l-.14-1-.59.86a17.63,17.63,0,0,0,10,3.11,21.3,21.3,0,0,0,13.66-5.22c3.67-3.17,6.15-7.49,6.16-12.13a13.57,13.57,0,0,0-3-8.32l-.82.64.48.92a20.93,20.93,0,0,0,11.5-18.77c0-7.43-3.71-15.27-11.15-21.22s-18.59-10-33.52-10q-3.48,0-7.21.3c-12.86,1-22.39,5.41-28.7,11.24s-9.41,13.12-9.41,19.91a19.42,19.42,0,0,0,7.67,15.84,1,1,0,0,0,1.25-1.67Z"/><path class="cls-2" d="M90.5,101.79a4.49,4.49,0,0,1-4.37-2.7c-.87-2.3.69-5,3.48-6.07a6.21,6.21,0,0,1,2.24-.41,4.48,4.48,0,0,1,4.37,2.69c.87,2.3-.69,5-3.48,6.07A6.22,6.22,0,0,1,90.5,101.79Z"/><path class="cls-4" d="M91.85,93.65a3.47,3.47,0,0,1,3.4,2c.66,1.77-.62,3.89-2.87,4.74a5.52,5.52,0,0,1-1.88.35,3.47,3.47,0,0,1-3.4-2C86.44,97,87.72,94.84,90,94a5.5,5.5,0,0,1,1.88-.34m0-2.08h0a7.39,7.39,0,0,0-2.61.48c-3.32,1.25-5.15,4.57-4.09,7.41a5.54,5.54,0,0,0,5.35,3.37,7.62,7.62,0,0,0,2.61-.48c3.32-1.25,5.15-4.58,4.09-7.42A5.53,5.53,0,0,0,91.85,91.57Z"/><path class="cls-2" d="M98,106.59a3.35,3.35,0,0,1-3.26-2c-.65-1.73.49-3.76,2.55-4.53a4.61,4.61,0,0,1,1.63-.3,3.35,3.35,0,0,1,3.26,2c.65,1.72-.5,3.76-2.55,4.53A4.61,4.61,0,0,1,98,106.59Z"/><path class="cls-4" d="M98.94,100.76a2.33,2.33,0,0,1,2.29,1.36c.44,1.19-.43,2.62-2,3.19a3.56,3.56,0,0,1-1.26.24,2.33,2.33,0,0,1-2.29-1.36c-.45-1.2.42-2.63,1.94-3.2a3.88,3.88,0,0,1,1.27-.23m0-2.08h0a5.53,5.53,0,0,0-2,.37c-2.59,1-4,3.6-3.16,5.86A4.4,4.4,0,0,0,98,107.63a5.76,5.76,0,0,0,2-.37c2.58-1,4-3.6,3.16-5.87A4.39,4.39,0,0,0,98.94,98.68Z"/><path class="cls-13" d="M58.34,84.16a.55.55,0,0,1-.42-.2L32.87,56.24a.56.56,0,0,1-.07-.66l9.44-15.65a.57.57,0,0,1,.48-.27H74a.59.59,0,0,1,.48.27L84,55.58a.56.56,0,0,1-.06.66L58.76,84a.56.56,0,0,1-.41.18Z"/><path class="cls-4" d="M74,40.22l9.49,15.65L58.35,83.6h0L33.28,55.87l9.44-15.65H74m0-1.11H42.72a1.12,1.12,0,0,0-1,.54L32.33,55.29a1.11,1.11,0,0,0,.12,1.33L57.51,84.34l.08.08a1.09,1.09,0,0,0,.76.3,1,1,0,0,0,.56-.16,1.09,1.09,0,0,0,.29-.23L84.31,56.62a1.13,1.13,0,0,0,.13-1.33l-9.5-15.65A1.11,1.11,0,0,0,74,39.11Z"/><polygon class="cls-14" points="42.72 40.22 73.99 40.22 58.35 83.6 42.72 40.22"/><polygon class="cls-15" points="42.72 40.22 33.28 55.87 48.98 55.87 42.72 40.22"/><polygon class="cls-15" points="73.99 40.22 67.78 55.87 83.48 55.87 73.99 40.22"/><polygon class="cls-16" points="58.39 40.22 48.98 55.87 67.81 55.87 58.39 40.22"/><polygon class="cls-13" points="33.28 55.87 58.35 83.6 48.98 55.87 33.28 55.87"/><polygon class="cls-13" points="83.48 55.87 58.35 83.6 67.71 55.87 83.48 55.87"/></svg>