<?xml version="1.0" encoding="utf-8"?>
<!-- Generator: Adobe Illustrator 16.0.4, SVG Export Plug-In . SVG Version: 6.00 Build 0)  -->
<!DOCTYPE svg PUBLIC "-//W3C//DTD SVG 1.1//EN" "http://www.w3.org/Graphics/SVG/1.1/DTD/svg11.dtd">
<svg version="1.1" id="Layer_1" xmlns="http://www.w3.org/2000/svg" xmlns:xlink="http://www.w3.org/1999/xlink" x="0px" y="0px"
	 width="97px" height="97px" viewBox="0 0 97 97" enable-background="new 0 0 97 97" xml:space="preserve">
<g>
	<path fill="#F05133" d="M89.167,43.371L51.96,6.165c-2.143-2.143-5.618-2.143-7.762,0l-7.726,7.728l9.8,9.8
		c2.278-0.77,4.889-0.253,6.704,1.562c1.826,1.827,2.339,4.461,1.549,6.748l9.447,9.446c2.285-0.789,4.922-0.278,6.746,1.549
		c2.551,2.551,2.551,6.684,0,9.236c-2.552,2.551-6.684,2.551-9.238,0c-1.917-1.92-2.392-4.739-1.418-7.103l-8.812-8.809v23.183
		c0.621,0.308,1.208,0.717,1.726,1.234c2.551,2.551,2.551,6.684,0,9.236c-2.551,2.549-6.686,2.549-9.234,0
		c-2.55-2.554-2.55-6.687,0-9.236c0.631-0.629,1.36-1.106,2.139-1.425V35.916c-0.779-0.319-1.507-0.792-2.139-1.426
		c-1.932-1.931-2.396-4.767-1.406-7.14l-9.661-9.663L7.162,43.198c-2.143,2.145-2.143,5.621,0,7.764l37.209,37.206
		c2.142,2.144,5.617,2.144,7.76,0l37.035-37.034C91.311,48.99,91.311,45.514,89.167,43.371z"/>
</g>
</svg>
