<svg id="レイヤー_1" data-name="レイヤー 1" xmlns="http://www.w3.org/2000/svg" viewBox="0 0 200 200"><defs><style>.cls-1{fill:#f05133;}</style></defs><title>git</title><path class="cls-1" d="M181.15,92.49,107.51,18.85a10.86,10.86,0,0,0-15.36,0L76.86,34.14l19.39,19.4A12.9,12.9,0,0,1,112.59,70l18.7,18.69A12.92,12.92,0,1,1,123.55,96L106.11,78.54v45.88A12.89,12.89,0,1,1,95.48,124V77.73a12.94,12.94,0,0,1-7-17L69.34,41.65,18.85,92.14a10.86,10.86,0,0,0,0,15.37l73.64,73.64a10.86,10.86,0,0,0,15.36,0l73.3-73.3A10.85,10.85,0,0,0,181.15,92.49Z"/></svg>