<svg id="materials" xmlns="http://www.w3.org/2000/svg" viewBox="0 0 240 240"><defs><style>.cls-1{fill:#f05133;}.cls-2{fill:#515556;}</style></defs><title>git</title><path class="cls-1" d="M120.19,220.72A14.35,14.35,0,0,1,110,216.49L23.5,130a14.48,14.48,0,0,1,0-20.44L82.8,50.29a1.68,1.68,0,0,1,2.39,0l22.46,22.46a1.68,1.68,0,0,1,.36,1.84,13.46,13.46,0,0,0,2.9,14.75,13.6,13.6,0,0,0,4.42,3,1.67,1.67,0,0,1,1,1.56v54.38a1.69,1.69,0,0,1-1,1.57,13.31,13.31,0,0,0-4.42,2.94,13.48,13.48,0,0,0,9.54,23,13.49,13.49,0,0,0,9.53-23,13.76,13.76,0,0,0-3.56-2.55,1.67,1.67,0,0,1-.94-1.51V94.79a1.69,1.69,0,0,1,1-1.56,1.67,1.67,0,0,1,1.84.37l20.48,20.47a1.68,1.68,0,0,1,.37,1.84,13.53,13.53,0,1,0,8.08-7.6,1.76,1.76,0,0,1-.55.09,1.69,1.69,0,0,1-1.2-.49l-22-22a1.71,1.71,0,0,1-.4-1.75,13.46,13.46,0,0,0-12.7-17.87,13.61,13.61,0,0,0-4.34.71,1.7,1.7,0,0,1-1.74-.4L91.62,43.86a1.69,1.69,0,0,1,0-2.39l18-18a14.45,14.45,0,0,1,20.43,0L216.49,110a14.46,14.46,0,0,1,0,20.44l-86.08,86.07A14.36,14.36,0,0,1,120.19,220.72Z"/><path class="cls-2" d="M119.8,21a12.72,12.72,0,0,1,9,3.73l86.48,86.48a12.75,12.75,0,0,1,0,18L129.21,215.3a12.76,12.76,0,0,1-18,0L24.7,128.82a12.76,12.76,0,0,1,0-18L84,51.48l22.45,22.46a15.19,15.19,0,0,0,8.24,19.91v54.38a15.18,15.18,0,1,0,16.49,3.31,15.28,15.28,0,0,0-4-2.86V94.79l20.48,20.48a15.2,15.2,0,1,0,14.06-9.39,15.34,15.34,0,0,0-5,.83l-22-21.95a15.14,15.14,0,0,0-14.3-20.12,15.36,15.36,0,0,0-4.88.8L92.82,42.66l18-18a12.7,12.7,0,0,1,9-3.73m0-3.39a16.05,16.05,0,0,0-11.42,4.73l-17.95,18a3.39,3.39,0,0,0,0,4.79L113.2,67.83a3.37,3.37,0,0,0,3.48.82,11.76,11.76,0,0,1,14.9,15,3.39,3.39,0,0,0,.81,3.5l22,21.95a3.37,3.37,0,0,0,2.4,1,3.47,3.47,0,0,0,1.1-.18,11.86,11.86,0,0,1,3.87-.65A11.65,11.65,0,0,1,170,112.7a11.8,11.8,0,1,1-19.24,3.86,3.39,3.39,0,0,0-.74-3.69L129.56,92.4a3.37,3.37,0,0,0-2.39-1,3.28,3.28,0,0,0-1.3.26,3.39,3.39,0,0,0-2.09,3.12v53.89a3.39,3.39,0,0,0,1.88,3,11.73,11.73,0,1,1-9.69-.35,3.38,3.38,0,0,0,2.1-3.13V93.85a3.39,3.39,0,0,0-2.1-3.13,11.65,11.65,0,0,1-3.86-2.57,11.78,11.78,0,0,1-2.54-12.91,3.37,3.37,0,0,0-.73-3.69L86.39,49.09a3.39,3.39,0,0,0-4.79,0L22.3,108.38a16.17,16.17,0,0,0,0,22.83l86.49,86.48a16.13,16.13,0,0,0,22.82,0l86.08-86.08a16.16,16.16,0,0,0,0-22.83L131.21,22.31A16,16,0,0,0,119.8,17.58Z"/></svg>