<svg id="materials" xmlns="http://www.w3.org/2000/svg" viewBox="0 0 240 240"><defs><style>.cls-1{fill:#fff;}.cls-2{fill:#474747;}.cls-3{fill:#788d9a;}.cls-4{fill:#f1786b;}.cls-5{fill:#fdc77c;}.cls-6{fill:#5ac8ae;}.cls-7{fill:#445c6c;}.cls-8{fill:#ffd9b6;}.cls-9{fill:#ff0;}.cls-10{fill:#ea4c44;}</style></defs><title>github</title><path class="cls-1" d="M33.67,74.59V183.21A6.68,6.68,0,0,0,40.41,190H199.59a6.68,6.68,0,0,0,6.74-6.75V74.59Z"/><path class="cls-2" d="M33.67,74.59H32.25V183.21a8.09,8.09,0,0,0,8.16,8.17H199.59a8.09,8.09,0,0,0,8.16-8.17v-110H32.25v1.42h1.42V76H204.91v107.2a5.26,5.26,0,0,1-5.32,5.33H40.41a5.26,5.26,0,0,1-5.32-5.33V74.59H33.67v0Z"/><path class="cls-3" d="M206.33,56.79A6.68,6.68,0,0,0,199.59,50H40.41a6.68,6.68,0,0,0-6.74,6.75V74.86H206.33Z"/><path class="cls-2" d="M206.33,56.79h1.42a8.09,8.09,0,0,0-8.16-8.17H40.41a8.09,8.09,0,0,0-8.16,8.17V76.28h175.5V56.79h-2.84V73.44H35.09V56.79a5.26,5.26,0,0,1,5.32-5.33H199.59a5.26,5.26,0,0,1,5.32,5.33Z"/><path class="cls-4" d="M53.09,57.87a4.59,4.59,0,1,1-4.58,4.58A4.58,4.58,0,0,1,53.09,57.87Z"/><path class="cls-2" d="M53.09,57.87v.71a3.88,3.88,0,1,1-3.87,3.87,3.88,3.88,0,0,1,3.87-3.87V57.16a5.3,5.3,0,1,0,5.3,5.29,5.29,5.29,0,0,0-5.3-5.29Z"/><path class="cls-5" d="M67.66,57.87a4.59,4.59,0,1,1-4.58,4.58A4.58,4.58,0,0,1,67.66,57.87Z"/><path class="cls-2" d="M67.66,57.87v.71a3.88,3.88,0,1,1-3.88,3.87,3.88,3.88,0,0,1,3.88-3.87V57.16A5.3,5.3,0,1,0,73,62.45a5.29,5.29,0,0,0-5.3-5.29Z"/><path class="cls-6" d="M82.5,57.87a4.59,4.59,0,1,1-4.59,4.58A4.59,4.59,0,0,1,82.5,57.87Z"/><path class="cls-2" d="M82.5,57.87v.71a3.88,3.88,0,1,1-3.88,3.87,3.88,3.88,0,0,1,3.88-3.87V57.16a5.3,5.3,0,1,0,5.3,5.29,5.29,5.29,0,0,0-5.3-5.29Z"/><path class="cls-7" d="M186.91,57.87H106A4.59,4.59,0,0,0,106,67h81.21a4.9,4.9,0,0,0,4.31-4.59A4.53,4.53,0,0,0,186.91,57.87Z"/><path class="cls-2" d="M186.91,57.87v-.71H106a5.3,5.3,0,0,0-3.69,1.48,5.16,5.16,0,0,0-1.6,3.81,5.37,5.37,0,0,0,1.47,3.7,5.28,5.28,0,0,0,3.82,1.6h81.29a6,6,0,0,0,3.39-1.68,5.11,5.11,0,0,0,1.55-3.61,5.2,5.2,0,0,0-1.6-3.81,5.3,5.3,0,0,0-3.69-1.48v1.42a3.83,3.83,0,0,1,3.87,3.87,3.67,3.67,0,0,1-1.14,2.6,4.48,4.48,0,0,1-2.55,1.28l.09.71v-.71H106a3.88,3.88,0,1,1,0-7.75h80.94Z"/><path class="cls-2" d="M107.89,154.49c-.47,0-.86-.27-.86-.61s.38-.6.86-.6.86.27.86.6S108.36,154.49,107.89,154.49Zm-2.85-.06c-.47,0-.86-.27-.86-.6s.39-.61.86-.61.86.27.86.61S105.52,154.43,105,154.43Zm-2.88-.09c-.47,0-.86-.27-.86-.6s.39-.61.86-.61.87.27.87.61S102.64,154.34,102.16,154.34Zm-2.73-.8c-.47,0-.86-.27-.86-.6s.39-.6.86-.6.86.26.86.6S99.91,153.54,99.43,153.54Zm-2.2-1.48c-.43,0-.78-.25-.78-.55s.35-.54.78-.54.77.24.77.54S97.66,152.05,97.23,152.06Zm-1.64-1.57c-.38,0-.69-.22-.69-.49s.31-.49.69-.49.71.22.71.49S96,150.49,95.59,150.49ZM94.19,149c-.35,0-.63-.2-.63-.44s.28-.44.63-.44.63.2.63.44S94.53,149,94.19,149Zm-1.28-1.36c-.3,0-.53-.17-.53-.38s.23-.38.53-.38.54.17.54.38S93.21,147.59,92.91,147.59Zm-1.32-1.14c-.24,0-.45-.14-.45-.32s.2-.32.45-.32.46.14.46.32S91.85,146.45,91.59,146.45Zm-1.29-.88c-.23,0-.42-.13-.42-.28s.19-.29.42-.29.41.13.41.29S90.53,145.57,90.3,145.57Zm77.27-13,.08-.84a89.42,89.42,0,0,0-15.07-.16,27.14,27.14,0,0,0,1.18-8.51,25.44,25.44,0,0,0-6-16.49,26.31,26.31,0,0,0-1.13-12.43,27.58,27.58,0,0,0-13.92,5,56.47,56.47,0,0,0-23.16,0,27.47,27.47,0,0,0-14.2-5,24.31,24.31,0,0,0-.44,13.48c-4,4.26-5.61,9.44-5.53,15.16a26.2,26.2,0,0,0,1.5,8.78,87.63,87.63,0,0,0-14.83.18l.07.83a87.72,87.72,0,0,1,15.1-.15c.18.44.37.87.57,1.28a55.35,55.35,0,0,0-14.63,1.41l.2.82a54.88,54.88,0,0,1,14.92-1.37c3.6,6.34,10.56,10.07,20.68,11.25a9.9,9.9,0,0,0-3.94,6.63h-5.36c-7.2,0-9.17-9.07-16.63-8.18,7.24,3.55,5.8,14.88,17.37,14.88h4.87v10.38a3.87,3.87,0,0,1-1.88,3.58c4.14.42,7.26-1.63,7.26-4.14V155.2a1.36,1.36,0,0,1,1.3-1.32v16a4.34,4.34,0,0,1-1.57,3.37c3.65.14,7.09-.57,7.24-3.65,0,0,0-14.57,0-15.34a.64.64,0,0,1,1.27,0v14.62c0,2.59,2.3,4.7,7.1,4.37a4,4,0,0,1-1.67-3.55V153.88a1.24,1.24,0,0,1,1.32,1.32v13.37c0,3,3.62,4.21,7.74,4.09a4.75,4.75,0,0,1-2.27-3.79V152.79a10.6,10.6,0,0,0-3-6.67c9.25-1.41,15.92-5.06,19.24-11.6a54.86,54.86,0,0,1,15,1.37l.2-.82a55.47,55.47,0,0,0-14.76-1.41c.18-.41.37-.83.53-1.27A88.54,88.54,0,0,1,167.57,132.53Z"/><path class="cls-8" d="M143.14,125.42a10.73,10.73,0,0,0-2.41-7.1,8,8,0,0,0-6.5-2.89,42.31,42.31,0,0,0-5.29.48l-1.44.24a39.81,39.81,0,0,1-10.83,0l-1.33-.12a36.2,36.2,0,0,0-5.41-.6,7.81,7.81,0,0,0-6.43,2.89,11.39,11.39,0,0,0-2.47,7.1q.12,7.1,5.89,10,4.33,2.17,12.27,2.17H125q7.93,0,12.27-2.17Q143.14,132.52,143.14,125.42Z"/><path class="cls-2" d="M115.47,125.42a8.47,8.47,0,0,1-1.09,4.21,3.66,3.66,0,0,1-3.31,2.4q-2.1,0-3.42-2.4a9.18,9.18,0,0,1-1-4.21,9.93,9.93,0,0,1,1-4.33,3.89,3.89,0,0,1,3.42-2.29,3.65,3.65,0,0,1,3.31,2.29A9.15,9.15,0,0,1,115.47,125.42Z"/><path class="cls-2" d="M133.15,118.8a3.87,3.87,0,0,0-3.37,2.29,9.14,9.14,0,0,0-1.08,4.33,8.46,8.46,0,0,0,1.08,4.21,3.91,3.91,0,0,0,3.43,2.4,3.67,3.67,0,0,0,3.31-2.4,8.46,8.46,0,0,0,1.08-4.21,9.14,9.14,0,0,0-1.08-4.33A3.7,3.7,0,0,0,133.15,118.8Z"/><path class="cls-9" d="M66.93,153.91a39.7,39.7,0,0,1,15.35,12.46,29,29,0,0,1,0,34.5,39.62,39.62,0,0,1-15.35,12.46A48.38,48.38,0,0,1,45.72,218a50.19,50.19,0,0,1-17.66-3.14A45.66,45.66,0,0,1,19,220.27a35.71,35.71,0,0,1-14.2,3,1.17,1.17,0,0,1-1.15-.83,1.42,1.42,0,0,1,.16-1.48,37.9,37.9,0,0,0,3.8-4.79,35.1,35.1,0,0,0,5.28-10.9,35.66,35.66,0,0,1-6.93-10.06,27.67,27.67,0,0,1-2.48-11.56,28.7,28.7,0,0,1,5.7-17.25,39.7,39.7,0,0,1,15.35-12.46,48.52,48.52,0,0,1,21.21-4.62A48.52,48.52,0,0,1,66.93,153.91Z"/><path class="cls-2" d="M66.93,153.91l-.64,1.35a38.22,38.22,0,0,1,14.78,12,27.47,27.47,0,0,1,0,32.74,38.22,38.22,0,0,1-14.78,12,47.14,47.14,0,0,1-20.57,4.48,48.88,48.88,0,0,1-17.14-3.05l-.78-.29-.66.51a44.1,44.1,0,0,1-8.77,5.27l.61,1.37-.59-1.38a34.3,34.3,0,0,1-13.61,2.85h0l-.06.39.25-.3-.19-.09-.06.39.25-.3-.19.23.25-.17L5,221.83l-.19.23.25-.17,0,0,0,0H5l0,0,0,0,0,0H5l0-.08H4.84l.15.05v-.05H4.84l.15.05-.09,0,.08,0H5l-.09,0,.08,0H5l-1.2-.9L4.85,222a38.77,38.77,0,0,0,4-5h0a36.54,36.54,0,0,0,5.49-11.37l.21-.81L14,204.2a34.32,34.32,0,0,1-6.65-9.65A26,26,0,0,1,5,183.62a27.25,27.25,0,0,1,5.41-16.37,38.18,38.18,0,0,1,14.79-12,46.92,46.92,0,0,1,20.56-4.47,47,47,0,0,1,20.57,4.47l.64-1.35.65-1.35a49.8,49.8,0,0,0-21.86-4.77,49.8,49.8,0,0,0-21.86,4.77A41.21,41.21,0,0,0,8,165.49a30.24,30.24,0,0,0-6,18.13A29.14,29.14,0,0,0,4.57,195.8a37.63,37.63,0,0,0,7.22,10.49l1.08-1-1.45-.37a33.61,33.61,0,0,1-5.07,10.42l1.24.85-1.23-.86a36.91,36.91,0,0,1-3.63,4.59l-.07.07L2.6,220a2.84,2.84,0,0,0-.6,1.76A3.26,3.26,0,0,0,2.23,223h0a2.83,2.83,0,0,0,1,1.28,2.72,2.72,0,0,0,1.57.49,37.17,37.17,0,0,0,14.79-3.1h0A46.63,46.63,0,0,0,29,216l-.91-1.19-.52,1.4a51.55,51.55,0,0,0,18.18,3.24,50.08,50.08,0,0,0,21.86-4.77A41.18,41.18,0,0,0,83.5,201.75a30.47,30.47,0,0,0,0-36.26,41.25,41.25,0,0,0-15.92-12.93Z"/><path class="cls-10" d="M193.93,17a49.2,49.2,0,0,1,21.53,4.69A40.34,40.34,0,0,1,231,34.33a29.16,29.16,0,0,1,5.78,17.51,28,28,0,0,1-2.51,11.72,36.52,36.52,0,0,1-7,10.22,35.86,35.86,0,0,0,5.36,11,39.16,39.16,0,0,0,3.86,4.86,1.46,1.46,0,0,1,.16,1.5,1.18,1.18,0,0,1-1.17.84,36.22,36.22,0,0,1-14.4-3,46.1,46.1,0,0,1-9.22-5.53,50.89,50.89,0,0,1-17.92,3.18A49.15,49.15,0,0,1,172.41,82a40.25,40.25,0,0,1-15.57-12.64,29.4,29.4,0,0,1,0-35,40.34,40.34,0,0,1,15.57-12.64A49.15,49.15,0,0,1,193.93,17Z"/><path class="cls-2" d="M193.93,17v1.5A47.74,47.74,0,0,1,214.81,23a38.84,38.84,0,0,1,15,12.18,27.62,27.62,0,0,1,5.49,16.62,26.39,26.39,0,0,1-2.38,11.1,34.7,34.7,0,0,1-6.75,9.79l-.58.61.21.81a37.05,37.05,0,0,0,5.58,11.53h0a41.21,41.21,0,0,0,4,5.06l1.07-1.06-1.2.9v0l.1-.06h-.11v.06l.1-.06h-.11l0,.09h0l0,0h0l.3.21-.16-.32-.14.11.3.21-.16-.32.16.32-.07-.36-.09,0,.16.32-.07-.36,0,.17,0-.17h0l0,.17,0-.17h0a34.74,34.74,0,0,1-13.81-2.89L221.07,89l.61-1.37a44.26,44.26,0,0,1-8.91-5.35l-.66-.51-.78.29a49.32,49.32,0,0,1-17.4,3.09,47.73,47.73,0,0,1-20.87-4.54,38.73,38.73,0,0,1-15-12.17,27.92,27.92,0,0,1,0-33.25,38.91,38.91,0,0,1,15-12.17,47.73,47.73,0,0,1,20.87-4.54v-3a50.67,50.67,0,0,0-22.16,4.84,41.75,41.75,0,0,0-16.15,13.11,30.92,30.92,0,0,0,0,36.77,41.86,41.86,0,0,0,16.15,13.12,50.67,50.67,0,0,0,22.16,4.83,52.52,52.52,0,0,0,18.45-3.27l-.53-1.41-.91,1.19a48,48,0,0,0,9.51,5.71h0a37.8,37.8,0,0,0,15,3.13,2.66,2.66,0,0,0,1.59-.49,3,3,0,0,0,1-1.29h0a3.28,3.28,0,0,0,.24-1.19,2.94,2.94,0,0,0-.61-1.77l-.06-.08-.07-.07A37.41,37.41,0,0,1,233.85,84l-1.23.86,1.24-.85a34,34,0,0,1-5.14-10.58l-1.46.38,1.08,1a37.77,37.77,0,0,0,7.32-10.64,29.44,29.44,0,0,0,2.65-12.34,30.65,30.65,0,0,0-6.06-18.39A41.75,41.75,0,0,0,216.1,20.34a50.69,50.69,0,0,0-22.17-4.84Z"/></svg>