<svg id="materials" xmlns="http://www.w3.org/2000/svg" viewBox="0 0 240 240"><defs><style>.cls-1{fill:#554d57;}.cls-2{fill:#515556;}.cls-3{fill:#3d373f;}.cls-4{fill:#686072;}.cls-5{fill:#474747;}.cls-6{fill:#ffd259;}.cls-7{fill:#fab816;}.cls-8{fill:#f79d00;}</style></defs><title>graduate</title><g id="graduate"><path class="cls-1" d="M120,198.47a11.65,11.65,0,0,1-5.21-1.24L47.14,163.42A11.63,11.63,0,0,1,40.69,153V120.3a2,2,0,0,1,2-2H197.3a2,2,0,0,1,2,2V153a11.6,11.6,0,0,1-6.45,10.43l-67.64,33.83A11.81,11.81,0,0,1,120,198.47Z"/><path class="cls-2" d="M197.3,120.3V153a9.68,9.68,0,0,1-5.35,8.65l-67.64,33.82a9.64,9.64,0,0,1-8.63,0L48,161.63A9.68,9.68,0,0,1,42.69,153V120.3H197.3m0-4H42.69a4,4,0,0,0-4,4V153a13.61,13.61,0,0,0,7.55,12.22L113.89,199a13.58,13.58,0,0,0,12.21,0l67.64-33.82A13.6,13.6,0,0,0,201.3,153V120.3A4,4,0,0,0,197.3,116.3Z"/><path class="cls-3" d="M120,120.3v76.17a9.66,9.66,0,0,0,4.32-1L192,161.63A9.68,9.68,0,0,0,197.3,153V120.3Z"/><path class="cls-4" d="M120,160.43a6.89,6.89,0,0,1-3-.67L7.42,107.15a6.84,6.84,0,0,1,0-12.33L117,42.2a6.85,6.85,0,0,1,5.91,0L232.58,94.82a6.84,6.84,0,0,1,0,12.32L123,159.76A6.89,6.89,0,0,1,120,160.43Z"/><path class="cls-5" d="M120,43.53a4.87,4.87,0,0,1,2.09.47L231.72,96.63a4.83,4.83,0,0,1,0,8.71L122.09,158a4.88,4.88,0,0,1-4.18,0L8.28,105.34a4.83,4.83,0,0,1,0-8.71L117.91,44a4.86,4.86,0,0,1,2.08-.47m0-4a9,9,0,0,0-3.81.86L6.55,93a8.84,8.84,0,0,0,0,15.93l109.63,52.61a8.84,8.84,0,0,0,7.65,0L233.45,109a8.84,8.84,0,0,0,0-15.93L123.81,40.4A8.83,8.83,0,0,0,120,39.53Z"/><path class="cls-6" d="M120,107.84c-6.36,0-11.16-2.73-11.16-6.33V96.67c0-3.61,4.8-6.33,11.16-6.33s11.17,2.72,11.17,6.33v4.84C131.16,105.11,126.36,107.84,120,107.84Z"/><path class="cls-5" d="M120,91.84c5.34,0,9.67,2.17,9.67,4.83v4.84c0,2.66-4.33,4.83-9.67,4.83s-9.66-2.17-9.66-4.83V96.67c0-2.66,4.33-4.83,9.66-4.83m0-3c-7.33,0-12.66,3.3-12.66,7.83v4.84c0,4.53,5.33,7.83,12.66,7.83s12.67-3.3,12.67-7.83V96.67C132.66,92.14,127.33,88.84,120,88.84Z"/><path class="cls-7" d="M110.33,96.67v4.84c0,2.66,4.33,4.83,9.66,4.83s9.67-2.17,9.67-4.83V96.67Z"/><path class="cls-6" d="M129.66,96.67c0,2.67-4.33,4.84-9.67,4.84s-9.66-2.17-9.66-4.84,4.33-4.83,9.66-4.83S129.66,94,129.66,96.67Z"/><path class="cls-6" d="M23.37,173.06a3.93,3.93,0,0,1-3.92-3.92v-58a3.93,3.93,0,0,1,3.47-3.9l87-9.66a3.33,3.33,0,0,1,.46,0,3.92,3.92,0,0,1,.4,7.81l-83.48,9.28v54.47A3.92,3.92,0,0,1,23.37,173.06Z"/><path class="cls-5" d="M110.36,99.08a2.42,2.42,0,0,1,.23,4.82l-84.81,9.43v55.81a2.42,2.42,0,1,1-4.83,0v-58a2.44,2.44,0,0,1,2.15-2.41l87-9.66.3,0m0-3c-.22,0-.44,0-.66,0l-86.93,9.66A5.44,5.44,0,0,0,18,111.17v58a5.42,5.42,0,1,0,10.83,0V116l82.15-9.14a5.39,5.39,0,0,0,4.78-6A5.39,5.39,0,0,0,110.36,96.08Z"/><path class="cls-7" d="M18.54,190a1.5,1.5,0,0,1-1.49-1.69L19.46,169A1.52,1.52,0,0,1,21,167.64h4.83A1.5,1.5,0,0,1,27.27,169l2.42,19.32a1.49,1.49,0,0,1-.37,1.18,1.46,1.46,0,0,1-1.12.51Z"/><path class="cls-5" d="M25.78,169.14l2.42,19.33H18.54L21,169.14h4.83m0-3H21a3,3,0,0,0-3,2.63L15.56,188.1a3,3,0,0,0,3,3.37H28.2a3,3,0,0,0,3-3.37l-2.42-19.33A3,3,0,0,0,25.78,166.14Z"/><circle class="cls-8" cx="23.37" cy="169.14" r="6.33"/><path class="cls-5" d="M23.37,164.31a4.84,4.84,0,1,1-4.83,4.83,4.83,4.83,0,0,1,4.83-4.83m0-3a7.84,7.84,0,1,0,7.83,7.83A7.84,7.84,0,0,0,23.37,161.31Z"/><circle class="cls-6" cx="23.37" cy="169.14" r="2.42"/></g></svg>