<?xml version="1.0" encoding="UTF-8"?>
<svg id="_レイヤー_1" data-name="レイヤー 1" xmlns="http://www.w3.org/2000/svg" viewBox="0 0 660 660">
  <defs>
    <style>
      .cls-1 {
        fill: #4742c2;
      }

      .cls-2 {
        fill: #fff;
      }

      .cls-3 {
        fill: #bcbcdd;
      }

      .cls-4 {
        fill: #ebebf7;
      }
    </style>
  </defs>
  <g id="graduate">
    <path class="cls-4" d="M330,533.92c-4.7,0-9.34-1.11-13.54-3.22l-175.78-87.85c-10.27-5.11-16.77-15.6-16.76-27.07v-84.96c0-2.87,2.33-5.2,5.2-5.2h401.72c2.87,0,5.2,2.33,5.2,5.2v84.96c.04,11.49-6.46,22-16.76,27.1l-175.75,87.9c-4.21,2.07-8.84,3.15-13.54,3.14Z"/>
    <path class="cls-1" d="M530.85,330.81v84.96c0,9.52-5.39,18.22-13.9,22.48l-175.75,87.87c-7.06,3.53-15.37,3.53-22.42,0l-175.85-87.93c-8.46-4.28-13.79-12.95-13.8-22.42v-84.96h401.72M530.85,320.41H129.12c-5.74,0-10.39,4.65-10.39,10.39v84.96c-.03,13.45,7.57,25.76,19.62,31.75l175.78,87.77c9.98,5.02,21.75,5.02,31.73,0l175.75-87.87c12.03-5.96,19.64-18.22,19.64-31.65v-84.96c0-5.74-4.65-10.39-10.39-10.39Z"/>
    <path class="cls-3" d="M330,330.81v197.91c3.89.02,7.74-.87,11.22-2.6l175.85-87.93c8.45-4.29,13.77-12.95,13.77-22.42v-84.96h-200.85Z"/>
    <path class="cls-4" d="M330,435.08c-2.7.01-5.36-.58-7.79-1.74L37.48,296.64c-8.85-4.25-12.57-14.87-8.32-23.72,1.75-3.64,4.68-6.57,8.32-8.32L322.21,127.88c4.86-2.32,10.5-2.32,15.36,0l284.96,136.72c8.84,4.27,12.55,14.89,8.28,23.73-1.75,3.62-4.66,6.53-8.28,8.28l-284.72,136.72c-2.43,1.16-5.1,1.75-7.79,1.74Z"/>
    <path class="cls-1" d="M330,131.33c1.88,0,3.73.42,5.43,1.22l284.85,136.75c6.25,3,8.89,10.49,5.89,16.74-1.24,2.58-3.31,4.65-5.89,5.89l-284.85,136.83c-3.44,1.63-7.42,1.63-10.86,0L39.72,291.94c-6.25-3-8.89-10.49-5.89-16.74,1.24-2.58,3.31-4.65,5.89-5.89l284.85-136.75c1.69-.8,3.53-1.22,5.4-1.22M329.97,120.94c-3.42.01-6.8.77-9.9,2.23L35.22,259.87c-11.43,5.5-16.23,19.23-10.73,30.66,2.26,4.69,6.04,8.47,10.73,10.73l284.85,136.7c6.28,3.02,13.59,3.02,19.88,0l284.83-136.52c11.43-5.5,16.23-19.23,10.73-30.66-2.26-4.69-6.04-8.47-10.73-10.73L339.9,123.2c-3.09-1.48-6.47-2.26-9.9-2.26h-.03Z"/>
    <path class="cls-2" d="M330,298.43c-16.53,0-29-7.09-29-16.45v-12.58c0-9.38,12.47-16.45,29-16.45s29.02,7.07,29.02,16.45v12.58c-.03,9.35-12.5,16.45-29.02,16.45Z"/>
    <path class="cls-1" d="M330,256.86c13.87,0,25.13,5.64,25.13,12.55v12.58c0,6.91-11.25,12.55-25.13,12.55s-25.1-5.64-25.1-12.55v-12.58c0-6.91,11.25-12.55,25.1-12.55M330,249.06c-19.05,0-32.89,8.57-32.89,20.34v12.58c0,11.77,13.85,20.34,32.89,20.34s32.92-8.57,32.92-20.34v-12.58c-.03-11.77-13.87-20.34-32.92-20.34Z"/>
    <path class="cls-4" d="M304.87,269.41v12.58c0,6.91,11.25,12.55,25.1,12.55s25.13-5.64,25.13-12.55v-12.58h-50.23Z"/>
    <path class="cls-2" d="M355.1,269.41c0,6.94-11.25,12.58-25.13,12.58s-25.1-5.64-25.1-12.58,11.25-12.55,25.1-12.55,25.13,5.61,25.13,12.55Z"/>
    <path class="cls-2" d="M78.93,467.89c-5.62-.01-10.17-4.57-10.19-10.19v-150.7c0-5.17,3.88-9.53,9.02-10.13l226.05-25.1c.4-.03.8-.03,1.2,0,5.62.11,10.09,4.76,9.98,10.39-.1,5.07-3.91,9.29-8.94,9.91l-216.91,24.11v141.53c0,5.63-4.56,10.19-10.19,10.19,0,0-.02,0-.03,0Z"/>
    <path class="cls-1" d="M304.95,275.67c3.47.1,6.2,3,6.1,6.47-.09,3.1-2.43,5.66-5.5,6.05l-220.36,24.5v145.01c.22,3.47-2.41,6.46-5.87,6.68-3.47.22-6.46-2.41-6.68-5.87-.02-.27-.02-.54,0-.81v-150.7c.02-3.2,2.41-5.88,5.59-6.26l226.05-25.1h.78M305.06,267.85h-1.71l-225.87,25.1c-7.16.83-12.55,6.93-12.5,14.13v150.7c-.33,7.77,5.69,14.34,13.47,14.67,7.77.33,14.34-5.69,14.67-13.47.02-.4.02-.81,0-1.21v-138.15l213.45-23.75c7.69-.82,13.26-7.72,12.44-15.41,0-.06-.01-.12-.02-.18-.81-7.12-6.87-12.48-14.03-12.42l.1-.03Z"/>
    <path class="cls-4" d="M66.38,511.91c-2.15,0-3.9-1.74-3.9-3.89,0-.17.01-.33.03-.5l6.26-50.17c.22-2.04,1.95-3.57,4-3.53h12.55c1.96.07,3.56,1.58,3.74,3.53l6.29,50.2c.14,1.11-.21,2.23-.96,3.07-.73.85-1.79,1.33-2.91,1.33l-25.1-.03Z"/>
    <path class="cls-1" d="M85.19,457.71l6.29,50.23h-25.1l6.39-50.23h12.55M85.32,449.91h-12.55c-3.96-.03-7.31,2.91-7.79,6.83l-6.34,50.23c-.53,4.27,2.5,8.17,6.77,8.7.34.04.68.06,1.02.06h25.05c4.3.03,7.82-3.43,7.85-7.74,0-.34-.02-.68-.06-1.02l-6.29-50.23c-.49-3.93-3.84-6.86-7.79-6.83h.13Z"/>
    <circle class="cls-3" cx="78.93" cy="457.71" r="16.45"/>
    <path class="cls-1" d="M78.93,445.16c6.95-.01,12.59,5.6,12.6,12.55.01,6.95-5.6,12.59-12.55,12.6-6.95.01-12.59-5.6-12.6-12.55,0-.02,0-.03,0-.05,0-6.93,5.62-12.55,12.55-12.55h0M78.93,437.36c-11.25-.01-20.38,9.09-20.4,20.34-.01,11.25,9.09,20.38,20.34,20.4,11.25.01,20.38-9.09,20.4-20.34,0-.02,0-.03,0-.05-.01-11.23-9.11-20.33-20.34-20.34Z"/>
    <circle class="cls-2" cx="78.93" cy="457.71" r="6.29"/>
  </g>
</svg>