<?xml version="1.0" encoding="utf-8"?>
<!-- Generator: Adobe Illustrator 16.0.4, SVG Export Plug-In . SVG Version: 6.00 Build 0)  -->
<!DOCTYPE svg PUBLIC "-//W3C//DTD SVG 1.1//EN" "http://www.w3.org/Graphics/SVG/1.1/DTD/svg11.dtd">
<svg version="1.1" id="レイヤー_1" xmlns="http://www.w3.org/2000/svg" xmlns:xlink="http://www.w3.org/1999/xlink" x="0px"
	 y="0px" width="832.667px" height="132px" viewBox="0 0 832.667 132" enable-background="new 0 0 832.667 132"
	 xml:space="preserve">
<path display="none" fill="#2C2461" d="M62.824,91.732c18.144-13.608,45.528-36.375,45.528-61.574
	c0-14.447-9.24-26.619-31.416-26.619C43.336,3.539,32.584,32,32.584,50H55.6c0-15,8.4-28.443,19.656-28.443
	c6.216,0,9.072,4.93,9.072,10.643c0,14.279-16.464,30.184-32.592,43.456c-18.312,14.615-39.144,27.355-39.144,27.355L3.185,126
	h73.416l8.736-22H45.688C45.688,104,58.792,94.756,62.824,91.732z"/>
<path display="none" fill="#2C2461" d="M162.951,40.32c-9.744,0-16.8,5.712-16.8,5.712l6.72-16.968c0,0,18.144,2.855,23.184,2.855
	c16.968,0,24.696-8.231,29.904-15.455l-9.408-10.92c-3.864,3.023-9.408,5.712-16.128,5.712c-5.376,0-39.816-5.712-39.816-5.712
	l-24.696,60.647l20.832,5.879c5.712-10.919,12.936-16.127,18.816-16.127c5.04,0,7.728,3.36,7.728,10.248
	c0,15.12-13.44,43.943-27.888,43.943c-10.248,0-11.256-13.136-4.2-29.136h-24.192c-6.888,18-7.224,46.943,26.544,46.943
	c38.136,0,53.087-39.863,53.087-59.855C186.639,53.809,179.751,40.32,162.951,40.32z"/>
<path display="none" fill="#2C2461" d="M262.07,3.188c-40.32,0-64.176,63.591-64.176,94.167c0,28.896,22.68,30.785,28.896,30.785
	c28.728,0,48.72-32.065,49.056-55.586c0.168-14.616-7.224-25.021-22.512-25.021c-8.568,0-15.288,3.365-20.496,7.23
	c8.568-18.48,17.976-33.771,27.216-33.771c9.576,0,5.712,16.007,2.688,22.007h23.855C293.318,19,282.23,3.188,262.07,3.188z
	 M245.271,63.168c5.376,0,8.064,4.032,8.064,9.912c0,12.432-13.272,37.296-26.376,37.296c-3.528,0-7.56-2.017-7.56-10.752
	c0-5.208,1.68-12.937,4.536-21.84C229.479,69.721,238.719,63.168,245.271,63.168z"/>
<path display="none" fill="#2C2461" d="M350.182,30.744c7.224,0,13.44-6.216,13.44-13.439c0-7.225-6.216-13.104-13.44-13.104
	s-13.104,5.88-13.104,13.104C337.078,24.528,342.958,30.744,350.182,30.744z"/>
<path display="none" fill="#2C2461" d="M820.406,79.8c-7.562,13.104-15.457,24.024-24.527,30.24c0.84-2.856,1.176-5.88,1.176-10.584
	c-0.168-10.248-3.695-37.128,1.176-60.647l-20.16-5.88c-6.383,14.111-17.305,34.943-24.191,46.871v0.001
	c-11.926,20.327-23.854,33.6-31.246,33.6c-2.855,0-6.553-2.017,1.346-21.336l8.734-21.84c3.527-8.735,5.207-14.784,5.207-19.488
	c0-8.904-5.543-14.112-15.119-14.112c-11.592,0-22.68,7.896-26.041,11.088l-20.158-8.903l-17.242,42.614
	c-12.57,21.419-20.852,31.979-25.934,31.979c-2.52,0-6.551-2.521,1.178-21.504l5.545-14.112c1.512-3.864,2.016-6.384,2.016-8.399
	c0-12.097-18.145-20.832-25.031-26.881l5.711-13.943l-10.248-6.216c-6.889,2.184-15.455,10.752-15.455,19.151
	c0,4.032,2.184,7.225,5.207,10.416c-4.871,10.752-9.91,20.832-13.775,27.888c-12.1,21.166-30.242,33.599-47.041,33.599
	c-21.336,0-14.953-19.992-14.953-19.992c27.889,3.359,41.832-4.536,49.225-20.832c10.584-22.848-3.023-35.952-21.168-35.952
	c-25.389,0-41.766,23.254-48.176,44.522c-11.682,19.569-23.76,32.422-32.463,32.422c-3.697,0-7.395-2.258,0.336-21.408L495.833,39
	h13.775l4.873-12h-13.945l8.736-21h-23.688l-8.736,21H462.57l-4.873,12h14.447l-17.525,42.971
	c-11.512,19.149-22.879,31.479-30.018,31.479c-2.855,0-6.551-2.04,1.346-21.36l8.734-21.853c3.529-8.735,5.209-14.789,5.209-19.493
	c0-8.904-5.545-14.115-15.119-14.115c-11.593,0-22.681,7.896-26.041,11.087l-20.16-8.904l-17.239,42.604
	c-11.467,19.412-23.276,31.985-30.47,31.985c-3.192,0-6.216-2.424,1.344-21.239L353.709,39h-23.688l-19.488,47.784
	c-12.096,30.239-2.184,41.446,12.6,41.446c8.273,0,16.134-3.978,23.476-10.406L343.292,126h23.688l23.52-58.128
	c7.224-8.231,14.952-11.928,19.32-11.928c2.52,0,4.368,1.344,4.368,3.528c0,2.52-2.52,8.903-5.88,16.967l-3.864,9.744
	c-11.928,29.735-4.536,42,11.76,42c11.522,0,21.768-6.817,31.03-17.33c0.455,12.256,8.24,17.33,18.865,17.33
	c14.355,0,26.947-10.06,37.549-23.718c1.705,14.918,12.201,23.718,31.498,23.718c30.408,0,50.4-22.009,61.992-42.168
	c4.871-8.735,9.408-17.641,13.775-27.721c4.871,4.2,8.4,7.057,8.4,10.416c0,0.841-0.17,2.521-1.514,5.88l-5.713,14.112
	c-11.928,29.4,0,39.479,13.105,39.479c6.645,0,12.672-2.815,18.283-7.52L641.32,126h23.688l23.521-58.128
	c7.223-8.231,14.951-11.928,19.318-11.928c2.521,0,4.367,1.344,4.367,3.528c0,2.52-2.52,8.903-5.879,16.967l-3.863,9.744
	c-11.93,29.735-4.537,42,11.76,42c19.15,0,34.775-18.815,48.215-42.168l0,0c3.527-6.386,8.23-15.119,12.6-23.688
	c-0.336,9.912,0.336,21.168,0.336,28.896c0,16.129-3.359,20.495-9.072,20.495c-2.688,0-4.703-0.84-6.721-3.022l-12.936,8.062
	c0.336,1.008,7.896,11.424,26.713,11.424c27.887,0,43.344-20.326,55.607-42.166C827.964,83.16,823.595,79.968,820.406,79.8z
	 M553.291,55.608c5.879,0,5.375,4.704,2.184,11.592c-3.527,8.567-9.238,15.96-24.863,13.44
	C530.611,80.641,540.185,55.608,553.291,55.608z"/>
<path fill="#2C2461" d="M3.826,105.731C41.454,83.217,75.998,63.94,75.998,43.43c0-9.407-7.402-14.496-14.805-14.496
	c-7.094,0-12.183,4.627-14.034,9.252c2.931,2.314,4.781,5.86,4.781,9.87c0,6.94-5.706,12.492-12.645,12.492
	c-8.791,0-14.342-7.094-14.342-16.655c0-14.188,12.492-32.539,38.399-32.539c25.6,0,36.549,18.197,36.549,33.31
	c0,19.739-19.739,38.862-53.512,55.67h39.17l-6.477,21.128H9.686L3.826,105.731z"/>
<path fill="#2C2461" d="M139.527,123.62c-24.828,0-38.708-17.426-38.708-31.459c0-8.482,5.552-15.729,14.188-15.729
	c6.939,0,12.646,5.706,12.646,12.646c0,3.547-1.542,6.784-3.856,9.099c0.771,3.238,5.398,8.019,13.879,8.019
	c11.412,0,20.202-9.562,20.202-22.053c0-8.789-5.706-16.963-17.426-16.963c-3.855,0-8.173,1.079-12.954,3.546l-12.337-8.79
	l19.123-48.422h61.685l-6.631,21.127h-43.179l-7.094,17.581c3.701-1.388,6.477-2.159,10.641-2.159
	c18.352,0,32.231,12.646,32.231,31.768C181.936,100.644,168.21,123.62,139.527,123.62z"/>
<path fill="#2C2461" d="M262.276,30.322c-1.697-1.388-4.01-2.468-7.249-2.468c-14.188,0-27.604,19.431-30.534,36.086
	c5.86-6.015,13.571-9.87,21.127-9.87c15.113,0,29.763,9.407,29.763,30.38c0,22.823-17.425,39.169-40.249,39.169
	c-19.739,0-37.011-12.027-37.011-40.403c0-33.156,23.286-71.863,57.367-71.863c19.431,0,30.226,12.336,30.226,23.594
	c0,8.173-5.089,15.421-13.57,15.421c-6.94,0-12.492-5.552-12.492-12.492C259.654,35.103,260.58,32.481,262.276,30.322z
	 M236.06,105.115c9.87,0,17.271-8.327,17.271-18.353c0-8.326-5.706-15.112-14.187-15.112c-9.253,0-17.735,8.02-17.735,18.044
	C221.41,96.942,225.882,105.115,236.06,105.115z"/>
<path fill="#2C2461" d="M345.238,42.813L329.2,95.245c-2.005,6.632-1.079,11.874,4.935,11.874c8.636,0,16.963-11.565,25.599-29.146
	c2.931,0.154,7.248,2.467,8.791,4.317c-10.95,23.903-24.52,40.56-43.18,40.56c-18.043,0-22.515-14.959-17.118-32.848l14.497-47.19
	H345.238z M340.612,7.344c7.557,0,13.263,6.014,13.263,13.417c0,7.402-5.706,13.108-13.263,13.108
	c-7.402,0-13.108-5.707-13.108-13.108C327.504,13.358,333.21,7.344,340.612,7.344z"/>
<path fill="#2C2461" d="M370.218,42.813l19.431,10.024c6.477-7.248,13.725-11.412,22.052-11.412
	c17.582,0,22.361,16.346,17.273,32.846l-6.94,22.671c-1.696,5.243-1.85,10.177,2.775,10.177c6.941,0,15.885-11.874,24.366-29.146
	c2.932,0.154,7.248,2.467,8.79,4.317c-10.641,23.286-24.982,40.56-42.562,40.56c-18.043,0-18.506-17.735-14.497-30.844l5.398-17.118
	c2.467-7.864,1.542-14.649-6.323-14.649c-6.168,0-11.257,4.472-15.729,10.024l-15.576,51.198h-22.515L370.218,42.813z"/>
<path fill="#2C2461" d="M450.25,42.813h9.407l6.015-19.739l24.673-6.786l-8.173,26.524h20.356l-5.09,16.963h-20.51l-9.715,31.769
	c-3.239,10.641,0,15.574,6.631,15.574c10.641,0,22.207-14.033,29.608-29.146c2.93,0.154,7.248,2.467,8.791,4.317
	c-10.487,22.978-24.983,40.56-45.955,40.56c-22.207,0-25.292-18.815-19.586-37.321l7.71-25.753h-9.253L450.25,42.813z"/>
<path fill="#2C2461" d="M591.505,82.291c-10.641,23.286-28.221,41.021-54.745,41.021c-22.824,0-37.32-12.953-37.32-34.235
	c0-23.286,17.581-47.652,44.104-47.652c17.117,0,27.758,10.178,27.758,22.052c0,13.416-13.107,30.533-47.343,29.608
	c2.005,9.254,9.1,14.65,19.894,14.65c14.805,0,29.455-10.641,38.862-29.763C585.645,78.128,589.963,80.44,591.505,82.291z
	 M523.651,82.754c18.968-0.308,27.296-8.636,27.296-15.421c0-3.547-2.159-6.786-7.71-6.786
	C533.52,60.547,525.347,70.571,523.651,82.754z"/>
<path fill="#2C2461" d="M582.711,77.974c3.237-7.093,6.476-14.958,9.252-22.978c-3.238-3.084-5.397-6.94-5.397-11.875
	c0-7.864,6.015-13.879,13.57-13.879c5.552,0,9.716,2.93,11.874,6.785l-4.626,11.875l4.165,1.542
	c16.654,6.631,25.907,12.954,20.355,31.151l-4.935,16.348c-1.697,5.243-1.851,10.177,2.775,10.177
	c6.939,0,15.884-11.874,24.365-29.146c2.93,0.154,7.248,2.467,8.791,4.317c-10.641,23.286-24.983,40.56-42.563,40.56
	c-18.043,0-18.505-17.735-14.497-30.844l4.474-14.342c2.468-8.174,2.93-12.183-3.239-14.65l-6.785-2.931
	c-2.468,7.403-5.397,14.958-8.79,22.207C588.417,82.138,584.098,79.824,582.711,77.974z"/>
<path fill="#2C2461" d="M664.593,42.813l19.432,10.024c6.477-7.248,13.725-11.412,22.052-11.412
	c17.581,0,22.361,16.346,17.273,32.846l-6.941,22.671c-1.695,5.243-1.85,10.177,2.776,10.177c6.94,0,15.885-11.874,24.365-29.146
	c2.932,0.154,7.248,2.467,8.791,4.317c-10.642,23.286-24.983,40.56-42.562,40.56c-18.043,0-18.506-17.735-14.497-30.844
	l5.397-17.118c2.468-7.864,1.542-14.649-6.322-14.649c-6.168,0-11.258,4.472-15.729,10.024l-15.575,51.198h-22.516L664.593,42.813z"
	/>
<path fill="#2C2461" d="M731.98,92.471c0-12.955,8.789-17.428,14.342-16.502c5.705-10.794,12.491-26.833,16.5-39.016l18.043,4.01
	c5.86,18.813,19.739,34.081,19.739,52.432c0,4.01-0.617,7.865-1.851,11.412c8.482-6.014,14.188-15.268,19.894-26.833
	c2.931,0.154,7.247,2.467,8.79,4.317c-10.641,23.286-26.062,41.021-57.675,41.021C747.247,123.312,731.98,108.045,731.98,92.471z
	 M765.598,57c-3.238,8.02-6.94,16.038-10.796,23.44c1.851,2.16,3.085,4.936,3.085,8.02c0,4.626-2.622,8.636-6.323,10.795
	c1.234,5.243,6.015,9.254,12.646,9.254c7.863,0,13.416-5.861,13.416-15.423C777.626,82.291,769.916,70.108,765.598,57z"/>
</svg>
