<svg id="materials" xmlns="http://www.w3.org/2000/svg" viewBox="0 0 240 240"><defs><style>.cls-1{fill:#e44d26;}.cls-2{fill:#474747;}.cls-3{fill:#f16529;}.cls-4{fill:#ebebeb;}.cls-5{fill:#fff;}</style></defs><title>html</title><path class="cls-1" d="M119.9,233.32l-.59-.08L53.74,215a2.21,2.21,0,0,1-1.61-1.93L37.52,49.21a2.2,2.2,0,0,1,2.19-2.4H200.29a2.2,2.2,0,0,1,2.19,2.4L187.86,213.08a2.22,2.22,0,0,1-1.61,1.93l-65.76,18.23Z"/><path class="cls-2" d="M200.29,49,185.66,212.89,119.9,231.12,54.33,212.91,39.71,49H200.29m0-4.41H39.71a4.41,4.41,0,0,0-4.39,4.8L49.93,213.31a4.43,4.43,0,0,0,3.22,3.85l65.57,18.21a4.36,4.36,0,0,0,1.18.16,4.25,4.25,0,0,0,1.18-.16l65.76-18.23a4.4,4.4,0,0,0,3.21-3.86L204.68,49.4a4.41,4.41,0,0,0-4.39-4.8Z"/><polygon class="cls-3" points="120 217.18 173.13 202.45 185.64 62.41 120 62.41 120 217.18"/><polygon class="cls-4" points="120 123.2 93.4 123.2 91.56 102.62 120 102.62 120 82.51 119.93 82.51 69.59 82.51 70.08 87.91 75.02 143.3 120 143.3 120 123.2"/><polygon class="cls-4" points="120 175.41 119.91 175.43 97.53 169.39 96.09 153.35 85.21 153.35 75.91 153.35 78.73 184.92 119.91 196.35 120 196.32 120 175.41"/><polygon class="cls-2" points="54.66 4.47 64.87 4.47 64.87 14.56 74.21 14.56 74.21 4.47 84.43 4.47 84.43 35.03 74.22 35.03 74.22 24.8 64.87 24.8 64.87 35.03 54.66 35.03 54.66 4.47"/><polygon class="cls-2" points="97.86 14.6 88.87 14.6 88.87 4.47 117.08 4.47 117.08 14.6 108.08 14.6 108.08 35.03 97.86 35.03 97.86 14.6"/><polygon class="cls-2" points="121.56 4.47 132.21 4.47 138.76 15.21 145.31 4.47 155.96 4.47 155.96 35.03 145.79 35.03 145.79 19.88 138.76 30.75 138.58 30.75 131.55 19.88 131.55 35.03 121.56 35.03 121.56 4.47"/><polygon class="cls-2" points="161.04 4.47 171.26 4.47 171.26 24.93 185.63 24.93 185.63 35.03 161.04 35.03 161.04 4.47 161.04 4.47"/><polygon class="cls-5" points="119.93 123.2 119.93 143.3 144.68 143.3 142.35 169.37 119.93 175.42 119.93 196.34 161.14 184.92 161.44 181.52 166.17 128.6 166.66 123.2 161.24 123.2 119.93 123.2"/><polygon class="cls-5" points="119.93 82.51 119.93 95 119.93 102.57 119.93 102.62 168.42 102.62 168.49 102.62 168.89 98.1 169.81 87.91 170.29 82.51 119.93 82.51"/></svg>