<svg id="レイヤー_1" data-name="レイヤー 1" xmlns="http://www.w3.org/2000/svg" viewBox="0 0 200 200"><defs><style>.cls-1{fill:#e44d26;}.cls-2{fill:#f16529;}.cls-3{fill:#ebebeb;}.cls-4{fill:#fff;}</style></defs><title>html</title><polygon class="cls-1" points="47.45 176.11 35.76 44.96 164.24 44.96 152.54 176.09 99.92 190.68 47.45 176.11"/><polygon class="cls-2" points="100 179.53 142.52 167.74 152.52 55.69 100 55.69 100 179.53"/><polygon class="cls-3" points="100 104.33 78.72 104.33 77.25 87.86 100 87.86 100 71.77 99.94 71.77 59.67 71.77 60.05 76.09 64 120.41 100 120.41 100 104.33"/><polygon class="cls-3" points="100 146.1 99.93 146.12 82.02 141.28 80.87 128.46 72.17 128.46 64.72 128.46 66.98 153.71 99.92 162.86 100 162.84 100 146.1"/><path d="M47.71,9.32h8.18V17.4h7.47V9.32h8.18V33.78H63.36V25.59H55.89v8.19H47.71V9.32Z"/><path d="M82.29,17.43h-7.2V9.32H97.66v8.11h-7.2V33.78H82.29V17.43Z"/><path d="M101.24,9.32h8.53L115,17.91l5.24-8.59h8.52V33.78h-8.14V21.65L115,30.35h-.14l-5.63-8.7V33.78h-8V9.32Z"/><path d="M132.84,9.32H141V25.69h11.5v8.09H132.84V9.32Z"/><polygon class="cls-4" points="99.94 104.33 99.94 120.41 119.75 120.41 117.88 141.27 99.94 146.12 99.94 162.85 132.92 153.71 133.16 150.99 136.94 108.65 137.33 104.33 133 104.33 99.94 104.33"/><polygon class="cls-4" points="99.94 71.77 99.94 81.76 99.94 87.82 99.94 87.86 138.75 87.86 138.75 87.86 138.8 87.86 139.12 84.24 139.85 76.09 140.24 71.77 99.94 71.77"/></svg>