<?xml version="1.0" encoding="utf-8"?>
<!-- Generator: Adobe Illustrator 16.0.4, SVG Export Plug-In . SVG Version: 6.00 Build 0)  -->
<!DOCTYPE svg PUBLIC "-//W3C//DTD SVG 1.1//EN" "http://www.w3.org/Graphics/SVG/1.1/DTD/svg11.dtd">
<svg version="1.1" id="レイヤー_1" xmlns="http://www.w3.org/2000/svg" xmlns:xlink="http://www.w3.org/1999/xlink" x="0px"
	 y="0px" width="308.594px" height="356.25px" viewBox="0 0 308.594 356.25" enable-background="new 0 0 308.594 356.25"
	 xml:space="preserve">
<g>
	<polygon fill="#E44D26" points="54.387,325.408 31.957,73.832 278.421,73.832 255.968,325.368 155.039,353.35 	"/>
	<polygon fill="#F16529" points="155.189,331.962 236.745,309.352 255.933,94.402 155.189,94.402 	"/>
	<polygon fill="#EBEBEB" points="155.189,187.708 114.36,187.708 111.541,156.113 155.189,156.113 155.189,125.258 155.082,125.258 
		77.82,125.258 78.559,133.535 86.141,218.562 155.189,218.562 	"/>
	<polygon fill="#EBEBEB" points="155.189,267.842 155.053,267.877 120.69,258.599 118.494,233.991 101.796,233.991 87.521,233.991 
		91.843,282.438 155.046,299.983 155.189,299.943 	"/>
	<path d="M54.889,5.465h15.68v15.492h14.343V5.465h15.68v46.913H84.913V36.668H70.568v15.709h-15.68V5.465L54.889,5.465z"/>
	<path d="M121.212,21.022h-13.804V5.465h43.295v15.557h-13.81v31.355h-15.681V21.022L121.212,21.022z"/>
	<path d="M157.575,5.465h16.351l10.057,16.483l10.047-16.483h16.355v46.913H194.77V29.125l-10.787,16.68h-0.271l-10.794-16.68
		v23.252h-15.342V5.465z"/>
	<path d="M218.188,5.465h15.685v31.406h22.051v15.507h-37.735V5.465z"/>
	<polygon fill="#FFFFFF" points="155.082,187.708 155.082,218.562 193.077,218.562 189.494,258.579 155.082,267.867 
		155.082,299.967 218.336,282.438 218.8,277.224 226.051,195.993 226.803,187.708 218.488,187.708 	"/>
	<polygon fill="#FFFFFF" points="155.082,125.258 155.082,144.421 155.082,156.037 155.082,156.113 229.512,156.113 
		229.512,156.113 229.611,156.113 230.229,149.177 231.636,133.535 232.374,125.258 	"/>
</g>
</svg>
