<?xml version="1.0" encoding="UTF-8"?>
<svg id="_レイヤー_1" data-name="レイヤー_1" xmlns="http://www.w3.org/2000/svg" viewBox="0 0 869.56 473.97">
  <defs>
    <style>
      .cls-1 {
        fill: #4742c2;
      }

      .cls-2 {
        fill: #fff;
      }

      .cls-3 {
        fill: #ebebf7;
      }
    </style>
  </defs>
  <g id="HTTP">
    <path class="cls-2" d="M858.95,212.01c-3.16-5.76-4.98-12.26-7.31-18.46-.29-.79.21-2.39-.14-2.55-3.79-1.77-2.91-6.06-4.96-8.81-3.5-4.69-6.37-9.8-7.53-15.68-.32-1.64-1.44-3.77-2.2-4.33-4.59-3.35-4.04-9.26-7.31-13.3-2.9-3.58-4.93-8.08-6.52-12.47-2.58-7.12-8.05-12.91-9.87-20.07-1.65-6.47-6.81-10.83-8.3-17.24-1.37-5.92-4.1-11.46-7.13-16.74-3.32-5.78-6.93-11.41-8.91-17.82-5.01-16.28-14.47-30.47-21.29-45.86-3.6-8.13-9.94-11.9-16.55-16.16-1.13-.73-1.91-.92-3.11-.25-4.98,2.78-10.41,1-15.61,1.07-1.09.01-2.76-1.6-4.64-1.58-7.48.08-15.24-1.25-22.38.31-13.58,2.97-27.11.47-40.6,1.58-2.55.21-3.72-1.33-5.62-3.2-13.32-.45-26.19-.45-39.07-.45-1.15,4.36-4.92,4.28-7.74,3.35-2.26-.74-3.71-2.55-5.84.15-.46.58-2.28.08-3.47.08-30.97,0-61.95,0-92.92-.01-.86,0-1.78,0-2.55-.3-1.07-.43-.54-1.54-1.09-2.82-9.73-.45-19.01-.45-28.29,0-6.84,1.16-13.45,3.43-20.45,3.18-6.28-.22-12.57-.05-18.86-.05h-10.78c-3.29,0-6.6.21-9.87-.06-3.44-.28-6.82.58-10.42-.8-2.18-.84-5.44,2.26-7.94-.76-2.95,3.15-6.73,1.33-10.11,1.53-5.37.32-10.77.09-16.16.09s-10.84-.53-16.14.15c-4.98.64-9.75-3.17-14.72-.19-2.26,1.35-3.65-3.23-5.39-1.62-2.13,1.96-4.28,1.64-6.56,1.65-16.16.02-32.33.02-48.49,0-2.3,0-4.32-.37-6.58-1.52-1.83-.93-4.33,1.94-7.21,1.64-4.44-.45-8.97-.12-13.46-.12-3.59,0-7.39.74-10.72-.2-3.64-1.02-6.9,0-10.23.35-2.68.28-4.66-3.15-6.33-1.78-3.88,3.18-8.03,1.38-11.96,1.48-3.92.1-8.25,1.68-11.88-1.57-.5-.45-2-.43-2.6,0-4.28,3.07-9.1,1.38-13.67,1.68-3.87.26-7.78.05-11.67.05s-7.79.16-11.67-.05c-3.76-.2-7.53-.14-11.32-.56-3.26-.36-6.99.58-10.54.6-6.59.03-13.17-.01-19.76.02-3.15.01-6.45-.62-9.13,1.79-3.01,2.7-6.97,4.91-8.77,8.27-3.01,5.62-6.32,11.16-8.95,16.9-2.73,5.97-6.48,11.51-7.73,18.38-.96,5.23-3.6,11.08-7.4,14.59-3.26,3.01-4.89,6.73-6.36,9.99-4.08,9.06-7.55,18.4-12.24,27.2-1.56,2.92-3.33,5.87-4.13,9.03-1.71,6.81-5.33,12.81-8.29,18.98-1.7,3.54-2.65,7.34-4.49,10.7-2.01,3.67-4.27,7.27-5.17,11.3-1.19,5.31-4,9.82-6.66,14.27-3.16,5.3-5.88,10.61-8.06,16.43-1.82,4.84-3.69,9.98-6.59,14.25-2.54,3.73-3.98,8.04-7.21,11.52-2.86,3.08-5.07,7.75-5.4,11.9-.39,4.96-4.26,7.86-5.13,12.36-.51,2.65-1.29,5.66-.37,7.71,2.14,4.78,3.15,10.14,6.69,14.28.74.87,2.17,2.05,1.97,2.68-1.19,3.84,3.56,4.63,3.66,7.52.11,3.36,1.99,5.82,3.69,8.35,5.29,7.89,8.4,16.88,12.93,25.14,1.34,2.44,2.49,4.86,3.38,7.58,2.33,7.11,5.32,13.92,9.72,20.23,2.74,3.93,5.69,8.43,6.15,13.49.42,4.65,2.31,8.67,4.3,12.59,8.28,16.31,16.68,32.58,25.43,48.65,2.66,4.89,2.62,11.12,7.52,14.84,3.91,9.76,10.38,18.35,13.17,28.62.31,1.15,7.33,15.14,7.79,15.6,3.09,3.09,6.18,6.18,9.26,9.26,4.03-4.17,1.81,1.95,3.7,1.58,2.35.21,5.1,0,7.53.78,5.75,1.85,11.47,3.68,17.59,2.98,3.66-.42,7.61,1.48,11.04-1.64.82-.74,3.26-.67,4.31.01,1.8,1.18,4.2-.14,5.24,1,2.17,2.37,4.19-2.4,6.6.5,1.24,1.48,3.48-2.78,6.25-1.68,1.38.55,2.91.05,3.91-1.35.05-.07.78.36,1.21.56v3.11c3.07-3.39,6.46-2.06,9.69-2.21,3.58-.17,7.18-.04,10.77-.04h34.12c3.59,0,7.21-.28,10.77.08,3.66.37,7.78-1.88,10.95,1.69,2.84-3.43,6.67-1.39,10.03-1.68,4.16-.36,8.39.14,12.56-.15,4.43-.3,8.15,2.35,12.74,2,16.78-1.25,33.64,1.29,50.48-1.69,5.99-1.06,12.68-1.59,18.8,1.13,6.52-3.03,13.4-.66,20.08-1.36,1.78-.19,3.62-.23,5.38.01,4.05.57,8.69-4.11,12.35,1.62.61.95,4.98,1,5.88-.03,2.46-2.84,5.01.3,7.25-.88,3.07-1.61,6.38-.6,9.57-.7,10.57-.32,20.92,2.56,31.59,1.88,9.84-.63,19.75-.03,29.62-.19,3.08-.05,6.59,1.4,9.14-1.73,4.59,1.43,9.04-2.71,13.84-.12,2.11,1.14,5.36-1.02,7.36,1.72,2.36-2.34,5.36-1.51,8.15-1.58,3.59-.08,7.18-.02,10.78-.02h10.78c3.59,0,7.21-.28,10.77.08,3.36.34,7.2-1.74,10.03,1.7,2.84-3.43,6.69-1.23,10.04-1.74,8.55-1.31,16.81,1.83,25.29,1.77,9.28-.06,18.59-.48,27.83.12,9.19.59,17.98-2.73,27.1-1.91,3.76.34,7.52.17,11.31.61,3.25.38,6.99-.59,10.55-.62,3.59-.03,7.18,0,10.78,0h10.78c3.29,0,6.59.1,9.88-.03,3.33-.12,6.96,1.47,9.67.8,3.58-.89,6.96-.53,10.4-.7,5.38-.26,10.8.29,16.15-.16,7.37-.61,13.96-3.45,18.36-9.63,2.05-2.87,3.06-6.47,4.54-9.75,1.59-3.53,3.19-7.05,4.75-10.59,2.24-5.05,4.27-10.2,6.72-15.15,3.81-7.69,7.47-15.47,11-23.25,2.38-5.23,4.05-10.84,6.66-16.07,2.74-5.49,4.35-11.57,8.96-16.01-.35-4.31,4.74-6.42,4.38-10.74,4.56-6.38,5.26-14.61,10.6-20.8,3.16-3.67,6.8-7.84,7.16-13.03.18-2.5,1.37-4.44,2.19-6.33,2.41-5.59,6.48-10.52,8.48-16.21,2.02-5.76,4.91-11.1,6.84-16.93,3.46-10.45,9.91-19.68,14-30.05,2.33-5.91,6.01-11.28,6.73-17.85.03-.26.96-.43,1.47-1.09v-6.72c-5.06-5.58-7.09-12.87-10.62-19.3Z"/>
    <path class="cls-1" d="M869.56,238.03c-.51.66-1.44.83-1.47,1.09-.72,6.57-4.4,11.94-6.73,17.85-4.09,10.37-10.54,19.6-14,30.05-1.93,5.83-4.83,11.17-6.84,16.93-1.99,5.69-6.06,10.62-8.48,16.21-.82,1.89-2.01,3.83-2.19,6.33-.36,5.18-4,9.36-7.16,13.03-5.34,6.19-6.04,14.42-10.6,20.8.36,4.32-4.72,6.43-4.38,10.74-4.61,4.44-6.22,10.52-8.96,16.01-2.62,5.23-4.29,10.84-6.66,16.07-3.54,7.79-7.2,15.57-11,23.25-2.45,4.95-4.48,10.1-6.72,15.15-1.57,3.54-3.16,7.06-4.75,10.59-1.48,3.27-2.49,6.88-4.54,9.75-4.4,6.18-10.99,9.02-18.36,9.63-5.35.44-10.78-.11-16.15.16-3.44.17-6.82-.19-10.4.7-2.71.67-6.34-.92-9.67-.8-3.29.12-6.58.03-9.88.03h-10.78c-3.59,0-7.18-.02-10.78,0-3.55.03-7.3,1-10.55.62-3.79-.44-7.56-.27-11.31-.61-9.12-.82-17.91,2.5-27.1,1.91-9.24-.6-18.55-.18-27.83-.12-8.48.05-16.75-3.09-25.29-1.77-3.36.52-7.2-1.69-10.04,1.74-2.84-3.44-6.68-1.36-10.03-1.7-3.56-.36-7.18-.08-10.77-.08h-10.78c-3.59,0-7.19-.06-10.78.02-2.79.06-5.79-.76-8.15,1.58-2-2.73-5.25-.58-7.36-1.72-4.8-2.59-9.25,1.55-13.84.12-2.55,3.13-6.05,1.68-9.14,1.73-9.88.16-19.79-.44-29.62.19-10.67.68-21.02-2.19-31.59-1.88-3.19.09-6.5-.91-9.57.7-2.25,1.18-4.79-1.96-7.25.88-.9,1.04-5.28.98-5.88.03-3.67-5.73-8.3-1.05-12.35-1.62-1.76-.25-3.6-.2-5.38-.01-6.68.7-13.57-1.67-20.08,1.36-6.11-2.72-12.81-2.19-18.8-1.13-16.83,2.98-33.7.43-50.48,1.69-4.59.34-8.32-2.31-12.74-2-4.17.29-8.4-.21-12.56.15-3.36.29-7.19-1.74-10.03,1.68-3.16-3.57-7.29-1.32-10.95-1.69-3.55-.36-7.18-.08-10.77-.08h-34.12c-3.59,0-7.19-.13-10.77.04-3.23.15-6.62-1.17-9.69,2.21v-3.11c-.43-.2-1.16-.62-1.21-.56-1,1.4-2.53,1.89-3.91,1.35-2.77-1.1-5.02,3.17-6.25,1.68-2.41-2.89-4.43,1.87-6.6-.5-1.04-1.14-3.44.18-5.24-1-1.05-.68-3.49-.76-4.31-.01-3.42,3.12-7.37,1.23-11.04,1.64-6.12.7-11.84-1.13-17.59-2.98-2.43-.78-5.18-.56-7.53-.78-1.89.37.33-5.75-3.7-1.58-3.08-3.08-6.18-6.16-9.26-9.26-.46-.46-7.48-14.45-7.79-15.6-2.79-10.28-9.25-18.86-13.17-28.62-4.89-3.72-4.86-9.95-7.52-14.84-8.74-16.07-17.14-32.33-25.43-48.65-1.99-3.92-3.88-7.95-4.3-12.59-.46-5.06-3.41-9.57-6.15-13.49-4.41-6.31-7.4-13.12-9.72-20.23-.89-2.72-2.04-5.14-3.38-7.58-4.53-8.27-7.64-17.25-12.93-25.14-1.69-2.53-3.58-4.99-3.69-8.35-.09-2.9-4.85-3.68-3.66-7.52.2-.63-1.23-1.81-1.97-2.68-3.54-4.13-4.55-9.5-6.69-14.28-.92-2.05-.15-5.06.37-7.71.87-4.5,4.74-7.4,5.13-12.36.33-4.14,2.55-8.82,5.4-11.9,3.23-3.49,4.67-7.79,7.21-11.52,2.9-4.26,4.78-9.41,6.59-14.25,2.18-5.82,4.89-11.13,8.06-16.43,2.66-4.45,5.47-8.96,6.66-14.27.9-4.03,3.16-7.63,5.17-11.3,1.85-3.36,2.79-7.16,4.49-10.7,2.96-6.17,6.58-12.17,8.29-18.98.79-3.16,2.57-6.11,4.13-9.03,4.69-8.81,8.16-18.14,12.24-27.2,1.47-3.26,3.1-6.97,6.36-9.99,3.8-3.51,6.45-9.36,7.4-14.59,1.25-6.87,5-12.4,7.73-18.38,2.63-5.74,5.94-11.28,8.95-16.9,1.8-3.36,5.76-5.57,8.77-8.27,2.68-2.41,5.98-1.77,9.13-1.79,6.59-.03,13.17.01,19.76-.02,3.55-.02,7.28-.96,10.54-.6,3.79.42,7.56.36,11.32.56,3.88.21,7.78.05,11.67.05s7.8.2,11.67-.05c4.57-.3,9.39,1.39,13.67-1.68.59-.42,2.1-.44,2.6,0,3.62,3.25,7.96,1.67,11.88,1.57,3.93-.1,8.08,1.7,11.96-1.48,1.67-1.36,3.65,2.07,6.33,1.78,3.33-.35,6.59-1.37,10.23-.35,3.33.93,7.13.2,10.72.2,4.49,0,9.01-.33,13.46.12,2.88.29,5.38-2.58,7.21-1.64,2.25,1.15,4.28,1.52,6.58,1.52,16.16.01,32.33.02,48.49,0,2.29,0,4.44.32,6.56-1.65,1.75-1.61,3.13,2.97,5.39,1.62,4.97-2.97,9.74.84,14.72.19,5.3-.68,10.76-.15,16.14-.15s10.79.23,16.16-.09c3.38-.2,7.16,1.61,10.11-1.53,2.5,3.02,5.75-.08,7.94.76,3.59,1.39,6.98.52,10.42.8,3.27.27,6.58.06,9.87.06h10.78c6.29,0,12.58-.17,18.86.05,7,.25,13.61-2.02,20.45-3.18,9.28-.45,18.56-.45,28.29,0,.56,1.28.03,2.39,1.09,2.82.77.31,1.69.3,2.55.3,30.97.01,61.95.01,92.92.01,1.19,0,3.01.49,3.47-.08,2.13-2.7,3.58-.89,5.84-.15,2.82.92,6.59,1,7.74-3.35,12.87,0,25.74,0,39.07.45,1.9,1.87,3.07,3.41,5.62,3.2,13.49-1.11,27.02,1.4,40.6-1.58,7.14-1.56,14.9-.23,22.38-.31,1.88-.02,3.55,1.59,4.64,1.58,5.2-.07,10.63,1.71,15.61-1.07,1.2-.67,1.98-.47,3.11.25,6.62,4.26,12.95,8.03,16.55,16.16,6.82,15.39,16.27,29.59,21.29,45.86,1.98,6.42,5.59,12.04,8.91,17.82,3.03,5.28,5.76,10.81,7.13,16.74,1.48,6.41,6.65,10.76,8.3,17.24,1.83,7.17,7.3,12.96,9.87,20.07,1.59,4.39,3.62,8.88,6.52,12.47,3.28,4.05,2.73,9.95,7.31,13.3.76.56,1.88,2.69,2.2,4.33,1.17,5.88,4.03,10.99,7.53,15.68,2.05,2.74,1.16,7.04,4.96,8.81.36.17-.15,1.77.14,2.55,2.33,6.2,4.15,12.7,7.31,18.46,3.52,6.43,5.56,13.72,10.62,19.3v6.72ZM780.65,68.14c-2.47-3.49-2.36-8.12-4.61-11.51-3.75-5.63-4.03-12.84-8.72-17.94-.77-8.95-8.14-14.5-11.47-22.15-.33-.76-1.12-1.61-1.88-1.87-4.48-1.52-9.26-1.9-13.68-3.83-2.26-.98-4.95,2.41-7.45-.1-4.51,3.25-9.66,1.46-14.52,1.76-11.48.7-22.86-.68-34.28-1.62-2.98-.25-6.14-.98-9.32,1.31-3.06,2.21-6.41-1.46-9.83-1.49-1.1,0-1.64.61-2.17,1.26-.72.87-2.03.87-2.39.48-2.98-3.26-6.78-1.6-10.11-1.59-14.13.03-28.23.39-42.37,1.33-21.16,1.4-42.47.41-63.72.3-2.49-.01-5.42,1.26-7.46-1.43-2.6,2.54-5.61-2.61-7.98.31-1.6,1.98-3.54-1.28-5.48.98-1.02,1.18-4.55.21-6.94.21s-5.13.75-7.11-.15c-4.5-2.04-9.09-1.78-13.69-1.6-12.62.5-25.2-.38-37.91,1.39-12.04,1.67-24.5.67-36.76.27-12.03-.39-24.06,1.32-36.13-1.42-5.06-1.15-11.03-1.57-16.3,1.42-1.13.64-3.65.71-4.3-.03-2.51-2.85-5.58-1.45-8.37-1.61-4.18-.24-8.38-.06-12.57-.06h-24.24c-3.89,0-8.25-1.1-11.55.3-3.61,1.53-7.09.74-10.5,1.2-4.69.64-9.71,1.28-14.59-1.29-2.34-1.23-5.88-.08-8.86-.25-3.24-.18-5.74,2.22-9.14,1.95-5.65-.45-11.41-.58-17.03,0-5.7.6-10.78-2.21-16.33-1.95-3.58.16-7.18.03-10.77.03h-22.44c-3.59,0-7.18.01-10.77,0-3.88-.02-8.17.97-11.52-.37-3.63-1.45-6.25.75-9.45.61-13.14-.57-26.32-.27-39.49-.23-7.56.02-13.81,5.13-16.75,12.42-1.96,4.86-4.05,9.77-7.43,13.97-2.47,3.07-3.76,6.79-5.01,10.46-2.23,6.57-6.6,12.19-8.34,18.96-3.03,1.33-1.48,5.1-3.28,6.63-2.15,1.82-2.98,4.29-4.21,6.43-6.22,10.82-9.65,22.88-14.72,34.23.73,4.35-2.13,7.7-4.02,10.85-3.62,6.03-6.04,12.44-8.7,18.85-2.22,5.34-3.12,11.17-6.92,16.01-3.58,4.56-4.35,10.97-8.93,15.08,1.61,4.43-4.81,5.87-3.78,10.09-3.71,8.02-8.66,15.49-10.82,24.21-4.88,4.59-6.66,10.95-9.47,16.7-3.9,7.98-3.82,8.07-1.23,15.91.92,2.77,1.69,5.83,5.21,6.65-.91,4.35,3.53,6.24,4.52,9.79,1.03,3.71,2.57,7.27,4.39,10.75.85,1.62,1.24,3.53,2.41,5.28,3.12,4.61,5.86,9.49,8.55,14.37,2.4,4.36,4.32,9,6.84,13.29,2.72,4.62,1.32,10.76,5.65,14.7-.15,6.23,5.13,9.8,7.34,14.89,2.2,5.07,5.89,9.78,6.83,15.03,1.04,5.78,4.47,10.19,6.44,15.35,2.85,7.45,7.68,14.16,11.78,21.11,2.85,4.82,7.09,9.17,8.6,14.34,2.47,8.48,7.2,15.63,11.38,23.09,1.47,2.62,4.55,5.06,4.96,7.77.84,5.53,4.61,9.5,6.19,14.54,1.57,5,2.6,10.24,5.85,14.76,2.19,0,5.22-.91,6.81.21,2.46,1.74,3.81,1.89,5.93-.12.6-.57,2.84-.48,3.35.12,2.19,2.6,4.99,1.48,7.49,1.52,9.28.14,18.56.3,27.83-.01,9.34-.31,18.56-2.63,27.99-1.75,3.6.34,7.37-.72,10.74,1.37,3.73-2.84,8.03-.7,12.01-1.31,1.46-.22,3.51.6,4.4-.14,5.57-4.64,12.05,1.75,17.63-1.65.38-.23,1.14.02,1.67.21,5.92,2.21,12.03,3.56,18.37,3.28,2.8-.12,5.75,1,8.4-1.52.95-.9,3.56.2,5.19-.31,2.47-.78,3.89,4.2,6.94.69,2.61-3,5.08,1.46,7.92,1.25,3.27-.24,6.58-.09,9.87-.05,3.26.04,7.57-1.11,9.54.52,3.2,2.65,5.86.56,8.24.28,4.16-.49,8.29-.74,12.46-.8.29,0,.6.02.88-.04,10.18-2.31,13.1-2.36,22.93-.35,2.05-2.73,3.64.51,5.53.5,2.19-.02,4.39-2.99,6.59-.11,5.46-3.26,11.46-1.42,17.21-1.74,4.77-.26,9.59.17,14.36-.11,5-.29,9.41,2.69,14.54,1.97,4.11-.58,8.36-.12,12.55-.12s8.39-.22,12.56.06c4.26.29,8.86-1.51,12.73,1.73,3.69-1.04,7.24-1.14,11.13-.18,3.38.84,7.25-.37,10.7.33,3.53.71,6.73-3.96,10.15-.3,2.92-3.24,6.91-.55,10.05-1.75,3.57-1.37,6.83.36,10.22.1,10.51-.81,21.21,1.89,31.59-1.76,4.54-1.6,9.17,4.69,13.77-.02,3,3.58,8.15-.11,11.19,3.32,3.43-.62,6.49,2.47,9.69,1.48,5.01-1.55,9.66-5.04,15.08-1.25.4.28,1.3.26,1.75,0,3.14-1.84,6.21.15,9.31.06,3.89-.11,7.78-.12,11.67,0,2.25.07,4.85-.97,6.5,1.6,2.51-3.15,5.14,2.29,7.33.03,1.82-1.88,4.02-.53,6.06-1.4,2.53-1.08,5.88-.12,8.86-.29,4.28-.25,8.65.96,12.82-1.61,1.52-.93,4.79-1,6.05.02,3.01,2.43,6.18,1.31,9.27,1.61,6.74.67,13.29-1.47,19.91-1.62,9.32-.21,18.62-.08,28.03,1.27,10.85,1.56,22.09.37,33.17.36,1.18,0,3.27.18,3.38-.19,1.01-3.35,5.27.32,6.38-3.35,1.67-5.54,5.09-10.37,7.31-15.79,3.46-8.41,5.54-17.41,10.45-25.27,2.32-3.72,6.17-6.89,5.61-12,3.89-1.98,4.61-6.41,4.88-9.51.36-4.09,3.9-5.95,4.45-10.06.69-5.17,3.7-10.8,7.37-14.65,7.12-7.47,8.23-17.7,13.47-25.95.94-1.48,1.23-3.74,2.85-5.03,2.02-1.62.68-4.17,2.35-6.28,5.55-6.98,8.76-15.43,13.08-23.2.86-1.55,1.3-3.02,1.84-4.64,2.07-6.29,4.59-12.43,7.07-18.57,1.98-4.89,4.55-9.54,7.27-14,4.84-7.91,5.65-17.6,10.85-25.06,5.42-7.78,3.42-15.38.86-22.69-2.81-8.03-8.46-14.94-10.58-23.4-4.19-3.85-4.74-9.41-6.53-14.33-1.7-4.68-5.92-8.37-5.53-13.85-3.75-2.94-4.85-7.55-7.02-11.45-.56-1.01-1.33-1.83-1.84-2.81-4.25-8.09-8.89-16.03-12.46-24.42-1.76-4.13-3.61-8.08-5.94-11.89-4.93-8.05-8.78-16.6-12.36-25.36-3.13-7.65-4.15-16.38-10.52-22.54.87-2.35-2.85-3.11-2.8-6.38Z"/>
    <path class="cls-3" d="M823.92,232.1c-6.87-8.84-10.49-19.16-15.71-28.63,1.45-3.92-3.63-4.76-3.83-8.35-.18-3.1-1.92-6.46-3.86-9.03-4.75-6.32-6.35-14.3-11.36-20.4-.66-.8-1.05-2-.64-2.34,3.12-2.63-.09-4.57-.93-6.28-2.83-5.72-6.52-11.03-9.25-16.79-1.27-2.69-2.46-5.69-3.08-8.53-.73-3.4-3.65-4.95-4.74-7.78-1.9-4.94-4.96-9.27-7.24-14.02-5.86-12.22-11.8-24.4-18.11-36.39-1.26-2.4-2.27-5.36-4.94-6.93,2.49-2.93-.26-5.13-1.63-6.73-2.08-2.42-3.34-5.31-5.41-7.75-2.56-3.02-7.53-2.18-8.97-6.37-8.95-.69-18.05,1.46-26.9-1.34-2.44,2.74-5.63,1.22-8.42,1.22-3.05,0-6.58,1.53-9.12-1.64-1.81,2.28-4.92-.41-6.76,1.76-2.8-3.14-5.73,1.7-8.35-.05-3.27-2.19-5.75-1.83-7.88,1.45-.04.07-.81-.3-1.22-.5-2.79-1.33-5.51-1.94-7.93.75-2.64-2.64-6-1.59-9.07-1.6-29.62-.07-59.24-.07-88.87,0-3.03,0-6.07-1.24-8.83-.96-7.98.82-7.95,1.16-15.13-.48-.78-.18-2.01-.46-2.36-.07-2.48,2.69-5.6,1.22-8.41,1.41-2.62.18-5.95.76-7.77-.52-2.73-1.93-3.79,1.39-6.05.75-2.49-.71-5.34-.16-8.03-.16-16.16,0-32.32.06-48.47-.06-2.77-.02-5.76,1.6-7.88.93-5.91-1.85-11.77-.81-17.56-.7-6.02.11-12.35-2.06-18.16,1.54-.8.5-2.79.37-3.34-.26-2.24-2.51-5.04-1.38-7.53-1.4-20.05-.11-40.09-.07-60.14-.05-2.74,0-5.59-.48-8.04,1.32-3.13-2.56-6.82-.8-10.22-1.33-3.96-.62-7.29.86-10.38,3.1-1.12.81-2.14.72-3.07-.3-1.2-1.32-2.44-1.5-3.7-.12-1.72,1.89-2.01-1.04-3.38-.99-1.88.07-2.54,2.13-4.65,2.02-2.42-.12-3.85-2.25-6.44-2.08-2.44.16-4.9.54-7.63-.97-4.66-2.57-10.04.95-15.11-.3-3.16,2.99-6.42,2.99-10.57,1.64-2.7-.88-6.46-1.29-9.06,1.56-2.8-1.19-5.53-2.56-8.41-3.51-1.35-.44-2.97-.08-4.46-.08-8.98,0-17.95-.02-26.93.01-3.46.01-7.08-.74-9.63,2.86-1.17,1.66-3.48.93-5.01.58-2.26-.52-4.28-3.25-6.55-.05-3.91-3.34-8.53-1.18-12.8-1.52-4.76-.38-9.58.14-14.35-.16-3.34-.21-5.77,2.22-8.94,2.55-.55.06-1.62,2.91-3.72,3.44-2.54.64-1.08,5.49-4.98,4.95-.18-.02-.58.38-.6.61-.12,1.16.3,2.67-.29,3.45-2.55,3.38-3.12,7.97-6.7,10.71-.89.68-1.81,1.65-2.15,2.67-3.73,11.05-9.17,21.32-14.51,31.61-1.15,2.22-2.29,4.98-5.29,5.73.42,5.99-5.11,9.76-5.66,15.66-.33,3.57-3.5,6.82-5.03,10.37-.65,1.5-1.54,1.29-2.65,1.56-1.01.25-.84.97-.13,1.78,1.41,1.62,1.74,3.17-1.09,3.5-1.72.2-1.37,1.41-1.65,2.52-.66,2.69-.83,5.97-2.51,7.84-4.27,4.77-4.93,11.51-8.92,16-4.35,4.9-2.99,12.25-8.27,16.37,1.68,4.02-3.86,4.81-3.68,8.37.16,3.16-1.92,6.01-3.65,8.25-5.72,7.41-8.06,16.47-12.76,24.34-.36.61-1.81.85-.98,1.87,3.27,3.98-3.15,1-2.6,2.38,1.24,5.97-.77,11.21,1.47,16.47,1.54,3.61,3.13,7.05,4.94,10.53,1.92,3.68,3.9,7.35,6.06,10.89.89,1.45,1.6,3.09,2.42,4.33,3.09,4.7,3.57,10.66,7.62,14.84,1.31,1.36,2.54,3.25,2.81,5.04.37,2.47,2.13,3.78,3.67,4.68,2.55,1.49-.34,3.73.83,4.47,3.81,2.39,1.9,8.15,6.28,10.02-.54.65-1.08,1.29-1.52,1.81,1.63,2.94,5.19,4.17,5.59,8.57.22,2.48,3.27,4.9,3.92,8.15.34,1.73,2.42,2.87,3.32,4.85.72,1.59,1.13,3.72,2.77,5.21,1.32,1.2-.45,4.28,2.02,5.33,2.7,1.15.19,3.08.85,4.46,1.79,3.75,4.17,7.17,5.99,10.94,1.37,2.85,3.19,5.99,5.82,8.42,2.38,2.21.62,7.26,5.18,8.48.18.05.3,1.95-.11,2.25-1.86,1.41-.44,2.07.29,3.28,2.57,4.27,4.51,8.87,6.38,13.47,2.5,6.18,5.71,12.01,9.06,17.72,1.2,2.05-.03,4.51,2.31,6.31,3.29,2.53,5.79,6.07,9.05,8.65,1.83,1.45,3.98,3.75,6.63,2.84,1.31-.45,2.08-1.77,3.23.01,1.3,2,3.24,2.18,5.42,2.11,4.19-.13,8.5-.66,12.53.14,4.15.81,7.87-3.71,12.11-.29,1.13.91,2.63-3.02,4.41-1.44,1.95,1.74,3.34,2.24,5.05.03,1.98,2.47,3.66-.55,5.59-.33,2.36.27,4.86-.34,7.16.13,11.39,2.32,19.16,2.4,30.84-.07,2.7-.57,13.69,1.77,17.29,3.58h37.26v-.89l16.3-1.66c2.11,1.68,4.56.61,6.83.7,5.05.2,10.14.38,15.16-.03,4.84-.39,9.98,1.8,14.51-1.52,3.7,3.58,7.26.49,10.94-.08,1.91-.3,3.95-.3,6.01.41,5.6,1.91,25.54,1.95,31.06-.01,1.51-.54,2.85-.32,4.25-.47,3.06-.33,5.99,1.8,9.28.09,1.9-.99,2.83,1.58,4.63,3.02,12.72.45,24.99.45,37.26.45.03-2.47,1.92-1.76,3.22-1.76,8.38-.05,16.76.1,25.13-.08,4.28-.09,8.78,1.21,12.77-1.68.59-.43,1.98.29,2.61-.12,2.55-1.68,4.29,2.64,6.9.68,2.19-1.64,4.26-.56,6.1,1.01,1.98-2.76,4.89-1.37,7.41-1.58,2.38-.2,4.8-.21,7.17,0,4.27.36,8.8-1.29,12.77,1.7.57.43,2.02.42,2.6,0,1.71-1.27,3.42-1.82,5.59-1.78,7.78.14,15.6-.41,23.32.26,3.6.31,7.14,2.13,10.94,1.56,3.64-.54,7.72,1.7,10.9-1.7,1.34,2.22,3.54,1.72,5.57,1.72,8.08.01,16.16.06,24.24-.03,1.95-.02,3.75-.21,5.81-1.13,2.97-1.33,6.96-1.66,10.07.37,2.05,1.34,4.35,1.23,5.9.6,2.21-.9,3.48-2.51,5.92.03,1.72,1.8,2.98-1.84,5.4-1.79,13.76.32,27.53.34,41.28-.07,1.82-.05,2.61,3.51,5.15.76,1.14-1.23,4.49-.46,6.83-.53,2.09-.06,4.21-.19,6.28.02,4.85.51,10.02-1.57,14.52,1.76,3.88-2.37,9.11-1.16,12.56-4.26,3.2-2.88,6.76-5.58,8.36-9.94,1.42-3.89,5.9-6.56,4.58-11.54,2.33-1.11,4.13-2.22,3.73-5.54-.34-2.83,3.04-5.08,3.17-7.47.18-3.19,2.86-4.53,3.41-6.72,1.53-6.08,5.08-11.09,7.42-16.68.98-2.33,4.39-3.71,3.6-5.48-1.49-3.35,1.5-4.9,1.64-6.86.25-3.5,3.33-4.92,3.83-7.47,1.73-8.99,9.41-15.12,11.09-24.15.47-2.54,4.04-4.56,4.37-7.05.67-5.06,3.5-8.74,5.83-12.89,2.31-4.12,4.97-8.29,6.67-12.45,1.92-4.7,5.31-8.45,6.91-13.28,1.54-4.67,3.42-9.31,6.1-13.61,2.62-4.2,3.11-9.42,5.78-13.73.65-1.05-.19-2.83,1.28-3.95,3.41-2.6,3.44-6.92,5.55-10.86.45-4.33.45-8.21,0-12.09Z"/>
    <path class="cls-1" d="M250.18,439.95c-3.6-1.82-14.58-4.16-17.29-3.58-11.68,2.47-19.45,2.39-30.84.07-2.3-.47-4.8.13-7.16-.13-1.93-.22-3.6,2.81-5.59.33-1.71,2.2-3.1,1.7-5.05-.03-1.78-1.58-3.27,2.35-4.41,1.44-4.23-3.42-7.96,1.11-12.11.29-4.03-.79-8.35-.26-12.53-.14-2.18.07-4.12-.11-5.42-2.11-1.16-1.78-1.92-.47-3.23-.01-2.65.91-4.79-1.39-6.63-2.84-3.26-2.58-5.76-6.12-9.05-8.65-2.34-1.8-1.11-4.26-2.31-6.31-3.35-5.71-6.56-11.54-9.06-17.72-1.87-4.61-3.81-9.21-6.37-13.47-.73-1.21-2.14-1.86-.29-3.28.41-.31.29-2.21.11-2.25-4.56-1.22-2.79-6.27-5.18-8.48-2.63-2.44-4.45-5.57-5.82-8.42-1.82-3.78-4.2-7.19-5.99-10.94-.66-1.39,1.85-3.31-.85-4.46-2.48-1.06-.71-4.14-2.02-5.33-1.64-1.49-2.05-3.62-2.77-5.21-.9-1.99-2.98-3.13-3.32-4.85-.64-3.25-3.69-5.67-3.92-8.15-.4-4.4-3.96-5.63-5.59-8.57.44-.52.98-1.17,1.52-1.81-4.38-1.86-2.48-7.63-6.28-10.02-1.18-.74,1.72-2.98-.83-4.47-1.54-.9-3.3-2.21-3.67-4.68-.27-1.8-1.5-3.69-2.81-5.04-4.05-4.19-4.53-10.15-7.62-14.84-.82-1.25-1.53-2.89-2.42-4.33-2.17-3.54-4.15-7.21-6.06-10.89-1.81-3.47-3.41-6.92-4.94-10.53-2.24-5.26-.22-10.5-1.47-16.47-.55-1.39,5.87,1.6,2.6-2.38-.84-1.02.61-1.26.98-1.87,4.7-7.87,7.04-16.92,12.76-24.34,1.73-2.24,3.81-5.09,3.65-8.25-.18-3.56,5.36-4.35,3.68-8.37,5.29-4.12,3.92-11.47,8.27-16.37,3.99-4.49,4.65-11.23,8.92-16,1.68-1.87,1.85-5.15,2.51-7.84.27-1.11-.08-2.32,1.65-2.52,2.83-.33,2.5-1.89,1.09-3.5-.71-.81-.87-1.53.13-1.78,1.1-.27,2-.06,2.65-1.56,1.53-3.55,4.7-6.8,5.03-10.37.55-5.9,6.07-9.68,5.66-15.66,3-.75,4.14-3.5,5.29-5.73,5.34-10.3,10.78-20.57,14.51-31.61.35-1.02,1.26-1.98,2.15-2.67,3.57-2.75,4.15-7.33,6.7-10.71.58-.78.17-2.28.29-3.45.02-.23.42-.63.6-.61,3.9.54,2.45-4.31,4.98-4.95,2.1-.53,3.17-3.38,3.72-3.44,3.17-.33,5.6-2.76,8.94-2.55,4.77.3,9.59-.22,14.35.16,4.27.35,8.89-1.82,12.8,1.52,2.26-3.2,4.29-.46,6.55.05,1.53.35,3.84,1.07,5.01-.58,2.55-3.6,6.16-2.85,9.63-2.86,8.98-.03,17.95-.01,26.93-.01,1.5,0,3.11-.37,4.46.08,2.88.95,5.62,2.31,8.41,3.51,2.6-2.85,6.35-2.44,9.06-1.56,4.14,1.35,7.41,1.34,10.57-1.64,5.06,1.24,10.45-2.27,15.11.3,2.74,1.51,5.19,1.12,7.63.97,2.59-.17,4.02,1.96,6.44,2.08,2.11.1,2.76-1.95,4.65-2.02,1.36-.05,1.65,2.88,3.38.99,1.26-1.38,2.5-1.2,3.7.12.93,1.02,1.94,1.11,3.07.3,3.1-2.24,6.42-3.72,10.38-3.1,3.39.53,7.09-1.23,10.22,1.33,2.46-1.8,5.3-1.32,8.04-1.32,20.05-.02,40.1-.06,60.14.05,2.5.01,5.29-1.11,7.53,1.4.56.62,2.54.75,3.34.26,5.81-3.61,12.14-1.43,18.16-1.54,5.8-.11,11.66-1.14,17.56.7,2.12.66,5.11-.95,7.88-.93,16.16.12,32.31.06,48.47.06,2.69,0,5.54-.55,8.03.16,2.26.65,3.32-2.68,6.05-.75,1.82,1.29,5.14.7,7.77.52,2.81-.19,5.93,1.28,8.41-1.41.35-.38,1.58-.1,2.36.07,7.19,1.64,7.15,1.3,15.13.48,2.75-.28,5.8.96,8.83.96,29.62-.06,59.24-.06,88.87,0,3.07,0,6.42-1.04,9.07,1.6,2.41-2.69,5.13-2.08,7.93-.75.41.2,1.18.57,1.22.5,2.13-3.28,4.6-3.63,7.88-1.45,2.62,1.75,5.56-3.09,8.35.05,1.84-2.16,4.95.52,6.76-1.76,2.54,3.17,6.06,1.65,9.12,1.64,2.79,0,5.98,1.51,8.42-1.22,8.85,2.8,17.94.65,26.9,1.34,1.44,4.19,6.41,3.36,8.97,6.37,2.07,2.44,3.33,5.33,5.41,7.75,1.37,1.6,4.13,3.8,1.63,6.73,2.66,1.57,3.68,4.54,4.94,6.93,6.31,11.99,12.24,24.18,18.11,36.39,2.28,4.75,5.34,9.08,7.24,14.02,1.09,2.84,4.01,4.38,4.74,7.78.61,2.84,1.8,5.84,3.08,8.53,2.73,5.76,6.43,11.07,9.25,16.79.84,1.7,4.06,3.65.93,6.28-.41.34-.01,1.54.64,2.34,5.01,6.1,6.61,14.09,11.36,20.4,1.94,2.58,3.68,5.94,3.86,9.03.2,3.6,5.29,4.43,3.83,8.35,5.22,9.47,8.85,19.79,15.71,28.63.45,3.88.45,7.76,0,12.09-2.11,3.95-2.14,8.26-5.55,10.86-1.47,1.12-.63,2.89-1.28,3.95-2.67,4.31-3.16,9.54-5.78,13.73-2.68,4.3-4.55,8.94-6.1,13.61-1.6,4.84-4.99,8.58-6.91,13.28-1.7,4.16-4.36,8.33-6.67,12.45-2.33,4.15-5.17,7.83-5.83,12.89-.33,2.5-3.9,4.52-4.37,7.05-1.68,9.03-9.36,15.16-11.09,24.15-.49,2.55-3.58,3.98-3.83,7.47-.14,1.95-3.13,3.51-1.64,6.86.79,1.77-2.62,3.15-3.6,5.48-2.33,5.59-5.89,10.59-7.42,16.68-.55,2.19-3.23,3.53-3.41,6.72-.14,2.39-3.51,4.64-3.17,7.47.4,3.32-1.4,4.43-3.73,5.54,1.33,4.98-3.16,7.66-4.58,11.54-1.59,4.36-5.16,7.05-8.36,9.94-3.45,3.11-8.67,1.9-12.56,4.26-4.5-3.33-9.67-1.25-14.52-1.76-2.07-.22-4.19-.08-6.28-.02-2.35.06-5.69-.7-6.83.53-2.55,2.75-3.33-.81-5.15-.76-13.75.4-27.53.39-41.28.07-2.42-.06-3.68,3.58-5.4,1.79-2.44-2.55-3.71-.93-5.92-.03-1.55.63-3.84.74-5.9-.6-3.11-2.03-7.1-1.7-10.07-.37-2.06.92-3.86,1.11-5.81,1.13-8.08.09-16.16.05-24.24.03-2.02,0-4.22.5-5.57-1.72-3.18,3.4-7.27,1.16-10.9,1.7-3.8.57-7.34-1.25-10.94-1.56-7.72-.67-15.54-.12-23.32-.26-2.18-.04-3.88.51-5.59,1.78-.58.43-2.02.44-2.6,0-3.97-2.99-8.5-1.33-12.77-1.7-2.38-.2-4.8-.2-7.17,0-2.51.21-5.43-1.18-7.41,1.58-1.83-1.56-3.91-2.64-6.1-1.01-2.61,1.96-4.36-2.36-6.9-.68-.62.41-2.02-.31-2.61.12-3.98,2.9-8.49,1.59-12.77,1.68-8.37.18-16.76.03-25.13.08-1.3,0-3.19-.71-3.22,1.76-12.27,0-24.54,0-37.26-.45-1.8-1.44-2.73-4.01-4.63-3.02-3.29,1.71-6.21-.41-9.28-.09-1.41.15-2.74-.07-4.25.47-5.52,1.96-25.46,1.92-31.06.01-2.07-.71-4.11-.71-6.01-.41-3.68.58-7.24,3.66-10.94.08-4.52,3.32-9.67,1.13-14.51,1.52-5.02.4-10.11.23-15.16.03-2.27-.09-4.71.98-6.83-.7l-16.3,1.66v.89h-37.26ZM118.64,102.2c-2.06,5.43-3.82,11.1-7.29,15.76-3.06,4.11-4.88,8.78-7.47,13.04-2.64,4.35-5.1,8.67-6.11,13.61-.8,3.9-1.88,8.27-4.49,10.54-3.84,3.34-1.99,8.36-5.07,11.52-.31.31.11,1.24-.14,1.71-.93,1.78-3.06,2.49-3.7,4.76-.5,1.79-2.69,3.08-3.32,4.87-.55,1.56-.41,3.17-1.62,4.77-1.05,1.39.31,4.32-2.08,5.31-2.87,1.19.01,3.04-.79,4.51-5.21,9.5-9.47,19.53-15.9,28.36-2.97,4.07-3.35,9.46-6.69,13.36.39,6.24-1.49,12.82,3.35,18.38.74.85,1.91,2.68,1.86,3.57-.32,6.08,5.9,9.74,5.56,15.69,3.83,4.21,6.09,9.43,8.81,14.3,1.03,1.84,4.17.35,3.88,3.65-.44,4.9,3.6,7.56,6.54,10.69.34.36.36,1.03.58,1.71-.5.81-1.06,1.7-1.27,2.04,1.09,1.26,2.87,2.39,2.86,3.49-.04,2.91.65,5.23,3.06,6.85,1.83,1.23,2.17,3.28,3.19,4.96,1.46,2.41,3.92,4.52,4.47,7.07.61,2.82,3.19,3.84,4.22,6.36.86,2.11-1.56,5.26,2.19,6.76,1.47.59,1.69,3.92,2.83,5.79,1.23,2.01,3.29,4.23,2.64,6.26-1.02,3.2,3.24,3.25,2.6,5.26-1.44,4.51,2.16,7.29,3.96,10,2.68,4.01,5.06,8,6.97,12.41,1.7,3.91,5.07,7.16,4.36,11.94,3.92,3.52,5.54,8.55,7.36,13.08,1.84,4.58,4.02,8.47,7.05,12.38,3.83,4.95,7.96,7.4,14.19,6.91,4.46-.35,8.99-.33,13.45.02,3.36.26,7.08-1.6,10.13,1.6.75.79,2.11-.16,3.01-1.1,1.45-1.53,3.95.34,5.57-1.85,1.45-1.97,3.39,1.48,4.11.84,1.86-1.66,4.69-2.2,5.39-.84,1.59,3.06,3.17-2.15,4.87.61,1.18,1.91,4.46.22,6.75.68,3.08.63,6.32-1.17,9.46,1.15.96.71,3.45-2.49,5.56.34,1.3,1.75,3.77-3.17,5.51.29,3.15-3.57,7.29-1.57,10.93-1.65,3.64-.08,7.71-1.57,10.92,1.65,12.74-.56,25.58,1.33,38.21-1.06,1.99-.38,2.1,1.13,3.39,1.15,1.93.04,2.71-2.82,4.62-1.83,5.55,2.85,10.93-.89,16.51-.21,5.89.73,11.97-.17,17.92.29,3.45.27,6.8-2.54,10.19-.13,2.62-2.75,6.01-1.65,9.13-1.77,2.99-.12,5.98-.02,8.98-.02,1.63,4.51,5.3-1.37,7.88,1.59,1.12,1.29,4.94-.36,7.01,1.76,2.34-4.27,5.26,2,7.31-.29,1.66-1.86,3.43.8,5.46-1.01,1.5-1.34,5.22.13,7.83-.34,6.27-1.13,11.96,2.29,18.12,1.9,13.2-.84,26.5,1.45,39.69-1.66,4.25-1,8.94-.28,13.43-.12,4.2.15,8.56-1,12.54,1.31,4.04-2.97,8.62-.69,12.91-1.29,1.07-.15,2.31-.49,3.39.46.44.39.63,1.84,1.9.64,3.59-3.39,7.44-2.05,11.03-.08,1.14.63,1.33-.23,1.96-.33,6.85-.98,13.84-2.72,19.51,3.02,4.11-2.78,8.06-2.84,12.02-.49,1.11-1.11,2.17-2.17,3.24-3.23,1.17,1.55,2.75,1.81,4.61,1.78,7.18-.09,14.37.13,21.54-.1,4.4-.14,8.79.14,12.65,2,2.58,1.25,4.09.78,6.74.15,7.15-1.7,14.6-4.08,22.03-.91.65.28.76.67,1.32.03,4.98-5.6,9.69-3.45,14.31.57,2,.58,2.45-2.15,4.65-1.88,10.89,1.29,21.53-3.05,32.46-1.68,3.08.38,5.99.14,9.27,1.41,5.48,2.12,12.12-1.4,17.94,1.88.28.16,1.29-1.44,1.97-1.45,8.08-.11,16.16-.07,24.24-.07,3.52,4.13,6.38.29,8.71-1.29,3.53-2.39,5.74-6.4,6.88-10.46.64-2.28,2.2-3.32,3.39-4.89-2.74-2.04.56-3.62.49-5.53-.06-1.81,4.13-2.27,2.65-4.4-1.73-2.48,2.43-3.15.89-5.22-.47-.63.01-2.15.85-2.19,6.33-.3-1.83-3.42.68-4.27,2.59-2.93,5.72-5.17,7.06-8.88,1.32-3.64,3-7.63,5.33-10.2,3.17-3.48,1.01-7.4,2.77-10.59,2.06-.11,3.71-.51,2.78-3.05-.31-.84-2.08-1.03-.69-2.58,3.22-3.57,5.27-7.8,7.26-12.2,1.21-2.67,3.07-5.25,4.53-7.98,1.44-2.71,2.6-5.76,5.28-7.68-1.62-3.48,2.92-4.78,2.75-7.98-.16-2.98,2.92-4.83,3.91-7.49,5.6-15.07,16.82-27.52,20.33-43.55,3.72-2.26,2.34-6.4,3.54-9.59.19-.52.28-1.5.49-1.52,3.19-.32,3.49-2.38,3.1-4.9-.2-1.27.47-2.09,1.17-3.12,3.57-5.23,3.14-10.3-.22-15.81-4.04-6.64-8.65-12.99-11.49-20.32-1.51-3.89-5-7.54-5.27-11.14-.75-9.75-8.59-16.34-9.96-25.56-3.86-1.36-2.22-5.65-4.36-8.09-2.48-2.83-1.82-3.19-2.94-6.74-.85-2.7-2.93-4.99-4.32-7.54-1.64-3-1.01-7.43-2.82-9.46-4.07-4.59-5.13-10.63-9.13-15.21-6.07-6.96-8.7-16.09-13.15-24.11-2.59-4.66-4.37-10.14-6.85-15.02-1.65-3.24-3.85-5.97-4.46-9.86-.55-3.51-5.22-5.41-5.14-9.44.06-3.08-4.33-3.41-3.65-6.57.48-2.24-1.08-3.5-2.48-4.3-2.86-1.64-6-2.81-8.92-4.14-1.45,1.36-2.71,2.53-3.96,3.69-.92-.85-1.56-1.74-2.99-1.76-4.89-.06-9.67.06-14.6-1.49-4.08-1.28-9.11-1.12-13.33-.06-6.28,1.58-12.13,2.67-18.35-.11-2.82-1.26-6.64-.03-8.71,1.07-2.69,1.43-4.96,2.59-8.02,2.46-3.58-.16-7.18-.04-10.77-.04s-7.51.9-10.68-.24c-3.48-1.26-6.23.58-9.38.44-11.65-.5-23.33-.16-35-.24-1.96-.01-3.86-.38-5.85-.92-4.28-1.15-8.69-3.03-13.5-.91-8.37,3.71-16.95,2.45-25.13-.61-2.04-.76-4.28-1.68-5.75-.96-6.83,3.34-13.99.64-20.85,1.75-2.4.39-3.41-3.52-5.39-1.62-1.84,1.77-4.01.82-5.65,1.63-4.45,2.19-9.07,1.61-13.68,1.67-3.89.05-7.78,0-11.67,0h-11.67c-3.89,0-7.79.18-11.67-.05-3.75-.22-7.51-.13-11.3-.6-3.22-.4-7,.61-10.56.65-2.09.02-4.26.36-6.27-.06-10.06-2.06-10.04-2.11-20.08.03-1.14.24-2.4.14-3.58.01-2.52-.26-4.74-3.11-7.28-1.66-2.76,1.57-5.05-.09-7.55-.1-7.78-.02-15.57-.22-23.34.05-7.55.27-15.02-.03-22.68,1.28-6.82,1.17-14.62,2.43-21.59-1.27-2.38,3.06-5.31-2.19-7.31.29-2.14,2.65-3.89-2.08-5.7.14-2.12,2.61-5.03,1.13-7.54,1.22-6.57.23-13.22-.45-19.73.22-6.88.71-13.13-2.18-19.92-2.07-22.44.35-44.88.02-67.32.21-5.75.05-11.71-1.49-17.25,1.64-.91.51-2.69.55-3.49,0-4.32-2.99-9.12-1.59-13.68-1.62-7.59-.05-13.53,3.24-16.59,10.43-1.19,2.8-2.37,5.82-3.9,8.2-5.13,8.02-10.65,15.72-12.58,25.32-.2.97-1.61,1.71-3.35,3.45Z"/>
    <g>
      <path class="cls-2" d="M301.08,235.55c-3.55-5.77-1.42-12-1.59-17.96-.38-13.02-.08-26.06-.13-39.09-.03-5.91-.7-6.56-6.44-6.63-5.62-.07-11.28.35-16.85-.16-3.15-.29-5.43,2.77-8.1,1.78-2.76-1.02-4.93-.69-7.68.84v12.92c0,4.15.25,8.31-.07,12.43-.33,4.21,1.68,8.79-1.71,12.59,2.53,3.71-1.33,7.13.32,10.96h-53.63c0-5.51-.21-11.06.06-16.58.28-5.69-.43-11.29,1.39-17.14,1.59-5.13.33-11.15.33-16.87-2.06-1.59-4.6-1.04-6.72-.68-5.93,1-11.2-2.84-17.04-1.9-2.57-2.84-5.96-1.69-9.03-1.73-7.22-.11-9.78,2.3-9.83,9.56-.12,15.4-.26,30.8.08,46.19.13,5.97-2,12.26,1.6,17.95-4.35,3.45.26,7.98-1.42,12.1-.97,2.37-1.61,6.24,1.1,9.13.76.81.84,3.06.29,4.18-3.01,6.12-1.35,12.57-1.62,18.86-.28,6.5.05,13.03-.1,19.54-.1,4.15.31,7.99,4.04,11.41,12,.44,23.55.44,35.1.44,2.63-1.95,5.24-3.91,7.27-6.65-1.47-3.11-3.1-5.96-1.04-9.6.9-1.6-1.15-3.7-1.03-5.99.37-6.79.24-13.62.08-20.42-.07-2.77.59-5.46-1.51-8.3-1.76-2.39.85-5.57,4.13-5.94,2.49-.29,5.34.96,7.24-1.76,1.88,2.85,4.78,1.65,7.26,1.7,5.31.12,11.16,1.36,15.78-.44,5.09-1.98,9.75.03,15.13-1.99,0,3.46.33,6.09-.06,8.62-1.18,7.63,2.13,14.83,1.89,22.37-.23,7.39-.05,14.8-.05,22.18,1.48,1.49,2.95,2.95,4.43,4.43h33.71c2.55-3.33,2.83-7.16,2.79-11.24-.15-14.21-.18-28.43.01-42.64.06-4.51-1.41-9.32,1.71-13.48-3.28-2.1,1.78-5.39-1.24-7.84-2.44-1.97,2.26-3.39,1.18-5.16Z"/>
      <path class="cls-2" d="M435.5,172.2c-1.87-.99-4-.59-5.98-.41-13.58,1.19-26.93-1.9-40.46-1.99-7.74-.05-15.13,2.25-22.85,2-8.05-.26-16.12-.04-24.18-.07-3.17-.01-5.59,2.7-9.14,1.93-2.69-.59-5.49-.22-8.31,1.42-1.88,1.09-5.02.72-7.09-1.93-2.01-2.58-4.56-1.91-7.12.82-.45,9.04-.45,17.64,0,26.24,2.26,1.33,3.11,3.92,6.15,3.59,11.21-1.23,22.15,2.84,33.39,1.81,1.63-.15,3.58-.82,4.81.73,1.56,2.37-1.82,2.71-1.65,4.69.49,5.46-1.31,10.83-1.5,16.13-.65,18.32-.18,36.68-.32,55.02-.02,2.96,3.17,5.09,1.83,8.12-.99,2.25-1.28,4.38.05,6.52,1.18,1.91-3.53,3.75-.03,5.64-3.91,2.18.7,5.02-.19,6.38-2.52,3.87.82,5.9,2.57,6.34,4.46,1.12,8.93,4.46,13.9,1.46,3.02-1.82,7.18-1.76,9.36-.53,4.12,2.32,8.05,1.18,12.01,1.39,4.27.22,5.72-1.26,5.47-5.73-.29-5.09,1.56-10.41-1.61-15.31-.68-1.05-.73-3.44.01-4.28,2.75-3.12,1.6-6.68,1.63-10.01.13-18.34.06-36.69.06-55.03,0-2.07.8-4.63-.15-6.12-3.14-4.99-.84-10.09-1.93-15.75,13.26,1.27,25.55-.82,37.93-1.38,2.27-.1,3.6-1.59,5.54-2.36v-26.24c-2.44.2-1.35-2.07-2.22-3.09Z"/>
      <path class="cls-2" d="M565.06,171.2c-18.47,1.93-36.72-2.32-55.33-1.35-20.88,1.08-41.75,5.47-62.8,1.64-1.47-.27-3.24,1.09-4.88,2.52,0,9.17,0,17.51.55,26.26,3.28,3.31,6.81,3.1,10.39,3.19,10.51.28,20.83,2.55,31.06,1.84,1.98,8.6-.99,15.74-1.05,23.01-.21,25.76.05,51.53-.07,77.3-.04,7.84,4.11,12.23,11.19,11.3,8.91-1.17,17.55.29,26.3.44,4.95.09,7.03-1.75,6.84-6.74-.23-5.87-1.48-11.95-.99-17.53,2.03-22.78.41-45.54.78-68.29.1-6.29-3.42-12.54-.07-19.65,11.26,1.23,22.51-1.69,33.96-1.67,3.61,0,6.94-.48,6.87-4.85-.16-8.97,1.91-18.22-2.75-27.42Z"/>
      <path class="cls-2" d="M696.93,206.11c-3-13.72-11.68-22.54-23.25-29.23-6.38-3.69-13.26-6.19-20.26-8.33-4.3-1.31-8.92-1.2-13.09-.04-3.23.9-6.33,1.37-9.54,1.16-16.25-1.03-32.3,2.84-48.56,1.93-4.8-.27-5.93,1.24-6.04,6.59-.18,8.89.08,17.79-.13,26.67-.17,7.67.69,15.34-.78,23.02-.57,3.01.76,6.33.8,9.51.17,13.84-1.57,27.55-3.26,41.25-.29,2.34,1.52,3.75,1.49,5.85-.08,5.62-.05,11.23-.34,16.85-.25,5.06-.7,10.53,4.43,15.17,12.12.58,23.46.58,34.79.58,2.24-2.77,3.64-5.7,3.35-9.51-.74-9.68,2.99-19.03,1.71-28.59,5.89-3.63,11.75-3.67,17.53-2.62,21.3,3.85,41.6-4.76,54.06-22.59,4.27-6.11,7.23-12.61,9.84-20.71.51-7.09.51-13.12.51-19.14-3.11-1.72-2.71-5.32-3.26-7.84Z"/>
    </g>
    <g>
      <path class="cls-1" d="M203.41,317.7c-11.55,0-23.1,0-35.1-.44-3.73-3.42-4.14-7.26-4.04-11.41.15-6.51-.18-13.04.1-19.54.27-6.29-1.39-12.74,1.62-18.86.55-1.12.47-3.37-.29-4.18-2.71-2.89-2.07-6.76-1.1-9.13,1.68-4.11-2.93-8.64,1.42-12.1-3.59-5.69-1.46-11.98-1.6-17.95-.34-15.39-.2-30.8-.08-46.19.06-7.26,2.61-9.67,9.83-9.56,3.07.05,6.46-1.11,9.03,1.73,5.83-.95,11.11,2.9,17.04,1.9,2.11-.36,4.65-.91,6.72.68,0,5.72,1.26,11.73-.33,16.87-1.81,5.85-1.1,11.44-1.39,17.14-.27,5.53-.06,11.08-.06,16.58h53.63c-1.65-3.83,2.22-7.25-.32-10.96,3.39-3.8,1.37-8.38,1.71-12.59.32-4.12.07-8.29.07-12.43v-12.92c2.75-1.53,4.92-1.87,7.68-.84,2.67.99,4.95-2.07,8.1-1.78,5.57.51,11.23.09,16.85.16,5.74.07,6.42.72,6.44,6.63.06,13.03-.24,26.07.13,39.09.17,5.97-1.96,12.19,1.59,17.96,1.09,1.77-3.62,3.19-1.18,5.16,3.03,2.45-2.03,5.74,1.24,7.84-3.12,4.16-1.65,8.97-1.71,13.48-.19,14.21-.16,28.43-.01,42.64.04,4.08-.24,7.91-2.79,11.24h-33.71c-1.48-1.48-2.94-2.95-4.43-4.43,0-7.38-.18-14.79.05-22.18.24-7.55-3.07-14.74-1.89-22.37.39-2.52.06-5.16.06-8.62-5.38,2.03-10.04,0-15.13,1.99-4.62,1.8-10.48.56-15.78.44-2.49-.06-5.39,1.14-7.26-1.7-1.9,2.72-4.75,1.48-7.24,1.76-3.27.37-5.89,3.56-4.13,5.94,2.1,2.85,1.45,5.54,1.51,8.3.17,6.81.29,13.63-.08,20.42-.12,2.29,1.93,4.39,1.03,5.99-2.06,3.64-.43,6.49,1.04,9.6-2.03,2.74-4.64,4.7-7.27,6.65ZM267.38,188.75c0,8.6.25,17.2-.14,25.78-.14,3.06,3.1,6.19,1.58,7.91-2.82,3.19.09,7.02-2.44,10.11-22.59-1.39-45.49,1.98-68.19-2.46.32-8.33-2.08-16.14-2.19-24.31-.11-8.36,3.74-16.41,1.67-24.76-8.18-1.32-15.83-4.84-25.13-3.44,3.07,4.14,2.46,8.45,2.42,12.65-.07,6.05,2.96,11.78,1.83,17.94-.03.18.31.47.52.66,1.87,1.71-.74,3.98,1.02,6.19,1.15,1.46.4,4.59.17,6.94-.25,2.49,1.18,5.31-1.38,7.46-.38.32-.35,1.82.05,2.29,2.65,3.12,1.43,6.81,1.22,10.11-.23,3.63,2.4,6.3,2.14,9.96-.17,2.45-3.27,4.9-1.78,6.15,3.37,2.83-.43,4.63-.12,6.73,1.13,7.54-2.33,14.89-.29,22.6,1.16,4.38.21,9.31.21,13.49,3.91,3.27,8.02,2.61,11.99,2.71,1.74.04,3.56-.11,5.18.39,1.42.43,1.9,2.62,4.38,2.91-1.9-9.03-4.51-17.62-5.34-26.38-.92-9.69-.21-19.54-.21-29.44,1.44-1.38,2.93-2.81,4.09-3.91,14.32-2.38,28.13,1.72,42.14,1.33,8.58-.24,17.17-.04,25.76-.04,1.52,1.03,2.18,3.48,2.22,4.31.29,5.13,1.59,10.43-.68,15.47-.64,1.42,1.64,3.14-.59,4.6-.54.36-.08,2.25-.08,3.43s-.42,2.59.07,3.52c2.71,5.21,1.64,10.78,1.64,16.19,0,4.24,1.01,7.85,4.58,11.19,5.95-1.38,11.96,3.92,18.72,1.01-3.6-4.04-3.24-4.1-3.75-7.68-.98-6.78,2.12-13.03,1.94-19.73-.32-12.14-.22-24.31-.02-36.46.07-4.52-1.22-9.2,1.58-13.57.81-1.26.76-3.83.01-5.19-2.89-5.26-1.36-10.82-1.57-16.22-.12-2.99-1.56-6.13-.94-8.69,1.62-6.69.4-13.16.72-19.78-3.65,0-7.48-1.19-9.39.23-5.35,3.94-8.84,0-13.58-2.01v9.79Z"/>
      <path class="cls-1" d="M437.72,201.53c-1.93.77-3.26,2.25-5.54,2.36-12.38.56-24.68,2.65-37.93,1.38,1.08,5.65-1.22,10.76,1.93,15.75.94,1.49.15,4.05.15,6.12,0,18.34.07,36.69-.06,55.03-.02,3.34,1.12,6.89-1.63,10.01-.74.84-.69,3.23-.01,4.28,3.17,4.9,1.32,10.21,1.61,15.31.25,4.47-1.2,5.95-5.47,5.73-3.96-.21-7.89.94-12.01-1.39-2.18-1.23-6.34-1.29-9.36.53-4.97,2.99-9.44-.34-13.9-1.46-1.75-.44-5.09-2.47-2.57-6.34.89-1.36-3.72-4.2.19-6.38-3.51-1.89,1.2-3.73.03-5.64-1.32-2.14-1.04-4.27-.05-6.52,1.34-3.03-1.86-5.16-1.83-8.12.14-18.34-.33-36.7.32-55.02.19-5.3,1.98-10.67,1.5-16.13-.18-1.98,3.21-2.31,1.65-4.69-1.22-1.56-3.18-.88-4.81-.73-11.23,1.03-22.17-3.04-33.39-1.81-3.03.33-3.89-2.26-6.15-3.59-.45-8.6-.45-17.19,0-26.24,2.56-2.73,5.11-3.4,7.12-.82,2.07,2.65,5.2,3.02,7.09,1.93,2.83-1.63,5.63-2,8.31-1.42,3.55.77,5.97-1.94,9.14-1.93,8.06.03,16.13-.19,24.18.07,7.71.25,15.1-2.05,22.85-2,13.53.1,26.88,3.18,40.46,1.99,1.98-.17,4.11-.58,5.98.41.87,1.02-.22,3.28,2.22,3.09v26.24ZM367.52,258v11.56c0,3.85-.26,7.73.08,11.55.3,3.39-3.23,6.73-.08,10.09-3.62,2.77.23,5.53.03,8.31-.15,2.06,1.74,3.79,3.03,3.69,6.18-.47,10.31,4.32,15.74,5.63,1.52-1.93,1.45-3.61.1-5.56-1-1.44-2.48-4.23-1.99-4.71,2.34-2.33.33-3.45-.63-5.18-.93-1.68,3.15-3.71-.08-5.59.66-4.51-1.51-9.31,1.56-13.6.74-1.04.2-2.18-.82-3.02-1.41-1.15-1.17-3.49-.62-4.02,2.93-2.77,1.53-6.11,1.62-9.16.2-6.51.36-13.06-.1-19.54-.17-2.4,3.67-3.56,1.73-5.32-2.49-2.26.1-4.15-.31-5.62-2.89-10.13-.26-20.29-1.46-30.86h9.43c8.99,0,17.99-.13,26.98.08,2.53.06,5.13-1.54,4.94-2.7-.85-5.2,3.43-9.84,1.64-15.04-1.75-.02-3.13-.44-4.57.31-4.37,2.25-8.94,3.5-13.98,3.16-11.73-.77-23.51,1-35.28-1.59-5.8-1.27-12.04.36-18.13,1.26-7.92,1.17-16.15.29-24.24.27-1.17,0-2.71.3-3.44-.29-3.22-2.62-6.45-1.28-11.06-1.03,4.14,5.73-1.66,10.35-.05,15.84,15.31-3.67,30.45-1.32,45.39-2.17,2.24,3.29,3.34,6.77,2.74,10.57-.52,3.32,1.63,7.09-1.68,10-.3.27-.31,1.27-.05,1.69,2.48,3.99.51,7.87.09,11.9-.99,9.51,1.77,18.8,3.47,29.11Z"/>
      <path class="cls-1" d="M442.05,174.01c1.63-1.43,3.4-2.78,4.88-2.52,21.05,3.83,41.92-.56,62.8-1.64,18.61-.96,36.87,3.28,55.33,1.35,4.67,9.2,2.6,18.45,2.75,27.42.08,4.36-3.26,4.85-6.87,4.85-11.45-.02-22.7,2.9-33.96,1.67-3.35,7.12.17,13.37.07,19.65-.37,22.75,1.25,45.51-.78,68.29-.5,5.58.76,11.65.99,17.53.19,4.99-1.88,6.83-6.84,6.74-8.75-.15-17.39-1.61-26.3-.44-7.09.93-11.23-3.46-11.19-11.3.12-25.77-.13-51.53.07-77.3.06-7.27,3.03-14.41,1.05-23.01-10.22.71-20.55-1.55-31.06-1.84-3.57-.1-7.1.11-10.39-3.19-.55-8.75-.55-17.09-.55-26.26ZM514.99,181.74c-21.15-4.03-42.34,4.36-63.46-1.93-.69,6.31-1.19,10.83-1.78,16.22,13.1-2.22,25.69-1.02,38.22-1.6,6.47-.3,9.35,1.99,9.01,8.46-.4,7.82-1.09,15.66-.97,23.47.37,23.81,4.31,47.48,2.81,71.37-.12,1.96.63,3.59,2.68,3.98,5.35,1.03,9.79,5.27,14.65,4.99-3.23-37.06,3.04-73.48,0-110.53h45c-7.36-5.96-.9-11.25-2.73-18.16-13.88,2.33-27.84,6.11-43.45,3.72Z"/>
      <path class="cls-1" d="M613.21,317.12c-11.34,0-22.67,0-34.79-.58-5.14-4.64-4.69-10.11-4.43-15.17.28-5.63.26-11.23.34-16.85.03-2.1-1.78-3.51-1.49-5.85,1.69-13.7,3.43-27.41,3.26-41.25-.04-3.18-1.37-6.5-.8-9.51,1.46-7.68.6-15.36.78-23.02.2-8.89-.05-17.79.13-26.67.11-5.35,1.24-6.86,6.04-6.59,16.26.91,32.31-2.97,48.56-1.93,3.21.2,6.31-.27,9.54-1.16,4.17-1.16,8.78-1.28,13.09.04,7,2.14,13.88,4.64,20.26,8.33,11.57,6.68,20.26,15.51,23.25,29.23.55,2.53.15,6.12,3.26,7.84,0,6.02,0,12.04-.51,19.14-2.6,8.1-5.56,14.6-9.84,20.71-12.46,17.82-32.76,26.43-54.06,22.59-5.78-1.04-11.64-1-17.53,2.62,1.29,9.56-2.45,18.91-1.71,28.59.29,3.81-1.11,6.74-3.35,9.51ZM598.12,179.94c-4.07.18-8.15.37-12.94.58,1.61,4.67,1.09,8.76,1.1,12.82.03,20.72-.01,41.44.04,62.16.03,12.67-.32,25.34,1.69,37.95,1.1,6.89,2.91,9.06,9.99,9.66,1.37.12,2.8,1.04,4.64-.28-.28-9.98,1.84-19.97,3.75-29.99.92-4.81,2.79-6.67,7.47-6.99,2.06-.14,4.13-.03,6.2-.03,5.91,0,11.82.03,17.73,0,6.05-.04,12,.98,18.16.27,5.56-.63,10.33-2.33,14.54-5.59,7.81-6.06,13.38-13.96,17.48-22.91,1.36-2.96,1.71-6.09,1.98-9.37.5-6.03-.74-11.88-2.31-17.37-2.59-9.04-6.29-18.05-14.81-23.37-9.04-5.65-18.98-8.78-29.76-9.39-14.47-.82-28.77,1.58-44.94,1.86Z"/>
      <path class="cls-1" d="M617.57,252.96h-12.25c0-4.08,0-8.17.42-13.7,2.34-4.32,1.78-7.59,1.81-10.75.07-7.26.13-14.52.01-21.77-.06-3.82,1.02-6.83,5.32-8.94,8.6,0,17.92-.26,27.22.07,12.09.43,22.75,8.95,24.07,20.73,1.86,16.67-4.13,26.51-17.84,30.41-6.3,1.79-12.64,1.54-19.02,1.72-3.34.1-7.11-1.15-9.73,2.24ZM617.28,213.28c3.33,7.66-.12,16.07,2.7,24.66,8.52,2.25,17.32,2.76,26.06.2,7.44-2.17,9.94-8.44,10.44-15.36.47-6.53-3.35-11.18-9.04-13.48-9.43-3.81-19.57-2.2-28.72-3.61-1.79,2.55-1.54,4.32-1.44,7.59Z"/>
    </g>
  </g>
</svg>