<?xml version="1.0" encoding="utf-8"?>
<!-- Generator: Adobe Illustrator 16.0.4, SVG Export Plug-In . SVG Version: 6.00 Build 0)  -->
<!DOCTYPE svg PUBLIC "-//W3C//DTD SVG 1.1//EN" "http://www.w3.org/Graphics/SVG/1.1/DTD/svg11.dtd">
<svg version="1.1" id="icicle" xmlns="http://www.w3.org/2000/svg" xmlns:xlink="http://www.w3.org/1999/xlink" x="0px"
	 y="0px" width="283.464px" height="78.858px" viewBox="0 0 283.464 78.858" enable-background="new 0 0 283.464 78.858"
	 xml:space="preserve">
<path fill="#FFFFFF" d="M0,0v0.771c7.04,0,6.92,8.218,8.145,13.016c0.622,2.438,2.091,3.379,3.402,3.307
	c5.492-0.306,1.227-11.82,8.841-10.414c6.744,1.244,9.2,23.613,18.469,23.89s7.221-11.57,15.789-10.661
	c5.378,0.57,7.453,8.353,7.712,14.422c0.171,4.006,0.979,7.016,3.806,6.874c3.08-0.153,4.339-3.242,3.769-7.341
	c-0.612-4.393,1.752-8.812,7.125-8.006c9.684,1.452,7.263,30.573,16.601,32.787c5.03,1.191,6.901-4.412,8.854-2.836
	c3.217,2.594-0.426,23.016,5.326,23.051c2.836,0.018,4.5-3.713,4.22-9.286c-0.332-6.618-0.745-15.644-0.732-23.519
	c0.015-9.639,1.952-18.1,9.655-17.223c11.552,1.313,6.795,14.525,8.301,23.76c0.773,4.743,3.205,7.888,5.811,7.781
	c2.332-0.094,5.15-2.646,5.499-7.262c0.799-10.581-4.254-29.986,6.717-30.311c5.401-0.16,2.984,5.927,4.402,10.374
	c0.816,2.558,2.477,4.163,4.963,3.957c2.421-0.2,4.088-2.526,4.254-5.188c0.304-4.885-1.685-12.065,3.077-13.147
	c5.379-1.223,2.832,6.924,8.906,6.818c5.967-0.104,3.672-12.614,12.561-11.992c3.87,0.271,6.042,12.322,6.583,25.377
	c0.702,16.93-1.515,35.566,4.266,35.566c10.237,0-6.955-65.965,10.088-65.172c8.557,0.397,5.041,12.255,5.568,18.711
	c0.205,2.52,2.132,3.996,3.977,3.977c2.139-0.021,3.949-1.857,4.064-4.548c0.156-3.651-1.841-8.879-1.35-13.28
	c0.537-4.81,3.395-8.537,8.63-8.457c8.526,0.131,7.049,10.754,8.075,17.432c0.497,3.229,2.958,5.201,4.79,5.257
	c4.549,0.139,2.666-4.818,7.923-5.061c2.2-0.102,3.546,2.661,3.837,6.185c0.404,4.896,0.119,11.46,5.134,11.218
	c2.092-0.101,4.152-1.413,4.879-5.926c1.878-11.671-3.466-32.9,6.45-32.978c4.427-0.035,4.386,4.388,4.115,8.127
	c-0.207,2.871,1.1,4.479,3.354,4.462c1.687-0.013,3.232-1.975,3.024-4.603c-0.321-4.07,0.564-9.139,4.585-9.139V0H0z"/>
</svg>
