<?xml version="1.0" encoding="UTF-8"?>
<svg id="_レイヤー_1" data-name="レイヤー 1" xmlns="http://www.w3.org/2000/svg" xmlns:xlink="http://www.w3.org/1999/xlink" viewBox="0 0 660 660">
  <defs>
    <style>
      .cls-1 {
        fill: none;
      }

      .cls-2 {
        fill: #4742c2;
      }

      .cls-3 {
        fill: #fff;
      }

      .cls-4 {
        fill: #f0f0f7;
      }

      .cls-5 {
        fill: #ebebf7;
      }

      .cls-6 {
        clip-path: url(#clippath);
      }
    </style>
    <clipPath id="clippath">
      <rect class="cls-1" x="454.86" y="272.75" width="157.79" height="175.47" transform="translate(1.02 -1.51) rotate(.16)"/>
    </clipPath>
  </defs>
  <polygon class="cls-3" points="637.15 524.5 626.56 532.46 33.69 530.78 23.14 523.12 14.76 511.36 15.79 145.58 24.84 132.46 36.6 126.38 625.59 128.05 636.84 134.77 645.27 146.3 644.23 512.55 637.15 524.5"/>
  <rect class="cls-5" x="28.84" y="287.99" width="357.95" height="40.11" transform="translate(.87 -.59) rotate(.16)"/>
  <rect class="cls-4" x="450.25" y="265.8" width="164.59" height="183.02" transform="translate(1.01 -1.5) rotate(.16)"/>
  <g>
    <rect class="cls-4" x="412.05" y="304.6" width="23.38" height="22.37" transform="translate(.9 -1.2) rotate(.16)"/>
    <rect class="cls-4" x="411.96" y="334.98" width="23.38" height="22.37" transform="translate(.98 -1.2) rotate(.16)"/>
    <rect class="cls-4" x="411.88" y="365.37" width="23.38" height="22.37" transform="translate(1.07 -1.2) rotate(.16)"/>
    <rect class="cls-4" x="411.79" y="395.76" width="23.38" height="22.37" transform="translate(1.15 -1.2) rotate(.16)"/>
    <rect class="cls-4" x="411.71" y="426.14" width="23.38" height="22.37" transform="translate(1.24 -1.2) rotate(.16)"/>
  </g>
  <g>
    <g>
      <rect class="cls-2" x="50.73" y="333.94" width="10.23" height="10.59" transform="translate(.96 -.16) rotate(.16)"/>
      <rect class="cls-2" x="65.06" y="333.98" width="10.23" height="10.59" transform="translate(.96 -.2) rotate(.16)"/>
    </g>
    <rect class="cls-2" x="78.93" y="334.02" width="10.23" height="10.59" transform="translate(.96 -.24) rotate(.16)"/>
  </g>
  <g>
    <g>
      <rect class="cls-2" x="50.69" y="348.88" width="10.23" height="10.59" transform="translate(1 -.16) rotate(.16)"/>
      <rect class="cls-2" x="65.02" y="348.92" width="10.23" height="10.59" transform="translate(1 -.2) rotate(.16)"/>
    </g>
    <rect class="cls-2" x="78.88" y="348.96" width="10.23" height="10.59" transform="translate(1 -.24) rotate(.16)"/>
  </g>
  <g>
    <g>
      <rect class="cls-2" x="145.74" y="418.6" width="16.74" height="23.09" transform="translate(1.22 -.43) rotate(.16)"/>
      <rect class="cls-2" x="169.19" y="418.66" width="16.74" height="23.09" transform="translate(1.22 -.5) rotate(.16)"/>
    </g>
    <g>
      <rect class="cls-2" x="192.41" y="418.73" width="16.74" height="23.09" transform="translate(1.22 -.57) rotate(.16)"/>
      <rect class="cls-2" x="215.85" y="418.8" width="16.74" height="23.09" transform="translate(1.22 -.63) rotate(.16)"/>
    </g>
    <g>
      <rect class="cls-2" x="239.07" y="418.86" width="16.74" height="23.09" transform="translate(1.22 -.7) rotate(.16)"/>
      <rect class="cls-2" x="262.51" y="418.93" width="16.74" height="23.09" transform="translate(1.22 -.76) rotate(.16)"/>
    </g>
    <g>
      <rect class="cls-2" x="285.73" y="418.99" width="16.74" height="23.09" transform="translate(1.22 -.83) rotate(.16)"/>
      <rect class="cls-2" x="309.18" y="419.06" width="16.74" height="23.09" transform="translate(1.22 -.89) rotate(.16)"/>
    </g>
  </g>
  <g>
    <g>
      <rect class="cls-2" x="123.05" y="338.57" width="15.53" height="16.82" transform="translate(.98 -.37) rotate(.16)"/>
      <rect class="cls-2" x="144.8" y="338.64" width="15.53" height="16.82" transform="translate(.98 -.43) rotate(.16)"/>
    </g>
    <rect class="cls-2" x="166.34" y="338.7" width="15.53" height="16.82" transform="translate(.98 -.49) rotate(.16)"/>
  </g>
  <g>
    <g>
      <g>
        <rect class="cls-2" x="60.9" y="297.55" width="14.42" height="19.51" transform="translate(.87 -.19) rotate(.16)"/>
        <rect class="cls-2" x="81.09" y="297.61" width="14.42" height="19.51" transform="translate(.87 -.25) rotate(.16)"/>
      </g>
      <rect class="cls-2" x="101.09" y="297.66" width="14.42" height="19.51" transform="translate(.87 -.31) rotate(.16)"/>
    </g>
    <g>
      <g>
        <rect class="cls-2" x="121.98" y="297.72" width="14.42" height="19.51" transform="translate(.87 -.36) rotate(.16)"/>
        <rect class="cls-2" x="142.17" y="297.78" width="14.42" height="19.51" transform="translate(.87 -.42) rotate(.16)"/>
      </g>
      <rect class="cls-2" x="162.17" y="297.83" width="14.42" height="19.51" transform="translate(.87 -.48) rotate(.16)"/>
    </g>
    <g>
      <g>
        <rect class="cls-2" x="183.06" y="297.89" width="14.42" height="19.51" transform="translate(.87 -.54) rotate(.16)"/>
        <rect class="cls-2" x="203.25" y="297.95" width="14.42" height="19.51" transform="translate(.87 -.59) rotate(.16)"/>
      </g>
      <rect class="cls-2" x="223.25" y="298.01" width="14.42" height="19.51" transform="translate(.87 -.65) rotate(.16)"/>
    </g>
    <g>
      <g>
        <rect class="cls-2" x="244.14" y="298.07" width="14.42" height="19.51" transform="translate(.87 -.71) rotate(.16)"/>
        <rect class="cls-2" x="264.34" y="298.12" width="14.42" height="19.51" transform="translate(.87 -.77) rotate(.16)"/>
      </g>
      <rect class="cls-2" x="284.34" y="298.18" width="14.42" height="19.51" transform="translate(.87 -.82) rotate(.16)"/>
    </g>
    <rect class="cls-2" x="305.23" y="298.24" width="14.42" height="19.51" transform="translate(.87 -.88) rotate(.16)"/>
    <rect class="cls-2" x="325.58" y="298.3" width="14.42" height="19.51" transform="translate(.87 -.94) rotate(.16)"/>
    <rect class="cls-2" x="345.42" y="298.35" width="14.42" height="19.51" transform="translate(.87 -1) rotate(.16)"/>
  </g>
  <g>
    <g>
      <rect class="cls-2" x="104.79" y="452.79" width="8.82" height="10.94" transform="translate(1.29 -.31) rotate(.16)"/>
      <rect class="cls-2" x="119.86" y="452.84" width="8.82" height="10.94" transform="translate(1.29 -.35) rotate(.16)"/>
      <rect class="cls-2" x="134.92" y="452.88" width="8.82" height="10.94" transform="translate(1.29 -.39) rotate(.16)"/>
      <rect class="cls-2" x="149.98" y="452.92" width="8.82" height="10.94" transform="translate(1.29 -.43) rotate(.16)"/>
      <rect class="cls-2" x="165.04" y="452.96" width="8.82" height="10.94" transform="translate(1.3 -.48) rotate(.16)"/>
      <rect class="cls-2" x="180.1" y="453.01" width="8.82" height="10.94" transform="translate(1.3 -.52) rotate(.16)"/>
      <rect class="cls-2" x="195.16" y="453.05" width="8.82" height="10.94" transform="translate(1.3 -.56) rotate(.16)"/>
      <rect class="cls-2" x="210.22" y="453.09" width="8.82" height="10.94" transform="translate(1.3 -.61) rotate(.16)"/>
      <rect class="cls-2" x="225.28" y="453.13" width="8.82" height="10.94" transform="translate(1.3 -.65) rotate(.16)"/>
    </g>
    <g>
      <rect class="cls-2" x="104.75" y="470.17" width="8.82" height="10.94" transform="translate(1.35 -.31) rotate(.16)"/>
      <rect class="cls-2" x="119.81" y="470.21" width="8.82" height="10.94" transform="translate(1.35 -.35) rotate(.16)"/>
      <rect class="cls-2" x="134.87" y="470.26" width="8.82" height="10.94" transform="translate(1.35 -.39) rotate(.16)"/>
      <rect class="cls-2" x="149.93" y="470.3" width="8.82" height="10.94" transform="translate(1.35 -.44) rotate(.16)"/>
      <rect class="cls-2" x="164.99" y="470.34" width="8.82" height="10.94" transform="translate(1.35 -.48) rotate(.16)"/>
      <rect class="cls-2" x="180.05" y="470.38" width="8.82" height="10.94" transform="translate(1.34 -.52) rotate(.16)"/>
      <rect class="cls-2" x="195.11" y="470.43" width="8.82" height="10.94" transform="translate(1.34 -.56) rotate(.16)"/>
      <rect class="cls-2" x="210.17" y="470.47" width="8.82" height="10.94" transform="translate(1.34 -.6) rotate(.16)"/>
      <rect class="cls-2" x="225.23" y="470.51" width="8.82" height="10.94" transform="translate(1.34 -.65) rotate(.16)"/>
    </g>
    <g>
      <rect class="cls-2" x="104.7" y="487.55" width="8.82" height="10.94" transform="translate(1.4 -.31) rotate(.16)"/>
      <rect class="cls-2" x="119.76" y="487.59" width="8.82" height="10.94" transform="translate(1.4 -.35) rotate(.16)"/>
      <rect class="cls-2" x="134.82" y="487.64" width="8.82" height="10.94" transform="translate(1.4 -.39) rotate(.16)"/>
      <rect class="cls-2" x="149.88" y="487.68" width="8.82" height="10.94" transform="translate(1.4 -.44) rotate(.16)"/>
      <rect class="cls-2" x="164.94" y="487.72" width="8.82" height="10.94" transform="translate(1.4 -.48) rotate(.16)"/>
      <rect class="cls-2" x="180" y="487.76" width="8.82" height="10.94" transform="translate(1.4 -.52) rotate(.16)"/>
      <rect class="cls-2" x="195.06" y="487.81" width="8.82" height="10.94" transform="translate(1.4 -.56) rotate(.16)"/>
      <rect class="cls-2" x="210.12" y="487.85" width="8.82" height="10.94" transform="translate(1.4 -.61) rotate(.16)"/>
      <rect class="cls-2" x="225.18" y="487.89" width="8.82" height="10.94" transform="translate(1.4 -.65) rotate(.16)"/>
    </g>
  </g>
  <g>
    <g>
      <rect class="cls-4" x="492.83" y="168.21" width="11.07" height="19.94" transform="translate(.5 -1.4) rotate(.16)"/>
      <rect class="cls-4" x="539.17" y="168.34" width="11.07" height="19.94" transform="translate(.5 -1.53) rotate(.16)"/>
      <rect class="cls-4" x="585.36" y="168.47" width="11.07" height="19.94" transform="translate(.51 -1.66) rotate(.16)"/>
    </g>
    <g>
      <rect class="cls-4" x="471.53" y="168.15" width="11.07" height="19.94" transform="translate(.51 -1.35) rotate(.16)"/>
      <rect class="cls-4" x="517.87" y="168.28" width="11.07" height="19.94" transform="translate(.5 -1.47) rotate(.16)"/>
      <rect class="cls-4" x="564.06" y="168.41" width="11.07" height="19.94" transform="translate(.51 -1.61) rotate(.16)"/>
    </g>
    <rect class="cls-4" x="415.8" y="167.99" width="11.07" height="19.94" transform="translate(.5 -1.19) rotate(.16)"/>
    <rect class="cls-4" x="434.59" y="168.05" width="11.07" height="19.94" transform="translate(.51 -1.24) rotate(.16)"/>
  </g>
  <rect class="cls-2" x="53.38" y="240.14" width="10.23" height="11.05" transform="translate(.69 -.16) rotate(.16)"/>
  <rect class="cls-2" x="68.86" y="240.19" width="10.23" height="11.05" transform="translate(.69 -.21) rotate(.16)"/>
  <g>
    <rect class="cls-2" x="52.96" y="168.4" width="10.23" height="15.97" transform="translate(.5 -.16) rotate(.16)"/>
    <rect class="cls-2" x="68.44" y="168.45" width="10.23" height="15.97" transform="translate(.5 -.21) rotate(.16)"/>
  </g>
  <rect class="cls-2" x="53.3" y="266.71" width="10.23" height="11.05" transform="translate(.77 -.16) rotate(.16)"/>
  <rect class="cls-2" x="68.79" y="266.75" width="10.23" height="11.05" transform="translate(.77 -.21) rotate(.16)"/>
  <rect class="cls-2" x="562.14" y="462.77" width="28.24" height="26.04" rx="5" ry="5" transform="translate(1.35 -1.63) rotate(.16)"/>
  <g>
    <g>
      <rect class="cls-2" x="489.08" y="462.61" width="8.51" height="11.14" transform="translate(985.33 937.76) rotate(-179.84)"/>
      <rect class="cls-2" x="465.35" y="462.55" width="8.74" height="11.14" transform="translate(938.12 937.56) rotate(-179.84)"/>
      <rect class="cls-2" x="512.74" y="462.68" width="8.74" height="11.14" transform="translate(1032.88 937.96) rotate(-179.84)"/>
    </g>
    <g>
      <rect class="cls-2" x="489.03" y="477.44" width="8.51" height="11.14" transform="translate(985.22 967.4) rotate(-179.84)"/>
      <g>
        <rect class="cls-2" x="477.23" y="477.4" width="8.51" height="11.14" transform="translate(961.61 967.3) rotate(-179.84)"/>
        <rect class="cls-2" x="465.31" y="477.37" width="8.74" height="11.14" transform="translate(938 967.2) rotate(-179.84)"/>
      </g>
    </g>
    <g>
      <rect class="cls-2" x="524.61" y="477.54" width="8.51" height="11.14" transform="translate(1056.37 967.7) rotate(-179.84)"/>
      <g>
        <rect class="cls-2" x="512.81" y="477.5" width="8.51" height="11.14" transform="translate(1032.75 967.61) rotate(-179.84)"/>
        <rect class="cls-2" x="499.69" y="478.67" width="11.14" height="8.74" transform="translate(20.79 986.93) rotate(-89.84)"/>
      </g>
    </g>
  </g>
  <g>
    <rect class="cls-2" x="129.53" y="166.82" width="23.5" height="18.76" transform="translate(-35.32 316.98) rotate(-89.84)"/>
    <rect class="cls-2" x="201.38" y="164.65" width="18.76" height="23.5" transform="translate(.5 -.59) rotate(.16)"/>
    <rect class="cls-2" x="270.86" y="164.84" width="18.76" height="23.5" transform="translate(.5 -.79) rotate(.16)"/>
    <rect class="cls-2" x="340.34" y="165.04" width="18.76" height="23.5" transform="translate(.5 -.99) rotate(.16)"/>
  </g>
  <path class="cls-2" d="M462.07,245.31l-349.15-.99c-1.17,0-2.12-.7-2.12-1.57,0-.86.95-1.56,2.13-1.55l349.15.99c1.17,0,2.12.7,2.12,1.57,0,.86-.95,1.56-2.13,1.55Z"/>
  <path class="cls-2" d="M284.81,274.68l-171.97-.49c-1.17,0-2.12-.7-2.12-1.57,0-.86.95-1.56,2.13-1.55l171.97.49c1.17,0,2.12.7,2.12,1.57,0,.86-.95,1.56-2.13,1.55Z"/>
  <path class="cls-2" d="M378.03,274.95l-71.8-.2c-1.17,0-2.12-.7-2.12-1.57,0-.86.95-1.56,2.13-1.55l71.8.2c1.17,0,2.12.7,2.12,1.57,0,.86-.95,1.56-2.13,1.55Z"/>
  <path class="cls-2" d="M78.97,434.53l-22.54-.06c-1.17,0-2.12-.96-2.12-2.13,0-1.17.96-2.12,2.13-2.12l22.54.06c1.17,0,2.12.96,2.12,2.13,0,1.17-.96,2.12-2.13,2.12Z"/>
  <path class="cls-2" d="M78.67,457.52l-22.54-.06c-1.17,0-2.12-.96-2.12-2.13,0-1.17.96-2.12,2.13-2.12l22.54.06c1.17,0,2.12.96,2.12,2.13s-.96,2.12-2.13,2.12Z"/>
  <path class="cls-2" d="M78.85,474.9l-22.54-.06c-1.17,0-2.12-.96-2.12-2.13,0-1.17.96-2.12,2.13-2.12l22.54.06c1.17,0,2.12.96,2.12,2.13,0,1.17-.96,2.12-2.13,2.12Z"/>
  <path class="cls-2" d="M78.8,493.46l-22.54-.06c-1.17,0-2.12-.96-2.12-2.13,0-1.17.96-2.12,2.13-2.12l22.54.06c1.17,0,2.12.96,2.12,2.13,0,1.17-.96,2.12-2.13,2.12Z"/>
  <rect class="cls-5" x="72.07" y="376.89" width="35.77" height="18.38" rx="2" ry="2" transform="translate(1.09 -.25) rotate(.16)"/>
  <path class="cls-2" d="M626.05,127.89c-2.56-.74-5.27-1.13-8.07-1.14l-574.81-1.62c-7.89-.02-15.33,3.04-20.94,8.62-5.61,5.58-8.72,13-8.74,20.9l-.98,348.08c-.02,7.89,3.04,15.33,8.62,20.95,5.58,5.61,13,8.72,20.9,8.74l574.81,1.63v.83s0-.83,0-.83c16.32.05,29.64-13.2,29.68-29.52l.98-348.08c.04-13.53-9.05-24.99-21.45-28.54ZM34.63,528.79c-4.37-1.25-8.38-3.61-11.68-6.93-5.1-5.12-7.89-11.91-7.87-19.12l.98-348.08c.02-7.21,2.85-13.98,7.98-19.08,5.12-5.09,11.91-7.89,19.12-7.87v.83s0-.83,0-.83l574.81,1.62c7.21.02,13.98,2.85,19.08,7.98,5.09,5.12,7.89,11.92,7.87,19.12l-.98,348.08c-.02,7.21-2.85,13.98-7.98,19.08-5.12,5.09-11.92,7.89-19.12,7.87l-574.81-1.62c-2.54,0-5.02-.36-7.39-1.04Z"/>
  <path class="cls-2" d="M593.31,200.77l-536.13-1.52c-16.39-.05-29.7-10.42-29.66-23.13.04-12.71,13.4-23.01,29.79-22.97l536.13,1.52c16.39.05,29.7,10.42,29.66,23.13-.04,12.71-13.4,23.01-29.79,22.97ZM57.31,155.98c-14.83-.04-26.92,8.99-26.95,20.14-.03,11.15,12.01,20.25,26.84,20.3l536.13,1.52c14.83.04,26.92-8.99,26.95-20.14.03-11.15-12.01-20.25-26.84-20.3l-536.13-1.52Z"/>
  <path class="cls-2" d="M603.77,507.37l-558.78-1.58c-10.15-.03-18.38-8.31-18.35-18.45l.69-244.47c.03-10.15,8.31-18.38,18.45-18.35l558.78,1.58c10.15.03,18.38,8.31,18.35,18.45l-.69,244.47c-.03,10.15-8.31,18.38-18.45,18.35ZM45.78,227.34c-8.59-.02-15.59,6.94-15.62,15.53l-.69,244.47c-.02,8.59,6.94,15.59,15.53,15.62l558.78,1.58c8.59.02,15.59-6.94,15.62-15.53l.69-244.47c.02-8.59-6.94-15.59-15.53-15.62l-558.78-1.58Z"/>
  <rect class="cls-2" x="69.8" y="174.56" width="43.68" height="2.83" transform="translate(-84.59 267.12) rotate(-89.84)"/>
  <rect class="cls-2" x="61.42" y="254.7" width="60" height="2.83" transform="translate(-164.95 346.81) rotate(-89.84)"/>
  <rect class="cls-2" x="323.98" y="-37.55" width="2.83" height="594.32" transform="translate(64.87 584.27) rotate(-89.84)"/>
  <rect class="cls-2" x="232" y="81.33" width="2.83" height="410.51" transform="translate(-53.84 519.19) rotate(-89.84)"/>
  <rect class="cls-2" x="49.03" y="460.95" width="83.61" height="2.83" transform="translate(-371.79 551.9) rotate(-89.84)"/>
  <rect class="cls-2" x="60.46" y="417.31" width="2.83" height="58.01" transform="translate(-384.62 506.93) rotate(-89.84)"/>
  <rect class="cls-2" x="60.41" y="435.16" width="2.83" height="58.01" transform="translate(-402.51 524.68) rotate(-89.84)"/>
  <rect class="cls-2" x="60.36" y="452.78" width="2.83" height="58.01" transform="translate(-420.18 542.19) rotate(-89.84)"/>
  <rect class="cls-2" x="371.66" y="175.41" width="43.68" height="2.83" transform="translate(215.57 569.83) rotate(-89.84)"/>
  <path class="cls-2" d="M108.12,402.62l-36.41-.1c-4.68-.01-8.48-3.83-8.47-8.52l.05-16c.01-4.68,3.83-8.48,8.52-8.47l36.41.1c4.68.01,8.48,3.83,8.47,8.52l-.05,16c-.01,4.68-3.83,8.48-8.52,8.47ZM71.79,372.36c-3.12,0-5.67,2.52-5.68,5.65l-.05,16c0,3.12,2.52,5.67,5.65,5.68l36.41.1c3.12,0,5.67-2.52,5.68-5.65l.05-16c0-3.12-2.52-5.67-5.65-5.68l-36.41-.1Z"/>
  <g>
    <rect class="cls-5" x="299.54" y="421.64" width="42.38" height="111.12" transform="translate(-157.37 796.58) rotate(-89.84)"/>
    <g>
      <rect class="cls-2" x="336.6" y="475.37" width="43.21" height="2.83" transform="translate(-119.59 833.65) rotate(-89.84)"/>
      <rect class="cls-2" x="318.77" y="421.78" width="2.83" height="109.79" transform="translate(-157.4 795.51) rotate(-89.84)"/>
      <rect class="cls-2" x="317.81" y="475.32" width="43.21" height="2.83" transform="translate(-138.26 814.81) rotate(-89.84)"/>
      <rect class="cls-2" x="299.03" y="475.26" width="43.21" height="2.83" transform="translate(-156.96 795.95) rotate(-89.84)"/>
      <rect class="cls-2" x="244.86" y="475.11" width="43.21" height="2.83" transform="translate(-210.81 741.65) rotate(-89.84)"/>
      <rect class="cls-2" x="280.24" y="475.21" width="43.21" height="2.83" transform="translate(-175.63 777.13) rotate(-89.84)"/>
      <rect class="cls-2" x="262.39" y="475.16" width="43.21" height="2.83" transform="translate(-193.39 759.21) rotate(-89.84)"/>
    </g>
    <path class="cls-2" d="M377.65,499.97l-132.79-.38.13-46.62,132.79.38-.13,46.62ZM247.7,496.77l127.12.36.12-40.95-127.12-.36-.12,40.95Z"/>
  </g>
  <g class="cls-6">
    <path class="cls-3" d="M575.88,334.15c-.11-.74-.2-1.5-.28-2.24l.02.12-.54-1.95v-.06s-.34-1.98-.34-1.98c.11.41-.6-2.1-.52-1.8-.34-.96-1.07-2.83-1.46-3.77l-.55-1.92.04.1-.87-1.8-.03-.07-.62-1.91.06.12-1.03-1.72c-.91-2.28-2.8-5.04-3.82-6.91l-1.36-1.48-.03-.04c-1.87-2.72-4.37-5.23-6.67-7.23l-1.63-1.16.03.02-1.73-1.04-1.66-1.15.08.05-1.84-.81-.04-.02-1.76-.99c-.72-.1-2.8-.93-3.69-1.19l-3.9-.91h.08s-2-.13-2-.13c-2.38-.53-5.78-.29-7.88-.44l-1.97.45h-.06s-2,.2-2,.2h.04s-1.98.36-1.98.36c.32-.09-2.24.69-1.8.54-.83.4-1.88,1.02-2.73,1.33l-2.78,1.19c-1.12.87-3.66,2.28-4.89,3.23l-1.52,1.32.05-.05-1.33,1.51-.02.02-1.44,1.41.03-.04c-3.2,3.59-5.5,7.26-7.57,11.62l-1,1.76.02-.05-.84,1.82.04-.1-.53,1.95-.04.11-.87,1.82c.15-.42-.76,2.22-.61,1.74l-.4,1.98-.04.13-.77,1.86.04-.12c-.4,1.76-.89,4.17-1.4,5.88l.02-.07-.31,1.91c-.03.21-.15.38-.32.49-1.07.71-2.1,1.48-3.13,2.25l.06-.05-1.46,1.32.1-.11-1.2,1.57v.02s-.04.03-.04.03l-1.3,1.49.14-.2-2.52,5.35.06-.15-1.1,3.8.03-.1-.39,1.93.03-.16-.44,5.91v-.16s.06,1.98.06,1.98v-.18s.26,1.98.26,1.98v.04s0,.14,0,.14l.06,2-.06-.46c.31.98.83,2.97,1.03,3.97l-.04-.15.58,1.9-.06-.18c.52,1.24,1,2.49,1.46,3.76l-.12-.27c.85,1.58,2.04,3.76,2.76,5.38l-.16-.29c.73,1.09,1.49,2.17,2.24,3.24l-.23-.28c.64.68,1.55,1.54,2.11,2.27l1.96,2.32-.14-.15c.67.7,2.09,2.01,2.83,2.63l-.26-.19c.86.56,1.72,1.09,2.58,1.74.76.52,1.74,1.35,2.45,1.94l-.36-.24,1.77.94.13.08,1.69,1.07-.28-.15c1.87.85,3.74,1.6,5.64,2.38l1.77.93-.34-.14,1.9.61-.26-.07,1.96.37c.1.02.2.05.29.08.91.33,2.76.92,3.7,1.17l-.33-.07,1.98.26c.09.01.2.03.28.06l1.93.52-.25-.05,1.97.28c-.79-.06,4.99.34,4.82.33,1.66.11,3.26.3,4.9.33h-.28s2.01-.18,2.01-.18c.11-.01.23-.01.33,0l2,.15c-.89.01,1.81-.07,1.73-.07l1.95-.17-.17.02,2.05-.36c2.03-.16,3.68-.6,5.9-.99-1.23.41,1.62-.64,1.56-.63.09-.04.19-.07.28-.09l1.98-.43c-.66.2,1.87-.58,1.78-.55-.98.42,1.7-.81,1.59-.76l.19-.08,1.92-.65-.13.05,1.86-.79-.22.12,1.74-1.04.03-.02.13-.07,1.84-.86-.26.15c1.26-.85,2.54-1.8,3.88-2.58l1.36-.78-.17.11,1.63-1.21-.11.09,1.52-1.34-.13.13,1.37-1.49.19-.18,1.59-1.27-.26.27,3.8-4.73-.09.13,1.09-1.7.02-.03.05-.07,1.21-1.62-.14.23c.43-.93,1.43-2.73,1.92-3.62.39-.94,1.43-3.88,2.13-5.48l-.09.36.28-2.01v-.05s.04-.18.04-.18l.6-1.94-.05.37c.02-1.49.12-3.56.08-5.02-.02-1.48-.1-3.5-.27-4.95l.05.25-.61-1.95v-.04s-.03-.07-.03-.07l-.43-1.98.02.08-.57-1.95c.28.63-.83-1.84-.78-1.74l-.75-1.91.09.17-1.08-1.73-.02-.03-.04-.07-.88-1.84c.38.56-1.12-1.64-1.05-1.55l-1.18-1.64.08.09-1.41-1.47-.07-.08-1.2-1.63.09.09c-.55-.53-1.09-1.08-1.6-1.63Z"/>
    <g>
      <path class="cls-5" d="M497.8,323.12s35.47,13.2,75.6-.22c0,0-7.23-29.62-37.55-31.52-30.32-1.9-38.05,31.74-38.05,31.74Z"/>
      <path class="cls-3" d="M528.23,291.95s7.15-1.03,13.48,0l.68,76.89-13.42-.44-.73-76.45Z"/>
      <path class="cls-3" d="M497.8,323.12l-3.17,12.37s43.44,16.16,81.92-1.68l-3.15-10.91s-25.83,12.36-75.6.22Z"/>
      <path class="cls-3" d="M494.63,335.49s-19.19-7.18-19.4-26.35,15.52-24.67,15.52-24.67c0,0-14.58,23.82,8.35,35.16l-4.47,15.85Z"/>
      <path class="cls-3" d="M576.7,332.49s14.27-2.52,15.33-20.51c1-17-17-26-17-26,0,0,14,20-2.79,30.66l4.47,15.85Z"/>
      <path class="cls-4" d="M509.28,378.38s22.75,30.4,52.75,0c0,0-20.5-22.6-52.75,0Z"/>
      <path class="cls-3" d="M517.53,400.19s2.5,11.79,0,13.29-26.51,8.79-35.5,11.65c-9,2.85-25,7.85-24.5,31.35s-.95,74.12-.95,74.12c0,0,.76,40.82,1.6,55.1.85,14.28,5.91,60.64,5.91,60.64,0,0,8.07,3.36,16.51,0l.33,69s-1.14,57.26-.02,76.45c1.12,19.19,3.23,69.09,3.23,69.09,0,0-13.97,11.31-21.54,19.21-7.57,7.89-7.14,24.75-1.35,26.82,5.78,2.07,22.49,5.25,31.14-2.84,8.65-8.09,19.15-17.18,19.15-17.18v-27.9l8.97-94.15,1.53-33.86,11.19-67.77,3.81-18.23,18.46,139.12,9.58,72.88-1.37,25.37s15.5,17.98,22.42,21.31c6.91,3.33,29.19,5.19,30.05-1.24.86-6.43,3.26-15.06,1.06-18.24-2.2-3.19-22.2-22.05-22.2-22.05l-2.56-124.86,2.1-89.25,8.38.53s9.78-59.48,10.42-77.51c.64-18.03.15-34.62.15-34.62l.22-69.19s-1.24-25.42-7.48-35.82c-6.24-10.4-36.05-12.11-48.15-18.75,0,0-2.67-4.6-1.88-11.62,0,0-9.22,5.41-38.72-.81Z"/>
      <path class="cls-2" d="M575.88,334.15c-.11-.74-.2-1.5-.28-2.24l.02.12-.54-1.95v-.06s-.34-1.98-.34-1.98c.11.41-.6-2.1-.52-1.8-.34-.96-1.07-2.83-1.46-3.77l-.55-1.92.04.1-.87-1.8-.03-.07-.62-1.91.06.12-1.03-1.72c-.91-2.28-2.8-5.04-3.82-6.91l-1.36-1.48-.03-.04c-1.87-2.72-4.37-5.23-6.67-7.23l-1.63-1.16.03.02-1.73-1.04-1.66-1.15.08.05-1.84-.81-.04-.02-1.76-.99c-.72-.1-2.8-.93-3.69-1.19l-3.9-.91h.08s-2-.13-2-.13c-2.38-.53-5.78-.29-7.88-.44l-1.97.45h-.06s-2,.2-2,.2h.04s-1.98.36-1.98.36c.32-.09-2.24.69-1.8.54-.83.4-1.88,1.02-2.73,1.33l-2.78,1.19c-1.12.87-3.66,2.28-4.89,3.23l-1.52,1.32.05-.05-1.33,1.51-.02.02-1.44,1.41.03-.04c-3.2,3.59-5.5,7.26-7.57,11.62l-1,1.76.02-.05-.84,1.82.04-.1-.53,1.95-.04.11-.87,1.82c.15-.42-.76,2.22-.61,1.74l-.4,1.98-.04.13-.77,1.86.04-.12c-.4,1.76-.89,4.17-1.4,5.88l.02-.07-.31,1.91c-.03.21-.15.38-.32.49-1.07.71-2.1,1.48-3.13,2.25l.06-.05-1.46,1.32.1-.11-1.2,1.57v.02s-.04.03-.04.03l-1.3,1.49.14-.2-2.52,5.35.06-.15-1.1,3.8.03-.1-.39,1.93.03-.16-.44,5.91v-.16s.06,1.98.06,1.98v-.18s.26,1.98.26,1.98v.04s0,.14,0,.14l.06,2-.06-.46c.31.98.83,2.97,1.03,3.97l-.04-.15.58,1.9-.06-.18c.52,1.24,1,2.49,1.46,3.76l-.12-.27c.85,1.58,2.04,3.76,2.76,5.38l-.16-.29c.73,1.09,1.49,2.17,2.24,3.24l-.23-.28c.64.68,1.55,1.54,2.11,2.27l1.96,2.32-.14-.15c.67.7,2.09,2.01,2.83,2.63l-.26-.19c.86.56,1.72,1.09,2.58,1.74.76.52,1.74,1.35,2.45,1.94l-.36-.24,1.77.94.13.08,1.69,1.07-.28-.15c1.87.85,3.74,1.6,5.64,2.38l1.77.93-.34-.14,1.9.61-.26-.07,1.96.37c.1.02.2.05.29.08.91.33,2.76.92,3.7,1.17l-.33-.07,1.98.26c.09.01.2.03.28.06l1.93.52-.25-.05,1.97.28c-.79-.06,4.99.34,4.82.33,1.66.11,3.26.3,4.9.33h-.28s2.01-.18,2.01-.18c.11-.01.23-.01.33,0l2,.15c-.89.01,1.81-.07,1.73-.07l1.95-.17-.17.02,2.05-.36c2.03-.16,3.68-.6,5.9-.99-1.23.41,1.62-.64,1.56-.63.09-.04.19-.07.28-.09l1.98-.43c-.66.2,1.87-.58,1.78-.55-.98.42,1.7-.81,1.59-.76l.19-.08,1.92-.65-.13.05,1.86-.79-.22.12,1.74-1.04.03-.02.13-.07,1.84-.86-.26.15c1.26-.85,2.54-1.8,3.88-2.58l1.36-.78-.17.11,1.63-1.21-.11.09,1.52-1.34-.13.13,1.37-1.49.19-.18,1.59-1.27-.26.27,3.8-4.73-.09.13,1.09-1.7.02-.03.05-.07,1.21-1.62-.14.23c.43-.93,1.43-2.73,1.92-3.62.39-.94,1.43-3.88,2.13-5.48l-.09.36.28-2.01v-.05s.04-.18.04-.18l.6-1.94-.05.37c.02-1.49.12-3.56.08-5.02-.02-1.48-.1-3.5-.27-4.95l.05.25-.61-1.95v-.04s-.03-.07-.03-.07l-.43-1.98.02.08-.57-1.95c.28.63-.83-1.84-.78-1.74l-.75-1.91.09.17-1.08-1.73-.02-.03-.04-.07-.88-1.84c.38.56-1.12-1.64-1.05-1.55l-1.18-1.64.08.09-1.41-1.47-.07-.08-1.2-1.63.09.09c-.55-.53-1.09-1.08-1.6-1.63ZM577.22,333.48c.49.41.99.79,1.44,1.24l1.27,1.58-.07-.08,1.47,1.41.06.06.03.03,1.27,1.61,1.22,1.65.06.09.02.04.94,1.81-.06-.1,1.14,1.69.09.17.8,1.85.88,1.81.05.14.64,1.93v.04s.02.04.02.04l.49,1.97-.03-.11.68,1.92c.43,2.52.55,5.41.57,7.96l.03,2.53c0,.13-.02.25-.05.38l-.53,1.96.04-.22-.21,2.02c-.7,2.06-1.41,4.14-2.22,6.18l-.02.04-.93,1.76c-.07.19-.9,1.89-1,2.02l-1.18,1.64.06-.09-1.06,1.72-.09.13-3.7,4.8c-.08.1-.16.19-.26.27l-1.56,1.3.19-.18-1.34,1.52-.1.1-.03.02-1.49,1.37-.08.07-.03.02-1.6,1.24-.13.09-.04.02-1.26.76c-1.36.81-2.56,1.83-3.91,2.7l-1.82.89.16-.09-1.72,1.07-.22.12-1.85.83-.09.04h-.04s-1.9.7-1.9.7l.19-.08-1.82.9-.25.1-1.92.63-.11.03h-.04s-1.97.48-1.97.48c1.05-.37-1.7.7-1.61.68-2.05.5-4.29.96-6.4,1.19l-1.93.36-.17.02c-1.02.13-3.09.27-4.12.29h-.22s-2-.14-2-.14h.35s-1.99.21-1.99.21c-.09,0-.19.01-.28,0-2.92,0-7.03-.5-9.98-.57-.27-.03-2.1-.26-2.36-.32h-.03s-1.93-.51-1.93-.51l.28.06-1.98-.24c-.1-.01-.21-.03-.3-.06-1-.27-2.95-.87-3.92-1.23l.29.08-1.97-.37-.26-.07-1.9-.61c-.12-.04-.23-.08-.34-.14l-1.77-.93c-.71-.26-3.91-1.56-5.37-2.23-.1-.04-.2-.1-.28-.15l-1.69-1.06.14.08-1.76-.93c-1.87-1.42-2.85-2.3-5-3.6-1-.78-2.51-2.21-3.4-3.12-1.08-1.28-2.67-3.2-3.88-4.34-2.26-2.78-3.62-6-5.2-9.19-.5-1.33-.88-2.71-1.39-4.05l-.03-.11-.47-1.93-.03-.11c-.13-.98-.48-2.89-.71-3.85-.05-.14-.05-.31-.06-.46l.09-2v.17s-.09-1.99-.09-1.99v-.14s0-.04,0-.04l.11-1.97v-.13s.01-.03.01-.03l.93-5.84.02-.11v-.05s.56-1.9.56-1.9l.03-.1,1.4-3.68c1.01-1.84,1.98-3.72,3.04-5.54l1.37-1.43-.04.05,1.24-1.53.1-.11,1.5-1.28c1.07-.78,2.18-1.51,3.28-2.24l-.32.49.33-1.91.02-.07c.43-1.69,1.09-4.07,1.44-5.8l.04-.12.79-1.85-.04.13.42-1.97.02-.09.68-1.89h0s.03-.07.03-.07l.89-1.81-.04.11.55-1.94.04-.1.86-1.82.02-.04,1-1.72c1.47-3.04,3.23-5.97,5.23-8.68.62-.78,1.93-2.34,2.6-3.09l.03-.03,1.45-1.39-.03.03,1.34-1.5.05-.05c1.18-1.06,2.73-2.21,4.11-2.99.91-.51,1.74-1.12,2.61-1.66l2.77-1.16c.86-.34,1.94-.91,2.77-1.32l1.93-.57h.05s1.98-.38,1.98-.38h.04s2-.2,2-.2h-.06s1.97-.44,1.97-.44c2.62.03,5.7-.06,8.15.41l2,.13h.08s3.91.92,3.91.92c1.31.46,2.63.86,3.95,1.28l1.76.98-.04-.02,1.84.81.08.05,1.63,1.13,1.71,1.02.03.02,1.64,1.16c1.78,1.58,3.55,3.17,5.05,5.03.64.67,1.38,1.78,1.84,2.33l1.38,1.47c1.36,2.17,3.11,4.89,4.03,7.03l1.05,1.71.05.11.65,1.91-.03-.07.89,1.79.04.1.58,1.92-.02-.06.78,1.85.72,1.87v.03s.61,1.93.61,1.93l.02.06v.02s.37,1.97.37,1.97l-.02-.08.58,1.92c.1.62.14,1.23.2,1.86Z"/>
      <path class="cls-2" d="M542.37,340.45c1.12-.1,2.81-.17,3.96-.19h-.12c.7-.1,1.39-.24,2.09-.29h1.97s-.11.01-.11.01c1.8-.14,3.97-.49,5.76-.73l1.9-.35-.09.02c3.79-1.09,7.77-1.66,11.17-3.12l.05-.02.08-.02,1.91-.47c.56-.29,2.87-1.06,3.96-1.52l1.34-.56c.38-.16.82.02.98.4.15.35,0,.75-.31.94l-1.29.75c-.88.49-3.1,1.52-4.05,1.97l-.07.02-1.88.59c-1.41.8-4.47,1.73-6.55,2.18l-4.75,1.17h-.02s-.07.02-.07.02c-2.51.44-5.38.8-7.92.86h-.06s-.05,0-.05,0l-1.97-.12h.15c-.68.06-1.37.11-2.06.15h-.03s-1.95-.12-1.95-.12c-.84-.16-2.62.37-2.67-.86.02-.38.32-.69.69-.72Z"/>
      <path class="cls-2" d="M494.9,334.77c1.12.33,3.12,1,3.82,1.23l2.02.43.14.04,1.93.72c-.44-.14,2,.56,1.9.52-.53-.11,1.99.36,1.91.34l.14.04,1.96.62-.2-.05,2.04.26c.72.17,1.43.37,2.14.57l-.18-.03,2.06.24h.08s2.02.43,2.02.43c-.6-.07,2.42.25,1.83.2l2.06.05h.14c-.12,0,2.49.39,1.92.32l4.11.18h.07s2.06.34,2.06.34c.91.15.77,1.55-.17,1.49-2.11-.22-4.02,0-6.22-.03l-2.05-.22h.14s-2.06.05-2.06.05h-.07s-2.07-.19-2.07-.19l-.11-.02-2.02-.38h.1s-2.05-.19-2.05-.19c-.73-.15-1.44-.39-2.17-.58l.15.03c-.1-.02-2.21-.3-2.24-.34.1.03-2.44-.8-1.81-.62l-2.02-.4-.12-.03-1.95-.64-.05-.02h-.04s-1.9-.83-1.9-.83l.14.04-2-.54-.06-.02-.05-.02-3.79-1.61c-.85-.36-.38-1.69.52-1.41Z"/>
      <path class="cls-2" d="M542.86,327.48l1.95-.08h-.12c.98-.18,2.93-.45,3.92-.54.99-.1,2.97-.21,3.97-.21-.82.1,2.25-.4,1.66-.3,1.08-.3,2.79-.67,3.9-.84h.1s1.95-.18,1.95-.18c.49-.12,2.62-.54,3.63-.78-.14.04,4.16-.96,3.68-.84,1.86-.61,3.74-1,5.61-1.54.4-.11.82.14.92.54.09.35-.08.7-.38.86-.88.45-1.78.88-2.69,1.23-3.34,1.43-6.87,2.32-10.44,2.97l-2.09.17h.1s-1.89.27-1.89.27l-1.86.42h-.04c-.14.03-2.04.27-2.16.27-2.41-.1-5.28.01-7.68.21h-.08s-.04,0-.04,0l-1.95-.14c-.92-.07-.91-1.46.02-1.5Z"/>
      <path class="cls-2" d="M497.99,322.45c1.5.35,2.58.47,4.11.68l.07.02,1.95.63c.66.19,1.32.37,1.97.57l-.14-.04,2.07.35,2.04.5-.1-.02c2.57.43,5.85.94,8.02,1.26,3.34.24,6.99.62,10.31,1.05.91.12.82,1.52-.12,1.5-2.41-.05-5.33-.08-7.73-.24-3.43,0-7.42-.71-10.84-1.24-1.03-.27-3.01-.75-4.06-.94-1.23-.36-2.85-1.04-4.05-1.53l.17.05c-1.39-.26-2.75-.64-4.07-1.17-.84-.31-.48-1.62.41-1.44Z"/>
      <path class="cls-2" d="M529.07,292.35c-.36,5.87.34,11.88.13,17.77-.03,1.94.19,3.94.2,5.97-.08.98-.14,2.92-.11,3.9.43,3.4.05,8.05.45,11.79-.04,1.96.07,4.13-.13,6.1,0-.52.05,2.46.02,1.75l.3,1.98v.19s-.14,3.97-.14,3.97v-.17s.23,1.98.23,1.98l-.11,2.16v-.21s.26,1.98.26,1.98v.18s-.07,1.99-.07,1.99v-.14s.2,2,.2,2v.17l-.2,1.99v-.17c.12,1.37.24,2.73.27,4.11,0-.16-.19,2.68-.18,1.78l.31,1.98v.17s-.19,3.97-.19,3.97c-.04.95-1.51.94-1.5-.04l.06-3.99v.17s-.37-1.97-.37-1.97v-.17s.09-2.03.09-2.03v.12c-.06-.99-.25-2.94-.37-3.92v-.17s.16-1.99.16-1.99c.05.82-.24-1.88-.24-1.78v-.11s.03-2.01.03-2.01v.18s-.3-1.97-.3-1.97v-.21s.09-1.98.09-1.98v.18s-.24-1.97-.24-1.97v-.17s.12-3.96.12-3.96v.19s-.3-1.97-.3-1.97c-.02-.12-.05-2.06-.05-2.2l.12-1.99c.02-2.92-.16-6.52-.21-9.83.09-2.01.01-3.94-.17-5.94-.02-.99.05-3.03.14-4.02-.2-3.41.07-7.99-.03-11.76-.09-1.97-.13-3.99-.03-5.99.17-1.97.05-3.98.27-6,.04-.41.41-.71.82-.67.4.04.7.4.67.8Z"/>
      <path class="cls-2" d="M542.35,292.58l-.05,2.01v-.06c.07,1.02.13,3.02.12,4.04v-.14s.34,1.99.34,1.99c.09,1.38.15,2.76.17,4.14v.1s-.16,2.01-.16,2.01v-.14c.04,1,.2,2.97.32,3.96.02,3.38-.16,6.68.22,10.03v.15s-.09,1.97-.09,1.97l.04,1.97v-.09s.18,2.01.18,2.01v.14c0,1.01-.09,3.05-.16,4.06.12,1.18.23,4.21.27,5.94l-.02,2.04v.09s-.19,2.01-.19,2.01c.11,3.86.04,9.54.24,13.92v.16s-.26,2.01-.26,2.01c-.08,1.41.02,4.1,0,5.94v.05s-.22,2.01-.22,2.01c.03.73.02,2.81-.01,3.95,0,.42-.35.75-.77.74-.39-.01-.71-.32-.73-.71-.07-1.34-.15-2.67-.24-4.01v-.1s.1-2.02.1-2.02v.1c-.15-2.6-.41-5.61-.05-8.19-.3-2.42-.32-7.28-.41-10.41,0-1.22-.06-2.43-.08-3.64l.17-2.01v.1c.03-2.64-.09-5.47-.22-8.1.08-.99.17-2.99.19-3.98v.14s-.17-2.01-.17-2.01c-.05-1.07,0-3.12.08-4.18-.1-.85-.27-3.52-.18-4.96.05-1.55.13-3.82.16-4.92-.1-1.07-.23-3.12-.23-4.19.27-1.94.22-3.82.19-5.89v.11s-.26-2.01-.26-2.01v-.14c.03-.98.05-3,.04-3.98v-.06s.16-2.01.16-2.01c.08-.93,1.51-.91,1.5.08Z"/>
      <path class="cls-2" d="M508.55,378.26c3.02-3.06,6.86-5.3,10.6-7.41,2.58-1.19,5.33-2.53,8.2-2.83l-.33.08c.21-.06,2.04-.82,2.21-.82h.06s2.08-.34,2.08-.34l2.1-.18h.14c1,.02,3.02-.06,4.02-.13.11-.07,2.1.25,2.27.23l2,.08c.24-.04,2.1.52,2.36.55l-.17-.03c.32.07,2.23.31,2.5.46l1.89.87-.2-.07c.66.21,1.31.42,1.96.64,1.1.41,3.02,1.32,4.06,1.87l1.76,1.09.12.07.03.02,1.6,1.32-.09-.06,1.69,1.19.12.09.03.03,1.44,1.48c-.25-.2,1.51,1.38,1.46,1.34.3.27.35.71.15,1.05-.78,1.51-1.76,2.86-2.92,4.12-1.94,2.34-4.51,3.93-6.89,5.74l-.16.1-1.72,1.01-1.79.89-.1.04c-.18.06-1.92.8-2.07.81l-1.89.46.22-.07-1.83.69c-.24.14-2.01.29-2.31.35l-1.89.33-.16.02-1.95.15c-1.41-.08-2.81-.35-4.23-.44h.17s-2.02,0-2.02,0h-.05c-.38.05-2.02-.64-2.4-.72l.22.05-1.96-.38h-.07c-.23-.02-1.82-.8-2.06-.87-1.89-.72-3.96-1.69-5.75-2.53-.84-.56-2.49-1.77-3.26-2.42l.08.06-1.66-1.12-.09-.06-.09-.07c-1.99-2.02-4.37-4.08-5.46-6.73ZM510.03,378.52c1.58,1.18,4.25,3.75,5.38,4.6l1.75.97h0s.08.06.08.06c.8.57,2.45,1.62,3.3,2.11l-.23-.12c.94.33,2.78,1.06,3.7,1.44.95.3,2.83.98,3.76,1.33l-.32-.09,2.14.33.06.02,1.93.58-.54-.08,2.02-.06c1.39.07,2.77.2,4.15.34-1.24.03,1.67-.16,1.61-.18l-.16.02c.97-.2,2.95-.51,3.93-.63l-.41.1,1.82-.71.2-.06,1.91-.47-.22.07c-.1.03,2.29-.87,1.69-.63.86-.39,2.58-1.23,3.41-1.68l-.16.1c1.42-.95,3.94-2.49,4.85-2.99,2.12-1.59,4.09-3.14,5.73-4.95l.15,1.05-1.75-1.08-.05-.04-1.66-1.23.15.11-1.83-.95-.09-.06-1.74-1.13c.67.38-1.81-.86-1.72-.81l.1.05c-.93-.4-2.83-1.1-3.79-1.41l.13.04c-.73-.19-1.48-.35-2.19-.59l-1.92-.78.45.13-2.06-.24-.12-.02h-.05s-2.01-.48-2.01-.48l.36.05c-1.19,0-3.06-.12-4.24-.26h.28c-1.04.08-3.15.11-4.19.08.63-.04-1.93.14-1.84.14l-1.98.26.35-.09-1.95.66-.07.02c-.16.06-2.1.3-2.31.32l.27-.06c-1.92.53-3.82,1.19-5.68,1.93-1.21.49-4.13,2.01-5.37,2.48-1.69.82-3.17,2.09-5.01,2.48Z"/>
      <path class="cls-2" d="M509.31,377.59c1.79.04,4.63-.1,5.94-.05l2.02-.27h.2s2.03.14,2.03.14c-.45-.01,2.05-.01,1.94-.01-.68.06,1.98-.28,1.87-.28.13-.04,2.13.2,2.31.2,3.91-.16,9.65-.25,14.19-.36l2.03.19h-.11s2.03.02,2.03.02c1.47-.14,4.24-.04,6.07-.1,2.07.19,4.07.25,6.14.19,2.02.22,4.03.31,6.06.49.41.04.72.41.68.82-.04.37-.33.65-.69.68-2.04.14-4.1.28-6.15.23-1.42.22-4.24.31-6.12.17-1.3.16-4.17.05-5.94.22h-.1s-2.03-.05-2.03-.05h-.11s-2.03-.22-2.03-.22c-1.41.14-4.86-.03-6.93.06-2.33.17-4.82.02-7.15.03h-.13s-2.02-.29-2.02-.29c1.08-.05-1.86.2-1.75.21h-.15s-2.02-.06-2.02-.06h-.04s-.04,0-.04,0l-2.02-.24h.2s-2.03.15-2.03.15h-.06c-2.04-.14-4.1-.15-6.15-.37-.93-.07-.89-1.51.07-1.5Z"/>
      <path class="cls-2" d="M540.72,337.83c-.24.93-.2,2.15-.84,2.92-.53.47-1.06.95-1.61,1.4-.13.17-2.02.71-2.24.8-.18.07-.37.09-.55.05l-2.05-.45-.08-.02c-.37,0-1.62-1.56-1.9-1.78-.12-.11-.21-.26-.24-.41-.04-.34-.62-2.24-.47-2.5l.63-1.96c.38-.69,1.04-1.19,1.51-1.82.11-.13.25-.21.4-.24l1.99-.48c.11-.03.22-.03.33,0,.75.21,1.62.17,2.32.5l.06.05,1.59,1.31c.26.12.97,2.33,1.13,2.63ZM538.58,337.9l-.47-1.73.26.39-1.48-1.44.38.19c-.65-.17-1.31-.32-1.97-.47h.33s-2,.44-2,.44l.4-.24c-.45.51-.89,1.04-1.33,1.57l.15-.28-.57,1.98v-.45s.63,2.01.63,2.01l-.24-.41,1.59,1.41-.51-.26,2.08.29-.55.05,1.89-.75-.37.22c.49-.48,1-.93,1.51-1.39l-.34.56c.16-.57.34-1.13.58-1.71,0,0-.23.58,0,0Z"/>
      <path class="cls-2" d="M523.94,334.78c-.12.95-.08,2.49-.78,3.18l-1.63,1.36c-.17.16-.39.31-.62.34l-2.07.34c-.22.04-.48.08-.69-.03l-1.89-.83c-.25,0-1.64-1.45-1.85-1.6-.15-.13-.29-.3-.31-.5-.07-.81-.37-1.62-.35-2.43.29-.78.26-1.76.76-2.44l1.57-1.37c.08-.07.16-.11.26-.15.79-.21,1.57-.79,2.39-.76.76.24,1.61.3,2.34.62.58.55,1.77,1.12,2.09,1.77.24.82.5,1.63.78,2.48ZM520.98,334.82c0-.59-.03-1.2-.07-1.83l.36.64c-.45-.54-.93-1.04-1.39-1.56l.38.22c-.65-.25-1.3-.5-1.95-.74h.52c-.66.19-1.33.38-1.99.59l.26-.15-1.6,1.33.24-.4c-.15.68-.31,1.37-.45,2.05v-.35c.18.68.35,1.36.57,2.04l-.31-.5,1.71,1.2-.32-.18,2,.49-.68-.03,1.99-.67-.62.34,1.44-1.56-.45.85c.08-.6.16-1.19.37-1.79,0,0-.21.6,0,0Z"/>
      <path class="cls-2" d="M572.73,330.8c-.09.74-.22,1.5-.39,2.24-.32.87-1.23,1.37-1.82,2.05-.23.32-2.16.6-2.55.74-.32.15-2.15-.6-2.52-.67-.35-.04-1.45-1.6-1.69-1.82-.26-.17-.5-2-.62-2.38-.09-.13.37-2.12.39-2.3.03-.17.11-.32.23-.42l1.52-1.41c.69-.4,1.51-.55,2.24-.86.14-.05.29-.06.43-.02h.04s2.05.54,2.05.54c.17.04.3.14.4.26.51.65,1.32,1.14,1.64,1.9l.64,2.16ZM570.51,330.83l-.28-1.75.21.41c-.41-.55-.84-1.09-1.27-1.63l.4.26-2.01-.65h.47c-.67.2-1.33.41-1.99.64l.27-.16-1.52,1.41.23-.42-.33,2.03v-.32s.53,1.93.53,1.93l-.2-.37,1.44,1.46-.45-.28,2.02.45h-.54s1.98-.61,1.98-.61l-.51.3c.46-.51.92-1.02,1.4-1.52l-.3.57c.11-.58.26-1.15.44-1.73,0,0-.18.58,0,0Z"/>
      <path class="cls-2" d="M557.67,333.75c-.13.8-.3,1.63-.53,2.43-.36.85-1.3,1.28-1.93,1.92-.23.31-2.11.62-2.46.75-.34.19-2.01-.44-2.56-.55-.2-.04-.4-.15-.51-.32l-1.27-1.67c-.38-.7-.43-1.55-.71-2.3-.16-.3.56-2.09.6-2.41.02-.29,1.51-1.5,1.69-1.72.67-.4,1.47-.58,2.19-.91.17-.07.36-.07.52,0,.25.1,2.18.56,2.32.79.52.57,1.13,1.07,1.61,1.66.36.76.68,1.53,1.02,2.33ZM555.46,333.88c-.17-.54-.37-1.08-.54-1.65l.18.29c-.42-.53-.85-1.05-1.29-1.57l.36.24-1.97-.72h.52c-.65.22-1.31.44-1.96.69l.25-.16-1.49,1.39.21-.34-.54,1.99v-.45c.21.65.44,1.3.67,1.94l-.16-.29,1.4,1.56-.51-.32,2.09.37h-.51s1.98-.63,1.98-.63l-.44.25c.51-.49,1-.99,1.52-1.46l-.34.56c.14-.57.32-1.12.56-1.7,0,0-.23.57,0,0Z"/>
      <path class="cls-2" d="M508.41,331.45c-.17.96-.1,2.16-.69,2.97-.71.58-1.29,1.56-2.18,1.83l-2.09.27h-.11c-.25.11-2.04-.64-2.31-.7-.29,0-1.66-1.43-1.89-1.6-.54-.6-.48-1.75-.77-2.51-.04-.15-.04-.3,0-.44.32-.76.4-1.66.85-2.34.19-.15,1.57-1.61,1.79-1.62.84-.16,1.68-.8,2.53-.64.23.1,2.12.66,2.25.86.54.57,1.53,1.03,1.82,1.75l.79,2.17ZM505.97,331.56l-.33-1.72.28.46c-.44-.51-.9-.99-1.35-1.48l.29.19-1.89-.83.53.02c-.67.19-1.35.37-2.02.57l.3-.18-1.52,1.43.2-.32c-.2.68-.41,1.35-.59,2.04v-.44c.21.68.43,1.36.65,2.04l-.28-.43,1.67,1.26-.35-.19,1.99.45-.49-.02,2.05-.47-.65.35c.47-.53.93-1.08,1.41-1.6l-.33.64c.1-.59.22-1.16.42-1.75,0,0-.2.59,0,0Z"/>
      <path class="cls-2" d="M541.2,354.48c-.17.93-.06,2.11-.62,2.91-.51.52-1.01,1.06-1.54,1.57-.24.32-2.17.63-2.56.77-.36.17-2-.6-2.55-.75-.17,0-1.62-1.42-1.77-1.53-.13-.11-.23-.25-.28-.4l-.61-2.02c-.06-.17-.06-.36,0-.52l.7-1.97c.39-.68,1.03-1.19,1.51-1.81.1-.11.22-.19.35-.23.79-.17,1.57-.6,2.37-.62.69.16,1.37.31,2.06.45.16.03.28.11.39.22.54.61,1.39,1.03,1.76,1.77l.8,2.17ZM539,354.59l-.39-1.74.23.39c-.45-.51-.91-1.03-1.38-1.53l.39.22c-.66-.2-1.33-.38-2-.56h.4c-.67.17-1.34.36-2.01.55l.36-.23c-.46.51-.9,1.04-1.34,1.57l.15-.26-.61,2v-.52s.77,1.96.77,1.96l-.28-.4,1.63,1.24-.34-.18,1.98.52h-.62s1.99-.64,1.99-.64l-.52.32c.46-.53.95-1.03,1.42-1.54l-.3.59c.12-.58.26-1.16.45-1.76,0,0-.19.59,0,0Z"/>
      <path class="cls-2" d="M540.39,320.99c-.11.79-.27,1.61-.48,2.41-.35.88-1.26,1.39-1.87,2.08-.27.39-2.14.47-2.59.59-.11.02-.23.04-.33.01l-2.05-.34c-.21-.02-.43-.11-.57-.26l-1.49-1.53-.06-.06c-.44-.73-.32-1.7-.56-2.52.04-.79.43-1.54.58-2.31.38-.68,1.04-1.2,1.52-1.82.1-.12.24-.19.38-.23.78-.14,1.54-.55,2.33-.56.75.22,1.58.23,2.29.55.62.56,1.51.92,1.99,1.6l.05.13.88,2.26ZM537.99,321.07l-.39-1.73.31.47c-.49-.48-.99-.95-1.5-1.41l.35.18c-.65-.19-1.29-.39-1.94-.56h.39c-.66.15-1.33.3-1.99.47l.38-.23c-.45.51-.92,1.01-1.36,1.53l.17-.31c-.17.66-.34,1.32-.49,1.98v-.37c.17.68.36,1.36.53,2.04l-.26-.46,1.64,1.37-.57-.26,2.08.1h-.33s1.99-.47,1.99-.47l-.63.35c.47-.52.92-1.06,1.4-1.56l-.31.57c.12-.57.3-1.12.53-1.7,0,0-.23.57,0,0Z"/>
      <path class="cls-2" d="M540.35,305.97c-.22.88-.32,1.91-.79,2.71l-1.36,1.53-.04.05c-.21.36-2.11.66-2.48.8-.16.05-.33.06-.48.02l-2.03-.52-.06-.02c-.34-.01-1.56-1.55-1.81-1.75-.45-.68-.51-1.57-.82-2.32-.06-.16-.05-.33,0-.48.08-.19.66-2.14.81-2.24.23-.21,1.38-1.75,1.7-1.78.27-.05,2.11-.7,2.35-.6.53.13,2.31.23,2.5.56.51.59,1.12,1.12,1.59,1.74.32.75.62,1.52.92,2.3ZM538.19,306.05c-.17-.53-.34-1.06-.5-1.62l.17.3c-.41-.55-.85-1.07-1.28-1.61l.49.28-2.03-.46h.36s-2,.5-2,.5l.37-.23-1.36,1.54.15-.27-.61,1.99v-.48c.23.66.46,1.32.71,1.97l-.2-.32,1.53,1.42-.44-.24,2.06.36-.48.02,1.98-.65-.51.33,1.27-1.61-.22.41c.15-.55.31-1.08.54-1.62,0,0-.23.54,0,0Z"/>
      <path class="cls-2" d="M539.76,292.15c-.09.83-.02,1.8-.54,2.47-.43.52-.91.98-1.39,1.45-.7.51-1.65.53-2.47.81-.87.07-1.69-.43-2.53-.62-.75-.41-1.22-1.21-1.84-1.79-.38-.7-.31-1.58-.48-2.36-.11-.88,1.17-1.18,1.46-.35.23.64.43,1.28.64,1.92l-.26-.45c.52.43,1.03.87,1.54,1.31l-.44-.25c.65.14,1.31.3,1.95.46h-.58c.64-.2,1.28-.38,1.92-.57l-.49.29c.47-.47.93-.95,1.44-1.38l-.27.45c.41-.75.79-2.65,1.99-2.05.23.15.35.41.35.67Z"/>
      <polygon class="cls-2" points="521.49 356.22 521.17 358.1 520.67 359.92 519.78 361.58 518.56 363.02 516.98 364.09 515.09 364.45 513.25 363.97 511.55 363.1 510.47 361.53 509.47 359.94 509.05 358.09 508.97 356.22 509.08 354.36 509.45 352.5 510.4 350.87 511.57 349.37 513.29 348.59 515.09 348.18 516.91 348.51 518.53 349.46 519.71 350.91 520.67 352.53 521.29 354.32 521.49 356.22"/>
      <path class="cls-2" d="M521.49,356.22l-.74-.13-.32,1.84-.46,1.71-.82,1.51-1.11,1.3-1.37.93-1.57.3-1.6-.42-1.46-.75-.96-1.39-.93-1.48-.38-1.65-.08-1.77.1-1.77.34-1.68.86-1.49,1.02-1.32,1.48-.67,1.57-.36,1.55.28,1.39.81,1.06,1.3.89,1.51.57,1.64.19,1.81.75-.08-.74-.13.74.13.75-.08-.2-1.9-.04-.17-.63-1.8-.06-.13-.96-1.62-.06-.09-1.18-1.45-.2-.17-1.62-.94-.24-.09-1.83-.33c-.1-.02-.2-.02-.3,0l-1.8.41-.14.05-1.72.78c-.11.05-.21.13-.28.22l-1.17,1.5-.06.08-.95,1.64-.09.23-.38,1.85v.1s-.12,1.87-.12,1.87v.08s.08,1.87.08,1.87l.02.14.42,1.84.1.23,1,1.6.02.03,1.08,1.57c.07.1.17.19.28.24l1.7.87.15.06,1.84.48c.11.03.22.03.33.01l1.89-.36c.1-.02.19-.06.28-.12l1.58-1.07.15-.14,1.22-1.44.09-.13.9-1.66.06-.16.49-1.82v-.07s.34-1.88.34-1.88v-.21s-.74.08-.74.08Z"/>
      <polygon class="cls-2" points="562.51 356.22 562.41 358.12 561.75 359.9 560.85 361.55 559.58 362.89 558.02 363.86 556.22 364.42 554.37 363.99 552.71 363.07 551.45 361.64 550.73 359.89 550.25 358.08 549.81 356.22 550.04 354.33 550.59 352.5 551.61 350.92 552.7 349.37 554.4 348.53 556.22 348.16 558.1 348.39 559.64 349.49 560.84 350.91 561.77 352.54 562.32 354.34 562.51 356.22"/>
      <path class="cls-2" d="M562.51,356.22l-.75-.04-.09,1.79-.6,1.61-.82,1.52-1.14,1.21-1.4.87-1.51.47-1.55-.37-1.46-.81-1.1-1.24-.65-1.59-.47-1.76-.72.19.73-.17-.41-1.73.21-1.7.5-1.66.95-1.47.98-1.39,1.44-.71,1.61-.33,1.56.19,1.31.94,1.1,1.3.85,1.49.5,1.65.18,1.81.75-.07-.75-.04.75.04.75-.07-.18-1.88-.03-.15-.55-1.8-.07-.15-.93-1.62-.08-.11-1.2-1.43-.14-.13-1.54-1.1c-.1-.07-.22-.12-.35-.13l-1.88-.22h-.24s-1.82.38-1.82.38l-.18.06-1.7.83c-.11.06-.21.14-.28.24l-1.09,1.55-.02.02-1.02,1.59-.09.19-.55,1.82-.03.13-.23,1.9v.26s.45,1.86.45,1.86v.02s.49,1.8.49,1.8l.03.09.72,1.75.13.21,1.27,1.43.2.16,1.66.92.19.07,1.85.44c.13.03.27.03.4-.01l1.8-.56.17-.08,1.56-.97.15-.12,1.28-1.35.12-.16.89-1.65.04-.1.66-1.78.05-.22.1-1.9v-.11s-.75.07-.75.07Z"/>
      <path class="cls-2" d="M494.28,336.28c-.71-.09-1.38-.25-2.06-.42-.67-.38-1.38-.69-2.04-1.09l.26.15c-.65-.21-1.3-.44-1.94-.69-.73-.43-1.34-1.05-2-1.58l.22.17c-.24-.2-1.84-1.12-2-1.33-1.77-1.72-4.31-4.25-5.84-6.16l-1.11-1.71-.02-.04-.05-.09-1.9-3.6c-.09-.15-.71-2.04-.78-2.24v-.04s-.51-1.98-.51-1.98l-.02-.07v-.06s-.33-2.01-.33-2.01v-.07s-.02-.03-.02-.03l-.18-2.06-.08-2.27.22-2.05v.1s.05-2.07.05-2.07c.44-2.12,1.18-4.17,1.66-6.26.45-1.12,1.48-2.97,2.07-4.02l1.23-1.66-.05.07,1.07-1.78.15-.19c.76-.69,2.22-2.15,2.91-2.91l.13-.11,1.71-1.12,1.64-1.22c1.2-.68,2.44-1.28,3.66-1.92.37-.19.82-.05,1.01.32.11.2.11.44.03.63-.44,1.04-1.18,2.68-1.54,3.43-.32.92-.89,2.78-1.14,3.72-.3.93-.81,2.79-1.02,3.74l.03-.17-.12,1.97v.06s-.26,1.95-.26,1.95v-.22c.07.97.27,2.91.4,3.87.33,1.1.95,3.84,1.55,5.37l-.08-.2.92,1.73-.06-.1c.52.82,1.59,2.46,2.14,3.26l-.25-.27,1.51,1.27.05.04.04.04,1.36,1.42-.19-.15c1.11.73,2.17,1.53,3.19,2.38l-.11-.06c.66.56,2.47.97,1.88,2.09-.2.3-.57.41-.9.29-1.94-.67-3.65-1.83-5.42-2.84l-.06-.06-1.45-1.32.09.08c-.19-.16-1.7-1.24-1.8-1.43-1.15-1.6-2.37-3.39-3.21-5.19-.71-1.93-1.16-4.12-1.54-6.13-.08-1.02-.15-3.01-.16-4.03v-.16s.38-1.94.38-1.94v.07s.22-1.95.22-1.95l.03-.17c.27-.94.9-2.83,1.25-3.74.29-.93.94-2.8,1.28-3.72.56-1.16,1.1-2.33,1.61-3.52l1.03.97c-1.02.46-2.81,1.54-3.41,1.82l-1.65,1.29-1.72,1.19.15-.13-1.39,1.56-1.46,1.5.15-.19-1.01,1.82-.05.07-1.16,1.7.07-.12c-.46.91-1.31,2.77-1.69,3.71-.06.91-.93,4.18-1.23,5.86l.04-.29.05,2.07v.04s0,.07,0,.07l-.11,2.06v-.2s.18,2,.18,2l.28,1.98-.02-.1c-.02-.09.52,2.46.39,1.86l.6,1.95-.04-.11.75,1.9-.1-.23c1.13,1.9,1.91,3.49,3.11,5.11l-.15-.19c.92,1,1.82,1.98,2.72,2.92l2.9,2.81-.28-.23,1.72,1.1c.61.47,1.15,1.04,1.7,1.58l-.42-.28c.7.36,1.37.77,2.05,1.17.51.45,1,.95,1.48,1.44l-.21-.12c.65.63,2.49,1.26,1.72,2.39-.18.2-.44.29-.69.26Z"/>
      <path class="cls-2" d="M571.68,316.45c.99-.92,2.01-1.77,3.04-2.63l-.15.13c.45-.5.89-1.01,1.35-1.5l-.12.14c.38-.55.76-1.11,1.16-1.65l-.1.16c.62-1.17,1.24-2.34,1.83-3.52l-.11.29c.42-1.67.91-4.11,1.26-5.82-.03,1.07-.04-1.85-.05-1.75l.03.21c-.29-1.71-.97-4.08-1.45-5.77l.04.1c-.41-.93-1.13-2.85-1.43-3.82l.11.2-1.16-1.66c-.36-.6-.69-1.22-1.06-1.82l-1.11-1.72c-.44-.62.35-1.47,1-1.08l1.8.98.11.08,1.54,1.22-.08-.06,1.69,1,.09.07,1.53,1.29,1.45,1.34-.06-.05,1.58,1.17.15.15,1.23,1.5,1.31,1.46,1.29,1.68c.54.83,1.52,2.56,1.96,3.45-.19-.33,1.05,1.67,1.01,1.6.14.15.56,1.99.65,2.21l-.03-.1.67,1.85c.21,1.49.51,2.99.61,4.48-.14.84-.29,2.07-.34,2.91l-.24,3.2c-.24.99-.81,2.97-1.15,3.94-.65,1.29-1.39,2.54-2.06,3.82-.62,1-1.55,2.33-2.14,3.36-.17.29-1.46,1.5-1.69,1.74-.8.58-2.35,1.85-3.08,2.51l-.05.04-.1.07-1.75,1c-1.26.53-2.56,1-3.82,1.53-.87.34-1.46-.92-.63-1.36.88-.49,2.68-1.38,3.59-1.8l-.12.07,1.67-1.13-.15.11c.76-.78,2.19-2.08,3.04-2.75l-.11.1,1.36-1.5-.16.21c.57-1.09,1.42-2.49,2.06-3.51.33-.74,1.27-2.42,1.82-3.48l-.1.23.58-1.9.47-1.92-.04.24c.08-1.98.22-4.1.57-6.07v.36c-.19-1.31-.33-2.62-.46-3.94l.06.25-.6-1.87v-.04s-.03-.05-.03-.05l-.43-1.92.13.31-.97-1.72-.04-.07c-.39-.88-1.26-2.6-1.74-3.43l.06.09-1.12-1.61.04.05c-.64-.75-1.85-2.33-2.43-3.13l.15.15-1.53-1.24-.03-.02-.04-.03c-.68-.69-2.1-2.03-2.83-2.65l.11.08-1.68-1.02-.08-.06-1.52-1.24.11.07-1.8-.97.99-1.08,1.15,1.72,1.09,1.76-.04-.06,1.22,1.61.86,2.03.86,1.79.02.05.02.05.99,2.87c.36,1.03.66,2.09.89,3.16l.16,2.01c-.27,1.99-.63,4.61-1.18,6.52-.52,1.08-1.29,2.6-1.88,3.62-.82,1.22-1.82,2.29-2.95,3.24-1.15.81-2.42,1.47-3.7,2.1-.76.37-1.47-.67-.84-1.24Z"/>
      <path class="cls-2" d="M517.94,402.73l.39,1.81v-.05s.55,1.77.55,1.77c.19,1.32.43,2.67.47,4l-.42,1.81-.04.11-.74,1.65c-.07.16-.2.27-.35.33l-1.94.71.05-.02-1.87.85-1.93.75-3.85,1.35h-.05s-.01.02-.01.02l-1.98.5.09-.03-1.89.75-.06.02h-.01s-1.96.56-1.96.56l.09-.03-1.88.8-.07.03h-.01s-1.95.58-1.95.58l.08-.03-1.89.78-.14.04-2,.44.13-.04-1.9.74-.1.03-1.98.51c-1.47.66-3.91,1.38-5.77,1.95l-.08.02h-.02s-2.02.37-2.02.37l.12-.03-1.94.61-.06.02h-.01s-1.98.47-1.98.47l.08-.02c-.97.32-2.9.93-3.89,1.19l.14-.05-1.79.82-1.75.9.11-.06-1.65,1.12.08-.06-1.52,1.25-1.43,1.35.09-.1-1.28,1.55.06-.08-1.13,1.66.08-.13-.89,1.8-.07.12-1.1,1.68.13-.28-.61,1.92-.06.14-.86,1.81.05-.12c-.32.97-1,2.87-1.39,3.81l.06-.22-.35,1.98-.03.13-.57,1.92.02-.08-.43,1.96c-.19,1.32-.41,3.93-.32,5.69-.22,2.9-.38,6.04-.34,8.92,0,1.01.12,2.07.14,3.11-.12,1.32-.22,2.63-.3,3.95v-.24s.22,1.99.22,1.99c.01.09,0,.2,0,.28l-.21,1.98v-.23c0,.21.18,2.07.14,2.23l-.21,1.94-.08,1.95v-.2s.21,2,.21,2c.01.1,0,.21,0,.31l-.25,1.99v-.23c.19,1.81,0,4.55,0,5.99l.1,2.22-.23,1.99v-.32l.24,1.99c.02,1.12-.14,3.16-.27,4.27v-.2c.21,3.13-.17,6.35.04,9.48l.11,2.48v.1s-.06,2.04-.06,2.04c.01-.11-.24,2.71-.19,1.82l.23,3.99v.11s0,0,0,0c0,1.01-.13,3.06-.25,4.07v-.14s.02,1.99.02,1.99v-.18s.26,1.99.26,1.99c.02.12.02.23,0,.35l-.23,1.99v-.14s-.02,1.99-.02,1.99v-.12s.14,1.99.14,1.99v.18s-.1,2-.1,2v-.12c.02,1.96.25,4.06.11,6.03v1.96s-.01-.21-.01-.21l.29,1.98.02.2v1.95s.12,1.95.12,1.95v.11s-.06,2.02-.06,2.02v-.21s.24,2,.24,2v.21s-.04,2.02-.04,2.02v-.16s.17,2.01.17,2.01v.14s-.02,2.01-.02,2.01v-.12s.15,2.02.15,2.02v.14s-.07,2.02-.07,2.02v-.18s.19,2.02.19,2.02v.17s-.06,2.02-.06,2.02c.06,1.8.41,6.46.25,7.82l.28,2.01v.21s-.02,1.48-.02,1.48c-.03.49.02.99.04,1.49.06,1.31.06,2.23.04,2.92.17,2.02.55,4.12.44,6.16v-.1s.15,2.01.15,2.01h0s0,.11,0,.11v2.02s-.02-.2-.02-.2l.3,2.02v.19s-.03,2.02-.03,2.02l-.02-.24.35,2.02v.14s.1,2.05.1,2.05l-.04,2.06v-.08s.1,2.01.1,2.01l-.02-.17.4,1.99c.2,2.17.2,4.16.49,6.21-.03,1.91.29,3.93.58,5.99.1,2.73.34,5.33.78,8.03.31,4.64.92,9.25,1.87,13.8l-.5-.56,1.9.71-.14-.03,2.06.35c1.54.31,4.88.2,6.03.45l2.07-.37h.02s.02,0,.02,0l2.09-.22-.08.02,2.04-.51c.27-.07.54.09.61.36.07.26-.09.53-.34.6l-2.02.59h-.05s-.02.02-.02.02l-2.08.3h.04s-2.05.44-2.05.44h-.16c-2.8-.08-5.75-.06-8.53-.57h-.02s-1.92-.66-1.92-.66c-.26-.09-.44-.31-.5-.56-1.07-4.41-1.95-9.73-2.3-13.93-.78-4.19-.83-8.07-1.54-12.14l-.08-2.02v.1s-.27-2-.27-2c-.05-1-.26-3.46-.29-3.92l-.43-1.99-.02-.17-.14-2.01v-.08s0-1.98,0-1.98l-.12-1.98.02.16-.38-1.99-.02-.24v-2.02s.02.21.02.21l-.33-1.99-.02-.18v-2.04s0,.11,0,.11l-.17-2.01v-.09s0-.01,0-.01v-2.02c-.41-2.12-.53-5.81-.59-8.54l.02-1.55v.21c-.01-.17-.3-2.08-.29-2.19.12-3.32-.45-6.79-.26-10.1.05.82-.2-1.98-.2-1.83v-.18s.05-2.02.05-2.02v.15s-.16-2.01-.16-2.01v-.11s0-2.02,0-2.02v.14s-.19-2.16-.19-2.16l.04-2.02v.21c0-.2-.28-2.09-.26-2.22l.04-2.02v.12s-.12-2.01-.12-2.01l-.02-2.02.02.2-.3-1.98c-.06-1.11.02-3.13.06-4.24-.03-.77-.17-2.77-.15-4.01l.11-1.99v.18s-.13-1.99-.13-1.99v-.12s.04-2,.04-2v-.13s.24-1.99.24-1.99v.35s-.26-2-.26-2v-.17s-.02-1.99-.02-1.99v-.14s.19-1.95.19-1.95l.07-1.95v.12s-.21-3.98-.21-3.98v-.21c.13-1,.25-2.89.26-3.89-.14-2.78-.25-6.84,0-9.99v.15s-.1-1.99-.1-1.99v-.2s.2-1.95.2-1.95l.08-1.95v.21c.02-.12-.29-2.21-.22-2.31l.24-1.99v.22c-.16-1.77-.06-4.7.03-5.98l-.1-2v-.23s.26-1.99.26-1.99v.31s-.22-2-.22-2v-.2s.09-2.04.09-2.04l.23-2.03v.23s-.14-1.99-.14-1.99v-.23s.22-1.98.22-1.98v.28s-.22-1.99-.22-1.99v-.24c.08-1.33.19-2.66.31-3.99v.18c-.21-3.02-.1-6.07.07-9.09l.25-2.99v.1s0-1.53,0-1.53c0-1.51.21-3.11.42-4.6l.02-.1.46-1.95h0s.02-.08.02-.08l.59-1.92-.03.13.37-1.99.06-.2.74-1.84.67-1.87.05-.12.88-1.8-.06.14.63-1.92c.03-.1.08-.2.13-.28l1.12-1.67-.07.12.91-1.79.08-.13,1.16-1.66.05-.07,1.29-1.54.09-.1,1.5-1.38,1.59-1.28h0s.07-.06.07-.06l1.68-1.11.1-.06,1.8-.9,1.85-.82.13-.05,1.92-.53,1.91-.6.07-.02,1.98-.44-.07.02,1.95-.59.12-.03,2.02-.33-.1.02c.97-.27,1.95-.52,2.9-.85.98-.31,1.97-.68,2.96-1.01l1.98-.48-.1.03,1.93-.71.11-.03,2.01-.4-.14.04,1.9-.74h.01s.07-.03.07-.03l1.96-.54-.09.03,1.89-.76.09-.03,1.97-.52-.07.02,1.91-.71.09-.03,1.99-.47-.06.02,3.85-1.27,1.88-.69,1.85-.8h.01s.03-.02.03-.02l1.93-.66-.37.33.78-1.63-.04.11.47-1.8v.2c-.11-1.23-.23-2.46-.39-3.69.1.38-.52-1.75-.5-1.69h0s0-.05,0-.05l-.35-1.82c-.05-.27.13-.53.4-.58.27-.05.53.12.58.39Z"/>
      <path class="cls-2" d="M556.75,401.03c.62,1.38.68,2.81.55,4.27l.02-.31c.31,2.28.01,3.5.25,5.85l-.11-.22c.29.61.64,1.18,1.04,1.71.17.22.13.54-.1.7-1.79,1.03-3.46,2.25-5.26,3.27-1.29.51-2.55,1.12-3.84,1.62l.11-.04c-.73.32-1.46.72-2.24.9-.69.08-1.37.14-2.06.21,1.02-.22-1.81.48-1.7.46-.23.1-2.12.08-2.4.1h.12s-2,.18-2,.18h-.05s-.07,0-.07,0c-1.91.04-4.78.08-6.17-.34-.12-.03-2.23-.18-2.3-.23l-1.94-.6.12.03-1.97-.43-.12-.03h-.02c-.92-.36-2.83-.97-3.79-1.23l-.12-.04h-.04s-3.63-1.8-3.63-1.8l-.1-.05-1.64-1.24c-.22-.17-.26-.48-.1-.7.15-.2.41-.25.62-.15l1.83.91-.11-.05c1.3.39,2.59.8,3.87,1.25l-.16-.05,2.03.34,2,.48-.14-.03,2,.24h.03s.1.03.1.03l1.97.46-.29-.05,2.02.04c.71.07,1.43.15,2.14.24l-.24-.02c2.16-.06,4-.15,6.01-.42l2.02-.08-.38.06,1.95-.54c.75-.13,1.51-.19,2.27-.27l-.42.1c.63-.24,1.28-.44,1.93-.64,1.14-.28,3.41-.62,4.04-.58,1.41-.32,2.45-.61,3.76-1.23.6-.29,1.19-.59,1.77-.92l-.15.74c-.41-.53-.86-1.01-1.38-1.45-.8-1.43-1.56-2.47-1.93-4.13-.1-.81-.1-1.64-.07-2.46.15-.7.38-1.38.65-2.05v.13c.24-.66.79-3.21,1.78-1.94Z"/>
      <path class="cls-2" d="M510.66,860.98c-.18-1.38-.16-2.75.02-4.13-.1-.84-.03-2.7-.05-3.96l.26-4.02v-.09s.03-.09.03-.09l.4-1.98-.04.33c-.2-1.91.22-3.36.46-5.19l.34-2.94v.19s-.03-2.02-.03-2.02l.02-.27.33-1.98-.02.16.12-2,.03-.24.45-1.97-.03.17.44-4v.17s0-2.02,0-2.02c.63-4.71.92-9.48,1.76-14.17-.05.93.03-1.95.02-1.81l.02-.22.38-1.98-.02.12c.2-2.14.63-6.44.92-7.85v-2.02c.06-.88.29-1.74.35-2.63.2-2.29.52-5.56.9-7.44.08-1.38.17-2.77.3-4.15l.4-1.98-.02.16.04-2.02v-.03s0-.06,0-.06l.25-1.98.13-1.99v-.09s.37-1.99.37-1.99v.08c.05-1.02.24-3.03.36-4.04v.1c-.24-3.91.62-8.43.92-12.04l-.07-2.02c.1-1.25.29-3.04.42-4.02l-.03-2.02c.23-2.01.37-4.04.56-6.06-.11-.97-.19-2.81-.2-4.07l.14-2.03v.2s-.4-1.99-.4-1.99v-.03s0-.14,0-.14l-.03-2.01v.08c-.02-.74-.15-1.48-.1-2.22l.33-1.97-.02.26c-.07-1.3-.05-2.77.16-4.1v-.08s.01-.03.01-.03l.41-1.94v.11s.23-1.97.23-1.97v-.1s.46-1.94.46-1.94c.17-1.37.68-4.19.98-5.83.38-1.29.71-2.69.89-3.85.05-1.07.27-2.94.45-4.02l.47-1.95-.02.09.12-1.99.02-.12.53-1.93-.02.15.02-2.01.02-.15v-.03s.58-1.92.58-1.92l-.03.12c.13-.94.31-2.98.35-3.94.27-1.26.67-3.22.8-3.86l.08-2v-.02s.01-.07.01-.07l.25-1.98v-.07s.04-.08.04-.08l.52-1.93-.04.19.41-3.96c.18-1.04.63-3.06.92-4.08l-.04.15.29-1.97-.02.15.09-2c.43-2,.74-4.03,1.14-6.06l1.13-5.84c.19-.7.4-1.39.61-2.08l-.04.18c.65-3.33,1.64-6.52,2.69-9.73.33-.59.67-1.18,1.05-1.75.27-.42,1.01-.2.95.32-.05.68-.14,1.36-.24,2.02l.04-.14c.06,3.39-.45,6.81-1.09,10.1-.18.64-.39,1.27-.58,1.91l.04-.17-1.22,5.86c-.48,1.93-.82,3.91-1.35,5.85l.04-.24-.22,1.99-.02.15-.42,1.95-.02.1v.05s-.63,1.86-.63,1.86l-.5,1.89.02-.12-.68,3.93-.04.19-.66,1.89.04-.15-.4,1.96v-.09s-.21,1.99-.21,1.99c-.31,1.35-.74,2.67-1.12,4-.1.87-.36,2.7-.6,3.97l-.67,1.89.03-.18-.12,2.03-.02.12-.58,1.91.02-.11-.18,1.98-.02.09-.52,1.92c-.19.9-.4,2.72-.44,3.85-.16,1.22-.48,2.97-.7,3.94-.25,2.32-.37,5.96-.68,7.85l-.05,1.99v.11s-.31,1.97-.31,1.97v-.11c-.02.66-.06,1.32-.11,1.98v-.14c0,.27.13,2.07.07,2.25l-.38,1.96.02-.23c.02,1.34-.1,2.74-.3,4.06-.02-.74.07,1.97.07,1.86v.2c-.54,2.15-.68,3.67-.51,5.88-.19,1.92-.29,4.36-.48,6.03.16,1.89-.19,4.42-.3,6.01.12,1.41.11,3.23-.1,4.62-.38,2.49-.43,4.97-.63,7.49,0-.39.11,2.01.11,1.94v.1c-.1.98-.23,3-.25,3.99v.06s0,.02,0,.02l-.3,2v-.09s-.07,2.04-.07,2.04l-.19,2.03v-.09s.03,2.02.03,2.02v.13s-.02.03-.02.03l-.34,1.99c-.02.69-.14,2.82-.15,3.94-.51,3.03-.55,7.55-.95,9.88l.07,2.02c-.13,1.38-.31,2.76-.43,4.13l-.27,3.98v.08s-.01.04-.01.04l-.32,1.99.02-.22.02,2.02v.18c-.69,4.35-.96,10.17-1.46,13.76l.03,2.02v.17s-.43,3.98-.43,3.98l-.03.17-.44,1.97.03-.24-.11,2-.02.16-.32,1.98.02-.27.03,2.02v.19c-.2,2.01-.48,4.09-.93,6.07l.03-.29c0,.7-.04,1.39-.05,2.09l-.04.26-.52,1.95.03-.18c-.17,1.34-.4,2.66-.61,3.96-.26,1.91-.48,4.44-1.06,5.9-.09.67-.2,1.34-.31,2-.04.27-.3.46-.58.42-.23-.04-.4-.23-.42-.46Z"/>
      <path class="cls-2" d="M481.83,451.95l.27,2v.06s-.03,1.99-.03,1.99v-.08s.38,3.99.38,3.99l.16,3.98v.06s0,.07,0,.07l-.17,2v-.26s.28,1.98.28,1.98v.15s0,.08,0,.08c-.18,2.79-.2,5.24.22,7.69v.24s-.06,1.99-.06,1.99v-.15s.14,1.99.14,1.99v.18s0,.05,0,.05l-.19,1.99v-.17s.06,3.99.06,3.99v-.17s.24,1.99.24,1.99v.18c-.06,4.18.28,10.48.02,13.74l.23,1.99v.25s-.11,2.02-.11,2.02v-.15s.14,4.01.14,4.01c.01,1.36.01,2.7,0,4.03l-.02-.24.28,1.99c-.08,3.04.29,7.64.11,10.06.17,1.99.37,4.2.16,6.2v-.31s.24,1.98.24,1.98v.17s.05,1.94.05,1.94l.16,1.94v.19s-.05,2-.05,2c.11.8.2,2.44.26,3.83l-.03-.25.4,1.96.03.22c.32,2.91.21,7.65.13,9.89l.22,1.99v.21c-.02,1.35-.08,2.71-.17,4.06v-.2s.13,1.99.13,1.99c-.03,1.06-.15,2.11-.17,3.19-.03.99-.11,2.01-.18,3.01v-.24c0,.14.16,2.08.15,2.16l-.05,1.99-.02.2-.29,1.99v-.42s.22,2,.22,2c.01.1.01.21,0,.31l-.16,1.99v-.15s.02,2,.02,2c0,.09,0,.19-.02.28l-.31,1.99.02-.39.15,2.01v.16s-.04,1.99-.04,1.99v.14s-.23,1.99-.23,1.99v-.19s.02,2,.02,2v.15s-.19,1.99-.19,1.99c0,1.97.02,5.54-.38,8.02.05-.73-.1,2.05-.09,1.86-.01-.79.09,2.01.09,1.84h0s0,.12,0,.12l-.06,2v.15s-.27,1.98-.27,1.98v-.29s.11,2,.11,2c.04.17-.3,2.09-.32,2.3v-.4s.2,2,.2,2c.01.15,0,.3-.02.44l-.36,1.98.03-.29c-.02,1,.02,2.94.07,3.93-.11,1.39-.3,2.78-.4,4.18v-.25s.14,2.01.14,2.01v.13s-.03,2-.03,2l-.02.21-.3,1.99.02-.26.05,4v.13s-.15,2.04-.15,2.04l-.26,2.03v-.17s-.03,2-.03,2v-.16s.16,2.01.16,2.01c-.13,2.06-.16,4.11-.25,6.18-.13,2.66-.01,5.47-.4,8.12.04.77-.06,3.48-.08,4.84-.06,1.71.08,3.44.04,5.19l-.27,1.99v-.28s.11,2.01.11,2.01c.01.27-.18,1.93-.2,2.21v-.32s.23,2.02.23,2.02c.04.42-.27,1.96-.31,2.36v-.29s.21,3.98.21,3.98v.03s0,.09,0,.09c-.2,3.9,0,8.02-.06,11.91v.04s0,.05,0,.05l-.15,1.99v-.22s.19,2.02.19,2.02c.02,1.23,0,3.25-.06,4,.18,2.39.47,6.17.32,7.86l.34,1.97v.04c-.14,2.39-.17,4.71-.22,7.11-.1,1.9-.27,5.09-.28,7.01l-.23,1.98v-.08s.04,2.01.04,2.01c-.24,2.57-.11,5.28-.13,7.95v.08s-.29,1.99-.29,1.99v-.13s.23,1.99.23,1.99v.12s-.26,1.99-.26,1.99v-.08s.1,2.01.1,2.01l-.04,2.01v-.06s.2,1.99.2,1.99v.11c-.23,1.83-.22,4-.2,5.92v-.07s.26,1.99.26,1.99v.12s-.14,1.99-.14,1.99c.17,1.64.22,4.44.13,6.42.04,2.45.1,5.46.03,7.34l.29,1.98v.09s0,.04,0,.04v1.97s.11,1.97.11,1.97v.04s0,.04,0,.04l-.07,1.97.03,1.97v-.14s.29,1.98.29,1.98v.06s0,.04,0,.04l.11,1.99v.16s-.19,2-.19,2v-.26s.27,1.99.27,1.99v.07s0,.04,0,.04c.15,3.94.29,8.29.49,12.23v1.79s-.02-.22-.02-.22l.3,2,.22,2.01v.02s0,.11,0,.11c.1,3.21.52,7.29.49,9.92l.23,2.01v.18s.01,2.02.01,2.02v-.2s.23,2.01.23,2.01c-.01,2.82.04,3.6.15,6.16.3,2.77.18,5.54.36,8.07l-.02-.19.33,2.01c.02.12.03.25.02.36l-.1,2.03c-.09-1.15.21,1.78.21,1.71v.1s.02.11.02.11l-.03,1.99c.02.66.02,1.33.02,1.99v.14s-.19,2.02-.19,2.02v-.26c.06.71.1,1.42.16,2.14l-.03,2.03v.08s-.21,2.02-.21,2.02v-.07c-.02.67-.06,1.35-.09,2.02v-.07c.03.68.03,1.36.06,2.04,0,.28-.21.51-.49.52-.24,0-.44-.15-.5-.37-.18-.68-.42-1.35-.56-2.03-.22-1.11-.4-2.93-.45-4.1.04.48-.29-2.42-.23-1.82-.14-.74-.37-1.49-.42-2.24v-2.03s-.01.14-.01.14c-.07-.68-.14-1.36-.19-2.04l-.1-2.05.02.2-.34-2c-.02-.09-.02-.22-.02-.31l.06-2.03.02.36-.37-2c-.27-2.78-.06-5.48-.36-8.28-.07-2.05-.17-4.23-.1-6.19v.21s-.2-2.01-.2-2.01v-.03s-.01-.17-.01-.17l.04-2.02v.18s-.18-2.02-.18-2.02c.05-3.13-.29-7.4-.23-10.09-.05-1.13-.27-3.02-.38-4.14.13-4.54-.03-9.34.02-13.9v.11s-.18-2-.18-2v-.04s0-.21,0-.21l.26-2v.16s-.04-1.99-.04-1.99v.1s-.21-1.99-.21-1.99v-.14s.04-2.02.04-2.02l.15-2.01v.08c-.03-1.01-.01-3.01.04-4.02v.12s-.21-1.99-.21-1.99v-.03c.16-4.68.42-9.39.25-13.96h0s0-.08,0-.08l.19-1.98v.12s-.22-1.99-.22-1.99h0s0-.07,0-.07c0-1.89.03-4.12.29-6.02v.1s-.18-1.99-.18-1.99h0s0-.06,0-.06l.07-1.97-.07-1.97v-.08s.26-1.99.26-1.99v.12s-.23-1.99-.23-1.99v-.13s.28-1.99.28-1.99v.08c-.03-2.61-.19-5.38-.06-8v.06s-.11-1.99-.11-1.99v-.08c.39-5.13-.09-10.57.02-15.87l.02.23-.42-1.95c-.07-1.38-.1-2.76-.2-4.1-.16-1.33-.34-2.69-.46-4.06.01-1-.02-2.95-.06-3.95v.12s-.25-1.98-.25-1.98v-.22c.23-4.16-.37-9.82-.12-13.79l-.26-4v-.25s.01-.03.01-.03l.27-2v.39s-.26-2-.26-2c-.01-.1-.01-.2,0-.3l.19-2.02v.22s-.12-2-.12-2c0-.09,0-.18,0-.27l.27-2.01c-.16-2.06-.04-6.87-.02-9.82v-.16s.24-2,.24-2v.15c.08-3.65.14-9.07.36-11.84l-.17-2.01v-.15s.03-2.01.03-2.01v-.17s.25-1.95.25-1.95l.13-1.96v.14s-.07-4.01-.07-4.01c.03-.58.26-1.74.31-2.25l-.02.21.02-2v.14s-.14-2-.14-2v-.23c.11-1.34.23-2.69.38-4.03v.23c-.05-1.12-.15-3.2-.08-4.32l.35-2-.02.44-.2-2c-.01-.13-.01-.26,0-.39l.3-2-.02.33-.11-2c0-.09,0-.19,0-.28l.25-2v.16s.04-1.99.04-1.99v.12s-.09-2-.09-2v-.15s.09-1.99.09-1.99v-.12s.26-1.99.26-1.99c.06-1.51.03-6.26.26-7.75l-.02-2v-.19s.22-1.99.22-1.99v.14s.03-1.99.03-1.99v.17s-.16-2-.16-2c-.01-.13,0-.26.02-.39l.31-1.99-.02.28-.02-2v-.15s.17-1.99.17-1.99v.31s-.2-2-.2-2c-.01-.14,0-.29,0-.42l.29-1.99-.02.2.05-1.99v.16s-.14-2-.14-2c.12-1.94.23-4.95.35-5.99l-.13-1.99c.06-1.38.16-2.76.17-4.14-.29-2.1-.25-2.04-.19-4.48.23-2.36-.09-5.63-.13-7.09l-.4-1.96c-.1-1.45-.18-2.91-.3-4.35l.07-2v.19s-.15-2.04-.15-2.04l-.03-2.04v.17s-.23-1.99-.23-1.99c-.01-.1-.01-.2,0-.3l.13-2v.2c-.06-1.32-.14-2.63-.25-3.94.17-3.34-.18-6.79-.05-10.12v.26s-.26-1.99-.26-1.99c.02-2.85.02-5.4-.09-8.14v-.15s.13-2,.13-2v.27s-.21-1.99-.21-1.99c.01-1.21.14-2.43.08-3.65.06-3.39-.13-7.74,0-10.27l-.21-1.99v-.17s0-3.97,0-3.97v-.17s.26-1.99.26-1.99v.23s-.07-1.99-.07-1.99v-.05s0-.1,0-.1l.14-1.99v.24s-.21-1.99-.21-1.99c-.01-1.06.03-2.11.08-3.19.02-1.03.17-2.03.27-3.04v.23s-.16-2-.16-2v-.07s0-.19,0-.19l.31-1.98v.14c.02-1.34.06-2.66.14-3.97l-.02-3.95v-.07s0-.01,0-.01l.22-1.98v.08s-.03-2-.03-2c0-.28.22-.5.49-.51.26,0,.47.19.5.43Z"/>
      <path class="cls-2" d="M536.59,630.94l.23,1.99v-.06c.25,1,.62,2.93.76,3.95.22,1.01.53,2.96.64,3.98l-.03-.16.6,1.92.04.27.06,2.01c.24,1.26.75,3.9,1.2,5.69v.07s.27,1.98.27,1.98v-.1s.39,1.95.39,1.95v.03s.02.08.02.08l.24,1.98-.02-.14.42,1.95.02.15.21,1.94.34,1.92v.03s.01.08.01.08l.21,1.99-.02-.15.4,1.95.02.12v.06c.11,1.31.25,2.62.42,3.92l-.05-.3.57,1.93c.03.1.04.16.05.25l.57,3.95v.14s.15,2,.15,2l-.02-.21.35,1.96.02.13v.07s.16,2,.16,2l-.04-.28.44,1.95.03.22.21,1.99-.02-.18.4,2.03c.13,1.04.4,3.02.56,4.05l.18,2.06-.02-.16.33,2.02.25,2.03-.04-.23c.08.37.49,1.94.51,2.26.13,1.34.25,2.68.34,4.02l-.02-.2c.2,1.04.48,3.01.6,4.05l-.04-.25c.09.48.53,1.99.52,2.42v.04s.01,2.02.01,2.02l-.08-.6.54,1.95c.24,1.45.33,2.92.48,4.38l-.03-.2.36,1.97.02.14c.16,1.93.58,4.06.69,6.04l-.02-.2.34,1.98.02.19c.12,1.05.23,3.1.23,4.15l-.05-.42.4,1.96.03.19.23,2v.21s.05,2,.05,2l-.02-.29c.31,1.98.54,4.18.56,6.22l-.03-.3c.2,1.44.53,2.87.71,4.32v2.01s-.02-.32-.02-.32c.27,2.18.8,4.87.97,7.04.14,2.34.28,4.66.74,6.95l.17,1.99-.04-.23c.23,1.03.57,3.09.68,4.13.12,1.05.24,3.12.25,4.17l-.02-.24c.14,1.02.31,2.05.37,3.05.07,1.03.19,1.98.29,2.97l-.04-.23c.04.13.47,2.09.48,2.17l.24,1.98v.06s.02.11.02.11l.07,2-.03-.26c.2,1.03.49,3.05.61,4.08v.18s.03,2.01.03,2.01l-.04-.34c.27,1.42.56,2.84.75,4.27l.02,2.01c.19.98.73,5.93.98,7.76v.04s.01.09.01.09l.09,2.01-.03-.24.38,1.97v.04c.16,1.38.25,2.77.34,4.15l-.03-.2c.23,1.01.57,3.06.7,4.09v.14s.04,2.01.04,2.01l-.03-.27.4,1.97c.17,1.38.28,2.78.38,4.17l-.02-.12.33,1.98v.05s.02.08.02.08c.12,2.62.55,5.38.7,7.99l-.03-.16.42,1.97.02.16.15,2v-.09s.29,1.98.29,1.98v.04s.01.07.01.07l.11,2c.73,4.03,1.29,9.37,1.71,13.84v.1s-.03,1.97-.03,1.97l-.13,1.97v.02s0,.04,0,.04l-.29,1.94v-.15s.09,1.96.09,1.96v.14s-.27,1.94-.27,1.94v-.1s0,1.96,0,1.96v.14s-.39,1.93-.39,1.93v-.12c-.03,1.33-.01,2.65,0,3.98-.26,2.36-.64,5.41-.51,7.72l-.12-.34,1.13,1.54-.03-.04,2.56,2.93-.05-.05c1.94,1.59,3.86,3.96,5.42,5.61.69.55,2.25,2.02,2.89,2.67l.03.04,1.26,1.51-.05-.05,2.93,2.6-.06-.04c1.6.93,3.27,2.41,4.74,3.55l-.07-.05,1.69.97.04.03h.01s1.59,1.16,1.59,1.16l-.14-.08,1.83.69-.07-.02,1.93.46-.11-.02,1.98.12h.03s2,.27,2,.27l1.96.35c1.27-.02,4.08-.07,5.84,0l-.21.02,1.95-.45h.08s.03-.02.03-.02l1.97-.19-.11.02c.96-.24,2.93-.65,3.91-.83l-.15.04,1.87-.69-.21.1,1.66-1.1-.19.16,1.36-1.47-.27.5.45-2.06.57-2.03-.04.24.13-2.06v-.08s.01-.03.01-.03l.32-2.06v.31s-.23-2.07-.23-2.07v-.11s.02-2.1.02-2.1l.02.23-.36-2.05v-.08s-.01-.01-.01-.01l-.21-2.04-.27-2.04.05.22-.64-1.98.2.39-1.22-1.56c-.52-.54-1.84-1.83-2.73-2.73l-1.25-1.51.17.17-1.51-1.26-.16-.15-1.26-1.52c-.49-.47-1.85-1.54-2.83-2.39-1.18-1.25-3.39-3.19-4.17-4.1l-1.59-1.17-.04-.03c-1.45-1.38-2.93-2.7-4.44-4.03-.15-.14-.23-.33-.22-.52.05-1.34.07-2.69.06-4.04l.14-2.03v.08s-.16-2.01-.16-2.01v-.02s0-.04,0-.04c0,.02.11-6.17.1-6l-.22-4.02v-.05c.05-1.11.12-2.41.06-3.48-.15-2.81-.1-6.01-.25-8.76-.22-1.57-.24-3.26-.19-4.82.06-.85,0-2.38.03-2.94l-.24-2v-.11s.09-2.01.09-2.01v.13s-.28-2-.28-2c0-1.37.02-2.74-.01-4.1-.08-1.02-.11-3.03-.1-4.05v.06s-.17-2.01-.17-2.01v-.11s.1-2.02.1-2.02v.13s-.22-2-.22-2v-.11s0-.03,0-.03l.09-2.02c-.11-3.35-.44-8.87-.34-11.88l-.3-2v-.08s0-.03,0-.03l-.09-2.01v-.11c.06-.99.14-2.98.12-3.97v.15c-.14-1.01-.32-3.06-.35-4.08v-.08s0-.03,0-.03l.07-2.02v.09c-.04-1.98-.26-4.14-.11-6.12-.09-1.42-.09-4.09-.24-5.86l-.25-1.95c-.01-.11-.01-.21,0-.31l.18-2.02v.33c-.44-2.71-.39-5.62-.51-8.33v-.06s.17-2.02.17-2.02v.35s-.26-2.01-.26-2.01v-.15c-.04-.82-.16-3.76-.12-4.62l.06-1.55v.26s-.23-2.01-.23-2.01c-.01-.11-.01-.23,0-.34v-.03s.21-2.02.21-2.02v.27s-.16-3.02-.16-3.02c.02-1.14-.28-2.27-.23-3.4l.32-2.02-.02.18c.22-2.59,0-5.67.37-8.25l.32-2.06-.02.24c0-1.55.14-3.06.19-4.58l.02-1.5v-.19s.28-2.02.28-2.02v.25s-.03-2.04-.03-2.04v-.23s.26-1.97.26-1.97l.15-2,.43-4.07v.16s.02-2.04.02-2.04v-.09s.01-.12.01-.12l.32-2.01c-.03-1.57.39-5.86.67-8.14l.5-2.01-.02.22.05-2.05v-.12s0-.04,0-.04l.45-1.98.36-2c.05-.27.31-.45.58-.41.24.04.41.25.41.49v2.07s-.12,2.07-.12,2.07v-.16s.24,2.04.24,2.04v.09l-.02.13-.24,2.04c.08.75-.02,2.7-.01,3.92l.12,4.03v.06s-.01.11-.01.11l-.17,2.03v-.21s.1,2.04.1,2.04v.16s-.26,4.04-.26,4.04l-.09,2.06-.23,2.07c.03-1.02.04,1.96.06,1.81v.25s-.26,2.02-.26,2.02v-.21c.05,2.04-.19,4.12-.21,6.12l-.02.24-.32,1.96-.21,1.98c.05-.96-.06,3.18-.04,2.9.03,1.63-.18,3.68-.49,5.3v-.45c.22,1.73.29,4.42.35,6.19v.24s-.25,2.02-.25,2.02v-.37s.2,2.02.2,2.02v.03s0,.24,0,.24l-.08,1.47c-.04.87.02,3.51.04,4.45v-.15s.22,2.01.22,2.01c.07.03-.21,2.24-.22,2.37,0,1.08.04,4.07.08,5.83v-.12c0,.27.25,2.13.2,2.34l-.23,2.02v-.31c.34,2.64.25,5.56.28,8.18v.03s0,.07,0,.07l-.12,2.01v-.12c.08,1.97.12,4.17-.05,6.15,0-.52.05,1.92.06,1.86l.17,1.97v.03s0,.11,0,.11l-.07,2.04-.16,2.03v-.11s.03,2.01.03,2.01v-.11s.23,2.01.23,2.01v.03c-.15,4.07-.02,8.12,0,12.2v.04s-.15,2.01-.15,2.01v-.14s.16,2.01.16,2.01v.13s-.16,2.01-.16,2.01v-.11l.11,2.01c-.07,2.46.09,5.96-.06,8.01l.24,2.02v.11s-.13,2.01-.13,2.01v-.11s.2,2.01.2,2.01c-.02,2.66-.3,5.29.04,7.82.14,2.8.02,6.02.15,8.83.06,1.17-.04,2.41-.1,3.55.03,1.01.14,2.74.21,3.97-.03,2.74-.17,5.45.2,8.07-.14,1.92.07,4.04.08,6.03l-.26-.55c1.43,1.18,3.46,2.72,4.52,3.69l1.65,1.08c2.07,1.79,3.99,3.61,6.05,5.1l1.54,1.25.11.1.03.03,1.31,1.47-.16-.15,1.54,1.22.17.17,1.27,1.5-.08-.09c1.53,1.52,3.25,2.95,4.31,4.83l.63,1.99.05.22.26,2.08.2,2.09v-.09s.33,2.07.33,2.07v.22s-.05,2.08-.05,2.08v-.14s.17,2.1.17,2.1c0,.09,0,.19-.01.28l-.37,2.05v-.11s-.16,2.06-.16,2.06l-.04.24-.61,1.95-.5,1.98v.04c-.05.18-.15.34-.27.46l-1.41,1.42-.03.03-.17.13-1.7,1.04-.03.02-.18.08-1.89.62c-1.04.2-2.99.49-4.02.72h-.03s-.08.02-.08.02l-1.97.13.11-.02-1.96.38c-2.08-.09-4.17-.09-6.27-.19-.97-.24-2.88-.58-3.86-.73h.05s-1.98-.18-1.98-.18l-.11-.02-1.93-.53c-.12-.03-1.91-.78-2-.84l-1.56-1.2.05.04-1.68-1-.07-.05c-1.52-1.24-2.98-2.56-4.61-3.56l-.06-.04-2.92-2.61-.05-.05-1.27-1.51.03.04c-.69-.7-2.1-2-2.85-2.63-1.35-1.44-2.66-2.9-4.03-4.3l.04.03-1.48-1.28-.04-.04h0s-2.6-2.9-2.6-2.9l-.03-.03-1.15-1.53c-.08-.1-.11-.22-.11-.34-.08-1.62-.04-3.36.13-4.94l.27-2.93c-.03-1.05-.1-2.66-.05-3.97l.33-1.94v.13s-.06-1.96-.06-1.96v-.08s.23-1.97.23-1.97v.13s-.14-1.96-.14-1.96v-.15s.25-1.95.25-1.95v.06c.06-.99.09-2.88.06-3.86-.48-4.08-1.19-9.32-2.12-13.75v-.04s-.18-2-.18-2v.11s-.36-1.97-.36-1.97v-.09s-.23-1.99-.23-1.99l.02.16-.49-1.95-.03-.16c-.08-1-.33-2.95-.51-3.93-.29-2.14-.38-3.94-.85-5.87-.24-2.18-.41-3.95-.95-5.88l-.03-.27-.1-2.01.02.19c-.15-.98-.54-2.89-.79-3.85-.24-2.27-.35-3.93-.88-5.95l-.03-.24-.15-2c-.06-.65-.47-2.7-.59-3.83l-.64-3.95-.02-.14v-.07s-.09-2.01-.09-2.01l.03.29c-.24-1.41-.64-2.81-.86-4.22l-.08-2.01.02.23c-.13-1.07-.54-3-.73-4.05v-.07s-.14-2-.14-2l.02.17-.3-1.97.04.21c-.49-1.66-.78-3.48-.93-5.17-.07-1.07-.31-2.09-.43-3.14-.02-.95-.17-2.88-.29-3.82l-.28-1.86-.41-1.89-.04-.24-.21-1.99.03.19-.34-1.78c-.47-2.91-.45-5.78-1.01-8.68l-.52-3.48c-.02-.11-.02-.21-.02-.32l-.02-2.01.04.4c-.25-1.42-.55-2.84-.73-4.28,0-.59-.09-2.22-.17-2.85-.06-1.01-.3-2.09-.4-3.14l-.05-2,.02.23-.24-1.98.03.19-.39-1.97c-.03-.14-.04-.29-.05-.42l-.03-1.93-.16-1.92c-.25-1.33-.32-1.73-.44-3.42-.17-1.39-.48-3.6-.5-4.3-.4-1.89-.54-4.19-.75-6.12l.07.37-.53-1.95c-.05-.2-.08-.41-.08-.6v-2.02l.06.5-.43-1.96c-.15-1.2-.31-2.87-.53-4.12-.1-1.39-.16-2.78-.28-4.16l.05.31-.42-1.96-.04-.23-.2-1.95-.28-1.94v-.04s-.02-.12-.02-.12l-.13-1.94-.25-1.95-.19-1.95-.31-1.91v-.07s-.02-.11-.02-.11l-.15-2,.03.22-.37-1.97-.04-.28-.08-2,.02.2-.29-1.97v-.06s-.02-.15-.02-.15l-.07-2v.14s-.42-3.98-.42-3.98l.05.25-.49-1.95c-.02-.09-.05-.21-.05-.3-.11-1.34-.19-2.69-.23-4.04l.02.19-.31-1.97v-.08s-.02-.08-.02-.08l-.12-2v.11s-.25-2.03-.25-2.03l-.13-2.04.02.15-.32-1.97v-.07s-.02-.06-.02-.06l-.12-1.99.02.11-.29-1.98v-.08s-.01-.02-.01-.02c-.09-2.54-.77-5.08-.98-7.86v-.07s-.01-.08-.01-.08l.09-2.01.04.27-.46-1.96-.02-.06v-.09s-.12-1.97-.12-1.97l-.22-1.97-.14-1.99-.27-1.96v-.05s0-.01,0-.01l-.05-2c0-.28.21-.51.49-.51.26,0,.48.19.51.44Z"/>
      <path class="cls-2" d="M548.88,547.56c1.66-.57,4.71-1.26,5.76-1.55l1.9-.8.13-.04.14-.02,2.02-.33-.24.05c.73-.24,1.44-.55,2.19-.71l2.03-.29-.31.07c.73-.26,1.46-.57,2.21-.75l2.03-.31-.16.03c.66-.17,1.32-.35,1.98-.5,1.35-.47,4.09-1.26,5.96-1.52l-.22.07,1.94-.67.16-.06h.04c2.1-.24,3.77-.66,5.87-1.23.27-.07.55.1.61.37.05.21-.04.42-.21.54-.59.4-1.18.81-1.79,1.15-.65.31-1.29.67-1.96.94l-1.96.65.2-.06-1.84.92c-1.46.43-3.06.91-4.5,1.41-1.14.43-2.51.82-3.69,1.06l-2.04.26.28-.07c-.75.23-1.5.52-2.27.69l-2.04.16.25-.05c-.74.19-1.47.4-2.22.55l-2.05.12c1.06-.26-1.82.5-1.72.48l-.15.04c-1.81.24-4.33.3-6.17.39-.57.04-.73-.83-.17-.99Z"/>
      <path class="cls-2" d="M483.29,545c1.75.25,4.76.87,5.86,1.26l4.03.49.09.02,1.98.43c1.31.24,3.1.32,4.86.49,1.78.21,3.35.33,5.13.72l-.22-.03c.7.02,1.4.06,2.09.1.69.09,1.38.25,2.07.38h-.23c1.53-.02,2.75.13,4.22.63h-.14c.68.09,1.36.2,2.04.36.28.06.45.34.38.62-.04.19-.19.33-.37.38-.67.18-1.35.33-2.02.45-.73,0-1.46.02-2.18,0h.2c-.71.09-1.41.22-2.12.25-1.59-.15-2.48-.19-4.05-.24l-2.22-.43c-1.38-.12-4.05-.59-5.87-.73-1.26-.19-2.92-.65-4.15-1.04-.84-.17-2.82-.62-4.03-.91-1.58-.72-3.99-1.59-5.62-2.21-.55-.2-.32-1.08.26-.96Z"/>
      <path class="cls-2" d="M582.1,452.42l-.23,1.96v.13s.28,1.9.28,1.9l-.23,1.9v.06s0,1.97,0,1.97v.04s.16,1.94.16,1.94l-.06,1.93.5.02-.5-.02-.09,1.96v.06s.13,1.92.13,1.92l-.23,1.92v.11s.19,1.93.19,1.93l-.09,1.93v.05s.12,1.94.12,1.94l-.14,1.93v.08s.17,1.95.17,1.95v1.93s-.12,1.96-.12,1.96v.04s.04,1.94.04,1.94l-.22,1.93v.06s0,1.97,0,1.97v.04s.18,1.93.18,1.93l-.15,1.93v.07s.11,1.97.11,1.97l.5-.03h-.5s.03,1.98.03,1.98h0s.05,1.98.05,1.98h0s.07,1.94.07,1.94l-.24,1.93v.1s.14,1.94.14,1.94l-.1,1.94v.05l.1,1.97h0s.16,1.96.16,1.96l.03,1.92-.18,1.99v.03s-.08,2.01-.08,2.01v.06s.16,1.97.16,1.97l-.13,1.98v.08s.18,1.97.18,1.97l-.16,1.97v.04s0,2.01,0,2.01v.02s.09,1.99.09,1.99l-.08,1.99v.03s.04,2.01.04,2.01h.5s-.5,0-.5,0v2.01s.51,0,.51,0h-.5s-.02,2.01-.02,2.01h0s.03,2.02.03,2.02v.03s.14,1.96.14,1.96l-.15,1.98v.07s.12,2.01.12,2.01l.5-.03-.5.02.08,2.01.08,2.01h0s.12,2.02.12,2.02l.5-.03-.5.02.08,1.99-.1,2v.09s.25,1.96.25,1.96l-.11,1.98v.06l.12,2.01.12,2.01v.04s.28,2,.28,2l.26,1.97v1.99s.01.08.01.08l.31,1.98.17,1.99v.04s.35,1.97.35,1.97l.21,1.97.12,2v.07s.42,1.95.42,1.95l.31,1.97.21,1.99.02.1.62,1.9.44,1.93.35,1.97v.05s.57,1.93.57,1.93c.08.27.35.42.62.34.26-.08.42-.35.34-.62l-.55-1.9-.34-1.95v-.02s-.45-1.96-.45-1.96v-.04s-.62-1.87-.62-1.87l-.2-1.96v-.03s-.32-1.99-.32-1.99v-.03s-.42-1.94-.42-1.94l-.11-1.97v-.02s-.21-2-.21-2v-.03s-.35-1.97-.35-1.97l-.17-1.98v-.03s-.31-1.96-.31-1.96v-1.98s0-.06,0-.06l-.27-2-.27-1.99-.11-1.98-.12-1.98.11-1.99v-.09s-.25-1.96-.25-1.96l.1-1.98v-.04l-.08-2.01h0s-.12-2.02-.12-2.02l-.5.03.5-.02-.08-2.01-.08-2.01h0s-.12-1.99-.12-1.99l.15-1.97v-.07l-.14-1.99-.03-2h-.5s.5.01.5.01l.02-2.01h0s-.01-2.02-.01-2.02h0s-.04-2-.04-2l.08-2v-.04l-.09-2v-1.98s.15-1.99.15-1.99v-.09s-.18-1.97-.18-1.97l.13-1.97v-.07s-.16-1.98-.16-1.98l.07-1.98-.5-.02.5.05.18-2.01v-.05s-.03-1.96-.03-1.96v-.03s-.16-1.96-.16-1.96l-.5.04.5-.03-.1-1.94.1-1.94v-.06s-.15-1.92-.15-1.92l.23-1.92v-.08s-.06-1.97-.06-1.97h0s-.05-1.97-.05-1.97h-.5s.5,0,.5,0l-.03-1.97v-.02s-.11-1.94-.11-1.94l.15-1.94v-.08s-.18-1.96-.18-1.96v-1.92s.21-1.94.21-1.94v-.07s-.04-1.95-.04-1.95l.11-1.94v-.03s0-1.97,0-1.97v-.05s-.17-1.93-.17-1.93l.13-1.93v-.07s-.12-1.94-.12-1.94l.09-1.94v-.07s-.19-1.91-.19-1.91l.23-1.91v-.09s-.13-1.94-.13-1.94l.09-1.93h0s.06-1.97.06-1.97v-.06s-.16-1.94-.16-1.94v-1.92s.23-1.94.23-1.94v-.13s-.28-1.9-.28-1.9l.22-1.9c.03-.27-.16-.52-.44-.55s-.52.16-.55.44Z"/>
      <path class="cls-2" d="M548.8,563.19c1.76-.55,4.47-1.5,5.79-1.71,1.14-.44,2.82-.85,4.04-1.09l-.24.06c.7-.27,1.4-.56,2.11-.77l3.93-.9c-.81.25,1.82-.65,1.73-.62,2-.48,3.93-1.05,5.93-1.59l.12-.03,2.01-.38-.28.1,1.92-.71.13-.05c2.7-.71,5.24-1.35,7.81-2.03.53-.16.88.61.42.91-1.39,1.06-2.96,1.75-4.49,2.56-.9.49-1.86.89-2.83,1.28l.13-.05-1.81.95-.28.1-1.97.54.12-.03c-2.74,1.04-5.38,1.63-7.92,2.46-1,.22-3.03.57-4.04.7l.2-.05c-.66.18-1.31.38-1.97.55-.07.07-2.11.22-2.27.25-.77.16-2.85.43-4.08.38-.88.11-2.82.26-4.06.18-.55,0-.68-.84-.15-.99Z"/>
      <path class="cls-2" d="M484.07,559.72c2.14.28,6.62,1.11,7.57,1.38.76.03,1.53-.03,2.28.09,1.14.26,2.72.56,3.85.78l-.18-.03c4.06.39,8.08,1.21,11.74,2.01,1.94.21,3.99.79,5.89,1.24.52.12.48.93-.05,1-1.2.25-3.08.3-3.99.31-2.2.24-4.46.07-6.62-.21-2.44-.14-5.09-.58-7.48-.89-1.18-.25-2.8-.73-3.96-1.1l.27.05c-.66-.08-1.33-.19-1.99-.3-2.6-.81-5.25-2.04-7.63-3.38-.47-.25-.22-1.03.31-.95Z"/>
      <path class="cls-2" d="M531.74,579.35l.59,1.97v.06s.31,2,.31,2v.07s.11,2.03.11,2.03l-.02-.17.5,1.97c.13,1.05.43,3.04.63,4.07l.5,4.04v-.09s.39,1.98.39,1.98v.08c.11,1.17.33,3.2.41,3.94l.4,1.99-.03-.11.55,1.96c.23,1.08.51,3.14.6,4.24.27,1.12,1.05,4.1,1.13,5.89l-.05-.21c.17.66.36,1.31.52,1.97.13.73.1,1.49.14,2.23l-.03-.13c.13.67.24,1.34.32,2.02.04.28-.16.53-.44.57-.21.03-.41-.08-.51-.26-.34-.6-.65-1.21-.94-1.82-.2-.7-.4-1.4-.57-2.11l.05.18c-.29-.63-.57-1.28-.84-1.92-.38-2.15-1.03-3.83-1.47-6.15-.07-.99-.32-2.96-.5-3.94.15.62-.52-1.92-.5-1.83l-.03-.11c-.39-1.91-.56-4.51-.63-6.05l-.31-2v-.06s-.01-.04-.01-.04l-.28-4.01c-.12-1-.29-3.04-.34-4.05v.1s-.29-2.01-.29-2.01v-.08s-.02-.08-.02-.08l.1-2.03v.07s-.1-2.02-.1-2.02c.06.36-.33-2.01-.31-1.94-.1-.59.8-.82.97-.22Z"/>
      <path class="cls-2" d="M588.44,645.77s4.18,1.38,4.02,1.33c1.08.28,3.04.68,4.17.83,1.82-.03,4.34.13,6.4.17l-.49.4.31-2.03v-.05s.54-1.95.54-1.95l-.02.07.23-1.99c.49-2.65,1-5.31,1.18-7.89.71-3.28,1.22-6.59,1.76-9.9v.12s.02-2.02.02-2.02l.02-.16.39-1.97-.02.09.41-4.02c.55-2.8.97-6.02,1.26-8.86.14-1.03.1-2.11.22-3.15l.44-1.96-.03.19.13-2.03.23-2.02v.17s-.03-2.01-.03-2.01c.12-1.05.36-2.11.48-3.15.15-.96.22-1.95.33-2.93v.12s.01-2,.01-2l.02-.2.35-2-.02.26-.02-2v-.12s.28-3.02.28-3.02c.06-.8.27-2.21.42-3.03l-.02.18.08-2.01.02-.17.33-1.98c.1-1.63.26-5.99.52-7.78.1-2.28.24-5.6.17-7.91v-.22s.33-1.98.33-1.98v.14s.09-1.99.09-1.99v.17s-.16-2-.16-2v-.03s.04-2.13.04-2.13c.36-3.74.07-7.86-.25-11.85.03-2-.23-4.14-.18-6.14l.14-2.01v.09c-.1-1.73,0-4.33.06-6.08v.11s-.18-2.02-.18-2.02v-.08s.02-3.02.02-3.02c0-.82.06-2.56.11-2.92l-.18-2.2.25-2.01v.14c-.04-.99-.16-3-.27-3.99-.01-.95.16-3.49.24-4.1v-2.01s.02.09.02.09l-.19-2.01v-.06s0-.01,0-.01l-.02-2.02v-.09s.19-2.03.19-2.03v.21s-.25-2.02-.25-2.02c0-.58.2-1.76.24-2.26v.1s.04-2.01.04-2.01v.16s-.27-2.01-.27-2.01v-.16s.01-2.01.01-2.01v-.11s.27-2.03.27-2.03v.14s-.02-2.01-.02-2.01v.09c-.11-1.04-.26-3.12-.28-4.17v-.04s.14-2.01.14-2.01v.13s-.08-2.01-.08-2.01v-.12s0-.04,0-.04l.18-2.01v.23c-.2-1.56-.28-3.61-.18-5.2.35-3.87-.14-7.88-.51-11.93-.14-3.11-1.01-5.67-1.42-8.93l.03.14c-.27-.94-.74-3.07-.92-4.04l.05.19-.63-1.9c-.63-1.65-1.42-4-2.14-5.62l.11.23-1.03-1.75-.06-.11-.89-1.87.21.34-1.27-1.6.31.3c-.81-.57-2.48-1.95-3.25-2.6l.56.32-3.81-1.31-.24-.1-1.81-.93.47.16-1.99-.4-.25-.07-1.96-.69c-2.42-1.15-4.87-1.66-7.69-2.5l-1.88-.76.3.09-1.98-.44h-.04c-.1-.03-.21-.07-.3-.11l-1.86-.82.21.08-1.94-.58-.06-.02-.06-.02-1.88-.74.29.08-2-.4c-.78-.21-1.47-.66-2.21-.99-.96-.42-4.12-1.47-5.63-1.99-1.18-.58-2.72-1.22-3.61-1.76-1.24-.53-2.48-1.08-3.7-1.67-.25-.12-.36-.42-.24-.67.1-.21.34-.32.56-.28,2.47.37,5.8,1.47,7.75,2.05,2.7.55,5.46,1.11,8,2.21l-.37-.11,2.02.28.19.04.1.03,1.92.63-.12-.04,1.96.53.21.08,1.88.78-.34-.11,1.99.4c.09.02.18.05.27.08h.03s1.88.76,1.88.76c.58.25,2.98.74,4.23,1.18l1.48.49.14.05,1.81.77,1.85.65-.25-.07,1.99.4c.17.03.33.09.47.17l1.81.93-.24-.1c.48.23,4.1,1.33,4.39,1.68.75.69,2.29,1.92,3.09,2.54.11.09.22.19.31.3l1.26,1.61c.08.11.16.23.21.34l.85,1.86-.07-.14,1,1.76.02.03.1.2.74,1.94c.57,1.76,1.41,4.09,1.92,5.87l.05.19.35,1.97.44,1.95v.03c.28,2.09.58,4.12,1,6.18.39,5.07.97,10.26.44,15.36-.1.76-.07,2.51-.11,2.85,0,.26.17,2.07.14,2.25l-.24,2.01v-.15s.03,2.01.03,2.01v.13s-.2,2.01-.2,2.01v-.14c0,1.05.1,3.03.17,4.08l-.04,2.01v.14s-.3,2.01-.3,2.01v-.13s-.04,2.01-.04,2.01v-.16s.24,2.03.24,2.03v.15s-.06,2.01-.06,2.01h0s0,.1,0,.1l-.27,2.01v-.25s.23,2.04.23,2.04v.2s-.21,2.01-.21,2.01c.01-.56,0,2.32,0,1.84l.16,2.02h0s0,.09,0,.09l-.04,2.03v.07s-.21,1.98-.21,1.98l-.09,1.99v-.11c.08,1.09.22,3.12.21,4.21l-.25,2.01v-.19s.2,2.01.2,2.01v.12c-.08,1.73-.09,4.24-.08,6-.03-.45.2,2.02.2,1.92v.11c-.04,1.71-.12,4.28,0,5.97v.08s0,.01,0,.01l-.11,2.01v-.08c0,1.45.21,3.04.29,4.49.2,3.64.74,7.7.74,11.61-.08.96-.13,2.95-.1,3.91v-.13s.22,1.99.22,1.99v.17s-.04,1.99-.04,1.99v.1s-.01.04-.01.04l-.26,1.99v-.22s.14,4.05.14,4.05c-.05.98-.11,3.03-.14,4.01-.29,2.57-.31,5.22-.48,8l-.02.16-.31,1.98.02-.18-.06,2c-.31,1.82-.52,4.65-.7,5.9v2s-.03.26-.03.26l-.38,1.97.02-.23-.05,2c-.16,1.85-.65,5.02-.89,5.91l-.02,2.01v.17s-.29,1.95-.29,1.95l-.19,1.96-.03.19-.5,1.95.03-.21c-.27,3.88-1.09,8.46-1.89,11.93l-.56,3.96v.04s-.02.05-.02.05l-.47,1.95.02-.16-.11,2.01v.04c-.68,3.31-1.3,6.63-2.11,9.9-.14,1.88-.95,5.76-1.42,7.82l-.29,2v.06s-.58,1.93-.58,1.93c.05-.23-.34,2-.33,1.97-.04.24-.25.42-.49.4-2.83-.2-5.82-.05-8.63-.6l-2.1-.48h-.03s0,0,0,0l-4.08-1.25c-.26-.08-.41-.36-.33-.62.08-.27.37-.42.64-.33Z"/>
      <path class="cls-2" d="M583.63,539.95l.16,2.02-.02-.13.57,1.94v.03s.01.04.01.04l.35,1.97.43,1.95v.05s.01.05.01.05l.18,1.98c.11,1,.43,2.96.62,3.94l.25,2.02v.03s0,.04,0,.04l.1,2.02v-.12c.14,1,.51,2.94.72,3.93l.02.2.02,2.02-.02-.23.43,1.98.02.15v.03s.12,2.01.12,2.01v-.1s.27,2,.27,2c.01.1.12,2.1.11,2.21l-.05,2.03c-.05-.72.22,1.93.22,1.82l.31,1.97-.05,2.23c.41,2.28.63,7.41.43,9.95.16,1.46.2,5.07.18,5.97l.3,2.02v.13s.05,2.02.05,2.02c-.14,1.8-.19,4.29-.22,6.1v-.11s.15,2.05.15,2.05v.09s-.06,2.01-.06,2.01v-.07c.07,1.04.09,3.01.03,4.07-.04,2.11.16,3.97-.18,6.12.03,2.02.08,5.52-.14,7.98.14,2.07.01,5.5.07,7.94-.09,1.3-.19,2.9-.24,4l.06,2.02v.05s-.22,2-.22,2v-.09s.1,1.97.1,1.97c.01.28-.2.51-.47.52-.27.01-.5-.19-.52-.45l-.19-1.96v-.09s.13-2,.13-2v.08s-.13-2-.13-2c0-1.23.05-3,.1-4.01-.07-1.02-.13-3-.13-4.02-.04-1.35-.14-2.7-.22-4.06l.1-2.01v.07c-.08-2.05-.05-4.09-.13-6.12l.18-2.01c-.07-.74-.11-2.71-.13-3.93.03-1.29-.03-2.79-.12-4.04l.02-2.01v.11s-.19-2.02-.19-2.02v-.11c.01-1.83.03-4.32.17-6.12v.09s-.06-2.02-.06-2.02c.08.63-.31-1.97-.3-1.87v-.14c-.05-1.74-.06-4.28-.24-5.99.15-3.5-.02-6.65-.51-10.18l.05-2.02v.22c-.18-1-.46-3.05-.54-4.06v-.16s.06-2.03.06-2.03v.09s-.09-2.02-.09-2.02v.1s-.26-2-.26-2h0s0-.1,0-.1l-.08-2.02.02.18-.4-2.01-.02-.21.02-2.02.02.2c-.2-1-.51-3.05-.62-4.07v-.08s-.02-2.02-.02-2.02c.02.31-.16-1.96-.16-1.91-.28-1.78-.52-4.26-.54-6.07v.1s-.3-2.01-.3-2.01l-.22-2.02v.07s-.42-1.98-.42-1.98v-.04s-.02-.08-.02-.08l.02-2.03c0-.28.23-.5.51-.5.26,0,.47.21.49.46Z"/>
      <path class="cls-2" d="M515.25,546.4c.52,2.57.73,5,1.34,7.67.06,1.24.24,2.95.38,4.2v.05s0,.16,0,.16l-.06,2.08v-.26c.26,2.07.37,4.18.62,6.24v.04s.06,2.07.06,2.07v-.16s.22,2.01.22,2.01l-1.71-1.67c1.87.21,3.56.13,5.63.29,1.18.14,2.75.35,3.93.41h-.2s1.96-.06,1.96-.06h.12s1.96.09,1.96.09c1.22,0,4.33-.03,5.91-.15l1.97.21h-.13s1.96-.09,1.96-.09l-.13.02c.66-.14,1.32-.29,1.98-.45h.12s1.98.01,1.98.01c1.36-.22,3.97-.82,5.76-1.12l-.41.51c-.05-.98-.1-1.96-.18-2.95-.07-.74-.17-2.22-.22-2.96-.05-.25-.29-1.31-.4-1.85-.21-1.58-.55-4.8-.59-5.89-.2-1.16-.43-2.79-.59-3.94v-.14s0-1.97,0-1.97v.3c-.11-.72-.27-1.45-.33-2.18l-.02-1.97,2.03,1.7c-2.6.47-5.38.85-8.04.7l-1.92.03.19-.02-1.94.26h-.07c-.12.07-2.05-.16-2.23-.15h.29s-1.95.17-1.95.17h-.09s-1.97.04-1.97.04h-.1c-1.68-.21-4.67-.3-5.71-.5l-1.96.09h-.12s-.11,0-.11,0l-1.94-.34c-1.12-.03-3.77-.13-5.31-.57ZM514.56,545.68c1.93-.36,4.12-.38,6.09-.59h.01s.11,0,.11,0l1.97.1h-.23s1.94-.3,1.94-.3h.05c1.99.02,4-.1,6,0h-.16s1.95-.17,1.95-.17h-.11s1.94-.29,1.94-.29c.16-.06,2.04.09,2.25.07l-.34.02,1.93-.34h.12s.07-.02.07-.02l1.99-.11c2.44.08,4.82-.24,7.49-.77.93-.17,1.82.45,1.99,1.38.02.1.03.22.03.32l-.02,1.97-.02-.23c.07.65.16,1.31.21,1.96v.3s-.17,1.96-.17,1.96v-.19c.02.65.01,1.31.02,1.97v1.97c-.2,1.98-.33,3.94-.37,5.95.16,1.23.12,3.35.12,4.9l.11,2.95c0,.25-.17.47-.41.51-2,.33-3.93.94-5.92,1.37l-1.98.12.17-.02c-.68.19-1.33.46-2.01.64l-1.96.32h-.11s-1.98.04-1.98.04c-.84.27-4.29.72-5.8.92l-1.96.13h.12s-1.94.27-1.94.27c-.74.02-1.48.02-2.22.02-1.86-.16-3.73-.12-5.76-.1h-.1s-.04,0-.04,0l-1.82-.13c-.92-.06-1.63-.78-1.71-1.67l-.19-2.02v-.04s0-.12,0-.12l-.02-2.07v.14c-.22-2.13-.17-4.37-.29-6.48l.26-2.06v.21s-.02-2.1-.02-2.1c.03-.7.08-1.4.13-2.1v.16c-.17-2.84-.21-6.02.6-8.73Z"/>
      <polygon class="cls-2" points="587.79 646.41 587.34 648.27 586.78 650.15 586.26 652.04 585.69 653.92 585.16 655.81 584.94 657.78 584.34 659.66 584.01 661.6 583.64 663.54 583.31 665.48 582.75 667.38 582.62 669.35 582.64 671.3 582.74 673.31 582.76 675.31 582.65 677.33 582.91 679.33 583.02 681.33 582.96 683.35 583.14 685.38 584.8 685.54 586.16 684.83 586.78 683.38 586.97 681.22 587.6 679.14 587.82 676.99 588.41 674.89 588.46 676.94 588.48 678.98 588.6 681.02 588.38 683.07 588.39 685.1 588.16 687.19 587.61 689.23 587.19 691.3 586.72 693.36 586.36 695.44 586.08 697.55 588.2 699.43 589.21 700.56 590.6 701.2 592.2 700.12 593.35 698.56 594.63 697.1 595.58 695.4 596.69 693.81 597.64 692.12 598.72 690.52 599.58 688.78 600.29 686.99 601.2 685.27 601.72 683.39 602.55 681.63 603.06 679.75 603.38 677.83 603.58 675.93 603.56 674.04 603.43 672.14 603.48 670.25 603.32 668.35 603.34 666.46 603.18 664.56 603.17 662.67 603.17 660.76 603.35 658.86 603.38 656.96 603.17 655.06 603.16 653.16 603.32 651.26 603.31 649.36 603.21 647.46 601.33 648.08 599.36 648.1 597.4 648.14 595.45 647.92 593.47 647.85 591.58 647.28 589.63 646.95 587.79 646.41"/>
      <polygon class="cls-2" points="480.42 646.68 480.88 648.65 481.21 650.58 481.55 652.51 481.81 654.46 482.1 656.4 482.67 658.3 482.82 660.26 483.2 662.2 483.5 664.15 483.77 666.1 483.72 668.08 483.93 670.03 484.03 671.99 483.9 674 483.66 675.99 483.26 677.97 483.2 679.99 482.97 681.98 482.56 683.95 482.36 685.91 480.78 686.15 479.28 685.4 478.89 683.76 478.65 681.62 478.69 679.45 478.19 677.34 478 675.22 477.85 677.24 477.67 679.28 477.59 681.32 477.17 683.33 476.98 685.38 477.49 687.46 477.66 689.56 477.94 691.65 478.15 693.76 478.4 695.85 478.51 697.92 476.45 699.58 475.6 700.99 474.01 701.22 472.57 700.04 471.32 698.57 470.42 696.85 469.27 695.27 468.39 693.55 467.4 691.88 466.61 690.11 465.89 688.31 465.15 686.53 464.7 684.64 463.93 682.85 463.59 680.94 463.06 679.07 462.59 677.18 462.63 675.25 462.93 673.37 463.04 671.48 463.29 669.6 463.32 667.7 463.52 665.81 463.53 663.91 463.68 662.02 463.85 660.13 464.17 658.24 464.36 656.35 464.29 654.44 464.43 652.55 464.73 650.66 464.86 648.77 464.89 646.89 466.75 647.45 468.66 647.97 470.63 648.06 472.61 648.08 474.55 647.71 476.53 647.63 478.44 647.12 480.42 646.68"/>
      <path class="cls-2" d="M522.24,550.83c.5,2,.65,4.04,1,6.08.07.65.1,1.95.09,2.6v-.15s.32,2.53.32,2.53v.05s0,.04,0,.04l.03,1.31-.05,1.31c-.01-.49.08,1.26.08,1.18l-1.18-1.09,1.28-.03h.21s1.19.22,1.19.22h-.13s1.2.05,1.2.05h-.11s1.2-.05,1.2-.05l1.33.1c.26,0,1.65-.02,2.3-.08.61.03,1.8.06,2.42.04-.6.08,1.11-.19,1.05-.18,1.03-.01,3.08-.19,3.62-.08l1.2-.21h.08s1.21-.06,1.21-.06c-.33.06,1.18-.2,1.12-.19h.03s1.21-.11,1.21-.11l-.25.33-.25-1.18v-.05s-.09-1.21-.09-1.21c.05.36-.24-1.18-.23-1.11-.01-1.36-.34-3.4-.45-4.87l-.02-1.24v.15c.02-.11-.25-1.29-.21-1.36.03-1.2-.08-2.41-.06-3.63l1.21,1.05c-.86.1-1.71.26-2.56.38-.64,0-1.8.07-2.43.13l-1.2-.03h.15s-1.19.14-1.19.14h-.04s-.14,0-.14,0l-1.2-.08h.17s-1.33.13-1.33.13l-1.2-.05h-.06s-1.17-.13-1.17-.13l-1.17-.07h.11s-1.21.08-1.21.08c-1.26-.03-2.49-.27-3.74-.29-.7-.1-1.44-.23-2.14-.39ZM521.81,550.4c.43-.08.95-.17,1.46-.19l1.21.03c.75-.11,2.91-.13,3.47-.15l1.19-.2h.04s.07,0,.07,0l1.23-.03,1.23.05c-.3,0,1.19-.03,1.14-.04h-.13s1.32-.21,1.32-.21h.05s1.2.03,1.2.03h-.18s1.29-.2,1.29-.2h.05s1.2-.02,1.2-.02c-.45.03,1.19-.12,1.12-.12l1.23-.05-.15.02c1.14-.05,3.29-1.17,3.67.49-.01,1.26.07,2.54,0,3.83v-.17s.14,1.36.14,1.36c-.11,1.57,0,3.25-.04,4.82l-.11,1.2v-.09s.02,1.21.02,1.21v.08s-.15,1.2-.15,1.2v-.05s-.04,1.21-.04,1.21c0,.16-.11.29-.25.33-.64.16-1.66.5-2.28.73h-.07s-1.19.24-1.19.24h.08s-1.18.36-1.18.36c-1.04.1-2.97.42-3.58.47l-1.18.29c-.74.1-2.09.15-2.53.15-1.21.14-2.53.23-3.75.14.52-.01-1.14.08-1.07.08h-.09s-.02,0-.02,0l-1.2-.05h-.11s-1.21-.2-1.21-.2h.21s-1.28.06-1.28.06c-.63.02-1.15-.47-1.18-1.09l-.05-1.3c.04-.67.1-1.92.08-2.59v.09s-.16-2.53-.16-2.53v-.08s0-.07,0-.07l.12-1.23c.1-1.35-.06-2.92.03-4.37.07-1.01.07-2.43.36-3.41Z"/>
    </g>
  </g>
</svg>