<?xml version="1.0" encoding="UTF-8"?>
<svg id="_レイヤー_1" data-name="レイヤー 1" xmlns="http://www.w3.org/2000/svg" viewBox="0 0 660 660">
  <defs>
    <style>
      .cls-1 {
        fill: #4742c2;
      }

      .cls-2 {
        fill: #fff;
      }

      .cls-3 {
        fill: #ebebf7;
      }
    </style>
  </defs>
  <path class="cls-2" d="M502.84,34.49l-24.67,19.3-24.67-19.3-24.67,19.3-24.67-19.3-24.67,19.3-24.67-19.3-24.67,19.3-24.67-19.3-24.67,19.3-24.67-19.3-24.67,19.3-24.67-19.3-24.67,19.3-24.67-19.3-25.65,21.23v571.08s280.84-13.1,378.13-135.62c0,0,4.83-4.57,9.57-17.78,5.66-10.73,9.13-26.95,9.13-50.66V55.72l-25.85-21.23Z"/>
  <path class="cls-2" d="M528.69,85.71v-29.99l-25.85-21.23-24.67,19.3-24.67-19.3-24.67,19.3-24.67-19.3-24.67,19.3-24.67-19.3-24.67,19.3-24.67-19.3-24.67,19.3-24.67-19.3-24.67,19.3-24.67-19.3-24.67,19.3-24.67-19.3-25.65,21.23v569.79s277.97-46.72,292.98-166.81c0,0,103.85,93.93,103.85-35.96V85.71Z"/>
  <polygon class="cls-3" points="131.06 626.83 175.66 618.3 283.24 582.07 350.43 551.71 394.47 516.43 420.96 481.88 424.84 458.7 473.96 490.39 499.79 490.39 516.07 482.73 496.7 508.08 433.79 554.66 362.83 583.56 256.59 612.64 172.6 623.88 131.06 626.83"/>
  <path class="cls-1" d="M527.09,85.71l-.22-29.99.67,1.41-25.99-21.06,2.56.03-24.56,19.44c-.81.64-1.93.62-2.72.01l-24.73-19.25h2.83l-24.65,19.32c-.86.67-2.04.64-2.86,0l-24.64-19.33h2.81l-24.69,19.27c-.83.65-1.97.62-2.76,0l-24.64-19.33h2.71l-24.69,19.27c-.8.62-1.9.6-2.66,0l-24.64-19.33h2.61l-24.69,19.27c-.77.6-1.83.57-2.56,0l-24.63-19.35h2.49l-24.71,19.24c-.71.56-1.71.54-2.39,0l-24.62-19.36h2.29l-24.72,19.24c-.66.52-1.57.49-2.2,0l-24.62-19.36,2.14-.03-25.7,21.17.59-1.25-.09,35.61c-.24,34.61-.21,72.45.72,106.84,1.72,47.48-1.59,94.96-1.45,142.45.03,94.96,2.26,189.93,1.49,284.89l-2.68-2.26c28.93-5.1,57.77-11.65,86.16-19.55,69.5-19.68,193.78-62.76,204.36-145.35.15-2.34,3.16-3.33,4.76-1.77,22.3,18.26,68.28,50.23,90.47,17.34,11.22-17.68,10.61-39.86,10.64-60.12.07-9.27-.75-67.38-.83-78.12-.98-72.91-.51-145.82.34-218.73l.5-31.25h-.79ZM529.5,85.71c1.33,83.21,1.9,166.79.85,249.97l-.73,62.49c-.33,20.83.93,41.98-4.09,62.42-1.85,7.84-4.54,15.61-9.45,22.13-24.3,30.25-71.65-2.82-93.15-21.9l4.76-1.77c-13.34,90.88-174.73,139.34-252.02,159.24-14.37,3.57-28.79,6.8-43.42,9.48-1.23.23-2.41-.59-2.64-1.82-.3-47.62-.19-95.26.37-142.89.48-47.48,1.15-94.96,1.08-142.45.15-47.48-3.17-94.96-1.44-142.45.67-34.33,1.22-72.31.72-106.84l-.09-35.61c0-.5.24-.95.59-1.25l25.6-21.3c.63-.52,1.52-.52,2.14-.03l24.71,19.24h-2.2l24.62-19.36c.68-.54,1.63-.52,2.29,0l24.72,19.25h-2.39l24.62-19.36c.74-.59,1.78-.56,2.49,0l24.71,19.25h-2.56l24.64-19.33c.78-.61,1.86-.58,2.61,0l24.69,19.27h-2.66l24.64-19.33c.81-.64,1.94-.61,2.71,0l24.69,19.27h-2.76l24.64-19.33c.84-.66,2.01-.63,2.81,0l24.69,19.27h-2.86l24.68-19.28c.85-.67,2.02-.63,2.83,0l24.62,19.37h-2.73l24.79-19.18c.77-.59,1.82-.55,2.54.05l25.7,21.41c.44.36.67.88.67,1.41l-.22,29.99h-.79Z"/>
  <path class="cls-1" d="M131.82,626c112.35-9.92,247.11-34.09,340.08-100.74,13.65-10.15,26.35-21.61,37.46-34.58.29-.34.79-.38,1.13-.1.33.27.37.76.13,1.1-10.33,13.81-22.77,26.02-36.35,36.67-67.15,51.52-157.78,74.25-240,88.3-33.91,5.46-68.05,9.39-102.37,10.96-.44.02-.82-.33-.84-.77-.02-.44.32-.81.76-.84Z"/>
  <rect class="cls-2" x="168.58" y="230.99" width="316.67" height="207.75"/>
  <polygon class="cls-3" points="169.38 230.99 168.58 286.54 485.25 288.15 484.44 230.99 169.38 230.99"/>
  <path class="cls-1" d="M485.82,439.31c-78.71,2.29-158.46,3.59-237.45,2.68-26.69-.44-53.34-1.03-79.79-2.44-.44-.01-.79-.37-.8-.81-1.34-47.93-.44-107.6-.44-155.81.06-17.31.29-34.63.44-51.94,0-.44.35-.79.78-.8,52.78-1.73,105.56-2.02,158.36-1.75,52.78.13,105.56.53,158.34,1.75.44.01.8.37.8.81.79,17.36,1.31,34.87,1.54,52.39.75,51.29.02,104.83-1.78,155.94ZM484.68,438.17c-1.71-51.74-2.55-104.1-1.78-155.69.23-17.11.75-34.23,1.54-51.49l.8.8c-105.54,1.94-211.14,3.09-316.67,0l.8-.81c.15,17.31.38,34.63.44,51.94.21,25.89.22,77.99.25,103.88-.05,17.31-.2,34.63-.69,51.94l-.8-.8c26.34-1.41,52.46-2.01,78.55-2.44,79.37-.94,157.96.48,237.55,2.68Z"/>
  <path class="cls-1" d="M168.58,286.54c96.57-.9,200.24-2.27,296.88-.7,6.6.23,13.19.38,19.79.7.44.02.79.4.77.84-.02.42-.36.74-.77.77-6.6.33-13.19.47-19.79.7-68.92,1.4-148.87.35-217.71.1-19.67-.14-59.48-.55-79.17-.81-.44,0-.8-.37-.8-.81,0-.44.36-.79.8-.8Z"/>
  <path class="cls-1" d="M168.58,470.19c41.5-3.56,85.24-2.3,126.87-2.25,42.12.36,84.76.92,126.87,2.25.44.02.79.39.78.83-.01.42-.36.76-.78.78-52.75,1.62-105.83,2.23-158.59,2.42-18.58,0-45.09.23-63.44-.55-10.57-.38-21.15-.89-31.72-1.87-.44-.04-.77-.43-.73-.88.04-.39.35-.7.73-.73Z"/>
  <path class="cls-1" d="M168.58,518.09c29.43-1.58,58.9-1.96,88.37-1.44,9.82.26,19.64.61,29.46,1.44.44.04.77.43.74.87-.03.4-.35.7-.74.74-9.82.84-19.64,1.18-29.46,1.44-19.64.42-39.28.2-58.91-.25-9.82-.26-19.64-.63-29.46-1.19-.94-.05-1.03-1.56,0-1.61Z"/>
  <path class="cls-1" d="M168.58,90.42c29.29-1.29,59.03-1.63,88.37-1.51,9.82.14,19.64.49,29.46,1.51.9.09.99,1.52,0,1.61-14.72,1.51-29.43,1.61-44.18,1.53-19.41-.08-39.56-.29-58.91-.97-4.91-.17-9.82-.32-14.73-.57-.95-.04-1.04-1.56,0-1.61Z"/>
  <path class="cls-1" d="M376.66,230.47c1.04,33.92,1.41,69.48,1.47,103.38.04,34.46-.2,68.92-1.47,103.38-.02.44-.39.79-.83.78-.42-.02-.76-.36-.78-.78-1.28-34.46-1.51-68.92-1.47-103.38-.01-24.9.36-52.5.79-77.53.22-8.61.37-17.23.68-25.84.02-.44.39-.79.83-.78.42.02.76.36.78.78Z"/>
  <path class="cls-1" d="M167.97,176.79c6.94-8.5,14.05-16.85,21.19-25.17,1.83-2.11,3.83-4.16,6.13-5.93,9.09-7.34,19.05-2.95,19.93,8.62.92,7.2-2,16.98,4.64,21.86,6.1,3.22,11.33-3.66,15.1-7.82,3.09-3.23,6.55-6.15,11.37-6.61,13.23-.55,7.63,23.68,24,8.21,4.09-3.97,10.69-9.22,15.9-3.47,2.07,2.38,2.94,5.09,4.5,6.93,1.52,1.93,3.79,2.37,6.1,1.7,3.69-.95,6.55-4.42,9.8-6.63,6.07-4.3,13.97-3.25,20.79-2.18,5.69.85,34.46,5.21,40.67,6.14.44.07.74.48.68.92-.07.44-.47.74-.9.68-11.57-1.37-37.64-5.51-48.81-6.29-2.64-.05-5.28.18-7.66,1.04-3.73,1.23-6.49,4.59-9.81,6.85-3.69,2.73-9.76,3.52-12.84-.56-1.96-2.39-2.86-5.08-4.46-6.83-4.03-4.26-8.78.73-12.11,3.71-4.16,4.09-10.83,9.06-16.01,3.16-2.05-2.46-2.85-5.19-4.2-7.3-3.74-6.48-11.2-1.66-14.8,2.53-4.34,5.25-11.35,12.77-18.85,8.48-8.16-5.42-5.47-16.05-6.28-24.15-.37-4.76-3.02-9.76-8.24-9.36-4.91.5-9.06,4.69-12.35,8.31-7.34,8.15-14.72,16.26-22.27,24.23-.31.32-.82.34-1.14.03-.31-.29-.33-.77-.07-1.09Z"/>
</svg>