<svg id="レイヤー_1" data-name="レイヤー 1" xmlns="http://www.w3.org/2000/svg" viewBox="0 0 200 200"><defs><style>.cls-1{fill:#dce9ef;}.cls-2{fill:#788d9a;}.cls-3{fill:#8da1aa;}.cls-4{fill:#f1786b;}.cls-5{fill:#fdc77c;}.cls-6{fill:#5ac8ae;}.cls-7{fill:#445c6c;}.cls-8{fill:#af7c4a;}.cls-9{fill:#b9e8ef;}</style></defs><title>job-searching</title><path class="cls-1" d="M3.5,50.82V172.24A7.47,7.47,0,0,0,11,179.78H189a7.47,7.47,0,0,0,7.54-7.54V50.82Z"/><path class="cls-2" d="M196.5,30.92A7.47,7.47,0,0,0,189,23.38H11A7.47,7.47,0,0,0,3.5,30.92v20.2h193Z"/><path class="cls-3" d="M189,23.38H11A7.47,7.47,0,0,0,3.5,30.92v2.71A7.47,7.47,0,0,1,11,26.09H189a7.47,7.47,0,0,1,7.54,7.54V30.92A7.47,7.47,0,0,0,189,23.38Z"/><circle class="cls-4" cx="25.21" cy="37.25" r="5.13"/><circle class="cls-5" cx="41.5" cy="37.25" r="5.13"/><circle class="cls-6" cx="58.08" cy="37.25" r="5.13"/><path class="cls-7" d="M174.79,32.12H84.32a5.13,5.13,0,1,0,0,10.26h90.77a5.48,5.48,0,0,0,4.82-5.13A5.09,5.09,0,0,0,174.79,32.12Z"/><path id="Прямоугольник_скругл._углы_19" data-name="Прямоугольник скругл. углы 19" class="cls-8" d="M192.43,195a10.49,10.49,0,0,1-14.84,0l-34-34a10.49,10.49,0,0,1,14.84-14.84l34,34A10.51,10.51,0,0,1,192.43,195Z"/><path id="Прямоугольник_6_копия" data-name="Прямоугольник 6 копия" class="cls-5" d="M146.35,169.32l-16.69-16.69,20.4-20.41,16.69,16.7Z"/><circle id="Эллипс_3" data-name="Эллипс 3" class="cls-9" cx="106.89" cy="109.46" r="47.21"/><path class="cls-7" d="M144,72.36a52.47,52.47,0,1,0,15.36,37.1A52.36,52.36,0,0,0,144,72.36Zm-7.42,66.77a42,42,0,1,1,12.29-29.67A41.81,41.81,0,0,1,136.57,139.13Z"/><path class="cls-4" d="M74.2,119l4.07-3.22a.33.33,0,0,1,.51.07,3.55,3.55,0,0,0,2.75,1.32c2.09,0,3.16-1.21,3.16-3.67V97.94c0-.25.11-.36.37-.36h5.72c.26,0,.36.11.36.36V113c0,6.56-3.37,9.94-9.53,9.94-3.19,0-6.13-1.39-7.45-3.41A.39.39,0,0,1,74.2,119Z"/><path class="cls-4" d="M94.33,110.05a24.51,24.51,0,0,1,.74-6.79c1.28-4,4.8-6.12,9.35-6.12s8.07,2.16,9.35,6.12a23.64,23.64,0,0,1,.74,6.79,23.56,23.56,0,0,1-.74,6.78c-1.28,4-4.8,6.13-9.35,6.13s-8.07-2.16-9.35-6.13A24.43,24.43,0,0,1,94.33,110.05Zm13.65,0a18.83,18.83,0,0,0-.37-5,3.41,3.41,0,0,0-6.38,0,18.83,18.83,0,0,0-.37,5,18.93,18.93,0,0,0,.37,5,3.41,3.41,0,0,0,6.38,0A18.93,18.93,0,0,0,108,110.05Z"/><path class="cls-4" d="M118,97.94c0-.25.11-.36.37-.36h10.16c5.43,0,8.14,2.53,8.14,6.64a5.58,5.58,0,0,1-3,5.35v.07a6,6,0,0,1,3.48,5.69c0,4.73-3.26,7.19-8.69,7.19H118.32c-.26,0-.37-.11-.37-.37Zm9.28,9.65c2,0,3-.84,3-2.57s-1-2.57-3-2.57h-2.6a.2.2,0,0,0-.22.22v4.7a.19.19,0,0,0,.22.22Zm-2.82,9.83a.19.19,0,0,0,.22.22h2.93c2,0,3.05-1,3.05-2.82s-1-2.79-3.05-2.79h-2.93a.19.19,0,0,0-.22.22Z"/></svg>