<svg id="materials" xmlns="http://www.w3.org/2000/svg" viewBox="0 0 240 240"><defs><style>.cls-1{fill:#bc895b;}.cls-2{fill:#474747;}.cls-3{fill:#fdc77c;}.cls-4{fill:#b9e8ef;}.cls-5{fill:#a9bbc4;}.cls-6{fill:#fff;}</style></defs><title>job-searching</title><path class="cls-1" d="M207.34,224.43a6.25,6.25,0,0,1-4.45-1.84L137.26,157a6.31,6.31,0,0,1,0-8.89l11.16-11.16a6.3,6.3,0,0,1,8.9,0L223,202.54a6.31,6.31,0,0,1,0,8.89l-11.16,11.16A6.25,6.25,0,0,1,207.34,224.43Z"/><path class="cls-2" d="M152.87,136.64a4.71,4.71,0,0,1,3.34,1.38l65.63,65.63a4.74,4.74,0,0,1,0,6.67l-11.16,11.16a4.72,4.72,0,0,1-6.67,0l-65.64-65.63a4.74,4.74,0,0,1,0-6.67L149.54,138a4.67,4.67,0,0,1,3.33-1.38m0-3.14a7.81,7.81,0,0,0-5.56,2.29L136.15,147a7.86,7.86,0,0,0,0,11.11l65.63,65.63a7.87,7.87,0,0,0,11.12,0l11.16-11.16a7.87,7.87,0,0,0,0-11.12l-65.63-65.63A7.81,7.81,0,0,0,152.87,133.5Z"/><rect class="cls-3" x="124.87" y="128.85" width="39.87" height="32.62" transform="translate(-60.23 144.91) rotate(-45)"/><polygon class="cls-2" points="142.24 170.79 143.35 169.68 121.4 147.72 147.37 121.75 168.21 142.6 141.13 169.68 142.24 170.79 143.35 169.68 142.24 170.79 143.35 171.9 172.66 142.6 147.37 117.31 116.95 147.72 142.24 173.01 143.35 171.9 142.24 170.79"/><path class="cls-4" d="M153,88.07A65.25,65.25,0,1,1,87.71,22.82,65.25,65.25,0,0,1,153,88.07Z"/><path class="cls-5" d="M139,36.81A72.5,72.5,0,1,0,160.2,88.07,72.29,72.29,0,0,0,139,36.81Zm-10.25,92.27a58,58,0,1,1,17-41A57.79,57.79,0,0,1,128.72,129.08Z"/><path class="cls-2" d="M139,36.81l1.11-1.12a74.07,74.07,0,0,0-104.74,0h0a73.89,73.89,0,0,0-21.7,52.37h1.28l-1.28,0v0h1.28l-1.28,0a2,2,0,0,0,0,.26l1.56-.23L13.65,88v.09a73.86,73.86,0,0,0,21.7,52.36h0A73.84,73.84,0,0,0,87.7,162.13h0a73.84,73.84,0,0,0,52.36-21.69h0a73.86,73.86,0,0,0,21.7-52.36h-1.46l1.45.15v-.16h-1.46l1.45.15V88l-1.07,0h1.07v0l-1.07,0h1.07a73.88,73.88,0,0,0-21.7-52.36h0L139,36.81l-1.11,1.11a70.71,70.71,0,0,1,20.77,50.13v0l1.07,0h-1.07v0l1.07,0h.5l-1.56-.16v.18h0a70.75,70.75,0,0,1-20.77,50.14h0A70.74,70.74,0,0,1,87.72,159h0a70.74,70.74,0,0,1-50.14-20.77h0A70.75,70.75,0,0,1,16.79,88.08H15.44l1.35.07v-.07H15.44l1.35.07V88l0-.16-1.51.23,1.53,0,0-.21-1.51.23,1.53,0-1.45,0h1.45v0l-1.45,0h1.45A70.72,70.72,0,0,1,37.56,37.92h0a70.91,70.91,0,0,1,100.3,0h0Zm-10.25,92.27L127.61,128a56.42,56.42,0,0,1-79.8,0h0A56.19,56.19,0,0,1,31.29,88.07h0a56.21,56.21,0,0,1,16.52-39.9h0a56.42,56.42,0,0,1,79.8,0h0a56.21,56.21,0,0,1,16.52,39.9h0A56.19,56.19,0,0,1,127.61,128h0l1.11,1.12,1.11,1.11a59.4,59.4,0,0,0,17.45-42.12h0A59.36,59.36,0,0,0,129.83,46h0a59.56,59.56,0,0,0-84.24,0h0A59.32,59.32,0,0,0,28.14,88.07h0a59.36,59.36,0,0,0,17.45,42.12h0a59.58,59.58,0,0,0,84.24,0h0Z"/><path class="cls-6" d="M68,83.42c-3,14.07-10.47,24.4-16.73,23.08s-8.9-13.81-5.92-27.88S55.81,54.21,62.06,55.54,71,69.34,68,83.42Z"/></svg>