<svg id="materials" xmlns="http://www.w3.org/2000/svg" viewBox="0 0 240 240"><defs><style>.cls-1{fill:#f8ed00;}.cls-2{fill:#515556;}</style></defs><title>js</title><rect class="cls-1" x="27.57" y="27.57" width="184.85" height="184.86" rx="1.96" ry="1.96"/><path class="cls-2" d="M210.47,29.53V210.47H29.53V29.53H210.47m0-3.91H29.53a3.91,3.91,0,0,0-3.91,3.91V210.47a3.91,3.91,0,0,0,3.91,3.91H210.47a3.91,3.91,0,0,0,3.91-3.91V29.53A3.91,3.91,0,0,0,210.47,25.62Z"/><path class="cls-2" d="M151.08,170.89c3.64,6,8.38,10.33,16.77,10.33,7,0,11.55-3.52,11.55-8.39,0-5.83-4.63-7.9-12.38-11.29l-4.25-1.82c-12.27-5.23-20.42-11.78-20.42-25.62,0-12.75,9.71-22.46,24.9-22.46,10.81,0,18.58,3.76,24.18,13.61l-13.24,8.5c-2.92-5.22-6.06-7.28-10.94-7.28s-8.14,3.16-8.14,7.28c0,5.11,3.16,7.17,10.45,10.33l4.25,1.82c14.45,6.2,22.61,12.51,22.61,26.71,0,15.31-12,23.7-28.18,23.7-15.79,0-26-7.53-31-17.39ZM91,172.36c2.67,4.74,5.1,8.75,10.95,8.75,5.58,0,9.11-2.19,9.11-10.68V112.61h17v58c0,17.61-10.32,25.62-25.39,25.62-13.61,0-21.5-7-25.51-15.53Z"/></svg>