<?xml version="1.0" encoding="utf-8"?>
<!-- Generator: Adobe Illustrator 16.0.4, SVG Export Plug-In . SVG Version: 6.00 Build 0)  -->
<!DOCTYPE svg PUBLIC "-//W3C//DTD SVG 1.1//EN" "http://www.w3.org/Graphics/SVG/1.1/DTD/svg11.dtd">
<svg version="1.1" id="レイヤー_1" xmlns="http://www.w3.org/2000/svg" xmlns:xlink="http://www.w3.org/1999/xlink" x="0px"
	 y="0px" width="541px" height="560px" viewBox="214.5 0 541 560" enable-background="new 214.5 0 541 560" xml:space="preserve">
<rect x="257.5" y="51.25" fill="#F7DF1E" width="453.5" height="453.5"/>
<path d="M562.137,405.549c9.135,14.915,21.02,25.878,42.039,25.878c17.657,0,28.938-8.825,28.938-21.02
	c0-14.612-11.59-19.788-31.025-28.289l-10.653-4.571c-30.752-13.101-51.181-29.513-51.181-64.21
	c0-31.961,24.352-56.291,62.41-56.291c27.095,0,46.573,9.43,60.61,34.12l-33.185,21.308c-7.307-13.102-15.188-18.263-27.426-18.263
	c-12.482,0-20.394,7.918-20.394,18.263c0,12.784,7.918,17.96,26.202,25.878l10.653,4.563c36.209,15.527,56.652,31.356,56.652,66.946
	c0,38.366-30.14,59.386-70.616,59.386c-39.577,0-65.146-18.859-77.657-43.579L562.137,405.549z M411.597,409.241
	c6.694,11.877,12.784,21.919,27.426,21.919c14.001,0,22.833-5.478,22.833-26.777V259.479h42.615v145.479
	c0,44.127-25.871,64.211-63.634,64.211c-34.121,0-53.88-17.658-63.93-38.927L411.597,409.241z"/>
</svg>
