<svg id="レイヤー_1" data-name="レイヤー 1" xmlns="http://www.w3.org/2000/svg" viewBox="0 0 200 200"><defs><style>.cls-1{fill:#f7df1e;}</style></defs><title>js</title><rect class="cls-1" x="24.25" y="24.25" width="151.5" height="151.5"/><path d="M126,142.61c3,5,7,8.65,14,8.65,5.9,0,9.67-2.95,9.67-7,0-4.88-3.87-6.61-10.36-9.45l-3.56-1.52c-10.28-4.38-17.1-9.86-17.1-21.46,0-10.67,8.13-18.8,20.85-18.8,9.05,0,15.56,3.15,20.25,11.4l-11.09,7.12c-2.44-4.38-5.07-6.1-9.16-6.1s-6.81,2.64-6.81,6.1c0,4.27,2.64,6,8.75,8.64l3.56,1.53c12.09,5.18,18.92,10.47,18.92,22.36,0,12.82-10.07,19.84-23.59,19.84-13.22,0-21.76-6.3-25.94-14.56Zm-50.29,1.23c2.24,4,4.27,7.33,9.16,7.33,4.68,0,7.63-1.83,7.63-8.95V93.81h14.24v48.6c0,14.74-8.65,21.45-21.26,21.45-11.4,0-18-5.9-21.36-13Z"/></svg>