<?xml version="1.0" encoding="UTF-8"?>
<svg id="_レイヤー_1" data-name="レイヤー_1" xmlns="http://www.w3.org/2000/svg" viewBox="0 0 660 660">
  <defs>
    <style>
      .cls-1 {
        fill: #4742c2;
      }

      .cls-2 {
        fill: #fff;
      }

      .cls-3 {
        fill: #ebebf7;
      }
    </style>
  </defs>
  <path class="cls-2" d="M180.65,478.56l-154.99-.12c-4.34,0-7.86,3.51-7.86,7.86s3.52,7.86,7.86,7.86h505.31l97.23-297.8-3.03-11.96c-.78-3.07-3.53-5.21-6.7-5.21h-338.04c-3.5,0-6.6,2.27-7.65,5.62l-92.13,293.76Z"/>
  <path class="cls-3" d="M592.78,228.84l-.99,4.39-1.64,4.18v.03s-1.55,4.31-1.55,4.31l-.03.09-1.18,4.42h0s-1.13,4.38-1.13,4.38l-1.66,4.21-.03.09-1.32,4.37-1.42,4.33-.02.08-1.07,4.38-1.62,4.21-.05.17-.95,4.38-1.75,4.14-.07.22-.88,4.41-1.65,4.17-.05.15-1.05,4.37-1.75,4.15-.05.14-1.21,4.38-1.42,4.33-.02.08-1.09,4.39-1.59,4.23-.03.1-1.19,4.42v.04s-1.03,4.4-1.03,4.4l-1.58,4.23v.02s-1.51,4.33-1.51,4.33l-1.52,4.32-.03.09-1.14,4.44v.05s-.94,4.36-.94,4.36l-1.89,4.06-.06.16-1.3,4.38-1.29,4.38-1.38,4.36-.02.06-1.13,4.41-1.37,4.33v.03s-1.28,4.4-1.28,4.4h0s-1.25,4.41-1.25,4.41l-1.25,4.34-1.68,4.21-.04.13-1.17,4.41-1.33,4.31-1.76,4.19-.03.09-1.41,4.36v.05s-1.22,4.42-1.22,4.42l-.02.08-.87,4.43-1.61,4.2h0s-1.61,4.31-1.61,4.31l-.04.13-1.08,4.39-1.63,4.21-.04.12-1.15,4.43-1.19,4.42-1.32,4.34-1.6,4.28-.04.12-1.11,4.43-1.39,4.14-2.79,3.67-4.34,1.57-4.26.21-4.42-.55h-.27s-4.46.53-4.46.53l-4.45.09-4.46-.03-4.47-.41h-.22s-4.44.43-4.44.43l-4.44-.16h-.03s-4.52-.07-4.52-.07h0l-4.52-.03h-.05s-4.46.16-4.46.16l-4.46-.38h-.21s-4.44.44-4.44.44l-4.43-.3h-.07s-4.52-.04-4.52-.04h-.07s-4.46.23-4.46.23l-4.45-.3h-.06s-4.52-.06-4.52-.06h-.03l-4.5.06-4.51-.07h-.02l-4.53.03h-.08s-4.5.36-4.5.36l-4.47.06-4.49-.05-4.5-.29h-.06s-4.52-.07-4.52-.07h-.13s-4.46.47-4.46.47l-4.43-.04-4.5-.32h-.17s-4.46.37-4.46.37l-4.45-.22h-.02s-4.53-.14-4.53-.14h-.13s-4.42.37-4.42.37l-4.42-.5h-.19s-4.45.24-4.45.24l-4.46-.38h-.2s-4.45.4-4.45.4l-4.45-.19h-.12s-4.46.29-4.46.29l-4.46-.25h-.1s-4.53.15-4.53.15h-.02s-4.43.22-4.43.22l-4.43-.54h-.23s-4.42.36-4.42.36l-4.42-.42h-.13s-4.5.08-4.5.08l-4.53-.07h-.04l-4.52.09-4.5-.03h-.09s-4.51.32-4.51.32l-4.41.24-4.42-.63h-.31s-4.42.6-4.42.6l-4.43-.2h-.11s-4.43.22-4.43.22l-4.44-.56h-.25s-4.43.43-4.43.43l-4.43-.38h-.08s-4.54-.08-4.54-.08h-.07s-4.49.19-4.49.19l-4.5-.14h-.1s-4.54.25-4.54.25l-4.44.23-4.45-.45h-.13s-4.54.07-4.54.07h-.07s-4.49.34-4.49.34l-4.45-.03-4.5-.4h-.15s-4.23.2-4.23.2l-3.34-1.82-.48-3.74,1.04-4.14,1.4-4.25.03-.09,1.04-4.34,1.52-4.15,1.81-4.13.08-.27.74-4.38,1.67-4.07.05-.14,1.14-4.29,1.73-4.1.03-.07,1.48-4.26.04-.16.85-4.38,1.46-4.19v-.03s1.38-4.28,1.38-4.28l1.54-4.23.02-.06,1.31-4.28,1.62-4.18.02-.05,1.43-4.28v-.02s1.35-4.31,1.35-4.31l.02-.08.99-4.32,1.74-4.08.07-.21.94-4.38,1.45-4.2,1.52-4.25.03-.09,1.12-4.31,1.67-4.13.02-.05,1.52-4.26.02-.05,1.31-4.32,1.37-4.3v-.03s1.28-4.34,1.28-4.34v-.03s1.16-4.3,1.16-4.3l1.69-4.13.02-.05,1.5-4.27.02-.05,1.29-4.33v-.02s1.21-4.28,1.21-4.28l1.75-4.09.06-.18,1.04-4.37,1.17-4.32,1.34-4.29,1.41-4.29v-.02s1.35-4.31,1.35-4.31l1.37-4.26,1.59-4.2.03-.08,1.28-4.3,1.55-4.22.02-.07,1.25-4.29,1.66-4.16.05-.17.97-4.37,1.49-4.18h0s1.59-4.25,1.59-4.25v-.04s1.44-4.29,1.44-4.29l.03-.1,1.02-4.38,1.36-4.21,1.8-4.12.05-.15,1.18-4.34.73-2.15,12.28-.05,4.46.63c4.13-.02,14.37-.42,18.27-.03,2.44,0,11,0,13.53,0l4.47.42h.07s.11,0,.11,0c2.2.04,6.79-.06,9.05-.2l4.45.31c2.27.1,6.96.21,9.22.22l4.42-.23,4.4.41h.06s.1,0,.1,0l4.61.1,4.47-.19,4.45.26h.14s.17,0,.17,0l4.35-.34,4.37.31h.21s.23,0,.23,0l4.24-.47,4.25.57.23.03.25-.02,8.97-.54,8.9.11,4.46.4.23.02.24-.02,4.25-.41,4.26.55.15.02h4.78c-.21,0,3.98-.18,4.46-.22l4.47.15h.19c3.96-.15,9.65-.42,13.55-.46,2.16.13,6.43.36,9.28.4-.18,0,3.57-.31,4.31-.41l4.31.38.22.02.2-.02,4.4-.36,4.39.13h.21s4.54-.26,4.54-.26c7.97.45,18.52.64,27.2-.04,3.04.31,10.37.23,13.44-.11l4.55.18h.3s4.45-.46,4.45-.46l4.35.06,4.45.41c4.57-.19,9.31-.15,13.91-.69l8.95.28h.13s.07,0,.07,0l4.49-.44,4.47-.16c4.44.28,17.06.14,21.9-.32l-.88,3.06-.02.06Z"/>
  <path class="cls-2" d="M533.78,339.17c-.37,1.19-1.27,3.56-1.72,4.71-6.5,16.64-23.76,28.13-41.56,27.9-59.98.07-148.42.97-208.16,1.67-3.44.05-6.57-.13-9.83-.98-11.28-2.84-20.17-12.72-22.06-24.18-1.69-11.66,3.41-23.58,10.68-32.52,8.69-10.36,22.05-16.61,35.63-16.64l83.27.35c27.22.28,98.62,1.02,124.9,1.32,6.51-.12,12.66,1.51,18.01,5.19,10.45,7.25,15.12,21.2,10.86,33.19Z"/>
  <g>
    <path class="cls-1" d="M629.07,195.19l.3-1.28-.04-.59-1.24-3.21-.04-.09-.57-1.14-1.2-4.76c-.76-3-3.16-5.24-6.09-5.31l-1.28-.45-.4-.06-3.82.18-3.82-.54h-.29s-3.83.5-3.83.5l-3.73-.09-3.82-.81h-.52s-3.65.98-3.65.98l-3.65-.78-.15-.02-3.94-.24-.34.03-3.67.83-3.67-.67-.23-.02h-3.92s-.19,0-.19,0l-3.72.61-3.71-.57h-.2s-3.96-.04-3.96-.04l-3.81.14-3.82-.53h-.35s-3.83.33-3.83.33l-3.86-.08h-.09s-.05,0-.05,0l-3.75.24-3.79-.45h-.32s-3.91.35-3.91.35c.15,0-2.81.04-3.6.08l-3.72-.86c-.23-.06-.5-.05-.74-.02l-3.8.59c-.54.02-2.84.07-3.53.11l-3.71-.76-.58-.03h-.06s-3.93.41-3.93.41l.62.02-3.92.22c-.3-.06-.64-.04-.95.04l-3.95.04,1.03-.03-3.92.12c-.21-.04-.44-.06-.66-.03h-.07s-3.93-.53-3.93-.53h.5c-4.09-.49-8.33.25-12.43.38l-3.64-.31-3.55.52h-.33s-.08,0-.08,0l-3.53.19-3.6-.76-.34-.04h-.08s-3.93.72-3.93.72c-.28-.02-.58.02-.86.09l-3.95.04,1.2-.06c-1.97-.39-6,0-7.99-.21-.32-.04-.67-.01-.99.06l-3.94-.11.92-.07c-3.88-.49-8.12-.37-12.01-.47h-.22s-.1.01-.1.01l-3.94.32h.7s-3.93.46-3.93.46l-.55-.02h-.06s-3.69-.69-3.69-.69l-3.66.54h-.31c-1.97-.08-5.88.02-7.92.15l-7.5-.18-3.75-.54c-1.18-.17-4-.17-5.31.09l1.66-.03-3.93.09c-.72-.17-4.05.08-4.84.15l-3.86.08-.32.02-3.33-.42-3.21-.03c-1.27-.42-4.44-.24-5.71.01l1.56-.05-3.93.22c-.46-.13-4.07-.04-4.6-.08l-.4.02-3.55.37-3.61-.34h-.37s-3.93.12-3.93.12c-1.47.16-2.92-.48-4.38-.2h1.03s-3.96.58-3.96.58c-2.57.05-5.84-.4-8.45-.11h.28s-3.96.11-3.96.11h-.43s-.04.02-.04.02l-3.89-.09h.59s-3.99-.27-3.99-.27l-.25-.02-3.94.27h-.17s-3.77.62-3.77.62c-3.91-.77-7.83-.26-11.79-.14l-3.87-.36h-.25s-3.94.65-3.94.65c-4-.13-11.54-.49-15.63.46-1.52-.02-3.54-.05-5.36.04-.73-.05-1.43.02-2.1.18-.12.02-.25.03-.37.05l-.24.13c-.78.27-1.5.68-2.14,1.2l-.75.42-.36.36-1.83,3.17-.12.36-.21,1.59-1.48,4.72-.44.93-.06.17-1.03,3.78-1.63,5.2-.9,2.14-.03.08v.02s-1.17,3.73-1.17,3.73l-1.41,3.64-.07.27-.38,2.75-1.31,4.18-.18.48-.02.08v.02s-.28.96-.28.96l-2.65,8.44-.71,1.68c-1.18,3.81-2.21,7.66-3.92,11.13l-.04.1v.03s-1.21,3.75-1.21,3.75l-.04.15-.7,3.73-1.55,3.46-.09.28-.87,3.9c-.89,2.43-3.35,7.7-4.51,11.16l-.5,3.67-1.55,3.37c-.67,2.59-1.19,5.23-1.87,7.82-1.87,3.69-2.73,7.35-3.72,11.29l-1.43,3.54-.06.16v.02s-1.12,3.67-1.12,3.67l-1.46,3.58-.14.54-.5,3.61-1.56,3.29-.15.41-.9,3.64-1.56,3.43-.17.58-.59,3.55-1.71,3.22-.14.32c-.74,2.08-2.07,5.9-2.54,8.06l-.33,3.57-1.61,3.15-.19.52-.91,3.77-1.14,3.56-1.54,3.52c-.09.19-.14.39-.18.6l-.57,3.76-1.13,3.46-1.53,3.53-.11.33c-1.16,3.55-1.88,8.53-2.81,11.35l-1.28,3.72v.02s-.05.16-.05.16l-.92,3.64-1.56,3.46-.13.39-.88,3.86c-.8,2.46-2.89,7.64-3.7,11.05-.75,1.93-2.1,5.54-2.64,7.47l-.07.33-.5,3.84-.99,3.47-1.69,3.4-.03.06c-1.26,4.6-3.01,10.64-3.93,15.51l-1.84,3.27-.15.34-1.16,3.77-.06.25-.55,3.85-1.13,3.63-.06.23-.4,2.64-.91,2.92-.74,1.76-.03.07-1.19,3.78v.05s-.04.08-.04.08l-.38,1.83-1.55,4.93-.25.64-.04.11-.32,1.18-1.24,3.96c-2.96-.18-6.02-.15-8.87-.03l-3.79-.39c-.27-.03-.56,0-.83.06l-3.47.81-3.49-.49-.4-.02-3.76.11c-2.04-.26-5.9-.57-7.88-.61-.23,0-4.15.2-4.38.24l-3.85.51-3.53.17-3.66-.61-.42-.03-7.85-.14-.39.02-3.54.45-3.55-.58c-.2-.03-.43-.04-.64-.03l-3.82.28-3.81-.12h-.25s-3.66.25-3.66.25c-1.11-.17-4.23-.74-4.6-.53l-3.28.65-3.28-.85c-.47-.12-.99-.13-1.49,0l-3.5.84c-.85-.04-2.66-.15-3.25-.17l-3.7-.75-.57-.06-3.98-.02c-.23,0-.47.03-.7.08l-3.31.72-3.34-.56c-2.21-.09-5.99-.13-8.22-.33-5.72.16-10.77.9-15.66.24-.54-.05-2.79.28-4.03.44-1.36-.34-4.05-1.12-4.76-.85l-3.48.66c-2.55-.24-5.81-.46-8.23-.49-1.67.65-2.65.89-4.1,2l-2.43,2.12-.42.44-1.59,1.98c-.99.76-1.61,2-1.41,3.34.19,1.89.85,5.66,1.27,7.51.18.87.68,1.68,1.48,2.23l3.08,2.13c.5.35.13.57.78.63l3.45.29,3.82.61h.06c.35.06.72.06,1.09,0l3.63-.61,3.62.15h.31s3.5-.22,3.5-.22l3.47.76c.52.12,1.07.12,1.62-.03l3.31-.88,3.31.44.21.02,3.96.22h.06s.6-.02.6-.02l3.73-.54h3.4s3.63.68,3.63.68h.06c.28.06.58.08.88.05l3.78-.39c1.96.05,5.83-.02,7.73-.13l3.8.25h.31s3.95-.18,3.95-.18l.33-.03,3.65-.56,7.62.41h.38s3.94-.36,3.94-.36c1.01.08,5.58.19,8.02.13l3.68-.5,3.64.23h.06s.36,0,.36,0l3.57-.28,3.54.68h.05c.32.07.66.08,1.01.01l3.49-.64c3.76.6,7.83.54,11.59.83l.61-.03,3.86-.63,3.67-.31,3.76.15h.06s.18,0,.18,0c4.14-.24,7.69-.39,11.52.02,2.06.04,5.9-.17,8.06-.36l3.68.43h.52s3.79-.34,3.79-.34l3.76.17h.32c.95-.11,2.38-.69,3.82-1.25h12.27l3.41.19h.33s.26-.05.26-.05l.98-.14h8.57c1.87.14,3.74.29,5.63.4h.19s3.85-.1,3.85-.1l2.23.04c.65.12,1.25.19,1.72.14h.09s3.08.6,3.08.6c2.75.1,5.53-.19,8.29-.33l3.5.64c.46.08.96.09,1.44,0l3.7-.73,3.21-.18,3.52.61c.24.04.51.06.77.05l3.64-.12,3.61.47.6.03,3.94-.07c.2,0,.41-.02.61-.06-.18.02,3.12-.51,3.75-.64.8-.04,2.93-.11,3.44-.15,2.88.2,5.73.86,8.61.79l3.73-.68,3.45-.24c3.79.25,8.1.5,11.86-.02l3.5.34h.06s.31.02.31.02l7.95.04c1.88-.15,5.45-.58,7.57-.66l3.48.67c.39.09.79.11,1.2.05l3.8-.52c1.99-.06,5.69-.07,7.5.08.2,0,.43-.01.66-.02l3.21.12.28-.02.66-.11c1.15.02,2.23.05,2.99.11l.57-.02,2.17-.29,1.08.14h.31s3.53-.39,3.53-.39h.55l3.14.61c.34.08.7.09,1.06.04l3.84-.54c1.97-.1,5.62-.11,7.45.01.51-.04,1.02-.08,1.53-.13h7.55c.96.06,1.91.12,2.87.16l1.03-.16h5.81l1.04.14h.19c.17,0,.32-.06.46-.14h12.24l3.28,1.09h-.68s3.96.53,3.96.53h.1s.25.03.25.03l3.95-.07.37-.03,3.69-.69,3.62.29h.46s3.86-.56,3.86-.56l3.63-.29,3.65.8h.07c.22.06.45.07.68.02l3.64-.7,3.61.65h.06s.44.02.44.02l7.87-.85c1.12.12,5.64.41,7.79.65l4-.16h.12s3.94-.66,3.94-.66c-.34.01.29-.02,1.12-.06h4.58l5.85.49.33-.02,2.27-.47h3.12l2.13.4.43-.02,1.41-.38h5.35l.69.14.17.02,3.95.1h.08s3.96-.17,3.96-.17h.09s.01-.01.01-.01l.51-.08h8.86l2.18.37h.11s3.99.17,3.99.17l.32-.04,2.08-.5h3.87l1.49.26h.32s2.64-.26,2.64-.26h1.22c.11,0,.22-.02.32-.05.03,0,.05-.02.08-.03.08-.03.15-.07.22-.11.02-.01.04-.02.06-.04.08-.06.15-.13.22-.21,0,0,0,0,0-.01,0-.01.02-.03.03-.04.05-.08.09-.16.13-.24,0-.01.02-.03.02-.04l.19-.59,1.55-2.7.14-.35.97-3.74,1.26-3.69.03-.11v-.05s.84-3.62.84-3.62l1.78-3.35.11-.27,1.19-3.61,1.62-3.54.15-.57.4-3.78,1.18-3.55,1.3-3.48,1.88-3.4.19-.49,1-3.75,1.15-3.48,1.71-3.44c.09-.19.16-.41.2-.63v-.08s.54-3.57.54-3.57c1.14-2.5,2.41-4.97,3.28-7.57l.61-3.47,1.69-3.19c.12-.22.2-.48.25-.73l.74-3.67c1.54-4.66,4.07-9.91,5.58-14.57.07-.2.12-.43.15-.65l.38-3.33,1.76-2.91c.19-.32.34-.7.39-1.1l.54-3.69,1.12-3.26,1.69-3.39c.09-.19.17-.41.23-.62l.91-3.57,1.48-3.42.1-.28,1.21-3.75.08-.33.69-3.49,1.6-3.17c.15-.3.27-.66.31-1.01l.47-3.65,1.16-3.29,1.53-3.52.12-.33,2.24-7.42,1.46-3.5c.1-.23.17-.47.21-.73l.53-3.66,1.25-3.37.1-.31.92-3.64,1.43-3.42.16-.5.8-3.65,1.41-3.39.03-.08.14-.46.73-3.81,2.1-7.14,1.82-3.21c.11-.19.21-.4.27-.62.53-1.92,1.43-5.68,1.74-7.73.7-1.9,2.02-5.21,2.86-6.91.1-.21.17-.43.2-.66l.44-3.74,1.31-3.39c.65-2.58,1.18-5.2,1.82-7.78l1.72-3.29c1.02-2.95,2.05-6.65,3.21-9.66,1.08-3.17,1.94-6.36,3.08-9.5l.95-3.78,1.32-3.61.09-.37.34-3.87,1.27-3.5,1.59-3.63.05-.14,1.05-3.76,1.39-3.65c.47-1.71,1.12-4.71,1.53-6.85l.52-1.61,1.41-2.73.1-.26.86-3.77,1.66-3.49.07-.2.93-3.8,1.38-3.65.06-.27.2-2.25,1.06-3.25c.07-.21.07-.42.02-.63l-.23-.89ZM626.38,197.83l-.02.14-.05.49-6.98,21.36-.19.35-.11.3-.16.75-5.59,17.11-.31.67-1.5,3.71-.08.35-.21,1.71-5.43,16.65c-1.55,4.14-3.12,8.16-4.01,11.02l-1.98,3.48c-.87,2.59-1.47,5.29-2.19,7.93l-1.51,3.53-.14.54-.55,3.56c-1.01,2.02-2.64,5.44-3.32,7.45-.33,1.74-1.25,5.2-1.84,7.1l-1.98,3.21-.22.47-.03.08-2.5,7.49-.05.16-.02.09-.8,3.56-1.5,3.4-.14.42v.06s-.88,3.56-.88,3.56l-1.51,3.41-.15.42-.99,3.62-1.4,3.55-.16.57v.06s-.59,3.55-.59,3.55l-1.41,3.31-.11.31-2.27,7.33-1.53,3.46-.08.19v.02s-1.34,3.71-1.34,3.71c-.07.19-.12.41-.15.62l-.47,3.46-1.55,3.09c-.13.26-.23.53-.28.83.02-.1-.57,3.04-.68,3.69l-1.09,3.5-1.48,3.54-.13.42-.86,3.53-1.61,3.31-.13.33-1.24,3.74-.13.55-.45,3.39c-.71,1.18-2.07,3.27-2.14,4.13.03-.09-.33,2.9-.39,3.72-1.5,4.79-3.78,9.71-5.13,14.54-.09.16-.52,2.92-.7,3.93l-1.57,3.21-.04.08c-.1.21-.18.45-.21.7l-.53,3.7c-.93,2.56-2.16,5.02-3.03,7.59l-.42,3.65-1.46,3.24-.12.31-1.1,3.85c.06-.17-.68,2.91-.82,3.68l-1.66,3.31-.04.08-.08.2-1.24,3.78-1.1,3.82-.02.08-.06.32-.25,3.77-1.37,3.35-.03.07-.04.12-1.05,3.67-1.67,3.42-.14.4-.74,3.83-1.13,3.71v.06s-.68,2.95-.68,2.95l-.27.83-3.11-11.79,1.61-3.72.04-.1,1.42-4.36v-.03s1.3-4.39,1.3-4.39l.02-.06,1.05-4.37,1.7-4.17.04-.12,1.25-4.4v-.02s1.17-4.36,1.17-4.36l1.6-4.23v-.02s1.53-4.31,1.53-4.31l.04-.14.93-4.42,1.47-4.2,1.89-4.14.08-.24.9-4.39,1.74-4.12.04-.12,1.31-4.37,1.41-4.32.03-.11.94-4.38,1.77-4.11.03-.07,1.51-4.31.02-.08,1.2-4.4v-.02s1.1-4.33,1.1-4.33l1.86-4.08.07-.21,1.03-4.4,1.51-4.24,1.52-4.3.02-.05,1.3-4.34,1.45-4.29v-.04s1.31-4.38,1.31-4.38v-.04s1.11-4.35,1.11-4.35l1.75-4.15.06-.18,1.03-4.41,1.41-4.29h0s1.39-4.3,1.39-4.3l1.74-4.19.06-.17,1.06-4.4,1.45-4.21,1.89-4.12.08-.26.84-4.43,1.48-4.23,1.5-4.31.02-.07,1.22-4.38,1.37-4.3,1.56-4.26.03-.08,1.25-4.39,1.27-4.28,1.85-4.12.07-.19,1.1-4.4,1.36-4.32h0s1.38-4.3,1.38-4.3l1.72-4.18.06-.2.93-4.36,1.85-4.06.06-.17,1.18-4.35,1.59-4.21.02-.06,1.38-4.34.03-.09.99-4.38,1.7-4.15.05-.15,1.11-4.34,1.78-4.12.07-.25.79-4.42,1.59-4.16.03-.09,1.25-4.3,1.8-4.13.07-.23.91-4.41,1.49-4.22v-.03s1.39-4.34,1.39-4.34h0s1.35-4.36,1.35-4.36c.19-.6-.15-1.24-.75-1.42-.6-.19-1.24.15-1.42.75l-1.35,4.35h0s-1.37,4.31-1.37,4.31l-1.51,4.27-.04.15-.9,4.37-1.79,4.08-.05.14-1.26,4.32-1.62,4.22-.06.21-.79,4.4-1.76,4.09-.06.17-1.11,4.35-1.7,4.16-.06.18-1,4.42-1.35,4.27-1.6,4.24-.03.1-1.17,4.31-1.86,4.09-.08.23-.93,4.38-1.7,4.13-.03.09-1.39,4.34h0s-1.37,4.36-1.37,4.36l-.02.07-1.08,4.34-1.84,4.09-.05.15-1.29,4.37h0s-1.23,4.36-1.23,4.36l-1.56,4.25-.02.05-1.39,4.34v.04s-1.23,4.37-1.23,4.37l-1.49,4.28-1.51,4.3-.04.17-.83,4.38-1.85,4.05-.04.1-1.49,4.31-.03.11-1.05,4.36-1.72,4.15-.03.09-1.4,4.34-1.42,4.33-.03.1-1.02,4.37-1.74,4.13-.05.16-1.12,4.41-1.29,4.34-1.45,4.29v.04s-1.31,4.33-1.31,4.33l-1.51,4.27-1.53,4.3-.04.12-1.02,4.35-1.86,4.07-.07.19-1.12,4.42-1.19,4.35-1.48,4.24-1.8,4.18-.07.21-.95,4.42-1.4,4.29v.03s-1.31,4.32-1.31,4.32l-1.76,4.16-.07.21-.9,4.38-1.86,4.07-.04.1-1.51,4.32-.04.14-.93,4.42-1.49,4.23-1.61,4.27-.04.11-1.18,4.41-1.23,4.32-1.71,4.19-.05.17-1.06,4.43-1.28,4.36-1.4,4.29-1.53,3.53h-129.04c-.35,0-2.43.16-4.22.4-.14-.06-.29-.1-.45-.09l-3.72.28-3.83-.93-.31-.02-3.96.37c-2.02-.05-5.64-.03-7.76.02l-7.9-.5-.33.03-3.7.95-3.69-.88h-.44s-3.83.69-3.83.69l-3.75-.2-3.9-.64h-.23s-3.93.1-3.93.1l-3.93-.03h-.16s-.02.01-.02.01c.08,0-3.61.49-3.85.54l-3.76.1-3.8-.79-.35-.02c-3.53.17-8.9.66-11.58.61l-3.94-.52h-.26c.09,0-3.56.15-3.84.17l-3.88-.21-3.9-.39-.54.05-3.62.94-3.63-.55h-.14s-4.01-.21-4.01-.21l-3.99.05h-.11s-3.78.36-3.78.36l-3.82-.45-4.01-.24h-.18l-3.97.22-.15.02h-.03s-3.66.58-3.66.58c-3.93-.63-8.18-.71-12.12-.9l-3.69.62c-2.55-.35-5.1-.65-7.66-.89-.21-.02-.43,0-.64.04l-3.6.8c-2.71-.31-5.43-.79-8.15-.85l-3.63.61-3.65-.45c-2.18-.03-7.01.17-7.95.29-.22.01-4.3-.45-4.37-.35l-3.72.44c-3.96-.5-7.95-.58-11.88-.96l-3.94.08h-.18s-3.72.42-3.72.42c-.14-.02-.29-.02-.44-.04l.2-.93,1.19-3.67,1.56-3.63.06-.19.93-3.77,1.28-3.61,1.65-3.58.1-.35.71-3.78,1.28-3.65.06-.25.67-3.77,1.16-3.45,1.98-3.35.19-.48c.86-4.09,3.32-12.23,4.01-14.84l1.86-3.55.13-.34,1.17-3.77.07-.3.57-3.74,1.24-3.52,1.47-3.61.05-.15,1.14-3.82c.82-1.62,1.81-5.14,2.77-7.53l.86-3.63,1.57-3.41.13-.36,1-3.83c1.72-3.87,2.66-10.23,4.17-14.94l1.56-3.53.07-.19,1.26-3.76.09-.38.57-3.62,1.49-3.35.08-.21,1.24-3.77.04-.16.89-3.58,1.69-3.34c.13-.26.22-.55.24-.86l.32-3.8.99-3.51,1.2-3.52,1.77-3.42c.28-.34.57-3.18.76-4.26l1.53-3.44.12-.37.86-3.63,1.58-3.42c.09-.19.15-.4.18-.63-.04.13.41-2.93.48-3.71l1.35-3.4v-.02s.07-.17.07-.17l1.09-3.71,1.4-3.58c.71-2.16,1.45-6.54,1.93-7.59l1.54-3.65.12-.36c.57-2.52,1.1-5.06,1.59-7.6l1.47-3.43.02-.05c.15-.3.45-3.34.55-4.25,1.49-3.68,2.82-7.43,4.2-11.14l.74-3.74,1.45-3.48.11-.37.62-3.84,1.06-3.6c1.58-3.49,2.65-7.61,3.69-11.25l1.43-3.62.04-.13,1.97-7.59,1.28-3.67.06-.26.21-1.83,7.35-23.45.35-.76.09-.3.07-.56,1.01-3.22c.65-2.07,2.22-3.65,4.16-4.37,2-.15,5.23-.07,6.71-.11l2.22-.34h31.25c.66.16,1.33.31,2,.39l3.8-.22,3.67.31,1.88-.48h11.86c1.95.1,3.91.12,5.8.18l3.83.74c.2.04.42.05.64.03l.39-.03c1.22-.11,2.43-.27,3.65-.42l3.55-.04,3.77.34c.23.02.46.02.7,0l3.74-.41h3.4s3.63.66,3.63.66c.91.29,3.05-.46,4.49-.85l3.13.78c1.04.3,3.68-.28,4.96-.39,1.88-.07,5.4-.13,7.45-.32l3.39.72c1.02.32,3.46-.5,4.91-.9l3.24.41.44.03,7.83.06h.09s.18,0,.18,0c1.87-.17,5.56-.32,7.52-.3l3.77.3h.07c.26.06,3.04-.2,4.04-.27l3.65.4c.23.03.46.03.7,0-.13.02,3.11-.33,3.74-.42,4.16-.04,7.61-.2,11.43.12.35.05,1.4-.17,2.44-.42h6.64c1.37.23,3.23.54,3.69.29l1.03-.29h9.15l.33.06c.23.05.47.07.72.04l1.26-.11h5.58l.61.04c.22.02.44.01.66-.03h.06s29.27-.01,29.27-.01l1.27.2h.07c.24.06,1.26-.06,2.28-.2h3.41l2.08.36h.07s.41.03.41.03l3.92-.23h.07s.18-.03.18-.03l.74-.14h5.45l.92.19h.06s.41.04.41.04l3.99-.21.14-.02h8.41l3.21.48h-.14s3.93-.02,3.93-.02h.17s3.77-.45,3.77-.45l3.79.42c2.05-.11,5.77-.28,7.9-.26l3.82.52h.43s3.74-.69,3.74-.69h4.26l3.32.54.5-.02,2.13-.53h6.51l2.59.5.53-.02,1.78-.49h4.4l1.13.23,4.29.08,2.26-.31h3.07l2.21.3h.2s3.72-.2,3.72-.2l3.31,1.13,1.87,2.96,1.03,3.15.06.14.34.67,1.85,7.3-.49,2.07ZM511.96,493.02l-.66-.09h-.03s-.08-.01-.08-.01l-3.96-.12h-.21s-1.24.23-1.24.23h-12.71l-1.5-.33h-.45s-1.36.33-1.36.33h-4.95l-1.14-.25h-.43s-1.45.25-1.45.25h-5.88l-4.19-.48h-.16s-3.99.11-3.99.11h-.09s-2.72.37-2.72.37h-6.19c-1.93-.26-4.84-.43-6.88-.7l-7.63.58-3.72-.79c-.21-.04-.44-.06-.66,0l-3.55.57-3.59-.9-.56-.05-4.01.19-3.73.39-3.74-.44-.56.02-3.73.55-3.59-.08-3.81-.66c-.22-.03-.45-.05-.68,0,.11,0-2.71.29-3.61.42l-3.69-.49-.29-.02c-1.71.05-4.76.07-6.92.21-.04-1.15-.09-2.31-.19-3.46l-.42-5.99.18-2.78h132.77l3.44,13.05-2.39.33-3.83-.55-.46.03-2.12.58h-8.63ZM183.48,480.86c-.18.02,3.43-.42,3.82-.48l3.75-.14c4.08.32,8.11.44,12.14.78l3.73-.49,3.7.28c2.26-.16,6.72-.36,7.82-.43l3.94.43c.36.1,3.25-.51,4.26-.69,2.53.21,5.06.47,7.58.76.47.12,3.24-.66,4.31-.91,2.71.17,5.4.64,8.1.76l3.74-.69c2.54.14,5.08.24,7.63.27l3.85.47c.3.11,3.6-.56,4.36-.67l3.79-.27,3.79.17,3.92.41h.33s3.91-.43,3.91-.43c1.96-.1,5.63-.1,7.58.02l3.87.52c.46.12,3.26-.77,4.29-1.05l3.72.32,3.99.15h.02s.12,0,.12,0l3.83-.24,3.8.45c3.72,0,9.3-.54,11.76-.79l3.95.76.3.02,3.97-.16h.12s3.87-.61,3.87-.61l3.87-.03,3.87-.17,3.85.57h.11s3.96.16,3.96.16l.27-.02,3.73-.74,3.71.83h.52s3.8-1.04,3.8-1.04l7.73.38c2.65-.06,5.31-.1,7.97-.08h.1s3.81-.39,3.81-.39l3.82.89.28.02,2.79-.21-.2,2.74v.13s.38,6.04.38,6.04c.09,1.04.13,2.09.16,3.14l-2.41-.54c-.21-.04-.45-.08-.67-.05l-3.77.09-3.87-.25h-.14c-2.71.07-5.42.22-8.13.44-1.81.02-4.76,1.19-6.79,1.55-.32.02-.65.03-.97.05l-3.94-.23h-.09s-.02,0-.02,0l-2.34.07-.75-.17c-.2-.04-.42-.07-.63-.07h-.1s-3.95,0-3.95,0h-.23s-.1.02-.1.02l-2.38.24-1.12-.16h-.37s-1.12.18-1.12.18c-2.09-.13-4.82-.21-6.38-.2-2.2-.18-6.22-.39-8.42-.28l-3.29.35-3.39-.76c-.28-.06-.58-.09-.88-.08h-.09s-4.03.18-4.03.18c.19-.03-2.64.24-3.64.34-.33-.01-2.01-.04-3.72-.07l-.32-.02h-.24c-1.38-.01-2.69-.04-3.22-.04l-3.93-.45c-.22-.02-.47-.03-.71-.01h-.06s-3.66.31-3.66.31c-4.11-.17-8.35-.72-12.48-.15l-2.51.45c-.86-.03-1.73-.05-2.59-.09-3.51-.45-7.11-.8-10.62-.41.15-.02-2.69.43-3.6.6l-3.36.04-3.65-.49c-.23-.03-.46-.04-.69-.03.03.02-2.53.09-3.5.15-.02,0-.05,0-.08,0h-.02s-.06,0-.06,0c.03,0,.05,0,.08,0h0s-.1,0-.1,0l-3.41-.54h-.07c-.27-.05-.55-.07-.84-.05l-3.95.27-.55.07-2.82.6-.3-.11-.39.14-2.88-.49-.12-.02c-2.76,0-5.54.49-8.3.66l-3.44-.53-.65-.06-4.03.09-3.98.31c-.53,0-1.06,0-1.6,0-.89-.21-1.71-.36-2.32-.31,1.27.04-3.87-.27-3.66-.26h-.38s-3.95.42-3.95.42l.63.02c-.06,0-.42.08-.9.2h-.06s-2.27.54-2.27.54h-1.78l-3.2-1.44-7.67-.34-.67.03-.19.05-3.49.07c.13,0-3.2.22-3.81.28l-3.81-.23h-.34c.15.02-2.91.21-3.69.29-.95-.13-3.89-.54-4.17-.5-1.89.16-5.59.29-7.58.27l-3.86-.35h-.18c-2.39-.02-6.29.03-7.81.15l-3.94-.21h-.3s-3.98.28-3.98.28l-.17.02h-.04s-3.63.54-3.63.54c-2.39-.19-6.11-.48-7.41-.43-.55-.05-4.31-.73-4.77-.56l-3.43.58-3.42-.71c-.25-.05-.52-.07-.78-.05.16,0-3.05.19-3.75.25-.9-.06-4.06-.36-4.31-.27.15,0-2.98.35-3.74.45-3.82-.06-7.86-.4-11.7.04l-7.67-.52c-.2-.01-.43,0-.63.03l-3.77.52-3.6.11-3.8-.31h-.29s-3.92.09-3.92.09l-3.88-.08h-.31s-3.5.32-3.5.32l-3.5-.71c-.2-.04-.42-.06-.62-.06l-3.95-.05-.42.02-3.64.47-3.49-.24-3.84-.57c-.97-.16-3.02.49-4.44.87l-3.19-.74c-.28-.06-.6-.1-.9-.08l-3.79.18-3.81-.21c-.23-.01-.49,0-.73.04l-3.37.52-3.42-.59-.23-.03h-.04s-2.6-.25-2.6-.25l-1.11-.78c-.23-1.19-.47-2.62-.65-3.85l1.07-1.31,1.72-1.53c.6-.23,1.2-.46,1.79-.71l7.06.47h.09c.29.02.58,0,.88-.06l3.22-.66,3.18.72.06.02c.38.08.78.1,1.19.05l3.54-.5c4.59.53,12.53-.3,15.53-.5,1.85.11,5.83.21,7.8.18l3.66.56c.4.07.81.06,1.22-.04l3.6-.84,3.27-.03,3.61.68.47.06,3.93.14h.06c.27.01.55-.02.82-.09l3.2-.82,3.17.77h.06c.41.11.85.12,1.3.03l3.44-.73,3.4.46c.21.03.43.04.66.02l3.81-.32,3.78.06h.31s3.62-.33,3.62-.33l3.59.53c.27.04.55.05.83,0l3.75-.53,7.48.02c1.24.17,2.87.52,4.3.6l3.98-.25.18-.02,3.89-.57c.55-.03,3.14-.21,3.63-.25l3.74.13,3.91.36h.31s3.74-.16,3.74-.16l3.71.47c.31.04.62.03.94-.05l3.52-.87c3.97.48,8.14.08,11.45.12.36.01,4.16.37,4.43.3ZM524.34,177.47s0,0-.03,0h.03ZM88.77,475.75s0,0-.02,0h.02ZM274.46,496.07s.01,0,.06,0c-.02,0-.03,0-.06,0Z"/>
    <polygon class="cls-1" points="327.93 180.82 327.68 180.8 327.68 180.8 327.93 180.82"/>
    <polygon class="cls-1" points="480.78 177.08 481.08 177.11 481.44 177.05 480.78 177.08"/>
    <polygon class="cls-1" points="382.56 176.98 383.17 177.06 383.88 177.06 382.56 176.98"/>
    <polygon class="cls-1" points="203.39 491.58 203.39 491.58 203.6 491.59 203.39 491.58"/>
    <polygon class="cls-1" points="426 177.05 426.25 177.1 426.51 177.06 426 177.05"/>
    <polygon class="cls-1" points="246.44 492.24 246.69 492.33 246.94 492.24 246.44 492.24"/>
    <path class="cls-1" d="M603.05,193.02l-4.03-2.29-.52-.15-4.57-.15h-.07l-4.52.12-4.52-.26h-.21s-4.42.58-4.42.58l-4.42-.52h-.23s-4.46.36-4.46.36l-4.45-.41h-.18s-4.51.29-4.51.29l-4.52-.04h-4.56s-.06,0-.06,0l-4.5.23-4.49-.27h-.14l-4.46.27-4.46-.49h-.16s-4.54.14-4.54.14l-4.54.07h-.03s-4.49.17-4.49.17l-4.49-.3h-.14s-4.51.25-4.51.25l-4.5-.07h-4.56s-.07,0-.07,0l-4.49.26-4.49-.22h-.11l-4.53.22h-4.48s-4.54-.1-4.54-.1h-.02l-4.55-.02h-.05s-4.49.19-4.49.19l-4.5-.21h-.07s-4.55.08-4.55.08h-.03s-4.44.18-4.44.18l-4.45-.66h-.24s-4.55.28-4.55.28l-4.49.3-4.48-.23h-.08s-4.51.1-4.51.1l-4.54-.08h0s-4.52-.18-4.52-.18h-.08s-4.52.15-4.52.15l-4.51-.13h-.07l-4.52.13-4.52-.07h-4.56s-4.54-.03-4.54-.03l-4.53-.03h0s-4.55-.09-4.55-.09h-4.57s-.04,0-.04,0l-4.55.17-4.51.16-4.5-.13-4.54-.13h-.07l-4.5.14-4.51-.16h-.07l-4.54.1h-.03s-4.46.2-4.46.2l-4.46-.49h-.15s-4.55.11-4.55.11l-4.53.1h0s-4.55.05-4.55.05h-.08s-4.48.38-4.48.38l-4.45-.1-4.5-.38h-.19s-4.43.39-4.43.39l-4.43-.43h-.13s-4.54.09-4.54.09h-.03s-4.5.23-4.5.23h-4.5s-4.54-.08-4.54-.08l-.39.06-4.78,1.64-.51.35-3.27,3.97-.21.39-1.34,4.34h0s-1.38,4.32-1.38,4.32v.04s-1.21,4.32-1.21,4.32l-1.63,4.16-.02.06-1.41,4.31-.02.08-1.09,4.36-1.44,4.24-.02.07-1.17,4.3-1.78,4.1-.04.1-1.39,4.31-.03.09-1.02,4.37-1.4,4.23-1.58,4.23v.02s-1.53,4.26-1.53,4.26l-.04.14-.97,4.35-1.64,4.13-.04.1-1.25,4.31-1.54,4.21-.02.07-1.28,4.29-1.59,4.19-.02.05-1.38,4.3h0s-1.34,4.31-1.34,4.31l-1.41,4.29v.02s-1.35,4.31-1.35,4.31v.04s-1.2,4.36-1.2,4.36v.04s-1.03,4.31-1.03,4.31l-1.74,4.07-.05.14-1.22,4.33-1.29,4.31-1.49,4.22-1.7,4.17-.05.14-1.16,4.35-1.27,4.32-1.37,4.29v.02s-1.31,4.3-1.31,4.3l-1.5,4.21-1.69,4.18-.05.14-1.13,4.33-1.5,4.21h0s-1.48,4.28-1.48,4.28l-.04.13-.93,4.34-1.74,4.07-.06.19-1,4.38-1.32,4.26-1.41,4.24-1.63,4.2-.03.08-1.31,4.29-1.54,4.22v.04s-1.38,4.28-1.38,4.28l-1.48,4.26-.04.16-.85,4.38-1.44,4.15-1.75,4.14-.05.15-1.14,4.3-1.69,4.12-.07.24-.74,4.36-1.77,4.03-.03.07-1.56,4.25-.04.13-1.04,4.36-1.4,4.24-.02.08-1.1,4.38-.03.42.59,4.53c.05.36.26.68.58.85l4.13,2.25c.18.1.39.15.6.14l4.47-.21,4.47.39h.09s4.54.03,4.54.03h.09s4.5-.34,4.5-.34l4.44-.07,4.47.45h.17s4.53-.23,4.53-.23l4.49-.24,4.49.14h.08s4.5-.19,4.5-.19l4.47.08,4.5.38h.21s4.41-.43,4.41-.43l4.41.56h.2s4.48-.21,4.48-.21l4.48.2h.21s4.37-.61,4.37-.61l4.38.62h.22s4.53-.24,4.53-.24h.02s4.48-.31,4.48-.31l4.48.03h.03l4.51-.09,4.51.07h.04l4.46-.08,4.46.43h.2s4.4-.36,4.4-.36l4.41.54h.19s4.51-.22,4.51-.22h0s4.47-.15,4.47-.15l4.49.25h.14s4.47-.29,4.47-.29l4.46.19h.15s4.43-.4,4.43-.4l4.43.38h.16s4.44-.24,4.44-.24l4.43.5h.22s4.46-.36,4.46-.36l4.46.14,4.51.23h.15s4.44-.37,4.44-.37l4.44.31h.07s4.53.04,4.53.04h.13s4.45-.47,4.45-.47l4.44.07,4.49.29h.06s4.53.05,4.53.05h.03l4.53-.06h.07s4.49-.36,4.49-.36l4.46-.03,4.52.07h.03l4.51-.06,4.48.06,4.49.3h.13s4.48-.22,4.48-.22l4.47.04,4.49.3h.19s4.42-.44,4.42-.44l4.43.37h.14s4.51-.16,4.51-.16l4.49.03h0l4.5.06,4.52.17h.15s4.41-.44,4.41-.44l4.41.41h.1s4.52.03,4.52.03h.03l4.52-.09h.11s4.38-.52,4.38-.52l4.39.55h.2s4.52-.21,4.52-.21l.33-.07,4.82-1.75.52-.38,3.1-4.08.17-.33,1.46-4.36.02-.09,1.1-4.41,1.59-4.25.02-.07,1.33-4.39v-.03s1.21-4.44,1.21-4.44h0s1.13-4.39,1.13-4.39l1.63-4.22.04-.14,1.09-4.4,1.59-4.24h0s1.65-4.28,1.65-4.28l.05-.19.88-4.49,1.19-4.36,1.39-4.29,1.76-4.2.04-.1,1.35-4.38v-.04s1.17-4.37,1.17-4.37l1.67-4.2.04-.11,1.27-4.4,1.25-4.41h0s1.27-4.38,1.27-4.38l1.37-4.35.02-.06,1.13-4.4,1.37-4.34v-.02s1.3-4.39,1.3-4.39l1.28-4.3,1.91-4.1.08-.24.95-4.47,1.12-4.37,1.5-4.28,1.5-4.31,1.6-4.29.04-.14,1.03-4.46,1.17-4.34,1.59-4.25.04-.13,1.09-4.41,1.42-4.31.02-.05,1.2-4.34,1.76-4.17.06-.18,1.05-4.38,1.66-4.2.06-.2.88-4.4,1.75-4.13.06-.2.95-4.4,1.61-4.2.04-.14,1.08-4.41,1.41-4.3v-.03s1.31-4.33,1.31-4.33l1.67-4.23.04-.13,1.15-4.43h0s1.17-4.37,1.17-4.37l1.51-4.25,1.67-4.25.05-.16,1-4.44,1.24-4.31,1.58-4.25v-.02s1.53-4.32,1.53-4.32v-.03s1.41-4.36,1.41-4.36v-.02s1.31-4.36,1.31-4.36l1.45-4.32.03-.1,1.04-4.47v-.5s-.99-4.53-.99-4.53c-.07-.32-.27-.59-.55-.75ZM592.78,228.84l-.99,4.39-1.64,4.18v.03s-1.55,4.31-1.55,4.31l-.03.09-1.18,4.42h0s-1.13,4.38-1.13,4.38l-1.66,4.21-.03.09-1.32,4.37-1.42,4.33-.02.08-1.07,4.38-1.62,4.21-.05.17-.95,4.38-1.75,4.14-.07.22-.88,4.41-1.65,4.17-.05.15-1.05,4.37-1.75,4.15-.05.14-1.21,4.38-1.42,4.33-.02.08-1.09,4.39-1.59,4.23-.03.1-1.19,4.42v.04s-1.03,4.4-1.03,4.4l-1.58,4.23v.02s-1.51,4.33-1.51,4.33l-1.52,4.32-.03.09-1.14,4.44v.05s-.94,4.36-.94,4.36l-1.89,4.06-.06.16-1.3,4.38-1.29,4.38-1.38,4.36-.02.06-1.13,4.41-1.37,4.33v.03s-1.28,4.4-1.28,4.4h0s-1.25,4.41-1.25,4.41l-1.25,4.34-1.68,4.21-.04.13-1.17,4.41-1.33,4.31-1.76,4.19-.03.09-1.41,4.36v.05s-1.22,4.42-1.22,4.42l-.02.08-.87,4.43-1.61,4.2h0s-1.61,4.31-1.61,4.31l-.04.13-1.08,4.39-1.63,4.21-.04.12-1.15,4.43-1.19,4.42-1.32,4.34-1.6,4.28-.04.12-1.11,4.43-1.39,4.14-2.79,3.67-4.34,1.57-4.26.21-4.42-.55h-.27s-4.46.53-4.46.53l-4.45.09-4.46-.03-4.47-.41h-.22s-4.44.43-4.44.43l-4.44-.16h-.03s-4.52-.07-4.52-.07h0l-4.52-.03h-.05s-4.46.16-4.46.16l-4.46-.38h-.21s-4.44.44-4.44.44l-4.43-.3h-.07s-4.52-.04-4.52-.04h-.07s-4.46.23-4.46.23l-4.45-.3h-.06s-4.52-.06-4.52-.06h-.03l-4.5.06-4.51-.07h-.02l-4.53.03h-.08s-4.5.36-4.5.36l-4.47.06-4.49-.05-4.5-.29h-.06s-4.52-.07-4.52-.07h-.13s-4.46.47-4.46.47l-4.43-.04-4.5-.32h-.17s-4.46.37-4.46.37l-4.45-.22h-.02s-4.53-.14-4.53-.14h-.13s-4.42.37-4.42.37l-4.42-.5h-.19s-4.45.24-4.45.24l-4.46-.38h-.2s-4.45.4-4.45.4l-4.45-.19h-.12s-4.46.29-4.46.29l-4.46-.25h-.1s-4.53.15-4.53.15h-.02s-4.43.22-4.43.22l-4.43-.54h-.23s-4.42.36-4.42.36l-4.42-.42h-.13s-4.5.08-4.5.08l-4.53-.07h-.04l-4.52.09-4.5-.03h-.09s-4.51.32-4.51.32l-4.41.24-4.42-.63h-.31s-4.42.6-4.42.6l-4.43-.2h-.11s-4.43.22-4.43.22l-4.44-.56h-.25s-4.43.43-4.43.43l-4.43-.38h-.08s-4.54-.08-4.54-.08h-.07s-4.49.19-4.49.19l-4.5-.14h-.1s-4.54.25-4.54.25l-4.44.23-4.45-.45h-.13s-4.54.07-4.54.07h-.07s-4.49.34-4.49.34l-4.45-.03-4.5-.4h-.15s-4.23.2-4.23.2l-3.34-1.82-.48-3.74,1.04-4.14,1.4-4.25.03-.09,1.04-4.34,1.52-4.15,1.81-4.13.08-.27.74-4.38,1.67-4.07.05-.14,1.14-4.29,1.73-4.1.03-.07,1.48-4.26.04-.16.85-4.38,1.46-4.19v-.03s1.38-4.28,1.38-4.28l1.54-4.23.02-.06,1.31-4.28,1.62-4.18.02-.05,1.43-4.28v-.02s1.35-4.31,1.35-4.31l.02-.08.99-4.32,1.74-4.08.07-.21.94-4.38,1.45-4.2,1.52-4.25.03-.09,1.12-4.31,1.67-4.13.02-.05,1.52-4.26.02-.05,1.31-4.32,1.37-4.3v-.03s1.28-4.34,1.28-4.34v-.03s1.16-4.3,1.16-4.3l1.69-4.13.02-.05,1.5-4.27.02-.05,1.29-4.33v-.02s1.21-4.28,1.21-4.28l1.75-4.09.06-.18,1.04-4.37,1.17-4.32,1.34-4.29,1.41-4.29v-.02s1.35-4.31,1.35-4.31l1.37-4.26,1.59-4.2.03-.08,1.28-4.3,1.55-4.22.02-.07,1.25-4.29,1.66-4.16.05-.17.97-4.37,1.49-4.18h0s1.59-4.25,1.59-4.25v-.04s1.44-4.29,1.44-4.29l.03-.1,1.02-4.38,1.36-4.21,1.8-4.12.05-.15,1.18-4.34.73-2.15,12.28-.05,4.46.63c4.13-.02,14.37-.42,18.27-.03,2.44,0,11,0,13.53,0l4.47.42h.07s.11,0,.11,0c2.2.04,6.79-.06,9.05-.2l4.45.31c2.27.1,6.96.21,9.22.22l4.42-.23,4.4.41h.06s.1,0,.1,0l4.61.1,4.47-.19,4.45.26h.14s.17,0,.17,0l4.35-.34,4.37.31h.21s.23,0,.23,0l4.24-.47,4.25.57.23.03.25-.02,8.97-.54,8.9.11,4.46.4.23.02.24-.02,4.25-.41,4.26.55.15.02h4.78c-.21,0,3.98-.18,4.46-.22l4.47.15h.19c3.96-.15,9.65-.42,13.55-.46,2.16.13,6.43.36,9.28.4-.18,0,3.57-.31,4.31-.41l4.31.38.22.02.2-.02,4.4-.36,4.39.13h.21s4.54-.26,4.54-.26c7.97.45,18.52.64,27.2-.04,3.04.31,10.37.23,13.44-.11l4.55.18h.3s4.45-.46,4.45-.46l4.35.06,4.45.41c4.57-.19,9.31-.15,13.91-.69l8.95.28h.13s.07,0,.07,0l4.49-.44,4.47-.16c4.44.28,17.06.14,21.9-.32l-.88,3.06-.02.06ZM601.35,202.7l-1.44,4.28v.04s-1.32,4.38-1.32,4.38l-1.39,4.34-1.51,4.28h0l-1.59,4.29-.02.06-.06-.96c-5.98.52-20.87-.37-26.85-.25l-4.47.27-9.01-.61c-4.05.35-10.49.18-13.53.34l-4.55-.52h-.06s-.1,0-.1,0l-4.54-.16h-.09s-.14,0-.14,0l-4.38.35-4.41-.27h-.08c-4.56.24-8.99.24-13.53-.19-9.23.47-18.29.31-27.52-.22.19,0-3.94.19-4.4.22l-4.46-.16h-.13s-.15,0-.15,0l-4.31.32-4.34-.42-.22-.02-.24.02-4.54.4c-1.27-.11-6.33-.3-8.9-.48-3.96-.02-9.61.26-13.63.46-.44-.02-4.58-.12-4.42-.12-2.29.15-6.61.32-9,.28l-4.39-.53-.29-.03-.27.03-4.31.45-4.3-.36h-.2s-9.17-.06-9.17-.06l-8.94.6-4.3-.55-.3-.04-.29.03-4.33.51-4.31-.28h-.36c.24,0-3.81.32-4.4.39l-4.38-.17h-.14s-.09,0-.09,0l-4.46.28h-4.41s-4.44-.33-4.44-.33h-.18c-5.7.53-12.45.38-18.16.06-2.28.19-6.67.38-9.01.39l-4.44-.32h-.12s-.07,0-.07,0c-5.02.13-13.12.55-18.06.36h-.08s-.03,0-.03,0l-13.5.71-4.41-.43h-.12s-.07,0-.07,0l-11.56.24,1.07-4.27,1.38-4.24,1.64-4.19.04-.11,1.2-4.36,1.37-4.31h0s1.27-4.14,1.27-4.14l2.92-3.55,4.29-1.47,4.34.08h4.56s.06,0,.06,0l4.5-.23,4.48-.1,4.46.44h.21s4.44-.39,4.44-.39l4.44.38h.07s4.54.1,4.54.1h.12s4.5-.38,4.5-.38l4.5-.05h.01s4.55-.1,4.55-.1l4.47-.11,4.47.49h.17s4.54-.2,4.54-.2h0s4.48-.1,4.48-.1l4.51.16h.08l4.51-.14,4.5.12,4.54.14h.08l4.55-.17,4.54-.17h4.5s4.55.09,4.55.09h.01l4.54.03,4.55.02h4.53s4.55.08,4.55.08h.05s4.52-.13,4.52-.13l4.51.13h.07l4.51-.15,4.5.18h.03s4.55.08,4.55.08h.04s4.5-.1,4.5-.1l4.51.23h.13s4.55-.3,4.55-.3l4.42-.28,4.43.66h.21s4.53-.17,4.53-.17l4.51-.08,4.52.21h.1l4.53-.19,4.5.02h0s4.54.1,4.54.1h4.56s.06,0,.06,0l4.49-.22,4.5.22h.12s4.53-.26,4.53-.26h4.48s4.54.07,4.54.07h.08s4.48-.25,4.48-.25l4.48.3h.12s4.54-.17,4.54-.17l4.53-.07h.02s4.47-.14,4.47-.14l4.47.49h.19s4.49-.27,4.49-.27l4.48.27h.12s4.53-.23,4.53-.23h4.53s0,0,0,0l4.56.04h.08s4.47-.29,4.47-.29l4.46.41h.2s4.44-.37,4.44-.37l4.45.53h.28s4.46-.57,4.46-.57l4.46.26h.1s4.53-.11,4.53-.11l4.26.14,3.35,1.9.83,3.79-.97,4.16Z"/>
    <path class="cls-1" d="M526.33,300.97c-6.25-4.19-14.01-6.1-21.43-5.79-26.58.3-97.44,1.04-124.9,1.32l-83.27.35c-14.24-.09-28.35,6.34-37.63,17.21-7.88,9.53-13.32,22.21-11.57,34.7,2.02,12.63,11.57,23.74,24.01,27.16,6.91,2.47,44.71,1.25,52.41,1.79,41.5.56,125.02,1.14,166.53,1.22,18.75.03,36.81-10.91,45.44-27.51,1.68-3.15,2.97-6.75,4.11-10.14,5.12-14.6-.74-31.88-13.71-40.32ZM533.78,339.17c-.37,1.19-1.27,3.56-1.72,4.71-6.5,16.64-23.76,28.13-41.56,27.9-59.98.07-148.42.97-208.16,1.67-3.44.05-6.57-.13-9.83-.98-11.28-2.84-20.17-12.72-22.06-24.18-1.69-11.66,3.41-23.58,10.68-32.52,8.69-10.36,22.05-16.61,35.63-16.64l83.27.35c27.22.28,98.62,1.02,124.9,1.32,6.51-.12,12.66,1.51,18.01,5.19,10.45,7.25,15.12,21.2,10.86,33.19Z"/>
    <path class="cls-1" d="M296.28,201.62c-1.82,0-3.55.72-4.96,1.85-1.4,1.13-2.49,2.68-2.93,4.47-.13.53-.19,1.05-.19,1.56,0,1.46.54,2.82,1.52,3.78.97.97,2.36,1.52,3.9,1.51,1.82,0,3.55-.72,4.96-1.85,1.4-1.13,2.49-2.68,2.93-4.47l-1.1-.27,1.1.27c.13-.53.19-1.05.19-1.56,0-1.46-.54-2.82-1.52-3.78-.97-.97-2.36-1.52-3.9-1.51ZM299.3,207.95c-.29,1.22-1.09,2.39-2.14,3.24-1.05.85-2.34,1.35-3.53,1.35-1.02,0-1.78-.34-2.31-.86-.52-.52-.84-1.24-.84-2.17,0-.32.04-.66.13-1.03.29-1.22,1.09-2.39,2.14-3.24,1.05-.85,2.34-1.35,3.53-1.35,1.02,0,1.78.34,2.31.86.52.52.84,1.24.84,2.17,0,.32-.04.66-.13,1.03h0Z"/>
    <path class="cls-1" d="M314.47,201.62c-1.82,0-3.55.72-4.96,1.85-1.4,1.13-2.49,2.68-2.93,4.47-.13.53-.19,1.05-.19,1.56,0,1.46.54,2.82,1.52,3.78.97.97,2.36,1.52,3.9,1.51,1.82,0,3.55-.72,4.96-1.85,1.4-1.13,2.49-2.68,2.93-4.47l-1.1-.27,1.1.27c.13-.53.19-1.05.19-1.56,0-1.46-.54-2.82-1.52-3.78-.97-.97-2.36-1.52-3.9-1.51ZM317.49,207.95c-.29,1.22-1.09,2.39-2.14,3.24-1.05.85-2.34,1.35-3.53,1.35-1.02,0-1.78-.34-2.31-.86-.52-.52-.84-1.24-.84-2.17,0-.32.04-.66.13-1.03.29-1.22,1.09-2.39,2.14-3.24,1.05-.85,2.34-1.35,3.53-1.35,1.02,0,1.78.34,2.31.86.52.52.84,1.24.84,2.17,0,.32-.04.66-.13,1.03h0Z"/>
    <path class="cls-1" d="M332.65,201.62c-1.82,0-3.55.72-4.96,1.85-1.4,1.13-2.49,2.68-2.93,4.47-.13.53-.19,1.05-.19,1.56,0,1.46.54,2.82,1.52,3.78.97.97,2.36,1.52,3.9,1.51,1.82,0,3.55-.72,4.96-1.85,1.4-1.13,2.49-2.68,2.93-4.47l-1.1-.27,1.1.27c.13-.53.19-1.05.19-1.56,0-1.46-.54-2.82-1.52-3.78-.97-.97-2.36-1.52-3.9-1.51ZM335.67,207.95c-.29,1.22-1.09,2.39-2.14,3.24-1.05.85-2.34,1.35-3.53,1.35-1.02,0-1.78-.34-2.31-.86-.52-.52-.84-1.24-.84-2.17,0-.32.04-.66.13-1.03.29-1.22,1.09-2.39,2.14-3.24,1.05-.85,2.34-1.35,3.53-1.35,1.02,0,1.78.34,2.31.86.52.52.84,1.24.84,2.17,0,.32-.04.66-.13,1.03h0Z"/>
    <polygon class="cls-1" points="294.22 344.14 303.18 318.81 295.96 318.81 284.91 350.03 307.79 350.03 309.87 344.14 294.22 344.14"/>
    <path class="cls-1" d="M332.98,318.81l-24.96,31.22h7.4l5.13-6.69h14.49l.4,6.69h7.58l-2.91-31.22h-7.14ZM324.82,337.85l9.18-11.95.72,11.95h-9.9Z"/>
    <path class="cls-1" d="M377.55,318.81l-6.09,17.21c-2.1,5.93-5.51,8.38-9.93,8.38s-6.09-2.45-3.99-8.38l6.09-17.21h-7.22l-6.19,17.48c-3.25,9.19.21,14.27,9.09,14.27s15.94-5.08,19.19-14.27l6.19-17.48h-7.14Z"/>
    <polygon class="cls-1" points="413.32 318.81 406.61 337.77 397.8 318.81 391.83 318.81 380.78 350.03 387.91 350.03 394.62 331.08 403.48 350.03 409.41 350.03 420.46 318.81 413.32 318.81"/>
    <path class="cls-1" d="M443.05,318.28c-9.72,0-19.33,6.73-22.66,16.14-3.33,9.41,1.51,16.14,11.19,16.14,5.44,0,10.64-1.96,14.86-5.58l-3.12-4.28c-2.97,2.45-6.04,3.7-9.16,3.7-5.84,0-8.54-4.1-6.45-9.99,2.08-5.88,7.68-9.99,13.53-9.99,3.12,0,5.31,1.25,6.56,3.66l6.15-4.28c-1.68-3.57-5.49-5.53-10.89-5.53Z"/>
    <polygon class="cls-1" points="481.98 318.81 477.62 331.12 463.44 331.12 467.8 318.81 460.57 318.81 449.52 350.03 456.75 350.03 461.28 337.23 475.46 337.23 470.93 350.03 478.16 350.03 489.21 318.81 481.98 318.81"/>
    <polygon class="cls-1" points="489.4 339.19 494.93 339.19 503.53 318.81 495.23 318.81 489.4 339.19"/>
    <path class="cls-1" d="M491.05,342.36c-2.5,0-4.88,1.7-5.69,3.97-.79,2.23.35,4.06,2.85,4.06s4.93-1.83,5.72-4.06c.81-2.28-.38-3.97-2.87-3.97Z"/>
  </g>
  <g>
    <g>
      <path class="cls-3" d="M180.84,178.68c.2-.1.46-.14.6-.3.3-.34.68-.7.78-1.12.62-2.6,2.1-4.56,4.14-6.22.34-.27.42-1.52.14-1.77-1.71-1.52-3.53-2.9-5.37-4.25-.26-.19-.97-.14-1.21.08-2.04,1.85-4.01,3.76-6,5.65,1,2.62,3.77,3.85,5.01,6.3.3.59.83,1.07,1.3,1.56.11.11.41.05.62.07Z"/>
      <path class="cls-1" d="M182.72,144.42c-.67,5.86.64,11.51,1.78,17.19.46,2.31,2.14,3.55,4.27,4.1,1.56.4,3.2.47,4.79.72,2.97.47,5.94.94,8.89,1.47.66.12,1.37.37,1.88.79.49.4,1.01,1.07,1.02,1.64.01.55-.49,1.37-.98,1.6-1.02.48-2.16.75-3.29.9-3.44.48-6.92.74-10.34,1.33-3.68.64-5.18,2.27-5.53,6.06-.36,3.92-.36,7.87-.64,11.79-.25,3.46-.62,6.91-1.08,10.34-.06.47-.94,1.11-1.47,1.14-.53.03-1.28-.48-1.62-.97-.36-.53-.4-1.3-.48-1.98-.45-3.91-1.07-7.81-1.26-11.73-.18-3.88-1.96-7.11-3.52-10.45-.71-1.53-2.07-2.4-3.69-2.96-3.12-1.07-6.32-1.39-9.58-1.35-2.32.03-4.68.15-6.78-1.04-.46-.26-.9-1.13-.8-1.61.11-.57.72-1.28,1.27-1.47.83-.29,1.83-.35,2.7-.19,4.31.77,8.26-.49,12.19-1.95,4.05-1.5,6.55-4.4,7.14-8.65.53-3.89.73-7.84.99-11.76.2-3.01.26-6.04,1.49-8.85.21-.47,1.09-.96,1.58-.89.52.08,1.34.8,1.35,1.26.04,1.84-.17,3.68-.3,5.52ZM180.84,178.68c.2-.1.46-.14.6-.3.3-.34.68-.7.78-1.12.62-2.6,2.1-4.56,4.14-6.22.34-.27.42-1.52.14-1.77-1.71-1.52-3.53-2.9-5.37-4.25-.26-.19-.97-.14-1.21.08-2.04,1.85-4.01,3.76-6,5.65,1,2.62,3.77,3.85,5.01,6.3.3.59.83,1.07,1.3,1.56.11.11.41.05.62.07Z"/>
    </g>
    <g>
      <path class="cls-3" d="M92.59,221.02c-.25-.47-.38-1.12-.77-1.38-5.96-3.89-11.09-8.69-15.68-14.11-1.13-1.33-2.52-1.38-3.31.08-2.6,4.8-6.75,7.69-11.55,9.9-1.97.91-3.84,2.05-5.76,3.07-.93.49-2.34.82-1.89,2.17.3.89,1.26,1.66,2.09,2.26,1.1.78,2.37,1.34,3.57,1.99,3.49,1.9,5.85,4.69,7.41,8.38,1.7,4.02,3.3,8.04,4.29,12.31.23.96,1.16,1.76,1.77,2.63.71-.74,1.66-1.37,2.07-2.24,1.39-2.94,2.7-5.94,3.84-8.98,2.5-6.63,6.28-12.05,13.14-14.81.37-.15.52-.83.78-1.27Z"/>
      <path class="cls-1" d="M76.61,182.1c-.48,5.47-.18,10.88,1.31,16.21.76,2.7,1.89,5.1,3.79,7.13,5.65,6.02,11.6,11.49,20.24,12.94,3.05.51,4.3,1.91,3.97,3.17-.52,1.97-2.29,2.18-3.79,2.63-2.6.78-5.24,1.46-7.9,2.03-4.05.87-6.8,3.34-8.7,6.85-4.58,8.42-8.63,16.99-9.03,26.86-.12,2.95-.97,5.88-1.6,8.8-.08.35-.82.72-1.3.77-.46.05-1.06-.18-1.43-.49-.4-.33-.74-.85-.86-1.35-.7-2.91-1.64-5.81-1.93-8.77-.72-7.41-3.36-14.3-5.36-21.36-.84-2.95-2.63-5.34-5.07-7.25-4.82-3.79-10.16-6.24-16.33-6.87-3-.3-4.63-1.64-4.19-2.91.62-1.79,2.16-2.42,3.8-2.58,6.68-.66,12.46-3.86,18.38-6.58,6.55-3,9.79-8.4,10.22-15.53.28-4.63.48-9.26.77-13.89.15-2.45.39-4.89.67-7.33.2-1.72,1.39-2.63,2.65-2.3,1.35.35,1.61,1.42,1.66,2.47.1,2.45.03,4.9.03,7.35ZM92.59,221.02c-.25-.47-.38-1.12-.77-1.38-5.96-3.89-11.09-8.69-15.68-14.11-1.13-1.33-2.52-1.38-3.31.08-2.6,4.8-6.75,7.69-11.55,9.9-1.97.91-3.84,2.05-5.76,3.07-.93.49-2.34.82-1.89,2.17.3.89,1.26,1.66,2.09,2.26,1.1.78,2.37,1.34,3.57,1.99,3.49,1.9,5.85,4.69,7.41,8.38,1.7,4.02,3.3,8.04,4.29,12.31.23.96,1.16,1.76,1.77,2.63.71-.74,1.66-1.37,2.07-2.24,1.39-2.94,2.7-5.94,3.84-8.98,2.5-6.63,6.28-12.05,13.14-14.81.37-.15.52-.83.78-1.27Z"/>
    </g>
    <g>
      <path class="cls-3" d="M162.68,271.04c-.02.16-.1.37-.37.47-4.11,1.44-6.05,4.82-7.54,7.88-.1.2-.18.41-.26.62-.14.36-.27.71-.46.88-.15.13-.62.27-.88.3-3.25-4.45-7.89-7.1-11.99-9.24-.37-.19-.57-.4-.6-.46-.11-.54-.05-1.02.04-1.12.51-.54,1.19-.98,1.89-1.22,4.12-1.43,7.41-4.03,10.08-7.94.17-.25.48-.46.79-.66.08-.06.17-.11.25-.17.04,0,.07.01.11.02.04,0,.07,0,.1.01.36.42.73.86.99,1.33,2.17,3.87,4.4,6.41,7.24,8.22.48.3.65.77.61,1.09Z"/>
      <path class="cls-1" d="M179.78,269.94c-1.51-.32-2.73-.48-3.84-.52-4.41-.15-8.6-1.6-12.83-4.43-1.11-.74-2-1.63-2.51-2.49-4.55-7.75-6.17-14.62-5.09-21.6.18-1.14.3-2.31.43-3.54.06-.6.13-1.23.21-1.89v-.11s-.02-.11-.02-.11c-.07-.23-.13-.48-.2-.74-.21-.82-.45-1.74-.84-2.63-.1-.23-.31-.38-.64-.48-.47-.13-1.34-.17-1.8.15-.63.43-.99,1.36-1.05,2.04-.21,2.32-.39,4.67-.57,6.95-.17,2.15-.33,4.29-.53,6.44-.13,1.52-.32,3.06-.5,4.55-.15,1.23-.29,2.46-.42,3.69-.39,3.88-2.17,6.53-5.45,8.13-.48.23-.93.51-1.37.78-.65.4-1.27.78-1.92.99-1.78.57-3.42,1.45-5.01,2.31-2.18,1.17-4.23,2.28-6.63,2.66-.77.12-1.46,1.28-1.51,1.97-.05.75.73,1.69,1.37,1.91,1.03.35,2.11.58,3.15.81.42.09.83.18,1.25.28.65.15,1.31.28,1.97.42,1.39.28,2.84.56,4.14,1.07,6.64,2.57,10.31,6.76,11.23,12.83l.13.88c.3,1.98.62,4.03.79,6.04.09,1.05.1,2.13.11,3.17.01,1.05.02,2.14.11,3.22.12,1.41.42,2.91.91,4.47.2.64,1.2,1.18,1.89,1.18.07,0,.14,0,.2-.02.71-.13,1.52-.93,1.67-1.64.21-1.02.19-2.07.16-3.08v-.21c-.03-1.04-.08-2.07-.12-3.11-.08-1.7-.16-3.46-.13-5.18.07-4.07.69-8.15,1.91-12.47,1.21-4.28,3.54-6.5,7.32-6.98,3.04-.39,6.12-.83,9.1-1.26l2.28-.33c.17-.02.34-.05.51-.07.71-.09,1.45-.17,2.1-.51.73-.37,1-1.48,1.08-1.94.1-.59-.5-1.49-1.08-1.61ZM162.68,271.04c-.02.16-.1.37-.37.47-4.11,1.44-6.05,4.82-7.54,7.88-.1.2-.18.41-.26.62-.14.36-.27.71-.46.88-.15.13-.62.27-.88.3-3.25-4.45-7.89-7.1-11.99-9.24-.37-.19-.57-.4-.6-.46-.11-.54-.05-1.02.04-1.12.51-.54,1.19-.98,1.89-1.22,4.12-1.43,7.41-4.03,10.08-7.94.17-.25.48-.46.79-.66.08-.06.17-.11.25-.17.04,0,.07.01.11.02.04,0,.07,0,.1.01.36.42.73.86.99,1.33,2.17,3.87,4.4,6.41,7.24,8.22.48.3.65.77.61,1.09Z"/>
    </g>
  </g>
  <g>
    <g>
      <path class="cls-3" d="M604.03,402.81c.2-.1.46-.14.6-.3.3-.34.68-.7.78-1.12.62-2.6,2.1-4.56,4.14-6.22.34-.27.42-1.52.14-1.77-1.71-1.52-3.53-2.9-5.37-4.25-.26-.19-.97-.14-1.21.08-2.04,1.85-4.01,3.76-6,5.65,1,2.62,3.77,3.85,5.01,6.3.3.59.83,1.07,1.3,1.56.11.11.41.05.62.07Z"/>
      <path class="cls-1" d="M605.91,368.54c-.67,5.86.64,11.51,1.78,17.19.46,2.31,2.14,3.55,4.27,4.1,1.56.4,3.2.47,4.79.72,2.97.47,5.94.94,8.89,1.47.66.12,1.37.37,1.88.79.49.4,1.01,1.07,1.02,1.64.01.55-.49,1.37-.98,1.6-1.02.48-2.16.75-3.29.9-3.44.48-6.92.74-10.34,1.33-3.68.64-5.18,2.27-5.53,6.06-.36,3.92-.36,7.87-.64,11.79-.25,3.46-.62,6.91-1.08,10.34-.06.47-.94,1.11-1.47,1.14-.53.03-1.28-.48-1.62-.97-.36-.53-.4-1.3-.48-1.98-.45-3.91-1.07-7.81-1.26-11.73-.18-3.88-1.96-7.11-3.52-10.45-.71-1.53-2.07-2.4-3.69-2.96-3.12-1.07-6.32-1.39-9.58-1.35-2.32.03-4.68.15-6.78-1.04-.46-.26-.9-1.13-.8-1.61.11-.57.72-1.28,1.27-1.47.83-.29,1.83-.35,2.7-.19,4.31.77,8.26-.49,12.19-1.95,4.05-1.5,6.55-4.4,7.14-8.65.53-3.89.73-7.84.99-11.76.2-3.01.26-6.04,1.49-8.85.21-.47,1.09-.96,1.58-.89.52.08,1.34.8,1.35,1.26.04,1.84-.17,3.68-.3,5.52ZM604.03,402.81c.2-.1.46-.14.6-.3.3-.34.68-.7.78-1.12.62-2.6,2.1-4.56,4.14-6.22.34-.27.42-1.52.14-1.77-1.71-1.52-3.53-2.9-5.37-4.25-.26-.19-.97-.14-1.21.08-2.04,1.85-4.01,3.76-6,5.65,1,2.62,3.77,3.85,5.01,6.3.3.59.83,1.07,1.3,1.56.11.11.41.05.62.07Z"/>
    </g>
    <g>
      <path class="cls-3" d="M515.79,445.14c-.25-.47-.38-1.12-.77-1.38-5.96-3.89-11.09-8.69-15.68-14.11-1.13-1.33-2.52-1.38-3.31.08-2.6,4.8-6.75,7.69-11.55,9.9-1.97.91-3.84,2.05-5.76,3.07-.93.49-2.34.82-1.89,2.17.3.89,1.26,1.66,2.09,2.26,1.1.78,2.37,1.34,3.57,1.99,3.49,1.9,5.85,4.69,7.41,8.38,1.7,4.02,3.3,8.04,4.29,12.31.23.96,1.16,1.76,1.77,2.63.71-.74,1.66-1.37,2.07-2.24,1.39-2.94,2.7-5.94,3.84-8.98,2.5-6.63,6.28-12.05,13.14-14.81.37-.15.52-.83.78-1.27Z"/>
      <path class="cls-1" d="M499.8,406.22c-.48,5.47-.18,10.88,1.31,16.21.76,2.7,1.89,5.1,3.79,7.13,5.65,6.02,11.6,11.49,20.24,12.94,3.05.51,4.3,1.91,3.97,3.17-.52,1.97-2.29,2.18-3.79,2.63-2.6.78-5.24,1.46-7.9,2.03-4.05.87-6.8,3.34-8.7,6.85-4.58,8.42-8.63,16.99-9.03,26.86-.12,2.95-.97,5.88-1.6,8.8-.08.35-.82.72-1.3.77-.46.05-1.06-.18-1.43-.49-.4-.33-.74-.85-.86-1.35-.7-2.91-1.64-5.81-1.93-8.77-.72-7.41-3.36-14.3-5.36-21.36-.84-2.95-2.63-5.34-5.07-7.25-4.82-3.79-10.16-6.24-16.33-6.87-3-.3-4.63-1.64-4.19-2.91.62-1.79,2.16-2.42,3.8-2.58,6.68-.66,12.46-3.86,18.38-6.58,6.55-3,9.79-8.4,10.22-15.53.28-4.63.48-9.26.77-13.89.15-2.45.39-4.89.67-7.33.2-1.72,1.39-2.63,2.65-2.3,1.35.35,1.61,1.42,1.66,2.47.1,2.45.03,4.9.03,7.35ZM515.79,445.14c-.25-.47-.38-1.12-.77-1.38-5.96-3.89-11.09-8.69-15.68-14.11-1.13-1.33-2.52-1.38-3.31.08-2.6,4.8-6.75,7.69-11.55,9.9-1.97.91-3.84,2.05-5.76,3.07-.93.49-2.34.82-1.89,2.17.3.89,1.26,1.66,2.09,2.26,1.1.78,2.37,1.34,3.57,1.99,3.49,1.9,5.85,4.69,7.41,8.38,1.7,4.02,3.3,8.04,4.29,12.31.23.96,1.16,1.76,1.77,2.63.71-.74,1.66-1.37,2.07-2.24,1.39-2.94,2.7-5.94,3.84-8.98,2.5-6.63,6.28-12.05,13.14-14.81.37-.15.52-.83.78-1.27Z"/>
    </g>
    <g>
      <path class="cls-3" d="M585.87,495.16c-.02.16-.1.37-.37.47-4.11,1.44-6.05,4.82-7.54,7.88-.1.2-.18.41-.26.62-.14.36-.27.71-.46.88-.15.13-.62.27-.88.3-3.25-4.45-7.89-7.1-11.99-9.24-.37-.19-.57-.4-.6-.46-.11-.54-.05-1.02.04-1.12.51-.54,1.19-.98,1.89-1.22,4.12-1.43,7.41-4.03,10.08-7.94.17-.25.48-.46.79-.66.08-.06.17-.11.25-.17.04,0,.07.01.11.02.04,0,.07,0,.1.01.36.42.73.86.99,1.33,2.17,3.87,4.4,6.41,7.24,8.22.48.3.65.77.61,1.09Z"/>
      <path class="cls-1" d="M602.97,494.06c-1.51-.32-2.73-.48-3.84-.52-4.41-.15-8.6-1.6-12.83-4.43-1.11-.74-2-1.63-2.51-2.49-4.55-7.75-6.17-14.62-5.09-21.6.18-1.14.3-2.31.43-3.54.06-.6.13-1.23.21-1.89v-.11s-.02-.11-.02-.11c-.07-.23-.13-.48-.2-.74-.21-.82-.45-1.74-.84-2.63-.1-.23-.31-.38-.64-.48-.47-.13-1.34-.17-1.8.15-.63.43-.99,1.36-1.05,2.04-.21,2.32-.39,4.67-.57,6.95-.17,2.15-.33,4.29-.53,6.44-.13,1.52-.32,3.06-.5,4.55-.15,1.23-.29,2.46-.42,3.69-.39,3.88-2.17,6.53-5.45,8.13-.48.23-.93.51-1.37.78-.65.4-1.27.78-1.92.99-1.78.57-3.42,1.45-5.01,2.31-2.18,1.17-4.23,2.28-6.63,2.66-.77.12-1.46,1.28-1.51,1.97-.05.75.73,1.69,1.37,1.91,1.03.35,2.11.58,3.15.81.42.09.83.18,1.25.28.65.15,1.31.28,1.97.42,1.39.28,2.84.56,4.14,1.07,6.64,2.57,10.31,6.76,11.23,12.83l.13.88c.3,1.98.62,4.03.79,6.04.09,1.05.1,2.13.11,3.17.01,1.05.02,2.14.11,3.22.12,1.41.42,2.91.91,4.47.2.64,1.2,1.18,1.89,1.18.07,0,.14,0,.2-.02.71-.13,1.52-.93,1.67-1.64.21-1.02.19-2.07.16-3.08v-.21c-.03-1.04-.08-2.07-.12-3.11-.08-1.7-.16-3.46-.13-5.18.07-4.07.69-8.15,1.91-12.47,1.21-4.28,3.54-6.5,7.32-6.98,3.04-.39,6.12-.83,9.1-1.26l2.28-.33c.17-.02.34-.05.51-.07.71-.09,1.45-.17,2.1-.51.73-.37,1-1.48,1.08-1.94.1-.59-.5-1.49-1.08-1.61ZM585.87,495.16c-.02.16-.1.37-.37.47-4.11,1.44-6.05,4.82-7.54,7.88-.1.2-.18.41-.26.62-.14.36-.27.71-.46.88-.15.13-.62.27-.88.3-3.25-4.45-7.89-7.1-11.99-9.24-.37-.19-.57-.4-.6-.46-.11-.54-.05-1.02.04-1.12.51-.54,1.19-.98,1.89-1.22,4.12-1.43,7.41-4.03,10.08-7.94.17-.25.48-.46.79-.66.08-.06.17-.11.25-.17.04,0,.07.01.11.02.04,0,.07,0,.1.01.36.42.73.86.99,1.33,2.17,3.87,4.4,6.41,7.24,8.22.48.3.65.77.61,1.09Z"/>
    </g>
  </g>
</svg>