<svg id="materials" xmlns="http://www.w3.org/2000/svg" viewBox="0 0 300 40"><defs><style>.cls-1{fill:#fff;}.cls-2{fill:#474747;}</style></defs><title>law-page-title</title><path class="cls-1" d="M11.24,33.35c-3.71,0-4.11-2.79-4.11-4v-.55a4.2,4.2,0,0,1-4-4.45,3.52,3.52,0,0,1,1-2.6,3.46,3.46,0,0,1-1.08-2.52A14.68,14.68,0,0,1,3.38,17c.06-.34.12-.64.13-.77.09-.71.12-1.36.17-2.64l0-.5a3.33,3.33,0,0,1,3.47-3.5,4.12,4.12,0,0,1,.62,0A3.74,3.74,0,0,1,11,8.07,3.73,3.73,0,0,1,14.61,10a5,5,0,0,1,1.12-.13H16a3.59,3.59,0,0,1,3.47-1.82c1.95,0,3.24.61,3.85,1.82H24a3.56,3.56,0,0,1,3.87,3.81,4.38,4.38,0,0,1-.35,1.78,4.12,4.12,0,0,1,.8,2.53,4.68,4.68,0,0,1-.63,2.53,4.33,4.33,0,0,1,.51,2.11c0,1.84-.67,3.1-1.93,3.7v1.61c0,4-1.51,5.3-6,5.3-1.42,0-3.83,0-4.88-2.05a2.82,2.82,0,0,1-.62-.21A3.53,3.53,0,0,1,11.24,33.35Z"/><path class="cls-2" d="M19.45,10.05c1.47,0,2.27.22,2.27,1.82H24a1.62,1.62,0,0,1,1.87,1.81A1.61,1.61,0,0,1,24,15.51H21.72v.66h2.75A1.6,1.6,0,0,1,26.32,18c0,1.17-.29,2.07-1.72,2.07h-.33v.7a1.66,1.66,0,0,1,1.93,1.87c0,1.7-.68,2.09-1.93,2.09v3.22c0,2.64-.38,3.3-4,3.3-2.14,0-3.19-.18-3.37-2a2.34,2.34,0,0,1-.51.06c-1.21,0-1.45-.68-1.89-1.74a6.44,6.44,0,0,1-.64-1.69,1.58,1.58,0,0,1,.62-1.26,1.39,1.39,0,0,1-.9-1.05l-.55.33v5.48c0,.79-.18,2-1.81,2-1.41,0-2.11-.44-2.11-2v-3.3a6.12,6.12,0,0,1-2,.75,2.26,2.26,0,0,1-2-2.45c0-.46,0-1.25,1.49-1.85,1.65-.68,1.83-.77,2.51-1.1V18.21H8.49c-.15,1.52-.24,2.6-1.69,2.6a1.62,1.62,0,0,1-1.74-1.56c0-.47.4-2.4.44-2.8.11-.86.13-1.63.2-3.28,0-.46.06-1.58,1.47-1.58,1.56,0,1.54,1,1.52,2.57h.44V12.07a1.72,1.72,0,0,1,1.83-2c1.43,0,2.09.53,2.09,2v2.12c1.32.17,1.38,1.6,1.38,2.13a2,2,0,0,1,.91-.15h2.22v-.66H15.73a1.58,1.58,0,0,1-1.8-1.72c0-1.39.64-1.92,1.8-1.92h1.83c0-1,.26-1.82,1.89-1.82m-6.4,9.48h.22a1.69,1.69,0,0,1,1.63,1.29,2.08,2.08,0,0,1,.41,0h4.8v-.7H15.34c-1.46,0-1.81-.81-1.81-2a1,1,0,0,1-.48.15v1.32m6.31,7.63c.65,0,.75-.13.75-.87V24.72H17.73a7.17,7.17,0,0,1,1.13,2.43h.5m.09-21.11a6,6,0,0,0-4.21,1.51A6.25,6.25,0,0,0,11,6.07,5.8,5.8,0,0,0,6.91,7.59,5.31,5.31,0,0,0,1.7,13l0,.54c-.05,1.22-.07,1.84-.15,2.43v0h0c0,.14-.07.39-.12.66a16.21,16.21,0,0,0-.35,2.61,5.36,5.36,0,0,0,.63,2.56,5.69,5.69,0,0,0-.56,2.56,6.43,6.43,0,0,0,4.08,6.11c.44,3,2.71,4.87,6,4.87a5.8,5.8,0,0,0,3.93-1.42,5.08,5.08,0,0,0,.93.58,9.26,9.26,0,0,0,4.19.73c7,0,8-3.69,8-7.3v-.53a6,6,0,0,0,1.93-4.78,6.78,6.78,0,0,0-.33-2.1A7.27,7.27,0,0,0,30.32,18a6.4,6.4,0,0,0-.61-2.77,7,7,0,0,0,.16-1.54,5.56,5.56,0,0,0-5.54-5.8,6.14,6.14,0,0,0-4.88-1.83Z"/><path class="cls-1" d="M32.73,33.17A4.33,4.33,0,0,1,28.34,29a4.78,4.78,0,0,1,1.12-2.92A11.27,11.27,0,0,0,31,21.84l0-.15a7.88,7.88,0,0,1,.24-1,3.41,3.41,0,0,1-.31-.6A3.71,3.71,0,0,1,28.6,16.3V14.54c0-1.81.63-4.84,4.86-4.84h3.68a3.69,3.69,0,0,1,3.38-1.63c2.16,0,3.29.71,3.86,1.63h3.67c3.12,0,4.84,1.72,4.84,4.84V16.3a3.59,3.59,0,0,1-2.42,3.77,3.54,3.54,0,0,1-.25.52,3.67,3.67,0,0,1,1,2.62A4.83,4.83,0,0,1,50.87,25a3.71,3.71,0,0,1,2.41,3.71,3.8,3.8,0,0,1-4.07,4.11H43.05a12.93,12.93,0,0,1-6.86-1.56A4.09,4.09,0,0,1,32.73,33.17Z"/><path class="cls-2" d="M40.52,10.07c1.65,0,2.36.33,2.36,1.63h5.17c1.82,0,2.84.66,2.84,2.84V16.3c0,1.16-.34,2-2,2h-.13c0,1.28-.48,2-2,2h-4v1.19h4.46c.64,0,2,.11,2,1.74,0,1.16-.37,2-2,2H42.77v1.54c.22,0,.39,0,.9,0h5.54a1.82,1.82,0,0,1,2.07,2c0,2.07-1.45,2.11-2.07,2.11H43.05c-4.53,0-6.29-1.36-7.41-2.64-1.23,2.66-2,3-2.91,3A2.34,2.34,0,0,1,30.34,29c0-.62.17-.89.79-1.81A13.4,13.4,0,0,0,33,22.08c.22-1.21.44-1.62,1-1.87a1.63,1.63,0,0,1-1.3-1.91c-1,0-2.11-.15-2.11-2V14.54c0-2.25,1.1-2.84,2.86-2.84h5.13c0-1.15.68-1.63,1.93-1.63m-5.83,6.54H46.84c0-.09,0-.22,0-.36v-.59a.35.35,0,0,0-.4-.4H35.11a.37.37,0,0,0-.4.4v.64a1.67,1.67,0,0,1,0,.31m4,9.3V20.28h-2.6a1.51,1.51,0,0,1,1.13,1.45,17.26,17.26,0,0,1-.34,2.4,4.72,4.72,0,0,0,1.81,1.78m1.8-19.84A6.06,6.06,0,0,0,36.19,7.7H33.46c-4.23,0-6.86,2.62-6.86,6.84V16.3a5.9,5.9,0,0,0,2.49,5l0,.11A9.3,9.3,0,0,1,27.79,25a6.64,6.64,0,0,0-1.45,4,6.36,6.36,0,0,0,6.39,6.15,5.76,5.76,0,0,0,3.91-1.42,16.49,16.49,0,0,0,6.41,1.09h6.16a5.76,5.76,0,0,0,6.07-6.11A5.82,5.82,0,0,0,53.15,24a7.38,7.38,0,0,0,0-.82,6.28,6.28,0,0,0-.37-2.16,5.85,5.85,0,0,0,2.07-4.75V14.54c0-4.22-2.62-6.84-6.84-6.84H45.34a6.52,6.52,0,0,0-4.82-1.63Z"/><path class="cls-1" d="M71.46,33.22c-1.27,0-3.21,0-4.31-1.48H63.8a7.61,7.61,0,0,1-2.27-.3,3.68,3.68,0,0,1-3.34,1.78c-3.72,0-4.12-2.79-4.12-4V19a6.35,6.35,0,0,1,.62-2.85,3.54,3.54,0,0,1-1.43-2.94,3.6,3.6,0,0,1,4-3.87h5.26A4,4,0,0,1,65.84,8H66a5.25,5.25,0,0,1,2.09.34,3.05,3.05,0,0,1,1.26,1h5.14c2.94,0,4,2,4,3.67A3.65,3.65,0,0,1,77,16.13,6.23,6.23,0,0,1,77.61,19v9.37C77.61,33.22,73.76,33.22,71.46,33.22Z"/><path class="cls-2" d="M66,10c.84,0,2,0,2,1.3h6.49c.44,0,2,0,2,1.67,0,1.17-.48,1.85-2,1.85H72.33a4.55,4.55,0,0,1-.3.93h.37c2,0,3.21.75,3.21,3.21v9.37c0,2.89-1.67,2.89-4.15,2.89-1.63,0-2.71,0-3-1.48H63.8c-2.44,0-3.08-.66-3.08-3.08v-.59c0-2.45.66-3.08,3.08-3.08h4.07c2.46,0,3.08.61,3.08,3.08V27h.31c.3,0,.41-.06.41-.36V22.35a1.84,1.84,0,0,1-1.18.33h-2c-2.6,0-2.75-.9-2.75-3.08v-.66h-.57a4.52,4.52,0,0,1-1.81,3.41,4.23,4.23,0,0,1-2.35,1,1.27,1.27,0,0,1-1-.46v6.3c0,.85-.2,2-1.85,2-1.43,0-2.12-.47-2.12-2V19c0-2.62,1.35-3.21,3.22-3.21h.42a3,3,0,0,0-.18-.93H57.22c-.42,0-2,0-2-1.65,0-1.18.48-1.87,2-1.87h6.6c0-1.19,1.08-1.3,2-1.3H66m1.89,4.82h-4a6.91,6.91,0,0,1,.22.93h3.57a5.85,5.85,0,0,0,.26-.93m1.61,5.11c.22,0,.28-.09.39-.27a1.08,1.08,0,0,1,1-.44,1.75,1.75,0,0,1,.79.18c0-.2,0-.46-.37-.46H69v.64c0,.35.18.35.47.35m-7.86-1H60.41a.36.36,0,0,0-.37.39v.88c.15-.11.94-.5,1.12-.61a1.06,1.06,0,0,0,.48-.66m2.91,7.74h2.57a.23.23,0,0,0,.26-.26v-.37c0-.18-.08-.27-.26-.27H64.55a.24.24,0,0,0-.27.27v.37a.24.24,0,0,0,.27.26M66,6h-.16a6.4,6.4,0,0,0-4.22,1.3h-4.4a5.6,5.6,0,0,0-6,5.87,5.78,5.78,0,0,0,1.11,3.44,8.74,8.74,0,0,0-.3,2.35V29.24c0,3.63,2.4,6,6.12,6a5.79,5.79,0,0,0,4.15-1.57,11.22,11.22,0,0,0,1.46.09h2.48a7.79,7.79,0,0,0,5.18,1.48,10.28,10.28,0,0,0,4.78-.78c1.26-.62,3.37-2.24,3.37-6.11V19a8.94,8.94,0,0,0-.28-2.32A6,6,0,0,0,80.47,13c0-3.33-2.46-5.67-6-5.67H70.2A6.26,6.26,0,0,0,66,6Z"/><path class="cls-1" d="M88,33.3a3.51,3.51,0,0,1-3.58-2.52,16.64,16.64,0,0,1-3.19.54,3.77,3.77,0,0,1-3.81-4.06,3.68,3.68,0,0,1,1.43-3.11V15.62a3.72,3.72,0,0,1-1.41-3.13,3.71,3.71,0,0,1,3.81-3.85h8.32A3.64,3.64,0,0,1,92,9.42a3.82,3.82,0,0,1,.68-.05H97.4c1.21,0,4.89,0,4.89,4.53A28.17,28.17,0,0,1,100,24.6l.77.69a4.24,4.24,0,0,1,1.63,3.31A4.51,4.51,0,0,1,98.06,33a4,4,0,0,1-2.6-1c-.24-.2-.46-.41-.66-.61A4.29,4.29,0,0,1,92,32.58a3.85,3.85,0,0,1-1.15-.18A4.32,4.32,0,0,1,88,33.3Z"/><path class="cls-2" d="M89.53,10.64a1.39,1.39,0,0,1,1.6,1.19,2.52,2.52,0,0,1,1.5-.46H97.4c2,0,2.89.44,2.89,2.53,0,1-.18,6.71-2.69,11.07a15.77,15.77,0,0,0,1.89,1.82,2.3,2.3,0,0,1,1,1.81A2.53,2.53,0,0,1,98.06,31a2,2,0,0,1-1.34-.51,11.59,11.59,0,0,1-1.78-1.94c-1.67,1.76-2.31,2-3,2a2.3,2.3,0,0,1-1.94-1.34c0,1.45-.5,2.06-2.09,2.06s-1.78-1.32-1.78-2v-1a43.88,43.88,0,0,1-5,1c-1.3,0-1.81-1-1.81-2.06a1.64,1.64,0,0,1,1.43-1.83V14.36a1.67,1.67,0,0,1-1.41-1.87,1.72,1.72,0,0,1,1.81-1.85h8.32m.52,16.79c.18-.31.27-.46,1.3-1.32a13.71,13.71,0,0,0,1.34-1.28,25.71,25.71,0,0,1-2-7.54c0-1.39,1.1-1.74,2.11-1.74,1.41,0,1.63.73,1.79,1.69a28.52,28.52,0,0,0,.7,3.22,16.57,16.57,0,0,0,.79-3.28c.07-.51.18-1.37.18-1.59a.38.38,0,0,0-.4-.41H92.63c-.35,0-1.59,0-1.87-1.15a1.12,1.12,0,0,1-.71.35V27.43M84.66,15.64h1.52V14.4H84.66v1.24m0,4.64h1.52V19H84.66v1.25m0,4.69c.4,0,1.19-.16,1.52-.22V23.69H84.66V25M89.53,6.64H81.21a5.71,5.71,0,0,0-5.81,5.85,6,6,0,0,0,1.41,4v6.78a5.82,5.82,0,0,0-1.43,4,5.74,5.74,0,0,0,5.81,6.06,10.73,10.73,0,0,0,2.13-.27A5.44,5.44,0,0,0,88,35.3a6.83,6.83,0,0,0,3.31-.77,5.81,5.81,0,0,0,.72,0,5.72,5.72,0,0,0,2.66-.65A5.94,5.94,0,0,0,98.06,35a6.49,6.49,0,0,0,6.38-6.4,6.17,6.17,0,0,0-2-4.54,30.64,30.64,0,0,0,1.85-10.16c0-2.44-.9-6.53-6.89-6.53H92.5a5.93,5.93,0,0,0-3-.73Z"/><path class="cls-1" d="M122.46,33.26c-2.91,0-3.89-1.54-4.12-3.11a6.64,6.64,0,0,1-.33.71c-1.4,2.38-3.81,2.38-6.35,2.38a37.42,37.42,0,0,1-4.27-.19,3.84,3.84,0,0,1-3-4,4.08,4.08,0,0,1,1.21-3,3.64,3.64,0,0,1-2.73-3.74,8.82,8.82,0,0,1,.14-1.28l0-.26c.07-.38.17-1.26.27-2.09.19-1.56.23-1.83.28-2a4.29,4.29,0,0,1,.41-1,3.86,3.86,0,0,1-1.17-2.86c0-2.59,1.46-4.07,4-4.07h7.37a4.51,4.51,0,0,1,4.2,2C118.91,9,120.31,8,122.39,8c3.74,0,4.29,2.5,4.29,4V29.28C126.68,30.77,126.13,33.26,122.46,33.26Zm-4.18-13.5v-.29l-.12.16Z"/><path class="cls-2" d="M122.39,10c1.39,0,2.29.28,2.29,2V29.28c0,1.41-.55,2-2.22,2-1.34,0-2.18-.26-2.18-2V12c0-1.21.42-2,2.11-2m-8.14.66c1.87,0,2.86.7,2.86,2.84v2.88c0,2.13-1,2.86-2.86,2.86h-4.57c-.18,0-.2.11-.22.22s0,.48,0,.53a.21.21,0,0,0,.22.24h4.47c1.89,0,3.21.35,3.21,2.84,0,.46-.09,5.12-1,6.75-.82,1.39-2.29,1.39-4.62,1.39a35.7,35.7,0,0,1-3.9-.16,1.92,1.92,0,0,1-1.32-2A1.94,1.94,0,0,1,108.71,27c.48,0,2.62.07,3.06.07.9,0,1.14-.07,1.23-.84,0-.13.15-1.63.15-1.65a.26.26,0,0,0-.26-.26h-5c-1,0-2.93,0-2.93-2a11.6,11.6,0,0,1,.16-1.27c.11-.62.44-3.66.5-3.92.42-1.52,2.22-1.52,2.89-1.52h4.22c.18,0,.33-.09.33-.28v-.42c0-.24-.26-.29-.33-.29h-5.81a1.71,1.71,0,0,1-2-1.82c0-1.41.53-2.07,2-2.07h7.37M122.39,6A6.26,6.26,0,0,0,118,7.58a7.62,7.62,0,0,0-3.77-.89h-7.37c-3.64,0-6,2.38-6,6.07a6,6,0,0,0,.87,3.19l0,.08,0,0v0c-.08.36-.12.65-.32,2.3-.08.62-.2,1.65-.24,1.9v.07l0,.1,0,.23a10.44,10.44,0,0,0-.16,1.57,6.08,6.08,0,0,0,1.93,4.46,6.56,6.56,0,0,0-.41,2.32A5.86,5.86,0,0,0,107,35H107a34.36,34.36,0,0,0,4.64.22c2,0,4.49,0,6.41-1.47a6.57,6.57,0,0,0,4.39,1.49c3.84,0,6.22-2.29,6.22-6V12c0-2.9-1.65-6-6.29-6Z"/><path class="cls-1" d="M132.58,33.13a4.09,4.09,0,0,1-4.17-4c0-1.24.41-1.92,1.4-3.58a13.75,13.75,0,0,0,1-2,16,16,0,0,1,.82-1.66l-.16-.11L130.27,21a3.56,3.56,0,0,1-1.67-3A4.37,4.37,0,0,1,130,14.86a3.41,3.41,0,0,1-1.16-2.63,4.15,4.15,0,0,1,3.92-4.16,8.29,8.29,0,0,1,3.87,1.45,7.9,7.9,0,0,1,1.48,1.05,5.23,5.23,0,0,1,1.16-.12h1.11a3.6,3.6,0,0,1,3.58-2.29c2.43,0,3.53,1,4,2.29h1a3.66,3.66,0,0,1,4,3.82,4.33,4.33,0,0,1-.87,2.83,3.68,3.68,0,0,1,1.61,3.18A3.67,3.67,0,0,1,151.43,24l.16.25c1.08,1.79,2,3.46,2,4.82,0,2.78-2.57,4-4.4,4a3.6,3.6,0,0,1-2.55-1c-1.25.17-2.5.31-5,.54-.4,0-3.27.22-3.92.22A3.84,3.84,0,0,1,135.2,32,3.26,3.26,0,0,1,132.58,33.13Z"/><path class="cls-2" d="M132.74,10.07a6.67,6.67,0,0,1,2.88,1.19c1.34.77,1.61,1.23,1.61,1.91a2.23,2.23,0,0,1-1.94,2.31c-.5,0-.68-.08-2.55-1.23-.18-.11-1-.55-1.12-.66a1.44,1.44,0,0,1-.8-1.36,2.16,2.16,0,0,1,1.92-2.16m11.2.09c1.47,0,2.24.35,2.24,2v.31H149a1.7,1.7,0,0,1,2,1.82c0,1.41-.49,2.09-2,2.09h-2.78v2.12h3.5a1.72,1.72,0,0,1,2,1.8c0,1.47-.66,2-2,2h-5.57a44,44,0,0,1-1.65,4.38c.71,0,2.6-.19,3.39-.26-.88-1.52-1-1.67-1-2.2,0-1.21,1.34-1.78,2.16-1.78,1.1,0,1.47.61,2.88,2.9.62,1,1.72,2.82,1.72,3.74,0,1.63-1.83,2-2.4,2A1.76,1.76,0,0,1,147.57,30c-1.76.24-2.86.4-6.1.68-.37.05-3.16.22-3.74.22a1.76,1.76,0,0,1-1.87-2,1.9,1.9,0,0,1,2.11-2H138a32.73,32.73,0,0,0,1.56-4.58h-1.12c-1.54,0-2-.74-2-1.95a2,2,0,0,1-1.67,1.07c-.51,0-.66-.11-2.18-1.21l-1.21-.85a1.54,1.54,0,0,1-.8-1.37,2.1,2.1,0,0,1,1.9-2.13c.9,0,2.26,1,3.32,1.74a2.12,2.12,0,0,1,1,1.45,2,2,0,0,1,1.61-.57h3.63V16.36h-2.84c-.64,0-2-.08-2-1.82,0-1.43.51-2.09,2-2.09h2.84v-.31c0-1,.29-2,1.85-2m-9.33,12.06a1.83,1.83,0,0,1,2,1.62c0,.49,0,1-1.3,3.92-1.14,2.49-1.54,3.37-2.71,3.37a2.08,2.08,0,0,1-2.17-2c0-.68.19-1,1.12-2.55a17.46,17.46,0,0,0,1.08-2.23c.77-1.73,1-2.17,2-2.17M132.74,6.07a6.12,6.12,0,0,0-5.92,6.16,5.71,5.71,0,0,0,.64,2.63A6.2,6.2,0,0,0,126.6,18,5.49,5.49,0,0,0,129,22.58a1.08,1.08,0,0,1-.08.19,11.53,11.53,0,0,1-.87,1.82c-1,1.73-1.67,2.79-1.67,4.58a6.09,6.09,0,0,0,6.17,6,5.4,5.4,0,0,0,2.8-.71,6.18,6.18,0,0,0,2.35.44c.7,0,3.38-.16,4.1-.23,2-.18,3.23-.31,4.27-.44a5.82,5.82,0,0,0,3.12.92,6.16,6.16,0,0,0,6.4-6,9.39,9.39,0,0,0-1.52-4.5,6.09,6.09,0,0,0,1.58-4.3,5.82,5.82,0,0,0-1.14-3.58,7.16,7.16,0,0,0,.4-2.43,5.64,5.64,0,0,0-5.85-5.82,5.94,5.94,0,0,0-5.15-2.29,5.63,5.63,0,0,0-4.77,2.29l-.49,0a9.67,9.67,0,0,0-1.07-.68,9.82,9.82,0,0,0-4.87-1.72Z"/><path class="cls-1" d="M157.42,32.38A3.76,3.76,0,0,1,154,30.53c-.25-.42-1-1.7-1-7.61a67,67,0,0,1,.81-11,3.8,3.8,0,0,1,4.2-3,4.09,4.09,0,0,1,3.5,1.84,4.5,4.5,0,0,1,1.08-.27,61.61,61.61,0,0,1,6.91-.27c2.32,0,3.19,0,4.15.54a3.93,3.93,0,0,1,1.9,3.57c0,1-.31,4.09-4.33,4.09l-2.16,0c-1.68,0-3.3,0-4.93.17h-.29l-.54,0a4.8,4.8,0,0,1-1.87-.36c0,.31,0,.62,0,.92a4.29,4.29,0,0,1,2.11-.54c2.13,0,4.38,1.3,4.38,3.72a4,4,0,0,1-.11.9,23.86,23.86,0,0,0,3-.32,8.23,8.23,0,0,1,1.4-.16,3.81,3.81,0,0,1,4,4,4,4,0,0,1-2.25,3.86c-1.37.63-4.05.76-6.07.76a12.21,12.21,0,0,1-6.4-1.41A4,4,0,0,1,157.42,32.38Z"/><path class="cls-2" d="M158,10.93a1.84,1.84,0,0,1,2,1.74c0,.33-.22,1.78-.27,2.07a67.52,67.52,0,0,0-.46,7.54c0,.44,0,2.11.13,3.35,0,.37.27,2.48.27,2.68,0,1.41-.88,2.07-2.25,2.07a1.74,1.74,0,0,1-1.71-.86c-.66-1.12-.73-5.1-.73-6.6a67.14,67.14,0,0,1,.75-10.54c.35-1.45,1.3-1.45,2.26-1.45m11.49,1.3c2,0,2.66,0,3.17.28a2,2,0,0,1,.88,1.83c0,2-1.54,2.09-2.33,2.09l-2.16,0c-1.69,0-3.39,0-5.08.17l-.68,0a1.89,1.89,0,0,1-2.14-2.09c0-1.79,1.25-2,1.65-2a58.53,58.53,0,0,1,6.69-.26m-6,8.4c1,0,2.38.49,2.38,1.72a1.82,1.82,0,0,1-.29,1,2.14,2.14,0,0,0-.52,1.12c0,.42.26.79,2.48.79a23.33,23.33,0,0,0,3.54-.35,9.26,9.26,0,0,1,1.06-.13,1.81,1.81,0,0,1,2,2,2,2,0,0,1-1.15,2.07c-1.14.53-4.55.55-5.17.55-3.65,0-7.21-.88-7.21-4.58,0-1.3.61-4.18,2.92-4.18M158,6.93c-2.3,0-5.25.78-6.15,4.51A69.3,69.3,0,0,0,151,22.92c0,6.46.86,7.92,1.28,8.63a5.73,5.73,0,0,0,5.16,2.83,6.29,6.29,0,0,0,4.67-1.86,16.43,16.43,0,0,0,5.67.87c4.86,0,6.36-.69,6.85-.92l.06,0,.05,0a6.05,6.05,0,0,0,3.36-5.65,5.78,5.78,0,0,0-6-6,9.7,9.7,0,0,0-1.68.18h-.06l-.68.11a4.6,4.6,0,0,0-.2-.66h1.7c3.15,0,6.33-1.88,6.33-6.09A5.87,5.87,0,0,0,174.6,9c-1.4-.79-2.65-.79-5.12-.79a65.36,65.36,0,0,0-7.2.29h0A6,6,0,0,0,158,6.93Z"/><path class="cls-1" d="M179.71,32.78c-2.94,0-4-2-4-3.68a4.87,4.87,0,0,1,.16-1.3,4.25,4.25,0,0,1-1-2.75,3.39,3.39,0,0,1,.53-1.9,4,4,0,0,1-.53-2A3.4,3.4,0,0,1,178,17.53V16.41a3.32,3.32,0,0,1-2.77-3.5,3.39,3.39,0,0,1,3.43-3.6A3.84,3.84,0,0,1,181.89,8a4.19,4.19,0,0,1,3.54,1.34h4.08A3.8,3.8,0,0,1,192.67,8c1.93,0,3,.61,3.54,1.35a3.37,3.37,0,0,1,3.45,3.58,3.35,3.35,0,0,1-2.81,3.53v1.13a3.36,3.36,0,0,1,3,3.57,3.94,3.94,0,0,1-.52,2,3.31,3.31,0,0,1,.54,1.9,4.24,4.24,0,0,1-1,2.75,4.43,4.43,0,0,1,.14,1.13c0,2.42-1.48,3.87-4,3.87Z"/><path class="cls-2" d="M192.67,10c1.45,0,2.18.33,2.18,1.34H196a1.46,1.46,0,0,1,1.67,1.59,1.46,1.46,0,0,1-1.67,1.6h-1.14v5h1.34a1.46,1.46,0,0,1,1.67,1.61,1.45,1.45,0,0,1-1.67,1.62h-.92a5.24,5.24,0,0,0,1.58.88,1.43,1.43,0,0,1,1,1.41A2,2,0,0,1,196,27.12a5.21,5.21,0,0,1-2.7-1.23,1.46,1.46,0,0,1-1.52.79h-2.36v.53H195a1.7,1.7,0,0,1,2,1.7c0,1.27-.55,1.87-2,1.87H179.71a1.69,1.69,0,0,1-2-1.68c0-1.27.55-1.89,2-1.89h5.7v-.53H183.1a1.39,1.39,0,0,1-1.56-1,5.73,5.73,0,0,1-2.93,1.34c-1.28,0-1.74-1.34-1.74-2,0-1,.66-1.36,1.5-1.71a3.05,3.05,0,0,0,1.12-.6h-1a1.46,1.46,0,0,1-1.67-1.6,1.45,1.45,0,0,1,1.67-1.63H180v-5h-1.1a1.45,1.45,0,0,1-1.67-1.58,1.46,1.46,0,0,1,1.67-1.61H180c0-1.1,1-1.34,1.85-1.34,1.43,0,2.18.31,2.18,1.34h6.77c0-1.1,1-1.34,1.83-1.34m-8.6,5h6.77v-.62h-6.77V15m0,2.35h6.77v-.61h-6.77v.61m0,2.33h6.77v-.61h-6.77v.61m-.6,4.23h1.94c0-1,1.49-1.12,2.18-1.12,1,0,1.84.41,1.84,1.12h1.7a7.13,7.13,0,0,1-.82-1.15h-5.89a10.48,10.48,0,0,1-.95,1.15M192.67,6a6,6,0,0,0-4,1.34h-2.39A6.7,6.7,0,0,0,181.89,6a6,6,0,0,0-4.17,1.45,5.33,5.33,0,0,0-4.45,5.5,5.57,5.57,0,0,0,1.47,3.91,5.55,5.55,0,0,0-1.87,4.32,6.27,6.27,0,0,0,.31,2,6,6,0,0,0-.31,1.93,6.29,6.29,0,0,0,.91,3.21,7.89,7.89,0,0,0-.05.84,5.58,5.58,0,0,0,6,5.68H195a5.61,5.61,0,0,0,6-5.87,6.13,6.13,0,0,0,0-.62,6.22,6.22,0,0,0,.91-3.26,5.49,5.49,0,0,0-.33-1.93,6.32,6.32,0,0,0,.31-2,5.51,5.51,0,0,0-1.76-4.21,5.56,5.56,0,0,0,1.56-4,5.31,5.31,0,0,0-4.51-5.49A6.59,6.59,0,0,0,192.67,6Z"/><path class="cls-1" d="M207.67,31.83a11.31,11.31,0,0,1-3.59-.36,4,4,0,0,1-2.65-3.86,3.89,3.89,0,0,1,4.13-4.18c.25,0,.89.05,1.29.08h.32l1.12,0c5.52,0,5.52-1.68,5.52-3s-.35-2-2.09-2c-2.44,0-4.32.59-7.42,1.58l-.23.07a6.3,6.3,0,0,1-1.92.33,4.09,4.09,0,0,1-4.05-4.37c0-3.32,2.79-4,4.45-4.47a37.48,37.48,0,0,1,8.95-1.3,16.31,16.31,0,0,1,3,.27,3,3,0,0,1,3.87-2.52,3.23,3.23,0,0,1,1.57-.41,3.09,3.09,0,0,1,2.81,2.33l.05.16a8.53,8.53,0,0,1,.54,2.5,2.76,2.76,0,0,1-2.08,2.71,11.06,11.06,0,0,1,1.12,5.08C222.35,25.68,219.8,31.83,207.67,31.83Z"/><path class="cls-2" d="M219.91,9.74c.39,0,.63.22.94,1a8.86,8.86,0,0,1,.46,2c0,.82-.85.82-.92.82-.53,0-.66-.29-.77-.62,0-.17-.24-.9-.29-1.06s-.28-.83-.33-1a1,1,0,0,1-.06-.4c0-.66.77-.77,1-.77m-2.49.26c.42,0,.66.2.94,1a7.12,7.12,0,0,1,.49,2c0,.84-.86.84-.95.84a.72.72,0,0,1-.75-.64c0-.15-.24-.9-.28-1s-.29-.84-.35-1a1.24,1.24,0,0,1-.05-.4c0-.66.77-.75.95-.75m-5.92,2.4c5.3,0,8.85,2.6,8.85,8.12,0,7.73-6.5,9.31-12.68,9.31a13.25,13.25,0,0,1-3-.26,2,2,0,0,1-1.27-2,1.93,1.93,0,0,1,2.13-2.18c.26,0,1,.06,1.32.09.55,0,1,0,1.41,0,4.57,0,7.52-1,7.52-5,0-3-1.93-4-4.09-4-2.82,0-4.91.68-8.25,1.74a4.15,4.15,0,0,1-1.32.24,2.16,2.16,0,0,1-2.05-2.37c0-1.63,1-2,3-2.54a35.51,35.51,0,0,1,8.45-1.23m8.41-6.66a5.27,5.27,0,0,0-1.8.31,6,6,0,0,0-.69,0,4.94,4.94,0,0,0-4.36,2.47c-.5-.05-1-.07-1.56-.07a38.33,38.33,0,0,0-9.45,1.36c-1.78.46-6,1.54-6,6.41a6.1,6.1,0,0,0,5.77,6.37,6,6,0,0,0-2.44,5.07,5.93,5.93,0,0,0,4,5.74h.06a13.2,13.2,0,0,0,4.2.46c14.51,0,16.68-8.34,16.68-13.31a14.17,14.17,0,0,0-.61-4.23,4.74,4.74,0,0,0,1.57-3.56,10.15,10.15,0,0,0-.61-3.07l0,0,0-.11-.06-.16c-1.19-3.15-3.44-3.62-4.68-3.62ZM206.67,21.49a16.5,16.5,0,0,1,5.05-.93h.09a2.19,2.19,0,0,1-.05.53c-.19.11-1,.47-3.47.47l-1,0H207l-.34,0Zm5.51-.88Z"/><path class="cls-1" d="M239.49,32.64a5.48,5.48,0,0,1-3.14-1.1,48.57,48.57,0,0,0-8.88-5.37,21.63,21.63,0,0,1-2.84-1.51,4.84,4.84,0,0,1-2.08-4,5,5,0,0,1,2.85-4.41c7.36-4.24,7.8-4.49,9.95-6.27a4.94,4.94,0,0,1,3.25-1.4,4.24,4.24,0,0,1,4.29,4.18c0,1.85-1.07,3-2.81,4.14a56.18,56.18,0,0,1-6,3.56A63.06,63.06,0,0,1,241,24.22c1.19.77,2.82,1.81,2.82,4.11A4.38,4.38,0,0,1,239.49,32.64Z"/><path class="cls-2" d="M238.6,10.62a2.25,2.25,0,0,1,2.29,2.18c0,.77-.28,1.36-1.93,2.49a62.5,62.5,0,0,1-8.21,4.64c-.51.24-.81.39-.81.64s.13.3.7.57a71.06,71.06,0,0,1,9.26,4.77c1.1.71,1.9,1.24,1.9,2.42a2.39,2.39,0,0,1-2.31,2.31,3.52,3.52,0,0,1-2-.74,50,50,0,0,0-9.13-5.53A21.13,21.13,0,0,1,225.76,23a2.87,2.87,0,0,1-1.21-2.31A3,3,0,0,1,226.42,18c7.41-4.26,7.94-4.57,10.2-6.44a3,3,0,0,1,2-1m0-4A6.92,6.92,0,0,0,234,8.51c-1.93,1.59-2.2,1.76-9.62,6-2.58,1.49-3.87,3.56-3.87,6.15a6.87,6.87,0,0,0,2.95,5.61A22.32,22.32,0,0,0,226.58,28a46.42,46.42,0,0,1,8.58,5.19l0,0,0,0a7.41,7.41,0,0,0,4.27,1.45,6.4,6.4,0,0,0,6.31-6.31c0-3.39-2.43-4.95-3.74-5.79s-2.46-1.48-3.69-2.13c1-.6,1.94-1.2,2.85-1.83,1.81-1.23,3.67-2.88,3.67-5.78a6.24,6.24,0,0,0-6.29-6.18Z"/><path class="cls-1" d="M265,33A8.12,8.12,0,0,1,260.35,31a4.74,4.74,0,0,1-2.15.82A79.68,79.68,0,0,1,249.56,33c-2.35,0-3.58-2-3.58-4a3.46,3.46,0,0,1,0-.46,4.28,4.28,0,0,1-2-3.81,3.51,3.51,0,0,1,.81-2.3A3.65,3.65,0,0,1,244,20a3.43,3.43,0,0,1,1.63-3c0-.14,0-.28,0-.42a3.93,3.93,0,0,1,.06-.69A3.63,3.63,0,0,1,244.48,13a3.38,3.38,0,0,1,3.65-3.56h5c.57-.8,1.66-1.5,3.72-1.5a3.77,3.77,0,0,1,3.32,1.5h5A3.37,3.37,0,0,1,268.81,13a3.61,3.61,0,0,1-1.19,2.79,3.49,3.49,0,0,1,.07.71c0,.11,0,.22,0,.33a3.42,3.42,0,0,1,1.71,3.1,3.68,3.68,0,0,1-.86,2.43,3.84,3.84,0,0,1,.09.83,3.61,3.61,0,0,1-1.1,2.6A3.57,3.57,0,0,1,269,28.77,4.17,4.17,0,0,1,265,33Z"/><path class="cls-2" d="M256.89,10c.7,0,1.91.15,1.91,1.5h6.38A1.41,1.41,0,0,1,266.81,13a1.42,1.42,0,0,1-1.63,1.59H258.8v.52h5.26c.4,0,1.63,0,1.63,1.39s-1.26,1.36-1.63,1.36H258.8v.53h6.91A1.43,1.43,0,0,1,267.38,20c0,1.54-1.19,1.54-1.89,1.54a2.06,2.06,0,0,1,1.12,1.72c0,.64-.26,1-1,1.65-.46.42-1,.86-1.45,1.27a12.75,12.75,0,0,0,1.74,1,1.75,1.75,0,0,1,1.08,1.6A2.21,2.21,0,0,1,265,31c-1.85,0-4.55-2.62-5.37-3.54a2.48,2.48,0,0,1,.05.5c0,1.48-.84,1.65-1.76,1.81A82.23,82.23,0,0,1,249.56,31c-1.37,0-1.58-1.54-1.58-2a1.49,1.49,0,0,1,1.07-1.61,15.61,15.61,0,0,1,2-.29V25.82a8.2,8.2,0,0,1-3.34,1.06c-1.56,0-1.7-1.94-1.7-2.22A1.67,1.67,0,0,1,247.47,23a13.94,13.94,0,0,0,3.65-1.5h-3.48A1.44,1.44,0,0,1,246,20a1.45,1.45,0,0,1,1.67-1.54h6.91V17.9h-5.34c-.33,0-1.63,0-1.63-1.38s1.27-1.37,1.63-1.37h5.34v-.52h-6.42c-.68,0-1.65-.14-1.65-1.61a1.41,1.41,0,0,1,1.65-1.56h6.42c0-1.08.77-1.5,2.34-1.5m6.6,11.55h-3.17a8.21,8.21,0,0,0,1.19,2c.57-.57.63-.64,1.1-1.17a6.63,6.63,0,0,1,.88-.88m-8.45,5c.46-.06,2.55-.44,3-.44a1.22,1.22,0,0,1,.51.09,14.6,14.6,0,0,1-2.14-4.4A13.57,13.57,0,0,1,255,23.27v3.28M256.89,6a6.67,6.67,0,0,0-4.61,1.5h-4.15A5.36,5.36,0,0,0,242.48,13a5.85,5.85,0,0,0,.87,3.17A5.53,5.53,0,0,0,242,20a5.91,5.91,0,0,0,.49,2.42,6.05,6.05,0,0,0-.47,2.27,6.24,6.24,0,0,0,2,4.8A5.64,5.64,0,0,0,249.56,35a80.31,80.31,0,0,0,9-1.22,7.58,7.58,0,0,0,1.6-.44A8.85,8.85,0,0,0,265,35a6.16,6.16,0,0,0,6-6.27,5.7,5.7,0,0,0-.92-3.13,5.4,5.4,0,0,0,.54-2.41V23a5.92,5.92,0,0,0,.77-3A5.71,5.71,0,0,0,270,16.16a5.86,5.86,0,0,0,.84-3.12,5.36,5.36,0,0,0-5.63-5.58h-4.07A6,6,0,0,0,256.89,6Z"/><path class="cls-1" d="M272.46,33c-1.28,0-2.61,0-3.69-1.13s-1.06-2.31-1.06-3.64V27a6.31,6.31,0,0,1,.43-2.78,3.59,3.59,0,0,1-.52-1.91,3.49,3.49,0,0,1,.38-1.65,3.6,3.6,0,0,1-.38-1.67,3.82,3.82,0,0,1,.18-1.2,3.67,3.67,0,0,1-.71-2.25,3.6,3.6,0,0,1,.72-2.27,4.06,4.06,0,0,1-.19-1.23,3.3,3.3,0,0,1,3.5-3.46h6.16a3.85,3.85,0,0,1,1.84.44,4.55,4.55,0,0,1,1.75-.33h5.89c4.21,0,4.84,3,4.84,4.84v5.42a5.82,5.82,0,0,1-.48,2.47,4.34,4.34,0,0,1,1.21,3.2c0,5.12-.7,6.17-1,6.61A4.22,4.22,0,0,1,287.77,33c-.59,0-1.49,0-2.28,0h-1.57c-2.21,0-3.64,0-4.76-.75a5,5,0,0,1-3.29.77Z"/><path class="cls-2" d="M277.28,10.55a1.32,1.32,0,0,1,1.5,1.44,1.32,1.32,0,0,1-1.5,1.45h-6.16a1.32,1.32,0,0,1-1.5-1.43,1.33,1.33,0,0,1,1.5-1.46h6.16m9.48.11c1.7,0,2.84.55,2.84,2.84v5.42c0,2.11-1,2.83-2.84,2.83h-3a.37.37,0,0,0-.42.4v4.2c0,.42.28.44,1.1.44,1.69,0,1.87,0,1.87-.7,0-.29,0-1.61,0-1.89,0-1.26.49-1.9,1.87-1.9s2.14.91,2.14,2.29c0,1.21-.05,4.58-.66,5.5a2.19,2.19,0,0,1-2,.88c-.58,0-1.46,0-2.22,0h-1.57c-2.53,0-3.41,0-4-.8a3.1,3.1,0,0,1-.6-2.11V20.63c0-2.18,1-2.84,2.86-2.84h2.93a.38.38,0,0,0,.42-.41V15a.37.37,0,0,0-.42-.41h-4.23c-.66,0-1.87-.11-1.87-2s1.06-2,1.9-2h5.89m-9,3.31a1.39,1.39,0,0,1,1.62,1.43c0,1.14-.48,1.6-1.62,1.6h-7.05c-.48,0-1.65,0-1.65-1.49S270,14,270.74,14h7.05m-.6,3.56a1.31,1.31,0,0,1,1.48,1.41,1.29,1.29,0,0,1-1.48,1.43h-6.07a1.31,1.31,0,0,1-1.5-1.41,1.32,1.32,0,0,1,1.5-1.43h6.07m0,3.37a1.31,1.31,0,0,1,1.48,1.38c0,1.1-.73,1.39-1.59,1.39h-6c-.86,0-1.5-.33-1.5-1.39a1.31,1.31,0,0,1,1.5-1.38h6.07m-1.36,3.32c1.12,0,1.8,0,2.29.48s.48,1.1.48,2.27v1.28c0,1.14,0,1.78-.48,2.26S277,31,275.87,31h-3.41c-1.12,0-1.76,0-2.24-.51s-.51-1.08-.51-2.26V27c0-1.3,0-2,.79-2.49a4,4,0,0,1,2-.26h3.35m-2.2,4h1.18a.22.22,0,0,0,.22-.24v-.73a.22.22,0,0,0-.22-.24h-1.18a.23.23,0,0,0-.24.24v.73a.23.23,0,0,0,.24.24m3.65-21.63h-6.16a5.3,5.3,0,0,0-5.5,5.46,6.36,6.36,0,0,0,.06.87,5.85,5.85,0,0,0-.59,2.63,5.72,5.72,0,0,0,.59,2.62,5.69,5.69,0,0,0-.06.83,5.55,5.55,0,0,0,.24,1.66,5.65,5.65,0,0,0-.24,1.66,5.81,5.81,0,0,0,.36,2,10,10,0,0,0-.27,2.66v1.28a6.45,6.45,0,0,0,1.65,5.06,6.44,6.44,0,0,0,5.1,1.71h3.41a8.27,8.27,0,0,0,3.36-.51,14,14,0,0,0,4.69.49h1.57c1.05,0,1.83,0,2.37,0a6.05,6.05,0,0,0,5.1-2.61l0,0,0,0c.69-1,1.33-2.69,1.33-7.72a6.69,6.69,0,0,0-1-3.58,8.68,8.68,0,0,0,.24-2.09V13.5c0-4.21-2.62-6.84-6.84-6.84h-5.89a6.74,6.74,0,0,0-1.66.2,6.05,6.05,0,0,0-1.93-.31Z"/></svg>