<svg id="レイヤー_1" data-name="レイヤー 1" xmlns="http://www.w3.org/2000/svg" viewBox="0 0 200 200"><defs><style>.cls-1{fill:#dce9ef;}.cls-2{fill:#788d9a;}.cls-3{fill:#8da1aa;}.cls-4{fill:#f1786b;}.cls-5{fill:#fdc77c;}.cls-6{fill:#5ac8ae;}.cls-7{fill:#445c6c;}.cls-8{fill:#ef4d4d;}.cls-9{fill:#f27171;}.cls-10{fill:#bf3e3e;}</style></defs><title>learning</title><path class="cls-1" d="M3.5,49.24V170.66A7.47,7.47,0,0,0,11,178.2H189a7.47,7.47,0,0,0,7.54-7.54V49.24Z"/><path class="cls-2" d="M196.5,29.34A7.47,7.47,0,0,0,189,21.8H11A7.47,7.47,0,0,0,3.5,29.34V49.55h193Z"/><path class="cls-3" d="M189,21.8H11A7.47,7.47,0,0,0,3.5,29.34v2.71A7.46,7.46,0,0,1,11,24.52H189a7.46,7.46,0,0,1,7.54,7.53V29.34A7.47,7.47,0,0,0,189,21.8Z"/><circle class="cls-4" cx="25.21" cy="35.67" r="5.13"/><circle class="cls-5" cx="41.5" cy="35.67" r="5.13"/><circle class="cls-6" cx="58.08" cy="35.67" r="5.13"/><path class="cls-7" d="M174.79,30.55H84.32a5.13,5.13,0,1,0,0,10.25h90.77a5.48,5.48,0,0,0,4.82-5.13A5.08,5.08,0,0,0,174.79,30.55Z"/><polygon class="cls-8" points="71.13 77.63 128.77 77.63 99.94 157.6 71.13 77.63"/><polygon class="cls-9" points="71.13 77.63 53.73 106.47 82.67 106.47 71.13 77.63"/><polygon class="cls-9" points="128.77 77.63 117.33 106.47 146.27 106.47 128.77 77.63"/><polygon class="cls-9" points="100.02 77.63 82.67 106.47 117.38 106.47 100.02 77.63"/><polygon class="cls-10" points="53.73 106.47 99.94 157.6 82.67 106.47 53.73 106.47"/><polygon class="cls-10" points="146.27 106.47 99.94 157.6 117.2 106.47 146.27 106.47"/></svg>