<?xml version="1.0" encoding="utf-8"?>
<!-- Generator: Adobe Illustrator 16.0.4, SVG Export Plug-In . SVG Version: 6.00 Build 0)  -->
<!DOCTYPE svg PUBLIC "-//W3C//DTD SVG 1.1//EN" "http://www.w3.org/Graphics/SVG/1.1/DTD/svg11.dtd">
<svg version="1.1" id="レイヤー_1" xmlns="http://www.w3.org/2000/svg" xmlns:xlink="http://www.w3.org/1999/xlink" x="0px"
	 y="0px" width="291.406px" height="346.094px" viewBox="0 0 291.406 346.094" enable-background="new 0 0 291.406 346.094"
	 xml:space="preserve">
<g>
	<path fill="#020204" d="M258.727,208.759c-1.851-10.634-4.966-21.024-8.931-31.062c-2.916-7.383-6.328-14.643-11.097-20.988
		c-4.666-6.211-10.548-11.439-15.118-17.721c-2.409-3.309-4.456-6.908-6.964-10.124c-1.015-2.095-2.017-4.195-2.988-6.311
		c-3.018-6.572-5.755-13.291-9.331-19.578c-0.555-0.976-1.141-1.937-1.741-2.889c-0.459-6.013-1.11-12.025-1.417-18.044
		c-0.616-12.068,0.135-24.374-3.03-36.036c-1.544-5.687-4.003-11.114-7.169-16.083c-3.71-5.823-8.414-11.041-14.005-15.091
		c-8.92-6.463-19.963-9.791-30.978-9.91c-8.125-0.089-16.347,1.557-23.499,5.411c-7.601,4.096-13.827,10.65-17.663,18.385
		c-3.834,7.731-5.279,16.456-5.569,25.082c-0.285,8.47,0.495,16.935,0.811,25.403c0.328,8.808,0.153,17.64,0.883,26.424
		c0.235,2.831,0.565,5.66,0.555,8.5c-0.005,1.413-0.089,2.838-0.11,4.255c-0.04,0.101-0.073,0.204-0.113,0.304
		c-1.087,2.699-2.436,5.26-3.919,7.752c-2.93,3.658-5.856,7.321-8.776,10.988c-3.238,4.066-6.469,8.138-9.732,12.184
		c-4.004,4.965-8.102,9.967-10.709,15.788c-2.239,5.001-3.298,10.435-4.833,15.696c-1.743,5.974-4.109,11.753-6.767,17.38
		c-2.454,5.197-5.156,10.273-7.864,15.342c-1.97,3.688-3.973,7.458-4.656,11.583c-0.539,3.258-0.225,6.623,0.605,9.821
		c0.83,3.199,2.164,6.244,3.669,9.187c2.298,4.49,5.013,8.754,8.067,12.763c2.709,10.829,7.95,20.975,14.916,29.71
		c-1.054,1.899-2.076,3.82-3.165,5.702c-3.376,5.832-7.501,11.361-9.424,17.819c-0.961,3.232-1.34,6.679-0.72,9.99
		c0.62,3.312,2.295,6.48,4.93,8.582c1.725,1.374,3.807,2.259,5.956,2.758c2.149,0.498,4.371,0.618,6.576,0.571
		c8.381-0.177,16.499-2.727,24.606-4.854c4.805-1.262,9.646-2.382,14.511-3.387c5.088-1.054,10.23-1.983,15.424-2.103
		c1.276-0.029,2.56-0.019,3.829-0.13c3.526,0.386,7.077,0.53,10.632,0.391c0.435-0.018,0.868-0.046,1.302-0.071
		c0.917,0.103,1.844,0.157,2.765,0.211c6.234,0.363,12.457,0.97,18.631,1.901c5.431,0.82,10.823,1.893,16.161,3.188
		c8.36,2.025,16.692,4.608,25.291,4.854c2.263,0.063,4.544-0.036,6.755-0.529c2.211-0.492,4.355-1.388,6.126-2.8
		c2.638-2.105,4.317-5.28,4.938-8.6c0.619-3.318,0.235-6.771-0.737-10.005c-1.943-6.467-6.107-11.983-9.561-17.787
		c-1.364-2.292-2.631-4.644-3.984-6.939c7.713-8.667,14.307-18.34,19.173-28.814c2.7,0.614,5.548,0.529,8.238-0.141
		c3.023-0.753,5.846-2.225,8.305-4.137c6.252-4.852,10.022-12.407,11.483-20.186C260.755,224.587,260.084,216.554,258.727,208.759z"
		/>
	<path fill="#FDFDFB" d="M114.103,102.244c-1.186,1.486-1.958,3.272-2.424,5.116c-0.466,1.843-0.638,3.749-0.71,5.648
		c-0.145,3.8,0.086,7.673-0.919,11.34c-1.075,3.92-3.486,7.317-5.845,10.627c-4.085,5.734-8.215,11.617-10.23,18.363
		c-1.22,4.084-1.626,8.411-1.188,12.652c-4.574,6.716-8.532,13.851-11.812,21.285c-4.971,11.267-8.383,23.262-9.582,35.518
		c-1.469,15.008,0.45,30.442,6.377,44.31c4.285,10.025,10.673,19.203,18.91,26.346c4.188,3.632,8.84,6.731,13.815,9.177
		c17.24,8.474,38.547,8.489,55.5-0.545c8.86-4.721,16.34-11.627,23.552-18.613c4.343-4.205,8.663-8.513,11.976-13.57
		c6.377-9.737,8.599-21.573,9.979-33.132c2.413-20.212,2.49-41.559-6.372-59.882c-3.05-6.309-7.115-12.126-11.991-17.159
		c-1.297-8.818-3.859-17.449-7.583-25.547c-2.687-5.843-5.972-11.404-8.467-17.33c-1.025-2.433-1.916-4.924-3.053-7.306
		s-2.54-4.675-4.447-6.5c-1.953-1.869-4.389-3.194-6.955-4.042c-2.566-0.848-5.27-1.232-7.969-1.368
		c-5.398-0.271-10.81,0.435-16.212,0.221c-4.301-0.171-8.587-0.925-12.885-0.671c-2.148,0.127-4.295,0.511-6.29,1.321
		C117.283,99.312,115.445,100.562,114.103,102.244"/>
	<path fill="#FFFFFF" d="M115.834,55.266c-2.019,0.11-3.949,1.041-5.426,2.421c-1.477,1.38-2.518,3.187-3.157,5.104
		c-1.28,3.835-0.993,7.992-0.702,12.024c0.264,3.651,0.533,7.373,1.901,10.769c0.683,1.697,1.643,3.298,2.924,4.605
		c1.28,1.308,2.892,2.314,4.667,2.759c1.665,0.417,3.443,0.331,5.081-0.184c1.637-0.515,3.132-1.449,4.358-2.649
		c1.79-1.751,2.996-4.042,3.688-6.448c0.691-2.406,0.889-4.932,0.853-7.435c-0.045-3.133-0.455-6.277-1.435-9.253
		c-0.98-2.976-2.545-5.784-4.729-8.03c-1.058-1.087-2.265-2.045-3.625-2.717C118.871,55.561,117.35,55.183,115.834,55.266"/>
	<path fill="#FFFFFF" d="M151.553,55.266c-3.151,2.165-5.792,5.185-7.082,8.783c-1.627,4.535-1.004,9.611,0.566,14.167
		c1.609,4.666,4.299,9.113,8.363,11.914c2.031,1.401,4.383,2.361,6.834,2.651c2.451,0.29,4.996-0.108,7.186-1.248
		c2.667-1.389,4.7-3.823,5.963-6.551c1.264-2.729,1.801-5.747,1.97-8.749c0.216-3.826-0.158-7.714-1.416-11.333
		c-1.365-3.932-3.843-7.56-7.335-9.822c-1.747-1.131-3.731-1.908-5.793-2.193c-2.061-0.286-4.199-0.072-6.139,0.682
		C153.564,53.995,152.531,54.594,151.553,55.266"/>
	<path fill="#020204" d="M158.819,64.779c-1.185,0.085-2.339,0.49-3.345,1.124c-1.004,0.632-1.862,1.49-2.535,2.469
		c-1.346,1.958-1.938,4.359-2.032,6.733c-0.07,1.782,0.126,3.587,0.718,5.27c0.59,1.683,1.586,3.24,2.961,4.378
		c1.405,1.164,3.191,1.862,5.014,1.95c1.824,0.087,3.672-0.438,5.17-1.48c1.193-0.831,2.154-1.974,2.841-3.256
		c0.685-1.283,1.099-2.702,1.286-4.143c0.334-2.546-0.043-5.205-1.221-7.488c-1.177-2.283-3.173-4.162-5.584-5.05
		C161.05,64.9,159.93,64.7,158.819,64.779"/>
	<path fill="#020204" d="M110.968,71.981c-0.422,2.545-0.437,5.215,0.438,7.642c0.578,1.603,1.531,3.057,2.688,4.306
		c0.758,0.818,1.619,1.562,2.625,2.043c1.005,0.482,2.171,0.688,3.252,0.416c1-0.25,1.873-0.893,2.517-1.696s1.074-1.76,1.38-2.743
		c0.903-2.902,0.759-6.076-0.139-8.98c-0.653-2.116-1.736-4.157-3.43-5.583c-0.809-0.682-1.754-1.214-2.782-1.458
		c-1.028-0.245-2.141-0.187-3.103,0.25c-1.068,0.486-1.895,1.409-2.435,2.45C111.438,69.667,111.16,70.824,110.968,71.981"/>
	<path fill="#F5BD0C" d="M106.223,103.623c0.07,0.335,0.195,0.658,0.371,0.952c0.301,0.504,0.741,0.914,1.216,1.259
		s0.989,0.634,1.487,0.947c2.645,1.663,4.8,4,6.714,6.468c2.568,3.312,4.841,6.987,8.272,9.394c2.424,1.7,5.322,2.669,8.267,2.965
		c3.458,0.348,6.958-0.211,10.292-1.192c3.09-0.91,6.078-2.188,8.819-3.878c5.211-3.214,9.564-7.925,15.311-10.038
		c1.256-0.461,2.561-0.792,3.77-1.36c1.211-0.569,2.349-1.421,2.926-2.626c0.556-1.159,0.534-2.496,0.716-3.768
		c0.192-1.361,0.626-2.678,0.865-4.031c0.236-1.354,0.267-2.802-0.319-4.046c-0.484-1.03-1.366-1.845-2.38-2.362
		c-1.015-0.518-2.155-0.753-3.292-0.809c-2.273-0.112-4.519,0.47-6.785,0.677c-3.004,0.274-6.027-0.111-9.042-0.021
		c-3.749,0.111-7.444,0.957-11.189,1.139c-4.274,0.207-8.539-0.452-12.815-0.625c-1.852-0.074-3.718-0.058-5.544,0.256
		c-1.827,0.313-3.621,0.934-5.147,1.986c-1.485,1.026-2.669,2.426-4.034,3.608c-0.683,0.592-1.416,1.132-2.229,1.527
		c-0.812,0.394-1.708,0.639-2.611,0.62c-0.464-0.011-0.942-0.087-1.384,0.053c-0.276,0.088-0.522,0.257-0.729,0.46
		c-0.208,0.203-0.379,0.438-0.541,0.679C106.83,102.417,106.5,103.009,106.223,103.623"/>
	<path fill="#4C3405" d="M115.646,94.159c-1.517,0.897-2.979,1.885-4.417,2.904c-0.745,0.528-1.512,1.098-1.904,1.922
		c-0.278,0.583-0.342,1.245-0.351,1.892c-0.009,0.646,0.033,1.296-0.052,1.937c-0.059,0.438-0.175,0.869-0.194,1.31
		c-0.01,0.221,0.005,0.444,0.063,0.657c0.058,0.213,0.16,0.416,0.312,0.577c0.196,0.208,0.462,0.335,0.735,0.418
		c0.272,0.083,0.556,0.126,0.834,0.191c1.331,0.312,2.489,1.129,3.506,2.044c1.017,0.915,1.93,1.944,2.991,2.807
		c2.875,2.34,6.676,3.308,10.383,3.369c3.707,0.062,7.371-0.714,10.987-1.529c2.84-0.641,5.684-1.309,8.416-2.317
		c4.196-1.547,8.093-3.889,11.467-6.824c1.53-1.332,2.966-2.792,4.683-3.871c1.521-0.955,3.223-1.584,4.768-2.496
		c0.139-0.082,0.275-0.166,0.398-0.268c0.124-0.103,0.234-0.225,0.307-0.369c0.123-0.248,0.123-0.545,0.043-0.811
		c-0.079-0.266-0.233-0.503-0.408-0.719c-0.192-0.239-0.412-0.456-0.646-0.655c-1.612-1.381-3.804-1.884-5.921-2.052
		c-2.117-0.168-4.263-0.049-6.359-0.399c-1.97-0.329-3.845-1.064-5.746-1.674c-1.998-0.641-4.039-1.148-6.108-1.485
		c-4.868-0.794-9.879-0.642-14.708,0.363C124.125,90.039,119.69,91.768,115.646,94.159"/>
	<path fill="#F5BD0C" d="M115.162,89.029c-2.186,1.472-4.154,3.267-5.82,5.31c-0.953,1.168-1.818,2.438-2.298,3.867
		c-0.377,1.124-0.505,2.313-0.744,3.475c-0.089,0.435-0.194,0.872-0.192,1.316c0.001,0.222,0.029,0.445,0.098,0.656
		c0.069,0.211,0.18,0.41,0.333,0.57c0.254,0.265,0.612,0.409,0.972,0.483c0.36,0.074,0.73,0.085,1.095,0.127
		c1.648,0.187,3.167,0.988,4.533,1.929c1.367,0.941,2.626,2.035,4.028,2.922c3.099,1.959,6.794,2.832,10.457,2.973
		c3.663,0.141,7.318-0.415,10.913-1.133c2.857-0.571,5.705-1.248,8.416-2.317c4.15-1.636,7.891-4.155,11.467-6.824
		c1.624-1.212,3.226-2.463,4.683-3.871c0.496-0.478,0.975-0.974,1.506-1.412c0.531-0.438,1.119-0.818,1.775-1.029
		c0.998-0.321,2.08-0.229,3.113-0.056c0.779,0.13,1.559,0.305,2.349,0.273c0.395-0.016,0.789-0.084,1.156-0.231
		c0.366-0.146,0.704-0.374,0.956-0.679c0.329-0.4,0.498-0.923,0.5-1.442c0.002-0.519-0.157-1.032-0.421-1.479
		c-0.526-0.895-1.437-1.5-2.386-1.92c-1.298-0.578-2.704-0.864-4.087-1.197c-4.243-1.025-8.368-2.539-12.28-4.481
		c-1.943-0.965-3.834-2.035-5.746-3.06c-1.967-1.055-3.972-2.067-6.108-2.715c-4.775-1.448-9.995-0.973-14.708,0.664
		C123.487,81.567,118.753,84.808,115.162,89.029"/>
	<path fill="#020204" d="M139.655,83.063c0.262,0.841,1.618,0.701,2.401,1.104c0.688,0.354,1.241,1.131,2.013,1.153
		c0.738,0.021,1.886-0.256,1.982-0.988c0.127-0.966-1.285-1.581-2.193-1.935c-1.169-0.456-2.667-0.688-3.763-0.077
		C139.844,82.46,139.57,82.789,139.655,83.063z"/>
	<path fill="#020204" d="M126.708,82.587c-1.007-0.327-2.672,1.448-2.129,2.356c0.149,0.25,0.606,0.566,0.915,0.396
		c0.463-0.255,0.843-1.167,1.345-1.525C127.175,83.577,127.1,82.714,126.708,82.587z"/>
	<path fill="#F5C021" d="M287.84,292.71c-0.761,1.947-1.843,3.77-3.19,5.37c-2.974,3.527-7.104,5.858-11.217,7.955
		c-7.013,3.574-14.281,6.711-20.875,11.012c-4.417,2.88-8.495,6.262-12.307,9.908c-3.261,3.116-6.354,6.445-10.011,9.086
		c-3.689,2.665-7.955,4.595-12.455,5.271c-5.476,0.821-11.132-0.242-16.207-2.452c-3.555-1.551-6.974-3.769-9.024-7.062
		c-2.055-3.307-2.524-7.354-2.529-11.247c-0.009-6.886,1.268-13.702,2.469-20.481c0.998-5.636,1.949-11.282,2.562-16.971
		c1.114-10.351,1.106-20.8,0.362-31.182c-0.125-1.739-0.269-3.495-0.009-5.219c0.261-1.722,0.969-3.44,2.29-4.578
		c1.221-1.049,2.858-1.514,4.464-1.603c1.607-0.089,3.213,0.166,4.807,0.399c3.754,0.548,7.538,0.979,11.206,1.945
		c2.315,0.608,4.571,1.427,6.882,2.052c3.856,1.042,7.896,1.542,11.862,1.078c4.272-0.499,8.422-2.104,12.721-1.999
		c1.765,0.042,3.516,0.376,5.197,0.904c1.718,0.543,3.412,1.318,4.674,2.604c0.958,0.973,1.626,2.204,2.129,3.478
		c0.748,1.896,1.15,3.917,1.323,5.946c0.152,1.8,0.128,3.622,0.468,5.395c0.562,2.918,2.095,5.581,4,7.86
		c1.905,2.28,4.181,4.217,6.456,6.129c2.265,1.904,4.544,3.801,6.988,5.472c1.146,0.784,2.33,1.519,3.42,2.38
		c1.089,0.863,2.09,1.868,2.771,3.079C287.99,288.883,288.271,290.875,287.84,292.71"/>
	<path fill="#020204" d="M254.047,239.955c-0.459-1.25-1.268-2.359-2.256-3.252c-0.989-0.894-2.154-1.577-3.381-2.098
		c-2.453-1.04-5.123-1.43-7.742-1.921c-2.47-0.465-4.92-1.027-7.397-1.447c-2.574-0.439-5.234-0.718-7.781-0.143
		c-2.228,0.503-4.288,1.652-5.976,3.194c-1.684,1.541-3.001,3.464-3.948,5.54c-1.669,3.662-2.192,7.78-1.874,11.791
		c0.236,2.983,0.992,6.059,2.957,8.316c1.587,1.826,3.838,2.966,6.157,3.652c3.995,1.183,8.35,1.12,12.309-0.177
		c6.535-2.189,12.325-6.544,16.241-12.217c1.29-1.868,2.393-3.907,2.894-6.123C254.629,243.384,254.643,241.58,254.047,239.955"/>
	<path fill="#F5BD0C" d="M51.626,235.072c1.812-0.75,3.851-0.887,5.781-0.53c1.93,0.355,3.753,1.188,5.375,2.291
		c3.247,2.204,5.654,5.413,7.959,8.59c5.295,7.291,10.391,14.735,15.01,22.474c3.747,6.274,7.19,12.756,11.519,18.646
		c2.827,3.842,6.014,7.411,8.854,11.244c2.841,3.834,5.358,7.995,6.618,12.598c1.637,5.98,1.003,12.572-1.843,18.08
		c-2.002,3.875-5.073,7.2-8.809,9.45c-3.735,2.252-8.126,3.416-12.485,3.252c-6.929-0.259-13.259-3.723-19.701-6.288
		c-13.125-5.226-27.38-6.866-40.908-10.938c-4.157-1.252-8.246-2.732-12.432-3.884c-1.86-0.512-3.75-0.961-5.506-1.758
		c-1.757-0.797-3.4-1.983-4.377-3.646c-0.755-1.286-1.075-2.8-1.054-4.29c0.021-1.491,0.369-2.964,0.877-4.364
		c1.015-2.806,2.655-5.344,3.762-8.113c1.808-4.52,2.132-9.505,1.889-14.367c-0.244-4.863-1.033-9.685-1.365-14.543
		c-0.149-2.17-0.205-4.365,0.209-6.501c0.415-2.134,1.333-4.222,2.899-5.729c1.444-1.391,3.36-2.216,5.323-2.625
		c1.962-0.41,3.983-0.428,5.988-0.383c2.004,0.044,4.013,0.152,6.01-0.011c1.998-0.167,4.005-0.614,5.746-1.609
		c1.654-0.946,3.008-2.351,4.129-3.893c1.121-1.54,2.028-3.224,2.957-4.889c0.929-1.662,1.891-3.322,3.107-4.788
		C48.375,237.082,49.866,235.804,51.626,235.072"/>
</g>
</svg>
