<svg id="materials" xmlns="http://www.w3.org/2000/svg" viewBox="0 0 240 240"><defs><style>.cls-1{fill:#60605a;}.cls-2{fill:#515556;}.cls-3{fill:#fff;}.cls-4{fill:#f4f42f;}.cls-5{fill:#e8e7df;}</style></defs><title>linux</title><path class="cls-1" d="M117.88,232.81l-1.32,0c-36.36,0-62.76-25.51-62.76-60.66,0-19.77,6.4-32.5,11.53-42.73,3.39-6.75,6.07-12.08,6.07-17.57,0-4.44-1.27-8.77-2.87-14.26a136.85,136.85,0,0,1-6.27-37.14A55.9,55.9,0,0,1,117.58,2.68h.67a55.88,55.88,0,0,1,55.31,57.79,136.94,136.94,0,0,1-6.26,37.14c-1.61,5.49-2.87,9.82-2.87,14.26,0,5.49,2.67,10.82,6.06,17.57,5.14,10.23,11.53,23,11.53,42.73,0,35.15-26.39,60.66-62.75,60.66Z"/><path class="cls-2" d="M118.25,4.53c29.53,0,54.53,25,53.47,55.87-1,29.42-9.14,39.77-9.14,51.47,0,14.71,17.6,27.94,17.6,60.3,0,35.32-26.53,58.82-60.91,58.82-.46,0-.91,0-1.36,0l-1.35,0c-34.39,0-60.91-23.5-60.91-58.82,0-32.36,17.6-45.59,17.6-60.3,0-11.7-8.13-22.05-9.14-51.47C63.05,29.57,88.05,4.53,117.58,4.53h.67m0-3.7h-.67a57.74,57.74,0,0,0-57.16,59.7,139,139,0,0,0,6.33,37.6c1.57,5.34,2.8,9.57,2.8,13.74,0,5-2.59,10.21-5.87,16.74C58.46,139,52,152,52,172.17c0,36.22,27.17,62.51,64.6,62.51l.94,0h.82l1,0c37.43,0,64.6-26.29,64.6-62.51,0-20.2-6.5-33.15-11.73-43.56-3.28-6.53-5.87-11.69-5.87-16.74,0-4.17,1.24-8.4,2.8-13.74a138.93,138.93,0,0,0,6.34-37.6A57.76,57.76,0,0,0,118.25.83Z"/><path class="cls-3" d="M117.87,229.77l-1,0c-27.54,0-47.53-21.39-47.53-50.87,0-16.51,4.8-27.14,8.66-35.68,2.54-5.61,4.54-10,4.54-14.57a39.54,39.54,0,0,0-1.12-7.82c-1.72-8.26-3.86-18.54,4.36-34.9,4.87-9.71,20.61-13.15,32.61-13.15S146,76.27,150.07,86.07c7.11,17,5.42,27,4.06,35a47,47,0,0,0-.87,7.59c0,4.53,2,9,4.53,14.57,3.86,8.54,8.67,19.17,8.67,35.68,0,29.48-20,50.87-47.53,50.87Z"/><path class="cls-2" d="M118.42,74.65c13.37,0,26.56,4,30,12.13,9.34,22.33,3,32.13,3,41.89,0,12.25,13.2,23.28,13.2,50.25,0,29.44-19.89,49-45.68,49l-1,0c-.33,0-.67,0-1,0-25.79,0-45.68-19.59-45.68-49,0-27,13.19-38,13.19-50.25,0-9.76-7.76-20.36,3-41.89,4.06-8.09,17.59-12.13,31-12.13m0-3.7c-12.52,0-29,3.71-34.26,14.17-8.51,16.93-6.2,28-4.52,36.11a38.22,38.22,0,0,1,1.08,7.44c0,4.14-1.93,8.4-4.37,13.81-3.93,8.7-8.83,19.54-8.83,36.44,0,30.55,20.77,52.72,49.38,52.72h2c28.61,0,49.37-22.17,49.37-52.72,0-16.9-4.89-27.74-8.82-36.44-2.45-5.41-4.37-9.67-4.37-13.81a45.22,45.22,0,0,1,.84-7.28c1.4-8.27,3.14-18.56-4.18-36C148.86,78.39,138.57,71,118.42,71Z"/><ellipse class="cls-3" cx="99.64" cy="58.2" rx="14.03" ry="20.23"/><path class="cls-2" d="M99.64,39.82c6.73,0,12.18,8.23,12.18,18.38s-5.45,18.38-12.18,18.38S87.46,68.35,87.46,58.2s5.45-18.38,12.18-18.38m0-3.69c-8.9,0-15.87,9.69-15.87,22.07s7,22.07,15.87,22.07,15.88-9.69,15.88-22.07S108.54,36.13,99.64,36.13Z"/><path class="cls-3" d="M135.51,75.49c-7.36,0-13.35-8.42-13.35-18.76S128.15,38,135.51,38s13.35,8.42,13.35,18.76S142.87,75.49,135.51,75.49Z"/><path class="cls-2" d="M135.51,39.82c6.35,0,11.5,7.57,11.5,16.91s-5.15,16.91-11.5,16.91S124,66.07,124,56.73s5.16-16.91,11.51-16.91m0-3.69c-8.52,0-15.2,9-15.2,20.6s6.68,20.6,15.2,20.6,15.2-9,15.2-20.6S144,36.13,135.51,36.13Z"/><path class="cls-4" d="M116.56,104.9c-19.63,0-35-7.92-35-18s15.38-18,35-18,35,7.92,35,18S136.19,104.9,116.56,104.9Z"/><path class="cls-2" d="M116.56,70.7c18.31,0,33.16,7.24,33.16,16.18s-14.85,16.17-33.16,16.17S83.4,95.81,83.4,86.88,98.24,70.7,116.56,70.7m0-3.69c-21,0-36.86,8.54-36.86,19.87s15.85,19.86,36.86,19.86,36.86-8.54,36.86-19.86S137.57,67,116.56,67Z"/><path class="cls-4" d="M84.37,237.32c-9.4,0-19.46-10.37-22.32-13.55-12.06-13.4-16.41-20.9-14.54-25.1.58-1.3,2-2.86,5.67-2.86l.72,0,1,0c5.94,0,6-2.71,6.21-7.2.12-3.2.26-6.81,3.61-8.52a7.08,7.08,0,0,1,3.21-.79c2.79,0,5.17,1.66,7.27,3.13,1.45,1,3,2.07,4,2.07h0c.26,0,.93,0,1.92-1.39,2.74-3.78,5.09-5.54,7.41-5.54,5.42,0,7.52,8.55,9.71,25.4,1,8.08,2.28,27.48-8.75,33.1A11.13,11.13,0,0,1,84.37,237.32Z"/><path class="cls-2" d="M88.54,179.46c4,0,6,9.28,7.87,23.8,1.52,11.74,1,26.77-7.75,31.22a9.31,9.31,0,0,1-4.29,1c-7.55,0-16.31-7.78-21-12.93-6-6.62-22.08-24.88-10.25-24.88.21,0,.42,0,.64,0,.38,0,.73,0,1.08,0,12.9,0,4.73-12.9,10.65-15.91a5.13,5.13,0,0,1,2.38-.59c4.21,0,7.84,5.19,11.29,5.19,1.15,0,2.29-.58,3.42-2.14,2.37-3.28,4.3-4.79,5.91-4.79m0-3.69c-3.89,0-6.94,3.6-8.9,6.31a3.34,3.34,0,0,1-.53.6A13.93,13.93,0,0,1,76.24,181c-2.2-1.54-4.95-3.45-8.32-3.45a8.81,8.81,0,0,0-4.05,1c-4.31,2.19-4.49,6.76-4.61,10.09-.17,4.49-.21,5.42-4.37,5.42L54,194c-.29,0-.56,0-.83,0-4.86,0-6.69,2.47-7.34,3.95C43.56,203,47.72,210.61,60.67,225c3,3.32,13.53,14.16,23.7,14.16a13,13,0,0,0,6-1.4c5-2.55,12.91-10.48,9.74-35C97.71,184.48,95.38,175.77,88.54,175.77Z"/><path class="cls-4" d="M157.89,235.16a10.85,10.85,0,0,1-3.89-.7c-11.52-4.4-12.08-23.85-11.78-32,.63-17.47,2-26.33,7.77-26.33,2.19,0,4.54,1.51,7.41,4.75,1,1.16,1.66,1.16,1.86,1.16,1.08,0,2.56-1.28,4-2.51,2.13-1.85,4.55-3.94,7.67-3.94a7.23,7.23,0,0,1,2.53.48c3.51,1.34,4,4.94,4.4,8.11.57,4.3,1.06,6.55,5.29,6.55h0a16.83,16.83,0,0,0,2.5-.22,11.63,11.63,0,0,1,2-.17c2.91,0,4.21,1.36,4.79,2.49,2,4-1.61,11.92-12.23,26.37C177.41,222.94,167.67,235.16,157.89,235.16Z"/><path class="cls-2" d="M170.92,177.43a5.21,5.21,0,0,1,1.88.36c5.87,2.24-.12,14.77,10.34,14.77a17.54,17.54,0,0,0,2.8-.24,10.31,10.31,0,0,1,1.66-.15c9.86,0-3.78,18.92-8.93,25.93-4.34,5.92-12.95,15.22-20.78,15.22a8.79,8.79,0,0,1-3.23-.59c-9.09-3.47-11-18.37-10.6-30.21.54-15,1.73-24.56,5.93-24.56,1.56,0,3.53,1.31,6,4.14a4.38,4.38,0,0,0,3.24,1.78c3.73,0,7.05-6.45,11.66-6.45m0-3.69h0c-3.8,0-6.62,2.43-8.87,4.38a14.74,14.74,0,0,1-2.72,2,3.33,3.33,0,0,1-.55-.51c-3.24-3.67-6-5.38-8.79-5.38-8,0-9,12.18-9.62,28.11-.89,24.76,7.74,31.8,13,33.8a12.7,12.7,0,0,0,4.55.83c10.65,0,20.88-12.8,23.76-16.72C192.88,205,196.47,196.8,194,192c-.67-1.31-2.38-3.51-6.44-3.51a14,14,0,0,0-2.25.19,14.45,14.45,0,0,1-2.21.2c-2.46,0-2.85-.3-3.46-4.94-.43-3.32-1-7.86-5.57-9.59A8.84,8.84,0,0,0,170.92,173.74Z"/><path class="cls-2" d="M107.31,58.88c0,6.53-3.13,11.82-7,11.82s-7-5.29-7-11.82,3.14-11.81,7-11.81S107.31,52.36,107.31,58.88Z"/><path class="cls-2" d="M142.5,58.88c0,6.53-3.13,11.82-7,11.82s-7-5.29-7-11.82,3.13-11.81,7-11.81S142.5,52.36,142.5,58.88Z"/><path class="cls-5" d="M145.37,149.23S133.77,141,118.86,141c-14.28,0-26.5,8.28-26.5,8.28s16.23-5,26.5-5S145.37,149.23,145.37,149.23Z"/><path class="cls-1" d="M114.26,76c-.07.91-1.23,1.55-2.59,1.44s-2.4-.93-2.33-1.83,1.24-1.55,2.59-1.44S114.33,75.1,114.26,76Z"/><path class="cls-1" d="M124.89,75.53c.1.91-.92,1.76-2.27,1.91S120.08,77,120,76.08s.92-1.76,2.27-1.91S124.79,74.63,124.89,75.53Z"/></svg>