<svg id="レイヤー_1" data-name="レイヤー 1" xmlns="http://www.w3.org/2000/svg" viewBox="0 0 200 200"><defs><style>.cls-1{fill:#020204;}.cls-2{fill:#fdfdfb;}.cls-3{fill:#fff;}.cls-4{fill:#f5bd0c;}.cls-5{fill:#4c3405;}.cls-6{fill:#f5c021;}</style></defs><title>linux</title><path class="cls-1" d="M155.07,117.48a78.13,78.13,0,0,0-4.39-15.29,44,44,0,0,0-5.46-10.33c-2.3-3.06-5.2-5.63-7.44-8.73-1.19-1.62-2.2-3.4-3.43-5-.5-1-1-2.06-1.47-3.1-1.49-3.24-2.84-6.55-4.6-9.64-.27-.48-.56-1-.85-1.42-.23-3-.55-5.92-.7-8.88-.3-5.94.07-12-1.49-17.74a28.87,28.87,0,0,0-3.53-7.92A27.23,27.23,0,0,0,114.82,22a26.63,26.63,0,0,0-15.25-4.88A24,24,0,0,0,88,19.81a20.87,20.87,0,0,0-8.69,9.05,29.91,29.91,0,0,0-2.74,12.35c-.14,4.17.24,8.33.4,12.5.16,4.33.07,8.68.43,13,.12,1.4.28,2.79.28,4.19,0,.69-.05,1.4-.06,2.09,0,.05,0,.1-.05.15A28.48,28.48,0,0,1,75.64,77l-4.32,5.41c-1.6,2-3.19,4-4.79,6a36.82,36.82,0,0,0-5.27,7.77,59,59,0,0,0-2.38,7.73,58.43,58.43,0,0,1-3.33,8.55C54.34,115,53,117.47,51.68,120a18.89,18.89,0,0,0-2.29,5.71,11.76,11.76,0,0,0,.29,4.83A22.58,22.58,0,0,0,51.49,135a41.81,41.81,0,0,0,4,6.28,38.62,38.62,0,0,0,7.34,14.63c-.52.93-1,1.88-1.56,2.8-1.66,2.87-3.69,5.59-4.63,8.77a10.54,10.54,0,0,0-.36,4.92,7,7,0,0,0,2.43,4.22A7.23,7.23,0,0,0,61.61,178a12.57,12.57,0,0,0,3.24.28C69,178.19,73,176.94,77,175.89q3.54-.93,7.14-1.66a42.26,42.26,0,0,1,7.59-1c.63,0,1.26,0,1.88-.06a35.27,35.27,0,0,0,5.24.19l.64,0c.45.05.91.08,1.36.11,3.07.18,6.13.48,9.17.93,2.67.41,5.33.94,8,1.57,4.12,1,8.22,2.27,12.45,2.39a13.75,13.75,0,0,0,3.33-.26,7.32,7.32,0,0,0,3-1.38,7,7,0,0,0,2.43-4.23,10.41,10.41,0,0,0-.36-4.92c-1-3.19-3-5.9-4.71-8.76-.67-1.13-1.29-2.28-2-3.41a58.69,58.69,0,0,0,9.44-14.19,8.8,8.8,0,0,0,4.05-.06,11.24,11.24,0,0,0,4.09-2,16.29,16.29,0,0,0,5.65-9.94A32.62,32.62,0,0,0,155.07,117.48Z"/><path class="cls-2" d="M83.89,65.05a6.66,6.66,0,0,0-1.19,2.52,13,13,0,0,0-.35,2.78,24.75,24.75,0,0,1-.45,5.58A17.19,17.19,0,0,1,79,81.16c-2,2.82-4,5.72-5,9a16,16,0,0,0-.58,6.22,65.75,65.75,0,0,0-5.81,10.48,57.25,57.25,0,0,0-4.72,17.48A44.62,44.62,0,0,0,66,146.19a35.68,35.68,0,0,0,9.31,13,31.93,31.93,0,0,0,6.8,4.52,30.49,30.49,0,0,0,27.31-.27c4.36-2.33,8-5.73,11.59-9.16a40.22,40.22,0,0,0,5.9-6.68c3.14-4.8,4.23-10.62,4.91-16.31,1.19-9.95,1.23-20.45-3.14-29.47a32.43,32.43,0,0,0-5.9-8.45,46.33,46.33,0,0,0-3.73-12.57c-1.32-2.88-2.94-5.62-4.17-8.53-.5-1.2-.94-2.43-1.5-3.6a10.84,10.84,0,0,0-2.19-3.2,9.06,9.06,0,0,0-3.42-2,15.41,15.41,0,0,0-3.92-.67c-2.66-.13-5.33.21-8,.11a61.38,61.38,0,0,0-6.35-.33,9.64,9.64,0,0,0-3.09.65,6.25,6.25,0,0,0-2.55,1.84"/><path class="cls-3" d="M84.74,41.93a4.31,4.31,0,0,0-2.67,1.19,6.07,6.07,0,0,0-1.55,2.51,15.29,15.29,0,0,0-.35,5.92,17.52,17.52,0,0,0,.94,5.3,7,7,0,0,0,1.44,2.27,4.86,4.86,0,0,0,2.3,1.35,4.53,4.53,0,0,0,2.5-.09,5.37,5.37,0,0,0,2.14-1.3,7.21,7.21,0,0,0,1.82-3.17,12.91,12.91,0,0,0,.42-3.66A15.67,15.67,0,0,0,91,47.69a10.22,10.22,0,0,0-2.33-3.95,6.67,6.67,0,0,0-1.78-1.34,4.41,4.41,0,0,0-2.17-.47"/><path class="cls-3" d="M102.32,41.93a9,9,0,0,0-3.48,4.32,10.57,10.57,0,0,0,.28,7,11.55,11.55,0,0,0,4.11,5.87,7.5,7.5,0,0,0,3.37,1.3,6.06,6.06,0,0,0,3.53-.61,6.79,6.79,0,0,0,2.94-3.23,11.93,11.93,0,0,0,1-4.3,14.62,14.62,0,0,0-.7-5.58,9.31,9.31,0,0,0-3.61-4.83,7,7,0,0,0-2.85-1.08,6.09,6.09,0,0,0-3,.33,7.68,7.68,0,0,0-1.54.84"/><path class="cls-1" d="M105.9,46.61a3.64,3.64,0,0,0-1.65.55A4.37,4.37,0,0,0,103,48.38a6.13,6.13,0,0,0-1,3.31,6.94,6.94,0,0,0,.35,2.6,4.89,4.89,0,0,0,1.46,2.15,4.21,4.21,0,0,0,2.46,1,4.14,4.14,0,0,0,2.55-.73,4.59,4.59,0,0,0,1.4-1.6,6.06,6.06,0,0,0,.63-2,6.31,6.31,0,0,0-.6-3.68,5.15,5.15,0,0,0-2.75-2.49,3.83,3.83,0,0,0-1.61-.25"/><path class="cls-1" d="M82.35,50.15a7.52,7.52,0,0,0,.21,3.77A6.44,6.44,0,0,0,83.89,56a4.35,4.35,0,0,0,1.29,1A2.19,2.19,0,0,0,88,56.41a4,4,0,0,0,.68-1.35,7.57,7.57,0,0,0-.07-4.42,5.78,5.78,0,0,0-1.69-2.75,3.39,3.39,0,0,0-1.37-.71A2.31,2.31,0,0,0,84,47.3a2.61,2.61,0,0,0-1.19,1.2,5.42,5.42,0,0,0-.5,1.65"/><path class="cls-4" d="M80,65.73a1.72,1.72,0,0,0,.19.47,2.05,2.05,0,0,0,.59.62c.24.17.49.31.74.46a13.16,13.16,0,0,1,3.3,3.19c1.26,1.63,2.38,3.44,4.07,4.62A8.59,8.59,0,0,0,93,76.55,13.23,13.23,0,0,0,98,76a17.7,17.7,0,0,0,4.34-1.91c2.56-1.58,4.7-3.9,7.53-4.94.62-.22,1.26-.39,1.86-.67a3,3,0,0,0,1.44-1.29,6.38,6.38,0,0,0,.35-1.85c.1-.67.31-1.32.43-2a3.37,3.37,0,0,0-.16-2,2.53,2.53,0,0,0-1.17-1.16,4,4,0,0,0-1.62-.4,25,25,0,0,0-3.34.33c-1.48.14-3-.05-4.45,0-1.85.06-3.67.47-5.51.56-2.1.11-4.2-.22-6.31-.3a13.12,13.12,0,0,0-2.73.12,6.42,6.42,0,0,0-2.53,1,23.74,23.74,0,0,0-2,1.78,5.48,5.48,0,0,1-1.1.75,2.88,2.88,0,0,1-1.29.3,2.22,2.22,0,0,0-.68,0,1,1,0,0,0-.36.23,2.1,2.1,0,0,0-.26.33,6.24,6.24,0,0,0-.49.87"/><path class="cls-5" d="M84.65,61.07c-.75.44-1.47.93-2.17,1.43a2.59,2.59,0,0,0-.94,1,2.08,2.08,0,0,0-.17.93c0,.31,0,.63,0,1s-.08.43-.09.65a.89.89,0,0,0,0,.32.76.76,0,0,0,.15.28.88.88,0,0,0,.36.21l.41.09a4.1,4.1,0,0,1,1.73,1c.5.45.95,1,1.47,1.38a8.32,8.32,0,0,0,5.11,1.66,23.06,23.06,0,0,0,5.41-.75A34.21,34.21,0,0,0,100.06,69a18.44,18.44,0,0,0,5.64-3.36A19,19,0,0,1,108,63.77c.75-.47,1.59-.78,2.35-1.23l.19-.13a.52.52,0,0,0,.15-.18.55.55,0,0,0,0-.4.82.82,0,0,0-.2-.35,2.42,2.42,0,0,0-.31-.33,5.12,5.12,0,0,0-2.92-1c-1-.08-2.1,0-3.13-.19a20.33,20.33,0,0,1-2.83-.83,21.87,21.87,0,0,0-3-.73,20,20,0,0,0-7.24.18,21,21,0,0,0-6.44,2.5"/><path class="cls-4" d="M84.41,58.55a13.13,13.13,0,0,0-2.86,2.61,6,6,0,0,0-1.13,1.9,14.48,14.48,0,0,0-.37,1.71,3.63,3.63,0,0,0-.09.65,1.12,1.12,0,0,0,0,.32.66.66,0,0,0,.17.28.85.85,0,0,0,.48.24,4.69,4.69,0,0,0,.54.06,5.2,5.2,0,0,1,2.23,1c.67.47,1.29,1,2,1.44a10.29,10.29,0,0,0,5.15,1.47,23.72,23.72,0,0,0,5.37-.56,24.64,24.64,0,0,0,4.14-1.14,25.19,25.19,0,0,0,5.64-3.36A23.41,23.41,0,0,0,108,63.21c.24-.23.48-.48.74-.69a2.73,2.73,0,0,1,.87-.51,3.34,3.34,0,0,1,1.54,0,5.56,5.56,0,0,0,1.15.14,1.57,1.57,0,0,0,.57-.12,1.12,1.12,0,0,0,.47-.33,1.14,1.14,0,0,0,.25-.71,1.47,1.47,0,0,0-.21-.73,2.46,2.46,0,0,0-1.17-.94,10.88,10.88,0,0,0-2-.59,29.17,29.17,0,0,1-6-2.21c-1-.47-1.89-1-2.83-1.5a16.76,16.76,0,0,0-3-1.34,11.81,11.81,0,0,0-7.24.33,15.44,15.44,0,0,0-6.68,4.57"/><path class="cls-1" d="M96.47,55.61c.13.41.79.34,1.18.54s.61.56,1,.57.93-.13,1-.49-.64-.77-1.08-.95a2.32,2.32,0,0,0-1.86,0C96.56,55.31,96.43,55.47,96.47,55.61Z"/><path class="cls-1" d="M90.1,55.37c-.5-.16-1.32.72-1,1.16.07.13.3.28.45.2s.41-.57.66-.75A.41.41,0,0,0,90.1,55.37Z"/><path class="cls-6" d="M169.4,158.8a9.32,9.32,0,0,1-1.57,2.64,17.1,17.1,0,0,1-5.52,3.91A110.37,110.37,0,0,0,152,170.77a42.45,42.45,0,0,0-6.06,4.88,49.59,49.59,0,0,1-4.93,4.47,14.23,14.23,0,0,1-6.13,2.6,14.69,14.69,0,0,1-8-1.21A9.6,9.6,0,0,1,122.5,178a10.4,10.4,0,0,1-1.24-5.53,57.1,57.1,0,0,1,1.21-10.08c.5-2.78,1-5.56,1.27-8.36a86.36,86.36,0,0,0,.17-15.34,11.62,11.62,0,0,1,0-2.57A3.66,3.66,0,0,1,125,133.9a3.6,3.6,0,0,1,2.19-.79,11.84,11.84,0,0,1,2.37.19,48.43,48.43,0,0,1,5.51,1c1.14.3,2.25.7,3.39,1a15.6,15.6,0,0,0,5.84.53c2.1-.25,4.15-1,6.26-1a9.29,9.29,0,0,1,2.56.44,5.5,5.5,0,0,1,2.3,1.28,5.14,5.14,0,0,1,1,1.72,10.39,10.39,0,0,1,.65,2.92,23.66,23.66,0,0,0,.23,2.66,8.81,8.81,0,0,0,2,3.87,25.16,25.16,0,0,0,3.18,3,43,43,0,0,0,3.44,2.7c.56.38,1.14.74,1.68,1.17A5.3,5.3,0,0,1,169,156.1a3.79,3.79,0,0,1,.38,2.7"/><path class="cls-1" d="M152.77,132.83a4.06,4.06,0,0,0-1.11-1.6,5.84,5.84,0,0,0-1.66-1,17.86,17.86,0,0,0-3.81-.95c-1.22-.23-2.43-.5-3.65-.71a9.88,9.88,0,0,0-3.83-.07,6.58,6.58,0,0,0-2.94,1.57,8.5,8.5,0,0,0-1.94,2.73,11.75,11.75,0,0,0-.92,5.8,7,7,0,0,0,1.45,4.09,6.35,6.35,0,0,0,3,1.8,10.26,10.26,0,0,0,6.06-.09,15.93,15.93,0,0,0,8-6,9,9,0,0,0,1.42-3,4.5,4.5,0,0,0-.1-2.52"/><path class="cls-4" d="M53.14,130.43a5,5,0,0,1,2.85-.26,6.94,6.94,0,0,1,2.64,1.12,17,17,0,0,1,3.92,4.23c2.61,3.59,5.11,7.25,7.39,11.06,1.84,3.09,3.54,6.28,5.67,9.18,1.39,1.89,3,3.65,4.35,5.53a19.12,19.12,0,0,1,3.26,6.2,12.37,12.37,0,0,1-.91,8.9A11.61,11.61,0,0,1,78,181a11.19,11.19,0,0,1-6.15,1.61c-3.41-.13-6.52-1.84-9.69-3.1C55.68,177,48.66,176.17,42,174.17c-2-.62-4.06-1.35-6.12-1.91a19.88,19.88,0,0,1-2.71-.87A4.72,4.72,0,0,1,31,169.6a4.12,4.12,0,0,1-.52-2.12,6.52,6.52,0,0,1,.43-2.14c.5-1.39,1.31-2.63,1.85-4a16.75,16.75,0,0,0,.93-7.07c-.12-2.39-.5-4.77-.67-7.16a12.71,12.71,0,0,1,.1-3.2,4.81,4.81,0,0,1,4-4.11,13.23,13.23,0,0,1,3-.19,26.57,26.57,0,0,0,3,0A6,6,0,0,0,48,136.9a22.63,22.63,0,0,0,1.45-2.41,15.78,15.78,0,0,1,1.53-2.35,5.84,5.84,0,0,1,2.2-1.71"/></svg>