<?xml version="1.0" encoding="utf-8"?>
<!-- Generator: Adobe Illustrator 16.0.4, SVG Export Plug-In . SVG Version: 6.00 Build 0)  -->
<!DOCTYPE svg PUBLIC "-//W3C//DTD SVG 1.1//EN" "http://www.w3.org/Graphics/SVG/1.1/DTD/svg11.dtd">
<svg version="1.1" id="レイヤー_1" xmlns="http://www.w3.org/2000/svg" xmlns:xlink="http://www.w3.org/1999/xlink" x="0px"
	 y="0px" width="269px" height="231.375px" viewBox="25.729 0 269 231.375" enable-background="new 25.729 0 269 231.375"
	 xml:space="preserve">
<g>
	<rect x="83.289" y="16.878" fill="#D3DCDC" width="119.555" height="209.027"/>
</g>
<g>
	<rect x="83.289" y="221.277" fill="#474F5A" width="119.555" height="4.371"/>
</g>
<g>
	<rect x="92.802" y="28.962" fill="#00AFC0" width="13.112" height="20.055"/>
</g>
<g>
	<rect x="114.656" y="28.962" fill="#00AFC0" width="13.112" height="20.055"/>
</g>
<g>
	<rect x="136.51" y="28.962" fill="#00AFC0" width="13.112" height="20.055"/>
</g>
<g>
	<rect x="158.621" y="28.962" fill="#00AFC0" width="13.113" height="20.055"/>
</g>
<g>
	<rect x="180.475" y="28.962" fill="#00AFC0" width="13.113" height="20.055"/>
</g>
<g>
	<rect x="92.802" y="58.786" fill="#00AFC0" width="13.112" height="20.055"/>
</g>
<g>
	<rect x="114.656" y="58.786" fill="#00AFC0" width="13.112" height="20.055"/>
</g>
<g>
	<rect x="136.51" y="58.786" fill="#00AFC0" width="13.112" height="20.055"/>
</g>
<g>
	<rect x="158.621" y="58.786" fill="#00AFC0" width="13.113" height="20.055"/>
</g>
<g>
	<rect x="180.475" y="58.786" fill="#00AFC0" width="13.113" height="20.055"/>
</g>
<g>
	<rect x="92.802" y="88.868" fill="#00AFC0" width="13.112" height="20.054"/>
</g>
<g>
	<rect x="114.656" y="88.868" fill="#00AFC0" width="13.112" height="20.054"/>
</g>
<g>
	<rect x="136.51" y="88.868" fill="#00AFC0" width="13.112" height="20.054"/>
</g>
<g>
	<rect x="158.621" y="88.868" fill="#00AFC0" width="13.113" height="20.054"/>
</g>
<g>
	<rect x="180.475" y="88.868" fill="#00AFC0" width="13.113" height="20.054"/>
</g>
<g>
	<rect x="92.802" y="118.692" fill="#00AFC0" width="13.112" height="20.054"/>
</g>
<g>
	<rect x="114.656" y="118.692" fill="#00AFC0" width="13.112" height="20.054"/>
</g>
<g>
	<rect x="136.51" y="118.692" fill="#00AFC0" width="13.112" height="20.054"/>
</g>
<g>
	<rect x="158.621" y="118.692" fill="#00AFC0" width="13.113" height="20.054"/>
</g>
<g>
	<rect x="180.475" y="118.692" fill="#00AFC0" width="13.113" height="20.054"/>
</g>
<g>
	<rect x="92.802" y="148.773" fill="#00AFC0" width="13.112" height="20.055"/>
</g>
<g>
	<rect x="114.656" y="148.773" fill="#00AFC0" width="13.112" height="20.055"/>
</g>
<g>
	<rect x="136.51" y="148.773" fill="#00AFC0" width="13.112" height="20.055"/>
</g>
<g>
	<rect x="158.621" y="148.773" fill="#00AFC0" width="13.113" height="20.055"/>
</g>
<g>
	<rect x="180.475" y="148.773" fill="#00AFC0" width="13.113" height="20.055"/>
</g>
<g>
	<rect x="92.802" y="178.598" fill="#00AFC0" width="13.112" height="20.055"/>
</g>
<g>
	<rect x="114.656" y="178.598" fill="#00AFC0" width="13.112" height="20.055"/>
</g>
<g>
	<rect x="136.51" y="178.598" fill="#00AFC0" width="13.112" height="20.055"/>
</g>
<g>
	<rect x="158.621" y="178.598" fill="#00AFC0" width="13.113" height="20.055"/>
</g>
<g>
	<rect x="180.475" y="178.598" fill="#00AFC0" width="13.113" height="20.055"/>
</g>
<g>
	<rect x="134.968" y="100.181" fill="#EFF1F3" width="107.47" height="118.525"/>
</g>
<g>
	<rect x="127.511" y="218.706" fill="#B7C3C3" width="122.382" height="7.199"/>
</g>
<g>
	<rect x="164.277" y="187.083" fill="#474F5A" width="48.594" height="31.366"/>
</g>
<g>
	<rect x="144.737" y="111.236" fill="#00AFC0" width="14.655" height="16.454"/>
</g>
<g>
	<rect x="169.162" y="111.236" fill="#00AFC0" width="14.654" height="16.454"/>
</g>
<g>
	<rect x="193.588" y="111.236" fill="#00AFC0" width="14.654" height="16.454"/>
</g>
<g>
	<rect x="218.013" y="111.236" fill="#00AFC0" width="14.655" height="16.454"/>
</g>
<g>
	<rect x="144.737" y="136.176" fill="#00AFC0" width="14.655" height="16.454"/>
</g>
<g>
	<rect x="169.162" y="136.176" fill="#00AFC0" width="14.654" height="16.454"/>
</g>
<g>
	<rect x="193.588" y="136.176" fill="#00AFC0" width="14.654" height="16.454"/>
</g>
<g>
	<rect x="218.013" y="136.176" fill="#00AFC0" width="14.655" height="16.454"/>
</g>
<g>
	<rect x="144.737" y="161.372" fill="#00AFC0" width="14.655" height="16.454"/>
</g>
<g>
	<rect x="169.162" y="161.372" fill="#00AFC0" width="14.654" height="16.454"/>
</g>
<g>
	<rect x="193.588" y="161.372" fill="#00AFC0" width="14.654" height="16.454"/>
</g>
<g>
	<rect x="218.013" y="161.372" fill="#00AFC0" width="14.655" height="16.454"/>
</g>
<g>
	<rect x="97.687" y="3.766" fill="#474F5A" width="91.015" height="13.112"/>
</g>
</svg>
