<svg id="レイヤー_1" data-name="レイヤー 1" xmlns="http://www.w3.org/2000/svg" viewBox="0 0 924 337"><defs><style>.cls-1{fill:#ef6085;}.cls-2{fill:#eda921;}.cls-3{fill:#f8ed00;}.cls-4{fill:#474747;}.cls-5{fill:#fff;}</style></defs><title>アートボード 1</title><circle class="cls-1" cx="462" cy="168.5" r="168.47"/><path class="cls-2" d="M591.57,168.52A129.59,129.59,0,1,1,462,38.93h0A129.58,129.58,0,0,1,591.57,168.52Z"/><path class="cls-3" d="M561.67,171.48A96.72,96.72,0,1,1,465,74.76h0A96.72,96.72,0,0,1,561.67,171.48Z"/><path class="cls-4" d="M890.87,148.76c0,7.77-5,14.79-13.79,14.79-7.9,0-14.29-7-14.29-14.79s6.39-14.8,14.29-14.8C885.85,134,890.87,141,890.87,148.76Zm32.36-.13a46.74,46.74,0,0,1-7.45,26.07,41.31,41.31,0,0,1-19.29,15.66,43.24,43.24,0,0,1-16,3c-1.08,0-2.16-.1-3.23-.19v6a21.44,21.44,0,0,1-2.29,9,22.43,22.43,0,0,1-5.24,6.78,23.48,23.48,0,0,1-15.55,5.87A23.83,23.83,0,0,1,842,217.57a22.3,22.3,0,0,1-8.83-9.52,21.28,21.28,0,0,1-2.12-9.28v-7.63a24.16,24.16,0,0,1-9,1.76,23.48,23.48,0,0,1-12.19-3.4,23.13,23.13,0,0,1-6.34-5.72,22.63,22.63,0,0,1-3.12,3.35,23.76,23.76,0,0,1-27.77,2.37,23.08,23.08,0,0,1-6.4-5.81,22.72,22.72,0,0,1-3.18,3.44,23.35,23.35,0,0,1-31.66-.65c-.22.22-.44.45-.67.65a23.66,23.66,0,0,1-15.58,5.77A23.39,23.39,0,0,1,703.93,190a35.9,35.9,0,0,1-15.1,3.41,42.86,42.86,0,0,1-23.35-6.82,41,41,0,0,1-7.71-6.5,59.4,59.4,0,0,1-60.43,8.71,56.53,56.53,0,0,1-18.4-12.64,57.31,57.31,0,0,1-9.77-13.56v8.23a21.57,21.57,0,0,1-2.12,9.28,22.05,22.05,0,0,1-5.38,7,23.78,23.78,0,0,1-27.78,2.37,22.78,22.78,0,0,1-8.6-9.25,22.44,22.44,0,0,1-1-2.51,42,42,0,0,1-3.09,3.3,45.54,45.54,0,0,1-31.71,12.36,46.22,46.22,0,0,1-24.88-7.05,42.38,42.38,0,0,1-10.37-9.28,41.18,41.18,0,0,1-3.6,4,45.54,45.54,0,0,1-31.71,12.36A46.22,46.22,0,0,1,394,186.35a42.47,42.47,0,0,1-10.16-9,39.65,39.65,0,0,1-16,11.78,45.19,45.19,0,0,1-16.9,3.15H321.12a21.85,21.85,0,0,1-6.81-1.06,20.83,20.83,0,0,1-6.12-3.17A21.54,21.54,0,0,1,304.9,185a22.06,22.06,0,0,1-2.14,2.18A23.61,23.61,0,0,1,275.94,190a35.82,35.82,0,0,1-15.09,3.41,42.86,42.86,0,0,1-23.35-6.82,41.78,41.78,0,0,1-16.05-19.69,49.1,49.1,0,0,1-3.36-18.24c-.8,0-1.49,0-2.12-.06,0,.21-.09.42-.13.67a48.43,48.43,0,0,0-.59,7.32v14.24a21.28,21.28,0,0,1-2.12,9.28,21.91,21.91,0,0,1-5.38,7A23.76,23.76,0,0,1,180,189.5a22.88,22.88,0,0,1-7.95-8.16,45.56,45.56,0,0,1-31.37,12.06,46.18,46.18,0,0,1-24.87-7.05,39.06,39.06,0,0,1-3.73-2.68,58.11,58.11,0,0,1-1,9.38,38.91,38.91,0,0,1-4.13,11.52,31.45,31.45,0,0,1-5.28,7,31.05,31.05,0,0,1-10,6.59A41.4,41.4,0,0,1,75.74,221H72.23A22.83,22.83,0,0,1,60,217.43a22.11,22.11,0,0,1-8.46-9.85,22.4,22.4,0,0,1-1.86-8.94A21.64,21.64,0,0,1,57,182.36a23,23,0,0,1,9-4.89V154.38a24.93,24.93,0,0,1-2.33,1.3,21.05,21.05,0,0,1-8.92,2h-7v12.39a21.93,21.93,0,0,1-2,9.25,23,23,0,0,1-5.21,7.21,23.77,23.77,0,0,1-16.22,6.37A23.9,23.9,0,0,1,2.94,179.5a21.88,21.88,0,0,1-2.17-9.43V99a24.43,24.43,0,0,1,1.68-8.24,21.69,21.69,0,0,1,5.29-7.79,20.69,20.69,0,0,1,5.72-3.78,21.89,21.89,0,0,1,8.89-1.86H62.09A21.45,21.45,0,0,1,71,79.22c.37.17.71.37,1.07.56a25.85,25.85,0,0,1,30.77-2.63A24.26,24.26,0,0,1,108,114a21.93,21.93,0,0,1,1.23,2A43.42,43.42,0,0,1,123.61,107a48.17,48.17,0,0,1,17-3.06,47,47,0,0,1,24.78,6.84,42.31,42.31,0,0,1,6.63,5.09,22.72,22.72,0,0,1,4.55-5.56,23.49,23.49,0,0,1,15.55-5.86,23.88,23.88,0,0,1,11.12,2.77,25.51,25.51,0,0,1,3.79-1.69,27.75,27.75,0,0,1,9.28-1.59,38.7,38.7,0,0,1,6.19.47,25.39,25.39,0,0,1,7.79,2.52,21.35,21.35,0,0,1,5.63,4.25c.11.12.2.26.31.39a41.21,41.21,0,0,1,8.59-4.62,43.47,43.47,0,0,1,16-3c1,0,2.12.08,3.24.2V94.31a21.43,21.43,0,0,1,2.28-9,22.3,22.3,0,0,1,5.25-6.78,23.47,23.47,0,0,1,15.54-5.87,23.86,23.86,0,0,1,12.14,3.28,22.61,22.61,0,0,1,7.31,6.89,20.72,20.72,0,0,1,5.61-3.68,21.89,21.89,0,0,1,8.89-1.86h27.33a45.3,45.3,0,0,1,17.1,3.18,36.24,36.24,0,0,1,14,10,35.24,35.24,0,0,1,6,9.91,40.86,40.86,0,0,1,2.82,14.84A43.5,43.5,0,0,1,401.82,107,48.22,48.22,0,0,1,418.88,104a47,47,0,0,1,24.77,6.84,42.45,42.45,0,0,1,10.53,9.23,43.09,43.09,0,0,1,18.2-13A48.22,48.22,0,0,1,489.44,104a47,47,0,0,1,24.77,6.84c.9.56,1.79,1.15,2.65,1.77a20.68,20.68,0,0,1,6.14-5v-3.88a21.59,21.59,0,0,1,2.29-9,22.43,22.43,0,0,1,5.24-6.78,23.51,23.51,0,0,1,15.55-5.87,23.86,23.86,0,0,1,12.14,3.28,22.42,22.42,0,0,1,8.83,9.52,21.57,21.57,0,0,1,2.12,9.28v2.53l.21.09c.81-1.54,1.67-3,2.61-4.5a56.82,56.82,0,0,1,25.35-21.36A59.25,59.25,0,0,1,660.44,92h0l0,0,.21.19h0a20.4,20.4,0,0,1,5,7.56,22.38,22.38,0,0,1,1.41,7.9c0,.74-.05,1.46-.11,2.18a40.48,40.48,0,0,1,5.88-2.88,43.47,43.47,0,0,1,16-3,34.8,34.8,0,0,1,4.63.35,37.76,37.76,0,0,1,5.31,1.17,37.11,37.11,0,0,1,5.05,1.92,23.47,23.47,0,0,1,11.34-2.93,23.85,23.85,0,0,1,12.13,3.28,22.94,22.94,0,0,1,4.08,3.13c.19-.18.37-.37.57-.55a23.47,23.47,0,0,1,15.55-5.86A23.77,23.77,0,0,1,758.12,107a31.59,31.59,0,0,1,13.43-3,44.49,44.49,0,0,1,10.5,1.17,32.9,32.9,0,0,1,8.81,3.57A34,34,0,0,1,801,104.63a31.83,31.83,0,0,1,6.88-.77,39.15,39.15,0,0,1,16.48,3.43,33.39,33.39,0,0,1,10.29,7.42,22.28,22.28,0,0,1,3.89-4.45,23.63,23.63,0,0,1,26.87-2.84,38.18,38.18,0,0,1,8.72-2.8,34.25,34.25,0,0,1,6.31-.64,43,43,0,0,1,23.32,6.76,41.62,41.62,0,0,1,16.08,19.64A49.08,49.08,0,0,1,923.23,148.63ZM69.61,99.74c0-4.51-3.39-8.14-7.52-8.14H22.35c-4.64,0-7.14,3.51-7.27,7.77v70.7c0,4.51,4.39,8.52,9.15,8.52,5,0,9.15-3.89,9.15-8.52v-26.7H54.69c4,0,7.52-3.76,7.52-7.9a7.71,7.71,0,0,0-7.52-7.9H33.38v-19.8H62.09A8.18,8.18,0,0,0,69.61,99.74ZM97.8,126.57c0-4.39-4-7.77-8.78-7.77s-8.64,3.51-8.77,7.77v55c0,4.13-1.25,9.27-7.65,9.27h-.37C67.84,191,64,194,64,198.64a8.07,8.07,0,0,0,8.28,8h3.51c16.54,0,22.06-9.91,22.06-25.45Zm2.13-28.83c0-5.77-4.76-10.15-10.78-10.15S78.24,92,78.24,97.74,83.26,108,89.15,108,99.93,103.51,99.93,97.74ZM171.5,148.5c0-18.42-13.79-30.2-30.84-30.2S110,130.08,110,148.5s13.67,30.59,30.71,30.59S171.5,166.93,171.5,148.5Zm44.86-30.2c-6,0-12.16,3.76-15.42,14.66v-6.39c0-4.39-4-7.77-8.77-7.77s-8.65,3.51-8.77,7.77v44.25c.12,4.26,4.13,7.77,8.77,7.77s8.77-3.39,8.77-7.77V156.4c.25-14.66,3.51-22.18,13.29-22.18,1.13,0,3,.12,4.26.12,3.89,0,8-2,8.65-6.39C228.27,119.67,222.13,118.3,216.36,118.3ZM296,94.73c0-4.39-4-7.77-8.78-7.77s-8.64,3.51-8.77,7.77v33c-5-7.77-13.79-9.4-17.55-9.4-14.91,0-28.45,10.9-28.45,30.33s13.54,30.46,28.45,30.46c6.65,0,13.79-3.26,17.55-9.4v1.13c.13,4.26,4.14,7.77,8.77,7.77s8.78-3.39,8.78-7.77Zm82.58,56.78a21,21,0,0,0-16.29-19.68c8.89-3.38,11.78-10.53,11.78-16.17,0-14.79-10-24.06-25.57-24.06H321.12c-4.64,0-7.14,3.51-7.27,7.77v70.82c0,4.14,2.63,7.77,7.27,7.77H351C368.13,178,378.53,165.8,378.53,151.51Zm71.18-3c0-18.42-13.78-30.2-30.83-30.2s-30.71,11.78-30.71,30.2,13.66,30.59,30.71,30.59S449.71,166.93,449.71,148.5Zm70.56,0c0-18.42-13.78-30.2-30.83-30.2s-30.71,11.78-30.71,30.2,13.66,30.59,30.71,30.59S520.27,166.93,520.27,148.5Zm47.5-22.18c0-3.76-2.76-6.9-6.27-6.9h-6.64V104.13c0-4.39-4-7.77-8.78-7.77s-8.65,3.51-8.77,7.77v15.29h-4.77c-3.5,0-6.26,3.14-6.26,6.9a6.76,6.76,0,0,0,6.26,6.89h4.77v37.61c.12,4.26,4.13,7.77,8.77,7.77s8.78-3.39,8.78-7.77V133.21h6.64A6.76,6.76,0,0,0,567.77,126.32ZM649.61,115c3.51-3.14,4.39-9.53,1.13-12.54a43.47,43.47,0,0,0-30.59-11.91,42.69,42.69,0,0,0-40,26.81,22,22,0,0,1,1.92,8.92,21.44,21.44,0,0,1-3.18,11.24,21.19,21.19,0,0,1-1.82,2.52c2.44,22.06,20.16,39,43.07,39,12.29,0,22.94-4.51,30.59-11.91,3.26-3,2.38-9.4-1.13-12.53a9.1,9.1,0,0,0-11.78-.13,25.39,25.39,0,0,1-17.68,6.77c-14.28,0-25.06-11.78-25.06-26.45s10.78-26.45,25.06-26.45a25.39,25.39,0,0,1,17.68,6.77A9.11,9.11,0,0,0,649.61,115Zm-6,16.53a23,23,0,0,1-15.21-5.67l-.37-.33a9.88,9.88,0,0,0-3.26-2,12.64,12.64,0,0,0-4.59-.82,10.18,10.18,0,0,0-4.16.86,10,10,0,0,0-3.29,2.35,12.87,12.87,0,0,0-3.3,8.93,13.44,13.44,0,0,0,2,7.21,10.53,10.53,0,0,0,4.62,4.08,10.35,10.35,0,0,0,4.16.85,12.65,12.65,0,0,0,4.59-.81,10,10,0,0,0,3.26-2l.37-.34a23,23,0,0,1,18.71-5.39,46.26,46.26,0,0,1,2.19-7.52A24,24,0,0,1,643.58,131.57Zm80.35-5c0-4.39-4-7.77-8.77-7.77s-8.65,3.51-8.78,7.77v1.13c-5-7.77-13.79-9.4-17.55-9.4-14.91,0-28.45,10.9-28.45,30.33s13.54,30.46,28.45,30.46c6.65,0,13.79-3.26,17.55-9.4v1.13c.13,4.26,4.14,7.77,8.78,7.77s8.77-3.39,8.77-7.77Zm106.91,18.17c-.12-17.67-9-26.57-22.94-26.57a18.87,18.87,0,0,0-17,11.16c-3.89-8-10-11-19.31-11A16.74,16.74,0,0,0,756.26,128v-1.38c0-4.39-4-7.77-8.77-7.77s-8.65,3.51-8.78,7.77v44.25c.13,4.26,4.14,7.77,8.78,7.77s8.77-3.39,8.77-7.77V147c0-8.9,4.89-11.91,10.15-11.91,5,0,9.65,3.89,9.65,11.28v24.45c.13,4.26,4.14,7.77,8.78,7.77s8.77-3.39,8.77-7.77V147c0-8.52,4.39-11.91,9.91-11.91,5.13,0,9.77,4,9.77,11.66v24.07c.13,4.26,4.14,7.77,8.78,7.77s8.77-3.39,8.77-7.77Zm78.08,3.89c0-19.43-13.54-30.33-28.46-30.33-3.76,0-12.53,1.63-17.55,9.4v-1.13c-.12-4.26-4.13-7.77-8.77-7.77s-8.77,3.38-8.77,7.77v72.2c0,4.39,4,7.77,8.77,7.77s8.65-3.51,8.77-7.77V169.69c3.77,6.14,10.91,9.4,17.55,9.4C895.38,179.09,908.92,168.06,908.92,148.63ZM692.22,134c-8.78,0-13.79,7-13.79,14.8s5,14.79,13.79,14.79c7.9,0,14.29-7,14.29-14.79S700.12,134,692.22,134ZM502.72,148.5c0,8-6,13.67-13.28,13.67s-13.16-5.64-13.16-13.67a13.22,13.22,0,1,1,26.44,0Zm-13.65-.18-.18-.26.17.26Zm-56.9.18a13.23,13.23,0,0,1-13.29,13.67c-7.15,0-13.16-5.64-13.16-13.67a13.23,13.23,0,1,1,26.45,0Zm-13.66-.18-.18-.26.18.26Zm-68.93-7.71h-17.3v21.18H350c6.14,0,9.28-5.64,9.28-10.78C359.23,146.12,356.09,140.61,349.58,140.61Zm5.13-23.69c0-5.39-2.75-9.15-8.14-9.15H332.28v18.3h14.41C351.46,126.07,354.71,122.06,354.71,116.92Zm-214,18.3A13,13,0,0,0,127.5,148.5c0,8,6,13.67,13.16,13.67A13.23,13.23,0,0,0,154,148.5,13,13,0,0,0,140.66,135.22ZM264.24,134c-8.78,0-13.79,7-13.79,14.8s5,14.79,13.79,14.79c7.89,0,14.29-7,14.29-14.79S272.13,134,264.24,134Zm437,84.39a2.05,2.05,0,1,0,0,4.1,2.05,2.05,0,1,0,0-4.1Zm12.12-3.15a13.24,13.24,0,0,1-3.94,15.49c-.09.56-.19,1.14-.3,1.73a40.75,40.75,0,0,1-1.68,5.94,39.46,39.46,0,0,1-8.18,13.49,37.83,37.83,0,0,1-8.49,6.68,44.26,44.26,0,0,1-8.11,3.67,35.48,35.48,0,0,1-4.47,1.22,21.73,21.73,0,0,1-2.24.35c-.48,0-.9.06-1.35.07a11.52,11.52,0,0,1-4.6-1,11.36,11.36,0,0,1-3.61-2.52,12.23,12.23,0,0,1-2.68-4.39,13.09,13.09,0,0,1-.69-2.84,11.78,11.78,0,0,1-.1-1.56,11.27,11.27,0,0,1,.81-4.24,10.5,10.5,0,0,1,2.6-3.77,11.67,11.67,0,0,1,2-1.48,13.69,13.69,0,0,1,2.24-1c.84-.31,1.58-.5,2.12-.65a22.72,22.72,0,0,0,8.18-3.78H669.53a11.62,11.62,0,0,1-1.31-.13,14.23,14.23,0,0,1-1.77-.38l-.3.66a48.28,48.28,0,0,1-7.42,11.76,39.49,39.49,0,0,1-11.23,8.9,47.08,47.08,0,0,1-9.32,3.65l-.1,0c-1.53.41-3.81,1-6,1.35-.81.14-1.49.23-2.14.29s-1,.07-1.44.07a11.82,11.82,0,0,1-4.93-1.05,11.21,11.21,0,0,1-3.91-2.94,12.48,12.48,0,0,1-1.54-2.3,12.85,12.85,0,0,1-1.05-2.84,14,14,0,0,1-.38-3.23v-.09a19.85,19.85,0,0,1-3.38,2.77,13,13,0,0,1-3.41,1.57c0,.2-.06.39-.09.59a11.16,11.16,0,0,1-1.18,3.26,10.51,10.51,0,0,1-1.73,2.34,10.76,10.76,0,0,1-3.48,2.39,12.84,12.84,0,0,1-5.09,1,12.5,12.5,0,0,1-4.15-.69,10.94,10.94,0,0,1-3.89-2.39,10.81,10.81,0,0,1-1.75-2.17,11.23,11.23,0,0,1-1.2-2.71,13.62,13.62,0,0,1-.5-2.57l-.74-7.33c-.37,0-.73-.11-1.08-.19a7.47,7.47,0,0,1-.59.77,10.57,10.57,0,0,1-2.06,1.89,11.46,11.46,0,0,1-2.94,1.49A12.62,12.62,0,0,1,576,251l-3.54.21,0,.54c0,.27,0,.67,0,1.18a12.91,12.91,0,0,1-.24,2.51,11,11,0,0,1-1.36,3.55,10.65,10.65,0,0,1-2,2.4,11,11,0,0,1-3.6,2.15,13.73,13.73,0,0,1-4.82.8,13.32,13.32,0,0,1-4.38-.68,11,11,0,0,1-4.33-2.71,10.45,10.45,0,0,1-1.86-2.6,11.52,11.52,0,0,1-1-3,14.64,14.64,0,0,1-.25-2.07v-.13l0-.48-4.16.26c-.29,0-.59,0-.88,0a12.42,12.42,0,0,1-4.13-.68,11,11,0,0,1-3.71-2.2,11.6,11.6,0,0,1-4.74,1,12.16,12.16,0,0,1-2.49-.26,13.6,13.6,0,0,1-2.23-.69,20.36,20.36,0,0,1-3-1.56l-.33-.2v4a18.26,18.26,0,0,1-.11,1.86,12,12,0,0,1-.89,3.33,10.77,10.77,0,0,1-5.42,5.53,13.17,13.17,0,0,1-5.6,1.16,13.9,13.9,0,0,1-4.57-.73,10.82,10.82,0,0,1-6.27-5.48,11.67,11.67,0,0,1-1-3.19,15.25,15.25,0,0,1-.19-2.53v-4.73a12.49,12.49,0,0,1-2.67.74,15.2,15.2,0,0,1-2.47.17H462.86a15.22,15.22,0,0,1-1.67-.08,12.38,12.38,0,0,1-3.24-.77,10.94,10.94,0,0,1-2.72-1.52,9.19,9.19,0,0,1-.76-.64,37.17,37.17,0,0,1-4.76,6.28,38,38,0,0,1-8.48,6.63,44.51,44.51,0,0,1-8.1,3.68,37.39,37.39,0,0,1-4.47,1.23,22.05,22.05,0,0,1-2.26.35,12.78,12.78,0,0,1-1.36.07,11.62,11.62,0,0,1-4.58-.94,11.51,11.51,0,0,1-5.14-4.43,12,12,0,0,1-1.2-2.44,13.11,13.11,0,0,1-.7-2.84,12.15,12.15,0,0,1-.1-1.57,11.26,11.26,0,0,1,.31-2.73,11,11,0,0,1-1.16.76,11.53,11.53,0,0,1-5.7,1.51,12.16,12.16,0,0,1-2.49-.26,13.6,13.6,0,0,1-2.23-.69,19.38,19.38,0,0,1-3-1.56l-.33-.2v4a18.11,18.11,0,0,1-.11,1.86,12,12,0,0,1-.89,3.33,10.77,10.77,0,0,1-5.42,5.53,13.17,13.17,0,0,1-5.6,1.16,13.9,13.9,0,0,1-4.57-.73,10.82,10.82,0,0,1-6.27-5.48,11.67,11.67,0,0,1-1-3.19l-.07-.47a29.34,29.34,0,0,1-3.53,3.13,30.19,30.19,0,0,1-7.3,4.08,24.41,24.41,0,0,1-4.68,1.3,17.72,17.72,0,0,1-2.74.24,13.7,13.7,0,0,1-4.69-.79,11.57,11.57,0,0,1-4.22-2.66l-.09-.09c-.22.23-.45.44-.67.64a13.22,13.22,0,0,1-3.23,2.18,10.79,10.79,0,0,1-2.56.83,12.17,12.17,0,0,1-2.19.19,12.48,12.48,0,0,1-4.72-1,13.06,13.06,0,0,1-4-2.59,13.16,13.16,0,0,1-3.92,1.7,17.68,17.68,0,0,1-4.48.51H297.66a13.61,13.61,0,0,1-2.65-.26,11.87,11.87,0,0,1-3.28-1.17,11,11,0,0,1-2.32-1.67A10.79,10.79,0,0,1,287,255.6a11.4,11.4,0,0,1-.71-2,12.41,12.41,0,0,1-.35,2.39,11.19,11.19,0,0,1-1.64,3.63,10.56,10.56,0,0,1-2,2.18,11.23,11.23,0,0,1-3.36,1.85,13,13,0,0,1-4.26.67,13.78,13.78,0,0,1-2.85-.28,11.58,11.58,0,0,1-3.45-1.31,10.61,10.61,0,0,1-4.54-5.23,12.15,12.15,0,0,1-.87-4.63v-1.54l-.58.11a15.39,15.39,0,0,1-2.28.2,11.41,11.41,0,0,1-4.92-1.12,11.15,11.15,0,0,1-2.65-1.82,37.88,37.88,0,0,1-9,8.14,43.75,43.75,0,0,1-11,5.15c-.33.11-.95.3-1.7.5a23.5,23.5,0,0,1-2.74.59,15.22,15.22,0,0,1-2.5.2,11.57,11.57,0,0,1-4.62-.95,11.26,11.26,0,0,1-3.66-2.56,12.4,12.4,0,0,1-1.51-2,12.62,12.62,0,0,1-1.16-2.46,13.85,13.85,0,0,1-.64-2.78,12.63,12.63,0,0,1-.09-1.48,11.25,11.25,0,0,1,.82-4.28,10.31,10.31,0,0,1,2.64-3.77,11.13,11.13,0,0,1,2-1.47,13.93,13.93,0,0,1,2.2-1c.75-.27,1.39-.45,1.92-.59l.12,0a23.75,23.75,0,0,0,7.73-3.5,16.29,16.29,0,0,0,1.31-1.06H221.32l-.7,0c-.45,0-.88-.06-1.32-.12a11.5,11.5,0,0,1-3.87-1.25,10.71,10.71,0,0,1-3-2.36,11.23,11.23,0,0,1-2.54-5,13,13,0,0,1-.33-3,12.77,12.77,0,0,1,.9-4.85,11,11,0,0,1,3.07-4.27,10.68,10.68,0,0,1,2.59-1.63A11.85,11.85,0,0,1,219,212a14,14,0,0,1,2.31-.17h26.48a15.57,15.57,0,0,1,5.11.78,12,12,0,0,1,4.74,2.93,11.59,11.59,0,0,1,2.05,2.86,12.38,12.38,0,0,1,1.12,3.47,16.23,16.23,0,0,1,.2,2.64v.61c0,.14,0,.31,0,.52,0,.49-.08,1-.14,1.57,0,.21-.05.43-.07.64.81-.28,1.69-.6,2.62-1a49.21,49.21,0,0,0,8.51-4.44l.55-.37.66-.51c.56-.45,1.41-1.16,2.83-2.34l1.09-.92a13.16,13.16,0,0,1,2.56-1.69,10.94,10.94,0,0,1,4.77-1.12,11.85,11.85,0,0,1,3.54.56l.39.13a10.82,10.82,0,0,1,3.49-3.26,11,11,0,0,1,2.83-1.16,12.74,12.74,0,0,1,2.63-.39c.32,0,.58,0,.74,0h23.77a18.25,18.25,0,0,1,4.39.5,13.09,13.09,0,0,1,4.64,2.15,12,12,0,0,1,2.6,2.63l.08.11a11.11,11.11,0,0,1,.61-1.25,10.69,10.69,0,0,1,5.46-4.63,13.11,13.11,0,0,1,4.78-.84,14,14,0,0,1,3,.3,12.44,12.44,0,0,1,2.31.73,11.72,11.72,0,0,1,1.73-.78,13.47,13.47,0,0,1,4.49-.73,14.3,14.3,0,0,1,2.91.28,11.56,11.56,0,0,1,3.51,1.31,10.69,10.69,0,0,1,4.59,5.32,12.3,12.3,0,0,1,.83,4.54v4.63a8.52,8.52,0,0,1,1-.23,11.76,11.76,0,0,1,2.17-.19,13.76,13.76,0,0,1,1.4.08,13.09,13.09,0,0,1,1.6.28c.22,0,.48.11.76.2v-5a14.55,14.55,0,0,1,.11-1.91,12,12,0,0,1,1-3.42,10.92,10.92,0,0,1,5.66-5.52,12.2,12.2,0,0,1,2.51-.77,14.66,14.66,0,0,1,2.78-.26,13.65,13.65,0,0,1,4.57.73,11.27,11.27,0,0,1,4.25,2.66,8.81,8.81,0,0,1,1.36-.83,10,10,0,0,1,1.95-.75,10.79,10.79,0,0,1,1.9-.34,9.1,9.1,0,0,1,.91,0c.33,0,.67,0,1,0s.55-.21.85-.3a10.25,10.25,0,0,1,2-.42,8.47,8.47,0,0,1,1.13-.07A9.51,9.51,0,0,1,413,212a9.75,9.75,0,0,1,1.3,1.41,11,11,0,0,1,.63.92l.27-.13a11.35,11.35,0,0,1,2.94-.93,13.22,13.22,0,0,1,2.47-.21h18.71l.16-.34a9.57,9.57,0,0,1,2.46-3.16,10.25,10.25,0,0,1,1.73-1.16,11,11,0,0,1,1.93-.78,10.51,10.51,0,0,1,1.95-.38c.36,0,.66-.05,1-.05a9.78,9.78,0,0,1,2,.21l.17,0a10,10,0,0,1,1.89-.34c.32,0,.59,0,.9-.05h0a9.7,9.7,0,0,1,3.19.53,9.38,9.38,0,0,1,3.21,1.86,10,10,0,0,1,1.39,1.51,11.37,11.37,0,0,1,1,1.65c.3.59.5,1.09.67,1.51l.05.13c.21.55.38,1.05.54,1.52s.4,1.23.62,2.07a18.05,18.05,0,0,1,.35,1.82,12.44,12.44,0,0,1,.1,1.49,9.8,9.8,0,0,1-.25,2.24,9.46,9.46,0,0,1-.43,1.4h29.76a15.67,15.67,0,0,1,1.68.08,12.66,12.66,0,0,1,3.23.77l.16.07v-4.86a14.61,14.61,0,0,1,.11-1.92,11.81,11.81,0,0,1,1-3.42,10.85,10.85,0,0,1,1.75-2.71,11.17,11.17,0,0,1,3.9-2.81,12.2,12.2,0,0,1,2.51-.77,14.66,14.66,0,0,1,2.78-.26,13.65,13.65,0,0,1,4.57.73,11.33,11.33,0,0,1,4.37,2.78A11,11,0,0,1,521.7,215a11.8,11.8,0,0,1,1,3.17,15.9,15.9,0,0,1,.21,2.6v1.1c3.07,1.15,6.2,2.47,9.32,3.95l1,.49a11.84,11.84,0,0,1,.44-2,11.06,11.06,0,0,1,2-3.66,10.8,10.8,0,0,1,2-1.89,11.12,11.12,0,0,1,2.91-1.55,12.86,12.86,0,0,1,3.59-.74l3-.18a10.62,10.62,0,0,1,1.19-2.47,10.8,10.8,0,0,1,2-2.32,11.13,11.13,0,0,1,3.52-2,13.94,13.94,0,0,1,4.59-.72,15.63,15.63,0,0,1,2.28.14,11.31,11.31,0,0,1,3.49,1,10.85,10.85,0,0,1,2.65,1.82,10.71,10.71,0,0,1,2.26,3.13l2.88-.18c.31,0,.63,0,1,0a12.05,12.05,0,0,1,4.56.86,10.84,10.84,0,0,1,4,2.76,10.66,10.66,0,0,1,1.63,2.34,11.78,11.78,0,0,1,1,2.83c0,.22.09.44.13.66l.13,0c0-.19.09-.38.14-.57a11.08,11.08,0,0,1,1.76-3.6,10.63,10.63,0,0,1,2-2.08,11.18,11.18,0,0,1,3.29-1.75,13.35,13.35,0,0,1,4.26-.66,12.34,12.34,0,0,1,4.13.68,10.76,10.76,0,0,1,3.94,2.44,10.55,10.55,0,0,1,1.73,2.24,12.29,12.29,0,0,1,.59,1.14l4.09-.34c.6,0,1.16-.08,1.71-.08a15,15,0,0,1,3.14.31l.27.06a12.21,12.21,0,0,1,1.46-4.7,12.61,12.61,0,0,1,3.47-4,12.19,12.19,0,0,1,3.32-1.77,10.91,10.91,0,0,1,3.52-.57h0a11.08,11.08,0,0,1,2.34.27c.49.12,1,.25,1.49.43.91.32,1.7.66,2.29.93,1.27.58,2.44,1.2,3.21,1.61l.09,0c2.1,1.1,3.7,2,5,2.78a25,25,0,0,1,3.69,2.62,13.9,13.9,0,0,1,1.48,1.5l.15-.27a10.89,10.89,0,0,1,1.1-1.71,10.1,10.1,0,0,1,2.69-2.41,9.54,9.54,0,0,1,1.93-.93,10.49,10.49,0,0,1,2-.5,12.69,12.69,0,0,1,1.92-.13c.21,0,.62,0,1.13,0a12,12,0,0,1,2.22.39,14.78,14.78,0,0,1,1.88.65l.33-.3a10.73,10.73,0,0,1,2.58-1.66,11.72,11.72,0,0,1,3-.92,14.6,14.6,0,0,1,2.4-.19h20.06l.07-.11a13.2,13.2,0,0,1,10.93-5.75,13.12,13.12,0,0,1,12.07,7.95Zm-460.68,9.41c0-1.6-.09-4.45-4.88-4.45H221.35c-1,0-3.45.09-3.45,3.45a3,3,0,0,0,3.45,3.37h22.43c.51,0,1.12,0,1.12,1a23.43,23.43,0,0,1-2.29,7.73c-2.71,5.69-8.58,10-16.78,12.2-2,.56-3.58,1-3.58,3.11,0,1.08.61,3.88,3.37,3.88A17,17,0,0,0,230,254,31.88,31.88,0,0,0,247.1,241.9,36.16,36.16,0,0,0,252.71,224.61Zm33.93,5.22a3.08,3.08,0,0,0,1.33-2.51,3.67,3.67,0,0,0-3.58-3.49,3,3,0,0,0-2,.91,58.62,58.62,0,0,1-5.91,4.7A60.46,60.46,0,0,1,259.33,237c-1,.3-2.37.69-2.37,2.67,0,1.21.69,3.58,3.11,3.58,1.9,0,7.16-1.94,11.17-3.79v13.37c0,2.37,1.42,3.1,3.36,3.1,2.46,0,3.32-1.25,3.32-3.1V236A55.13,55.13,0,0,0,286.64,229.83Zm1.95,12.89a10.89,10.89,0,0,1-1.24-2.87l-1.08.72v6.64a11.46,11.46,0,0,1,.46-1.4A11.21,11.21,0,0,1,288.59,242.72Zm39.05-17.12c0-4.06-1.55-5.91-5.86-5.91H298c-.82,0-3.32,0-3.32,3.28A2.94,2.94,0,0,0,298,226.2h21.22a1.3,1.3,0,0,1,1.43,1.47v5.56H298.49c-.74,0-3.24,0-3.24,3.24a2.87,2.87,0,0,0,3.24,3.15h22.17v6a1.26,1.26,0,0,1-1.43,1.42H297.67c-2.33,0-3.45,1.29-3.45,3.36,0,2.72,1.9,3.32,3.45,3.32h24.11c3.58,0,5.86-1.16,5.86-5.9Zm20.24-4.1c0-2.28-1.26-3.15-3.54-3.15-2.93,0-3.41,1.64-3.41,3.15v9.06c0,11.39-.69,13.46-4.79,18.16-1.12,1.29-1.29,2-1.29,2.67,0,2.29,2.29,3.71,4,3.71.74,0,1.77,0,4-2.85,4.53-5.82,5-12.07,5-21.39Zm26.87,15.1c0-2.68-3.07-3.06-3.84-3.06-2,0-2.46,1.2-3.15,3.36-2,6.12-6.21,9.53-7.89,9.53-.48,0-.48-.47-.48-1V221c0-2.33-1.34-3.1-3.49-3.1-2.76,0-3.41,1.42-3.41,3.1v29.68c0,1,0,4.14,4.05,4.14,3.24,0,10.27-2.63,14.58-9.1C372.89,243.07,374.75,238.71,374.75,236.6Zm30.18-17.34a2.76,2.76,0,0,0,.08.78c.09.25.65,1.59.73,1.94.87,2.84.95,3.14,2,3.14.13,0,1.68,0,1.68-1.51a14.21,14.21,0,0,0-1.08-3.92c-.52-1.25-.9-1.81-1.72-1.81C406.22,217.88,404.93,218.09,404.93,219.26Zm-5,.73a2.61,2.61,0,0,0,.13.82c.09.26.56,1.55.65,1.9.17.56.47,1.51.65,2.07.34,1,.9,1.12,1.38,1.12a1.52,1.52,0,0,0,1.63-1.51,15.42,15.42,0,0,0-1-4c-.48-1.2-.91-1.81-1.73-1.81C401.3,218.61,399.92,218.74,399.92,220Zm10.48,18.46c0-1.72-.82-2.54-3.62-4a107.51,107.51,0,0,0-16.39-6.64v-7.07c0-1.38-.17-3.58-3.71-3.58s-3.67,2.37-3.67,3.58v31.57c0,1.38.13,3.58,3.71,3.58s3.67-2.33,3.67-3.58V235.09a72.63,72.63,0,0,1,12.94,6.3,6.52,6.52,0,0,0,3.45,1.33C409.11,242.72,410.4,240.31,410.4,238.45ZM421.05,241c.76-.27,1.42-.45,2-.6l.09,0a22.83,22.83,0,0,0,8.26-3.83H419.9c-.44,0-.87-.06-1.31-.12h0a12.54,12.54,0,0,1,.17,2.06,13.11,13.11,0,0,1-.63,4c.23-.15.46-.29.71-.43A14,14,0,0,1,421.05,241Zm30.76-13.66a5.13,5.13,0,0,0-2.11-4.65c1.16,0,1.64-.65,1.64-1.51a13.93,13.93,0,0,0-1-3.84c-.52-1.3-.9-1.81-1.72-1.81-.35,0-1.69.17-1.69,1.38a2.42,2.42,0,0,0,.18,1,16.64,16.64,0,0,1,.69,2c.08.26.64,2,.69,2.16a12.57,12.57,0,0,0-3.84-.61h-24c-1.08,0-3.45.17-3.45,3.45a3,3,0,0,0,3.45,3.37h22.43c.51,0,1.16,0,1.16,1a17.38,17.38,0,0,1-1,4.32c-1.16,3.36-4.14,11.17-17.9,14.88-2.07.56-3.62,1-3.62,3.1,0,1.12.69,3.88,3.41,3.88,2.37,0,12-2.46,18.59-9.36C449.83,239.53,451.81,230.69,451.81,227.32Zm4.57-6.29a15.48,15.48,0,0,0-1.08-4c-.47-1.21-.81-1.77-1.72-1.77-.3,0-1.68.13-1.68,1.38a2.21,2.21,0,0,0,.13.73c.08.31.6,1.64.69,1.95s.56,1.94.69,2.28a1.36,1.36,0,0,0,1.29.91C454.83,222.54,456.38,222.54,456.38,221Zm41.15,15.52c0-3.53-2.71-3.53-3.79-3.53h-30.8c-1.51,0-3.8.21-3.8,3.62s2.72,3.54,3.8,3.54h30.8C495.12,240.18,497.53,240.05,497.53,236.55Zm37.08,1.9c0-1.72-.82-2.54-3.62-4a107.51,107.51,0,0,0-16.39-6.64v-7.07c0-1.38-.17-3.58-3.71-3.58s-3.67,2.37-3.67,3.58v31.57c0,1.38.13,3.58,3.71,3.58s3.67-2.33,3.67-3.58V235.09a72.63,72.63,0,0,1,12.94,6.3,6.52,6.52,0,0,0,3.45,1.33C533.32,242.72,534.61,240.31,534.61,238.45Zm44.09,1c0-1.38-.52-3.45-3.58-3.27l-12,.69-.44-6.69,10.27-.69c1.9-.13,3.19-1.08,3.19-3.19,0-1.21-.43-3.45-3.58-3.24l-10.31.65-.21-3.32c-.18-2.93-1.6-3.23-3.58-3.23-3.37,0-3.71,1.89-3.58,3.66l.21,3.37-10.39.64c-1.9.13-3.19,1.08-3.19,3.19,0,1.34.56,3.5,3.62,3.28l10.39-.69.44,6.69-12.43.77c-1.81.13-3.19,1-3.19,3.2,0,1.72.78,3.49,3.58,3.32l12.47-.78.56,8.8c.08,1.42.21,3.41,3.53,3.41,3.84,0,3.71-2.42,3.63-3.8l-.56-8.84,11.94-.69C577.27,242.59,578.7,241.73,578.7,239.44Zm37.43-5.9c0-3.11-2-3.89-5-3.63l-11.69,1-.43-4.22c-.13-1.21-.48-2.89-3.06-2.89-2.81,0-3.63,1.59-3.41,3.58l.43,4.09-5.18.48c-1.29.13-3,.52-3,3a3.31,3.31,0,0,0,1.16,2.72,3.38,3.38,0,0,0,2.46.47l5.13-.52,1.56,15.27c.12,1.3.6,3,3.19,3,3.53,0,3.4-2.72,3.32-3.62l-1.55-15.36,7.93-.82c.48,0,.65,0,.65.22a9.22,9.22,0,0,1-2.93,4.14c-1.86,1.6-2.38,2.07-2.38,3.23a3.38,3.38,0,0,0,3.32,3.11C610.35,246.82,616.13,238.37,616.13,233.54ZM623.85,223c0,1.81,1.42,2.54,2.59,3.15,1.68.9,5.26,2.89,7.89,4.7,1.85,1.29,2.46,1.46,3.28,1.46,2.07,0,3.58-2.58,3.58-4,0-1.64-.61-2.71-8.33-6.73-1.46-.77-4.4-2.32-5.56-2.32a2.43,2.43,0,0,0-.82.13A4,4,0,0,0,623.85,223ZM625,239.3a18.3,18.3,0,0,1,2.75-.54c1-.13,1.88-.27,2.74-.44l-.94-.63c-.94-.65-2.28-1.49-3.76-2.35-.49-.28-1-.55-1.39-.79a18,18,0,0,1-.66,3.69c-.16.57-.34,1.13-.55,1.7A12.38,12.38,0,0,1,625,239.3Zm35.64-12.67c0-2-1.55-2.71-2.8-3.06a4.33,4.33,0,0,0-1.17-.13c-1.94,0-2.24.87-3.19,3.63-5,14.32-13.63,18.54-24.67,20-2.28.3-3.84.82-3.84,3.4,0,1.51.69,4,3.5,4a39.54,39.54,0,0,0,7.41-1.42,32.63,32.63,0,0,0,16.52-10C657.75,236.94,660.68,228.66,660.68,226.63Zm45.42-6.29a4.77,4.77,0,0,0-4.79-4.75,4.86,4.86,0,0,0-4.87,4.83,6.32,6.32,0,0,0,.17,1.25,18.21,18.21,0,0,0-2.54-.21H670.26c-1.08,0-3.45.13-3.45,3.45a3,3,0,0,0,3.45,3.36H692.6c.52,0,1.12,0,1.12,1a15.46,15.46,0,0,1-1,4.31c-1.25,3.71-4.4,11.22-17.81,14.84-2.12.56-3.63,1.08-3.63,3.1,0,1.17.69,3.93,3.37,3.93,2.33,0,12-2.42,18.55-9.36,6.25-6.64,8.15-15.48,8.15-18.68a9.08,9.08,0,0,0-.26-2.24A4.87,4.87,0,0,0,706.1,220.34Z"/><path class="cls-5" d="M327.64,225.6v22.26c0,4.74-2.28,5.9-5.86,5.9H297.67c-1.55,0-3.45-.6-3.45-3.32,0-2.07,1.12-3.36,3.45-3.36h21.56a1.26,1.26,0,0,0,1.43-1.42v-6H298.49a2.87,2.87,0,0,1-3.24-3.15c0-3.24,2.5-3.24,3.24-3.24h22.17v-5.56a1.3,1.3,0,0,0-1.43-1.47H298a2.94,2.94,0,0,1-3.32-3.23c0-3.28,2.5-3.28,3.32-3.28h23.77C326.09,219.69,327.64,221.54,327.64,225.6Zm292.51-46.51c12.29,0,22.94-4.51,30.59-11.91,3.26-3,2.38-9.4-1.13-12.53a9.1,9.1,0,0,0-11.78-.13,25.39,25.39,0,0,1-17.68,6.77c-14.28,0-25.06-11.78-25.06-26.45s10.78-26.45,25.06-26.45a25.39,25.39,0,0,1,17.68,6.77,9.11,9.11,0,0,0,11.78-.12c3.51-3.14,4.39-9.53,1.13-12.54a43.47,43.47,0,0,0-30.59-11.91,42.69,42.69,0,0,0-40,26.81,22,22,0,0,1,1.92,8.92,21.44,21.44,0,0,1-3.18,11.24,21.19,21.19,0,0,1-1.82,2.52C579.52,162.14,597.24,179.09,620.15,179.09ZM288,227.32a3.67,3.67,0,0,0-3.58-3.49,3,3,0,0,0-2,.91,58.62,58.62,0,0,1-5.91,4.7A60.46,60.46,0,0,1,259.33,237c-1,.3-2.37.69-2.37,2.67,0,1.21.69,3.58,3.11,3.58,1.9,0,7.16-1.94,11.17-3.79v13.37c0,2.37,1.42,3.1,3.36,3.1,2.46,0,3.32-1.25,3.32-3.1V236a55.13,55.13,0,0,0,8.72-6.16A3.08,3.08,0,0,0,288,227.32Zm82.94,6.22c-2,0-2.46,1.2-3.15,3.36-2,6.12-6.21,9.53-7.89,9.53-.48,0-.48-.47-.48-1V221c0-2.33-1.34-3.1-3.49-3.1-2.76,0-3.41,1.42-3.41,3.1v29.68c0,1,0,4.14,4.05,4.14,3.24,0,10.27-2.63,14.58-9.1,1.77-2.63,3.63-7,3.63-9.1C374.75,233.92,371.68,233.54,370.91,233.54Zm-23-12c0-2.28-1.26-3.15-3.54-3.15-2.93,0-3.41,1.64-3.41,3.15v9.06c0,11.39-.69,13.46-4.79,18.16-1.12,1.29-1.29,2-1.29,2.67,0,2.29,2.29,3.71,4,3.71.74,0,1.77,0,4-2.85,4.53-5.82,5-12.07,5-21.39Zm58.9,13a107.51,107.51,0,0,0-16.39-6.64v-7.07c0-1.38-.17-3.58-3.71-3.58s-3.67,2.37-3.67,3.58v31.57c0,1.38.13,3.58,3.71,3.58s3.67-2.33,3.67-3.58V235.09a72.63,72.63,0,0,1,12.94,6.3,6.52,6.52,0,0,0,3.45,1.33c2.33,0,3.62-2.41,3.62-4.27S409.58,235.91,406.78,234.48Zm-92.93-64.29V99.37c.13-4.26,2.63-7.77,7.27-7.77h27.33C364,91.6,374,100.87,374,115.66c0,5.64-2.89,12.79-11.78,16.17a21,21,0,0,1,16.29,19.68c0,14.29-10.4,26.45-27.58,26.45H321.12C316.48,178,313.85,174.33,313.85,170.19Zm18.43-44.12h14.41c4.77,0,8-4,8-9.15,0-5.39-2.75-9.15-8.14-9.15H332.28Zm0,35.72H350c6.14,0,9.28-5.64,9.28-10.78,0-4.89-3.14-10.4-9.65-10.4h-17.3Zm200.26-28.58h4.77v37.61c.12,4.26,4.13,7.77,8.77,7.77s8.78-3.39,8.78-7.77V133.21h6.64a6.76,6.76,0,0,0,6.27-6.89c0-3.76-2.76-6.9-6.27-6.9h-6.64V104.13c0-4.39-4-7.77-8.78-7.77s-8.65,3.51-8.77,7.77v15.29h-4.77c-3.5,0-6.26,3.14-6.26,6.9A6.76,6.76,0,0,0,532.54,133.21Zm-314,1.13c3.89,0,8-2,8.65-6.39,1.13-8.28-5-9.65-10.78-9.65-6,0-12.16,3.76-15.42,14.66v-6.39c0-4.39-4-7.77-8.77-7.77s-8.65,3.51-8.77,7.77v44.25c.12,4.26,4.13,7.77,8.77,7.77s8.77-3.39,8.77-7.77V156.4c.25-14.66,3.51-22.18,13.29-22.18C215.36,134.22,217.24,134.34,218.49,134.34Zm42.36-16c3.76,0,12.54,1.63,17.55,9.4v-33c.13-4.26,4.14-7.77,8.77-7.77S296,90.34,296,94.73v76.09c0,4.38-4,7.77-8.78,7.77s-8.64-3.51-8.77-7.77v-1.13c-3.76,6.14-10.9,9.4-17.55,9.4-14.91,0-28.45-11-28.45-30.46S245.94,118.3,260.85,118.3ZM264.24,134c-8.78,0-13.79,7-13.79,14.8s5,14.79,13.79,14.79c7.89,0,14.29-7,14.29-14.79S272.13,134,264.24,134ZM706.1,220.34a4.87,4.87,0,0,1-5,4.87,9.08,9.08,0,0,1,.26,2.24c0,3.2-1.9,12-8.15,18.68-6.52,6.94-16.22,9.36-18.55,9.36-2.68,0-3.37-2.76-3.37-3.93,0-2,1.51-2.54,3.63-3.1,13.41-3.62,16.56-11.13,17.81-14.84a15.46,15.46,0,0,0,1-4.31c0-1-.6-1-1.12-1H670.26a3,3,0,0,1-3.45-3.36c0-3.32,2.37-3.45,3.45-3.45h23.81a18.21,18.21,0,0,1,2.54.21,6.32,6.32,0,0,1-.17-1.25,4.86,4.86,0,0,1,4.87-4.83A4.77,4.77,0,0,1,706.1,220.34Zm-2.76.08a2.07,2.07,0,0,0-2.07-2.07,2.05,2.05,0,1,0,0,4.1A2.07,2.07,0,0,0,703.34,220.42Zm-87.21,13.12c0-3.11-2-3.89-5-3.63l-11.69,1-.43-4.22c-.13-1.21-.48-2.89-3.06-2.89-2.81,0-3.63,1.59-3.41,3.58l.43,4.09-5.18.48c-1.29.13-3,.52-3,3a3.31,3.31,0,0,0,1.16,2.72,3.38,3.38,0,0,0,2.46.47l5.13-.52,1.56,15.27c.12,1.3.6,3,3.19,3,3.53,0,3.4-2.72,3.32-3.62l-1.55-15.36,7.93-.82c.48,0,.65,0,.65.22a9.22,9.22,0,0,1-2.93,4.14c-1.86,1.6-2.38,2.07-2.38,3.23a3.38,3.38,0,0,0,3.32,3.11C610.35,246.82,616.13,238.37,616.13,233.54Zm214.71-62.72V144.74c-.12-17.67-9-26.57-22.94-26.57a18.87,18.87,0,0,0-17,11.16c-3.89-8-10-11-19.31-11A16.74,16.74,0,0,0,756.26,128v-1.38c0-4.39-4-7.77-8.77-7.77s-8.65,3.51-8.78,7.77v44.25c.13,4.26,4.14,7.77,8.78,7.77s8.77-3.39,8.77-7.77V147c0-8.9,4.89-11.91,10.15-11.91,5,0,9.65,3.89,9.65,11.28v24.45c.13,4.26,4.14,7.77,8.78,7.77s8.77-3.39,8.77-7.77V147c0-8.52,4.39-11.91,9.91-11.91,5.13,0,9.77,4,9.77,11.66v24.07c.13,4.26,4.14,7.77,8.78,7.77S830.84,175.2,830.84,170.82Zm78.08-22.19c0,19.43-13.54,30.46-28.46,30.46-6.64,0-13.78-3.26-17.55-9.4v29.08c-.12,4.26-4.13,7.77-8.77,7.77s-8.77-3.38-8.77-7.77v-72.2c0-4.39,4-7.77,8.77-7.77s8.65,3.51,8.77,7.77v1.13c5-7.77,13.79-9.4,17.55-9.4C895.38,118.3,908.92,129.2,908.92,148.63Zm-18,.13c0-7.78-5-14.8-13.79-14.8-7.9,0-14.29,7-14.29,14.8s6.39,14.79,14.29,14.79C885.85,163.55,890.87,156.53,890.87,148.76ZM575.12,236.17l-12,.69-.44-6.69,10.27-.69c1.9-.13,3.19-1.08,3.19-3.19,0-1.21-.43-3.45-3.58-3.24l-10.31.65-.21-3.32c-.18-2.93-1.6-3.23-3.58-3.23-3.37,0-3.71,1.89-3.58,3.66l.21,3.37-10.39.64c-1.9.13-3.19,1.08-3.19,3.19,0,1.34.56,3.5,3.62,3.28l10.39-.69.44,6.69-12.43.77c-1.81.13-3.19,1-3.19,3.2,0,1.72.78,3.49,3.58,3.32l12.47-.78.56,8.8c.08,1.42.21,3.41,3.53,3.41,3.84,0,3.71-2.42,3.63-3.8l-.56-8.84,11.94-.69c1.77-.09,3.2-1,3.2-3.24C578.7,238.06,578.18,236,575.12,236.17Zm-81.38,4c1.38,0,3.79-.13,3.79-3.63s-2.71-3.53-3.79-3.53h-30.8c-1.51,0-3.8.21-3.8,3.62s2.72,3.54,3.8,3.54ZM531,242.72c2.33,0,3.62-2.41,3.62-4.27s-.82-2.54-3.62-4a107.51,107.51,0,0,0-16.39-6.64v-7.07c0-1.38-.17-3.58-3.71-3.58s-3.67,2.37-3.67,3.58v31.57c0,1.38.13,3.58,3.71,3.58s3.67-2.33,3.67-3.58V235.09a72.63,72.63,0,0,1,12.94,6.3A6.52,6.52,0,0,0,531,242.72ZM443.66,246c6.17-6.51,8.15-15.35,8.15-18.72a5.13,5.13,0,0,0-2.11-4.65c1.16,0,1.64-.65,1.64-1.51a13.93,13.93,0,0,0-1-3.84c-.52-1.3-.9-1.81-1.72-1.81-.35,0-1.69.17-1.69,1.38a2.42,2.42,0,0,0,.18,1,16.64,16.64,0,0,1,.69,2c.08.26.64,2,.69,2.16a12.57,12.57,0,0,0-3.84-.61h-24c-1.08,0-3.45.17-3.45,3.45a3,3,0,0,0,3.45,3.37h22.43c.51,0,1.16,0,1.16,1a17.38,17.38,0,0,1-1,4.32c-1.16,3.36-4.14,11.17-17.9,14.88-2.07.56-3.62,1-3.62,3.1,0,1.12.69,3.88,3.41,3.88C427.44,255.4,437.1,252.94,443.66,246Zm214.22-22.47a4.33,4.33,0,0,0-1.17-.13c-1.94,0-2.24.87-3.19,3.63-5,14.32-13.63,18.54-24.67,20-2.28.3-3.84.82-3.84,3.4,0,1.51.69,4,3.5,4a39.54,39.54,0,0,0,7.41-1.42,32.63,32.63,0,0,0,16.52-10c5.31-6.08,8.24-14.36,8.24-16.39S659.13,223.92,657.88,223.57ZM456.38,221a15.48,15.48,0,0,0-1.08-4c-.47-1.21-.81-1.77-1.72-1.77-.3,0-1.68.13-1.68,1.38a2.21,2.21,0,0,0,.13.73c.08.31.6,1.64.69,1.95s.56,1.94.69,2.28a1.36,1.36,0,0,0,1.29.91C454.83,222.54,456.38,222.54,456.38,221ZM230,254A31.88,31.88,0,0,0,247.1,241.9a36.16,36.16,0,0,0,5.61-17.29c0-1.6-.09-4.45-4.88-4.45H221.35c-1,0-3.45.09-3.45,3.45a3,3,0,0,0,3.45,3.37h22.43c.51,0,1.12,0,1.12,1a23.43,23.43,0,0,1-2.29,7.73c-2.71,5.69-8.58,10-16.78,12.2-2,.56-3.58,1-3.58,3.11,0,1.08.61,3.88,3.37,3.88A17,17,0,0,0,230,254ZM449.71,148.5c0,18.43-13.78,30.59-30.83,30.59s-30.71-12.16-30.71-30.59,13.66-30.2,30.71-30.2S449.71,130.08,449.71,148.5Zm-17.54,0a13.23,13.23,0,1,0-26.45,0c0,8,6,13.67,13.16,13.67A13.23,13.23,0,0,0,432.17,148.5Zm283,30.09c-4.64,0-8.65-3.51-8.78-7.77v-1.13c-3.76,6.14-10.9,9.4-17.55,9.4-14.91,0-28.45-11-28.45-30.46s13.54-30.33,28.45-30.33c3.76,0,12.54,1.63,17.55,9.4v-1.13c.13-4.26,4.14-7.77,8.78-7.77s8.77,3.38,8.77,7.77v44.25C723.93,175.2,719.92,178.59,715.16,178.59Zm-8.65-29.83c0-7.78-6.39-14.8-14.29-14.8-8.78,0-13.79,7-13.79,14.8s5,14.79,13.79,14.79C700.12,163.55,706.51,156.53,706.51,148.76Zm-535-.26c0,18.43-13.79,30.59-30.84,30.59S110,166.93,110,148.5s13.67-30.2,30.71-30.2S171.5,130.08,171.5,148.5Zm-17.55,0a13.23,13.23,0,1,0-26.45,0c0,8,6,13.67,13.16,13.67A13.23,13.23,0,0,0,154,148.5Zm472.49,77.62c1.68.9,5.26,2.89,7.89,4.7,1.85,1.29,2.46,1.46,3.28,1.46,2.07,0,3.58-2.58,3.58-4,0-1.64-.61-2.71-8.33-6.73-1.46-.77-4.4-2.32-5.56-2.32a2.43,2.43,0,0,0-.82.13,4,4,0,0,0-2.63,3.62C623.85,224.78,625.27,225.51,626.44,226.12ZM62.21,135.47a7.71,7.71,0,0,0-7.52-7.9H33.38v-19.8H62.09a8.18,8.18,0,0,0,7.52-8c0-4.51-3.39-8.14-7.52-8.14H22.35c-4.64,0-7.14,3.51-7.27,7.77v70.7c0,4.51,4.39,8.52,9.15,8.52,5,0,9.15-3.89,9.15-8.52v-26.7H54.69C58.7,143.37,62.21,139.61,62.21,135.47Zm35.59-8.9c0-4.39-4-7.77-8.78-7.77s-8.64,3.51-8.77,7.77v55c0,4.13-1.25,9.27-7.65,9.27h-.37C67.84,191,64,194,64,198.64a8.07,8.07,0,0,0,8.28,8h3.51c16.54,0,22.06-9.91,22.06-25.45Zm-8.65-39c-5.89,0-10.91,4.38-10.91,10.15S83.26,108,89.15,108s10.78-4.51,10.78-10.28S95.17,87.59,89.15,87.59ZM520.27,148.5c0,18.43-13.78,30.59-30.83,30.59s-30.71-12.16-30.71-30.59,13.66-30.2,30.71-30.2S520.27,130.08,520.27,148.5Zm-17.55,0a13.22,13.22,0,1,0-26.44,0c0,8,6,13.67,13.16,13.67S502.72,156.53,502.72,148.5Zm-102,74.21c.17.56.47,1.51.65,2.07.34,1,.9,1.12,1.38,1.12a1.52,1.52,0,0,0,1.63-1.51,15.42,15.42,0,0,0-1-4c-.48-1.2-.91-1.81-1.73-1.81-.3,0-1.68.13-1.68,1.38a2.61,2.61,0,0,0,.13.82C400.14,221.07,400.61,222.36,400.7,222.71Zm5-.73c.87,2.84.95,3.14,2,3.14.13,0,1.68,0,1.68-1.51a14.21,14.21,0,0,0-1.08-3.92c-.52-1.25-.9-1.81-1.72-1.81-.39,0-1.68.21-1.68,1.38a2.76,2.76,0,0,0,.08.78C405.1,220.29,405.66,221.63,405.74,222Z"/></svg>