<?xml version="1.0" encoding="utf-8"?>
<!-- Generator: Adobe Illustrator 16.0.4, SVG Export Plug-In . SVG Version: 6.00 Build 0)  -->
<!DOCTYPE svg PUBLIC "-//W3C//DTD SVG 1.1//EN" "http://www.w3.org/Graphics/SVG/1.1/DTD/svg11.dtd">
<svg version="1.1" id="レイヤー_1" xmlns="http://www.w3.org/2000/svg" xmlns:xlink="http://www.w3.org/1999/xlink" x="0px"
	 y="0px" width="541.229px" height="293.474px" viewBox="0 0 541.229 293.474" enable-background="new 0 0 541.229 293.474"
	 xml:space="preserve">
<g>
	<path fill="#2C2461" d="M160.944,161.606c0-25.267-15.1-42.806-40.741-42.806c-6.698,0-10.897,1.122-16.447,2.821l5.104-25.814
		h38.679c0.197,27,17.333,45.929,44.526,45.929c28.645,0,47.679-18.477,47.679-46.198c0-24.327-15.894-41.673-38.438-41.673
		c-5.727,0-11.087,0.644-17,3.852l37.697-52.91h-31.601l-20.881,32.35c-8.45,13.207-14.469,25.65-18.054,35.65H89.522L73.979,151.01
		l14.534,0.914c5.441-7.787,14.549-10.809,21.812-10.936c17.663-0.307,26.578,7.693,26.428,21.467
		c-0.138,12.72-9.308,22.352-21.563,24.352h-1.558v0.004c-2,0.137-2.857,0.185-4.271,0.137c-6.684-0.228-11.91-1.6-16.302-3.581
		c-2.653-17.038-18.168-32.054-44.153-32.054c-27.352,0-43.273,15.084-43.273,42.051c0,0.754,0,1.443,0,2.443h27
		c0,0,0-0.559,0-0.744c0-13.013,6.46-20.933,16.44-20.933c10.717,0,17.273,6.224,17.273,16.971c0,8.675-6.333,20.302-17.418,35.011
		L3.479,288.807h90.152v-24H48.878l12.196-13.721c13.98-17.835,24.727-31.891,29.55-46.195c6.221,2.294,13.113,3.81,20.714,3.81
		c0.739,0,1.293,0.026,2.293,0.004v80.103h22v-84.936C152.632,195.923,160.944,179.282,160.944,161.606z M192.806,74.988
		c13.304,0,20.697,8.485,20.697,21.686c0,12.634-7.947,21.312-19.957,21.312c-12.197,0-20.328-7.923-20.328-21.312
		C173.218,84.039,181.162,74.988,192.806,74.988z"/>
	<path fill="#2C2461" d="M190.889,220.485c-5.859,0-12.257,2.314-18.257,7.356v-6.034h-20v67h20v-38.49
		c0-10.217,4.986-14.713,13.158-14.713c7.9,0,10.842,4.496,10.842,14.713v38.49h20v-38.49
		C216.632,229.612,209.821,220.485,190.889,220.485z"/>
	<path fill="#2C2461" d="M253.632,201.807h-20v20h-7v16h7v22.316c0,22.34,7.717,29.694,25.014,29.694
		c4.088,0,7.986-1.636,10.986-3.405v-16.619c-2,1.908-4.938,3.407-8.612,3.407c-7.491,0-7.388-8.175-7.388-13.077v-22.316h16v-16
		h-16V201.807z"/>
	<path fill="#2C2461" d="M313.995,220.485c-21.25,0-34.413,14.848-34.413,34.734s13.44,34.599,35.509,34.599
		c15.393,0,23.678-5.177,29.129-12.531l-13.495-12.396c-3.137,5.721-9.133,8.355-15.671,8.355c-6.678,0-14.717-5.439-14.717-13.439
		h48.295v-4.588C348.632,235.06,335.245,220.485,313.995,220.485z M300.744,246.807c1.228-6,5.722-9.806,13.077-9.806
		c7.627,0,12.258,3.806,13.351,9.806H300.744z"/>
	<path fill="#2C2461" d="M379.632,227.432v-5.625h-20v67h20v-37.946c0-10.761,4.771-15.119,12.94-15.119
		c2.317,0,3.271-0.409,8.311,1.771l2.728-15.119c-3.137-1.772-5.588-1.908-9.811-1.908
		C389.306,220.485,382.632,222.799,379.632,227.432z"/>
	<path fill="#2C2461" d="M448.886,220.485c-5.855,0-12.254,2.314-18.254,7.356v-6.034h-20v67h20v-38.49
		c0-10.217,4.985-14.713,13.157-14.713c7.9,0,10.843,4.496,10.843,14.713v38.49h20v-38.49
		C474.632,229.612,467.821,220.485,448.886,220.485z"/>
	<path fill="#2C2461" d="M503.614,242.688c0-4.358,4.357-5.176,6.537-5.176c4.225,0,10.354,3.678,13.895,8.309l13.078-13.076
		c-7.766-7.9-17.438-12.26-26.973-12.26c-8.308,0-24.926,5.449-24.926,21.387c0,13.348,12.531,17.843,23.291,21.112
		c2.862,0.818,12.259,1.089,10.627,6.266c-0.683,2.044-4.496,3.951-8.992,3.542c-4.494-0.408-9.943-3.949-13.758-8.583
		l-13.213,13.214c7.631,7.628,17.301,12.396,26.971,12.396c15.256,0,27.516-7.764,27.516-21.657
		C537.667,246.91,503.614,250.725,503.614,242.688z"/>
	<polygon fill="#2C2461" points="209.954,163.11 202.033,168.24 202.434,158.807 193.473,158.807 193.873,168.24 185.953,163.114 
		181.473,170.873 189.873,175.191 181.473,179.511 185.953,187.271 193.873,182.259 193.473,191.807 202.434,191.807 
		202.033,182.259 209.954,187.325 214.434,179.538 206.034,175.204 214.434,170.877 	"/>
	<polygon fill="#2C2461" points="226.433,187.271 234.353,182.259 233.953,191.807 242.913,191.807 242.513,182.259 
		250.433,187.325 254.913,179.538 246.513,175.204 254.913,170.877 250.433,163.113 242.513,168.242 242.913,158.807 
		233.953,158.807 234.353,168.24 226.433,163.114 221.953,170.873 230.353,175.191 221.953,179.511 	"/>
	<polygon fill="#2C2461" points="283.394,191.807 282.993,182.259 290.913,187.325 295.394,179.538 286.993,175.204 
		295.394,170.877 290.913,163.113 282.993,168.242 283.394,158.807 274.433,158.807 274.833,168.24 266.913,163.114 
		262.433,170.873 270.833,175.191 262.433,179.511 266.913,187.271 274.833,182.259 274.433,191.807 	"/>
	<polygon fill="#2C2461" points="307.393,187.271 315.312,182.259 314.913,191.807 323.873,191.807 323.473,182.259 
		331.394,187.325 335.873,179.538 327.474,175.204 335.873,170.877 331.394,163.113 323.473,168.242 323.873,158.807 
		314.913,158.807 315.312,168.24 307.393,163.114 302.913,170.873 311.312,175.191 302.913,179.511 	"/>
	<polygon fill="#2C2461" points="364.353,191.807 363.952,182.259 371.873,187.325 376.353,179.538 367.952,175.204 
		376.353,170.877 371.873,163.113 363.952,168.242 364.353,158.807 355.393,158.807 355.792,168.24 347.872,163.114 
		343.392,170.873 351.792,175.191 343.392,179.511 347.872,187.271 355.792,182.259 355.393,191.807 	"/>
	<polygon fill="#2C2461" points="412.353,187.271 416.832,179.51 408.432,175.19 416.832,170.871 412.353,163.11 404.432,168.24 
		404.832,158.807 395.872,158.807 396.271,168.24 388.352,163.114 383.871,170.873 392.271,175.191 383.871,179.511 
		388.352,187.271 396.271,182.259 395.872,191.807 404.832,191.807 404.432,182.259 	"/>
	<polygon fill="#2C2461" points="428.831,187.271 436.751,182.259 436.352,191.807 445.312,191.807 444.911,182.259 
		452.832,187.325 457.312,179.538 448.911,175.204 457.312,170.877 452.832,163.113 444.911,168.242 445.312,158.807 
		436.352,158.807 436.751,168.24 428.831,163.114 424.351,170.873 432.751,175.191 424.351,179.511 	"/>
	<polygon fill="#2C2461" points="485.792,191.807 485.392,182.259 493.312,187.325 497.792,179.538 489.392,175.204 
		497.792,170.877 493.312,163.113 485.392,168.242 485.792,158.807 476.832,158.807 477.231,168.24 469.312,163.114 
		464.831,170.873 473.231,175.191 464.831,179.511 469.312,187.271 477.231,182.259 476.832,191.807 	"/>
</g>
</svg>
