<svg id="materials" xmlns="http://www.w3.org/2000/svg" viewBox="0 0 431 69.3"><defs><style>.cls-1{fill:#474747;}.cls-2{fill:#fff;}</style></defs><title>logo</title><g id="logo-lg"><g id="en"><path class="cls-1" d="M429.42,27a19.42,19.42,0,0,0-7.51-9.17A20,20,0,0,0,411,14.64a15.21,15.21,0,0,0-2.95.3A17.89,17.89,0,0,0,404,16.25a10.91,10.91,0,0,0-5.27-1.37,11,11,0,0,0-7.28,2.69,10.74,10.74,0,0,0-1.82,2.08,15.61,15.61,0,0,0-4.81-3.46,18.22,18.22,0,0,0-7.69-1.61,15.33,15.33,0,0,0-3.22.36,16.18,16.18,0,0,0-4.75,1.91A15.36,15.36,0,0,0,365,15.19a20.66,20.66,0,0,0-4.91-.55,14.74,14.74,0,0,0-6.27,1.42,11.15,11.15,0,0,0-5-1.18,10.93,10.93,0,0,0-7.27,2.74l-.26.25a11,11,0,0,0-1.91-1.46,11.13,11.13,0,0,0-5.67-1.53,10.87,10.87,0,0,0-5.29,1.37,17.07,17.07,0,0,0-2.36-.9,19.42,19.42,0,0,0-2.48-.55,15.31,15.31,0,0,0-2.17-.16A20.25,20.25,0,0,0,314,16.05a18.88,18.88,0,0,0-2.75,1.34c0-.33.05-.67.05-1a10.41,10.41,0,0,0-.66-3.69,9.6,9.6,0,0,0-2.33-3.53h0a.76.76,0,0,1-.09-.09l0,0h0a27.7,27.7,0,0,0-29.48-5.19,26.57,26.57,0,0,0-11.85,10,28.14,28.14,0,0,0,3.25,34.53,26.56,26.56,0,0,0,8.6,5.91A27.75,27.75,0,0,0,307,50.19a19.16,19.16,0,0,0,3.6,3,20,20,0,0,0,10.91,3.19,16.83,16.83,0,0,0,7-1.59,11,11,0,0,0,12.53-1.34c.11-.09.21-.2.32-.3a11,11,0,0,0,14.79.3,9.89,9.89,0,0,0,1.48-1.61,10.87,10.87,0,0,0,3,2.72,11.1,11.1,0,0,0,13-1.11,10.41,10.41,0,0,0,1.46-1.57,10.77,10.77,0,0,0,3,2.68,11.11,11.11,0,0,0,5.69,1.59,11.38,11.38,0,0,0,4.2-.82v3.56a10,10,0,0,0,1,4.33,10.5,10.5,0,0,0,4.13,4.45,11.24,11.24,0,0,0,5.67,1.54A11,11,0,0,0,406,66.5a10.4,10.4,0,0,0,2.45-3.16,10,10,0,0,0,1.07-4.21v-2.8c.5,0,1,.09,1.51.09A20.13,20.13,0,0,0,418.5,55a19.32,19.32,0,0,0,9-7.32A21.87,21.87,0,0,0,431,35.5,23,23,0,0,0,429.42,27ZM300.34,30.59a10.7,10.7,0,0,0-7.11,2.65l-.17.15a4.58,4.58,0,0,1-1.52,1,5.91,5.91,0,0,1-2.15.38,4.69,4.69,0,0,1-1.94-.4,4.84,4.84,0,0,1-2.16-1.9,6.3,6.3,0,0,1-.92-3.37,6.06,6.06,0,0,1,1.54-4.18,4.72,4.72,0,0,1,3.48-1.49,5.91,5.91,0,0,1,2.15.38,4.58,4.58,0,0,1,1.52,1l.17.15a10.7,10.7,0,0,0,7.11,2.65A11,11,0,0,0,303,27.2a21.34,21.34,0,0,0-1,3.52A10,10,0,0,0,300.34,30.59Zm1.73,12.68Z"/><path class="cls-2" d="M289.39,8.39A20.26,20.26,0,0,1,303.68,14c1.53,1.4,1.12,4.39-.52,5.86a4.27,4.27,0,0,1-5.51.05,11.87,11.87,0,0,0-8.26-3.16c-6.67,0-11.71,5.51-11.71,12.36s5,12.36,11.71,12.36a11.83,11.83,0,0,0,8.26-3.17,4.28,4.28,0,0,1,5.51.06c1.64,1.47,2,4.45.52,5.86a20.31,20.31,0,0,1-14.29,5.56c-11.53,0-20.26-9.19-20.26-20.67S277.86,8.39,289.39,8.39Z"/><path class="cls-2" d="M329.68,25.19a4,4,0,0,1,4.1-3.63,3.88,3.88,0,0,1,4.1,3.63V45.87a3.88,3.88,0,0,1-4.1,3.63,4,4,0,0,1-4.1-3.63v-.53a9.68,9.68,0,0,1-8.2,4.39c-7,0-13.29-5.15-13.29-14.23s6.32-14.17,13.29-14.17a10.12,10.12,0,0,1,8.2,4.39Zm-6.62,17.28a6.91,6.91,0,0,0,0-13.82c-4.09,0-6.44,3.28-6.44,6.91S319,42.47,323.06,42.47Z"/><path class="cls-2" d="M387.83,45.87a3.88,3.88,0,0,1-4.1,3.63,4,4,0,0,1-4.1-3.63V34.62c0-3.57-2.16-5.44-4.56-5.44-2.58,0-4.63,1.58-4.63,5.56V45.87a3.88,3.88,0,0,1-4.1,3.63,4,4,0,0,1-4.1-3.63V34.45c0-3.46-2.17-5.27-4.51-5.27S353,30.58,353,34.74V45.87a3.88,3.88,0,0,1-4.1,3.63,4,4,0,0,1-4.1-3.63V25.19a4,4,0,0,1,4.1-3.63,3.88,3.88,0,0,1,4.1,3.63v.65a7.82,7.82,0,0,1,7.14-4.51c4.34,0,7.21,1.4,9,5.15a8.82,8.82,0,0,1,8-5.21c6.5,0,10.65,4.16,10.71,12.42Z"/><path class="cls-2" d="M411,21.33c7,0,13.29,5.09,13.29,14.17S418,49.73,411,49.73a9.7,9.7,0,0,1-8.2-4.39V58.93a4,4,0,0,1-4.1,3.63,3.88,3.88,0,0,1-4.1-3.63V25.19a3.88,3.88,0,0,1,4.1-3.63,4,4,0,0,1,4.1,3.63v.53A10.12,10.12,0,0,1,411,21.33Zm-1.58,7.32a6.91,6.91,0,0,0,0,13.82c4.1,0,6.44-3.28,6.44-6.91S413.54,28.65,409.44,28.65Z"/><path class="cls-1" d="M266,16.06l-.41-.17V14.71a9.91,9.91,0,0,0-1-4.34,10.41,10.41,0,0,0-4.13-4.44,11.08,11.08,0,0,0-12.93,1.2,10.73,10.73,0,0,0-2.45,3.17A10.12,10.12,0,0,0,244,14.51v1.82a9.67,9.67,0,0,0-2.87,2.33c-.4-.29-.81-.56-1.23-.82a22,22,0,0,0-11.58-3.2,22.5,22.5,0,0,0-8,1.43,20.12,20.12,0,0,0-8.51,6.08,19.75,19.75,0,0,0-4.91-4.31,22,22,0,0,0-11.58-3.2,22.5,22.5,0,0,0-8,1.43,20.45,20.45,0,0,0-6.31,3.8,19.1,19.1,0,0,0-1.32-6.93A16.53,16.53,0,0,0,177,8.31a16.88,16.88,0,0,0-6.52-4.66,21.09,21.09,0,0,0-8-1.48H149.68a10.17,10.17,0,0,0-4.16.86,9.7,9.7,0,0,0-2.67,1.77,10.07,10.07,0,0,0-2.47,3.64,11.11,11.11,0,0,0-.78,3.85V45.57a10.75,10.75,0,0,0,.6,3.57,10.07,10.07,0,0,0,3.45,4.78,10,10,0,0,0,2.86,1.48,10.5,10.5,0,0,0,3.18.49h13.94a21.21,21.21,0,0,0,7.89-1.47,18.55,18.55,0,0,0,7.47-5.5,20,20,0,0,0,4.75,4.21,21.7,21.7,0,0,0,11.62,3.29,21.27,21.27,0,0,0,14.82-5.77,21.2,21.2,0,0,0,1.68-1.86,20,20,0,0,0,4.85,4.34,21.67,21.67,0,0,0,11.62,3.29,21.27,21.27,0,0,0,14.82-5.77c.5-.49,1-1,1.44-1.55a9.44,9.44,0,0,0,.49,1.18,10.7,10.7,0,0,0,4,4.32,11.1,11.1,0,0,0,13-1.11,10.24,10.24,0,0,0,2.51-3.29,9.83,9.83,0,0,0,1-4.33V34.23c.17-.07.35-.14.51-.22a9.81,9.81,0,0,0,4-3.68,10.12,10.12,0,0,0-1.08-12A9.59,9.59,0,0,0,266,16.06Zm-70.8,19.3h0l-.09-.12Zm.34.29h0l.12.14Zm32.63-.29h0l-.09-.12Zm.33.29h0l.12.14Z"/><path class="cls-2" d="M149.68,49.21a3.39,3.39,0,0,1-3.4-3.64V12.48c.06-2,1.23-3.63,3.4-3.63h12.76c7.27,0,11.95,4.34,11.95,11.25a8,8,0,0,1-5.5,7.55,9.8,9.8,0,0,1,7.61,9.2c0,6.67-4.86,12.36-12.88,12.36ZM161.62,25c2.23,0,3.75-1.87,3.75-4.28s-1.29-4.27-3.8-4.27h-6.68V25Zm-6.73,6.79v9.9h8.26c2.87,0,4.33-2.63,4.33-5S166,31.75,163,31.75Z"/><path class="cls-2" d="M181,35.44c0-8.61,6.39-14.11,14.35-14.11s14.41,5.5,14.41,14.11-6.44,14.29-14.41,14.29S181,44.05,181,35.44Zm20.56,0a6.18,6.18,0,1,0-12.36,0,6.18,6.18,0,1,0,12.36,0Z"/><path class="cls-2" d="M214,35.44c0-8.61,6.38-14.11,14.35-14.11s14.41,5.5,14.41,14.11-6.45,14.29-14.41,14.29S214,44.05,214,35.44Zm20.56,0a6.18,6.18,0,1,0-12.36,0,6.18,6.18,0,1,0,12.36,0Z"/><path class="cls-2" d="M250.69,21.86V14.71a4,4,0,0,1,4.1-3.63,3.88,3.88,0,0,1,4.1,3.63v7.15H262a3.08,3.08,0,0,1,2.93,3.22A3.16,3.16,0,0,1,262,28.3h-3.1V45.87a3.88,3.88,0,0,1-4.1,3.63,4,4,0,0,1-4.1-3.63V28.3h-2.23a3.16,3.16,0,0,1-2.93-3.22,3.08,3.08,0,0,1,2.93-3.22Z"/><path class="cls-1" d="M139.49,1.53A11.16,11.16,0,0,0,133.82,0a11,11,0,0,0-7.27,2.74,10.6,10.6,0,0,0-2.45,3.17A10.23,10.23,0,0,0,123,10.12v4.61c-.52-.05-1-.09-1.51-.09a20.5,20.5,0,0,0-7.47,1.4,19.93,19.93,0,0,0-4,2.16c-.05-.05-.1-.12-.15-.18a10,10,0,0,0-2.63-2,12,12,0,0,0-3.64-1.18,17.24,17.24,0,0,0-2.89-.22,12.85,12.85,0,0,0-4.33.74,12.22,12.22,0,0,0-1.78.79,11.14,11.14,0,0,0-5.19-1.29,11,11,0,0,0-7.27,2.74A10.53,10.53,0,0,0,80,20.21a20.2,20.2,0,0,0-3.1-2.37,22,22,0,0,0-11.58-3.2,22.5,22.5,0,0,0-8,1.43,20,20,0,0,0-6.71,4.18c-.19-.32-.37-.64-.58-.93a11.18,11.18,0,0,0,2-3A11.34,11.34,0,0,0,47.67,2.1,12.09,12.09,0,0,0,33.29,3.33c-.16-.09-.32-.18-.49-.26a10.14,10.14,0,0,0-4.15-.9H10.08A10.1,10.1,0,0,0,5.93,3,9.56,9.56,0,0,0,3.26,4.8,10.07,10.07,0,0,0,.79,8.44,11.13,11.13,0,0,0,0,12.29V45.52a10.14,10.14,0,0,0,1,4.4,11,11,0,0,0,4,4.5A11.05,11.05,0,0,0,11,56.19a11.17,11.17,0,0,0,7.58-3A10.65,10.65,0,0,0,21,49.84a10.19,10.19,0,0,0,.94-4.32V39.73h3.27a9.9,9.9,0,0,0,4.17-.93c.39-.19.74-.4,1.09-.61V49a10.62,10.62,0,0,0-4.2,2.28,10.09,10.09,0,0,0-3.41,7.61,10.35,10.35,0,0,0,4.81,8.78,10.69,10.69,0,0,0,5.74,1.65H35A19.31,19.31,0,0,0,42.45,68a14.2,14.2,0,0,0,7.14-6.32,18.31,18.31,0,0,0,1.94-5.39A27.94,27.94,0,0,0,52,51.87a19.21,19.21,0,0,0,1.74,1.26,21.7,21.7,0,0,0,11.62,3.29A21.28,21.28,0,0,0,80,50.78a10.63,10.63,0,0,0,3.71,3.82,11.1,11.1,0,0,0,13-1.11,10.24,10.24,0,0,0,2.51-3.29,9.83,9.83,0,0,0,1-4.33V39.22a22.09,22.09,0,0,1,.28-3.42c0-.12,0-.22.06-.32l1,0A22.85,22.85,0,0,0,103.11,44a19.52,19.52,0,0,0,7.5,9.2,20,20,0,0,0,10.91,3.19,16.83,16.83,0,0,0,7-1.59,11,11,0,0,0,12.53-1.34,10.24,10.24,0,0,0,2.51-3.29,9.83,9.83,0,0,0,1-4.33V10.32a9.88,9.88,0,0,0-1-4.34A10.47,10.47,0,0,0,139.49,1.53ZM65.73,35.38h0l0-.05Zm-.58.22h0l-.12.1Zm-24-24.07Zm.11.82h0L42,13.46Zm.11-.3h0l1.28.59Zm0-.62h0l1.3-.59Zm-.29.06h0l-1.29-.56Z"/><path class="cls-2" d="M28.65,8.85a3.67,3.67,0,0,1,3.51,3.81,3.82,3.82,0,0,1-3.51,3.75H15.24v9.25h10a3.6,3.6,0,0,1,3.52,3.69A3.72,3.72,0,0,1,25.19,33h-10V45.52a4.18,4.18,0,0,1-4.28,4,4.29,4.29,0,0,1-4.27-4v-33c0-2,1.23-3.63,3.39-3.63Z"/><path class="cls-2" d="M33.56,55.24c3,0,3.58-2.4,3.58-4.34V25.19a4,4,0,0,1,4.1-3.63,3.88,3.88,0,0,1,4.1,3.63V50.73C45.34,58,42.76,62.62,35,62.62H33.39a3.69,3.69,0,1,1,0-7.38ZM41.29,7a4.83,4.83,0,0,1,5,4.74,4.88,4.88,0,0,1-5,4.81,5,5,0,0,1-5.09-4.81A4.92,4.92,0,0,1,41.29,7Z"/><path class="cls-2" d="M51,35.44c0-8.61,6.39-14.11,14.35-14.11s14.41,5.5,14.41,14.11S73.33,49.73,65.36,49.73,51,44.05,51,35.44Zm20.56,0a6.18,6.18,0,1,0-12.36,0,6.18,6.18,0,1,0,12.36,0Z"/><path class="cls-2" d="M105.77,25.84c-.3,2.05-2.23,3-4,3-.59,0-1.47-.06-2-.06-4.57,0-6.1,3.51-6.21,10.36v6.74a3.88,3.88,0,0,1-4.1,3.63,4,4,0,0,1-4.1-3.63V25.19a4,4,0,0,1,4.1-3.63,3.88,3.88,0,0,1,4.1,3.63v3c1.52-5.09,4.39-6.85,7.2-6.85S106.29,22,105.77,25.84Z"/><path class="cls-2" d="M129.72,10.32a4,4,0,0,1,4.1-3.63,3.88,3.88,0,0,1,4.1,3.63V45.87a3.88,3.88,0,0,1-4.1,3.63,4,4,0,0,1-4.1-3.63v-.53a9.71,9.71,0,0,1-8.2,4.39c-7,0-13.3-5.15-13.3-14.23s6.33-14.17,13.3-14.17a10.13,10.13,0,0,1,8.2,4.39ZM123.1,42.47a6.91,6.91,0,0,0,0-13.82c-4.1,0-6.44,3.28-6.44,6.91S119,42.47,123.1,42.47Z"/></g></g></svg>