<?xml version="1.0" encoding="utf-8"?>
<!-- Generator: Adobe Illustrator 16.0.4, SVG Export Plug-In . SVG Version: 6.00 Build 0)  -->
<!DOCTYPE svg PUBLIC "-//W3C//DTD SVG 1.1//EN" "http://www.w3.org/Graphics/SVG/1.1/DTD/svg11.dtd">
<svg version="1.1" id="レイヤー_1" xmlns="http://www.w3.org/2000/svg" xmlns:xlink="http://www.w3.org/1999/xlink" x="0px"
	 y="0px" width="541.229px" height="289.818px" viewBox="0 0 541.229 289.818" enable-background="new 0 0 541.229 289.818"
	 xml:space="preserve">
<g>
	<path fill="#FFFFFF" d="M93.413,289.002H3.479l45.398-62.793c11.086-14.709,17.37-26.434,17.37-35.108
		c0-10.747-6.653-16.971-17.37-16.971c-9.98,0-16.635,7.92-16.635,20.933c0,0.186,0,0.375,0,0.564H5.633c0-0.754,0-1.51,0-2.264
		c0-26.967,15.894-42.051,43.245-42.051c28.646,0,44.535,18.248,44.535,37.337c0,20.556-13.121,38.122-32.339,62.64l-12.196,13.924
		h44.535V289.002z"/>
	<path fill="#FFFFFF" d="M109.249,186.948c15.115,0.514,27.345-9.881,27.504-24.587c0.15-13.773-8.765-21.63-26.428-21.323
		c-7.264,0.126-16.371,3.197-21.812,10.984l-14.534-0.817l15.544-78.008h67.369v22.628H108.86l-5.158,25.805
		c5.55-1.699,9.695-2.83,16.394-2.83c25.642,0,40.634,17.539,40.634,42.806c0,24.571-16.294,47.146-49.502,47.146
		c-16.377,0-28.978-6.749-40.266-14.104l2.971-23.948C84.265,177.485,91.304,186.336,109.249,186.948z"/>
	<path fill="#FFFFFF" d="M201.306,53.868c22.545,0,38.438,17.348,38.438,41.675c0,27.721-19.034,46.202-47.679,46.202
		c-27.351,0-44.535-18.86-44.535-46.392c0-16.405,7.391-35.262,21.991-58.08l20.881-32.624h31.601l-37.697,52.99
		C190.219,54.432,195.579,53.868,201.306,53.868z M193.546,117.985c12.01,0,19.957-8.678,19.957-21.312
		c0-13.2-7.394-21.686-20.697-21.686c-11.644,0-19.588,9.051-19.588,21.686C173.218,110.062,181.349,117.985,193.546,117.985z"/>
	<path fill="#FFFFFF" d="M135.202,288.729h-21.793v-102.16h21.793V288.729z"/>
	<path fill="#FFFFFF" d="M216.792,288.729h-20.158v-38.412c0-10.217-2.725-14.713-10.625-14.713
		c-8.172,0-12.941,4.496-12.941,14.713v38.412h-20.158v-67.29h20.158v6.402c5.177-5.042,12.26-7.356,18.119-7.356
		c18.933,0,25.605,9.127,25.605,29.832V288.729z"/>
	<path fill="#FFFFFF" d="M261.357,273.201c3.675,0,5.993-1.499,8.581-3.407v16.619c-3.131,1.77-6.946,3.405-11.034,3.405
		c-17.297,0-25.062-7.354-25.062-29.694v-22.067h-7.492v-16.617h7.492v-19.341h20.158v19.341h15.938v16.617h-15.938v22.067
		C254.001,265.026,253.866,273.201,261.357,273.201z"/>
	<path fill="#FFFFFF" d="M348.284,259.714h-47.947c0,7.901,8.033,13.486,14.711,13.486c6.538,0,12.529-2.589,15.666-8.31
		l13.484,12.396c-5.451,7.354-13.758,12.531-29.15,12.531c-22.068,0-35.553-14.712-35.553-34.599s13.076-34.734,34.326-34.734
		s34.463,14.575,34.463,34.734V259.714z M327.172,246.91c-1.093-6.4-5.724-9.806-13.351-9.806c-7.355,0-11.85,3.949-13.077,9.806
		H327.172z"/>
	<path fill="#FFFFFF" d="M400.884,237.512c-5.039-2.18-5.992-1.771-8.31-1.771c-8.169,0-12.938,4.358-12.938,15.119v37.868h-20.16
		v-67.29h20.16v5.993c2.588-4.633,9.672-6.947,14.166-6.947c4.223,0,6.672,0.136,9.809,1.908L400.884,237.512z"/>
	<path fill="#FFFFFF" d="M474.822,288.729h-20.159v-38.412c0-10.217-2.725-14.713-10.625-14.713
		c-8.172,0-12.939,4.496-12.939,14.713v38.412h-20.161v-67.29h20.161v6.402c5.178-5.042,12.26-7.356,18.115-7.356
		c18.936,0,25.608,9.127,25.608,29.832V288.729z"/>
	<path fill="#FFFFFF" d="M537.667,268.161c0,13.894-12.26,21.657-27.516,21.657c-9.67,0-19.34-4.768-26.971-12.396l13.213-13.214
		c3.814,4.634,9.264,8.175,13.758,8.583c4.496,0.409,8.31-1.498,8.992-3.542c1.632-5.177-7.765-5.447-10.627-6.266
		c-10.76-3.27-23.291-7.765-23.291-21.112c0-15.938,16.618-21.387,24.926-21.387c9.535,0,19.207,4.359,26.973,12.26l-13.078,13.076
		c-3.541-4.631-9.67-8.309-13.895-8.309c-2.18,0-6.537,0.817-6.537,5.176C503.614,250.725,537.667,246.91,537.667,268.161z"/>
	<path fill="#FFFFFF" d="M255.888,98.943"/>
</g>
<g>
	<path fill="#FFFFFF" d="M209.954,187.271l-7.92-5.12l0.4,9.439h-8.96l0.4-9.439l-7.92,5.12l-4.48-7.761l8.4-4.32l-8.4-4.319
		l4.48-7.761l7.92,5.121l-0.4-9.441h8.96l-0.4,9.441l7.92-5.121l4.48,7.761l-8.4,4.319l8.4,4.32L209.954,187.271z"/>
	<path fill="#FFFFFF" d="M250.433,187.271l-7.92-5.12l0.4,9.439h-8.96l0.4-9.439l-7.92,5.12l-4.48-7.761l8.4-4.32l-8.4-4.319
		l4.48-7.761l7.92,5.121l-0.4-9.441h8.96l-0.4,9.441l7.92-5.121l4.48,7.761l-8.4,4.319l8.4,4.32L250.433,187.271z"/>
	<path fill="#FFFFFF" d="M290.913,187.271l-7.92-5.12l0.4,9.439h-8.961l0.4-9.439l-7.92,5.12l-4.48-7.761l8.4-4.32l-8.4-4.319
		l4.48-7.761l7.92,5.121l-0.4-9.441h8.961l-0.4,9.441l7.92-5.121l4.48,7.761l-8.4,4.319l8.4,4.32L290.913,187.271z"/>
	<path fill="#FFFFFF" d="M331.394,187.271l-7.921-5.12l0.4,9.439h-8.96l0.399-9.439l-7.92,5.12l-4.479-7.761l8.399-4.32
		l-8.399-4.319l4.479-7.761l7.92,5.121l-0.399-9.441h8.96l-0.4,9.441l7.921-5.121l4.479,7.761l-8.399,4.319l8.399,4.32
		L331.394,187.271z"/>
	<path fill="#FFFFFF" d="M371.873,187.271l-7.921-5.12l0.4,9.439h-8.96l0.399-9.439l-7.92,5.12l-4.48-7.761l8.4-4.32l-8.4-4.319
		l4.48-7.761l7.92,5.121l-0.399-9.441h8.96l-0.4,9.441l7.921-5.121l4.479,7.761l-8.4,4.319l8.4,4.32L371.873,187.271z"/>
	<path fill="#FFFFFF" d="M412.353,187.271l-7.921-5.12l0.4,9.439h-8.96l0.399-9.439l-7.92,5.12l-4.48-7.761l8.4-4.32l-8.4-4.319
		l4.48-7.761l7.92,5.121l-0.399-9.441h8.96l-0.4,9.441l7.921-5.121l4.479,7.761l-8.4,4.319l8.4,4.32L412.353,187.271z"/>
	<path fill="#FFFFFF" d="M452.832,187.271l-7.921-5.12l0.4,9.439h-8.96l0.399-9.439l-7.92,5.12l-4.48-7.761l8.4-4.32l-8.4-4.319
		l4.48-7.761l7.92,5.121l-0.399-9.441h8.96l-0.4,9.441l7.921-5.121l4.479,7.761l-8.4,4.319l8.4,4.32L452.832,187.271z"/>
	<path fill="#FFFFFF" d="M493.312,187.271l-7.921-5.12l0.4,9.439h-8.96l0.399-9.439l-7.92,5.12l-4.48-7.761l8.4-4.32l-8.4-4.319
		l4.48-7.761l7.92,5.121l-0.399-9.441h8.96l-0.4,9.441l7.921-5.121l4.479,7.761l-8.4,4.319l8.4,4.32L493.312,187.271z"/>
</g>
</svg>
