<?xml version="1.0" encoding="utf-8"?>
<!-- Generator: Adobe Illustrator 16.0.4, SVG Export Plug-In . SVG Version: 6.00 Build 0)  -->
<!DOCTYPE svg PUBLIC "-//W3C//DTD SVG 1.1//EN" "http://www.w3.org/Graphics/SVG/1.1/DTD/svg11.dtd">
<svg version="1.1" id="レイヤー_1" xmlns="http://www.w3.org/2000/svg" xmlns:xlink="http://www.w3.org/1999/xlink" x="0px"
	 y="0px" width="238.562px" height="116.994px" viewBox="0 0 238.562 116.994" enable-background="new 0 0 238.562 116.994"
	 xml:space="preserve">
<g display="none">
	<path display="inline" fill="#165D6D" d="M36.001,9.205c4.391,0,8.91,2.711,8.91,8.135c0,7.619-6.457,11.105-12.784,11.105
		c-7.361,0-11.88-4.391-11.88-10.847c0-2.066,0.517-5.166,2.195-8.136C27.607,0.036,38.971-3.063,53.176-3.063
		c10.718,0,30.476,2.066,30.476,16.529c0,13.301-15.625,18.079-29.959,22.47c-5.294,1.55-13.688,3.745-18.854,5.553
		c11.105-0.517,23.502-0.517,35.899-0.904c7.103-0.258,8.135-4.003,9.943-10.33h3.874l-7.103,28.797h-68.7l2.195-11.493
		c20.145-9.427,22.469-10.46,26.989-12.913c8.265-4.52,19.112-11.364,19.112-21.565c0-4.391-2.712-11.106-11.493-11.106
		c-6.974,0-13.301,3.487-13.301,6.199c0,1.033,0.775,1.033,1.162,1.033H36.001z"/>
	<path display="inline" fill="#165D6D" d="M101.481,28.206l-2.91,12.105c3.375-1.28,11.756-4.307,21.999-4.307
		c1.862,0,10.243,0.116,16.994,3.375c8.031,3.725,12.337,10.592,12.337,19.438c0,2.561-0.465,5.121-1.164,7.565
		c-5.005,16.993-21.649,20.718-36.781,20.718c-3.608,0-14.433,0-21.067-7.216C87.979,76.859,86,72.437,86,67.198
		c0-8.729,5.704-14.316,13.036-14.316c4.54,0,11.174,2.328,11.174,11.29c0,9.777-8.497,11.174-10.708,11.523
		c-1.629,0.349-3.143,0.582-3.143,2.211c0,1.397,1.629,4.656,8.613,4.656c10.708,0,16.411-10.825,16.411-25.142
		c0-3.143-0.232-7.449-2.91-11.057c-2.211-3.26-6.169-4.772-10.01-4.772c-4.19,0-8.031,1.746-11.407,4.19l-3.259-2.328l6.983-28.749
		c1.513-7.683,2.211-9.777,9.894-9.777h32.125h2.91c2.328,0,3.492-0.233,4.656-3.841h3.608c-0.582,3.841-2.794,13.967-3.375,16.062
		c-1.979,6.519-4.656,10.011-8.962,10.825c-0.815,0.116-1.513,0.116-5.704,0.232H101.481z"/>
	<path display="inline" fill="#165D6D" d="M229.633-19.05c-6.286,0.815-8.962,1.164-13.735,3.143
		c-10.475,4.307-17.692,12.222-23.046,25.84c-0.582,1.513-1.164,3.026-1.746,4.539c0-0.232,6.751-6.169,17.459-6.169
		c4.19,0,9.079,1.048,12.803,3.608c6.867,4.889,7.216,12.57,7.216,15.597c0,8.497-3.492,15.248-7.1,19.903
		c-5.936,7.683-15.015,13.27-29.913,13.27c-5.936,0-9.777-0.932-11.64-1.397c-13.851-3.841-21.067-14.898-21.067-28.517
		c0-19.321,13.851-33.986,25.606-41.552c9.428-6.052,25.025-12.338,39.341-12.338c3.026,0,4.889,0.233,6.401,0.466L229.633-19.05z
		 M190.292,20.292c-3.026,5.354-6.635,24.093-6.635,30.611c0,3.491,1.513,6.053,5.122,6.053c3.958,0,6.169-3.143,7.682-9.661
		c2.793-11.523,3.957-19.787,4.423-24.21c0.698-6.518-2.211-7.682-3.841-7.682C195.529,15.403,192.619,16.102,190.292,20.292z"/>
</g>
<g display="none">
	<path display="inline" fill="#165D6D" d="M32.708,134.271c-5.795,10.104-13.001,18.648-21.1,18.648
		c-6.538,0-10.921-4.978-5.572-18.351l8.618-21.175H25.13l-9.51,23.552c-3.343,8.321-2.006,9.436-0.594,9.436
		c3.269,0,8.692-5.869,13.893-14.858C30.331,131.597,32.263,133.008,32.708,134.271z M17.775,103.884c0-3.194,2.6-5.795,5.795-5.795
		c3.194,0,5.943,2.601,5.943,5.795c0,3.195-2.749,5.944-5.943,5.944C20.375,109.828,17.775,107.079,17.775,103.884z"/>
	<path display="inline" fill="#165D6D" d="M74.092,134.271c-5.944,10.327-12.853,18.648-21.323,18.648
		c-7.207,0-10.476-5.424-5.201-18.574l1.709-4.309c1.486-3.566,2.6-6.39,2.6-7.504c0-0.966-0.817-1.561-1.932-1.561
		c-1.932,0-5.349,1.635-8.544,5.275L31,151.953H20.525l15.602-38.56l8.916,3.938c1.486-1.412,6.389-4.904,11.516-4.904
		c4.235,0,6.687,2.304,6.687,6.241c0,2.08-0.743,4.755-2.303,8.618l-3.863,9.658c-3.492,8.544-1.857,9.436-0.594,9.436
		c3.269,0,8.544-5.869,13.819-14.858C71.714,131.597,73.646,133.008,74.092,134.271z"/>
	<path display="inline" fill="#165D6D" d="M96.83,134.271c-5.572,9.733-13.002,18.648-21.992,18.648
		c-7.058,0-11.292-5.052-5.943-18.351l8.618-21.175h-6.389l2.154-5.274h6.315l3.863-9.436h10.476l-3.863,9.436h6.167l-2.154,5.274
		h-6.092l-9.51,23.552c-3.417,8.47-1.783,9.51-0.148,9.51c3.938,0,9.436-5.943,14.71-14.933
		C94.453,131.597,96.384,133.008,96.83,134.271z"/>
	<path display="inline" fill="#165D6D" d="M132.791,134.271c-5.126,8.916-13.967,18.648-27.415,18.648
		c-9.361,0-14.042-4.681-14.042-12.481c0-10.179,7.875-28.01,22.66-28.01c8.024,0,14.042,5.796,9.361,15.899
		c-3.269,7.207-9.436,10.698-21.769,9.213c0,0-2.823,8.841,6.612,8.841c7.429,0,15.453-5.498,20.802-14.858
		C130.413,131.597,132.345,133.008,132.791,134.271z M103.37,131.894c6.909,1.114,9.435-2.154,10.996-5.943
		c1.412-3.047,1.634-5.127-0.966-5.127C107.604,120.823,103.37,131.894,103.37,131.894z"/>
	<path display="inline" fill="#165D6D" d="M129.005,131.522c1.708-3.121,3.938-7.578,6.092-12.333
		c-1.337-1.412-2.303-2.823-2.303-4.606c0-3.715,3.789-7.504,6.835-8.47l4.532,2.749l-2.526,6.166
		c3.046,2.675,11.07,6.538,11.07,11.888c0,0.892-0.223,2.006-0.892,3.715l-2.452,6.24c-3.418,8.396-1.635,9.51-0.52,9.51
		c2.303,0,6.092-4.903,11.887-14.858c1.411,0.074,3.343,1.485,3.789,2.748c-5.646,9.882-11.516,18.648-19.317,18.648
		c-5.795,0-11.07-4.458-5.795-17.459l2.526-6.241c0.594-1.485,0.668-2.229,0.668-2.601c0-1.485-1.56-2.749-3.714-4.605
		c-1.932,4.457-3.938,8.395-6.092,12.258C131.382,134.196,129.451,132.785,129.005,131.522z"/>
	<path display="inline" fill="#165D6D" d="M205.902,134.271c-5.944,10.327-12.853,18.648-21.323,18.648
		c-7.207,0-10.476-5.424-5.201-18.574l1.709-4.309c1.486-3.566,2.6-6.39,2.6-7.504c0-0.966-0.817-1.561-1.932-1.561
		c-1.932,0-5.349,1.635-8.544,5.275l-10.401,25.706h-10.476l15.602-38.56l8.916,3.938c1.486-1.412,6.389-4.904,11.516-4.904
		c4.235,0,6.687,2.304,6.687,6.241c0,2.08-0.743,4.755-2.303,8.618l-3.863,9.658c-3.492,8.544-1.857,9.436-0.594,9.436
		c3.269,0,8.544-5.869,13.819-14.858C203.525,131.597,205.457,133.008,205.902,134.271z"/>
	<path display="inline" fill="#165D6D" d="M202.117,131.522c3.046-5.275,7.875-14.488,10.698-20.729l8.916,2.6
		c-2.154,10.401-0.594,22.289-0.52,26.821c0,2.08-0.148,3.417-0.52,4.681c4.012-2.749,7.504-7.578,10.847-13.373
		c1.412,0.074,3.343,1.485,3.789,2.748c-5.424,9.659-12.259,18.648-24.592,18.648c-8.321,0-11.665-4.606-11.813-5.052l5.721-3.566
		c0.892,0.966,1.783,1.337,2.972,1.337c2.526,0,4.012-1.932,4.012-9.063c0-3.418-0.297-8.396-0.148-12.779
		c-1.932,3.789-4.012,7.652-5.572,10.476C204.494,134.196,202.562,132.785,202.117,131.522z"/>
</g>
<g>
	<path fill="#2C2461" d="M51.207,43.602c16.985-10.163,32.578-18.864,32.578-28.122c0-4.246-3.341-6.544-6.683-6.544
		c-3.202,0-5.5,2.089-6.334,4.177c1.322,1.044,2.158,2.646,2.158,4.455c0,3.133-2.576,5.639-5.708,5.639
		c-3.968,0-6.474-3.202-6.474-7.518C60.744,9.284,66.382,1,78.077,1c11.555,0,16.498,8.214,16.498,15.036
		c0,8.91-8.91,17.542-24.155,25.129h17.681l-2.924,9.537H53.852L51.207,43.602z"/>
	<path fill="#2C2461" d="M112.462,51.677c-11.208,0-17.472-7.866-17.472-14.2c0-3.829,2.506-7.101,6.404-7.101
		c3.133,0,5.708,2.575,5.708,5.708c0,1.601-0.696,3.062-1.74,4.107c0.348,1.461,2.436,3.619,6.265,3.619
		c5.151,0,9.119-4.315,9.119-9.954c0-3.968-2.576-7.657-7.866-7.657c-1.74,0-3.689,0.487-5.847,1.601l-5.569-3.968l8.632-21.857
		h27.844l-2.993,9.537h-19.491l-3.202,7.936c1.671-0.627,2.924-0.975,4.803-0.975c8.284,0,14.549,5.708,14.549,14.34
		C131.605,41.305,125.41,51.677,112.462,51.677z"/>
	<path fill="#2C2461" d="M167.872,9.562c-0.766-0.627-1.81-1.114-3.272-1.114c-6.404,0-12.46,8.771-13.783,16.289
		c2.645-2.715,6.126-4.455,9.537-4.455c6.822,0,13.435,4.246,13.435,13.714c0,10.302-7.866,17.681-18.168,17.681
		c-8.91,0-16.707-5.43-16.707-18.238C138.914,18.473,149.425,1,164.809,1c8.771,0,13.644,5.569,13.644,10.65
		c0,3.689-2.297,6.961-6.125,6.961c-3.133,0-5.639-2.506-5.639-5.638C166.688,11.721,167.106,10.537,167.872,9.562z M156.038,43.323
		c4.455,0,7.796-3.759,7.796-8.283c0-3.759-2.576-6.822-6.404-6.822c-4.176,0-8.005,3.62-8.005,8.145
		C149.425,39.634,151.443,43.323,156.038,43.323z"/>
	<path fill="#2C2461" d="M19.223,76.947l-7.239,23.667c-0.905,2.993-0.487,5.36,2.228,5.36c3.898,0,7.657-5.221,11.555-13.156
		c1.323,0.069,3.271,1.113,3.968,1.949c-4.942,10.789-11.068,18.308-19.491,18.308c-8.145,0-10.164-6.753-7.727-14.827L9.06,76.947
		H19.223z M17.134,60.937c3.411,0,5.987,2.715,5.987,6.056c0,3.342-2.576,5.917-5.987,5.917c-3.341,0-5.917-2.575-5.917-5.917
		C11.217,63.651,13.793,60.937,17.134,60.937z"/>
	<path fill="#2C2461" d="M30.499,76.947l8.771,4.524c2.924-3.271,6.195-5.151,9.954-5.151c7.936,0,10.094,7.379,7.796,14.827
		l-3.132,10.232c-0.766,2.367-0.835,4.595,1.253,4.595c3.132,0,7.17-5.36,10.999-13.156c1.323,0.069,3.271,1.113,3.968,1.949
		c-4.803,10.511-11.277,18.308-19.212,18.308c-8.145,0-8.354-8.006-6.543-13.923l2.437-7.727c1.114-3.55,0.696-6.613-2.854-6.613
		c-2.785,0-5.082,2.02-7.101,4.525l-7.031,23.11H19.64L30.499,76.947z"/>
	<path fill="#2C2461" d="M66.625,76.947h4.246l2.715-8.91l11.138-3.063l-3.689,11.974h9.188l-2.297,7.656h-9.258l-4.385,14.34
		c-1.462,4.804,0,7.031,2.993,7.031c4.803,0,10.024-6.335,13.365-13.156c1.322,0.069,3.271,1.113,3.968,1.949
		c-4.733,10.371-11.277,18.308-20.744,18.308c-10.024,0-11.416-8.493-8.84-16.847l3.48-11.625h-4.177L66.625,76.947z"/>
	<path fill="#2C2461" d="M130.388,94.768c-4.803,10.511-12.739,18.516-24.712,18.516c-10.302,0-16.846-5.847-16.846-15.453
		c0-10.512,7.936-21.51,19.909-21.51c7.727,0,12.53,4.595,12.53,9.954c0,6.057-5.917,13.783-21.37,13.365
		c0.905,4.177,4.107,6.613,8.979,6.613c6.683,0,13.296-4.803,17.542-13.435C127.743,92.888,129.691,93.932,130.388,94.768z
		 M99.759,94.976c8.562-0.139,12.321-3.897,12.321-6.961c0-1.601-0.975-3.062-3.48-3.062
		C104.214,84.952,100.525,89.477,99.759,94.976z"/>
	<path fill="#2C2461" d="M126.419,92.818c1.462-3.202,2.923-6.753,4.176-10.372c-1.461-1.393-2.436-3.133-2.436-5.36
		c0-3.55,2.715-6.265,6.125-6.265c2.506,0,4.386,1.322,5.36,3.062l-2.088,5.36l1.879,0.696c7.518,2.993,11.694,5.847,9.188,14.061
		l-2.228,7.379c-0.766,2.367-0.835,4.595,1.253,4.595c3.133,0,7.17-5.36,10.999-13.156c1.323,0.069,3.272,1.113,3.968,1.949
		c-4.803,10.511-11.277,18.308-19.212,18.308c-8.145,0-8.354-8.006-6.543-13.923l2.019-6.474c1.114-3.689,1.323-5.499-1.461-6.613
		l-3.063-1.322c-1.114,3.342-2.437,6.752-3.968,10.024C128.995,94.697,127.045,93.653,126.419,92.818z"/>
	<path fill="#2C2461" d="M163.381,76.947l8.771,4.524c2.923-3.271,6.195-5.151,9.954-5.151c7.936,0,10.094,7.379,7.796,14.827
		l-3.132,10.232c-0.766,2.367-0.835,4.595,1.253,4.595c3.132,0,7.17-5.36,10.999-13.156c1.323,0.069,3.271,1.113,3.968,1.949
		c-4.803,10.511-11.277,18.308-19.212,18.308c-8.145,0-8.354-8.006-6.543-13.923l2.437-7.727c1.114-3.55,0.696-6.613-2.854-6.613
		c-2.785,0-5.082,2.02-7.101,4.525l-7.031,23.11h-10.163L163.381,76.947z"/>
	<path fill="#2C2461" d="M193.8,99.361c0-5.848,3.968-7.866,6.474-7.448c2.576-4.873,5.638-12.112,7.448-17.611l8.145,1.81
		c2.645,8.492,8.91,15.384,8.91,23.668c0,1.81-0.278,3.55-0.835,5.151c3.829-2.715,6.404-6.892,8.98-12.112
		c1.322,0.069,3.271,1.113,3.968,1.949c-4.803,10.511-11.764,18.516-26.035,18.516C200.691,113.283,193.8,106.393,193.8,99.361z
		 M208.975,83.351c-1.462,3.62-3.132,7.24-4.873,10.581c0.835,0.975,1.392,2.228,1.392,3.62c0,2.088-1.183,3.898-2.854,4.872
		c0.557,2.367,2.715,4.177,5.708,4.177c3.55,0,6.056-2.645,6.056-6.961C214.404,94.768,210.924,89.268,208.975,83.351z"/>
</g>
</svg>
