<svg id="materials" xmlns="http://www.w3.org/2000/svg" viewBox="0 0 615.37 216.04"><defs><style>.cls-1{fill:#ef6085;}.cls-2{fill:#eda921;}.cls-3{fill:#f8ed00;}.cls-4{fill:#474747;}.cls-5{fill:#fff;}</style></defs><title>logo-lg</title><circle class="cls-1" cx="307.68" cy="108.02" r="108"/><path class="cls-2" d="M390.75,108A83.08,83.08,0,1,1,307.67,25h0A83.07,83.07,0,0,1,390.75,108Z"/><path class="cls-3" d="M371.58,109.93a62,62,0,1,1-62-62h0A62,62,0,0,1,371.58,109.93Z"/><path class="cls-4" d="M582.62,95.36c0,5-3.21,9.49-8.84,9.49a9.49,9.49,0,0,1,0-19C579.41,85.88,582.62,90.38,582.62,95.36Zm20.75-.08A30,30,0,0,1,598.59,112a26.52,26.52,0,0,1-12.37,10A27.92,27.92,0,0,1,576,124c-.7,0-1.39-.06-2.08-.12v3.84a13.76,13.76,0,0,1-1.47,5.77,14.31,14.31,0,0,1-3.36,4.35,15,15,0,0,1-10,3.76,15.29,15.29,0,0,1-7.77-2.1,14.32,14.32,0,0,1-5.66-6.1,13.57,13.57,0,0,1-1.36-5.95v-4.89a15.4,15.4,0,0,1-5.77,1.12,15.06,15.06,0,0,1-7.81-2.18,14.87,14.87,0,0,1-4.06-3.66,15.19,15.19,0,0,1-19.81,3.66,14.77,14.77,0,0,1-4.1-3.72,14.3,14.3,0,0,1-2,2.2,15.23,15.23,0,0,1-17.8,1.52,14.44,14.44,0,0,1-2.49-1.93L480,120a15.2,15.2,0,0,1-10,3.7,14.94,14.94,0,0,1-7.2-1.86A22.9,22.9,0,0,1,453.1,124a27.35,27.35,0,0,1-15-4.37,26,26,0,0,1-4.94-4.17A37.28,37.28,0,0,1,409.07,124a36.89,36.89,0,0,1-14.62-3,36.29,36.29,0,0,1-11.8-8.11,36.7,36.7,0,0,1-6.26-8.69v5.28a13.85,13.85,0,0,1-1.36,5.95,14.28,14.28,0,0,1-3.45,4.5,15.24,15.24,0,0,1-17.81,1.52,14.58,14.58,0,0,1-5.51-5.93,13.64,13.64,0,0,1-.68-1.61,24.83,24.83,0,0,1-2,2.12A29.16,29.16,0,0,1,325.27,124a29.66,29.66,0,0,1-15.95-4.51,27.43,27.43,0,0,1-6.64-6,30,30,0,0,1-38.59,6,27.33,27.33,0,0,1-6.51-5.78,25.33,25.33,0,0,1-10.26,7.55,28.89,28.89,0,0,1-10.83,2H217.37a14.18,14.18,0,0,1-4.36-.68,13.58,13.58,0,0,1-3.93-2,14.23,14.23,0,0,1-2.11-2A15,15,0,0,1,205.6,120a15.2,15.2,0,0,1-10,3.7,15,15,0,0,1-7.2-1.86,22.9,22.9,0,0,1-9.68,2.18,27.35,27.35,0,0,1-15-4.37A26.86,26.86,0,0,1,153.47,107a31.53,31.53,0,0,1-2.15-11.7c-.51,0-1,0-1.36,0a4.16,4.16,0,0,0-.08.43,29.7,29.7,0,0,0-.38,4.69v9.13a13.57,13.57,0,0,1-1.36,5.95,14,14,0,0,1-3.45,4.5,15.23,15.23,0,0,1-17.8,1.52,14.62,14.62,0,0,1-5.1-5.23A29.18,29.18,0,0,1,101.68,124a29.63,29.63,0,0,1-16-4.51c-.82-.53-1.61-1.11-2.38-1.72a38,38,0,0,1-.65,6,25,25,0,0,1-2.65,7.39,19.88,19.88,0,0,1-3.39,4.45,19.63,19.63,0,0,1-6.42,4.22,26.43,26.43,0,0,1-10.18,1.84H57.81a14.67,14.67,0,0,1-7.87-2.27A14.08,14.08,0,0,1,48,116.9a14.68,14.68,0,0,1,5.76-3.13V99a15.37,15.37,0,0,1-1.49.83,13.49,13.49,0,0,1-5.72,1.28H42.08V109a14.3,14.3,0,0,1-1.3,5.94,14.69,14.69,0,0,1-3.34,4.62A15.24,15.24,0,0,1,27,123.66a15.33,15.33,0,0,1-13.65-8.59A14,14,0,0,1,12,109V63.43a15.75,15.75,0,0,1,1.08-5.28,13.77,13.77,0,0,1,3.39-5,13.5,13.5,0,0,1,3.66-2.43,14,14,0,0,1,5.71-1.18H51.31A13.56,13.56,0,0,1,57,50.79c.23.1.45.23.68.35a16.57,16.57,0,0,1,19.73-1.68,15.59,15.59,0,0,1,6,6.91,15.42,15.42,0,0,1,1.32,6.29,15.4,15.4,0,0,1-4,10.43,13.54,13.54,0,0,1,.79,1.27,27.66,27.66,0,0,1,9.22-5.74,30.89,30.89,0,0,1,10.93-2,30.06,30.06,0,0,1,15.88,4.39,26.73,26.73,0,0,1,4.26,3.26,14.52,14.52,0,0,1,2.91-3.56,15.11,15.11,0,0,1,10-3.77,15.43,15.43,0,0,1,7.13,1.78,16.85,16.85,0,0,1,2.43-1.08,17.82,17.82,0,0,1,6-1,24.49,24.49,0,0,1,4,.3,16.46,16.46,0,0,1,5,1.62,13.59,13.59,0,0,1,3.61,2.72l.2.25a26.18,26.18,0,0,1,5.51-3,27.79,27.79,0,0,1,10.24-1.93,18.88,18.88,0,0,1,2.08.13V60.46a13.8,13.8,0,0,1,1.47-5.78,14.56,14.56,0,0,1,3.36-4.35,15.08,15.08,0,0,1,10-3.76,15.34,15.34,0,0,1,7.78,2.11,14.4,14.4,0,0,1,4.69,4.42,13,13,0,0,1,3.59-2.37,13.94,13.94,0,0,1,5.7-1.18h17.52a29,29,0,0,1,11,2,23.25,23.25,0,0,1,9,6.39,23,23,0,0,1,3.84,6.35,26.14,26.14,0,0,1,1.8,9.52,28.1,28.1,0,0,1,8.66-5.22,31,31,0,0,1,10.94-2,30.09,30.09,0,0,1,15.88,4.39A27.32,27.32,0,0,1,302.67,77a27.62,27.62,0,0,1,11.67-8.34,30.89,30.89,0,0,1,10.93-2,30.12,30.12,0,0,1,15.89,4.39c.57.35,1.14.73,1.69,1.13A13.22,13.22,0,0,1,346.79,69V66.49a13.76,13.76,0,0,1,1.47-5.78,14.56,14.56,0,0,1,3.36-4.35,15.08,15.08,0,0,1,10-3.76,15.29,15.29,0,0,1,7.77,2.1A14.31,14.31,0,0,1,375,60.81a13.78,13.78,0,0,1,1.36,6v1.62l.13.05c.52-1,1.07-2,1.68-2.88a36.35,36.35,0,0,1,16.25-13.69A38,38,0,0,1,434.9,59h0l0,0,.13.12h0a13.1,13.1,0,0,1,3.2,4.84,14.48,14.48,0,0,1,.91,5.07c0,.47,0,.93-.08,1.39a27.42,27.42,0,0,1,14-3.77,19.69,19.69,0,0,1,3,.23,23.57,23.57,0,0,1,3.4.74,24.47,24.47,0,0,1,3.24,1.24A15,15,0,0,1,470,67a15.4,15.4,0,0,1,7.77,2.11,14.38,14.38,0,0,1,2.62,2l.36-.35a15.09,15.09,0,0,1,10-3.77,15.33,15.33,0,0,1,6.82,1.63,20.27,20.27,0,0,1,8.61-2,28.23,28.23,0,0,1,6.73.75,20.85,20.85,0,0,1,5.65,2.29A21.5,21.5,0,0,1,525,67.08a20,20,0,0,1,4.41-.5A25.07,25.07,0,0,1,540,68.78a21.4,21.4,0,0,1,6.59,4.76,14.34,14.34,0,0,1,2.5-2.86,15.1,15.1,0,0,1,17.22-1.81,23.53,23.53,0,0,1,5.59-1.8,21.54,21.54,0,0,1,4.05-.41A27.59,27.59,0,0,1,590.89,71,26.61,26.61,0,0,1,601.2,83.58,31.38,31.38,0,0,1,603.37,95.28ZM56.13,63.94a5,5,0,0,0-4.82-5.22H25.84c-3,0-4.59,2.25-4.67,5V109c0,2.9,2.82,5.47,5.87,5.47A5.73,5.73,0,0,0,32.91,109V91.91H46.57a5.1,5.1,0,0,0,4.82-5.06,4.94,4.94,0,0,0-4.82-5.07H32.91V69.09h18.4A5.24,5.24,0,0,0,56.13,63.94ZM74.2,81.14c0-2.81-2.57-5-5.62-5a5.49,5.49,0,0,0-5.63,5v35.28c0,2.65-.8,5.94-4.9,5.94h-.24c-2.81.08-5.3,2-5.3,5a5.16,5.16,0,0,0,5.3,5.14h2.25c10.61,0,14.14-6.35,14.14-16.31Zm1.37-18.48a6.63,6.63,0,0,0-6.91-6.51,6.75,6.75,0,0,0-7,6.51,6.82,6.82,0,0,0,7,6.59A6.7,6.7,0,0,0,75.57,62.66ZM121.45,95.2c0-11.81-8.84-19.36-19.77-19.36S82,83.39,82,95.2s8.76,19.61,19.69,19.61S121.45,107,121.45,95.2Zm28.76-19.36c-3.86,0-7.79,2.41-9.88,9.4v-4.1c0-2.81-2.57-5-5.63-5a5.48,5.48,0,0,0-5.62,5v28.37a5.48,5.48,0,0,0,5.62,5c3.06,0,5.63-2.17,5.63-5v-9.24c.16-9.41,2.25-14.23,8.52-14.23.72,0,1.92.08,2.73.08,2.49,0,5.14-1.28,5.54-4.1C157.85,76.72,153.91,75.84,150.21,75.84Zm51-15.11c0-2.81-2.57-5-5.62-5a5.49,5.49,0,0,0-5.63,5V81.86a13.89,13.89,0,0,0-11.25-6c-9.56,0-18.24,7-18.24,19.44s8.68,19.53,18.24,19.53a13.31,13.31,0,0,0,11.25-6v.73a5.49,5.49,0,0,0,5.63,5c3,0,5.62-2.17,5.62-5Zm52.94,36.4a13.43,13.43,0,0,0-10.44-12.61c5.7-2.17,7.55-6.76,7.55-10.37,0-9.48-6.43-15.43-16.39-15.43H217.37c-3,0-4.58,2.25-4.66,5v45.4c0,2.66,1.69,5,4.66,5h19.12C247.5,114.09,254.17,106.29,254.17,97.13Zm45.64-1.93c0-11.81-8.84-19.36-19.77-19.36s-19.69,7.55-19.69,19.36,8.76,19.61,19.69,19.61S299.81,107,299.81,95.2Zm45.23,0c0-11.81-8.84-19.36-19.77-19.36s-19.68,7.55-19.68,19.36,8.75,19.61,19.68,19.61S345,107,345,95.2ZM375.49,81a4.23,4.23,0,0,0-4-4.42h-4.26v-9.8c0-2.82-2.57-5-5.62-5a5.49,5.49,0,0,0-5.63,5v9.8h-3a4.23,4.23,0,0,0-4,4.42,4.34,4.34,0,0,0,4,4.42h3v24.11a5.49,5.49,0,0,0,5.63,5c3.05,0,5.62-2.17,5.62-5V85.4h4.26A4.34,4.34,0,0,0,375.49,81ZM428,73.75c2.25-2,2.81-6.11.72-8a27.84,27.84,0,0,0-19.61-7.63,27.37,27.37,0,0,0-25.64,17.19,13.84,13.84,0,0,1-.8,12.92,14,14,0,0,1-1.17,1.61c1.56,14.15,12.92,25,27.61,25a27.84,27.84,0,0,0,19.61-7.63c2.09-1.93,1.53-6-.72-8a5.84,5.84,0,0,0-7.56-.08,16.27,16.27,0,0,1-11.33,4.34c-9.16,0-16.07-7.55-16.07-17s6.91-17,16.07-17a16.27,16.27,0,0,1,11.33,4.34A5.84,5.84,0,0,0,428,73.75Zm-3.87,10.6a14.76,14.76,0,0,1-9.75-3.64l-.24-.21A6.31,6.31,0,0,0,412,79.18a8,8,0,0,0-2.94-.52,6.55,6.55,0,0,0-2.67.55,6.37,6.37,0,0,0-2.11,1.51,8.28,8.28,0,0,0-2.11,5.72,8.58,8.58,0,0,0,1.26,4.62,6.79,6.79,0,0,0,3,2.62,6.55,6.55,0,0,0,2.67.54A8,8,0,0,0,412,93.7a6.45,6.45,0,0,0,2.09-1.31l.24-.22a14.75,14.75,0,0,1,9.75-3.63,15.26,15.26,0,0,1,2.24.18,29.27,29.27,0,0,1,1.41-4.83A15.15,15.15,0,0,1,424.09,84.35Zm51.51-3.21c0-2.81-2.57-5-5.62-5a5.49,5.49,0,0,0-5.63,5v.72a13.89,13.89,0,0,0-11.25-6c-9.56,0-18.24,7-18.24,19.44s8.68,19.53,18.24,19.53a13.31,13.31,0,0,0,11.25-6v.73a5.49,5.49,0,0,0,5.63,5c3,0,5.62-2.17,5.62-5Zm68.54,11.65c-.08-11.33-5.79-17-14.71-17a12.1,12.1,0,0,0-10.93,7.15c-2.49-5.15-6.42-7.07-12.37-7.07a10.73,10.73,0,0,0-9.8,6.18v-.88c0-2.81-2.58-5-5.63-5a5.48,5.48,0,0,0-5.62,5v28.37a5.48,5.48,0,0,0,5.62,5c3.05,0,5.63-2.17,5.63-5V94.24c0-5.71,3.13-7.64,6.51-7.64,3.21,0,6.18,2.5,6.18,7.24v15.67a5.49,5.49,0,0,0,5.63,5c3.05,0,5.62-2.17,5.62-5V94.24c0-5.47,2.81-7.64,6.35-7.64,3.3,0,6.27,2.58,6.27,7.48v15.43a5.48,5.48,0,0,0,5.62,5c3.06,0,5.63-2.17,5.63-5Zm50.05,2.49c0-12.45-8.68-19.44-18.24-19.44a13.89,13.89,0,0,0-11.25,6v-.72a5.49,5.49,0,0,0-5.63-5c-3.05,0-5.62,2.17-5.62,5v46.29c0,2.81,2.57,5,5.62,5a5.49,5.49,0,0,0,5.63-5V108.78a13.31,13.31,0,0,0,11.25,6C585.51,114.81,594.19,107.74,594.19,95.28Zm-138.92-9.4c-5.62,0-8.84,4.5-8.84,9.48s3.22,9.49,8.84,9.49a9.49,9.49,0,0,0,0-19ZM333.79,95.2a8.48,8.48,0,1,1-17,0,8.48,8.48,0,1,1,17,0ZM325,95.09l-.11-.17.11.17Zm-36.47.11a8.48,8.48,0,1,1-17,0,8.48,8.48,0,1,1,17,0Zm-8.76-.11-.11-.17.11.17Zm-44.19-5H224.52v13.58h11.33c3.94,0,6-3.62,6-6.91C241.8,93.68,239.79,90.14,235.61,90.14ZM238.91,75c0-3.45-1.77-5.86-5.23-5.86h-9.16V80.82h9.24C236.82,80.82,238.91,78.25,238.91,75ZM101.68,86.68a8.31,8.31,0,0,0-8.44,8.52,8.48,8.48,0,1,0,17,0A8.33,8.33,0,0,0,101.68,86.68Zm79.22-.8c-5.62,0-8.84,4.5-8.84,9.48s3.22,9.49,8.84,9.49a9.49,9.49,0,0,0,0-19ZM461.07,140a1.32,1.32,0,1,0,0,2.63,1.32,1.32,0,1,0,0-2.63Zm7.78-2a8.45,8.45,0,0,1-.7,7.91,8.58,8.58,0,0,1-1.83,2c-.06.36-.12.73-.2,1.11a25.38,25.38,0,0,1-1.08,3.81,25.06,25.06,0,0,1-5.24,8.64,23.73,23.73,0,0,1-5.44,4.28,28,28,0,0,1-5.2,2.36,22.54,22.54,0,0,1-2.87.78c-.52.11-1,.18-1.43.23s-.58,0-.86,0a7.4,7.4,0,0,1-3-.61,7.31,7.31,0,0,1-2.31-1.62,7.88,7.88,0,0,1-1-1.25,8.31,8.31,0,0,1-.75-1.56,8.79,8.79,0,0,1-.44-1.82,8.64,8.64,0,0,1-.06-1,7,7,0,0,1,.51-2.72,6.72,6.72,0,0,1,1.68-2.42,7.42,7.42,0,0,1,1.29-.95,9,9,0,0,1,1.43-.66,14,14,0,0,1,1.36-.41,14.83,14.83,0,0,0,5.25-2.43h-7.3a7.71,7.71,0,0,1-.84-.08,6.77,6.77,0,0,1-1.14-.25c-.06.15-.12.29-.19.43a31,31,0,0,1-4.76,7.54,25.35,25.35,0,0,1-7.2,5.71,29.24,29.24,0,0,1-6,2.33l-.07,0c-1,.26-2.44.62-3.86.87-.52.08-.95.14-1.36.18s-.62,0-.93,0a7.59,7.59,0,0,1-3.16-.67,7.18,7.18,0,0,1-2.51-1.89,7.38,7.38,0,0,1-1-1.47,7.94,7.94,0,0,1-.68-1.82,8.94,8.94,0,0,1-.24-2.07v-.06a12.56,12.56,0,0,1-2.17,1.78,8.9,8.9,0,0,1-2.18,1l-.06.37a7.16,7.16,0,0,1-.76,2.09,6.61,6.61,0,0,1-1.11,1.51,6.85,6.85,0,0,1-2.23,1.52,8.07,8.07,0,0,1-3.26.64,7.73,7.73,0,0,1-2.66-.44,7,7,0,0,1-2.5-1.53,7.07,7.07,0,0,1-1.89-3.13,9.33,9.33,0,0,1-.32-1.65l-.47-4.69c-.24,0-.47-.08-.69-.13-.12.18-.25.34-.38.5a6.88,6.88,0,0,1-1.32,1.21,7.16,7.16,0,0,1-1.89,1,8.4,8.4,0,0,1-2.21.41l-2.27.13,0,.35c0,.17,0,.42,0,.75a7.93,7.93,0,0,1-.16,1.61,6.85,6.85,0,0,1-2.14,3.82,7.28,7.28,0,0,1-2.31,1.38,8.94,8.94,0,0,1-3.09.51A8.67,8.67,0,0,1,368,169a6.81,6.81,0,0,1-4-3.4,7.28,7.28,0,0,1-.66-1.94,10.5,10.5,0,0,1-.17-1.33v-.08l0-.31-2.66.16-.57,0a7.92,7.92,0,0,1-2.65-.44,7,7,0,0,1-2.38-1.41,7.28,7.28,0,0,1-3,.65,7.66,7.66,0,0,1-1.59-.16,8.4,8.4,0,0,1-1.43-.44,13.37,13.37,0,0,1-1.91-1l-.22-.13v2.58a10.51,10.51,0,0,1-.06,1.2,7.54,7.54,0,0,1-.58,2.13,6.81,6.81,0,0,1-1.06,1.71,7,7,0,0,1-2.41,1.83,8.35,8.35,0,0,1-3.59.74,8.87,8.87,0,0,1-2.93-.46,7.19,7.19,0,0,1-2.82-1.8,6.9,6.9,0,0,1-1.2-1.72,7.16,7.16,0,0,1-.65-2,9.2,9.2,0,0,1-.12-1.62v-3a7.83,7.83,0,0,1-1.71.47,9.76,9.76,0,0,1-1.59.11H308.24a10.14,10.14,0,0,1-1.08,0,8.19,8.19,0,0,1-2.07-.49,7.11,7.11,0,0,1-1.75-1,6.26,6.26,0,0,1-.49-.41,23,23,0,0,1-3.05,4,24.58,24.58,0,0,1-5.43,4.25,29.29,29.29,0,0,1-5.19,2.36,25,25,0,0,1-2.87.79c-.54.1-1,.17-1.45.22a8.71,8.71,0,0,1-.87,0,7.47,7.47,0,0,1-2.94-.6,7.23,7.23,0,0,1-2.31-1.59,7.4,7.4,0,0,1-1-1.25,8.38,8.38,0,0,1-.77-1.56,8.81,8.81,0,0,1-.45-1.82,9,9,0,0,1-.07-1,7.23,7.23,0,0,1,.21-1.75,7.33,7.33,0,0,1-4.41,1.45,7.66,7.66,0,0,1-1.59-.16,8.69,8.69,0,0,1-1.43-.44,14.47,14.47,0,0,1-1.91-1l-.21-.13v2.58a11.08,11.08,0,0,1-.07,1.2,7.87,7.87,0,0,1-.57,2.13,7.14,7.14,0,0,1-1.07,1.71,7,7,0,0,1-2.41,1.83,8.32,8.32,0,0,1-3.59.74,8.77,8.77,0,0,1-2.92-.46,7,7,0,0,1-4-3.52,7.49,7.49,0,0,1-.65-2l0-.3a18.88,18.88,0,0,1-2.27,2,19.31,19.31,0,0,1-4.68,2.62,15.64,15.64,0,0,1-3,.83,10,10,0,0,1-1.76.16,8.65,8.65,0,0,1-3-.51,7.55,7.55,0,0,1-2.71-1.7l-.05-.06-.43.41a8.26,8.26,0,0,1-2.07,1.39,6.82,6.82,0,0,1-3.05.66,8.11,8.11,0,0,1-3-.61,8.5,8.5,0,0,1-2.55-1.66,8.55,8.55,0,0,1-2.51,1.08,11.17,11.17,0,0,1-2.88.33H202.33a8.67,8.67,0,0,1-1.7-.16,7.53,7.53,0,0,1-2.1-.76,6.93,6.93,0,0,1-1.49-1.06,7.1,7.1,0,0,1-1.57-2.19,7.89,7.89,0,0,1-.46-1.29,7.83,7.83,0,0,1-.22,1.54,7.39,7.39,0,0,1-1,2.32,6.93,6.93,0,0,1-3.46,2.58,8.31,8.31,0,0,1-2.73.43,8.94,8.94,0,0,1-1.83-.18,7.43,7.43,0,0,1-2.21-.83,6.86,6.86,0,0,1-2.91-3.36,7.63,7.63,0,0,1-.56-3v-1l-.37.07a7.86,7.86,0,0,1-1.46.13,7.12,7.12,0,0,1-4.86-1.88,24.31,24.31,0,0,1-5.74,5.22,28,28,0,0,1-7,3.3c-.22.07-.61.19-1.09.32a15.74,15.74,0,0,1-1.76.38,10.26,10.26,0,0,1-1.6.13,7.44,7.44,0,0,1-3-.61,7.22,7.22,0,0,1-2.34-1.65,7.61,7.61,0,0,1-1-1.27,8.45,8.45,0,0,1-1.15-3.36,7.69,7.69,0,0,1-.06-.95,7.3,7.3,0,0,1,.52-2.74,7,7,0,0,1,3-3.36,8.92,8.92,0,0,1,1.41-.65c.48-.17.9-.29,1.23-.38l.08,0a15.29,15.29,0,0,0,5-2.25,9.74,9.74,0,0,0,.83-.68h-7.72c-.29,0-.56,0-.84-.07a7.67,7.67,0,0,1-2.49-.81,7,7,0,0,1-1.93-1.51,7.28,7.28,0,0,1-1.63-3.2,9.16,9.16,0,0,1-.2-1.91,8.22,8.22,0,0,1,.57-3.1,6.93,6.93,0,0,1,3.63-3.78,7.74,7.74,0,0,1,1.88-.57,8.8,8.8,0,0,1,1.48-.11h17a10.2,10.2,0,0,1,3.27.5,7.62,7.62,0,0,1,3,1.88A7.38,7.38,0,0,1,178,140a7.88,7.88,0,0,1,.72,2.23,9.5,9.5,0,0,1,.13,1.69v.39c0,.09,0,.2,0,.33,0,.32-.05.66-.08,1,0,.14,0,.28-.05.41.52-.18,1.08-.38,1.68-.62a31.53,31.53,0,0,0,5.46-2.85l.34-.23.43-.33,1.81-1.5.71-.59a7.87,7.87,0,0,1,1.64-1.08,6.93,6.93,0,0,1,2-.64,7.2,7.2,0,0,1,1.05-.08,7.31,7.31,0,0,1,2.26.36l.25.08a7.42,7.42,0,0,1,.78-1,6.71,6.71,0,0,1,1.46-1.13,7.57,7.57,0,0,1,1.81-.74,7.42,7.42,0,0,1,1.69-.25h15.71a11.18,11.18,0,0,1,2.81.32,8.16,8.16,0,0,1,3,1.38,7.4,7.4,0,0,1,1.67,1.68l.05.07a7.4,7.4,0,0,1,.39-.8,6.87,6.87,0,0,1,3.5-3,8.42,8.42,0,0,1,3.07-.54,9.25,9.25,0,0,1,1.94.19,8,8,0,0,1,1.48.47,8,8,0,0,1,1.11-.5,8.53,8.53,0,0,1,2.88-.46,9.26,9.26,0,0,1,1.86.17,7.43,7.43,0,0,1,2.25.85,6.52,6.52,0,0,1,1.52,1.18,6.74,6.74,0,0,1,1.42,2.22,7.77,7.77,0,0,1,.53,2.92v3c.22-.06.43-.11.65-.15a7.82,7.82,0,0,1,1.39-.12,7.15,7.15,0,0,1,.9.06,9.43,9.43,0,0,1,1,.17l.49.13V141.5a9.5,9.5,0,0,1,.07-1.23,7.56,7.56,0,0,1,.61-2.19,7,7,0,0,1,3.63-3.54,7.54,7.54,0,0,1,1.61-.49,9.27,9.27,0,0,1,1.78-.17,8.87,8.87,0,0,1,2.93.47,7.19,7.19,0,0,1,2.72,1.71,6.36,6.36,0,0,1,.87-.54,6.56,6.56,0,0,1,1.26-.48,6.8,6.8,0,0,1,1.21-.22,5.72,5.72,0,0,1,.59,0l.65,0c.17-.07.35-.13.54-.19a6.3,6.3,0,0,1,1.29-.27,5.85,5.85,0,0,1,.73,0,6.09,6.09,0,0,1,4.09,1.56,6.53,6.53,0,0,1,.84.9c.16.22.29.41.4.59l.17-.08a7.45,7.45,0,0,1,1.89-.6,8.75,8.75,0,0,1,1.58-.13h12l.1-.22a6.17,6.17,0,0,1,1.58-2,7.05,7.05,0,0,1,1.1-.74,7.47,7.47,0,0,1,1.24-.5,6.57,6.57,0,0,1,1.25-.24c.23,0,.42,0,.66,0a6.3,6.3,0,0,1,1.3.13l.1,0a7.09,7.09,0,0,1,1.22-.22l.58,0h0a6.38,6.38,0,0,1,2,.33,6.19,6.19,0,0,1,2.06,1.2,6.79,6.79,0,0,1,.89,1,7.43,7.43,0,0,1,.65,1.06c.19.38.32.7.43,1l0,.08c.13.35.25.67.35,1s.26.78.39,1.32a11,11,0,0,1,.23,1.17,7.31,7.31,0,0,1,.06.95,6.38,6.38,0,0,1-.16,1.45,7,7,0,0,1-.27.89h19.08a10.17,10.17,0,0,1,1.07.05,8,8,0,0,1,2.08.5l.1,0V141.5a9.5,9.5,0,0,1,.07-1.23,7.65,7.65,0,0,1,.61-2.19,7.19,7.19,0,0,1,1.12-1.74,7.06,7.06,0,0,1,2.51-1.8,7.63,7.63,0,0,1,1.6-.49,9.45,9.45,0,0,1,1.79-.17,8.77,8.77,0,0,1,2.92.47,7.22,7.22,0,0,1,2.81,1.78,7.13,7.13,0,0,1,1.19,1.7,7.34,7.34,0,0,1,.67,2,9.25,9.25,0,0,1,.13,1.67v.7c2,.74,4,1.59,6,2.54l.65.31a7.55,7.55,0,0,1,.28-1.27,7.07,7.07,0,0,1,1.26-2.34,7,7,0,0,1,1.27-1.22,7.27,7.27,0,0,1,1.87-1,8.46,8.46,0,0,1,2.3-.47l1.9-.12a6.87,6.87,0,0,1,2.07-3.07,7.2,7.2,0,0,1,2.26-1.28,8.89,8.89,0,0,1,2.94-.46,10.37,10.37,0,0,1,1.47.08,7.7,7.7,0,0,1,2.23.66,6.68,6.68,0,0,1,1.7,1.17,6.76,6.76,0,0,1,1.45,2l1.85-.12.61,0a7.82,7.82,0,0,1,2.92.55,7.18,7.18,0,0,1,2.56,1.77,6.81,6.81,0,0,1,1,1.5,7.45,7.45,0,0,1,.66,1.82c0,.14.06.28.08.42l.08,0c0-.13.06-.25.1-.37a6.83,6.83,0,0,1,2.43-3.64,7.06,7.06,0,0,1,2.12-1.12,8.57,8.57,0,0,1,2.72-.43,7.88,7.88,0,0,1,2.65.44,6.94,6.94,0,0,1,2.53,1.56,7,7,0,0,1,1.48,2.17l2.63-.22c.38,0,.74-.05,1.1-.05a10,10,0,0,1,2,.2l.17,0a7.82,7.82,0,0,1,.94-3,8,8,0,0,1,2.22-2.55,7.78,7.78,0,0,1,2.13-1.13,6.94,6.94,0,0,1,2.25-.37h0a7.13,7.13,0,0,1,1.49.18,7.86,7.86,0,0,1,1,.28,13.9,13.9,0,0,1,1.47.59c.81.37,1.56.77,2.06,1l.05,0c1.35.7,2.38,1.27,3.23,1.78a16.21,16.21,0,0,1,2.36,1.68,8.58,8.58,0,0,1,.95,1l.09-.18a7.05,7.05,0,0,1,.71-1.09,6.5,6.5,0,0,1,1.72-1.55,6.4,6.4,0,0,1,1.24-.59,6.27,6.27,0,0,1,1.31-.32,7.81,7.81,0,0,1,1.23-.09c.13,0,.4,0,.72,0a7.54,7.54,0,0,1,1.42.25,8.9,8.9,0,0,1,1.21.42l.21-.19a7.25,7.25,0,0,1,1.66-1.07,7.56,7.56,0,0,1,1.89-.59,8.88,8.88,0,0,1,1.54-.12h12.86l.05-.07A8.45,8.45,0,0,1,468.85,138Zm-295.34,6c0-1-.06-2.85-3.12-2.85h-17a2.19,2.19,0,1,0,0,4.37h14.38c.33,0,.72,0,.72.66a15.12,15.12,0,0,1-1.47,5c-1.74,3.65-5.5,6.39-10.76,7.83-1.3.36-2.29.66-2.29,2,0,.69.39,2.49,2.16,2.49a11.28,11.28,0,0,0,2.82-.58,20.49,20.49,0,0,0,10.95-7.77A23.1,23.1,0,0,0,173.51,144Zm21.75,3.35a2,2,0,0,0,.86-1.61,2.36,2.36,0,0,0-2.3-2.24,1.89,1.89,0,0,0-1.29.58,41.33,41.33,0,0,1-3.79,3,38.62,38.62,0,0,1-11,4.86c-.66.2-1.52.45-1.52,1.72a2.13,2.13,0,0,0,2,2.29c1.22,0,4.59-1.24,7.16-2.43v8.57c0,1.52.91,2,2.16,2,1.57,0,2.13-.8,2.13-2V151.29A35.89,35.89,0,0,0,195.26,147.34Zm1.25,8.26a7,7,0,0,1-.79-1.84l-.69.46v4.26a9.43,9.43,0,0,1,.29-.9A7.15,7.15,0,0,1,196.51,155.6Zm25-11c0-2.6-1-3.79-3.76-3.79H202.56a2.09,2.09,0,1,0,0,4.17h13.6a.83.83,0,0,1,.91.94v3.57H202.86a2,2,0,1,0,0,4.09h14.21v3.87a.81.81,0,0,1-.91.92H202.33a2.14,2.14,0,1,0,0,4.28h15.46c2.3,0,3.76-.74,3.76-3.79Zm13-2.63c0-1.47-.8-2-2.27-2-1.88,0-2.18,1.05-2.18,2v5.81c0,7.3-.44,8.62-3.07,11.64a2.45,2.45,0,0,0-.83,1.71,2.59,2.59,0,0,0,2.6,2.38c.47,0,1.13,0,2.57-1.83,2.9-3.73,3.18-7.74,3.18-13.71Zm17.23,9.68c0-1.72-2-2-2.46-2-1.3,0-1.58.78-2,2.16-1.27,3.93-4,6.11-5.06,6.11-.31,0-.31-.3-.31-.66V141.67c0-1.5-.85-2-2.24-2-1.77,0-2.18.91-2.18,2v19a2.34,2.34,0,0,0,2.6,2.66c2.07,0,6.58-1.69,9.34-5.84C250.56,155.82,251.75,153,251.75,151.68Zm19.34-11.12a1.52,1.52,0,0,0,.06.5c.05.16.41,1,.47,1.24.55,1.83.61,2,1.27,2,.08,0,1.08,0,1.08-1a9.33,9.33,0,0,0-.69-2.51c-.33-.8-.58-1.16-1.11-1.16C271.92,139.68,271.09,139.81,271.09,140.56Zm-3.2.47a1.75,1.75,0,0,0,.08.53c0,.16.36,1,.41,1.21s.31,1,.42,1.33c.22.64.58.72.88.72a1,1,0,0,0,1.05-1,9.61,9.61,0,0,0-.66-2.54c-.3-.78-.58-1.16-1.1-1.16C268.77,140.15,267.89,140.23,267.89,141Zm6.72,11.84c0-1.11-.53-1.64-2.33-2.55a69.56,69.56,0,0,0-10.5-4.26v-4.53c0-.89-.11-2.3-2.38-2.3s-2.35,1.52-2.35,2.3v20.24c0,.88.08,2.29,2.38,2.29s2.35-1.49,2.35-2.29V150.71a46.37,46.37,0,0,1,8.29,4,4.15,4.15,0,0,0,2.21.85C273.78,155.6,274.61,154.05,274.61,152.87Zm6.82,1.62c.49-.17.91-.29,1.26-.39h.06a15,15,0,0,0,5.3-2.45h-7.36c-.28,0-.55,0-.83-.08h0a8.2,8.2,0,0,1,.11,1.32,8.49,8.49,0,0,1-.41,2.54l.46-.28A8.39,8.39,0,0,1,281.43,154.49Zm19.72-8.76a3.28,3.28,0,0,0-1.35-3c.74,0,1.05-.42,1.05-1a8.84,8.84,0,0,0-.67-2.46c-.33-.83-.58-1.16-1.1-1.16-.22,0-1.08.11-1.08.88a1.51,1.51,0,0,0,.11.61,9.8,9.8,0,0,1,.44,1.27c.06.17.42,1.3.44,1.38a8.15,8.15,0,0,0-2.46-.38H281.16a2.18,2.18,0,1,0,0,4.36h14.38c.33,0,.74,0,.74.67a10.68,10.68,0,0,1-.66,2.76c-.75,2.16-2.65,7.17-11.47,9.54-1.33.36-2.33.67-2.33,2,0,.72.45,2.49,2.19,2.49,1.52,0,7.71-1.57,11.92-6A20,20,0,0,0,301.15,145.73Zm2.93-4a9.93,9.93,0,0,0-.69-2.54c-.3-.77-.52-1.13-1.1-1.13-.2,0-1.08.08-1.08.88a1.37,1.37,0,0,0,.08.47c0,.2.39,1,.44,1.25s.36,1.24.44,1.46a.9.9,0,0,0,.83.58C303.09,142.66,304.08,142.66,304.08,141.69Zm26.38,10a2.07,2.07,0,0,0-2.43-2.27H308.29c-1,0-2.44.14-2.44,2.32a2.08,2.08,0,0,0,2.44,2.27H328C328.91,154,330.46,153.89,330.46,151.65Zm23.77,1.22c0-1.11-.52-1.64-2.32-2.55a69.36,69.36,0,0,0-10.51-4.26v-4.53c0-.89-.11-2.3-2.37-2.3s-2.35,1.52-2.35,2.3v20.24c0,.88.08,2.29,2.37,2.29s2.35-1.49,2.35-2.29V150.71a46.46,46.46,0,0,1,8.3,4,4.15,4.15,0,0,0,2.21.85C353.4,155.6,354.23,154.05,354.23,152.87Zm28.26.63a1.92,1.92,0,0,0-2.29-2.1l-7.69.44-.27-4.28,6.58-.45a2.07,2.07,0,1,0-.25-4.12l-6.61.42-.14-2.13c-.11-1.88-1-2.07-2.29-2.07-2.16,0-2.38,1.21-2.3,2.35l.14,2.15-6.66.42a1.91,1.91,0,0,0-2,2,2,2,0,0,0,2.32,2.11l6.67-.45.27,4.29-8,.5a2.09,2.09,0,1,0,.25,4.17l8-.5.36,5.65c.05.91.14,2.18,2.27,2.18,2.46,0,2.37-1.55,2.32-2.43l-.36-5.67,7.66-.44A1.91,1.91,0,0,0,382.49,153.5Zm24-3.79c0-2-1.27-2.48-3.2-2.32l-7.5.64-.27-2.71a1.77,1.77,0,0,0-2-1.86c-1.79,0-2.32,1-2.18,2.3l.27,2.63-3.31.3c-.83.08-1.91.33-1.91,1.94a2.12,2.12,0,0,0,.74,1.74,2.17,2.17,0,0,0,1.58.3l3.29-.33,1,9.79a1.85,1.85,0,0,0,2,1.93,1.9,1.9,0,0,0,2.13-2.32l-1-9.84,5.08-.53c.31,0,.42,0,.42.14a6,6,0,0,1-1.88,2.66c-1.19,1-1.52,1.32-1.52,2.07a2.16,2.16,0,0,0,2.13,2C402.79,158.23,406.49,152.81,406.49,149.71Zm4.95-6.77c0,1.16.91,1.63,1.66,2,1.08.58,3.37,1.85,5.06,3,1.19.83,1.58.94,2.1.94,1.33,0,2.3-1.66,2.3-2.57s-.39-1.74-5.34-4.31a12.91,12.91,0,0,0-3.57-1.5,1.46,1.46,0,0,0-.52.09A2.58,2.58,0,0,0,411.44,142.94Zm.76,10.47a13.54,13.54,0,0,1,1.76-.35c.63-.08,1.21-.17,1.76-.28l-.6-.4c-.6-.42-1.46-1-2.41-1.51l-.89-.51a11.84,11.84,0,0,1-.42,2.37c-.1.36-.22.72-.35,1.09A7,7,0,0,1,412.2,153.41Zm22.85-8.12a2,2,0,0,0-1.79-2,2.57,2.57,0,0,0-.75-.09c-1.24,0-1.44.56-2.05,2.33-3.2,9.18-8.73,11.89-15.81,12.8-1.47.19-2.46.52-2.46,2.18a2.3,2.3,0,0,0,2.24,2.57,25.2,25.2,0,0,0,4.75-.91,20.9,20.9,0,0,0,10.59-6.41C433.17,151.9,435.05,146.59,435.05,145.29Zm29.12-4a3.06,3.06,0,0,0-3.07-3,3.11,3.11,0,0,0-3.12,3.1,3.81,3.81,0,0,0,.11.8,12.38,12.38,0,0,0-1.63-.14H441.19a2.19,2.19,0,1,0,0,4.37h14.33c.33,0,.72,0,.72.66a10,10,0,0,1-.64,2.77c-.8,2.38-2.82,7.19-11.42,9.51-1.36.36-2.32.69-2.32,2,0,.75.44,2.52,2.15,2.52a20.63,20.63,0,0,0,11.89-6,20.09,20.09,0,0,0,5.23-12,5.27,5.27,0,0,0-.17-1.43A3.13,3.13,0,0,0,464.17,141.25Z"/><path class="cls-5" d="M221.55,144.63v14.26c0,3.05-1.46,3.79-3.76,3.79H202.33a2.14,2.14,0,1,1,0-4.28h13.83a.81.81,0,0,0,.91-.92v-3.87H202.86a2,2,0,1,1,0-4.09h14.21V146a.83.83,0,0,0-.91-.94h-13.6a2.09,2.09,0,1,1,0-4.17h15.23C220.56,140.84,221.55,142,221.55,144.63Zm187.52-29.82a27.84,27.84,0,0,0,19.61-7.63c2.09-1.93,1.53-6-.72-8a5.84,5.84,0,0,0-7.56-.08,16.27,16.27,0,0,1-11.33,4.34c-9.16,0-16.07-7.55-16.07-17s6.91-17,16.07-17a16.27,16.27,0,0,1,11.33,4.34,5.84,5.84,0,0,0,7.56-.08c2.25-2,2.81-6.11.72-8a27.84,27.84,0,0,0-19.61-7.63,27.37,27.37,0,0,0-25.64,17.19,13.84,13.84,0,0,1-.8,12.92,14,14,0,0,1-1.17,1.61C383,104,394.38,114.81,409.07,114.81ZM196.12,145.73a2.36,2.36,0,0,0-2.3-2.24,1.89,1.89,0,0,0-1.29.58,41.33,41.33,0,0,1-3.79,3,38.62,38.62,0,0,1-11,4.86c-.66.2-1.52.45-1.52,1.72a2.13,2.13,0,0,0,2,2.29c1.22,0,4.59-1.24,7.16-2.43v8.57c0,1.52.91,2,2.16,2,1.57,0,2.13-.8,2.13-2V151.29a35.89,35.89,0,0,0,5.58-3.95A2,2,0,0,0,196.12,145.73Zm53.17,4c-1.3,0-1.58.78-2,2.16-1.27,3.93-4,6.11-5.06,6.11-.31,0-.31-.3-.31-.66V141.67c0-1.5-.85-2-2.24-2-1.77,0-2.18.91-2.18,2v19a2.34,2.34,0,0,0,2.6,2.66c2.07,0,6.58-1.69,9.34-5.84,1.14-1.69,2.33-4.48,2.33-5.83C251.75,150,249.78,149.71,249.29,149.71ZM234.52,142c0-1.47-.8-2-2.27-2-1.88,0-2.18,1.05-2.18,2v5.81c0,7.3-.44,8.62-3.07,11.64a2.45,2.45,0,0,0-.83,1.71,2.59,2.59,0,0,0,2.6,2.38c.47,0,1.13,0,2.57-1.83,2.9-3.73,3.18-7.74,3.18-13.71Zm37.76,8.32a69.56,69.56,0,0,0-10.5-4.26v-4.53c0-.89-.11-2.3-2.38-2.3s-2.35,1.52-2.35,2.3v20.24c0,.88.08,2.29,2.38,2.29s2.35-1.49,2.35-2.29V150.71a46.37,46.37,0,0,1,8.29,4,4.15,4.15,0,0,0,2.21.85c1.5,0,2.33-1.55,2.33-2.73S274.08,151.23,272.28,150.32ZM212.71,109.1V63.7c.08-2.73,1.69-5,4.66-5h17.52c10,0,16.39,6,16.39,15.43,0,3.61-1.85,8.2-7.55,10.37a13.43,13.43,0,0,1,10.44,12.61c0,9.16-6.67,17-17.68,17H217.37C214.4,114.09,212.71,111.76,212.71,109.1Zm11.81-28.28h9.24c3.06,0,5.15-2.57,5.15-5.87,0-3.45-1.77-5.86-5.23-5.86h-9.16Zm0,22.9h11.33c3.94,0,6-3.62,6-6.91,0-3.13-2-6.67-6.19-6.67H224.52ZM352.91,85.4h3v24.11a5.49,5.49,0,0,0,5.63,5c3.05,0,5.62-2.17,5.62-5V85.4h4.26a4.34,4.34,0,0,0,4-4.42,4.23,4.23,0,0,0-4-4.42h-4.26v-9.8c0-2.82-2.57-5-5.62-5a5.49,5.49,0,0,0-5.63,5v9.8h-3a4.23,4.23,0,0,0-4,4.42A4.34,4.34,0,0,0,352.91,85.4Zm-201.33.72c2.49,0,5.14-1.28,5.54-4.1.73-5.3-3.21-6.18-6.91-6.18-3.86,0-7.79,2.41-9.88,9.4v-4.1c0-2.81-2.57-5-5.63-5a5.48,5.48,0,0,0-5.62,5v28.37a5.48,5.48,0,0,0,5.62,5c3.06,0,5.63-2.17,5.63-5v-9.24c.16-9.41,2.25-14.23,8.52-14.23C149.57,86,150.77,86.12,151.58,86.12Zm27.15-10.28a13.89,13.89,0,0,1,11.25,6V60.73a5.49,5.49,0,0,1,5.63-5c3,0,5.62,2.17,5.62,5v48.78c0,2.81-2.57,5-5.62,5a5.49,5.49,0,0,1-5.63-5v-.73a13.31,13.31,0,0,1-11.25,6c-9.56,0-18.24-7.07-18.24-19.53S169.17,75.84,178.73,75.84Zm2.17,10c-5.62,0-8.84,4.5-8.84,9.48s3.22,9.49,8.84,9.49a9.49,9.49,0,0,0,0-19Zm283.27,55.37a3.13,3.13,0,0,1-3.21,3.13,5.27,5.27,0,0,1,.17,1.43,20.09,20.09,0,0,1-5.23,12,20.63,20.63,0,0,1-11.89,6c-1.71,0-2.15-1.77-2.15-2.52,0-1.3,1-1.63,2.32-2,8.6-2.32,10.62-7.13,11.42-9.51a10,10,0,0,0,.64-2.77c0-.66-.39-.66-.72-.66H441.19a2.19,2.19,0,1,1,0-4.37h15.27a12.38,12.38,0,0,1,1.63.14,3.81,3.81,0,0,1-.11-.8,3.11,3.11,0,0,1,3.12-3.1A3.06,3.06,0,0,1,464.17,141.25Zm-1.77.06a1.33,1.33,0,0,0-1.33-1.33,1.32,1.32,0,1,0,0,2.63A1.32,1.32,0,0,0,462.4,141.31Zm-55.91,8.4c0-2-1.27-2.48-3.2-2.32l-7.5.64-.27-2.71a1.77,1.77,0,0,0-2-1.86c-1.79,0-2.32,1-2.18,2.3l.27,2.63-3.31.3c-.83.08-1.91.33-1.91,1.94a2.12,2.12,0,0,0,.74,1.74,2.17,2.17,0,0,0,1.58.3l3.29-.33,1,9.79a1.85,1.85,0,0,0,2,1.93,1.9,1.9,0,0,0,2.13-2.32l-1-9.84,5.08-.53c.31,0,.42,0,.42.14a6,6,0,0,1-1.88,2.66c-1.19,1-1.52,1.32-1.52,2.07a2.16,2.16,0,0,0,2.13,2C402.79,158.23,406.49,152.81,406.49,149.71Zm137.65-40.2V92.79c-.08-11.33-5.79-17-14.71-17a12.1,12.1,0,0,0-10.93,7.15c-2.49-5.15-6.42-7.07-12.37-7.07a10.73,10.73,0,0,0-9.8,6.18v-.88c0-2.81-2.58-5-5.63-5a5.48,5.48,0,0,0-5.62,5v28.37a5.48,5.48,0,0,0,5.62,5c3.05,0,5.63-2.17,5.63-5V94.24c0-5.71,3.13-7.64,6.51-7.64,3.21,0,6.18,2.5,6.18,7.24v15.67a5.49,5.49,0,0,0,5.63,5c3.05,0,5.62-2.17,5.62-5V94.24c0-5.47,2.81-7.64,6.35-7.64,3.3,0,6.27,2.58,6.27,7.48v15.43a5.48,5.48,0,0,0,5.62,5C541.57,114.49,544.14,112.32,544.14,109.51Zm50.05-14.23c0,12.46-8.68,19.53-18.24,19.53a13.31,13.31,0,0,1-11.25-6v18.65a5.49,5.49,0,0,1-5.63,5c-3.05,0-5.62-2.17-5.62-5V81.14c0-2.81,2.57-5,5.62-5a5.49,5.49,0,0,1,5.63,5v.72a13.89,13.89,0,0,1,11.25-6C585.51,75.84,594.19,82.83,594.19,95.28Zm-11.57.08c0-5-3.21-9.48-8.84-9.48a9.49,9.49,0,0,0,0,19C579.41,104.85,582.62,100.35,582.62,95.36Zm-202.42,56-7.69.44-.27-4.28,6.58-.45a2.07,2.07,0,1,0-.25-4.12l-6.61.42-.14-2.13c-.11-1.88-1-2.07-2.29-2.07-2.16,0-2.38,1.21-2.3,2.35l.14,2.15-6.66.42a1.91,1.91,0,0,0-2,2,2,2,0,0,0,2.32,2.11l6.67-.45.27,4.29-8,.5a2.09,2.09,0,1,0,.25,4.17l8-.5.36,5.65c.05.91.14,2.18,2.27,2.18,2.46,0,2.37-1.55,2.32-2.43l-.36-5.67,7.66-.44a2.09,2.09,0,1,0-.25-4.18ZM328,154c.88,0,2.43-.08,2.43-2.32a2.07,2.07,0,0,0-2.43-2.27H308.29c-1,0-2.44.14-2.44,2.32a2.08,2.08,0,0,0,2.44,2.27Zm23.88,1.63c1.49,0,2.32-1.55,2.32-2.73s-.52-1.64-2.32-2.55a69.36,69.36,0,0,0-10.51-4.26v-4.53c0-.89-.11-2.3-2.37-2.3s-2.35,1.52-2.35,2.3v20.24c0,.88.08,2.29,2.37,2.29s2.35-1.49,2.35-2.29V150.71a46.46,46.46,0,0,1,8.3,4A4.15,4.15,0,0,0,351.91,155.6Zm-56,2.13a20,20,0,0,0,5.22-12,3.28,3.28,0,0,0-1.35-3c.74,0,1.05-.42,1.05-1a8.84,8.84,0,0,0-.67-2.46c-.33-.83-.58-1.16-1.1-1.16-.22,0-1.08.11-1.08.88a1.51,1.51,0,0,0,.11.61,9.8,9.8,0,0,1,.44,1.27c.06.17.42,1.3.44,1.38a8.15,8.15,0,0,0-2.46-.38H281.16a2.18,2.18,0,1,0,0,4.36h14.38c.33,0,.74,0,.74.67a10.68,10.68,0,0,1-.66,2.76c-.75,2.16-2.65,7.17-11.47,9.54-1.33.36-2.33.67-2.33,2,0,.72.45,2.49,2.19,2.49C285.53,163.73,291.72,162.16,295.93,157.73Zm137.33-14.4a2.57,2.57,0,0,0-.75-.09c-1.24,0-1.44.56-2.05,2.33-3.2,9.18-8.73,11.89-15.81,12.8-1.47.19-2.46.52-2.46,2.18a2.3,2.3,0,0,0,2.24,2.57,25.2,25.2,0,0,0,4.75-.91,20.9,20.9,0,0,0,10.59-6.41c3.4-3.9,5.28-9.21,5.28-10.51A2,2,0,0,0,433.26,143.33Zm-129.18-1.64a9.93,9.93,0,0,0-.69-2.54c-.3-.77-.52-1.13-1.1-1.13-.2,0-1.08.08-1.08.88a1.37,1.37,0,0,0,.08.47c0,.2.39,1,.44,1.25s.36,1.24.44,1.46a.9.9,0,0,0,.83.58C303.09,142.66,304.08,142.66,304.08,141.69ZM159,162.85a20.49,20.49,0,0,0,10.95-7.77A23.1,23.1,0,0,0,173.51,144c0-1-.06-2.85-3.12-2.85h-17a2.19,2.19,0,1,0,0,4.37h14.38c.33,0,.72,0,.72.66a15.12,15.12,0,0,1-1.47,5c-1.74,3.65-5.5,6.39-10.76,7.83-1.3.36-2.29.66-2.29,2,0,.69.39,2.49,2.16,2.49A11.28,11.28,0,0,0,159,162.85ZM299.81,95.2c0,11.82-8.84,19.61-19.77,19.61S260.35,107,260.35,95.2,269.11,75.84,280,75.84,299.81,83.39,299.81,95.2Zm-11.25,0a8.48,8.48,0,1,0-17,0,8.48,8.48,0,1,0,17,0ZM470,114.49a5.49,5.49,0,0,1-5.63-5v-.73a13.31,13.31,0,0,1-11.25,6c-9.56,0-18.24-7.07-18.24-19.53s8.68-19.44,18.24-19.44a13.89,13.89,0,0,1,11.25,6v-.72a5.49,5.49,0,0,1,5.63-5c3,0,5.62,2.17,5.62,5v28.37C475.6,112.32,473,114.49,470,114.49Zm-5.55-19.13a9.49,9.49,0,0,0-9.16-9.48c-5.62,0-8.84,4.5-8.84,9.48s3.22,9.49,8.84,9.49A9.49,9.49,0,0,0,464.43,95.36Zm-343-.16c0,11.82-8.84,19.61-19.77,19.61S82,107,82,95.2s8.76-19.36,19.69-19.36S121.45,83.39,121.45,95.2Zm-11.25,0a8.48,8.48,0,1,0-17,0,8.48,8.48,0,1,0,17,0ZM413.1,145c1.08.58,3.37,1.85,5.06,3,1.19.83,1.58.94,2.1.94,1.33,0,2.3-1.66,2.3-2.57s-.39-1.74-5.34-4.31a12.91,12.91,0,0,0-3.57-1.5,1.46,1.46,0,0,0-.52.09,2.58,2.58,0,0,0-1.69,2.32C411.44,144.1,412.35,144.57,413.1,145ZM51.39,86.85a4.94,4.94,0,0,0-4.82-5.07H32.91V69.09h18.4a5.24,5.24,0,0,0,4.82-5.15,5,5,0,0,0-4.82-5.22H25.84c-3,0-4.59,2.25-4.67,5V109c0,2.9,2.82,5.47,5.87,5.47A5.73,5.73,0,0,0,32.91,109V91.91H46.57A5.1,5.1,0,0,0,51.39,86.85ZM74.2,81.14c0-2.81-2.57-5-5.62-5a5.49,5.49,0,0,0-5.63,5v35.28c0,2.65-.8,5.94-4.9,5.94h-.24c-2.81.08-5.3,2-5.3,5a5.16,5.16,0,0,0,5.3,5.14h2.25c10.61,0,14.14-6.35,14.14-16.31Zm-5.54-25a6.75,6.75,0,0,0-7,6.51,6.82,6.82,0,0,0,7,6.59,6.7,6.7,0,0,0,6.91-6.59A6.63,6.63,0,0,0,68.66,56.15ZM345,95.2c0,11.82-8.84,19.61-19.77,19.61S305.59,107,305.59,95.2s8.75-19.36,19.68-19.36S345,83.39,345,95.2Zm-11.25,0a8.48,8.48,0,1,0-17,0,8.48,8.48,0,1,0,17,0Zm-65.41,47.57c.12.36.31,1,.42,1.33.22.64.58.72.88.72a1,1,0,0,0,1.05-1,9.61,9.61,0,0,0-.66-2.54c-.3-.78-.58-1.16-1.1-1.16-.2,0-1.08.08-1.08.88a1.75,1.75,0,0,0,.08.53C268,141.72,268.33,142.55,268.38,142.77Zm3.24-.47c.55,1.83.61,2,1.27,2,.08,0,1.08,0,1.08-1a9.33,9.33,0,0,0-.69-2.51c-.33-.8-.58-1.16-1.11-1.16-.25,0-1.08.13-1.08.88a1.52,1.52,0,0,0,.06.5C271.2,141.22,271.56,142.08,271.62,142.3Z"/></svg>