<?xml version="1.0" encoding="UTF-8"?>
<svg id="_レイヤー_1" data-name="レイヤー_1" xmlns="http://www.w3.org/2000/svg" viewBox="0 0 660 354.73">
  <defs>
    <style>
      .cls-1 {
        fill: #4742c2;
      }
    </style>
  </defs>
  <g>
    <g>
      <path class="cls-1" d="M41.82,338.31c3.18,0,4.02-.92,4.69-4.61l8.17-46.27c.14-.78.95-1.23,1.7-.95,1.79.67,4.53,1.06,8.48,1.06s6.61-.43,8.62-1.07c.9-.29,1.79.48,1.62,1.42l-8.81,49.68c-.75,4.36-2.09,7.88-3.85,10.31-3.6,5.03-9.47,6.87-18.94,6.87h-7.96c-.78,0-1.38-.71-1.24-1.48l2.48-13.91c.11-.6.63-1.04,1.24-1.04h3.81ZM55.82,276.89c1.01-6.03,4.86-7.96,12.4-7.96s10.56,1.93,9.55,7.96c-1.09,5.87-4.78,7.88-12.4,7.88-8.04,0-10.64-1.84-9.55-7.88Z"/>
      <path class="cls-1" d="M83.47,331.69c-7.29-4.86-9.3-13.41-7.54-24.22l.08-.42c2.68-14.58,12.65-22.87,26.65-22.87,6.03,0,10.89,1.17,14.5,3.6,7.21,4.86,9.64,13.49,7.71,24.8l-.08.5c-.75,4.61-2.26,8.46-4.27,11.81-4.02,6.62-10.98,10.39-21.95,10.39-6.54,0-11.48-1.17-15.08-3.6ZM105.92,310.4c1.34-6.95-.17-9.8-4.11-9.8-3.6,0-5.7,2.35-6.95,9.05-1.09,6.54.59,8.97,4.11,8.97,3.27,0,5.87-1.68,6.95-8.21Z"/>
      <path class="cls-1" d="M135.22,285.01h13.4c.64,0,1.18.48,1.25,1.12l.4,3.67c.13,1.19,1.68,1.54,2.31.53,2.95-4.74,7.63-6.16,14.6-6.16h.76c.78,0,1.38.71,1.24,1.48l-3.24,18.35c-.11.6-.63,1.04-1.24,1.04h-5.48c-6.54,0-8.55,2.01-9.64,8.21l-3.42,19.74c-.1.6-.63,1.04-1.24,1.04h-17.89c-.78,0-1.38-.71-1.24-1.48l8.19-46.5c.11-.6.63-1.04,1.24-1.04Z"/>
      <path class="cls-1" d="M182.76,334.87c-11.31,0-17.51-9.05-14.58-26.65,3.18-16.59,10.56-23.96,20.78-23.96,5.1,0,8.44,1.93,10.22,5.41.56,1.09,2.16.89,2.37-.32l3.31-18.81c.11-.6.63-1.04,1.24-1.04h16.89c.78,0,1.37.7,1.24,1.47l-10.95,62.01c-.11.6-.63,1.04-1.24,1.04h-14.62c-.66,0-1.21-.51-1.25-1.17l-.14-1.98c-.08-1.15-1.53-1.58-2.24-.67-2.45,3.13-5.95,4.65-11.02,4.65ZM198.09,310.4c1.34-6.95-.17-9.72-3.77-9.72s-5.7,2.26-6.95,8.97c-1.09,6.54.75,9.13,4.11,9.13,3.02,0,5.53-2.09,6.62-8.38Z"/>
      <path class="cls-1" d="M229.84,274.74c.11-.6.63-1.04,1.24-1.04h22.49c4.86,0,8.8.59,12.32,1.84,6.87,2.6,10.14,7.71,8.55,16.51-.86,4.74-2.96,7.88-6.23,10-.72.47-.8,1.51-.12,2.04,3.5,2.69,5.09,6.9,3.91,13.35-1.76,10.56-9.55,16.59-25.05,16.59h-26.07c-.78,0-1.38-.71-1.24-1.48l10.2-57.81ZM241.76,315.96c-.14.77.46,1.48,1.24,1.48h3.02c4.61,0,6.28-1.09,6.7-3.35.42-2.6-.5-3.69-5.45-3.69h-3.47c-.61,0-1.13.44-1.24,1.04l-.81,4.52ZM245.61,294.26c-.13.77.46,1.48,1.24,1.48h3.78c3.35,0,4.69-1.09,5.03-3.35.42-2.35-.59-3.35-3.77-3.35h-4.3c-.61,0-1.13.44-1.24,1.04l-.73,4.19Z"/>
      <path class="cls-1" d="M284.07,331.69c-7.29-4.86-9.3-13.41-7.54-24.22l.08-.42c2.68-14.58,12.65-22.87,26.65-22.87,6.03,0,10.89,1.17,14.5,3.6,7.21,4.86,9.64,13.49,7.71,24.8l-.08.5c-.75,4.61-2.26,8.46-4.27,11.81-4.02,6.62-10.98,10.39-21.95,10.39-6.54,0-11.48-1.17-15.08-3.6ZM306.52,310.4c1.34-6.95-.17-9.8-4.11-9.8-3.6,0-5.7,2.35-6.95,9.05-1.09,6.54.59,8.97,4.11,8.97,3.27,0,5.87-1.68,6.95-8.21Z"/>
      <path class="cls-1" d="M337.19,331.69c-7.29-4.86-9.3-13.41-7.54-24.22l.08-.42c2.68-14.58,12.65-22.87,26.65-22.87,6.03,0,10.89,1.17,14.5,3.6,7.21,4.86,9.64,13.49,7.71,24.8l-.08.5c-.75,4.61-2.26,8.46-4.27,11.81-4.02,6.62-10.98,10.39-21.95,10.39-6.54,0-11.48-1.17-15.08-3.6ZM359.65,310.4c1.34-6.95-.17-9.8-4.11-9.8-3.6,0-5.7,2.35-6.95,9.05-1.09,6.54.59,8.97,4.11,8.97,3.27,0,5.87-1.68,6.95-8.21Z"/>
      <path class="cls-1" d="M402.3,334.03c-5.03,0-8.8-.84-11.4-2.26-5.28-3.02-6.2-9.3-4.44-19.27l1.5-8.58c.13-.77-.46-1.48-1.24-1.48h-4.29c-.78,0-1.38-.71-1.24-1.48l2.43-13.76c.1-.55.55-.97,1.1-1.03,1.91-.21,3.69-.45,5.35-1.24,2.09-1.01,3.44-2.6,4.52-5.03.78-1.63,1.26-3.43,1.64-5.21.12-.58.64-.99,1.23-.99h12.98c.78,0,1.38.71,1.24,1.48l-1.49,8.35c-.14.77.46,1.48,1.24,1.48h7.22c.78,0,1.38.71,1.24,1.48l-2.65,14.91c-.11.6-.63,1.04-1.24,1.04h-8.11c-.61,0-1.14.44-1.24,1.05l-.83,4.82c-.34,2.09-.42,3.77-.34,4.86.34,2.09,2.18,2.77,6.45,2.77h1.27c.78,0,1.38.71,1.24,1.48l-2.74,15.58c-.11.6-.63,1.04-1.24,1.04h-8.16Z"/>
      <path class="cls-1" d="M466.57,324.65c-4.61,7.71-11.65,10.64-22.79,10.64-6.87,0-11.98-1.34-15.84-3.77-7.63-5.2-9.72-14.83-7.37-28.49l.08-.5c1.26-7.29,3.1-13.16,5.78-17.51,5.28-8.88,13.16-12.57,24.05-12.57,17.26,0,25.81,9.38,22.79,26.65l-.15.88c-.1.6-.63,1.04-1.24,1.04h-17.8c-.78,0-1.38-.71-1.24-1.48l.24-1.37c1.09-6.28-.5-8.3-4.11-8.3-4.52,0-6.03,3.69-7.79,13.83-.59,3.52-.92,6.28-1.01,8.21-.08,4.02,1.09,5.45,4.27,5.45,4.19,0,5.61-2.26,6.7-8.8l.07-.39c.11-.6.63-1.04,1.23-1.04l18.05-.07c.79,0,1.38.71,1.24,1.48l-.06.35c-1.09,6.62-2.85,11.81-5.11,15.75Z"/>
      <path class="cls-1" d="M502.21,329.46c-.33-.75-1.37-.88-1.83-.2-2.54,3.73-6.58,6.03-14.21,6.03-10.56,0-15.42-5.87-13.83-14.75.75-4.69,3.18-8.38,7.37-10.81,3.6-2.09,8.88-3.35,15.5-4.11,6.28-.75,9.13-1.42,9.55-3.69.34-1.68-.34-2.76-2.93-2.76-2.87,0-4.45,1.16-4.98,3.6-.11.49-.53.84-1.03.84h-17.88c-.69,0-1.19-.66-1.02-1.33,3.07-11.8,10.64-18.11,25.99-18.11,16.76,0,22.37,7.79,20.03,20.61l-1.84,9.89c-.42,2.43,0,2.85,2.43,2.85h0c.66,0,1.15.59,1.04,1.24l-2.56,14.4c-.09.5-.53.87-1.04.87h-7.33c-6.91,0-10.15-1.64-11.45-4.57ZM501.93,317.02l.22-1.2c.14-.77-.59-1.44-1.34-1.2-.57.18-1.23.33-1.98.48-2.29.41-3.38.82-4.29,1.38-.05.03-.09.06-.14.1-.72.58-1.2,1.32-1.44,2.29-.25,1.76.75,2.77,3.1,2.77,3.35,0,5.45-2.01,5.87-4.61Z"/>
      <path class="cls-1" d="M526.57,332.56l8.19-46.5c.11-.6.63-1.04,1.24-1.04h14.26c.67,0,1.22.52,1.26,1.18l.14,2.33c.07,1.11,1.45,1.61,2.19.77,2.84-3.26,6.72-5.12,11.93-5.12,5.92,0,9.84,2,11.75,6.12.41.88,1.6.98,2.17.2,2.91-4.03,7.06-6.31,12.81-6.31,10.64,0,15.17,6.95,12.9,19.78l-5.1,29.04c-.11.6-.63,1.04-1.24,1.04h-16.97c-.78,0-1.37-.7-1.24-1.47l4.27-24.58c.75-4.27.92-6.95-2.43-6.95-3.52,0-4.27,2.85-5.2,7.46l-4.26,24.51c-.1.6-.63,1.04-1.24,1.04h-16.97c-.78,0-1.37-.7-1.24-1.47l4.27-24.58c.75-4.27.84-6.95-2.51-6.95-3.52,0-4.19,2.85-5.11,7.46l-4.26,24.51c-.1.6-.63,1.04-1.24,1.04h-17.13c-.78,0-1.38-.71-1.24-1.48Z"/>
      <path class="cls-1" d="M625.66,330.8l-3.31,18.79c-.11.6-.63,1.04-1.24,1.04h-16.88c-.78,0-1.38-.71-1.24-1.48l11.12-63.09c.11-.6.63-1.04,1.24-1.04h14.61c.66,0,1.21.51,1.26,1.17l.18,2.59c.08,1.11,1.46,1.6,2.19.75,2.78-3.22,6.6-5.02,11.79-5.02,3.52,0,6.37,1.01,8.8,2.93,4.94,3.94,7.12,11.65,5.03,23.46-1.01,5.95-2.6,10.64-4.61,14.16-3.94,7.04-9.47,9.8-16.17,9.8-5.08,0-8.52-1.7-10.5-4.58-.63-.92-2.07-.59-2.26.51ZM639.93,310.4c1.34-6.95-.17-9.72-3.77-9.72s-5.7,2.26-6.95,8.97c-1.09,6.54.75,9.13,4.11,9.13,3.02,0,5.53-2.09,6.62-8.38Z"/>
    </g>
    <path class="cls-1" d="M50.79,273.7H11.46c-.61,0-1.13.44-1.24,1.04L.02,332.55c-.14.77.46,1.48,1.24,1.48h16.72c.61,0,1.13-.44,1.24-1.04l2.98-16.61c.11-.6.63-1.04,1.24-1.04h20.1c.61,0,1.13-.44,1.24-1.04l2.65-14.99c.14-.77-.46-1.48-1.24-1.48h-19.21c-.78,0-1.37-.71-1.24-1.48l.73-4.19c.11-.6.63-1.04,1.24-1.04h20.43c.61,0,1.13-.44,1.24-1.04l2.65-14.91c.14-.77-.46-1.48-1.24-1.48Z"/>
  </g>
  <path class="cls-1" d="M366.13,115.7h-3.93c32.08,0,58.06-26.11,57.85-58.24C419.83,25.53,393.35,0,361.42,0h-125.99c-9.73,0-17.61,7.89-17.61,17.61v172.62c0,6.7-5.43,12.13-12.13,12.13h0c-6.7,0-12.13,5.43-12.13,12.13v14.51c0,6.7,5.43,12.13,12.13,12.13h161.23c34.8-.01,62.97-28.35,62.72-63.21-.26-34.58-28.92-62.24-63.5-62.24ZM334.46,184.77c0,9.91-8.04,17.95-17.95,17.95h0c-9.91,0-17.95-8.04-17.95-17.95v-33.41c0-9.91,8.04-17.95,17.95-17.95h0c9.91,0,17.95,8.04,17.95,17.95v33.41ZM334.46,82.16c0,9.91-8.04,17.95-17.95,17.95s-17.95-8.04-17.95-17.95v-27.88c0-9.91,8.04-17.95,17.95-17.95s17.95,8.04,17.95,17.95v27.88Z"/>
  <path class="cls-1" d="M143.66.1h-44.97s-81.08,0-81.08,0c-.67,0-1.34.05-1.99.12C6.83,1.21,0,8.66,0,17.71v208.34C0,234.44,6.8,241.24,15.19,241.24h68.32c8.39,0,15.19-6.81,15.19-15.2v-69.51c0-3.92,3.17-7.09,7.09-7.09h46.4c4.48,0,8.11-3.63,8.11-8.11v-21.69c0-4.48-3.63-8.11-8.11-8.11h-46.4c-3.92,0-7.09-3.17-7.09-7.09V36.55c0-3.36,3.38-5.65,6.5-4.43,6.7,2.61,11.45,9.12,11.45,16.74,0,0-.01,13-.03,23.02,0,6.28,5.08,11.37,11.36,11.37h60.73c4.99,0,9.38-3.26,10.88-8.03,1.79-5.7,2.72-11.79,2.63-18.1C201.78,25.75,175.03.1,143.66.1Z"/>
  <path class="cls-1" d="M654.93,181.86c.12,1.86-.1,3.74-.75,5.61-2.36,6.77-7.24,12.43-11.92,17.73-4.93,5.58-10.23,10.6-16.3,14.92-12.28,8.74-26.5,14.56-41.18,17.81-8.46,1.87-16.92,2.61-25.55,3.09-23.92,1.33-47.45-5.24-66.56-18.09-73.31-48.39-69.68-163.51,4.31-207.34,9.22-5.83,19.49-9.94,30.11-12.43,10.8-2.52,21.98-3.39,33.04-2.65,5.3.36,10.56,1.08,15.75,2.19,5.22,1.11,10.35,2.6,15.34,4.48,4.59,1.75,9.06,3.83,13.37,6.2,4.34,2.4,8.52,5.08,12.51,8.03,3.72,2.75,7.27,5.72,10.63,8.88,11.62,10.94,21.01,24.26,26.62,38.72,1.99,5.08,3.49,10.35,4.46,15.73.87,4.87,1.19,9.75,1.19,14.7.01,12.91-6.24,24.78-16.53,32.16-6.48,4.67-14.45,7.4-23.04,7.4h-8.83c-21.86,0-39.58-17.71-39.58-39.58v-30.13c0-12.5,5.8-23.66,14.87-30.91,2.67-2.13,2.05-6.31-1.12-7.56-.09-.04-.19-.08-.27-.12-28.52-9.99-46.89,15.07-46.81,41.75v42.96c0,12.51,4.05,24.85,11.9,34.64,7.44,9.27,17.81,15.89,29.08,19.48,11.73,3.74,24.45,4.27,36.47,1.61,3.14-.69,6.3-1.59,9.31-2.68,4.85-1.76,9.48-4.59,14.83-4.42,6.48.21,11.08,6.17,13.22,11.73.77,2,1.29,4.03,1.41,6.09Z"/>
</svg>