<svg id="materials" xmlns="http://www.w3.org/2000/svg" viewBox="0 0 431 89.57"><defs><style>.cls-1{fill:#474747;}.cls-2{fill:#fff;}</style></defs><title>logo-text</title><g id="logo-lg"><g id="en"><path class="cls-1" d="M429.42,27a19.42,19.42,0,0,0-7.51-9.17A20,20,0,0,0,411,14.64a15.21,15.21,0,0,0-2.95.3A17.89,17.89,0,0,0,404,16.25a10.91,10.91,0,0,0-5.27-1.37,11,11,0,0,0-7.28,2.69,10.74,10.74,0,0,0-1.82,2.08,15.61,15.61,0,0,0-4.81-3.46,18.22,18.22,0,0,0-7.69-1.61,15.33,15.33,0,0,0-3.22.36,16.18,16.18,0,0,0-4.75,1.91A15.36,15.36,0,0,0,365,15.19a20.66,20.66,0,0,0-4.91-.55,14.74,14.74,0,0,0-6.27,1.42,11.15,11.15,0,0,0-5-1.18,10.93,10.93,0,0,0-7.27,2.74l-.26.25a11,11,0,0,0-1.91-1.46,11.13,11.13,0,0,0-5.67-1.53,10.87,10.87,0,0,0-5.29,1.37,17.07,17.07,0,0,0-2.36-.9,19.42,19.42,0,0,0-2.48-.55,15.31,15.31,0,0,0-2.17-.16A20.25,20.25,0,0,0,314,16.05a18.88,18.88,0,0,0-2.75,1.34c0-.33.05-.67.05-1a10.41,10.41,0,0,0-.66-3.69,9.6,9.6,0,0,0-2.33-3.53h0a.76.76,0,0,1-.09-.09l0,0h0a27.7,27.7,0,0,0-29.48-5.19,26.57,26.57,0,0,0-11.85,10,28.14,28.14,0,0,0,3.25,34.53,26.56,26.56,0,0,0,8.6,5.91A27.75,27.75,0,0,0,307,50.19a19.16,19.16,0,0,0,3.6,3,20,20,0,0,0,10.91,3.19,16.83,16.83,0,0,0,7-1.59,11,11,0,0,0,12.53-1.34c.11-.09.21-.2.32-.3a11,11,0,0,0,14.79.3,9.89,9.89,0,0,0,1.48-1.61,10.87,10.87,0,0,0,3,2.72,11.1,11.1,0,0,0,13-1.11,10.41,10.41,0,0,0,1.46-1.57,10.77,10.77,0,0,0,3,2.68,11.11,11.11,0,0,0,5.69,1.59,11.38,11.38,0,0,0,4.2-.82v3.56a10,10,0,0,0,1,4.33,10.5,10.5,0,0,0,4.13,4.45,11.24,11.24,0,0,0,5.67,1.54A11,11,0,0,0,406,66.5a10.4,10.4,0,0,0,2.45-3.16,10,10,0,0,0,1.07-4.21v-2.8c.5,0,1,.09,1.51.09A20.13,20.13,0,0,0,418.5,55a19.32,19.32,0,0,0,9-7.32A21.87,21.87,0,0,0,431,35.5,23,23,0,0,0,429.42,27ZM300.34,30.59a10.7,10.7,0,0,0-7.11,2.65l-.17.15a4.58,4.58,0,0,1-1.52,1,5.91,5.91,0,0,1-2.15.38,4.69,4.69,0,0,1-1.94-.4,4.84,4.84,0,0,1-2.16-1.9,6.3,6.3,0,0,1-.92-3.37,6.06,6.06,0,0,1,1.54-4.18,4.72,4.72,0,0,1,3.48-1.49,5.91,5.91,0,0,1,2.15.38,4.58,4.58,0,0,1,1.52,1l.17.15a10.7,10.7,0,0,0,7.11,2.65A11,11,0,0,0,303,27.2a21.34,21.34,0,0,0-1,3.52A10,10,0,0,0,300.34,30.59Zm1.73,12.68Z"/><path class="cls-2" d="M289.39,8.39A20.26,20.26,0,0,1,303.68,14c1.53,1.4,1.12,4.39-.52,5.86a4.27,4.27,0,0,1-5.51.05,11.87,11.87,0,0,0-8.26-3.16c-6.67,0-11.71,5.51-11.71,12.36s5,12.36,11.71,12.36a11.83,11.83,0,0,0,8.26-3.17,4.28,4.28,0,0,1,5.51.06c1.64,1.47,2,4.45.52,5.86a20.31,20.31,0,0,1-14.29,5.56c-11.53,0-20.26-9.19-20.26-20.67S277.86,8.39,289.39,8.39Z"/><path class="cls-2" d="M329.68,25.19a4,4,0,0,1,4.1-3.63,3.88,3.88,0,0,1,4.1,3.63V45.87a3.88,3.88,0,0,1-4.1,3.63,4,4,0,0,1-4.1-3.63v-.53a9.68,9.68,0,0,1-8.2,4.39c-7,0-13.29-5.15-13.29-14.23s6.32-14.17,13.29-14.17a10.12,10.12,0,0,1,8.2,4.39Zm-6.62,17.28a6.91,6.91,0,0,0,0-13.82c-4.09,0-6.44,3.28-6.44,6.91S319,42.47,323.06,42.47Z"/><path class="cls-2" d="M387.83,45.87a3.88,3.88,0,0,1-4.1,3.63,4,4,0,0,1-4.1-3.63V34.62c0-3.57-2.16-5.44-4.56-5.44-2.58,0-4.63,1.58-4.63,5.56V45.87a3.88,3.88,0,0,1-4.1,3.63,4,4,0,0,1-4.1-3.63V34.45c0-3.46-2.17-5.27-4.51-5.27S353,30.58,353,34.74V45.87a3.88,3.88,0,0,1-4.1,3.63,4,4,0,0,1-4.1-3.63V25.19a4,4,0,0,1,4.1-3.63,3.88,3.88,0,0,1,4.1,3.63v.65a7.82,7.82,0,0,1,7.14-4.51c4.34,0,7.21,1.4,9,5.15a8.82,8.82,0,0,1,8-5.21c6.5,0,10.65,4.16,10.71,12.42Z"/><path class="cls-2" d="M411,21.33c7,0,13.29,5.09,13.29,14.17S418,49.73,411,49.73a9.7,9.7,0,0,1-8.2-4.39V58.93a4,4,0,0,1-4.1,3.63,3.88,3.88,0,0,1-4.1-3.63V25.19a3.88,3.88,0,0,1,4.1-3.63,4,4,0,0,1,4.1,3.63v.53A10.12,10.12,0,0,1,411,21.33Zm-1.58,7.32a6.91,6.91,0,0,0,0,13.82c4.1,0,6.44-3.28,6.44-6.91S413.54,28.65,409.44,28.65Z"/><path class="cls-1" d="M266,16.06l-.41-.17V14.71a9.91,9.91,0,0,0-1-4.34,10.41,10.41,0,0,0-4.13-4.44,11.08,11.08,0,0,0-12.93,1.2,10.73,10.73,0,0,0-2.45,3.17A10.12,10.12,0,0,0,244,14.51v1.82a9.67,9.67,0,0,0-2.87,2.33c-.4-.29-.81-.56-1.23-.82a22,22,0,0,0-11.58-3.2,22.5,22.5,0,0,0-8,1.43,20.12,20.12,0,0,0-8.51,6.08,19.75,19.75,0,0,0-4.91-4.31,22,22,0,0,0-11.58-3.2,22.5,22.5,0,0,0-8,1.43,20.45,20.45,0,0,0-6.31,3.8,19.1,19.1,0,0,0-1.32-6.93A16.53,16.53,0,0,0,177,8.31a16.88,16.88,0,0,0-6.52-4.66,21.09,21.09,0,0,0-8-1.48H149.68a10.17,10.17,0,0,0-4.16.86,9.7,9.7,0,0,0-2.67,1.77,10.07,10.07,0,0,0-2.47,3.64,11.11,11.11,0,0,0-.78,3.85V45.57a10.75,10.75,0,0,0,.6,3.57,10.07,10.07,0,0,0,3.45,4.78,10,10,0,0,0,2.86,1.48,10.5,10.5,0,0,0,3.18.49h13.94a21.21,21.21,0,0,0,7.89-1.47,18.55,18.55,0,0,0,7.47-5.5,20,20,0,0,0,4.75,4.21,21.7,21.7,0,0,0,11.62,3.29,21.27,21.27,0,0,0,14.82-5.77,21.2,21.2,0,0,0,1.68-1.86,20,20,0,0,0,4.85,4.34,21.67,21.67,0,0,0,11.62,3.29,21.27,21.27,0,0,0,14.82-5.77c.5-.49,1-1,1.44-1.55a9.44,9.44,0,0,0,.49,1.18,10.7,10.7,0,0,0,4,4.32,11.1,11.1,0,0,0,13-1.11,10.24,10.24,0,0,0,2.51-3.29,9.83,9.83,0,0,0,1-4.33V34.23c.17-.07.35-.14.51-.22a9.81,9.81,0,0,0,4-3.68,10.12,10.12,0,0,0-1.08-12A9.59,9.59,0,0,0,266,16.06Zm-70.8,19.3h0l-.09-.12Zm.34.29h0l.12.14Zm32.63-.29h0l-.09-.12Zm.33.29h0l.12.14Z"/><path class="cls-2" d="M149.68,49.21a3.39,3.39,0,0,1-3.4-3.64V12.48c.06-2,1.23-3.63,3.4-3.63h12.76c7.27,0,11.95,4.34,11.95,11.25a8,8,0,0,1-5.5,7.55,9.8,9.8,0,0,1,7.61,9.2c0,6.67-4.86,12.36-12.88,12.36ZM161.62,25c2.23,0,3.75-1.87,3.75-4.28s-1.29-4.27-3.8-4.27h-6.68V25Zm-6.73,6.79v9.9h8.26c2.87,0,4.33-2.63,4.33-5S166,31.75,163,31.75Z"/><path class="cls-2" d="M181,35.44c0-8.61,6.39-14.11,14.35-14.11s14.41,5.5,14.41,14.11-6.44,14.29-14.41,14.29S181,44.05,181,35.44Zm20.56,0a6.18,6.18,0,1,0-12.36,0,6.18,6.18,0,1,0,12.36,0Z"/><path class="cls-2" d="M214,35.44c0-8.61,6.38-14.11,14.35-14.11s14.41,5.5,14.41,14.11-6.45,14.29-14.41,14.29S214,44.05,214,35.44Zm20.56,0a6.18,6.18,0,1,0-12.36,0,6.18,6.18,0,1,0,12.36,0Z"/><path class="cls-2" d="M250.69,21.86V14.71a4,4,0,0,1,4.1-3.63,3.88,3.88,0,0,1,4.1,3.63v7.15H262a3.08,3.08,0,0,1,2.93,3.22A3.16,3.16,0,0,1,262,28.3h-3.1V45.87a3.88,3.88,0,0,1-4.1,3.63,4,4,0,0,1-4.1-3.63V28.3h-2.23a3.16,3.16,0,0,1-2.93-3.22,3.08,3.08,0,0,1,2.93-3.22Z"/><path class="cls-1" d="M139.49,1.53A11.16,11.16,0,0,0,133.82,0a11,11,0,0,0-7.27,2.74,10.6,10.6,0,0,0-2.45,3.17A10.23,10.23,0,0,0,123,10.12v4.61c-.52-.05-1-.09-1.51-.09a20.5,20.5,0,0,0-7.47,1.4,19.93,19.93,0,0,0-4,2.16c-.05-.05-.1-.12-.15-.18a10,10,0,0,0-2.63-2,12,12,0,0,0-3.64-1.18,17.24,17.24,0,0,0-2.89-.22,12.85,12.85,0,0,0-4.33.74,12.22,12.22,0,0,0-1.78.79,11.14,11.14,0,0,0-5.19-1.29,11,11,0,0,0-7.27,2.74A10.53,10.53,0,0,0,80,20.21a20.2,20.2,0,0,0-3.1-2.37,22,22,0,0,0-11.58-3.2,22.5,22.5,0,0,0-8,1.43,20,20,0,0,0-6.71,4.18c-.19-.32-.37-.64-.58-.93a11.18,11.18,0,0,0,2-3A11.34,11.34,0,0,0,47.67,2.1,12.09,12.09,0,0,0,33.29,3.33c-.16-.09-.32-.18-.49-.26a10.14,10.14,0,0,0-4.15-.9H10.08A10.1,10.1,0,0,0,5.93,3,9.56,9.56,0,0,0,3.26,4.8,10.07,10.07,0,0,0,.79,8.44,11.13,11.13,0,0,0,0,12.29V45.52a10.14,10.14,0,0,0,1,4.4,11,11,0,0,0,4,4.5A11.05,11.05,0,0,0,11,56.19a11.17,11.17,0,0,0,7.58-3A10.65,10.65,0,0,0,21,49.84a10.19,10.19,0,0,0,.94-4.32V39.73h3.27a9.9,9.9,0,0,0,4.17-.93c.39-.19.74-.4,1.09-.61V49a10.62,10.62,0,0,0-4.2,2.28,10.09,10.09,0,0,0-3.41,7.61,10.35,10.35,0,0,0,4.81,8.78,10.69,10.69,0,0,0,5.74,1.65H35A19.31,19.31,0,0,0,42.45,68a14.2,14.2,0,0,0,7.14-6.32,18.31,18.31,0,0,0,1.94-5.39A27.94,27.94,0,0,0,52,51.87a19.21,19.21,0,0,0,1.74,1.26,21.7,21.7,0,0,0,11.62,3.29A21.28,21.28,0,0,0,80,50.78a10.63,10.63,0,0,0,3.71,3.82,11.1,11.1,0,0,0,13-1.11,10.24,10.24,0,0,0,2.51-3.29,9.83,9.83,0,0,0,1-4.33V39.22a22.09,22.09,0,0,1,.28-3.42c0-.12,0-.22.06-.32l1,0A22.85,22.85,0,0,0,103.11,44a19.52,19.52,0,0,0,7.5,9.2,20,20,0,0,0,10.91,3.19,16.83,16.83,0,0,0,7-1.59,11,11,0,0,0,12.53-1.34,10.24,10.24,0,0,0,2.51-3.29,9.83,9.83,0,0,0,1-4.33V10.32a9.88,9.88,0,0,0-1-4.34A10.47,10.47,0,0,0,139.49,1.53ZM65.73,35.38h0l0-.05Zm-.58.22h0l-.12.1Zm-24-24.07Zm.11.82h0L42,13.46Zm.11-.3h0l1.28.59Zm0-.62h0l1.3-.59Zm-.29.06h0l-1.29-.56Z"/><path class="cls-2" d="M28.65,8.85a3.67,3.67,0,0,1,3.51,3.81,3.82,3.82,0,0,1-3.51,3.75H15.24v9.25h10a3.6,3.6,0,0,1,3.52,3.69A3.72,3.72,0,0,1,25.19,33h-10V45.52a4.18,4.18,0,0,1-4.28,4,4.29,4.29,0,0,1-4.27-4v-33c0-2,1.23-3.63,3.39-3.63Z"/><path class="cls-2" d="M33.56,55.24c3,0,3.58-2.4,3.58-4.34V25.19a4,4,0,0,1,4.1-3.63,3.88,3.88,0,0,1,4.1,3.63V50.73C45.34,58,42.76,62.62,35,62.62H33.39a3.69,3.69,0,1,1,0-7.38ZM41.29,7a4.83,4.83,0,0,1,5,4.74,4.88,4.88,0,0,1-5,4.81,5,5,0,0,1-5.09-4.81A4.92,4.92,0,0,1,41.29,7Z"/><path class="cls-2" d="M51,35.44c0-8.61,6.39-14.11,14.35-14.11s14.41,5.5,14.41,14.11S73.33,49.73,65.36,49.73,51,44.05,51,35.44Zm20.56,0a6.18,6.18,0,1,0-12.36,0,6.18,6.18,0,1,0,12.36,0Z"/><path class="cls-2" d="M105.77,25.84c-.3,2.05-2.23,3-4,3-.59,0-1.47-.06-2-.06-4.57,0-6.1,3.51-6.21,10.36v6.74a3.88,3.88,0,0,1-4.1,3.63,4,4,0,0,1-4.1-3.63V25.19a4,4,0,0,1,4.1-3.63,3.88,3.88,0,0,1,4.1,3.63v3c1.52-5.09,4.39-6.85,7.2-6.85S106.29,22,105.77,25.84Z"/><path class="cls-2" d="M129.72,10.32a4,4,0,0,1,4.1-3.63,3.88,3.88,0,0,1,4.1,3.63V45.87a3.88,3.88,0,0,1-4.1,3.63,4,4,0,0,1-4.1-3.63v-.53a9.71,9.71,0,0,1-8.2,4.39c-7,0-13.3-5.15-13.3-14.23s6.33-14.17,13.3-14.17a10.13,10.13,0,0,1,8.2,4.39ZM123.1,42.47a6.91,6.91,0,0,0,0-13.82c-4.1,0-6.44,3.28-6.44,6.91S119,42.47,123.1,42.47Z"/></g><g id="ja"><path class="cls-1" d="M333,66.6a6.16,6.16,0,0,0-8-3.23,6.22,6.22,0,0,0-2.71,2.21l0,0H312.8a6.27,6.27,0,0,0-1.12.09,5.13,5.13,0,0,0-2.58,1.2l-.16.14a7.09,7.09,0,0,0-.88-.3,5.17,5.17,0,0,0-1-.18c-.24,0-.44,0-.53,0a6.17,6.17,0,0,0-.9.06,5.73,5.73,0,0,0-1,.23,5.09,5.09,0,0,0-.91.44,4.75,4.75,0,0,0-1.25,1.12,5.8,5.8,0,0,0-.52.8l-.06.13a6.6,6.6,0,0,0-.7-.7,12.12,12.12,0,0,0-1.72-1.23c-.62-.37-1.36-.78-2.35-1.29l0,0c-.36-.19-.91-.48-1.5-.75-.27-.12-.64-.28-1.07-.43a5.36,5.36,0,0,0-.7-.2,4.51,4.51,0,0,0-1.09-.13h0a5.17,5.17,0,0,0-1.64.27,5.68,5.68,0,0,0-1.56.82,6,6,0,0,0-1.61,1.86,5.83,5.83,0,0,0-.69,2.2l-.12,0a7.72,7.72,0,0,0-1.47-.14l-.8,0-1.91.17a4.53,4.53,0,0,0-.27-.54,4.89,4.89,0,0,0-.82-1A5,5,0,0,0,280,67a6,6,0,0,0-1.93-.31,6.09,6.09,0,0,0-2,.31,4.93,4.93,0,0,0-1.54.81,5,5,0,0,0-1.78,2.66,2.5,2.5,0,0,0-.07.26l-.06,0-.06-.31a5.09,5.09,0,0,0-.48-1.32,4.63,4.63,0,0,0-.76-1.09,5.06,5.06,0,0,0-1.86-1.29,5.57,5.57,0,0,0-2.13-.4h-.45l-1.34.09A5,5,0,0,0,264.51,65a4.63,4.63,0,0,0-1.24-.85,5.06,5.06,0,0,0-1.63-.48,9.3,9.3,0,0,0-1.06-.07,6.86,6.86,0,0,0-2.14.34,5.17,5.17,0,0,0-1.65.94,4.71,4.71,0,0,0-1,1.08,4.87,4.87,0,0,0-.55,1.15l-1.39.09a6.11,6.11,0,0,0-1.68.34,5.24,5.24,0,0,0-1.36.73,5.16,5.16,0,0,0-.93.88,5.22,5.22,0,0,0-.91,1.71,5.69,5.69,0,0,0-.2.93l-.48-.23c-1.45-.69-2.92-1.31-4.35-1.85v-.51a8.74,8.74,0,0,0-.1-1.22,5.6,5.6,0,0,0-.49-1.48,5,5,0,0,0-.87-1.24,5.23,5.23,0,0,0-2-1.29,6.67,6.67,0,0,0-2.14-.35,6.91,6.91,0,0,0-1.3.12,6.36,6.36,0,0,0-1.17.36,5.11,5.11,0,0,0-1.82,1.32,4.94,4.94,0,0,0-.82,1.27,5.6,5.6,0,0,0-.45,1.59,7.1,7.1,0,0,0-.05.9v2.27l-.07,0a5.44,5.44,0,0,0-1.51-.36,6.92,6.92,0,0,0-.79,0h-13.9a4.88,4.88,0,0,0,.2-.65,4.63,4.63,0,0,0,.12-1c0-.3,0-.53-.05-.7a7,7,0,0,0-.17-.85c-.1-.39-.21-.74-.28-1s-.16-.46-.26-.72l0,0c-.08-.2-.17-.43-.31-.71a6.47,6.47,0,0,0-.48-.77,4.39,4.39,0,0,0-.65-.71,4.34,4.34,0,0,0-1.5-.87,4.61,4.61,0,0,0-1.49-.24h0a3.1,3.1,0,0,0-.43,0,5.43,5.43,0,0,0-.88.16l-.08,0a4.32,4.32,0,0,0-1-.1l-.47,0a5.43,5.43,0,0,0-.91.18,5.56,5.56,0,0,0-.91.36,4.93,4.93,0,0,0-.8.55A4.37,4.37,0,0,0,205,65.43l-.08.16h-8.74a6,6,0,0,0-1.15.1,5.56,5.56,0,0,0-1.38.43l-.12.06c-.08-.12-.18-.27-.3-.43a4.23,4.23,0,0,0-.61-.66,4.47,4.47,0,0,0-3-1.13,4.58,4.58,0,0,0-.53,0,4.9,4.9,0,0,0-.94.19c-.14,0-.27.09-.4.15l-.47,0-.43,0a5.06,5.06,0,0,0-.88.16,4.85,4.85,0,0,0-.92.35,4.12,4.12,0,0,0-.63.39,5.08,5.08,0,0,0-2-1.24,6.56,6.56,0,0,0-2.13-.35,6.83,6.83,0,0,0-1.3.12,6.36,6.36,0,0,0-1.17.36,5.09,5.09,0,0,0-2.65,2.59,5.5,5.5,0,0,0-.44,1.59,7,7,0,0,0-.05.89v2.35l-.36-.09a6.77,6.77,0,0,0-.74-.13,5.07,5.07,0,0,0-.66,0,5.58,5.58,0,0,0-1,.09,3.57,3.57,0,0,0-.47.11V69.31a5.72,5.72,0,0,0-.39-2.13,4.8,4.8,0,0,0-1-1.61,4.91,4.91,0,0,0-1.1-.87,5.39,5.39,0,0,0-1.64-.61,6.61,6.61,0,0,0-1.36-.13,6.13,6.13,0,0,0-2.1.34,5.87,5.87,0,0,0-.81.36,5.44,5.44,0,0,0-1.08-.34,6.36,6.36,0,0,0-1.41-.14,6.2,6.2,0,0,0-2.24.39,4.88,4.88,0,0,0-2.83,2.75l0,0A5.43,5.43,0,0,0,154.21,66,6.13,6.13,0,0,0,152,65a8.1,8.1,0,0,0-2-.24H138.53a6.19,6.19,0,0,0-1.23.18,5.47,5.47,0,0,0-1.32.54,5,5,0,0,0-1.06.83,4.35,4.35,0,0,0-.57.7l-.18-.06a5.47,5.47,0,0,0-1.65-.26,4.9,4.9,0,0,0-.77.06,5,5,0,0,0-1.46.46,6.2,6.2,0,0,0-1.2.79l-.51.43-1.32,1.09-.31.24-.26.17a22.76,22.76,0,0,1-4,2.08l-1.23.45c0-.1,0-.2,0-.3s0-.5.06-.73,0-.18,0-.25V71a7.29,7.29,0,0,0-.09-1.23A5.41,5.41,0,0,0,121,68.1a5.26,5.26,0,0,0-.95-1.34,5.7,5.7,0,0,0-2.22-1.37,7.43,7.43,0,0,0-2.38-.37H103.06a8.35,8.35,0,0,0-1.08.09,5.3,5.3,0,0,0-1.37.41,4.93,4.93,0,0,0-1.21.76,5.14,5.14,0,0,0-1.43,2,6,6,0,0,0-.42,2.27,6.21,6.21,0,0,0,.15,1.38,5.17,5.17,0,0,0,1.19,2.34,5,5,0,0,0,1.4,1.1,5.66,5.66,0,0,0,1.81.59l.62,0h5.63a7.68,7.68,0,0,1-.61.49,11,11,0,0,1-3.61,1.64l-.06,0c-.25.07-.55.15-.9.28a5.67,5.67,0,0,0-1,.47,5.37,5.37,0,0,0-.94.68A5,5,0,0,0,100,81.35a5.37,5.37,0,0,0-.39,2,5.6,5.6,0,0,0,0,.69,5.84,5.84,0,0,0,.3,1.3,5.76,5.76,0,0,0,.54,1.15,5.25,5.25,0,0,0,.71.92,5.1,5.1,0,0,0,1.7,1.2,5.42,5.42,0,0,0,2.16.45,6.59,6.59,0,0,0,1.17-.1,10.85,10.85,0,0,0,1.28-.27l.8-.24a20.62,20.62,0,0,0,5.13-2.4,17.9,17.9,0,0,0,4.18-3.81,5.19,5.19,0,0,0,3.54,1.38,6.82,6.82,0,0,0,1.06-.1l.27,0v.72a5.5,5.5,0,0,0,.41,2.16A4.91,4.91,0,0,0,125,88.81a5.48,5.48,0,0,0,1.61.61,6.38,6.38,0,0,0,1.33.13,6.1,6.1,0,0,0,2-.31,5.23,5.23,0,0,0,1.57-.87,4.61,4.61,0,0,0,.95-1,5,5,0,0,0,.77-1.69,5.81,5.81,0,0,0,.16-1.12,5.83,5.83,0,0,0,.34.94,5,5,0,0,0,1.14,1.59,4.71,4.71,0,0,0,1.09.78,5.27,5.27,0,0,0,1.53.55,6.28,6.28,0,0,0,1.24.12H150a8,8,0,0,0,2.09-.24,6,6,0,0,0,1.83-.79A6,6,0,0,0,158,89.15a5.15,5.15,0,0,0,1-.09,5.26,5.26,0,0,0,1.2-.39,6.18,6.18,0,0,0,1.51-1l.31-.29,0,0a5.68,5.68,0,0,0,2,1.24,6.51,6.51,0,0,0,2.2.37,7.27,7.27,0,0,0,1.28-.12,11.14,11.14,0,0,0,2.18-.6,14.23,14.23,0,0,0,3.42-1.91,13.46,13.46,0,0,0,1.64-1.46l0,.22a5.29,5.29,0,0,0,.47,1.49,5.22,5.22,0,0,0,.88,1.25,5.13,5.13,0,0,0,2.05,1.31,6.4,6.4,0,0,0,2.14.34,6.12,6.12,0,0,0,2.61-.54,5.26,5.26,0,0,0,1.76-1.33,5,5,0,0,0,.77-1.25,5.37,5.37,0,0,0,.42-1.56,6.55,6.55,0,0,0,.05-.87V82.1l.16.09a8.85,8.85,0,0,0,1.39.73,5.91,5.91,0,0,0,1,.32,5.64,5.64,0,0,0,1.16.12,5.45,5.45,0,0,0,2.67-.7,5.07,5.07,0,0,0,.54-.36,5.4,5.4,0,0,0-.15,1.28,6.11,6.11,0,0,0,.05.73,6,6,0,0,0,.33,1.33,5.75,5.75,0,0,0,.56,1.14,6.34,6.34,0,0,0,.71.91,5.35,5.35,0,0,0,3.83,1.6l.64,0c.33,0,.66-.09,1-.17a16.07,16.07,0,0,0,2.09-.57,21.16,21.16,0,0,0,3.78-1.72,16.84,16.84,0,0,0,6.19-6c.12.1.23.2.36.29a5,5,0,0,0,1.27.72,6.28,6.28,0,0,0,1.51.36c.36,0,.63,0,.78,0h14.43a7,7,0,0,0,1.15-.08,5.47,5.47,0,0,0,1.25-.34V84a6.55,6.55,0,0,0,.09,1.18,5.31,5.31,0,0,0,.48,1.49,4.92,4.92,0,0,0,.87,1.25,5.16,5.16,0,0,0,2.06,1.31,6.3,6.3,0,0,0,2.13.34A6.17,6.17,0,0,0,241,89a5.12,5.12,0,0,0,1.75-1.33,5.24,5.24,0,0,0,.78-1.25,5.7,5.7,0,0,0,.42-1.56c0-.39,0-.7,0-.87V82.1l.15.09a9.32,9.32,0,0,0,1.39.73,6.18,6.18,0,0,0,1,.32,5.74,5.74,0,0,0,1.17.12,5.35,5.35,0,0,0,2.21-.47,5.28,5.28,0,0,0,1.74,1,5.83,5.83,0,0,0,1.93.32l.41,0L256,84.1l0,.23v.06a6.43,6.43,0,0,0,.12,1,5.46,5.46,0,0,0,.48,1.41,4.94,4.94,0,0,0,.87,1.22,5.13,5.13,0,0,0,2,1.26,6.39,6.39,0,0,0,2,.32,6.48,6.48,0,0,0,2.25-.37,5.3,5.3,0,0,0,1.68-1,5,5,0,0,0,.93-1.12,5.29,5.29,0,0,0,.63-1.66,5.84,5.84,0,0,0,.11-1.17c0-.24,0-.43,0-.55l0-.26,1.66-.09a6.12,6.12,0,0,0,1.61-.3,5.21,5.21,0,0,0,1.37-.7,5,5,0,0,0,1-.88l.28-.36.5.09.35,3.42a6.79,6.79,0,0,0,.23,1.2,5.38,5.38,0,0,0,.56,1.27,5.33,5.33,0,0,0,.82,1,5.24,5.24,0,0,0,1.82,1.12,5.85,5.85,0,0,0,1.94.32,6,6,0,0,0,2.38-.47A5,5,0,0,0,283.19,88a4.83,4.83,0,0,0,.81-1.09,5.38,5.38,0,0,0,.55-1.53c0-.09,0-.18.05-.27a6.44,6.44,0,0,0,1.58-.74A8.52,8.52,0,0,0,287.76,83v0a6.93,6.93,0,0,0,.18,1.51,6.3,6.3,0,0,0,.49,1.32,5.8,5.8,0,0,0,.72,1.08A5.4,5.4,0,0,0,291,88.36a5.74,5.74,0,0,0,2.3.48c.23,0,.44,0,.68,0s.62-.07,1-.13c1-.18,2.1-.44,2.81-.63h.05a22.46,22.46,0,0,0,4.35-1.71,18.36,18.36,0,0,0,5.25-4.16,22.84,22.84,0,0,0,3.47-5.49c0-.11.09-.21.13-.31a5.56,5.56,0,0,0,.83.18l.61.06h5.33A10.66,10.66,0,0,1,314,78.38c-.25.07-.59.16-1,.3a6.61,6.61,0,0,0-1,.48,5.18,5.18,0,0,0-.95.7,4.78,4.78,0,0,0-1.21,1.76,5.21,5.21,0,0,0-.38,2,4.56,4.56,0,0,0,.05.73,5.92,5.92,0,0,0,.32,1.32,5,5,0,0,0,.55,1.14,5.28,5.28,0,0,0,2.39,2.09,5.38,5.38,0,0,0,2.15.45c.21,0,.4,0,.63,0s.66-.09,1-.16a20,20,0,0,0,2.09-.57,21.26,21.26,0,0,0,3.79-1.72,18,18,0,0,0,4-3.12,19,19,0,0,0,4.6-9.08,7.62,7.62,0,0,0,.14-.81,6,6,0,0,0,1.34-1.47,6.12,6.12,0,0,0,1-3.36A6.22,6.22,0,0,0,333,66.6ZM294.24,77.41c-.4.07-.83.14-1.28.2a9.26,9.26,0,0,0-1.29.25,6.37,6.37,0,0,0-.84.31c.1-.27.19-.54.26-.8a8.78,8.78,0,0,0,.31-1.73L292,76c.7.41,1.32.8,1.77,1.1Zm-99-.9h0a6,6,0,0,0,.61.06h5.36a10.83,10.83,0,0,1-3.86,1.79h0c-.26.07-.57.16-.92.28a7.05,7.05,0,0,0-1,.47l-.33.2a6.16,6.16,0,0,0,.29-1.85A5,5,0,0,0,195.21,76.51Zm-61.82,5v-3.1l.51-.34a4.69,4.69,0,0,0,.58,1.34,5.57,5.57,0,0,0-1.09,2.1Z"/><path class="cls-2" d="M115.43,68.92c2.24,0,2.28,1.33,2.28,2.08a16.85,16.85,0,0,1-2.62,8.08,14.8,14.8,0,0,1-8,5.66,7.94,7.94,0,0,1-2,.43c-1.29,0-1.58-1.31-1.58-1.82,0-1,.73-1.19,1.68-1.45,3.83-1.05,6.57-3,7.84-5.7a11,11,0,0,0,1.06-3.61c0-.46-.28-.48-.52-.48H103.06a1.6,1.6,0,1,1,0-3.19Z"/><path class="cls-2" d="M129.49,84.2c0,.87-.4,1.45-1.55,1.45-.9,0-1.57-.34-1.57-1.45V78a19.55,19.55,0,0,1-5.22,1.78,1.56,1.56,0,0,1-1.45-1.68c0-.92.63-1.11,1.11-1.25a28.22,28.22,0,0,0,8-3.54,29.28,29.28,0,0,0,2.76-2.2,1.39,1.39,0,0,1,1-.42,1.71,1.71,0,0,1,1.67,1.63,1.44,1.44,0,0,1-.62,1.17,26.17,26.17,0,0,1-4.08,2.88Z"/><path class="cls-2" d="M139.1,78a1.49,1.49,0,1,1,0-3h10.36v-2.6a.6.6,0,0,0-.66-.68h-9.92a1.53,1.53,0,1,1,0-3H150c2,0,2.75.87,2.75,2.76v10.4c0,2.22-1.07,2.76-2.75,2.76H138.72a1.56,1.56,0,1,1,0-3.12H148.8a.59.59,0,0,0,.66-.67V78Z"/><path class="cls-2" d="M162.18,73.92c0,4.35-.2,7.28-2.32,10-1.05,1.33-1.53,1.33-1.87,1.33a1.89,1.89,0,0,1-1.9-1.74,1.76,1.76,0,0,1,.61-1.24c1.91-2.2,2.23-3.17,2.23-8.49V69.55c0-.71.22-1.47,1.6-1.47,1.06,0,1.65.4,1.65,1.47Zm2.15-4.61c0-.79.31-1.45,1.6-1.45,1,0,1.63.36,1.63,1.45v11.4c0,.27,0,.49.22.49.79,0,2.76-1.59,3.69-4.46.32-1,.52-1.57,1.47-1.57.36,0,1.79.18,1.79,1.43A10.22,10.22,0,0,1,173,80.85a9.48,9.48,0,0,1-6.81,4.26,1.71,1.71,0,0,1-1.9-1.94Z"/><path class="cls-2" d="M182,84c0,.58,0,1.67-1.71,1.67s-1.73-1-1.73-1.67V69.21c0-.57,0-1.68,1.71-1.68s1.73,1,1.73,1.68v3.3a51.13,51.13,0,0,1,7.66,3.1c1.31.67,1.69,1,1.69,1.86a1.89,1.89,0,0,1-1.69,2,3,3,0,0,1-1.61-.62A33.79,33.79,0,0,0,182,75.9Zm4.52-14.73a1.27,1.27,0,0,1-.06-.39c0-.58.64-.64.78-.64.38,0,.59.28.81.85a7.13,7.13,0,0,1,.48,1.85.71.71,0,0,1-.76.7c-.23,0-.49-.06-.65-.52-.08-.26-.22-.7-.3-1S186.6,69.35,186.56,69.23Zm2.31-.37a1.17,1.17,0,0,1,0-.36c0-.54.61-.64.79-.64.38,0,.56.26.8.84a6.48,6.48,0,0,1,.51,1.84c0,.7-.73.7-.79.7-.48,0-.52-.14-.92-1.47C189.18,69.61,188.91,69,188.87,68.86Z"/><path class="cls-2" d="M196.17,72.67a1.59,1.59,0,1,1,0-3.18h11.2a6,6,0,0,1,1.8.28l-.32-1c-.11-.36-.13-.4-.33-.92a1.21,1.21,0,0,1-.08-.45c0-.56.63-.64.79-.64.38,0,.56.24.8.84a6.4,6.4,0,0,1,.49,1.8c0,.4-.22.68-.77.7a2.4,2.4,0,0,1,1,2.18A14.65,14.65,0,0,1,206.93,81a15.23,15.23,0,0,1-8.69,4.37c-1.26,0-1.59-1.29-1.59-1.81,0-1,.73-1.19,1.7-1.46,6.42-1.73,7.81-5.38,8.36-7a8.1,8.1,0,0,0,.48-2c0-.47-.3-.49-.54-.49Zm14.67-5a1.11,1.11,0,0,1-.06-.34c0-.58.64-.64.79-.64.42,0,.58.26.8.82a7.39,7.39,0,0,1,.51,1.86c0,.7-.73.7-.79.7a.63.63,0,0,1-.6-.42c-.07-.16-.29-.91-.33-1.07S210.88,67.78,210.84,67.63Z"/><path class="cls-2" d="M215.94,78.27a1.51,1.51,0,0,1-1.77-1.65c0-1.59,1.06-1.69,1.77-1.69h14.39a1.51,1.51,0,0,1,1.77,1.65c0,1.63-1.13,1.69-1.77,1.69Z"/><path class="cls-2" d="M240.08,84c0,.58,0,1.67-1.72,1.67s-1.73-1-1.73-1.67V69.21c0-.57,0-1.68,1.71-1.68s1.74,1,1.74,1.68v3.3a50.86,50.86,0,0,1,7.65,3.1c1.31.67,1.7,1,1.7,1.86a1.9,1.9,0,0,1-1.7,2,3.07,3.07,0,0,1-1.61-.62,33.7,33.7,0,0,0-6-2.94Z"/><path class="cls-2" d="M258.9,69.23c-.06-.83.1-1.72,1.67-1.72.93,0,1.59.14,1.67,1.52l.11,1.55,4.81-.31a1.51,1.51,0,1,1,.18,3l-4.79.32.2,3.12,5.6-.32a1.52,1.52,0,1,1,.18,3l-5.58.33.26,4.13c0,.64.1,1.77-1.69,1.77-1.55,0-1.61-.93-1.65-1.59L259.6,80l-5.82.36a1.41,1.41,0,0,1-1.67-1.55,1.39,1.39,0,0,1,1.49-1.49l5.8-.37-.2-3.12-4.85.32a1.41,1.41,0,0,1-1.7-1.53,1.4,1.4,0,0,1,1.49-1.49l4.86-.3Z"/><path class="cls-2" d="M285.18,73.48c1.41-.12,2.33.24,2.33,1.69,0,2.26-2.7,6.21-4.41,6.21a1.58,1.58,0,0,1-1.55-1.45c0-.55.24-.77,1.11-1.51A4.33,4.33,0,0,0,284,76.48c0-.1-.08-.12-.3-.1l-3.71.38.72,7.18a1.38,1.38,0,0,1-1.55,1.69,1.36,1.36,0,0,1-1.49-1.41L277,77.09l-2.39.24a1.58,1.58,0,0,1-1.15-.22,1.55,1.55,0,0,1-.55-1.27c0-1.17.79-1.35,1.39-1.41l2.42-.23-.2-1.91c-.1-.93.28-1.67,1.59-1.67A1.28,1.28,0,0,1,279.51,72l.21,2Z"/><path class="cls-2" d="M292.73,68.48a9.41,9.41,0,0,1,2.6,1.09c3.61,1.87,3.89,2.38,3.89,3.14s-.7,1.88-1.67,1.88c-.38,0-.67-.08-1.53-.69-1.23-.84-2.91-1.77-3.69-2.19-.55-.29-1.21-.63-1.21-1.48a1.88,1.88,0,0,1,1.23-1.69A1.16,1.16,0,0,1,292.73,68.48ZM308.33,72c0,.94-1.37,4.81-3.85,7.66a15.26,15.26,0,0,1-7.72,4.67,19,19,0,0,1-3.46.67,1.69,1.69,0,0,1-1.64-1.88c0-1.21.73-1.45,1.8-1.59,5.16-.67,9.19-2.64,11.52-9.33.45-1.29.59-1.69,1.5-1.69a2,2,0,0,1,.54.06A1.5,1.5,0,0,1,308.33,72Z"/><path class="cls-2" d="M312.8,72.71a1.59,1.59,0,1,1,0-3.18h11.13a8.68,8.68,0,0,1,1.19.1,2.85,2.85,0,0,1-.08-.58,2.27,2.27,0,0,1,2.27-2.26A2.23,2.23,0,0,1,329.55,69a2.28,2.28,0,0,1-2.34,2.28,4.19,4.19,0,0,1,.12,1,14.65,14.65,0,0,1-3.8,8.73,15.09,15.09,0,0,1-8.67,4.37c-1.25,0-1.57-1.29-1.57-1.83,0-.95.7-1.19,1.69-1.46,6.27-1.69,7.74-5.2,8.32-6.93a7.16,7.16,0,0,0,.47-2c0-.49-.28-.49-.53-.49Zm14.49-4.63a1,1,0,1,0,0,1.91,1,1,0,1,0,0-1.91Z"/></g></g></svg>