<svg id="レイヤー_1" data-name="レイヤー 1" xmlns="http://www.w3.org/2000/svg" viewBox="0 0 293.5 37.17"><defs><style>.cls-1{fill:#fff;}</style></defs><title>logo</title><path class="cls-1" d="M14.45,1.43a2.42,2.42,0,0,1,2.32,2.51,2.52,2.52,0,0,1-2.32,2.47H5.62V12.5h6.56a2.37,2.37,0,0,1,2.31,2.43,2.44,2.44,0,0,1-2.31,2.43H5.62v8.22A2.76,2.76,0,0,1,2.8,28.21,2.83,2.83,0,0,1,0,25.58V3.82A2.23,2.23,0,0,1,2.22,1.43Z"/><path class="cls-1" d="M17.7,32c2,0,2.35-1.58,2.35-2.86V12.19a2.63,2.63,0,0,1,2.7-2.39,2.55,2.55,0,0,1,2.7,2.39V29c0,4.78-1.69,7.83-6.79,7.83H17.58a2.43,2.43,0,1,1,0-4.86ZM22.79.19a3.19,3.19,0,0,1,3.32,3.13,3.22,3.22,0,0,1-3.32,3.16,3.28,3.28,0,0,1-3.36-3.16A3.25,3.25,0,0,1,22.79.19Z"/><path class="cls-1" d="M29.2,19c0-5.68,4.2-9.3,9.45-9.3s9.49,3.62,9.49,9.3a9.16,9.16,0,0,1-9.49,9.41A9.12,9.12,0,0,1,29.2,19Zm13.54,0a4.07,4.07,0,1,0-8.14,0,4.07,4.07,0,1,0,8.14,0Z"/><path class="cls-1" d="M65.28,12.62a2.49,2.49,0,0,1-2.66,2c-.39,0-1,0-1.32,0-3,0-4,2.31-4.09,6.83v4.44a2.55,2.55,0,0,1-2.7,2.39,2.63,2.63,0,0,1-2.7-2.39V12.19a2.63,2.63,0,0,1,2.7-2.39,2.55,2.55,0,0,1,2.7,2.39v2c1-3.35,2.9-4.51,4.75-4.51S65.62,10.07,65.28,12.62Z"/><path class="cls-1" d="M81.06,2.39A2.63,2.63,0,0,1,83.76,0a2.55,2.55,0,0,1,2.7,2.39V25.82a2.55,2.55,0,0,1-2.7,2.39,2.63,2.63,0,0,1-2.7-2.39v-.35a6.4,6.4,0,0,1-5.4,2.89C71.07,28.36,66.9,25,66.9,19s4.17-9.34,8.76-9.34a6.66,6.66,0,0,1,5.4,2.89ZM76.7,23.58a4.56,4.56,0,0,0,0-9.11A4.25,4.25,0,0,0,72.46,19,4.26,4.26,0,0,0,76.7,23.58Z"/><path class="cls-1" d="M103.44,28a2.23,2.23,0,0,1-2.23-2.4V3.82a2.22,2.22,0,0,1,2.23-2.39h8.42c4.78,0,7.87,2.85,7.87,7.41a5.27,5.27,0,0,1-3.63,5,6.45,6.45,0,0,1,5,6.05c0,4.4-3.21,8.15-8.49,8.15Zm7.88-16a2.58,2.58,0,0,0,2.47-2.82c0-1.66-.85-2.81-2.51-2.81h-4.4V12Zm-4.44,4.48V23h5.44a3.06,3.06,0,0,0,2.86-3.32,3,3,0,0,0-3-3.2Z"/><path class="cls-1" d="M124.09,19c0-5.68,4.21-9.3,9.45-9.3S143,13.27,143,19a9.48,9.48,0,0,1-18.95,0Zm13.54,0a4.07,4.07,0,1,0-8.14,0,4.07,4.07,0,1,0,8.14,0Z"/><path class="cls-1" d="M145.82,19c0-5.68,4.2-9.3,9.45-9.3s9.49,3.62,9.49,9.3a9.47,9.47,0,0,1-18.94,0Zm13.54,0a4.07,4.07,0,1,0-8.14,0,4.07,4.07,0,1,0,8.14,0Z"/><path class="cls-1" d="M170,10V5.29a2.64,2.64,0,0,1,2.7-2.4,2.56,2.56,0,0,1,2.7,2.4V10h2.05a2,2,0,0,1,1.93,2.13,2.08,2.08,0,0,1-1.93,2.12h-2.05V25.82a2.55,2.55,0,0,1-2.7,2.39,2.64,2.64,0,0,1-2.7-2.39V14.24h-1.46a2.08,2.08,0,0,1-1.93-2.12A2,2,0,0,1,168.55,10Z"/><path class="cls-1" d="M204.09,1.12a13.34,13.34,0,0,1,9.41,3.67c1,.92.74,2.89-.34,3.85a2.8,2.8,0,0,1-3.63,0,7.84,7.84,0,0,0-13.16,6.06,7.84,7.84,0,0,0,13.16,6.06,2.8,2.8,0,0,1,3.63,0c1.08,1,1.35,2.93.34,3.86a13.51,13.51,0,0,1-22.76-10A13.32,13.32,0,0,1,204.09,1.12Z"/><path class="cls-1" d="M230.64,12.19a2.63,2.63,0,0,1,2.7-2.39,2.55,2.55,0,0,1,2.7,2.39V25.82a2.55,2.55,0,0,1-2.7,2.39,2.63,2.63,0,0,1-2.7-2.39v-.35a6.4,6.4,0,0,1-5.4,2.89c-4.6,0-8.76-3.39-8.76-9.37s4.16-9.34,8.76-9.34a6.69,6.69,0,0,1,5.4,2.89Zm-4.36,11.39a4.56,4.56,0,0,0,0-9.11A4.26,4.26,0,0,0,222,19,4.26,4.26,0,0,0,226.28,23.58Z"/><path class="cls-1" d="M269,25.82a2.56,2.56,0,0,1-2.7,2.39,2.64,2.64,0,0,1-2.71-2.39V18.41c0-2.36-1.42-3.59-3-3.59s-3,1-3,3.66v7.34a2.56,2.56,0,0,1-2.71,2.39,2.64,2.64,0,0,1-2.7-2.39V18.29c0-2.28-1.42-3.47-3-3.47s-3.12.92-3.12,3.66v7.34a2.56,2.56,0,0,1-2.7,2.39,2.64,2.64,0,0,1-2.71-2.39V12.19A2.64,2.64,0,0,1,243.3,9.8a2.56,2.56,0,0,1,2.7,2.39v.43a5.16,5.16,0,0,1,4.7-3c2.86,0,4.75.92,5.95,3.39a5.81,5.81,0,0,1,5.25-3.43c4.28,0,7,2.74,7.06,8.18Z"/><path class="cls-1" d="M284.24,9.65C288.83,9.65,293,13,293,19s-4.17,9.37-8.76,9.37a6.4,6.4,0,0,1-5.4-2.89v9a2.64,2.64,0,0,1-2.7,2.39,2.56,2.56,0,0,1-2.71-2.39V12.19a2.56,2.56,0,0,1,2.71-2.39,2.64,2.64,0,0,1,2.7,2.39v.35A6.66,6.66,0,0,1,284.24,9.65Zm-1,4.82a4.56,4.56,0,0,0,0,9.11A4.26,4.26,0,0,0,287.44,19,4.25,4.25,0,0,0,283.2,14.47Z"/></svg>