<svg id="レイヤー_1" data-name="レイヤー 1" xmlns="http://www.w3.org/2000/svg" viewBox="0 0 293.97 37.17"><defs><style>.cls-1{fill:#fff;}</style></defs><title>logo</title><path class="cls-1" d="M16.43,1.43a2.42,2.42,0,0,1,2.31,2.51,2.52,2.52,0,0,1-2.31,2.47H7.59V12.5h6.56a2.38,2.38,0,0,1,2.32,2.43,2.45,2.45,0,0,1-2.32,2.43H7.59v8.22a2.75,2.75,0,0,1-2.82,2.63A2.83,2.83,0,0,1,2,25.58V3.82A2.23,2.23,0,0,1,4.2,1.43Z"/><path class="cls-1" d="M19.67,32c2,0,2.35-1.58,2.35-2.86V12.19A2.64,2.64,0,0,1,24.73,9.8a2.56,2.56,0,0,1,2.7,2.39V29c0,4.78-1.7,7.83-6.79,7.83H19.55a2.43,2.43,0,1,1,0-4.86ZM24.76.19a3.18,3.18,0,0,1,3.32,3.13,3.21,3.21,0,0,1-3.32,3.16,3.27,3.27,0,0,1-3.35-3.16A3.24,3.24,0,0,1,24.76.19Z"/><path class="cls-1" d="M31.17,19c0-5.68,4.21-9.3,9.45-9.3s9.5,3.62,9.5,9.3a9.16,9.16,0,0,1-9.5,9.41A9.13,9.13,0,0,1,31.17,19Zm13.54,0a4.07,4.07,0,1,0-8.14,0,4.07,4.07,0,1,0,8.14,0Z"/><path class="cls-1" d="M67.25,12.62a2.48,2.48,0,0,1-2.66,2c-.39,0-1,0-1.31,0-3,0-4,2.31-4.09,6.83v4.44a2.56,2.56,0,0,1-2.7,2.39,2.64,2.64,0,0,1-2.71-2.39V12.19A2.64,2.64,0,0,1,56.49,9.8a2.56,2.56,0,0,1,2.7,2.39v2c1-3.35,2.89-4.51,4.74-4.51S67.6,10.07,67.25,12.62Z"/><path class="cls-1" d="M83,2.39A2.63,2.63,0,0,1,85.74,0a2.56,2.56,0,0,1,2.7,2.39V25.82a2.56,2.56,0,0,1-2.7,2.39A2.63,2.63,0,0,1,83,25.82v-.35a6.4,6.4,0,0,1-5.41,2.89C73,28.36,68.87,25,68.87,19S73,9.65,77.63,9.65A6.69,6.69,0,0,1,83,12.54ZM78.67,23.58a4.56,4.56,0,0,0,0-9.11A4.25,4.25,0,0,0,74.43,19,4.26,4.26,0,0,0,78.67,23.58Z"/><path class="cls-1" d="M103.42,28a2.23,2.23,0,0,1-2.24-2.4V3.82a2.23,2.23,0,0,1,2.24-2.39h8.41c4.79,0,7.87,2.85,7.87,7.41a5.27,5.27,0,0,1-3.62,5,6.44,6.44,0,0,1,5,6.05c0,4.4-3.2,8.15-8.49,8.15Zm7.87-16a2.58,2.58,0,0,0,2.47-2.82c0-1.66-.85-2.81-2.51-2.81h-4.4V12Zm-4.44,4.48V23h5.44a3.06,3.06,0,0,0,2.86-3.32,3,3,0,0,0-3-3.2Z"/><path class="cls-1" d="M124.06,19c0-5.68,4.21-9.3,9.46-9.3S143,13.27,143,19a9.48,9.48,0,0,1-18.95,0Zm13.55,0a4.07,4.07,0,1,0-8.14,0,4.07,4.07,0,1,0,8.14,0Z"/><path class="cls-1" d="M145.79,19c0-5.68,4.21-9.3,9.45-9.3s9.5,3.62,9.5,9.3a9.48,9.48,0,0,1-19,0Zm13.55,0a4.08,4.08,0,1,0-8.15,0,4.08,4.08,0,1,0,8.15,0Z"/><path class="cls-1" d="M170,10V5.29a2.63,2.63,0,0,1,2.7-2.4,2.57,2.57,0,0,1,2.7,2.4V10h2a2,2,0,0,1,1.93,2.13,2.08,2.08,0,0,1-1.93,2.12h-2V25.82a2.56,2.56,0,0,1-2.7,2.39,2.63,2.63,0,0,1-2.7-2.39V14.24h-1.47a2.08,2.08,0,0,1-1.93-2.12A2,2,0,0,1,168.52,10Z"/><path class="cls-1" d="M203.06,1.12a13.38,13.38,0,0,1,9.42,3.67c1,.92.73,2.89-.35,3.85a2.8,2.8,0,0,1-3.63,0,7.84,7.84,0,0,0-13.16,6.06A7.84,7.84,0,0,0,208.5,20.8a2.8,2.8,0,0,1,3.63,0c1.08,1,1.35,2.93.35,3.86a13.52,13.52,0,0,1-22.77-10A13.32,13.32,0,0,1,203.06,1.12Z"/><path class="cls-1" d="M229.61,12.19a2.63,2.63,0,0,1,2.7-2.39,2.55,2.55,0,0,1,2.7,2.39V25.82a2.55,2.55,0,0,1-2.7,2.39,2.63,2.63,0,0,1-2.7-2.39v-.35a6.4,6.4,0,0,1-5.4,2.89c-4.59,0-8.76-3.39-8.76-9.37s4.17-9.34,8.76-9.34a6.66,6.66,0,0,1,5.4,2.89Zm-4.36,11.39a4.56,4.56,0,0,0,0-9.11A4.25,4.25,0,0,0,221,19,4.26,4.26,0,0,0,225.25,23.58Z"/><path class="cls-1" d="M267.93,25.82a2.55,2.55,0,0,1-2.7,2.39,2.63,2.63,0,0,1-2.7-2.39V18.41c0-2.36-1.43-3.59-3-3.59s-3,1-3,3.66v7.34a2.55,2.55,0,0,1-2.7,2.39,2.63,2.63,0,0,1-2.7-2.39V18.29c0-2.28-1.43-3.47-3-3.47s-3.13.92-3.13,3.66v7.34a2.55,2.55,0,0,1-2.7,2.39,2.63,2.63,0,0,1-2.7-2.39V12.19a2.63,2.63,0,0,1,2.7-2.39,2.55,2.55,0,0,1,2.7,2.39v.43a5.16,5.16,0,0,1,4.71-3c2.85,0,4.74.92,5.94,3.39a5.82,5.82,0,0,1,5.25-3.43c4.28,0,7,2.74,7.06,8.18Z"/><path class="cls-1" d="M283.21,9.65C287.81,9.65,292,13,292,19s-4.16,9.37-8.76,9.37a6.4,6.4,0,0,1-5.4-2.89v9a2.63,2.63,0,0,1-2.7,2.39,2.55,2.55,0,0,1-2.7-2.39V12.19a2.55,2.55,0,0,1,2.7-2.39,2.63,2.63,0,0,1,2.7,2.39v.35A6.67,6.67,0,0,1,283.21,9.65Zm-1,4.82a4.56,4.56,0,0,0,0,9.11A4.26,4.26,0,0,0,286.42,19,4.26,4.26,0,0,0,282.17,14.47Z"/></svg>