<svg id="materials" xmlns="http://www.w3.org/2000/svg" viewBox="0 0 240 240"><defs><style>.cls-1{fill:#515556;}.cls-2{fill:#1390d0;}.cls-3{fill:#862872;}.cls-4{fill:#c62d32;}.cls-5{fill:#e68302;}.cls-6{fill:#f8bb13;}.cls-7{fill:#69b012;}</style></defs><title>mac</title><g id="mac"><path class="cls-1" d="M159.07,219.21c-7.65,0-14.74-2.71-21-5.11-5.06-1.93-9.84-3.76-14-3.76h-.21l-.42,0h-.4l-.42,0h-.21c-4.1,0-8.88,1.83-13.94,3.77-6.26,2.39-13.35,5.1-21,5.1h-.73c-8.11-.18-20.86-10.34-31-24.71a119.89,119.89,0,0,1-13.12-24.06A113.42,113.42,0,0,1,35.44,144a106.17,106.17,0,0,1-1.07-13.62A97.55,97.55,0,0,1,35,117.4c1.26-10.27,4.29-19.31,9-26.85,13.17-21,35.15-24.25,39.42-24.69a24.73,24.73,0,0,1,2.6-.13c7,0,15.08,2.62,22.22,4.94,5.74,1.86,11.16,3.62,14.9,3.69h.21c3.71-.07,9.14-1.83,14.87-3.69,7.14-2.32,15.23-4.94,22.22-4.94a24.6,24.6,0,0,1,2.6.13c9.08.94,25.91,5,36.57,21.84a2,2,0,0,1,.25,1.62,2.05,2.05,0,0,1-1,1.28A37.74,37.74,0,0,0,179.08,118a44.15,44.15,0,0,0-.66,7.58A43.16,43.16,0,0,0,182,142.84c4.43,10.21,12.53,17.81,22.25,20.85a2,2,0,0,1,1.3,2.64c-.5,1.39-1,2.75-1.57,4.1a119.47,119.47,0,0,1-13.13,24.06c-10.15,14.37-22.91,24.53-31,24.71Z"/><path class="cls-1" d="M160.51,67.77a23.48,23.48,0,0,1,2.39.11c5.72.6,23.89,3.31,35.06,20.91a41.49,41.49,0,0,0-4.64,2.85,40.24,40.24,0,0,0-16.24,26,44.49,44.49,0,0,0-.69,7.93,45.46,45.46,0,0,0,3.7,18.08c4.61,10.62,13.14,18.73,23.51,22-.5,1.36-1,2.7-1.55,4a118,118,0,0,1-12.9,23.65c-10.61,15-22.63,23.7-29.4,23.85h-.68c-13.46,0-25.2-8.87-34.94-8.87h-.4l-.23,0h-.41l-.23,0h-.39c-9.74,0-21.48,8.87-34.93,8.87h-.68c-6.77-.15-18.79-8.84-29.41-23.85a118.45,118.45,0,0,1-12.9-23.65,111.71,111.71,0,0,1-7.09-26,102.62,102.62,0,0,1-1.05-13.36,93.64,93.64,0,0,1,.65-12.65c1.33-10.84,4.55-19.35,8.73-26,11.93-19,31.72-23.11,37.91-23.76a23.48,23.48,0,0,1,2.39-.11c12.22,0,28.17,8.47,37.09,8.63h.24c8.92-.16,24.88-8.63,37.09-8.63m0-4.08c-7.31,0-15.56,2.68-22.85,5-5.59,1.82-10.86,3.53-14.31,3.59h-.17c-3.38-.06-8.65-1.77-14.24-3.59-7.28-2.36-15.54-5-22.85-5-1,0-1.91.05-2.81.14-4.44.46-27.27,3.86-40.94,25.64A67.06,67.06,0,0,0,33,117.15a100.15,100.15,0,0,0-.67,13.21,106.75,106.75,0,0,0,1.08,13.88,115.56,115.56,0,0,0,7.36,27,121.59,121.59,0,0,0,13.35,24.46C64.8,210.76,77.91,221,86.76,221.24h.78c8,0,15.29-2.78,21.71-5.23,4.88-1.87,9.5-3.63,13.22-3.63h.07a5.07,5.07,0,0,0,.55,0h.41a5.12,5.12,0,0,0,.56,0h.07c3.73,0,8.34,1.76,13.22,3.63,6.42,2.45,13.69,5.23,21.72,5.23h.77c8.85-.2,22-10.48,32.64-25.58a122.41,122.41,0,0,0,13.35-24.46c.55-1.38,1.09-2.78,1.6-4.17a4.09,4.09,0,0,0-2.61-5.29c-9.15-2.86-16.8-10.05-21-19.71a41.79,41.79,0,0,1-2.74-23.67,35.74,35.74,0,0,1,18.76-25.95,4.07,4.07,0,0,0,1.55-5.8c-11.12-17.53-28.63-21.8-38.08-22.78C162.42,63.74,161.48,63.69,160.51,63.69Z"/><path class="cls-1" d="M119,71.48a3.15,3.15,0,0,1-2.13-.61c-.69-.58-1-1.54-1.15-3.53-.45-6.28,1.11-20.85,10.26-31.08,10.53-11.76,26.76-15.47,30.41-15.47a3,3,0,0,1,2,.6c.65.55,1,1.38,1.1,3.06.42,4.91-.58,20.15-10.17,31.51C139.43,67.66,123.39,71.48,119,71.48Z"/><path class="cls-1" d="M156.36,22.83a1.33,1.33,0,0,1,.71.12c1,.81,1.37,19-9.32,31.69-9.58,11.36-25,14.8-28.79,14.8a1.64,1.64,0,0,1-.81-.12c-1-.81-1.64-19.45,9.32-31.7,9.91-11.08,25.34-14.79,28.89-14.79m0-4.07c-4.48,0-21,4-31.93,16.14-9.6,10.73-11.25,26-10.78,32.58.16,2.22.53,3.83,1.89,5A5.12,5.12,0,0,0,119,73.52c4.86,0,21.44-3.85,31.91-16.25,10-11.89,11.08-27.85,10.64-33a6.09,6.09,0,0,0-1.83-4.45A5,5,0,0,0,156.36,18.76Z"/><path class="cls-2" d="M57.45,193.31c10.62,15,22.64,23.7,29.41,23.85,13.92.31,26-9.1,36-8.85l.32,0h.24l.31,0c10-.26,22.09,9.16,36,8.85,6.77-.15,18.79-8.84,29.4-23.85Z"/><path class="cls-3" d="M44.55,169.66a118.45,118.45,0,0,0,12.9,23.65h131.7a118,118,0,0,0,12.9-23.65Z"/><path class="cls-4" d="M37.46,143.66a111.71,111.71,0,0,0,7.09,26h157.5c.54-1.32,1-2.66,1.55-4-10.37-3.25-18.9-11.36-23.51-22Z"/><path class="cls-5" d="M37.06,117.65a93.64,93.64,0,0,0-.65,12.65,102.62,102.62,0,0,0,1.05,13.36H180.09a45.46,45.46,0,0,1-3.7-18.08,44.49,44.49,0,0,1,.69-7.93Z"/><path class="cls-6" d="M45.79,91.64c-4.18,6.66-7.4,15.17-8.73,26h140a40.24,40.24,0,0,1,16.24-26Z"/><path class="cls-7" d="M123.42,76.4h-.24c-9.52-.17-27-9.8-39.48-8.52-6.19.65-26,4.75-37.91,23.76H193.32A41.49,41.49,0,0,1,198,88.79c-11.17-17.6-29.34-20.31-35.06-20.91C150.46,66.6,132.94,76.23,123.42,76.4Z"/><path class="cls-7" d="M157.07,23c-1-.81-18.65,2.43-29.6,14.67s-10.28,30.89-9.32,31.7,18.92-2,29.6-14.68S158,23.76,157.07,23Z"/></g></svg>