<?xml version="1.0" encoding="utf-8"?>
<!-- Generator: Adobe Illustrator 16.0.4, SVG Export Plug-In . SVG Version: 6.00 Build 0)  -->
<!DOCTYPE svg PUBLIC "-//W3C//DTD SVG 1.1//EN" "http://www.w3.org/Graphics/SVG/1.1/DTD/svg11.dtd">
<svg version="1.1" id="レイヤー_1" xmlns="http://www.w3.org/2000/svg" xmlns:xlink="http://www.w3.org/1999/xlink" x="0px"
	 y="0px" width="308.594px" height="356.25px" viewBox="0 0 308.594 356.25" enable-background="new 0 0 308.594 356.25"
	 xml:space="preserve">
<g>
	<path fill="#1390D0" d="M61.174,279.125c15.44,21.846,32.929,34.483,42.775,34.705c20.255,0.455,37.863-13.238,52.388-12.882
		c0.151,0.035,0.31,0.05,0.462,0.035l0.178-0.008l0.179,0.008c0.152,0.015,0.303,0,0.446-0.035
		c14.527-0.37,32.141,13.335,52.41,12.882c9.846-0.222,27.336-12.859,42.776-34.705H61.174z"/>
	<path fill="#862872" d="M42.403,244.723c5.243,12.92,11.793,24.535,18.771,34.402H252.79c6.97-9.867,13.527-21.482,18.77-34.402
		H42.403z"/>
	<path fill="#C62D32" d="M32.075,206.879c1.94,13.479,5.601,26.193,10.328,37.844h229.155c0.778-1.926,1.527-3.881,2.252-5.863
		c-15.083-4.727-27.503-16.526-34.205-31.98H32.075L32.075,206.879z"/>
	<path fill="#E68302" d="M31.498,169.036c-0.695,5.689-1.025,11.821-0.943,18.419c0.083,6.619,0.612,13.107,1.521,19.424h207.529
		c-3.454-7.953-5.387-16.878-5.387-26.303c0-3.978,0.344-7.831,1.005-11.54H31.498z"/>
	<path fill="#F8BB13" d="M44.207,131.194c-6.089,9.701-10.775,22.079-12.708,37.842h203.726
		c2.849-16.038,11.58-29.276,23.627-37.842H44.207z"/>
	<path fill="#69B012" d="M157.156,109.017h-0.357c-13.844-0.233-39.33-14.256-57.439-12.385
		c-9.007,0.936-37.795,6.908-55.154,34.562h214.646c2.151-1.528,4.408-2.912,6.757-4.135c-16.253-25.61-42.693-29.559-51.012-30.426
		C196.494,94.76,171.002,108.784,157.156,109.017z"/>
	<path fill="#69B012" d="M206.105,31.253c-1.404-1.183-27.123,3.537-43.065,21.351c-15.942,17.813-14.951,44.937-13.548,46.114
		c1.403,1.182,27.515-2.925,43.064-21.351C208.106,58.947,207.509,32.43,206.105,31.253z"/>
</g>
</svg>
