<svg id="レイヤー_1" data-name="レイヤー 1" xmlns="http://www.w3.org/2000/svg" viewBox="0 0 200 200"><defs><style>.cls-1{fill:#1390d0;}.cls-2{fill:#862872;}.cls-3{fill:#c62d32;}.cls-4{fill:#e68302;}.cls-5{fill:#f8bb13;}.cls-6{fill:#69b012;}</style></defs><title>mac</title><path class="cls-1" d="M44.22,165.38c9.46,13.39,20.18,21.14,26.22,21.28,12.41.28,23.21-8.12,32.11-7.9a.88.88,0,0,0,.28,0h.22a.86.86,0,0,0,.28,0c8.9-.23,19.7,8.18,32.12,7.9,6-.14,16.76-7.89,26.22-21.28Z"/><path class="cls-2" d="M32.71,144.29a104.8,104.8,0,0,0,11.51,21.09H161.67a104.8,104.8,0,0,0,11.51-21.09Z"/><path class="cls-3" d="M26.38,121.1a99.38,99.38,0,0,0,6.33,23.19H173.18c.48-1.18.94-2.37,1.38-3.59-9.25-2.9-16.86-10.13-21-19.6Z"/><path class="cls-4" d="M26,97.9a83.92,83.92,0,0,0-.58,11.29,91,91,0,0,0,.93,11.91H153.59a40.61,40.61,0,0,1-3.3-16.13,39.82,39.82,0,0,1,.62-7.07Z"/><path class="cls-5" d="M33.82,74.7A55.64,55.64,0,0,0,26,97.9H150.91a35.91,35.91,0,0,1,14.48-23.2Z"/><path class="cls-6" d="M103.05,61.11h-.22c-8.48-.14-24.1-8.74-35.21-7.59-5.52.57-23.16,4.23-33.8,21.18H165.39a36.34,36.34,0,0,1,4.14-2.53c-10-15.7-26.17-18.12-31.27-18.65C127.17,52.37,111.54,61,103.05,61.11Z"/><path class="cls-6" d="M133.06,13.44c-.86-.72-16.63,2.17-26.4,13.09S97.49,54.07,98.35,54.8s16.87-1.8,26.4-13.09S133.92,14.16,133.06,13.44Z"/></svg>