<svg id="レイヤー_1" data-name="レイヤー 1" xmlns="http://www.w3.org/2000/svg" viewBox="0 0 200 200"><defs><style>.cls-1{fill:#1390d0;}.cls-2{fill:#862872;}.cls-3{fill:#c62d32;}.cls-4{fill:#e68302;}.cls-5{fill:#f8bb13;}.cls-6{fill:#69b012;}</style></defs><title>mac</title><path class="cls-1" d="M44.16,165.72c9.46,13.39,20.18,21.14,26.22,21.27,12.42.28,23.21-8.11,32.11-7.89a.88.88,0,0,0,.28,0H103a.86.86,0,0,0,.28,0c8.9-.23,19.7,8.17,32.12,7.89,6-.13,16.76-7.88,26.23-21.27Z"/><path class="cls-2" d="M32.65,144.63a105.57,105.57,0,0,0,11.51,21.09H161.62a105.56,105.56,0,0,0,11.5-21.09Z"/><path class="cls-3" d="M26.32,121.43a99.33,99.33,0,0,0,6.33,23.2H173.12c.48-1.18.94-2.38,1.38-3.59-9.25-2.9-16.86-10.13-21-19.61Z"/><path class="cls-4" d="M26,98.24a83.74,83.74,0,0,0-.58,11.29,91,91,0,0,0,.93,11.9H153.53a40.52,40.52,0,0,1-3.3-16.12,39.74,39.74,0,0,1,.62-7.07Z"/><path class="cls-5" d="M33.76,75A55.59,55.59,0,0,0,26,98.24H150.85A35.91,35.91,0,0,1,165.33,75Z"/><path class="cls-6" d="M103,61.45h-.22c-8.48-.15-24.1-8.74-35.2-7.6C62,54.43,44.4,58.09,33.76,75H165.33a36.42,36.42,0,0,1,4.14-2.54c-10-15.69-26.17-18.11-31.27-18.65C127.11,52.71,111.48,61.3,103,61.45Z"/><path class="cls-6" d="M133,13.78c-.86-.73-16.63,2.17-26.4,13.09s-9.17,27.54-8.3,28.26S115.16,53.34,124.69,42,133.86,14.5,133,13.78Z"/></svg>