<svg id="レイヤー_1" data-name="レイヤー 1" xmlns="http://www.w3.org/2000/svg" viewBox="0 0 200 200"><defs><style>.cls-1{fill:#aab2bd;}.cls-2{fill:#ccd0d9;}.cls-3{fill:#24282d;opacity:0.21;isolation:isolate;}.cls-4{fill:#e6e9ee;}</style></defs><title>mail</title><g id="icon"><path class="cls-1" d="M8.14,38.23A9.35,9.35,0,0,0,5.5,44.7V162.75A9.44,9.44,0,0,0,8.94,170c1.82,1.54,180.3,1.54,182.12,0a9.44,9.44,0,0,0,3.44-7.22V44.7a9.44,9.44,0,0,0-3.44-7.22C189.24,35.94,10,36.25,8.14,38.23Z"/><path class="cls-2" d="M83.31,99.68,7.18,168a10.49,10.49,0,0,0,8.63,4.42H184.19a10.49,10.49,0,0,0,8.63-4.42L116.69,99.68A26.28,26.28,0,0,0,83.31,99.68Z"/><path class="cls-3" d="M100,132.83,7.18,39.52C9,36.73,191,36.73,192.82,39.52Z"/><path class="cls-4" d="M100,115.85,7.18,39.42A10.49,10.49,0,0,1,15.81,35H184.19a10.49,10.49,0,0,1,8.63,4.42Z"/></g></svg>