<svg id="materials" xmlns="http://www.w3.org/2000/svg" xmlns:xlink="http://www.w3.org/1999/xlink" viewBox="0 0 240 240"><defs><style>.cls-1{fill:none;}.cls-2{fill:#ed7cb7;}.cls-3{fill:#474747;}.cls-4{fill:#ebeced;}.cls-5{clip-path:url(#clip-path);}.cls-6{fill:#fff;}.cls-7{fill:#c4e1f2;}.cls-8{fill:#b5d3e2;}</style><clipPath id="clip-path"><rect class="cls-1" x="20.08" y="33.42" width="175.49" height="150.31" rx="9.45"/></clipPath></defs><title>mail</title><path class="cls-2" d="M35.72,219.11a4.81,4.81,0,0,1-4.81-4.81V98.85A3.67,3.67,0,0,1,32.22,96L105.74,27.6a29.16,29.16,0,0,1,37.3.07L216.38,96a3.75,3.75,0,0,1,1.4,2.89V214.3a4.81,4.81,0,0,1-4.81,4.81Z"/><path class="cls-3" d="M124.34,23a27.06,27.06,0,0,1,17.24,6.22l73.34,68.28.09.08.08.07a1.52,1.52,0,0,1,.55,1.17V214.3A2.68,2.68,0,0,1,213,217H35.72a2.68,2.68,0,0,1-2.67-2.67V98.85a1.52,1.52,0,0,1,.55-1.17l.08-.07.09-.08,73.34-68.28A27,27,0,0,1,124.34,23m0-4.28A31.16,31.16,0,0,0,104.28,26L30.85,94.39a5.82,5.82,0,0,0-2.08,4.46V214.3a7,7,0,0,0,7,6.95H213a7,7,0,0,0,6.95-6.95V98.85a5.82,5.82,0,0,0-2.08-4.46L144.41,26A31.17,31.17,0,0,0,124.34,18.75Z"/><rect class="cls-4" x="54.72" y="34.49" width="139.78" height="148.17" rx="8.38"/><path class="cls-3" d="M186.12,35.56a7.32,7.32,0,0,1,7.31,7.31V174.28a7.32,7.32,0,0,1-7.31,7.31h-123a7.32,7.32,0,0,1-7.32-7.31V42.87a7.32,7.32,0,0,1,7.32-7.31h123m0-2.14h-123a9.45,9.45,0,0,0-9.46,9.45V174.28a9.45,9.45,0,0,0,9.46,9.45h123a9.45,9.45,0,0,0,9.45-9.45V42.87A9.45,9.45,0,0,0,186.12,33.42Z"/><path class="cls-3" d="M67.7,62.91h5.56v5.56H67.7Z"/><path class="cls-3" d="M74.65,62.91h5.56v5.56H74.65Z"/><path class="cls-3" d="M81.6,62.91h5.57v5.56H81.6Z"/><path class="cls-3" d="M88.55,62.91h5.57v5.56H88.55Z"/><path class="cls-3" d="M95.5,62.91h5.57v5.56H95.5Z"/><path class="cls-3" d="M102.45,62.91H108v5.56h-5.57Z"/><path class="cls-3" d="M109.4,62.91H115v5.56H109.4Z"/><path class="cls-3" d="M116.36,62.91h5.56v5.56h-5.56Z"/><path class="cls-3" d="M123.31,62.91h5.56v5.56h-5.56Z"/><path class="cls-3" d="M130.26,62.91h5.56v5.56h-5.56Z"/><path class="cls-3" d="M137.21,62.91h5.57v5.56h-5.57Z"/><path class="cls-3" d="M144.16,62.91h5.57v5.56h-5.57Z"/><path class="cls-3" d="M151.11,62.91h5.57v5.56h-5.57Z"/><path class="cls-3" d="M158.06,62.91h5.57v5.56h-5.57Z"/><path class="cls-3" d="M165,62.91h5.57v5.56H165Z"/><path class="cls-3" d="M172,62.91h5.57v5.56H172Z"/><path class="cls-3" d="M67.7,75.07h5.56v5.57H67.7Z"/><path class="cls-3" d="M74.65,75.07h5.56v5.57H74.65Z"/><path class="cls-3" d="M81.6,75.07h5.57v5.57H81.6Z"/><path class="cls-3" d="M88.55,75.07h5.57v5.57H88.55Z"/><path class="cls-3" d="M95.5,75.07h5.57v5.57H95.5Z"/><path class="cls-3" d="M102.45,75.07H108v5.57h-5.57Z"/><path class="cls-3" d="M109.4,75.07H115v5.57H109.4Z"/><path class="cls-3" d="M116.36,75.07h5.56v5.57h-5.56Z"/><path class="cls-3" d="M123.31,75.07h5.56v5.57h-5.56Z"/><path class="cls-3" d="M130.26,75.07h5.56v5.57h-5.56Z"/><path class="cls-3" d="M137.21,75.07h5.57v5.57h-5.57Z"/><path class="cls-3" d="M144.16,75.07h5.57v5.57h-5.57Z"/><path class="cls-3" d="M151.11,75.07h5.57v5.57h-5.57Z"/><path class="cls-3" d="M158.06,75.07h5.57v5.57h-5.57Z"/><path class="cls-3" d="M165,75.07h5.57v5.57H165Z"/><path class="cls-3" d="M172,75.07h5.57v5.57H172Z"/><path class="cls-3" d="M67.7,87.23h5.56V92.8H67.7Z"/><path class="cls-3" d="M74.65,87.23h5.56V92.8H74.65Z"/><path class="cls-3" d="M81.6,87.23h5.57V92.8H81.6Z"/><path class="cls-3" d="M88.55,87.23h5.57V92.8H88.55Z"/><path class="cls-3" d="M95.5,87.23h5.57V92.8H95.5Z"/><path class="cls-3" d="M102.45,87.23H108V92.8h-5.57Z"/><path class="cls-3" d="M109.4,87.23H115V92.8H109.4Z"/><path class="cls-3" d="M116.36,87.23h5.56V92.8h-5.56Z"/><path class="cls-3" d="M123.31,87.23h5.56V92.8h-5.56Z"/><path class="cls-3" d="M130.26,87.23h5.56V92.8h-5.56Z"/><path class="cls-3" d="M137.21,87.23h5.57V92.8h-5.57Z"/><path class="cls-3" d="M144.16,87.23h5.57V92.8h-5.57Z"/><path class="cls-3" d="M151.11,87.23h5.57V92.8h-5.57Z"/><path class="cls-3" d="M158.06,87.23h5.57V92.8h-5.57Z"/><path class="cls-3" d="M165,87.23h5.57V92.8H165Z"/><path class="cls-3" d="M172,87.23h5.57V92.8H172Z"/><path class="cls-3" d="M67.7,99.4h5.56V105H67.7Z"/><path class="cls-3" d="M74.65,99.4h5.56V105H74.65Z"/><path class="cls-3" d="M81.6,99.4h5.57V105H81.6Z"/><path class="cls-3" d="M88.55,99.4h5.57V105H88.55Z"/><path class="cls-3" d="M95.5,99.4h5.57V105H95.5Z"/><path class="cls-3" d="M102.45,99.4H108V105h-5.57Z"/><path class="cls-3" d="M109.4,99.4H115V105H109.4Z"/><path class="cls-3" d="M116.36,99.4h5.56V105h-5.56Z"/><path class="cls-3" d="M123.31,99.4h5.56V105h-5.56Z"/><path class="cls-3" d="M130.26,99.4h5.56V105h-5.56Z"/><path class="cls-3" d="M137.21,99.4h5.57V105h-5.57Z"/><path class="cls-3" d="M144.16,99.4h5.57V105h-5.57Z"/><path class="cls-3" d="M151.11,99.4h5.57V105h-5.57Z"/><path class="cls-3" d="M158.06,99.4h5.57V105h-5.57Z"/><path class="cls-3" d="M165,99.4h5.57V105H165Z"/><path class="cls-3" d="M172,99.4h5.57V105H172Z"/><path class="cls-3" d="M67.7,111.56h5.56v5.57H67.7Z"/><path class="cls-3" d="M74.65,111.56h5.56v5.57H74.65Z"/><path class="cls-3" d="M81.6,111.56h5.57v5.57H81.6Z"/><path class="cls-3" d="M88.55,111.56h5.57v5.57H88.55Z"/><path class="cls-3" d="M95.5,111.56h5.57v5.57H95.5Z"/><path class="cls-3" d="M102.45,111.56H108v5.57h-5.57Z"/><path class="cls-3" d="M109.4,111.56H115v5.57H109.4Z"/><path class="cls-3" d="M116.36,111.56h5.56v5.57h-5.56Z"/><path class="cls-3" d="M123.31,111.56h5.56v5.57h-5.56Z"/><path class="cls-3" d="M130.26,111.56h5.56v5.57h-5.56Z"/><path class="cls-3" d="M137.21,111.56h5.57v5.57h-5.57Z"/><path class="cls-3" d="M144.16,111.56h5.57v5.57h-5.57Z"/><path class="cls-3" d="M151.11,111.56h5.57v5.57h-5.57Z"/><path class="cls-3" d="M158.06,111.56h5.57v5.57h-5.57Z"/><path class="cls-3" d="M165,111.56h5.57v5.57H165Z"/><path class="cls-3" d="M172,111.56h5.57v5.57H172Z"/><path class="cls-3" d="M67.7,123.73h5.56v5.56H67.7Z"/><path class="cls-3" d="M74.65,123.73h5.56v5.56H74.65Z"/><path class="cls-3" d="M81.6,123.73h5.57v5.56H81.6Z"/><path class="cls-3" d="M88.55,123.73h5.57v5.56H88.55Z"/><path class="cls-3" d="M95.5,123.73h5.57v5.56H95.5Z"/><path class="cls-3" d="M102.45,123.73H108v5.56h-5.57Z"/><path class="cls-3" d="M109.4,123.73H115v5.56H109.4Z"/><path class="cls-3" d="M116.36,123.73h5.56v5.56h-5.56Z"/><path class="cls-3" d="M123.31,123.73h5.56v5.56h-5.56Z"/><path class="cls-3" d="M130.26,123.73h5.56v5.56h-5.56Z"/><path class="cls-3" d="M137.21,123.73h5.57v5.56h-5.57Z"/><path class="cls-3" d="M144.16,123.73h5.57v5.56h-5.57Z"/><path class="cls-3" d="M151.11,123.73h5.57v5.56h-5.57Z"/><path class="cls-3" d="M158.06,123.73h5.57v5.56h-5.57Z"/><path class="cls-3" d="M165,123.73h5.57v5.56H165Z"/><path class="cls-3" d="M172,123.73h5.57v5.56H172Z"/><path class="cls-3" d="M67.7,135.89h5.56v5.57H67.7Z"/><path class="cls-3" d="M74.65,135.89h5.56v5.57H74.65Z"/><path class="cls-3" d="M81.6,135.89h5.57v5.57H81.6Z"/><path class="cls-3" d="M88.55,135.89h5.57v5.57H88.55Z"/><path class="cls-3" d="M95.5,135.89h5.57v5.57H95.5Z"/><path class="cls-3" d="M102.45,135.89H108v5.57h-5.57Z"/><path class="cls-3" d="M109.4,135.89H115v5.57H109.4Z"/><path class="cls-3" d="M116.36,135.89h5.56v5.57h-5.56Z"/><path class="cls-3" d="M123.31,135.89h5.56v5.57h-5.56Z"/><path class="cls-3" d="M130.26,135.89h5.56v5.57h-5.56Z"/><path class="cls-3" d="M137.21,135.89h5.57v5.57h-5.57Z"/><path class="cls-3" d="M144.16,135.89h5.57v5.57h-5.57Z"/><path class="cls-3" d="M151.11,135.89h5.57v5.57h-5.57Z"/><path class="cls-3" d="M158.06,135.89h5.57v5.57h-5.57Z"/><path class="cls-3" d="M165,135.89h5.57v5.57H165Z"/><path class="cls-3" d="M172,135.89h5.57v5.57H172Z"/><g class="cls-5"><path class="cls-6" d="M42.43,48.37c-.11-2.16-.07-7.57,2.73-10.95a8.32,8.32,0,0,1,6.16-2.93H189l-.5.33c-6.52,3.91-7.8,10.88-8,13.55Z"/><path class="cls-3" d="M185.65,35.56A19.13,19.13,0,0,0,179.5,47.3h-136c0-2.39.31-6.54,2.52-9.21a7.18,7.18,0,0,1,5.33-2.53H185.65m6.87-2.14H51.25c-11.71.76-9.81,16-9.81,16h140s0-9.16,7.63-13.73Z"/></g><path class="cls-7" d="M128.77,157.83,217.66,98a3.37,3.37,0,0,1,.12.9V214.3a4.79,4.79,0,0,1-2.69,4.29Z"/><path class="cls-3" d="M215.64,101.89V214.3a2.62,2.62,0,0,1-.59,1.65l-82.51-58.08,83.1-56m2.69-7L125,157.79,214.77,221a6.93,6.93,0,0,0,5.15-6.69V98.85A5.77,5.77,0,0,0,218.33,94.91Z"/><path class="cls-7" d="M33.94,218.77A4.76,4.76,0,0,1,31,215V98.23a3,3,0,0,1,.15-.59l90.05,60.19Z"/><path class="cls-3" d="M33.14,101.55l84.27,56.32L33.87,216.21a2.61,2.61,0,0,1-.73-1.38V101.55m-2.57-6.86a5.77,5.77,0,0,0-1.72,3.38V215.16a6.94,6.94,0,0,0,5.48,6L125,157.79Z"/><path class="cls-8" d="M35.72,219.11a4.78,4.78,0,0,1-4.21-2.51l72.33-59.91a29.7,29.7,0,0,1,40.91-.09l72.43,60a4.78,4.78,0,0,1-4.21,2.51Z"/><path class="cls-3" d="M124.34,150.62a27.45,27.45,0,0,1,18.94,7.54l.1.09.1.09L214,216.76a2.58,2.58,0,0,1-1,.21H35.72a2.58,2.58,0,0,1-1-.21l70.52-58.42.11-.09.1-.09a27.45,27.45,0,0,1,18.93-7.54m0-4.28a31.74,31.74,0,0,0-21.87,8.71L29,215.92a6.94,6.94,0,0,0,6.74,5.33H213a6.94,6.94,0,0,0,6.74-5.33l-73.49-60.87A31.74,31.74,0,0,0,124.34,146.34Z"/></svg>