<svg id="レイヤー_1" data-name="レイヤー 1" xmlns="http://www.w3.org/2000/svg" viewBox="0 0 200 200"><defs><style>.cls-1{fill:#aab2bd;}.cls-2{fill:#ccd0d9;}.cls-3{fill:#24282d;opacity:0.21;isolation:isolate;}.cls-4{fill:#e6e9ee;}</style></defs><title>mail</title><g id="icon"><path class="cls-1" d="M8.14,34.51A9.35,9.35,0,0,0,5.5,41V159a9.44,9.44,0,0,0,3.44,7.22c1.82,1.54,180.3,1.54,182.12,0A9.44,9.44,0,0,0,194.5,159V41a9.44,9.44,0,0,0-3.44-7.22C189.24,32.22,10,32.52,8.14,34.51Z"/><path class="cls-2" d="M83.31,96,7.18,164.31a10.51,10.51,0,0,0,8.63,4.42H184.19a10.51,10.51,0,0,0,8.63-4.42L116.69,96A26.26,26.26,0,0,0,83.31,96Z"/><path class="cls-3" d="M100,129.11,7.18,35.8C9,33,191,33,192.82,35.8Z"/><path class="cls-4" d="M100,112.13,7.18,35.69a10.51,10.51,0,0,1,8.63-4.42H184.19a10.51,10.51,0,0,1,8.63,4.42Z"/></g></svg>