<svg id="materials" xmlns="http://www.w3.org/2000/svg" xmlns:xlink="http://www.w3.org/1999/xlink" viewBox="0 0 28.16 28.16"><defs><style>.cls-1{fill:none;}.cls-2{opacity:0.15;}.cls-3{clip-path:url(#clip-path);}.cls-4{fill:#fff;}</style><clipPath id="clip-path"><rect class="cls-1" width="28.16" height="28.16"/></clipPath></defs><title>main-visual-bg</title><g id="main-visual-bg" class="cls-2"><g class="cls-3"><polygon class="cls-4" points="18.06 11.43 16.73 10.1 14.08 12.75 11.42 10.1 10.1 11.43 12.75 14.08 10.1 16.74 11.42 18.07 14.08 15.41 16.73 18.06 18.06 16.73 15.41 14.08 18.06 11.43"/><polygon class="cls-4" points="32.18 -2.67 30.85 -4 28.2 -1.35 25.54 -4 24.21 -2.67 26.86 -0.01 24.21 2.64 25.54 3.96 28.19 1.31 30.84 3.96 32.18 2.63 29.52 -0.02 32.18 -2.67"/><polygon class="cls-4" points="3.98 -2.67 2.65 -4 0 -1.35 -2.66 -4 -3.99 -2.67 -1.33 -0.01 -3.98 2.64 -2.66 3.96 -0.01 1.31 2.65 3.96 3.98 2.63 1.33 -0.02 3.98 -2.67"/><polygon class="cls-4" points="3.98 25.53 2.65 24.2 0 26.85 -2.66 24.2 -3.99 25.52 -1.33 28.18 -3.98 30.84 -2.66 32.16 -0.01 29.51 2.65 32.16 3.98 30.83 1.33 28.18 3.98 25.53"/><polygon class="cls-4" points="32.18 25.53 30.85 24.2 28.2 26.85 25.54 24.2 24.21 25.52 26.87 28.18 24.21 30.84 25.54 32.16 28.19 29.51 30.84 32.16 32.18 30.83 29.52 28.18 32.18 25.53"/></g></g></svg>