<?xml version="1.0" encoding="UTF-8"?>
<svg id="_レイヤー_1" xmlns="http://www.w3.org/2000/svg" version="1.1" viewBox="0 0 660 660">
  <!-- Generator: Adobe Illustrator 29.2.1, SVG Export Plug-In . SVG Version: 2.1.0 Build 116)  -->
  <defs>
    <style>
      .st0 {
        fill: #4742c2;
      }

      .st1 {
        fill: #fff;
      }

      .st2 {
        fill: #ebebf7;
      }
    </style>
  </defs>
  <path class="st1" d="M563,404.9c.2-2.7.3-5.4.3-8.1v-.4l-.7-3.5v-4.1l-.4-3.9h0v-.3l-.7-3.5v-4.2l-.5-3.9v-.5c-1.5-5-2.4-10.4-3.4-15.6-.6-1.8-1.5-5.6-1.9-7.4-1.1-3.2-2.7-8.2-3.5-11.6v-.3l-.2-.3-1.6-3.5-1.4-3.6v-.2l-.2-.2-1.7-3.3-1.3-3.5-.2-.5-.3-.4-2.1-3.1c-1-1.7-2.7-5-3.3-6.7v-.2l-.2-.2-2-3.4v-.2l-.3-.2-4.8-6.2c-1.3-1.9-3.5-5.2-5-6.9l-2.7-2.7-2.5-3.1c-5.8-5.7-11.3-11.3-16.8-17.2l-.2-.2-.2-.2-2.9-2.3-2.5-2.7-.3-.3-3-2.7h0c0,0,0-.2,0-.2l-3-2.3c-2.9-2.9-5.8-5.8-8.8-8.5,0,0-2.3-1.8-3-2.2l-2.6-2.6-.2-.2-.3-.2-3.2-2.4c-5.6-5.1-14.2-12.2-20.4-18.3-3-2.3-5.9-5-8.5-7.7l-1.9-2.3c5.7-4.1,7.7-11.9,4.5-18.3-1.8-3.6-5-6.1-8.5-7.3,1.2-2.1,2.4-4.3,3.5-6.5l2-3,2.5-2.9c2.4-3.2,5.3-6.2,7.6-9.5,1.2-1.2,3.1-3,4.1-4.3,1.3-1.5,2.7-2.9,3.9-4.2l3-2.4.3-.2.2-.2,2.5-3c2.5-2.2,4.8-4.7,7.2-6.8,2.5-2.3,5.3-4.6,7.8-7,2.6-3.1,5.7-5.8,8.3-8.9l.2-.2,2.3-3.1,2.8-2.6.2-.2h0l2.6-3.2c1.4-2.3,3.3-5.3,4.4-6.9l2.5-3.2.2-.3c1-2.1,2.9-5.6,4-7.6v-.3l1.1-3.9,1.3-3.7v-.4c0,0,1.2-6,1.2-6,.4-2.2.9-4.5,1-6.7l-.4-4v-.2h0c-.4-2.2-1.3-6.1-2-8.1v-.3l-.2-.2-2-3.5v-.2c-1.1-1.4-2.9-3.6-4-5-1.4-1.7-2.9-3.2-4.3-4.8l-3.1-2.8-3.2-2.6h0c-1.7-1.3-5.2-3.6-7-4.7l-7.3-3.9h0l-3.8-1.7-3.8-1.4h0l-3.9-1.1h0l-4.1-.8-4.1-.5h-4.3c-2.2.3-4.3.8-6.4,1.3-2,.5-4.1.9-6.1,1.3l-3.9,1.1h-.3c0,0-3.6,2-3.6,2-3.7,1.4-7.5,3.1-11.1,4.9l-3.7.7-3.8.5-3.5-.3-3.2-1.5-3-2.4-3.2-2.4h0l-3.4-2h-.2c-2-.6-5.7-1.8-7.7-2.4h-.3l-4-.3h-.2c-2.7,0-5.3.3-8,.5-5.2.8-10.6,1.8-15.7,3.1-3.7,1.8-7.4,3.6-11.1,5.6l-3,2.8-2.1,2.3c-2.9-1.9-6.9-4.8-9.6-6.2l-3.7-1.6-3.4-2.1h0l-3.8-1.4h0l-4-.9-3.8-1.3h0c-2.1-.2-6.2-.6-8.3-.6h-.4l-3.7,1.9-3.6,2.1h0v.2c-1.8,2.3-3.6,4.6-5.2,7l-1.1,3.2-3.1-.8c-2.6-.9-5.2-1.7-7.7-2.5l-3.9-.7-3.8-1.2h0l-3.8-.7-3.7-1.3h-.3l-3.9-.6-3.8-1.1h0l-4-.6c-2.7-.6-6.8-1.6-9.8-1.9-3.2-.8-7.3-.5-9.8-1.2l-3.9-1h-4.3l-3.9-.6h-4.1l-3.9-.6h-.4l-3.9.4-3.9-.2h-.5l-2.9.8c-3.1.7-6.2,1.1-9.3,1.8l-3.7,1.6h-.2l-.2.2-3.3,2.3-.4.2-.3.4-2.1,3.4v.2c0,0-.2.3-.2.3l-1.1,3.8h0c-.7,4.3-1.2,8.6-1.5,12.8l.2,3.8-.5,3.8v.4c0,2.8.2,5.6.4,8.4l.7,3.9c.4,3.9.9,6.1,1.8,10.2.5,2.1,1.1,4.1,1.6,6.1,1.7,3.8,3.3,7.5,5,11.4,2,3.7,4.2,7,6.8,10.4l1.9,3.4c4.5,5.4,9.3,10.7,13.8,16l5.7,5.3,2.6,2.9h0v.2c0,0,2.8,2.6,2.8,2.6l2.5,2.8,2.4,3h0c0,0,0,.2,0,.2l2.8,2.9c0,0,2.2,2.2,2.7,2.6,1.6,1.9,3.2,3.8,4.7,5.7l1.5,2.4c.5.9,1.1,1.6,1.7,2.5,1.1,1.5,2.1,3.1,3.2,4.6l1.7,3.2.4.8c-2.5.9-4.9,2.5-6.6,4.7-4.4,5.5-4.1,13.3.2,18.4l-1.1.3c-.4,0-.8.3-1.1.5l-4.4,1.9-.4.2-3.7,1.7-3.9,1.3c-.3,0-.7.2-1,.4l-4.3,1.9c-.5.2-1,.5-1.3.8l-3.7,2.2-3.8,1.9c-.2,0-.5.3-.7.4l-4.1,2.4c-.3.2-.6.4-.9.6l-3.9,2.7h-.2c0,0-3.8,2.9-3.8,2.9l-.3.2-3.6,2.8-3.4,2.4-3.7,2.4c-.8.5-1.4,1-2,1.6l-2.7,2.6-3.1,2.1c-.4.3-.8.6-1.1.9l-3.6,3.1c-.2.2-.4.3-.5.5l-3.4,3.2-.3.3-3.2,3.2-3,2.9-3.3,2.9c-.6.5-1.1,1-1.5,1.5l-2.5,3-2.9,2.7c-.5.5-1,1-1.4,1.5l-2.3,2.9-2.8,2.5-1.3,1.3-3,3.6c-.2.3-.4.5-.6.8l-2,2.9-2.5,2.4c-.7.6-1.1,1.2-1.7,2l-2.3,3.3-2.7,3.1c-.2.3-.5.6-.7.9l-2.8,3.8c-.2.3-.4.6-.6.9l-2.5,4c-3.8,6.2-1.9,14.4,4.4,18.2,6.2,3.8,14.4,1.9,18.2-4.3l2.2-3.6,2.2-3,2.8-3.2c.3-.4.6-.7.8-1.1l2-2.9,2.5-2.4c.6-.6,1.1-1.2,1.6-1.9l2.5-3.4,2.1-2.5,2.8-2.6c.5-.5,1-1,1.4-1.5l1.1-1.2c-.5.7-.9,1.3-1.1,1.5-5.3,6.3-9.6,13.6-14.4,20.2l-1.6,3.3c-1.3,2.3-2.9,4.6-4.3,6.9l-1.8,3.5v.2l-.2.2-1.4,3.5-1.6,3.3-.2.4c-.7,1.8-2.1,5.3-3.1,7.1l-.2.6-1.1,3.5-1.4,3.4c-.9,2.7-1.7,5.3-2.6,7.9-1,3.4-1.3,6.9-2.1,10.3-.8,2.9-1.2,6.9-1.9,9.8v.9c0,0,0,3.1,0,3.7l-.5,3.5v.5c0,3.3.2,5.4,0,8.8-.6,4.4-.4,11.9-.2,14.9l-.3,4v.3h0v4.1c1.1,7.8,1.1,16.1,1.5,24v.3h0c0,0,.6,3.7.6,3.7v4.4c0,0,.6,3.2.8,3.7l.2,3.5v.6c.4,2,1.1,5.8,1.2,7.9h0l.9,3.9.5,3.7v.3h0l.9,3.8.6,3.7v.3c.9,3.3,2.2,8.4,3.2,11.6l.7,3.6v.3h0c0,0,1.1,3.9,1.1,3.9.7,1.9,1.5,3.8,2.1,5.7.8,1.9,1.2,3.9,1.8,5.9.8,1.8,2.4,5.3,3.1,7.2l1.3,3.7,1.5,3.7v.2h0l1.6,3.2c.2,2,.6,5.3.9,7.2-.2,1.9-.6,5.3-.9,7.1l-1.3,3.3-1.7,3.3c-.7.9-3.4,4.8-4.6,6.4-1.1,2.7-2.3,5.3-3.3,8l-.8,4v.5l.8,4v.2h0l1.5,3.9v.4l.4.2,3.2,2.5.2.2h.2l3.9,1.1h0c2.8.2,5.5.5,8.2.8l4.1.2h8.2l4,.7h0l4.2.4h4.1l4,.8h0c4,.2,8.1,1,12.1,1.2,3.3,1.7,6.8,3.9,9.8,6.2l3.4,2h0c4.4,1.9,9.3,4.1,13.7,5.9,1.5.7,3,1.2,4.5,1.8l3.5,1.8h.3l3.9,1.1c3,1.1,7.7,3.2,11.5,4,7.6,1.5,15.5,3.8,23,5.8h.4l3.6.5,3.8.9h.4l3.6.5,3.9.9h.6l3.5.2,3.8.9h0c6.7.6,13.7,1.5,20.3,2.2h.5l3.6-.2,3.5.2,3.9.5c4.3,0,8.6.2,12.9,0l3.7-.3h4c5.2-.8,10.2-.4,16.2-.8l4.1-.5,3.8-.8c8-.5,16.3-1.8,24.2-3.2l3.5-.7h.6l3.7-1.3c3.5-.7,8.1-1.6,11.4-2.8,3.8-.8,7.9-2.1,11.6-3.2l3.8-1.1,3.8-1.2,3.6-.8h.4l3.7-1.5h-.2l3.8-1.1h.2l3.5-1.8,3.6-1h.2l3.7-1.5h.2l3.4-1.9,3.6-1.2h.2l3.4-2.1c2-1,5.8-2.9,7.6-3.9l3.3-2.4,3.5-.5c1.9,0,5.7-.2,7.6-.3h0l3.6-1h3.7l3.8-.4h0l3.7-.8h3.8l3.7-.8,3.8.2h0l3.8-.6h3.8l4-.4h0l3.9-1.2h0l3.2-2.6h0v-.2l1.6-3.7h0v-.2l.5-4.1h0v-.2l-1-4-1.1-3.9h0l-2-3.6h0l-2.4-3.4-2.6-3.2c-.2-.4-1.5-3.9-1.5-3.8l-1.2-4-1-4-.3-4.1.3-4.1,1.2-3.9.3-1.1c.7-2,1.7-5,2.5-6.4,1.5-5,3.3-10.5,5.1-15.4h0v-.2l.8-4c.9-3.2,2.6-7.8,3.4-11.6h0v-.2l.6-3.8,1.2-3.7c1.8-9.2,4-18.9,5.3-28.1v-3.7c.8-3.9,1.2-7.9,2-11.8.4-4,.4-7.9.8-11.8v-3.9l.5-3.7v-8.1h0v-.4l-.2-3.7h0l.6-.9.2.2Z"/>
  <g>
    <polygon class="st2" points="193.8 61.9 189.6 86.9 201.7 120.6 219.3 136.9 241.1 159 257.9 184.3 282.1 206.3 340 216.8 389.3 211.8 437.8 191.6 450.5 170.5 486.6 136.9 505.3 114.7 514.7 92.7 512.3 74.6 478.5 76.3 449.5 72.5 418.4 64.6 414.9 72.1 401 73.7 383.1 71.6 364.2 64.2 340.3 61.9 291.6 74.7 271.3 77.7 266.6 66 235.2 68.2 206.3 65.3 193.8 61.9"/>
    <polygon class="st2" points="218.9 252.6 161.1 322.3 145.3 388.4 149.3 474.6 164.8 527.5 164.5 548.2 151.7 568.6 158 579.2 204.8 583.2 242.1 602.1 317.9 614.7 384.6 613.1 447.2 604 492.7 585.2 542.3 580 546.3 579 549.5 576.9 551.6 570.5 550.5 564.2 548.4 558.9 546.3 555.8 542.1 550.1 540 544.2 537.9 536.9 539 529.4 545.5 511.8 560.5 424.8 550.5 346.3 532.3 308.7 488 256 441.4 221 336.8 226.4 264.2 216.8 218.9 252.6"/>
  </g>
  <g>
    <polygon class="st0" points="404.7 437.8 403.3 433.3 401.5 428.9 398.8 424.8 395.5 421.2 391.9 418.2 388.3 415 384.2 412.6 379.8 410.7 375.5 408.6 371.2 406.4 366.7 404.7 362.2 403.3 357.5 402 353.2 400.7 348.7 399.7 344.4 397.9 339.9 396.6 335.7 394.7 332 391.8 328.4 388.9 326.7 384.6 326.6 379.9 327 375.1 328.9 370.7 332.2 367.2 336.4 364.9 341.2 364.1 346 363.5 350.9 363.7 355.5 364.5 359.9 366.6 363.6 369.6 366.6 373.3 368.3 377.8 372.3 380.7 377.5 380.8 382.6 381 387.7 381 392.8 380.9 397.9 380.7 401.5 379.4 402.3 375.7 400.9 371.2 399.9 366.7 397.7 362.6 395.3 358.7 392.8 354.8 389.4 351.5 385.6 348.9 381.9 346.1 377.7 344.1 373.3 342.8 369 340.9 364.5 339.8 360.9 335.9 360.9 332.2 360.8 328.5 356.6 324 351.7 324 346.8 324.4 341.9 324.4 336.9 324.1 332.9 328.5 332.3 332.3 332.7 336.2 329.4 340.7 324.7 341.5 320.4 343.4 315.9 345.1 312 347.7 308 350.2 304.4 353.3 301.3 357 298.7 360.9 296.4 365 294.2 369.2 293.4 373.9 292.2 378.5 292 383.2 292.3 387.8 293 392.3 294.2 396.7 295.9 401 297.8 405.1 300.7 408.6 303.7 412.1 306.8 415.4 310.8 417.9 314.8 420.1 318.8 422.2 322.7 424.6 326.9 426.5 331.2 428 335.7 429.1 339.9 430.8 344.4 431.8 348.7 433.3 352.9 434.7 357 436.5 361.1 438.3 365.1 440.4 368.3 443.5 370.8 447.2 372.4 451.4 372.5 455.9 372.2 460.7 370.4 465.1 367.1 468.5 363.3 471.2 358.8 472.7 354.1 473.7 349.3 474.1 344.7 473.6 340.1 472.3 335.5 471.1 331.7 468.2 328.1 465.2 325.4 461.2 323.7 456.8 319.5 453.6 314.5 454 309.3 453.9 304.3 454 299.1 453.8 294 453.6 290.9 455.6 289.9 458.9 290.5 463.5 292.5 467.7 294.1 472 296.2 476.1 299.2 479.7 302.5 483 305.8 486.1 309.4 489 313.5 491 317.5 493.4 321.8 495.1 326.3 496.4 330.8 497.4 334.2 501.5 334.2 507.1 334.2 512.7 338.6 516.8 343.6 516.8 348.6 517.1 353.5 517 358.5 517.1 363.1 512.7 363.1 507.1 363 501.5 366.3 497.3 370.9 496 375.4 494.7 379.9 493.1 384.2 491 388.2 488.5 392.1 485.8 395.5 482.5 398.7 478.9 401.4 475 403.4 470.6 404.6 466 406 461.4 406.1 456.7 406.5 452 406.5 447.2 405.9 442.4 404.7 437.8"/>
    <path class="st0" d="M505.3,483.3l-1.3-4.6c-.2-.8-.8-3.4-1.1-4.9-1.2-3-2.5-5.8-3.9-8.7-.5-1.1-2.3-.5-2,.7l2,9.3v-.4c0,2.8.4,6.9.9,9.6v-.4,9.5c0,1.2-.5,6-.9,8.5-1,3.3-3.2,11.8-3.4,13.5l-1.3,4-2.2,3.9-2.1,4.1c-.3.4-1.7,2.8-2.3,3.6l-2.7,3.2c-1.4,1.3-9.6,9.2-10,9.5l-3.5,3c-3.3,2.4-8.1,5.3-11.6,7.5-1.4.7-2.9,1.4-4.3,2.1l-4,2.6c-1.1.5-3.7,1.6-3.8,1.7l-4.3,1.3h-.3l-4.5,1.9h.4c-2.7.7-7.6,1.8-9,2.4-3.2.4-6.4.8-9.5,1.1-1.2.2-1.1,1.9,0,2.1,2.9.4,7.1.9,10,1l9.5-1h.4c-.2,0,5.6-1.6,4.4-1.2l4.8-.8.5-.2,4.6-1.5.5-.2,4.3-2.2-.3.2c1.5-.6,3-1.1,4.5-1.8l.5-.2,6.3-3.5c2.3-1.2,4.5-2.6,6.7-4l3.8-3c3.6-3.3,7.3-6.7,10.8-10.1.2,0,3.2-3.9,3.3-4.2,2.8-4.1,4.9-9,7.2-13.4.4-.9,1.4-4.9,1.7-5.8.7-4.2,1.8-10.2,2.7-14.4.5-6.5-.2-13.2-1.2-19.6v-.4h0ZM451.8,558.9h.2-.2Z"/>
    <path class="st0" d="M563,404.9c.2-2.7.3-5.4.3-8.1v-.4l-.7-3.5v-4.1l-.4-3.9h0v-.3l-.7-3.5v-4.2l-.5-3.9v-.5c-1.5-5-2.4-10.4-3.4-15.6-.6-1.8-1.5-5.6-1.9-7.4-1.1-3.2-2.7-8.2-3.5-11.6v-.3l-.2-.3-1.6-3.5-1.4-3.6v-.2l-.2-.2-1.7-3.3-1.3-3.5-.2-.5-.3-.4-2.1-3.1c-1-1.7-2.7-5-3.3-6.7v-.2l-.2-.2-2-3.4v-.2l-.3-.2-4.8-6.2c-1.3-1.9-3.5-5.2-5-6.9l-2.7-2.7-2.5-3.1c-5.8-5.7-11.3-11.3-16.8-17.2l-.2-.2-.2-.2-2.9-2.3-2.5-2.7-.3-.3-3-2.7h0c0,0,0-.2,0-.2l-3-2.3c-2.9-2.9-5.8-5.8-8.8-8.5,0,0-2.3-1.8-3-2.2l-2.6-2.6-.2-.2-.3-.2-3.2-2.4c-5.6-5.1-14.2-12.2-20.4-18.3-3-2.3-5.9-5-8.5-7.7l-1.9-2.3c5.7-4.1,7.7-11.9,4.5-18.3-1.8-3.6-5-6.1-8.5-7.3,1.2-2.1,2.4-4.3,3.5-6.5l2-3,2.5-2.9c2.4-3.2,5.3-6.2,7.6-9.5,1.2-1.2,3.1-3,4.1-4.3,1.3-1.5,2.7-2.9,3.9-4.2l3-2.4.3-.2.2-.2,2.5-3c2.5-2.2,4.8-4.7,7.2-6.8,2.5-2.3,5.3-4.6,7.8-7,2.6-3.1,5.7-5.8,8.3-8.9l.2-.2,2.3-3.1,2.8-2.6.2-.2h0l2.6-3.2c1.4-2.3,3.3-5.3,4.4-6.9l2.5-3.2.2-.3c1-2.1,2.9-5.6,4-7.6v-.3l1.1-3.9,1.3-3.7v-.4c0,0,1.2-6,1.2-6,.4-2.2.9-4.5,1-6.7l-.4-4v-.2h0c-.4-2.2-1.3-6.1-2-8.1v-.3l-.2-.2-2-3.5v-.2c-1.1-1.4-2.9-3.6-4-5-1.4-1.7-2.9-3.2-4.3-4.8l-3.1-2.8-3.2-2.6h0c-1.7-1.3-5.2-3.6-7-4.7l-7.3-3.9h0l-3.8-1.7-3.8-1.4h0l-3.9-1.1h0l-4.1-.8-4.1-.5h-4.3c-2.2.3-4.3.8-6.4,1.3-2,.5-4.1.9-6.1,1.3l-3.9,1.1h-.3c0,0-3.6,2-3.6,2-3.7,1.4-7.5,3.1-11.1,4.9l-3.7.7-3.8.5-3.5-.3-3.2-1.5-3-2.4-3.2-2.4h0l-3.4-2h-.2c-2-.6-5.7-1.8-7.7-2.4h-.3l-4-.3h-.2c-2.7,0-5.3.3-8,.5-5.2.8-10.6,1.8-15.7,3.1-3.7,1.8-7.4,3.6-11.1,5.6l-3,2.8-2.1,2.3c-2.9-1.9-6.9-4.8-9.6-6.2l-3.7-1.6-3.4-2.1h0l-3.8-1.4h0l-4-.9-3.8-1.3h0c-2.1-.2-6.2-.6-8.3-.6h-.4l-3.7,1.9-3.6,2.1h0v.2c-1.8,2.3-3.6,4.6-5.2,7l-1.1,3.2-3.1-.8c-2.6-.9-5.2-1.7-7.7-2.5l-3.9-.7-3.8-1.2h0l-3.8-.7-3.7-1.3h-.3l-3.9-.6-3.8-1.1h0l-4-.6c-2.7-.6-6.8-1.6-9.8-1.9-3.2-.8-7.3-.5-9.8-1.2l-3.9-1h-4.3l-3.9-.6h-4.1l-3.9-.6h-.4l-3.9.4-3.9-.2h-.5l-2.9.8c-3.1.7-6.2,1.1-9.3,1.8l-3.7,1.6h-.2l-.2.2-3.3,2.3-.4.2-.3.4-2.1,3.4v.2c0,0-.2.3-.2.3l-1.1,3.8h0c-.7,4.3-1.2,8.6-1.5,12.8l.2,3.8-.5,3.8v.4c0,2.8.2,5.6.4,8.4l.7,3.9c.4,3.9.9,6.1,1.8,10.2.5,2.1,1.1,4.1,1.6,6.1,1.7,3.8,3.3,7.5,5,11.4,2,3.7,4.2,7,6.8,10.4l1.9,3.4c4.5,5.4,9.3,10.7,13.8,16l5.7,5.3,2.6,2.9h0v.2c0,0,2.8,2.6,2.8,2.6l2.5,2.8,2.4,3h0c0,0,0,.2,0,.2l2.8,2.9c0,0,2.2,2.2,2.7,2.6,1.6,1.9,3.2,3.8,4.7,5.7l1.5,2.4c.5.9,1.1,1.6,1.7,2.5,1.1,1.5,2.1,3.1,3.2,4.6l1.7,3.2.4.8c-2.5.9-4.9,2.5-6.6,4.7-4.4,5.5-4.1,13.3.2,18.4l-1.1.3c-.4,0-.8.3-1.1.5l-4.4,1.9-.4.2-3.7,1.7-3.9,1.3c-.3,0-.7.2-1,.4l-4.3,1.9c-.5.2-1,.5-1.3.8l-3.7,2.2-3.8,1.9c-.2,0-.5.3-.7.4l-4.1,2.4c-.3.2-.6.4-.9.6l-3.9,2.7h-.2c0,0-3.8,2.9-3.8,2.9l-.3.2-3.6,2.8-3.4,2.4-3.7,2.4c-.8.5-1.4,1-2,1.6l-2.7,2.6-3.1,2.1c-.4.3-.8.6-1.1.9l-3.6,3.1c-.2.2-.4.3-.5.5l-3.4,3.2-.3.3-3.2,3.2-3,2.9-3.3,2.9c-.6.5-1.1,1-1.5,1.5l-2.5,3-2.9,2.7c-.5.5-1,1-1.4,1.5l-2.3,2.9-2.8,2.5-1.3,1.3-3,3.6c-.2.3-.4.5-.6.8l-2,2.9-2.5,2.4c-.7.6-1.1,1.2-1.7,2l-2.3,3.3-2.7,3.1c-.2.3-.5.6-.7.9l-2.8,3.8c-.2.3-.4.6-.6.9l-2.5,4c-3.8,6.2-1.9,14.4,4.4,18.2,6.2,3.8,14.4,1.9,18.2-4.3l2.2-3.6,2.2-3,2.8-3.2c.3-.4.6-.7.8-1.1l2-2.9,2.5-2.4c.6-.6,1.1-1.2,1.6-1.9l2.5-3.4,2.1-2.5,2.8-2.6c.5-.5,1-1,1.4-1.5l1.1-1.2c-.5.7-.9,1.3-1.1,1.5-5.3,6.3-9.6,13.6-14.4,20.2l-1.6,3.3c-1.3,2.3-2.9,4.6-4.3,6.9l-1.8,3.5v.2l-.2.2-1.4,3.5-1.6,3.3-.2.4c-.7,1.8-2.1,5.3-3.1,7.1l-.2.6-1.1,3.5-1.4,3.4c-.9,2.7-1.7,5.3-2.6,7.9-1,3.4-1.3,6.9-2.1,10.3-.8,2.9-1.2,6.9-1.9,9.8v.9c0,0,0,3.1,0,3.7l-.5,3.5v.5c0,3.3.2,5.4,0,8.8-.6,4.4-.4,11.9-.2,14.9l-.3,4v.3h0v4.1c1.1,7.8,1.1,16.1,1.5,24v.3h0c0,0,.6,3.7.6,3.7v4.4c0,0,.6,3.2.8,3.7l.2,3.5v.6c.4,2,1.1,5.8,1.2,7.9h0l.9,3.9.5,3.7v.3h0l.9,3.8.6,3.7v.3c.9,3.3,2.2,8.4,3.2,11.6l.7,3.6v.3h0c0,0,1.1,3.9,1.1,3.9.7,1.9,1.5,3.8,2.1,5.7.8,1.9,1.2,3.9,1.8,5.9.8,1.8,2.4,5.3,3.1,7.2l1.3,3.7,1.5,3.7v.2h0l1.6,3.2c.2,2,.6,5.3.9,7.2-.2,1.9-.6,5.3-.9,7.1l-1.3,3.3-1.7,3.3c-.7.9-3.4,4.8-4.6,6.4-1.1,2.7-2.3,5.3-3.3,8l-.8,4v.5l.8,4v.2h0l1.5,3.9v.4l.4.2,3.2,2.5.2.2h.2l3.9,1.1h0c2.8.2,5.5.5,8.2.8l4.1.2h8.2l4,.7h0l4.2.4h4.1l4,.8h0c4,.2,8.1,1,12.1,1.2,3.3,1.7,6.8,3.9,9.8,6.2l3.4,2h0c4.4,1.9,9.3,4.1,13.7,5.9,1.5.7,3,1.2,4.5,1.8l3.5,1.8h.3l3.9,1.1c3,1.1,7.7,3.2,11.5,4,7.6,1.5,15.5,3.8,23,5.8h.4l3.6.5,3.8.9h.4l3.6.5,3.9.9h.6l3.5.2,3.8.9h0c6.7.6,13.7,1.5,20.3,2.2h.5l3.6-.2,3.5.2,3.9.5c4.3,0,8.6.2,12.9,0l3.7-.3h4c5.2-.8,10.2-.4,16.2-.8l4.1-.5,3.8-.8c8-.5,16.3-1.8,24.2-3.2l3.5-.7h.6l3.7-1.3c3.5-.7,8.1-1.6,11.4-2.8,3.8-.8,7.9-2.1,11.6-3.2l3.8-1.1,3.8-1.2,3.6-.8h.4l3.7-1.5h-.2l3.8-1.1h.2l3.5-1.8,3.6-1h.2l3.7-1.5h.2l3.4-1.9,3.6-1.2h.2l3.4-2.1c2-1,5.8-2.9,7.6-3.9l3.3-2.4,3.5-.5c1.9,0,5.7-.2,7.6-.3h0l3.6-1h3.7l3.8-.4h0l3.7-.8h3.8l3.7-.8,3.8.2h0l3.7-.6h3.8l4-.4h0l3.9-1.2h0l3.2-2.6h0v-.2l1.6-3.7h0v-.2l.5-4.1h0v-.2l-1-4-1.1-3.9h0l-2-3.6h0l-2.4-3.4-2.6-3.2c-.2-.4-1.5-3.9-1.5-3.8l-1.2-4-1-4-.3-4.1.3-4.1,1.2-3.9.3-1.1c.7-2,1.7-5,2.5-6.4,1.5-5,3.3-10.5,5.1-15.4h0v-.2l.8-4c.9-3.2,2.6-7.8,3.4-11.6h0v-.2l.6-3.8,1.2-3.7c1.8-9.2,4-18.9,5.3-28.1v-3.7c.8-3.9,1.2-7.9,2-11.8.4-4,.4-7.9.8-11.8v-3.9l.5-3.7v-8.1h0v-.4l-.2-3.7h0l.7-.9.2.2ZM428.9,52.2h.4c3.6-1.9,7.4-3.4,11.3-4.8h0l3.5-1.8,3.8-1.1c2.8-.5,9.5-1.9,11.6-2.3h4l3.9.6,3.8.8c.3,0,3.1.9,3.6,1.1l3.7,1.4,3.5,1.7,7,3.9c1.6,1.1,4.9,3.2,6.4,4.5l3,2.6,3,2.8c1.6,2,5.2,5.9,7.2,9l1.1,1.9c0,.2,0,.3,0,.5l-1.3,2.1c-1,.4-1.9.8-2.9,1.2-5.3.2-8.3.5-13.2-.2l-4.4-.2-4.3-.9h-5.3l-8.8-1.7c-3.2-.4-6.6-.5-9.8-.8-2.3-.7-9.5-1.7-13.7-2.4-2.9-.5-11.9-2.1-13.8-2.3l-4.5-1.5h-.3l-4.6-.6-4.4-1.5-1.3.6-1.5,3.9-3.5,2h0c1.2-1.4,2.3-2.9,3.3-4.5,2.6-4.1,5.8-7.8,6.2-12.9,2.2-.3,5.5-.7,7.4-1h0v-.2h0ZM355.4,51.9l2.9-2.7c1.9-1,8.3-3.8,10.2-5,4.9-1.1,10.9-2.3,15.4-2.8,2.5,0,5.9-.5,7.7-.3l3.8.4,3.6,1.2,3.6,1.1,3.2,2c1.6,1.2,4.7,3.7,6.2,5.1h.2l3.6,1.8h1.5c-2.1,2-4.4,5.1-4.8,5.9-1.4,2.7-3.4,6.8-4,9.1-.6,1.2-1.1,2.6-1.5,4l-3.3.7-4.4-.5h-4.5l-4.2-1.3h-.2l-4.2-.7-4-1.7h-.2l-4.1-1.4-4.1-1.9h.2l-3.9-2.2c-.5-.2-4.4-2.1-4.8-2.2l-4.4-1.2h-.3l-4.5-.9h-2.8v-.3h0l-.3-3.8c.8-.9,1.8-1.9,2.1-2.3h0l.2-.2h0ZM308.1,44.2l3.4-2,3.5-1.8h3.9c0,0,4,.5,4,.5l3.8,1.3,4,.9,3.7,1.4,3.4,2.1h0l3.6,1.6,2.6,1.5c.9.5,1.7,1.1,2.5,1.6l4.5,3.1.3,3.6v.3h-.4c-4.4,0-9.7.5-14,1.2h-.3l-7.7,2c-7.7,2.2-15.6,4-23.2,6.6h.3-.5c0-.6,0-1.1,0-1.6v.2c0-1.5,0-3.1-.3-4.6-.8-3.1-1.2-5.3-2.8-8.1h0l1.1-3.4c.8-.9,3.2-4.7,4.7-6.4h0ZM194.6,54.9l1-3.5,1.6-2.9,2.8-2,3.4-1.5c1.8-.4,7.8-1.6,11.2-2.5h3.7c0,0,.2,0,.2,0h0l3.8-.5,3.8.5h4.1c0,0,3.8.3,3.8.3h4.1c6.1,1.6,12.6,1.3,18.8,2.6,1.7.2,3.3.7,5,1l3.9.5,3.8,1.1h0l3.9.5,3.7,1.2h.2l3.9.6,3.8,1.1h0l4,.7c2,.7,5.3,1.3,7.6,2.3l3.1.7c-.3,1.3-.4,2.8-.2,4.1.2,1.4.6,2.9,1,4.2v-.3c.2,1.4.5,2.9.9,4.3.2.6.4,1.1.7,1.7l-1,.2c-8.6,2.8-17.4,6-26,5.3-1.3-.3-2.7-.6-3.9-1l-2.6-2.7.2-4-1.1-1.1-5,.6c-4.9,0-13.7.2-19.2.4h.2l-4.8-.4-4.8-.6h-.4l-4.4.2c-3-.6-6.7-1.1-9.7-1.4.2,0-3.4,0-4.5,0-4.4-1-9.1-1.9-13.5-3-1.3-.6-2.7-1.1-4-1.6l.4.3c-1.2-.8-2.5-1.6-3.8-2.4-.2-.4-.4-.9-.6-1.2,0-.7.2-1.2.2-1.5h0l.4-.2ZM254.4,170.9l-1.5-2.4c-1.8-2.3-3.7-4.5-5.6-6.7-1.4-1.2-4.1-3.9-5.4-5.3l-2.5-3-2.7-3v-.2h-.2l-2.9-2.6-2.6-2.8h0v-.2l-5.8-5.3c-4.5-4.9-8.8-9.7-13.3-14.6l-1.8-3.2c-2.6-3.5-4.9-6.5-6.9-10-.9-1.8-3.9-8.9-4.9-10.4-1.2-3.8-2.1-7.5-3.1-11.5-.3-2.1-.9-5.8-1.3-7.9-.3-2.6-.3-6.1-.5-7.4l.4-4v-.4l-.4-4c0-.6.2-2.3.4-4.3.7.7,1.3,1.2,1.9,1.9,1.4,1,3,1.8,4.5,2.8,2.5.9,4.9,1.8,7.4,2.4,2.6.7,5.2,1.2,7.7,1.6h4.9c1.8,0,6.6.5,9.7.6l4.8-.7h4.6l4.9-.2h.2c6.2-1,12.8-1.8,19.2-1.8l3.6-.5-.3,3.2.3.9,2.2,2.4c-.2,1.4.3,3.7.5,4.6v-.2c0,1.5.6,3.1,1,4.6.2.9,1,4,1.3,5l1.8,4,1,4.3v.4c1.1,2.3,2.5,6.2,3.2,8.5.6,2.4,1.8,6.9,2.7,9.3l1.8,4.2,1.3,4.4c1.4,3.9,3.1,9.3,4.2,13.3v.3c0,0,2,4.2,2,4.2l1.3,4.2,1.1,4.5v.4c0,0,2,4.1,2,4.1.7,2.4,1.9,6.8,2.6,9,1.6,3.8,3.7,9.1,5,13l1.3,4.5c.4,1.3,2.3.8,2-.5-1.1-5.5-3.4-13.3-5.3-18-.6-2.2-1.7-6.8-2.2-9.1v-.3c0,0-1.9-4.1-1.9-4.1-.5-2.6-1.4-6.6-2.2-9.1v-.3c0,.2-1.5-3.4-1.9-4.1-.6-2.3-1.7-6.8-2.4-9-.8-2.2-2.1-6.7-2.8-8.9v-.2l-1.8-4.2c-.7-2.3-1.8-6.7-2.4-8.9l-1.4-4.6-1.6-4.2-1-4.4-.2-.5c0,.2-1.5-3.3-1.8-4-.9-3.2-1.4-6.8-3-9.8.6.2,1.1.3,1.6.5,8.9,1.2,19.3-1.2,27.2-3l4.6-.6h.3c7.6-1.9,15.8-3.1,23.4-5.1,2.5-.6,5.1-1.1,7.6-1.8l4.2-.7,4.4-.4c2.5-.2,6.1-.5,8.8-.6l4.2.5h-.3l4.3.8,3.9,1.4h-.2l4.1,1.8h.2l4.3,1.6h.2l4.4,1.1h-.2l4.4,1.3h.5l4.5.4,4.3,1h.5c-.3,0,4.2-.2,4.5-.3l4.5.3h.4c1.1-.3,2.6-.7,4-1.1h.2c1.7-.5,3.4-1,4.8-1.4l1.5-.9c-1.1,3.6-2.3,7.3-3.4,11-.5,2.6-1.1,6.4-1.8,9-.5,2.3-1.2,6.8-1.5,9.2-.8,3.1-1.7,6.1-2.5,9.3l-.4,4.4-1.2,4.1v.4c-.4,2.5-1,6.4-1.5,8.9-.6,2.2-1.7,6.8-2.1,9v.2l-.5,4.6c-.5,2.3-1.2,6.8-1.6,9-.6,3-1.2,6-1.9,9-.3,1.3,1.6,1.7,2,.6,1.4-3.9,3.1-9.4,3.9-13.5l1.2-4.4v-.2l.8-4.4c.6-2.2,1.9-6.7,2.7-8.8.7-2.6,1.4-6.4,1.9-9.1.2-.6,1.4-4.5,1.4-4.2,0,0,.5-3.8.6-4.9,1-3,1.8-6,2.7-9,.4-2.3,1.1-6.8,1.6-9,.7-2.6,1.4-6.4,1.8-9,1.9-5.7,2.2-11.5,2.7-17.1l3,1.1h.2l4.5.8,4.3,1.8c4.7,1.1,9.3,2.4,13.8,3.8,4.7,1.4,9.3,2.8,13.8,4.3l9.3,1.7c1.4.4,7,2,9.6,2.5h4.3l4.3,1.1h.7l4.7.2c5,.5,9.8-.2,14.7-1.1l1.1-.4c1.3-.9,2.8-1.5,3.9-2.5l.2,1.1.2,3.6c-.3,1.9-.7,3.7-1.1,5.6l-1.1,5.6-1.3,3.6h0v.2l-1.1,3.5-1.9,3.3-1.8,3.3-2.4,3c-1.6,2.2-3.1,4.5-4.6,6.8l-2.4,2.9-2.9,2.7-.2.2-.2.2-2.4,3.1-1.9,2.1c-1.3,1.5-3,2.8-4.3,4.3l-2,2.2c-1.2,1.1-2.4,2.2-3.6,3.2-4.1,3.2-7.6,7-11.6,10.3l-.2.2-2.4,2.8-3,2.3h-.2c-2.9,3-5.6,6.2-8.6,8.9h-.2c0,0-.2.4-.2.4-1.8,2.4-3.9,4.6-5.8,6.9l-1.8,2.3-2.7,2.9v.2c0,0-.3.2-.3.2l-2.4,3.3c-1.4,2.5-2.7,4.9-4.2,7.4h0c0,0,0,.4,0,.4l-1.2,2.8c-1,.3-1.8.6-2.7,1.1l-7.6,3.8-3.7,1.5-4.2,2-3,1.1-4,1.1-5,1.5-3.6,1.3-4.6.8-4.2,1.5-7.4,1.1-5.3,1.1-3.7.7-4.1.5-4,.6h-3.5l-5.1.3-4.4.4h-4.4c0,0-4.5.2-4.5.2h-3.6c0,0-4.4-.5-4.4-.5h-5.3c0,0-3.6-.4-3.6-.4l-8.2-1.3-4.2-1-4.4-.8-4.3-1.3-4.9-1-3.2-1-3-1.1-3.4-1.8-9.2-4.2-2.7-1.3-9.8-7.8c-1.7-1.3-3.6-2.3-5.6-2.8h0c0,0-1.7-3.7-1.7-3.7l-1.9-3.5c-1.1-1.8-2.4-3.5-3.6-5.2-.6-.8-1.1-1.5-1.7-2.4h0v-.4h0ZM554,447.8v4.4c-.4,2.2-1.4,9.5-1.9,13.4-.5,3-1.8,11.6-2,13.5l-1.1,3.9v.5l-.4,4c-.4,2.7-2.1,8.1-2.9,11.6l-.6,3.9-1.1,3.7c-1.5,5.2-2.6,10.7-4.3,15.6l-1.1,3.9-.5,1.7h0l-.7,2.3h0v.2l-.2,4.2h0l.4,4.3h0l1.1,4.1,1.3,4,1.6,3.9v.2s2.9,3.3,2.8,3.2l2.4,3.3c0-.2,1.8,3.2,2,3.4l1.1,3.8,1,3.9-.5,3.9-1.5,3.5-3.1,2.4-3.7,1.1-4,.4c.2,0-3.8,0-3.8,0h0l-3.7.5-3.8-.2h-.2l-3.7.7-3.8-.2h-.2l-3.7.8-3.7.4-3.8-.2h-.2l-3.7.9-3.7.2h-3.8l-3.8.5h-.2l-.2.2-3.4,2.4c-1.9,1-5.7,2.8-7.6,3.5h0l-3.3,1.8-3.7,1.1h-.2l-3.4,1.7-3.5,1.1-3.9.7h-.2l-3.5,1.3-3.8.8h-.2l-3.5,1.1-3.9.4h-.3c-1.9.5-5.8,1.2-7.7,1.5l-7.8,1.4h.2l-4.1.4-3.9.7-7.7.9h-.6l-3.4,1-3.2.4c-8.1.5-15.8,1.6-24.1,1.7h-.6l-3.7.7-3.8.4c-1.6,0-8.5.2-11.9.3,0,0-2.9.3-3.7.5h-4.1l-3.9.5c-1.6,0-8,.4-11.4.4l-3.6-.3h-4.8l-3.8.4c-4.9-.2-9.5-.3-14.4-.6h-5l-3.5-.5h-4.5l-3.5-.3h-4.3l-3.6-.6h-.3l-3.9-.2c-3.4-.6-8.2-1.3-11.5-2-3.2-.5-9.5-1.7-11.7-1.7-3.9-1-7.7-1.9-11.6-3.2l-3.8-.8-3.4-1.6c-1.6-.6-3.2-1.1-4.8-1.6-4.3-1.5-9.9-3.8-13.7-5.3l-3.4-1.9c-1.4-1.1-3.3-2.3-4.9-3.3s-3.7-2.1-5.3-3c-4.1-.3-8.3-1.2-12.4-1.3l-4-.8h-4.1l-4-.5-4-.8h0l-4.1-.3h-4.2c-3.9,0-8.1-.8-12-1.1l-3.5-1.1-2.8-2.2-1.2-3.3-.6-3.6.8-3.6c1.1-2.4,2.3-4.8,3.3-7.1,1.7-2.1,3.4-4.2,5-6.4l1.9-3.3h0l1.6-3.6v-.5c0,0,.9-3.8.9-3.8l.6-3.9v-.5l-.3-3.8-.2-3.8v-.4l-.2-.5-1.6-3.4-1.3-3.6c-.5-1.8-1.7-5.9-2.5-7.6l-1.3-3.5c-.5-1.9-.9-3.8-1.5-5.8-.6-1.9-1.1-3.7-1.8-5.6l-.9-3.5-.5-3.8v-.2c-.5-2.1-1.1-3.6-1.5-5.9l-1.1-5.5-.4-3.9h0v-.3l-.7-3.6-.4-3.9h0v-.3l-.6-3.6-.3-4-.5-3.7v-4.4l-.6-3.4v-4.4l-.6-3.9c-.2-5.6.2-16.1-.7-23.4v-3.5l.4-3.8v-10.1c.3-4.3,1-9.3.7-13.7l.5-3.5v-4.1c1.2-6.1,2.5-12.5,3.8-18.6.8-2.3,1.6-4.7,2.3-7.1l1.5-3.4v-.2c0,0,.2-.3.2-.3l1.1-3.4,1.6-3.4,1.4-3.6c1.9-3.9,1.8-3.6,3.2-7l1.7-3.3c1.4-2.3,2.9-4.5,4.2-6.8v-.2l1.6-3.2c4.6-6.3,8.2-13.1,13.3-19,1.1-1.6,3.2-4.7,4.4-6.3l2.5-2.7.2-.3v-.2c0,0,2.3-3.1,2.3-3.1,1.3-1.6,3.8-4.3,5.2-5.7h0c0,0,4.9-6.4,4.9-6.4,3.7-3.6,11-12,16.3-16.9l2.5-3c1.7-1.7,3.5-3.5,5.2-5.3l2.9-2.3.5-.4h0l2.5-1.3c.3,0,.6-.3.9-.5l3.4-2,3.2-1.4,1.6-.6-1.9,3.2-2.4,3.2c-.3.4-.6.9-.9,1.2l-2.1,3.7-2.2,3.4-2.5,3.6c-.4.5-.7,1.1-1,1.5l-2,3.9-2.1,3.8c0,.2-.2.5-.4.7l-2,4.2c0,.2-.2.4-.3.6l-1.6,3.7-4.2,7.7c-.4.8-.8,1.6-1.1,2.5l-1,3.3-1.5,3.1c-.4.7-.7,1.4-.9,2.1l-1.3,4.2-1.3,3.9-1.6,4.1c0,.3-.2.5-.3.8l-1.4,4.4c-.2.6-.3,1.1-.5,1.7l-.8,4.1-1.1,4c0,.3,0,.6-.2.8l-2.8,13.7c-.2.9-.3,1.7-.3,2.6v4l-1.1,8.2c0,1.1-.2,2.1,0,3.2l.4,3.7v3.7c-.2.3-.2.6,0,.9v4.7c.2.6.2,1.2.3,1.8l3.2,18.4c0,.8.4,1.5.6,2.3l1.3,3.6.9,3.7c0,.6.3,1.1.5,1.7l1.6,4.4c2,5.3,7.1,8.6,12.4,8.6s3.2-.3,4.7-.9c6.9-2.6,10.3-10.2,7.7-17.1l-1.3-3.5-.9-3.7c0-.6-.3-1.1-.5-1.5l-1.1-3.2-2.9-16.1v-3.3c0,0,0-4.2,0-4.2v-1.8l-.3-3.1.4-3.1v-.4l.6-4.6v-4.7l2.5-12,1.1-4.1c0-.3.2-.6.2-1l.7-3.7,1.1-3.2,1.5-3.9c0-.2,0-.4.2-.5l1.5-4.4c0-.2,0-.3.2-.5l1.1-3.3,1.6-3.2c.4-.8.7-1.5,1-2.3l1-3.2,3.7-6.9c.2-.4.4-.7.5-1.1l1.7-4,1.7-3.5,2.1-3.7.2-.5,1.7-3.3,2.1-3.1.3-.4,2.5-3.9c0-.2.2-.4.4-.6l1.9-3.3,2.3-3.2c.3-.4.5-.8.8-1.1l2-3.4,2.2-3.1,2.8-3.4c.2-.3.5-.6.7-.9l2.5-3.6,2.3-3.2,5.5-6.6,1.1-1.3,2,.9,5.9,1.8,5.2,1.1,4.8,1.5,5.3.9,4.2.9,10.1,1.6,6,.5h5c0,0,4.2.5,4.2.5l6.2.2,4.7-.3h4.8c0,0,5.1-.4,5.1-.4l3.9-.2h5.3l5.3-.9,4.3-.5,5.3-1,4.6-1.1,10-1.4,4.5-1.6,4.5-.8,5.3-1.9,3.8-1.2,4.1-1.1,6.1-2.1,4.5-2.3,3.7-1.5,3.7-1.8c.4.3.7.6.9.8,2.7,3.4,6.1,6.8,9.4,9.5l2.3,1.8c4.9,4.9,10.3,9.5,15.5,13.9,1.4,1.5,3.7,3.3,5.3,4.8h0c0,0,3,2.3,3,2.3l2.6,2.7.2.2.3.2,3.2,2.4c1.1,1.1,6,5.7,8.2,8.1l.2.2c-.2,0,2.3,1.8,2.9,2.3l2.8,2.6,2.6,2.9.2.2.3.2,2.9,2.3c5.3,5.7,10.8,11.6,16.2,16.9l2.4,2.9v.2c0,0,.3,0,.3,0l2.6,2.6c1.2,1.7,3.3,4.6,4.5,6.2-.3-.3,3.8,5,4.7,6l1.8,3.1c.9,1.9,2.7,5.3,3.6,7.1l.2.4,2,2.9,1.2,3.2.2.4,1.7,3.3c.8,1.8,2.2,5.2,3.1,7,1.1,3.6,2.2,7.4,3.5,11,.5,2,1.4,5.7,2.1,7.6.2,1.5,1.6,8.4,2.4,11.5,0-.2.8,2.8,1,3.6l.5,3.5v4.4l.9,3.7c0,.7.3,2.9.4,3.5v4.5l.8,3.6v7.8l.3,3.8v3.9h0l.2,3.8-.4,3.6v4.4c0,3.5-.4,9.3-.3,11.3-.8,3.8-1,8-1.5,11.8h0l-.5-.4h0Z"/>
  </g>
  <path class="st0" d="M619.2,144.7v-1.1c-11.5,1.3-20.3,2.7-27.3,4.5-5.3,1.4-9.5,3.2-12.9,5.6-2.6,1.8-4.7,4.1-6.5,6.8-2.7,4-4.5,9.1-5.9,15.5s-2.6,14.1-3.7,23.8h1.1c0,0,1.1,0,1.1,0-1.3-11.4-2.7-20.1-4.5-27.2-1.4-5.3-3.2-9.5-5.6-12.9-1.8-2.6-4.1-4.7-6.8-6.5-4-2.7-9.1-4.5-15.5-5.9s-14.1-2.6-23.8-3.7v1.1c0,0,0,1.1,0,1.1,11.4-1.3,20.1-2.7,27.2-4.5,5.3-1.4,9.5-3.2,12.9-5.6,2.6-1.8,4.7-4.1,6.5-6.8,2.7-4,4.5-9.1,5.9-15.5s2.6-14.1,3.7-23.8h-1.1c0,0-1.1,0-1.1,0,1.3,11.4,2.7,20.1,4.5,27.2,1.4,5.3,3.2,9.5,5.6,12.9,1.8,2.6,4.1,4.7,6.8,6.5,4,2.7,9.1,4.5,15.5,5.9s14.1,2.6,23.8,3.7v-1.1c0,0,0-1.1,0-1.1v1.1c0,0,.3-1.1.3-1.1-11.4-1.3-20.1-2.6-26.8-4.5-5.1-1.3-9-3.1-12.1-5.3-2.4-1.7-4.3-3.6-5.9-6.1-2.4-3.7-4.2-8.4-5.6-14.7-1.4-6.2-2.5-13.9-3.6-23.5,0-.6-.6-1.1-1.1-1.1s-1.1.5-1.1,1.1c-1.3,11.4-2.6,20.1-4.5,26.8-1.3,5.1-3.1,9-5.3,12.1-1.7,2.4-3.6,4.3-6.1,5.9-3.7,2.4-8.4,4.2-14.7,5.6-6.2,1.4-13.9,2.5-23.5,3.6-.6,0-1.1.6-1.1,1.1s.5,1.1,1.1,1.1c11.4,1.3,20.1,2.6,26.8,4.5,5.1,1.3,9,3.1,12.1,5.3,2.4,1.7,4.3,3.6,5.9,6.1,2.4,3.7,4.2,8.4,5.6,14.7,1.4,6.2,2.5,13.9,3.6,23.5,0,.6.6,1.1,1.1,1.1s1.1-.5,1.1-1.1c1.3-11.4,2.6-20.1,4.5-26.8,1.3-5.1,3.1-9,5.3-12.1,1.7-2.4,3.6-4.3,6.1-5.9,3.7-2.4,8.4-4.2,14.7-5.6,6.2-1.4,13.9-2.5,23.5-3.6.6,0,1.1-.6,1.1-1.1s-.5-1.1-1.1-1.1v1.1h-.2Z"/>
  <path class="st0" d="M151,517.1v-1.1c-11.5,1.3-20.3,2.7-27.3,4.5-5.3,1.4-9.5,3.2-12.9,5.6-2.6,1.8-4.7,4.1-6.5,6.8-2.7,4-4.5,9.1-5.9,15.5s-2.6,14.1-3.7,23.8h1.1c0,0,1.1,0,1.1,0-1.3-11.4-2.7-20.1-4.5-27.2-1.4-5.3-3.2-9.5-5.6-12.9-1.8-2.6-4.1-4.7-6.8-6.5-4-2.7-9.1-4.5-15.5-5.9s-14.1-2.6-23.8-3.7v1.1c0,0,0,1.1,0,1.1,11.4-1.3,20.1-2.7,27.2-4.5,5.3-1.4,9.5-3.2,12.9-5.6,2.6-1.8,4.7-4.1,6.5-6.8,2.7-4,4.5-9.1,5.9-15.5s2.6-14.1,3.7-23.8h-1.1c0,0-1.1,0-1.1,0,1.3,11.4,2.7,20.1,4.5,27.2,1.4,5.3,3.2,9.5,5.6,12.9,1.8,2.6,4.1,4.7,6.8,6.5,4,2.7,9.1,4.5,15.5,5.9s14.1,2.6,23.8,3.7v-1.1c0,0,0-1.1,0-1.1v1.1c0,0,.3-1.1.3-1.1-11.4-1.3-20.1-2.6-26.8-4.5-5.1-1.3-9-3.1-12.1-5.3-2.4-1.7-4.3-3.6-5.9-6.1-2.4-3.7-4.2-8.4-5.6-14.7-1.4-6.2-2.5-13.9-3.6-23.5,0-.6-.6-1.1-1.1-1.1s-1.1.5-1.1,1.1c-1.3,11.4-2.6,20.1-4.5,26.8-1.3,5.1-3.1,9-5.3,12.1-1.7,2.4-3.6,4.3-6.1,5.9-3.7,2.4-8.4,4.2-14.7,5.6-6.2,1.4-13.9,2.5-23.5,3.6-.6,0-1.1.6-1.1,1.1s.5,1.1,1.1,1.1c11.4,1.3,20.1,2.6,26.8,4.5,5.1,1.3,9,3.1,12.1,5.3,2.4,1.7,4.3,3.6,5.9,6.1,2.4,3.7,4.2,8.4,5.6,14.7,1.4,6.2,2.5,13.9,3.6,23.5,0,.6.6,1.1,1.1,1.1s1.1-.5,1.1-1.1c1.3-11.4,2.6-20.1,4.5-26.8,1.3-5.1,3.1-9,5.3-12.1,1.7-2.4,3.6-4.3,6.1-5.9,3.7-2.4,8.4-4.2,14.7-5.6,6.2-1.4,13.9-2.5,23.5-3.6.6,0,1.1-.6,1.1-1.1s-.5-1.1-1.1-1.1v1.1h-.2Z"/>
</svg>