<?xml version="1.0" encoding="utf-8"?>
<!-- Generator: Adobe Illustrator 16.0.4, SVG Export Plug-In . SVG Version: 6.00 Build 0)  -->
<!DOCTYPE svg PUBLIC "-//W3C//DTD SVG 1.1//EN" "http://www.w3.org/Graphics/SVG/1.1/DTD/svg11.dtd">
<svg version="1.1" id="レイヤー_1" xmlns="http://www.w3.org/2000/svg" xmlns:xlink="http://www.w3.org/1999/xlink" x="0px"
	 y="0px" width="269px" height="231.375px" viewBox="25.729 0 269 231.375" enable-background="new 25.729 0 269 231.375"
	 xml:space="preserve">
<g>
	<path fill="#AADD2D" d="M65.68,36.996L36.124,143.243c-0.777,2.799,0.86,5.697,3.658,6.476l207.519,57.729
		c2.798,0.778,5.697-0.859,6.476-3.657l29.557-106.247c0.777-2.798-0.859-5.697-3.657-6.476L72.157,33.339
		C69.359,32.561,66.458,34.198,65.68,36.996z"/>
</g>
<g>
	<path fill="#3FB34F" d="M46.77,65.251v110.281c0,2.904,2.355,5.26,5.26,5.26h215.398c2.904,0,5.258-2.355,5.258-5.26V65.251
		c0-2.904-2.354-5.259-5.258-5.259H52.03C49.125,59.993,46.77,62.347,46.77,65.251z"/>
</g>
<path fill="#AADD2D" d="M84.894,78.156c-0.101,10.235-8.284,18.418-18.519,18.52v47.055c10.3,0.103,18.519,8.572,18.519,18.897
	h149.292c-0.001-0.067,0-0.126,0-0.188c0-10.391,8.319-18.71,18.71-18.71c0.063,0,0.125,0,0.189,0V96.676c-0.063,0-0.125,0-0.189,0
	c-10.325,0-18.608-8.221-18.71-18.52L84.894,78.156L84.894,78.156z"/>
<g>
	<defs>
		<path id="SVGID_1_" d="M84.892,78.156L84.892,78.156c-0.101,10.235-8.284,18.418-18.52,18.52v47.055
			c10.3,0.103,18.52,8.572,18.52,18.897h149.292c0-0.066,0-0.126,0-0.188c0-10.391,8.32-18.71,18.709-18.71c0.044,0,0.085,0,0.127,0
			c0.021,0,0.042,0,0.062,0V96.676c-0.021,0-0.042,0-0.062,0c-0.042,0-0.083,0-0.127,0c-10.324,0-18.605-8.221-18.709-18.52H84.892z
			"/>
	</defs>
	<clipPath id="SVGID_2_">
		<use xlink:href="#SVGID_1_"  overflow="visible"/>
	</clipPath>
	<polygon opacity="0.1176" clip-path="url(#SVGID_2_)" points="178.789,96.44 244.604,158.71 188.738,192.426 137.271,140.959 	"/>
</g>
<g>
	<circle fill="#3FB34F" cx="159.729" cy="120.393" r="30.575"/>
</g>
<g>
	<path fill="#EFEFEF" d="M144.481,102.013l0.906,1.612l8.144,14.189h-5.693h-1.074v1.075v3.291v1.075h1.074h8.732v2.115h-8.732
		h-1.074v1.075v3.274v1.075h1.074h8.732v6.901v1.074h1.076h4.265h1.075v-1.074v-6.901h8.633h1.073v-1.075v-3.274v-1.075h-1.073
		h-8.633v-2.115h8.633h1.073v-1.075v-3.291v-1.075h-1.073h-5.645l8.094-14.207l0.908-1.595h-1.848h-5.021h-0.655l-0.301,0.554
		l-5.995,11.083c-0.788,1.453-1.031,1.973-1.462,2.821c-0.218-0.441-0.359-0.852-0.62-1.311l-7.071-12.594l-0.301-0.554h-0.621
		h-4.751h-1.848H144.481z"/>
</g>
</svg>
