<svg id="レイヤー_1" data-name="レイヤー 1" xmlns="http://www.w3.org/2000/svg" viewBox="0 0 200 200"><defs><style>.cls-1{fill:#aadd2d;}.cls-2{fill:#3fb34f;}.cls-3{fill:#efefef;}</style></defs><title>money</title><path class="cls-1" d="M25.81,40.44,2.65,123.69a4.12,4.12,0,0,0,2.87,5.07L168.12,174a4.12,4.12,0,0,0,5.07-2.86l23.16-83.25a4.11,4.11,0,0,0-2.87-5.07L30.88,37.57A4.12,4.12,0,0,0,25.81,40.44Z"/><path class="cls-2" d="M11,62.58V149a4.13,4.13,0,0,0,4.12,4.12H183.89A4.13,4.13,0,0,0,188,149V62.58a4.12,4.12,0,0,0-4.12-4.12H15.11A4.12,4.12,0,0,0,11,62.58Z"/><path class="cls-1" d="M40.86,72.69A14.6,14.6,0,0,1,26.35,87.2v36.87a14.73,14.73,0,0,1,14.51,14.81h117v-.15a14.6,14.6,0,0,1,14.66-14.66h.15V87.2h-.15a14.6,14.6,0,0,1-14.66-14.51Z"/><circle class="cls-2" cx="99.5" cy="105.78" r="23.96"/><path class="cls-3" d="M87.55,91.38l.71,1.27,6.38,11.11h-5.3V108H97v1.65H89.34v4.25H97v6.25h5v-6.25h7.61v-4.25h-7.61V108h7.61v-4.27h-5.27l6.35-11.13.71-1.25h-5.9l-.23.44-4.7,8.68c-.62,1.14-.81,1.55-1.15,2.21-.17-.35-.28-.67-.48-1l-5.54-9.87-.24-.43H87.55Z"/></svg>