<?xml version="1.0" encoding="UTF-8"?>
<svg id="_レイヤー_1" xmlns="http://www.w3.org/2000/svg" version="1.1" viewBox="0 0 660 660">
  <!-- Generator: Adobe Illustrator 29.2.1, SVG Export Plug-In . SVG Version: 2.1.0 Build 116)  -->
  <defs>
    <style>
      .st0 {
        fill: #4742c2;
      }

      .st1 {
        fill: #d0d0f7;
      }

      .st2 {
        fill: #ffd200;
      }

      .st3 {
        fill: #fff;
      }

      .st4 {
        fill: #ebebf7;
      }
    </style>
  </defs>
  <path class="st0" d="M619.2,144.7v-1.1c-11.5,1.3-20.3,2.7-27.3,4.5-5.3,1.4-9.5,3.2-12.9,5.6-2.6,1.8-4.7,4.1-6.5,6.8-2.7,4-4.5,9.1-5.9,15.5s-2.6,14.1-3.7,23.8h2.2c-1.3-11.4-2.7-20.1-4.5-27.2-1.4-5.3-3.2-9.5-5.6-12.9-1.8-2.6-4.1-4.7-6.8-6.5-4-2.7-9.1-4.5-15.5-5.9s-14.1-2.6-23.8-3.7v2.2c11.4-1.3,20.1-2.7,27.2-4.5,5.3-1.4,9.5-3.2,12.9-5.6,2.6-1.8,4.7-4.1,6.5-6.8,2.7-4,4.5-9.1,5.9-15.5s2.6-14.1,3.7-23.8h-2.2c1.3,11.4,2.7,20.1,4.5,27.2,1.4,5.3,3.2,9.5,5.6,12.9,1.8,2.6,4.1,4.7,6.8,6.5,4,2.7,9.1,4.5,15.5,5.9s14.1,2.6,23.8,3.7v-2.2,1.1l.3-1.1c-11.4-1.3-20.1-2.6-26.8-4.5-5.1-1.3-9-3.1-12.1-5.3-2.4-1.7-4.3-3.6-5.9-6.1-2.4-3.7-4.2-8.4-5.6-14.7-1.4-6.2-2.5-13.9-3.6-23.5,0-.6-.6-1.1-1.1-1.1s-1.1.5-1.1,1.1c-1.3,11.4-2.6,20.1-4.5,26.8-1.3,5.1-3.1,9-5.3,12.1-1.7,2.4-3.6,4.3-6.1,5.9-3.7,2.4-8.4,4.2-14.7,5.6-6.2,1.4-13.9,2.5-23.5,3.6-.6,0-1.1.6-1.1,1.1s.5,1.1,1.1,1.1c11.4,1.3,20.1,2.6,26.8,4.5,5.1,1.3,9,3.1,12.1,5.3,2.4,1.7,4.3,3.6,5.9,6.1,2.4,3.7,4.2,8.4,5.6,14.7,1.4,6.2,2.5,13.9,3.6,23.5,0,.6.6,1.1,1.1,1.1s1.1-.5,1.1-1.1c1.3-11.4,2.6-20.1,4.5-26.8,1.3-5.1,3.1-9,5.3-12.1,1.7-2.4,3.6-4.3,6.1-5.9,3.7-2.4,8.4-4.2,14.7-5.6,6.2-1.4,13.9-2.5,23.5-3.6.6,0,1.1-.6,1.1-1.1s-.5-1.1-1.1-1.1v1.1h-.2Z"/>
  <path class="st0" d="M151,517.1v-1.1c-11.5,1.3-20.3,2.7-27.3,4.5-5.3,1.4-9.5,3.2-12.9,5.6-2.6,1.8-4.7,4.1-6.5,6.8-2.7,4-4.5,9.1-5.9,15.5s-2.6,14.1-3.7,23.8h2.2c-1.3-11.4-2.7-20.1-4.5-27.2-1.4-5.3-3.2-9.5-5.6-12.9-1.8-2.6-4.1-4.7-6.8-6.5-4-2.7-9.1-4.5-15.5-5.9s-14.1-2.6-23.8-3.7v2.2c11.4-1.3,20.1-2.7,27.2-4.5,5.3-1.4,9.5-3.2,12.9-5.6,2.6-1.8,4.7-4.1,6.5-6.8,2.7-4,4.5-9.1,5.9-15.5s2.6-14.1,3.7-23.8h-2.2c1.3,11.4,2.7,20.1,4.5,27.2,1.4,5.3,3.2,9.5,5.6,12.9,1.8,2.6,4.1,4.7,6.8,6.5,4,2.7,9.1,4.5,15.5,5.9s14.1,2.6,23.8,3.7v-2.2,1.1l.3-1.1c-11.4-1.3-20.1-2.6-26.8-4.5-5.1-1.3-9-3.1-12.1-5.3-2.4-1.7-4.3-3.6-5.9-6.1-2.4-3.7-4.2-8.4-5.6-14.7-1.4-6.2-2.5-13.9-3.6-23.5,0-.6-.6-1.1-1.1-1.1s-1.1.5-1.1,1.1c-1.3,11.4-2.6,20.1-4.5,26.8-1.3,5.1-3.1,9-5.3,12.1-1.7,2.4-3.6,4.3-6.1,5.9-3.7,2.4-8.4,4.2-14.7,5.6-6.2,1.4-13.9,2.5-23.5,3.6-.6,0-1.1.6-1.1,1.1s.5,1.1,1.1,1.1c11.4,1.3,20.1,2.6,26.8,4.5,5.1,1.3,9,3.1,12.1,5.3,2.4,1.7,4.3,3.6,5.9,6.1,2.4,3.7,4.2,8.4,5.6,14.7,1.4,6.2,2.5,13.9,3.6,23.5,0,.6.6,1.1,1.1,1.1s1.1-.5,1.1-1.1c1.3-11.4,2.6-20.1,4.5-26.8,1.3-5.1,3.1-9,5.3-12.1,1.7-2.4,3.6-4.3,6.1-5.9,3.7-2.4,8.4-4.2,14.7-5.6,6.2-1.4,13.9-2.5,23.5-3.6.6,0,1.1-.6,1.1-1.1s-.5-1.1-1.1-1.1v1.1h-.2,0Z"/>
  <g>
    <path class="st3" d="M366.9,158.8c0,0,0,.1,0,.2,0,0,0,0,0,0,0,0,0,0,0-.1Z"/>
    <path class="st3" d="M365.7,162.7c0,.2-.1.3-.2.4,0,0,.1-.2.2-.4,0,0,0,0,0,0Z"/>
    <path class="st3" d="M350.8,140.5c-.5,0-.9,0-1.4,0,.7,0,1.4,0,2.1,0-.2,0-.5,0-.7,0Z"/>
    <path class="st3" d="M333.8,162.7c.1-.2.2-.5.3-.9,0,.3-.2.6-.3.9,0,0,0,0,0,0Z"/>
    <path class="st3" d="M353,140.6h-.1s0,0,0,0h0c.1,0,.3,0,.4,0-.1,0-.2,0-.3,0Z"/>
    <polygon class="st3" points="353.5 140.5 353.5 140.5 353.5 140.5 353.5 140.5"/>
    <path class="st3" d="M357.7,176.2s0,0,0,0c1.6,2.7,3.2,5.5,4.8,8.2-1.6-2.7-3.2-5.5-4.8-8.2,0,0,0,0,0,0Z"/>
    <path class="st3" d="M331.5,146.7c.1.2.3.5.4.6-.1-.2-.2-.4-.4-.6Z"/>
    <path class="st3" d="M329.8,144.9c.5.5,1,1.1,1.5,1.6-.5-.5-1-1.1-1.5-1.6Z"/>
    <path class="st3" d="M325.4,141.9c.8.4,1.5.8,2.2,1.2-.7-.5-1.4-.9-2.2-1.2Z"/>
    <path class="st3" d="M334.7,158.9s0,0,0,0c0,0,0,0,0,0h0Z"/>
    <path class="st3" d="M334.8,158.1s0,0,0,0h0c0,0,0,0,0,0,0,0,0,0,0,0Z"/>
    <path class="st3" d="M365.8,150.7h0s0,0,0,0c0,0,0,0,0,0Z"/>
    <polygon class="st3" points="365.7 150.5 365.7 150.5 365.7 150.5 365.7 150.5"/>
    <path class="st3" d="M348.5,172.6c0,0,.2,0,.3,0h0s0,0,0,0c-.1,0-.2,0-.3,0Z"/>
    <path class="st3" d="M365.7,162.7c0,0,0-.1,0-.2.2-.5.3-.9.4-1.4-.1.5-.3.9-.4,1.4,0,0,0,.1,0,.2Z"/>
    <path class="st3" d="M350.9,172.7c.2,0,.4,0,.7,0-.3,0-.5,0-.8,0,0,0,.1,0,.2,0Z"/>
    <path class="st3" d="M348.9,152.6c0,.6.2,1.1.2,1.7,0,.8.1,1.5.1,2.3,0-.8,0-1.5-.1-2.3,0-.6-.1-1.1-.2-1.7Z"/>
    <path class="st3" d="M361.6,144.7c-.3-.3-.6-.5-.9-.8h0s0,0,0,0c.3.3.6.5.9.8Z"/>
    <path class="st3" d="M366.6,153.6c0-.2,0-.4-.1-.6-.1-.4-.2-.9-.4-1.3.1.4.3.9.4,1.3,0,.2,0,.4.1.6Z"/>
    <path class="st3" d="M366.8,154.4s0,0,0,0h0s0,0,0,0c0,0,0,0,0,0Z"/>
    <path class="st3" d="M349.3,140.5s0,0,0,0c0,0,0,0,0,0,0,0,0,0,0,0Z"/>
    <path class="st3" d="M250.9,528.1c-4.6-.4-9.3-.8-13.9-1.3,4.6.5,9.3.9,13.9,1.3Z"/>
    <path class="st3" d="M198,521.7c5.7,1,11.5,1.9,17.3,2.6,4.8.7,9.6,1.2,14.4,1.8-4.8-.5-9.6-1.1-14.4-1.8-5.8-.8-11.5-1.6-17.3-2.6Z"/>
    <path class="st3" d="M135,498.3c.5.4,1,.9,1.5,1.3.9.7,1.8,1.4,2.8,2.1-.9-.7-1.9-1.4-2.8-2.1-.5-.4-1-.8-1.5-1.3Z"/>
    <path class="st3" d="M166.3,514.2c1.1.3,2.2.7,3.3,1,1.9.5,3.7,1.1,5.6,1.6-1.9-.5-3.7-1-5.6-1.6-1.1-.3-2.2-.7-3.3-1Z"/>
    <path class="st3" d="M527.1,242c0-8.8-.2-17.5-1.8-26.1l2.1,53.8c0-9.2-.2-18.5-.3-27.7Z"/>
    <path class="st3" d="M502.8,201.2c.1.1.2.3.4.4-.1-.1-.3-.3-.4-.4-.2-.1-.4-.3-.6-.4-.6-.4-1.2-.7-1.8-1,.6.3,1.2.6,1.8,1,.2.1.4.3.6.4Z"/>
    <path class="st3" d="M174.6,201.8h.1c0,0,0,0-.1,0,0,0,0,0,0,0Z"/>
    <path class="st3" d="M176.9,200c.3,0,.7-.2,1-.3-.3.1-.7.2-1,.3Z"/>
    <path class="st3" d="M497.2,198.9c.7.1,1.5.3,2.2.5-.7-.2-1.4-.4-2.2-.5Z"/>
    <path class="st3" d="M462.1,510.4c-.2,0-.4,0-.5,0,.2,0,.3,0,.5,0Z"/>
    <path class="st3" d="M511.6,220.8c0,0,0-.1,0-.2-.2-1.4-.5-2.9-.9-4.3.3,1.4.6,2.8.9,4.3,0,0,0,.1,0,.2Z"/>
    <path class="st3" d="M333.7,150.7h0s0,0,0,0c0,0,0,0,0,0Z"/>
    <path class="st3" d="M301.7,154.4s0,0,0,0h1s-1,0-1,0Z"/>
    <path class="st3" d="M339.8,516.9c2.2,0,4.4,0,6.6,0-2.3,0-4.5,0-6.8,0,0,0,.1,0,.2,0Z"/>
    <path class="st3" d="M189.4,505.3c-2.5-.5-5-1.1-7.4-1.7,2.5.6,4.9,1.2,7.4,1.7Z"/>
    <path class="st3" d="M311.9,141.9s0,0,0,0h0s0,0,0,0Z"/>
    <path class="st3" d="M334.7,154c0,0,0,.2,0,.3v.2s0,0,0,0v-.2c0-.1,0-.2,0-.3Z"/>
    <path class="st3" d="M304,163.2s0,0,0,0c0,0,0,0,0,0,0,0,0,0,0,0Z"/>
    <path class="st3" d="M520.5,496.6c-.2,0-.4.2-.5.2,0,0,.3-.1.5-.2Z"/>
    <path class="st3" d="M334.6,153.8s0,0,0,0c0,0,0,0,0,0,0,0,0,0,0,0Z"/>
    <path class="st3" d="M190.7,222.6c1.1-.9,2.5-1.5,4.4-1.6.6,0,1.2,0,1.9,0-.6,0-1.3,0-1.9,0-1.9.1-3.3.7-4.4,1.6Z"/>
    <path class="st3" d="M466.9,221H201.2s0,0,0,0c0,0,0,0,0,0h283.4s0,0,0,0h-17.7Z"/>
    <polygon class="st3" points="485 221 485 221 485 221 485 221 485.1 221 485 221 485 221"/>
    <path class="st3" d="M166.2,221.8c0,0,0,.2,0,.3,0,.3,0,.7-.1,1,0-.4,0-.7.1-1,0,0,0-.2,0-.3Z"/>
    <path class="st3" d="M166.5,220.1c0,.5-.2,1-.2,1.5,0,0,0,.1,0,.2,0,0,0-.2,0-.2,0-.5.2-1,.2-1.5Z"/>
    <polygon class="st3" points="175.2 201.1 175.3 201 175.3 201 175.2 201.1"/>
    <polygon class="st3" points="175.2 201.1 175.2 201.2 175.1 201.2 175.2 201.2 175.2 201.1"/>
    <path class="st3" d="M171.7,204.9c-.4.7-.8,1.3-1.2,2-.2.3-.3.6-.5,1,.2-.3.3-.6.5-1,.4-.7.8-1.4,1.2-2Z"/>
    <path class="st3" d="M174.7,201.7c-.3.3-.5.5-.8.8.3-.3.6-.5.8-.8,0,0,0,0,0,0Z"/>
    <path class="st3" d="M512.6,234c0-1.1,0-2.2-.1-3.3,0-1,0-2-.2-3,0,1,.1,2,.2,3,0,1.1,0,2.2.1,3.3Z"/>
    <path class="st3" d="M512.9,265.4c0-7-.1-14-.2-21,0-1.1,0-2.3,0-3.4,0,1.1,0,2.3,0,3.4,0,7,.1,14,.2,21Z"/>
    <path class="st3" d="M512.4,227.7c0-1-.2-2-.3-3,0-.8-.2-1.7-.3-2.5,0,.8.2,1.7.3,2.5,0,1,.2,2,.3,3Z"/>
    <path class="st3" d="M512.8,222s0,0,0,0l-1,.2,1-.2Z"/>
    <polygon class="st3" points="174.9 200.8 174.9 200.8 174.9 200.8 174.9 200.8"/>
    <path class="st3" d="M179.7,199.2c-.3,0-.6,0-.8.2-.3,0-.7.2-1,.4.3-.1.7-.3,1-.4.2,0,.5-.1.8-.2Z"/>
    <path class="st3" d="M162.8,309.3c-.4.9-.7,1.8-1.1,2.6-.5,1.1-.9,2.2-1.4,3.3.5-1.1.9-2.2,1.4-3.3.4-.9.7-1.8,1.1-2.6Z"/>
    <path class="st3" d="M177.2,200c0,0,.2,0,.3,0,0,0,0,0,0,0,0,0-.2,0-.3,0Z"/>
    <path class="st3" d="M157.7,321.8c-1,2.5-1.9,5-2.9,7.5-.8,2-1.5,4-2.2,6,.7-2,1.5-4,2.2-6,.9-2.5,1.9-5,2.9-7.5Z"/>
    <path class="st3" d="M500.5,199.8h-.1c-.3-.2-.7-.3-1-.4.3,0,.7.2,1,.3h.1Z"/>
    <polygon class="st3" points="497.2 198.9 497.1 198.9 497.1 198.9 497.2 198.9"/>
    <polygon class="st3" points="131.4 411.4 131.4 411.4 132.4 411.5 131.4 411.4"/>
    <path class="st3" d="M175.3,201.1s0,0-.1,0h0s0,0,.1,0Z"/>
    <path class="st3" d="M538.9,484.1s0,0,0,0,0,0,0,0c0,0,0,0,0,0Z"/>
    <path class="st3" d="M548.6,419.8c-.2-2-.4-4-.6-6,0-.5-.1-.9-.2-1.4,0,.5.1.9.2,1.4.2,2,.4,4,.6,6Z"/>
    <path class="st3" d="M549.3,440.9c.1-5,0-10.1-.3-15.1.3,5,.4,10.1.3,15.1Z"/>
    <path class="st3" d="M547.6,411.2c0-.1,0-.2,0-.2,0,0,0,0,0-.1,0,0,0,0,0,.1,0,0,0,.1,0,.2Z"/>
    <path class="st3" d="M548.2,455.2c-.1.9-.3,1.8-.5,2.8.2-.9.3-1.8.5-2.8,0-.3,0-.6.1-.9.1-.9.2-1.8.3-2.7,0,.9-.2,1.8-.3,2.7,0,.3,0,.6-.1.9Z"/>
    <path class="st3" d="M521,496.3s0,0,0,0c1.7-.8,3.4-1.5,5-2.4-1.6.9-3.3,1.7-5,2.4,0,0,0,0,0,0Z"/>
    <path class="st3" d="M318.7,140.5c-.4,0-.8,0-1.2,0,.7,0,1.4,0,2.1,0-.3,0-.6,0-.9,0Z"/>
    <path class="st3" d="M528.3,492.7c.7-.4,1.5-.9,2.2-1.3.7-.4,1.4-.9,2.1-1.4-.7.5-1.4.9-2.1,1.4-.7.5-1.5.9-2.2,1.3Z"/>
    <path class="st3" d="M537.6,366c-1.2-4.1-2.4-8.2-3.8-12.2-1.1-3.3-2.2-6.6-3.3-9.9,1.1,3.3,2.3,6.6,3.3,9.9,1.3,4.1,2.6,8.1,3.8,12.2Z"/>
    <polygon class="st3" points="316.9 140.5 316.9 140.5 316.8 140.6 316.9 140.5"/>
    <path class="st3" d="M543.8,473.2c.6-1.6,1.1-3.3,1.6-4.9.2-.8.5-1.7.7-2.6-.2.9-.4,1.7-.7,2.6-.5,1.7-1,3.3-1.6,4.9Z"/>
    <polygon class="st3" points="516.9 308.5 517 308.6 517 308.6 516.9 308.5"/>
    <path class="st3" d="M189.4,253.2c2.1-4.1,4.3-8.1,6.6-12.1-2.2,4-4.4,8.1-6.6,12.1-5.8,11.1-11.4,22.3-16.7,33.6-1.6,3.5-3.2,6.9-4.7,10.4,1.6-3.5,3.1-7,4.7-10.4,5.3-11.3,10.8-22.5,16.7-33.6Z"/>
    <path class="st3" d="M318.3,172.7c.3,0,.6,0,.9,0-.4,0-.8,0-1.2,0,0,0,.2,0,.3,0Z"/>
    <path class="st3" d="M328.3,169.5c0,0,.2-.1.2-.2,0,0,.1,0,.2-.1,0,0-.1,0-.2.1,0,0-.1.1-.2.2Z"/>
    <path class="st3" d="M131.7,453.9c0,.3,0,.6.1.9.1.9.3,1.7.4,2.6-.1-.9-.3-1.7-.4-2.6,0-.3,0-.6-.1-.9Z"/>
    <path class="st3" d="M466.3,509.8c2.8-.4,5.6-.8,8.4-1.3,2.5-.4,5-.9,7.5-1.3-2.5.5-5,.9-7.5,1.3-2.8.5-5.6.9-8.4,1.3Z"/>
    <path class="st3" d="M320.9,172.6h-.1s.1,0,.1,0c.3,0,.7-.1,1-.2.4,0,.8-.2,1.2-.3-.4.1-.8.2-1.2.3-.3,0-.7.1-1,.2Z"/>
    <path class="st3" d="M325.5,171.2h0s0,0,0,0h0Z"/>
    <path class="st3" d="M326.7,170.6c.4-.2.7-.4,1.1-.7,0,0,0,0,.1,0,0,0,0,0-.1,0-.4.2-.7.5-1.1.7Z"/>
    <path class="st3" d="M303.7,150.6s0,0,0,0,0,0,0,0c0,0,0,0,0,0Z"/>
    <path class="st3" d="M137.8,477.3c-1.2-3.2-2.4-6.3-3.3-9.6.9,3.3,2,6.4,3.3,9.6Z"/>
    <path class="st3" d="M333.7,150.8c0-.1,0-.2-.1-.3,0,0,0,0,0,0,0,0,0,0,0,0,0,.1,0,.2.1.3Z"/>
    <path class="st3" d="M305.1,172.5c.5-.8.8-1.8.9-2.7-.1.9-.4,1.9-.9,2.7Z"/>
    <path class="st3" d="M303.8,150.3c0,.1,0,.2-.1.2,0,0,0-.1.1-.2,0,0,0,0,0,0Z"/>
    <path class="st3" d="M320.7,139.6s0,0,0,0v1s0-1,0-1Z"/>
    <path class="st3" d="M130.8,430.8c-.2,5.6-.1,11.3.3,16.9-.4-5.6-.5-11.3-.3-16.9Z"/>
    <path class="st3" d="M131.1,425.1c.3-4,.6-8,1.1-12-.5,4-.9,8-1.1,12Z"/>
    <path class="st3" d="M334.8,156.2c0-.5,0-1,0-1.5,0-.1,0-.4-.1-.6,0,.2,0,.4.1.6,0,.5,0,1,0,1.5Z"/>
    <path class="st3" d="M303.3,161.2c.1.5.3.9.4,1.4,0,.1,0,.2.1.3,0,0,0-.2-.1-.3-.2-.5-.3-.9-.4-1.4Z"/>
    <polygon class="st3" points="302.7 154.4 302.7 154.5 302.7 154.5 302.7 154.5 302.7 154.4"/>
    <path class="st3" d="M305.3,147.6c-.2.3-.4.6-.6.9-.3.5-.6,1.1-.9,1.6.3-.6.6-1.1.9-1.6.2-.3.4-.6.6-.9Z"/>
    <path class="st3" d="M303.4,151.6c-.1.4-.3.9-.4,1.4,0,.2-.1.5-.1.7,0-.2,0-.5.1-.7.1-.5.2-.9.4-1.4Z"/>
    <path class="st3" d="M149,491c1.4.9,2.9,1.8,4.4,2.6.6.3,1.2.6,1.8.9-.6-.3-1.2-.6-1.8-.9-1.5-.8-3-1.6-4.4-2.6Z"/>
    <path class="st3" d="M307.9,144.6c-.5.4-.9.9-1.4,1.4-.2.2-.4.4-.6.7.2-.2.4-.5.6-.7.4-.5.9-.9,1.4-1.4Z"/>
    <path class="st3" d="M312.4,141.7h0c-.2.2-.4.3-.7.4.2-.1.4-.2.7-.4h0Z"/>
    <path class="st3" d="M302.6,157.1c0,.5,0,1,0,1.4h0c0,0,0,0,0,0,0-.5,0-1,0-1.4Z"/>
    <path class="st3" d="M313.9,141.2c.4-.1.8-.2,1.1-.3-.4,0-.8.2-1.1.3Z"/>
    <path class="st3" d="M313.8,141.3c-.3.1-.7.2-1,.3h0s0,0,0,0c0,0,0,0,0,0,0,0,0,0,0,0,.3-.1.7-.2,1-.3Z"/>
    <path class="st3" d="M333,183.6c-.6.3-1.3.6-2,.9h7.7c-.7-.3-1.3-.6-1.9-.9s-1.2-.7-1.9-1.1c-.6.4-1.3.7-1.9,1.1Z"/>
    <path class="st3" d="M349.2,140.5s0,0,0,0c0,0,0,0,0,0,0,0,0,0,0,0,0,0,0,0,0,0,0,0,0,0,0,0,0,0,0,0,0,0,0,0,0,0,0,0,0,0,0,0-.1,0,0,0,0,0,0,0,0,0-.1,0-.2,0h-.2c.1,0,.3,0,.4,0,0,0,0,0,.1,0Z"/>
    <path class="st3" d="M365.8,150.6s0,0,0,0c0,0,0,0,0,0,0,0,0,0,0,0h0c0-.1,0-.1,0-.1,0,0,0,0,0,0Z"/>
    <path class="st3" d="M348.5,140.6s0,0,0,0c0,0,0,0,0,0h0s0,0,0,0h.2c0,0-.1,0-.2,0Z"/>
    <path class="st3" d="M348.3,172.5c0,0,.1,0,.2,0,0,0,.2,0,.3,0,0,0,0,0,0,0h.3s.1,0,.1,0c.5,0,1,0,1.5,0,.3,0,.5,0,.8,0,0,0,0,0,0,0h.1c.1,0,.3,0,.4,0,.1,0,.3,0,.4,0,.2,0,.3,0,.5,0,.1,0,.3,0,.4,0,.2,0,.3.1.5.2.1,0,.3,0,.4.1.2,0,.3.1.5.2.1,0,.3.1.4.2.1,0,.3.2.4.3.1,0,.2.1.3.2.1.1.3.2.4.4,0,0,.2.2.3.3.1.1.3.3.4.5,0,0,.1.2.2.2.2.2.3.5.5.7,0,0,0,0,0,0,1.6,2.7,3.2,5.5,4.8,8.2h8.8c-2.3-4-4.6-8-6.9-12-.1-.2-.2-.4-.3-.6,0-.2-.2-.4-.2-.6-.7-2-.6-4.3.5-6.1.4-.6.7-1.3,1.1-2h0c0,0,0,0,0,0,0,0,0,0,0,0,0,0,0,0,0,0,0-.1.2-.4.3-.5,0,0,0-.1,0-.2.2-.5.3-.9.4-1.4,0-.1.1-.4.2-.7,0-.1,0-.2.1-.3.1-.3.2-.7.3-1,0,0,0-.1,0-.2,0,0,0,0,0,0,0,0,0,0,0,0,0,0,0,0,0,0,0,0,0,0,0,0s0,0,0,0c0,0,0,0,0,0,0,0,0,0,0,0,0,0,0,0,0,0,0,0,0,0,0,0,0,0,0,0,0,0,0,0,0,0,0,0,0,0,0-.1,0-.2,0-.5,0-1,0-1.4,0-.9,0-1.8-.1-2.8,0,0,0,0,0,0h0s0-.2,0-.2c0-.2,0-.3-.1-.5,0-.2,0-.4-.1-.6-.1-.4-.2-.9-.4-1.3-.1-.4-.3-.9-.4-1.3,0-.1-.1-.3-.2-.5-.2-.5-.5-.9-.7-1.4-.3-.5-.6-1-.9-1.5h0s0,0,0,0c0,0,0,0,0,0,0,0,0,0,0,0,0,0,0,0,0,0,0,0,0,0,0,0,0,0,0,0,0,0,0,0,0,0,0,0,0,0,0,0,0,0,0,0,0,0,0,0,0,0,0-.1-.1-.2,0,0,0,0,0,0,0,0,0,0,0,0,0,0,0,0,0,0,0,0,0,0,0,0-.2-.2-.4-.5-.7-.7-.3-.3-.6-.6-.9-.8-.3-.3-.6-.5-.9-.8h0s0,0,0,0c-.3-.2-.5-.4-.8-.5-.7-.4-1.3-.8-2.1-1.2-.2-.1-.4-.2-.6-.3h0c0,.1,0,.2.1.2,0,0,0,0,0,0,0,0,0,0,0,0,0,0,0,0,0,0,0,0,0,0,0,0,0,0,0,0,0,0,0,0,0,0-.1-.1-.1,0-.2-.2-.4-.2-.7-.3-1.5-.5-2.2-.7-.5-.1-.9-.2-1.4-.3-.1,0-.3,0-.4,0,0,0-.1,0-.2,0,0,0,0,0,0,0,0,0,0,0,0,0s0,0,0,0c0,0,0,0,0,0,0,0,0,0,0,0,0,0,0,0,.2,0,0,0,.1,0,.2,0,0,0,.2,0,.2,0,0,0,0,0,0,0,0,0,0,0,.1,0,0,0,0,0,0,0,0,0,0,0,0,0,0,0,0,0,0,0,0,0,0,0,0,0s0,0,0,0c0,0,0,0-.2,0,0,0,0,0,0,0,0,0,0,0-.1,0-.1,0-.2,0-.3,0,0,0,0,0,0,0,0,0-.2,0-.2,0,0,0,0,0,0,0h0s-.1,0-.1,0c-.3,0-.6,0-.9,0-.7,0-1.4,0-2.1,0,0,0-.2,0-.3,0h0,0c0,0-.2,0-.3,0,0,0,0,0,0,0,0,0-.1,0-.2,0h0c-.6.1-1.1.2-1.7.4-.6.1-1.1.3-1.6.5.8,1.5,1.5,3,2.1,4.6.8,2.1,1.3,4.3,1.7,6.5,0,.6.2,1.1.2,1.7,0,.8.1,1.5.1,2.3,0,.8,0,1.5,0,2.3-.1,1.5-.3,3-.7,4.5-.3,1.5-.8,2.9-1.4,4.3-.6,1.4-1.2,2.8-2,4.1.8.3,1.6.5,2.4.6.3,0,.5.1.8.2Z"/>
    <path class="st3" d="M365.7,162.7c0,.2-.1.3-.2.4,0,0,0,.2-.1.2h0c0-.2.2-.4.3-.6Z"/>
    <path class="st3" d="M352.7,140.7s0,0,0,0c0,0,0,0,0,0s0,0,0,0c0,0,0,0,0,0,0,0,0,0,.2,0,0,0-.1,0-.2,0,0,0,0,0,0,0Z"/>
    <path class="st3" d="M348.7,140.6s0,0,0,0c.1,0,.2,0,.3,0-.1,0-.3,0-.4,0h-.2s0,0,0,0c0,0,.1,0,.2,0Z"/>
    <path class="st3" d="M357.5,142s0,0,0,0,0,0,0,0c0,0,0,0,0,0,0,0,0,0,0,0,0,0,0,0-.1,0,0,0,.1,0,.1.1,0,0,0,0,0,0Z"/>
    <path class="st3" d="M304,163.2s0-.1-.1-.2c0,0,0,.2,0,.2,0,0,0,0,0,0,0,0,0,0,0,0,0,0,0,0,0,0,0,0,0,0,0,0Z"/>
    <polygon class="st3" points="316.9 140.5 316.8 140.6 316.8 140.6 316.9 140.5"/>
    <path class="st3" d="M316.6,140.6c-.4,0-.6,0-.6,0,0,0,0,0,.2,0,.3,0,.5-.1.6-.2h-.2Z"/>
    <path class="st3" d="M312,141.9s0,0,0,0c0,0,0,0,0,0,0,0,0,0,0,0,0,0,0,0,0,0,0,0,0,0,.1,0,0,0-.1,0-.2,0-.1,0-.2,0-.2,0,0,0,0,0,0,0,0,0,0,0,0,0,0,0,0,0,0,0Z"/>
    <path class="st3" d="M303.7,150.6s0,0,0,0c0,0,0-.1,0-.2,0,.1,0,.2-.1.2,0,0,0,0,0,0,0,0,0,0,0,0,0,0,0,0,0,0Z"/>
    <path class="st3" d="M333.5,150.1c0,.1.1.3.2.5,0,0,0,0,0,0,0,0,0-.3-.3-.7,0,0,0,.1,0,.2Z"/>
    <path class="st3" d="M334.8,158.1s0,0,0,0h0c0,0,0,0,0,0h0c0,0,0,0,0,0Z"/>
    <path class="st3" d="M334.7,154s0,0,0,0c0,0,0,0,0-.1,0,0,0,0,0,0,0,0,0,0,0,0,0,0,0,0,0,0,0,0,0,0,0,0,0,0,0,0,0,.1,0,0,0,0,0,0,0,0,0,.1,0,.2,0,0,0,0,0,0,0,0,0,.1,0,.2v-.2c0-.1,0-.2,0-.3Z"/>
    <path class="st3" d="M334.7,158.9s0,0,0,0c0,0,0,0,0,0,0,0,0,0,0,0,0,0,0,0,0-.1,0,0,0,0,0,0,0,0,0-.2,0-.3,0,0,0,0,0,0h0c0,.1,0,.4,0,.6,0,0,0,0,0,0Z"/>
    <rect class="st0" x="175.3" y="201" width="0" height="0" transform="translate(-90.9 217.4) rotate(-52.4)"/>
    <path class="st0" d="M541,336.2c-4.4-12.3-9.5-25.2-15.2-38.2-.1-.2-.2-.5-.2-.8,0-9.2-.2-18.3-.3-27.5,0-9.2-.2-18.5-.3-27.7,0-9.2-.3-17.5-1.8-25.8-1.5-8.1-4-14.5-7.6-19.2-4.9-6.4-11.5-10.1-18.7-10.5-.4,0-.8,0-1.4,0s-1,0-1.4,0c-.5,0-1,0-1.5,0h-104.8c-.7,0-1.4-.4-1.7-1l-9.2-15.9c-.3-.5-.4-1.2-.1-1.8,3.5-8.3,3-17.6-1.5-25.6-5.1-8.7-14.7-14.1-25-14.1-5.3,0-10.3,1.5-14.7,4.2-.3.2-.7.3-1.1.3s-.7,0-1-.3c-4.6-2.8-9.7-4.2-15-4.2s-2.6,0-3.9.3c-8.5,1.1-16.3,6.3-20.7,13.9-4.4,7.9-5,17.2-1.5,25.5.2.6.2,1.2-.1,1.8l-7.7,13.3-1.5,2.5c-.4.6-1,1-1.7,1h-99.7c-7.7,0-15,4-20.2,11.1-3.5,4.8-5.9,11.2-7.2,19.5-1.5,8.7-1.5,17.4-1.6,25.9,0,8.1-.2,16.3-.2,24.4,0,9.5-.2,19-.3,28.5,0,1.1,0,2.3,0,3.4v2.7c0,.3,0,.5-.2.8-4,9.4-7.7,18.7-11,27.6-10,27-16.5,50.9-20,72.9-4.4,28.4-3.8,50.5,2,69.6,2.7,8.7,6.5,18.6,14.6,25,10.1,8,22.6,12.4,32.5,15.3,12.7,3.7,26.7,6.5,45.4,9.1,17.7,2.4,36.7,4.1,57.8,5.3,21.9,1.2,44.4,1.8,66.8,1.8s37.9-.4,56.9-1.2c21.5-.9,40.3-2.4,57.6-4.4,13.6-1.6,31.5-4,49-8.6,10.9-2.8,23.4-6.7,34-13.6,4.6-3,8.3-6.4,11.2-10.3,3-4,4.9-9.2,6.6-13.8,6.6-18.2,8-40.3,4.4-67.7-3-22.5-9.2-46.5-18.8-73.5ZM347.1,154.5c-.4-4.2-1.7-8.4-3.7-12-.3-.5-.3-1.1-.1-1.7s.7-1,1.2-1.2c.6-.2,1.1-.4,1.8-.6.5-.1.9-.2,1.4-.3.2,0,.5-.1.7-.1h0s.2,0,.2,0c.4,0,.6,0,.8,0s.2,0,.3,0c.4,0,.8,0,1.1,0s.5,0,.8,0c.3,0,.7,0,1,0,.1,0,.3,0,.5,0,.2,0,.4,0,.5,0,.5,0,.9.2,1.2.4.2,0,.3,0,.5.1.8.2,1.5.5,2.3.7h.1c.1,0,.2.1.3.2h.2c.2.2.4.3.7.4.8.4,1.5.8,2.2,1.3.2.1.4.2.5.4l.3.2.3.2h0c.2.2.4.4.6.6.4.4.8.7,1.2,1.1.2.3.5.5.7.8,0,0,.3.3.4.6v.2c.2,0,.3.2.4.3.3.5.6,1,1,1.6.3.5.5,1,.8,1.5.1.2.2.4.3.6h0c0,0,0,.1,0,.1,0,0,0,.2.1.4.2.7.5,1.5.7,2.4,0,.3.1.5.2.8,0,.1,0,.3,0,.4h0c0,0,0,.2,0,.2,0,.1,0,.2,0,.3,0,.2,0,.4,0,.7,0,.7,0,1.5,0,2.3,0,.3,0,.6,0,.9,0,0,0,.2,0,.3,0,0,0,.2,0,.3v.2s0,0,0,0h0c0,.8-.4,1.7-.6,2.5,0,.1,0,.2,0,.3-.1.5-.3,1-.5,1.5,0,.1,0,.2-.2.4h0c-.1.3-.3.5-.4.7-.3.6-.6,1.3-1,1.9-.9,1.6-.9,3.6,0,5.2l4,6.8,3,5.1c.4.6.4,1.4,0,2-.4.6-1,1-1.7,1h-8.8c-.7,0-1.4-.4-1.7-1l-2.5-4.3-2.3-4c-.9-1.5-2.6-2.6-4.4-2.6h0c-.2,0-.5,0-.7,0-.6,0-1.2,0-1.8,0h0s-.2,0-.2,0c-.1,0-.3,0-.4,0-.1,0-.2,0-.3,0h-.1c-.9-.2-2.2-.5-3.5-.9-.6-.2-1-.6-1.2-1.2-.2-.6-.2-1.2.1-1.7,2.9-5.1,4.3-10.9,3.7-16.3ZM340.6,184.9c-.2.9-1,1.6-2,1.6h-7.7c-.9,0-1.8-.7-2-1.6-.2-.9.3-1.9,1.2-2.2,1.3-.6,2.5-1.2,3.6-1.9.3-.2.7-.3,1.1-.3.4,0,.7.1,1.1.3,1.2.7,2.4,1.4,3.5,1.9.9.4,1.3,1.3,1.1,2.2ZM329.2,141.8h.2c0,.1.2.3.2.3,0,0,.2,0,.3.1.3.2.5.4.6.6.2.2.5.4.7.6.4.4.7.7,1.1,1.1.2.2.3.3.5.5.2.2.4.3.5.6,0,.1.2.3.2.4v.2c.1,0,1.2,1.6,1.8,2.7h0s0,0,0,0c.1.3.4.8.5,1.4,0,.1,0,.2.1.3.2.7.4,1.5.6,2.3.1.3.2.7.2,1.1h0c0,.1,0,.2,0,.2h0c0,.1,0,.2,0,.2v.2c0,.4,0,.9,0,1.4,0,.5,0,1,0,1.5,0,.4,0,.7,0,1.1,0,.2,0,.5-.1.7,0,.2,0,.3,0,.3,0,.1,0,.3,0,.4-.2,1.3-.5,2.6-.9,3.5,0,.1-.1.2-.2.3h0c0,.2-.2.3-.3.4,0,.2-.2.3-.3.5-.5.9-1,1.7-1.5,2.5,0,0-.2.3-.3.5h0c0,.1-.3.4-.3.4-.2.2-.3.3-.3.4-.6.7-1.3,1.4-2.1,2,0,0-.2.2-.3.3h-.1c0,0-.4.3-.4.3-.2.1-.4.3-.5.3-.8.5-1.6,1-2.4,1.4-.1,0-.3.1-.4.2h-.2c-.4.3-.6.3-.7.4-.9.3-1.8.6-2.7.8-.4,0-.7.2-1.1.2h-.1c0,0-.2,0-.3,0-.3,0-.6,0-.9,0-.5,0-1.1,0-1.7,0s-.2,0-.3,0h0c-1.7,0-3.5,1-4.4,2.6l-2.9,5.1-1.8,3.1c-.4.6-1,1-1.7,1h-8.8c-.7,0-1.4-.4-1.7-1-.4-.6-.4-1.4,0-2l2.6-4.5,4.3-7.5c.9-1.6,1-3.7,0-5.2-.4-.7-.8-1.4-1.1-2-.1-.2-.2-.4-.3-.6h0s0,0,0,0c0-.1,0-.2-.1-.4-.2-.5-.3-1-.5-1.5-.2-.6-.3-1.1-.4-1.7,0-.3-.1-.6-.2-.9h0c0-.2,0-.3,0-.4h0c0-.2,0-.4,0-.6,0-.3,0-.6,0-.9,0-1,0-2,0-2.8h1s0,0,0,0h-1c0-.2,0-.4,0-.5,0-.2,0-.4.1-.6,0-.3.1-.5.2-.8.2-.8.4-1.5.7-2.2,0-.4.2-.7.3-.9h0s0,0,0,0h0c.3-.8.6-1.3.9-1.8.3-.5.5-.9.8-1.3.2-.2.3-.5.5-.7l.2-.3.2-.3c.1-.1.2-.3.4-.4.5-.5,1-1,1.5-1.5.1-.1.3-.2.4-.3.1,0,.2-.2.3-.3h0c0-.1.2-.2.3-.3.9-.6,1.9-1.2,3-1.8.4-.3.8-.5,1.1-.6h0s0,0,0,0c.1,0,.2,0,.3-.1h0c.8-.3,1.6-.5,2.4-.7,0,0,.4,0,.7-.1h0c.3-.1.7-.2,1.2-.3.2,0,.3,0,.5,0h.2c.1,0,.2,0,.4,0,.4,0,.9,0,1.3,0s.7,0,1,0c.2,0,.3,0,.5,0,.1,0,.3,0,.4,0v1s0,0,0,0v-1c.2,0,.3,0,.4,0,1.1.2,2.6.6,4.2,1.1.2,0,.4,0,.6.2.1,0,.3.1.4.2h0M163.3,243c0-1,0-2,0-3,0-3.4,0-6.9.2-10.4.1-2,.2-3.9.4-5.7,0-.2,0-.4,0-.7,0-.5,0-1,.2-1.6v-.2c0,0,0-.2.1-.3,0-.5.2-1,.2-1.5.7-4,1.6-7.5,2.8-10.7,0-.1.1-.3.2-.5v-.2c.1-.2.2-.3.2-.4.3-.7.7-1.4,1-2,.4-.7.8-1.5,1.3-2.1.2-.3.4-.6.6-.9h0c0-.1.2-.4.2-.4h0c.4-.5.9-.9,1.4-1.3s.4-.3.5-.5c.2-.4.6-.8,1.1-1.1h.1c0,0,0,0,0,0l.9,1.2h0s0,0,0,0l-.9-1.3c.4-.3.7-.5,1-.6.1,0,.3-.2.5-.3.3-.2.6-.4.9-.5.2,0,.5-.2.8-.3.3-.1.7-.3,1.1-.4.4-.1.7-.2,1.1-.2.3-.2.7-.3,1.2-.3s.2,0,.3,0h.2s0,0,0,0c.5,0,1,0,1.5,0s1.1,0,1.6,0c.5,0,1.1,0,1.6,0h309.8c.2,0,.3,0,.5,0,.2,0,.3,0,.5,0s.3,0,.4,0h0c.1,0,.3,0,.4,0h.1c.7.2,1.5.3,2.2.5.4.1.7.2,1.1.4h0s0,0,0,0c.1,0,.2,0,.3.1.2,0,.3.2.5.3.4.2.9.5,1.4.8.2.1.4.2.6.4h0c.2.2.3.3.4.5.1.1.4.4.6.6.3.2.6.5.9.8.1.2.3.3.4.5.2.2.5.4.6.7.3.6.7,1.1,1.1,1.7.5.7.9,1.4,1.4,2.2.3.6.6,1.1.8,1.7v.3c.1,0,.2.2.2.2,0,.2.1.4.2.5,0,.2.2.5.3.7,1.1,3.1,2,6.6,2.6,10.5,0,.3,0,.6.1.8,0,.2,0,.4,0,.6l-1,.2s0,0,0,0l1-.2h0c0,.9.2,1.8.3,2.6.2,2,.3,4,.4,6.2.1,3.4.2,6.8.2,10.2,0,1.2,0,2.3,0,3.5,0,7,.1,14,.2,21,0,.9-.6,1.8-1.5,2-.2,0-.3,0-.5,0-.7,0-1.5-.4-1.8-1.1-6.3-12.8-12.3-24.4-18.5-35.3-1-1.8-2.1-3.6-3.1-5.4-.4-.6-.8-1.1-1.5-1.6h0c-.6-.5-1.4-.8-2.2-.9-.3,0-.6,0-.9,0h0s0,0,0,0h-.2s0,0,0,0h0s-17.7,0-17.7,0H201.2c-.7,0-1.4,0-2.1,0-.7,0-1.3,0-2,0s-1.4,0-1.9,0c-3.3.2-4.4,2-6.4,5.5-.2.3-.3.6-.5.9-6.4,11.3-12.8,23.3-19.4,36.8-.5,1-1,2.1-1.5,3.1l-.6,1.3c-.3.7-1,1.1-1.8,1.1s-.3,0-.5,0c-.9-.2-1.6-1-1.5-2,0-8.9.2-17.8.3-26.7ZM550.9,448.9c-.2,1.9-.4,3.8-.6,5.5h0c0,0,0,.3,0,.3v.7c-.2.9-.4,1.9-.6,2.8-.6,3.6-1.4,7.2-2.4,10.5-.5,1.7-1,3.4-1.6,5.1-.3.8-.6,1.6-.9,2.4,0,0,0,.3-.1.4-.1.5-.3,1.1-.5,1.6v.2c0,0-.1,0-.1,0v.2c-.1,0-.2.2-.2.2v.2c-.1,0-.2.1-.2.1,0,.2-.2.3-.2.5-.4.8-.8,1.6-1.2,2.4-.4.8-.9,1.5-1.3,2.2h0c-.1.7-.5,1.1-.7,1.4l-.2.3h0s0,0,0,0h0c-.1.2-.2.4-.4.5-.5.6-1,1.1-1.6,1.7-.5.5-1,.9-1.5,1.4-.3.3-.6.5-.9.8,0,0-.3.2-.5.4h-.2c0,.1,0,.2,0,.2h-.1c-.3.3-.6.5-.9.7-.7.5-1.4,1-2.2,1.4-1.4.9-2.9,1.8-4.6,2.6-1.6.8-3.3,1.7-5.1,2.5,0,0-.2,0-.3.1-.1,0-.3.1-.4.2l-.6.3c-1,.4-2,.8-3,1.2-3.9,1.5-8,2.8-12.7,4.1-8.8,2.5-18.6,4.6-29.9,6.5-2.7.5-5.6.9-8.4,1.3-1,.1-2,.3-3,.4h-.7c0,0-.3.1-.3.1h-.8c-.9.2-1.8.3-2.6.4-5.8.7-12,1.4-18.4,2-24.2,2.3-49.8,3.5-80.6,4-6.8,0-13.7.1-20.3.1-22.2,0-42.8-.5-63-1.5-14.1-.7-26.9-1.6-39.1-2.8-6.2-.6-12.2-1.3-17.9-2-.6,0-1.1-.1-1.7-.2h-.1s-.3,0-.3,0h-.8c-1.5-.3-3-.5-4.5-.8-2.8-.4-5.7-.9-8.4-1.3-11.6-2-21.1-4.1-29.9-6.6-4.5-1.3-8.5-2.6-12.3-4.1-.9-.3-1.8-.7-2.7-1.1h0s0,0,0,0l-.5-.2c-.3-.1-.6-.3-.9-.4-1.8-.8-3.5-1.6-5.1-2.5-1.6-.9-3.1-1.7-4.5-2.6-.7-.5-1.4-.9-2-1.3-.2-.1-.4-.3-.6-.4l-.2-.2h-.1c-1-1-2.2-1.9-3.3-3-.5-.5-1-1-1.4-1.5-.1-.1-.2-.3-.4-.4h-.1c-.8-1.3-1.5-2.6-2.4-4.3-.4-.7-.7-1.5-1.1-2.3-.1-.3-.3-.6-.4-.8v-.2c0,0-.1,0-.1,0-1.4-3.7-2.5-6.8-3.3-9.8-.9-3.4-1.7-6.9-2.3-10.6-.1-.9-.3-1.7-.4-2.6,0-.1,0-.3,0-.5,0-.1,0-.3,0-.4h0c0,0,0-.5,0-.5-.2-1.8-.4-3.7-.5-5.6-.6-7.3-.6-14.9,0-23.1.3-3.9.6-8,1.1-12.1,0-.4,0-.8.1-1.1v-.4c0,0,1.1,0,1.1,0h0s-1-.1-1-.1v-.9c.2-.7.3-1.4.4-2.2.3-2,.6-4.1,1-6.2,1.4-8,3.1-16.1,5.4-24.7,4-15.5,9.1-31.4,15.7-48.8,1.4-3.8,3-7.7,4.6-11.6.8-1.9,1.5-3.8,2.3-5.7.4-.8.7-1.7,1.1-2.5h0c0-.1,0-.1,0-.1.1-.3.3-.7.4-1,0-.2.2-.4.2-.6,2.9-6.9,6.1-13.9,9.3-21,5.3-11.3,10.9-22.7,16.7-33.7,3.4-6.4,6.6-12.3,9.8-17.9.4-.6,1-1,1.7-1h274c1.2,0,2.5,0,3.7,0,1.2,0,2.5,0,3.7,0h.2c.7,0,1.4.4,1.7,1,1.2,2.1,2.4,4.3,3.7,6.5,4.8,8.6,9.5,17.8,14.2,27.2,6.6,13.2,12.7,26.5,18.2,39.4h0s0,.2,0,.2c.1.2.2.5.3.7l.2.5c.4,1,.8,1.9,1.2,2.9.8,1.9,1.6,3.8,2.3,5.7,1.6,3.9,3.1,7.8,4.5,11.7,3.1,8.2,5.9,16.2,8.4,24,5.8,18,9.9,34.3,12.6,49.8.3,2,.7,4,.9,5.9,0,.5.2,1.1.2,1.6h0c0,.1,0,.2,0,.2,0,.1,0,.4,0,.7v.6c.1.5.2,1.1.3,1.6.5,4.1.9,8.2,1.1,12.1.5,8.3.5,15.9-.1,23.3Z"/>
    <polygon class="st0" points="348.4 140.6 348.4 140.6 348.4 140.6 348.4 140.6 348.4 140.6"/>
    <path class="st3" d="M129.9,492.6c-1.1-1.5-2.1-3.2-3-4.8.9,1.7,1.9,3.3,3,4.8Z"/>
    <path class="st3" d="M150.1,508c-2.1-1-4.1-2.1-6.1-3.2,2,1.2,4,2.2,6.1,3.2Z"/>
    <path class="st3" d="M333.7,150.7h0s0,0,0,0c0-.1-.1-.3-.2-.5,0,0,0-.1,0-.2.2.4.3.7.3.7ZM334.7,154.5c0,0,0-.1,0-.2,0,0,0,0,0,0,0,0,0-.1,0-.2,0,0,0,0,0,0,0,0,0,0,0-.1,0,0,0,0,0,0,0,0,0,0,0,0,0,0,0,0,0,0,0,0,0,0,0,0,0,0,0,0,0,0,0,0,0,0,0,.1,0,0,0,0,0,0,0,0,0,.2,0,.3v.2s0,0,0,0ZM304,163.2s0,0,0,0c0,0,0,0,0,0,0,0,0-.1,0-.2,0,.1,0,.2.1.2,0,0,0,0,0,0,0,0,0,0,0,0s0,0,0,0Z"/>
    <path class="st3" d="M538.9,484.1s0,0,0,0c0,0,0,0,0,0,0,0,0,0,0,0,0,0,0,.1-.2.2l-.2.3c0,0,.1-.1.2-.2,0,0,0,0,0,0,0,0,0,0,.1-.1,0,0,0,0,0,0,0,0,0,0,0,0,0,0,0,0,0,0,0,0,0,0,0,0,0,0,0,0,0,0,0,0,0,0,0,0ZM542.1,477.8h0s0,0,0,0ZM542.3,477.6h0c0-.1,0,0,0,0Z"/>
    <polygon class="st3" points="520.8 496.5 520.8 496.5 520.8 496.5 520.8 496.5"/>
    <path class="st3" d="M334.9,180.5c-.4,0-.7,0-1.1.3-1.1.7-2.3,1.3-3.6,1.9-.9.4-1.4,1.3-1.2,2.2.2.9,1,1.6,2,1.6h7.7c.9,0,1.8-.7,2-1.6.2-.9-.3-1.9-1.1-2.2-1.2-.5-2.4-1.2-3.5-1.9-.3-.2-.7-.3-1.1-.3ZM338.6,184.5h-7.7c.7-.3,1.3-.6,2-.9.6-.3,1.3-.7,1.9-1.1.6.4,1.2.7,1.9,1.1s1.3.7,1.9.9Z"/>
    <path class="st3" d="M343.2,172.4c.2.6.7,1,1.2,1.2,1.2.4,2.6.7,3.5.9h.1c.1,0,.2,0,.3.1.1,0,.3,0,.4,0h.2s0,0,0,0c.6,0,1.2,0,1.8,0s.5,0,.7,0h0c1.7,0,3.5,1,4.4,2.6l2.3,4,2.5,4.3c.4.6,1,1,1.7,1h8.8c.7,0,1.4-.4,1.7-1,.4-.6.4-1.4,0-2l-3-5.1-4-6.8c-.9-1.6-1-3.7,0-5.2.4-.6.7-1.3,1-1.9.1-.2.3-.5.4-.7h0c0-.2.1-.3.2-.4.2-.5.3-1,.5-1.5,0,0,0-.2,0-.3.3-.8.5-1.7.6-2.4h0c0-.1,0-.2,0-.2v-.2c0-.1,0-.2,0-.3,0,0,0-.2,0-.3,0-.3,0-.6,0-.9,0-.8,0-1.6,0-2.3,0-.2,0-.4,0-.7,0-.1,0-.2,0-.3h0c0,0,0-.2,0-.2,0-.1,0-.3,0-.4,0-.3-.1-.5-.2-.8-.2-.9-.5-1.7-.7-2.4,0-.2-.1-.3-.1-.4h0c0,0,0-.1,0-.1,0-.2-.2-.4-.3-.6-.3-.5-.5-1-.8-1.5-.4-.6-.7-1.1-1-1.6,0-.1-.2-.2-.3-.3v-.2c-.3-.2-.5-.5-.6-.6-.2-.3-.5-.5-.7-.8-.4-.4-.8-.8-1.2-1.1-.2-.2-.4-.4-.6-.5h0c0,0-.3-.3-.3-.3l-.3-.2c-.2-.1-.4-.2-.5-.4-.7-.5-1.5-.9-2.2-1.3-.2-.1-.4-.2-.7-.3h-.2c-.1-.1-.2-.2-.3-.2h-.1c-.7-.3-1.5-.5-2.3-.7-.2,0-.3,0-.5-.1-.3-.3-.8-.4-1.2-.4s-.3,0-.5,0c-.2,0-.4,0-.5,0-.3,0-.7,0-1,0-.3,0-.5,0-.8,0-.4,0-.8,0-1.1,0-.1,0-.2,0-.3,0-.2,0-.4,0-.8,0h-.2s0,0,0,0c-.2,0-.5,0-.7.1-.5,0-.9.2-1.4.3-.6.2-1.2.4-1.8.6-.6.2-1,.6-1.2,1.2s-.2,1.2.1,1.7c2,3.6,3.3,7.7,3.7,12,.5,5.4-.8,11.2-3.7,16.3-.3.5-.3,1.1-.1,1.7ZM365.7,150.5h0c0,.1,0,.1,0,.1,0,0,0,0,0,0,0,0,0,0,0,0,0,0,0,0,0,0,0,0,0,0,0,0,0,0,0,0,0,0h0Z"/>
    <path class="st3" d="M347.1,167.6c.6-1.4,1-2.9,1.4-4.3-.3,1.5-.8,2.9-1.4,4.3Z"/>
    <path class="st3" d="M180.8,198.9c-.4,0-.6,0,0,0h0Z"/>
    <path class="st3" d="M316.3,140.7s0,0,0,0c0,0,0,0,.1,0,0,0,0,0,0,0,0,0,0,0,.1,0,0,0,0,0,0,0,0,0,0,0,.1,0h0c0,0-.3.1-.6.2h0s0,0,0,0Z"/>
    <path class="st3" d="M334.6,158.9c0-.2,0-.5,0-.6,0,0,0,0,0,0h0s0-.1,0-.1c-.2.2-.2.7,0,.8Z"/>
    <path class="st3" d="M175.2,201.2h0s0,0,0,0c0,0,0,0,0,0-.1,0-.2.2-.3.2,0,0,0,0,0,0,0,0,0,0-.1.1,0,0,0,0,0,0,0,0,0,0,0,0,0,0,0,0,0,0,0,0,0,0,.1,0,0,0,0,0,0,0,0,0,0,0,0,0,.2-.2.3-.4.5-.5Z"/>
    <polygon class="st3" points="175.2 201.1 175.2 201.1 175.2 201.1 175.3 201 175.3 201 175.3 201 175.2 201.1 175.2 201.2 175.2 201.1"/>
    <path class="st3" d="M180.8,198.9c-.6,0-.4,0,0,0h0Z"/>
    <path class="st3" d="M178.3,201.7h0,0Z"/>
    <path class="st3" d="M173,203.3c.3-.3.6-.6.9-.8-.3.3-.6.6-.9.8Z"/>
    <path class="st3" d="M174.7,201.7c.1,0,.3-.3.5-.6h0c-.1.2-.3.4-.5.6Z"/>
    <path class="st3" d="M505.6,204.1s0,0,0,0c0,0,0,0,0,0,0,0,0,0,0,0,0,0,0,0,0,0,0,0,0,0,0,0s0,0,0,0c0,0,0,0,0,0,0,0,0,0,0,0,0,0,0,0,0,0,0,0,0,0,0,0,0,0,0,0,0,0,0,0,0,0,0,0,0,0,0,0,0-.1,0,0,0,.1.1.2,0,0,0,0,0,0Z"/>
    <path class="st3" d="M177.7,199.8s0,0,0,0c0,0,0,0,0,0,0,0,0,0,0,0,0,0,0,0,0,0,0,0,0,0,0,0s0,0,0,0c0,0,0,0,0,0,0,0,0,0,0,0,0,0,0,0,0,0,0,0,0,0,0,0,0,0,0,0,0,0,0,0,0,0,0,0,0,0,0,0-.2,0,0,0,.2,0,.2,0,0,0,0,0,0,0Z"/>
    <path class="st2" d="M538.8,484.1s0,0,0,0c0,0,0,0,0,0,0,0,0,0,0,0,0,0,0,0-.1.1,0,0,0,0,0,0,0,0-.1.1-.2.2l.2-.3c0,0,.1-.1.2-.2,0,0,0,0,0,0,0,0,0,0,0,0,0,0,0,0,0,0,0,0,0,0,0,0,0,0,0,0,0,0Z"/>
    <path class="st4" d="M520.8,496.5s0,0,0,0c0,0,0,0,0,0,0,0,0,0,0,0Z"/>
    <path class="st4" d="M520.9,496.4c-.1,0-.3.1-.4.2.2,0,.3-.1.4-.2Z"/>
    <path class="st3" d="M162.9,309c0,0,0-.2,0-.2,0,0,0,0,0,0,0,0,0,0,0,0,0,0,0,0,0,0,0,0,0,0,0,0,0,0,0,0,0,0,0,0,0,0,0,0,0,0,0,0,0,0,0,0,0,0,0,0,0,0,0,0,0,0,0,0,0,0,0,.1,0,.1,0,.2-.2.4h0c0,0,0-.2.1-.3,0,0,0,0,0,0Z"/>
    <path class="st3" d="M517.2,309.1s0,0,0,0c0,0,0,0,0,0,0,0,0,0,0,0s0,0,0,0c0,0,0,0,0,0,0,0,0,0,0,0,0,0,0,0,0,0,0,0,0,0,0,0,0,0,0,0,0-.2,0,0,0,0,0,0,0,0,0-.2-.1-.2,0,.2.2.4.2.5,0,0,0,0,0,0Z"/>
  </g>
  <path class="st1" d="M550.9,448.9c-.2,1.9-.4,3.8-.6,5.5h0c0,0,0,.3,0,.3v.7c-.2.9-.4,1.9-.6,2.8-.6,3.6-1.4,7.2-2.4,10.5-.5,1.7-1,3.4-1.6,5.1-.3.8-.6,1.6-.9,2.4,0,0,0,.3-.1.4-.1.5-.3,1.1-.5,1.6v.2c0,0-.1,0-.1,0v.2c-.1,0-.2.2-.2.2v.2c-.1,0-.2.1-.2.1,0,.2-.2.3-.2.5-.4.8-.8,1.6-1.2,2.4-.4.8-.9,1.5-1.3,2.2h0c-.1.7-.5,1.1-.7,1.4l-.2.3h0s0,0,0,0h0c-.1.2-.2.4-.4.5-.5.6-1,1.1-1.6,1.7-.5.5-1,.9-1.5,1.4-.3.3-.6.5-.9.8,0,0-.3.2-.5.4h-.2c0,.1,0,.2,0,.2h-.1c-.3.3-.6.5-.9.7-.7.5-1.4,1-2.2,1.4-1.4.9-2.9,1.8-4.6,2.6-1.6.8-3.3,1.7-5.1,2.5,0,0-.2,0-.3.1-.1,0-.3.1-.4.2l-.6.3c-1,.4-2,.8-3,1.2-3.9,1.5-8,2.8-12.7,4.1-8.8,2.5-18.6,4.6-29.9,6.5-2.7.5-5.6.9-8.4,1.3-1,.1-2,.3-3,.4h-.7c0,0-.3.1-.3.1h-.8c-.9.2-1.8.3-2.6.4-5.8.7-12,1.4-18.4,2-24.2,2.3-49.8,3.5-80.6,4-6.8,0-13.7.1-20.3.1-22.2,0-42.8-.5-63-1.5-14.1-.7-26.9-1.6-39.1-2.8-6.2-.6-12.2-1.3-17.9-2-.6,0-1.1-.1-1.7-.2h-.1s-.3,0-.3,0h-.8c-1.5-.3-3-.5-4.5-.8-2.8-.4-5.7-.9-8.4-1.3-11.6-2-21.1-4.1-29.9-6.6-4.5-1.3-8.5-2.6-12.3-4.1-.9-.3-1.8-.7-2.7-1.1h0s0,0,0,0l-.5-.2c-.3-.1-.6-.3-.9-.4-1.8-.8-3.5-1.6-5.1-2.5-1.6-.9-3.1-1.7-4.5-2.6-.7-.5-1.4-.9-2-1.3-.2-.1-.4-.3-.6-.4l-.2-.2h-.1c-1-1-2.2-1.9-3.3-3-.5-.5-1-1-1.4-1.5-.1-.1-.2-.3-.4-.4h-.1c-.8-1.3-1.5-2.6-2.4-4.3-.4-.7-.7-1.5-1.1-2.3-.1-.3-.3-.6-.4-.8v-.2c0,0-.1,0-.1,0-1.4-3.7-2.5-6.8-3.3-9.8-.9-3.4-1.7-6.9-2.3-10.6-.1-.9-.3-1.7-.4-2.6,0-.1,0-.3,0-.5,0-.1,0-.3,0-.4h0c0,0,0-.5,0-.5-.2-1.8-.4-3.7-.5-5.6-.6-7.3-.6-14.9,0-23.1.3-3.9.6-8,1.1-12.1,0-.4,0-.8.1-1.1v-.4c0,0,1.1,0,1.1,0h0s-1-.1-1-.1v-.9c.2-.7.3-1.4.4-2.2.3-2,.6-4.1,1-6.2,1.4-8,3.1-16.1,5.4-24.7,4-15.5,9.1-31.4,15.7-48.8,1.4-3.8,3-7.7,4.6-11.6.8-1.9,1.5-3.8,2.3-5.7.4-.8.7-1.7,1.1-2.5h0c0-.1,0-.1,0-.1.1-.3.3-.7.4-1,0-.2.2-.4.2-.6,2.9-6.9,6.1-13.9,9.3-21,5.3-11.3,10.9-22.7,16.7-33.7,3.4-6.4,6.6-12.3,9.8-17.9.4-.6,1-1,1.7-1h274c1.2,0,2.5,0,3.7,0,1.2,0,2.5,0,3.7,0h.2c.7,0,1.4.4,1.7,1,1.2,2.1,2.4,4.3,3.7,6.5,4.8,8.6,9.5,17.8,14.2,27.2,6.6,13.2,12.7,26.5,18.2,39.4h0s0,.2,0,.2c.1.2.2.5.3.7l.2.5c.4,1,.8,1.9,1.2,2.9.8,1.9,1.6,3.8,2.3,5.7,1.6,3.9,3.1,7.8,4.5,11.7,3.1,8.2,5.9,16.2,8.4,24,5.8,18,9.9,34.3,12.6,49.8.3,2,.7,4,.9,5.9,0,.5.2,1.1.2,1.6h0c0,.1,0,.2,0,.2,0,.1,0,.4,0,.7v.6c.1.5.2,1.1.3,1.6.5,4.1.9,8.2,1.1,12.1.5,8.3.5,15.9-.1,23.3Z"/>
  <path class="st3" d="M329.2,141.8h.2c0,.1.2.3.2.3,0,0,.2,0,.3.1.3.2.5.4.6.6.2.2.5.4.7.6.4.4.7.7,1.1,1.1.2.2.3.3.5.5.2.2.4.3.5.6,0,.1.2.3.2.4v.2c.1,0,1.2,1.6,1.8,2.7h0s0,0,0,0c.1.3.4.8.5,1.4,0,.1,0,.2.1.3.2.7.4,1.5.6,2.3.1.3.2.7.2,1.1h0c0,.1,0,.2,0,.2h0c0,.1,0,.2,0,.2v.2c0,.4,0,.9,0,1.4,0,.5,0,1,0,1.5,0,.4,0,.7,0,1.1,0,.2,0,.5-.1.7,0,.2,0,.3,0,.3,0,.1,0,.3,0,.4-.2,1.3-.5,2.6-.9,3.5,0,.1-.1.2-.2.3h0c0,.2-.2.3-.3.4,0,.2-.2.3-.3.5-.5.9-1,1.7-1.5,2.5,0,0-.2.3-.3.5h0c0,.1-.3.4-.3.4-.2.2-.3.3-.3.4-.6.7-1.3,1.4-2.1,2,0,0-.2.2-.3.3h-.1c0,0-.4.3-.4.3-.2.1-.4.3-.5.3-.8.5-1.6,1-2.4,1.4-.1,0-.3.1-.4.2h-.2c-.4.3-.6.3-.7.4-.9.3-1.8.6-2.7.8-.4,0-.7.2-1.1.2h-.1c0,0-.2,0-.3,0-.3,0-.6,0-.9,0-.5,0-1.1,0-1.7,0s-.2,0-.3,0h0c-1.7,0-3.5,1-4.4,2.6l-2.9,5.1-1.8,3.1c-.4.6-1,1-1.7,1h-8.8c-.7,0-1.4-.4-1.7-1-.4-.6-.4-1.4,0-2l2.6-4.5,4.3-7.5c.9-1.6,1-3.7,0-5.2-.4-.7-.8-1.4-1.1-2-.1-.2-.2-.4-.3-.6h0s0,0,0,0c0-.1,0-.2-.1-.4-.2-.5-.3-1-.5-1.5-.2-.6-.3-1.1-.4-1.7,0-.3-.1-.6-.2-.9h0c0-.2,0-.3,0-.4h0c0-.2,0-.4,0-.6,0-.3,0-.6,0-.9,0-1,0-2,0-2.8h1s0,0,0,0h-1c0-.2,0-.4,0-.5,0-.2,0-.4.1-.6,0-.3.1-.5.2-.8.2-.8.4-1.5.7-2.2,0-.4.2-.7.3-.9h0s0,0,0,0h0c.3-.8.6-1.3.9-1.8.3-.5.5-.9.8-1.3.2-.2.3-.5.5-.7l.2-.3.2-.3c.1-.1.2-.3.4-.4.5-.5,1-1,1.5-1.5.1-.1.3-.2.4-.3.1,0,.2-.2.3-.3h0c0-.1.2-.2.3-.3.9-.6,1.9-1.2,3-1.8.4-.3.8-.5,1.1-.6h0s0,0,0,0c.1,0,.2,0,.3-.1h0c.8-.3,1.6-.5,2.4-.7,0,0,.4,0,.7-.1h0c.3-.1.7-.2,1.2-.3.2,0,.3,0,.5,0h.2c.1,0,.2,0,.4,0,.4,0,.9,0,1.3,0s.7,0,1,0c.2,0,.3,0,.5,0,.1,0,.3,0,.4,0v1s0,0,0,0v-1c.2,0,.3,0,.4,0,1.1.2,2.6.6,4.2,1.1.2,0,.4,0,.6.2.1,0,.3.1.4.2h0"/>
  <path class="st3" d="M163.3,243c0-1,0-2,0-3,0-3.4,0-6.9.2-10.4.1-2,.2-3.9.4-5.7,0-.2,0-.4,0-.7,0-.5,0-1,.2-1.6v-.2c0,0,0-.2.1-.3,0-.5.2-1,.2-1.5.7-4,1.6-7.5,2.8-10.7,0-.1.1-.3.2-.5v-.2c.1-.2.2-.3.2-.4.3-.7.7-1.4,1-2,.4-.7.8-1.5,1.3-2.1.2-.3.4-.6.6-.9h0c0-.1.2-.4.2-.4h0c.4-.5.9-.9,1.4-1.3s.4-.3.5-.5c.2-.4.6-.8,1.1-1.1h.1c0,0,0,0,0,0l.9,1.2h0s0,0,0,0l-.9-1.3c.4-.3.7-.5,1-.6.1,0,.3-.2.5-.3.3-.2.6-.4.9-.5.2,0,.5-.2.8-.3.3-.1.7-.3,1.1-.4.4-.1.7-.2,1.1-.2.3-.2.7-.3,1.2-.3s.2,0,.3,0h.2s0,0,0,0c.5,0,1,0,1.5,0s1.1,0,1.6,0c.5,0,1.1,0,1.6,0h309.8c.2,0,.3,0,.5,0,.2,0,.3,0,.5,0s.3,0,.4,0h0c.1,0,.3,0,.4,0h.1c.7.2,1.5.3,2.2.5.4.1.7.2,1.1.4h0s0,0,0,0c.1,0,.2,0,.3.1.2,0,.3.2.5.3.4.2.9.5,1.4.8.2.1.4.2.6.4h0c.2.2.3.3.4.5.1.1.4.4.6.6.3.2.6.5.9.8.1.2.3.3.4.5.2.2.5.4.6.7.3.6.7,1.1,1.1,1.7.5.7.9,1.4,1.4,2.2.3.6.6,1.1.8,1.7v.3c.1,0,.2.2.2.2,0,.2.1.4.2.5,0,.2.2.5.3.7,1.1,3.1,2,6.6,2.6,10.5,0,.3,0,.6.1.8,0,.2,0,.4,0,.6l-1,.2s0,0,0,0l1-.2h0c0,.9.2,1.8.3,2.6.2,2,.3,4,.4,6.2.1,3.4.2,6.8.2,10.2,0,1.2,0,2.3,0,3.5,0,7,.1,14,.2,21,0,.9-.6,1.8-1.5,2-.2,0-.3,0-.5,0-.7,0-1.5-.4-1.8-1.1-6.3-12.8-12.3-24.4-18.5-35.3-1-1.8-2.1-3.6-3.1-5.4-.4-.6-.8-1.1-1.5-1.6h0c-.6-.5-1.4-.8-2.2-.9-.3,0-.6,0-.9,0h0s0,0,0,0h-.2s0,0,0,0h0s-17.7,0-17.7,0H201.2c-.7,0-1.4,0-2.1,0-.7,0-1.3,0-2,0s-1.4,0-1.9,0c-3.3.2-4.4,2-6.4,5.5-.2.3-.3.6-.5.9-6.4,11.3-12.8,23.3-19.4,36.8-.5,1-1,2.1-1.5,3.1l-.6,1.3c-.3.7-1,1.1-1.8,1.1s-.3,0-.5,0c-.9-.2-1.6-1-1.5-2,0-8.9.2-17.8.3-26.7Z"/>
</svg>