<?xml version="1.0" encoding="UTF-8"?><svg id="a" xmlns="http://www.w3.org/2000/svg" viewBox="0 0 240 240"><defs><style>.b{fill:#f2f2f2;}.c{fill:#fff;}.d{fill:#fcd462;}.e{fill:#ff5a79;}.f{fill:#31978c;}.g{fill:#3ea69b;}.h{fill:#44c4a1;}.i{fill:#474747;}</style></defs><path class="i" d="M154.85,46.63l73.87,25.45v16.16l-4.05,1.43,4.05,1.4v16.16l-4.05,1.43,4.05,1.4v16.16l-4.05,1.43,4.05,1.39v16.16l-4.05,1.43,4.05,1.4v16.16l-55.61,19.58v.02l-3.94,1.39-.44,.16-21.29,7.5h0l-2.64,.93-4.71,1.66v-.02l-54.93,19.34L11.29,189.24v-16.16h0l4.05-1.43-4.05-1.4v-16.16h0l4.05-1.43-4.05-1.4v-16.16l4.05-1.43-4.05-1.4v-16.16h0l4.05-1.43-4.05-1.39v-16.16h0L154.85,46.63M11.29,97.18h0m0,0h0m0,18.98h0m0,0h0M154.85,42.63c-.45,0-.9,.08-1.33,.23L9.96,93.41c-1.03,.36-1.83,1.11-2.27,2.03-.15,.32-.27,.66-.33,1.02-.05,.25-.07,.51-.07,.78v16.1c0,.49,.09,.97,.26,1.41-.09,.23-.15,.46-.19,.7-.04,.25-.07,.5-.06,.76v16.11c0,.49,.09,.97,.26,1.41-.17,.44-.26,.92-.26,1.41v16.16c0,.49,.09,.97,.26,1.41-.17,.44-.26,.92-.26,1.41v16.16c0,.49,.09,.97,.26,1.41-.17,.44-.26,.92-.26,1.41v16.16c0,1.71,1.08,3.23,2.7,3.78l73.87,25.45c.42,.15,.86,.22,1.3,.22s.9-.08,1.33-.23l54.52-19.2c.14-.03,.28-.07,.41-.12l4.71-1.66,2.64-.93,21.29-7.5,.44-.16,3.94-1.39c.14-.05,.27-.1,.4-.17l55.21-19.44c1.6-.56,2.67-2.08,2.67-3.77v-16.16c0-.49-.09-.97-.26-1.41,.17-.44,.26-.92,.26-1.41v-16.16c0-.49-.09-.97-.26-1.41,.17-.44,.26-.92,.26-1.41v-16.16c0-.49-.09-.97-.26-1.41,.17-.44,.26-.92,.26-1.41v-16.16c0-.49-.09-.97-.26-1.41,.17-.44,.26-.92,.26-1.41v-16.16c0-1.71-1.08-3.23-2.7-3.78l-73.87-25.45c-.42-.15-.86-.22-1.3-.22h0ZM11.29,101.18h0Zm0,0h0Zm0,0h0Zm0,0h0Zm0,18.98h0Zm0,0h0Zm0,0h0Zm0,0h0Z"/><g><polygon class="f" points="193.59 152.04 154.85 138.7 79.55 165.21 11.28 173.09 11.28 189.24 85.15 214.69 228.72 164.15 228.72 147.99 193.59 152.04"/><polygon class="g" points="154.85 122.54 11.28 173.09 85.15 198.54 228.72 147.99 154.85 122.54"/></g><g><polygon class="f" points="193.59 133.07 154.85 119.72 79.55 146.23 11.28 154.11 11.28 170.27 85.15 195.72 228.72 145.17 228.72 129.01 193.59 133.07"/><polygon class="g" points="154.85 103.56 11.28 154.11 85.15 179.56 228.72 129.01 154.85 103.56"/></g><g><polygon class="f" points="193.59 114.09 154.85 100.74 79.55 127.25 11.28 135.13 11.28 151.29 85.15 176.74 228.72 126.19 228.72 110.04 193.59 114.09"/><polygon class="g" points="154.85 84.58 11.28 135.13 85.15 160.58 228.72 110.04 154.85 84.58"/></g><g><polygon class="f" points="193.59 95.11 154.85 81.76 79.55 108.28 11.28 116.16 11.28 132.31 85.15 157.76 228.72 107.21 228.72 91.06 193.59 95.11"/><polygon class="g" points="154.85 65.61 11.28 116.16 85.15 141.61 228.72 91.06 154.85 65.61"/></g><g><polygon class="f" points="193.59 76.14 154.85 62.79 79.55 89.3 11.28 97.18 11.28 113.34 85.15 138.79 228.72 88.24 228.72 72.08 193.59 76.14"/><g><g><polygon class="g" points="154.85 46.63 11.28 97.18 85.15 122.63 228.72 72.08 154.85 46.63"/><path class="h" d="M75.4,115.63l-43.93-15.14c5.29-1.86,5.25-4.87-.1-6.71l113.95-40.12c5.35,1.84,13.98,1.83,19.28-.04l43.93,15.14c-5.29,1.86-5.25,4.87,.1,6.71l-113.95,40.12c-5.35-1.84-13.98-1.83-19.28,.04Z"/><path class="g" d="M139.69,77.7c13.92,4.79,16.38,11.79,5.51,15.61-10.87,3.83-30.97,3.05-44.89-1.75-13.92-4.79-16.38-11.79-5.51-15.61,10.87-3.83,30.97-3.05,44.89,1.75Z"/></g><path class="h" d="M139.23,92l-3.57-1.23c-4.88,1.4-10.63,2.19-17.25,2.36l-.72-2.71c5.09-.13,9.3-.63,12.64-1.48l-9.5-3.27c-4.53,.98-8.36,1.52-11.49,1.62-3.13,.1-6.11-.33-8.93-1.31-2.82-.97-4.16-2.11-4-3.42,.16-1.31,1.72-2.54,4.69-3.7l-2.45-.84,3.1-1.09,2.5,.86c3.81-1.16,8.39-1.92,13.75-2.28l1.36,2.66c-3.67,.22-6.92,.71-9.77,1.46l9.2,3.17,.15-.05c4.6-1,8.51-1.55,11.76-1.65,3.25-.1,6.3,.35,9.15,1.33,2.86,.98,4.18,2.14,3.97,3.46-.21,1.32-1.87,2.59-5,3.81l3.52,1.21-3.1,1.09Zm-35.02-9.68c-.09,.54,.41,1,1.51,1.38,1.09,.38,2.28,.56,3.56,.55,1.28,0,3.12-.23,5.52-.66l-8.47-2.92c-1.32,.56-2.03,1.11-2.12,1.65Zm31.66,3.81c.15-.58-.34-1.06-1.48-1.46-1.14-.39-2.4-.58-3.78-.56-1.38,.02-3.33,.27-5.86,.75l8.81,3.04c1.39-.6,2.16-1.19,2.31-1.77Z"/></g></g><g><polygon class="b" points="140.08 103.29 140.08 195.38 173.11 183.75 173.11 91.66 140.08 103.29"/><polygon class="c" points="67.44 77.41 99.46 66.13 173.11 91.66 140.08 103.29 67.44 77.41"/><polygon class="d" points="144.02 101.9 144.02 193.99 147.43 192.79 147.43 100.7 144.02 101.9"/><polygon class="d" points="165.76 94.25 165.76 186.34 169.17 185.14 169.17 93.05 165.76 94.25"/><polygon class="d" points="144.02 101.9 70.56 76.31 73.92 75.12 147.43 100.7 144.02 101.9"/><polygon class="d" points="165.76 94.25 93.28 68.31 96.43 67.19 169.17 93.05 165.76 94.25"/></g><polygon class="e" points="63.22 32.14 56.38 25.31 39.29 42.4 22.19 25.31 15.35 32.14 32.45 49.24 15.35 66.34 22.19 73.17 39.29 56.08 56.38 73.17 63.22 66.34 46.12 49.24 63.22 32.14"/></svg>