<?xml version="1.0" encoding="UTF-8"?>
<svg id="_レイヤー_1" data-name="レイヤー_1" xmlns="http://www.w3.org/2000/svg" viewBox="0 0 660 660">
  <defs>
    <style>
      .cls-1 {
        fill: #4742c2;
      }

      .cls-2 {
        fill: #fff;
      }

      .cls-3 {
        opacity: .4;
      }

      .cls-4 {
        fill: #ebebf7;
      }
    </style>
  </defs>
  <g>
    <path class="cls-2" d="M551.72,408.76c.16-2.84.26-5.69.3-8.54l-.06-.39-.61-3.72.05-3.85v-.17s-.02-.25-.02-.25l-.39-4.12v-.14s-.05-.2-.05-.2l-.68-3.71-.04-3.85v-.2s-.03-.26-.03-.26l-.51-4.11-.03-.22-.07-.28c-1.5-5.25-2.4-10.93-3.45-16.3-.56-1.89-1.63-5.87-1.99-7.8-1.17-3.41-2.8-8.56-3.69-12.06l-.08-.29-.13-.29-1.66-3.72-1.54-3.77-.07-.16-.09-.18-1.78-3.48-1.43-3.67-.18-.46-.29-.43-2.23-3.25c-.99-1.78-2.79-5.21-3.52-6.95l-.08-.18-.11-.19-2.11-3.56-.13-.22-.16-.21-4.99-6.51c-1.41-1.95-3.69-5.4-5.25-7.24l-2.76-2.78-2.61-3.18c-6.12-5.98-11.8-11.76-17.56-18.04l-.2-.2-.22-.17-3.02-2.41-2.59-2.81-.28-.27-3.08-2.8-.12-.11-.11-.09-3.1-2.44c-2.99-3.01-6.08-6.06-9.24-8.88.08.08-2.43-1.86-3.11-2.34l-2.69-2.72-.25-.25-.27-.2-3.37-2.47c-5.87-5.32-14.87-12.76-21.42-19.16-3.08-2.42-6.25-5.17-8.9-8.06l-2.02-2.39c5.99-4.32,8.13-12.46,4.68-19.25-1.92-3.77-5.19-6.4-8.92-7.61,1.26-2.23,2.49-4.48,3.67-6.75l2.14-3.12,2.63-2.96c2.46-3.34,5.51-6.54,8-9.91,1.31-1.31,3.23-3.12,4.31-4.47,1.36-1.59,2.76-2.99,4.15-4.45l3.11-2.49.3-.24.21-.25,2.6-3.09c2.62-2.26,5.01-4.87,7.52-7.15,2.63-2.4,5.6-4.76,8.19-7.29,2.69-3.19,5.99-6.12,8.72-9.32l.19-.22,2.42-3.21,2.88-2.74.17-.16.11-.14,2.68-3.3c1.55-2.39,3.52-5.54,4.63-7.19l2.64-3.35.22-.27c1.05-2.19,3-5.91,4.21-8.02l.08-.3,1.13-4.05,1.38-3.86.09-.24.04-.19,1.17-6.29c.38-2.33.87-4.66,1.05-7l-.37-4.24-.02-.2-.03-.14c-.41-2.17-1.44-6.29-2.08-8.42l-.09-.33-.14-.25-2.1-3.73-.1-.17c-1.11-1.53-2.92-3.85-4.12-5.24-1.49-1.75-2.96-3.39-4.47-5.04l-3.21-2.87-3.32-2.74-.09-.08-.06-.04c-1.78-1.26-5.36-3.71-7.26-4.8l-7.56-4.08-.09-.05-.05-.02-3.95-1.77-4.05-1.52-.12-.05-.09-.02-4.13-1.07-.1-.03h-.06s-4.26-.75-4.26-.75l-4.3-.47h-.12s-.08-.01-.08-.01l-4.27-.03c-2.26.34-4.52.82-6.73,1.36-2.15.55-4.28.94-6.42,1.41l-4.11,1.24-.17.05-.14.07-3.77,1.95c-3.93,1.45-7.86,3.15-11.58,5.07l-3.92.66-4.03.52-3.67-.33-3.37-1.58-3.11-2.5-3.34-2.52-.07-.05-.05-.03-3.58-2.15-.17-.1c-2.11-.53-6.05-1.79-8.13-2.43l-.16-.05h-.15s-4.17-.31-4.17-.31h-.09s-.07,0-.07,0c-2.81.13-5.63.28-8.44.47-5.35.81-11.14,1.85-16.37,3.19-3.87,1.92-7.83,3.79-11.61,5.89l-3.06,2.89-2.17,2.4c-3-1.99-7.19-4.96-10.11-6.46l-3.86-1.71-3.64-2.17-.07-.04-.07-.02-4.01-1.51-.06-.02h-.06s-4.16-.91-4.16-.91l-4.01-1.35-.09-.03h-.09c-2.19-.24-6.53-.6-8.74-.59h-.21s-.19.09-.19.09l-3.92,1.96-3.78,2.22-.14.08-.11.14c-1.79,2.41-3.69,4.78-5.33,7.28l-1.08,3.32-3.21-.75c-2.69-.88-5.39-1.77-8.11-2.57l-4.06-.73-3.95-1.26-.06-.02-.09-.02-4.03-.69-3.87-1.44-.27-.06-4.07-.54-3.96-1.16-.07-.02-.1-.02-4.16-.62c-2.8-.65-7.05-1.67-10.33-2-3.32-.75-7.57-.49-10.27-1.26l-4.12-1.01-.17-.04h-.21s-4.1-.05-4.1-.05l-4.08-.56h-.1s-.14-.01-.14-.01l-4.07.02-4.09-.56-.19-.03-.24.02-4.06.4-4.12-.2h-.25s-.28.05-.28.05l-3.03.71c-3.2.7-6.49,1.06-9.69,1.93l-3.87,1.66-.17.07-.19.13-3.5,2.39-.37.25-.26.43-2.17,3.61-.13.22-.09.29-1.2,3.96-.04.13c-.69,4.39-1.34,8.87-1.65,13.3l.24,4-.5,4.03-.02.15v.23c.08,2.94.16,5.88.39,8.81l.67,4.13c.45,4.05.93,6.45,1.94,10.65.46,2.18,1.12,4.28,1.7,6.41,1.78,3.97,3.51,7.93,5.22,11.93,2.06,3.9,4.45,7.3,7.07,10.9l1.97,3.6c4.72,5.65,9.68,11.23,14.54,16.77l5.98,5.58,2.69,2.96.07.07.12.12,2.83,2.67,2.56,2.95,2.53,3.15.08.1.14.14,2.89,3.01c-.11-.12,2.31,2.26,2.81,2.73,1.66,1.99,3.29,4,4.9,6.04l1.58,2.52c.54.91,1.17,1.73,1.77,2.58,1.2,1.62,2.21,3.23,3.27,4.84l1.75,3.42.38.84c-2.64.92-5.06,2.55-6.92,4.9-4.59,5.77-4.32,13.85.25,19.29l-1.05.34c-.42.13-.83.29-1.23.46l-4.57,1.97-.4.18-3.88,1.81-4.05,1.43c-.33.12-.66.25-.98.39l-4.54,2.01c-.5.22-.99.47-1.45.75l-3.86,2.28-4.01,2.01c-.25.13-.5.26-.74.4l-4.3,2.49c-.31.18-.61.37-.9.57l-4.09,2.81-.21.15-4.04,2.89-.3.22-3.78,2.87-3.57,2.53-3.9,2.47c-.76.48-1.47,1.04-2.13,1.66l-2.83,2.68-3.21,2.22c-.41.29-.81.6-1.2.93l-3.75,3.25c-.18.16-.36.32-.54.49l-3.58,3.44-.3.3-3.3,3.38-3.15,3.01-3.49,3c-.56.48-1.08,1.01-1.56,1.57l-2.63,3.12-3,2.75c-.53.49-1.03,1.02-1.48,1.59l-2.41,3.03-2.86,2.62c-.49.45-.94.93-1.36,1.44l-3.13,3.83c-.22.27-.43.55-.63.84l-2.08,2.97-2.63,2.53c-.65.63-1.24,1.32-1.76,2.06l-2.44,3.51-2.77,3.24c-.25.29-.49.59-.71.9l-2.9,4.02c-.2.28-.39.56-.57.85l-2.6,4.23c-4.02,6.53-1.98,15.09,4.55,19.11,6.53,4.02,15.09,1.98,19.11-4.55l2.33-3.79,2.27-3.14,2.85-3.33c.3-.35.58-.71.84-1.09l2.06-2.96,2.61-2.52c.64-.62,1.23-1.3,1.74-2.03l2.55-3.64,2.17-2.65,2.93-2.69c.54-.49,1.03-1.03,1.48-1.59l1.05-1.32c-.53.74-.95,1.35-1.12,1.63-5.62,6.6-10.1,14.18-15.08,21.24l-1.74,3.47c-1.45,2.43-3.01,4.79-4.49,7.2l-1.92,3.68-.1.2-.1.24-1.51,3.66-1.74,3.55-.18.39c-.72,1.89-2.23,5.54-3.15,7.35l-.24.62-1.2,3.72-1.53,3.56c-.94,2.76-1.75,5.58-2.72,8.33-1.01,3.59-1.36,7.24-2.22,10.82-.77,2.95-1.34,7.2-1.97,10.31-.05.18-.1.69-.09.87.03-.14-.08,3.18-.08,3.94l-.49,3.72-.06.48c.12,3.5.31,5.68-.03,9.22-.55,4.63-.42,12.48-.2,15.58l-.27,4.16-.02.26v.15s.06,4.16.06,4.16c1.07,8.22,1.02,16.88,1.58,25.14l.02.29.02.14.63,3.83v3.73s.01.52.01.52l.07.35c0-.14.6,3.26.76,3.92l.19,3.69.02.36.03.16c.41,2.14,1.05,6.15,1.27,8.32l.02.08.88,4.01.53,3.86.04.28.02.08.93,4.01.61,3.88.04.26c.83,3.5,2.23,8.78,3.37,12.18l.65,3.79.05.28.03.11,1.19,3.99c.72,2.01,1.6,4,2.25,5.98.76,1.99,1.28,4.13,1.95,6.19.84,1.87,2.48,5.57,3.19,7.5l1.36,3.94,1.62,3.92.07.17.03.05,1.74,3.27c.16,2.11.58,5.49.86,7.45-.18,2.04-.59,5.46-.94,7.44l-1.43,3.5-1.76,3.53c-.66.89-3.58,5.03-4.84,6.73-1.12,2.82-2.4,5.58-3.54,8.38l-.8,4.25-.05.29.05.25.8,4.23.03.15.04.11,1.58,3.99.14.37.29.22,3.43,2.62.22.17.23.06,4.11,1.1.13.03h.09c2.88.22,5.75.51,8.61.83l4.32.16h.05s.03,0,.03,0l4.3-.12,4.22.26,4.22.71h.05s.04.01.04.01l4.35.37,4.29.05,4.19.79h.06s.05.02.05.02c4.24.14,8.46,1.02,12.7,1.27,3.53,1.81,7.14,4.06,10.28,6.49l3.57,2.09.04.03c4.64,1.93,9.71,4.24,14.38,6.2,1.56.68,3.15,1.26,4.73,1.89l3.68,1.93.13.07.22.05,4.06,1.01c3.05,1.07,8.09,3.27,11.96,4.2,8.03,1.57,16.21,3.95,24.14,6.08l.08.02.36.04,3.83.48,4.04.94h.04s.36.05.36.05l3.81.44,4.07.87.11.02.47.03,3.67.23,3.95.86.08.02c7.02.6,14.28,1.54,21.33,2.24l.51-.03,3.79-.2,3.71.18,4.09.5c4.51.1,9.04.17,13.53.11l3.89-.3,4.03-.03h.22c5.39-.76,10.73-.44,16.98-.8l4.33-.52,4.04-.77c8.36-.45,17.11-1.9,25.26-3.3l3.71-.73.53-.1.12-.04,3.85-1.34c3.67-.69,8.45-1.71,11.89-2.86,4.02-.79,8.31-2.15,12.18-3.38l4.02-1.18,4-1.31,3.82-.79.35-.07.09-.04,3.88-1.55-.16.05,3.98-1.26.25-.08,3.72-1.77,3.82-.96.19-.05.05-.02,3.86-1.58.16-.06.04-.02,3.56-2.05,3.77-1.32.17-.06.08-.05,3.56-2.11c2.11-.99,6.07-2.98,8.05-4.12l3.45-2.55,3.73-.51c2.05-.02,5.99-.2,8.01-.35h.08s.07-.02.07-.02l3.82-.97,3.93.1h.06s.05,0,.05,0l3.99-.44h.04s.03-.01.03-.01l3.88-.8,3.97.1h.08s.07-.01.07-.01l3.9-.78,3.96.15h.06s.05,0,.05,0l3.95-.6,3.96-.04h.03s.02,0,.02,0l4.25-.42h.06s.05-.02.05-.02l4.08-1.27.1-.03.08-.06,3.36-2.69.1-.08.05-.12,1.72-3.94.03-.08v-.08s.49-4.27.49-4.27v-.1s-.01-.09-.01-.09l-.99-4.2-1.24-4.13-.02-.06-.03-.06-2.14-3.74v-.02s-.03-.02-.03-.02l-2.48-3.58-2.7-3.35c-.18-.42-1.64-4.12-1.59-3.95l-1.34-4.15-1.05-4.16-.3-4.29.31-4.26,1.26-4.12.35-1.14c.74-2.11,1.85-5.18,2.56-6.69,1.63-5.18,3.51-10.99,5.35-16.11l.03-.07.03-.16.85-4.16c.87-3.3,2.69-8.22,3.58-12.1l.02-.07.03-.18.57-3.95,1.34-3.88c1.88-9.6,4.17-19.79,5.61-29.44l.09-3.91c.68-4.1,1.19-8.32,2.05-12.36.39-4.17.4-8.32.83-12.44v-.18s.02-3.88.02-3.88l.51-3.94.03-.23v-.32s-.11-3.95-.11-3.95l.2-4.04v-.14s0-.23,0-.23l-.2-3.92Z"/>
    <g>
      <polygon class="cls-4" points="164.99 49.55 160.58 75.7 173.29 111.02 191.73 128.09 214.48 151.21 232.12 177.67 257.48 200.82 318.11 211.84 369.77 206.63 420.63 185.38 433.86 163.33 471.7 128.09 491.18 104.91 501.11 81.76 498.56 62.86 463.21 64.6 432.77 60.63 400.17 52.38 396.61 60.15 382.05 61.91 363.31 59.71 343.46 51.99 318.44 49.55 267.4 63.02 246.16 66.14 241.2 53.77 208.37 56.14 178.1 53.09 164.99 49.55"/>
      <polygon class="cls-4" points="191.33 249.32 130.84 322.31 114.17 391.53 118.43 481.77 134.57 537.15 134.29 558.88 120.88 580.19 127.5 591.32 176.52 595.45 215.59 615.32 294.96 628.55 364.83 626.77 430.4 617.31 478.06 597.61 530.03 592.15 534.18 591.06 537.49 588.86 539.69 582.24 538.59 575.63 536.38 570.12 534.18 566.81 529.84 560.88 527.56 554.68 525.36 546.97 526.46 539.25 533.36 520.79 549.07 429.59 538.63 347.43 519.45 308.05 473.13 252.84 424.27 216.16 314.8 221.76 238.72 211.84 191.33 249.32"/>
    </g>
    <g>
      <polygon class="cls-1" points="385.9 443.24 384.35 438.5 382.45 433.86 379.71 429.63 376.3 425.93 372.5 422.68 368.71 419.39 364.35 416.92 359.77 414.9 355.29 412.7 350.83 410.38 346.13 408.65 341.36 407.11 336.51 405.81 331.89 404.4 327.17 403.28 322.68 401.47 318.04 400.06 313.58 398.12 309.74 395.13 306.04 391.98 304.2 387.46 304.07 382.63 304.47 377.63 306.53 373.03 309.98 369.31 314.44 366.88 319.43 366.06 324.44 365.35 329.45 365.63 334.42 366.46 338.95 368.66 342.81 371.82 345.99 375.7 347.81 380.38 352.02 383.41 357.37 383.61 362.72 383.76 368.07 383.82 373.43 383.72 378.79 383.4 382.52 382.14 383.35 378.17 381.92 373.55 380.88 368.78 378.57 364.5 375.96 360.44 373.37 356.31 369.89 352.9 365.93 350.09 362.03 347.18 357.65 345.08 352.99 343.69 348.51 341.8 343.79 340.63 340.02 336.46 340.02 332.64 339.85 328.82 335.53 324.06 330.39 324.14 325.24 324.45 320.09 324.51 314.93 324.25 310.68 328.82 310.09 332.83 310.54 336.83 307.02 341.53 302.11 342.39 297.58 344.41 292.93 346.17 288.81 348.94 284.56 351.51 280.81 354.77 277.63 358.58 274.88 362.68 272.5 366.98 270.22 371.4 269.32 376.29 268.12 381.11 267.8 386.09 268.17 390.89 268.94 395.62 270.25 400.22 271.87 404.7 273.94 409.01 276.95 412.73 280.06 416.34 283.42 419.79 287.46 422.4 291.67 424.67 295.88 426.92 299.99 429.43 304.35 431.43 308.9 432.99 313.57 434.14 318.04 435.9 322.72 436.99 327.18 438.5 331.63 440.04 335.94 441.89 340.25 443.75 344.41 445.95 347.84 449.19 350.4 453.09 352.11 457.46 352.23 462.16 351.9 467.16 349.97 471.78 346.54 475.35 342.52 478.2 337.81 479.79 332.92 480.76 327.92 481.28 322.98 480.72 318.22 479.4 313.4 478.13 309.44 475.11 305.66 471.9 302.83 467.8 301.12 463.14 296.73 459.8 291.37 460.19 286.02 460.09 280.66 460.16 275.29 460.02 269.93 459.77 266.66 461.87 265.64 465.41 266.3 470.21 268.35 474.62 270.03 479.14 272.31 483.42 275.41 487.14 278.78 490.58 282.34 493.81 286.07 496.89 290.41 499.03 294.57 501.54 299.08 503.31 303.77 504.57 308.48 505.7 312.02 509.97 312.01 515.82 312.07 521.67 316.69 526.05 321.89 525.97 327.09 526.29 332.3 526.15 337.51 526.34 342.31 521.67 342.28 515.83 342.17 509.99 345.68 505.57 350.48 504.21 355.24 502.81 359.94 501.18 364.43 499.04 368.61 496.36 372.72 493.55 376.34 490.12 379.56 486.31 382.35 482.16 384.47 477.63 385.84 472.83 387.32 468.05 387.44 463.04 387.77 458.07 387.79 453.06 387.15 448.09 385.9 443.24"/>
      <path class="cls-1" d="M491.3,490.86l-1.38-4.82c-.17-.79-.79-3.65-1.12-5.08-1.27-3.08-2.61-6.14-4.06-9.15-.53-1.18-2.36-.48-2.06.71l2.13,9.71-.08-.36c.03,2.92.48,7.25.93,10.15l-.05-.36c.04,2.83.03,7.09.05,9.94-.14,1.31-.5,6.28-.88,8.89-1.02,3.51-3.41,12.42-3.63,14.13l-1.42,4.2-2.34,4.11-2.22,4.28c-.3.44-1.84,2.91-2.39,3.77l-2.77,3.44c-1.48,1.41-10.13,9.57-10.48,9.93l-3.7,3.06c-3.53,2.46-8.49,5.59-12.12,7.92-1.5.72-2.98,1.46-4.46,2.21l-4.24,2.65c-1.13.49-3.88,1.67-4.04,1.79l-4.47,1.38-.3.08-4.67,1.92.44-.11c-2.78.78-7.97,2-9.42,2.62-3.33.42-6.66.8-10.01,1.23-1.28.17-1.22,2,0,2.18,3,.4,7.43.93,10.46.98l10.04-.98.44-.11c-.22.06,5.92-1.57,4.59-1.21l4.99-.85.48-.15,4.79-1.59.51-.24,4.52-2.26-.33.17c1.56-.61,3.12-1.23,4.67-1.88l.46-.24,6.62-3.72c2.38-1.32,4.72-2.71,6.98-4.23l3.97-3.1c3.79-3.47,7.6-6.98,11.31-10.58.18-.1,3.31-4.11,3.55-4.42,2.9-4.26,5.12-9.43,7.47-13.97.44-.86,1.55-5.13,1.82-6.09.73-4.44,1.94-10.67,2.76-15.15.51-6.77-.19-13.8-1.29-20.47l-.05-.36ZM435.23,570.11l.24-.11s-.06.03-.24.11Z"/>
      <path class="cls-1" d="M551.72,408.76c.16-2.84.26-5.69.3-8.54l-.06-.39-.61-3.72.05-3.85v-.17s-.02-.25-.02-.25l-.39-4.12v-.14s-.05-.2-.05-.2l-.68-3.71-.04-3.85v-.2s-.03-.26-.03-.26l-.51-4.11-.03-.22-.07-.28c-1.5-5.25-2.4-10.93-3.45-16.3-.56-1.89-1.63-5.87-1.99-7.8-1.17-3.41-2.8-8.56-3.69-12.07l-.08-.29-.13-.29-1.66-3.72-1.54-3.77-.07-.16-.09-.18-1.78-3.48-1.43-3.67-.18-.46-.29-.43-2.23-3.25c-.99-1.78-2.79-5.21-3.52-6.95l-.08-.18-.11-.19-2.11-3.56-.13-.22-.16-.21-4.99-6.51c-1.41-1.95-3.69-5.4-5.25-7.24l-2.76-2.77-2.61-3.18c-6.12-5.98-11.8-11.76-17.56-18.04l-.2-.2-.22-.17-3.02-2.41-2.59-2.81-.28-.27-3.08-2.8-.12-.11-.11-.09-3.1-2.44c-2.99-3.01-6.08-6.06-9.24-8.88.08.08-2.43-1.86-3.11-2.34l-2.69-2.72-.25-.25-.27-.2-3.37-2.47c-5.87-5.32-14.87-12.76-21.42-19.16-3.08-2.42-6.25-5.17-8.9-8.06l-2.02-2.39c5.99-4.32,8.13-12.46,4.68-19.25-1.92-3.77-5.19-6.4-8.92-7.61,1.26-2.23,2.49-4.48,3.67-6.75l2.14-3.12,2.63-2.96c2.46-3.34,5.51-6.54,8-9.91,1.31-1.31,3.23-3.12,4.31-4.47,1.36-1.59,2.76-2.99,4.15-4.45l3.11-2.49.3-.24.21-.25,2.6-3.09c2.62-2.26,5.01-4.87,7.52-7.15,2.63-2.4,5.6-4.76,8.19-7.29,2.69-3.19,5.99-6.12,8.72-9.32l.19-.22,2.42-3.21,2.88-2.74.17-.16.11-.14,2.68-3.3c1.55-2.39,3.52-5.54,4.63-7.19l2.64-3.35.22-.27c1.05-2.19,3-5.91,4.21-8.02l.08-.3,1.13-4.05,1.38-3.86.09-.24.04-.19,1.17-6.29c.38-2.33.87-4.66,1.05-7l-.37-4.24-.02-.2-.03-.14c-.41-2.17-1.44-6.29-2.08-8.42l-.09-.33-.14-.25-2.1-3.73-.1-.17c-1.11-1.53-2.91-3.85-4.12-5.24-1.49-1.75-2.96-3.39-4.47-5.04l-3.21-2.87-3.32-2.74-.09-.08-.06-.04c-1.78-1.26-5.36-3.71-7.26-4.8l-7.56-4.08-.09-.05-.05-.02-3.95-1.77-4.05-1.52-.12-.05-.09-.02-4.13-1.07-.1-.03h-.06s-4.26-.75-4.26-.75l-4.3-.47h-.12s-.08-.01-.08-.01l-4.27-.03c-2.26.34-4.52.82-6.73,1.36-2.15.55-4.28.94-6.42,1.41l-4.11,1.24-.17.05-.14.07-3.77,1.95c-3.93,1.45-7.86,3.15-11.58,5.07l-3.92.66-4.03.52-3.67-.33-3.37-1.58-3.11-2.5-3.34-2.52-.07-.05-.05-.03-3.58-2.15-.17-.1c-2.11-.53-6.05-1.79-8.13-2.43l-.16-.05h-.15s-4.17-.31-4.17-.31h-.09s-.07,0-.07,0c-2.81.13-5.63.28-8.44.47-5.35.81-11.14,1.85-16.37,3.19-3.87,1.92-7.83,3.79-11.61,5.89l-3.06,2.89-2.17,2.4c-3-1.99-7.19-4.96-10.11-6.46l-3.86-1.71-3.64-2.17-.07-.04-.07-.02-4.01-1.51-.06-.02h-.06s-4.16-.91-4.16-.91l-4.01-1.35-.09-.03h-.09c-2.19-.24-6.53-.6-8.74-.59h-.21s-.19.09-.19.09l-3.92,1.96-3.78,2.22-.14.08-.11.14c-1.79,2.41-3.69,4.78-5.33,7.28l-1.08,3.32-3.21-.75c-2.69-.89-5.39-1.77-8.11-2.57l-4.06-.73-3.95-1.26-.06-.02-.09-.02-4.03-.69-3.87-1.44-.27-.06-4.07-.54-3.96-1.16-.07-.02-.1-.02-4.16-.62c-2.8-.65-7.05-1.67-10.33-2-3.32-.75-7.57-.49-10.28-1.26l-4.12-1.01-.17-.04h-.21s-4.1-.05-4.1-.05l-4.08-.56h-.1s-.14-.01-.14-.01l-4.07.02-4.09-.56-.19-.03-.24.02-4.06.4-4.12-.2h-.25s-.28.05-.28.05l-3.03.71c-3.2.7-6.49,1.06-9.69,1.93l-3.87,1.66-.17.07-.19.13-3.5,2.39-.37.25-.26.43-2.17,3.61-.13.22-.09.29-1.2,3.96-.04.13c-.69,4.39-1.34,8.87-1.65,13.3l.24,4-.5,4.03-.02.15v.23c.08,2.94.16,5.88.39,8.81l.67,4.13c.45,4.05.93,6.45,1.94,10.65.46,2.18,1.12,4.28,1.7,6.41,1.78,3.97,3.51,7.93,5.22,11.93,2.06,3.9,4.45,7.3,7.07,10.9l1.97,3.6c4.72,5.65,9.68,11.23,14.54,16.77l5.98,5.58,2.69,2.96.07.07.12.12,2.83,2.67,2.56,2.95,2.53,3.15.08.1.14.14,2.89,3.01c-.11-.12,2.31,2.26,2.81,2.73,1.66,1.99,3.29,4,4.9,6.04l1.58,2.52c.54.91,1.17,1.73,1.77,2.58,1.2,1.62,2.21,3.23,3.27,4.84l1.75,3.42.38.84c-2.64.92-5.06,2.55-6.92,4.9-4.59,5.77-4.32,13.85.25,19.29l-1.05.34c-.42.13-.83.29-1.23.46l-4.57,1.97-.4.18-3.88,1.81-4.05,1.43c-.33.12-.66.25-.98.39l-4.54,2.01c-.5.22-.99.47-1.45.75l-3.86,2.28-4.01,2.01c-.25.13-.5.26-.74.4l-4.3,2.49c-.31.18-.61.37-.9.57l-4.09,2.81-.21.15-4.04,2.89-.3.22-3.78,2.87-3.57,2.53-3.9,2.47c-.76.48-1.47,1.04-2.13,1.66l-2.83,2.68-3.21,2.22c-.41.29-.81.6-1.2.93l-3.75,3.25c-.18.16-.36.32-.54.49l-3.58,3.44-.3.3-3.3,3.38-3.15,3.01-3.49,3c-.56.48-1.08,1.01-1.56,1.57l-2.62,3.12-3,2.75c-.53.49-1.03,1.02-1.48,1.59l-2.41,3.03-2.86,2.62c-.49.45-.94.93-1.36,1.44l-3.13,3.83c-.22.27-.43.55-.63.84l-2.08,2.97-2.63,2.53c-.65.63-1.24,1.32-1.76,2.06l-2.44,3.51-2.77,3.24c-.25.29-.49.59-.71.9l-2.9,4.02c-.2.28-.39.56-.57.85l-2.6,4.23c-4.02,6.53-1.98,15.09,4.55,19.11,6.53,4.02,15.09,1.98,19.11-4.55l2.33-3.79,2.27-3.14,2.85-3.33c.3-.35.58-.71.84-1.09l2.06-2.96,2.61-2.52c.64-.62,1.23-1.3,1.74-2.03l2.55-3.64,2.17-2.65,2.93-2.69c.54-.49,1.03-1.03,1.48-1.59l1.05-1.32c-.53.74-.95,1.35-1.12,1.63-5.62,6.6-10.1,14.18-15.08,21.24l-1.74,3.47c-1.45,2.43-3.01,4.79-4.49,7.2l-1.92,3.68-.1.2-.1.24-1.51,3.66-1.74,3.55-.18.39c-.72,1.89-2.23,5.54-3.15,7.35l-.24.62-1.2,3.72-1.53,3.56c-.94,2.76-1.75,5.58-2.72,8.33-1.01,3.59-1.36,7.24-2.22,10.82-.77,2.95-1.34,7.2-1.97,10.31-.05.18-.1.69-.09.87.03-.14-.08,3.18-.08,3.94l-.49,3.72-.06.48c.11,3.5.31,5.68-.03,9.22-.55,4.63-.42,12.48-.2,15.58l-.27,4.16-.02.26v.15s.06,4.16.06,4.16c1.07,8.22,1.02,16.88,1.58,25.14l.02.29.02.14.63,3.83v3.73s.01.52.01.52l.07.35c0-.14.6,3.26.76,3.92l.19,3.69.02.36.03.16c.41,2.14,1.05,6.15,1.27,8.32l.02.08.88,4.01.53,3.86.04.28.02.08.93,4.01.61,3.88.04.26c.83,3.5,2.23,8.78,3.37,12.18l.65,3.79.05.28.03.11,1.19,3.99c.72,2.01,1.6,4,2.25,5.98.76,1.99,1.28,4.13,1.95,6.19.84,1.87,2.48,5.57,3.19,7.5l1.36,3.94,1.62,3.92.07.17.03.05,1.74,3.27c.16,2.11.58,5.49.85,7.45-.18,2.04-.59,5.46-.94,7.44l-1.43,3.5-1.76,3.53c-.66.89-3.58,5.03-4.84,6.73-1.12,2.82-2.4,5.58-3.54,8.38l-.8,4.25-.05.29.05.25.8,4.23.03.15.04.11,1.58,3.99.14.37.28.22,3.43,2.62.22.17.23.06,4.11,1.1.13.03h.09c2.88.22,5.75.51,8.61.83l4.32.16h.05s.03,0,.03,0l4.3-.12,4.22.26,4.22.71h.05s.04.01.04.01l4.35.37,4.29.05,4.19.79h.06s.05.02.05.02c4.24.14,8.46,1.02,12.7,1.27,3.53,1.81,7.14,4.06,10.28,6.49l3.57,2.09.04.03c4.64,1.93,9.71,4.24,14.38,6.2,1.56.68,3.15,1.26,4.73,1.89l3.68,1.93.13.07.22.05,4.06,1.01c3.05,1.07,8.09,3.27,11.96,4.2,8.03,1.57,16.21,3.95,24.14,6.08l.08.02.36.04,3.83.48,4.04.94h.04s.36.05.36.05l3.81.44,4.07.87.11.02.47.03,3.67.23,3.95.86.08.02c7.02.6,14.28,1.54,21.33,2.24l.51-.03,3.79-.2,3.71.18,4.1.5c4.51.1,9.04.17,13.53.11l3.89-.3,4.03-.03h.22c5.39-.76,10.73-.44,16.98-.8l4.33-.52,4.04-.77c8.36-.46,17.11-1.9,25.26-3.3l3.71-.73.53-.1.12-.04,3.85-1.34c3.67-.69,8.45-1.71,11.89-2.86,4.02-.79,8.31-2.15,12.18-3.38l4.02-1.18,4-1.31,3.82-.79.35-.07.09-.04,3.88-1.55-.16.05,3.98-1.26.25-.08,3.72-1.77,3.82-.96.19-.05.05-.02,3.86-1.58.16-.06.04-.02,3.56-2.05,3.77-1.32.17-.06.08-.05,3.56-2.11c2.11-.99,6.07-2.98,8.05-4.12l3.45-2.55,3.73-.51c2.05-.02,5.99-.2,8.01-.35h.08s.07-.02.07-.02l3.82-.97,3.93.1h.06s.05,0,.05,0l3.99-.44h.04s.03-.01.03-.01l3.88-.8,3.97.1h.08s.07-.01.07-.01l3.9-.78,3.96.15h.06s.05,0,.05,0l3.94-.6,3.96-.04h.03s.02,0,.02,0l4.25-.42h.06s.05-.02.05-.02l4.08-1.27.1-.03.08-.06,3.36-2.69.1-.08.05-.12,1.72-3.94.03-.08v-.08s.49-4.27.49-4.27v-.1s-.01-.09-.01-.09l-.99-4.2-1.24-4.13-.02-.06-.03-.06-2.14-3.74v-.02s-.03-.02-.03-.02l-2.48-3.58-2.7-3.35c-.18-.42-1.64-4.12-1.59-3.95l-1.34-4.15-1.05-4.16-.3-4.29.31-4.26,1.26-4.12.35-1.14c.74-2.11,1.85-5.18,2.56-6.69,1.63-5.18,3.51-10.99,5.35-16.11l.03-.07.03-.16.85-4.16c.87-3.3,2.69-8.22,3.58-12.1l.02-.07.03-.18.57-3.95,1.34-3.88c1.88-9.6,4.17-19.79,5.61-29.44l.09-3.91c.67-4.1,1.19-8.32,2.05-12.36.39-4.17.4-8.32.83-12.44v-.18s.02-3.88.02-3.88l.51-3.94.03-.23v-.32s-.11-3.95-.11-3.95l.2-4.04v-.14s0-.23,0-.23l-.2-3.92ZM411.23,39.4l.22-.03.24-.11c3.83-1.93,7.75-3.47,11.79-4.94l.1-.05,3.7-1.84,3.99-1.13c2.87-.52,10.01-2.02,12.06-2.4l4.16.09,4.07.51,4.03.78c.26.08,3.18.89,3.84,1.07l3.87,1.55,3.7,1.76,7.3,4.13c1.73,1.06,5.06,3.43,6.74,4.67l3.14,2.71,3.08,2.87c1.72,2.12,5.42,6.19,7.51,9.4l1.09,2.03c.03.15.07.31.1.46l-1.35,2.2c-1.02.4-2.02.82-3.02,1.25-5.64.18-8.68.47-13.82-.16l-4.65-.23-4.55-.91-.78-.08-4.67.02-9.2-1.75c-3.41-.37-6.85-.52-10.28-.76-2.36-.68-9.99-1.78-14.28-2.47-3.02-.54-12.45-2.21-14.47-2.44l-4.71-1.59-.27-.07-4.84-.57-4.61-1.62-1.39.63-1.64,4.11-3.69,2.06s-.08.03-.12.04c1.27-1.47,2.4-3.04,3.46-4.68,2.66-4.3,6.15-8.19,6.46-13.47,2.34-.26,5.75-.66,7.69-1.03ZM334.26,39.08l3.05-2.79c2.03-1.05,8.72-4.05,10.72-5.2,5.1-1.1,11.36-2.35,16.14-2.88,2.56.03,6.17-.48,8.15-.32l3.99.35,3.84,1.28,3.83,1.15,3.32,2.08c1.72,1.27,4.92,3.94,6.52,5.26l.17.09,3.75,1.84.23.11.28.03,1.08.12c-2.25,2-4.59,5.2-4.98,6.12-1.55,2.83-3.58,7.1-4.2,9.5-.6,1.34-1.15,2.72-1.61,4.15l-3.55.66-4.57-.54h-.17s-4.5-.05-4.5-.05l-4.43-1.32-.24-.04-4.39-.7-4.25-1.83-.17-.06-4.28-1.45-4.32-2,.24.11-4.12-2.41c-.49-.21-4.56-2.24-5.03-2.32l-4.6-1.27-.26-.05-4.72-.84-.59-.04-2.28-.02v-.29s0-.13,0-.13l-.33-3.9c.82-.88,1.86-2,2.25-2.41ZM284.7,30.98l3.58-2.15,3.67-1.88,4.12.12,4.23.36,4,1.36,4.17.94,3.87,1.5,3.61,2.2.04.02.05.02,3.84,1.74,2.66,1.59c.91.51,1.76,1.14,2.63,1.73l4.7,3.21.32,3.76v.28s-.42,0-.42,0c-4.57.08-10.19.53-14.73,1.28l-.34.07-8.11,2.03c-8.1,2.29-16.33,4.18-24.31,6.93l.28-.07-.47.11c-.05-.56-.09-1.11-.15-1.66l.04.2c-.05-1.61-.08-3.23-.3-4.82-.79-3.21-1.26-5.58-2.92-8.51-.02-.03-.05-.05-.07-.07l1.15-3.64c.83-.89,3.41-4.87,4.88-6.66ZM165.82,42.16l1.04-3.74,1.72-3.01,2.9-2.07,3.63-1.65c1.94-.38,8.16-1.7,11.72-2.61l3.95.1h.16s.12,0,.12,0l4.01-.48,3.97.46.15.02h.11s4.11-.12,4.11-.12l4.04.47h.12s.09.01.09.01l4.05-.04c6.42,1.69,13.21,1.44,19.69,2.71,1.75.24,3.47.71,5.21,1.04l4.1.52,3.96,1.07.11.03h.08s4.06.46,4.06.46l3.85,1.34.12.04h.1s4.1.62,4.1.62l3.95,1.17.08.02h.06s4.16.67,4.16.67c2.08.73,5.45,1.39,8,2.36l3.18.67c-.28,1.44-.37,2.88-.2,4.32.2,1.51.65,2.96,1.05,4.42l-.05-.27c.25,1.5.54,2.99.9,4.47.18.6.42,1.18.66,1.76l-.98.24c-8.99,2.91-18.21,6.34-27.23,5.6-1.37-.32-2.75-.63-4.11-.98l-2.69-2.81.25-4.25-1.23-1.16-5.18.64c-5.15-.11-14.32.18-20.09.38h.21s-4.99-.41-4.99-.41l-4.96-.63h-.38s-4.62.17-4.62.17c-3.09-.59-7.04-1.17-10.21-1.5.24.03-3.64-.06-4.71-.04-4.61-.96-9.51-1.98-14.07-3.14-1.39-.58-2.76-1.17-4.16-1.72l.43.28c-1.31-.84-2.62-1.69-3.97-2.49-.17-.44-.37-.88-.56-1.31.08-.71.16-1.27.22-1.61ZM228.52,163.74l-1.65-2.5c-1.88-2.38-3.88-4.69-5.89-6.96-1.49-1.34-4.29-4.05-5.74-5.53l-2.56-3.05-2.8-3.1-.14-.16-.1-.09-2.97-2.69-2.7-2.86-.12-.13-.08-.08-6.12-5.47c-4.68-5.1-9.24-10.2-13.9-15.3l-1.94-3.38c-2.71-3.71-5.11-6.76-7.17-10.53-.88-1.91-4.15-9.3-5.07-10.9-1.28-3.97-2.25-7.94-3.19-12.01-.3-2.18-.94-6.13-1.38-8.26-.29-2.66-.3-6.43-.52-7.8l.44-4.23.03-.25-.02-.2-.35-4.25c.05-.64.22-2.44.42-4.46.66.65,1.35,1.29,1.99,1.96,1.54,1,3.13,1.93,4.69,2.9,2.57.92,5.07,1.89,7.81,2.54,2.72.73,5.4,1.29,8.13,1.67l5.05-.08c1.88.06,6.86.54,10.23.71l4.98-.71h4.76s5.09-.19,5.09-.19h.21c6.54-1.04,13.43-1.88,20.05-1.9l3.82-.53-.29,3.41.31.87,2.26,2.49c-.23,1.52.28,3.91.49,4.82l-.08-.25c.2,1.63.67,3.18,1.09,4.75.25.89,1.01,4.22,1.36,5.18l1.95,4.21,1.04,4.5.12.38c1.02,2.38,2.53,6.49,3.27,8.94.62,2.49,1.94,7.22,2.75,9.65l1.86,4.42,1.41,4.57c1.51,4.05,3.23,9.71,4.36,13.88l.12.33,2.03,4.35,1.38,4.45,1.15,4.7.12.37,2.02,4.32c.66,2.5,1.98,7.05,2.74,9.41,1.72,3.98,3.85,9.49,5.19,13.62l1.35,4.68c.4,1.36,2.39.77,2.11-.53-1.06-5.83-3.64-13.87-5.52-18.81-.62-2.34-1.76-7.12-2.26-9.48l-.11-.32-1.85-4.29c-.53-2.74-1.54-6.88-2.32-9.48l-.1-.27c.07.19-1.54-3.61-1.85-4.31-.58-2.43-1.81-7.1-2.47-9.43-.77-2.3-2.2-6.97-2.85-9.32l-.08-.23-1.78-4.42c-.71-2.37-1.93-6.97-2.47-9.32l-1.55-4.81-1.74-4.43-1.04-4.58-.17-.51c.08.22-1.57-3.51-1.94-4.24-.91-3.35-1.46-7.14-3.14-10.27.58.17,1.15.35,1.74.49,9.29,1.33,20.17-1.3,28.46-3.06l4.76-.62.28-.07c8.05-1.91,16.45-3.09,24.45-5.22,2.65-.58,5.33-1.19,8-1.87l4.44-.73,4.59-.43c2.65-.2,6.43-.48,9.18-.58l4.37.52-.26-.05,4.54.85,4.06,1.54-.21-.1,4.33,2.01.24.11,4.51,1.57.25.09,4.65,1.08-.17-.06,4.56,1.45.48.12,4.73.32,4.49.95.45.05c-.27,0,4.41-.27,4.69-.31l4.67.31.4-.02c1.24-.27,2.73-.65,4.21-1.05.08-.01.15-.03.23-.06,1.78-.49,3.56-1.03,4.97-1.54l1.6-.92c-1.16,3.84-2.4,7.64-3.61,11.47-.49,2.7-1.22,6.7-1.9,9.39-.47,2.36-1.28,7.1-1.64,9.55-.82,3.23-1.77,6.43-2.56,9.66l-.38,4.62-1.29,4.35-.09.39c-.28,2.63-.93,6.74-1.49,9.34-.65,2.34-1.76,7.05-2.23,9.44l-.04.22-.5,4.81c-.51,2.43-1.34,7.06-1.7,9.43-.64,3.13-1.29,6.29-1.98,9.45-.29,1.35,1.69,1.83,2.1.58,1.46-4.1,3.16-9.82,4.13-14.05l1.33-4.64.04-.19.79-4.62c.62-2.34,2-6.98,2.75-9.25.7-2.7,1.53-6.69,1.96-9.5.24-.62,1.54-4.68,1.48-4.44.09-.14.48-3.97.61-5.1.95-3.14,1.94-6.27,2.76-9.44.36-2.36,1.2-7.06,1.69-9.39.68-2.73,1.54-6.66,1.91-9.44,1.98-6.04,2.3-12.02,2.77-17.94l3.15,1.17.23.06,4.74.76,4.48,1.89c4.89,1.13,9.67,2.51,14.46,4.04,4.91,1.46,9.73,2.87,14.52,4.53l9.74,1.78c1.47.42,7.26,2.11,10.09,2.56l4.54.13,4.52.95.68.08,4.9.15c5.17.49,10.29-.24,15.37-1.21l1.23-.36c1.36-.88,2.87-1.62,4.15-2.64l.24,1.22.25,3.75c-.34,1.97-.66,3.95-1.07,5.9l-1.23,5.94-1.43,3.77-.03.07-.04.13-1.13,3.73-2,3.47-1.85,3.52-2.53,3.08c-1.66,2.33-3.25,4.72-4.8,7.12l-2.5,2.97-3.01,2.77-.18.17-.18.24-2.52,3.23-2.04,2.2c-1.42,1.59-3.1,2.88-4.54,4.51l-2.09,2.26c-1.28,1.12-2.5,2.27-3.84,3.35-4.26,3.28-8.04,7.32-12.11,10.8l-.16.19-2.54,2.92-3.11,2.41-.17.13c-3.05,2.95-5.9,6.36-9.01,9.17l-.16.15-.18.22c-1.85,2.54-4.06,4.75-6.09,7.19l-1.93,2.43-2.8,3.04-.15.16-.16.23-2.45,3.46c-1.45,2.55-2.83,5.15-4.35,7.67l-.08.13-.1.23-1.29,2.85c-.96.27-1.91.63-2.83,1.1l-7.95,4-3.92,1.63-4.35,2.14-3.11,1.06-4.16,1.14-5.17,1.64-3.78,1.36-4.79.82-4.36,1.63-7.79,1.11-5.64,1.24-3.91.7-4.31.51-4.19.63-3.73.04-5.31.23-4.59.41-4.61-.13-4.72.33-3.77-.13-4.56-.39-5.58-.12-3.84-.26-8.59-1.39-4.42-.97-4.65-.75-4.46-1.41-5.06-.96-3.33-.96-3.06-1.22-3.57-1.94-9.63-4.42-2.78-1.42-10.31-8.17c-1.8-1.43-3.82-2.37-5.92-2.87l-.06-.13-1.81-3.79-1.99-3.7c-1.2-1.86-2.51-3.73-3.8-5.44-.6-.82-1.24-1.62-1.76-2.46ZM542.35,453.69c-.07.27.03,4.22.02,4.58-.36,2.33-1.48,10.05-2.02,13.95-.46,3.14-1.94,12.18-2.11,14.11l-1.19,4.09-.07.26v.16s-.41,4.24-.41,4.24c-.43,2.75-2.24,8.55-2.96,12.21l-.63,4.13-1.17,3.92c-1.58,5.41-2.7,11.18-4.5,16.3l-1.14,4.11-.5,1.79.08-.03-.67,2.47-.03.1v.08s-.19,4.42-.19,4.42v.06s.39,4.44.39,4.44v.07s.02.06.02.06l1.16,4.25,1.43,4.17,1.74,4.09.09.15s2.92,3.51,2.78,3.34l2.46,3.54c-.1-.18,1.92,3.36,2.09,3.64l1.22,4.03.97,4.07-.45,4.09-1.63,3.74-3.17,2.55-3.92,1.23-4.19.38c.24,0-4-.02-3.96-.02h-.04s-.04,0-.04,0l-3.93.54-3.98-.21h-.07s-.08.01-.08.01l-3.9.72-3.98-.16h-.08s-.08.01-.08.01l-3.93.74-3.91.37-4-.16h-.1s-.11.02-.11.02l-3.86.92-3.93.18-4,.04h-.04s-.06,0-.06,0l-4.03.49-.22.03-.2.14-3.64,2.51c-1.97,1.04-5.97,2.86-8,3.67h-.02s-.07.05-.07.05l-3.53,1.86-3.94,1.07-.08.02-.17.08-3.62,1.74-3.74,1.21-4.08.7-.09.02-.25.09-3.69,1.34-4.04.84-.17.05-3.67,1.05-4.08.41-.3.06c-2,.46-6.11,1.2-8.13,1.54l-8.2,1.52.25-.05-4.28.48-4.1.74-8.09.86h-.11s-.51.14-.51.14l-3.56.89-3.39.36c-8.49.54-16.64,1.71-25.16,1.83h-.23s-.39.08-.39.08l-3.94.65-3.97.43c-1.74-.01-8.92.16-12.48.34.12-.02-3.01.34-3.85.45l-3.94.11h-.27s-.14.02-.14.02l-4.15.43c-1.71-.11-8.41.37-11.86.37l-3.8-.27-.32-.02h-4.23s-.39,0-.39,0h-.14s-3.96.42-3.96.42c-5.08-.17-9.99-.32-15.1-.58-1.76-.08-3.48-.04-5.21-.07l-3.69-.48-.49-.06h-.14s-4.07.11-4.07.11l-3.68-.44-.35-.04-4.13-.11-3.78-.53-.32-.05-4.12-.14c-3.57-.64-8.56-1.37-11.96-2.11-3.28-.49-9.96-1.76-12.28-1.83-4.11-.98-8.14-2.01-12.15-3.31l-3.96-.78-3.61-1.66c-1.66-.61-3.37-1.09-5.02-1.73-4.52-1.59-10.39-4.02-14.35-5.55l-3.58-1.98c-1.53-1.18-3.52-2.43-5.12-3.48-1.58-1.1-3.94-2.16-5.63-3.13-4.33-.26-8.66-1.26-13.04-1.4l-4.21-.83-.08-.02h-.09s-4.3-.09-4.3-.09l-4.23-.4-4.24-.75h-.05s-.06-.01-.06-.01l-4.32-.3h-.04s-.05,0-.05,0l-4.3.07c-4.13-.1-8.46-.92-12.65-1.28l-3.72-1.1-2.87-2.31-1.3-3.55-.63-3.84.83-3.78c1.21-2.47,2.39-4.95,3.53-7.44,1.75-2.23,3.55-4.44,5.21-6.73l1.96-3.55.02-.03.05-.1,1.7-3.71.08-.18.05-.28.79-4.05.6-4.08.03-.2-.03-.31-.34-3.99-.16-4-.02-.43-.23-.5-1.69-3.59-1.35-3.79c-.54-1.93-1.83-6.2-2.57-8.02l-1.42-3.68c-.5-2.02-.93-4.04-1.57-6.06-.56-2.02-1.24-3.92-1.88-5.85l-.91-3.71-.48-4.03-.02-.16c-.5-2.22-1.21-3.84-1.55-6.22l-1.16-5.79-.43-4.06v-.04s-.05-.23-.05-.23l-.69-3.82-.36-4.06v-.06s-.05-.26-.05-.26l-.64-3.82-.33-4.17-.48-3.86-.03-4.01v-.24s-.07-.41-.07-.41l-.57-3.61.13-3.82v-.29s-.05-.45-.05-.45l-.52-4.14c-.17-5.91.19-16.86-.69-24.48l.03-3.69.34-4.01c.13-3.5-.12-7.17.08-10.57.33-4.52,1-9.74.73-14.43l.51-3.7.04-.29v-.33s.1-3.69.1-3.69c1.21-6.4,2.53-13.12,3.93-19.46.84-2.44,1.65-4.89,2.42-7.35l1.57-3.59.1-.22.09-.26,1.19-3.61,1.68-3.61,1.52-3.76c2.04-4.09,1.91-3.82,3.29-7.3l1.8-3.53c1.5-2.36,2.96-4.74,4.38-7.15l.08-.17,1.64-3.36c4.75-6.6,8.62-13.71,13.91-19.92,1.09-1.67,3.39-4.85,4.63-6.57l2.55-2.81.25-.27.15-.21,2.29-3.22c1.45-1.7,4.01-4.5,5.43-6.02l.12-.15,5.05-6.58c3.89-3.79,11.49-12.62,17.07-17.74l2.58-3.08c1.84-1.83,3.66-3.67,5.45-5.54l3-2.35.47-.37.04-.05,2.59-1.3c.29-.14.57-.3.85-.46l3.57-2.11,3.31-1.47,1.72-.61-2.02,3.4-2.48,3.37c-.31.43-.61.88-.87,1.34l-2.24,3.92-2.29,3.57-2.64,3.78c-.36.52-.69,1.06-.97,1.62l-2.1,4.11-2.25,4.02c-.13.23-.24.45-.36.69l-2.14,4.37c-.09.19-.18.39-.27.58l-1.69,3.9-4.37,8.1c-.45.84-.81,1.73-1.08,2.64l-1.02,3.46-1.64,3.2c-.37.72-.68,1.48-.92,2.25l-1.35,4.41-1.42,4.06-1.7,4.26c-.1.26-.2.52-.29.79l-1.53,4.63c-.19.58-.34,1.17-.46,1.77l-.82,4.31-1.12,4.22c-.07.28-.14.56-.2.84l-2.94,14.28c-.18.88-.27,1.78-.28,2.68l-.03,4.18-1.07,8.61c-.15,1.08-.17,2.19-.06,3.28l.4,3.91-.15,3.9c-.01.31-.01.62,0,.93l.14,4.88c.02.64.08,1.28.19,1.91l3.41,19.27c.14.82.36,1.63.65,2.41l1.39,3.78.92,3.93c.14.6.32,1.19.54,1.77l1.73,4.57c2.1,5.55,7.38,8.97,12.99,8.97,1.64,0,3.3-.29,4.92-.91,7.17-2.72,10.79-10.74,8.07-17.91l-1.4-3.7-.9-3.87c-.13-.56-.29-1.1-.49-1.64l-1.25-3.41-3.01-16.92-.1-3.45.17-4.4c.03-.65,0-1.3-.06-1.94l-.33-3.23.44-3.21.04-.35.53-4.83c.05-.47.08-.95.08-1.43l.02-3.55,2.6-12.61,1.14-4.29c.09-.32.16-.65.22-.98l.74-3.9,1.11-3.36,1.65-4.14c.07-.18.14-.37.21-.55l1.61-4.59c.06-.17.12-.34.17-.52l1.07-3.5,1.67-3.26c.39-.77.71-1.57.96-2.4l.98-3.33,3.92-7.25c.2-.36.38-.74.54-1.12l1.81-4.18,1.83-3.74,2.19-3.91.24-.46,1.79-3.49,2.25-3.22.3-.44,2.63-4.09c.13-.2.25-.4.37-.61l2.02-3.53,2.42-3.28c.27-.37.53-.75.76-1.15l2.14-3.61,2.32-3.16,2.86-3.6c.24-.3.46-.61.68-.93l2.55-3.81,2.38-3.27,5.84-6.89,1.23-1.35,2.11.88,6.17,1.86,5.37,1.08,4.95,1.57,5.56.86,4.35.95,10.58,1.74,6.31.49,5.2.1,4.4.37,6.49.25,4.85-.34,4.98.14,5.33-.5,4.15-.19,5.62-.06,5.56-.85,4.5-.53,5.62-.98,4.76-1.08,10.55-1.53,4.68-1.74,4.67-.8,5.52-2.01,3.96-1.27,4.31-1.18,6.42-2.16,4.74-2.37,3.91-1.63,3.88-1.94c.36.34.69.64.86.8,2.81,3.55,6.35,7.1,9.79,9.99l2.35,1.92c5.14,5.05,10.76,9.95,16.19,14.62,1.53,1.59,3.89,3.52,5.57,5.04l.14.11,3.07,2.28,2.69,2.75.21.22.26.2,3.32,2.53c1.14,1.15,6.34,6.03,8.63,8.49l.23.18c-.17-.12,2.39,1.9,3.05,2.42l2.89,2.66,2.69,2.95.22.24.27.22,3,2.42c5.45,5.97,11.28,12.09,17.05,17.7l2.52,3.05.15.18.15.15,2.7,2.68c1.27,1.75,3.55,4.79,4.65,6.45-.27-.33,4.01,5.19,4.9,6.31l1.94,3.24c.92,1.99,2.75,5.59,3.82,7.4l.24.39,2.09,3.02,1.34,3.37.18.4,1.81,3.5c.75,1.93,2.29,5.36,3.16,7.31,1.1,3.83,2.29,7.77,3.71,11.51.5,2.13,1.52,6,2.18,7.98.22,1.65,1.74,8.76,2.54,11.97-.06-.18.77,2.87,1.03,3.76l.52,3.7.1,3.9v.38s.07.31.07.31l.78,3.91c.07.68.34,3.01.43,3.68l.05,3.98v.4s.06.29.06.29l.72,3.78c.03,2.72-.03,5.44-.07,8.16l.31,3.99-.1,3.9v.19s0,.09,0,.09l.21,3.91-.39,3.8-.03.26v.17s.09,4.08.09,4.08c-.15,3.71-.49,9.7-.39,11.83-.82,4.02-1.03,8.44-1.63,12.44Z"/>
    </g>
  </g>
  <g class="cls-3">
    <path class="cls-1" d="M580.06,104.36l13.89,13.89-250.06,249.14,250.06,250.06-13.89,13.89-250.06-250.06-250.06,250.06-13.89-13.89,250.06-250.06L66.04,118.25l13.89-13.89,250.06,250.06,250.06-250.06Z"/>
  </g>
</svg>