<svg id="レイヤー_1" data-name="レイヤー 1" xmlns="http://www.w3.org/2000/svg" viewBox="0 0 200 200"><defs><style>.cls-1{fill:#333;}.cls-2{fill:#c8ccd5;}.cls-3{fill:#6bd1ed;}.cls-4{fill:#646464;}</style></defs><title>my-mac</title><path class="cls-1" d="M180.33,146.06H18.67v-97A8.09,8.09,0,0,1,26.75,41h145.5a8.09,8.09,0,0,1,8.08,8.09v97Z"/><path class="cls-2" d="M184.37,162.23H14.62A12.13,12.13,0,0,1,2.5,150.1v-4h194v4A12.14,12.14,0,0,1,184.37,162.23Z"/><rect class="cls-3" x="26.75" y="49.06" width="145.5" height="88.92"/><path class="cls-4" d="M75.25,146.06a8.08,8.08,0,0,0,8.08,8.08h32.34a8.08,8.08,0,0,0,8.08-8.08Z"/></svg>