<svg id="materials" xmlns="http://www.w3.org/2000/svg" xmlns:xlink="http://www.w3.org/1999/xlink" viewBox="0 0 240 240"><defs><style>.cls-1{fill:none;}.cls-2{fill:#e6e9ee;}.cls-3{fill:#515556;}.cls-4{fill:#f4f42f;}.cls-5{fill:#3e3e3e;}.cls-6{fill:#fff;}.cls-7{fill:#f4e90f;}.cls-8{fill:#bfd1bf;}.cls-9{fill:#6c8c6c;}.cls-10{fill:#cec015;}.cls-11{clip-path:url(#clip-path);}.cls-12{fill:#e8e7df;}</style><clipPath id="clip-path"><path class="cls-1" d="M202,138.18s-5.2,2.64-9.52.85-6.12-7.35-6.12-7.35,5.21-2.64,9.53-.85S202,138.18,202,138.18Z"/></clipPath></defs><title>my-mac</title><rect class="cls-2" x="3.43" y="37.77" width="233.14" height="164.47" rx="7.23" ry="7.23"/><path class="cls-3" d="M229.34,202.23v-1.44H10.66A5.8,5.8,0,0,1,4.87,195V45a5.8,5.8,0,0,1,5.79-5.79H229.34A5.8,5.8,0,0,1,235.13,45V195a5.8,5.8,0,0,1-5.79,5.79v2.89A8.71,8.71,0,0,0,238,195V45a8.71,8.71,0,0,0-8.68-8.68H10.66A8.71,8.71,0,0,0,2,45V195a8.71,8.71,0,0,0,8.68,8.68H229.34Z"/><path class="cls-3" d="M134.75,125.81a11.18,11.18,0,0,1-.91-4.44,11.32,11.32,0,0,1,.17-2,9.89,9.89,0,0,1,4-6.38,9.4,9.4,0,0,1,1.14-.7,11.48,11.48,0,0,0-8.61-5.14c-3-.31-7.35,2.06-9.69,2.09h-.06c-2.34,0-6.64-2.4-9.69-2.09a13,13,0,0,0-9.31,5.84,15.17,15.17,0,0,0-2.14,6.38,21.91,21.91,0,0,0-.16,3.11,25.18,25.18,0,0,0,.25,3.28,27.35,27.35,0,0,0,1.75,6.38,29.31,29.31,0,0,0,3.16,5.81c2.61,3.68,5.56,5.82,7.22,5.85,3.42.08,6.39-2.23,8.84-2.17h.22c2.45-.06,5.42,2.25,8.84,2.17,1.66,0,4.61-2.17,7.22-5.85a29.31,29.31,0,0,0,3.16-5.81c.14-.32.26-.65.38-1A9.49,9.49,0,0,1,134.75,125.81Z"/><path class="cls-3" d="M126.81,104c2.63-3.1,2.53-7.58,2.29-7.78s-4.58.6-7.27,3.61-2.52,7.58-2.28,7.78S124.19,107.06,126.81,104Z"/><path class="cls-4" d="M25.47,111.37l-.33-.09a.74.74,0,0,1-.36-.42L14,76.1a.72.72,0,0,1,.47-.91l76-23.7.21,0a.72.72,0,0,1,.69.5l10.84,34.76a.72.72,0,0,1-.48.91l-76,23.7Z"/><path class="cls-5" d="M90.66,52.18,101.5,86.94l-76,23.7L14.64,75.88l76-23.7m0-1.45a1.29,1.29,0,0,0-.43.07l-76,23.7a1.44,1.44,0,0,0-1,1.81l10.83,34.76a1.46,1.46,0,0,0,1.38,1,1.25,1.25,0,0,0,.43-.07l76-23.7a1.45,1.45,0,0,0,.95-1.81L92,51.75a1.43,1.43,0,0,0-.71-.85A1.45,1.45,0,0,0,90.66,50.73Z"/><path class="cls-5" d="M81.36,77.63C81.21,76.7,79.88,76,78.82,75a4.1,4.1,0,0,0-1.46-.8A10,10,0,0,0,71,73.86a6,6,0,0,0-3.64,2.66,20,20,0,0,0-1.18,2.67A4.84,4.84,0,0,0,66,82.57a18.15,18.15,0,0,0,1.26,2.85,3.63,3.63,0,0,0,1.33,1.52,3.68,3.68,0,0,0,4.08-.16c2.18-1.63,2.6-4.36.82-6.83-.33-.46-.6-1.14-1.27-1s-.8.86-.86,1.55a2,2,0,0,0,0,.64,5.09,5.09,0,0,1-.7,3.4c-.29.72-1,.75-1.52.13-1.36-1.62-1.89-5.06.12-6.91a8.64,8.64,0,0,1,3.75-2A4.88,4.88,0,0,1,78.64,78,8.52,8.52,0,0,1,80,83.1a3.74,3.74,0,0,0,.31,1.1c.31-.17.73-.24.92-.51C82.3,82.12,82.13,80.29,81.36,77.63Z"/><path class="cls-5" d="M60.4,79.54a1,1,0,0,0,.4-.14,6.25,6.25,0,0,0,.57-.58,3,3,0,0,0-.64-.6,9,9,0,0,0-1.47-.55,18.9,18.9,0,0,0-2.82-.74c-.37-.05-.75.36-1.12.57.25.39.43,1,.75,1.14C57.46,79.36,58.89,80,60.4,79.54Z"/><path class="cls-5" d="M50.82,69.39a3.72,3.72,0,0,0,.38.22c1.31.53,1.79,1.6,1.67,3.22L57,71.55a2.53,2.53,0,0,1,1.1-.21,1.47,1.47,0,0,1,1,.6c.13.23-.06.73-.2,1-1.16,2.52-3.37,3.48-5.61,4.2A4.41,4.41,0,0,0,50.13,80a23.46,23.46,0,0,1-1.77,3.63,10.49,10.49,0,0,1-1.68,2,.78.78,0,0,1-.83,0c-.15-.11-.2-.61-.14-.88.38-1.94.79-3.87,1.17-5.69-.8-.2-1.59-.38-2.38-.61a1.85,1.85,0,0,1-.62-.45c-.48-.45-1-.89-.85-1.7a1.67,1.67,0,0,1,1.36-1.38c1.22-.3,2.45-.55,3.66-.88a1.09,1.09,0,0,0,.62-.61c.26-.61.4-1.29.66-1.9s.63-1.32,1-2Z"/><path class="cls-5" d="M34.84,85.42c1.69-3,3.7-5.56,6.76-6.81a2.73,2.73,0,0,1,1.65,0,8.6,8.6,0,0,1,1.82.91,1.17,1.17,0,0,1,.41,1.62,11.33,11.33,0,0,1-2.78,4.41.82.82,0,0,0-.28,1c.59,1.62,1.19,3.23,1.76,4.86a1.31,1.31,0,0,1,.09.87.7.7,0,0,1-.73.25A4.23,4.23,0,0,1,42,91.41,21.44,21.44,0,0,1,40.13,88c-.28-.64-.59-.8-1.11-.75a4.19,4.19,0,0,1-1.68.09A14.33,14.33,0,0,1,35,86.05C35,85.84,34.9,85.63,34.84,85.42Z"/><path class="cls-5" d="M81.36,77.63c.77,2.66.94,4.49-.15,6.06-.19.27-.61.34-.92.51A3.74,3.74,0,0,1,80,83.1,8.52,8.52,0,0,0,78.64,78,4.88,4.88,0,0,0,73,75.75a8.64,8.64,0,0,0-3.75,2c-2,1.85-1.48,5.29-.12,6.91.52.62,1.23.59,1.52-.13a5.09,5.09,0,0,0,.7-3.4,2,2,0,0,1,0-.64c.06-.69.18-1.36.86-1.55s.94.5,1.27,1c1.78,2.47,1.36,5.2-.82,6.83a3.68,3.68,0,0,1-4.08.16,3.63,3.63,0,0,1-1.33-1.52A18.15,18.15,0,0,1,66,82.57a4.84,4.84,0,0,1,.18-3.38,20,20,0,0,1,1.18-2.67A6,6,0,0,1,71,73.86a10,10,0,0,1,6.32.31,4.1,4.1,0,0,1,1.46.8C79.88,76,81.21,76.7,81.36,77.63Z"/><path class="cls-5" d="M60.4,79.54c-1.51.45-2.94-.18-4.33-.9-.32-.16-.5-.75-.75-1.14.37-.21.75-.62,1.12-.57a18.9,18.9,0,0,1,2.82.74,9,9,0,0,1,1.47.55,3,3,0,0,1,.64.6,6.25,6.25,0,0,1-.57.58A1,1,0,0,1,60.4,79.54Z"/><path class="cls-5" d="M59.15,80.47a6.83,6.83,0,0,0-1.28,0c-.87.1-1.73.24-2.61.36l-.15-.3a2.16,2.16,0,0,0-2.28-1.16c-.87.29-.66,1.09-.57,1.86a.77.77,0,0,1-.3.57,9.37,9.37,0,0,0-1.19.78,1.23,1.23,0,0,0-.28,1,1.26,1.26,0,0,0,.73.68,8.23,8.23,0,0,0,1.54.18c.07.33.15.69.23,1.08l-1.31.56c-.76-.56-1.35-1.07-2-1.47-.88-.54-1.6-.22-1.88.82a2.71,2.71,0,0,0-.12,1.26,41.87,41.87,0,0,0,1.35,5c.63,1.67,1.59,1.92,2.86,1a6.2,6.2,0,0,0,.5-.52,1.58,1.58,0,0,1,.54-.41c.5-.13,1-.19,1.61-.29.15.49.3.9.41,1.32a3.1,3.1,0,0,0,1.59,2,5,5,0,0,0,5.89-1.22,3.53,3.53,0,0,0,.27-1.23,4,4,0,0,0-1.05-.2c-.9.1-1.77.38-2.67.41-1.16,0-1.64-.45-1.85-1.7a9.85,9.85,0,0,0,1.13-.36c1.18-.51,2.39-1,3.53-1.61a1.9,1.9,0,0,0,.8-2.12c-.26-1.34-.56-2.68-.91-4C61.21,81,60.7,80.6,59.15,80.47ZM54,89.67,52.77,90c-.12-.56-.22-1-.35-1.62l1.25-.27C53.81,88.69,53.91,89.14,54,89.67Zm5.35-6.15c.19.91.43,1.82.61,2.73.21,1.06.08,1.51-.77,1.91a21.56,21.56,0,0,1-2.64.84c-.14-.53-.31-1-.4-1.57,0-.17.16-.37.25-.56.17-.34.55-.76.46-1s-.6-.56-.93-.82L55.72,85l-.09-.18c-.21-1.39-.21-1.39.94-1.75.52-.16,1-.32,1.57-.43S59.22,82.7,59.38,83.52Z"/><path class="cls-6" d="M186.12,180.5a7.53,7.53,0,0,1-2.74-.62,11.24,11.24,0,0,1-2.81-1.72,14.26,14.26,0,0,1-2.91-3.23,12.87,12.87,0,0,1-2.82.29c-.5,0-1,0-1.51-.07a11.1,11.1,0,0,1-3.21-.78,5.68,5.68,0,0,1-3.25-2.76l-.11-.27a4,4,0,0,1-.84-3.32,3.8,3.8,0,0,1,1-2.73A7.8,7.8,0,0,1,172.8,163c-3.62-3.92-4.68-8.59-2.88-12.91.15-.36.32-.71.5-1a16.31,16.31,0,0,1,.55-6.67,15.69,15.69,0,0,1,4.34-7.27,10.42,10.42,0,0,1,2.6-1.75,16.7,16.7,0,0,1,.32-11.61,16.24,16.24,0,0,1,4.8-6.37,10.47,10.47,0,0,1,5.84-17l2.47-.58a2.92,2.92,0,0,1,.71-.08,3.13,3.13,0,0,1,2.51,5l-1.52,2a2,2,0,0,0-.25.44,1,1,0,0,0-.07.61,16.29,16.29,0,0,1,8.64-2.58,14.89,14.89,0,0,1,1.77.11h.06a3.36,3.36,0,0,1,.6.07l.75.17.92.25c.53.16,1,.32,1.41.49a15,15,0,0,1,1.35.66l.8.46.68.43a3.4,3.4,0,0,1,.58.47,16,16,0,0,1,5.47,8.81,1.08,1.08,0,0,0,.88-.68,1.76,1.76,0,0,0,.13-.49l.37-2.51a3.13,3.13,0,0,1,2.47-2.61,2.7,2.7,0,0,1,.63-.07,3.12,3.12,0,0,1,2.67,1.49l1.33,2.16a10.61,10.61,0,0,1,.9,9.71,10.86,10.86,0,0,1-9.32,6.48,16.24,16.24,0,0,1-1.09,8.3,16.66,16.66,0,0,1-8,8.41,10.47,10.47,0,0,1,.59,3.09,15.57,15.57,0,0,1-2.09,8.2,16.42,16.42,0,0,1-4.33,5.1c-.12.37-.25.74-.4,1.09-1.77,4.28-5.79,6.83-11.07,7.06a7.9,7.9,0,0,1,2.67,5.87,6.31,6.31,0,0,1-2.62,3.87,3.94,3.94,0,0,1-1.58.49l-.27.11A4.17,4.17,0,0,1,186.12,180.5Z"/><path class="cls-3" d="M192.05,98.45A2.41,2.41,0,0,1,194,102.3l-1.51,2a2.41,2.41,0,0,0-.35.59,1.88,1.88,0,0,0,.32,1.94,15.82,15.82,0,0,1,8.92-2.9,13.57,13.57,0,0,1,1.69.1h0a2.48,2.48,0,0,1,.54.06l.75.17.34.09.11,0c.14,0,.29.07.43.12a13,13,0,0,1,1.34.46c.39.17.81.37,1.27.62l.41.24.07,0,.31.17.65.42a2.23,2.23,0,0,1,.44.36,15.46,15.46,0,0,1,5.43,9.09,2.07,2.07,0,0,0,2.12-1.18,3.18,3.18,0,0,0,.18-.66l.37-2.52a2.38,2.38,0,0,1,1.89-2,2.09,2.09,0,0,1,.49,0,2.41,2.41,0,0,1,2.05,1.14l1.33,2.16a9.88,9.88,0,0,1,.85,9A10.21,10.21,0,0,1,215,128a15.64,15.64,0,0,1-.91,8.71A16.1,16.1,0,0,1,205.8,145a9.72,9.72,0,0,1,.8,3.48,15,15,0,0,1-2,7.82,15.39,15.39,0,0,1-4.33,5,12.25,12.25,0,0,1-.43,1.25c-1.74,4.18-5.76,6.59-11.06,6.64l-.33.78c2,1.75,3,3.83,2.92,5.75a3.12,3.12,0,0,1-1.08,2.18,3.22,3.22,0,0,1-1.16,1.1,3.33,3.33,0,0,1-1.42.41l-.34.15a3.61,3.61,0,0,1-1.25.22,6.7,6.7,0,0,1-2.46-.57A10.28,10.28,0,0,1,181,177.6a12.6,12.6,0,0,1-3-3.51,11.26,11.26,0,0,1-3.18.4q-.71,0-1.44-.06a10.3,10.3,0,0,1-3-.73,5,5,0,0,1-2.86-2.39l-.13-.34a3.32,3.32,0,0,1-.72-1.3,3.17,3.17,0,0,1,0-1.59,3.07,3.07,0,0,1,.78-2.31,7.14,7.14,0,0,1,5.44-2l.69,0,.29-.7c-3.81-3.79-5-8.43-3.26-12.69a11.85,11.85,0,0,1,.58-1.19,15.47,15.47,0,0,1,.49-6.6,14.93,14.93,0,0,1,4.13-6.93,9.55,9.55,0,0,1,3-1.89,16.09,16.09,0,0,1,.09-11.73,15.53,15.53,0,0,1,5.16-6.54,10.09,10.09,0,0,1-2-10.64,9.88,9.88,0,0,1,7-5.78l2.47-.59a2.64,2.64,0,0,1,.55-.06m0-1.45a4.3,4.3,0,0,0-.87.1l-2.48.59A11.17,11.17,0,0,0,182,115.3a16.9,16.9,0,0,0-4.48,6.2A17.33,17.33,0,0,0,177,133a11.67,11.67,0,0,0-2.21,1.58,16.46,16.46,0,0,0-4.56,7.61,17.35,17.35,0,0,0-.6,6.73c-.15.3-.29.61-.42.91-1.74,4.19-1,8.67,2.07,12.57a7.82,7.82,0,0,0-5,2.39A4.53,4.53,0,0,0,165.2,168a4.58,4.58,0,0,0,.93,3.73l.08.19a6.38,6.38,0,0,0,3.63,3.15,11.81,11.81,0,0,0,3.42.83c.54,0,1.07.07,1.57.07a14,14,0,0,0,2.5-.21,14.91,14.91,0,0,0,2.77,3,11.88,11.88,0,0,0,3,1.84,8.11,8.11,0,0,0,3,.67,5,5,0,0,0,1.77-.31l.2-.09a4.79,4.79,0,0,0,1.74-.55,4.72,4.72,0,0,0,1.56-1.42,4.59,4.59,0,0,0,1.43-3,8,8,0,0,0-1.89-5.31c4.85-.62,8.52-3.24,10.24-7.38.13-.31.24-.62.35-.94a17.24,17.24,0,0,0,4.35-5.17,16.46,16.46,0,0,0,2.17-8.6,11.72,11.72,0,0,0-.44-2.7,17.22,17.22,0,0,0,7.79-8.48,17,17,0,0,0,1.21-7.94,11.52,11.52,0,0,0,9.2-6.85,11.29,11.29,0,0,0-1-10.36l-1.33-2.16a3.86,3.86,0,0,0-3.28-1.83,3.94,3.94,0,0,0-.77.08,3.86,3.86,0,0,0-3,3.21l-.34,2.31a16.66,16.66,0,0,0-5.36-7.91,4.47,4.47,0,0,0-.63-.5l-.66-.42-.35-.2-.09-.06-.43-.24a14.73,14.73,0,0,0-1.4-.68,13.54,13.54,0,0,0-1.49-.52l-.48-.13-.09,0-.4-.1-.76-.17a3.75,3.75,0,0,0-.82-.1,14.72,14.72,0,0,0-1.76-.1,16.47,16.47,0,0,0-6.87,1.53l.65-.88A3.86,3.86,0,0,0,192.05,97Z"/><path class="cls-6" d="M177.08,153.51c-2.83-1.17-4-5.52-2.66-10.11,1.37-4.77,5-7.94,8-7.06a2.83,2.83,0,0,1,.41.14c2.83,1.17,4,5.52,2.66,10.11-1.37,4.78-5,7.95-8,7.07A2.86,2.86,0,0,1,177.08,153.51Z"/><path class="cls-3" d="M182.7,136.91c2.56,1.06,3.63,5.21,2.38,9.55-1.3,4.54-4.64,7.56-7.46,6.75l-.37-.12c-2.56-1.07-3.63-5.22-2.38-9.56,1.3-4.54,4.64-7.56,7.46-6.75l.37.13m.35-.86h0l-.46-.16a5.49,5.49,0,0,0-5.18,1.57,12.64,12.64,0,0,0-3.43,5.81c-1.38,4.82-.13,9.4,2.92,10.67a3.57,3.57,0,0,0,.46.16,5.47,5.47,0,0,0,5.18-1.57,12.59,12.59,0,0,0,3.43-5.81C187.35,141.9,186.1,137.32,183.05,136.05Z"/><path class="cls-6" d="M193.06,160.15a2.93,2.93,0,0,1-.4-.19c-2.78-1.55-3.08-6.34-.66-10.68,2.32-4.17,6.2-6.43,9-5.26l.4.19c2.78,1.55,3.08,6.34.66,10.69C199.77,159.07,195.89,161.33,193.06,160.15Z"/><path class="cls-3" d="M200.86,144.45l.34.17c2.57,1.42,2.78,5.93.49,10-2.2,4-5.89,6.12-8.46,5.05l-.34-.16c-2.57-1.43-2.78-5.93-.49-10.06,2.2-3.94,5.89-6.11,8.46-5.05m.35-.85c-3.05-1.27-7.18,1.08-9.62,5.45a12.58,12.58,0,0,0-1.69,6.54,5.48,5.48,0,0,0,2.54,4.78c.14.07.29.15.44.21,3.05,1.26,7.18-1.08,9.62-5.46a12.53,12.53,0,0,0,1.69-6.53,5.47,5.47,0,0,0-2.54-4.78A3.55,3.55,0,0,0,201.21,143.6Z"/><path class="cls-7" d="M171.45,171.16a3,3,0,0,1-1.4-1,.59.59,0,0,1,0-.52l.27-.27a2.36,2.36,0,0,1-.65-.12.54.54,0,0,1-.34-.35l0-.36a.93.93,0,0,1,.5-.33l-.25-.05-.24-.27.09-.32c.81-.91,2.79-1.3,4.93-.95l.86.18L180.61,154a.33.33,0,0,1,.45-.19l3,1.24a.34.34,0,0,1,.18.45l-5.55,13.36a1.54,1.54,0,0,1,.24,1.08c-.26,1.59-2.9,1.93-5.29,1.72A7.73,7.73,0,0,1,171.45,171.16Z"/><path class="cls-3" d="M183.91,155.39l-5.62,13.53a1.33,1.33,0,0,1,.29,1c-.2,1.2-2.39,1.66-4.92,1.44a7.46,7.46,0,0,1-2.08-.5,2.69,2.69,0,0,1-1.21-.79c-.32-.71,2.35-.66,2.19-.89l0,0c-.32-.13-2.18.05-2.71-.17l-.14-.12c-.12-.43,2.78-.65,2.8-.75l-.05-.05c-.33-.14-2.39-.06-2.65-.17l0,0c.71-.8,2.56-1.17,4.61-.84a9.35,9.35,0,0,1,1.13.26l5.44-13.1,3,1.24m.27-.64-3-1.24a.68.68,0,0,0-.9.37l-5.21,12.54-.6-.11c-2.29-.37-4.35,0-5.25,1.06a.72.72,0,0,0-.16.63l.12.26-.09.12a.81.81,0,0,0-.1.64.9.9,0,0,0,.54.58l.15.05a.94.94,0,0,0,0,.68c.25.55,1.28,1,1.59,1.15a7.69,7.69,0,0,0,2.28.55c2.54.22,5.36-.19,5.66-2a2,2,0,0,0-.19-1.15l5.48-13.21A.69.69,0,0,0,184.18,154.75Z"/><path class="cls-7" d="M184.72,176.67a7.21,7.21,0,0,1-1.91-1.18c-1.84-1.54-3.46-3.65-2.51-5a1.56,1.56,0,0,1,.92-.59l5.55-13.36a.36.36,0,0,1,.46-.19l3,1.24a.34.34,0,0,1,.18.45l-5.32,12.82c.26.15.5.31.74.48,1.75,1.28,2.88,3,2.8,4.17l-.17.29-.35,0-.22-.14a.92.92,0,0,1,.13.58l-.22.29a.54.54,0,0,1-.49,0,2.37,2.37,0,0,1-.54-.37.66.66,0,0,1,0,.37.57.57,0,0,1-.36.38A3,3,0,0,1,184.72,176.67Z"/><path class="cls-3" d="M190.08,158l-5.44,13.1a9.19,9.19,0,0,1,1,.61c1.69,1.23,2.73,2.8,2.67,3.87h-.05c-.26-.11-1.66-1.62-2-1.76h-.06c-.07.09,1.82,2.3,1.44,2.51h-.19c-.53-.22-1.71-1.66-2-1.8h-.05c-.28.06,1.64,1.91.92,2.19a2.91,2.91,0,0,1-1.42-.31,7.18,7.18,0,0,1-1.82-1.12c-1.95-1.64-3.16-3.51-2.45-4.5a1.34,1.34,0,0,1,.9-.49l5.61-13.53,3,1.24m.27-.64-3-1.24a.68.68,0,0,0-.9.37L181,169.65a1.92,1.92,0,0,0-.95.68c-1.09,1.5.61,3.79,2.56,5.43a8.11,8.11,0,0,0,2,1.23,3.39,3.39,0,0,0,1.92.32.93.93,0,0,0,.51-.46l.15.07a.93.93,0,0,0,.79,0,.8.8,0,0,0,.38-.53l0-.14.28-.1a.75.75,0,0,0,.33-.56c.08-1.36-1.08-3.11-2.95-4.47l-.51-.34,5.21-12.54A.69.69,0,0,0,190.35,157.31Z"/><path class="cls-6" d="M181.68,164.94c-7.05-3.22-10.44-8.62-8.44-13.43a12.15,12.15,0,0,1,4.32-4.89,7.61,7.61,0,0,0,2.58-2.64,13.88,13.88,0,0,1,4.62-5.92c-3.95-4.27-5.22-10.06-3.21-14.9,3-7.19,12.12-10.26,20.35-6.85s12.49,12.06,9.5,19.25c-2,4.84-7,8-12.82,8.24a13.72,13.72,0,0,1-.94,7.45,7.83,7.83,0,0,0,0,3.7,12.11,12.11,0,0,1-.42,6.5c-2,4.81-8.21,6.22-15.47,3.5h0Z"/><path class="cls-3" d="M201.72,116.74c8,3.33,12.15,11.67,9.26,18.64-2.09,5-7.24,8-12.95,8a13.2,13.2,0,0,1-.81,7.73c-1,2.41,1.16,6.3-.46,10.2-2.09,5-8.54,5.62-14.89,3.24-6.16-2.82-10.29-7.82-8.2-12.84,1.61-3.89,5.9-5.1,6.9-7.52a13.14,13.14,0,0,1,4.91-6c-4-4-5.58-9.78-3.5-14.79,2.89-7,11.73-9.93,19.74-6.6m.35-.85c-8.46-3.52-17.86-.34-20.95,7.09-2,4.87-.85,10.65,3,15a14.29,14.29,0,0,0-4.36,5.82,7.57,7.57,0,0,1-2.44,2.44,12.71,12.71,0,0,0-4.47,5.08c-2.1,5.06,1.39,10.7,8.68,14h.06c7.5,2.82,14,1.31,16.06-3.75a12.79,12.79,0,0,0,.45-6.74,7.49,7.49,0,0,1,0-3.46,14.34,14.34,0,0,0,1-7.2c5.78-.37,10.7-3.63,12.72-8.49C214.92,128.31,210.54,119.4,202.07,115.89Z"/><path class="cls-8" d="M211.32,124.38c-3.61-1.5-5.79-5-5.28-8.41l.19-1.25.66,1.08a2.94,2.94,0,0,0,1.49,1.13c.38.16.8.3,1.24.44s1,.31,1.5.52c3.14,1.31,7.34,1.56,8.83-2a5.84,5.84,0,0,0,.37-1.35l.18-1.25.67,1.08a7,7,0,0,1,.64,6.44C220.26,124.52,215.55,126.13,211.32,124.38Z"/><path class="cls-3" d="M220.78,114.58a6.58,6.58,0,0,1,.6,6c-1.46,3.51-5.88,5-9.88,3.35-3.46-1.44-5.46-4.77-5-7.91a3.38,3.38,0,0,0,1.7,1.32c.83.34,1.79.56,2.74,1,4,1.66,8,1.23,9.44-2.28a6.47,6.47,0,0,0,.4-1.46m-.55-2.64-.37,2.51a5,5,0,0,1-.34,1.23c-.89,2.15-3.52,3.74-8.23,1.78-.52-.22-1-.38-1.53-.54s-.84-.26-1.2-.41a2.39,2.39,0,0,1-1.27-1L206,113.39l-.37,2.52a8.56,8.56,0,0,0,5.56,8.89c4.47,1.86,9.44.13,11.1-3.85a7.47,7.47,0,0,0-.68-6.85Z"/><path class="cls-8" d="M189.53,116c-4.23-1.75-6.41-6.23-4.86-10a7.05,7.05,0,0,1,5-4.09l1.23-.29-.76,1a5.63,5.63,0,0,0-.69,1.21c-1.49,3.59,1.65,6.38,4.8,7.69.5.21,1,.45,1.42.69s.81.42,1.19.58a2.93,2.93,0,0,0,1.85.25l1.24-.29-.76,1A8.1,8.1,0,0,1,189.53,116Z"/><path class="cls-3" d="M189.79,102.34a6.75,6.75,0,0,0-.75,1.31c-1.46,3.51,1.05,6.63,5.05,8.3.94.39,1.78.92,2.61,1.26a3.44,3.44,0,0,0,2.14.28,7.72,7.72,0,0,1-9.14,2c-4-1.67-6.06-5.86-4.6-9.37a6.6,6.6,0,0,1,4.69-3.82m2.26-1.48-2.47.58a7.5,7.5,0,0,0-5.33,4.36c-1.65,4,.63,8.73,5.1,10.58A8.57,8.57,0,0,0,199.58,114l1.52-2-2.47.58a2.53,2.53,0,0,1-1.58-.23c-.36-.15-.74-.35-1.14-.56s-.94-.49-1.46-.71c-4.72-2-5.44-4.94-4.55-7.08a5,5,0,0,1,.63-1.12Z"/><path class="cls-9" d="M198.2,125.22a22.16,22.16,0,0,1-10-8L188,117l.2-.5c3.14-7.55,10.88-11.54,17.26-8.89s9,10.95,5.88,18.5l-.22.49-.23,0A22.12,22.12,0,0,1,198.2,125.22Z"/><path class="cls-3" d="M205.32,108.08c6.15,2.56,8.67,10.57,5.63,17.89l-.12.27A22.8,22.8,0,0,1,188.56,117l.11-.28c3-7.32,10.49-11.19,16.65-8.63m.35-.85c-6.61-2.75-14.62,1.35-17.86,9.13l-.07.19,0,.1-.18.44.27.41A23.76,23.76,0,0,0,211,127.15l.47-.1.19-.44,0-.1.09-.18C215,118.54,212.29,110,205.67,107.23Z"/><path class="cls-10" d="M193.15,131.63l3-7.34a21.45,21.45,0,0,1-8-7.05L188,117l.2-.5a17.37,17.37,0,0,1,1.3-2.54l.38-.6.4.59a20.57,20.57,0,0,0,7.46,6.48L203.37,107l.38.08a11.48,11.48,0,0,1,1.75.55,11.93,11.93,0,0,1,1.62.85l.33.21-5.6,13.46a20.71,20.71,0,0,0,9.87.71l.7-.13-.17.69a17.11,17.11,0,0,1-.87,2.71l-.22.49-.23,0a21.49,21.49,0,0,1-10.66-.71l-3.05,7.34Z"/><path class="cls-3" d="M205.32,108.08a10.35,10.35,0,0,1,1.55.81l-4.22,10.17-1.41,3.39a21.26,21.26,0,0,0,10.56.88A16.53,16.53,0,0,1,211,126l-.12.27a21.23,21.23,0,0,1-10.82-.83l-3,7.31-3.22-1.34,3-7.31a21.21,21.21,0,0,1-8.23-7.08l.11-.28a17.77,17.77,0,0,1,1.26-2.46,21.35,21.35,0,0,0,8.08,6.87l1.42-3.4,4.22-10.17a10.42,10.42,0,0,1,1.67.53m.35-.85a11,11,0,0,0-1.82-.58l-.76-.17-.29.72-4.23,10.16-1,2.46a19.9,19.9,0,0,1-6.85-6.09l-.8-1.18-.75,1.21a18.25,18.25,0,0,0-1.34,2.6l-.07.19,0,.1-.18.44.27.41a21.73,21.73,0,0,0,7.82,7L192.9,131l-.36.86.86.35,3.22,1.34.85.35.36-.85,2.71-6.53a21.65,21.65,0,0,0,10.48.61l.47-.1.19-.44,0-.1.09-.18a18.11,18.11,0,0,0,.89-2.79l.33-1.38-1.4.26a19.94,19.94,0,0,1-9.15-.55l1-2.46,4.22-10.16.3-.72-.66-.42A10.45,10.45,0,0,0,205.67,107.23Z"/><path class="cls-3" d="M191.42,126.94a2.5,2.5,0,1,1-1.17-3.63A2.71,2.71,0,0,1,191.42,126.94Z"/><path class="cls-3" d="M206.46,133.19a2.51,2.51,0,1,1-1.17-3.63A2.73,2.73,0,0,1,206.46,133.19Z"/><path class="cls-7" d="M192.33,139.35c-4.42-1.84-6.24-7.33-6.32-7.56a.35.35,0,0,1,.18-.42c.22-.11,5.39-2.69,9.81-.86s6.24,7.33,6.31,7.56a.35.35,0,0,1-.17.42C201.92,138.6,196.75,141.18,192.33,139.35Z"/><path class="cls-3" d="M195.87,130.83c4.31,1.8,6.11,7.35,6.11,7.35s-5.2,2.64-9.52.85-6.12-7.35-6.12-7.35,5.21-2.64,9.53-.85m.26-.64c-4.56-1.89-9.88.76-10.1.87a.72.72,0,0,0-.35.84c.08.23,1.95,5.87,6.52,7.77s9.87-.76,10.1-.87a.69.69,0,0,0,.34-.83C202.57,137.73,200.69,132.09,196.13,130.19Z"/><g class="cls-11"><path class="cls-3" d="M194.42,134.31a44.49,44.49,0,0,1,8.14,4.31l.31-.11a44.62,44.62,0,0,0-8.34-4.45,45.28,45.28,0,0,0-9-2.78l.14.31A44.6,44.6,0,0,1,194.42,134.31Z"/><path class="cls-3" d="M194.42,134.31l-.08.21h0a44.54,44.54,0,0,1,8.09,4.29l.09.06.11,0,.32-.11.41-.15-.36-.25a49.72,49.72,0,0,0-17.47-7.26l-.43-.08.18.4.14.31.05.1.12,0a44.28,44.28,0,0,1,8.73,2.71h0l.08-.21.09-.21h0a45,45,0,0,0-8.83-2.73l0,.23.21-.1-.14-.3-.21.09,0,.23a49.54,49.54,0,0,1,17.28,7.18l.14-.18-.08-.22-.31.11.08.22.13-.19a44.32,44.32,0,0,0-8.18-4.33h0l-.09.21.09-.21Z"/></g><path class="cls-7" d="M204.89,111.81a1,1,0,1,1-.56-1.35A1,1,0,0,1,204.89,111.81Z"/><path class="cls-7" d="M203.25,115.76a1,1,0,1,1-.56-1.36A1,1,0,0,1,203.25,115.76Z"/><path class="cls-7" d="M201.61,119.71a1,1,0,1,1-.56-1.36A1,1,0,0,1,201.61,119.71Z"/><path class="cls-7" d="M200,123.66a1,1,0,1,1-.56-1.36A1,1,0,0,1,200,123.66Z"/><path class="cls-7" d="M204.35,125.06a1,1,0,1,1-1.92-.8,1,1,0,0,1,1.35-.56A1,1,0,0,1,204.35,125.06Z"/><path class="cls-7" d="M208.71,125.52a1,1,0,1,1-.56-1.36A1,1,0,0,1,208.71,125.52Z"/><path class="cls-7" d="M193.55,120.57a1,1,0,1,0,1.36-.56A1,1,0,0,0,193.55,120.57Z"/><path class="cls-7" d="M190.2,117.68a1,1,0,1,0,1.36-.56A1,1,0,0,0,190.2,117.68Z"/><path class="cls-7" d="M198.33,127.6a1,1,0,0,1-1.92-.79,1,1,0,1,1,1.92.79Z"/><path class="cls-12" d="M194.22,154.67a14,14,0,0,0-5.94-5,14.85,14.85,0,0,0-7.71-.71,33.11,33.11,0,0,1,7.36,1.56A33.11,33.11,0,0,1,194.22,154.67Z"/></svg>