<?xml version="1.0" encoding="utf-8"?>
<!-- Generator: Adobe Illustrator 16.0.4, SVG Export Plug-In . SVG Version: 6.00 Build 0)  -->
<!DOCTYPE svg PUBLIC "-//W3C//DTD SVG 1.1//EN" "http://www.w3.org/Graphics/SVG/1.1/DTD/svg11.dtd">
<svg version="1.1" id="レイヤー_1" xmlns="http://www.w3.org/2000/svg" xmlns:xlink="http://www.w3.org/1999/xlink" x="0px"
	 y="0px" width="350px" height="221.875px" viewBox="0 0 350 221.875" enable-background="new 0 0 350 221.875"
	 xml:space="preserve">
<g>
	<path fill="#333333" d="M294.349,178.497H57.071V36.131c0-6.549,5.315-11.865,11.864-11.865h213.55
		c6.549,0,11.864,5.315,11.864,11.865V178.497L294.349,178.497z"/>
	<g>
		<path fill="#C8CCD5" d="M300.279,202.225H51.138c-9.822,0-17.794-7.973-17.794-17.795v-5.932h284.732v5.932
			C318.076,194.252,310.104,202.225,300.279,202.225z"/>
	</g>
	<rect x="68.935" y="36.131" fill="#6BD1ED" width="213.55" height="130.502"/>
	<g>
		<path fill="#646464" d="M140.119,178.497c0,6.548,5.314,11.864,11.864,11.864h47.455c6.551,0,11.865-5.316,11.865-11.864H140.119z
			"/>
	</g>
</g>
</svg>
