<svg id="レイヤー_1" data-name="レイヤー 1" xmlns="http://www.w3.org/2000/svg" viewBox="0 0 200 200"><defs><style>.cls-1{fill:#dce9ef;}.cls-2{fill:#788d9a;}.cls-3{fill:#00afc0;}.cls-4{fill:#f3d97f;}.cls-5{fill:#f4866e;}</style></defs><title>nda</title><polygon class="cls-1" points="21.5 189.6 21.5 56.1 67.43 10.4 155.68 10.4 155.68 189.6 21.5 189.6"/><polygon class="cls-2" points="67.43 56.1 21.5 56.1 67.43 10.4 67.43 56.1"/><rect class="cls-3" x="39.06" y="78.61" width="99.28" height="5.63"/><rect class="cls-3" x="39.06" y="100.45" width="99.28" height="5.63"/><rect class="cls-3" x="39.06" y="122.29" width="89.15" height="5.63"/><polygon class="cls-4" points="104.8 159.21 105.02 158.98 87.69 141.65 87.46 141.87 82.96 156.28 90.39 163.49 104.8 159.21"/><polygon class="cls-5" points="90.39 163.49 82.96 156.28 79.81 166.64 90.39 163.49"/><rect class="cls-5" x="81.05" y="101.09" width="104.01" height="24.54" transform="translate(-41.19 127.28) rotate(-45)"/></svg>