<svg id="materials" xmlns="http://www.w3.org/2000/svg" xmlns:xlink="http://www.w3.org/1999/xlink" viewBox="0 0 240 240"><defs><style>.cls-1{fill:none;}.cls-2{fill:#eff3f5;}.cls-11,.cls-3{fill:#474747;}.cls-4{fill:#41b3e2;}.cls-5{fill:#2888a5;}.cls-6{fill:#dbdfe0;}.cls-7{fill:#f7c1e1;}.cls-8{fill:#ebf1f2;}.cls-9{clip-path:url(#clip-path);}.cls-10{fill:#fff;}.cls-11{font-size:6.16px;font-family:KozGoPr6N-Regular-83pv-RKSJ-H, Kozuka Gothic Pr6N;}.cls-12{fill:#f4866e;}.cls-13{fill:#f3d97f;}.cls-14{fill:#e2543d;}.cls-15{fill:#e55038;}</style><clipPath id="clip-path"><path class="cls-1" d="M146.34,238.25H2V119.41A58.91,58.91,0,0,1,60.91,60.5h85.43Z"/></clipPath></defs><title>nda</title><path class="cls-2" d="M96.67,100.29a8,8,0,0,1-8-8l0-79.19a8,8,0,0,1,8-8L226.51,5a8.09,8.09,0,0,1,8,8l0,79.2a8,8,0,0,1-8,8Z"/><path class="cls-3" d="M226.51,6.53A6.55,6.55,0,0,1,233,13.05l0,79.18a6.51,6.51,0,0,1-6.51,6.53h0l-129.88,0a6.51,6.51,0,0,1-6.52-6.52l0-79.19a6.51,6.51,0,0,1,6.51-6.52h0l129.87,0m0-3h0l-129.87,0a9.5,9.5,0,0,0-9.49,9.49l0,79.19a9.49,9.49,0,0,0,9.49,9.49l129.88,0A9.5,9.5,0,0,0,236,92.24l0-79.19A9.59,9.59,0,0,0,226.52,3.56Z"/><rect class="cls-4" x="177.76" y="21.3" width="44.16" height="46.75"/><path class="cls-5" d="M202.88,50.12a11.46,11.46,0,1,0-6.43,0A19.84,19.84,0,0,0,180,68.05h39.41A19.87,19.87,0,0,0,202.88,50.12Z"/><rect class="cls-6" x="177.76" y="72.92" width="37.19" height="7.82"/><rect class="cls-6" x="97.67" y="43.32" width="55.49" height="7.54"/><rect class="cls-6" x="97.67" y="54.62" width="55.49" height="7.54"/><rect class="cls-6" x="98.41" y="14.99" width="55.49" height="7.54"/><rect class="cls-4" x="97.66" y="28.18" width="66.75" height="9.24"/><rect class="cls-7" x="132.58" y="68.23" width="31.83" height="20.54"/><path class="cls-8" d="M3.55,236.7V119.41A57.42,57.42,0,0,1,60.91,62.05h83.88V236.7Z"/><path class="cls-3" d="M143.24,63.6V235.15H5.1V119.41A55.88,55.88,0,0,1,60.91,63.6h82.33m3.1-3.1H60.91A58.92,58.92,0,0,0,2,119.41V238.25H146.34Z"/><g class="cls-9"><rect class="cls-10" x="3.55" y="62.05" width="38.33" height="36.99"/><path class="cls-3" d="M40.33,63.6V97.49H5.1V63.6H40.33m3.1-3.1H2v40.09H43.43Z"/></g><text class="cls-11" transform="translate(19.37 114.68)">■■■■■■■■■■■■■■■■■■</text><text class="cls-11" transform="translate(19.37 125.46)">■■■■■■■■■■■■■■■■■■</text><text class="cls-11" transform="translate(19.37 136.25)">■■■■■■■■■■■■■■■■■■</text><text class="cls-11" transform="translate(19.37 147.03)">■■■■■■■■■■■■■■■■■■</text><text class="cls-11" transform="translate(19.37 157.82)">■■■■■■■■■■■■■■■■■■</text><text class="cls-11" transform="translate(19.37 168.6)">■■■■■■■■■■■■■■■■■■</text><text class="cls-11" transform="translate(19.37 179.39)">■■■■■■■■■■■■■■■■■■</text><path class="cls-3" d="M143.24,63.6V235.15H5.1V119.41A55.88,55.88,0,0,1,60.91,63.6h82.33m3.1-3.1H60.91A58.92,58.92,0,0,0,2,119.41V238.25H146.34Z"/><path class="cls-12" d="M111.33,219.27a1.56,1.56,0,0,1-1.1-.46,1.54,1.54,0,0,1-.38-1.54l3-9.85,4.28-13.7a1.41,1.41,0,0,1,.38-.63l.22-.22a1.54,1.54,0,0,1,1.09-.45h0a1.56,1.56,0,0,1,1.1.45l16.48,16.48a1.56,1.56,0,0,1,0,2.19l-.22.22a1.53,1.53,0,0,1-.65.38l-13.7,4.07-10,3A1.41,1.41,0,0,1,111.33,219.27Z"/><path class="cls-3" d="M118.82,194l16.48,16.47-.21.22-13.7,4.06-10.06,3,3-9.84,4.28-13.7.21-.21m0-3.1a3.11,3.11,0,0,0-2.19.9l-.21.22a3.05,3.05,0,0,0-.77,1.26L111.37,207l-3,9.87a3.07,3.07,0,0,0,.76,3.08,3.11,3.11,0,0,0,2.2.92,3,3,0,0,0,.89-.13l10.06-3L136,213.63a3.25,3.25,0,0,0,1.31-.78l.21-.21a3.1,3.1,0,0,0,0-4.39L121,191.77A3.12,3.12,0,0,0,118.82,190.87Z"/><path class="cls-12" d="M135.24,211.82a1.56,1.56,0,0,1-1.1-.45l-16.49-16.49a1.55,1.55,0,0,1,0-2.2l69.9-69.9a1.55,1.55,0,0,1,2.2,0l16.49,16.49a1.56,1.56,0,0,1,0,2.19l-69.91,69.91A1.54,1.54,0,0,1,135.24,211.82Z"/><path class="cls-3" d="M188.65,123.87l16.49,16.5-69.9,69.9-16.5-16.49,69.91-69.91m0-3.1a3.1,3.1,0,0,0-2.19.91l-69.91,69.91a3.1,3.1,0,0,0,0,4.38L133,212.47a3.13,3.13,0,0,0,4.39,0l69.91-69.91a3.11,3.11,0,0,0,0-4.38l-16.5-16.5A3.1,3.1,0,0,0,188.65,120.77Z"/><path class="cls-13" d="M121.39,215.5a.79.79,0,0,1-.54-.22l-7.06-6.85a.77.77,0,0,1-.2-.79L117.87,194l.19-.32.21-.21a.78.78,0,0,1,.55-.23.75.75,0,0,1,.55.23l16.48,16.47a.83.83,0,0,1,.23.55.79.79,0,0,1-.23.55l-.22.22-.32.19-13.7,4.07Z"/><path class="cls-3" d="M118.82,194l16.48,16.47-.21.22-13.7,4.06-7.06-6.84,4.28-13.7.21-.21m0-1.55a1.55,1.55,0,0,0-1.09.45l-.22.21a1.61,1.61,0,0,0-.38.64l-4.28,13.69a1.57,1.57,0,0,0,.4,1.58l7.06,6.85a1.57,1.57,0,0,0,1.08.43,1.61,1.61,0,0,0,.44-.06l13.7-4.07a1.46,1.46,0,0,0,.65-.39l.22-.21a1.56,1.56,0,0,0,.45-1.1,1.54,1.54,0,0,0-.45-1.09l-16.48-16.48A1.55,1.55,0,0,0,118.82,192.42Z"/><path class="cls-14" d="M111.33,218.49a.82.82,0,0,1-.55-.22.8.8,0,0,1-.19-.78l3-9.84a.77.77,0,0,1,.55-.53l.19,0a.79.79,0,0,1,.54.22l7.06,6.85a.75.75,0,0,1,.21.74.79.79,0,0,1-.53.56l-10.06,3Z"/><path class="cls-3" d="M114.33,207.88l7.06,6.84-10.06,3,3-9.84m0-1.56-.39.05a1.56,1.56,0,0,0-1.09,1l-3,9.85a1.56,1.56,0,0,0,1.48,2,1.41,1.41,0,0,0,.45-.07l10-3a1.55,1.55,0,0,0,.64-2.6l-7.06-6.85A1.56,1.56,0,0,0,114.33,206.32Z"/><path class="cls-15" d="M135.24,211.05a.78.78,0,0,1-.55-.23L118.2,194.33a.77.77,0,0,1,0-1.1l69.9-69.9a.77.77,0,0,1,1.1,0l16.49,16.49a.78.78,0,0,1,0,1.1l-69.9,69.9A.8.8,0,0,1,135.24,211.05Z"/><path class="cls-3" d="M188.65,123.87l16.49,16.5-69.9,69.9-16.5-16.49,69.91-69.91m0-1.55a1.58,1.58,0,0,0-1.1.46l-69.9,69.9a1.59,1.59,0,0,0-.46,1.1,1.57,1.57,0,0,0,.46,1.1l16.49,16.49a1.56,1.56,0,0,0,2.19,0l69.91-69.91a1.54,1.54,0,0,0,.45-1.09,1.56,1.56,0,0,0-.45-1.1l-16.49-16.49A1.58,1.58,0,0,0,188.65,122.32Z"/></svg>