<?xml version="1.0" encoding="utf-8"?>
<!-- Generator: Adobe Illustrator 16.0.4, SVG Export Plug-In . SVG Version: 6.00 Build 0)  -->
<!DOCTYPE svg PUBLIC "-//W3C//DTD SVG 1.1//EN" "http://www.w3.org/Graphics/SVG/1.1/DTD/svg11.dtd">
<svg version="1.1" id="レイヤー_1" xmlns="http://www.w3.org/2000/svg" xmlns:xlink="http://www.w3.org/1999/xlink" x="0px"
	 y="0px" width="350px" height="221.875px" viewBox="0 0 350 221.875" enable-background="new 0 0 350 221.875"
	 xml:space="preserve">
<g>
	<g>
		<polygon fill="#FFFFFF" points="86.682,217.357 86.682,59.354 141.038,5.266 245.484,5.266 245.484,217.357 		"/>
	</g>
	<g>
		<polygon fill="#D3DCDC" points="141.038,59.354 86.682,59.354 141.038,5.266 		"/>
	</g>
	<g>
		<rect x="107.465" y="86" fill="#00AFC0" width="117.503" height="6.661"/>
	</g>
	<g>
		<rect x="107.465" y="111.846" fill="#00AFC0" width="117.503" height="6.66"/>
	</g>
	<g>
		<rect x="107.465" y="137.689" fill="#00AFC0" width="105.513" height="6.662"/>
	</g>
	<g>
		<polygon fill="#F3D97F" points="185.268,181.387 185.533,181.121 165.018,160.604 164.751,160.872 159.422,177.923 
			168.215,186.449 		"/>
	</g>
	<g>
		<polygon fill="#F4866E" points="168.215,186.449 159.422,177.923 155.692,190.182 		"/>
	</g>
	<g>
		<path fill="#474F5A" d="M280.123,86.532c3.196-3.197,3.196-7.993,0-11.19l-9.593-9.592c-3.197-3.197-7.993-3.197-11.191,0
			l-7.727,7.727l20.517,20.517L280.123,86.532z"/>
	</g>
	<g>
		
			<rect x="157.16" y="112.599" transform="matrix(-0.7071 0.7071 -0.7071 -0.7071 463.246 62.3595)" fill="#F4866E" width="123.097" height="29.042"/>
	</g>
</g>
</svg>
