<svg id="レイヤー_1" data-name="レイヤー 1" xmlns="http://www.w3.org/2000/svg" viewBox="0 0 200 200"><defs><style>.cls-1{fill:#dce9ef;}.cls-2{fill:#788d9a;}.cls-3{fill:#00afc0;}.cls-4{fill:#f3d97f;}.cls-5{fill:#f4866e;}</style></defs><title>nda</title><polygon class="cls-1" points="24.5 189.2 24.5 55.7 70.43 10 158.68 10 158.68 189.2 24.5 189.2"/><polygon class="cls-2" points="70.43 55.7 24.5 55.7 70.43 10 70.43 55.7"/><rect class="cls-3" x="42.06" y="78.21" width="99.28" height="5.63"/><rect class="cls-3" x="42.06" y="100.05" width="99.28" height="5.63"/><rect class="cls-3" x="42.06" y="121.89" width="89.15" height="5.63"/><polygon class="cls-4" points="107.8 158.81 108.02 158.58 90.69 141.25 90.46 141.47 85.96 155.88 93.39 163.09 107.8 158.81"/><polygon class="cls-5" points="93.39 163.09 85.96 155.88 82.81 166.24 93.39 163.09"/><rect class="cls-5" x="84.05" y="100.69" width="104.01" height="24.54" transform="translate(-40.02 129.29) rotate(-45)"/></svg>