<?xml version="1.0" encoding="UTF-8"?><svg xmlns="http://www.w3.org/2000/svg" viewBox="0 0 240 240"><defs><style>.b{fill:#f2f2f2;}.c{fill:#fff;}.d{fill:#fefff0;}.e{fill:#ffbe0a;}.f{fill:#ffc545;}.g{fill:#ccc;}.h{fill:#dcdddd;}.i{fill:#e0e0e0;}.j{fill:#474747;}.k,.l{fill:#4d4d4d;}.l{mix-blend-mode:screen;}.m{isolation:isolate;}</style></defs><g class="m"><g id="a"><g><path class="d" d="M105.24738,219.68262c-14.49707,0-28.04492-8.10693-36.46289-21.75195-2.3457,.82227-4.80859,1.23877-7.33789,1.23877-14.09961,0-25.57031-13.25488-25.57031-29.54736,0-1.05859,.03711-2.03125,.11523-2.94873-12.46582-8.63574-20.1748-24.32666-20.1748-41.18262,0-19.33398,9.81641-36.521,25.08203-44.05469,1.77539-28.16504,22.08008-50.10547,46.54297-50.10547,6.83105,0,13.37793,1.65576,19.47559,4.92334,9.20898-9.64355,21.08398-14.93994,33.55762-14.93994,19.60059,0,37.38965,13.26074,45.57617,33.87256,.23242-.00879,.46484-.01416,.69727-.01416,17.2666,0,31.31348,16.25537,31.31348,36.23584,0,4.35938-.65527,8.60107-1.94824,12.62109,7.33984,9.49951,11.37305,21.74658,11.37305,34.58252,0,22.35596-12.1875,42.03662-30.3916,49.19971-7.16211,17.63281-22.58398,28.99121-39.44629,28.99121-8.72266,0-17.10352-2.96533-24.31738-8.58984-7.9248,7.40625-17.84961,11.46973-28.08398,11.46973Z"/><path class="j" d="M140.47467,22.7312c19.94922,0,37.06812,13.953,44.62476,33.92245,.54956-.03204,1.09912-.064,1.64868-.064,16.51465,0,29.89648,15.58511,29.89648,34.81851,0,4.54431-.74194,8.89661-2.11572,12.89694,7.17188,8.99265,11.54077,21.05753,11.54077,34.30649,0,22.46558-12.61255,41.53897-30.06128,48.09946-6.64966,16.9292-21.32324,28.67407-38.35986,28.67407-9.09521,0-17.50366-3.36024-24.40088-9.05667-7.5564,7.45653-17.33887,11.93686-28.00049,11.93686-14.89307,0-28.05542-8.76863-35.85913-22.08159-2.47314,1.02406-5.16602,1.56813-7.94141,1.56813-13.3269,0-24.15332-12.5769-24.15332-28.13004,0-1.24808,.05493-2.46417,.19238-3.64825-12.09058-8.00058-20.25171-23.13766-20.25171-40.48294,0-19.55341,10.35938-36.29062,25.03296-43.13913,1.37378-27.68198,21.07593-49.60358,45.17432-49.60358,7.08936,0,13.79419,1.88818,19.75708,5.2804,8.71069-9.5047,20.41626-15.29712,33.27637-15.29712m0-2.83466c-12.53076,0-24.46606,5.17184-33.83765,14.61374-6.03418-3.05167-12.4812-4.59698-19.1958-4.59698-24.97705,0-45.74268,22.10028-47.90063,50.6218-15.32764,7.952-25.14136,25.39291-25.14136,44.95554,0,17.01547,7.66943,32.89032,20.12183,41.87866-.04175,.71426-.0625,1.46112-.0625,2.25253,0,17.07397,12.10693,30.96466,26.98804,30.96466,2.30444,0,4.55811-.32516,6.72705-.96886,8.71387,13.4967,22.41748,21.48233,37.07349,21.48233,10.21777,0,20.13062-3.90463,28.16724-11.04506,7.24585,5.35059,15.57446,8.16486,24.23413,8.16486,17.26416,0,33.05103-11.46463,40.52881-29.31561,18.43018-7.55557,30.72705-27.58762,30.72705-50.29254,0-12.88419-3.97412-25.19849-11.21948-34.85889,1.19116-3.94788,1.79443-8.09311,1.79443-12.34454,0-20.66571-14.54663-37.49634-32.47974-37.65204-8.55981-20.63867-26.62671-33.85959-46.5249-33.85959h0Z"/></g><g><path class="f" d="M162.60207,108.29809c.01361-2.76121-.30624-5.53538-.9219-8.2564-.57506-2.60234-1.40737-5.08048-2.46162-7.41939-2.28406-5.17498-5.61905-9.88248-9.68537-13.57682-8.22734-7.47475-18.00199-10.5062-27.42036-10.01611-8.92806,.0309-17.97504,3.12405-25.56101,10.01611-11.54004,10.48443-17.20233,29.12323-9.61156,43.47541,2.11386,3.99675,5.03497,7.49577,7.84603,11.00908,3.60576,4.50657,5.95356,9.22524,8.87101,14.12556,3.57173,5.99922,13.14055,3.61726,19.38522,3.51884,6.24465,.09841,15.81348,2.48038,19.3852-3.51884,2.91746-4.90031,5.26525-9.61899,8.87101-14.12556,2.81105-3.51331,5.73217-7.01233,7.84603-11.00908,2.02702-3.83257,3.1083-7.97088,3.38565-12.1779,.04148-.42742,.06603-.85648,.0706-1.28733,.00278-.2534,.00291-.50585,.00109-.75756Z"/><g><path class="e" d="M132.61652,153.14014c-1.86328,0-3.73633-.15234-5.54883-.2998-1.45312-.11816-2.8252-.22949-4.04785-.24902-1.17773,.01953-2.5498,.13086-4.00293,.24902-1.81152,.14746-3.68457,.2998-5.54785,.2998-3.51855,0-8.49023-.49365-11.0293-4.75977-.74219-1.24658-1.44824-2.48145-2.14648-3.7041-2.05176-3.58984-3.98926-6.98047-6.61328-10.26123l-.76758-.95654c-2.57617-3.20654-5.24023-6.52197-7.22559-10.2749-6.26562-11.84766-4.9209-31.71143,9.91211-45.18701,7.44043-6.75977,16.60645-10.35059,26.50879-10.38477,.60547-.0332,1.28027-.05078,1.95801-.05078,9.77051,0,18.90625,3.6084,26.4209,10.43555,4.17871,3.79688,7.64648,8.65625,10.02832,14.05322,1.10547,2.45166,1.96387,5.04102,2.54883,7.68555,.64746,2.85889,.96973,5.74414,.95508,8.56934,.00195,.24316,.00195,.50488-.00098,.76758-.00488,.47021-.03125,.93896-.07617,1.40576-.29883,4.53809-1.49219,8.82715-3.54395,12.70557-1.9834,3.75-4.64551,7.06348-7.21875,10.26758l-.77344,.96387c-2.62695,3.2832-4.56543,6.67627-6.61816,10.26855-.69629,1.22021-1.40137,2.45264-2.1416,3.69678-2.54004,4.26611-7.51172,4.75977-11.0293,4.75977h0Z"/><path class="j" d="M124.06574,68.97852c8.80615,0,17.80737,3.10773,25.46753,10.06696,4.06616,3.69434,7.40112,8.40186,9.6853,13.57681,1.0542,2.33893,1.88647,4.81705,2.46167,7.4194,.61548,2.72104,.93555,5.49518,.92188,8.25641,.00171,.25171,.00171,.50415-.00122,.75754-.00439,.43088-.02905,.85992-.07056,1.28735-.27734,4.207-1.35864,8.34531-3.3855,12.17789-2.11401,3.99677-5.03516,7.49579-7.84619,11.00909-3.60571,4.50656-5.95361,9.22525-8.87085,14.12555-1.96875,3.30682-5.75928,4.06714-9.81128,4.06714-3.29907,0-6.77148-.50415-9.57397-.54831-2.80298,.04419-6.27441,.54831-9.57397,.54831-4.05127,0-7.84277-.76068-9.81128-4.06714-2.91748-4.9003-5.26538-9.61899-8.87109-14.12555-2.81104-3.51331-5.73218-7.01233-7.84595-11.00909-7.59082-14.35217-1.92847-32.99097,9.61157-43.4754,7.58594-6.89206,16.63281-9.9852,25.56104-10.01611,.64966-.03378,1.30054-.05084,1.95288-.05084m0-2.83466c-.67334,0-1.3562,.01721-2.03125,.05118-10.23267,.05203-19.70264,3.76926-27.38892,10.75238-11.46533,10.41669-18.94067,30.39362-10.21118,46.89874,2.04688,3.87009,4.75195,7.23776,7.36816,10.49454l.77026,.96021c2.55713,3.19595,4.46875,6.54178,6.49268,10.08401,.69141,1.21017,1.40649,2.46155,2.15625,3.7207,2.90918,4.88654,8.38281,5.45169,12.24683,5.45169,1.92041,0,3.823-.15466,5.66284-.30423,1.41113-.11469,2.74512-.22311,3.91113-.24368,1.16577,.02057,2.49976,.12897,3.91113,.24368,1.84009,.14957,3.74268,.30423,5.66284,.30423,3.86401,0,9.33765-.56516,12.24683-5.45166,.74951-1.25879,1.46411-2.50964,2.15527-3.71933,2.02417-3.54276,3.93604-6.88904,6.49341-10.08542l.77051-.96039c2.61597-3.25668,5.32104-6.62427,7.36792-10.49426,2.1394-4.04501,3.38599-8.51108,3.70557-13.27429,.04785-.50427,.07446-1.00446,.07935-1.48737,.00317-.267,.00317-.53674,.00122-.80576,.01465-2.89621-.31909-5.88919-.99146-8.86252-.60254-2.72531-1.49243-5.40762-2.64233-7.95883-2.45264-5.55704-6.03931-10.58148-10.36328-14.51004-7.77954-7.06778-17.24536-10.80359-27.37378-10.80359h0Z"/></g><path class="k" d="M123.06155,184.45613c4.95025,0,7.41337-2.47186,9.61094-5.56021,.83167-1.1688-4.65218-.60643-9.82665-.55449-5.29104,.05313-10.15266-.66269-9.1631,.7701,2.01038,2.91084,5.59331,5.34459,9.37881,5.34459Z"/><g><path class="h" d="M115.20636,179.82031c-5.28223,0-9.24219-5.67676-9.44922-7.66992-.0918-.15674-.35547-.46338-.53516-.67334-.6875-.80078-1.62891-1.89795-1.62891-3.36279,0-1.44873,.72656-2.36182,1.20801-2.96582,.06445-.08057,.14258-.17871,.2041-.26172-.0625-.1001-.14551-.22314-.21484-.32373-.47656-.70068-1.19727-1.75977-1.19727-3.41064,0-1.71387,.82227-2.46143,1.31348-2.9082,.08496-.07715,.20215-.18311,.22852-.22412-.00195-.42676-.23047-.77344-.60547-1.30176-.41699-.58838-.93652-1.32031-.93652-2.28125,0-1.83008,2.14258-4.74414,4.68262-4.74414h29.3252c2.54004,0,4.68262,2.91406,4.68262,4.74414,0,.96094-.51953,1.69287-.93652,2.28125-.375,.52832-.60352,.875-.60352,1.23047,.02539,.1123,.1416,.21826,.22656,.29541,.49121,.44678,1.31348,1.19434,1.31348,2.9082,0,1.65088-.7207,2.70996-1.19727,3.41064-.06934,.10059-.15234,.22363-.21484,.32373,.06152,.08301,.13965,.18115,.2041,.26172,.48145,.604,1.20801,1.51709,1.20801,2.96582,0,1.46484-.94141,2.56201-1.62891,3.36279-.17871,.2085-.43945,.5127-.53418,.67041-.15039,1.81055-2.81055,7.67285-8.52637,7.67285h-16.3877Z"/><path class="j" d="M137.60114,151.11026c1.7251,0,3.26538,2.2179,3.26538,3.32687s-1.54028,1.97147-1.54028,3.51172,1.54028,1.17056,1.54028,3.20367-1.47852,2.83398-1.47852,3.75812,1.47852,1.54025,1.47852,3.20367-2.15625,2.89563-2.15625,3.88138-2.11011,6.40735-7.11597,6.40735h-16.38794c-4.65161,0-8.04004-5.4216-8.04004-6.40735s-2.15625-2.21793-2.15625-3.88138,1.47852-2.27954,1.47852-3.20367-1.47852-1.72504-1.47852-3.75812,1.54028-1.66345,1.54028-3.20367-1.54028-2.40277-1.54028-3.51172,1.54028-3.32687,3.26514-3.32687h29.32593m0-2.83466h-29.32593c-3.48047,0-6.09985,3.73782-6.09985,6.16153,0,1.41299,.72168,2.42926,1.19897,3.10175,.02881,.04025,.06055,.08511,.09326,.13168-.57788,.62982-1.29224,1.70953-1.29224,3.48196,0,1.66046,.59424,2.87286,1.09131,3.67249-.51001,.72101-1.09131,1.79764-1.09131,3.28931,0,1.98944,1.23364,3.42706,1.97095,4.28598,.08789,.10245,.19531,.22787,.2793,.33047,.69092,2.98105,5.12061,8.50693,10.78076,8.50693h16.38794c6.32959,0,9.37866-5.80667,9.87695-8.53156,.08032-.09756,.17822-.21146,.25903-.30585,.7373-.85892,1.97095-2.29654,1.97095-4.28598,0-1.49167-.5813-2.5683-1.09131-3.28931,.49707-.79962,1.09131-2.01202,1.09131-3.67249,0-1.77243-.71436-2.85214-1.29224-3.48196,.03271-.04657,.06445-.09143,.09326-.13168,.47729-.67249,1.19897-1.68875,1.19897-3.10175,0-2.42371-2.61938-6.16153-6.1001-6.16153h0Z"/></g><path class="b" d="M122.70722,151.43369c5.49861,0,14.83239,0,15.57168,.32344,.73931,.32346,2.36792,1.62975,2.03311,2.26414-.43897,.83172-33.13001,.59848-34.19303,.32344s.87793-2.58758,1.61724-2.67999c.73929-.09241,8.40963-.23103,14.97099-.23103Z"/><path class="g" d="M122.70722,157.25573c5.49861,0,14.81909-.22814,15.57168-.43785,1.24759-.34767,2.9874-2.10026,1.57104-2.0573-16.76062,.50826-18.92168,.55447-33.73095,.03651-1.08383-.03792,.87793,2.02079,1.61724,2.09295,.73929,.07218,8.40963,.36569,14.97099,.36569Z"/><path class="g" d="M122.70722,164.15902c5.49861,0,14.81909-.22816,15.57168-.43787,1.24759-.34765,2.9874-2.10026,1.57104-2.0573-16.76062,.50826-18.92168,.55447-33.73095,.03651-1.08383-.0379,.87793,2.02079,1.61724,2.09295,.73929,.07218,8.40963,.36571,14.97099,.36571Z"/><path class="g" d="M122.70722,171.15996c5.49861,0,14.81909-.22814,15.57168-.43787,1.24759-.34765,2.9874-2.10025,1.57104-2.0573-16.76062,.50828-18.92168,.55449-33.73095,.03653-1.08383-.03792,.87793,2.02077,1.61724,2.09295,.73929,.07218,8.40963,.36569,14.97099,.36569Z"/><path class="i" d="M123.44355,177.88776c4.2302,0,7.46657,.62745,9.67194-.41867,2.44705-1.16075,6.05244-5.18623,2.87461-4.96512-10.60626,.738-13.33649,1.20139-26.05883,.23103-3.27761-.24997,1.50343,4.14658,4.47469,5.03655,2.10827,.63149,3.98977,.11621,9.03759,.11621Z"/><path class="b" d="M122.70722,158.36471c5.49861,0,15.36376-.0231,16.10307,.30034s2.03206,1.80424,1.50173,2.28723c-1.2938,1.17829-33.4413,.59848-34.50431,.32346-1.06302-.27504,1.00391-2.53283,1.74322-2.62524s8.59494-.28579,15.1563-.28579Z"/><path class="b" d="M122.70722,165.42906c5.49861,0,15.71032-.01783,16.44961,.30563,.73931,.32344,1.68552,1.79895,1.15518,2.28194-1.2938,1.17829-33.4413,.59848-34.50431,.32346-1.06302-.27504,.48072-2.59771,1.22001-2.69012,.73931-.09241,9.11815-.2209,15.67951-.2209Z"/><path class="c" d="M129.98123,151.45165c.34949,1.15938,.64459,2.18673,.89363,3.09345,1.31844-.01881,2.5602-.04302,3.68315-.0733-.22471-.90328-.49988-1.9043-.83487-2.97493-1.14641-.02164-2.42622-.03587-3.7419-.04521Z"/><path class="c" d="M130.30371,158.37594c.37141,1.20793,.68799,2.28496,.95744,3.24122,1.33041-.02205,2.57582-.05284,3.69337-.09367-.25267-.95553-.5585-2.0017-.92708-3.11032-1.14764-.01845-2.41981-.03002-3.72373-.03722Z"/><path class="c" d="M130.11081,165.44037c.36616,1.24816,.66284,2.32396,.90302,3.2451,1.30473-.02044,2.53191-.04902,3.64133-.08703-.20359-.9127-.46609-1.96739-.8014-3.12356-1.16852-.01693-2.44546-.02772-3.74295-.0345Z"/></g><circle class="l" cx="135.39689" cy="89.46111" r="11.52809"/></g></g></svg>