<?xml version="1.0" encoding="UTF-8"?><svg xmlns="http://www.w3.org/2000/svg" viewBox="0 0 240 240"><defs><style>.b{fill:#f2f2f2;}.c{fill:#fff;}.d{fill:#ffbe0a;}.e{fill:#ffc545;}.f{fill:#ccc;}.g{fill:#dcdddd;}.h{fill:#e0e0e0;}.i{fill:#474747;}.j,.k{fill:#4d4d4d;}.k{mix-blend-mode:screen;}.l{isolation:isolate;}</style></defs><g class="l"><g id="a"><g><g><g><path class="e" d="M181.21305,111.51741c.02107-4.27259-.47387-8.56522-1.42652-12.77562-.88982-4.02676-2.1777-7.86134-3.80902-11.48047-3.53426-8.00755-8.69469-15.29175-14.98675-21.00823-12.73065-11.56612-27.85555-16.25687-42.42916-15.49852-13.81491,.04782-27.81385,4.83403-39.55207,15.49852-17.85658,16.22318-26.61819,45.0641-14.87254,67.27208,3.2709,6.18441,7.79091,11.59865,12.14062,17.03501,5.57941,6.97328,9.21229,14.27477,13.72665,21.85731,5.52674,9.28295,20.33316,5.5972,29.9959,5.44492,9.66272,.15228,24.46913,3.83803,29.99587-5.44492,4.51435-7.58254,8.14724-14.88403,13.72665-21.85731,4.34971-5.43636,8.86972-10.8506,12.14062-17.03501,3.13653-5.93036,4.80965-12.33382,5.23881-18.84359,.06418-.66138,.10217-1.32528,.10925-1.99196,.00429-.3921,.0045-.78272,.00168-1.17221Z"/><g><path class="d" d="M134.81476,180.83691c-2.87988,0-5.77734-.23584-8.5791-.46338-2.25-.18311-4.375-.35547-6.26855-.38574-1.82812,.03027-3.95215,.20264-6.20215,.38574-2.80273,.22754-5.7002,.46338-8.58008,.46338-5.42676,0-13.09473-.76025-17.00781-7.33203-1.14648-1.92627-2.2373-3.83496-3.31738-5.72461-3.17578-5.55908-6.17578-10.80957-10.24219-15.89209l-1.19434-1.48926c-3.98242-4.95654-8.09961-10.08203-11.16504-15.87939-5.74121-10.85498-7.10938-24.13086-3.85059-37.38232,3.07129-12.48828,9.87988-24.01562,19.17188-32.45801,11.4873-10.43604,25.63672-15.98535,40.92383-16.05078,1.02246-.05225,2.05859-.07861,3.08008-.07861,15.10156,0,29.22266,5.57764,40.83691,16.12939,6.45996,5.86963,11.82031,13.38135,15.50293,21.72363,1.70898,3.79297,3.03711,7.79541,3.93945,11.88037,1,4.41748,1.49707,8.87744,1.47656,13.24463,.00293,.37695,.00293,.78174-.00195,1.18799-.00781,.70166-.04785,1.43359-.11914,2.17188-.46094,7.00977-2.30469,13.63721-5.47559,19.63184-3.06738,5.79932-7.18652,10.92676-11.16895,15.88525l-1.19043,1.4834c-4.06836,5.08496-7.07031,10.33789-10.24707,15.89941-1.07812,1.88721-2.16797,3.79346-3.3125,5.71729-3.91309,6.57129-11.58008,7.33203-17.00781,7.33203h-.00098Z"/><path class="i" d="M121.58356,50.67587c13.62622,0,27.55444,4.80881,39.40723,15.57721,6.29199,5.71649,11.45239,13.00067,14.98682,21.00824,1.63135,3.61911,2.91919,7.4537,3.80884,11.48047,.95264,4.21039,1.44775,8.50302,1.42651,12.7756,.00293,.3895,.00269,.78012-.00146,1.17224-.00708,.66669-.04517,1.33057-.10938,1.99194-.4292,6.50977-2.10229,12.91324-5.23877,18.8436-3.271,6.18439-7.79102,11.59863-12.14062,17.035-5.57935,6.97327-9.2124,14.27478-13.72656,21.8573-3.04639,5.11685-8.91187,6.29333-15.18164,6.29333-5.10474,0-10.47778-.78006-14.81445-.84842-4.33716,.06836-9.70874,.84842-14.81421,.84842-6.26904,0-12.1355-1.17706-15.18164-6.29333-4.5144-7.58252-8.14722-14.88403-13.72656-21.8573-4.34985-5.43637-8.86987-10.85062-12.14062-17.035-11.74561-22.20798-2.98413-51.04892,14.87256-67.27209,11.73828-10.66449,25.73706-15.45068,39.552-15.4985,1.00513-.05231,2.0127-.0787,3.02197-.0787m0-4.25195c-1.04102,0-2.09668,.02661-3.1394,.07913-15.80176,.07898-30.42383,5.81885-42.2937,16.60297-9.60205,8.72354-16.63623,20.62909-19.80688,33.5235-3.3833,13.75821-1.9502,27.56732,4.03491,38.88358,3.16138,5.97757,7.34351,11.1839,11.38794,16.21878l1.19116,1.48477c3.96313,4.95316,6.92358,10.13452,10.05762,15.62012,1.06982,1.87225,2.17603,3.80829,3.33545,5.75589,4.46704,7.50247,12.88892,8.37015,18.83521,8.37015,2.96606,0,5.90723-.23907,8.75122-.47028,2.18701-.17773,4.25391-.34576,6.06299-.37756,1.80884,.0318,3.87598,.19983,6.06299,.37756,2.84448,.2312,5.78564,.47028,8.75146,.47028,5.94629,0,14.36841-.86768,18.83521-8.37012,1.15894-1.94687,2.26465-3.88208,3.33398-5.75357,3.13452-5.48642,6.09546-10.66855,10.05908-15.62256l1.19263-1.48663c4.0437-5.03427,8.22534-10.23996,11.38647-16.21677,3.30151-6.24219,5.22534-13.13513,5.71875-20.48752,.07349-.77551,.11475-1.54584,.12256-2.29083,.00439-.40875,.00464-.81589,.00171-1.22183,.02051-4.5155-.49463-9.12793-1.53125-13.70947-.92969-4.20801-2.30396-8.34985-4.07959-12.28946-3.78809-8.58261-9.3269-16.34164-16.00415-22.40802-12.01221-10.91354-26.62769-16.6821-42.26636-16.6821h0Z"/></g><path class="j" d="M120.02965,229.36127c7.65982,0,11.47115-3.82486,14.87158-8.60364,1.28689-1.80855-7.1986-.93837-15.20536-.85799-8.18713,.0822-15.70982-1.02542-14.17861,1.19163,3.11079,4.50411,8.65485,8.27001,14.51239,8.27001Z"/><g><path class="g" d="M107.87433,222.12109c-8.1543,0-14.26172-8.7749-14.55566-11.82275-.14062-.24512-.55762-.73193-.84277-1.06348-1.05762-1.23193-2.50488-2.91895-2.50488-5.16016,0-2.21826,1.11719-3.62012,1.85547-4.54736,.11035-.1377,.24512-.30713,.34375-.44385-.09863-.1626-.24121-.37207-.35645-.54102-.73438-1.07764-1.84277-2.70605-1.84277-5.24023,0-2.62256,1.25977-3.76709,2.01172-4.45117,.13574-.12256,.31934-.29053,.36328-.35791-.00195-.00098,.00879-.04834,.00879-.14844,0-.56982-.35742-1.11377-.94531-1.94238-.64062-.90234-1.43848-2.02539-1.43848-3.49121,0-2.80615,3.28516-7.27393,7.17871-7.27393h45.37793c3.89355,0,7.17871,4.46777,7.17871,7.27393,0,1.46582-.79785,2.58887-1.43848,3.49121-.58789,.82861-.94531,1.37256-.94531,1.94238,0,.11572,.01367,.16064,.01367,.16113,.0332,.0498,.22168,.2207,.3584,.34521,.75195,.68408,2.01172,1.82861,2.01172,4.45117,0,2.53418-1.1084,4.1626-1.84277,5.24023-.11523,.16895-.25781,.37842-.35645,.54102,.09863,.13672,.2334,.30615,.34375,.44385,.73828,.92725,1.85547,2.3291,1.85547,4.54736,0,2.24121-1.44727,3.92822-2.50488,5.16016-.2832,.33008-.69824,.81348-.84082,1.05957-.21387,2.7627-4.30859,11.82666-13.12793,11.82666h-25.3584Z"/><path class="i" d="M142.52765,177.76321c2.66943,0,5.05273,3.43192,5.05273,5.14786s-2.3833,3.0506-2.3833,5.4339,2.3833,1.81129,2.3833,4.95723-2.28809,4.38522-2.28809,5.8152,2.28809,2.3833,2.28809,4.95723-3.33667,4.48056-3.33667,6.00589-3.26514,9.91444-11.01074,9.91444h-25.35815c-7.19751,0-12.44067-8.38916-12.44067-9.91444s-3.33667-3.43195-3.33667-6.00589,2.28784-3.52727,2.28784-4.95723-2.28784-2.66928-2.28784-5.8152,2.3833-2.57396,2.3833-4.95723-2.3833-3.71793-2.3833-5.4339,2.3833-5.14786,5.05249-5.14786h45.37769m0-4.25195h-45.37769c-5.30908,0-9.30444,5.70227-9.30444,9.39981,0,2.14359,1.10156,3.6951,1.83057,4.7218,.06201,.08746,.13354,.18845,.20508,.29138-.90942,.95621-2.03564,2.5816-2.03564,5.37794,0,2.58649,.94604,4.46466,1.71582,5.68758-.79053,1.10132-1.71582,2.76552-1.71582,5.08485,0,3.02873,1.81567,5.14455,3.01733,6.54462,.14233,.16603,.31787,.37039,.45117,.53462,1.01978,4.55646,7.83838,13.09306,16.56079,13.09306h25.35815c9.56714,0,14.36719-9.01268,15.14819-13.11441,.1311-.16034,.29761-.35435,.43384-.51328,1.20166-1.40007,3.01733-3.51588,3.01733-6.54462,0-2.31924-.92529-3.98352-1.71582-5.08487,.76978-1.22295,1.71582-3.10118,1.71582-5.68756,0-2.79634-1.12622-4.42174-2.03564-5.37794,.07153-.10294,.14307-.20392,.20508-.29138,.729-1.0267,1.83057-2.57822,1.83057-4.7218,0-3.69754-3.99561-9.39981-9.30469-9.39981h0Z"/></g><path class="b" d="M119.48138,178.26368c8.50832,0,22.95104,0,24.09499,.50048,1.14398,.50051,3.66402,2.52181,3.14596,3.50344-.67925,1.28698-51.26403,.92607-52.9089,.50048s1.35847-4.00392,2.50245-4.14691c1.14395-.14299,13.01272-.35749,23.1655-.35749Z"/><path class="f" d="M119.48138,187.27248c8.50832,0,22.93047-.35302,24.09499-.67751,1.93048-.53797,4.62258-3.24986,2.43096-3.18339-25.9347,.78647-29.27864,.85796-52.1939,.0565-1.67708-.05867,1.35847,3.12689,2.50245,3.23855,1.14395,.11169,13.01272,.56585,23.1655,.56585Z"/><path class="f" d="M119.48138,197.95435c8.50832,0,22.93047-.35305,24.09499-.67754,1.93048-.53794,4.62258-3.24986,2.43096-3.18339-25.9347,.78647-29.27864,.85796-52.1939,.0565-1.67708-.05864,1.35847,3.12689,2.50245,3.23855,1.14395,.11169,13.01272,.56588,23.1655,.56588Z"/><path class="f" d="M119.48138,208.78731c8.50832,0,22.93047-.35302,24.09499-.67754,1.93048-.53794,4.62258-3.24984,2.43096-3.18339-25.9347,.7865-29.27864,.85799-52.1939,.05652-1.67708-.05867,1.35847,3.12686,2.50245,3.23855,1.14395,.11169,13.01272,.56585,23.1655,.56585Z"/><path class="h" d="M120.62075,219.19764c6.54563,0,11.55347,.9709,14.96598-.64783,3.78647-1.7961,9.3653-8.02496,4.44805-7.68283-16.4117,1.14195-20.63635,1.85898-40.32238,.35749-5.07165-.38679,2.32635,6.41625,6.92395,7.79335,3.26225,.97714,6.17361,.17982,13.9844,.17982Z"/><path class="b" d="M119.48138,188.98847c8.50832,0,23.77325-.03575,24.91723,.46473s3.14433,2.79181,2.32371,3.53916c-2.00197,1.82323-51.74571,.92607-53.39058,.50051-1.64487-.42559,1.55341-3.91919,2.69739-4.06219s13.29946-.44221,23.45224-.44221Z"/><path class="b" d="M119.48138,199.91956c8.50832,0,24.30951-.02759,25.45346,.47291,1.14398,.50048,2.6081,2.78363,1.78748,3.53098-2.00197,1.82323-51.74571,.92607-53.39058,.50051-1.64487-.42559,.74384-4.01959,1.88779-4.16258,1.14398-.14299,14.10906-.34182,24.26184-.34182Z"/><path class="c" d="M130.73688,178.29148c.54078,1.79398,.99742,3.38366,1.38276,4.78667,2.0401-.0291,3.96156-.06656,5.69916-.11343-.34771-1.3977-.7735-2.94664-1.29185-4.60329-1.7739-.03349-3.75423-.05551-5.79007-.06996Z"/><path class="c" d="M131.23588,189.00585c.5747,1.86911,1.06456,3.53565,1.4815,5.01532,2.05862-.03412,3.98573-.08177,5.71497-.14494-.39097-1.47854-.8642-3.09735-1.43453-4.81279-1.77582-.02855-3.74431-.04646-5.76195-.0576Z"/><path class="c" d="M130.93738,199.93706c.56658,1.93135,1.02565,3.596,1.3973,5.02133,2.01889-.03163,3.91777-.07585,5.63445-.13467-.31503-1.41227-.72121-3.04425-1.24006-4.83327-1.80811-.0262-3.784-.04289-5.79169-.05339Z"/></g><circle class="k" cx="139.11686" cy="82.36982" r="17.83811"/></g><rect class="d" x="117.26265" y="10.63873" width="4.34452" height="26.60328" rx="2.17226" ry="2.17226"/><rect class="d" x="146.13327" y="31.76811" width="26.60328" height="4.34452" rx="2.17226" ry="2.17226" transform="translate(50.32425 155.04488) rotate(-60.00001)"/><rect class="d" x="77.26265" y="20.63873" width="4.34452" height="26.60328" rx="2.17226" ry="2.17226" transform="translate(-6.32792 44.2646) rotate(-30)"/></g></g></g></svg>