<svg id="materials" xmlns="http://www.w3.org/2000/svg" viewBox="0 0 460 39.07"><defs><style>.cls-1{fill:#474747;}.cls-2{fill:#fff;}</style></defs><title>other-title</title><path class="cls-1" d="M173.36,36.37a4.3,4.3,0,0,1-4.54-4.45,4.38,4.38,0,0,1,.49-2.13,4.56,4.56,0,0,1-.55-2.22,4.87,4.87,0,0,1,.08-.85,4.91,4.91,0,0,1-2.9-4.58,3.89,3.89,0,0,1,1.3-3.08,4.56,4.56,0,0,1-.25-6,5.27,5.27,0,0,1-.33-1.87,4.11,4.11,0,0,1,4.39-4.3h1.67c.2-.31.44-.69.79-1.26.84-1.31,2-3,4.59-3,3,0,5.17,1.76,5.17,4.19v.15a5,5,0,0,1,4.85-3.8,5.08,5.08,0,0,1,2.87,1c.9.63,1.91,1.38,3,2.26,2.39,1.9,3.83,3,3.83,5.29a4.28,4.28,0,0,1-.09.87,4.3,4.3,0,0,1,1.62,3.45A4.29,4.29,0,0,1,198,19.15a3.88,3.88,0,0,1,1.27,3.11,4.89,4.89,0,0,1-3.52,4.84c-.15,2.23-1.9,3.56-4.66,5A42.65,42.65,0,0,1,173.36,36.37Z"/><path class="cls-1" d="M178.1,5c.87,0,2.67.33,2.67,1.69,0,.38,0,.75-1.65,2.69h1.17c2.22,0,4.44-.06,6.63-.09-1-.87-1.23-1.08-1.23-1.67a2.4,2.4,0,0,1,2.43-2.08,2.6,2.6,0,0,1,1.5.58c.48.33,1.41,1,2.85,2.12,2.34,1.87,2.88,2.38,2.88,3.33A2.36,2.36,0,0,1,193,13.83c-.72,0-.78,0-2.4-1.44-2.52.21-3.57.24-7.17.39-.3.6-.45.88-.66,1.26h11.88a1.91,1.91,0,0,1,2.22,1.89c0,1.86-1.8,1.86-2.22,1.86H190.4l1.23.84A17.39,17.39,0,0,0,194.42,20c1.77.69,2.37.93,2.37,2.22a2.29,2.29,0,0,1-2,2.46c-1.17,0-3.21-1.32-4.44-2.16a23.82,23.82,0,0,1-5.25-4.77H180.2a26.57,26.57,0,0,1-4,3.69,18.63,18.63,0,0,0,5.07-1.89c1.74-.93,1.83-1,2.28-1a1.8,1.8,0,0,1,1.65,1.8c0,.63-.12,1-2.58,2.19A23.82,23.82,0,0,1,175,24.87c-.93,0-1.32-.81-1.41-1.53a6.64,6.64,0,0,1-3.09,1.2,2.22,2.22,0,0,1-2-2.4c0-1,.42-1.35,1.71-1.89a22.07,22.07,0,0,0,4.38-2.46h-3.87a1.9,1.9,0,1,1,0-3.75h7.8a6.41,6.41,0,0,0,.72-1.13c-2.07.05-5.73.12-7.83.12-.87,0-2.19,0-2.19-1.87a1.68,1.68,0,0,1,1.89-1.8c1,0,2.07,0,3,0,.45-.68.69-1,1.56-2.42.75-1.17,1.2-1.87,2.46-1.87m9.12,16.59a1.91,1.91,0,0,1,1.71,1.8c0,.78-.6,1.29-2.16,2.1a39.3,39.3,0,0,1-14,3.75,1.57,1.57,0,0,1-1.56-1.71c0-1.17.87-1.41,1.86-1.53,5.7-.69,9.3-1.8,12.87-3.93a2.48,2.48,0,0,1,1.23-.48m4,3a2.23,2.23,0,0,1,2,2.13c0,.72-.27,1.5-3.3,3a40.43,40.43,0,0,1-16.62,4,1.82,1.82,0,0,1-2-1.95c0-1.59,1.23-1.71,2.52-1.83,7.41-.66,12.12-2.22,15.78-4.77a2.83,2.83,0,0,1,1.62-.66M178.1,0c-4,0-5.74,2.71-6.67,4.17l0,.07,0,.08H171a6.61,6.61,0,0,0-6.8,6.79,7.47,7.47,0,0,0,.13,1.41,6.91,6.91,0,0,0-.82,3.34,7.16,7.16,0,0,0,.69,3.1,6.76,6.76,0,0,0-.72,3.13,7.54,7.54,0,0,0,2.84,5.95,6.7,6.7,0,0,0,.34,1.75,7.35,7.35,0,0,0-.3,2.08,6.76,6.76,0,0,0,7,6.95,45.37,45.37,0,0,0,18.89-4.59c1.73-.87,4.7-2.38,5.7-5.36a7.52,7.52,0,0,0,3.84-6.66,7,7,0,0,0-.67-3.11,6.92,6.92,0,0,0,.76-3.22,6.79,6.79,0,0,0-1.53-4.39c0-3.4-2.23-5.15-4.77-7.17-1.17-.93-2.22-1.71-3.12-2.33L192.35,2A7.4,7.4,0,0,0,188.12.58,7.57,7.57,0,0,0,183.67,2,8.26,8.26,0,0,0,178.1,0Z"/><path class="cls-1" d="M208.88,36.34a6.89,6.89,0,0,1-3.79-.73,3.9,3.9,0,0,1-.36-.25,4.07,4.07,0,0,1-2.36.71,5.16,5.16,0,0,1-5.23-4.81,6.46,6.46,0,0,1,1.14-3.34c.9-1.58,2.44-4.3,2.76-10.64a4.2,4.2,0,0,1-3.66-4.47c0-3.56,2-4.61,3.72-4.86V7.5a4.33,4.33,0,0,1,4.51-4.72c4.4,0,4.87,3.31,4.87,4.72v.39a8.09,8.09,0,0,1,3.05.46c.59-2.21,2.24-4.15,6.24-4.15h3.54c5.36,0,6.49,3.52,6.49,6.48V29.22c0,3-1.13,6.52-6.49,6.52h-3.54A6.42,6.42,0,0,1,214.83,34C213.79,35.5,212,36.34,208.88,36.34Z"/><path class="cls-1" d="M205.61,5.28c1.59,0,2.37.51,2.37,2.22v2.88h2c1.56,0,2.67,0,3.51,1,.69.78.72,1.5.72,3.93,0,2.16-.15,8.76-.3,11.07-.42,6.54-1,7.5-5.07,7.5a5.76,5.76,0,0,1-2.43-.33,2.65,2.65,0,0,1-1-2.25,2.34,2.34,0,0,1,.84-2,1.82,1.82,0,0,1,1-.24c1.17,0,1.41,0,1.71-.72.57-1.35.72-9.75.72-12.54,0-.83-.12-.93-.87-.93H208c-.18,8.76-1.62,12.75-2.58,15.12-1.23,3-2.07,3.6-3,3.6a2.74,2.74,0,0,1-2.73-2.31,4.49,4.49,0,0,1,.84-2.16c1.11-2,3.12-5.55,3.12-14.25h-1.53c-1,0-2.19-.24-2.19-2s.45-2.43,2.19-2.43h1.53V7.5c0-.77.12-2.22,2-2.22m17.7,1.42c2.58,0,4,.89,4,4V29.22c0,3.15-1.44,4-4,4h-3.54c-2.46,0-4-.81-4-4V10.68c0-3.15,1.47-4,4-4h3.54M221,28.83h1.05a.83.83,0,0,0,.93-.93V12a.86.86,0,0,0-.93-1H221a.86.86,0,0,0-.93,1V27.9a.84.84,0,0,0,.93.93M205.61.28a6.7,6.7,0,0,0-6.89,5.78,7.15,7.15,0,0,0-3.84,6.75A6.73,6.73,0,0,0,198.41,19a17.29,17.29,0,0,1-2.27,7.64l0,.05a8.81,8.81,0,0,0-1.47,4.58c0,3.9,3.61,7.31,7.73,7.31a6.81,6.81,0,0,0,2.28-.37,10.85,10.85,0,0,0,4.23.64,10.56,10.56,0,0,0,6.2-1.6,10.3,10.3,0,0,0,4.69,1h3.54c5.63,0,9-3.37,9-9V10.68c0-5.62-3.36-9-9-9h-3.54c-3.21,0-5.69,1.08-7.23,3.06C211.58,2,209.06.28,205.61.28Z"/><path class="cls-1" d="M239.15,36.52c-3.06,0-4.81-1.71-4.81-4.69V29.54a4.49,4.49,0,0,1-.83.08,4.9,4.9,0,0,1-4.69-5.14A4.27,4.27,0,0,1,230.44,21a4.19,4.19,0,0,1-1.59-3.31,16.74,16.74,0,0,1,.56-3.15c.07-.3.12-.55.14-.67A35.64,35.64,0,0,0,230,8.94V8.82a4.05,4.05,0,0,1,4.27-4.21,5.23,5.23,0,0,1,.82.07,4.45,4.45,0,0,1,3.8-1.9c2.34,0,3.94,1.08,4.53,3a5.29,5.29,0,0,1,1.74-.28h1.25c.51-1.43,1.82-2.67,4.3-2.67,3.06,0,4.25,1.39,4.7,2.67h1.72A4.22,4.22,0,0,1,261.6,10a5,5,0,0,1-.54,2.35,4.7,4.7,0,0,1,1.35,3.47,5,5,0,0,1-.9,3,5,5,0,0,1,.81,2.83,4.23,4.23,0,0,1-3,4.43v4c0,6.13-4.78,6.13-7.63,6.13-2.37,0-2.8,0-3.49-.24a4.55,4.55,0,0,1-2.91-3.62A4.13,4.13,0,0,1,243.66,31v.83A4.31,4.31,0,0,1,239.15,36.52Z"/><path class="cls-1" d="M250.7,5.28c1.53,0,2.46.3,2.46,1.75V8h4c.63,0,2,.06,2,2,0,1.68-1,2-2,2h-4v1.71h4.65c.63,0,2.1,0,2.1,2.1,0,1.86-1.08,2.16-2.1,2.16h-1v1.62h1c.69,0,2,.06,2,2.07,0,1.8-1,2.13-2,2.13h-1v6.33c0,3.63-2,3.63-5.13,3.63a9.26,9.26,0,0,1-2.7-.12,2.37,2.37,0,0,1-1.29-2.34,2.7,2.7,0,0,1,.21-1.17,2.42,2.42,0,0,1-.81.12c-1.11,0-1.41-.57-1.89-1.47-.15-.3-1-1.56-1.17-1.83a2.47,2.47,0,0,1-.48-1.38,1.94,1.94,0,0,1,1.38-1.77c-.87,0-1.83,0-2.19-1.23-.81.51-1.26.75-1.59,1v8.34c0,.75-.09,2.19-2,2.19-1.56,0-2.31-.51-2.31-2.19V25.77c-.54.27-2,1-2.34,1.11a2.69,2.69,0,0,1-1,.24,2.45,2.45,0,0,1-2.19-2.64c0-.45,0-1.41,1.65-2.07,2.25-.9,2.49-1,3.87-1.62V15.33h-1.29c-.42,3.36-.72,4.17-2.19,4.17a1.87,1.87,0,0,1-2-1.8c0-.54.57-2.88.66-3.36A38.46,38.46,0,0,0,232.49,9c0-.61.06-1.84,1.77-1.84S236,8.25,236,9.19c0,.72-.06,1.43-.06,1.7h.93V7.48a1.89,1.89,0,0,1,2-2.2c1.59,0,2.28.6,2.28,2.2v3.44h.39c1,0,1.83.63,1.83,2.19a3.68,3.68,0,0,1-.09.78,2.89,2.89,0,0,1,1.17-.21h4.17V12h-3.48c-.6,0-2,0-2-2,0-1.76,1-2,2-2h3.48V7c0-1.24.72-1.75,2.07-1.75m-8.25,9.78a1.63,1.63,0,0,1-.9.24h-.39v3.24a1.94,1.94,0,0,1,.84-.18,1.85,1.85,0,0,1,1.77,1.32,2.63,2.63,0,0,1,.9-.12h7.65V17.94h-7.86c-1.05,0-2.07-.33-2.07-2.16a4,4,0,0,1,.06-.72m6.93,14c.18,0,1.53,0,1.77,0,1.14,0,1.17-.39,1.17-1.08V23.76h-5.4c.9.42,2.82,3.15,2.82,4.29a1.65,1.65,0,0,1-.36,1.05M250.7.28A7,7,0,0,0,244.91,3h-.15A7.13,7.13,0,0,0,238.88.28,7,7,0,0,0,234,2.12a6.49,6.49,0,0,0-6.48,6.56v.17a34,34,0,0,1-.4,4.6c0,.11-.07.31-.12.55a17.64,17.64,0,0,0-.62,3.7,6.75,6.75,0,0,0,.86,3.32,6.91,6.91,0,0,0-.89,3.46,7.59,7.59,0,0,0,5.52,7.44c0,4.32,2.9,7.1,7.31,7.1a6.79,6.79,0,0,0,5.48-2.49,6.74,6.74,0,0,0,2.6,1.76l.18.06a12.5,12.5,0,0,0,4.28.37,12.74,12.74,0,0,0,6-1c1.88-1,4.13-3.06,4.13-7.64V27.62a6.93,6.93,0,0,0,3-6,7.82,7.82,0,0,0-.49-2.79,7.91,7.91,0,0,0,.58-3.06,7.48,7.48,0,0,0-1-3.9A8.42,8.42,0,0,0,264.1,10a6.7,6.7,0,0,0-7-7h-.24C255.74,1.42,253.77.28,250.7.28Z"/><path class="cls-1" d="M289,36.31c-2.19,0-6.56-2.44-7.06-2.72-2.54-1.46-4.41-2.68-4.72-4.75H277c-.23,1.56-1.36,2.61-3,3.73-1.26.83-6.44,3.74-8.76,3.74-2.7,0-4.51-2.59-4.51-5A3.9,3.9,0,0,1,262,28.17a4.39,4.39,0,0,1-1.84-3.81,4.49,4.49,0,0,1,2-4.13V11.58c0-2.26.79-6.07,6-6.07h.87a4.19,4.19,0,0,1,4.29-2.81A4.9,4.9,0,0,1,277.1,4a4.56,4.56,0,0,1,3.39-1.26c3.05,0,4.23,1.41,4.66,2.81h1c3.91,0,6.07,2.16,6.07,6.07v8.71a4.56,4.56,0,0,1,1.89,3.92,4.44,4.44,0,0,1-1.86,4,3.86,3.86,0,0,1,1.32,3.07C293.52,33.7,291.7,36.31,289,36.31Z"/><path class="cls-1" d="M280.49,5.2c1.68,0,2.37.41,2.37,1.85V8h3.24c2.37,0,3.57.85,3.57,3.57V22.17c.75,0,1.89,0,1.89,2,0,1.41-.45,2.13-1.89,2.13h-6.9c.54.24,2.88,1.5,3.36,1.74,1.35.63,2.37,1.05,3.57,1.5A1.64,1.64,0,0,1,291,31.26c0,1-.72,2.55-2,2.55s-4.5-1.65-5.82-2.4c-3.15-1.8-3.51-2.46-3.51-3.21a2.12,2.12,0,0,1,1.2-1.86h-7.47a2.09,2.09,0,0,1,1.2,1.86c0,.48,0,1-2,2.28s-6.15,3.33-7.38,3.33-2-1.5-2-2.52c0-1.35.93-1.68,2.76-2.34a31.66,31.66,0,0,0,4.17-1.86c.33-.18,1.14-.66,1.35-.75h-6.84c-.6,0-1.95,0-1.95-2s.93-2.19,2-2.19V11.58C264.71,8.76,266,8,268.25,8h3.15V7.08c0-.66.06-1.88,2-1.88,1.71,0,2.34.47,2.34,1.88V8h2.73v-1c0-.77.15-1.85,2-1.85m2.13,10h2.7V12.93a.69.69,0,0,0-.78-.75h-1.92v3m-6.87,0h2.73v-3h-2.73v3m-6.84,0h2.7v-3h-1.92a.69.69,0,0,0-.78.75v2.28m13.71,7h2.7V19h-2.7v3.21m-6.87,0h2.73V19h-2.73v3.21m-6.84,0h2.7V19h-2.7v3.21M280.49.2a7.68,7.68,0,0,0-3.39.74A8.53,8.53,0,0,0,273.41.2,6.85,6.85,0,0,0,267.59,3c-4.88.27-7.88,3.49-7.88,8.55V19a7.26,7.26,0,0,0-2,5.33,7.26,7.26,0,0,0,1.12,4,6.77,6.77,0,0,0-.61,2.92c0,3.64,2.82,7.52,7,7.52,3.58,0,10.06-4.1,10.12-4.15a14.69,14.69,0,0,0,1.76-1.32,20.15,20.15,0,0,0,3.58,2.42c1.62.92,5.67,3.05,8.3,3.05a7.3,7.3,0,0,0,7-7.55,7.15,7.15,0,0,0-.6-2.84,7.73,7.73,0,0,0,1.14-4.21,7.3,7.3,0,0,0-1.89-5.08V11.58c0-5.09-3.05-8.32-8-8.55C285.56,1.4,283.6.2,280.49.2Z"/><path class="cls-2" d="M178.46,14a6.41,6.41,0,0,0,.72-1.13c-2.07.05-5.73.12-7.83.12-.87,0-2.19,0-2.19-1.87a1.68,1.68,0,0,1,1.89-1.8c1,0,2.07,0,3,0,.45-.68.69-1,1.56-2.42.75-1.17,1.2-1.87,2.46-1.87.87,0,2.67.33,2.67,1.69,0,.38,0,.75-1.65,2.69h1.17c2.22,0,4.44-.06,6.63-.09-1-.87-1.23-1.08-1.23-1.67a2.4,2.4,0,0,1,2.43-2.08,2.6,2.6,0,0,1,1.5.58c.48.33,1.41,1,2.85,2.12,2.34,1.87,2.88,2.38,2.88,3.33A2.36,2.36,0,0,1,193,13.83c-.72,0-.78,0-2.4-1.44-2.52.21-3.57.24-7.17.39-.3.6-.45.88-.66,1.26h11.88a1.91,1.91,0,0,1,2.22,1.89c0,1.86-1.8,1.86-2.22,1.86H190.4l1.23.84A17.39,17.39,0,0,0,194.42,20c1.77.69,2.37.93,2.37,2.22a2.29,2.29,0,0,1-2,2.46c-1.17,0-3.21-1.32-4.44-2.16a23.82,23.82,0,0,1-5.25-4.77H180.2a26.57,26.57,0,0,1-4,3.69,18.63,18.63,0,0,0,5.07-1.89c1.74-.93,1.83-1,2.28-1a1.8,1.8,0,0,1,1.65,1.8c0,.63-.12,1-2.58,2.19A23.82,23.82,0,0,1,175,24.87c-.93,0-1.32-.81-1.41-1.53a6.64,6.64,0,0,1-3.09,1.2,2.22,2.22,0,0,1-2-2.4c0-1,.42-1.35,1.71-1.89a22.07,22.07,0,0,0,4.38-2.46h-3.87a1.9,1.9,0,1,1,0-3.75Zm10.47,9.39c0,.78-.6,1.29-2.16,2.1a39.3,39.3,0,0,1-14,3.75,1.57,1.57,0,0,1-1.56-1.71c0-1.17.87-1.41,1.86-1.53,5.7-.69,9.3-1.8,12.87-3.93a2.48,2.48,0,0,1,1.23-.48A1.91,1.91,0,0,1,188.93,23.43Zm4.35,3.36c0,.72-.27,1.5-3.3,3a40.43,40.43,0,0,1-16.62,4,1.82,1.82,0,0,1-2-1.95c0-1.59,1.23-1.71,2.52-1.83,7.41-.66,12.12-2.22,15.78-4.77a2.83,2.83,0,0,1,1.62-.66A2.23,2.23,0,0,1,193.28,26.79Z"/><path class="cls-2" d="M202.07,14.85c-1,0-2.19-.24-2.19-2s.45-2.43,2.19-2.43h1.53V7.5c0-.77.12-2.22,2-2.22,1.59,0,2.37.51,2.37,2.22v2.88h2c1.56,0,2.67,0,3.51,1,.69.78.72,1.5.72,3.93,0,2.16-.15,8.76-.3,11.07-.42,6.54-1,7.5-5.07,7.5a5.76,5.76,0,0,1-2.43-.33,2.65,2.65,0,0,1-1-2.25,2.34,2.34,0,0,1,.84-2,1.82,1.82,0,0,1,1-.24c1.17,0,1.41,0,1.71-.72.57-1.35.72-9.75.72-12.54,0-.83-.12-.93-.87-.93H208c-.18,8.76-1.62,12.75-2.58,15.12-1.23,3-2.07,3.6-3,3.6a2.74,2.74,0,0,1-2.73-2.31,4.49,4.49,0,0,1,.84-2.16c1.11-2,3.12-5.55,3.12-14.25ZM227.3,29.22c0,3.15-1.44,4-4,4h-3.54c-2.46,0-4-.81-4-4V10.68c0-3.15,1.47-4,4-4h3.54c2.58,0,4,.89,4,4ZM223,12a.86.86,0,0,0-.93-1H221a.86.86,0,0,0-.93,1V27.9a.84.84,0,0,0,.93.93h1.05a.83.83,0,0,0,.93-.93Z"/><path class="cls-2" d="M241.16,31.83c0,.75-.09,2.19-2,2.19-1.56,0-2.31-.51-2.31-2.19V25.77c-.54.27-2,1-2.34,1.11a2.69,2.69,0,0,1-1,.24,2.45,2.45,0,0,1-2.19-2.64c0-.45,0-1.41,1.65-2.07,2.25-.9,2.49-1,3.87-1.62V15.33h-1.29c-.42,3.36-.72,4.17-2.19,4.17a1.87,1.87,0,0,1-2-1.8c0-.54.57-2.88.66-3.36A38.46,38.46,0,0,0,232.49,9c0-.61.06-1.84,1.77-1.84S236,8.25,236,9.19c0,.72-.06,1.43-.06,1.7h.93V7.48a1.89,1.89,0,0,1,2-2.2c1.59,0,2.28.6,2.28,2.2v3.44h.39c1,0,1.83.63,1.83,2.19a3.68,3.68,0,0,1-.09.78,2.89,2.89,0,0,1,1.17-.21h4.17V12h-3.48c-.6,0-2,0-2-2,0-1.76,1-2,2-2h3.48V7c0-1.24.72-1.75,2.07-1.75,1.53,0,2.46.3,2.46,1.75V8h4c.63,0,2,.06,2,2,0,1.68-1,2-2,2h-4v1.71h4.65c.63,0,2.1,0,2.1,2.1,0,1.86-1.08,2.16-2.1,2.16h-1v1.62h1c.69,0,2,.06,2,2.07,0,1.8-1,2.13-2,2.13h-1v6.33c0,3.63-2,3.63-5.13,3.63a9.26,9.26,0,0,1-2.7-.12,2.37,2.37,0,0,1-1.29-2.34,2.7,2.7,0,0,1,.21-1.17,2.42,2.42,0,0,1-.81.12c-1.11,0-1.41-.57-1.89-1.47-.15-.3-1-1.56-1.17-1.83a2.47,2.47,0,0,1-.48-1.38,1.94,1.94,0,0,1,1.38-1.77c-.87,0-1.83,0-2.19-1.23-.81.51-1.26.75-1.59,1Zm0-13.29a1.94,1.94,0,0,1,.84-.18,1.85,1.85,0,0,1,1.77,1.32,2.63,2.63,0,0,1,.9-.12h7.65V17.94h-7.86c-1.05,0-2.07-.33-2.07-2.16a4,4,0,0,1,.06-.72,1.63,1.63,0,0,1-.9.24h-.39Zm5.76,5.22c.9.42,2.82,3.15,2.82,4.29a1.65,1.65,0,0,1-.36,1.05c.18,0,1.53,0,1.77,0,1.14,0,1.17-.39,1.17-1.08V23.76Z"/><path class="cls-2" d="M273.38,26.34a2.09,2.09,0,0,1,1.2,1.86c0,.48,0,1-2,2.28s-6.15,3.33-7.38,3.33-2-1.5-2-2.52c0-1.35.93-1.68,2.76-2.34a31.66,31.66,0,0,0,4.17-1.86c.33-.18,1.14-.66,1.35-.75h-6.84c-.6,0-1.95,0-1.95-2s.93-2.19,2-2.19V11.58C264.71,8.76,266,8,268.25,8h3.15V7.08c0-.66.06-1.88,2-1.88,1.71,0,2.34.47,2.34,1.88V8h2.73v-1c0-.77.15-1.85,2-1.85,1.68,0,2.37.41,2.37,1.85V8h3.24c2.37,0,3.57.85,3.57,3.57V22.17c.75,0,1.89,0,1.89,2,0,1.41-.45,2.13-1.89,2.13h-6.9c.54.24,2.88,1.5,3.36,1.74,1.35.63,2.37,1.05,3.57,1.5A1.64,1.64,0,0,1,291,31.26c0,1-.72,2.55-2,2.55s-4.5-1.65-5.82-2.4c-3.15-1.8-3.51-2.46-3.51-3.21a2.12,2.12,0,0,1,1.2-1.86Zm-1.77-14.16h-1.92a.69.69,0,0,0-.78.75v2.28h2.7Zm0,6.78h-2.7v3.21h2.7Zm6.87-6.78h-2.73v3h2.73Zm0,6.78h-2.73v3.21h2.73Zm4.14-6.78v3h2.7V12.93a.69.69,0,0,0-.78-.75Zm2.7,6.78h-2.7v3.21h2.7Z"/></svg>