<svg id="レイヤー_1" data-name="レイヤー 1" xmlns="http://www.w3.org/2000/svg" viewBox="0 0 200 200"><defs><style>.cls-1{fill:#445c6c;}.cls-2{fill:#556e7c;}.cls-3{fill:#fbd984;}.cls-4{fill:#eff3f5;}.cls-5{fill:#41b3e2;}.cls-6{fill:#dbdfe0;}</style></defs><title>passport</title><path class="cls-1" d="M110.62,3.26,6.7,29.47A8.18,8.18,0,0,0,.77,39.41L38.7,189.79a8.23,8.23,0,0,0,9.95,6l103.88-26.21a8.24,8.24,0,0,0,6-10L120.57,9.18A8.19,8.19,0,0,0,110.62,3.26Z"/><path class="cls-2" d="M5.57,34.18,109.46,8a8.15,8.15,0,0,1,9.94,6l37.93,150.38a6.26,6.26,0,0,1,.22,1.51,8.18,8.18,0,0,0,.91-6.23L120.57,9.18a8.19,8.19,0,0,0-9.95-5.92L6.7,29.47A8.21,8.21,0,0,0,.51,37.9,8.13,8.13,0,0,1,5.57,34.18Z"/><path class="cls-3" d="M69.19,58.1a42.71,42.71,0,1,0,51.86,31A42.75,42.75,0,0,0,69.19,58.1ZM43.2,111l13.71-3.46a72.76,72.76,0,0,0,5.62,14.23L50.9,124.7A38.06,38.06,0,0,1,43.2,111ZM76.46,77.77,72.52,62.16c5.75-.08,12,4.63,17.21,12.24Zm15.74.61A65.56,65.56,0,0,1,98,92.52L81.26,96.76l-3.72-14.7Zm-24-15.14,3.93,15.62L58.85,82.19C59.81,73,63.09,65.88,68.2,63.24Zm5,19.94,3.72,14.71-16.74,4.23a66.1,66.1,0,0,1-1.6-15.22Zm-17.38,20-13.71,3.46A38.13,38.13,0,0,1,42.38,91L54,88A73.15,73.15,0,0,0,55.83,103.2Zm5.45,3.25L78,102.21l3.72,14.7-14.62,3.68A63.65,63.65,0,0,1,61.28,106.45Zm21.53,14.79,3.94,15.61c-5.75.09-12-4.62-17.21-12.24Zm8.26,14.53-3.93-15.61,13.28-3.33C99.46,126,96.18,133.13,91.07,135.77Zm-5-20-3.72-14.7,16.74-4.24a66.1,66.1,0,0,1,1.6,15.22Zm17.38-20,13.71-3.46a38.18,38.18,0,0,1-.26,15.7L105.26,111A73.31,73.31,0,0,0,103.44,95.81Zm-1.12-4.37A72.76,72.76,0,0,0,96.7,77.21l11.63-2.94A37.89,37.89,0,0,1,116,87.94Zm2.33-20.8L94.36,73.23A41.12,41.12,0,0,0,83.68,61.51,38.45,38.45,0,0,1,104.65,70.64ZM58,68a41.22,41.22,0,0,0-3.85,15.4L43.89,86A38.32,38.32,0,0,1,58,68Zm-3.41,60.38,10.29-2.6A41,41,0,0,0,75.59,137.5,38.73,38.73,0,0,1,54.62,128.38ZM101.24,131a41.17,41.17,0,0,0,3.85-15.39l10.29-2.6A38.78,38.78,0,0,1,101.24,131Z"/><path class="cls-4" d="M194.65,116.78,81.8,99.26a5.73,5.73,0,0,0-6.55,4.79L64.57,172.86a5.73,5.73,0,0,0,4.79,6.55l112.85,17.52a5.73,5.73,0,0,0,6.55-4.79l10.68-68.81A5.77,5.77,0,0,0,194.65,116.78Z"/><path class="cls-5" d="M105.42,134.18a9.51,9.51,0,1,0-5.28-.82A16.46,16.46,0,0,0,84.34,146l32.34,5A16.51,16.51,0,0,0,105.42,134.18Z"/><rect class="cls-6" x="94.01" y="151.52" width="6.88" height="32.71" transform="translate(-83.39 238.41) rotate(-81.17)"/><rect class="cls-6" x="153.02" y="117.04" width="6.63" height="48.79" transform="translate(-7.42 274.22) rotate(-81.17)"/><rect class="cls-6" x="150.32" y="134.36" width="6.63" height="48.79" transform="translate(-26.82 286.2) rotate(-81.17)"/></svg>