<svg id="レイヤー_1" data-name="レイヤー 1" xmlns="http://www.w3.org/2000/svg" xmlns:xlink="http://www.w3.org/1999/xlink" viewBox="0 0 415 165.16"><defs><style>.cls-1{fill:none;}.cls-2{fill:#fff;}.cls-3{fill:#bccebc;}.cls-4{fill:#6a896b;}.cls-5{fill:#c5b823;}.cls-6{fill:#e9df29;}.cls-7{clip-path:url(#clip-path);}</style><clipPath id="clip-path"><path class="cls-1" d="M225.94,66s-8,9.37-17.89,9.37S190.15,66,190.15,66s8-9.37,17.9-9.37S225.94,66,225.94,66Z"/></clipPath></defs><title>アートボード 1</title><path d="M413.48,104.89a18.71,18.71,0,0,0-7.23-8.84,19.41,19.41,0,0,0-10.49-3,14.87,14.87,0,0,0-2.84.29A16.7,16.7,0,0,0,389,94.56a10.64,10.64,0,0,0-12.09,1.27,9.69,9.69,0,0,0-1.75,2,15,15,0,0,0-4.63-3.34A17.38,17.38,0,0,0,363.12,93a14.81,14.81,0,0,0-3.1.34,15.51,15.51,0,0,0-4.57,1.84,14.63,14.63,0,0,0-4-1.6,19.53,19.53,0,0,0-4.72-.53,14.3,14.3,0,0,0-6,1.37,10.72,10.72,0,0,0-4.78-1.14,10.61,10.61,0,0,0-7,2.64l-.25.24a11.24,11.24,0,0,0-1.84-1.41,10.77,10.77,0,0,0-5.46-1.47,10.49,10.49,0,0,0-5.1,1.32,18,18,0,0,0-2.27-.87,17.57,17.57,0,0,0-2.39-.52,14,14,0,0,0-2.08-.16,19.65,19.65,0,0,0-7.19,1.35,19.12,19.12,0,0,0-2.65,1.3c0-.32.05-.65.05-1a10.07,10.07,0,0,0-.63-3.56,9.34,9.34,0,0,0-2.25-3.4h0l-.1-.09v0h0a26.67,26.67,0,0,0-28.38-5A25.63,25.63,0,0,0,257,92.23a26.88,26.88,0,0,0-4.28,14.66,26.61,26.61,0,0,0,7.41,18.59,25.55,25.55,0,0,0,8.28,5.69,26.74,26.74,0,0,0,27.18-3.92,18.48,18.48,0,0,0,3.47,2.92,19.26,19.26,0,0,0,10.51,3.07,16.25,16.25,0,0,0,6.79-1.53,10.5,10.5,0,0,0,5.05,1.3,10.62,10.62,0,0,0,7-2.59c.11-.09.2-.2.3-.29a10.76,10.76,0,0,0,1.75,1.35,10.71,10.71,0,0,0,12.5-1.06,9.58,9.58,0,0,0,1.42-1.55,10.23,10.23,0,0,0,2.89,2.61,10.69,10.69,0,0,0,12.49-1.06,10.06,10.06,0,0,0,1.4-1.51,10.38,10.38,0,0,0,2.85,2.57,10.66,10.66,0,0,0,9.53.74v3.43a9.61,9.61,0,0,0,1,4.18,10,10,0,0,0,4,4.28,10.75,10.75,0,0,0,5.46,1.48,10.58,10.58,0,0,0,7-2.64,10.1,10.1,0,0,0,2.36-3,9.71,9.71,0,0,0,1-4.06v-2.69a14.3,14.3,0,0,0,1.46.09,19.53,19.53,0,0,0,7.21-1.37,18.6,18.6,0,0,0,8.68-7A21.07,21.07,0,0,0,415,113.1,22.08,22.08,0,0,0,413.48,104.89Zm-124.29,3.48a10.29,10.29,0,0,0-6.84,2.55l-.17.15a4.32,4.32,0,0,1-1.47.92,5.67,5.67,0,0,1-2.06.36,4.55,4.55,0,0,1-1.87-.38,4.67,4.67,0,0,1-2.08-1.83,6.06,6.06,0,0,1-.89-3.25,5.77,5.77,0,0,1,1.49-4,4.35,4.35,0,0,1,1.48-1.06,4.72,4.72,0,0,1,1.87-.39,5.88,5.88,0,0,1,2.06.37,4.32,4.32,0,0,1,1.47.92l.17.15a10.29,10.29,0,0,0,6.84,2.55,10.67,10.67,0,0,0,2.56-.31,20.91,20.91,0,0,0-1,3.38A10.38,10.38,0,0,0,289.19,108.37Zm1.66,12.21Z"/><path class="cls-2" d="M278.65,87a19.52,19.52,0,0,1,13.76,5.36c1.47,1.35,1.07,4.23-.51,5.63a4.09,4.09,0,0,1-5.3.06,11.39,11.39,0,0,0-8-3c-6.43,0-11.28,5.3-11.28,11.89s4.85,11.9,11.28,11.9a11.39,11.39,0,0,0,8-3,4.1,4.1,0,0,1,5.3,0c1.58,1.41,2,4.29.51,5.64a19.52,19.52,0,0,1-13.76,5.36c-11.11,0-19.51-8.85-19.51-19.91S267.54,87,278.65,87Z"/><path class="cls-2" d="M317.44,103.17a3.85,3.85,0,0,1,3.95-3.49,3.74,3.74,0,0,1,3.95,3.49v19.91a3.75,3.75,0,0,1-3.95,3.5,3.85,3.85,0,0,1-3.95-3.5v-.51a9.34,9.34,0,0,1-7.89,4.23c-6.71,0-12.8-5-12.8-13.7s6.09-13.65,12.8-13.65a9.73,9.73,0,0,1,7.89,4.23Zm-6.37,16.64a6.66,6.66,0,0,0,0-13.31c-3.95,0-6.2,3.16-6.2,6.65S307.12,119.81,311.07,119.81Z"/><path class="cls-2" d="M373.44,123.08a3.75,3.75,0,0,1-3.95,3.5,3.85,3.85,0,0,1-3.95-3.5V112.25c0-3.44-2.09-5.24-4.4-5.24-2.48,0-4.45,1.52-4.45,5.35v10.72a3.75,3.75,0,0,1-3.95,3.5,3.85,3.85,0,0,1-3.95-3.5v-11c0-3.32-2.08-5.07-4.34-5.07s-4.57,1.35-4.57,5.35v10.72a3.74,3.74,0,0,1-3.94,3.5,3.85,3.85,0,0,1-3.95-3.5V103.17a3.85,3.85,0,0,1,3.95-3.49,3.73,3.73,0,0,1,3.94,3.49v.62a7.54,7.54,0,0,1,6.88-4.34c4.18,0,6.94,1.35,8.69,5a8.49,8.49,0,0,1,7.67-5c6.26,0,10.26,4,10.32,12Z"/><path class="cls-2" d="M395.76,99.45c6.71,0,12.8,4.91,12.8,13.65s-6.09,13.7-12.8,13.7a9.37,9.37,0,0,1-7.9-4.23v13.08a3.84,3.84,0,0,1-3.94,3.5,3.74,3.74,0,0,1-3.95-3.5V103.17a3.74,3.74,0,0,1,3.95-3.49,3.84,3.84,0,0,1,3.94,3.49v.51A9.76,9.76,0,0,1,395.76,99.45Zm-1.52,7a6.66,6.66,0,0,0,0,13.31c3.94,0,6.2-3.16,6.2-6.66S398.18,106.5,394.24,106.5Z"/><path d="M256.1,94.38c-.12-.06-.26-.11-.39-.16V93.08a9.6,9.6,0,0,0-1-4.18,10.06,10.06,0,0,0-4-4.28,10.88,10.88,0,0,0-5.46-1.48,10.61,10.61,0,0,0-7,2.64,10.39,10.39,0,0,0-2.36,3,9.86,9.86,0,0,0-1,4.06v1.74a9.27,9.27,0,0,0-2.76,2.26c-.39-.28-.78-.55-1.19-.8A21.15,21.15,0,0,0,219.84,93a21.57,21.57,0,0,0-7.67,1.38,19.39,19.39,0,0,0-8.19,5.85,19.07,19.07,0,0,0-4.73-4.15A21.15,21.15,0,0,0,188.1,93a21.49,21.49,0,0,0-7.67,1.38,19.66,19.66,0,0,0-6.08,3.66,18.61,18.61,0,0,0-1.27-6.68,16.08,16.08,0,0,0-2.69-4.46,16.37,16.37,0,0,0-6.28-4.48,20.34,20.34,0,0,0-7.7-1.43H144.12a9.89,9.89,0,0,0-4,.83,9.44,9.44,0,0,0-5,5.21,11,11,0,0,0-.76,3.71V122.8a10.5,10.5,0,0,0,.57,3.43,9.5,9.5,0,0,0,6.08,6,10,10,0,0,0,3.06.47h13.42a20.3,20.3,0,0,0,7.6-1.42,17.85,17.85,0,0,0,7.2-5.29,19.36,19.36,0,0,0,4.57,4,20.79,20.79,0,0,0,11.19,3.17,20.5,20.5,0,0,0,14.27-5.56,18.42,18.42,0,0,0,1.62-1.79,18.9,18.9,0,0,0,4.66,4.18,20.82,20.82,0,0,0,11.19,3.17,20.49,20.49,0,0,0,14.27-5.56,19.6,19.6,0,0,0,1.39-1.49,9.84,9.84,0,0,0,4.34,5.29,10.71,10.71,0,0,0,12.5-1.06,10,10,0,0,0,2.42-3.17,9.56,9.56,0,0,0,1-4.17V111.87l.49-.2a9.59,9.59,0,0,0,5.32-8.61,9.66,9.66,0,0,0-2.47-6.49A9.17,9.17,0,0,0,256.1,94.38ZM187.93,113h0l-.08-.12Zm.33.28h0l.11.14Zm31.42-.28h0l-.08-.12Zm.32.28h0l.12.14Z"/><path class="cls-2" d="M144.12,126.29a3.25,3.25,0,0,1-3.27-3.49V90.94c.06-1.92,1.18-3.5,3.27-3.5h12.29c7,0,11.51,4.17,11.51,10.83a7.67,7.67,0,0,1-5.3,7.27,9.44,9.44,0,0,1,7.33,8.85c0,6.43-4.68,11.9-12.41,11.9ZM155.62,103c2.15,0,3.61-1.81,3.61-4.12s-1.24-4.12-3.66-4.12h-6.43V103Zm-6.48,6.54V119h8c2.76,0,4.17-2.54,4.17-4.85a4.4,4.4,0,0,0-4.34-4.68Z"/><path class="cls-2" d="M174.28,113c0-8.29,6.15-13.59,13.82-13.59S202,104.75,202,113s-6.2,13.76-13.87,13.76S174.28,121.33,174.28,113Zm19.8,0a6,6,0,1,0-11.9,0,6,6,0,1,0,11.9,0Z"/><path class="cls-2" d="M206,113c0-8.29,6.14-13.59,13.81-13.59s13.88,5.3,13.88,13.59-6.21,13.76-13.88,13.76S206,121.33,206,113Zm19.79,0a6,6,0,1,0-11.9,0,6,6,0,1,0,11.9,0Z"/><path class="cls-2" d="M241.38,100V93.08a3.85,3.85,0,0,1,4-3.5,3.73,3.73,0,0,1,3.94,3.5V100h3a3,3,0,0,1,2.82,3.1,3,3,0,0,1-2.82,3.1h-3v16.92a3.74,3.74,0,0,1-3.94,3.5,3.85,3.85,0,0,1-4-3.5V106.16h-2.14a3,3,0,0,1-2.82-3.1,3,3,0,0,1,2.82-3.1Z"/><path d="M134.31,80.39a10.88,10.88,0,0,0-5.46-1.48,10.63,10.63,0,0,0-7,2.64,10.3,10.3,0,0,0-2.36,3.06,9.66,9.66,0,0,0-1,4V93.1c-.5,0-1-.09-1.45-.09a19.65,19.65,0,0,0-7.19,1.35A18.55,18.55,0,0,0,106,96.44s-.09-.12-.14-.17a9.27,9.27,0,0,0-2.53-1.91,11.32,11.32,0,0,0-3.51-1.14A16.9,16.9,0,0,0,97,93a12.69,12.69,0,0,0-4.17.71,13,13,0,0,0-1.71.77,10.61,10.61,0,0,0-12,1.39,10.19,10.19,0,0,0-2,2.5,18.82,18.82,0,0,0-3-2.29A21.14,21.14,0,0,0,62.94,93a21.59,21.59,0,0,0-7.68,1.38,19.7,19.7,0,0,0-6.47,4,10.13,10.13,0,0,0-.55-.89,10.93,10.93,0,0,0,1.88-11.73,10.92,10.92,0,0,0-4.22-4.85,11.65,11.65,0,0,0-13.84,1.18l-.48-.25a9.69,9.69,0,0,0-4-.87H9.71a9.86,9.86,0,0,0-4,.83,9.5,9.5,0,0,0-2.57,1.7A9.69,9.69,0,0,0,.76,87,10.78,10.78,0,0,0,0,90.75v32A9.77,9.77,0,0,0,1,127a10.67,10.67,0,0,0,16.87,3.16,10.43,10.43,0,0,0,2.35-3.25,10.09,10.09,0,0,0,.91-4.16v-5.57h3.15a9.52,9.52,0,0,0,4-.9,9.76,9.76,0,0,0,1.05-.59v10.39a10.29,10.29,0,0,0-4,2.2,9.57,9.57,0,0,0-2.39,3.21,9.67,9.67,0,0,0-.9,4.12,10.15,10.15,0,0,0,.83,4,10,10,0,0,0,3.81,4.43,10.27,10.27,0,0,0,5.52,1.6h1.58a18.84,18.84,0,0,0,7.14-1.29,14,14,0,0,0,4.51-3,13.77,13.77,0,0,0,2.37-3.12,17.6,17.6,0,0,0,1.86-5.19,26.07,26.07,0,0,0,.46-4.22,19.69,19.69,0,0,0,1.67,1.21,20.83,20.83,0,0,0,11.2,3.17,20.49,20.49,0,0,0,14.11-5.43,10.22,10.22,0,0,0,3.57,3.67,10.71,10.71,0,0,0,12.5-1.06,10,10,0,0,0,2.42-3.17,9.42,9.42,0,0,0,.95-4.17v-6.4a22,22,0,0,1,.27-3.3q0-.16.06-.3l1,0a22.08,22.08,0,0,0,1.51,8.21,18.8,18.8,0,0,0,7.22,8.86A19.26,19.26,0,0,0,117,133.24a16.29,16.29,0,0,0,6.79-1.53,10.5,10.5,0,0,0,5,1.3,10.62,10.62,0,0,0,7-2.59,9.86,9.86,0,0,0,2.42-3.17,9.57,9.57,0,0,0,1-4.17V88.85a9.61,9.61,0,0,0-1-4.18A10.06,10.06,0,0,0,134.31,80.39ZM63.29,113h0l.05,0Zm-.55.21h0l-.12.1ZM39.65,90Zm.11.79h0l.66,1.08Zm.1-.28h0l1.24.56Zm0-.6h0l1.26-.57Zm-.28.06h0l-1.23-.54Z"/><path class="cls-2" d="M27.59,87.44A3.53,3.53,0,0,1,31,91.1a3.67,3.67,0,0,1-3.38,3.61H14.67v8.91h9.59a3.47,3.47,0,0,1,3.38,3.56,3.58,3.58,0,0,1-3.38,3.55H14.67v12a4,4,0,0,1-4.12,3.84,4.13,4.13,0,0,1-4.11-3.84V90.94c0-1.92,1.18-3.5,3.27-3.5Z"/><path class="cls-2" d="M32.32,132.1c2.87,0,3.44-2.31,3.44-4.17V103.17a3.84,3.84,0,0,1,3.94-3.49,3.73,3.73,0,0,1,3.95,3.49v24.59c0,7-2.48,11.45-9.92,11.45H32.15a3.56,3.56,0,1,1,0-7.11Zm7.44-46.47a4.61,4.61,0,1,1,0,9.2,4.61,4.61,0,1,1,0-9.2Z"/><path class="cls-2" d="M49.12,113c0-8.29,6.15-13.59,13.82-13.59s13.87,5.3,13.87,13.59-6.2,13.76-13.87,13.76S49.12,121.33,49.12,113Zm19.79,0A6,6,0,1,0,57,113a6,6,0,1,0,11.9,0Z"/><path class="cls-2" d="M101.84,103.79c-.28,2-2.14,2.88-3.89,2.88-.56,0-1.41-.06-1.92-.06-4.4,0-5.86,3.39-6,10v6.49a3.75,3.75,0,0,1-4,3.5,3.85,3.85,0,0,1-4-3.5V103.17a3.85,3.85,0,0,1,4-3.49,3.74,3.74,0,0,1,4,3.49v2.88c1.46-4.91,4.22-6.6,6.93-6.6S102.35,100.07,101.84,103.79Z"/><path class="cls-2" d="M124.9,88.85a3.85,3.85,0,0,1,3.95-3.5,3.75,3.75,0,0,1,4,3.5v34.23a3.75,3.75,0,0,1-4,3.5,3.85,3.85,0,0,1-3.95-3.5v-.51A9.34,9.34,0,0,1,117,126.8c-6.71,0-12.8-5-12.8-13.7S110.3,99.45,117,99.45a9.73,9.73,0,0,1,7.89,4.23Zm-6.37,31a6.66,6.66,0,0,0,0-13.31c-4,0-6.2,3.16-6.2,6.65S114.58,119.81,118.53,119.81Z"/><path d="M320.6,143.05a5.94,5.94,0,0,0-7.74-3.12,6,6,0,0,0-2.61,2.13l0,.05h-9a6.56,6.56,0,0,0-1.08.08,5.87,5.87,0,0,0-1.33.41,5.24,5.24,0,0,0-1.16.75l-.15.14a6.41,6.41,0,0,0-.85-.3,5.54,5.54,0,0,0-1-.17c-.23,0-.42,0-.51,0a5.71,5.71,0,0,0-.86.06,4.59,4.59,0,0,0-.92.23,3.85,3.85,0,0,0-.87.41,4.48,4.48,0,0,0-1.21,1.09,5.26,5.26,0,0,0-.5.76l-.06.13A8.53,8.53,0,0,0,290,145a11.12,11.12,0,0,0-1.66-1.17c-.59-.36-1.31-.76-2.26-1.25l0,0c-.35-.18-.87-.46-1.44-.72-.27-.12-.62-.27-1-.41a5.47,5.47,0,0,0-.67-.2,5,5,0,0,0-1.06-.12h0a5.08,5.08,0,0,0-1.58.25,5.49,5.49,0,0,0-1.49.8,5.69,5.69,0,0,0-1.56,1.79,5.36,5.36,0,0,0-.66,2.12l-.12,0a7.1,7.1,0,0,0-1.41-.14l-.77,0-1.85.16a3.6,3.6,0,0,0-.26-.52,4.79,4.79,0,0,0-2.55-2.1,5.62,5.62,0,0,0-1.86-.3,5.88,5.88,0,0,0-1.91.29,5,5,0,0,0-1.49.79,5.4,5.4,0,0,0-.92.93,5.3,5.3,0,0,0-.79,1.62l-.06.26-.06,0-.06-.3a4.93,4.93,0,0,0-.46-1.27,4.87,4.87,0,0,0-.73-1.06,4.92,4.92,0,0,0-1.8-1.24,5.54,5.54,0,0,0-2.05-.38H257l-1.29.08a4.59,4.59,0,0,0-1-1.4,4.5,4.5,0,0,0-1.19-.82,5,5,0,0,0-1.57-.46,6.79,6.79,0,0,0-1-.06,6.14,6.14,0,0,0-2.06.32,5.2,5.2,0,0,0-1.59.9,4.67,4.67,0,0,0-1.45,2.16l-1.33.08a6,6,0,0,0-1.62.33,5.29,5.29,0,0,0-1.31.69,5.18,5.18,0,0,0-.89.86,4.73,4.73,0,0,0-.88,1.64,5.45,5.45,0,0,0-.2.89l-.46-.22c-1.4-.66-2.81-1.26-4.19-1.77v-.5a5.93,5.93,0,0,0-.1-1.17,5.14,5.14,0,0,0-.46-1.42,4.82,4.82,0,0,0-.84-1.19,4.89,4.89,0,0,0-2-1.25,5.88,5.88,0,0,0-2.05-.33,6.42,6.42,0,0,0-1.26.11,5.84,5.84,0,0,0-1.12.35,4.94,4.94,0,0,0-1.76,1.26,4.73,4.73,0,0,0-.79,1.22,5.34,5.34,0,0,0-.43,1.54,6.5,6.5,0,0,0,0,.86v2.19l-.07,0a5.64,5.64,0,0,0-1.45-.35c-.35,0-.63,0-.76,0H208.42a5.1,5.1,0,0,0,.2-.63,4.88,4.88,0,0,0,.11-1,5,5,0,0,0,0-.67,5.17,5.17,0,0,0-.16-.82c-.09-.38-.2-.71-.27-.93s-.15-.44-.25-.69l0-.05a5.11,5.11,0,0,0-.3-.68,4.47,4.47,0,0,0-.46-.75,5,5,0,0,0-.62-.67,4.14,4.14,0,0,0-1.45-.84,4.29,4.29,0,0,0-1.43-.24h0l-.4,0a5.8,5.8,0,0,0-.85.15l-.08,0a4.6,4.6,0,0,0-.91-.09l-.46,0a5.07,5.07,0,0,0-.88.17,5.13,5.13,0,0,0-.87.36,3.59,3.59,0,0,0-.77.52,4.18,4.18,0,0,0-1.11,1.42l-.07.15h-8.42a6.24,6.24,0,0,0-1.11.09,5.74,5.74,0,0,0-1.33.42l-.12.06c-.07-.12-.17-.26-.28-.41a4,4,0,0,0-.59-.64,4.31,4.31,0,0,0-2.87-1.09,4.36,4.36,0,0,0-.51,0,4.49,4.49,0,0,0-.9.18l-.39.14-.45,0a3,3,0,0,0-.42,0,4,4,0,0,0-.85.15,3.91,3.91,0,0,0-.88.34,4.72,4.72,0,0,0-.61.37,4.91,4.91,0,0,0-1.91-1.19,5.88,5.88,0,0,0-2-.33,6.36,6.36,0,0,0-1.26.11,5.84,5.84,0,0,0-1.12.35,4.94,4.94,0,0,0-1.76,1.26,4.73,4.73,0,0,0-.79,1.22,5.25,5.25,0,0,0-.43,1.54,6.5,6.5,0,0,0,0,.86v2.26l-.34-.09-.72-.12a4.64,4.64,0,0,0-.63,0,6,6,0,0,0-1,.08l-.46.11v-2.08a5.53,5.53,0,0,0-.37-2.05,4.9,4.9,0,0,0-2.06-2.39,5.36,5.36,0,0,0-1.58-.59,6.94,6.94,0,0,0-1.31-.12,6.2,6.2,0,0,0-2,.32,5.51,5.51,0,0,0-.78.36,4.67,4.67,0,0,0-1-.33,6.46,6.46,0,0,0-3.52.24,4.87,4.87,0,0,0-1.59,1,5,5,0,0,0-.86,1.08,5.77,5.77,0,0,0-.27.56l0,0a5.69,5.69,0,0,0-1.17-1.18,5.89,5.89,0,0,0-2.09-1,7.61,7.61,0,0,0-2-.23h-11a5.4,5.4,0,0,0-1.18.17,5.16,5.16,0,0,0-1.28.53,4.57,4.57,0,0,0-1,.79,5.17,5.17,0,0,0-.55.67l-.17-.06a5.39,5.39,0,0,0-1.59-.25,4.52,4.52,0,0,0-.74.06,4.93,4.93,0,0,0-1.41.45,5.72,5.72,0,0,0-1.15.76l-.49.41c-.64.53-1,.85-1.28,1.05l-.29.23-.25.17a21.76,21.76,0,0,1-3.83,2c-.42.17-.81.32-1.18.44,0-.09,0-.19,0-.28,0-.25,0-.49.06-.71s0-.17,0-.24v-.27A8,8,0,0,0,117,146a5.83,5.83,0,0,0-.51-1.56,5.06,5.06,0,0,0-.92-1.29,5.37,5.37,0,0,0-2.13-1.32,7.26,7.26,0,0,0-2.3-.34H99.23a6.77,6.77,0,0,0-1,.07,5.19,5.19,0,0,0-1.32.4,4.84,4.84,0,0,0-2.55,2.65,5.75,5.75,0,0,0-.4,2.18,6.55,6.55,0,0,0,.14,1.34,5,5,0,0,0,1.15,2.24,4.7,4.7,0,0,0,1.35,1.07,5.38,5.38,0,0,0,1.74.56,3.94,3.94,0,0,0,.6.05h5.42c-.18.16-.38.32-.59.48a10.68,10.68,0,0,1-3.48,1.57l-.05,0c-.24.07-.53.15-.87.27a5.93,5.93,0,0,0-1,.45,5.42,5.42,0,0,0-.91.66,4.82,4.82,0,0,0-1.18,1.7,5.1,5.1,0,0,0-.37,1.93,5,5,0,0,0,0,.66,6,6,0,0,0,.81,2.36,5.37,5.37,0,0,0,.68.89,5.1,5.1,0,0,0,1.64,1.16,5.22,5.22,0,0,0,2.08.42,6.42,6.42,0,0,0,1.13-.09c.51-.08,1-.19,1.23-.26s.62-.18.77-.23a19.74,19.74,0,0,0,4.93-2.31,16.84,16.84,0,0,0,4-3.67,4.91,4.91,0,0,0,1.2.82,5,5,0,0,0,2.21.51,6.13,6.13,0,0,0,1-.1l.27,0V160a5.31,5.31,0,0,0,.39,2.08,4.72,4.72,0,0,0,2,2.36,5.07,5.07,0,0,0,1.55.58,6.32,6.32,0,0,0,3.2-.17,5.16,5.16,0,0,0,1.51-.83,5.1,5.1,0,0,0,.92-1,4.82,4.82,0,0,0,.73-1.63,5.31,5.31,0,0,0,.16-1.07,5.66,5.66,0,0,0,.32.9,4.85,4.85,0,0,0,1.11,1.54,4.93,4.93,0,0,0,1,.75,5.25,5.25,0,0,0,1.47.52,5.88,5.88,0,0,0,1.2.12h10.85a7.77,7.77,0,0,0,2-.23,5.85,5.85,0,0,0,1.77-.76,5.93,5.93,0,0,0,1.79,1.16,5.51,5.51,0,0,0,2.13.43,5.4,5.4,0,0,0,1-.08,4.7,4.7,0,0,0,1.15-.38,5.46,5.46,0,0,0,1.45-1L156,163l0,0a5.24,5.24,0,0,0,1.89,1.19,6.09,6.09,0,0,0,2.12.36,7.69,7.69,0,0,0,1.23-.11,11,11,0,0,0,2.1-.58,13.69,13.69,0,0,0,3.29-1.84,13.35,13.35,0,0,0,1.59-1.41l0,.21a5.27,5.27,0,0,0,.46,1.44,4.55,4.55,0,0,0,.84,1.2,4.84,4.84,0,0,0,2,1.26,6.12,6.12,0,0,0,2,.33,5.85,5.85,0,0,0,2.52-.52,5.08,5.08,0,0,0,1.69-1.28,5,5,0,0,0,.75-1.21,5.29,5.29,0,0,0,.4-1.49,6.16,6.16,0,0,0,0-.84V158l.15.08a8.64,8.64,0,0,0,1.34.71,6.39,6.39,0,0,0,1,.31,6,6,0,0,0,1.12.11,5.17,5.17,0,0,0,2.57-.68,4.21,4.21,0,0,0,.52-.34,5.59,5.59,0,0,0-.14,1.23,4.31,4.31,0,0,0,.05.71,6.29,6.29,0,0,0,.31,1.28,5.82,5.82,0,0,0,.54,1.09,5.35,5.35,0,0,0,.69.88,5.17,5.17,0,0,0,1.62,1.12,5.3,5.3,0,0,0,2.06.42c.21,0,.4,0,.61,0a8.53,8.53,0,0,0,1-.16,18.56,18.56,0,0,0,2-.55,19.64,19.64,0,0,0,3.64-1.66,17.06,17.06,0,0,0,3.82-3,16.69,16.69,0,0,0,2.14-2.83l.34.29a4.9,4.9,0,0,0,1.23.68,5.22,5.22,0,0,0,1.46.35,6.16,6.16,0,0,0,.75,0h13.89a6.55,6.55,0,0,0,1.11-.08,5.73,5.73,0,0,0,1.2-.33v2.13a6,6,0,0,0,.09,1.13,5.27,5.27,0,0,0,.46,1.44,4.55,4.55,0,0,0,.84,1.2,4.78,4.78,0,0,0,2,1.26,6.12,6.12,0,0,0,2,.33,5.85,5.85,0,0,0,2.52-.52,5,5,0,0,0,1.69-1.28,4.71,4.71,0,0,0,.75-1.21,5.29,5.29,0,0,0,.4-1.49,6.16,6.16,0,0,0,0-.84V158l.15.08a9.13,9.13,0,0,0,1.34.71,6.39,6.39,0,0,0,1,.31,6,6,0,0,0,1.12.11,5.37,5.37,0,0,0,2.14-.45,4.93,4.93,0,0,0,1.67,1,5.61,5.61,0,0,0,1.85.3h.4l1.87-.12v.28a6.81,6.81,0,0,0,.11.93,5.31,5.31,0,0,0,.46,1.36,4.84,4.84,0,0,0,2.79,2.39,5.9,5.9,0,0,0,2,.31,6.25,6.25,0,0,0,2.17-.36,4.82,4.82,0,0,0,3.12-3.65,5.38,5.38,0,0,0,.11-1.13c0-.23,0-.41,0-.53l0-.24,1.6-.09a6,6,0,0,0,1.55-.29,5.13,5.13,0,0,0,1.32-.67,4.7,4.7,0,0,0,.93-.85l.27-.35a3.7,3.7,0,0,0,.48.09l.34,3.29a6.15,6.15,0,0,0,.22,1.16,5.15,5.15,0,0,0,.54,1.22,4.65,4.65,0,0,0,.79,1,5,5,0,0,0,1.75,1.07,5.4,5.4,0,0,0,1.87.31,5.69,5.69,0,0,0,2.28-.45,4.86,4.86,0,0,0,1.57-1.07,5,5,0,0,0,.78-1,5.5,5.5,0,0,0,.53-1.47c0-.09,0-.18,0-.27a5.82,5.82,0,0,0,1.53-.7,8.77,8.77,0,0,0,1.52-1.25v0a5.88,5.88,0,0,0,.18,1.45,5.43,5.43,0,0,0,.47,1.28,4.88,4.88,0,0,0,.69,1,5,5,0,0,0,1.76,1.33,5.32,5.32,0,0,0,2.22.47l.65,0,1-.13c1-.17,2-.42,2.71-.61h0A20.42,20.42,0,0,0,291,162a17.48,17.48,0,0,0,5.05-4,22,22,0,0,0,3.35-5.3c0-.1.08-.19.13-.29a6.27,6.27,0,0,0,.8.17,5.61,5.61,0,0,0,.59.06H306a10.16,10.16,0,0,1-3.68,1.7c-.24.07-.58.16-1,.29a6.29,6.29,0,0,0-1,.47,4.76,4.76,0,0,0-.91.67,4.63,4.63,0,0,0-1.17,1.69,5,5,0,0,0-.37,1.91,5.62,5.62,0,0,0,.05.7,6.29,6.29,0,0,0,.31,1.28,5.57,5.57,0,0,0,.53,1.1,4.75,4.75,0,0,0,.68.87,5,5,0,0,0,1.62,1.14,5.15,5.15,0,0,0,2.07.43l.6,0a8.38,8.38,0,0,0,1-.16,16,16,0,0,0,2-.55,19.7,19.7,0,0,0,3.65-1.65,16.94,16.94,0,0,0,3.82-3,17.7,17.7,0,0,0,3.68-6.06,18.65,18.65,0,0,0,.76-2.68c.05-.26.1-.52.13-.77a5.94,5.94,0,0,0,1.78-7Zm-37.28,10.4c-.39.07-.8.14-1.24.19a8.38,8.38,0,0,0-1.23.25,4.53,4.53,0,0,0-.81.29c.09-.26.17-.51.24-.77a8.1,8.1,0,0,0,.3-1.66l.62.36c.67.38,1.27.76,1.7,1ZM188,152.58h0a5.9,5.9,0,0,0,.59.06h5.16a10,10,0,0,1-3.72,1.72l0,0a7.45,7.45,0,0,0-.88.27,5.63,5.63,0,0,0-1,.45l-.32.19a5.93,5.93,0,0,0,.21-2.71Zm-59.53,4.87v-3l.49-.33a5,5,0,0,0,.55,1.3,5,5,0,0,0-.83,1.39A5.81,5.81,0,0,0,128.44,157.45Z"/><path class="cls-2" d="M111.15,145.28c2.15,0,2.19,1.28,2.19,2a16.15,16.15,0,0,1-2.52,7.78,14.3,14.3,0,0,1-7.68,5.45,7.51,7.51,0,0,1-2,.41c-1.25,0-1.52-1.26-1.52-1.75,0-.93.7-1.14,1.61-1.39,3.69-1,6.33-2.93,7.55-5.5a10.36,10.36,0,0,0,1-3.47c0-.44-.27-.46-.5-.46H99.24a1.54,1.54,0,1,1,0-3.07Z"/><path class="cls-2" d="M124.69,160c0,.83-.39,1.4-1.5,1.4-.87,0-1.51-.33-1.51-1.4v-6a18.68,18.68,0,0,1-5,1.71,1.5,1.5,0,0,1-1.39-1.61c0-.89.6-1.07,1.06-1.2a27.13,27.13,0,0,0,7.71-3.42,27.55,27.55,0,0,0,2.66-2.11,1.3,1.3,0,0,1,.91-.41,1.66,1.66,0,0,1,1.61,1.57,1.4,1.4,0,0,1-.6,1.13,25.67,25.67,0,0,1-3.92,2.77Z"/><path class="cls-2" d="M133.94,154a1.44,1.44,0,1,1,0-2.87h10v-2.5a.58.58,0,0,0-.64-.66h-9.54a1.47,1.47,0,1,1,0-2.93h10.69c1.94,0,2.64.83,2.64,2.65v10c0,2.13-1,2.66-2.64,2.66H133.57a1.51,1.51,0,1,1,0-3h9.7a.57.57,0,0,0,.64-.64V154Z"/><path class="cls-2" d="M156.16,150.09c0,4.19-.2,7-2.23,9.63-1,1.28-1.48,1.28-1.81,1.28a1.81,1.81,0,0,1-1.82-1.67,1.69,1.69,0,0,1,.58-1.2c1.84-2.12,2.15-3,2.15-8.17v-4.08c0-.68.22-1.42,1.54-1.42,1,0,1.59.39,1.59,1.42Zm2.07-4.44c0-.76.29-1.4,1.54-1.4,1,0,1.57.35,1.57,1.4v11c0,.25,0,.47.21.47.76,0,2.66-1.54,3.55-4.29.31-1,.51-1.51,1.42-1.51.35,0,1.73.17,1.73,1.37a10.1,10.1,0,0,1-1.63,4.1,9.13,9.13,0,0,1-6.56,4.09,1.64,1.64,0,0,1-1.83-1.86Z"/><path class="cls-2" d="M175.28,159.76c0,.56,0,1.61-1.65,1.61s-1.66-1-1.66-1.61V145.55c0-.54,0-1.61,1.64-1.61s1.67,1,1.67,1.61v3.18a49.6,49.6,0,0,1,7.38,3c1.26.64,1.63,1,1.63,1.79a1.83,1.83,0,0,1-1.63,1.92,2.93,2.93,0,0,1-1.55-.6,33.06,33.06,0,0,0-5.83-2.84Zm4.35-14.19a1.13,1.13,0,0,1-.06-.37c0-.56.62-.62.76-.62.37,0,.56.27.78.82a6.78,6.78,0,0,1,.46,1.78.69.69,0,0,1-.74.68c-.21,0-.46-.06-.62-.5l-.29-.94C179.88,146.27,179.67,145.69,179.63,145.57Zm2.23-.35a1.08,1.08,0,0,1,0-.35c0-.52.59-.62.76-.62.37,0,.54.25.78.82a6.33,6.33,0,0,1,.48,1.76c0,.68-.7.68-.76.68-.46,0-.5-.13-.89-1.42C182.15,145.94,181.9,145.34,181.86,145.22Z"/><path class="cls-2" d="M188.89,148.89a1.54,1.54,0,1,1,0-3.07h10.79a5.75,5.75,0,0,1,1.72.27c0-.05-.27-.85-.31-1a6,6,0,0,0-.31-.89,1.07,1.07,0,0,1-.08-.42c0-.55.61-.63.76-.63.37,0,.54.24.78.82a6.05,6.05,0,0,1,.46,1.73c0,.38-.21.66-.73.68a2.31,2.31,0,0,1,.95,2.09,14.11,14.11,0,0,1-3.67,8.42,14.63,14.63,0,0,1-8.36,4.21c-1.23,0-1.54-1.24-1.54-1.74,0-.93.7-1.15,1.63-1.4,6.19-1.67,7.53-5.18,8.06-6.69a8,8,0,0,0,.46-2c0-.44-.29-.46-.52-.46ZM203,144a1.05,1.05,0,0,1-.06-.33c0-.56.63-.62.76-.62.41,0,.56.25.78.79a7.22,7.22,0,0,1,.48,1.79c0,.68-.7.68-.75.68a.64.64,0,0,1-.59-.41c0-.16-.27-.87-.31-1S203.05,144.17,203,144Z"/><path class="cls-2" d="M207.92,154.28a1.45,1.45,0,0,1-1.7-1.59c0-1.53,1-1.63,1.7-1.63h13.86a1.46,1.46,0,0,1,1.71,1.59c0,1.58-1.09,1.63-1.71,1.63Z"/><path class="cls-2" d="M231.16,159.76c0,.56,0,1.61-1.65,1.61s-1.66-1-1.66-1.61V145.55c0-.54,0-1.61,1.65-1.61s1.66,1,1.66,1.61v3.18a49.12,49.12,0,0,1,7.38,3c1.26.64,1.63,1,1.63,1.79a1.83,1.83,0,0,1-1.63,1.92,3,3,0,0,1-1.55-.6,33.06,33.06,0,0,0-5.83-2.84Z"/><path class="cls-2" d="M249.29,145.57c-.06-.79.1-1.65,1.61-1.65.89,0,1.53.14,1.61,1.46l.1,1.49,4.63-.29a1.45,1.45,0,1,1,.18,2.89l-4.62.31.19,3,5.4-.31a1.47,1.47,0,1,1,.17,2.93l-5.37.31.25,4c0,.62.1,1.7-1.63,1.7-1.49,0-1.55-.89-1.59-1.53l-.25-4-5.61.35a1.47,1.47,0,1,1-.18-2.93l5.59-.35-.19-3-4.68.31a1.37,1.37,0,0,1-1.63-1.48,1.34,1.34,0,0,1,1.44-1.43l4.68-.3Z"/><path class="cls-2" d="M274.59,149.67c1.36-.12,2.25.23,2.25,1.63,0,2.17-2.6,6-4.25,6a1.51,1.51,0,0,1-1.49-1.4c0-.52.23-.73,1.06-1.45a4.25,4.25,0,0,0,1.32-1.86c0-.1-.07-.12-.29-.1l-3.57.37.7,6.91a1.33,1.33,0,0,1-1.49,1.63,1.31,1.31,0,0,1-1.44-1.36l-.7-6.87-2.31.23a1.52,1.52,0,0,1-1.1-.21,1.48,1.48,0,0,1-.53-1.22c0-1.13.76-1.3,1.34-1.36l2.33-.22-.19-1.84c-.1-.89.27-1.61,1.53-1.61a1.24,1.24,0,0,1,1.38,1.3l.19,1.9Z"/><path class="cls-2" d="M281.86,144.85a9.05,9.05,0,0,1,2.51,1.05c3.47,1.81,3.74,2.29,3.74,3s-.68,1.8-1.61,1.8c-.37,0-.64-.08-1.47-.66-1.19-.81-2.8-1.7-3.55-2.11-.53-.27-1.17-.6-1.17-1.42a1.82,1.82,0,0,1,1.19-1.63A1,1,0,0,1,281.86,144.85Zm15,3.34c0,.91-1.32,4.64-3.7,7.37a14.8,14.8,0,0,1-7.43,4.51,18.1,18.1,0,0,1-3.34.64,1.62,1.62,0,0,1-1.57-1.81c0-1.16.7-1.4,1.72-1.53,5-.64,8.85-2.54,11.1-9,.43-1.24.57-1.63,1.44-1.63a1.83,1.83,0,0,1,.52.06A1.44,1.44,0,0,1,296.88,148.19Z"/><path class="cls-2" d="M301.19,148.93a1.54,1.54,0,1,1,0-3.07H311.9a8.13,8.13,0,0,1,1.15.1,2.72,2.72,0,0,1-.08-.56,2.19,2.19,0,0,1,2.19-2.18,2.15,2.15,0,0,1,2.16,2.14,2.19,2.19,0,0,1-2.25,2.19,4,4,0,0,1,.11,1,14.08,14.08,0,0,1-3.66,8.4,14.45,14.45,0,0,1-8.35,4.21c-1.2,0-1.51-1.24-1.51-1.76,0-.92.68-1.15,1.63-1.4,6-1.63,7.45-5,8-6.68a7,7,0,0,0,.45-1.94c0-.46-.27-.46-.51-.46Zm13.95-4.47a.93.93,0,1,0,0,1.85.93.93,0,1,0,0-1.85Z"/><path class="cls-2" d="M207.39,84.41c-18.83,0-34.15-13.39-34.15-29.85S188.56,24.7,207.39,24.7s34.15,13.4,34.15,29.86S226.22,84.41,207.39,84.41Z"/><path d="M207.39,25.68c18.32,0,33.17,12.93,33.17,28.88s-14.85,28.87-33.17,28.87S174.21,70.5,174.21,54.56s14.86-28.88,33.18-28.88m0-1.95c-19.37,0-35.13,13.83-35.13,30.83S188,85.39,207.39,85.39s35.13-13.83,35.13-30.83S226.76,23.73,207.39,23.73Z"/><path class="cls-3" d="M233,31.5c-8.27,0-15.31-5-17.11-12.12l-.66-2.6,2.17,1.57a6.24,6.24,0,0,0,3.83,1c.87,0,1.79-.08,2.77-.16s2.18-.19,3.34-.19c7.2,0,15.6-2.92,15.6-11.12A11.9,11.9,0,0,0,242.53,5l-.65-2.6,2.17,1.57a14.85,14.85,0,0,1,6.47,12C250.52,24.54,242.65,31.5,233,31.5Z"/><path d="M243.48,4.72A13.93,13.93,0,0,1,249.55,16c0,8-7.42,14.55-16.58,14.55-7.91,0-14.52-4.87-16.17-11.38a7.24,7.24,0,0,0,4.4,1.2c1.89,0,4-.36,6.11-.36,9.16,0,16.58-4.06,16.58-12.09a12.81,12.81,0,0,0-.41-3.17M240.27,0l1.32,5.2a11,11,0,0,1,.34,2.69c0,4.9-3.84,10.14-14.62,10.14-1.2,0-2.33.1-3.43.2-.95.08-1.86.16-2.68.16a5.18,5.18,0,0,1-3.25-.84l-4.36-3.13,1.32,5.2c1.92,7.57,9.34,12.86,18.06,12.86,10.22,0,18.53-7.41,18.53-16.51a15.83,15.83,0,0,0-6.88-12.83Z"/><path class="cls-3" d="M183.61,32.73c-9.67,0-17.55-7-17.55-15.53a14.85,14.85,0,0,1,6.47-12l2.18-1.57-.66,2.6a11.9,11.9,0,0,0-.38,2.93c0,8.2,8.41,11.12,15.6,11.12,1.16,0,2.27.09,3.35.19s1.9.16,2.77.16a6.21,6.21,0,0,0,3.82-1L201.39,18l-.66,2.6C198.92,27.75,191.88,32.73,183.61,32.73Z"/><path d="M173.1,6a13.3,13.3,0,0,0-.4,3.17c0,8,7.42,12.09,16.57,12.09,2.16,0,4.23.36,6.12.36a7.21,7.21,0,0,0,4.39-1.2c-1.65,6.51-8.25,11.38-16.17,11.38-9.15,0-16.57-6.51-16.57-14.55A13.92,13.92,0,0,1,173.1,6m3.21-4.72L172,4.37a15.81,15.81,0,0,0-6.87,12.83c0,9.1,8.31,16.51,18.52,16.51,8.72,0,16.15-5.29,18.06-12.86l1.32-5.2-4.35,3.13a5.18,5.18,0,0,1-3.25.84c-.83,0-1.73-.08-2.69-.17s-2.23-.19-3.43-.19c-10.78,0-14.62-5.24-14.62-10.14A11,11,0,0,1,175,6.43Z"/><path class="cls-4" d="M208.05,43.79c-9.67,0-18.92-2.65-26-7.45l-.42-.29s0-1,0-1.14c0-17.27,11.87-31.32,26.47-31.32s26.47,14.05,26.47,31.32c0,.14,0,1.14,0,1.14l-.42.29C227,41.14,217.72,43.79,208.05,43.79Z"/><path d="M208.05,4.57c14.08,0,25.49,13.58,25.49,30.34,0,.21,0,.41,0,.62-6.69,4.52-15.64,7.28-25.48,7.28s-18.8-2.76-25.49-7.28c0-.21,0-.41,0-.62,0-16.76,11.42-30.34,25.5-30.34m0-2c-15.14,0-27.45,14.49-27.45,32.3,0,.14,0,.29,0,.43v.22l0,1,.84.57c7.27,4.91,16.71,7.62,26.58,7.62s19.3-2.71,26.58-7.62l.84-.57V35.34c0-.14,0-.29,0-.43C235.5,17.1,223.18,2.61,208.05,2.61Z"/><path class="cls-5" d="M203.39,60.38V43.58A45.24,45.24,0,0,1,182,36.34l-.42-.29s0-1,0-1.14a37.74,37.74,0,0,1,.49-6l.25-1.48,1.25.82a43.53,43.53,0,0,0,19.83,6.61V4.07l.81-.14a22,22,0,0,1,7.7,0l.81.14V34.86a43.48,43.48,0,0,0,19.82-6.61l1.26-.82.24,1.48a36.61,36.61,0,0,1,.49,6c0,.14,0,1.14,0,1.14l-.42.29a45.24,45.24,0,0,1-21.37,7.24v16.8Z"/><path d="M208.05,4.57a21.34,21.34,0,0,1,3.68.32v31a45,45,0,0,0,21.34-6.85,36.06,36.06,0,0,1,.47,5.84c0,.21,0,.41,0,.62a44.77,44.77,0,0,1-21.8,7.15V59.4h-7.37V42.68a44.84,44.84,0,0,1-21.8-7.15c0-.21,0-.41,0-.62a36.05,36.05,0,0,1,.48-5.84,45,45,0,0,0,21.33,6.85v-31a21.54,21.54,0,0,1,3.69-.32m0-2A23.82,23.82,0,0,0,204,3l-1.62.28V33.78a42.29,42.29,0,0,1-18.31-6.34l-2.51-1.65-.49,3a38.67,38.67,0,0,0-.5,6.16c0,.14,0,.29,0,.43v.22l0,1,.84.57a46,46,0,0,0,20.94,7.32V61.35h11.28V44.47a46.08,46.08,0,0,0,20.94-7.32l.84-.57V35.34c0-.14,0-.29,0-.43a38.67,38.67,0,0,0-.5-6.16l-.49-3L232,27.44a42.34,42.34,0,0,1-18.31,6.34V3.24L212.07,3A24,24,0,0,0,208.05,2.61Z"/><path d="M196.22,52.64c0,3.4-2.34,6.15-5.22,6.15s-5.22-2.75-5.22-6.15,2.33-6.14,5.22-6.14S196.22,49.25,196.22,52.64Z"/><path d="M230.63,52.64c0,3.4-2.34,6.15-5.23,6.15s-5.22-2.75-5.22-6.15,2.34-6.14,5.22-6.14S230.63,49.25,230.63,52.64Z"/><path class="cls-6" d="M208.05,76.11c-10.11,0-18.12-9.24-18.45-9.63a.72.72,0,0,1,0-1c.33-.4,8.34-9.63,18.45-9.63s18.11,9.23,18.45,9.63a.74.74,0,0,1,0,1C226.16,66.87,218.15,76.11,208.05,76.11Z"/><path d="M208.05,56.63c9.88,0,17.89,9.37,17.89,9.37s-8,9.37-17.89,9.37S190.15,66,190.15,66s8-9.37,17.9-9.37m0-1.47c-10.44,0-18.66,9.49-19,9.89a1.46,1.46,0,0,0,0,1.9c.35.41,8.57,9.89,19,9.89s18.66-9.48,19-9.89a1.46,1.46,0,0,0,0-1.9C226.71,64.65,218.49,55.16,208.05,55.16Z"/><g class="cls-7"><path d="M208.05,64.58a94.35,94.35,0,0,1,19.37,1.81l.51-.47a104.41,104.41,0,0,0-39.76,0l.51.47A94.35,94.35,0,0,1,208.05,64.58Z"/><path d="M208.05,64.58v.49a93.06,93.06,0,0,1,19.26,1.8l.24,0,.19-.17.52-.47.68-.63-.9-.2a93.86,93.86,0,0,0-20-1.92,94.51,94.51,0,0,0-20,1.91l-.9.21.67.62.53.49.19.16.24,0A93.52,93.52,0,0,1,208,65.07h0v-1h0a95.09,95.09,0,0,0-19.44,1.82l.1.48L189,66l-.51-.47-.33.36.1.47a93.7,93.7,0,0,1,19.78-1.89,92.8,92.8,0,0,1,19.77,1.9l.11-.48-.33-.36c-.14.14-.31.29-.51.47l.33.36.1-.48a94.7,94.7,0,0,0-19.47-1.82Z"/></g><circle class="cls-6" cx="208.05" cy="12.2" r="2.2"/><circle class="cls-6" cx="208.05" cy="21.23" r="2.2"/><circle class="cls-6" cx="208.05" cy="30.26" r="2.2"/><circle class="cls-6" cx="208.05" cy="39.29" r="2.2"/><circle class="cls-6" cx="217.71" cy="38.48" r="2.2"/><circle class="cls-6" cx="226.6" cy="35.85" r="2.2"/><circle class="cls-6" cx="197.4" cy="38.48" r="2.2"/><circle class="cls-6" cx="188.52" cy="35.55" r="2.2"/><circle class="cls-6" cx="208.05" cy="48.32" r="2.2"/></svg>