<svg id="materials" xmlns="http://www.w3.org/2000/svg" xmlns:xlink="http://www.w3.org/1999/xlink" viewBox="0 0 240 240"><defs><style>.cls-1{fill:none;}.cls-2{fill:#d86893;}.cls-3{fill:#f46e94;}.cls-4{fill:url(#新規パターンスウォッチ_1);}.cls-5{fill:#474747;}</style><pattern id="新規パターンスウォッチ_1" data-name="新規パターンスウォッチ 1" width="104.62" height="104.62" patternTransform="translate(-183.97 -219.42) scale(1.05)" patternUnits="userSpaceOnUse" viewBox="0 0 104.62 104.62"><rect class="cls-1" width="104.62" height="104.62"/><polygon class="cls-2" points="64.62 0 39.99 0 0 39.99 0 64.62 64.62 0"/><polygon class="cls-2" points="104.62 92.31 92.31 104.62 104.62 104.62 104.62 92.31"/><polygon class="cls-2" points="104.62 0 92.3 0 0 92.31 0 104.62 12.31 104.62 104.62 12.31 104.62 0"/><polygon class="cls-2" points="0 12.31 12.31 0 0 0 0 12.31"/><polygon class="cls-2" points="104.62 64.62 104.62 39.99 39.99 104.62 64.62 104.62 104.62 64.62"/></pattern></defs><title>pink-arrow</title><g id="pink-arrow"><path class="cls-3" d="M140.63,193.61a5.94,5.94,0,0,1-5.94-5.93v-27H13.36a8.54,8.54,0,0,1-8.53-8.53V87.79a8.54,8.54,0,0,1,8.53-8.53H134.69V52.32a5.94,5.94,0,0,1,5.94-5.93,5.87,5.87,0,0,1,3.62,1.25l88.63,68.7a5.93,5.93,0,0,1-.07,9.42l-88.63,66.66a5.88,5.88,0,0,1-3.55,1.19Z"/><path class="cls-4" d="M230.84,119,142.21,50.26a2.61,2.61,0,0,0-4.2,2.06V82.58H13.36a5.21,5.21,0,0,0-5.21,5.21v64.32a5.21,5.21,0,0,0,5.21,5.21H138v30.36a2.6,2.6,0,0,0,4.17,2.08l88.63-66.65A2.6,2.6,0,0,0,230.84,119Z"/><path class="cls-5" d="M140.63,49.71a2.55,2.55,0,0,1,1.58.55L230.84,119a2.6,2.6,0,0,1,0,4.14l-88.63,66.65a2.51,2.51,0,0,1-1.55.53,2.61,2.61,0,0,1-2.62-2.61V157.32H13.36a5.21,5.21,0,0,1-5.21-5.21V87.79a5.21,5.21,0,0,1,5.21-5.21H138V52.32a2.61,2.61,0,0,1,2.62-2.61m0-6.64a9.26,9.26,0,0,0-9.26,9.25V75.94h-118A11.87,11.87,0,0,0,1.51,87.79v64.32A11.86,11.86,0,0,0,13.36,164h118v23.72a9.24,9.24,0,0,0,14.8,7.39l88.63-66.66a9.24,9.24,0,0,0,.11-14.69L146.28,45A9.14,9.14,0,0,0,140.63,43.07Z"/></g></svg>