<svg id="materials" xmlns="http://www.w3.org/2000/svg" viewBox="0 0 240 240"><defs><style>.cls-1{fill:#f09e3e;}.cls-2{fill:#fc3;}.cls-3{fill:#d68033;}.cls-4{fill:#88b337;}.cls-5{fill:#f05d46;}.cls-6{fill:#fd882f;}.cls-7{fill:#474747;}</style></defs><circle class="cls-1" cx="120" cy="120" r="96.98"/><circle class="cls-2" cx="120" cy="120" r="78.54"/><polygon class="cls-3" points="119.62 120 120.37 121.36 203.46 75.55 201.96 72.82 121.18 117.36 121.18 25.1 118.06 25.1 118.06 117.36 37.29 72.82 35.78 75.55 116.48 120.05 35.74 167.74 37.33 170.43 118.06 122.73 118.06 214.9 121.18 214.9 121.18 122.73 201.91 170.43 203.5 167.75 120.41 118.66 119.62 120 120.37 121.36 119.62 120 118.83 121.34 201.91 170.43 203.5 167.75 118.06 117.27 118.06 214.9 121.18 214.9 121.18 117.27 35.74 167.74 37.33 170.43 122.77 119.95 37.29 72.82 35.78 75.55 121.18 122.64 121.18 25.1 118.06 25.1 118.06 122.64 203.46 75.55 201.96 72.82 116.48 119.95 118.83 121.34 119.62 120"/><path class="cls-4" d="M77.46,84a9.82,9.82,0,0,1-9.82-9.81h6.55a3.27,3.27,0,0,0,6.54,0h6.55A9.82,9.82,0,0,1,77.46,84Z"/><path class="cls-4" d="M146.18,93.82V87.28a3.28,3.28,0,0,0,0-6.55V74.19a9.82,9.82,0,1,1,0,19.63Z"/><path class="cls-4" d="M188.72,110.18h-6.54a3.28,3.28,0,0,0-6.55,0h-6.54a9.82,9.82,0,0,1,19.63,0Z"/><path class="cls-4" d="M172.36,165.81h-6.55a3.27,3.27,0,0,0-6.54,0h-6.55a9.82,9.82,0,0,1,19.64,0Z"/><path class="cls-4" d="M93.82,165.81a9.82,9.82,0,1,1,0-19.63v6.54a3.28,3.28,0,0,0,0,6.55Z"/><path class="cls-4" d="M61.1,142.91a9.82,9.82,0,0,1-9.82-9.82h6.54a3.28,3.28,0,0,0,6.55,0h6.54A9.82,9.82,0,0,1,61.1,142.91Z"/><path class="cls-5" d="M103.64,67.64a6.55,6.55,0,1,1,6.54-6.54A6.54,6.54,0,0,1,103.64,67.64Zm0-6.54Z"/><path class="cls-5" d="M97.09,87.28a6.55,6.55,0,1,1,6.55-6.55A6.54,6.54,0,0,1,97.09,87.28Zm0-6.55Z"/><circle class="cls-5" cx="133.09" cy="61.1" r="6.54"/><circle class="cls-5" cx="159.27" cy="67.64" r="6.54"/><path class="cls-5" d="M178.9,142.91a6.55,6.55,0,1,1,6.55-6.55A6.54,6.54,0,0,1,178.9,142.91Zm0-6.55Z"/><path class="cls-5" d="M152.72,126.54a6.54,6.54,0,1,1,6.55-6.54A6.54,6.54,0,0,1,152.72,126.54Zm0-6.54Z"/><path class="cls-5" d="M136.36,185.45a6.55,6.55,0,1,1,6.55-6.55A6.54,6.54,0,0,1,136.36,185.45Zm0-6.55Z"/><path class="cls-5" d="M139.63,162.54a6.55,6.55,0,1,1,6.55-6.54A6.54,6.54,0,0,1,139.63,162.54Zm0-6.54Z"/><circle class="cls-5" cx="106.91" cy="178.9" r="6.54"/><circle class="cls-5" cx="80.73" cy="172.36" r="6.54"/><path class="cls-5" d="M61.1,110.18a6.55,6.55,0,1,1,6.54-6.54A6.54,6.54,0,0,1,61.1,110.18Zm0-6.54Z"/><path class="cls-5" d="M77.46,126.54A6.54,6.54,0,1,1,84,120,6.54,6.54,0,0,1,77.46,126.54Zm0-6.54Z"/><rect class="cls-6" x="103.64" y="93.82" width="6.54" height="6.54"/><rect class="cls-6" x="80.73" y="61.1" width="6.54" height="6.54"/><rect class="cls-6" x="133.09" y="77.46" width="6.54" height="6.54"/><rect class="cls-6" x="129.82" y="93.82" width="6.54" height="6.54"/><rect class="cls-6" x="162.54" y="123.27" width="6.54" height="6.54"/><rect class="cls-6" x="178.9" y="116.73" width="6.54" height="6.54"/><rect class="cls-6" x="126.54" y="136.36" width="6.54" height="6.54"/><rect class="cls-6" x="152.72" y="172.36" width="6.54" height="6.54"/><rect class="cls-6" x="103.64" y="159.27" width="6.54" height="6.54"/><rect class="cls-6" x="100.37" y="142.91" width="6.54" height="6.54"/><rect class="cls-6" x="90.55" y="116.73" width="6.54" height="6.54"/><rect class="cls-6" x="54.55" y="120" width="6.54" height="6.54"/><path class="cls-7" d="M120,25.1A94.9,94.9,0,1,1,25.1,120,94.9,94.9,0,0,1,120,25.1m0-4.16A99.06,99.06,0,1,0,219.06,120,99.17,99.17,0,0,0,120,20.94Z"/></svg>