<svg id="materials" xmlns="http://www.w3.org/2000/svg" xmlns:xlink="http://www.w3.org/1999/xlink" viewBox="0 0 216.26 390"><defs><style>.cls-1{fill:none;}.cls-2{fill:#fff;}.cls-3{fill:#515556;}.cls-4{fill:#f4e90f;}.cls-5{fill:#bfd1bf;}.cls-6{fill:#6c8c6c;}.cls-7{fill:#cec015;}.cls-8{clip-path:url(#clip-path);}.cls-9{fill:#e8e7df;}</style><clipPath id="clip-path"><path class="cls-1" d="M152.3,165.18s-20.05,23.45-44.78,23.45-44.78-23.45-44.78-23.45,20.05-23.46,44.78-23.46S152.3,165.18,152.3,165.18Z"/></clipPath></defs><title>pjord</title><path class="cls-2" d="M61.77,290.59c-16.21,0-30.6-18.91-33.47-44-3-26.11,8.19-48.9,24.92-50.82a19.83,19.83,0,0,1,2.3-.13c16.21,0,30.6,18.91,33.47,44,3,26.11-8.19,48.9-24.92,50.82A19.83,19.83,0,0,1,61.77,290.59Z"/><path class="cls-3" d="M55.52,198.09c14.67,0,28.33,18.11,31,41.83,2.85,24.81-7.35,46.35-22.77,48.11a17.11,17.11,0,0,1-2,.12c-14.67,0-28.32-18.11-31-41.83-2.85-24.8,7.35-46.34,22.77-48.11a17.11,17.11,0,0,1,2-.12m0-4.89h0a24.64,24.64,0,0,0-2.58.15c-9.2,1.06-17,7.52-22.1,18.19-4.68,9.89-6.45,22.45-5,35.34,3,26.31,18.45,46.16,35.9,46.16a22.32,22.32,0,0,0,2.58-.15c9.2-1.06,17-7.51,22.09-18.18,4.69-9.9,6.46-22.46,5-35.35C88.4,213.05,73,193.2,55.52,193.2Z"/><path class="cls-2" d="M153.27,290.59a19.87,19.87,0,0,1-2.31-.13c-16.73-1.92-27.91-24.71-24.92-50.82,2.88-25.08,17.27-44,33.47-44a19.87,19.87,0,0,1,2.31.13c16.73,1.92,27.91,24.71,24.92,50.82C183.86,271.68,169.47,290.59,153.27,290.59Z"/><path class="cls-3" d="M159.51,198.09a17.28,17.28,0,0,1,2,.12c15.42,1.77,25.61,23.31,22.77,48.11-2.72,23.72-16.37,41.83-31,41.83a17.28,17.28,0,0,1-2-.12c-15.42-1.76-25.61-23.3-22.77-48.11,2.72-23.72,16.37-41.83,31-41.83m0-4.89c-17.45,0-32.88,19.85-35.89,46.16-1.48,12.89.28,25.45,5,35.35,5,10.67,12.9,17.12,22.09,18.18a22.49,22.49,0,0,0,2.59.15c17.45,0,32.88-19.85,35.89-46.16,1.48-12.89-.28-25.45-5-35.34-5.05-10.67-12.9-17.13-22.1-18.19A22.19,22.19,0,0,0,159.51,193.2Z"/><path class="cls-4" d="M70.08,388.17c-3.4,0-7.44-.58-8.79-1.86a3.1,3.1,0,0,1-1-2.61,4,4,0,0,1,.74-1.83,11.37,11.37,0,0,1-3.42.72,2.84,2.84,0,0,1-2.37-1,2.35,2.35,0,0,1-.46-1.89,4.86,4.86,0,0,1,1.79-2.59,5.13,5.13,0,0,1-1.36.25,2.23,2.23,0,0,1-1.68-.83,2,2,0,0,1-.24-1.75c2.11-6.1,11-12,22.16-14.63,1.48-.36,3-.65,4.58-.87V285.88a1.83,1.83,0,0,1,1.83-1.83H99a1.83,1.83,0,0,1,1.84,1.83v76.5a8.42,8.42,0,0,1,3.32,4.78c2,8.3-10.24,15.33-22.32,19.15A39.75,39.75,0,0,1,70.08,388.17Z"/><path class="cls-3" d="M99,285.88v77.47a7,7,0,0,1,3.37,4.23c1.49,6.26-8.26,12.93-21.08,17a37.29,37.29,0,0,1-11.17,1.77c-4.12,0-6.93-.78-7.53-1.35-3-2.83,10.15-8,8.91-8.81l-.26-.05c-1.85,0-10.53,4.64-13.59,4.64a1.16,1.16,0,0,1-.93-.31c-1.44-1.83,12.27-8.79,12.14-9.33L68.5,371c-1.91,0-11.79,4.52-13.29,4.52l-.19-.14c1.85-5.36,10.12-10.9,20.85-13.45a49.19,49.19,0,0,1,6-1v-75H99m0-3.66H81.86a3.66,3.66,0,0,0-3.67,3.66V357.7c-1.07.19-2.13.41-3.17.65-11.91,2.84-21.12,9-23.46,15.82a3.85,3.85,0,0,0,.48,3.42,3.73,3.73,0,0,0,1.13,1,6,6,0,0,0-.19.73,4.21,4.21,0,0,0,.82,3.36,4.71,4.71,0,0,0,3.81,1.7,6.1,6.1,0,0,0,.84-.05A4.89,4.89,0,0,0,60,387.64c2.31,2.19,8.28,2.36,10,2.36a41.2,41.2,0,0,0,12.28-1.95c12.86-4.06,25.81-11.79,23.54-21.31a10,10,0,0,0-3.27-5.22V285.88A3.66,3.66,0,0,0,99,282.22Z"/><path class="cls-4" d="M146.06,388.17a39.8,39.8,0,0,1-11.72-1.86c-12.08-3.82-24.28-10.85-22.31-19.15a8.37,8.37,0,0,1,3.32-4.78v-76.5a1.83,1.83,0,0,1,1.83-1.83h17.11a1.83,1.83,0,0,1,1.83,1.83v73.39c1.56.22,3.1.51,4.58.87,11.14,2.65,20.05,8.53,22.15,14.63a2,2,0,0,1-.24,1.75,2.21,2.21,0,0,1-1.67.83h0a5.26,5.26,0,0,1-1.37-.25,4.81,4.81,0,0,1,1.79,2.59,2.31,2.31,0,0,1-.46,1.89,2.84,2.84,0,0,1-2.37,1,11.43,11.43,0,0,1-3.42-.72,3.84,3.84,0,0,1,.74,1.83,3.07,3.07,0,0,1-1,2.61C153.5,387.59,149.46,388.17,146.06,388.17Z"/><path class="cls-3" d="M134.29,285.88v75a49.87,49.87,0,0,1,6,1c10.73,2.55,19,8.09,20.84,13.45l-.18.14c-1.5,0-11.39-4.52-13.3-4.52l-.32.13c-.12.54,13.58,7.5,12.14,9.33a1.16,1.16,0,0,1-.93.31c-3.06,0-11.74-4.64-13.58-4.64l-.26.05c-1.25.81,11.89,6,8.91,8.81-.6.57-3.41,1.35-7.54,1.35a37.29,37.29,0,0,1-11.17-1.77c-12.82-4.05-22.56-10.72-21.08-17a7.1,7.1,0,0,1,3.37-4.23V285.88h17.11m0-3.66H117.18a3.66,3.66,0,0,0-3.66,3.66v75.64a10,10,0,0,0-3.28,5.22c-2.26,9.52,10.68,17.25,23.55,21.31A41.18,41.18,0,0,0,146.06,390c1.78,0,7.74-.17,10.06-2.36a4.92,4.92,0,0,0,1.57-3.27,6.1,6.1,0,0,0,.84.05,4.69,4.69,0,0,0,3.81-1.7,4.21,4.21,0,0,0,.82-3.36,3.74,3.74,0,0,0-.19-.73,3.62,3.62,0,0,0,1.13-1,3.89,3.89,0,0,0,.49-3.42c-2.35-6.78-11.55-13-23.47-15.82-1-.24-2.09-.46-3.17-.65V285.88A3.66,3.66,0,0,0,134.29,282.22Z"/><path class="cls-2" d="M107.43,337.05C66.48,335.61,39,316.13,39,288.57c0-13.12,5.94-23.48,11.18-32.62,3.9-6.79,7.27-12.67,7.27-18.11A73,73,0,0,1,68,199.52c-28-12.8-45.9-38.51-45.9-66.24,0-41.19,38.34-74.71,85.47-74.71S193,92.09,193,133.28c0,27.73-17.92,53.44-45.91,66.24a72.94,72.94,0,0,1,10.55,38.32c0,5.44,3.36,11.32,7.26,18.11,5.24,9.14,11.19,19.5,11.19,32.62,0,27.56-27.52,47-68.48,48.48h-.17Z"/><path class="cls-3" d="M107.52,61c45.85,0,83,32.35,83,72.26,0,28.71-19.24,53.51-47.1,65.17,7.33,10.6,11.73,24.44,11.73,39.39,0,13.83,18.45,28.44,18.45,50.73,0,28.76-30.3,44.78-66.11,46-35.82-1.26-66.12-17.28-66.12-46,0-22.29,18.45-36.9,18.45-50.73,0-15,4.4-28.79,11.73-39.39C43.72,186.79,24.49,162,24.49,133.28c0-39.91,37.17-72.26,83-72.26m0-4.89C59,56.13,19.6,90.74,19.6,133.28c0,27.87,17.44,53.74,44.88,67.3A76.07,76.07,0,0,0,55,237.84c0,4.79-3.22,10.4-6.95,16.9-5.12,8.94-11.5,20.07-11.5,33.83,0,29,28.46,49.43,70.83,50.93h.34c42.37-1.5,70.83-22,70.83-50.93,0-13.76-6.38-24.89-11.51-33.83-3.72-6.5-6.94-12.11-6.94-16.9a76,76,0,0,0-9.52-37.26c27.45-13.56,44.88-39.43,44.88-67.3C195.43,90.74,156,56.13,107.52,56.13Z"/><path class="cls-5" d="M169.89,78.84c-20.7,0-38.31-12.48-42.83-30.34L125.41,42l5.45,3.93c2.44,1.76,5.39,2.54,9.56,2.54,2.18,0,4.49-.2,6.94-.41,2.69-.24,5.47-.48,8.37-.48,18,0,39-7.29,39-27.83a30,30,0,0,0-.93-7.32l-1.65-6.51,5.44,3.92c10.29,7.42,16.19,18.41,16.19,30.14C213.81,61.4,194.11,78.84,169.89,78.84Z"/><path class="cls-3" d="M196.19,11.82c9.27,6.67,15.18,16.81,15.18,28.15,0,20.12-18.57,36.42-41.48,36.42-19.8,0-36.34-12.19-40.46-28.49,3.28,2.36,7,3,11,3,4.74,0,9.9-.89,15.31-.89,22.91,0,41.48-10.16,41.48-30.27a32,32,0,0,0-1-7.92M188.16,0l3.3,13a27.53,27.53,0,0,1,.86,6.72c0,12.27-9.61,25.38-36.59,25.38-3,0-5.84.25-8.59.49-2.39.21-4.64.41-6.72.41-3.68,0-6.11-.63-8.13-2.09L121.4,36.08l3.29,13c4.8,18.95,23.38,32.18,45.2,32.18,25.57,0,46.37-18.53,46.37-41.31,0-12.53-6.27-24.24-17.21-32.12Z"/><path class="cls-5" d="M46.37,81.91c-24.22,0-43.93-17.43-43.93-38.86,0-11.74,5.9-22.72,16.19-30.14L24.08,9l-1.65,6.5a30.14,30.14,0,0,0-.94,7.33c0,20.53,21,27.82,39,27.82,2.9,0,5.68.24,8.37.48,2.45.21,4.76.41,6.94.41C80,51.53,83,50.75,85.4,49l5.44-3.93L89.2,51.57C84.68,69.44,67.06,81.91,46.37,81.91Z"/><path class="cls-3" d="M20.06,14.89a32.58,32.58,0,0,0-1,7.93c0,20.11,18.57,30.27,41.48,30.27,5.41,0,10.57.89,15.31.89,4,0,7.71-.64,11-3-4.12,16.3-20.66,28.5-40.46,28.5-22.91,0-41.48-16.31-41.48-36.42,0-11.35,5.91-21.48,15.17-28.16m8-11.82L17.21,10.93C6.27,18.81,0,30.52,0,43.05c0,22.78,20.8,41.3,46.37,41.3,21.82,0,40.4-13.23,45.2-32.18l3.29-13L84,47c-2,1.46-4.46,2.08-8.13,2.08-2.08,0-4.34-.19-6.73-.4-2.74-.24-5.57-.49-8.58-.49-27,0-36.59-13.11-36.59-25.38a27.67,27.67,0,0,1,.86-6.73Z"/><path class="cls-6" d="M107.52,109.59c-24.21,0-47.34-6.62-65.15-18.65l-1-.71s0-2.53,0-2.87C41.27,44.15,71,9,107.52,9s66.25,35.16,66.25,78.37c0,.34-.05,2.87-.05,2.87l-1.06.71C154.86,103,131.72,109.59,107.52,109.59Z"/><path class="cls-3" d="M107.52,11.43c35.24,0,63.81,34,63.81,75.93,0,.53,0,1,0,1.56-16.73,11.3-39.14,18.22-63.77,18.22s-47-6.92-63.78-18.22c0-.52,0-1,0-1.56,0-41.93,28.57-75.93,63.81-75.93m0-4.89c-37.88,0-68.7,36.26-68.7,80.82,0,.37,0,.73,0,1.09l0,.55,0,2.54L41,93C59.21,105.26,82.83,112,107.52,112S155.83,105.26,174,93l2.11-1.42,0-2.54v-.55c0-.36,0-.72,0-1.09C176.21,42.8,145.4,6.54,107.52,6.54Z"/><path class="cls-7" d="M95.85,151.1v-42c-20.06-1.77-38.51-8-53.48-18.13l-1-.71s-.06-2.53-.06-2.87a93.3,93.3,0,0,1,1.23-15l.61-3.71,3.14,2.06c14,9.13,31.09,14.83,49.61,16.54V10.18l2-.35a55.74,55.74,0,0,1,19.28,0l2,.35V87.25c18.52-1.71,35.62-7.41,49.61-16.54l3.14-2.06.6,3.71a92.26,92.26,0,0,1,1.23,15c0,.34-.05,2.87-.05,2.87l-1.06.71c-15,10.11-33.41,16.36-53.47,18.13v42Z"/><path class="cls-3" d="M107.52,11.43a54.12,54.12,0,0,1,9.22.8V89.9c20.44-1.46,38.93-7.7,53.39-17.15a89.74,89.74,0,0,1,1.2,14.61c0,.53,0,1,0,1.56-14.62,9.87-33.57,16.4-54.55,17.9v41.84H98.29V106.82c-21-1.5-39.93-8-54.55-17.9,0-.52,0-1,0-1.56A90.87,90.87,0,0,1,44.9,72.75c14.46,9.45,33,15.69,53.39,17.15V12.23a54.24,54.24,0,0,1,9.23-.8m0-4.89a59.29,59.29,0,0,0-10.06.88l-4,.7V84.54c-17.1-2-32.86-7.4-45.83-15.88l-6.29-4.1L40.08,72a94.85,94.85,0,0,0-1.26,15.4c0,.37,0,.73,0,1.09l0,.55,0,2.54L41,93c14.75,10,32.78,16.27,52.4,18.33v42.26h28.22V111.29c19.61-2.06,37.65-8.36,52.4-18.33l2.11-1.42,0-2.54v-.55c0-.36,0-.72,0-1.09A96,96,0,0,0,175,72l-1.22-7.4-6.28,4.1c-13,8.48-28.73,13.93-45.83,15.88V8.12l-4.06-.7A59.18,59.18,0,0,0,107.52,6.54Z"/><path class="cls-3" d="M77.92,131.75c0,8.49-5.85,15.37-13.07,15.37s-13.07-6.88-13.07-15.37,5.85-15.38,13.07-15.38S77.92,123.25,77.92,131.75Z"/><path class="cls-3" d="M164,131.75c0,8.49-5.85,15.37-13.07,15.37s-13.07-6.88-13.07-15.37,5.86-15.38,13.07-15.38S164,123.25,164,131.75Z"/><path class="cls-4" d="M107.52,190.47c-25.29,0-45.34-23.12-46.18-24.1a1.85,1.85,0,0,1,0-2.38c.84-1,20.89-24.1,46.18-24.1S152.85,163,153.69,164a1.82,1.82,0,0,1,0,2.38C152.85,167.35,132.8,190.47,107.52,190.47Z"/><path class="cls-3" d="M107.52,141.72c24.73,0,44.78,23.46,44.78,23.46s-20.05,23.45-44.78,23.45-44.78-23.45-44.78-23.45,20.05-23.46,44.78-23.46m0-3.66c-26.12,0-46.71,23.73-47.57,24.74a3.67,3.67,0,0,0,0,4.76c.86,1,21.45,24.74,47.57,24.74s46.7-23.73,47.57-24.74a3.67,3.67,0,0,0,0-4.76C154.22,161.79,133.64,138.06,107.52,138.06Z"/><g class="cls-8"><path class="cls-3" d="M107.52,161.62c18.65,0,35.65,1.72,48.47,4.53.5-.45.93-.84,1.29-1.18-13.11-3-30.55-4.76-49.76-4.77S70.86,162,57.76,165c.36.33.79.73,1.3,1.18C71.87,163.35,88.87,161.62,107.52,161.62Z"/><path class="cls-3" d="M107.52,161.62v1.22h0c18.56,0,35.49,1.72,48.19,4.5l.61.13.46-.41c.51-.45.94-.85,1.31-1.19l1.68-1.58-2.24-.51c-13.23-3-30.74-4.8-50-4.8s-36.81,1.81-50,4.8l-2.25.51,1.69,1.57c.36.34.8.75,1.32,1.2l.46.42.61-.13c12.68-2.78,29.58-4.51,48.12-4.51h.09V160.4h-.09c-18.69,0-35.73,1.73-48.64,4.56l.26,1.19.81-.91c-.5-.44-.92-.83-1.27-1.16l-.84.89.27,1.19c13-2.93,30.37-4.74,49.49-4.73s36.5,1.8,49.49,4.74l.27-1.2-.84-.89c-.35.33-.77.71-1.27,1.16l.82.91.26-1.2c-12.93-2.83-30-4.55-48.71-4.55h0Z"/></g><path class="cls-4" d="M113,30.53a5.5,5.5,0,1,1-5.5-5.5A5.5,5.5,0,0,1,113,30.53Z"/><path class="cls-4" d="M113,53.13a5.5,5.5,0,1,1-5.5-5.5A5.51,5.51,0,0,1,113,53.13Z"/><path class="cls-4" d="M113,75.73a5.5,5.5,0,1,1-5.5-5.5A5.5,5.5,0,0,1,113,75.73Z"/><path class="cls-4" d="M113,98.33a5.5,5.5,0,1,1-5.5-5.49A5.5,5.5,0,0,1,113,98.33Z"/><path class="cls-4" d="M137.21,96.31a5.5,5.5,0,1,1-5.5-5.5A5.5,5.5,0,0,1,137.21,96.31Z"/><path class="cls-4" d="M159.44,89.71a5.5,5.5,0,1,1-5.49-5.5A5.49,5.49,0,0,1,159.44,89.71Z"/><path class="cls-4" d="M75.38,96.31a5.5,5.5,0,1,0,5.5-5.5A5.51,5.51,0,0,0,75.38,96.31Z"/><path class="cls-4" d="M53.15,89a5.5,5.5,0,1,0,5.5-5.5A5.49,5.49,0,0,0,53.15,89Z"/><path class="cls-4" d="M113,120.94a5.5,5.5,0,1,1-5.5-5.5A5.5,5.5,0,0,1,113,120.94Z"/><path class="cls-9" d="M147.84,261.45s-17.11-12.22-39.1-12.22c-21.07,0-39.1,12.22-39.1,12.22s24-7.33,39.1-7.33S147.84,261.45,147.84,261.45Z"/></svg>