<svg id="レイヤー_1" data-name="レイヤー 1" xmlns="http://www.w3.org/2000/svg" viewBox="0 0 319.22 315.45"><defs><style>.cls-1{fill:#fff;}.cls-2{fill:#bccebc;}.cls-3{fill:#6a896b;}.cls-4{fill:#515556;}.cls-5{fill:#c5b823;}.cls-6{fill:#f8ed00;}</style></defs><title>pjord-face</title><path class="cls-1" d="M251.72,140.32c-1.09.67-2.19,1.34-3.31,2l-1.6.92-1.76,1c-18.31,10.12-39.37,16.78-61.94,19.6l-2.24.26c-.49.06-1,.13-1.46.18v42.53c28,8.69,48.05,31.82,49.08,33a5.37,5.37,0,0,1,0,7c-1.27,1.49-31.46,36.3-69.78,36.3s-68.5-34.81-69.77-36.3a5.37,5.37,0,0,1,0-7c1-1.2,21.09-24.33,49.07-33V164.25l-1.42-.17-2.29-.28a172.14,172.14,0,0,1-61.89-19.57l-1.83-1L69,142.32q-1.68-1-3.33-2l-1-.61c-1.21-.76-2.41-1.54-3.59-2.33l-1.27-.86C44,154.42,34.5,176.89,34.5,201.28c0,58.54,54.53,106,121.79,106s121.79-47.46,121.79-106c0-23.47-8.77-45.16-23.6-62.72-.59.38-1.18.76-1.78,1.13ZM96.13,171.7c10.58,0,19.17,10.1,19.17,22.55s-8.59,22.56-19.17,22.56S77,206.71,77,194.25,85.54,171.7,96.13,171.7Zm126.3,45.11c-10.59,0-19.17-10.1-19.17-22.56s8.58-22.55,19.17-22.55,19.17,10.1,19.17,22.55S233,216.81,222.43,216.81Z"/><path class="cls-2" d="M311.05,59.63c0-16.64-8.67-31.5-22.26-41.3A47.23,47.23,0,0,1,290.28,30c0,24-18.07,38.36-42.92,42.86a132.61,132.61,0,0,1,11.13,39.73C288.17,109,311.05,86.67,311.05,59.63Z"/><path class="cls-2" d="M28.94,34.47a47.23,47.23,0,0,1,1.49-11.63C16.84,32.64,8.17,47.5,8.17,64.14c0,26.36,21.74,48.24,50.33,52.62a133.5,133.5,0,0,1,9.9-40.14C45.35,71.45,28.94,57.36,28.94,34.47Z"/><path class="cls-3" d="M179.41,104.34V125c25.09-2.86,48.19-10.85,67.23-23.29L249,99.51c-9.11-39.34-35.89-70-69.55-79Z"/><path class="cls-3" d="M138,125V20.51C104.23,29.58,77.37,60.4,68.37,100l2.42,1.76C89.82,114.16,112.93,122.15,138,125Z"/><path class="cls-4" d="M65.7,140.31q1.65,1,3.33,2Q67.35,141.33,65.7,140.31Z"/><path class="cls-4" d="M70.58,143.21l1.83,1Z"/><path class="cls-4" d="M248.41,142.31c1.12-.65,2.22-1.32,3.31-2C250.63,141,249.52,141.66,248.41,142.31Z"/><path class="cls-4" d="M245.05,144.21l1.76-1Z"/><path class="cls-4" d="M180.87,164.07l2.24-.26Z"/><path class="cls-4" d="M134.3,163.8l2.29.28Z"/><path class="cls-5" d="M172.25,204.93V157.68c30.77-2.19,58.57-11.76,80-26.25,0-.76.05-1.52.05-2.28a132,132,0,0,0-1.75-21.43c-21.21,13.86-48.34,23-78.31,25.15V18.94a78.87,78.87,0,0,0-27.07,0V132.87c-30-2.14-57.1-11.29-78.32-25.15a133.09,133.09,0,0,0-1.75,21.43c0,.76,0,1.52,0,2.28,21.45,14.49,49.25,24.06,80,26.25v47.25a65.22,65.22,0,0,1,27.07,0Zm54.57-80.4a8.07,8.07,0,1,1-8.07,8.06A8.06,8.06,0,0,1,226.82,124.53ZM194.2,134.2a8.07,8.07,0,1,1-8.06,8.07A8.07,8.07,0,0,1,194.2,134.2ZM87,139.58a8.07,8.07,0,1,1,8.07-8.07A8.06,8.06,0,0,1,87,139.58Zm32.62,10.75a8.07,8.07,0,1,1,8.07-8.06A8.06,8.06,0,0,1,119.64,150.33Zm39.07-13.15a8.07,8.07,0,1,1-8.06,8.06A8.06,8.06,0,0,1,158.71,137.18Zm-8.06-25.09a8.07,8.07,0,1,1,8.06,8.06A8.06,8.06,0,0,1,150.65,112.09Zm8.06-74.38a8.07,8.07,0,1,1-8.06,8.06A8.06,8.06,0,0,1,158.71,37.71Zm0,33.16a8.07,8.07,0,1,1-8.06,8.06A8.06,8.06,0,0,1,158.71,70.87ZM150.65,178.4a8.07,8.07,0,1,1,8.06,8.06A8.07,8.07,0,0,1,150.65,178.4Z"/><path class="cls-4" d="M96.13,216.81c10.58,0,19.17-10.1,19.17-22.56s-8.59-22.55-19.17-22.55S77,181.8,77,194.25,85.54,216.81,96.13,216.81Z"/><path class="cls-4" d="M222.43,171.7c-10.59,0-19.17,10.1-19.17,22.55s8.58,22.56,19.17,22.56,19.17-10.1,19.17-22.56S233,171.7,222.43,171.7Z"/><path class="cls-6" d="M158.7,239.87h-.09c-24.07,0-46.24,2-63.91,5.26,6.68,7.11,32.8,32.57,64,32.57s57.36-25.48,64-32.58c-17.71-3.28-39.92-5.25-64-5.25Z"/><path class="cls-6" d="M158.71,208.89c-28.18,0-52.22,20.76-61.54,30a376.24,376.24,0,0,1,61.55-4.71,375.94,375.94,0,0,1,61.54,4.72C211,229.66,186.91,208.89,158.71,208.89Z"/><polygon class="cls-4" points="149.21 10.13 149.21 10.13 149.21 10.13 149.21 10.13"/><polygon class="cls-4" points="170.59 10.43 170.59 10.43 170.59 10.43 170.59 10.43"/><path class="cls-4" d="M319.22,59.63c0-18.72-9.38-36.2-25.65-47.92L277.6.19A1,1,0,0,0,276,1.25l4.83,19.08h0A39.52,39.52,0,0,1,282.11,30a31.2,31.2,0,0,1-8.58,21.7C267.61,58,258.29,63,244.59,65.08c-14.46-26.66-37.68-46.21-64.94-52.93h0l-4.94-1.06h0l-1-.18-.43-.07h0L171,10.48l-.42-.05c-.78-.11-1.58-.21-2.37-.3l-.34,0c-.8-.09-1.6-.17-2.41-.23s-1.83-.13-2.74-.17h0l-.58,0c-1.15,0-2.29-.07-3.44-.07s-2.29,0-3.43.07l-.58,0h0c-.91,0-1.83.1-2.74.17h0c-.81.06-1.6.14-2.4.23h0l-.35,0c-.8.09-1.59.19-2.38.3l-.41.05h0c-.76.11-3.65.59-3.65.59h-.05l-4.92,1.06h0c-28.54,7-52.66,28.14-66.93,56.76C58.6,66.38,50.22,61.38,44.89,55.29a31.23,31.23,0,0,1-7.78-20.82,39.38,39.38,0,0,1,1.24-9.62L43.18,5.76A1,1,0,0,0,41.63,4.7l-16,11.52C9.38,27.94,0,45.43,0,64.14,0,79.47,6.31,93.5,16.69,104.26A71.31,71.31,0,0,0,57,124.78c0,1-.05,2-.06,3-19.09,19.86-30.64,45.53-30.64,73.54C26.33,232.8,41,261.36,64.49,282s56,33.43,91.8,33.43S224.56,302.67,248.1,282s38.15-49.22,38.15-80.74c0-25.58-9.63-49.22-25.84-68.26l0-1.45,0-.8h0c0-.54,0-1.08,0-1.63,0-2.89-.1-5.76-.28-8.6a71.7,71.7,0,0,0,41.68-20.14C312.65,89.56,319.22,75.27,319.22,59.63ZM137,104.34v19.53c-24.5-3-47.06-10.83-65.66-23L69.5,99.54c9-38.45,34.93-68.38,67.51-77.7Zm43.4-82.5c32.49,9.29,58.4,39.07,67.44,77.35L246,100.92c-18.59,12.14-41.13,20-65.61,23v-102Zm78.93,89.58a133.17,133.17,0,0,0-10.57-37.86c12-2.36,22.5-7,30-14.12,7.81-7.31,12.47-17.22,12.46-29.48a47.16,47.16,0,0,0-.92-9.18c12.11,9.62,19.69,23.46,19.69,38.85,0,13.24-5.59,25.32-14.85,34.56A62.46,62.46,0,0,1,259.34,111.42ZM241.75,275.48c-21.84,19-52.06,30.8-85.46,30.8s-63.61-11.78-85.46-30.8S35.5,230.23,35.5,201.28c0-23.83,9.15-45.8,24.56-63.44l.53.36c1.19.8,2.4,1.58,3.61,2.35l1,.61c1.11.69,2.23,1.36,3.36,2l1.56.9,1.84,1c18.42,10.17,39.58,16.86,62.25,19.69l2.29.27.54.06v40.92c-13.86,4.45-25.71,12.32-34.27,19.27a118.77,118.77,0,0,0-14.56,13.83,6.37,6.37,0,0,0,0,8.28,125.72,125.72,0,0,0,21.17,18.87c12.6,9,29.9,17.77,49.36,17.78s36.77-8.82,49.36-17.78a125.55,125.55,0,0,0,21.18-18.87h0a6.38,6.38,0,0,0,0-8.29h0a118.77,118.77,0,0,0-14.56-13.83c-8.56-6.95-20.41-14.82-34.28-19.27V165.14l.57-.07,2.25-.27c22.69-2.83,43.87-9.53,62.31-19.71l1.77-1,1.61-.93c1.12-.65,2.23-1.32,3.32-2,.34-.2.67-.41,1-.62l1-.66c14.36,17.29,22.82,38.48,22.82,61.4C277.08,230.23,263.61,256.46,241.75,275.48ZM145.11,133.87a1,1,0,0,0,.75-.27,1,1,0,0,0,.32-.73V19.8a76.79,76.79,0,0,1,25.07,0V132.87a1,1,0,0,0,.31.73,1,1,0,0,0,.76.27c29.53-2.11,56.31-11,77.49-24.5a132.37,132.37,0,0,1,1.5,19.78c0,.56,0,1.14,0,1.73-21.22,14.22-48.68,23.64-79.1,25.81a1,1,0,0,0-.92,1v46a65,65,0,0,0-25.07,0v-46a1,1,0,0,0-.93-1c-30.41-2.17-57.87-11.59-79.1-25.81,0-.59,0-1.17,0-1.73a131,131,0,0,1,1.51-19.78C88.79,122.87,115.58,131.76,145.11,133.87Zm13.56,107h.08c23.22,0,44.66,1.84,62,4.91a126.07,126.07,0,0,1-21.33,17.45c-11.17,7.2-25.34,13.47-40.68,13.47s-29.5-6.27-40.66-13.46a126.07,126.07,0,0,1-21.33-17.45c17.28-3.07,38.69-4.92,61.87-4.92h.08Zm.05-7.67v0a383.25,383.25,0,0,0-58.56,4.21,123.27,123.27,0,0,1,21.22-16.12c10.6-6.3,23.49-11.41,37.33-11.41s26.75,5.12,37.35,11.41a123.13,123.13,0,0,1,21.21,16.13A382.83,382.83,0,0,0,158.72,233.2ZM39.32,62.9c6.92,7,16.55,11.75,27.72,14.42a134.64,134.64,0,0,0-9.42,38.27A62,62,0,0,1,23.33,98C14.48,88.85,9.17,77,9.17,64.14c0-15.38,7.58-29.23,19.69-38.85a47.16,47.16,0,0,0-.92,9.18C27.94,46.15,32.16,55.7,39.32,62.9Z"/><polygon class="cls-4" points="171.01 10.48 171.01 10.48 171.01 10.48 171.01 10.48"/><circle class="cls-6" cx="158.71" cy="45.77" r="8.07"/><circle class="cls-6" cx="158.71" cy="78.93" r="8.07"/><circle class="cls-6" cx="158.71" cy="112.09" r="8.07"/><circle class="cls-6" cx="158.71" cy="145.24" r="8.07"/><circle class="cls-6" cx="194.2" cy="142.27" r="8.07"/><circle class="cls-6" cx="226.82" cy="132.59" r="8.07"/><circle class="cls-6" cx="119.64" cy="142.27" r="8.07"/><circle class="cls-6" cx="87.02" cy="131.51" r="8.07"/><circle class="cls-6" cx="158.71" cy="178.4" r="8.07"/></svg>