<svg id="materials" xmlns="http://www.w3.org/2000/svg" viewBox="0 0 300 40"><defs><style>.cls-1{fill:#fff;}.cls-2{fill:#474747;}</style></defs><title>practices-page-title</title><path class="cls-1" d="M16.93,36.68c-3.6,0-4.34-.07-5.27-.54a4.6,4.6,0,0,1-2.37-4.31,4.78,4.78,0,0,1,.6-2.41H7.6c-3.48,0-4.73-2.29-4.73-4.43,0-2.89,1.75-4.62,4.68-4.64l-.08-.18a4.25,4.25,0,0,1-2.6-1.26,4.66,4.66,0,0,1-1.19-3.34V13.65c0-2.67,1-4.15,2.18-5a3.81,3.81,0,0,1-.05-.59c0-2.32,2.34-4.22,5.21-4.22a4.27,4.27,0,0,1,3.87,2A5.37,5.37,0,0,1,19.6,3.67a4.22,4.22,0,0,1,4.23,2.7,4,4,0,0,1,4.05-2.55c3.08,0,5.39,1.91,5.39,4.43a2.88,2.88,0,0,1-.05.59,6.14,6.14,0,0,1,1.85,4.81v1.86c0,2.65-1.38,4.35-3.75,4.66l-.08.18h0c3.49,0,4.73,2.34,4.73,4.52s-1.24,4.55-4.73,4.55H24.42v1.15C24.42,36.68,19.92,36.68,16.93,36.68Z"/><path class="cls-2" d="M19.6,5.67c1.32,0,1.89.39,2.52,1.77a9,9,0,0,1,.78,2.31h1.74a13.19,13.19,0,0,0,.81-2c.42-1.23.84-1.92,2.43-1.92,1.86,0,3.39,1,3.39,2.43a3.51,3.51,0,0,1-.57,1.53c1.68.33,2.37,1.89,2.37,3.87v1.86c0,1.44-.44,2.71-2.58,2.71a6.24,6.24,0,0,1-.72,0,2.75,2.75,0,0,1-1.59,2.46,20,20,0,0,1-3.12,1.71h6.21A2.38,2.38,0,0,1,34,24.87c0,2.34-1.71,2.55-2.73,2.55H22.42v3.15c0,3.66-1.56,4.11-5.49,4.11-3.51,0-3.89-.09-4.38-.33a2.77,2.77,0,0,1-1.26-2.52,2.34,2.34,0,0,1,2.61-2.55c.24,0,1.1,0,1.57,0h.26c.66-.06.66-.39.66-1.11v-.78H7.6A2.35,2.35,0,0,1,4.87,25c0-1.92,1-2.64,2.73-2.64h8.82c.06-.36.27-.81,1.11-1.11.42-.15.93-.33.93-.54a.24.24,0,0,0-.24-.24H11.33c-.7,0-2.16,0-2.29-2.28a6.07,6.07,0,0,1-.71.05,2.35,2.35,0,0,1-2.65-2.66V13.65c0-1.14.07-3.39,2.7-3.81A4.23,4.23,0,0,1,7.81,8.1C7.81,7,9.13,5.88,11,5.88c.9,0,1.77.09,2.67,1.92a12.75,12.75,0,0,1,.73,2h2.51c-.06-.12-.21-.57-.33-.84a3.42,3.42,0,0,1-.24-1.14c0-1.41,1.68-2.1,3.24-2.1M11.26,15.6H26.62a7.88,7.88,0,0,1,.9,0v-.78a.26.26,0,0,0-.27-.24H11.5a.24.24,0,0,0-.24.24v.75M19.6,1.67a8.17,8.17,0,0,0-4.69,1.38A6.45,6.45,0,0,0,11,1.88c-3.84,0-7,2.62-7.2,5.9a7.76,7.76,0,0,0-2.14,5.87v1.92A6.84,6.84,0,0,0,3,19.85,6.49,6.49,0,0,0,.87,25a6.21,6.21,0,0,0,6.44,6.43c0,.13,0,.27,0,.41A6.64,6.64,0,0,0,10.83,38c1.33.65,2.45.72,6.1.72,2.74,0,9,0,9.47-7.26h4.87c4,0,6.73-2.63,6.73-6.55a6.53,6.53,0,0,0-2.22-5.06,7.08,7.08,0,0,0,1.29-4.3V13.65a8.39,8.39,0,0,0-1.8-5.57C35.18,4.5,32,1.82,27.88,1.82a6.26,6.26,0,0,0-4,1.27A6.28,6.28,0,0,0,19.6,1.67Z"/><path class="cls-1" d="M43.3,36c-5,0-6-3.27-6-6V25.17A7.41,7.41,0,0,1,38,21.91a4,4,0,0,1-3.49-4.27,3.7,3.7,0,0,1,1.68-3.33A3.06,3.06,0,0,1,35.28,12a3.94,3.94,0,0,1,.07-.77,4.41,4.41,0,0,1-.73-2.53,3.93,3.93,0,0,1,4.27-4.19h7.38a6.62,6.62,0,0,1,3.79,1,4.36,4.36,0,0,1,3-1h7.41c5,0,6,3.26,6,6v5.55c0,1.85,0,4.38-2.32,5.56l-.19.1a7.35,7.35,0,0,1,.74,3.43V30c0,2.75-1,6-6,6Z"/><path class="cls-2" d="M60.43,6.54c2.52,0,4,.87,4,4v5.55c0,1.65,0,3.15-1.23,3.78-.75.39-1,.42-3.81.42h-.87c-1.26,0-1.74,0-2.34-.81a17.91,17.91,0,0,1-3,.57,1.41,1.41,0,0,1,.3,1.11h5.22c2.61,0,4,1,4,4V30c0,3.18-1.56,4-4,4H43.3c-2.43,0-4-.81-4-4V25.17c0-3.15,1.52-4,4-4H48c.27-.75.3-.84.54-1.08a7.48,7.48,0,0,1-2,.21c-.51,0-2.46,0-2.84,0a1.76,1.76,0,0,1-1.75-1.2c-2.61.81-2.91.9-3.33.9a2,2,0,0,1-2.13-2.31,1.76,1.76,0,0,1,1.33-1.92c.33-.12,1.79-.51,2.09-.6-2.42-2.19-2.6-2.37-2.6-3.09a2.3,2.3,0,0,1,.44-1.29,2.12,2.12,0,0,1-1.1-2,2,2,0,0,1,2.27-2.19h7.38c2.58,0,4,.93,4,4v5.55c0,1.86,0,2.7-.84,3.51a5.52,5.52,0,0,1,1.27-.13h.5a2.7,2.7,0,0,1-.63-1.92c0-.48,0-1.41,1.5-1.89.36-.12,2-.36,2.31-.42-.36-.27-2-1.47-2.28-1.71a1.76,1.76,0,0,1-.72-1.38,2.35,2.35,0,0,1,.48-1.41,2.12,2.12,0,0,1-1.11-2A2,2,0,0,1,53,6.54h7.41m-1.94,9c.52,0,.59-.13.59-.79V11.55a.56.56,0,0,0-.63-.63h-2c1.26.93,1.59,1.38,1.59,2.07a2.93,2.93,0,0,1-.84,1.89,1.79,1.79,0,0,1,1,.66h.25m-14.16,0c.47,0,.59-.09.59-.69V11.55a.58.58,0,0,0-.66-.63h-2c1,.9,1.33,1.17,1.33,2a2.2,2.2,0,0,1-.58,1.5,1.65,1.65,0,0,1,1.33,1.14M45,25.8H57.13v-.57a.32.32,0,0,0-.36-.36H45.34a.33.33,0,0,0-.36.36v.57m.36,4.32H56.77a.32.32,0,0,0,.36-.36v-.57H45v.57a.32.32,0,0,0,.36.36M60.43,2.54H53a7,7,0,0,0-3.08.66,9.73,9.73,0,0,0-3.67-.66H38.89a5.91,5.91,0,0,0-6.27,6.19,6.49,6.49,0,0,0,.67,2.94c0,.12,0,.24,0,.36a5.28,5.28,0,0,0,.32,2,6.14,6.14,0,0,0-1.14,3.66,6.08,6.08,0,0,0,3,5.53,10.65,10.65,0,0,0-.17,2V30c0,5,3,8,8,8H58.69c5,0,8-3,8-8V25.17a10.52,10.52,0,0,0-.32-2.65c2.09-1.89,2.09-4.77,2.09-6.44V10.53c0-5-3-8-8-8Z"/><path class="cls-1" d="M72.22,36.59c-4.18,0-5-2.57-5-4.73V13.68c0-2.3.8-6.17,6.16-6.17h4c.33-2.42,2-3.84,4.67-3.84,3.69,0,4.85,1.93,5.1,3.84h4.32c5.35,0,6.14,3.87,6.14,6.17V30.36c0,6.2-4.6,6.2-8,6.2a22.58,22.58,0,0,1-3.24-.13,4.54,4.54,0,0,1-3.83-4.84,5.16,5.16,0,0,1,1-3.16,9.75,9.75,0,0,1-1.31-1.75v0c-1.7,3.06-3.68,3.71-5,3.71h-.31v1.46A4.32,4.32,0,0,1,72.22,36.59Z"/><path class="cls-2" d="M82,5.67c2.25,0,3.15.75,3.15,2.73V9.51h6.27c2.46,0,4.14.87,4.14,4.17V30.36c0,4.2-2.46,4.2-6,4.2a19.53,19.53,0,0,1-3-.12,2.61,2.61,0,0,1-2.07-2.85c0-2.1,1.14-2.82,2.7-2.82.27,0,1.36,0,1.89,0h.27a.59.59,0,0,0,.51-.66V25.86a3.13,3.13,0,0,1-3,2.19c-1.53,0-2.61-1.65-3.21-2.67a17.32,17.32,0,0,1-1.53-3.6,19.36,19.36,0,0,1-1.77,3.93c-.45.81-1.62,2.7-3.3,2.7a2.8,2.8,0,0,1-2.31-1.14v4.59c0,1-.12,2.73-2.61,2.73-2.25,0-3-.75-3-2.73V13.68c0-3.42,1.86-4.17,4.16-4.17h6V8.4c0-.93.12-2.73,2.73-2.73m7.89,17.85V15.69a.6.6,0,0,0-.63-.63H85.45A12.77,12.77,0,0,0,87.79,21c.27.36,1.86,2.07,2.13,2.52M79,15.06H75.5a.63.63,0,0,0-.67.63v7.23C77,20.43,78.37,18.84,79,15.06M82,1.67a6.26,6.26,0,0,0-6.2,3.84h-2.5c-5.11,0-8.16,3.06-8.16,8.17V31.86c0,4.22,2.63,6.73,7,6.73,3,0,6.46-1.69,6.61-6.41a7.32,7.32,0,0,0,1.73-.77c0,.06,0,.12,0,.18,0,3.57,2.12,6.24,5.41,6.79l.07,0h.07a24.32,24.32,0,0,0,3.52.15c3.24,0,10,0,10-8.2V13.68c0-5.11-3-8.17-8.14-8.17H88.67c-1-2.45-3.31-3.84-6.64-3.84Z"/><path class="cls-1" d="M106.6,36.23c-4.85,0-5.86-3.21-5.86-5.9V28.74A5,5,0,0,1,97.55,24,4.35,4.35,0,0,1,98.77,21a4.44,4.44,0,0,1,.49-.41,5.11,5.11,0,0,1-.89-2.86,4,4,0,0,1,.39-1.85,4.69,4.69,0,0,1-.67-2.56V11.73c0-2.69,1-5.9,5.87-5.9h5.33c.67-1.47,2.18-2.28,4.36-2.28,2.91,0,4.29,1,4.89,2.28h5.4c4.85,0,5.87,3.21,5.87,5.9v1.53a4.94,4.94,0,0,1-.63,2.57,3.93,3.93,0,0,1,.51,2,5.09,5.09,0,0,1-1,3,4.08,4.08,0,0,1,1.52,3.38A5,5,0,0,1,127.08,29v1.36c0,2.69-1,5.9-5.87,5.9Z"/><path class="cls-2" d="M113.65,5.55c1.74,0,3.3.24,3.3,2.28h7c2.43,0,3.87.87,3.87,3.9v1.53a2.13,2.13,0,0,1-2,2.46c1.08.36,1.89.9,1.89,2.1a2.71,2.71,0,0,1-2.49,2.79c-1.59,0-4.65-1.77-6.39-2.82-2.58-1.53-3.42-2.19-3.42-3.24a2.5,2.5,0,0,1,1.5-2.1h-5.76a2.73,2.73,0,0,1,1.41,2.22c0,.66,0,1.35-4.25,3.57-1.54.81-4.24,2.16-5.62,2.16a2.54,2.54,0,0,1-2.3-2.7c0-1.14.5-1.59,1.62-2a2.06,2.06,0,0,1-1.9-2.37V11.73c0-3.24,1.69-3.9,3.87-3.9h6.93c0-1,.24-2.28,2.76-2.28m8.73,8.79A3.42,3.42,0,0,1,122.2,13a.53.53,0,0,0-.51-.54H119.5c.45.21,2.4,1.62,2.88,1.89m-13.53-1.89h-2.64a.51.51,0,0,0-.5.54,3.26,3.26,0,0,1-.21,1.38c.29-.15.87-.42,1.31-.69s1.77-1.11,2-1.23m5.07,4.35a6.13,6.13,0,0,1,3.84,1A22.44,22.44,0,0,0,126,21.66c1.65.48,2.28,1.17,2.28,2.52a2.91,2.91,0,0,1-2.64,3.06,2.64,2.64,0,0,1-.51-.06v3.15c0,3.06-1.5,3.9-3.87,3.9H106.6c-2.31,0-3.86-.78-3.86-3.9V26.91a3.3,3.3,0,0,1-.61.06A2.8,2.8,0,0,1,99.55,24a2.36,2.36,0,0,1,.63-1.65c.52-.48,1-.63,3.24-1.26a27.39,27.39,0,0,0,5.7-2.64c1.89-1.26,2.55-1.68,4.8-1.68m-2.52,6.42h5.25a23.39,23.39,0,0,1-2-1.35c-.48-.36-.54-.39-.69-.39s-.24,0-.66.42a14.65,14.65,0,0,1-1.89,1.32m-2.82,6.27h10.53s.24,0,.24-.24V28a.25.25,0,0,0-.24-.24H108.58a.24.24,0,0,0-.24.24v1.29a.24.24,0,0,0,.24.24m5.07-27.94a6.73,6.73,0,0,0-5.49,2.28H104c-4.92,0-7.87,3-7.87,7.9v1.56A7.09,7.09,0,0,0,96.58,16a6.91,6.91,0,0,0-.21,1.74,7,7,0,0,0,.44,2.48A6.5,6.5,0,0,0,95.55,24,7,7,0,0,0,98.74,30v.36c0,5,2.94,7.9,7.86,7.9h14.61c4.93,0,7.87-2.95,7.87-7.9v-.14a7.19,7.19,0,0,0,3.15-6,6.37,6.37,0,0,0-1-3.66,7.06,7.06,0,0,0,.51-2.7,6.1,6.1,0,0,0-.32-2,7.33,7.33,0,0,0,.44-2.59V11.73c0-4.95-2.94-7.9-7.87-7.9h-4.33c-1-1.25-2.82-2.28-6-2.28Z"/></svg>