<svg id="materials" xmlns="http://www.w3.org/2000/svg" viewBox="0 0 240 240"><defs><style>.cls-1{fill:#c1c1c1;}.cls-2{fill:#eaeae4;}.cls-3{fill:#9b9b9a;}.cls-4{fill:#474747;}.cls-5{fill:#1eb4d6;}.cls-6{fill:#bababa;}.cls-7{fill:#020202;}.cls-8{fill:#ea4c44;}</style></defs><title>practice</title><path class="cls-1" d="M197.49,222.78a14.18,14.18,0,0,0,14.18-14.18H72.24a14.18,14.18,0,0,1-14.18,14.18Z"/><path class="cls-2" d="M29.64,19.36A14.18,14.18,0,0,1,43.82,33.54V208.6a14.18,14.18,0,0,0,28.36,0H189.44V33.54a14.18,14.18,0,0,0-14.18-14.18H29.64"/><path class="cls-3" d="M43.82,52.08,15.46,51V33.54a14.18,14.18,0,0,1,28.36,0Z"/><path class="cls-4" d="M45,177.9V32.79a15.68,15.68,0,1,0-31.35,0v18.9l29.8,1.14a1.5,1.5,0,1,0,.11-3l-26.91-1v-16a12.68,12.68,0,0,1,25.35,0V177.9a1.5,1.5,0,0,0,3,0Z"/><path class="cls-4" d="M57.64,223.53H197.08a15.68,15.68,0,0,0,15.68-15.68v-1.5H70.32v1.5a12.68,12.68,0,0,1-25.36,0v-21.7a1.5,1.5,0,0,0-3,0v21.7a15.68,15.68,0,1,0,31.36,0h-1.5v1.5H211.26v-1.5h-1.5a12.68,12.68,0,0,1-12.68,12.68H57.64a1.5,1.5,0,0,0,0,3Z"/><path class="cls-4" d="M187.58,76.05v131.8a1.5,1.5,0,0,0,3,0V76.05a1.5,1.5,0,1,0-3,0"/><path class="cls-4" d="M29.29,20.11H174.9a12.68,12.68,0,0,1,12.68,12.68V65.23a1.5,1.5,0,0,0,3,0V32.79A15.68,15.68,0,0,0,174.9,17.11H29.29a1.5,1.5,0,0,0,0,3Z"/><rect class="cls-5" x="66.44" y="60.47" width="18.2" height="18.2"/><polygon class="cls-4" points="84.64 78.67 84.64 77.67 67.44 77.67 67.44 61.47 83.64 61.47 83.64 78.67 84.64 78.67 84.64 77.67 84.64 78.67 85.64 78.67 85.64 59.47 65.44 59.47 65.44 79.67 85.64 79.67 85.64 78.67 84.64 78.67"/><rect class="cls-5" x="66.44" y="97.12" width="18.2" height="18.2"/><polygon class="cls-4" points="84.64 115.33 84.64 114.33 67.44 114.33 67.44 98.12 83.64 98.12 83.64 115.33 84.64 115.33 84.64 114.33 84.64 115.33 85.64 115.33 85.64 96.12 65.44 96.12 65.44 116.33 85.64 116.33 85.64 115.33 84.64 115.33"/><rect class="cls-5" x="66.44" y="133.78" width="18.2" height="18.2"/><polygon class="cls-4" points="84.64 151.98 84.64 150.98 67.44 150.98 67.44 134.78 83.64 134.78 83.64 151.98 84.64 151.98 84.64 150.98 84.64 151.98 85.64 151.98 85.64 132.78 65.44 132.78 65.44 152.98 85.64 152.98 85.64 151.98 84.64 151.98"/><rect class="cls-5" x="66.44" y="170.44" width="18.2" height="18.2"/><polygon class="cls-4" points="84.64 188.64 84.64 187.64 67.44 187.64 67.44 171.44 83.64 171.44 83.64 188.64 84.64 188.64 84.64 187.64 84.64 188.64 85.64 188.64 85.64 169.44 65.44 169.44 65.44 189.64 85.64 189.64 85.64 188.64 84.64 188.64"/><rect class="cls-6" x="99.19" y="63.67" width="12.38" height="12.38"/><polygon class="cls-7" points="111.57 76.05 111.57 75.55 99.69 75.55 99.69 64.17 111.07 64.17 111.07 76.05 111.57 76.05 111.57 75.55 111.57 76.05 112.07 76.05 112.07 63.17 98.69 63.17 98.69 76.55 112.07 76.55 112.07 76.05 111.57 76.05"/><rect class="cls-6" x="117.54" y="63.67" width="48.05" height="12.38"/><polygon class="cls-7" points="165.59 76.05 165.59 75.55 118.04 75.55 118.04 64.17 165.09 64.17 165.09 76.05 165.59 76.05 165.59 75.55 165.59 76.05 166.09 76.05 166.09 63.17 117.04 63.17 117.04 76.55 166.09 76.55 166.09 76.05 165.59 76.05"/><rect class="cls-6" x="99.19" y="100.03" width="12.38" height="12.38"/><polygon class="cls-7" points="111.57 112.42 111.57 111.92 99.69 111.92 99.69 100.53 111.07 100.53 111.07 112.42 111.57 112.42 111.57 111.92 111.57 112.42 112.07 112.42 112.07 99.53 98.69 99.53 98.69 112.92 112.07 112.92 112.07 112.42 111.57 112.42"/><rect class="cls-6" x="117.54" y="100.03" width="48.05" height="12.38"/><polygon class="cls-7" points="165.59 112.42 165.59 111.92 118.04 111.92 118.04 100.53 165.09 100.53 165.09 112.42 165.59 112.42 165.59 111.92 165.59 112.42 166.09 112.42 166.09 99.53 117.04 99.53 117.04 112.92 166.09 112.92 166.09 112.42 165.59 112.42"/><rect class="cls-6" x="99.08" y="137.4" width="12.38" height="12.38"/><polygon class="cls-7" points="111.46 149.78 111.46 149.28 99.58 149.28 99.58 137.9 110.96 137.9 110.96 149.78 111.46 149.78 111.46 149.28 111.46 149.78 111.96 149.78 111.96 136.9 98.58 136.9 98.58 150.28 111.96 150.28 111.96 149.78 111.46 149.78"/><rect class="cls-6" x="117.42" y="137.4" width="48.05" height="12.38"/><polygon class="cls-7" points="165.47 149.78 165.47 149.28 117.92 149.28 117.92 137.9 164.96 137.9 164.97 149.78 165.47 149.78 165.47 149.28 165.47 149.78 165.96 149.78 165.96 136.9 116.92 136.9 116.92 150.28 165.96 150.28 165.96 149.78 165.47 149.78"/><rect class="cls-6" x="99.08" y="173.77" width="12.38" height="12.38"/><polygon class="cls-7" points="111.46 186.15 111.46 185.65 99.58 185.65 99.58 174.27 110.96 174.27 110.96 186.15 111.46 186.15 111.46 185.65 111.46 186.15 111.96 186.15 111.96 173.27 98.58 173.27 98.58 186.65 111.96 186.65 111.96 186.15 111.46 186.15"/><rect class="cls-6" x="117.42" y="173.77" width="48.05" height="12.38"/><polygon class="cls-7" points="165.47 186.15 165.47 185.65 117.92 185.65 117.92 174.27 164.97 174.27 164.97 186.15 165.47 186.15 165.47 185.65 165.47 186.15 165.96 186.15 165.96 173.27 116.92 173.27 116.92 186.65 165.96 186.65 165.96 186.15 165.47 186.15"/><rect class="cls-6" x="133.11" y="38.56" width="30.58" height="8"/><polygon class="cls-7" points="163.69 46.56 163.69 46.06 133.61 46.06 133.61 39.06 163.19 39.06 163.19 46.56 163.69 46.56 163.69 46.06 163.69 46.56 164.19 46.56 164.19 38.06 132.61 38.06 132.61 47.06 164.19 47.06 164.19 46.56 163.69 46.56"/><circle class="cls-6" cx="113.56" cy="42.56" r="4.38"/><path class="cls-7" d="M117.93,42.56h-.5a3.86,3.86,0,1,1-1.13-2.74,3.86,3.86,0,0,1,1.13,2.74h1a4.88,4.88,0,1,0-4.87,4.88,4.87,4.87,0,0,0,4.87-4.88Z"/><circle class="cls-6" cx="125.24" cy="42.56" r="4.38"/><path class="cls-7" d="M129.61,42.56h-.5a3.88,3.88,0,0,1-3.87,3.88,3.88,3.88,0,1,1,0-7.75,3.86,3.86,0,0,1,3.87,3.87h1a4.88,4.88,0,1,0-4.87,4.88,4.87,4.87,0,0,0,4.87-4.88Z"/><polygon class="cls-8" points="225.5 168.31 209.27 186.11 193.99 172.2 182.05 185.3 168.33 132.49 222.18 141.28 210.23 154.39 225.5 168.31"/><polygon class="cls-4" points="225.5 168.31 224.39 167.3 209.17 183.99 193.9 170.08 182.8 182.24 170.36 134.34 219.21 142.31 208.11 154.49 224.49 169.42 225.5 168.31 224.39 167.3 225.5 168.31 226.51 167.2 212.35 154.29 225.16 140.24 166.3 130.64 181.29 188.36 194.09 174.31 209.37 188.23 227.62 168.21 226.51 167.2 225.5 168.31"/></svg>