<?xml version="1.0" encoding="UTF-8"?>
<svg id="_レイヤー_1" data-name="レイヤー_1" xmlns="http://www.w3.org/2000/svg" viewBox="0 0 800 800">
  <defs>
    <style>
      .cls-1 {
        fill: #4742c2;
      }

      .cls-2 {
        fill: #fff;
      }

      .cls-3 {
        fill: #ebebf7;
      }
    </style>
  </defs>
  <g>
    <path class="cls-2" d="M751.45,691.57c-2.67,0-5.2-1.06-6.91-2.9l-15.72-16.49c-75.89.77-149.33,1.16-218.28,1.18-41.33.36-82.03.4-112.86.4-17.56,0-35.12-.02-52.66-.03-17.52-.02-35.03-.03-52.52-.03-7.44,0-14.88,0-22.31.01-6.95-.03-14.01-.05-21.14-.07-30.78-.07-62.6-.13-92-1.75-.2.07-.42.11-.65.11-.42,0-.82-.13-1.17-.36-.18-.09-.33-.22-.45-.37-.15-.19-.26-.41-.32-.64-.2-.59-.13-1.21.16-1.72,8.43-53.78,18.87-108.59,28.97-161.6l2.06-10.8c-18.7,5.83-39.36,10.86-63.07,15.34-.04,0-.09.02-.13.02-4.94.93-10.12,1.87-15.34,2.76-24.78,3.99-47.52,6.45-69.53,7.51l-.84.16c-.19.03-.37.05-.55.05-1.48,0-2.75-1.06-3.01-2.52-.02-.08-.02-.17-.02-.26-.21-32.99-.12-66.16.26-98.6.07-6.75.14-13.5.22-20.26.28-25.56.57-52,.53-78,.04-13.33-.32-26.89-.67-40-.51-19.11-1.03-38.87-.33-58.32.44-22.68.85-49.18.49-73.63l-.06-24.59c0-.77.34-1.51.94-2.01l17.67-14.7c.48-.4,1.09-.62,1.71-.62s1.19.2,1.66.58l15.35,11.95,15.31-12.04c.49-.38,1.1-.59,1.72-.59s1.22.21,1.71.59l15.3,11.91,15.24-11.99c.51-.4,1.14-.62,1.79-.62s1.28.22,1.79.62l15.22,11.86,15.2-11.92c.52-.41,1.17-.63,1.82-.63s1.31.22,1.83.63l15.19,11.85,15.16-11.89c.53-.41,1.19-.64,1.86-.64s1.33.23,1.86.64l15.15,11.83,15.13-11.87c.54-.42,1.21-.65,1.89-.65s1.36.23,1.9.65l15.12,11.8,15.12-11.81c.53-.42,1.21-.65,1.9-.65s1.36.23,1.9.65l15.13,11.9,15.23-11.78c.5-.39,1.13-.61,1.77-.61.68,0,1.34.24,1.86.67l17.73,14.77c.63.51,1,1.31,1,2.14l-.15,20.69c0,.45-.21.86-.53,1.13.6,38.09.91,72.28.94,104.4,2.09-.62,4.24-.93,6.4-.93,5.53,0,10.78,2.02,15.19,5.84,9.38,8.21,15.1,21.67,15.82,37.1,9.64-.08,19.28-.16,28.93-.22.4-14.77,5.27-27.48,13.79-35.92,4.69-4.64,10.69-7.2,16.9-7.2,5.62,0,10.97,2.05,15.46,5.92,9.39,8.17,15.16,21.56,15.94,36.91,9.93-.03,19.85-.05,29.75-.06.42-10.66,3.26-24.95,13.9-35.41,4.66-4.57,10.59-7.08,16.7-7.08,5.57,0,10.86,2.04,15.32,5.89,9.28,8.12,14.99,21.41,15.78,36.64,10.11.03,20.21.08,30.32.15.31-9.95,2.75-19.22,7.09-26.9,5.38-9.84,14.45-15.96,23.67-15.96,5.34,0,10.63,2.05,15.27,5.94,9.58,8.46,15.31,22.09,15.87,37.57,13.2.2,25.47.43,37.46.69,9.24.18,19.14.4,28.94.7.48.01.92.26,1.18.64.44.22.7.57.78,1.06,27.9,135.97,50.77,257.09,69.91,370.27l.17.17c2.33,1.98,3.71,4.76,3.71,7.58.12,2.83-1.23,5.78-3.59,7.83l-1.26,1.24c-.88.87-3.16,3.08-4.02,3.91-1.7,1.78-4.22,2.83-6.89,2.83h0ZM318.89,257.32c-10.53,0-19.08,11.07-22.56,21.35-1.81,4.98-2.95,10.5-3.39,16.45,15.5-.17,32.6-.32,50.88-.47-.74-13.95-5.66-26.07-13.3-32.64-3.76-3.11-7.68-4.7-11.63-4.7ZM618.22,294.87c-.7-13.72-5.55-25.56-13.41-32.67-3.67-3.05-7.52-4.61-11.41-4.61-10.43,0-18.94,10.96-22.44,21.15-1.75,4.7-2.9,9.94-3.43,15.61l50.69.53ZM409.53,257.72c-7.3,0-17.41,6.58-22.37,21.03-1.78,4.84-2.95,10.09-3.49,15.64,17.61-.11,34.68-.2,50.41-.27-.82-13.33-5.6-24.85-13.23-31.8-3.63-3.04-7.45-4.6-11.32-4.6ZM501.37,257.44c-10.51,0-19.05,11.02-22.53,21.26-1.7,4.63-2.82,9.75-3.34,15.24,25.86-.09,42.46-.13,42.46-.13l8.28.09c-.86-13.34-5.69-24.88-13.37-31.82-3.7-3.06-7.58-4.64-11.5-4.64Z"/>
    <path class="cls-2" d="M258.08,109.93c.35,0,.7.11.98.34l16.05,12.62,16.15-12.5c.25-.2.56-.29.85-.29.32,0,.64.11.9.32l17.73,14.77c.3.25.46.61.46.97l-.15,20.69h-.55c.57,35.83.94,71.75.96,107.65,2.55-1.02,5.22-1.54,7.9-1.54,4.97,0,9.96,1.79,14.2,5.47,9.89,8.65,14.98,22.97,15.36,37.48,10.61-.09,21.23-.18,31.85-.24.09-13.13,3.75-26.81,13.37-36.34,4.52-4.47,10.17-6.76,15.85-6.76,5.07,0,10.15,1.83,14.48,5.56,9.91,8.62,15.05,22.83,15.48,37.27,10.9-.03,21.78-.05,32.65-.06.26-12.99,3.97-26.47,13.49-35.84,4.48-4.4,10.05-6.65,15.64-6.65,5.01,0,10.05,1.81,14.33,5.52,9.81,8.58,14.88,22.66,15.33,37,11.08.03,22.15.09,33.23.16.09-9.55,2.18-19.28,6.92-27.67,5-9.14,13.41-15.2,22.36-15.2,4.76,0,9.68,1.71,14.31,5.59,10.23,9.04,15.15,23.45,15.36,37.9,12.96.19,25.93.42,38.89.71,9.64.19,19.28.4,28.92.7.03.13.06.26.09.38.28.02.44.04.44.07,25.11,122.37,49.2,247.75,70,370.76.17.17.35.34.52.51,1.89,1.61,3.25,3.97,3.26,6.5.1,2.57-1.15,5.03-3.07,6.7l-1.33,1.31c-.88.86-3.15,3.07-4.01,3.9-1.52,1.6-3.69,2.41-5.85,2.41s-4.31-.8-5.82-2.42c-.48-.51-.99-1.03-1.5-1.57-.13-.13-.26-.27-.39-.4-.93-.98-1.9-1.99-2.92-3.06-.15-.16-.31-.33-.47-.49-.55-.58-1.12-1.17-1.69-1.77-2.85-2.99-5.94-6.23-9.22-9.67-72.56.74-145.84,1.17-218.92,1.18-37.61.32-75.28.4-112.95.4-35.05,0-70.09-.07-105.05-.07-7.45,0-14.91,0-22.35.01-36.87-.18-77.12.18-113.41-1.83-.05.02-.1.05-.15.07-.08.03-.15.05-.23.05-.15,0-.29-.06-.39-.16-.03,0-.06,0-.1,0,0-.03.01-.07.02-.1-.01-.02-.03-.03-.04-.05-.11-.24-.04-.51.15-.67,9.12-58.3,20.45-116.91,31.54-175.19-21.54,6.86-43.7,11.97-65.33,16.06h-.02s-.03,0-.03,0c-5.16.97-10.29,1.89-15.37,2.76-23.01,3.71-46.18,6.38-69.46,7.5-.31.06-.62.12-.93.18-.09.02-.19.03-.28.03-.74,0-1.4-.53-1.54-1.28-.21-32.85-.13-65.72.26-98.57.33-32.76.79-65.51.74-98.27.1-32.76-2.18-65.51-1-98.27.46-23.68.84-49.89.49-73.7l-.06-24.57c0-.34.16-.66.41-.86l17.66-14.69c.22-.18.49-.27.75-.27.26,0,.52.09.73.25l16.29,12.68,16.23-12.76c.23-.18.51-.27.79-.27.28,0,.56.09.79.27l16.23,12.63,16.16-12.71c.25-.2.56-.3.86-.3.31,0,.61.1.86.3l16.16,12.59,16.12-12.65c.27-.21.58-.31.9-.31s.64.11.9.31l16.11,12.57,16.08-12.62c.28-.22.61-.32.93-.32.33,0,.67.11.94.32l16.08,12.55,16.05-12.59c.29-.22.63-.33.97-.33.35,0,.69.11.97.33l16.05,12.52,16.04-12.53c.29-.23.63-.34.97-.34M291.34,296.65c17.42-.19,35.72-.35,54.04-.5-.43-14.05-5.11-27.73-13.89-35.26-4.29-3.55-8.56-5.06-12.6-5.06-10.83,0-20.08,10.85-23.98,22.37-2.14,5.89-3.24,12.15-3.57,18.45M473.86,295.45c26.8-.1,44.09-.13,44.09-.13l9.86.1c-.54-13.4-5.09-26.45-13.94-34.45-4.25-3.53-8.48-5.03-12.5-5.03-10.8,0-20.06,10.84-23.95,22.28-2.02,5.5-3.12,11.33-3.55,17.23M619.78,296.39c-.38-13.7-4.94-27.15-13.96-35.3-4.22-3.51-8.42-5-12.42-5-10.74,0-19.96,10.8-23.86,22.16-2.09,5.6-3.2,11.56-3.64,17.58l53.88.57M382.04,295.9c18.78-.12,36.97-.21,53.61-.29-.51-13.37-4.99-26.39-13.79-34.4-4.18-3.5-8.36-4.99-12.33-4.99-10.69,0-19.92,10.76-23.79,22.04-2.07,5.62-3.26,11.59-3.7,17.63M258.08,106.93c-1.02,0-2.03.35-2.83.98l-14.19,11.08-14.2-11.08c-.8-.62-1.8-.97-2.82-.97s-2.02.35-2.82.97l-14.2,11.14-14.23-11.1c-.79-.62-1.78-.96-2.78-.96s-1.99.34-2.78.96l-14.24,11.17-14.26-11.13c-.78-.61-1.76-.94-2.75-.94s-1.97.34-2.75.95l-14.27,11.2-14.31-11.15c-.75-.6-1.72-.93-2.7-.93-.98,0-1.94.33-2.71.94l-14.32,11.26-14.37-11.19c-.75-.58-1.68-.9-2.63-.9s-1.89.33-2.65.92l-14.38,11.31-14.44-11.24c-.71-.56-1.63-.88-2.57-.88-.97,0-1.92.34-2.67.97l-17.66,14.69c-.95.8-1.49,1.95-1.49,3.17l.06,24.57c.36,24.47-.05,50.95-.49,73.64-.71,19.45-.18,39.24.33,58.37.35,13.1.71,26.65.67,39.95.04,25.98-.25,52.4-.53,77.94-.07,6.77-.15,13.54-.22,20.31-.38,32.46-.47,65.64-.26,98.62,0,.17.02.35.05.52.4,2.17,2.28,3.75,4.49,3.75.28,0,.55-.03.82-.07.17-.03.35-.07.53-.1l.22-.04c22.03-1.07,44.79-3.53,69.58-7.52,5.25-.9,10.42-1.83,15.41-2.77.04,0,.08-.01.12-.02,22.77-4.3,42.73-9.1,60.85-14.64l-1.59,8.35c-10.09,52.94-20.51,107.68-28.94,161.41-.35.75-.43,1.61-.22,2.43.09.49.3.96.62,1.36s.74.7,1.2.89c.5.25,1.05.39,1.62.39.28,0,.55-.03.81-.09,29.36,1.6,61.11,1.67,91.82,1.74,7.13.02,14.2.03,21.14.07,7.46,0,14.92-.01,22.37-.01,17.47,0,34.95.02,52.45.03,17.52.02,35.06.03,52.6.03,30.87,0,71.6-.05,112.97-.4,68.7-.01,141.92-.41,217.62-1.17l3.88,4.07,4.44,4.66,1.47,1.54.22.23.47.49,2.92,3.06.32.33.07.07,1.5,1.57c1.98,2.12,4.9,3.35,7.98,3.35s5.96-1.2,7.97-3.29c.89-.86,3.12-3.02,3.99-3.88l1.27-1.25c2.64-2.33,4.14-5.67,4.03-8.96-.03-3.1-1.47-6.15-3.99-8.44-19.13-113.06-41.98-234.06-69.85-369.87h0c-.1-.5-.4-1.3-1.24-1.86-.53-.59-1.3-.96-2.13-.98-9.8-.3-19.71-.52-28.96-.7-11.52-.25-23.34-.47-36.05-.67-.86-15.3-6.71-28.74-16.27-37.19-.02-.02-.04-.04-.06-.05-4.92-4.11-10.54-6.29-16.24-6.29-9.76,0-19.34,6.42-24.99,16.76-4.23,7.48-6.7,16.45-7.2,26.09-9.06-.06-18.27-.1-27.47-.13-1.08-15.04-6.91-28.14-16.2-36.27-4.74-4.1-10.38-6.26-16.31-6.26-6.5,0-12.81,2.67-17.74,7.51-10.51,10.34-13.65,24.23-14.28,34.99-8.96.01-17.93.03-26.91.05-1.08-15.15-6.97-28.35-16.37-36.53-4.77-4.12-10.46-6.3-16.45-6.3-6.61,0-12.99,2.71-17.96,7.63-8.51,8.43-13.5,20.95-14.18,35.5-8.14.05-16.72.12-26.07.2-1.02-15.23-6.86-28.49-16.25-36.71-4.69-4.07-10.28-6.21-16.18-6.21-1.65,0-3.29.17-4.9.51-.04-31.44-.34-64.85-.93-101.93.32-.48.52-1.05.52-1.67l.15-20.69c0-1.29-.56-2.5-1.56-3.32l-17.71-14.75c-.79-.66-1.79-1.02-2.82-1.02-.97,0-1.92.33-2.69.92l-14.3,11.07-14.21-11.18c-.81-.63-1.82-.98-2.84-.98h0ZM294.58,293.61c.51-5.19,1.57-10.02,3.16-14.39,0-.02.01-.04.02-.06,3.31-9.79,11.34-20.33,21.14-20.34,3.58,0,7.17,1.47,10.67,4.36,7.05,6.06,11.68,17.13,12.67,30-17.07.13-33.06.28-47.64.44h0ZM477.16,292.44c.56-4.74,1.59-9.16,3.07-13.18,0-.02.02-.05.02-.07,3.42-10.06,11.78-20.24,21.11-20.24,3.54,0,7.09,1.45,10.54,4.3,7.06,6.41,11.61,16.91,12.7,29.15l-6.63-.07c-.2,0-16.2.03-40.82.12h0ZM569.19,292.86c.58-4.92,1.63-9.47,3.16-13.56,0-.02.02-.05.03-.07,3.44-10,11.76-20.13,21.03-20.13,3.51,0,7.03,1.44,10.45,4.27,7.24,6.57,11.81,17.39,12.77,30l-47.43-.5h0ZM385.35,292.88c.58-4.81,1.66-9.36,3.21-13.58,0-.02.02-.04.02-.06,3.41-9.95,11.7-20.02,20.95-20.02,3.49,0,6.98,1.43,10.36,4.25,7.02,6.41,11.52,16.92,12.58,29.15-16.19.08-32,.16-47.12.26h0Z"/>
  </g>
  <g>
    <polygon class="cls-2" points="156.33 669.97 618.82 669.97 689.21 298.09 226.71 298.09 156.33 669.97"/>
    <polygon class="cls-3" points="226.71 297.54 157.6 669.97 298.97 670.44 226.71 297.54"/>
    <path class="cls-1" d="M156.76,669.62c77.73-3.17,154.43-1.55,231.91-1.96,75.68.6,156.31-.21,229.61,2.21-.01.39,70.07-374.64,70.93-371.22H226.71s.55-.45.55-.45c-2.67,15.53-5.42,31.01-8.18,46.48-6.36,35.62-14.46,79.96-21.08,115.7-13.3,69.91-25.83,139.6-41.24,209.23ZM155.9,670.33c10.87-69.63,24.91-139.7,37.94-209.13,7.13-36.09,15.58-80.83,22.91-116.72,3.11-15.52,6.22-31.02,9.42-46.49.05-.27.28-.45.55-.45h462.49c1.95,0-70.38,371.88-69.84,372.54-115.74,2.96-232.99,2.01-349.19,2.13-37.16-.19-77.77.19-114.28-1.88Z"/>
    <polygon class="cls-2" points="761.77 669.97 299.27 669.97 228.89 298.09 691.38 298.09 761.77 669.97"/>
    <path class="cls-2" d="M691.93,297.99c-.15-1.31-462.5-.01-463.13-.44-.31.05-.51.35-.46.65,5.1,31.13,10.53,62.21,15.94,93.28,4.01,23.2,12.51,69.98,16.64,93.15,9.17,50.45,20.65,112.51,30.16,162.82,1.37,7.85,2.89,15.74,7.82,22.88,19.24.89,38.9.48,58.32.9,134.02,1.17,270.98.62,404.98-.9-20.86-123.51-45.05-249.44-70.27-372.34Z"/>
    <path class="cls-1" d="M691.93,297.99c-.15-1.31-462.5-.01-463.13-.44-.31.05-.51.35-.46.65,5.1,31.13,10.53,62.21,15.94,93.28,4.01,23.2,12.5,69.98,16.64,93.15,9.17,50.45,20.65,112.51,30.16,162.82,1.37,7.85,2.89,15.74,7.82,22.88,19.24.89,38.9.48,58.32.9,134.02,1.17,270.98.62,404.98-.9-20.86-123.51-45.05-249.44-70.27-372.34ZM299.82,669.87c1.88-8.38.42-16.13-1.15-23.86l-4.44-23.23c-7.88-41.4-18.82-97.99-26.99-139.34-4.62-23.16-13.77-69.64-18.55-92.79-6.28-30.69-12.54-61.37-19.11-92,19.82-.08,464.73.37,461.26-.45,21.47,124.05,44.69,248.05,70.5,371.42-152.3-1.21-311.75-3.22-461.52.25Z"/>
    <path class="cls-3" d="M691.4,297.54c-9.64-.3-19.28-.51-28.92-.7-48.17-1.06-96.35-1.43-144.53-1.52-95.62-.09-193.54.39-289.07,2.22-.34,0-.59.33-.53.66l14.45,76.37c.05.26.27.45.55.45,37.38.65,78.5,1.11,116.03,1.37,114.29.5,232.73,1.67,346.89-1.57-5.14-25.52-8.85-52.28-14.86-77.28Z"/>
    <path class="cls-3" d="M691.4,297.54c-9.64-.3-19.28-.51-28.92-.7-48.17-1.06-96.35-1.43-144.53-1.52-95.62-.09-193.54.39-289.07,2.22-.34,0-.59.33-.53.66l14.45,76.37c.05.26.27.45.55.45,37.38.65,78.5,1.11,116.03,1.37,114.29.5,232.73,1.67,346.89-1.57-5.14-25.52-8.85-52.28-14.86-77.28Z"/>
    <path class="cls-1" d="M691.4,297.54c-9.64-.3-19.28-.51-28.92-.7-48.17-1.06-96.35-1.43-144.53-1.52-95.62-.09-193.54.39-289.07,2.22-.34,0-.59.33-.53.66l14.45,76.37c.05.26.27.45.55.45,37.38.65,78.5,1.11,116.03,1.37,114.29.5,232.73,1.67,346.89-1.57-5.14-25.52-8.85-52.28-14.86-77.28ZM358.56,372.54c-37.15.23-77.71.75-114.76,1.36l-14.24-75.24c38.32.77,76.63,1.25,114.95,1.55,55.57.56,117.87.74,173.44.66,48.18-.09,96.36-.47,144.53-1.52,9.48-.19,18.97-.4,28.45-.69,4.75,25.16,9.6,50.25,14.48,75.45-114.81-3.16-232.12-2.12-346.85-1.57Z"/>
    <g>
      <path class="cls-3" d="M358.56,372.54c-37.15.23-77.71.75-114.76,1.36l-14.24-75.24c38.32.77,76.63,1.25,114.95,1.55,55.57.56,117.87.74,173.44.66,48.18-.09,96.36-.47,144.53-1.52,9.48-.19,18.97-.4,28.45-.69,4.75,25.16,9.6,50.25,14.48,75.45-114.81-3.16-232.12-2.12-346.85-1.57Z"/>
      <path class="cls-1" d="M727.05,597.51c-8.7-.33-17.41-.54-26.11-.76-6.85-.15-13.7-.28-20.54-.41-3.79-20.59-7.69-41.38-11.65-62.18,6.66-.1,13.27-.22,19.81-.35,8.7-.18,17.41-.34,26.11-.6.29,0,.53-.24.54-.54,0-.31-.23-.56-.54-.57-8.7-.27-17.41-.42-26.11-.61-6.78-.11-13.58-.2-20.38-.29-3.87-20.34-7.79-40.68-11.7-60.87,15.54-.18,30.96-.42,46.14-.75.3,0,.54-.24.54-.54,0-.31-.24-.56-.54-.57-15.51-.27-31.06-.48-46.63-.65-3.5-18.04-6.98-35.95-10.41-53.6-.06-.3-.35-.49-.64-.44-.3.06-.5.34-.45.65,3.25,17.8,6.48,35.6,9.83,53.38-21.1-.23-42.26-.39-63.44-.49-3.47-17.83-6.93-35.57-10.33-53.1-.06-.3-.35-.49-.65-.44-.3.06-.5.34-.45.65,3.23,17.63,6.4,35.27,9.71,52.88-16.86-.07-33.73-.11-50.61-.11,7.76-15.21,3.59-35.08-5.58-49.09-16.32-25.7-51.62-38.92-80.25-27.38-9.58,4.09-16.2,10.63-20.28,18.43-.32-2.81-.51-5.63-.53-8.45-.02-.72-.98-.74-1.11-.09-.56,4-.92,8.08-.78,12.16.01.58.06,1.16.08,1.75-6.02,16.89-1.76,37.89,9.67,52.95-14.53.07-29.06.16-43.57.26-3.62-17.99-7.24-35.86-10.76-53.5-.06-.29-.34-.49-.64-.44-.3.05-.5.34-.45.64,2.73,15.63,6.45,37.2,9.39,53.31-20.7.13-41.37.28-62,.42-3.69-18.03-7.46-36.05-11.33-53.94-.06-.28-.34-.48-.63-.43-.3.05-.51.33-.46.64,1.49,9.39,3.09,18.75,4.67,28.12,1.04,6.24,3.08,18.19,4.38,25.63-14.52.1-29.02.2-43.48.3-.3,0-.55.25-.55.55,0,.31.24.56.55.56,14.6.11,29.19.24,43.79.37.04.23.08.47.12.68,3.55,20.35,7.21,40.68,10.95,60.99-14.3.15-28.58.31-42.81.48-.3,0-.54.25-.55.55,0,.31.24.56.55.56,14.4.21,28.81.39,43.21.56,3.01,16.34,6.05,32.68,9.14,49.01.91,4.68,1.83,9.35,2.78,14.02-14.25.23-28.5.47-42.75.72-.3,0-.54.25-.54.54,0,.31.24.56.54.57,14.43.31,28.87.57,43.3.81,2.7,13.07,5.63,26.09,9.1,39,.07.26.32.44.6.41.31-.03.53-.31.49-.61-1.03-9.47-2.41-18.88-3.9-28.27-.56-3.49-1.14-6.97-1.74-10.45,20.45.32,40.91.58,61.36.77,2.64,12.98,5.37,25.76,8.22,38.15.07.28.33.46.62.42.3-.04.51-.33.47-.63-1.96-12.55-4.06-25.21-6.27-37.91,20.64.19,41.29.33,61.94.43,2.6,12.65,5.33,25.24,8.27,37.69.07.28.33.46.62.42.3-.04.52-.32.47-.63-1.74-12.39-3.78-24.91-5.96-37.47,10.42.05,20.84.09,31.27.12,10.02.02,20.05.04,30.07.05,2.62,12.55,5.42,25.06,8.57,37.51.07.27.33.45.61.42.3-.04.52-.32.48-.62-1.58-12.49-3.5-24.91-5.6-37.3,20.67.01,41.33-.03,61.99-.18,2.5,12.79,5.02,25.41,7.55,37.69.06.29.34.49.64.44.3-.05.5-.34.45-.64-2.18-12.41-4.43-24.93-6.72-37.5,21.01-.16,42.01-.42,63.02-.85,2.56,13.15,5.11,26.07,7.64,38.55.06.29.34.49.64.44.3-.05.5-.34.45-.64-2.26-12.68-4.58-25.49-6.94-38.38,6.64-.14,13.27-.29,19.9-.46,8.7-.21,17.41-.43,26.11-.76.29-.01.52-.24.53-.53.01-.31-.23-.56-.53-.58ZM654.79,470.35s.01.08.02.12c3.65,19.5,7.46,39.98,11.34,60.7-20.96-.27-41.99-.46-63.07-.59-3.82-19.98-7.69-39.97-11.55-59.83,21.15-.05,42.31-.16,63.25-.4ZM589.8,470.75c3.65,19.39,7.38,39.51,11.16,59.81-20.58-.12-41.2-.18-61.84-.18-.29-1.53-.58-3.03-.86-4.46-3.07-15.68-6.2-31.44-9.37-47.19,1.24-.96,2.45-2,3.59-3.14,1.5-1.52,2.81-3.14,3.95-4.83,17.67.02,35.5.03,53.36,0ZM472.88,525.98c-3.11-16.26-6.42-33.17-9.81-50.14,3.92,2.76,8.13,5.11,12.58,6.9,15.61,6.45,35.49,7.36,50.15-1.85,2.85,16.14,5.9,33,8.94,49.48-20.32,0-40.65.06-60.98.15-.29-1.51-.59-3.04-.88-4.55ZM472.84,470.65c7.9.02,15.08.03,20.92.03,8.67.01,17.41.03,26.21.05-12.22,8.33-32.48,7.28-47.12-.08ZM530.26,444.37c1.1,8.66-.62,15.39-4.18,20.4-3.37-16.54-6.8-33.06-10.34-49.46,7.66,7.96,13.03,18.06,14.52,29.06ZM456.18,399.39c13.68-4.93,29.59-2.57,42.58,3.67,5.8,2.75,11.14,6.51,15.74,11-.06.11-.09.23-.07.36,1.5,9.38,3.11,18.75,4.69,28.12,1,5.98,2.94,17.18,4.26,24.65-18.74.02-37.49.06-56.23.14-2.38-1.56-4.64-3.27-6.81-5.09-3.28-16.27-6.6-32.45-9.86-48.02-.06-.29-.34-.49-.64-.43-.3.05-.51.34-.45.64,2.35,13.95,5.06,29.54,7.8,45.02-10.46-9.89-18.03-22.8-22.03-36.72,2.9-10.47,9.62-19.38,21.02-23.32ZM437.15,455.69c-2.6-6.72-3.9-14.27-3.67-21.65,3.64,11.98,10.01,23.17,18.61,32.25.35.37.72.72,1.07,1.09-3.39.02-6.79.03-10.18.05-2.36-3.72-4.32-7.66-5.84-11.74ZM442.33,470.56c1.89,2.15,3.93,4.17,6.13,5.98.49.46,1.25-.32.77-.8-1.48-1.65-2.85-3.39-4.13-5.17,3.84.01,7.66.02,11.42.03,1.01.91,2.05,1.8,3.12,2.65,1.57,8.78,3.11,17.34,4.56,25.36,1.99,10.59,3.94,21.24,5.91,31.93-20.47.1-40.92.24-61.35.41-3.93-20.25-7.97-40.49-12.02-60.58,12.67.07,29.16.13,45.59.19ZM343.27,525.9c-3.63-18.58-7.34-37.26-11.15-55.93,19.07.16,38.13.31,57.2.36,1.54,0,3.18.02,4.9.03.01.06.02.12.03.18,3.63,19.48,7.28,39.85,11.04,60.44-20.35.17-40.67.37-60.93.58-.37-1.89-.73-3.78-1.1-5.67ZM356.68,596.71c-3.65-21.02-7.81-41.95-11.88-62.9,18.85.21,37.71.37,56.56.48,1.43.01,2.96.02,4.55.04,3.76,20.55,7.64,41.28,11.73,61.55-20.32.24-40.64.51-60.96.83ZM420.8,595.85c-3.57-20.4-7.41-40.95-11.39-61.49,16.9.12,40.38.24,61.45.32,3.71,20.2,7.46,40.48,11.53,60.62-20.53.12-41.06.31-61.59.55ZM485.97,595.28c-3.59-20.28-7.55-40.6-11.41-60.59,11.96.04,22.95.07,31.24.07,9.79.03,19.73.06,29.76.08,1.24,6.73,2.48,13.39,3.7,19.89,2.51,13.48,5.05,26.96,7.79,40.39-20.36-.01-40.72.04-61.08.16ZM551.31,595.13c-.77-4.41-1.55-8.82-2.35-13.22-2.45-13.48-6.02-31.81-8.96-47.05,20.37.03,41.09.03,61.76-.06,3.78,20.25,7.62,40.65,11.51,60.65-20.65-.18-41.3-.29-61.95-.31ZM615.26,595.45c-3.69-20.12-7.5-40.39-11.37-60.68,21.14-.09,42.22-.27,62.83-.59,3.89,20.74,7.86,41.69,11.82,62.11-21.09-.39-42.19-.66-63.28-.85Z"/>
      <path class="cls-1" d="M282.64,657.16c-11.48-7.93-23.08-15.66-35.05-22.83-7.72-4.56-13.11-7.53-16.18-8.96,11.08.55,59.35,2.28,59.3,2.31,1.7.07,3.12-1.35,3.05-3.05-.06-1.62-1.43-2.89-3.05-2.82-.29.11-61.88,2.21-62.12,2.47-13.1,5.84-25.38,13.09-37.48,20.69-12.05,7.66-23.9,15.6-35.08,24.54-.19.16-.27.43-.16.67.13.28.46.4.74.27.33-.15.65-.32.98-.47h140.51c.29.15.57.31.86.47.59.33,1.12-.55.6-.93-5.53-4.29-11.21-8.34-16.93-12.34Z"/>
      <path class="cls-1" d="M614.6,329.37c.47-.7.92-1.41,1.35-2.13,4.93-8.36,7.56-18.95,7.64-29.61l67.82-.1-28.92-.7-38.89-.41c-.15-14.55-5.06-29.09-15.36-38.2-13.35-11.16-29.01-4.4-36.67,9.61-4.79,8.47-6.88,18.31-6.93,27.96l-33.22-.35c-.42-14.37-5.5-28.51-15.33-37.11-9.08-7.85-21.48-7.2-29.98,1.13-9.56,9.4-13.26,22.94-13.5,35.97-9.78.04-20.78.08-32.64.13-.4-14.51-5.54-28.81-15.49-37.47-9.17-7.92-21.78-7.25-30.33,1.21-9.68,9.59-13.32,23.38-13.37,36.59-10.5.07-21.17.14-31.85.22-.33-14.58-5.43-29-15.36-37.69-9.02-7.82-21.39-7.14-29.83,1.14-9.88,9.62-13.5,23.72-13.58,37.09-22.55.25-43.6.54-61.29.88-.34,0-.53.66-.53.66l61.82-.09c.03.68,1.09.68,1.1,0l54.15-.08c.04,10.74-2.4,21.54-7.41,29.85-2.59-2.44-5.92-3.98-9.31-3.98-6.44,0-10.62,5.54-9.32,12.37,1.29,6.83,7.56,12.37,14.01,12.37s10.62-5.54,9.32-12.37c-.45-2.37-1.51-4.58-2.95-6.46,6.06-8.71,9.13-20.23,9.2-31.8l31.84-.05s0,.07,0,.11c.01.7,1.1.7,1.11,0,0-.04,0-.08,0-.12l53.79-.08c.04,10.4-2.31,20.86-6.91,29.16-2.43-1.96-5.38-3.16-8.37-3.16-6.44,0-10.62,5.54-9.32,12.37,1.29,6.83,7.56,12.37,14.01,12.37s10.62-5.54,9.32-12.37c-.5-2.62-1.73-5.04-3.41-7.04,5.89-8.67,8.88-19.98,8.96-31.34l32.61-.05c0,.08,0,.16,0,.24.01.7,1.11.7,1.11,0,0-.08.01-.16.01-.25l54.14-.08c.06,10.54-2.35,21.13-7.1,29.49-2.48-2.08-5.52-3.36-8.6-3.36-6.44,0-10.62,5.54-9.32,12.37,1.29,6.83,7.56,12.37,14.01,12.37s10.62-5.54,9.32-12.37c-.51-2.68-1.78-5.15-3.53-7.17,5.8-8.69,8.74-20,8.8-31.34l33.21-.05c0,.12,0,.25,0,.37.02.7,1.1.7,1.11,0,0-.13.02-.25.02-.38l54.02-.08c.1,10.65-2.31,21.36-7.12,29.78-2.51-2.17-5.63-3.51-8.8-3.51-6.44,0-10.62,5.54-9.32,12.37,1.29,6.83,7.56,12.37,14.01,12.37s10.62-5.54,9.32-12.37c-.48-2.56-1.67-4.93-3.29-6.91ZM291.34,296.65c.34-6.3,1.43-12.56,3.57-18.45,5.35-15.83,20.78-30.38,36.58-17.31,8.78,7.54,13.46,21.22,13.89,35.26-18.33.14-36.62.31-54.04.5ZM382.04,295.9c.45-6.05,1.63-12.01,3.7-17.63,5.31-15.47,20.69-29.97,36.12-17.06,8.8,8.01,13.29,21.03,13.79,34.4-16.64.08-34.84.17-53.61.29ZM517.95,295.31s-17.29.03-44.09.13c.43-5.89,1.53-11.73,3.55-17.23,5.34-15.7,20.78-30.26,36.46-17.25,8.85,8,13.4,21.05,13.94,34.45l-9.86-.1ZM565.89,295.82c.44-6.02,1.56-11.98,3.64-17.58,5.35-15.58,20.71-30.11,36.28-17.16,9.02,8.16,13.58,21.6,13.96,35.3l-53.88-.57Z"/>
    </g>
  </g>
  <g>
    <path class="cls-3" d="M762.45,669.25c-20.91-20.35-43.97-42.2-64.95-62.54,8.86-13.17,13.9-28.91,13.59-44.94.14-31.63-20.36-61.82-49.78-73.34-51.92-21.06-109.42,17.2-109.55,73.34-.48,56.58,57.58,95.67,109.9,74.16,7.92-3.12,15.18-7.61,21.56-13.11,16.6,16.59,47.26,48.98,62.42,64.82,3.03,3.24,8.62,3.21,11.67.02.86-.83,3.13-3.04,4.01-3.9l1.33-1.31c1.92-1.67,3.17-4.13,3.07-6.7,0-2.53-1.37-4.89-3.26-6.5ZM655.79,621.77c-42.3,17.33-89.11-14.29-88.68-60,.21-45.23,46.46-76,88.32-59.13,23.8,9.23,40.36,33.59,40.33,59.13.52,25.74-15.93,50.64-39.97,60Z"/>
    <path class="cls-1" d="M745.63,687.65c-15.88-16.61-48.82-51.41-64.73-67.12l-.66.45c1.74-1.68,13.96-15.01,15.02-16.44,21.56,20.95,45.54,43.64,67.19,64.71,1.89,1.61,3.25,3.97,3.26,6.5.1,2.57-1.15,5.03-3.07,6.7l-1.33,1.31c-.88.86-3.15,3.07-4.01,3.9-3.04,3.19-8.64,3.23-11.67-.02ZM748.82,684.46c1.43,1.37,3.78,1.27,5.07-.21l1.3-1.34,2.6-2.67c.44-.41,1.53-1.57,1.95-1.98,1.3-1.32,1.27-3.6-.13-4.86-20.87-21.42-43.3-45.15-64.04-66.49l-1.28-.19c-.68-.66-13.08,12.55-12.14,13.46l-.45-.45c15.5,15.74,50.73,48.99,67.12,64.73Z"/>
    <path class="cls-1" d="M711.09,561.77c.61,31.81-19.83,62.51-49.44,74.16-52.32,21.51-110.37-17.58-109.9-74.16.14-56.14,57.63-94.4,109.55-73.34,29.42,11.52,49.92,41.71,49.78,73.34ZM707.6,561.77c.56-30.5-18.83-59.91-47.03-71.57-50.99-21.62-107.54,16.27-107.3,71.57-.13,30.64,19.7,59.93,48.2,71.11,50.29,20.49,105.81-16.9,106.12-71.11Z"/>
    <circle class="cls-2" cx="630.93" cy="561.77" r="63.05"/>
    <path class="cls-1" d="M695.76,561.77c.52,25.74-15.93,50.64-39.97,60-42.3,17.33-89.11-14.29-88.68-60,.21-45.23,46.46-76,88.32-59.13,23.8,9.23,40.36,33.59,40.33,59.13ZM692.2,561.77c.47-24.39-14.96-47.98-37.51-57.36-40.73-17.53-86.38,13.1-86.03,57.36.36,43.84,45.27,73.51,85.67,56.49,22.32-9.25,37.86-32.29,37.87-56.49Z"/>
    <path class="cls-1" d="M621.92,509.7c24.12-2.36,48.42,13.62,56.69,36.29,2.81,7.52,3.96,15.65,3.09,23.48-.04.33-.34.57-.67.54-.29-.03-.51-.26-.54-.54-.88-7.66-2.77-15.03-5.91-21.81-9.28-20.85-29.95-34.95-52.66-36.76-.69-.05-.75-1.15,0-1.21Z"/>
  </g>
  <g>
    <path class="cls-2" d="M292.12,111.52l-17.02,13.32-17.02-13.32-17.02,13.32-17.02-13.32-17.02,13.32-17.02-13.32-17.02,13.32-17.02-13.32-17.02,13.32-17.02-13.32-17.02,13.32-17.02-13.32-17.02,13.32-17.02-13.32-17.69,14.65v393.98s193.74-9.04,260.86-93.56c0,0,3.33-3.15,6.61-12.26,3.9-7.4,6.3-18.59,6.3-34.95V126.17l-17.83-14.65Z"/>
    <path class="cls-2" d="M309.95,146.85v-20.69l-17.83-14.65-17.02,13.32-17.02-13.32-17.02,13.32-17.02-13.32-17.02,13.32-17.02-13.32-17.02,13.32-17.02-13.32-17.02,13.32-17.02-13.32-17.02,13.32-17.02-13.32-17.02,13.32-17.02-13.32-17.69,14.65v393.08s191.77-32.23,202.12-115.08c0,0,71.64,64.8,71.64-24.81v-232.51Z"/>
    <polygon class="cls-3" points="35.63 520.17 66.4 514.28 140.62 489.28 186.97 468.34 217.35 444 235.63 420.17 238.31 404.17 272.19 426.04 290.01 426.04 301.24 420.75 287.88 438.24 244.48 470.38 195.52 490.31 122.23 510.37 64.29 518.13 35.63 520.17"/>
    <path class="cls-1" d="M308.85,146.85l-.15-20.69.46.97-17.93-14.53,1.76.02-16.94,13.41c-.56.44-1.33.43-1.87,0l-17.06-13.28h1.95l-17.01,13.33c-.59.46-1.41.44-1.97,0l-17-13.34h1.94l-17.03,13.29c-.57.45-1.36.43-1.91,0l-17-13.34h1.87l-17.03,13.29c-.55.43-1.31.41-1.84,0l-17-13.34h1.8l-17.03,13.29c-.53.42-1.26.4-1.77,0l-16.99-13.35h1.71l-17.05,13.27c-.49.39-1.18.37-1.65,0l-16.98-13.36h1.58l-17.05,13.27c-.45.36-1.08.34-1.52,0l-16.98-13.36,1.48-.02-17.73,14.6.41-.86-.06,24.57c-.17,23.87-.14,49.98.5,73.7,1.19,32.76-1.1,65.51-1,98.27.02,65.51,1.56,131.03,1.03,196.54l-1.85-1.56c19.96-3.52,39.85-8.04,59.44-13.49,47.95-13.58,133.68-43.3,140.99-100.27.1-1.62,2.18-2.3,3.28-1.22,15.38,12.6,47.11,34.65,62.41,11.96,7.74-12.2,7.32-27.5,7.34-41.47.05-6.4-.52-46.48-.57-53.89-.68-50.3-.35-100.6.23-150.9l.35-21.56h-.55ZM310.5,146.85c.92,57.41,1.31,115.07.58,172.45l-.5,43.11c-.23,14.37.64,28.96-2.82,43.06-1.28,5.41-3.13,10.77-6.52,15.27-16.76,20.87-49.43-1.94-64.26-15.11l3.28-1.22c-9.21,62.7-120.54,96.13-173.86,109.86-9.92,2.46-19.86,4.69-29.96,6.54-.85.16-1.67-.41-1.82-1.26-.21-32.85-.13-65.72.26-98.57.33-32.76.79-65.51.74-98.27.1-32.76-2.18-65.51-1-98.27.46-23.68.84-49.89.49-73.7l-.06-24.57c0-.34.16-.66.41-.86l17.66-14.69c.43-.36,1.05-.36,1.48-.02l17.05,13.27h-1.52l16.98-13.36c.47-.37,1.12-.36,1.58,0l17.06,13.28h-1.65l16.98-13.36c.51-.4,1.22-.39,1.71,0l17.04,13.28h-1.77l17-13.34c.54-.42,1.29-.4,1.8,0l17.03,13.29h-1.84l17-13.34c.56-.44,1.34-.42,1.87,0l17.03,13.29h-1.91l17-13.34c.58-.46,1.38-.43,1.94,0l17.03,13.29h-1.97l17.03-13.3c.58-.46,1.39-.44,1.95,0l16.98,13.36h-1.88l17.1-13.23c.53-.41,1.26-.38,1.75.03l17.73,14.77c.3.25.46.61.46.97l-.15,20.69h-.55Z"/>
    <path class="cls-1" d="M36.16,519.59c77.51-6.84,170.47-23.52,234.61-69.5,9.42-7,18.18-14.91,25.84-23.86.2-.23.55-.26.78-.07.22.19.26.52.09.76-7.12,9.52-15.71,17.95-25.08,25.3-46.32,35.54-108.85,51.22-165.57,60.91-23.39,3.77-46.95,6.48-70.62,7.56-.31.01-.56-.23-.58-.53-.01-.3.22-.56.53-.58Z"/>
    <rect class="cls-2" x="61.51" y="247.08" width="218.46" height="143.32"/>
    <polygon class="cls-3" points="62.07 247.08 61.51 285.41 279.98 286.52 279.42 247.08 62.07 247.08"/>
    <path class="cls-1" d="M280.37,390.8c-54.3,1.58-109.32,2.47-163.81,1.85-18.41-.3-36.8-.71-55.04-1.68-.3,0-.55-.26-.56-.56-.93-33.06-.31-74.23-.3-107.49.04-11.94.2-23.89.3-35.83,0-.3.24-.54.54-.55,36.41-1.19,72.83-1.39,109.25-1.21,36.41.09,72.82.36,109.23,1.21.31,0,.55.25.56.56.54,11.98.9,24.05,1.06,36.14.52,35.38.01,72.32-1.23,107.58ZM279.58,390.01c-1.18-35.69-1.76-71.81-1.23-107.41.16-11.8.52-23.61,1.06-35.52l.56.56c-72.81,1.34-145.66,2.13-218.46,0l.56-.56c.1,11.94.26,23.89.3,35.83.15,17.86.15,53.8.17,71.66-.04,11.94-.14,23.89-.48,35.83l-.56-.56c18.17-.97,36.19-1.38,54.19-1.68,54.75-.65,108.97.33,163.88,1.85Z"/>
    <path class="cls-1" d="M61.51,285.41c66.62-.62,138.14-1.57,204.81-.49,4.55.16,9.1.26,13.65.49.31.02.54.28.53.58-.01.29-.25.51-.53.53-4.55.22-9.1.32-13.65.48-47.55.97-102.7.24-150.19.07-13.57-.1-41.04-.38-54.62-.56-.31,0-.55-.26-.55-.56,0-.3.25-.54.55-.55Z"/>
    <path class="cls-1" d="M61.51,412.1c28.63-2.45,58.81-1.58,87.53-1.55,29.06.25,58.47.64,87.53,1.55.31.01.55.27.54.58-.01.29-.25.52-.54.54-36.39,1.12-73.01,1.54-109.41,1.67-12.82,0-31.11.16-43.76-.38-7.29-.26-14.59-.62-21.88-1.29-.31-.03-.53-.3-.5-.61.02-.27.24-.48.5-.5Z"/>
    <path class="cls-1" d="M61.51,445.15c20.3-1.09,40.64-1.35,60.96-1,6.77.18,13.55.42,20.32,1,.31.03.53.3.51.6-.02.27-.24.49-.51.51-6.77.58-13.55.82-20.32,1-13.55.29-27.09.14-40.64-.17-6.77-.18-13.55-.43-20.32-.82-.65-.03-.71-1.07,0-1.11Z"/>
    <path class="cls-1" d="M61.51,150.11c20.21-.89,40.72-1.12,60.96-1.04,6.77.1,13.55.33,20.32,1.04.62.06.68,1.05,0,1.11-10.16,1.04-20.3,1.11-30.48,1.06-13.39-.06-27.29-.2-40.64-.67-3.39-.12-6.77-.22-10.16-.39-.66-.03-.72-1.08,0-1.11Z"/>
    <path class="cls-1" d="M205.06,246.72c.72,23.4.97,47.93,1.02,71.32.03,23.77-.14,47.55-1.02,71.32-.01.31-.27.55-.58.53-.29-.01-.52-.25-.54-.53-.88-23.77-1.04-47.55-1.02-71.32,0-17.17.25-36.22.55-53.49.16-5.94.25-11.89.47-17.83.01-.31.27-.55.58-.54.29.01.52.25.53.54Z"/>
    <path class="cls-1" d="M61.1,209.69c4.79-5.87,9.69-11.63,14.62-17.37,1.26-1.46,2.64-2.87,4.23-4.09,6.27-5.07,13.14-2.03,13.75,5.94.63,4.97-1.38,11.71,3.2,15.08,4.21,2.22,7.82-2.53,10.42-5.39,2.13-2.23,4.52-4.24,7.85-4.56,9.12-.38,5.26,16.33,16.56,5.67,2.82-2.74,7.37-6.36,10.97-2.39,1.43,1.64,2.03,3.51,3.1,4.78,1.05,1.33,2.62,1.64,4.21,1.17,2.55-.66,4.52-3.05,6.76-4.57,4.18-2.96,9.64-2.24,14.35-1.5,3.92.59,23.77,3.59,28.05,4.24.3.05.51.33.47.63-.05.3-.32.51-.62.47-7.98-.95-25.97-3.8-33.67-4.34-1.82-.03-3.64.12-5.29.72-2.57.85-4.48,3.17-6.77,4.73-2.55,1.88-6.74,2.43-8.86-.39-1.35-1.65-1.97-3.51-3.08-4.71-2.78-2.94-6.06.5-8.36,2.56-2.87,2.82-7.47,6.25-11.04,2.18-1.42-1.69-1.97-3.58-2.9-5.04-2.58-4.47-7.73-1.15-10.21,1.74-3,3.62-7.83,8.81-13,5.85-5.63-3.74-3.77-11.08-4.33-16.66-.25-3.28-2.08-6.74-5.69-6.46-3.39.34-6.25,3.23-8.52,5.73-5.07,5.62-10.15,11.22-15.36,16.72-.21.22-.56.23-.79.02-.21-.2-.23-.53-.05-.75Z"/>
  </g>
</svg>