<?xml version="1.0" encoding="UTF-8"?>
<svg id="_レイヤー_1" data-name="レイヤー_1" xmlns="http://www.w3.org/2000/svg" viewBox="0 0 800 800">
  <defs>
    <style>
      .cls-1 {
        fill: #4742c2;
      }

      .cls-2 {
        fill: #fff;
      }

      .cls-3 {
        fill: #ebebf7;
      }
    </style>
  </defs>
  <g>
    <polygon class="cls-2" points="148.52 678.62 625.83 678.62 698.47 294.83 221.16 294.83 148.52 678.62"/>
    <polygon class="cls-3" points="221.16 294.26 149.84 678.62 295.74 679.1 221.16 294.26"/>
    <path class="cls-1" d="M148.97,678.25c80.22-3.27,159.37-1.6,239.34-2.03,78.1.62,161.31-.22,236.97,2.28-.01.4,72.31-386.64,73.2-383.11H221.16s.56-.46.56-.46c-2.75,16.02-5.6,32.01-8.44,47.97-6.56,36.76-14.93,82.52-21.76,119.41-13.73,72.15-26.66,144.07-42.56,215.94ZM148.08,678.99c11.22-71.86,25.71-144.17,39.16-215.83,7.36-37.25,16.08-83.42,23.64-120.46,3.21-16.02,6.42-32.02,9.72-47.98.05-.27.29-.47.56-.47h477.31c2.02,0-72.64,383.79-72.07,384.47-119.45,3.06-240.46,2.08-360.37,2.2-38.35-.19-80.26.19-117.94-1.94Z"/>
    <polygon class="cls-2" points="773.36 678.62 296.05 678.62 223.41 294.83 700.72 294.83 773.36 678.62"/>
    <path class="cls-2" d="M701.28,294.72c-.15-1.35-477.31-.01-477.96-.46-.32.05-.53.36-.47.67,5.27,32.13,10.87,64.2,16.45,96.27,4.14,23.95,12.91,72.22,17.17,96.13,9.47,52.07,21.31,116.11,31.12,168.03,1.42,8.1,2.99,16.24,8.07,23.61,19.86.92,40.14.5,60.18.93,138.31,1.21,279.66.64,417.95-.93-21.52-127.47-46.49-257.43-72.52-384.26Z"/>
    <path class="cls-1" d="M773.8,678.99c-138.29,1.58-279.65,2.14-417.95.93-20.04-.43-40.33-.01-60.18-.93-5.08-7.37-6.65-15.51-8.07-23.61-9.81-51.92-21.66-115.96-31.12-168.03-4.26-23.92-13.03-72.19-17.17-96.13-5.58-32.07-11.18-64.14-16.45-96.27-.06-.32.15-.62.47-.67.65.45,477.81-.9,477.96.46,26.03,126.83,50.99,256.8,72.52,384.26ZM772.91,678.25c-26.63-127.33-50.6-255.3-72.76-383.32,3.66.86-477.71.36-476.74.47l.56-.68c6.84,31.83,13.34,63.73,19.87,95.62,4.94,23.89,14.38,71.85,19.15,95.76,8.43,42.68,19.72,101.08,27.85,143.81l4.58,23.98c1.61,7.98,3.13,15.97,1.19,24.62,154.57-3.58,319.13-1.51,476.3-.26Z"/>
    <path class="cls-3" d="M700.74,294.26c-9.95-.31-19.9-.52-29.85-.72-49.71-1.09-99.44-1.48-149.16-1.57-98.68-.09-199.74.4-298.33,2.29-.35,0-.61.34-.55.68l14.92,78.82c.05.26.28.47.56.47,38.58.67,81.01,1.14,119.75,1.41,117.95.52,240.19,1.73,358-1.62-5.3-26.34-9.14-53.95-15.34-79.75Z"/>
    <path class="cls-1" d="M716.08,374.01c-117.82,3.35-240.05,2.14-358,1.62-38.73-.27-81.17-.74-119.75-1.41-.28,0-.51-.2-.56-.47l-14.92-78.82c-.06-.34.2-.67.55-.68,98.59-1.89,199.65-2.38,298.33-2.29,49.72.1,99.45.48,149.16,1.57,9.95.2,19.9.41,29.85.72,6.2,25.8,10.04,53.42,15.34,79.75ZM715.19,373.28c-5.07-26.16-10.1-52.22-15.04-78.34l.56.47c-9.94.31-19.89.52-29.83.72-49.71,1.09-99.44,1.48-149.16,1.57-57.35.08-121.64-.1-178.99-.68-39.78-.32-79.55-.81-119.33-1.62l.56-.68,14.92,78.82-.56-.47c38.36-.63,80.41-1.17,118.91-1.41,118.41-.57,239.47-1.64,357.96,1.62Z"/>
    <g>
      <path class="cls-1" d="M737.52,603.84c-8.98-.34-17.96-.56-26.94-.78-7.07-.15-14.13-.29-21.2-.42-3.91-21.25-7.94-42.7-12.02-64.18,6.87-.11,13.7-.23,20.45-.36,8.98-.19,17.96-.35,26.94-.62.3,0,.55-.25.56-.56,0-.32-.24-.58-.56-.59-8.98-.27-17.96-.44-26.94-.62-7-.11-14.01-.21-21.03-.3-4-20.99-8.04-41.99-12.07-62.82,16.04-.18,31.96-.43,47.62-.78.3,0,.55-.25.56-.56,0-.32-.24-.58-.56-.59-16-.28-32.05-.49-48.12-.68-3.61-18.62-7.21-37.11-10.75-55.32-.06-.31-.36-.51-.67-.45-.31.06-.52.36-.46.67,3.36,18.37,6.69,36.74,10.14,55.08-21.78-.24-43.61-.4-65.48-.5-3.58-18.41-7.15-36.7-10.66-54.8-.06-.31-.36-.51-.67-.45-.31.06-.52.36-.46.67,3.33,18.19,6.6,36.4,10.02,54.58-17.4-.08-34.81-.11-52.23-.12,8.01-15.7,3.71-36.2-5.75-50.66-16.84-26.52-53.27-40.17-82.82-28.26-9.89,4.22-16.72,10.98-20.93,19.02-.33-2.9-.52-5.81-.55-8.73-.02-.74-1.01-.77-1.14-.09-.58,4.13-.95,8.34-.81,12.55.01.6.06,1.2.09,1.8-6.22,17.43-1.82,39.1,9.98,54.64-15,.08-29.99.17-44.96.26-3.74-18.56-7.47-37-11.1-55.21-.06-.3-.35-.5-.66-.45-.31.05-.52.35-.47.66,2.82,16.13,6.65,38.39,9.69,55.01-21.37.14-42.7.29-63.98.44-3.8-18.61-7.7-37.2-11.7-55.66-.06-.29-.35-.49-.65-.44-.31.05-.53.34-.48.66,1.54,9.69,3.18,19.35,4.82,29.02,1.07,6.44,3.18,18.77,4.52,26.45-14.98.11-29.95.21-44.87.31-.31,0-.57.26-.57.57,0,.32.25.58.57.58,15.06.11,30.13.25,45.19.38.04.24.09.48.12.71,3.66,21,7.45,41.98,11.3,62.94-14.76.16-29.49.32-44.18.49-.31,0-.56.25-.56.56,0,.32.25.58.56.58,14.86.22,29.73.41,44.59.57,3.1,16.87,6.25,33.72,9.43,50.58.94,4.83,1.89,9.65,2.87,14.47-14.71.23-29.42.48-44.12.75-.3,0-.55.25-.56.56,0,.32.24.58.56.59,14.9.32,29.79.59,44.69.83,2.78,13.49,5.81,26.93,9.39,40.25.07.27.33.45.62.42.32-.03.54-.32.51-.63-1.06-9.78-2.48-19.49-4.02-29.17-.58-3.6-1.18-7.19-1.79-10.78,21.11.33,42.22.6,63.33.8,2.73,13.4,5.54,26.59,8.48,39.37.07.29.34.48.64.44.31-.05.53-.34.49-.65-2.02-12.96-4.19-26.01-6.47-39.13,21.31.2,42.61.34,63.92.44,2.68,13.06,5.5,26.04,8.54,38.9.07.28.34.48.64.44.31-.04.53-.33.49-.65-1.8-12.79-3.9-25.71-6.15-38.67,10.76.05,21.51.09,32.27.12,10.34.03,20.69.04,31.03.05,2.7,12.95,5.59,25.86,8.84,38.71.07.28.34.47.63.43.31-.04.54-.33.5-.64-1.63-12.89-3.61-25.71-5.78-38.5,21.33.01,42.65-.03,63.98-.19,2.58,13.2,5.18,26.22,7.79,38.89.06.3.35.5.66.45.31-.05.52-.35.47-.66-2.25-12.81-4.57-25.73-6.93-38.7,21.68-.16,43.36-.43,65.03-.87,2.64,13.57,5.28,26.9,7.89,39.78.06.3.35.51.66.45.31-.06.52-.35.46-.66-2.33-13.09-4.72-26.31-7.17-39.61,6.85-.14,13.7-.3,20.54-.48,8.98-.22,17.96-.44,26.94-.78.3-.01.54-.25.55-.55.01-.32-.24-.58-.55-.59ZM662.95,472.6s.02.08.02.12c3.77,20.13,7.7,41.26,11.71,62.64-21.63-.28-43.34-.48-65.09-.61-3.94-20.62-7.94-41.25-11.92-61.75,21.83-.05,43.67-.17,65.28-.41ZM595.88,473.02c3.77,20.01,7.61,40.78,11.52,61.73-21.24-.12-42.52-.19-63.82-.19-.3-1.58-.6-3.13-.88-4.61-3.17-16.18-6.39-32.44-9.67-48.7,1.28-.99,2.52-2.07,3.7-3.24,1.55-1.57,2.9-3.24,4.08-4.99,18.24.02,36.64.03,55.07,0ZM475.21,530.02c-3.21-16.78-6.63-34.23-10.13-51.74,4.05,2.85,8.39,5.27,12.99,7.13,16.11,6.66,36.63,7.6,51.75-1.91,2.94,16.66,6.09,34.05,9.22,51.07-20.97,0-41.95.06-62.93.16-.3-1.56-.61-3.14-.9-4.69ZM475.17,472.91c8.16.02,15.56.03,21.59.04,8.95.01,17.97.03,27.05.05-12.61,8.59-33.52,7.51-48.63-.08ZM534.44,445.8c1.13,8.94-.64,15.88-4.32,21.06-3.48-17.07-7.02-34.11-10.67-51.05,7.91,8.22,13.45,18.64,14.98,29.99ZM457.98,399.37c14.12-5.09,30.54-2.65,43.94,3.78,5.98,2.83,11.49,6.71,16.24,11.36-.06.11-.1.23-.07.37,1.55,9.69,3.21,19.35,4.84,29.02,1.03,6.17,3.03,17.73,4.4,25.44-19.34.02-38.69.07-58.03.14-2.45-1.61-4.79-3.37-7.03-5.25-3.39-16.79-6.81-33.49-10.17-49.56-.06-.3-.35-.5-.66-.45-.31.05-.52.35-.47.66,2.43,14.4,5.22,30.49,8.05,46.46-10.79-10.2-18.61-23.53-22.74-37.89,2.99-10.8,9.93-20,21.7-24.07ZM438.34,457.48c-2.69-6.94-4.03-14.73-3.79-22.34,3.76,12.37,10.33,23.91,19.2,33.29.36.38.74.75,1.11,1.12-3.5.02-7,.03-10.51.05-2.43-3.84-4.46-7.9-6.02-12.11ZM443.69,472.82c1.95,2.22,4.05,4.3,6.33,6.17.51.47,1.29-.33.8-.82-1.52-1.71-2.94-3.49-4.27-5.34,3.96.01,7.91.02,11.79.04,1.05.94,2.12,1.86,3.21,2.74,1.62,9.06,3.21,17.9,4.71,26.17,2.05,10.93,4.07,21.92,6.09,32.95-21.12.1-42.23.25-63.31.42-4.05-20.9-8.23-41.79-12.41-62.52,13.07.07,30.09.14,47.05.19ZM341.45,529.93c-3.75-19.18-7.58-38.46-11.51-57.72,19.68.17,39.36.32,59.03.38,1.59,0,3.29.02,5.06.03.01.06.02.13.03.19,3.74,20.11,7.51,41.13,11.4,62.38-21,.18-41.97.38-62.88.6-.38-1.95-.76-3.9-1.13-5.85ZM355.29,603.01c-3.76-21.7-8.06-43.29-12.26-64.91,19.46.21,38.92.38,58.37.49,1.48.01,3.05.03,4.69.04,3.88,21.21,7.89,42.6,12.1,63.52-20.97.24-41.94.53-62.91.86ZM421.47,602.12c-3.69-21.06-7.65-42.26-11.75-63.46,17.44.13,41.67.25,63.42.33,3.83,20.84,7.7,41.78,11.9,62.56-21.19.13-42.38.32-63.57.56ZM488.72,601.54c-3.71-20.93-7.79-41.9-11.78-62.53,12.35.04,23.69.07,32.24.07,10.11.03,20.37.06,30.71.08,1.28,6.95,2.56,13.82,3.82,20.53,2.59,13.92,5.22,27.82,8.04,41.68-21.01-.01-42.03.04-63.04.16ZM556.16,601.38c-.79-4.55-1.6-9.1-2.43-13.64-2.53-13.91-6.22-32.83-9.25-48.56,21.03.04,42.4.03,63.74-.06,3.9,20.9,7.87,41.95,11.88,62.59-21.31-.19-42.62-.3-63.94-.32ZM622.16,601.72c-3.81-20.77-7.74-41.69-11.74-62.62,21.82-.1,43.57-.28,64.84-.6,4.02,21.41,8.11,43.02,12.2,64.1-21.77-.4-43.54-.68-65.31-.88Z"/>
      <path class="cls-1" d="M278.88,665.4c-11.84-8.18-23.82-16.16-36.17-23.56-7.97-4.71-13.53-7.77-16.7-9.25,11.43.57,61.25,2.35,61.2,2.38,1.76.07,3.22-1.39,3.15-3.15-.06-1.67-1.47-2.98-3.15-2.91-.3.11-63.86,2.28-64.11,2.54-13.52,6.03-26.19,13.51-38.68,21.36-12.44,7.91-24.67,16.1-36.21,25.32-.2.16-.27.45-.16.69.13.29.48.42.77.28.34-.16.67-.33,1.01-.49h145.02c.3.16.59.32.88.48.61.34,1.15-.57.62-.96-5.71-4.43-11.57-8.61-17.47-12.74Z"/>
      <path class="cls-1" d="M287.79,294.83c.24-7.01,1.39-13.99,3.76-20.53,5.53-16.33,21.45-31.35,37.75-17.86,16.38,14.06,18.97,48.82,6.72,69.14-2.68-2.52-6.11-4.11-9.61-4.11-6.65,0-10.96,5.72-9.62,12.77,1.33,7.05,7.81,12.77,14.46,12.77s10.96-5.72,9.62-12.77c-.46-2.45-1.55-4.72-3.04-6.66,14.49-20.83,12.44-57.2-6.38-73.68-9.31-8.07-22.07-7.37-30.78,1.18-10.56,10.29-14.21,25.52-14.02,39.75,0,.73,1.14.73,1.15,0Z"/>
      <path class="cls-1" d="M381.33,294.83c.31-7.01,1.57-13.96,3.96-20.47,5.48-15.97,21.35-30.93,37.28-17.61,16.66,15.16,18.37,47.73,7.15,67.97-2.51-2.02-5.55-3.26-8.63-3.26-6.65,0-10.96,5.72-9.62,12.77,1.33,7.05,7.81,12.77,14.46,12.77s10.96-5.72,9.62-12.77c-.51-2.7-1.78-5.2-3.52-7.27,14.26-20.98,12.09-57-6.76-73.4-9.47-8.17-22.48-7.48-31.3,1.24-10.54,10.44-14.15,25.71-13.78,40.01.02.72,1.14.72,1.15,0Z"/>
      <path class="cls-1" d="M476.07,294.83c.27-7.01,1.42-13.99,3.82-20.51,5.52-16.2,21.45-31.22,37.62-17.8,16.84,15.23,18.63,48.15,7.11,68.41-2.56-2.14-5.7-3.46-8.88-3.46-6.65,0-10.96,5.72-9.62,12.77s7.81,12.77,14.46,12.77,10.96-5.72,9.62-12.77c-.52-2.76-1.84-5.31-3.64-7.4,13.99-20.96,11.92-56.68-6.77-73.02-9.37-8.1-22.17-7.43-30.94,1.17-10.53,10.36-14.18,25.59-13.93,39.85.01.73,1.14.73,1.15,0Z"/>
      <path class="cls-1" d="M571.07,294.83c.31-7.01,1.48-13.98,3.9-20.49,5.53-16.08,21.37-31.07,37.44-17.71,16.82,15.21,18.64,48.24,7.08,68.45-2.59-2.24-5.81-3.62-9.08-3.62-6.65,0-10.96,5.72-9.62,12.77s7.81,12.77,14.46,12.77,10.96-5.72,9.62-12.77c-.5-2.64-1.72-5.09-3.4-7.13.49-.72.95-1.46,1.39-2.2,12.23-20.74,10.75-54.67-7.97-71.22-13.78-11.51-29.94-4.54-37.84,9.92-5.34,9.44-7.43,20.52-7.13,31.22.02.72,1.14.72,1.15,0Z"/>
    </g>
  </g>
  <g>
    <path class="cls-3" d="M774.06,677.88c-21.58-21.01-45.38-43.55-67.03-64.55,9.14-13.59,14.35-29.84,14.03-46.38.14-32.64-21.02-63.8-51.38-75.69-53.59-21.74-112.92,17.75-113.06,75.69-.49,58.39,59.42,98.74,113.42,76.54,8.18-3.22,15.67-7.85,22.26-13.53,17.13,17.12,48.78,50.54,64.42,66.9,3.12,3.35,8.9,3.31,12.04.02.89-.86,3.23-3.13,4.14-4.02l1.37-1.35c1.99-1.72,3.28-4.26,3.17-6.91,0-2.62-1.41-5.05-3.36-6.71ZM663.98,628.88c-43.66,17.89-91.97-14.75-91.52-61.92.22-46.68,47.94-78.43,91.15-61.03,24.56,9.53,41.66,34.66,41.62,61.03.53,26.57-16.44,52.26-41.25,61.92Z"/>
    <path class="cls-1" d="M756.7,696.86c-16.39-17.14-50.38-53.06-66.8-69.27l-.68.47c1.8-1.73,14.41-15.49,15.5-16.96,22.25,21.62,47,45.04,69.34,66.79,1.95,1.66,3.36,4.1,3.36,6.71.11,2.65-1.18,5.19-3.17,6.91l-1.37,1.35c-.91.89-3.25,3.17-4.14,4.02-3.14,3.29-8.92,3.33-12.04-.02ZM759.99,693.57c1.48,1.42,3.9,1.31,5.24-.21l1.34-1.38,2.69-2.76c.46-.43,1.57-1.62,2.01-2.04,1.34-1.37,1.31-3.72-.13-5.01-21.54-22.11-44.69-46.6-66.09-68.62l-1.32-.2c-.7-.68-13.5,12.95-12.53,13.89l-.47-.46c16,16.25,52.35,50.56,69.27,66.8Z"/>
    <path class="cls-1" d="M721.06,566.95c.63,32.83-20.46,64.51-51.03,76.54-54,22.2-113.91-18.15-113.42-76.54.14-57.93,59.48-97.42,113.06-75.69,30.36,11.89,51.52,43.05,51.38,75.69ZM717.45,566.95c.58-31.47-19.43-61.83-48.53-73.86-52.62-22.32-110.98,16.79-110.73,73.86-.14,31.62,20.33,61.85,49.74,73.39,51.9,21.15,109.2-17.44,109.52-73.39Z"/>
    <circle class="cls-2" cx="638.33" cy="566.95" r="65.07"/>
    <path class="cls-1" d="M705.23,566.95c.53,26.57-16.44,52.26-41.25,61.92-43.66,17.89-91.97-14.75-91.52-61.92.22-46.68,47.94-78.43,91.15-61.03,24.56,9.53,41.66,34.66,41.62,61.03ZM701.56,566.95c.49-25.18-15.44-49.52-38.72-59.2-42.03-18.09-89.15,13.52-88.78,59.2.37,45.25,46.72,75.87,88.41,58.3,23.03-9.55,39.07-33.33,39.09-58.3Z"/>
    <path class="cls-1" d="M629.03,513.21c24.9-2.44,49.97,14.05,58.5,37.46,2.9,7.76,4.09,16.15,3.19,24.23-.04.34-.35.59-.69.55-.3-.03-.52-.27-.55-.55-.91-7.91-2.86-15.51-6.1-22.51-9.57-21.52-30.91-36.07-54.35-37.93-.71-.05-.77-1.18,0-1.25Z"/>
  </g>
  <g>
    <path class="cls-2" d="M288.66,102.28l-17.56,13.74-17.56-13.74-17.56,13.74-17.56-13.74-17.56,13.74-17.56-13.74-17.56,13.74-17.56-13.74-17.56,13.74-17.56-13.74-17.56,13.74-17.56-13.74-17.56,13.74-17.56-13.74-18.26,15.12v406.6s199.95-9.33,269.22-96.56c0,0,3.44-3.25,6.82-12.66,4.03-7.64,6.5-19.19,6.5-36.07V117.4l-18.4-15.12Z"/>
    <path class="cls-2" d="M307.06,138.75v-21.35l-18.4-15.12-17.56,13.74-17.56-13.74-17.56,13.74-17.56-13.74-17.56,13.74-17.56-13.74-17.56,13.74-17.56-13.74-17.56,13.74-17.56-13.74-17.56,13.74-17.56-13.74-17.56,13.74-17.56-13.74-18.26,15.12v405.68s197.91-33.27,208.6-118.77c0,0,73.94,66.88,73.94-25.6v-239.96Z"/>
    <polygon class="cls-3" points="23.96 524.01 55.72 517.94 132.31 492.14 180.15 470.53 211.5 445.41 230.36 420.81 233.13 404.31 268.1 426.87 286.49 426.87 298.08 421.41 284.29 439.47 239.5 472.63 188.97 493.21 113.33 513.91 53.54 521.91 23.96 524.01"/>
    <path class="cls-1" d="M305.93,138.75l-.16-21.35.47,1-18.5-14.99,1.82.02-17.49,13.84c-.58.46-1.38.44-1.93,0l-17.61-13.7h2.02l-17.55,13.76c-.61.48-1.45.46-2.04,0l-17.54-13.76h2l-17.58,13.72c-.59.46-1.4.44-1.97,0l-17.54-13.76h1.93l-17.58,13.72c-.57.44-1.35.42-1.9,0l-17.54-13.76h1.86l-17.58,13.72c-.55.43-1.3.41-1.83,0l-17.53-13.78h1.77l-17.6,13.7c-.51.4-1.21.38-1.7,0l-17.53-13.79h1.63l-17.6,13.7c-.47.37-1.12.35-1.56,0l-17.53-13.79,1.52-.02-18.3,15.07.42-.89-.06,25.35c-.17,24.64-.15,51.58.51,76.06,1.23,33.81-1.14,67.61-1.03,101.42.02,67.61,1.61,135.22,1.06,202.84l-1.91-1.61c20.6-3.63,41.13-8.3,61.34-13.92,49.48-14.01,137.97-44.69,145.5-103.49.11-1.67,2.25-2.37,3.39-1.26,15.88,13,48.61,35.76,64.41,12.35,7.99-12.59,7.55-28.38,7.57-42.8.05-6.6-.53-47.97-.59-55.62-.7-51.91-.36-103.82.24-155.73l.36-22.25h-.56ZM307.64,138.75c.95,59.24,1.36,118.75.6,177.98l-.52,44.49c-.24,14.83.66,29.89-2.91,44.44-1.32,5.58-3.23,11.12-6.73,15.75-17.3,21.54-51.01-2.01-66.32-15.6l3.39-1.26c-9.5,64.71-124.4,99.21-179.43,113.38-10.23,2.54-20.5,4.84-30.92,6.75-.88.16-1.72-.42-1.88-1.3-.22-33.91-.13-67.82.27-101.73.34-33.81.82-67.61.77-101.42.11-33.81-2.25-67.61-1.03-101.42.48-24.44.87-51.48.51-76.06l-.06-25.35c0-.35.17-.68.42-.89l18.22-15.16c.45-.37,1.08-.37,1.52-.02l17.6,13.7h-1.56l17.53-13.79c.49-.38,1.16-.37,1.63,0l17.6,13.7h-1.7l17.53-13.79c.53-.42,1.26-.4,1.77,0l17.59,13.71h-1.83l17.54-13.76c.56-.44,1.33-.42,1.86,0l17.58,13.72h-1.9l17.54-13.76c.58-.45,1.38-.43,1.93,0l17.58,13.72h-1.97l17.54-13.76c.6-.47,1.43-.45,2,0l17.58,13.72h-2.04l17.57-13.73c.6-.47,1.44-.45,2.02,0l17.53,13.79h-1.94l17.65-13.66c.55-.42,1.3-.39,1.81.03l18.3,15.24c.31.25.48.63.47,1l-.16,21.35h-.56Z"/>
    <path class="cls-1" d="M24.5,523.42c79.99-7.06,175.93-24.27,242.13-71.73,9.72-7.22,18.76-15.39,26.67-24.62.2-.24.57-.27.81-.07.23.2.27.54.09.78-7.35,9.83-16.21,18.53-25.88,26.11-47.81,36.68-112.33,52.87-170.87,62.87-24.14,3.89-48.45,6.68-72.89,7.8-.32.01-.58-.23-.6-.55-.01-.31.23-.58.54-.6Z"/>
    <rect class="cls-2" x="50.67" y="242.18" width="225.46" height="147.91"/>
    <polygon class="cls-3" points="51.24 242.18 50.67 281.74 276.13 282.88 275.56 242.18 51.24 242.18"/>
    <path class="cls-1" d="M276.54,390.5c-56.04,1.63-112.82,2.55-169.06,1.91-19-.31-37.98-.74-56.81-1.74-.31,0-.56-.26-.57-.57-.96-34.12-.32-76.61-.31-110.94.04-12.33.21-24.65.31-36.98,0-.31.25-.56.56-.57,37.58-1.23,75.16-1.44,112.75-1.25,37.58.09,75.16.38,112.73,1.25.32,0,.57.26.57.57.56,12.36.93,24.82,1.1,37.3.54,36.52.01,74.64-1.26,111.02ZM275.73,389.69c-1.22-36.84-1.82-74.11-1.26-110.85.17-12.18.54-24.37,1.1-36.66l.57.57c-75.14,1.38-150.33,2.2-225.46,0l.57-.57c.1,12.33.27,24.65.31,36.98.15,18.43.16,55.53.18,73.96-.04,12.33-.14,24.65-.49,36.98l-.57-.57c18.75-1,37.35-1.43,55.92-1.74,56.51-.67,112.46.34,169.13,1.91Z"/>
    <path class="cls-1" d="M50.67,281.74c68.76-.64,142.56-1.62,211.37-.5,4.7.17,9.39.27,14.09.5.32.02.56.28.55.6-.02.3-.25.53-.55.54-4.7.23-9.39.33-14.09.5-49.07,1-105.99.25-155,.07-14.01-.1-42.35-.39-56.37-.57-.32,0-.57-.26-.57-.58,0-.31.26-.56.57-.57Z"/>
    <path class="cls-1" d="M50.67,412.49c29.55-2.53,60.69-1.63,90.33-1.6,29.99.25,60.35.66,90.33,1.6.32.01.56.28.55.59-.01.3-.26.54-.55.55-37.56,1.15-75.35,1.59-112.91,1.72-13.23,0-32.1.16-45.17-.39-7.53-.27-15.05-.64-22.58-1.33-.32-.03-.55-.31-.52-.63.03-.28.25-.5.52-.52Z"/>
    <path class="cls-1" d="M50.67,446.59c20.95-1.13,41.94-1.4,62.91-1.03,6.99.19,13.98.43,20.97,1.03.32.03.55.31.52.62-.02.28-.25.5-.52.52-6.99.6-13.98.84-20.97,1.03-13.98.3-27.96.14-41.94-.18-6.99-.18-13.98-.45-20.97-.85-.67-.03-.74-1.11,0-1.15Z"/>
    <path class="cls-1" d="M50.67,142.1c20.86-.92,42.03-1.16,62.91-1.07,6.99.1,13.98.35,20.97,1.07.64.06.7,1.08,0,1.15-10.48,1.07-20.95,1.15-31.46,1.09-13.82-.06-28.17-.2-41.94-.69-3.5-.12-6.99-.23-10.49-.4-.68-.03-.74-1.11,0-1.15Z"/>
    <path class="cls-1" d="M198.82,241.81c.74,24.15,1,49.47,1.05,73.6.03,24.53-.14,49.07-1.05,73.6-.01.32-.28.56-.59.55-.3-.01-.54-.26-.55-.55-.91-24.53-1.08-49.07-1.05-73.6,0-17.72.25-37.38.57-55.2.16-6.13.26-12.27.48-18.4.01-.32.28-.56.59-.55.3.01.54.26.55.55Z"/>
    <path class="cls-1" d="M50.24,203.6c4.94-6.05,10-12,15.09-17.92,1.3-1.5,2.72-2.96,4.37-4.22,6.47-5.23,13.56-2.1,14.19,6.13.65,5.13-1.43,12.09,3.3,15.56,4.34,2.29,8.07-2.61,10.75-5.57,2.2-2.3,4.66-4.38,8.1-4.71,9.42-.39,5.43,16.86,17.09,5.85,2.91-2.83,7.61-6.57,11.32-2.47,1.47,1.7,2.09,3.62,3.2,4.94,1.08,1.37,2.7,1.69,4.34,1.21,2.63-.68,4.66-3.15,6.98-4.72,4.32-3.06,9.94-2.31,14.8-1.55,4.05.61,24.53,3.71,28.95,4.37.31.05.53.34.48.65-.05.31-.33.52-.64.48-8.24-.98-26.8-3.93-34.75-4.48-1.88-.03-3.76.13-5.45.74-2.65.87-4.62,3.27-6.98,4.88-2.63,1.94-6.95,2.5-9.14-.4-1.39-1.7-2.04-3.62-3.18-4.86-2.87-3.03-6.25.52-8.63,2.64-2.96,2.91-7.71,6.45-11.4,2.25-1.46-1.75-2.03-3.7-2.99-5.2-2.66-4.61-7.98-1.18-10.54,1.8-3.09,3.74-8.08,9.09-13.42,6.04-5.81-3.86-3.89-11.43-4.47-17.2-.26-3.39-2.15-6.95-5.87-6.66-3.5.35-6.45,3.34-8.8,5.92-5.23,5.8-10.48,11.58-15.85,17.25-.22.23-.58.24-.81.02-.22-.21-.24-.55-.05-.78Z"/>
  </g>
</svg>