<svg id="materials" xmlns="http://www.w3.org/2000/svg" viewBox="0 0 460 39.07"><defs><style>.cls-1{fill:#fff;}.cls-2{fill:#474747;}</style></defs><title>pricing-title</title><path class="cls-1" d="M206.32,36.11c-3.93,0-4.77-2.54-4.87-4.32a5.38,5.38,0,0,1-4.81-5.36c0-1.57.29-1.95,2.58-4.89l.55-.71A4.11,4.11,0,0,1,197,16.75a5,5,0,0,1,.89-3.11,5.81,5.81,0,0,1-.47-1.54l-.08-.4A14.8,14.8,0,0,0,197,10a6.19,6.19,0,0,1-.25-1.63c0-2.08,1.79-3.59,4.25-3.59a3.52,3.52,0,0,1,1.18.19,4.35,4.35,0,0,1,3.77-1.88c2.21,0,3.44.8,4.11,1.81a4.05,4.05,0,0,1,1.41-.24,4.79,4.79,0,0,1,2.79.8,5,5,0,0,1,2.28-.56,3.93,3.93,0,0,1,2,.44c.69-1.54,2.18-2.36,4.37-2.36,3.36,0,5.06,1.58,5.06,4.69V18.58c1.46.79,2.34,2.5,2.34,4.79a3.77,3.77,0,0,1-2.34,3.85v4c0,3-1.69,4.7-4.64,4.7-1.43,0-5.24,0-5.24-4.7V29.18l-2.38.41a3.36,3.36,0,0,1-.81.1,4,4,0,0,1-2.63-1,4.25,4.25,0,0,1-1.4.4v2.25C210.81,34.87,208.49,36.11,206.32,36.11Z"/><path class="cls-2" d="M222.85,5c2,0,3.06.44,3.06,2.69V20.1c2.28,0,2.34,2.64,2.34,3.27,0,1.32-.39,2-2.34,2.34v5.52c0,1.65-.6,2.7-2.64,2.7s-3.24-.36-3.24-2.7V26.79l-4.62.81a4.44,4.44,0,0,1-.57.09c-1.68,0-2.1-1.68-2.19-2.07a2.62,2.62,0,0,1-2.31,1.53,1.64,1.64,0,0,1-1.53-.84v5.07c0,1-.18,2.73-2.49,2.73-1.92,0-2.88-.66-2.88-2.73V28.56a2.2,2.2,0,0,1-1.86,1.23,3.37,3.37,0,0,1-2.94-3.36c0-.9,0-.93,2.22-3.75a30.27,30.27,0,0,0,2.46-3.54h-1.5c-.66,0-2.79,0-2.79-2.39,0-1.87.75-2.74,2.79-2.74h1.62V7.83c0-.83.12-2.7,2.49-2.7,1.89,0,2.88.61,2.88,2.7V14H210c.63,0,2.76,0,2.76,2.41,0,1.83-.72,2.72-2.76,2.72h-.87a22,22,0,0,0,2.13,2.73,9.2,9.2,0,0,1,1.41,1.71c.24-.75.57-1.26,1.86-1.5l5.52-1V12.33a2.65,2.65,0,0,1-2.31,1.29c-.81,0-.9-.08-2.49-1.65-1.23-1.22-1.47-1.43-1.47-2.3a2.72,2.72,0,0,1,2.76-2.73c.63,0,1,0,2.13,1,.3.26,1,.83,1.38,1.25V7.71C220,6,220.63,5,222.85,5M211.45,6.7c.3,0,2.28,0,2.28,1.71a13.65,13.65,0,0,1-.93,4,1.53,1.53,0,0,1-1.56,1.05c-.21,0-2.19,0-2.19-1.76,0-.33.39-1.83.45-2.13s.27-1.47.33-1.71a1.56,1.56,0,0,1,1.62-1.17M201,6.82a1.64,1.64,0,0,1,1.56,1.35,17.5,17.5,0,0,1,.75,3.66c0,1.34-1.38,1.73-2.1,1.73-1.41,0-1.62-.93-1.77-1.8a20.31,20.31,0,0,0-.51-2.25,4.29,4.29,0,0,1-.18-1.1c0-1.26,1.44-1.59,2.25-1.59m14.58,7.43c.48,0,1.14,0,2.82,1.54,1,.86,1.32,1.25,1.32,2.18A3.2,3.2,0,0,1,216.82,21c-1,0-1.32-.45-2.31-1.44-1.5-1.5-1.65-1.62-1.65-2.51a2.93,2.93,0,0,1,2.7-2.83M222.85,1a6.8,6.8,0,0,0-5.19,2,7.34,7.34,0,0,0-3.29.26,7.21,7.21,0,0,0-2.92-.58c-.24,0-.48,0-.71,0a7.37,7.37,0,0,0-4.81-1.6,6.43,6.43,0,0,0-4.55,1.7H201c-3.56,0-6.25,2.4-6.25,5.59a8.35,8.35,0,0,0,.33,2.2,15,15,0,0,1,.35,1.46l.08.41a8.18,8.18,0,0,0,.22,1,7.71,7.71,0,0,0-.68,3.3,6.39,6.39,0,0,0,1.82,4.58c-1.72,2.24-2.21,3.12-2.21,5.1a7.53,7.53,0,0,0,5.06,7.06c.76,2.9,3.15,4.62,6.62,4.62,3.88,0,6.49-2.7,6.49-6.73v0a5.89,5.89,0,0,0,2,.34,5,5,0,0,0,1.16-.13h0c.09,2.52,1.2,6.37,7.24,6.37,4,0,6.64-2.63,6.64-6.7V28.36a6,6,0,0,0,2.34-5,7.33,7.33,0,0,0-2.34-5.84V7.71C229.91,5.7,229.22,1,222.85,1Z"/><path class="cls-1" d="M235.53,35.3c-2.16,0-4.73-.84-4.73-4.88A4.17,4.17,0,0,1,234.69,26a2.57,2.57,0,0,1-.08-.47c-1.59-.45-3-1.69-3-4.66a4.62,4.62,0,0,1,1.19-3.2,5.71,5.71,0,0,1-2.06-4.6,4.59,4.59,0,0,1,3.38-4.37l.32-.13a31.68,31.68,0,0,0,6.3-3.16C243.21,3.68,244.23,3,247.26,3a8.29,8.29,0,0,1,5.35,1.77,22.34,22.34,0,0,0,6.53,3.63c2.36,1,4.22,1.79,4.22,4.78a5.9,5.9,0,0,1-2.16,4.69,5,5,0,0,1,1.11,3.47,4.14,4.14,0,0,1-3,4.23,4.8,4.8,0,0,1-.09.5c1.88.25,3.74,1.37,3.74,4.81,0,1.05-.34,4.46-4.7,4.46Z"/><path class="cls-2" d="M247.26,5a6.28,6.28,0,0,1,4.2,1.41,24.3,24.3,0,0,0,6.9,3.84c2.34,1,3,1.29,3,2.93,0,1.8-1.14,3.61-2.76,3.61-.36,0-1-.07-2.94-1.15-.3,1.48-1.5,1.71-2.61,1.71h-3.36v1.15h7.89c2.1,0,2.73,1,2.73,2.84,0,2.28-1.74,2.46-2.73,2.46h-.78a1.49,1.49,0,0,1,.57,1.2,10.37,10.37,0,0,1-1,3h1.89c2.1,0,2.7.93,2.7,2.88,0,2.28-1.71,2.46-2.7,2.46H235.53c-2.1,0-2.73-1-2.73-2.88,0-2.34,1.8-2.46,2.73-2.46h2.07l-.42-1c-.57-1.32-.6-1.47-.6-2a1.39,1.39,0,0,1,.66-1.23h-.9c-2.1,0-2.7-1-2.7-2.88,0-2.25,1.68-2.42,2.7-2.42h7.83V17.31H241c-1.17,0-2.37-.27-2.61-1.77-1.62.79-2.19,1.05-2.82,1.05-1.59,0-2.76-1.43-2.76-3.51,0-1.55,1-2.07,2.13-2.51a34.9,34.9,0,0,0,7-3.52c2.4-1.71,3-2.09,5.34-2.09m-3.39,7.29h6.48c-1-.72-2.22-1.83-2.76-2.34-.27-.24-.3-.28-.51-.28s-.3.07-.66.45a20.18,20.18,0,0,1-2.55,2.17m8.37,11.51h-2.55V28H251a1.29,1.29,0,0,1-.12-.6c0-.39.06-.54.6-1.86a9.51,9.51,0,0,1,.78-1.74m-9.3,4.2h1.23v-4.2h-2.49a10.2,10.2,0,0,1,1.38,3.57,2.1,2.1,0,0,1-.12.63m4.32-27c-3.52,0-4.9.87-7.66,2.84a30,30,0,0,1-5.9,2.93l-.34.14c-3,1.23-4.59,3.33-4.59,6.21a8,8,0,0,0,1.5,4.82,6.86,6.86,0,0,0-.63,3A7.37,7.37,0,0,0,231,25.45a6.1,6.1,0,0,0-2.19,5c0,4.25,2.58,6.88,6.73,6.88h22.74c3.34,0,6.7-2,6.7-6.46a6.82,6.82,0,0,0-2.07-5.33,6.33,6.33,0,0,0,1.41-4.21,8.05,8.05,0,0,0-.6-3.18,8.16,8.16,0,0,0,1.65-5c0-4.32-3-5.59-5.44-6.62a20.82,20.82,0,0,1-6.12-3.4l0,0A10.17,10.17,0,0,0,247.26,1Z"/></svg>