<svg id="materials" xmlns="http://www.w3.org/2000/svg" viewBox="0 0 300 40"><defs><style>.cls-1{fill:#fff;}.cls-2{fill:#474747;}</style></defs><title>pricing-page-title</title><path class="cls-1" d="M12.05,36.43a3.81,3.81,0,0,1-4-4.19v-.71a3.14,3.14,0,0,1-.7.07A4.6,4.6,0,0,1,3,27c0-1.49.49-2.09,1.94-3.86.34-.41.94-1.22,1.59-2.17-2.09-.33-3.26-1.78-3.26-4.08a3.91,3.91,0,0,1,1.23-3,7.51,7.51,0,0,1-.32-1.16,17.52,17.52,0,0,0-.6-2.18,5.26,5.26,0,0,1-.4-1.82c0-2.13,2-3.41,4-3.41a3.47,3.47,0,0,1,1.41.27,4,4,0,0,1,3.78-1.89A3.83,3.83,0,0,1,15.84,5.6a3.53,3.53,0,0,1,1.43-.29,4.41,4.41,0,0,1,2.67.8,4,4,0,0,1,2.19-.65,4.62,4.62,0,0,1,2.7.92c.7-2.75,3.43-2.75,4.41-2.75a3.82,3.82,0,0,1,4.13,4.19V19.37C35,19.92,36,21.55,36,23.78a3.49,3.49,0,0,1-2.64,3.65v4.69a4.05,4.05,0,0,1-1.46,3.4,5.43,5.43,0,0,1-3.15.82c-2.57,0-4.1-1.58-4.1-4.22v-3l-3.72.7a4.78,4.78,0,0,1-.84.08,3.72,3.72,0,0,1-2.72-1.15,3.46,3.46,0,0,1-1,.14h0v3.37C16.36,34.9,14.79,36.43,12.05,36.43ZM18.38,21l.55.6a3.57,3.57,0,0,1,.54-.13l.37-.07-.23-.22-.67-.59-.12-.11a3.76,3.76,0,0,1-.64.29C18.25,20.86,18.31,20.94,18.38,21Z"/><path class="cls-2" d="M29.24,5.63c1.71,0,2.13,1,2.13,2.19V21.29a2.56,2.56,0,0,1,.75-.12c1.77,0,1.89,2,1.89,2.61,0,1-.3,1.62-1.74,1.86l-.9.15v6.33A2.25,2.25,0,0,1,30.68,34a4.16,4.16,0,0,1-1.92.39c-1.68,0-2.1-1-2.1-2.22V26.69l-6.09,1.14a2.59,2.59,0,0,1-.47.05c-1,0-1.77-.72-1.87-2.21a2.17,2.17,0,0,1-1.83,1.2c-.93,0-1.53-.93-2-1.92v7.29c0,1.68-.78,2.19-2.31,2.19a1.88,1.88,0,0,1-2-2.19V26.78C9,28.7,8.33,29.6,7.34,29.6A2.62,2.62,0,0,1,5,27c0-.78.15-1,1.5-2.61A34.83,34.83,0,0,0,10,19H7.52c-1.62,0-2.25-.66-2.25-2.16a1.91,1.91,0,0,1,2.25-1.95H10v-7c0-1.62.75-2.19,2.31-2.19a1.88,1.88,0,0,1,2,2.19v7h2.13c1.56,0,2.22.66,2.22,2.16A1.91,1.91,0,0,1,16.49,19h-2a29.2,29.2,0,0,0,2.43,3.3c1.29,1.41,1.41,1.56,1.53,2,.18-.33.36-.72,1.44-.93l6.81-1.29V7.85c0-1.89.84-2.22,2.58-2.22m-12,1.68c1.47,0,2.07.81,2.07,1.53a16.29,16.29,0,0,1-.93,3.78c-.39,1.11-.78,1.53-1.53,1.53s-2-.51-2-1.53a3.77,3.77,0,0,1,.27-1.23c.27-.87.45-1.71.69-2.76.12-.45.3-1.32,1.41-1.32m-10.11,0c1,0,1.2.54,1.5,1.38a21.26,21.26,0,0,1,.93,3.9c0,1.11-1.23,1.5-2,1.5-1,0-1.23-.75-1.44-1.77A20.13,20.13,0,0,0,5.48,10a3.57,3.57,0,0,1-.3-1.2c0-1,1.17-1.41,2-1.41m15,.12a3.69,3.69,0,0,1,2.4,1.23c1.5,1.29,1.92,1.62,1.92,2.55a2.37,2.37,0,0,1-2.22,2.37c-.69,0-.87-.15-2.4-1.62-.24-.21-1.29-1.14-1.47-1.35a1.66,1.66,0,0,1-.33-1,2.16,2.16,0,0,1,2.1-2.16M21.2,15c.84,0,1.47.42,3,1.74,1,.84,1.41,1.26,1.41,2a2.59,2.59,0,0,1-2.31,2.49c-.72,0-.9-.18-2.37-1.53-.21-.21-1.2-1.05-1.41-1.26a1.41,1.41,0,0,1-.48-1.14A2.3,2.3,0,0,1,21.2,15m8-13.39c-2.74,0-4.35.92-5.29,2.1a6.1,6.1,0,0,0-1.82-.27A6,6,0,0,0,20,3.85a6.78,6.78,0,0,0-2.73-.54,6.49,6.49,0,0,0-.68,0,6,6,0,0,0-4.24-1.63A6.39,6.39,0,0,0,7.79,3.37q-.3,0-.63,0c-2.94,0-6,2-6,5.41a7.17,7.17,0,0,0,.51,2.47,16.36,16.36,0,0,1,.54,2c0,.08,0,.16,0,.23a6.24,6.24,0,0,0-1,3.46,6,6,0,0,0,2.18,4.91l0,.05C1.85,23.75,1,24.78,1,27a6.65,6.65,0,0,0,5.13,6.48,5.7,5.7,0,0,0,5.92,5c3.83,0,6.31-2.43,6.31-6.19v-.62a5.81,5.81,0,0,0,1.74.26,6.38,6.38,0,0,0,1.22-.12l1.34-.25v.61a5.83,5.83,0,0,0,6.1,6.22,7.18,7.18,0,0,0,4.42-1.27,6,6,0,0,0,2.19-5v-3.4A5.48,5.48,0,0,0,38,23.78a6.61,6.61,0,0,0-2.64-5.64V7.82a5.83,5.83,0,0,0-6.13-6.19Z"/><path class="cls-1" d="M40.29,35.41c-2.68,0-4.22-1.56-4.22-4.28,0-1.92,1.11-4,4.22-4h.11a5.59,5.59,0,0,1-.5-1.58c-2-.37-3.14-1.85-3.14-4.19a3.8,3.8,0,0,1,1.33-3.06,5.12,5.12,0,0,1-2.23-4.23,4,4,0,0,1,2.91-3.9,25.5,25.5,0,0,0,7.82-4.33c2.11-1.62,3-2.29,5.64-2.29,2.43,0,3.2.56,5.74,2.43l.12.09a32.7,32.7,0,0,0,7.28,4.14,3.92,3.92,0,0,1,2.9,3.8A5,5,0,0,1,66,18.37a4.18,4.18,0,0,1,1.23,3.31A3.7,3.7,0,0,1,64,25.59a9.72,9.72,0,0,1-.42,1.56h.1c2.66,0,4.19,1.56,4.19,4.28,0,1.92-1.1,4-4.19,4Z"/><path class="cls-2" d="M52.23,5.57c1.8,0,2.1.24,4.68,2.13a34.31,34.31,0,0,0,7.71,4.38c.78.3,1.65.66,1.65,1.95s-.72,2.88-2.34,2.88c-.57,0-1.23-.21-3.27-1.29-.06.81-.27,1.8-2.16,1.8H54.18v2H63c1.68,0,2.19.75,2.19,2.28,0,1.92-1.53,2-2.19,2H60.87c1,.42,1.14,1.08,1.14,1.38a9.85,9.85,0,0,1-1.74,4.11h3.36c1.65,0,2.19.75,2.19,2.28,0,1.92-1.5,2-2.19,2H40.29c-1.68,0-2.22-.75-2.22-2.28,0-1.92,1.56-2,2.22-2h3.36a1.3,1.3,0,0,1-.36-.42c-.06-.12-.66-1.47-.75-1.65-.6-1.41-.66-1.56-.66-1.95,0-1,.93-1.32,1.26-1.47H41c-1.65,0-2.19-.75-2.19-2.28a1.89,1.89,0,0,1,2.19-2h8.79v-2h-4.2c-1.65,0-2.13-.75-2.16-1.83a10.38,10.38,0,0,1-3.33,1.29c-1.35,0-2.19-1.56-2.19-2.79a2.16,2.16,0,0,1,1.65-2,27.43,27.43,0,0,0,8.28-4.59c2-1.56,2.49-1.89,4.44-1.89m-4.92,7.74h9.63a31.18,31.18,0,0,1-4.26-3.45c-.3-.27-.36-.39-.57-.39a.79.79,0,0,0-.57.36,27.46,27.46,0,0,1-4.23,3.48M58.23,23.66h-4v5.49h3a1.52,1.52,0,0,1-.84-1.32,2.56,2.56,0,0,1,.33-1.11c.06-.12.48-1,.63-1.38.39-1.05.51-1.38,1-1.68M46.77,29.15h3V23.66H45.63c.36.21.54.42,1,1.62A8.21,8.21,0,0,1,47.52,28a1.21,1.21,0,0,1-.75,1.14M52.23,1.57c-3.18,0-4.47.88-6.87,2.71a23.51,23.51,0,0,1-7.3,4l-.06,0a6,6,0,0,0-4.14,5.74,7,7,0,0,0,1.53,4.48,6.25,6.25,0,0,0-.63,2.81,6.28,6.28,0,0,0,1.87,4.75,5.82,5.82,0,0,0-2.56,5c0,3.81,2.44,6.28,6.22,6.28H63.63a5.77,5.77,0,0,0,6.19-6,6,6,0,0,0-2.51-5.25,6,6,0,0,0,1.88-4.5,7.42,7.42,0,0,0-.57-3A7,7,0,0,0,70.27,14c0-1.84-.73-4.32-4.17-5.67a30,30,0,0,1-6.82-3.88l-.12-.09c-2.64-1.94-3.85-2.82-6.93-2.82Z"/></svg>