<svg id="レイヤー_1" data-name="レイヤー 1" xmlns="http://www.w3.org/2000/svg" viewBox="0 0 300 40"><defs><style>.cls-1{fill:#fff;}.cls-2{fill:#474747;}</style></defs><title>pricing-page-title</title><path class="cls-1" d="M11,36.54a3.81,3.81,0,0,1-4-4.19v-.71a3.2,3.2,0,0,1-.7.07A4.6,4.6,0,0,1,2,27.1c0-1.49.49-2.09,1.94-3.86.34-.41.94-1.22,1.58-2.17C3.43,20.74,2.26,19.29,2.26,17a3.87,3.87,0,0,1,1.23-3,6.76,6.76,0,0,1-.32-1.16,18.2,18.2,0,0,0-.61-2.19,5.15,5.15,0,0,1-.39-1.81c0-2.14,2-3.41,4-3.41a3.7,3.7,0,0,1,1.41.26,4,4,0,0,1,3.78-1.88,3.8,3.8,0,0,1,3.48,1.88,3.58,3.58,0,0,1,1.44-.29,4.5,4.5,0,0,1,2.67.79,4.07,4.07,0,0,1,2.19-.64,4.66,4.66,0,0,1,2.7.92c.7-2.75,3.43-2.75,4.41-2.75a3.83,3.83,0,0,1,4.13,4.19V19.48C34,20,35,21.66,35,23.89a3.5,3.5,0,0,1-2.64,3.65v4.69a4.05,4.05,0,0,1-1.46,3.4,5.44,5.44,0,0,1-3.15.82c-2.57,0-4.1-1.58-4.1-4.22v-3l-3.72.69a4,4,0,0,1-.84.08,3.75,3.75,0,0,1-2.72-1.14,3.51,3.51,0,0,1-1,.14h0v3.37C15.35,35,13.78,36.54,11,36.54Zm6.33-15.41.54.6a4,4,0,0,1,.55-.13l.37-.07-.24-.22-.66-.6-.12-.1a4.15,4.15,0,0,1-.64.29Z"/><path class="cls-2" d="M28.23,5.74c1.71,0,2.13,1,2.13,2.19V21.4a2.56,2.56,0,0,1,.75-.12c1.77,0,1.89,2,1.89,2.61,0,1-.3,1.62-1.74,1.86l-.9.15v6.33a2.25,2.25,0,0,1-.69,1.83,4.16,4.16,0,0,1-1.92.39c-1.68,0-2.1-1-2.1-2.22V26.8l-6.09,1.14a2.56,2.56,0,0,1-.47,0c-1,0-1.77-.71-1.87-2.2A2.17,2.17,0,0,1,15.39,27c-.93,0-1.53-.93-2-1.92v7.29c0,1.68-.78,2.19-2.31,2.19a1.88,1.88,0,0,1-2-2.19V26.89c-1,1.92-1.71,2.82-2.7,2.82A2.62,2.62,0,0,1,4,27.1c0-.78.15-1,1.5-2.61A34.83,34.83,0,0,0,9,19.15H6.51c-1.62,0-2.25-.66-2.25-2.16A1.91,1.91,0,0,1,6.51,15H9V8c0-1.62.75-2.19,2.31-2.19a1.88,1.88,0,0,1,2,2.19v7h2.13c1.56,0,2.22.66,2.22,2.16a1.91,1.91,0,0,1-2.22,1.95h-2a29.2,29.2,0,0,0,2.43,3.3c1.29,1.41,1.41,1.56,1.53,2,.18-.33.36-.72,1.44-.93l6.81-1.29V8c0-1.89.84-2.22,2.58-2.22m-12,1.68c1.47,0,2.07.81,2.07,1.53a16.29,16.29,0,0,1-.93,3.78c-.39,1.11-.78,1.53-1.53,1.53s-2-.51-2-1.53a3.77,3.77,0,0,1,.27-1.23c.27-.87.45-1.71.69-2.76.12-.45.3-1.32,1.41-1.32m-10.11,0c1,0,1.2.54,1.5,1.38a21.26,21.26,0,0,1,.93,3.9c0,1.11-1.23,1.5-2,1.5-1.05,0-1.23-.75-1.44-1.77a20.13,20.13,0,0,0-.66-2.4,3.57,3.57,0,0,1-.3-1.2c0-1,1.17-1.41,2-1.41m15,.12a3.69,3.69,0,0,1,2.4,1.23c1.5,1.29,1.92,1.62,1.92,2.55a2.37,2.37,0,0,1-2.22,2.37c-.69,0-.87-.15-2.4-1.62-.24-.21-1.29-1.14-1.47-1.35a1.66,1.66,0,0,1-.33-1,2.16,2.16,0,0,1,2.1-2.16m-.93,7.56c.84,0,1.47.42,3,1.74,1,.84,1.41,1.26,1.41,2a2.59,2.59,0,0,1-2.31,2.49c-.72,0-.9-.18-2.37-1.53-.21-.21-1.2-1.05-1.41-1.26a1.41,1.41,0,0,1-.48-1.14,2.3,2.3,0,0,1,2.13-2.31m8-13.39c-2.74,0-4.35.92-5.29,2.1a6.15,6.15,0,0,0-1.82-.27A6,6,0,0,0,19,4a6.78,6.78,0,0,0-2.73-.54,6.49,6.49,0,0,0-.68,0,6,6,0,0,0-4.24-1.63A6.39,6.39,0,0,0,6.78,3.48q-.3,0-.63,0c-2.94,0-6,2-6,5.41a7.39,7.39,0,0,0,.5,2.47,14.33,14.33,0,0,1,.55,2,1.55,1.55,0,0,0,.05.23A6.16,6.16,0,0,0,.26,17a5.94,5.94,0,0,0,2.18,4.9l0,.06C.84,23.86,0,24.89,0,27.1a6.66,6.66,0,0,0,5.13,6.48,5.7,5.7,0,0,0,5.92,5c3.83,0,6.31-2.43,6.31-6.19v-.62a5.81,5.81,0,0,0,1.74.25,6.36,6.36,0,0,0,1.22-.11l1.34-.25v.61a5.83,5.83,0,0,0,6.1,6.22,7.18,7.18,0,0,0,4.42-1.27,6,6,0,0,0,2.19-5v-3.4A5.5,5.5,0,0,0,37,23.89a6.61,6.61,0,0,0-2.64-5.64V7.93a5.84,5.84,0,0,0-6.13-6.19Z"/><path class="cls-1" d="M38.28,35.52c-2.68,0-4.22-1.56-4.22-4.28,0-1.93,1.11-4,4.22-4h.11a5.59,5.59,0,0,1-.5-1.58c-2-.37-3.14-1.85-3.14-4.19a3.83,3.83,0,0,1,1.33-3.07,5.06,5.06,0,0,1-2.23-4.22,4,4,0,0,1,2.91-3.9A25.34,25.34,0,0,0,44.57,6c2.12-1.62,3-2.29,5.65-2.29,2.42,0,3.19.56,5.74,2.43l.12.09a32.22,32.22,0,0,0,7.28,4.14,3.92,3.92,0,0,1,2.9,3.8A5.05,5.05,0,0,1,64,18.48a4.18,4.18,0,0,1,1.23,3.31,3.71,3.71,0,0,1-3.24,3.91,9.72,9.72,0,0,1-.42,1.56h.1c2.66,0,4.19,1.56,4.19,4.28,0,1.92-1.1,4-4.19,4Z"/><path class="cls-2" d="M50.22,5.68c1.8,0,2.1.24,4.68,2.13a34.31,34.31,0,0,0,7.71,4.38c.78.3,1.65.66,1.65,2,0,1.14-.72,2.88-2.34,2.88-.57,0-1.23-.21-3.27-1.29-.06.81-.27,1.8-2.16,1.8H52.17v2H61c1.68,0,2.19.75,2.19,2.28,0,1.92-1.53,2-2.19,2H58.86c1,.42,1.14,1.08,1.14,1.38a9.85,9.85,0,0,1-1.74,4.11h3.36c1.65,0,2.19.75,2.19,2.28,0,1.92-1.5,2-2.19,2H38.28c-1.68,0-2.22-.75-2.22-2.28,0-1.92,1.56-2,2.22-2h3.36a1.3,1.3,0,0,1-.36-.42c-.06-.12-.66-1.47-.75-1.65-.6-1.41-.66-1.56-.66-2,0-1,.93-1.32,1.26-1.47H38.94c-1.65,0-2.19-.75-2.19-2.28a1.89,1.89,0,0,1,2.19-2h8.79v-2h-4.2c-1.65,0-2.13-.75-2.16-1.83A10.38,10.38,0,0,1,38,17c-1.35,0-2.19-1.56-2.19-2.79a2.16,2.16,0,0,1,1.65-2,27.43,27.43,0,0,0,8.28-4.59c2-1.56,2.49-1.89,4.44-1.89M45.3,13.42h9.63A31.18,31.18,0,0,1,50.67,10c-.3-.27-.36-.39-.57-.39a.79.79,0,0,0-.57.36,27.46,27.46,0,0,1-4.23,3.48M56.22,23.77h-4v5.49h3a1.52,1.52,0,0,1-.84-1.32,2.56,2.56,0,0,1,.33-1.11c.06-.12.48-1,.63-1.38.39-1.05.51-1.38,1-1.68M44.76,29.26h3V23.77H43.62c.36.21.54.42,1.05,1.62a8.21,8.21,0,0,1,.84,2.73,1.21,1.21,0,0,1-.75,1.14M50.22,1.68c-3.18,0-4.48.88-6.87,2.71a23.51,23.51,0,0,1-7.3,4l-.06,0a6,6,0,0,0-4.14,5.75,6.93,6.93,0,0,0,1.53,4.47,6.32,6.32,0,0,0-.63,2.82,6.27,6.27,0,0,0,1.86,4.75,5.83,5.83,0,0,0-2.55,5c0,3.81,2.44,6.28,6.22,6.28H61.62a5.77,5.77,0,0,0,6.19-6,6.08,6.08,0,0,0-2.51-5.26,6,6,0,0,0,1.88-4.49,7.25,7.25,0,0,0-.58-3,7,7,0,0,0,1.66-4.68c0-1.85-.73-4.32-4.18-5.67a29.82,29.82,0,0,1-6.82-3.89l-.12-.08C54.5,2.56,53.3,1.68,50.22,1.68Z"/></svg>