<svg id="materials" xmlns="http://www.w3.org/2000/svg" viewBox="0 0 460 39.07"><defs><style>.cls-1{fill:#515556;}.cls-2{fill:#fff;}</style></defs><title>process-title</title><g id="process-title"><path class="cls-1" d="M98.76,36.42c-3.15,0-5-1.72-5-4.72v-2H89.91c-5.38,0-6.51-3.53-6.51-6.49v-10c0-3,1.13-6.52,6.51-6.52h3.93a4.38,4.38,0,0,1,4.65-4c2.86,0,4.65,1.49,4.93,4h4c5.65,0,6.49,4.08,6.49,6.52v10c0,3-1.12,6.49-6.49,6.49h-4v2A4.42,4.42,0,0,1,98.76,36.42Z"/><path class="cls-1" d="M98.49,5.21c1.92,0,2.46.81,2.46,2.22v1.8h6.45c2.52,0,4,.87,4,4v10c0,3.21-1.53,4-4,4H101v4.5a2,2,0,0,1-2.19,2.22c-1.89,0-2.46-.75-2.46-2.22V27.2H89.91c-2.48,0-4-.78-4-4v-10c0-3.15,1.47-4,4-4H96.3V7.43a2,2,0,0,1,2.19-2.22m2.46,11h5.88v-2.1a.76.76,0,0,0-.84-.84h-5v2.94m-10.53,0H96.3V13.31h-5a.76.76,0,0,0-.85.84v2.1M101,23.09h5a.75.75,0,0,0,.84-.84V20H101v3.06m-9.68,0h5V20H90.42v2.22c0,.54.24.84.85.84M98.49.21a6.84,6.84,0,0,0-6.54,4h-2c-5.64,0-9,3.37-9,9v10c0,5.63,3.38,9,9,9h1.41c.21,4.1,3.09,6.72,7.44,6.72a6.86,6.86,0,0,0,7.18-6.72h1.46c5.63,0,9-3.36,9-9v-10c0-5.65-3.36-9-9-9h-2.06c-1.09-2.51-3.54-4-6.85-4Z"/><path class="cls-1" d="M128.1,35.19c-5.19,0-8.64-1.4-10.86-4.41-1.26-1.68-2-3.71-2-9.55,0-.74.19-12.63.26-13.24.37-3.85,3.39-4.44,5.15-4.44a4.65,4.65,0,0,1,5,5.05c0,.42-.19,4.67-.21,5-.2,4-.27,5.23-.27,8.66,0,2.87.08,3.35,2.78,3.35,3.9,0,5.51-1.26,6.15-4.82.33-1.79.94-5.11,5-5.11,3.11,0,5.2,1.88,5.2,4.69A16.83,16.83,0,0,1,141,29.62C138.24,33.32,133.9,35.19,128.1,35.19Z"/><path class="cls-1" d="M120.69,6.05a2.21,2.21,0,0,1,2.46,2.55c0,.3-.17,4.26-.21,4.86-.21,4.11-.27,5.34-.27,8.79,0,3,.21,5.85,5.28,5.85,5.25,0,7.77-2.25,8.61-6.87.33-1.8.57-3.06,2.55-3.06.45,0,2.7,0,2.7,2.19A14.31,14.31,0,0,1,139,28.13c-2.4,3.21-6.15,4.56-10.89,4.56-4.47,0-7.16-1.11-8.85-3.39-.81-1.08-1.47-2.49-1.47-8.07,0-2.07.21-12.69.24-12.93.12-1.26.54-2.25,2.67-2.25m0-5c-4.31,0-7.24,2.6-7.64,6.78h0c-.11,1.66-.27,13.29-.27,13.4,0,5.81.63,8.61,2.47,11.07,2.67,3.61,6.88,5.39,12.85,5.39,6.63,0,11.64-2.21,14.9-6.57a19.27,19.27,0,0,0,3.81-10.76c0-4.17-3.23-7.19-7.7-7.19-6.15,0-7.14,5.39-7.46,7.16a4.25,4.25,0,0,1-.91,2.2,5,5,0,0,1-2.79.57h-.26c0-.23,0-.51,0-.84,0-3.37.07-4.57.27-8.54,0,0,.21-4.58.21-5.11,0-5.22-3.74-7.55-7.46-7.55Z"/><path class="cls-1" d="M150.9,16c-1.76,0-2.49-.69-4.26-2.36l-.11-.11c-.2-.2-.76-.68-1.31-1.16s-1.24-1.09-1.45-1.3a4.34,4.34,0,0,1-1.37-3,5,5,0,0,1,4.87-5c1.48,0,2.73.66,5.16,2.72,1.45,1.24,3.43,2.92,3.43,5.27A5.11,5.11,0,0,1,150.9,16Z"/><path class="cls-1" d="M147.27,5.54c.51,0,1.17.12,3.54,2.13,1.21,1,2.55,2.19,2.55,3.36a2.65,2.65,0,0,1-2.46,2.49c-.78,0-1-.18-2.61-1.74-.42-.42-2.36-2.07-2.76-2.46a1.91,1.91,0,0,1-.63-1.26,2.47,2.47,0,0,1,2.37-2.52m0-5a7.45,7.45,0,0,0-7.37,7.52,6.9,6.9,0,0,0,2.16,4.86c.3.29.74.67,1.52,1.35.39.34,1,.91,1.2,1.07l.08.07.06.06c1.87,1.77,3.23,3,6,3A7.67,7.67,0,0,0,158.36,11c0-3.51-2.69-5.8-4.31-7.17-2.54-2.15-4.37-3.32-6.78-3.32Z"/><path class="cls-1" d="M170.31,30.12c-2.16,0-3.88-1.25-5.92-4.33-.39-.58-.75-1.18-1.08-1.79-.38.57-.79,1.12-1.22,1.65-2.45,3.09-4.47,4.47-6.54,4.47a5.07,5.07,0,0,1-5-5,4.43,4.43,0,0,1,1.55-3.35A18.3,18.3,0,0,0,158.32,13H157a4.43,4.43,0,0,1-4.75-4.69A4.45,4.45,0,0,1,157,3.58h5.37c5.64,0,6,3.89,6.21,6.47A18.94,18.94,0,0,0,170,16a15,15,0,0,0,3,4.58c1.35,1.51,2.31,2.57,2.31,4.43A5.2,5.2,0,0,1,170.31,30.12Z"/><path class="cls-1" d="M162.36,6.08c3.36,0,3.48,1.53,3.72,4.23A21.46,21.46,0,0,0,167.73,17a17.72,17.72,0,0,0,3.48,5.31c1.35,1.5,1.65,1.92,1.65,2.73a2.72,2.72,0,0,1-2.55,2.58c-.9,0-1.95-.36-3.84-3.21a20.4,20.4,0,0,1-2.85-6.51,21.61,21.61,0,0,1-3.48,6.18c-1.26,1.59-3.06,3.54-4.59,3.54a2.59,2.59,0,0,1-2.46-2.52,1.89,1.89,0,0,1,.64-1.41,20.91,20.91,0,0,0,4.76-5.25,17.89,17.89,0,0,0,2.82-7.38c0-.42-.3-.54-.66-.54H157a2,2,0,0,1-2.25-2.19A2,2,0,0,1,157,6.08h5.37m0-5H157a6.94,6.94,0,0,0-7.25,7.25,6.83,6.83,0,0,0,4.89,6.86l-.33.53a16.08,16.08,0,0,1-3.84,4.19,6.94,6.94,0,0,0-2.37,5.19,7.6,7.6,0,0,0,7.46,7.52c3.17,0,5.66-2.1,7.56-4.29,1.68,2.27,3.88,4.29,7.2,4.29A7.66,7.66,0,0,0,177.86,25c0-2.82-1.49-4.47-2.93-6.08l-.05-.05A12.65,12.65,0,0,1,172.33,15a16.11,16.11,0,0,1-1.26-5.1V9.87a11,11,0,0,0-1.53-5.5c-1.47-2.18-3.89-3.29-7.17-3.29Z"/><path class="cls-1" d="M146.86,36a5.19,5.19,0,0,1-5-5.23A4.76,4.76,0,0,1,144,26.82c.7-.54,1-.8,1.43-1.13V22.92A4.27,4.27,0,0,1,142,18.47c0-3,1.77-4.81,4.72-4.81h1.87c4.53,0,6.21,1.68,6.21,6.19v5.28c.23,1,2.29,1.1,2.93,1.1h13.14a4.44,4.44,0,0,1,4.66,4.63,4.5,4.5,0,0,1-4.69,4.72h-12.9A12.07,12.07,0,0,1,151,33.76l-.19.21A5.27,5.27,0,0,1,146.86,36Z"/><path class="cls-1" d="M148.56,16.16c3.13,0,3.72.57,3.72,3.69v5.46c.27,2.52,2.73,3.42,5.43,3.42h13.14A2,2,0,0,1,173,30.86a2.05,2.05,0,0,1-2.19,2.22h-12.9c-4.83,0-6.44-2-7.17-3A12,12,0,0,1,149,32.24c-.88.9-1.33,1.26-2.17,1.26a2.67,2.67,0,0,1-2.51-2.73,2.31,2.31,0,0,1,1.17-2c1.13-.87,1.31-1,2.39-1.92V21.32c0-.21,0-.78-.54-.78h-.8a1.87,1.87,0,0,1-2.08-2.07c0-1.62.63-2.31,2.22-2.31h1.86m0-5H146.7c-4.31,0-7.22,2.94-7.22,7.31a6.89,6.89,0,0,0,3.32,6.09l-.33.25-.05,0a7.34,7.34,0,0,0-3.08,5.92,7.63,7.63,0,0,0,7.51,7.73,7,7,0,0,0,4.56-1.66,15.75,15.75,0,0,0,6.51,1.24h12.9A7,7,0,0,0,178,30.86a6.91,6.91,0,0,0-7.16-7.13H157.71l-.43,0V19.85c0-5.85-2.85-8.69-8.72-8.69Z"/><path class="cls-1" d="M190,35.43a5.05,5.05,0,0,1-4.54-3.18,6.39,6.39,0,0,1-4.27,1.59,9,9,0,0,1-8.54-9.31,10.32,10.32,0,0,1,7.21-10,16.3,16.3,0,0,1,2.93-.74,0,0,0,0,0,0,0l-.6,0c-1.36.08-2.22.13-2.64.13a4.5,4.5,0,0,1-4.9-4.78c0-4.34,3.73-4.81,5.32-4.81h1.68c.6,0,3.28-.08,4.56-.12l1,0c5.61,0,5.89,4.26,5.89,5.11v.09a5.17,5.17,0,0,1,3.29-1c1.91,0,5.11.73,5.11,5.59,0,1.14-.08,2.53-.17,3.8,1.89,1,3.56,2.29,3.56,4.78s-2,5.17-4.78,5.17a5,5,0,0,1-.79-.06C197.25,32.14,193.44,35.43,190,35.43Zm0-11.83c-.14.46-.3,1-.49,1.5a3.56,3.56,0,0,0,1-1.34Z"/><path class="cls-1" d="M187.17,6.74c.84,0,3.39,0,3.39,2.61a23.59,23.59,0,0,1-.51,3.51c-.09.57-.72,3-.84,3.51a46.88,46.88,0,0,1,4.68,1.14c0-.78-.06-4.29.09-5s.54-1.62,2.37-1.62c2.31,0,2.61,1.41,2.61,3.09s-.18,3.78-.3,5.31c2.22,1,3.69,1.71,3.69,3.27,0,1-.87,2.67-2.28,2.67-.72,0-1.11-.24-2.25-.87-1.26,4.74-5.07,8.55-7.86,8.55a2.57,2.57,0,0,1-2.4-2.46c0-1.17.42-1.44,3.15-3.21.69-.45,2.25-1.8,2.76-5a20.23,20.23,0,0,0-5.31-1.65,36.94,36.94,0,0,1-2.52,7.11c-.87,1.77-2.1,3.6-4.5,3.6-2.75,0-6-2.43-6-6.81a7.84,7.84,0,0,1,5.55-7.59,13.58,13.58,0,0,1,4.08-.78c.09-.39.54-2.07.57-2.34.06-.42.3-1.65.3-1.89,0-.63-.39-.72-.87-.72-.84,0-4.47.27-5.22.27a2.07,2.07,0,0,1-2.4-2.28c0-2.31,1.74-2.31,2.82-2.31h1.68c.87,0,5.43-.15,5.55-.15m-6.57,20c.63,0,1.11-.75,1.65-2.07a25.16,25.16,0,0,0,1.44-4.41,10.74,10.74,0,0,0-1.88.48,4,4,0,0,0-2.67,3.84c0,1.74,1.1,2.16,1.46,2.16m6.57-25-1.06,0c-1.18,0-3.93.12-4.49.12h-1.68a8.65,8.65,0,0,0-4.07.83,7,7,0,0,0-3.75,6.48,7.1,7.1,0,0,0,2.43,5.57,12.66,12.66,0,0,0-4.44,9.76,12,12,0,0,0,3.46,8.59,10.86,10.86,0,0,0,7.57,3.22,8.86,8.86,0,0,0,3.55-.7A7.35,7.35,0,0,0,190,37.93c4.4,0,8.4-3.46,10.82-7.72,4-.39,6.57-4.13,6.57-7.63a7.08,7.08,0,0,0-3.47-6.15c.05-.84.08-1.68.08-2.43,0-6-3.93-8.09-7.61-8.09a8.75,8.75,0,0,0-1.47.12c-1.36-2.94-4.54-4.29-7.71-4.29Z"/><path class="cls-1" d="M228,26.16a4.29,4.29,0,0,1-4.54-4.29c-.14-2.06-.37-5.44-1.78-6.87l-1.24-1.26a4.12,4.12,0,0,1-1.13-2.87,4.34,4.34,0,0,1,1.83-3.49,4.81,4.81,0,0,1,2.8-.89,6,6,0,0,1,4.35,2.11,15.47,15.47,0,0,1,4,7.36,25.93,25.93,0,0,1,.66,5.35C233,24.3,231.06,26.16,228,26.16Z"/><path class="cls-1" d="M223.92,9c.5,0,1.23.06,2.6,1.4a13.06,13.06,0,0,1,3.36,6.19,22.57,22.57,0,0,1,.59,4.73c0,.59,0,2.35-2.49,2.35a1.82,1.82,0,0,1-2-2c-.16-2.46-.42-6.35-2.49-8.45L222.21,12a1.64,1.64,0,0,1-.42-1.12,1.89,1.89,0,0,1,.78-1.46A2.3,2.3,0,0,1,223.92,9m0-5a7.27,7.27,0,0,0-4.29,1.38,6.82,6.82,0,0,0-2.84,5.5,6.64,6.64,0,0,0,1.86,4.63l1.22,1.24c.77.78,1,4.15,1.07,5.25V22a6.77,6.77,0,0,0,7,6.62,7.1,7.1,0,0,0,7.49-7.35,28,28,0,0,0-.73-5.93A18,18,0,0,0,230,6.83,8.38,8.38,0,0,0,223.92,4Z"/><path class="cls-1" d="M217,34.39a11.89,11.89,0,0,1-5.39-1.28,5.32,5.32,0,0,1-.71-.42A4.26,4.26,0,0,1,207.7,34c-2.71,0-5.1-2.16-5.1-4.63a7,7,0,0,1,1.25-3.62l.06-.11A44.45,44.45,0,0,0,206.72,19a4.33,4.33,0,0,1-4.12-4.62,4.36,4.36,0,0,1,3.63-4.54l.11,0a25.28,25.28,0,0,1,2.84-.28c.2-1,.34-1.69.43-2h0a4.25,4.25,0,0,1,4.31-3.19,6.8,6.8,0,0,1,2.73.61,4,4,0,0,1,2.26,3.71c0,.21,0,.42,0,.67A7.35,7.35,0,0,1,221,10c3.19,1.4,4.81,4.89,4.81,10.34C225.77,24.52,225.77,34.39,217,34.39Zm-2.25-9.82c.28.08.59.19,1,.33l.29.1c0-.06,0-.13,0-.21a24.47,24.47,0,0,0,.42-5.05c0-.21,0-.39,0-.55C215.94,20.92,215.37,22.73,214.72,24.57Z"/><path class="cls-1" d="M213.92,6.89a4.16,4.16,0,0,1,1.65.37,1.49,1.49,0,0,1,.84,1.45,12.83,12.83,0,0,1-.56,3h.88a8,8,0,0,1,3.21.49c2.86,1.26,3.33,5.21,3.33,8.06,0,8-1.57,11.6-6.3,11.6a9.33,9.33,0,0,1-4.25-1,1.87,1.87,0,0,1-1.18-1.79c0-.28.11-2.22,1.82-2.22a3.45,3.45,0,0,1,1.49.37,5.22,5.22,0,0,0,1.73.36c1.18,0,1.54-.59,1.9-2.29a26.45,26.45,0,0,0,.48-5.58c0-2.85-.42-4-3.08-4-.33,0-.67,0-1.06.05a92.19,92.19,0,0,1-4.59,13.28c-1,2.21-1.8,2.43-2.53,2.43-1.26,0-2.6-1-2.6-2.13,0-.7.25-1.14,1-2.55a52,52,0,0,0,4.09-10.63l-3.06.33a1.88,1.88,0,0,1-2-2.13,1.84,1.84,0,0,1,1.68-2.1,41.87,41.87,0,0,1,4.48-.36c.11-.59.64-3.36.76-3.7a1.76,1.76,0,0,1,1.9-1.37m0-5a6.72,6.72,0,0,0-6.68,4.9,4.44,4.44,0,0,0-.12.44c-.45,0-.83.1-1.22.17l-.15,0a6.83,6.83,0,0,0-5.65,7,7,7,0,0,0,3.38,6.19,36.31,36.31,0,0,1-1.73,3.8l0,.07-.06.11a9.3,9.3,0,0,0-1.55,4.81,7.47,7.47,0,0,0,7.6,7.13,6.79,6.79,0,0,0,3.4-.87A14.61,14.61,0,0,0,217,36.9c11.3,0,11.3-12.49,11.3-16.6,0-8.14-3.43-11.37-6.31-12.64l-.67-.26a6.41,6.41,0,0,0-3.48-4.62l-.07,0a9.13,9.13,0,0,0-3.82-.86Z"/><path class="cls-1" d="M244.92,34.06c-1.44,0-6-.19-8-1a4.54,4.54,0,0,1-2.67-4.26,4.77,4.77,0,0,1,1-2.89c-2.3-1-2.59-3.62-2.59-4.89a72.48,72.48,0,0,1,.55-8.15,4.25,4.25,0,0,1,4.49-3.43c3.54,0,4.8,2.35,4.8,4.35,0,.11,0,.24,0,.42a19.66,19.66,0,0,1,5.89-.87c6.91,0,11.38,3.75,11.38,9.55,0,4.15-1.71,7.31-5,9.12C252.25,33.42,249.2,34.06,244.92,34.06Zm-3.67-9.42a21.72,21.72,0,0,0,3.56.33,10.57,10.57,0,0,0,4.53-.79,1.07,1.07,0,0,0,.72-1.13c0-.77-1.71-.83-2.23-.83a9.71,9.71,0,0,0-6,1.85c-.12.09-.31.28-.51.46Z"/><path class="cls-1" d="M237.69,11.9c1.6,0,2.3.65,2.3,1.85,0,.34-.22,2.3-.25,2.72-.09.87-.09,1.29-.12,1.76a16.05,16.05,0,0,1,8.74-2.43c5.24,0,8.88,2.43,8.88,7.05,0,3.78-1.63,5.8-3.67,7s-4.82,1.76-8.65,1.76a26.23,26.23,0,0,1-7-.84,2.11,2.11,0,0,1-1.15-2,1.91,1.91,0,0,1,1.9-2,7,7,0,0,1,1.23.2,26.57,26.57,0,0,0,4.91.53,13.48,13.48,0,0,0,5.71-1.09,3.5,3.5,0,0,0,2-3.33c0-3.22-3.78-3.33-4.73-3.33a12.2,12.2,0,0,0-7.45,2.35c-.28.19-1.34,1.26-1.6,1.4a3,3,0,0,1-1.37.31c-2.27,0-2.27-1.74-2.27-2.8a72.68,72.68,0,0,1,.51-7.62,1.81,1.81,0,0,1,2-1.46m0-5a6.79,6.79,0,0,0-6.94,5.44,76,76,0,0,0-.61,8.64,8.58,8.58,0,0,0,.82,4,6.5,6.5,0,0,0,1.13,1.63,7.31,7.31,0,0,0-.32,2.12,7.07,7.07,0,0,0,4.16,6.55c2.93,1.23,8.93,1.25,9,1.25,4.67,0,8.2-.77,11.11-2.41s6.21-4.84,6.21-11.3c0-7.21-5.58-12-13.88-12a22.23,22.23,0,0,0-3.85.32,7,7,0,0,0-6.82-4.22Z"/><path class="cls-1" d="M251.36,15a84.83,84.83,0,0,1-10.17-1c-2.54-.37-6-.88-6-4.77a4.38,4.38,0,0,1,4.38-4.63,18.13,18.13,0,0,1,2.84.43l1,.18a68.29,68.29,0,0,0,7.14.57c1.72.07,5.72.25,5.72,4.74a4.62,4.62,0,0,1-1.64,3.54A4.72,4.72,0,0,1,251.36,15Z"/><path class="cls-1" d="M239.54,7.14c.59,0,3.05.54,3.56.59a69,69,0,0,0,7.33.59c2,.08,3.31.2,3.31,2.24a2.2,2.2,0,0,1-.68,1.57,2.39,2.39,0,0,1-1.7.39,85.22,85.22,0,0,1-9.8-.95c-3.05-.45-3.9-.79-3.9-2.3,0-.22,0-2.13,1.88-2.13m0-5a6.86,6.86,0,0,0-6.88,7.13c0,6,5.73,6.89,8.17,7.24a87.23,87.23,0,0,0,10.53,1A7.2,7.2,0,0,0,256.18,16a7.15,7.15,0,0,0,2.56-5.48,6.79,6.79,0,0,0-3.66-6.32,10.75,10.75,0,0,0-4.43-.92,66.5,66.5,0,0,1-6.87-.54h-.07l-.86-.16a19.5,19.5,0,0,0-3.31-.47Z"/><path class="cls-1" d="M274.64,36.12a5.1,5.1,0,0,1-5.05-4.87,3.74,3.74,0,0,1,.54-2.06c-.26-.52-.49-1.1-.73-1.72l-.1-.22a7.19,7.19,0,0,1-.9-2.84,4.28,4.28,0,0,1,4.44-4.18,4,4,0,0,1,2.26.66c.11-.36.2-.73.29-1.1.12-.53.23-1.19.31-1.79A4.16,4.16,0,0,1,272,14.61H262.4a4.26,4.26,0,0,1-4.56-4.54A4.28,4.28,0,0,1,262.4,5.5h1.19a4.21,4.21,0,0,1,4.31-2.85c3.11,0,4.23,1.56,4.63,2.85h1a5,5,0,0,1,2.48.6,4.22,4.22,0,0,1,4.41-3.45c4.4,0,4.87,3.28,4.87,4.69V8.56h1.19a4.4,4.4,0,0,1,4.75,4.63c0,3-1.77,4.87-4.75,4.87h0a5.85,5.85,0,0,1,.09,1.07v2.76H287c1.27,0,4.21.44,4.21,4.54,0,8.37-1.57,9.64-7,9.64-2.61,0-4.52-.42-5.55-2.09A5.09,5.09,0,0,1,274.64,36.12Z"/><path class="cls-1" d="M280.46,5.15c1.59,0,2.37.48,2.37,2.19v3.72h3.69a2,2,0,0,1,2.25,2.13c0,1.89-.9,2.37-2.25,2.37h-3.9v.66c0,.18,0,.66,0,1.05a1.61,1.61,0,0,1,1.5,1.86v8.94c0,.42.12.6.48.6.72,0,.81,0,.84-1,0-.48.09-2.31.09-2.4a1.38,1.38,0,0,1,1.5-.93c1.62,0,1.71,1,1.71,2,0,7.14-.6,7.14-4.5,7.14-3.21,0-3.93-.42-3.93-3.69v-3.3a25.19,25.19,0,0,1-3.21,5.4c-1.05,1.29-1.59,1.65-2.43,1.65a2.63,2.63,0,0,1-2.55-2.37c0-.69.15-.84,1.41-2.28-.87-.15-1.05-.54-1.77-2.4a13.9,13.9,0,0,1-.84-2.16c0-1.47,1.59-1.68,1.95-1.68a1.61,1.61,0,0,1,1.47.9,16.93,16.93,0,0,1,1.26,2.52,20.92,20.92,0,0,0,2.25-5.79,28.26,28.26,0,0,0,.57-4.14v-.66h-1.77a2,2,0,0,1-2.25-2.22,3,3,0,0,1,.3-1.41,2.66,2.66,0,0,1-1.11.18H262.4a1.81,1.81,0,0,1-2.06-2c0-1.68,1-2.07,2.06-2.07h3.49V6.89c0-1.11.63-1.74,2-1.74s2.34.3,2.34,1.74V8h3.33a1.81,1.81,0,0,1,2.07,2,3,3,0,0,1-.24,1.23,2.8,2.8,0,0,1,1.23-.21h1.8V7.34c0-.81.15-2.19,2-2.19m0-5a6.78,6.78,0,0,0-5.81,2.92l-.55,0A7.44,7.44,0,0,0,267.89.15,6.9,6.9,0,0,0,262.06,3a6.73,6.73,0,0,0-6.72,7.06,6.75,6.75,0,0,0,7.06,7h7.88a6.07,6.07,0,0,0,.59.9,6.58,6.58,0,0,0-5,6.4A9.22,9.22,0,0,0,267,28.26l.09.2c.09.24.18.49.29.74a6.69,6.69,0,0,0-.31,2.05,7.66,7.66,0,0,0,7.55,7.37,6.9,6.9,0,0,0,4-1.25,10.35,10.35,0,0,0,5.56,1.19c2.39,0,5.65,0,7.79-3,1.59-2.24,1.71-5.08,1.71-9.15,0-3.66-1.79-5.65-3.93-6.52a6.94,6.94,0,0,0,4-6.71,6.79,6.79,0,0,0-6-7c-.49-3.69-3.24-6-7.3-6Z"/><path class="cls-1" d="M286.43,13.32a4.11,4.11,0,0,1-3.75-2.24A10.1,10.1,0,0,1,281.14,7a4.32,4.32,0,0,1,4.24-4.21,4.15,4.15,0,0,1,4,2.15A8.67,8.67,0,0,1,291,9.11,4.36,4.36,0,0,1,286.43,13.32Z"/><path class="cls-1" d="M285.38,5.27a1.71,1.71,0,0,1,1.86,1,7.09,7.09,0,0,1,1.26,2.85c0,1.2-1.2,1.71-2.07,1.71a1.62,1.62,0,0,1-1.56-.93A12.39,12.39,0,0,1,283.64,7c0-1.53,1.71-1.71,1.74-1.71m0-5a7.32,7.32,0,0,0-3.28.9A6.55,6.55,0,0,0,278.64,7c0,.58,0,1.95,1.85,5.32a6.59,6.59,0,0,0,5.94,3.52,6.82,6.82,0,0,0,7.07-6.71c0-.6,0-2.41-2.06-5.57A6.56,6.56,0,0,0,285.38.27Z"/><path class="cls-1" d="M266.61,36.15a5.7,5.7,0,0,1-4.36-1.33,4.24,4.24,0,0,1-.5-.62,4.34,4.34,0,0,1-4-4.15,7.22,7.22,0,0,1,.66-2.76,24.94,24.94,0,0,0,.75-2.65,8.22,8.22,0,0,1,.62-2,8,8,0,0,1-.84-4.09V17.09c0-4.56,1.71-6.25,6.28-6.25h5.73c4.58,0,6.28,1.69,6.28,6.25v1.44c0,3.91-1.24,5.73-4.47,6.17v5.92C272.73,35.22,270.39,36.15,266.61,36.15Z"/><path class="cls-1" d="M270.92,13.34c3.18,0,3.78.6,3.78,3.75v1.44c0,3.15-.57,3.78-3.78,3.78h-.69v8.31c0,2.49-.36,3-3.63,3-1.65,0-3.15,0-3.12-2.43a1.33,1.33,0,0,1-1.2.51c-.77,0-2.06-.51-2.06-1.68a4.88,4.88,0,0,1,.51-1.89,28.65,28.65,0,0,0,.83-3c.3-1.44.49-2.25,1.8-2.25.39,0,1.92.18,1.92,1.47a21.78,21.78,0,0,1-1.08,5.13c.33-.21.45-.21,1.47-.24.39,0,.66-.21.66-.72V22.31h-1.14c-3.12,0-3.78-.54-3.78-3.78V17.09c0-3.09.54-3.75,3.78-3.75h5.73m-4.59,5.55h3.51a.54.54,0,0,0,.6-.6v-1a.54.54,0,0,0-.6-.6h-3.51a.54.54,0,0,0-.6.6v1a.55.55,0,0,0,.6.6m4.59-10.55h-5.73c-5.9,0-8.78,2.86-8.78,8.75v1.44a12,12,0,0,0,.65,4.18,13.11,13.11,0,0,0-.38,1.41,21.83,21.83,0,0,1-.66,2.34,9.51,9.51,0,0,0-.8,3.59,6.72,6.72,0,0,0,5.15,6.42l.1.11a8.1,8.1,0,0,0,6.13,2.07c2.09,0,4.47-.14,6.38-1.86,2.25-2,2.25-4.82,2.25-6.17v-4c4.47-1.72,4.47-6.17,4.47-8.09V17.09c0-5.89-2.87-8.75-8.78-8.75Z"/><path class="cls-1" d="M298.07,36.36c-2.46,0-4-1.32-4.31-3.58a12.07,12.07,0,0,1-2.07.31c-2.43,0-4.18-2.09-4.18-5a4.19,4.19,0,0,1,1.35-3.31V11.39a4.64,4.64,0,0,1-1.14-3.24,4.24,4.24,0,0,1,4.44-4.6h6.63a4.63,4.63,0,0,1,2.63.72,4.24,4.24,0,0,1,3.46-1.62A4.46,4.46,0,0,1,308.36,4a4.5,4.5,0,0,1,3.36-1.31,4.16,4.16,0,0,1,4.45,4.54c0,2.09,0,2.88,0,4.79h.57c3.44,0,4.66,2.35,4.66,4.36a5,5,0,0,1-.72,2.75,3.58,3.58,0,0,1,.24,1.33,11.46,11.46,0,0,1-1.48,4.44,4.19,4.19,0,0,1,2.38,3.84,8.71,8.71,0,0,1-2.06,5.09,5.86,5.86,0,0,1-4.85,2.48A5.2,5.2,0,0,1,311.27,35a4.48,4.48,0,0,1-2.85,1,4.41,4.41,0,0,1-3.09-1.26h-1a10.82,10.82,0,0,1-2.65-.28A4,4,0,0,1,298.07,36.36Z"/><path class="cls-1" d="M304.88,5.15c.6,0,2,.06,2,1.62V7.85h1.44c1,0,1.32.36,1.5.78,0-1.65,0-1.83,0-2.13.15-1.32,1.59-1.32,1.89-1.32,1.77,0,1.95,1.05,1.95,2,0,2.82,0,3.27,0,7.29h3.06c.72,0,2.16.09,2.16,1.86,0,1.38-.51,2.1-2.16,2.1h-3c.09,1.65.12,2.43.21,3.81.39-.75.87-2,1.32-2.73a1.12,1.12,0,0,1,1.08-.57c.78,0,2.07.42,2.07,1.47s-1.8,4.8-3.63,7.29c.18.45.48,1,.81,1s.45-.33.63-.75.42-1.05,1.23-1.05a1.8,1.8,0,0,1,1.86,1.8,6.28,6.28,0,0,1-1.53,3.54,3.37,3.37,0,0,1-2.88,1.53c-1.53,0-2.37-.75-3.21-2.52-2.22,2.07-2.67,2.19-3.3,2.19a2.1,2.1,0,0,1-1.86-1.26h-2.25c-3.09,0-3.69-.54-3.69-3.69V23c0-3.12.6-3.69,3.69-3.69h1.35c3.09,0,3.72.54,3.72,3.69v5c.51-.48.78-.72,1.23-1.17a64.78,64.78,0,0,1-.66-8.43h-9.09a1.42,1.42,0,0,1-1.13-.39V32c0,.75-.13,1.83-1.66,1.83-1.2,0-1.86-.33-1.86-1.83V29.57a31.08,31.08,0,0,1-4.52,1c-1.21,0-1.68-1.32-1.68-2.46,0-1.47.75-1.65,1.34-1.8V10.13c-.59-.18-1.13-.78-1.13-2,0-2,1.31-2.1,1.94-2.1h6.63c1.08,0,1.89.3,1.89,2.16A2,2,0,0,1,302,7.85h1.11V6.77a1.56,1.56,0,0,1,1.77-1.62m-5.15,9.72a1.64,1.64,0,0,1,1.13-.36h.72a20.56,20.56,0,0,0-.36-2.85c-1-.18-1.08-1.32-1.11-1.83a.64.64,0,0,1-.38.24v4.8m-5-2.13h1.44V10.19h-1.44v2.55m13.47,1.77h1.62L309.8,11a1.18,1.18,0,0,1-1.11.75c-.21,1.35-.21,1.5-.45,2.79m-3.9,0h1.08a20.42,20.42,0,0,0,.33-2.76h-1.62c.18,2.25.21,2.49.21,2.76m-9.57,4.59h1.44V16.49h-1.44V19.1m9.21,5h2.16V23a.5.5,0,0,0-.57-.57h-1A.5.5,0,0,0,304,23v1.08m-9.21,1.74c.6-.12.69-.12,1.44-.3V22.91h-1.44v2.94m9.78,3h1a.51.51,0,0,0,.57-.57V27.05H304v1.23a.51.51,0,0,0,.57.57m.33-28.7a7,7,0,0,0-4,1.18,8.06,8.06,0,0,0-2.13-.28h-6.63a6.72,6.72,0,0,0-6.94,7.1,7.51,7.51,0,0,0,1.13,4.07V23.86A7.31,7.31,0,0,0,285,28.13c0,4.25,2.87,7.46,6.68,7.46h.37a6.54,6.54,0,0,0,6,3.28,6.62,6.62,0,0,0,4.62-1.73c.51,0,1.05.08,1.62.08h.15a6.86,6.86,0,0,0,4,1.26,6.51,6.51,0,0,0,2.74-.57,7.87,7.87,0,0,0,3.77.9,8.39,8.39,0,0,0,6.79-3.41,11,11,0,0,0,2.62-6.66,6.56,6.56,0,0,0-1.77-4.61,10.26,10.26,0,0,0,.87-3.67,7.2,7.2,0,0,0-.08-1.05,7.94,7.94,0,0,0,.56-3,6.61,6.61,0,0,0-5.24-6.66c0-.71,0-1.43,0-2.49a6.63,6.63,0,0,0-6.95-7,7.5,7.5,0,0,0-3.32.74,7.79,7.79,0,0,0-3.52-.77Z"/><path class="cls-1" d="M316.7,16.2c-3,0-3.63-2.37-4-3.94-.11-.39-.45-1.59-.57-2a7.68,7.68,0,0,1-.56-2.51,4.3,4.3,0,0,1,4.45-4c2.77,0,3.62,2.3,4.12,3.68A23.24,23.24,0,0,1,321.24,12,4.33,4.33,0,0,1,316.7,16.2Z"/><path class="cls-1" d="M316,6.29c.93,0,1.23.57,1.77,2a23.12,23.12,0,0,1,1,3.69c0,1.47-1.71,1.68-2,1.68-1.08,0-1.23-.57-1.62-2.07-.12-.42-.48-1.68-.6-2.07A5.75,5.75,0,0,1,314,7.79c0-.84,1-1.5,2-1.5m0-5a6.75,6.75,0,0,0-7,6.5,10,10,0,0,0,.69,3.29c.1.31.41,1.42.54,1.87.43,1.63,1.56,5.75,6.44,5.75a6.81,6.81,0,0,0,7-6.68,21.16,21.16,0,0,0-1.26-5.31l0-.1c-.54-1.46-1.95-5.32-6.47-5.32Z"/><path class="cls-1" d="M330.09,34.34c-7.84,0-10.62-4.26-10.62-7.9a7.1,7.1,0,0,1,2.06-5h0a4.31,4.31,0,0,1-2.06-3.86,4.44,4.44,0,0,1,.84-2.71,4.61,4.61,0,0,1-1.09-3.06c0-1,.34-4.43,4.79-4.43l1.54,0c.59,0,2.43,0,4,0a4,4,0,0,1,1-1.68,4.76,4.76,0,0,1,3.56-1.35c2.6,0,4,1.32,4.5,2.89,1.49,0,3.41-.08,3.91-.12h.25l.71,0a4.21,4.21,0,0,1,4.46,4.43,4.32,4.32,0,0,1-1.08,3.07,4.52,4.52,0,0,1,.83,2.73c0,4.34-4,4.41-5.28,4.43l-.52,0a30.62,30.62,0,0,1,4.17,2.8,4.84,4.84,0,0,1,1.91,3.75,5,5,0,0,1-4.82,5,5.18,5.18,0,0,1-3.67-1.66c-.23-.21-.74-.61-1.36-1.09C336.72,33.08,334.05,34.34,330.09,34.34Z"/><path class="cls-1" d="M334.06,6.81c1.15,0,2.22.36,2.27,2l0,1c1,0,5.38-.11,6.27-.17l.81,0a1.74,1.74,0,0,1,2,1.93c0,1.82-1.2,1.88-2.35,1.94s-5.68.14-6.63.16l.05,2c.93,0,5.1-.11,5.94-.17l.78,0a1.73,1.73,0,0,1,2,1.91c0,1.82-1.23,1.9-2.83,1.93l-5.79.14.05,2.72a27.42,27.42,0,0,1,7.85,4.39,2.32,2.32,0,0,1,1,1.82,2.51,2.51,0,0,1-2.32,2.55c-.67,0-1.06-.19-2-1a35.48,35.48,0,0,0-2.91-2.24,14.39,14.39,0,0,0-1.6-1c-.11,1.66-.33,5.24-6.49,5.24-5.27,0-8.12-2.27-8.12-5.4S324.8,21,330,21a16.69,16.69,0,0,1,2.12.14l0-1.7-7,0a5.25,5.25,0,0,1-2.37-.25,1.85,1.85,0,0,1-.79-1.68c0-1.37.84-1.88,2-1.88l8.06,0-.05-2-6.53.05h-.67a4.81,4.81,0,0,1-2.24-.25,1.88,1.88,0,0,1-.81-1.68c0-1.93,1.51-1.93,2.29-1.93l1.54,0c1,0,5.44-.06,6.36-.06l0-1.06c-.05-1.74,1.4-2,2.21-2M329.5,28.06c.84,0,1.9-.11,2.35-.84.25-.45.28-.9.28-2.38a6.56,6.56,0,0,0-2.43-.42c-.76,0-3.53.11-3.53,1.88,0,1.17,1.31,1.76,3.33,1.76m4.56-26.25a7.25,7.25,0,0,0-5.35,2.11,6.64,6.64,0,0,0-.75.93c-1,0-2,0-2.48,0h-.58l-.92,0c-3.63,0-7.29,2.14-7.29,6.93A7.35,7.35,0,0,0,317.4,15a7.45,7.45,0,0,0,.81,6.74A9.48,9.48,0,0,0,317,26.44c0,5.17,4.06,10.4,13.12,10.4,3.56,0,6.36-.92,8.36-2.73a7.11,7.11,0,0,0,4.66,1.72,7.54,7.54,0,0,0,7.32-7.55,7.2,7.2,0,0,0-2.73-5.6,6.67,6.67,0,0,0,2.45-5.4,7.38,7.38,0,0,0-.44-2.57,7.85,7.85,0,0,0,.69-3.23,6.72,6.72,0,0,0-7-6.93c-.17,0-.55,0-.81,0h-.31c-.3,0-1.24,0-2.25.07a7.09,7.09,0,0,0-6-2.85Z"/><path class="cls-1" d="M367.44,34a28.23,28.23,0,0,1-6.84-.83c-6.94-1.81-8.4-6.52-8.4-10.15a12.31,12.31,0,0,1,2.31-7.2c-2.43.17-3.09.21-3.34.21a4.53,4.53,0,0,1-4.62-4.83,4.49,4.49,0,0,1,4.25-4.84c1.33-.12,14.72-.63,20.17-.63,3.74,0,5.64,1.56,5.64,4.63s-1.89,4.83-5.61,4.83a9,9,0,0,0-4.68,1.43c-2.22,1.27-4.47,3.7-4.47,5.87,0,.79,0,1.78,5.09,1.78h2.41A4.38,4.38,0,0,1,374,28.9C374,34,369.23,34,367.44,34Z"/><path class="cls-1" d="M371,8.26c1.54,0,3.13,0,3.13,2.13s-1.51,2.33-3.1,2.33a11.37,11.37,0,0,0-5.91,1.76c-2.89,1.65-5.74,4.76-5.74,8,0,3.5,2.88,4.28,7.59,4.28h2.41a1.92,1.92,0,0,1,2.15,2.1c0,2.63-2,2.63-4.06,2.63a25.91,25.91,0,0,1-6.21-.75c-1.52-.4-6.53-1.68-6.53-7.73a10.5,10.5,0,0,1,3-7.23,15.17,15.17,0,0,1,3.66-3c-1.48.11-9.49.73-10.22.73a2.05,2.05,0,0,1-2.12-2.33,2,2,0,0,1,2-2.35c1.18-.11,14.48-.62,19.91-.62m0-5c-5.21,0-18.86.5-20.38.64a7,7,0,0,0-6.54,7.33,7,7,0,0,0,6.35,7.29,14.5,14.5,0,0,0-.7,4.53c0,3,1,10.16,10.26,12.56a30.05,30.05,0,0,0,7.48.92,11.53,11.53,0,0,0,4.77-.74,7.11,7.11,0,0,0,4.29-6.89,6.9,6.9,0,0,0-7.15-7.1h-2.41a20.35,20.35,0,0,1-2.33-.11,7.75,7.75,0,0,1,3-2.87,6.48,6.48,0,0,1,3.47-1.1c7.48,0,8.06-5.61,8.06-7.33A6.78,6.78,0,0,0,375.17,4a9.72,9.72,0,0,0-4.2-.71Z"/><path class="cls-1" d="M371.47,20.82a3.38,3.38,0,0,1-3-1.93c-.05-.08-.3-.6-.49-1l-.15-.33-.19-.36c-.22-.43-.51-1-.57-1.14a3.73,3.73,0,0,1-.32-1.49,3.54,3.54,0,0,1,3.59-3.36c2.08,0,3,1.67,3.54,2.67a7,7,0,0,1,1.23,3.52A3.53,3.53,0,0,1,371.47,20.82Z"/><path class="cls-1" d="M370.32,13.7c.57,0,.84.44,1.35,1.37a6.61,6.61,0,0,1,.92,2.32c0,.62-.64.93-1.12.93-.14,0-.5,0-.81-.59-.11-.2-.53-1.12-.61-1.29s-.62-1.18-.7-1.37a1.31,1.31,0,0,1-.12-.51c0-.56.7-.86,1.09-.86m0-5a6,6,0,0,0-6.09,5.86,6.26,6.26,0,0,0,.52,2.47c.11.27.25.55.65,1.31l.18.34.12.26c.27.6.43.92.57,1.17a5.87,5.87,0,0,0,5.2,3.21,6,6,0,0,0,6.12-5.93A9.77,9.77,0,0,0,376,12.64c-.61-1.11-2.19-3.94-5.72-3.94Z"/><path class="cls-1" d="M368.53,22.16a3.3,3.3,0,0,1-3-1.95c-.18-.35-.49-1-.62-1.32-.39-.69-.64-1.15-.74-1.38a4,4,0,0,1-.37-1.6,3.57,3.57,0,0,1,3.62-3.4c2,0,3,1.63,3.52,2.61a9,9,0,0,1,1.22,3.59A3.51,3.51,0,0,1,368.53,22.16Z"/><path class="cls-1" d="M367.41,15c.48,0,.76.31,1.35,1.35a8.51,8.51,0,0,1,.89,2.35c0,.75-.78.95-1.12.95-.14,0-.5,0-.78-.59-.11-.19-.53-1.12-.62-1.31s-.58-1-.67-1.24a1.75,1.75,0,0,1-.17-.61c0-.56.7-.9,1.12-.9m0-5a6,6,0,0,0-6.12,5.9,6.45,6.45,0,0,0,.58,2.6,14.31,14.31,0,0,0,.8,1.5c.15.35.41.92.62,1.32a5.78,5.78,0,0,0,5.24,3.33,6,6,0,0,0,6.12-5.95A10.48,10.48,0,0,0,373.16,14l-.06-.11c-.6-1.05-2.2-3.87-5.69-3.87Z"/><path class="cls-2" d="M96.3,7.43a2,2,0,0,1,2.19-2.22c1.92,0,2.46.81,2.46,2.22v1.8h6.45c2.52,0,4,.87,4,4v10c0,3.21-1.53,4-4,4H101v4.5a2,2,0,0,1-2.19,2.22c-1.89,0-2.46-.75-2.46-2.22V27.2H89.91c-2.48,0-4-.78-4-4v-10c0-3.15,1.46-4,4-4H96.3Zm-5.88,8.82H96.3V13.31h-5a.76.76,0,0,0-.85.84Zm5.88,6.84V20H90.42v2.22c0,.54.24.84.85.84ZM101,13.31v2.94h5.88v-2.1a.76.76,0,0,0-.84-.84ZM106.83,20H101v3.06h5a.75.75,0,0,0,.84-.84Z"/><path class="cls-2" d="M123.15,8.6c0,.3-.17,4.26-.21,4.86-.21,4.11-.27,5.34-.27,8.79,0,3,.21,5.85,5.28,5.85,5.25,0,7.77-2.25,8.61-6.87.33-1.8.57-3.06,2.55-3.06.45,0,2.7,0,2.7,2.19A14.31,14.31,0,0,1,139,28.13c-2.4,3.21-6.15,4.56-10.89,4.56-4.47,0-7.16-1.11-8.85-3.39-.81-1.08-1.47-2.49-1.47-8.07,0-2.07.21-12.69.24-12.93.13-1.26.54-2.25,2.67-2.25A2.21,2.21,0,0,1,123.15,8.6Z"/><path class="cls-2" d="M170.85,28.73A2,2,0,0,1,173,30.86a2.05,2.05,0,0,1-2.19,2.22h-12.9c-4.83,0-6.44-2-7.17-3A12,12,0,0,1,149,32.24c-.87.9-1.33,1.26-2.17,1.26a2.67,2.67,0,0,1-2.51-2.73,2.31,2.31,0,0,1,1.17-2c1.14-.87,1.31-1,2.39-1.92V21.32c0-.21,0-.78-.54-.78h-.8a1.87,1.87,0,0,1-2.08-2.07c0-1.62.63-2.31,2.22-2.31h1.86c3.13,0,3.72.57,3.72,3.69v5.46c.27,2.52,2.73,3.42,5.43,3.42ZM147.27,5.54c.51,0,1.17.12,3.54,2.13,1.21,1,2.55,2.19,2.55,3.36a2.65,2.65,0,0,1-2.46,2.49c-.78,0-1-.18-2.61-1.74-.42-.42-2.36-2.07-2.76-2.46a1.91,1.91,0,0,1-.63-1.26A2.47,2.47,0,0,1,147.27,5.54Zm9.72,5a2,2,0,0,1-2.25-2.19A2,2,0,0,1,157,6.08h5.37c3.36,0,3.48,1.53,3.72,4.23A21.46,21.46,0,0,0,167.73,17a17.72,17.72,0,0,0,3.48,5.31c1.35,1.5,1.65,1.92,1.65,2.73a2.72,2.72,0,0,1-2.55,2.58c-.9,0-1.95-.36-3.84-3.21a20.4,20.4,0,0,1-2.85-6.51,21.61,21.61,0,0,1-3.48,6.18c-1.26,1.59-3.06,3.54-4.59,3.54a2.59,2.59,0,0,1-2.46-2.52,1.89,1.89,0,0,1,.64-1.41,20.91,20.91,0,0,0,4.76-5.25,17.89,17.89,0,0,0,2.82-7.38c0-.42-.3-.54-.66-.54Z"/><path class="cls-2" d="M194,12.53c.15-.66.54-1.62,2.37-1.62,2.31,0,2.61,1.41,2.61,3.09s-.18,3.78-.3,5.31c2.22,1,3.69,1.71,3.69,3.27,0,1-.87,2.67-2.28,2.67-.72,0-1.11-.24-2.25-.87-1.26,4.74-5.07,8.55-7.86,8.55a2.57,2.57,0,0,1-2.4-2.46c0-1.17.42-1.44,3.15-3.21.69-.45,2.25-1.8,2.76-5a20.23,20.23,0,0,0-5.31-1.65,37.41,37.41,0,0,1-2.51,7.11c-.88,1.77-2.11,3.6-4.5,3.6-2.76,0-6-2.43-6-6.81a7.84,7.84,0,0,1,5.55-7.59,13.58,13.58,0,0,1,4.08-.78c.09-.39.54-2.07.57-2.34.06-.42.3-1.65.3-1.89,0-.63-.39-.72-.87-.72-.84,0-4.47.27-5.22.27a2.08,2.08,0,0,1-2.4-2.28c0-2.31,1.74-2.31,2.82-2.31h1.68c.87,0,5.43-.15,5.55-.15.84,0,3.39,0,3.39,2.61a23.59,23.59,0,0,1-.51,3.51c-.09.57-.72,3-.84,3.51a46.88,46.88,0,0,1,4.68,1.14C193.92,16.73,193.83,13.22,194,12.53Zm-12.17,8.25a4,4,0,0,0-2.67,3.84c0,1.74,1.1,2.16,1.46,2.16.63,0,1.11-.75,1.65-2.07a25.16,25.16,0,0,0,1.44-4.41A10.74,10.74,0,0,0,181.81,20.78Z"/><path class="cls-2" d="M212,8.26a1.76,1.76,0,0,1,1.9-1.37,4.16,4.16,0,0,1,1.65.37,1.49,1.49,0,0,1,.84,1.45,12.83,12.83,0,0,1-.56,3,9.69,9.69,0,0,1,4.09.48c2.86,1.26,3.33,5.21,3.33,8.06,0,8-1.57,11.6-6.3,11.6a9.33,9.33,0,0,1-4.25-1,1.87,1.87,0,0,1-1.18-1.79c0-.28.11-2.22,1.82-2.22a3.45,3.45,0,0,1,1.49.37,5.22,5.22,0,0,0,1.73.36c1.18,0,1.54-.59,1.9-2.29a26.45,26.45,0,0,0,.48-5.58c0-2.85-.42-4-3.08-4-.33,0-.67,0-1.06.05a92.19,92.19,0,0,1-4.59,13.28c-1,2.21-1.8,2.43-2.53,2.43-1.26,0-2.6-1-2.6-2.13,0-.7.25-1.14,1-2.55a52,52,0,0,0,4.09-10.63l-3,.33a1.88,1.88,0,0,1-2.05-2.13,1.84,1.84,0,0,1,1.68-2.1,41.87,41.87,0,0,1,4.48-.36C211.37,11.37,211.9,8.6,212,8.26ZM222.21,12a1.64,1.64,0,0,1-.42-1.12,1.89,1.89,0,0,1,.78-1.46A2.3,2.3,0,0,1,223.92,9c.5,0,1.23.06,2.6,1.4a13.06,13.06,0,0,1,3.36,6.19,22.57,22.57,0,0,1,.59,4.73c0,.59,0,2.35-2.49,2.35a1.82,1.82,0,0,1-2-2c-.16-2.46-.42-6.35-2.49-8.45Z"/><path class="cls-2" d="M248.36,15.8c5.24,0,8.88,2.43,8.88,7.05,0,3.78-1.63,5.8-3.67,7s-4.82,1.76-8.65,1.76a26.23,26.23,0,0,1-7-.84,2.11,2.11,0,0,1-1.15-2,1.91,1.91,0,0,1,1.9-2,7,7,0,0,1,1.23.2,26.57,26.57,0,0,0,4.91.53,13.48,13.48,0,0,0,5.71-1.09,3.5,3.5,0,0,0,2-3.33c0-3.22-3.78-3.33-4.73-3.33a12.2,12.2,0,0,0-7.45,2.35c-.28.19-1.34,1.26-1.6,1.4a3,3,0,0,1-1.37.31c-2.26,0-2.26-1.74-2.26-2.8a72.43,72.43,0,0,1,.5-7.62,1.81,1.81,0,0,1,2-1.46c1.6,0,2.3.65,2.3,1.85,0,.34-.22,2.3-.25,2.72-.09.87-.09,1.29-.12,1.76A16.05,16.05,0,0,1,248.36,15.8Zm4.7-3.67a2.39,2.39,0,0,1-1.7.39,85.22,85.22,0,0,1-9.8-.95c-3.05-.45-3.9-.79-3.9-2.3,0-.22,0-2.13,1.88-2.13.59,0,3.05.54,3.56.59a69,69,0,0,0,7.33.59c2,.08,3.31.2,3.31,2.24A2.2,2.2,0,0,1,253.06,12.13Z"/><path class="cls-2" d="M270.23,30.62c0,2.49-.36,3-3.63,3-1.65,0-3.15,0-3.12-2.43a1.33,1.33,0,0,1-1.2.51c-.77,0-2.06-.51-2.06-1.68a4.88,4.88,0,0,1,.51-1.89,28.65,28.65,0,0,0,.83-3c.3-1.44.49-2.25,1.8-2.25.39,0,1.92.18,1.92,1.47a21.78,21.78,0,0,1-1.08,5.13c.33-.21.45-.21,1.47-.24.39,0,.66-.21.66-.72V22.31h-1.14c-3.12,0-3.78-.54-3.78-3.78V17.09c0-3.09.54-3.75,3.78-3.75h5.73c3.18,0,3.78.6,3.78,3.75v1.44c0,3.15-.57,3.78-3.78,3.78h-.69Zm8.19-19.56V7.34c0-.81.15-2.19,2-2.19,1.59,0,2.37.48,2.37,2.19v3.72h3.69a2,2,0,0,1,2.25,2.13c0,1.89-.9,2.37-2.25,2.37h-3.9v.66c0,.18,0,.66,0,1.05a1.61,1.61,0,0,1,1.5,1.86v8.94c0,.42.12.6.48.6.72,0,.81,0,.84-1,0-.48.09-2.31.09-2.4a1.38,1.38,0,0,1,1.5-.93c1.62,0,1.71,1,1.71,2,0,7.14-.6,7.14-4.5,7.14-3.21,0-3.93-.42-3.93-3.69v-3.3a25.19,25.19,0,0,1-3.21,5.4c-1.05,1.29-1.59,1.65-2.43,1.65a2.63,2.63,0,0,1-2.55-2.37c0-.69.15-.84,1.41-2.28-.87-.15-1.05-.54-1.77-2.4a13.82,13.82,0,0,1-.83-2.16c0-1.47,1.58-1.68,1.94-1.68a1.61,1.61,0,0,1,1.47.9,16.93,16.93,0,0,1,1.26,2.52,20.92,20.92,0,0,0,2.25-5.79,28.26,28.26,0,0,0,.57-4.14v-.66h-1.77a2,2,0,0,1-2.25-2.22,3,3,0,0,1,.3-1.41,2.66,2.66,0,0,1-1.11.18H262.4a1.81,1.81,0,0,1-2.06-2c0-1.68,1-2.07,2.06-2.07h3.49V6.89c0-1.11.63-1.74,2-1.74s2.33.3,2.33,1.74V8h3.33a1.81,1.81,0,0,1,2.07,2,3,3,0,0,1-.24,1.23,2.8,2.8,0,0,1,1.23-.21Zm-8.58,7.83a.54.54,0,0,0,.6-.6v-1a.54.54,0,0,0-.6-.6h-3.51a.54.54,0,0,0-.6.6v1a.55.55,0,0,0,.6.6Zm17.4-12.63a7.09,7.09,0,0,1,1.26,2.85c0,1.2-1.2,1.71-2.07,1.71a1.62,1.62,0,0,1-1.56-.93A12.39,12.39,0,0,1,283.64,7c0-1.53,1.71-1.71,1.74-1.71A1.71,1.71,0,0,1,287.24,6.26Z"/><path class="cls-2" d="M316.76,14.51c.72,0,2.16.09,2.16,1.86,0,1.38-.51,2.1-2.16,2.1h-3c.09,1.65.12,2.43.21,3.81.39-.75.87-2,1.32-2.73a1.12,1.12,0,0,1,1.08-.57c.78,0,2.07.42,2.07,1.47s-1.8,4.8-3.63,7.29c.18.45.48,1,.81,1s.45-.33.63-.75.42-1.05,1.23-1.05a1.8,1.8,0,0,1,1.86,1.8,6.28,6.28,0,0,1-1.53,3.54,3.37,3.37,0,0,1-2.88,1.53c-1.53,0-2.37-.75-3.21-2.52-2.22,2.07-2.67,2.19-3.3,2.19a2.1,2.1,0,0,1-1.86-1.26h-2.25c-3.09,0-3.69-.54-3.69-3.69V23c0-3.12.6-3.69,3.69-3.69h1.35c3.09,0,3.72.54,3.72,3.69v5c.51-.48.78-.72,1.23-1.17a64.78,64.78,0,0,1-.66-8.43h-9.09a1.42,1.42,0,0,1-1.13-.39V32c0,.75-.13,1.83-1.66,1.83-1.2,0-1.86-.33-1.86-1.83V29.57a31.08,31.08,0,0,1-4.52,1c-1.21,0-1.68-1.32-1.68-2.46,0-1.47.75-1.65,1.34-1.8V10.13c-.59-.18-1.13-.78-1.13-2,0-2,1.31-2.1,1.94-2.1h6.63c1.08,0,1.89.3,1.89,2.16A2,2,0,0,1,302,7.85h1.11V6.77a1.56,1.56,0,0,1,1.77-1.62c.6,0,2,.06,2,1.62V7.85h1.44c1,0,1.32.36,1.5.78,0-1.65,0-1.83,0-2.13.15-1.32,1.59-1.32,1.89-1.32,1.77,0,1.95,1.05,1.95,2,0,2.82,0,3.27,0,7.29Zm-20.55-4.32h-1.44v2.55h1.44Zm0,6.3h-1.44V19.1h1.44Zm-1.44,9.36c.6-.12.69-.12,1.44-.3V22.91h-1.44Zm6.81-11.34a20.56,20.56,0,0,0-.36-2.85c-1-.18-1.07-1.32-1.11-1.83a.64.64,0,0,1-.38.24v4.8a1.64,1.64,0,0,1,1.13-.36Zm2.4,9.6h2.16V23a.5.5,0,0,0-.57-.57h-1A.5.5,0,0,0,304,23Zm0,2.94v1.23a.51.51,0,0,0,.57.57h1a.51.51,0,0,0,.57-.57V27.05Zm.15-15.3c.18,2.25.21,2.49.21,2.76h1.08a20.42,20.42,0,0,0,.33-2.76ZM309.8,11a1.18,1.18,0,0,1-1.11.75c-.21,1.35-.21,1.5-.45,2.79h1.62Zm6.9,2.73c-1.08,0-1.23-.57-1.62-2.07-.12-.42-.48-1.68-.6-2.07A5.75,5.75,0,0,1,314,7.79c0-.84,1-1.5,2-1.5s1.23.57,1.77,2a23.12,23.12,0,0,1,1,3.69C318.74,13.49,317,13.7,316.7,13.7Z"/><path class="cls-2" d="M336.47,15.57c.93,0,5.1-.11,5.94-.17l.78,0a1.72,1.72,0,0,1,2,1.9c0,1.82-1.23,1.9-2.83,1.93l-5.79.14.05,2.72a27.42,27.42,0,0,1,7.85,4.39,2.32,2.32,0,0,1,1,1.82,2.51,2.51,0,0,1-2.32,2.55c-.67,0-1.06-.19-2-1-.47-.42-1.68-1.38-2.91-2.24a14.39,14.39,0,0,0-1.6-1c-.11,1.66-.33,5.24-6.49,5.24-5.27,0-8.12-2.27-8.12-5.4S324.8,21,330,21a16.69,16.69,0,0,1,2.12.14l0-1.7-7,0a5.25,5.25,0,0,1-2.37-.25,1.85,1.85,0,0,1-.79-1.68c0-1.37.84-1.88,2-1.88l8.06,0-.05-2-6.53.05h-.67a4.81,4.81,0,0,1-2.24-.25,1.88,1.88,0,0,1-.81-1.68c0-1.93,1.51-1.93,2.29-1.93l1.54,0c1,0,5.44-.06,6.36-.06l0-1.06c-.05-1.74,1.4-2,2.21-2,1.15,0,2.22.36,2.27,2l0,1c1,0,5.38-.11,6.27-.17l.81,0a1.74,1.74,0,0,1,2,1.93c0,1.82-1.2,1.88-2.35,1.94s-5.68.14-6.63.16Zm-6.77,8.85c-.76,0-3.53.11-3.53,1.88,0,1.17,1.31,1.76,3.33,1.76.84,0,1.9-.11,2.35-.84.25-.45.28-.9.28-2.38A6.56,6.56,0,0,0,329.7,24.42Z"/><path class="cls-2" d="M351.17,13.56a2.05,2.05,0,0,1-2.12-2.33,2,2,0,0,1,2-2.35c1.18-.11,14.48-.62,19.91-.62,1.54,0,3.13,0,3.13,2.13s-1.51,2.33-3.1,2.33a11.37,11.37,0,0,0-5.91,1.76c-2.89,1.65-5.74,4.76-5.74,8,0,3.5,2.88,4.28,7.59,4.28h2.41a1.92,1.92,0,0,1,2.15,2.1c0,2.63-2,2.63-4.06,2.63a25.91,25.91,0,0,1-6.21-.75c-1.52-.4-6.53-1.68-6.53-7.73a10.5,10.5,0,0,1,3-7.23,15.17,15.17,0,0,1,3.66-3C359.91,12.94,351.9,13.56,351.17,13.56Zm15.29,3a1.75,1.75,0,0,1-.17-.61c0-.56.7-.9,1.12-.9s.76.31,1.35,1.35a8.51,8.51,0,0,1,.89,2.35c0,.75-.78.95-1.12.95-.14,0-.5,0-.78-.59-.11-.19-.53-1.12-.62-1.31S366.55,16.72,366.46,16.52Zm2.89-1.45a1.31,1.31,0,0,1-.12-.51c0-.56.7-.86,1.09-.86.57,0,.84.44,1.35,1.37a6.61,6.61,0,0,1,.92,2.32c0,.62-.64.93-1.12.93-.14,0-.5,0-.81-.59-.11-.2-.53-1.12-.61-1.29S369.43,15.26,369.35,15.07Z"/></g></svg>