<svg id="materials" xmlns="http://www.w3.org/2000/svg" viewBox="0 0 460 39.07"><defs><style>.cls-1{fill:#fff;}.cls-2{fill:#474747;}</style></defs><title>process-title</title><path class="cls-1" d="M164.28,36c-3.6,0-4.34-.08-5.27-.54a4.62,4.62,0,0,1-2.36-4.31,4.89,4.89,0,0,1,.59-2.41H155c-3.48,0-4.72-2.29-4.72-4.43,0-2.89,1.74-4.62,4.67-4.64l-.08-.18a4.31,4.31,0,0,1-2.6-1.26A4.66,4.66,0,0,1,151,14.93V13c0-2.67,1-4.15,2.18-5a3.81,3.81,0,0,1-.05-.59c0-2.33,2.34-4.22,5.21-4.22a4.25,4.25,0,0,1,3.87,2A5.37,5.37,0,0,1,167,3a4.22,4.22,0,0,1,4.23,2.7,4,4,0,0,1,4-2.55c3.08,0,5.39,1.9,5.39,4.43a2.88,2.88,0,0,1-.05.59A6.14,6.14,0,0,1,182.42,13v1.86c0,2.65-1.38,4.34-3.75,4.66a1.42,1.42,0,0,1-.08.18h0c3.49,0,4.73,2.33,4.73,4.52s-1.24,4.55-4.73,4.55h-6.84v1.15C171.78,36,167.27,36,164.28,36Z"/><path class="cls-2" d="M167,5c1.32,0,1.88.39,2.51,1.77a9,9,0,0,1,.78,2.31H172a13.73,13.73,0,0,0,.8-2c.42-1.23.84-1.92,2.43-1.92,1.86,0,3.4,1,3.4,2.43a3.53,3.53,0,0,1-.58,1.53c1.68.33,2.37,1.89,2.37,3.87v1.86c0,1.44-.44,2.71-2.58,2.71a6,6,0,0,1-.71,0A2.78,2.78,0,0,1,175.54,20a21,21,0,0,1-3.12,1.71h6.21a2.37,2.37,0,0,1,2.72,2.52c0,2.34-1.71,2.55-2.72,2.55h-8.85v3.15c0,3.66-1.57,4.11-5.49,4.11-3.51,0-3.9-.09-4.38-.33a2.74,2.74,0,0,1-1.26-2.52,2.34,2.34,0,0,1,2.6-2.55c.25,0,1.1,0,1.57,0h.26c.67-.06.67-.39.67-1.11v-.78H155a2.35,2.35,0,0,1-2.73-2.43c0-1.92,1-2.64,2.73-2.64h8.82c.05-.36.26-.81,1.1-1.11.42-.15.94-.33.94-.54a.24.24,0,0,0-.24-.24h-6.9c-.69,0-2.16,0-2.28-2.28a6.24,6.24,0,0,1-.72,0A2.34,2.34,0,0,1,153,14.93V13c0-1.14.06-3.39,2.7-3.81a4.09,4.09,0,0,1-.57-1.74c0-1.08,1.32-2.22,3.21-2.22.9,0,1.77.09,2.66,1.92a11,11,0,0,1,.73,1.95h2.52c-.06-.12-.21-.57-.33-.84a3.39,3.39,0,0,1-.25-1.14c0-1.41,1.69-2.1,3.25-2.1M158.62,15H174a8.07,8.07,0,0,1,.91,0v-.78c0-.18-.19-.24-.28-.24H158.86a.23.23,0,0,0-.24.24V15M167,1a8.18,8.18,0,0,0-4.7,1.38,6.44,6.44,0,0,0-3.88-1.17c-3.85,0-7,2.62-7.21,5.89A7.79,7.79,0,0,0,149,13v1.92a6.86,6.86,0,0,0,1.35,4.28,6.48,6.48,0,0,0-2.16,5.14,6.19,6.19,0,0,0,6.43,6.42c0,.14,0,.28,0,.42a6.63,6.63,0,0,0,3.53,6.13c1.33.65,2.45.72,6.11.72,2.73,0,9,0,9.46-7.26h4.88c4,0,6.72-2.63,6.72-6.55a6.48,6.48,0,0,0-2.22-5.06,7.08,7.08,0,0,0,1.29-4.3V13a8.39,8.39,0,0,0-1.8-5.57c-.09-3.58-3.24-6.26-7.39-6.26a6.26,6.26,0,0,0-4,1.27A6.27,6.27,0,0,0,167,1Z"/><path class="cls-1" d="M191.66,35.38c-5,0-6-3.27-6-6V24.53a7.41,7.41,0,0,1,.66-3.26A4,4,0,0,1,182.82,17a3.69,3.69,0,0,1,1.67-3.33,3.06,3.06,0,0,1-.86-2.28,3.94,3.94,0,0,1,.07-.77A4.41,4.41,0,0,1,183,8.09a3.93,3.93,0,0,1,4.27-4.19h7.38a6.62,6.62,0,0,1,3.79,1,4.36,4.36,0,0,1,3-1h7.41c5,0,6,3.26,6,6v5.55c0,1.85,0,4.37-2.31,5.56l-.2.1a7.35,7.35,0,0,1,.74,3.43v4.83c0,2.75-1,6-6,6Z"/><path class="cls-2" d="M208.78,5.9c2.52,0,4,.87,4,4v5.55c0,1.65,0,3.15-1.23,3.78-.75.39-1,.42-3.81.42h-.87c-1.26,0-1.73,0-2.34-.81a17.85,17.85,0,0,1-3,.57,1.41,1.41,0,0,1,.3,1.11H207c2.61,0,4,1,4,4v4.83c0,3.18-1.56,4-4,4H191.66c-2.43,0-4-.81-4-4V24.53c0-3.15,1.53-4,4-4h4.67c.28-.75.3-.84.55-1.08a7.48,7.48,0,0,1-2,.21c-.51,0-2.46,0-2.85,0a1.75,1.75,0,0,1-1.74-1.2c-2.61.81-2.91.9-3.33.9A2,2,0,0,1,184.82,17a1.76,1.76,0,0,1,1.32-1.92c.33-.12,1.8-.51,2.1-.6-2.43-2.19-2.61-2.37-2.61-3.09a2.24,2.24,0,0,1,.45-1.29,2.13,2.13,0,0,1-1.11-2,2,2,0,0,1,2.28-2.19h7.38c2.58,0,4,.93,4,4v5.55c0,1.86,0,2.7-.84,3.51a5.39,5.39,0,0,1,1.26-.13h.5a2.76,2.76,0,0,1-.62-1.92c0-.48,0-1.41,1.5-1.89.36-.12,2-.36,2.3-.42-.35-.27-2-1.47-2.27-1.71a1.74,1.74,0,0,1-.73-1.38,2.32,2.32,0,0,1,.49-1.41,2.11,2.11,0,0,1-1.12-2,2,2,0,0,1,2.29-2.19h7.4m-1.94,9c.52,0,.59-.13.59-.79V10.91a.55.55,0,0,0-.63-.63h-2c1.25.93,1.59,1.38,1.59,2.07a3,3,0,0,1-.84,1.89,1.74,1.74,0,0,1,1,.66h.25m-14.16,0c.48,0,.6-.09.6-.69V10.91a.58.58,0,0,0-.66-.63h-2c1,.9,1.32,1.17,1.32,2a2.2,2.2,0,0,1-.57,1.5,1.62,1.62,0,0,1,1.32,1.14m.65,10.23h12.15v-.57c0-.24-.11-.36-.35-.36H193.7a.34.34,0,0,0-.37.36v.57m.37,4.32h11.43c.24,0,.35-.12.35-.36v-.57H193.33v.57a.33.33,0,0,0,.37.36M208.78,1.9h-7.4a6.85,6.85,0,0,0-3.09.66,9.67,9.67,0,0,0-3.66-.66h-7.38A5.91,5.91,0,0,0,181,8.09a6.49,6.49,0,0,0,.67,2.94c0,.12,0,.24,0,.36a5.28,5.28,0,0,0,.32,1.95A6.12,6.12,0,0,0,180.82,17a6.09,6.09,0,0,0,3,5.53,11.55,11.55,0,0,0-.17,2v4.83c0,5,3,8,8,8H207c5,0,8-3,8-8V24.53a10.08,10.08,0,0,0-.32-2.65c2.09-1.89,2.09-4.78,2.09-6.44V9.89c0-5-3-8-8-8Z"/><path class="cls-1" d="M230.76,34.73a4.4,4.4,0,0,1-4.37-3,7.57,7.57,0,0,1-3.47.8c-4.83,0-8.08-4.22-8.08-10.51,0-10.65,8.14-15.5,15.69-15.5,8.78,0,14.24,5.33,14.24,13.9,0,4.61-1.64,8.46-4.61,10.86A16.44,16.44,0,0,1,230.76,34.73Zm3.4-18a45.22,45.22,0,0,1-2.39,8.32c1.93-.47,3.37-1.46,3.37-4.91A5.3,5.3,0,0,0,234.16,16.77Z"/><path class="cls-2" d="M230.53,8.56c7.45,0,12.24,4.34,12.24,11.9,0,3.53-1.12,7.09-3.86,9.3a14.51,14.51,0,0,1-8.15,3,2.61,2.61,0,0,1-2.69-2.8c0-2.19,1.4-2.41,2.94-2.66,2.3-.37,6.13-1.21,6.13-7.09,0-3.08-1.29-5.85-4.51-6.41-.44,3.44-1.9,9.91-4.08,13.25-1.52,2.29-3.25,3.55-5.63,3.55-4.34,0-6.08-4.28-6.08-8.51,0-9.58,7.25-13.5,13.69-13.5M227.29,15c-3.62,1.4-5.21,4.28-5.21,8.15,0,1.82.61,2.63,1.15,2.63,1,0,1.7-2,2.12-3.11A42,42,0,0,0,227.29,15m3.24-10.41a18.44,18.44,0,0,0-11.81,4.08c-2.68,2.23-5.88,6.37-5.88,13.42,0,7.48,4,12.51,10.08,12.51a9.82,9.82,0,0,0,2.56-.33,6.4,6.4,0,0,0,5.28,2.49,18.3,18.3,0,0,0,10.67-3.87c3.44-2.77,5.34-7.18,5.34-12.4,0-9.66-6.37-15.9-16.24-15.9Z"/><path class="cls-1" d="M271.34,35.92c-2.29,0-3.84-.29-4.86-1a4.71,4.71,0,0,1-2.54.71,4.19,4.19,0,0,1-3.65-1.83,5.17,5.17,0,0,1-1.42,1.45,4.83,4.83,0,0,1-2.52.71,5.08,5.08,0,0,1-3.28-1.22,4,4,0,0,1-2.9,1.1,4.75,4.75,0,0,1-4.85-4.49,7,7,0,0,1,.61-2.64l.06-.19c.47-1.35.76-2.39,1.21-4l.26-.93a6.15,6.15,0,0,1,1.6-3l-.42-.33c-1.36-1.05-1.67-1.31-1.8-1.43a4.06,4.06,0,0,1-1.43-3,5.1,5.1,0,0,1,2.51-4.25l-.74-.59h0a4,4,0,0,1-1.35-3,4.94,4.94,0,0,1,4.76-4.85c1.58,0,2.6.74,4.14,2l.51.4a5.69,5.69,0,0,1,2.25-.41H261a4.56,4.56,0,0,1,4.16-2c2.62,0,3.87,1,4.45,2h3.44c3.47,0,4.7,2.27,4.7,4.4a4.34,4.34,0,0,1-2.1,4.12l.27.35a6.31,6.31,0,0,1,1.65,3.84,4.69,4.69,0,0,1-4,4.47v.48l.52,0c2.49,0,3.74,1.45,3.74,4.31a31.39,31.39,0,0,1-.45,5.63C276.48,35.92,274,35.92,271.34,35.92Z"/><path class="cls-2" d="M265.17,5.06c1,0,3,.15,3,2h4.92a2.31,2.31,0,0,1,2.7,2.4c0,1.86-.78,2.7-2.7,2.7h-1.47a16.05,16.05,0,0,1,2.76,3,4.42,4.42,0,0,1,1.24,2.61c0,1.68-1.75,2.55-2.86,2.55s-1.64-.66-2.6-2.16c-3.09.42-8.37,1-11.37,1.11C261,19.31,261,21,261,21.74c0,5.46-1.41,10.62-3.21,11.79a2.74,2.74,0,0,1-1.44.39,2.86,2.86,0,0,1-2.88-2.49c0-.69.27-1.11,1.14-2.67a15.47,15.47,0,0,0,1.74-7c.06-1,.18-2.22,2.1-2.4h-.37a3.32,3.32,0,0,1-1.49-.24,2.75,2.75,0,0,1-1.26-2.46,2.38,2.38,0,0,1,1-2.13,4.15,4.15,0,0,1,2.13-.3,17.82,17.82,0,0,0,.54-2h-1.56A2.39,2.39,0,0,1,255,10.82a2.56,2.56,0,0,1-2.25,1.41c-.69,0-.81-.12-2.1-1.11-.27-.21-2-1.59-2.1-1.65a2,2,0,0,1-.69-1.5,3,3,0,0,1,2.76-2.85c.81,0,1.35.3,2.91,1.53a7,7,0,0,1,1.59,1.5,2.59,2.59,0,0,1,2.4-1.08h5c0-1.83,1.86-2,2.67-2m2.94,7.11h-3.28a15.05,15.05,0,0,1-.62,2c.54,0,2.7-.09,3.15-.12a1.94,1.94,0,0,1,.75-1.86M250.17,13c.66,0,1.56.27,3.09,1.47s1.83,1.83,1.83,2.61c0,1.17-.9,3-2.67,3-.81,0-1.11-.24-2.55-1.38-.27-.21-1.47-1.14-1.71-1.35a2,2,0,0,1-.75-1.5A2.92,2.92,0,0,1,250.17,13m19,6c2.39,0,2.39,1.62,2.39,2.31v6.87c0,.36,0,.45.45.45s.33-.06.39-.33,0-1.23,0-1.47c0-1,0-2.1,1.66-2.1s1.73,1.17,1.73,2.31a30.19,30.19,0,0,1-.39,5.13c-.47,1.77-1.46,1.77-4.08,1.77-4,0-4.52-.57-4.52-4.2V21.29c0-.63,0-2.31,2.34-2.31m-5.41.3c1.78,0,2.35.75,2.35,2.25v9.81a1.94,1.94,0,0,1-2.16,2.25c-2,0-2.22-1.29-2.22-2.25V21.53a1.93,1.93,0,0,1,2-2.25m-11.84,2.28c1.14,0,2.64.84,2.64,2.13a51.68,51.68,0,0,1-1.83,7.59c-.42,1.26-.87,2.52-2.55,2.52a2.81,2.81,0,0,1-2.85-2.49,6,6,0,0,1,.57-2.19c.57-1.65.9-2.88,1.5-5,.39-1.41.78-2.58,2.52-2.58m13.26-20.5a6.91,6.91,0,0,0-5.15,2h-2.53a8.6,8.6,0,0,0-1.84.19c-1.61-1.26-3-2.14-5.06-2.14A7,7,0,0,0,243.83,8,6,6,0,0,0,245,11.48a7,7,0,0,0-1.56,4.32,6.09,6.09,0,0,0,2.08,4.48c.14.13.35.3.83.67a10.59,10.59,0,0,0-.79,2.12l-.26.91c-.43,1.53-.72,2.55-1.16,3.83L244,28a8.88,8.88,0,0,0-.71,3.28c0,3.88,3.54,6.49,6.85,6.49a6.22,6.22,0,0,0,3-.69,6.92,6.92,0,0,0,3.22.81,6.77,6.77,0,0,0,3.52-1l.09-.06.37-.25a6.67,6.67,0,0,0,3.61,1,6.74,6.74,0,0,0,2.51-.47,12.3,12.3,0,0,0,4.89.8c2.66,0,6.67,0,8-4.73a32.58,32.58,0,0,0,.52-6.17c0-2.57-.84-4.1-1.9-5a6.24,6.24,0,0,0,1.67-4.24,7.21,7.21,0,0,0-1.24-3.89,6.92,6.92,0,0,0,1.41-4.42c0-3.19-2.07-6.4-6.7-6.4h-2.43a7.12,7.12,0,0,0-5.45-2Z"/><path class="cls-1" d="M288.88,35.14a4.52,4.52,0,0,1-4.78-3.58,8.87,8.87,0,0,1-.09-1.78,4.53,4.53,0,0,1-1.37.2,5.08,5.08,0,0,1-5-4.91,4.92,4.92,0,0,1,1.51-3.51l.32-.34c1-1.1,2-2.11,2.91-3.21a4.52,4.52,0,0,1-4.14-4.76c0-2.16,1.26-4.54,4.83-4.73l1.25-.06A6,6,0,0,1,284.55,7c.33-1.18,1.38-3.15,4.69-3.15,2.53,0,4.27,1.26,4.78,3.36a10.18,10.18,0,0,1,4.43-1c3.64,0,7.91,2,7.91,7.76,0,1.5-.17,2.2-1.09,6.06L305,21.12c-.12.53-.39,1.71-.54,2.61a4.24,4.24,0,0,1,1.06-.12c2.54,0,4.24,1.85,4.24,4.61,0,1.35-.52,5.78-7.31,5.78-4.89,0-7.93-3.12-7.93-8.15a24,24,0,0,1,.49-4.6c0-.23.13-.66.25-1.2.15-.74.46-2.2.7-3.38a12.81,12.81,0,0,0-2.25,2c0,1.12,0,7.55,0,7.69s0,1,0,1.67,0,1.56,0,1.84C293.76,34.45,290.7,35.14,288.88,35.14Z"/><path class="cls-2" d="M289.24,5.84c2.49,0,2.94,1.5,2.94,2.73,0,.33,0,.51-.12,2.16,2.37-1.71,4.11-2.52,6.39-2.52,2.58,0,5.91,1.23,5.91,5.76,0,1.38-.15,1.89-1.29,6.69a21.49,21.49,0,0,0-.69,4c0,1.17.5,1.44,1.13,1.44A1.35,1.35,0,0,0,304,26a4,4,0,0,1,1.5-.36c1.38,0,2.24.9,2.24,2.61,0,3-2.67,3.78-5.31,3.78-3.89,0-5.93-2.37-5.93-6.15a22.2,22.2,0,0,1,.45-4.2c.21-1,1.29-5.94,1.29-6.66s-.15-1-.87-1c-1.59,0-4,1.86-5.67,3.9,0,.84,0,8.07,0,8.43,0,.51.06,3,.06,3.51,0,1.08,0,3.3-2.88,3.3a2.63,2.63,0,0,1-2.82-2c-.06-.36-.06-1,0-6.18-1.29,2-1.95,3-3.39,3a3.1,3.1,0,0,1-3-2.91,3,3,0,0,1,1-2.19,42.72,42.72,0,0,0,5.49-6.63v-.39l-2.67.18h-.36a2.58,2.58,0,0,1-2.88-2.8,2.7,2.7,0,0,1,2.94-2.73l3.06-.15a12.24,12.24,0,0,1,.24-2.85c.27-1,1-1.68,2.76-1.68m0-4c-3.33,0-5.8,1.72-6.61,4.59a.56.56,0,0,0,0,.12c-3.82.36-6.35,3-6.35,6.7A6.6,6.6,0,0,0,279,18.83l-1,1-.27.28-.06.07a6.9,6.9,0,0,0-2.05,4.87,7,7,0,0,0,6.5,6.89h0a6.52,6.52,0,0,0,6.74,5.17c.93,0,4.86-.23,6.32-4A9.86,9.86,0,0,0,302.46,36c4.3,0,9.31-2,9.31-7.78,0-3.38-1.93-5.87-4.85-6.47,0-.06,0-.13,0-.19l.26-1.06c.94-4,1.14-4.79,1.14-6.53,0-4.86-3.07-9.76-9.91-9.76a12.06,12.06,0,0,0-3.38.46,6.74,6.74,0,0,0-5.83-2.83Z"/></svg>