<svg id="materials" xmlns="http://www.w3.org/2000/svg" viewBox="0 0 240 240"><defs><style>.cls-1{fill:#fff;}.cls-2{fill:#474747;}.cls-3{fill:#95a7ad;}.cls-4{fill:#4f595b;}.cls-5{fill:#329ae0;}.cls-6{fill:#ea4c44;}</style></defs><title>product</title><path class="cls-1" d="M121.93,179.67v45.44c0,4.9-.55,6.89-4.47,6.89H97.37a3,3,0,0,1-3-3,4.06,4.06,0,0,1,3.13-4.36l8.79-2.62s1.19-.47.35-3.08l-15.86-57.6h62.29l-15.86,57.6c-.84,2.61.35,3.08.35,3.08l8.79,2.62a4.06,4.06,0,0,1,3.13,4.36,3,3,0,0,1-3,3H126.4c-3.93,0-4.47-2-4.47-6.89V179.67"/><path class="cls-2" d="M120.43,179.67v45.44a23.81,23.81,0,0,1-.14,2.95,5.12,5.12,0,0,1-.31,1.33,1.81,1.81,0,0,1-.29.51,1.37,1.37,0,0,1-.65.41,5,5,0,0,1-1.58.19H97.37a1.5,1.5,0,0,1-1.5-1.5,4.17,4.17,0,0,1,.21-1.4,2.11,2.11,0,0,1,.76-1,3.49,3.49,0,0,1,1.07-.5h0l8.86-2.64.06,0a2.32,2.32,0,0,0,1-.77,3.39,3.39,0,0,0,.63-2.08,7,7,0,0,0-.37-2.09l-1.43.46,1.45-.4-15.34-55.7H151.1l-15.34,55.7,1.45.4-1.43-.46a7,7,0,0,0-.37,2.09,3.39,3.39,0,0,0,.63,2.08,2.32,2.32,0,0,0,1,.77l.06,0,8.86,2.64h0a3,3,0,0,1,1.37.76,2.29,2.29,0,0,1,.46.76A4.17,4.17,0,0,1,148,229a1.5,1.5,0,0,1-1.5,1.5H126.4a4.32,4.32,0,0,1-1.76-.26,1.22,1.22,0,0,1-.51-.38,3.36,3.36,0,0,1-.53-1.52,20.38,20.38,0,0,1-.17-3.23V179.67a1.5,1.5,0,0,0-3,0v45.44a28.15,28.15,0,0,0,.15,3.34,8.4,8.4,0,0,0,.51,2.06,4.78,4.78,0,0,0,.79,1.34,4.38,4.38,0,0,0,2,1.3,7.85,7.85,0,0,0,2.54.35h20.08A4.49,4.49,0,0,0,151,229a7.09,7.09,0,0,0-.4-2.44,5.13,5.13,0,0,0-1.78-2.39,6.18,6.18,0,0,0-2-1h0L138,220.59l-.43,1.43.56-1.39-.25.64.56-.43a.64.64,0,0,0-.31-.21l-.25.64.56-.43-.14.11.16-.09,0,0-.14.11.16-.09h0a.81.81,0,0,1,0-.29,4.05,4.05,0,0,1,.23-1.18v0L155,159.84H88.81l16.39,59.52v0a4.05,4.05,0,0,1,.23,1.18,1.05,1.05,0,0,1,0,.28h0l.26.13-.18-.22-.08.09.26.13-.18-.22.58.68-.33-.82a1.3,1.3,0,0,0-.25.14l.58.68-.33-.82.56,1.39-.43-1.43-8.79,2.61h0a5.8,5.8,0,0,0-2.72,1.59,5.05,5.05,0,0,0-1.09,1.77,7.09,7.09,0,0,0-.4,2.44,4.49,4.49,0,0,0,4.5,4.5h20.09a7.32,7.32,0,0,0,3-.51,4.3,4.3,0,0,0,1.67-1.28,6.14,6.14,0,0,0,1.13-2.9,25.47,25.47,0,0,0,.22-3.7V179.67a1.5,1.5,0,0,0-3,0Z"/><path class="cls-2" d="M115.54,177.18l6.37,2.21,6.75-2.21a1.49,1.49,0,0,0,1-1.89,1.51,1.51,0,0,0-1.89-1l-5.79,1.89-5.42-1.88a1.5,1.5,0,0,0-1,2.84Z"/><path class="cls-1" d="M65.49,103.71,35,76.6A4.3,4.3,0,0,1,34.24,73a108.11,108.11,0,0,1,3.14-11.08c1.56-4.31-1.48-7.61-4.35-5.68C29.57,58.57,31,44,22.91,42.13c-4.3-1-10.62,3.69-9,18.47,3.56,32.05,41.29,75.57,41.29,75.57"/><path class="cls-2" d="M66.49,102.59,36,75.48,35,76.6l1.2-.9A2.78,2.78,0,0,1,35.62,74a2.36,2.36,0,0,1,.08-.65h0v0l.06-.27a105.09,105.09,0,0,1,3-10.63,8.19,8.19,0,0,0,.51-2.8,6,6,0,0,0-1.23-3.78,4.23,4.23,0,0,0-3.33-1.67,4.44,4.44,0,0,0-2.55.82l0,0h0l.19.42V55a.52.52,0,0,0-.19,0l.19.42v.22l.37-.56a.71.71,0,0,0-.37-.11v.67l.37-.56-.15.22.2-.19,0,0-.15.22.2-.19a2.24,2.24,0,0,1-.33-.62,30.91,30.91,0,0,1-1-3.08A26.72,26.72,0,0,0,29,45.18a11,11,0,0,0-2.31-2.79,8.06,8.06,0,0,0-3.46-1.72,6.29,6.29,0,0,0-1.44-.16,8.27,8.27,0,0,0-6.68,3.86c-1.8,2.57-2.95,6.39-2.95,11.68a42.58,42.58,0,0,0,.28,4.72c.92,8.26,4,17.11,8.08,25.8,12.25,26,33.52,50.53,33.56,50.58a1.5,1.5,0,0,0,2.27-2l-.1-.12a279,279,0,0,1-20-26.9A187.45,187.45,0,0,1,22.88,84.49C19.07,76.26,16.26,68,15.43,60.43a39,39,0,0,1-.26-4.38c0-4.86,1.07-8.06,2.41-10a5.29,5.29,0,0,1,4.22-2.58,3.33,3.33,0,0,1,.78.09,4.94,4.94,0,0,1,1.89.85,8.23,8.23,0,0,1,2.38,3A38,38,0,0,1,29,53.66a14.79,14.79,0,0,0,1,2.62,3.76,3.76,0,0,0,.82,1.1,2.63,2.63,0,0,0,.69.44,2.4,2.4,0,0,0,.89.18,2.76,2.76,0,0,0,1.52-.5,1.52,1.52,0,0,1,.88-.31,1.24,1.24,0,0,1,1,.54,3.1,3.1,0,0,1,.57,1.91A5.12,5.12,0,0,1,36,61.42a105.89,105.89,0,0,0-3.19,11.27l1.46.32-1.46-.35a5.82,5.82,0,0,0,1,4.84l.09.12L64.5,104.83a1.5,1.5,0,0,0,2-2.24Z"/><path class="cls-1" d="M178.36,103.71,208.87,76.6a4.3,4.3,0,0,0,.74-3.59,108.11,108.11,0,0,0-3.14-11.08c-1.56-4.31,1.49-7.61,4.35-5.68,3.46,2.32,2.08-12.3,10.12-14.12,4.3-1,10.62,3.69,9,18.47-3.56,32.05-41.28,75.57-41.28,75.57"/><path class="cls-2" d="M179.35,104.83,210,77.62l.09-.12a5.82,5.82,0,0,0,1-4.84l-1.46.35,1.47-.32a110,110,0,0,0-3.2-11.27,5.12,5.12,0,0,1-.33-1.78,3.1,3.1,0,0,1,.57-1.91,1.24,1.24,0,0,1,1-.54,1.52,1.52,0,0,1,.88.31,2.76,2.76,0,0,0,1.52.5,2.36,2.36,0,0,0,1.28-.39,3,3,0,0,0,.76-.74,6.9,6.9,0,0,0,.8-1.58c.37-1,.67-2.16,1-3.39a22.41,22.41,0,0,1,2.14-5.35,7.45,7.45,0,0,1,1.62-1.91,5,5,0,0,1,2.13-1,3.35,3.35,0,0,1,.79-.09,5.29,5.29,0,0,1,4.21,2.58c1.34,1.9,2.41,5.1,2.41,10a39,39,0,0,1-.26,4.38c-.86,7.76-3.82,16.37-7.82,24.86-6,12.74-14.28,25.24-21.06,34.53-3.39,4.65-6.41,8.5-8.58,11.18-1.08,1.34-2,2.39-2.55,3.1l-.68.81-.24.28a1.5,1.5,0,0,0,2.27,2,280.07,280.07,0,0,0,19.42-25.92,199.67,199.67,0,0,0,14.14-24.66c4.08-8.69,7.16-17.54,8.09-25.81a44.66,44.66,0,0,0,.27-4.71c0-5.29-1.15-9.11-3-11.68a8.26,8.26,0,0,0-6.67-3.86,6.32,6.32,0,0,0-1.45.16,8.08,8.08,0,0,0-3,1.35,11.24,11.24,0,0,0-3.3,4.11A39.17,39.17,0,0,0,212,52.82a12.63,12.63,0,0,1-.74,2.06,1.35,1.35,0,0,1-.13.21l0,0,.28.28-.17-.35-.11.07.28.28-.17-.35.31.64V55a.78.78,0,0,0-.31.07l.31.64v-.18l.18-.5-.18,0v.53l.18-.5-.06.18.07-.18h0l-.06.18.07-.18h0l0,0a4.44,4.44,0,0,0-2.55-.82,4.23,4.23,0,0,0-3.33,1.67,6,6,0,0,0-1.23,3.78,8.19,8.19,0,0,0,.51,2.8c.85,2.37,1.63,5.11,2.19,7.24.28,1.07.5,2,.66,2.64.08.32.14.58.18.75l.06.27v0h0a2.36,2.36,0,0,1,.08.65,2.78,2.78,0,0,1-.56,1.68l1.2.9-1-1.12-30.51,27.11a1.5,1.5,0,0,0,2,2.24Z"/><path class="cls-3" d="M189.07,83.42l-13.9-23.51H68.6L57,79.54a16.5,16.5,0,0,0-2.29,8.39v68.93a5.06,5.06,0,0,0,5.06,5.07H189.07Z"/><path class="cls-4" d="M68.6,59.91,57.43,78.8a19.65,19.65,0,0,0-2.73,10v67a6.11,6.11,0,0,0,6.11,6.11H68.6"/><path class="cls-4" d="M175.17,60.9,186.3,78.74a19.93,19.93,0,0,1,2.77,10.13V157a4.92,4.92,0,0,1-4.92,4.92h-9"/><path class="cls-2" d="M67.6,62v100a1,1,0,0,0,2,0V62a1,1,0,0,0-2,0"/><path class="cls-2" d="M174.17,62v100a1,1,0,0,0,2,0V62a1,1,0,0,0-2,0"/><rect class="cls-5" x="54.88" y="83.34" width="134.38" height="78.69" rx="4.94"/><path class="cls-2" d="M184.32,162v-1.5H59.82a3.43,3.43,0,0,1-3.44-3.43V88.27a3.43,3.43,0,0,1,3.44-3.43h124.5a3.44,3.44,0,0,1,2.43,1,3.49,3.49,0,0,1,1,2.43v68.82a3.49,3.49,0,0,1-1,2.43,3.44,3.44,0,0,1-2.43,1v3a6.45,6.45,0,0,0,6.44-6.43V88.27a6.45,6.45,0,0,0-6.44-6.43H59.82a6.43,6.43,0,0,0-6.44,6.43v68.82a6.43,6.43,0,0,0,6.44,6.43h124.5Z"/><path class="cls-2" d="M187,80.12l1.29-.76-10.47-17.7a6.61,6.61,0,0,0-5.69-3.25H71.41a6.61,6.61,0,0,0-5.69,3.25L54.82,80.09h0a13.38,13.38,0,0,0-1.48,4.29,17.12,17.12,0,0,0-.24,2.87v69.56a6.6,6.6,0,0,0,6.61,6.61H183.86a6.61,6.61,0,0,0,6.61-6.61V88.34c-.13-1.68-.09-3-.32-4.37a12.09,12.09,0,0,0-1.86-4.64l-1.27.79,1.29-.76-1.29.76-1.28.79a9.12,9.12,0,0,1,1.45,3.54c.18,1,.16,2.28.28,4.1l1.5-.1h-1.5v68.37a3.62,3.62,0,0,1-3.61,3.61H59.71a3.6,3.6,0,0,1-3.61-3.61V87.26a13.32,13.32,0,0,1,.2-2.36,10.3,10.3,0,0,1,1.12-3.31l-1.3-.75,1.29.77L68.3,63.19a3.61,3.61,0,0,1,3.11-1.78H172.15a3.61,3.61,0,0,1,3.11,1.78L185.73,80.9h0Z"/><polygon class="cls-6" points="110.09 9.28 133.7 9.25 133.74 29.5 151.12 29.47 122 74.33 92.73 29.56 110.12 29.54 110.09 9.28"/><polygon class="cls-2" points="110.09 9.28 110.09 10.78 132.21 10.75 132.24 31 148.35 30.98 121.99 71.58 95.5 31.06 111.62 31.04 111.59 9.28 110.09 9.28 110.09 10.78 110.09 9.28 108.59 9.29 108.62 28.04 89.96 28.07 122 77.07 153.89 27.97 135.24 28 135.2 7.75 108.58 7.79 108.59 9.29 110.09 9.28"/></svg>