<?xml version="1.0" encoding="UTF-8"?>
<svg id="_レイヤー_1" data-name="レイヤー 1" xmlns="http://www.w3.org/2000/svg" viewBox="0 0 660 660">
  <defs>
    <style>
      .cls-1 {
        fill: none;
      }

      .cls-2 {
        fill: #4742c2;
      }

      .cls-3 {
        fill: #fff;
      }

      .cls-4 {
        fill: #f0f0f7;
      }

      .cls-5 {
        fill: #ebebf7;
      }
    </style>
  </defs>
  <g>
    <g>
      <path class="cls-1" d="M237.04,133.27c2.55,1.59,5.5.98,7.41-1.33l1.97-1.96c1.83-1.48,2.7-4.07,1.73-6.28l-4.82-9.83-.61-1.24c-.45-.72-.75-1.53-.92-2.35l-22.07-1.37c.05,1.01.37,1.95.93,2.95l4.52,9.13c.79,1.52,1.72,3.34,1.51,5.18-.03.62-.16,1.22-.37,1.81l9.49,4.69,1.23.61Z"/>
      <path class="cls-1" d="M244.05,336.32c-1.04-.77-1.84-1.81-2.37-2.97h-20.18c.47.54,1.05,1.02,1.76,1.41l4.42,3.2c1.35,1.1,2.86,1.32,4.45,1.06,1.84.04,3.74.02,5.6.03,2-.03,6.22,0,10.1.03l-1.52-1.11-2.25-1.65Z"/>
      <path class="cls-1" d="M213.86,134.53c.81-1.12,2.45-3.36,3.27-4.47.24-.32.51-.62.8-.89-6.12.01-17.47.03-17.57,0-2.34-.42-4.73.72-5.93,2.82l-.93,1.28c-.9,1.35-2.82,3.59-3.42,5.03-.19.5-.28,1.01-.32,1.51h21.74c.13-1.9.94-3.8,2.35-5.29Z"/>
      <path class="cls-1" d="M438.48,273.47c-3.28-.46-7.68-1.13-10.93-1.59-.52-.07-1.04-.04-1.54.08-1.69,3.1-3.55,6.11-5.54,9.03.13,1.05.63,2.05,1.46,2.8,1.35,1.37,2.58,2.64,3.8,3.89l8.35-.86c.82-.08,1.58.39,1.89,1.12l8.55,20.11c1.15-.06,2.29-.61,2.98-1.55l1.59-2.18c.82-1.17,2.25-2.98,2.97-4.18.66-1.31.53-2.99-.37-4.17-.16-.23-.35-.42-.72-.8l-1.92-1.97-3.84-3.95-1.92-1.97c-4.02-3.59-4.11-8.18-1.47-12.46l.56-1.1c-1.19.13-2.49.06-3.9-.26Z"/>
      <path class="cls-1" d="M223.23,155.69c-.41-.73-.98-1.4-1.64-1.98-1.85-1.88-4.05-4.18-5.76-5.92l-1.92-1.97c-1.17-1.05-1.89-2.35-2.22-3.73h-21.61c.34.95.92,1.82,1.73,2.52l1.1,1.13,4.41,4.51,2.2,2.25c1.04.84,1.81,1.97,2.25,3.21.04,0,.07-.02.11-.02h21.33Z"/>
      <path class="cls-1" d="M428.04,268.26l.54.08,2.09.3c2.03.28,6.3.93,8.34,1.22,2.18.47,4.52.52,5.95-1.4.76-.79.96-2.37,1.35-3.3.38-1.12,1.58-4.64,1.74-5.68.26-2.23-1.21-4.05-3.2-4.86l-1.87-.98c-1.56-.84-5.43-2.81-7.87-4.14-1.81,6.48-4.21,12.76-7.18,18.75.03,0,.07,0,.1,0Z"/>
      <path class="cls-1" d="M212.59,303.09c-.61-.79-1.02-1.71-1.27-2.67h-20.82c.17.39.37.77.64,1.11.88,1.24,3.13,4.27,3.98,5.46,1.1,1.63,3.07,2.34,4.97,2.19,1.77-.05,10.73-.02,16.92-.01-.13-.16-.26-.33-.38-.51-.66-.89-3.44-4.78-4.04-5.58Z"/>
      <path class="cls-1" d="M204.56,165.66c1.55.22,6.52.96,8.17,1.2,1.04.12,3.02.51,3.93.53,1.87.04,3.69-1.06,4.54-2.73.61-1.3,1.92-3.56,2.4-4.77.25-.66.33-1.31.3-1.94h-21.68c.06,1.4-.26,2.81-1.03,4.03l-1.42,2.79c-.2.41-.47.94-.72,1.34,1.61-.74,3.52-.94,5.51-.45Z"/>
      <path class="cls-1" d="M433.92,239.86c.32-1.42.62-2.85.87-4.29-.3.67-.49,1.42-.54,2.19-.04.47-.2,1.34-.33,2.1Z"/>
      <path class="cls-1" d="M256.72,332.94l-.62,5.41c.67-.24,1.29-.63,1.82-1.17.13-1.58-.2-3.11-1.19-4.24Z"/>
      <path class="cls-1" d="M264.15,103.62l3.95,3.84c1.21,1.27,2.37,2.13,4.08,2.22,1.74.15,3.03-.75,4.62-1.53l2.41-1.24c1.68-.92,2.76-2.82,2.67-4.73-.37-3.07-.6-4.17-.95-6.7l-.8-5.45c-.06-.48-.14-.86-.19-1.41-.04-.3-.05-.6-.05-.89h-21.46c-.1,0-.19-.03-.28-.06,0,.19-.02.39,0,.58l1.32,9.31.25,1.75c.17.15.33.31.48.48l3.95,3.84Z"/>
      <path class="cls-1" d="M425.22,291.44c-.58.06-1.13-.16-1.51-.55-1.58-1.66-3.79-3.79-5.25-5.46-.21-.26-.39-.54-.56-.83-4.7,6.29-10.1,12.05-16.13,17.13,2.02-.46,4.2-.2,5.99.86l.95.47c2.03,1.02,3.89,1.91,5.73,2.83l3,1.48c.34-.41.7-.8,1.11-1.15l1.91-1.91c1.2-1.59,3.96-3.16,6.19-3.22,2.27-.25,4.41.81,6.36,1.83l6.7,3.31-6.62-15.6-7.88.8Z"/>
      <path class="cls-1" d="M244.63,102.73l4.46-3.23c.22-.17.46-.34.69-.51l-18.98-.03s-.04.02-.06.02c-1.6-.02-2.97.91-4.18,1.85l-4.12,2.99c-1.12.73-1.91,1.69-2.35,2.83l21.57,1.34c.19-2.07,1.19-4.06,2.97-5.27Z"/>
      <path class="cls-1" d="M222.71,277.63c-.42-.8-1.43-2.82-1.86-3.65-1.02-1.98-3.42-2.83-5.52-2.32-2.66.37-8.23,1.2-10.9,1.57-1.67.41-3.34.29-4.83-.26.07.13.14.26.21.38l1.02,1.99c1.05,1.71,1.61,3.35,1.67,4.92l20.88-1.04c-.14-.56-.36-1.1-.66-1.6Z"/>
      <path class="cls-1" d="M198.07,251.34l9.76-5.11c.63-.33,1.18-.8,1.6-1.37l-21.21.64c-.85,1.49-2.19,2.71-3.73,3.32l-2.54,1.34-5.08,2.67-2.54,1.34c-.84.43-1.42.83-1.95,1.47l20.86-.23c1.03-1.84,2.79-3.28,4.82-4.07Z"/>
      <path class="cls-1" d="M209.85,237.98l-.21-1.35c-.05-.36-.15-.7-.27-1.04-.27-.77-.7-1.34-1.22-1.8l-20.2.97c.05.12.1.23.14.35.48,1.67.7,4.11,1.02,5.82.14.76.12,1.53-.02,2.28l21.29-.64c.18-1.3-.42-3.38-.52-4.58Z"/>
      <path class="cls-1" d="M192.52,179.84c-.09-1.02.25-2.23.55-3.12.42-1.3,1.29-3.93,1.71-5.24.36-1.46,1.04-2.7,1.95-3.68l-17.28-.26c-1.67-.25-3.45.27-4.65,1.47-1.36,1.04-1.61,3.34-2.2,4.77l-.88,2.73c-.57,1.37-.79,2.66-.65,3.82l21.63.91c-.1-.46-.18-.93-.19-1.41Z"/>
      <path class="cls-1" d="M192.42,260.25c-.11-.62-.13-1.22-.09-1.8l-20.76.23c-.14,0-.26-.02-.39-.05-.04.5-.01,1.01.1,1.51.37,1.47,1.29,3.87,1.72,5.37.57,1.85.94,3.17,2.55,4.21.81.56,1.85,1.08,2.81,1.21.15-.01.26,0,.54-.01h1.44s5.75,0,5.75,0h10.4c-.96-1.05-1.66-2.35-1.98-3.87-.41-1.22-1.87-5.58-2.09-6.79Z"/>
      <path class="cls-1" d="M212.7,293.53c.53-.66,4.21-4.36,4.9-5.07.89-.94,4.03-4.08,4.76-4.88.37-.39.65-.84.84-1.32l-20.94,1.04c-.11,0-.21,0-.32-.02-.5,1.17-1.34,2.3-2.55,3.37-2.2,2.23-5.86,6.05-7.86,8.07-.74.73-1.2,1.67-1.38,2.67h20.95c.17-1.4.68-2.76,1.59-3.87Z"/>
      <path class="cls-1" d="M286.04,80.5l.49-.16-14.65.11.03-.04c-.76-.01-1.51-.29-2.28-.13-.34.04-.67.11-1,.21l-1.12.36-4.5,1.46-1.12.36c-1.39.44-2.52,1.48-3.17,2.76h21.58c.89-2.46,3.12-4.41,5.75-4.95Z"/>
      <path class="cls-1" d="M243.91,306.96c-1.33-1.65-3.64-2.49-5.64-1.6l-9.8,4.8-1.24.61c-.13.08-.26.14-.39.21.02.09.05.18.07.27l19.46-1.83c-.8-.87-1.75-1.66-2.46-2.45Z"/>
      <path class="cls-1" d="M201.53,231.84l-8.52-1.47c-2.02-.3-3.74-1.49-4.88-3.1l-19.7.31c1.08.5,2.36.77,3.71.89l5.66.96c2.02.38,3.8.53,5.8,1.09,1.17.4,2.2,1.13,3.02,2.06.03,0,.06-.02.09-.02l14.82-.71Z"/>
      <path class="cls-1" d="M207.72,192.16l-2.42-1.27-4.87-2.57-2.44-1.28-1.22-.64c-1.27-.61-2.36-1.62-3.12-2.84l-21.7-.91c.65.92,1.64,1.7,2.99,2.27,1.44.76,6.08,3.18,7.62,3.99,1.76.95,3.8,1.74,5,3.36.14-.07.3-.11.47-.11h19.68Z"/>
      <path class="cls-1" d="M241.56,326.86l4.93-9.96c.65-1.42,1.62-2.74,1.44-4.31,0-.1-.01-.19-.02-.28l-20.91,1.97c-.16.99-.51,1.96-1.06,2.82l-4.82,9.8c-.7,1.13-.99,2.31-.91,3.43h20.72c-.06-1.18.13-2.37.62-3.46Z"/>
      <path class="cls-1" d="M186.68,221.97c-.02-.91.02-3.19,0-4.13v-1.38c-.17-2.75,1.09-5.55,3.44-7.04,1.54-1.08,3.99-1.33,5.78-1.63.25-.04.53-.09.83-.15h-11.51c-.18,0-.35-.05-.5-.13-.61.36-1.28.63-2,.76l-11.35,1.97-1.41.24c-2.07.28-3.82,1.77-4.4,3.76-.26.78-.22,1.55-.22,2.57v5.74c0,1.11.23,2.03.63,2.78l21.04-.33c-.31-.97-.44-2.01-.33-3.04Z"/>
      <path class="cls-1" d="M209.5,202.93c.42-1.38.65-3.76.92-5.2.24-1.16.07-2.31-.42-3.3h-21.28c.42,1.32.47,2.77.18,4.03l-.44,2.81c-.05,1.44-.57,2.89-1.43,4.11h20.53c.88-.58,1.59-1.43,1.94-2.46Z"/>
      <path class="cls-1" d="M258.37,100.83c-.67-.64-1.47-1.11-2.35-1.35l1.83,5.53c.69-1.26.7-2.71.52-4.18Z"/>
      <path class="cls-1" d="M280.14,354.65l-18.52.59s.04.02.05.03c.27.1.64.23,1.03.35l1.15.37c1.14.38,3.45,1.1,4.59,1.48.73.21,1.39.22,2.08.34l12.57-.09c-1.21-.76-2.24-1.83-2.95-3.08Z"/>
      <path class="cls-1" d="M388.41,106.65c2.82,1.28,5.8,3.85,8.84,1.97.3-.19.58-.39.84-.64l.97-.94,1.97-1.93,3.93-3.86,1.74-1.71-16.98-.12h-.11s-.96-.01-.96-.01h-.01s0,0-.01,0c-.85.07-1.68.36-2.39.83-.07.04-.14.11-.21.16-.11.74-.21,1.47-.22,1.91-.03,1.79,1.03,3.53,2.63,4.33Z"/>
      <path class="cls-1" d="M433.59,197.17l.12.77.57,3.53c.07.92.43,1.81.98,2.54-.41-2.79-.95-5.55-1.6-8.29-.1.47-.13.96-.07,1.46Z"/>
      <path class="cls-1" d="M351.22,219.31c.37,15.92-9.18,30.3-22.8,37.15,1.7.21,3.45.31,5.24.3,33.04-.52,49.82-40.33,26.77-64.21-8.98-9.56-22.5-13.14-34.88-10.68,13.96,5.49,25.1,18.47,25.67,37.45Z"/>
      <path class="cls-1" d="M393.34,330.44c-1.31.61-3.33,1.67-4.64,2.33-1.72.87-2.39,2.96-1.94,4.76l.07.47s.04.02.06.04c.44.27.98.37,1.5.51.49,0,.98.01,1.46,0l15.09-.03c-2.09-2.05-4.97-4.85-6.59-6.45-1.29-1.5-3.07-2.39-5-1.62Z"/>
      <path class="cls-1" d="M304.93,190.58c3.95-4.02,8.48-6.98,13.3-8.97-21.64-4.72-46.55,9.68-46.93,37.7-.03,20.68,18.07,38.34,38.71,37.79,1.9,0,3.76-.17,5.57-.45-23.43-11.82-31.37-45.02-10.65-66.07Z"/>
      <path class="cls-1" d="M345.21,204.73c-4.95-11.66-13.49-18.84-23.05-22.04-5.84,1.72-11.3,4.84-15.74,9.39-21.17,21.15-10.31,55.18,15.53,63.02,19.83-6.77,31.73-29.61,23.26-50.37Z"/>
      <path class="cls-1" d="M423.4,131.67c1.33,1.64,3.66,2.46,5.64,1.57l7-3.48-14.22-.03c-.13.02-.26.03-.39,0,.73.71,1.52,1.43,1.97,1.94Z"/>
      <path class="cls-1" d="M279.18,349.71c.32-2.3,1.07-7.17,1.41-9.57.11-.95.51-3.03.52-3.84.03-1.63-.92-3.23-2.39-3.98-1.21-.57-3.62-1.94-4.69-2.37-1.55-.57-3.38-.21-4.57.93l-.97.94c-1.84,1.81-4.21,4.08-5.93,5.76l-1.98,1.92c-.12.12-.27.26-.42.4l-1.25,8.72-.17,1.2c-.17.85-.09,1.71.18,2.5l20.22-.65c-.07-.64-.07-1.29.04-1.95Z"/>
      <path class="cls-1" d="M297.22,91.61c.38-2.34.97-5.65,1.38-8.1-.54-.97-1.14-1.78-2.2-2.33-.39-.21-.8-.36-1.22-.47l1.98,11.1c.02-.06.04-.13.05-.19Z"/>
      <path class="cls-1" d="M306.5,93.6c1.1,2.09,3.47,3.07,5.78,2.56l2.75-.44c.72-.15,1.76-.21,2.43-.51,2.44-.86,3.21-3.22,3.46-5.66l1.84-10.86c.23-1.59,1.03-2.98,2.15-4.06-5.41,0-11.96-.02-16.02-.02-.82-.03-2.19,0-2.94.02-1.72.16-3.33,1.22-4.16,2.75-.63.99-.88,3.44-1.15,4.99.28.47.52.96.72,1.49l5.14,9.74Z"/>
      <path class="cls-1" d="M399.68,307.35l-1.53,1.53c-.05.04-.1.09-.15.14l2.07-1.02c.93-.46,2.06-.08,2.52.85l11.87,28.81c.24-.12.47-.27.69-.44l1.11-.81,4.46-3.23c1.85-1.37,2.1-3.78.87-5.71l-.61-1.24-4.92-10.02c-.78-1.77-.84-3.72-.35-5.52-2.77-1.38-8.35-4.09-10.47-5.15-2.12-.91-4.2.15-5.58,1.8Z"/>
      <path class="cls-1" d="M429.75,306.41l-.62-.3c-1.19-.61-2.65-.62-3.82.05-.56.29-1.59,1.35-2.47,2.25h10.97s-2.84-1.39-2.84-1.39l-1.24-.61Z"/>
      <path class="cls-1" d="M346.75,91.07c.28,2.26,2.12,4.08,4.37,4.35.87.13,3.22.51,4.12.65,1.51.29,3-.06,4.15-.98,1.46-1.28,1.74-2.6,2.64-4.15l2.55-4.88,1.28-2.44.64-1.22c.28-.63.66-1.19,1.11-1.7l-17.04-.18c-.49-.01-.98-.01-1.47-.02-.01,0-.03.01-.04.01-.95.12-1.87.49-2.61,1.08-.45.32-.81.77-1.13,1.25l.72,4.16c.18,1.12.54,3.04.7,4.07Z"/>
      <path class="cls-1" d="M373.11,124.07c-67.59-27.94-142.38,21.99-141.92,95.24.48,72.23,74.55,121.26,141.18,93.46,18.87-7.88,35.16-21.63,46.57-38.58l.71-1.39c.4-.85.97-1.61,1.64-2.26,4.51-7.32,8.12-15.18,10.66-23.37-1.8-2.14-2.28-5.12-1.59-7.88l.32-2.05c.22-3.24,2.11-6.03,4.94-7.27.41-3.52.64-7.07.64-10.65.05-3.56-.11-7.11-.45-10.64-2.37-1.01-4.29-3.17-4.8-5.73-.12-.76-.59-3.61-.7-4.43-.62-2.68.25-5.53,2.12-7.46-2.17-7.57-5.22-14.89-9.04-21.77-1.61-.84-2.96-2.22-3.68-3.92-.33-.77-1.72-3.28-2.01-3.99-.3-.65-.48-1.35-.58-2.06-11.02-15.51-26.21-28.05-44.02-35.26ZM333.66,261.01c-4.27-.07-8.28-.73-12-1.89-3.72,1.08-7.63,1.64-11.65,1.55-28.91-.12-48.52-30.36-37.26-56.78,9.55-21.56,30.69-28.39,48.63-23.42,19.29-6.16,42,2.6,50.63,22.96,11.77,27.17-8.63,58.06-38.35,57.58Z"/>
      <g>
        <path class="cls-2" d="M388.43,97.11h.05s0,0,.01,0h-.07Z"/>
        <polygon class="cls-2" points="388.51 97.1 388.5 97.11 388.53 97.1 388.51 97.1"/>
        <path class="cls-2" d="M321.38,180.46c-1.06.34-2.11.72-3.15,1.15-4.81,1.99-9.34,4.96-13.3,8.97-20.73,21.05-12.78,54.25,10.65,66.07,1.93.97,3.96,1.8,6.08,2.46,3.72,1.16,7.73,1.83,12,1.89,29.72.48,50.12-30.41,38.35-57.58-8.63-20.37-31.34-29.12-50.63-22.96ZM306.43,192.08c4.43-4.54,9.89-7.67,15.74-9.39,9.55,3.2,18.09,10.38,23.05,22.04,8.48,20.76-3.43,43.6-23.26,50.37-25.84-7.84-36.7-41.88-15.53-63.02ZM333.66,256.75c-1.8.02-3.54-.09-5.24-.3,13.62-6.84,23.17-21.22,22.8-37.15-.57-18.97-11.71-31.96-25.67-37.45,12.38-2.46,25.9,1.12,34.88,10.68,23.05,23.89,6.27,63.7-26.77,64.21Z"/>
        <path class="cls-2" d="M438.55,209.35c-.11-1.21-.24-2.42-.4-3.62-.57-4.41-1.42-8.72-2.52-12.91-.3-1.13-.61-2.25-.94-3.37-2.02-6.76-4.73-13.2-8-19.27-.7-1.3-1.43-2.59-2.18-3.86-1.21-2.03-2.49-4.01-3.83-5.95-1.06-1.53-2.15-3.03-3.29-4.49-27.73-35.84-77.75-52.82-123.91-33.58-38.65,15.54-65.55,55.3-65.32,97-.62,75.54,76.54,127.51,146.39,98.71,7.07-2.79,13.68-6.38,19.77-10.6,2.58-1.78,5.07-3.67,7.45-5.68,6.03-5.08,11.43-10.84,16.13-17.13.88-1.18,1.74-2.39,2.57-3.61,1.99-2.92,3.85-5.93,5.54-9.03.67-1.22,1.31-2.46,1.93-3.71,2.97-5.99,5.37-12.27,7.18-18.75.33-1.19.64-2.38.93-3.58,1.03-4.27,1.8-8.62,2.3-13.02.14-1.23.26-2.47.35-3.7.25-3.28.37-6.58.32-9.89,0-3.37-.16-6.69-.47-9.96ZM436.27,219.31c0,3.58-.22,7.13-.64,10.65-.22,1.88-.51,3.75-.84,5.61-.26,1.44-.55,2.87-.87,4.29-.56,2.46-1.21,4.9-1.96,7.31-2.55,8.2-6.16,16.05-10.66,23.37-.67.65-1.24,1.41-1.64,2.26l-.71,1.39c-11.41,16.95-27.7,30.7-46.57,38.58-66.63,27.8-140.7-21.22-141.18-93.46-.47-73.25,74.32-123.18,141.92-95.24,17.81,7.21,33,19.75,44.02,35.26,2.27,3.2,4.37,6.53,6.27,9.96,3.82,6.89,6.87,14.2,9.04,21.77.44,1.54.85,3.09,1.22,4.65.65,2.74,1.19,5.5,1.6,8.29.23,1.55.41,3.11.56,4.67.34,3.52.51,7.07.45,10.64Z"/>
      </g>
    </g>
    <path class="cls-5" d="M333.66,256.75c-1.8.02-3.54-.09-5.24-.3,13.62-6.84,23.17-21.22,22.8-37.15-.57-18.97-11.71-31.96-25.67-37.45,12.38-2.46,25.9,1.12,34.88,10.68,23.05,23.89,6.27,63.7-26.77,64.21Z"/>
    <path class="cls-5" d="M258.14,87.66c.09.02.18.06.28.06h21.46c0,.29,0,.59.05.89.05.55.13.94.19,1.41l.8,5.45c.35,2.53.59,3.63.95,6.7.1,1.91-.99,3.81-2.67,4.73l-2.41,1.24c-1.59.79-2.88,1.69-4.62,1.53-1.71-.09-2.87-.96-4.08-2.22l-3.95-3.84-3.95-3.84c-.15-.17-.32-.33-.48-.48l-.25-1.75-1.32-9.31c-.02-.19,0-.39,0-.58Z"/>
    <path class="cls-5" d="M301.78,77.38c.83-1.52,2.43-2.59,4.16-2.75.75-.03,2.13-.05,2.94-.02,4.05,0,10.6.02,16.02.02-1.12,1.07-1.91,2.47-2.15,4.06l-1.84,10.86c-.26,2.44-1.03,4.8-3.46,5.66-.68.3-1.72.36-2.43.51l-2.75.44c-2.31.51-4.68-.47-5.78-2.56l-5.14-9.74c-.2-.52-.45-1.02-.72-1.49.27-1.55.52-4,1.15-4.99Z"/>
    <path class="cls-5" d="M346.45,81.58c.75-.59,1.67-.96,2.61-1.08.01,0,.03-.01.04-.01.49,0,.98,0,1.47.02l17.04.18c-.45.51-.83,1.07-1.11,1.7l-.64,1.22-1.28,2.44-2.55,4.88c-.91,1.55-1.18,2.86-2.64,4.15-1.15.92-2.64,1.27-4.15.98-.9-.14-3.25-.52-4.12-.65-2.25-.27-4.09-2.09-4.37-4.35-.17-1.03-.52-2.95-.7-4.07l-.72-4.16c.31-.48.68-.94,1.13-1.25Z"/>
    <path class="cls-5" d="M386,100.4c.07-.05.15-.12.21-.16.71-.47,1.54-.76,2.39-.83,0,0,0,0,.01,0h.01s.96,0,.96,0h.11s16.98.13,16.98.13l-1.74,1.71-3.93,3.86-1.97,1.93-.97.94c-.25.25-.54.45-.84.64-3.04,1.89-6.01-.68-8.84-1.97-1.6-.81-2.66-2.55-2.63-4.33,0-.44.11-1.17.22-1.91Z"/>
    <path class="cls-5" d="M421.81,129.72l14.22.03-7,3.48c-1.98.89-4.3.08-5.64-1.57-.45-.5-1.25-1.22-1.97-1.94.13.02.26.01.39,0Z"/>
    <path class="cls-5" d="M225.17,120.98l-4.52-9.13c-.56-1-.88-1.94-.93-2.95l22.07,1.37c.17.83.47,1.63.92,2.35l.61,1.24,4.82,9.83c.97,2.21.1,4.79-1.73,6.28l-1.97,1.96c-1.91,2.31-4.86,2.92-7.41,1.33l-1.23-.61-9.49-4.69c.21-.59.34-1.19.37-1.81.21-1.84-.72-3.66-1.51-5.18Z"/>
    <path class="cls-5" d="M199.53,152.5l-2.2-2.25-4.41-4.51-1.1-1.13c-.81-.7-1.39-1.57-1.73-2.52h21.61c.33,1.38,1.05,2.68,2.22,3.73l1.92,1.97c1.71,1.74,3.91,4.04,5.76,5.92.66.57,1.23,1.24,1.64,1.98h-21.33s-.07.02-.11.02c-.45-1.24-1.21-2.37-2.25-3.21Z"/>
    <path class="cls-5" d="M199.77,164.78l1.42-2.79c.77-1.22,1.09-2.63,1.03-4.03h21.68c.03.63-.05,1.28-.3,1.94-.48,1.21-1.79,3.47-2.4,4.77-.85,1.67-2.67,2.76-4.54,2.73-.91-.02-2.89-.41-3.93-.53-1.66-.24-6.63-.98-8.17-1.2-1.99-.48-3.9-.29-5.51.45.26-.4.53-.93.72-1.34Z"/>
    <path class="cls-5" d="M182.58,188.91c-1.54-.81-6.19-3.23-7.62-3.99-1.35-.58-2.34-1.35-2.99-2.27l21.7.91c.76,1.22,1.84,2.23,3.12,2.84l1.22.64,2.44,1.28,4.87,2.57,2.42,1.27h-19.68c-.17,0-.32.04-.47.11-1.2-1.62-3.23-2.41-5-3.36Z"/>
    <path class="cls-5" d="M188.45,201.27l.44-2.81c.29-1.26.24-2.71-.18-4.03h21.28c.49.99.66,2.14.42,3.3-.27,1.44-.51,3.82-.92,5.2-.36,1.03-1.06,1.88-1.94,2.46h-20.53c.86-1.22,1.38-2.67,1.43-4.11Z"/>
    <path class="cls-2" d="M481.42,216.64c.41-4.23-2.71-8.51-6.99-9.14l-10.86-1.83c-2.24-.28-4.18-.73-4.98-2.9-.11-.29-.2-.59-.24-.89l-.22-1.35-.45-2.76-.09-.58c-.24-1.7.67-3.48,2.19-4.28l9.73-5.15c3.08-1.27,5.88-4.04,5.99-7.68.23-2.41-1.63-6.39-2.24-8.66-1.03-4.79-5.76-7.64-10.43-6.48-2.68.39-8.23,1.24-10.9,1.62-1.95.49-4.2-.26-5.17-2.11l-1.23-2.39-.64-1.24c-1.45-2.35-.92-4.76,1.18-6.55,1.95-1.99,5.71-5.91,7.67-7.91,3.69-3.41,3.54-8.41.32-12.08l-3.25-4.45c-1.92-2.82-5.66-3.85-8.83-2.94l-20.38.05s-.02,0-.04,0c-.64-.1-1.34-.07-2.03.05-.41-1.36-.11-2.82.63-4.1l.61-1.24,4.87-9.98c1.41-3.2.33-7.19-2.47-9.26-1.96-1.35-5.03-3.81-6.99-4.92-1.81-.95-3.97-1-5.9-.37l-20.57-.05h.11s-1.34,0-1.34,0c-.04,0-.07.02-.1.02v-.02c-.66.06-1.33.23-1.97.47l.67-4.63.39-2.73c1.1-4.63-1.38-8.82-5.94-9.92-1.31-.42-3.93-1.28-5.24-1.69-1.8-.76-3.85-.7-5.66,0l-20.03-.16c.69.02-2.08,0-1.48-.01-.2-.03-.39,0-.56.08-1.22.2-2.39.69-3.36,1.46-.11.08-.21.19-.32.28l-.24-1.4c-.5-3.86-4.28-6.75-8.14-6.41-.92.01-3.19-.01-4.13,0h-1.38c-.97-.1-1.94.01-2.87.29h-10.14c-3.54.05-8.73-.04-12.23.07-3.52.21-6.31,3.56-6.51,6.87l-.13.77c-1.88-1.8-4.46-2.65-7.2-1.87l-20,.21c-1.64-.44-3.35-.05-4.92.51l-4.5,1.47c-3.49.71-6.29,3.95-5.96,7.58.43,3.25.91,6.28,1.36,9.43.01.09.03.19.04.28-1.01-.53-2.13-.83-3.29-.83-.68-.04-1.33.07-1.95.26l-21.99.03s-.07.02-.11.02c-.91.05-1.82.26-2.66.65-1.63.86-4.79,3.41-6.35,4.48-3.3,1.88-4.28,6.7-2.25,9.83,1.29,2.65,4.22,8.45,5.55,11.36.43,1.19.4,2.43.02,3.57-1.47-.4-3.05-.3-4.48.22l-19.91-.02c-1.13-.19-2.31-.08-3.38.23-2.28.6-3.65,2.7-4.92,4.48l-1.86,2.55-.93,1.28c-1.77,2.42-1.72,5.94.1,8.31.36.49.78.89,1.12,1.25l1.1,1.13c1.89,1.92,4.58,4.73,6.6,6.78,2.28,1.94,3,4.94,1.37,7.56-.78,1.38-1.68,3.72-2.84,4.92-2.53-.04-17.78-.32-17.29-.29-3.28-.53-6.68,1.52-7.75,4.67l-.9,2.75-.89,2.73-.44,1.36c-1.35,3.72.96,7.79,4.52,9.16l2.54,1.34,5.08,2.67c1.62.94,3.14,1.33,4.42,2.9,1.77,2.1.85,5.1.47,7.59-.21,2.63-1.65,4.91-4.3,5.46l-11.27,1.93-1.41.24c-1.46.2-2.83.89-3.91,1.89l-.4.39c-.74.79-1.3,1.74-1.6,2.79-.35,1.05-.31,2.23-.31,3.12v5.74c-.09,1.37.29,2.73,1,3.92,0,0,0,.01,0,.02,0,.49.33.89.76,1.04.97,1.14,2.27,2,3.74,2.32,1.07.23,1.92.34,2.89.52l5.65.97,2.83.49c.94.18,1.94.28,2.64.54,1.52.53,2.75,1.81,3.24,3.35.39,1.33.63,4,.92,5.48.39,2.58-1.18,4.82-3.56,5.82-2.84,1.49-7.33,3.84-10.17,5.32-3.62,1.54-5.25,6.14-3.69,9.71.33.91.97,3.16,1.33,4.09.65,3.52,3.53,6.29,7.06,6.87h.9s1.43.01,1.43.01h5.73s10.98.02,10.98.02c.69.88,1.24,2.44,1.78,3.29.45,1.04,1.52,2.58,1.43,3.76.32,2.92-2.29,4.68-4.08,6.63l-6.3,6.44c-2.59,2.49-2.81,6.9-.62,9.68l2.64,3.65,1.32,1.82c1.26,1.81,3.39,3.02,5.62,3.13h1.17s4.51.02,4.51.02l15.9.02c1.32.43,2.75.52,4.12.27.32,1.4.07,2.92-.79,4.28l-4.85,9.78c-2.01,3.11-1.39,7.84,1.74,10.09.88.6,4.53,3.4,5.53,4.04.73.58,1.81,1.18,2.84,1.42,1.06.27,2.17.3,3.24.11.77.03,3.42.16,5.38.07,2.74.07,9.74.03,14.18.06,1.72.62,3.65.66,5.37.06l-.96,6.54c-.08.74-.34,1.85-.29,2.61-.02,1.06.22,2.08.65,3.01,0,.02,0,.03,0,.05.02.55.33,1.02.78,1.27,1.08,1.48,2.67,2.6,4.46,3.04l1.16.38,2.31.76c1.55.51,3.41,1.17,5.1,1.22l20.34-.07c1.15.38,2.33.7,3.43.6,1.63-.01,3.24-.63,4.57-1.6,1.05-.77,1.93-1.76,2.49-2.9.02-.03.04-.06.05-.1l.64-1.22,1.29-2.44c1.11-2.11,2.68-5.04,3.86-7.31.92-1.82,2.82-2.74,4.85-2.33l2.76.44c.61.12,1.79.23,2.33.45,1.56.54,2.61,1.95,2.82,3.57.16,1.02.51,2.97.69,4.07l.92,5.43.46,2.72c.17,1.27.67,2.47,1.42,3.52.98,1.38,2.37,2.48,3.96,3.06.61.23,1.25.38,1.91.44,1.66.1,4.05.06,5.73.07h1.38c4.19.42,8.44-2.66,9.08-6.9l.09-.51.64-3.69,1.15-6.66c.29-2.23.75-4.17,2.92-4.94.29-.1.58-.19.89-.23l1.35-.21,2.77-.43.58-.08c1.66-.23,3.41.68,4.17,2.17l5.1,9.76c.32.81.74,1.58,1.24,2.28,1.07,1.51,2.53,2.71,4.23,3.35,1.28.48,2.69.66,4.19.4,1.32-.22,5.58-1.72,6.9-2.12,3.51-.78,6.51-3.74,6.89-7.4.15-1.08-.02-2.29-.18-3.32l-.78-5.45-.15-1.03v-.09s-.06-.35-.06-.35l-.51-3.52-.07-.47c-.45-1.8.22-3.88,1.94-4.76,1.3-.66,3.33-1.72,4.64-2.33,1.94-.76,3.71.12,5,1.62,1.62,1.6,4.5,4.4,6.59,6.45.47.46.91.9,1.28,1.26.95,1.08,2.17,1.89,3.5,2.38,2.12.79,4.52.77,6.61-.23,1.93-.98,5.32-3.76,7.14-4.99,3.65-2.48,4.55-7.85,2.29-11.51l-.61-1.23-4.82-9.75c-.3-.71-.36-1.51-.22-2.27.04-.19.09-.38.15-.57.03-.09.07-.18.11-.27.04-.09.06-.18.1-.26.28-.6.85-1.08,1.29-1.56.16-.15.37-.36.6-.59.07-.07.14-.14.21-.22.09-.09.19-.19.28-.29.87-.9,1.9-1.96,2.47-2.25,1.16-.68,2.63-.67,3.82-.05l.62.3,1.24.61,2.84,1.39,7.17,3.52c.17.08.35.14.53.2,3.38,1.21,7.43.01,9.58-2.89,1.26-1.73,3.04-4.17,4.28-5.9,2.58-3.37,1.91-8.57-1.19-11.32l-1.92-1.97c-1.66-1.69-3.99-4.11-5.78-5.91l-.93-.96c-.21-.21-.38-.45-.53-.7-1.18-1.98-.3-3.61.76-5.62.9-1.72,1.76-4.2,3.98-4.53.69-.17,1.14-.08,1.94.02l2.73.39c1.69.26,6.58.94,8.18,1.18,5.01,1.2,9.65-1.61,10.84-6.5l.85-2.62.85-2.62c1.37-3.43.28-7.62-2.68-9.86-.4-.32-1.09-.72-1.49-.93l-1.22-.64-2.44-1.28-4.88-2.56-2.44-1.28c-1.75-.88-2.61-2.64-2.23-4.61.11-.92.56-3.27.65-4.15.23-1.9,1.73-3.39,3.63-3.62,2.6-.45,6.81-1.16,9.5-1.63,1.86-.36,4.51-.54,6.08-1.76,2.57-1.64,3.97-4.7,3.79-7.71v-1.38c-.03-.91.03-3.26,0-4.13ZM421.81,129.72l14.22.03-7,3.48c-1.98.89-4.3.08-5.64-1.57-.45-.5-1.25-1.22-1.97-1.94.13.02.26.01.39,0ZM386,100.4c.07-.05.15-.12.21-.16.71-.47,1.54-.76,2.39-.83,0,0,0,0,.01,0h.01s.96,0,.96,0h.11s16.98.13,16.98.13l-1.74,1.71-3.93,3.86-1.97,1.93-.97.94c-.25.25-.54.45-.84.64-3.04,1.89-6.01-.68-8.84-1.97-1.6-.81-2.66-2.55-2.63-4.33,0-.44.11-1.17.22-1.91ZM346.45,81.58c.75-.59,1.67-.96,2.61-1.08.01,0,.03-.01.04-.01.49,0,.98,0,1.47.02l17.04.18c-.45.51-.83,1.07-1.11,1.7l-.64,1.22-1.28,2.44-2.55,4.88c-.91,1.55-1.18,2.86-2.64,4.15-1.15.92-2.64,1.27-4.15.98-.9-.14-3.25-.52-4.12-.65-2.25-.27-4.09-2.09-4.37-4.35-.17-1.03-.52-2.95-.7-4.07l-.72-4.16c.31-.48.68-.94,1.13-1.25ZM301.78,77.38c.83-1.52,2.43-2.59,4.16-2.75.75-.03,2.13-.05,2.94-.02,4.05,0,10.6.02,16.02.02-1.12,1.07-1.91,2.47-2.15,4.06l-1.84,10.86c-.26,2.44-1.03,4.8-3.46,5.66-.68.3-1.72.36-2.43.51l-2.75.44c-2.31.51-4.68-.47-5.78-2.56l-5.14-9.74c-.2-.52-.45-1.02-.72-1.49.27-1.55.52-4,1.15-4.99ZM261.88,82.69l1.12-.36,4.5-1.46,1.12-.36c.33-.1.66-.18,1-.21.77-.16,1.52.12,2.28.13l-.03.04,14.65-.11-.49.16c-2.63.54-4.85,2.49-5.75,4.95h-21.58c.65-1.28,1.78-2.32,3.17-2.76ZM258.14,87.66c.09.02.18.06.28.06h21.46c0,.29,0,.59.05.89.05.55.13.94.19,1.41l.8,5.45c.35,2.53.59,3.63.95,6.7.1,1.91-.99,3.81-2.67,4.73l-2.41,1.24c-1.59.79-2.88,1.69-4.62,1.53-1.71-.09-2.87-.96-4.08-2.22l-3.95-3.84-3.95-3.84c-.15-.17-.32-.33-.48-.48l-.25-1.75-1.32-9.31c-.02-.19,0-.39,0-.58ZM222.44,103.82l4.12-2.99c1.22-.94,2.58-1.87,4.18-1.85.02,0,.04-.01.06-.02l18.98.03c-.24.17-.47.34-.69.51l-4.46,3.23c-1.78,1.21-2.78,3.2-2.97,5.27l-21.57-1.34c.44-1.14,1.23-2.11,2.35-2.83ZM225.17,120.98l-4.52-9.13c-.56-1-.88-1.94-.93-2.95l22.07,1.37c.17.83.47,1.63.92,2.35l.61,1.24,4.82,9.83c.97,2.21.1,4.79-1.73,6.28l-1.97,1.96c-1.91,2.31-4.86,2.92-7.41,1.33l-1.23-.61-9.49-4.69c.21-.59.34-1.19.37-1.81.21-1.84-.72-3.66-1.51-5.18ZM190.08,138.3c.59-1.44,2.52-3.68,3.42-5.03l.93-1.28c1.2-2.09,3.6-3.24,5.93-2.82.09.02,11.44,0,17.57,0-.29.27-.56.57-.8.89-.81,1.11-2.46,3.35-3.27,4.47-1.42,1.49-2.22,3.39-2.35,5.29h-21.74c.04-.51.13-1.01.32-1.51ZM199.53,152.5l-2.2-2.25-4.41-4.51-1.1-1.13c-.81-.7-1.39-1.57-1.73-2.52h21.61c.33,1.38,1.05,2.68,2.22,3.73l1.92,1.97c1.71,1.74,3.91,4.04,5.76,5.92.66.57,1.23,1.24,1.64,1.98h-21.33s-.07.02-.11.02c-.45-1.24-1.21-2.37-2.25-3.21ZM199.77,164.78l1.42-2.79c.77-1.22,1.09-2.63,1.03-4.03h21.68c.03.63-.05,1.28-.3,1.94-.48,1.21-1.79,3.47-2.4,4.77-.85,1.67-2.67,2.76-4.54,2.73-.91-.02-2.89-.41-3.93-.53-1.66-.24-6.63-.98-8.17-1.2-1.99-.48-3.9-.29-5.51.45.26-.4.53-.93.72-1.34ZM171.07,180.34c-.14-1.16.08-2.45.65-3.82l.88-2.73c.59-1.43.84-3.73,2.2-4.77,1.2-1.2,2.98-1.73,4.65-1.47l17.28.26c-.91.97-1.59,2.21-1.95,3.68-.42,1.3-1.29,3.93-1.71,5.24-.3.89-.64,2.1-.55,3.12,0,.48.08.94.19,1.41l-21.63-.91ZM182.58,188.91c-1.54-.81-6.19-3.23-7.62-3.99-1.35-.58-2.34-1.35-2.99-2.27l21.7.91c.76,1.22,1.84,2.23,3.12,2.84l1.22.64,2.44,1.28,4.87,2.57,2.42,1.27h-19.68c-.17,0-.32.04-.47.11-1.2-1.62-3.23-2.41-5-3.36ZM188.45,201.27l.44-2.81c.29-1.26.24-2.71-.18-4.03h21.28c.49.99.66,2.14.42,3.3-.27,1.44-.51,3.82-.92,5.2-.36,1.03-1.06,1.88-1.94,2.46h-20.53c.86-1.22,1.38-2.67,1.43-4.11ZM169.97,210.5l1.41-.24,11.35-1.97c.71-.13,1.38-.4,2-.76.15.08.32.13.5.13h11.51c-.3.05-.59.1-.83.15-1.79.3-4.24.55-5.78,1.63-.49.31-.92.69-1.31,1.1h-18.98s.08-.02.13-.03ZM165.35,222.56v-5.74c0-1.01-.04-1.79.22-2.57.18-.61.48-1.17.86-1.67h21c-.55,1.2-.81,2.55-.73,3.88v1.38c0,.94-.03,3.22,0,4.13-.11,1.03.02,2.06.33,3.04l-21.04.33c-.4-.75-.63-1.67-.62-2.78ZM186.71,232.55s-.06.02-.09.02c-.81-.93-1.85-1.66-3.02-2.06-2-.56-3.78-.71-5.8-1.09l-5.66-.96c-1.35-.11-2.63-.38-3.71-.89l19.7-.31c1.14,1.61,2.86,2.8,4.88,3.1l8.52,1.47-14.82.71ZM189.1,240.93c-.32-1.71-.54-4.15-1.02-5.82-.04-.12-.09-.24-.14-.35l20.2-.97c.52.46.95,1.04,1.22,1.8.12.34.22.68.27,1.04l.21,1.35c.1,1.2.7,3.28.52,4.58l-21.29.64c.14-.75.16-1.52.02-2.28ZM174.33,254.18l2.54-1.34,5.08-2.67,2.54-1.34c1.54-.61,2.88-1.83,3.73-3.32l21.21-.64c-.43.57-.97,1.04-1.6,1.37l-9.76,5.11c-2.03.79-3.8,2.23-4.82,4.07l-20.86.23c.53-.64,1.11-1.05,1.95-1.47ZM186.09,270.9h-5.75s-1.44,0-1.44,0c-.28,0-.39,0-.54.01-.96-.12-2-.64-2.81-1.21-1.61-1.04-1.98-2.36-2.55-4.21-.44-1.5-1.36-3.9-1.72-5.37-.11-.49-.14-1-.1-1.51.12.03.25.05.39.05l20.76-.23c-.04.58-.02,1.18.09,1.8.23,1.21,1.69,5.57,2.09,6.79.31,1.51,1.02,2.82,1.98,3.85h-10.4ZM199.81,273.36c-.07-.12-.14-.24-.21-.38,1.49.55,3.16.67,4.83.26,2.68-.38,8.24-1.2,10.9-1.57,2.1-.51,4.5.34,5.52,2.32.43.82,1.44,2.84,1.86,3.65.31.49.53,1.04.66,1.6l-20.88,1.04c-.06-1.57-.63-3.21-1.67-4.92l-1.02-1.99ZM191.54,294.73c1.99-2.02,5.65-5.84,7.86-8.07,1.21-1.07,2.05-2.2,2.55-3.37.1.02.21.02.32.02l20.94-1.04c-.19.48-.47.92-.84,1.32-.73.8-3.87,3.94-4.76,4.88-.68.72-4.37,4.41-4.9,5.07-.91,1.11-1.42,2.47-1.59,3.87h-20.95c.18-1,.64-1.94,1.38-2.67ZM200.09,309.19c-1.9.15-3.87-.56-4.97-2.19-.85-1.2-3.1-4.22-3.98-5.46-.27-.34-.47-.72-.64-1.11h20.82c.25.96.66,1.87,1.27,2.67.59.8,3.37,4.69,4.04,5.58.12.18.25.34.38.51-6.19,0-15.15-.04-16.92.01ZM220.21,330.32c-.08-1.12.21-2.3.91-3.43l4.82-9.8c.55-.87.89-1.83,1.06-2.82l20.91-1.97c0,.09.02.19.02.28.18,1.57-.79,2.9-1.44,4.31l-4.93,9.96c-.49,1.09-.68,2.28-.62,3.46h-20.72ZM226.85,310.97c.13-.07.26-.13.39-.21l1.24-.61,9.8-4.8c2-.88,4.31-.05,5.64,1.6.71.79,1.66,1.58,2.46,2.45l-19.46,1.83c-.02-.09-.04-.18-.07-.27ZM237.73,339.06c-1.86-.01-3.76,0-5.6-.03-1.58.26-3.1.04-4.45-1.06l-4.42-3.2c-.71-.39-1.29-.87-1.76-1.41h20.18c.53,1.16,1.33,2.2,2.37,2.97l2.25,1.65,1.52,1.11c-3.87-.03-8.1-.06-10.1-.03ZM258.74,349.81l.17-1.2,1.25-8.72c.15-.14.3-.28.42-.4l1.98-1.92c1.72-1.68,4.08-3.95,5.93-5.76l.97-.94c1.19-1.14,3.03-1.5,4.57-.93,1.07.43,3.48,1.79,4.69,2.37,1.47.75,2.42,2.35,2.39,3.98-.02.81-.41,2.89-.52,3.84-.34,2.39-1.09,7.26-1.41,9.57-.11.66-.11,1.31-.04,1.95l-20.22.65c-.27-.79-.35-1.65-.18-2.5ZM270.52,357.82c-.69-.12-1.34-.13-2.08-.34-1.14-.38-3.45-1.1-4.59-1.48l-1.15-.37c-.4-.12-.77-.25-1.03-.35-.02,0-.04-.02-.05-.03l18.52-.59c.71,1.25,1.74,2.32,2.95,3.08l-12.57.09ZM477.14,220.77v1.38s0,.69,0,.69c-.02.15,0,.3-.03.45-.13,1.2-.82,2.33-1.83,2.98-.53.34-1.02.54-1.74.65l-2.72.46c-2.36.39-5.62.97-8.15,1.39l-1.36.23c-.51.07-1.16.24-1.71.43-3.52,1.2-5.46,4.63-5.7,8.19l-.42,2.67c-.78,3.5,1.16,7.67,4.49,9.21l2.44,1.28,4.87,2.57,2.44,1.28,1.22.64c1.43.66,2.35,2.04,2.41,3.61.04,1.27-.9,3.33-1.23,4.56-.47,1.15-1.01,3.71-1.67,4.57-.67.98-1.8,1.65-2.98,1.74-.29.04-.59.01-.89-.02l-1.33-.19-2.73-.4-5.45-.8c-1.99-.25-2.03-.39-4.4-.56-.48,0-.95.04-1.41.12-2.6.42-4.99,2.09-6.18,4.45l-.7,1.37-.56,1.1c-2.65,4.28-2.56,8.87,1.47,12.46l1.92,1.97,3.84,3.95,1.92,1.97c.36.38.55.56.72.8.9,1.17,1.03,2.86.37,4.17-.72,1.2-2.15,3.01-2.97,4.18l-1.59,2.18c-.7.94-1.83,1.49-2.98,1.55-.59.03-1.2-.06-1.74-.3l-3.06-1.51-6.7-3.31c-1.94-1.02-4.09-2.09-6.36-1.83-2.22.07-4.99,1.63-6.19,3.22l-1.91,1.91c-.41.35-.77.74-1.11,1.15-.8.98-1.38,2.12-1.71,3.32-.5,1.8-.43,3.74.35,5.52l4.92,10.02.61,1.24c1.23,1.93.97,4.34-.87,5.71l-4.46,3.23-1.11.81c-.22.18-.45.32-.69.44-1.34.66-2.94.42-4.15-.44-.31-.22-.61-.47-.86-.77-1.95-1.88-5.96-5.81-7.9-7.68-2.84-3.29-7.59-4.18-11.34-1.88l-1.2.62-2.52,1.3c-2.01,1.09-3.42,2.99-4.04,5.14-.39,1.36-.46,2.82-.14,4.22.03.21.07.44.1.68.43,2.89,1.12,7.66,1.51,10.22.72,3.11-.58,5.14-3.66,5.89l-5.23,1.71c-1.29.48-2.38.42-3.3-.01-1.24-.59-2.16-1.86-2.84-3.44l-5.15-9.75c-.78-1.49-2.05-2.71-3.53-3.49-.69-.36-1.43-.64-2.19-.79-1.89-.47-4.3.18-6.2.44-5.19.43-8.24,3.81-8.65,8.87l-.25,1.47-.89,5.27-.7,4.12c-.2,1.22-.96,2.32-2.04,2.94-.97.52-1.79.64-2.96.57-.06,0-.15,0-.22,0-.78-.01-2.14.02-3.13.02-.3,0-.57,0-.77-.01h-1.38c-2.32.26-4.6-1.27-4.91-3.68l-.47-2.71-.94-5.43-.47-2.71-.24-1.36c-.44-3.57-3.56-6.63-7.14-7.03-.87-.18-3.12-.42-4.02-.63-3.42-.75-7.46,1.14-8.97,4.39l-1.28,2.44c-.44.85-1.36,2.6-2.21,4.22-.67,1.27-1.29,2.47-1.62,3.1l-.62,1.18-.02.04c-.73,1.55-2.16,2.49-3.84,2.58-.02,0-.04,0-.06,0-.82.01-1.87-.32-2.87-.66-.64-.22-1.24-.44-1.74-.57-1.16-.47-3.79-1-4.66-1.69-1.34-.9-2.11-2.58-1.89-4.18l.19-1.33.39-2.73.78-5.45c.24-1.97.81-4.06.36-6.11-.49-2.33-2.07-4.38-4.18-5.46l-2.47-1.26c-4.12-2.54-8.52-2.47-11.94,1.42-1.52,1.49-3.65,3.58-5.55,5.44-.84.82-1.64,1.61-2.32,2.27-.07.08-.15.14-.22.21-.53.54-1.15.93-1.82,1.17-.84.3-1.74.35-2.6.13-.64-.16-1.26-.44-1.81-.89-.72-.56-2.61-1.83-3.35-2.42l-2.19-1.6c-1.63-1.19-2.25-3.53-1.44-5.38l4.8-9.81c.94-1.81,2.01-3.9,1.76-6.05-.08-2.13-1.52-4.58-3.05-5.78-1.33-1.21-2.84-3.16-4.47-3.95-2.05-1.08-4.59-1.2-6.72-.28l-9.96,4.93-1.23.61c-.13.09-.27.14-.41.22-2.01,1.29-3.96.37-3.96.37-.87-.3-1.65-.84-2.24-1.65l-3.25-4.45-.81-1.11c-1.44-1.81-1.27-4.56.35-6.19,2.08-2.15,6.11-6.26,8.16-8.39,3.04-2.55,3.91-7.05,1.76-10.46l-.62-1.21-1.29-2.5c-1.63-3.02-5.28-4.56-8.6-3.81-2.76.42-8.13,1.18-10.9,1.61-1.54.31-2.96.33-4.32-.51-1.34-.81-1.98-2.17-2.38-3.66l-1.71-5.24c-1.26-3.33.79-5.76,3.81-7l9.75-5.14c3.02-1.53,4.67-5.24,3.9-8.5l-.43-2.69c-.23-3.31-2.09-6.45-5.38-7.48-2.42-.61-11.03-1.92-13.77-2.42-2.68-.42-4.38-3.03-4.08-5.69,0-.91-.01-3.19,0-4.13.02-.73-.05-1.89.03-2.61.15-1.43.97-2.79,2.18-3.57.62-.4,1.25-.65,2.04-.78l2.71-.47c2.39-.4,5.56-.98,8.14-1.41l1.36-.23c.44-.07,1.06-.21,1.56-.39,3.25-1.13,4.91-4.25,5.13-7.52.56-3.03,1.15-6.3-1.08-8.91-1.17-1.61-3.29-2.39-4.98-3.33-1.48-.78-5.94-3.1-7.32-3.83l-1.22-.64c-1.74-.81-2.85-2.5-2.92-4.4,0-.83.09-1.43.42-2.27.43-1.3,1.27-3.94,1.69-5.24.57-2.78,2.96-4.71,5.73-4.36l1.34.19,2.73.39c2.4.36,5.59.79,8.18,1.18,3.17.69,6.76-.93,8.2-3.88l1.26-2.46c2.42-3.93,2.4-7.97-1.3-11.23l-1.93-1.97-3.85-3.94-1.93-1.97c-.66-.65-1-1.09-1.39-1.87-.61-1.37-.59-3.01.08-4.36.67-1.12,2.19-3.2,3.06-4.35l1.6-2.21c.7-.95,1.74-1.59,2.86-1.87.64-.16,1.3-.19,1.95-.1,0,0,0,0,0,0,.43.06.86.16,1.27.34l.27.13,9.56,4.69,1.24.61c2.25,1.33,5.27,1.53,7.58.17,1.66-.93,2.94-2.68,4.27-3.89,2.45-2.08,3.52-5.63,2.18-8.63l-4.91-9.93c-.76-1.57-1.66-2.91-1.52-4.65.1-1.54.9-3,2.16-3.9l4.45-3.24,1.11-.81c.87-.7,1.91-1.04,2.95-1.07.56-.02,1.13.06,1.67.21.87.25,1.68.71,2.35,1.35.14.13.29.26.41.41.35.34.79.77,1.26,1.23,2.09,2.04,5.03,4.95,6.61,6.48,3.11,3.58,7.33,3.5,11.1,1.08l2.49-1.27c2.62-1.42,4.16-4.51,3.71-7.46-.07-.48-.78-5.44-.88-6.13l-.78-5.45c-.06-.43-.15-.95-.18-1.32-.06-.46-.04-.9.03-1.33.07-.15.11-.3.11-.48,0,0,0-.02,0-.03.55-2.01,2.38-3.53,4.49-3.94l5.24-1.69c.49-.18.97-.29,1.45-.34.61-.06,1.2-.02,1.77.13.42.11.83.26,1.22.47,1.06.55,1.66,1.37,2.2,2.33.25.44.48.91.73,1.4l.64,1.22,4.47,8.55c1.46,2.92,5.1,4.54,8.23,3.79,2.83-.5,6.3-.51,8.34-2.86,1.52-1.43,2.02-3.79,2.27-5.66l1.88-10.86c.34-2.14,2.05-3.66,4.07-4.08.57-.12,1.17-.17,1.77-.1.04,0,.09,0,.14,0,.98.01,3.09-.02,4,0,.77.03,1.85-.05,2.62.04,1.46.16,2.84,1,3.63,2.24.4.63.66,1.28.78,2.08l.46,2.72c.06.38.13.77.2,1.18.18,1.04.37,2.16.56,3.29.22,1.26.43,2.53.62,3.68l.23,1.36c.07.44.2,1.06.39,1.56,1.11,3.24,4.23,4.91,7.49,5.14,3.03.57,6.3,1.17,8.92-1.06,1.62-1.17,2.4-3.29,3.35-4.98l2.57-4.87,1.29-2.44.64-1.22c.33-.7.81-1.29,1.39-1.75.65-.52,1.42-.88,2.25-1.02.58-.1,1.17-.11,1.76,0,.85.2,2.85.88,3.78,1.19l2.62.86c2.36.53,4.02,2.19,4.26,4.51.04.36.02.71-.02,1.07l-.19,1.34c-.41,2.76-1.03,6.96-1.47,9.99-.05.31-.09.63-.13.91-.18.82-.21,1.66-.1,2.49.31,2.47,1.81,4.83,4.08,5.94l2.46,1.27c2.59,1.66,6.34,2.54,9.18.68.88-.52,1.61-1.25,2.36-1.99l1.98-1.92,3.95-3.83c.23-.21,1.01-.99,1.71-1.67.53-.51,1.01-.96,1.14-1.03.68-.51,1.47-.8,2.28-.89,1.27-.14,2.59.21,3.61,1.07.73.55,2.58,1.86,3.34,2.44,1.04.9,2.94,1.77,3.51,3.19.64,1.23.7,2.74.14,4-1.2,2.39-4.12,8.35-5.47,11.02-1.25,1.98-1.44,4.42-.78,6.6.27.88.67,1.71,1.21,2.45.4.56.88,1.06,1.42,1.49l1.92,1.93c2.23,2.63,6.05,3.76,9.28,2.35l9.99-4.88,1.09-.54.14-.07c1.26-.8,2.74-.99,4.05-.61.93.27,1.78.82,2.4,1.68.96,1.43,3.77,5.01,4.56,6.47.78,1.66.4,3.74-.9,5.03l-.48.49-3.86,3.93-3.86,3.93c-.7.7-1.55,1.56-2.04,2.49-1.47,2.56-1.29,5.8.2,8.31l.61,1.21.71,1.38.58,1.13c1.11,2.07,3.13,3.46,5.37,3.97,1.17.27,2.4.31,3.59.04,2.76-.4,8.13-1.14,10.91-1.56,3.17-.77,5.47.76,6.18,3.89l1.69,5.24c.76,1.87.16,4.01-1.44,5.17-.4.3-1.37.76-2.16,1.18l-9.77,5.1c-3.28,1.66-5.04,5.58-4.26,9.15l.42,2.68c.4,5.18,3.77,8.22,8.82,8.66l10.85,1.89c2.33.39,3.72,2.62,3.43,4.94-.04.91.05,3.19,0,4.13Z"/>
    <path class="cls-5" d="M186.71,232.55s-.06.02-.09.02c-.81-.93-1.85-1.66-3.02-2.06-2-.56-3.78-.71-5.8-1.09l-5.66-.96c-1.35-.11-2.63-.38-3.71-.89l19.7-.31c1.14,1.61,2.86,2.8,4.88,3.1l8.52,1.47-14.82.71Z"/>
    <path class="cls-5" d="M189.1,240.93c-.32-1.71-.54-4.15-1.02-5.82-.04-.12-.09-.24-.14-.35l20.2-.97c.52.46.95,1.04,1.22,1.8.12.34.22.68.27,1.04l.21,1.35c.1,1.2.7,3.28.52,4.58l-21.29.64c.14-.75.16-1.52.02-2.28Z"/>
    <path class="cls-5" d="M199.81,273.36c-.07-.12-.14-.24-.21-.38,1.49.55,3.16.67,4.83.26,2.68-.38,8.24-1.2,10.9-1.57,2.1-.51,4.5.34,5.52,2.32.43.82,1.44,2.84,1.86,3.65.31.49.53,1.04.66,1.6l-20.88,1.04c-.06-1.57-.63-3.21-1.67-4.92l-1.02-1.99Z"/>
    <path class="cls-5" d="M226.85,310.97c.13-.07.26-.13.39-.21l1.24-.61,9.8-4.8c2-.88,4.31-.05,5.64,1.6.71.79,1.66,1.58,2.46,2.45l-19.46,1.83c-.02-.09-.04-.18-.07-.27Z"/>
    <path class="cls-5" d="M258.74,349.81l.17-1.2,1.25-8.72c.15-.14.3-.28.42-.4l1.98-1.92c1.72-1.68,4.08-3.95,5.93-5.76l.97-.94c1.19-1.14,3.03-1.5,4.57-.93,1.07.43,3.48,1.79,4.69,2.37,1.47.75,2.42,2.35,2.39,3.98-.02.81-.41,2.89-.52,3.84-.34,2.39-1.09,7.26-1.41,9.57-.11.66-.11,1.31-.04,1.95l-20.22.65c-.27-.79-.35-1.65-.18-2.5Z"/>
    <path class="cls-5" d="M435.82,208.67c-.15-1.56-.33-3.12-.56-4.67-.41-2.79-.95-5.55-1.6-8.29-.37-1.56-.78-3.11-1.22-4.65-2.17-7.57-5.22-14.89-9.04-21.77-1.91-3.43-4-6.76-6.27-9.96-11.02-15.51-26.21-28.05-44.02-35.26-67.59-27.94-142.38,21.99-141.92,95.24.48,72.23,74.55,121.26,141.18,93.46,18.87-7.88,35.16-21.63,46.57-38.58l.71-1.39c.4-.85.97-1.61,1.64-2.26,4.51-7.32,8.12-15.18,10.66-23.37.75-2.41,1.4-4.84,1.96-7.31.32-1.42.62-2.85.87-4.29.33-1.86.62-3.73.84-5.61.41-3.52.64-7.07.64-10.65.05-3.56-.11-7.11-.45-10.64ZM333.66,261.01c-4.27-.07-8.28-.73-12-1.89-2.13-.66-4.16-1.49-6.08-2.46-23.43-11.82-31.37-45.02-10.65-66.07,3.95-4.02,8.48-6.98,13.3-8.97,1.04-.43,2.09-.81,3.15-1.15,19.29-6.16,42,2.6,50.63,22.96,11.77,27.17-8.63,58.06-38.35,57.58Z"/>
  </g>
  <path class="cls-4" d="M647.29,391.17l-.36-3.12-.1-.84-.5-.66c-1.16-1.47-3.33-4.43-4.38-5.97-1.99-2.37-4.86-5.92-6.86-8.52l-2.28-2.63-1.77-2.92-.14-.22-.16-.19-2.32-2.68-2.1-2.83-.09-.12-.09-.1-2.33-2.57-1.97-2.83-.11-.15-.12-.13-2.36-2.63-2.06-2.72-1.92-2.98c-6.73-8.83-14.29-17.11-20.47-26.3l-20.13-25.79-.07-.08-2.34-2.63-4.19-5.83c-1.74-2.03-3.58-3.98-5.4-5.95l-.39-.21-3.11-1.7-.2-.1-3.25-1.44-.47-.21c-3.78-.23-7.66-.31-11.45-.14l-3.53-.15h-.1s-.11,0-.11,0c-5.88.32-12.08-.12-18.01.13l-3.49-.25h-.22s-7.26.06-7.26.06h-.2s-3.43.3-3.43.3l-3.5-.25-3.72-.03h-.13s-.12,0-.12,0l-3.63.32c-2.02-.03-7.4-.4-10.62-.37h-.16s-.15.01-.15.01l-3.46.35-2.6-.09c-2.7-.02-5.64.12-8.32-.04l-3.46.18-3.44-.32-.2-.02h-.19s-3.48.23-3.48.23l-3.47-.21c-3.22.25-8.73.45-10.8.47l-3.63-.39-.15-.02c-3.13-.04-9.06.18-10.78.38l-3.63-.35h-.41s-3.49.25-3.49.25l-3.48-.19h-.14s-.13,0-.13,0l-3.64.22c-1.8-.22-7.87-.06-10.73.07l-3.48-.27h-.39s-3.49.3-3.49.3l-3.48-.15h-.28c.17,0-2.98.21-3.5.27l-3.46-.21h-.15s-.13,0-.13,0l-3.49.21-3.48-.26h-.31s-3.52.22-3.52.22l-3.57-.17c-3.24.03-7.63.08-10.87-.11h-.29s-3.51.32-3.51.32l-3.58-.1-3.62.15-3.52-.2h-.19c-4.02.07-10.54.42-14.49.29-4.07.07-10.6.12-14.58-.26h-.15s-3.51.32-3.51.32l-3.51-.12c-3.64.24-7.18.02-11.02-.23-2.01.21-3.99.34-5.96.41l-.78-.08-.18-.02-.18.02-1.31.13c-2.02,0-4.01-.07-5.96-.27-5.49.09-11.77.2-16.93.26-.88-.02-1.75-.05-2.63-.07-4.32-.24-10.14-.25-13.31.14l-3.65-.17h-.1s-.09,0-.09,0l-3.65.19-.43.02c-.22,0-.45.01-.69.02l-.02-.3-1.86.07-3.61.15c-.12,0-.27-.01-.41-.02l-.24-.08c-.88.01-1.75.02-2.62.02-.6,0-1.2-.01-1.78-.01-2.26-.02-4.51-.09-6.77-.23l-3.51.14-3.51-.17h-.13s-.14,0-.14,0l-3.5.31h-3.41s-3.51-.32-3.51-.32h-.07s-.09,0-.09,0c-2.7-.06-8.95-.11-10.65.1l-3.59-.24h-.08s-.1,0-.1,0l-3.54.07-3.54-.08h-.12s-.13,0-.13,0l-3.42.33c-1.82-.13-5.35-.24-7.08-.26-3.21-.18-7.64-.15-10.85.05-2.16-.14-8.3.04-10.64.06l-3.56-.29-3.66-.07h-.11s-.13,0-.13,0l-3.35.3-3.37-.37h-.12s-.15-.01-.15-.01l-7.13.04c-1.92-.07-5.54-.14-7.45-.08l-3.39.36-3.47-.16h-3.51s-3.48-.32-3.48-.32c-2.49.1-4.99.41-7.48.67-.32.1-3.5.8-3.75.9-.46.28-3.02,1.87-3.48,2.15l-.25.28-2.2,2.47-.1.11-.1.14-1.92,2.78-2.42,2.42-.1.1c-1.23,1.47-3.46,4.43-4.52,6.02-2.86,3.25-8.44,10.67-10.85,13.97l-2.44,2.67-.21.26c-1.45,2.16-3.72,4.98-5.4,7.02-1.95,2.38-3.7,4.81-5.75,7.07.17-.2-4.05,5.42-4.21,5.67l-2.32,2.64-.17.22c.1-.11-1.64,2.26-1.99,2.78l-2.34,2.46-.17.2c-1.14,1.39-3.24,4.18-4.3,5.75l-2.3,2.53c-1.31,1.76-2.55,3.59-3.85,5.28-3.99,4.9-7.76,10.09-12.07,14.73-.95,1.44-2.88,4.13-4.03,5.56-1.31,1.41-3.64,4.12-4.86,5.58l-.1.15-1.93,2.88-2.18,2.72-.29.36c-.43,1.16-1.55,3.88-1.96,5.01.8,1.34,2.29,3.76,3.09,5.1l.97.39,3.06,1.22.61.24.65-.02,3.46-.12,3.46.2h.14s.13,0,.13,0l3.46-.1,3.55.2c3.6-.05,7.45-.04,11.04-.02l3.53-.22,3.38-.1,3.41.28h.16s.13.01.13.01l7.16-.08h.15s.12-.01.12-.01l3.35-.33,3.32.23h.38s3.48-.19,3.48-.19l3.44.1c5.86-.39,12.3-.24,18.17-.02l3.58-.21c1.47.02,3.18.01,4.99,0,0,.45-.02.91,0,1.35-.09,5.5-.25,10.98-.34,16.49.44,6,.31,12.05-.15,18.05-.06.21.32,3.05.41,3.9l-.08,3.48-.22,3.6v.17s0,.18,0,.18l.27,3.44-.3,3.45v.1c0,3.72-.13,12.11.18,14.56l-.23,3.65v.16s0,.18,0,.18l.23,3.45-.27,3.46v.26c.16,5.41-.15,14.03.26,17.9l-.41,3.65-.03.23.21,2.92c.17,1.72.07,6.83.15,7.89l-.25,3.64v.29s.13,3.51.13,3.51l-.14,2.67c-.13,2.78.02,5.64.11,8.39-.13.91-.14,4.52-.18,6.29.18,6.23.39,12.72.21,18.98l-.34,3.53-.03.28.03.29.37,3.4c-.21,3.3-.28,7.65-.25,10.92l.1,3.68v.23s.05.22.05.22l.74,3.83.11.54.29.45,2.13,3.3.34.53.52.33,3.31,2.09.36.23.4.11,3.83,1.04.41.11c3.77-.14,7.45-.25,11.21-.06,6.25-.17,11.62-.55,17.72-.24h.11s.12,0,.12,0l3.44-.18c8.26.59,16.86,0,25.13-.05,1.45-.04,5,.38,7.15.21,3.51-.18,7.05-.37,10.56-.09h.13s.09,0,.09,0l3.5-.18c1.8.03,5.4.06,7.21,0l3.5-.26,3.38.24.22.02.16-.02,3.38-.32,3.33.34.21.02h.15s3.49-.23,3.49-.23c3.17.13,8.66.02,10.55-.39l3.58.24h.12s.07,0,.07,0c2.22-.14,5.23.03,7.54-.47,1.09.27,2.24.48,3.34.52l3.61-.23c2.6.08,8.04-.02,10.6-.06,3.59.26,7.32.24,10.89.11l3.54.17h.1s.13,0,.13,0l3.45-.2,3.48.27h.1s.14,0,.14,0c1.71-.05,5.43-.19,7.12-.11,1.64.1,5.56.07,7.21,0l3.51.21h.08s.12,0,.12,0l3.48-.1,3.51.24h.13s.16,0,.16,0l3.53-.18,3.43.04,3.53.31c3.07.09,7.76-.27,10.89-.34l3.43.43.19.02h.21s3.66-.13,3.66-.13l3.51-.23c7.12.39,14.48-.09,21.63.37h.16s3.42-.2,3.42-.2l3.44.28c3.08.08,6.22-.25,9.26-.22,3-.03,6.09.2,9.17.33l3.48-.19,3.51.11h.14s.17,0,.17,0l3.43-.28,3.55.16,3.71-.08c3.05.24,8.72.3,12.57.23,4.28.04,8.42.04,12.73.17h.13s3.54-.26,3.54-.26l3.43-.08,3.5.21h.13s.14,0,.14,0l3.45-.12,3.46.26c1.95.02,5.51-.11,7.52-.28,1.84.04,5.31.11,7.08.07,1.81.09,5.38.31,7.2.32h.22s.23-.02.23-.02l3.28-.39,3.29.35.28.03.29-.03,3.47-.31,3.35.04,3.51.3.29.02.3-.03,3.36-.37,3.37.2h.16s.17,0,.17,0l3.54-.18h3.43s3.57.24,3.57.24c2.52.08,8.34.19,10.98.15h.31s3.31-.33,3.31-.33l3.31.38.26.03.27-.02,3.5-.21c2.59.06,5.65,0,8.17-.16l2.5-.02,3.47.34h.13s.14.01.14.01l3.63.02h.44s.43-.13.43-.13l3.79-1.12.76-.22.56-.57,2.73-2.79.54-.55.21-.75,1.07-3.76.12-.43v-.44s-.06-3.54-.06-3.54l.18-3.54v-.21s0-.2,0-.2l-.29-3.46.26-7.07c-.08-2.45-.24-4.9-.38-7.34l.28-3.41.02-.19v-.18s-.15-3.53-.15-3.53l.12-3.52v-.18s0-.17,0-.17l-.3-3.41.23-3.4v-.24c.04-1.78-.15-5.68-.29-7.42.29-6.43.57-18.54,0-25.1l.15-3.63v-.15s0-.13,0-.13c0,.16-.16-2.94-.21-3.47l.2-3.46v-.13c-.15-2.58-.17-6.5-.05-9.1.09-3.01-.11-6.08-.24-9.07l.3-3.44v-.45s-.26-3.43-.26-3.43c.17-1.9.3-5.45.27-7.24v-.13s0-.1,0-.1l-.26-3.47.21-3.45c-.19-3.11-.56-6.09-.4-9.23l.16-9.06v-.15s0-.1,0-.1l-.28-3.64c0-3.15.31-9.32.11-13.49l-.12-4.49c.31-4.5.13-8.99-.03-13.47.66.03,1.32.07,1.98.1,2.14-.14,4.29-.27,6.4-.3,6.02-.04,13.73.25,18.88,0,4.89.4,9.77.26,14.65,0l3.45.29h.15c6.05-.23,12.12-.07,18.18-.24l3.47.36.29.03.3-.03,3.41-.31,3.42.22h.12s.13,0,.13,0l7.18-.13c.91.06,4.08.3,4.59.32l.88-.61c.8-.59,3.48-2.39,4.19-2.92l-.21-1.8Z"/>
  <path class="cls-3" d="M551.03,418.71c-.16,3.04,0,6.14-.22,9.17v.13s.24,3.51.24,3.51l-.25,9.02c-.16,2.99.07,6.13.3,9.12l-.25,3.46v.17s0,.2,0,.2l.22,3.53c0,1.81-.16,5.25-.35,6.99v.18s0,.21,0,.21l.23,3.4-.33,3.42c0,1.61.14,3.28.14,4.87.07,2.64,0,6.31-.15,9.02-.06,1.5.06,3,.1,4.5l-.24,3.51v.16s0,.18,0,.18c0-.16.14,2.84.17,3.46-.44,5.44.45,10.88.09,16.31-.12,3.79-.08,8.8-.35,12.66v.28s.23,3.56.23,3.56l.03,3.43-.25,3.52-.02.22.02.24.29,3.45-.13,3.46v.1s0,.12,0,.12l.12,3.44-.3,3.45-.02.21c.14,2.44.26,4.87.36,7.31l-.29,7.14v.17s0,.19,0,.19l.27,3.43-.19,3.53.03,3.29-.73,2.6-1.63,1.68-2.6.77h-3.04s-3.49-.34-3.49-.34l-.16-.02h-.16c-3.59-.01-7.45.33-11.02.22l-3.36.21-3.35-.37-.32-.04-.31.03-3.48.34-7.06-.02c-1.66.01-5.47-.22-7.08-.33h-.11s-.1,0-.1,0l-3.69.02-3.53.19-3.45-.19h-.26s-.25.01-.25.01l-3.33.38-3.32-.28h-.11s-.11-.01-.11-.01l-3.62-.03h-.15s-.14.01-.14.01l-3.33.3-3.32-.34-.33-.03-.32.04-3.41.41c-1.85-.03-5.33-.23-7.01-.3-1.79.04-5.47-.02-7.25-.06h-.25s-3.55.24-3.55.24l-3.43.07-3.47-.25h-.16s-.15,0-.15,0l-3.48.13-3.48-.2h-.13c-1.89.02-5.6.18-7.48.37-.69-.07-4.3-.03-6.09-.15-6.4-.04-12.68.26-19.08-.1l-3.52.11-3.52-.13h-.35s-3.47.32-3.47.32l-3.45-.08h-.13s-.1,0-.1,0c.13,0-2.81.17-3.42.21-5.93-.45-12.09-.15-18.04.04l-3.47-.25c-.11-.08-3.78.27-3.97.23-5.59-.5-14.65.25-21.46-.19h-.23s-3.57.27-3.57.27c.17,0-2.59.1-3.34.15l-3.45-.4c-3.22.09-7.87.38-11.06.45l-3.47-.26h-.11s-.07,0-.07,0h-3.68s-3.55.24-3.55.24l-3.45-.19h-.23s-3.52.15-3.52.15l-3.5-.16h-.12s-.08,0-.08,0l-3.55.15c-2.93-.05-8.63-.05-10.66.18l-3.61-.23h-.16s-.13,0-.13,0l-3.51.25-3.48-.12c-1.84.05-3.7.15-5.5.16-.88.01-1.76.06-2.65,0l-2.66-.11h-.09s-.06,0-.06,0c-5.51.32-11.57-.11-16.19.79.03-.32.05-.64.07-.97.15-.46.24-.9.22-1.4-.03-.5-.06-1-.09-1.49.03-.75.05-1.43.09-1.97l.57-7.33c.04-1.8.04-5.56.05-7.35l.2-3.66v-3.52s.27-3.6.27-3.6v-.06s0-.21,0-.21l-.05-3.44.26-3.58v-.11s0-.26,0-.26l-.14-3.38c.19-1.91.33-5.62.34-7.48l-.02-.25-.3-3.23.39-3.33.03-.24-.02-.36-.18-3.31.33-3.43v-.08c.09-3.67-.05-9.32.01-12.96.01-3.61.19-9.25.26-12.87l-.02-.23-.29-3.24.36-3.26.02-.21c-.02-4.74-.1-9.17,0-13.93.01-1.53-.11-3-.17-4.5.16-3.3.07-7.77.08-11.03l-.23-3.75c.11-1.69.29-7.92.26-11.11l-.37-3.33c.1-1.91.16-5.32.11-7.05l.17-3.61.02-3.72v-.17s0-.11,0-.11l-.24-3.49.08-3.44v-.21s0-.14,0-.14l-.26-3.48c.07-1.9.05-5.36-.05-7.2.1-1.93.18-5.5.17-7.33l-.45-7.22.22-3.37v-.21s.01-.11.01-.11l-.11-3.64v-.17s-.01-.07-.01-.07l-.34-3.34.34-3.26.04-.41-.04-.32-.44-3.48c0-1.89,0-5.26.13-7.03l-.12-3.65.1-3.55v-.15c-.21-3.15-.26-8.9-.56-10.61l.3-3.64v-.16s.01-.07.01-.07l-.07-7.29v-.14s0-.07,0-.07l-.32-3.48.2-3.41v-.25s0-.17,0-.17l-.37-3.45.24-3.4v-.19s0-.14,0-.14l-.25-3.57-.08-3.51.22-3.51v-.21c-.1-1.87-.1-5.31,0-7.19-.07-1.9-.14-5.52-.11-7.42v-.1s-.45-3.51-.45-3.51l.07-3.53-.05-1.36,1.7,2.25c3.12,3.25,5.06,6.35,7.77,10.09,1.91,2.53,3.79,4.98,5.71,7.43l2.42,2.51,1.89,2.91.07.1.08.09,2.36,2.77c8.89,12.21,19.77,24.89,28.83,37.68l2.32,2.7c1.03,1.49,3.27,4.35,4.44,5.74l1.97,2.96.05.08.07.08,2.33,2.86,2.36,2.69,4.2,5.88.05.07.07.08,2.31,2.65,1.96,2.95.09.14.12.13,2.4,2.59,2.04,2.89.12.17.16.15,2.58,2.42.09.08.11.08,2.85,2.11.32.24c1.87.56,5.79,1.52,7.66,1.91l11.12-.2c3.34,0,7.66.29,11-.01,2.26.23,7.75.1,10.75.07l3.55.19h.11s.13,0,.13,0l3.63-.18c7.25.62,17.21-.21,25.37.37l.18-.02,3.39-.31,3.41.32.18.02h.2s3.46-.23,3.46-.23l3.48.23h.18s.2,0,.2,0l3.38-.29,3.4.37.24.03.26-.02,3.49-.33c13.96.09,30.59.85,43.38.33,2.92.23,6.48.24,9.35.01,3.24-.2,5.73-.26,8.81.03h.24s7.06-.19,7.06-.19l3.44.42c3.75-.02,7.56.03,11.32-.13,3.67-.14,7.28.04,10.97.2l7.11-.33,3.49.23h.37c5.84-.48,12.26-.06,18.62-.06.11,4.5.24,9.01-.13,13.49-.03,2.74.25,6.41.02,9.14Z"/>
  <path class="cls-3" d="M99.6,390.3l-3.41.16c-1.47-.07-2.94-.2-4.42-.22-4.18-.07-9.38-.26-13.54.03l-3.46-.13h-.25c.17,0-2.62.12-3.36.16l-3.44-.27-.24-.02-.27.02-3.43.3c-.84,0-5.89.01-6.84.02l-3.55-.32h-.16s-.18-.01-.18-.01l-3.65.07c-4.49.33-9.19.1-14.16.2l-3.49-.2h-.13s-.14,0-.14,0l-3.46.1-3.47-.2h-.28s-2.94.09-2.94.09l-1.48-.59-.4-.67.49-1.26,1.93-2.45.09-.11.06-.1,1.9-2.89,2.15-2.59,2.35-2.66.09-.1.06-.08c1.11-1.41,3.33-4.49,4.27-6,3.87-4.1,11.9-14.62,15.24-19.51l2.4-2.69.22-.28c.93-1.42,2.97-4.19,4.07-5.57l2.38-2.55.15-.16.11-.15,2-2.85,2.25-2.62.08-.1.06-.08,4.24-5.81c3.05-3.64,7.84-9.64,10.99-14.14l2.3-2.56c1.83-2.48,3.64-4.97,5.51-7.42,1.64-2.1,3.81-5.15,5.58-7.1l.05-.07,2.02-2.91,2.1-2.68,2.44-2.49c.2-.13,1.79-2.58,2.23-3.23l1.85-2.1,2.16-1.36c.74-.18,2.24-.55,2.63-.66,2.13-.26,4.26-.49,6.4-.68l3.35.28h.14s.11,0,.11,0l3.53-.05,3.52.12h.2s.17-.01.17-.01l3.5-.41c1.82-.06,5.24-.01,6.98.01l7.09-.13,3.44.34h.45s3.48-.35,3.48-.35l3.38.02,3.51.25h.13s.1,0,.1,0l7.13-.22,3.62.03,3.61-.21c3.16-.12,7.45.1,10.62.1l3.55.17h.16s.15,0,.15,0l3.46-.35c1.83.07,5.26.04,7.07-.03l3.49.21h.24c3.08-.24,7.39-.2,10.56-.16l3.52.3h.18s3.58-.01,3.58-.01h.09s.08,0,.08,0l3.46-.33,3.45.14h.09s.08,0,.08,0l3.59-.17c2.48.23,7.19.2,10.43.17l2.06.65.75,1.67-.46,2.16c-1.28,1.41-3.48,3.93-4.47,5.18-1,1.44-3.25,4.39-4.32,5.74-4.42,5.75-9.3,11.07-13.27,17.17-3.34,3.62-7.74,9.37-11.37,13.86-3.35,4.94-7.48,9.24-10.92,14.13l-2.45,2.47-.09.09-.09.12c-1.09,1.42-3.25,4.31-4.25,5.84l-2.19,2.71c-3.34,3.62-6,7.77-9.12,11.07l-.1.11-.1.14-1.89,2.83-2.37,2.48-.1.11-.1.14c.06-.09-1.74,2.43-2.02,2.82l-2.31,2.72-.06.07-.07.1-2.06,2.96c-1.65,1.74-4.45,5.64-6.55,8.12-1.14,1.01-3.21,2.69-4.51,3.66l-2.39.89-2.83.09c-2.91-.15-9.09-.09-10.54.18l-3.58-.31h-.09s-.12,0-.12,0l-3.53-.02-3.53-.16h-.14s-.18,0-.18,0l-3.36.26-3.39-.28h-.41c.15,0-2.79.19-3.4.24-5.96-.28-12.1-.14-18.07-.26Z"/>
  <path class="cls-3" d="M640.7,390.26l-2.58-.17h-.14s-.13,0-.13,0l-7.18.16-3.51-.21h-.24s-.23,0-.23,0l-3.36.32-3.34-.33-.18-.02c-6.08.2-12.17.07-18.26.33l-3.47-.28c-2.56.04-5.12.22-7.67.34-1.45-.1-4.66-.07-7.11-.29-2.14.08-4.27.15-6.41.14-6.36.03-12.88-.31-19.25.27-.6-.04-1.25-.07-1.92-.09-.75-.03-1.54-.05-2.36-.07-.74-.02-1.5-.03-2.28-.04-4.9-.07-10.49-.03-15.07-.1h-.12s-.1,0-.1,0l-3.46.24-3.45-.21h-.16s-.16,0-.16,0l-7.13.36c-6.67-.36-16.28-.08-21.49.05l-3.64-.43-.41-.02-7.14.22c-4.52-.43-10.76.21-14.46.27l-3.64-.17h-.18c-10.8.6-21.82,0-32.65.1l-10.88-.11h-.17s-.13.01-.13.01l-3.39.34-3.37-.34h-.49c.15,0-2.78.24-3.43.32l-3.45-.21h-.17s-.15,0-.15,0l-3.44.24-3.43-.3h-.46c.17-.01-2.75.27-3.43.35-8.52-.53-17.02.39-25.53-.16l-3.51.2c-1.99-.13-5.33-.17-7.29-.09l-3.57.08-3.56-.13h-.09c-3.27.2-7.55.18-10.9.09-2.68.06-8.02.2-10.69.31-1.53-.34-4.42-1.01-6.15-1.51-.63-.46-2.04-1.48-2.43-1.76l-2.39-2.21-2.01-2.8-.18-.22-2.41-2.56-1.96-2.89-.16-.21-2.36-2.68-4.22-5.84-.07-.09-.06-.07-2.4-2.71-2.25-2.72-1.99-2.95-.06-.09c-1.21-1.42-3.44-4.2-4.5-5.74l-.05-.07-.05-.06-2.4-2.75c-6.15-8.87-14.76-18.86-21.7-27.98-2.24-3.24-4.9-6.32-7.18-9.51l-.05-.05-2.29-2.68-1.93-2.95-.1-.15-.12-.13-2.47-2.56-5.47-7.12c-2.5-3.41-4.86-7.12-7.88-10.19l-2.12-2.8-1.79-2.62-.2-1.33,1.18-.67,3.11-.15,3.56.19h.11s.12,0,.12,0l3.05-.21h.98s.06,0,.06,0h.07c.14-.02.29-.03.43-.04h2.54s3.59.05,3.59.05l3.6.23c5.74-.06,13.12-.03,18.16-.18,4.86.53,10.05.4,14.92-.08,1.29.21,4.38.24,7.08.42h.08s3.55-.12,3.55-.12l3.57.15h.12s.13,0,.13,0l3.34-.27h.19s.14.02.14.02h.04c3.97.35,10.5.36,14.28.3,3.92.11,10.56-.12,14.51-.21l3.55.22h.1s.11,0,.11,0l3.56-.13,3.56.13h.12s.14,0,.14,0l3.64-.3c1.67.21,7.83.2,10.68.19l3.57.19h.12s.13,0,.13,0l3.47-.2,3.48.28h.15s.16,0,.16,0l3.49-.19,3.5.24h.15s.17,0,.17,0c-.15,0,2.93-.2,3.48-.25l3.52.17h.14s.16,0,.16,0l3.43-.28,3.45.29h.12s.14,0,.14,0l5.4-.14c1.61-.11,3.95.1,5.57.12l3.5-.19,3.51.21h.14s.16,0,.16,0l3.42-.23,3.43.35c3.31-.14,8.59-.35,10.87-.31l3.63.41c3.25.04,9.04-.14,11.02-.39l3.63.24h.15s.16,0,.16,0l3.43-.19,3.45.34h.36s3.52-.15,3.52-.15l2.68.1c2.65.01,5.44-.08,8.1.09h.35s3.63-.36,3.63-.36c1.95.06,7.57.32,10.7.43h.16c-.2.01,2.68-.24,3.41-.3l3.53.04,3.55.27h.41s3.48-.29,3.48-.29c.75,0,8.32-.07,6.99-.05l3.63.28c5.76-.24,13.27.29,18.24-.05,3.79.25,7.71.04,11.54.16.64.02,1.27.05,1.9.1.15.01.31.02.46.03l1.4.63,1.31.59,2.61,1.44c1.49,1.62,2.97,3.26,4.43,4.91l4.17,5.85.08.11.1.11,22.59,28.79c4.51,7.23,13.64,17.56,19.8,25.69l1.92,3,.06.09.07.09,2.19,2.91.15.19,2.3,2.59,1.97,2.85.1.15.13.15,2.34,2.6,2.08,2.83.14.18,2.21,2.57,1.76,2.94.13.21.17.2,2.32,2.7c1.43,2.02,5.05,6.31,6.74,8.45.91,1.36,2.62,3.7,3.8,5.26l.05.47-.33.23Z"/>
  <g>
    <path class="cls-1" d="M240.35,580.74l-.16-3.73.08-7.28-.43-7.27c.02-1.85-.11-5.39-.29-7.22v-.05s0-.21,0-.21l.09-3.43-.22-3.58v-.06s0-.21,0-.21l.09-3.39-.31-3.53v-.11s0-.26,0-.26l.09-3.57-.05-3.32-.44-3.51-.04-.31.04-.43.27-3.27c-.08-.71-.28-3.51-.29-3.41l-.02-.21.02-.33.22-3.61c-.04-1.38-.32-13.03-.3-12.48.01-3.53-.04-8.9,0-12.58l-.34-3.45-.04-.38.04-.41.35-3.43c-.01-1.43.03-2.81-.05-4.29-.24-4.6.15-9.15-.25-13.7.07-1.87.15-5.43.12-7.3v-3.53s-.19-3.52-.19-3.52v-.22c.17-3.59.23-7.15.32-10.78l-.35-3.38c-.02-.16-.04-.46-.02-.62l.2-3.54.03-3.66c.15-1.76.3-5.25.31-7.09l-.18-3.48v-.2s0-.14,0-.14l.14-3.5-.17-3.43v-.23c.13-1.96.21-5.43.15-7.4.12-1.79.36-5.33.38-7.12l-.24-7.14v-.28s0-.17,0-.17l.33-3.52v-3.35s-.26-3.47-.26-3.47l-.03-.38.04-.29.44-3.32-.31-3.23-.02-.25v-.16s.13-3.68.13-3.68l.24-3.58v-3.63c.4-4.73.1-9.62.05-14.76l.41-3.55.17-7.04-.21-3.49v-.23s0-.15,0-.15l.32-3.46-.29-3.4-.02-.24.02-.18.32-3.47c-.14-1.83-.2-5.47-.17-7.22v-.12s0-.07,0-.07l.3-3.55-.03-3.57.19-3.63-.03-3.6.07-3.56-.36-3.49-.02-.17v-.12s.12-2.74.12-2.74c-.72.84-1.4,1.64-1.87,2.23-1.03,1.49-3.21,4.35-4.33,5.77-4.55,5.91-9.21,11.01-13.17,17.1-7.89,9.13-14.9,19-22.29,28.51l-2.42,2.5c-1.15,1.51-3.12,4.31-4.13,5.83-1.1,1.44-3.39,4.23-4.58,5.59-1.46,1.9-2.91,3.86-4.39,5.83l-2.25,2.59-1.89,2.92-.25.31-2.35,2.51-1.98,2.84-.05.07-.07.08-2.22,2.69-1.97,2.91c-2.4,2.86-4.58,5.9-6.94,8.83-1.32,1.2-3.88,3.35-5.31,4.42l-.28.22-.36.14c-.21.14-3.33,1.25-3.46,1.34l-.43.02-3.38.14c-3.66-.19-7.34.09-10.98.29l-3.46-.26-3.55.03-3.46-.11-3.44.3h-.42s-3.37-.23-3.37-.23l-3.4.28h-.11s-.15,0-.15,0c-2.5-.09-5.28-.09-8.03-.08-.04,4.13-.07,8.27-.13,12.41-.19,3.71,0,6.3.2,9.92.06,3.91.06,11.37-.33,13.48l.43,3.65.02.16c0,1.88-.13,5.43-.26,7.4l.29,3.47v.42s-.29,3.52-.29,3.52c.04,2.33,0,8.61.03,10.79l.22,3.57v.15s0,.16,0,.16l-.2,3.49c.06.58.26,3.61.26,3.46v.18s0,.19,0,.19l-.27,3.65c.24,4.55-.08,12.4.35,17.92v.22s-.01.2-.01.2l-.36,3.39c.3,3.26.36,7.65.38,10.88v.09s0,.11,0,.11l-.22,3.49.16,3.5c-.21,3.63-.19,7.4.03,11.05-.56,9.6.87,19.52-.16,29.14l.38,3.35.02.22v.23c-.19,3.16-.28,7.58-.21,10.76l.11,3.38.58,3.08,1.48,2.32,2.42,1.55,3.05.85c3.24-.01,7.92-.29,10.29,0,5.67-.02,13.12-.6,17.88-.15l3.58-.17h.17c6.24.64,12.51.03,18.77.26l6.21-.06h.13s.06,0,.06,0c4.49.33,7.97.29,12.39.18,1.61.03,3.74.06,5.37.2,3.18-.24,7.5.03,10.65,0l3.5-.2h.2s.15,0,.15,0l3.42.33,3.36-.23.25-.02.19.02,3.42.44,3.37-.12h.13s.07,0,.07,0l2.63.14c2.74.16,5.42-.12,8.19-.23l3.51.33h3.48c.66,0,1.23.22,1.99.51.09.03.17.07.27.1-.11-.27-.22-.5-.32-.73-.26-.58-.46-1.07-.51-1.6Z"/>
    <path class="cls-1" d="M121.06,390.32h.41l3.39.28,3.36-.26h.18s.14,0,.14,0l3.53.16,3.53.02h.12s.09,0,.09,0l3.58.31c1.45-.27,7.63-.33,10.54-.18l2.83-.09,2.39-.89c1.3-.97,3.37-2.65,4.51-3.66,2.11-2.48,4.9-6.38,6.55-8.12l2.06-2.96.07-.1.06-.07,2.31-2.72c.27-.39,2.08-2.91,2.02-2.82l.1-.14.1-.11,2.37-2.48,1.89-2.83.1-.14.1-.11c3.13-3.3,5.79-7.45,9.12-11.07l2.19-2.71c1-1.53,3.16-4.42,4.25-5.84l.09-.12.09-.09,2.45-2.47c3.45-4.88,7.58-9.18,10.92-14.13,3.63-4.49,8.03-10.24,11.37-13.86,3.97-6.1,8.85-11.42,13.27-17.17,1.08-1.36,3.32-4.31,4.32-5.74.98-1.25,3.19-3.77,4.47-5.18l.46-2.16-.75-1.67-2.06-.65c-3.23.03-7.95.07-10.43-.17l-3.59.17h-.08s-.09,0-.09,0l-3.45-.14-3.46.33h-.08s-.09,0-.09,0l-3.58.02h-.18s-3.52-.31-3.52-.31c-3.17-.04-7.49-.08-10.56.17h-.24s-3.49-.22-3.49-.22c-1.81.07-5.24.1-7.07.03l-3.46.35-.15.02h-.16s-3.55-.18-3.55-.18c-3.17,0-7.46-.22-10.62-.1l-3.61.21-3.62-.03-7.13.22h-.1s-.13,0-.13,0l-3.51-.25-3.38-.02-3.48.35h-.45s-3.44-.34-3.44-.34l-7.09.13c-1.73-.03-5.15-.08-6.98-.01l-3.5.41-.17.02h-.2s-3.52-.13-3.52-.13l-3.53.05h-.11s-.14,0-.14,0l-3.35-.28c-2.14.19-4.27.42-6.4.68-.38.11-1.89.47-2.63.66l-2.16,1.36-1.85,2.1c-.44.65-2.03,3.09-2.23,3.23l-2.44,2.49-2.1,2.68-2.02,2.91-.05.07c-1.77,1.95-3.94,5-5.58,7.1-1.87,2.46-3.67,4.95-5.51,7.42l-2.3,2.56c-3.15,4.5-7.94,10.5-10.99,14.14l-4.24,5.81-.06.08-.08.1-2.25,2.62-2,2.85-.11.15-.15.16-2.38,2.55c-1.11,1.38-3.15,4.15-4.07,5.57l-.22.28-2.4,2.69c-3.34,4.89-11.37,15.41-15.24,19.51-.95,1.51-3.17,4.58-4.27,6l-.06.08-.09.1-2.35,2.66-2.15,2.59-1.9,2.89-.06.1-.09.11-1.93,2.45-.49,1.26.4.67,1.48.59,2.94-.1h.28s3.47.2,3.47.2l3.46-.1h.14s.13,0,.13,0l3.49.2c4.96-.11,9.67.13,14.16-.2l3.65-.07h.18s.16.01.16.01l3.55.32c.95,0,6-.02,6.84-.02l3.43-.3.27-.02.24.02,3.44.27c.74-.05,3.53-.17,3.36-.16h.25s3.46.13,3.46.13c4.16-.29,9.37-.09,13.54-.03,1.48.02,2.94.14,4.42.22l3.41-.16c5.97.12,12.11-.02,18.07.26.61-.05,3.54-.25,3.4-.24Z"/>
    <path class="cls-1" d="M551.14,396.08c-6.36,0-12.78-.43-18.62.06h-.37s-3.49-.22-3.49-.22l-7.11.33c-3.69-.16-7.29-.34-10.97-.2-3.77.16-7.58.11-11.32.13l-3.44-.42-7.06.19h-.24c-3.08-.29-5.57-.23-8.81-.03-2.87.23-6.43.21-9.35-.01-12.79.51-29.42-.25-43.38-.33l-3.49.33-.26.02-.24-.03-3.4-.37-3.38.29-.2.02h-.18s-3.48-.25-3.48-.25l-3.46.21h-.2s-.18,0-.18,0l-3.41-.32-3.39.31-.18.02c-8.16-.58-18.11.25-25.37-.37l-3.63.18h-.13s-.11,0-.11,0l-3.55-.19c-3,.03-8.5.16-10.75-.07-3.33.3-7.65.01-11,.01l-11.12.2c-1.87-.39-5.79-1.34-7.66-1.91l-.32-.24-2.85-2.11-.11-.08-.09-.08-2.58-2.42-.16-.15-.12-.17-2.04-2.89-2.4-2.59-.12-.13-.09-.14-1.96-2.95-2.31-2.65-.07-.08-.05-.07-4.2-5.88-2.36-2.69-2.33-2.86-.07-.08-.05-.08-1.97-2.96c-1.17-1.39-3.41-4.25-4.44-5.74l-2.32-2.7c-9.06-12.79-19.95-25.47-28.83-37.68l-2.36-2.77-.08-.09-.07-.1-1.89-2.91-2.42-2.51c-1.92-2.46-3.8-4.9-5.71-7.43-2.71-3.74-4.65-6.84-7.77-10.09l-1.7-2.25.05,1.36-.07,3.53.44,3.51v.1c-.01,1.91.06,5.52.13,7.42-.1,1.89-.1,5.33,0,7.19v.21s-.23,3.51-.23,3.51l.08,3.51.25,3.57v.14s0,.19,0,.19l-.24,3.4.37,3.45.02.17v.25s-.22,3.41-.22,3.41l.32,3.48v.07s0,.14,0,.14l.07,7.29v.07s-.01.16-.01.16l-.3,3.64c.3,1.71.35,7.46.56,10.61v.15s-.1,3.55-.1,3.55l.12,3.65c-.12,1.77-.12,5.14-.13,7.03l.44,3.48.04.32-.04.41-.34,3.26.34,3.34v.07s.01.17.01.17l.11,3.64v.11s-.01.21-.01.21l-.22,3.37.45,7.22c.02,1.83-.07,5.4-.17,7.33.1,1.83.13,5.3.05,7.2l.26,3.48v.14s0,.21,0,.21l-.08,3.44.24,3.49v.11s0,.17,0,.17l-.02,3.72-.17,3.61c.05,1.74,0,5.14-.11,7.05l.37,3.33c.03,3.18-.15,9.42-.26,11.11l.23,3.75c0,3.27.08,7.74-.08,11.03.06,1.5.18,2.97.17,4.5-.09,4.76-.01,9.2,0,13.93l-.02.21-.36,3.26.29,3.24.02.23c-.07,3.62-.25,9.26-.26,12.87-.06,3.65.08,9.29,0,12.96v.08s-.33,3.43-.33,3.43l.18,3.31.02.36-.03.24-.39,3.33.3,3.23.02.25c0,1.85-.15,5.56-.34,7.48l.14,3.38v.26s0,.11,0,.11l-.26,3.58.05,3.44v.21s0,.06,0,.06l-.29,3.6v3.52s-.18,3.66-.18,3.66c-.01,1.79,0,5.55-.05,7.35l-.57,7.33c-.04.53-.07,1.21-.09,1.97.03.5.06.99.09,1.49.02.5-.07.93-.22,1.4-.02.33-.04.65-.07.97,4.62-.9,10.68-.48,16.19-.79h.06s.09,0,.09,0l2.66.11c.89.06,1.77.01,2.65,0,1.8-.02,3.66-.12,5.5-.16l3.48.12,3.51-.25h.13s.16,0,.16,0l3.61.23c2.04-.23,7.73-.23,10.66-.18l3.55-.15h.08s.12,0,.12,0l3.5.16,3.52-.15h.23s3.45.19,3.45.19l3.55-.23h3.68s.07-.01.07-.01h.11s3.47.27,3.47.27c3.19-.07,7.84-.36,11.06-.45l3.45.4c.76-.05,3.51-.16,3.34-.15l3.57-.27h.23c6.81.44,15.86-.31,21.46.19.18.05,3.86-.31,3.97-.23l3.47.25c5.95-.19,12.11-.49,18.04-.04.61-.05,3.55-.22,3.42-.21h.1s.13,0,.13,0l3.45.08,3.47-.31h.35s3.52.13,3.52.13l3.52-.11c6.4.35,12.68.06,19.08.1,1.79.12,5.4.08,6.09.15,1.88-.19,5.59-.35,7.48-.38h.13s3.48.2,3.48.2l3.48-.13h.15s.16,0,.16,0l3.47.25,3.43-.07,3.55-.23h.25c1.77.03,5.46.09,7.25.05,1.68.07,5.16.27,7.01.3l3.41-.41.32-.04.33.03,3.32.34,3.33-.3h.14s.15-.01.15-.01l3.62.03h.11s.11.01.11.01l3.32.28,3.33-.38.25-.03h.26s3.45.21,3.45.21l3.53-.19,3.69-.02h.1s.11,0,.11,0c1.61.11,5.42.34,7.08.33l7.06.02,3.48-.34.31-.03.32.04,3.35.37,3.36-.21c3.57.11,7.43-.23,11.02-.22h.16s.16.01.16.01l3.49.33h3.04s2.6-.77,2.6-.77l1.63-1.68.73-2.6-.03-3.29.19-3.53-.27-3.43v-.19s0-.17,0-.17l.29-7.14c-.1-2.44-.22-4.87-.36-7.31l.02-.21.3-3.45-.12-3.44v-.12s0-.1,0-.1l.13-3.46-.29-3.45-.02-.24.02-.22.25-3.52-.03-3.43-.22-3.56v-.28c.27-3.86.22-8.87.35-12.66.37-5.42-.52-10.87-.09-16.31-.04-.62-.18-3.62-.17-3.46v-.18s0-.16,0-.16l.24-3.51c-.03-1.5-.16-3-.1-4.5.15-2.7.21-6.37.15-9.02,0-1.59-.15-3.25-.14-4.87l.33-3.42-.23-3.4v-.21s0-.18,0-.18c.19-1.74.35-5.18.35-6.99l-.22-3.53v-.2s0-.17,0-.17l.25-3.46c-.23-2.99-.47-6.13-.3-9.12l.25-9.02-.23-3.51v-.13c.2-3.03.05-6.13.21-9.17.22-2.73-.06-6.4-.02-9.14.37-4.48.24-8.98.13-13.49Z"/>
    <path class="cls-1" d="M637.17,384.31c-1.69-2.13-5.31-6.42-6.74-8.45l-2.32-2.7-.17-.2-.13-.21-1.76-2.94-2.21-2.57-.14-.18-2.08-2.83-2.34-2.6-.13-.15-.1-.15-1.97-2.85-2.3-2.59-.15-.19-2.19-2.91-.07-.09-.06-.09-1.92-3c-6.16-8.13-15.29-18.47-19.8-25.69l-22.59-28.79-.1-.11-.08-.11-4.17-5.85c-1.46-1.65-2.94-3.29-4.43-4.91l-2.61-1.44-1.31-.59-1.4-.63c-.15-.01-.31-.02-.46-.03-.63-.04-1.26-.07-1.9-.1-3.83-.12-7.75.09-11.54-.16-4.97.34-12.48-.19-18.24.05l-3.63-.28c1.33-.02-6.24.05-6.99.05l-3.48.28h-.41s-3.55-.27-3.55-.27l-3.53-.04c-.73.07-3.62.32-3.41.29h-.16c-3.13-.09-8.75-.36-10.7-.41l-3.63.35h-.35c-2.66-.16-5.44-.06-8.1-.08l-2.68-.1-3.52.16h-.36s-3.45-.34-3.45-.34l-3.43.19h-.16s-.15,0-.15,0l-3.63-.24c-1.98.25-7.77.43-11.02.39l-3.63-.41c-2.28-.04-7.56.17-10.87.31l-3.43-.35-3.42.23h-.16s-.14,0-.14,0l-3.51-.21-3.5.19c-1.62-.02-3.96-.23-5.57-.12l-5.4.14h-.14s-.12,0-.12,0l-3.45-.29-3.43.28h-.16s-.14,0-.14,0l-3.52-.17c-.54.05-3.62.25-3.48.25h-.17s-.15,0-.15,0l-3.5-.24-3.49.19h-.16s-.15,0-.15,0l-3.48-.28-3.47.2h-.13s-.12,0-.12,0l-3.57-.19c-2.85.02-9.01.02-10.68-.19l-3.64.3h-.14s-.12,0-.12,0l-3.56-.13-3.56.13h-.11s-.1,0-.1,0l-3.55-.22c-3.95.09-10.59.32-14.51.21-3.78.06-10.31.05-14.28-.31h-.04s-.14,0-.14,0h-.19s-3.34.26-3.34.26h-.13s-.12,0-.12,0l-3.57-.15-3.55.12h-.08c-2.7-.17-5.8-.21-7.08-.42-4.87.48-10.05.61-14.92.08-5.05.14-12.42.12-18.16.18l-3.6-.23-3.59-.06h-2.54c-.14.01-.29.02-.43.04h-.07s-.06,0-.06,0h-.98s-3.05.21-3.05.21h-.12s-.11,0-.11,0l-3.56-.19-3.11.15-1.18.67.2,1.33,1.79,2.62,2.12,2.8c3.02,3.07,5.38,6.78,7.88,10.19l5.47,7.12,2.47,2.56.12.13.1.15,1.93,2.95,2.29,2.68.05.05c2.28,3.2,4.94,6.27,7.18,9.51,6.94,9.12,15.55,19.11,21.7,27.98l2.4,2.75.05.06.05.07c1.06,1.54,3.3,4.32,4.5,5.74l.06.09,1.99,2.95,2.25,2.72,2.4,2.71.06.07.07.09,4.22,5.84,2.36,2.68.16.21,1.96,2.89,2.41,2.56.18.22,2.01,2.8,2.39,2.21c.39.27,1.79,1.29,2.43,1.76,1.72.5,4.61,1.16,6.15,1.51,2.68-.11,8.01-.24,10.69-.31,3.35.08,7.64.1,10.9-.1h.09s3.56.14,3.56.14l3.57-.08c1.96-.08,5.3-.04,7.29.09l3.51-.2c8.5.55,17-.36,25.53.16.67-.08,3.6-.36,3.43-.35h.46s3.43.3,3.43.3l3.44-.24h.15s.17,0,.17,0l3.45.21c.65-.08,3.58-.33,3.43-.33h.49s3.37.34,3.37.34l3.39-.34h.13s.17-.01.17-.01l10.88.11c10.83-.1,21.85.5,32.65-.1h.18s3.64.18,3.64.18c3.7-.06,9.94-.7,14.46-.27l7.14-.22.41.02,3.64.43c5.21-.14,14.82-.42,21.49-.05l7.13-.36h.16s.16,0,.16,0l3.45.21,3.46-.24h.1s.12,0,.12,0c4.58.07,10.17.03,15.07.1.78.01,1.54.02,2.28.04.82.02,1.61.04,2.36.07.67.03,1.32.06,1.92.09,6.37-.57,12.89-.24,19.25-.27,2.13.01,4.27-.06,6.41-.14,2.45.22,5.66.19,7.11.29,2.56-.12,5.11-.3,7.67-.34l3.47.28c6.09-.26,12.17-.12,18.26-.33l.18.02,3.34.33,3.36-.32.23-.02h.24s3.51.23,3.51.23l7.18-.16h.13s.14,0,.14,0l2.58.17.33-.23-.05-.47c-1.18-1.56-2.89-3.9-3.8-5.26Z"/>
    <path class="cls-2" d="M647.29,391.17l-.36-3.12-.1-.84-.5-.66c-1.16-1.47-3.33-4.43-4.38-5.97-1.99-2.37-4.86-5.92-6.86-8.52l-2.28-2.63-1.77-2.92-.14-.22-.16-.19-2.32-2.68-2.1-2.83-.09-.12-.09-.1-2.33-2.57-1.97-2.83-.11-.15-.12-.13-2.36-2.63-2.06-2.72-1.92-2.98c-6.73-8.83-14.29-17.11-20.47-26.3l-20.13-25.79-.07-.08-2.34-2.63-4.19-5.83c-1.74-2.03-3.58-3.98-5.4-5.95l-.39-.21-3.11-1.7-.2-.1-3.25-1.44-.47-.21c-3.78-.23-7.66-.31-11.45-.14l-3.53-.15h-.1s-.11,0-.11,0c-5.88.32-12.08-.12-18.01.13l-3.49-.25h-.22s-7.26.06-7.26.06h-.2s-3.43.3-3.43.3l-3.5-.25-3.72-.03h-.13s-.12,0-.12,0l-3.63.32c-2.02-.03-7.4-.4-10.62-.37h-.16s-.15.01-.15.01l-3.46.35-2.6-.09c-2.7-.02-5.64.12-8.32-.04l-3.46.18-3.44-.32-.2-.02h-.19s-3.48.23-3.48.23l-3.47-.21c-3.22.25-8.73.45-10.8.47l-3.63-.39-.15-.02c-3.13-.04-9.06.18-10.78.38l-3.63-.35h-.41s-3.49.25-3.49.25l-3.48-.19h-.14s-.13,0-.13,0l-3.64.22c-1.8-.22-7.87-.06-10.73.07l-3.48-.27h-.39s-3.49.3-3.49.3l-3.48-.15h-.28c.17,0-2.98.21-3.5.27l-3.46-.21h-.15s-.13,0-.13,0l-3.49.21-3.48-.26h-.31s-3.52.22-3.52.22l-3.57-.17c-3.24.03-7.63.08-10.87-.11h-.29s-3.51.32-3.51.32l-3.58-.1-3.62.15-3.52-.2h-.19c-4.02.07-10.54.42-14.49.29-4.07.07-10.6.12-14.58-.26h-.15s-3.51.32-3.51.32l-3.51-.12c-3.64.24-7.18.02-11.02-.23-2.01.21-3.99.34-5.96.41l-.78-.08-.18-.02-.18.02-1.31.13c-2.02,0-4.01-.07-5.96-.27-5.49.09-11.77.2-16.93.26-.88-.02-1.75-.05-2.63-.07-4.32-.24-10.14-.25-13.31.14l-3.65-.17h-.1s-.09,0-.09,0l-3.65.19-.43.02c-.22,0-.45.01-.69.02l-.02-.3-1.86.07-3.61.15c-.12,0-.27-.01-.41-.02l-.24-.08c-.88.01-1.75.02-2.62.02-.6,0-1.2-.01-1.78-.01-2.26-.02-4.51-.09-6.77-.23l-3.51.14-3.51-.17h-.13s-.14,0-.14,0l-3.5.31h-3.41s-3.51-.32-3.51-.32h-.07s-.09,0-.09,0c-2.7-.06-8.95-.11-10.65.1l-3.59-.24h-.08s-.1,0-.1,0l-3.54.07-3.54-.08h-.12s-.13,0-.13,0l-3.42.33c-1.82-.13-5.35-.24-7.08-.26-3.21-.18-7.64-.15-10.85.05-2.16-.14-8.3.04-10.64.06l-3.56-.29-3.66-.07h-.11s-.13,0-.13,0l-3.35.3-3.37-.37h-.12s-.15-.01-.15-.01l-7.13.04c-1.92-.07-5.54-.14-7.45-.08l-3.39.36-3.47-.16h-3.51s-3.48-.32-3.48-.32c-2.49.1-4.99.41-7.48.67-.32.1-3.5.8-3.75.9-.46.28-3.02,1.87-3.48,2.15l-.25.28-2.2,2.47-.1.11-.1.14-1.92,2.78-2.42,2.42-.1.1c-1.23,1.47-3.46,4.43-4.52,6.02-2.86,3.25-8.44,10.67-10.85,13.97l-2.44,2.67-.21.26c-1.45,2.16-3.72,4.98-5.4,7.02-1.95,2.38-3.7,4.81-5.75,7.07.17-.2-4.05,5.42-4.21,5.67l-2.32,2.64-.17.22c.1-.11-1.64,2.26-1.99,2.78l-2.34,2.46-.17.2c-1.14,1.39-3.24,4.18-4.3,5.75l-2.3,2.53c-1.31,1.76-2.55,3.59-3.85,5.28-3.99,4.9-7.76,10.09-12.07,14.73-.95,1.44-2.88,4.13-4.03,5.56-1.31,1.41-3.64,4.12-4.86,5.58l-.1.15-1.93,2.88-2.18,2.72-.29.36c-.43,1.16-1.55,3.88-1.96,5.01.8,1.34,2.29,3.76,3.09,5.1l.97.39,3.06,1.22.61.24.65-.02,3.46-.12,3.46.2h.14s.13,0,.13,0l3.46-.1,3.55.2c3.6-.05,7.45-.04,11.04-.02l3.53-.22,3.38-.1,3.41.28h.16s.13.01.13.01l7.16-.08h.15s.12-.01.12-.01l3.35-.33,3.32.23h.38s3.48-.19,3.48-.19l3.44.1c5.86-.39,12.3-.24,18.17-.02l3.58-.21c1.47.02,3.18.01,4.99,0,0,.45-.02.91,0,1.35-.09,5.5-.25,10.98-.34,16.49.44,6,.31,12.05-.15,18.05-.06.21.32,3.05.41,3.9l-.08,3.48-.22,3.6v.17s0,.18,0,.18l.27,3.44-.3,3.45v.1c0,3.72-.13,12.11.18,14.56l-.23,3.65v.16s0,.18,0,.18l.23,3.45-.27,3.46v.26c.16,5.41-.15,14.03.26,17.9l-.41,3.65-.03.23.21,2.92c.17,1.72.07,6.83.15,7.89l-.25,3.64v.29s.13,3.51.13,3.51l-.14,2.67c-.13,2.78.02,5.64.11,8.39-.13.91-.14,4.52-.18,6.29.18,6.23.39,12.72.21,18.98l-.34,3.53-.03.28.03.29.37,3.4c-.21,3.3-.28,7.65-.25,10.92l.1,3.68v.23s.05.22.05.22l.74,3.83.11.54.29.45,2.13,3.3.34.53.52.33,3.31,2.09.36.23.4.11,3.83,1.04.41.11c3.77-.14,7.45-.25,11.21-.06,6.25-.17,11.62-.55,17.72-.24h.11s.12,0,.12,0l3.44-.18c8.26.59,16.86,0,25.13-.05,1.45-.04,5,.38,7.15.21,3.51-.18,7.05-.37,10.56-.09h.13s.09,0,.09,0l3.5-.18c1.8.03,5.4.06,7.21,0l3.5-.26,3.38.24.22.02.16-.02,3.38-.32,3.33.34.21.02h.15s3.49-.23,3.49-.23c3.17.13,8.66.02,10.55-.39l3.58.24h.12s.07,0,.07,0c2.22-.14,5.23.03,7.54-.47,1.09.27,2.24.48,3.34.52l3.61-.23c2.6.08,8.04-.02,10.6-.06,3.59.26,7.32.24,10.89.11l3.54.17h.1s.13,0,.13,0l3.45-.2,3.48.27h.1s.14,0,.14,0c1.71-.05,5.43-.19,7.12-.11,1.64.1,5.56.07,7.21,0l3.51.21h.08s.12,0,.12,0l3.48-.1,3.51.24h.13s.16,0,.16,0l3.53-.18,3.43.04,3.53.31c3.07.09,7.76-.27,10.89-.34l3.43.43.19.02h.21s3.66-.13,3.66-.13l3.51-.23c7.12.39,14.48-.09,21.63.37h.16s3.42-.2,3.42-.2l3.44.28c3.08.08,6.22-.25,9.26-.22,3-.03,6.09.2,9.17.33l3.48-.19,3.51.11h.14s.17,0,.17,0l3.43-.28,3.55.16,3.71-.08c3.05.24,8.72.3,12.57.23,4.28.04,8.42.04,12.73.17h.13s3.54-.26,3.54-.26l3.43-.08,3.5.21h.13s.14,0,.14,0l3.45-.12,3.46.26c1.95.02,5.51-.11,7.52-.28,1.84.04,5.31.11,7.08.07,1.81.09,5.38.31,7.2.32h.22s.23-.02.23-.02l3.28-.39,3.29.35.28.03.29-.03,3.47-.31,3.35.04,3.51.3.29.02.3-.03,3.36-.37,3.37.2h.16s.17,0,.17,0l3.54-.18h3.43s3.57.24,3.57.24c2.52.08,8.34.19,10.98.15h.31s3.31-.33,3.31-.33l3.31.38.26.03.27-.02,3.5-.21c2.59.06,5.65,0,8.17-.16l2.5-.02,3.47.34h.13s.14.01.14.01l3.63.02h.44s.43-.13.43-.13l3.79-1.12.76-.22.56-.57,2.73-2.79.54-.55.21-.75,1.07-3.76.12-.43v-.44s-.06-3.54-.06-3.54l.18-3.54v-.21s0-.2,0-.2l-.29-3.46.26-7.07c-.08-2.45-.24-4.9-.38-7.34l.28-3.41.02-.19v-.18s-.15-3.53-.15-3.53l.12-3.52v-.18s0-.17,0-.17l-.3-3.41.23-3.4v-.24c.04-1.78-.15-5.68-.29-7.42.29-6.43.57-18.54,0-25.1l.15-3.63v-.15s0-.13,0-.13c0,.16-.16-2.94-.21-3.47l.2-3.46v-.13c-.15-2.58-.17-6.5-.05-9.1.09-3.01-.11-6.08-.24-9.07l.3-3.44v-.45s-.26-3.43-.26-3.43c.17-1.9.3-5.45.27-7.24v-.13s0-.1,0-.1l-.26-3.47.21-3.45c-.19-3.11-.56-6.09-.4-9.23l.16-9.06v-.15s0-.1,0-.1l-.28-3.64c0-3.15.31-9.32.11-13.49l-.12-4.49c.31-4.5.13-8.99-.03-13.47.66.03,1.32.07,1.98.1,2.14-.14,4.29-.27,6.4-.3,6.02-.04,13.73.25,18.88,0,4.89.4,9.77.26,14.65,0l3.45.29h.15c6.05-.23,12.12-.07,18.18-.24l3.47.36.29.03.3-.03,3.41-.31,3.42.22h.12s.13,0,.13,0l7.18-.13c.91.06,4.08.3,4.59.32l.88-.61c.8-.59,3.48-2.39,4.19-2.92l-.21-1.8ZM99.6,390.3l-3.41.16c-1.47-.07-2.94-.2-4.42-.22-4.18-.07-9.38-.26-13.54.03l-3.46-.13h-.25c.17,0-2.62.12-3.36.16l-3.44-.27-.24-.02-.27.02-3.43.3c-.84,0-5.89.01-6.84.02l-3.55-.32h-.16s-.18-.01-.18-.01l-3.65.07c-4.49.33-9.19.1-14.16.2l-3.49-.2h-.13s-.14,0-.14,0l-3.46.1-3.47-.2h-.28s-2.94.09-2.94.09l-1.48-.59-.4-.67.49-1.26,1.93-2.45.09-.11.06-.1,1.9-2.89,2.15-2.59,2.35-2.66.09-.1.06-.08c1.11-1.41,3.33-4.49,4.27-6,3.87-4.1,11.9-14.62,15.24-19.51l2.4-2.69.22-.28c.93-1.42,2.97-4.19,4.07-5.57l2.38-2.55.15-.16.11-.15,2-2.85,2.25-2.62.08-.1.06-.08,4.24-5.81c3.05-3.64,7.84-9.64,10.99-14.14l2.3-2.56c1.83-2.48,3.64-4.97,5.51-7.42,1.64-2.1,3.81-5.15,5.58-7.1l.05-.07,2.02-2.91,2.1-2.68,2.44-2.49c.2-.13,1.79-2.58,2.23-3.23l1.85-2.1,2.16-1.36c.74-.18,2.24-.55,2.63-.66,2.13-.26,4.26-.49,6.4-.68l3.35.28h.14s.11,0,.11,0l3.53-.05,3.52.12h.2s.17-.01.17-.01l3.5-.41c1.82-.06,5.24-.01,6.98.01l7.09-.13,3.44.34h.45s3.48-.35,3.48-.35l3.38.02,3.51.25h.13s.1,0,.1,0l7.13-.22,3.62.03,3.61-.21c3.16-.12,7.45.1,10.62.1l3.55.17h.16s.15,0,.15,0l3.46-.35c1.83.07,5.26.04,7.07-.03l3.49.21h.24c3.08-.24,7.39-.2,10.56-.16l3.52.3h.18s3.58-.01,3.58-.01h.09s.08,0,.08,0l3.46-.33,3.45.14h.09s.08,0,.08,0l3.59-.17c2.48.23,7.19.2,10.43.17l2.06.65.75,1.67-.46,2.16c-1.28,1.41-3.48,3.93-4.47,5.18-1,1.44-3.25,4.39-4.32,5.74-4.42,5.75-9.3,11.07-13.27,17.17-3.34,3.62-7.74,9.37-11.37,13.86-3.35,4.94-7.48,9.24-10.92,14.13l-2.45,2.47-.09.09-.09.12c-1.09,1.42-3.25,4.31-4.25,5.84l-2.19,2.71c-3.34,3.62-6,7.77-9.12,11.07l-.1.11-.1.14-1.89,2.83-2.37,2.48-.1.11-.1.14c.06-.09-1.74,2.43-2.02,2.82l-2.31,2.72-.06.07-.07.1-2.06,2.96c-1.65,1.74-4.45,5.64-6.55,8.12-1.14,1.01-3.21,2.69-4.51,3.66l-2.39.89-2.83.09c-2.91-.15-9.09-.09-10.54.18l-3.58-.31h-.09s-.12,0-.12,0l-3.53-.02-3.53-.16h-.14s-.18,0-.18,0l-3.36.26-3.39-.28h-.41c.15,0-2.79.19-3.4.24-5.96-.28-12.1-.14-18.07-.26ZM240.91,582.96c-.77-.29-1.33-.52-1.99-.52h-3.48s-3.51-.33-3.51-.33c-2.76.11-5.44.39-8.19.23l-2.63-.14h-.07s-.13,0-.13,0l-3.37.12-3.42-.44-.19-.02-.25.02-3.36.23-3.42-.33h-.15s-.2,0-.2,0l-3.5.2c-3.16.04-7.47-.23-10.65,0-1.64-.13-3.76-.17-5.37-.2-4.41.11-7.9.15-12.39-.18h-.06s-.13,0-.13,0l-6.21.06c-6.25-.23-12.53.38-18.77-.27h-.17s-3.58.18-3.58.18c-4.76-.44-12.21.13-17.88.15-2.37-.29-7.05-.02-10.29,0l-3.05-.85-2.42-1.55-1.48-2.32-.58-3.08-.11-3.38c-.07-3.17.03-7.6.2-10.76v-.23s-.01-.22-.01-.22l-.38-3.35c1.03-9.62-.4-19.53.16-29.14-.22-3.65-.24-7.42-.03-11.05l-.16-3.5.22-3.49v-.11s0-.09,0-.09c-.02-3.23-.08-7.62-.38-10.88l.36-3.39.02-.2v-.22c-.45-5.52-.12-13.37-.36-17.92l.27-3.65v-.19s0-.18,0-.18c0,.14-.2-2.88-.26-3.46l.2-3.49v-.16s0-.15,0-.15l-.22-3.57c-.03-2.18.01-8.46-.03-10.79l.29-3.52v-.42s-.29-3.47-.29-3.47c.13-1.96.27-5.52.26-7.4l-.02-.16-.43-3.65c.39-2.11.39-9.58.33-13.48-.19-3.62-.39-6.21-.2-9.92.06-4.14.09-8.27.13-12.41,2.75-.01,5.54,0,8.03.08h.15s.11,0,.11,0l3.4-.28,3.37.23h.42s3.44-.31,3.44-.31l3.46.11,3.55-.03,3.46.26c3.64-.2,7.32-.49,10.98-.29l3.38-.14.43-.02c.13-.09,3.25-1.2,3.46-1.34l.36-.14.28-.22c1.43-1.07,3.99-3.22,5.31-4.42,2.36-2.93,4.54-5.97,6.94-8.83l1.97-2.91,2.22-2.69.07-.08.05-.07,1.98-2.84,2.35-2.51.25-.31,1.89-2.92,2.25-2.59c1.48-1.96,2.93-3.93,4.39-5.83,1.19-1.36,3.48-4.15,4.58-5.59,1.01-1.52,2.98-4.32,4.13-5.83l2.42-2.5c7.39-9.52,14.4-19.38,22.29-28.51,3.96-6.09,8.63-11.19,13.17-17.1,1.12-1.42,3.3-4.28,4.33-5.77.46-.59,1.15-1.39,1.87-2.23l-.11,2.74v.12s.01.17.01.17l.36,3.49-.07,3.56.03,3.6-.19,3.63.03,3.57-.3,3.55v.07s0,.12,0,.12c-.03,1.74.03,5.39.17,7.22l-.32,3.47-.02.18.02.24.29,3.4-.32,3.46v.15s0,.23,0,.23l.21,3.49-.17,7.04-.41,3.55c.05,5.14.35,10.03-.05,14.76v3.63s-.24,3.58-.24,3.58l-.13,3.68v.16s.02.25.02.25l.31,3.23-.44,3.32-.04.29.03.38.26,3.47v3.35s-.33,3.52-.33,3.52l-.02.17v.28s.25,7.14.25,7.14c-.02,1.79-.26,5.33-.38,7.12.06,1.97-.02,5.43-.16,7.4v.23s.18,3.43.18,3.43l-.14,3.5v.14s0,.2,0,.2l.18,3.48c-.01,1.84-.17,5.33-.31,7.09l-.03,3.66-.2,3.54c-.02.16,0,.46.02.62l.35,3.38c-.09,3.63-.15,7.19-.34,10.78v.22s.21,3.52.21,3.52v3.53c.03,1.86-.06,5.43-.13,7.3.4,4.55.02,9.11.25,13.7.08,1.48.03,2.86.05,4.29l-.35,3.43-.04.41.04.38.34,3.45c-.04,3.67.02,9.04,0,12.58-.02-.55.25,11.1.3,12.48l-.22,3.61-.02.33.02.21c.01-.1.21,2.69.29,3.41l-.27,3.27-.04.43.04.31.44,3.51.05,3.32-.09,3.57v.26s0,.11,0,.11l.31,3.53-.09,3.39v.21s0,.06,0,.06l.22,3.58-.09,3.43v.21s0,.05,0,.05c.18,1.83.31,5.37.29,7.22l.43,7.27-.08,7.28.16,3.73c.06.53.26,1.01.51,1.6.1.23.2.46.32.73-.1-.04-.18-.07-.27-.1ZM551.03,418.71c-.16,3.04,0,6.14-.22,9.17v.13s.24,3.51.24,3.51l-.25,9.02c-.16,2.99.07,6.13.3,9.12l-.25,3.46v.17s0,.2,0,.2l.22,3.53c0,1.81-.16,5.25-.35,6.99v.18s0,.21,0,.21l.23,3.4-.33,3.42c0,1.61.14,3.28.14,4.87.07,2.64,0,6.31-.15,9.02-.06,1.5.06,3,.1,4.5l-.24,3.51v.16s0,.18,0,.18c0-.16.14,2.84.17,3.46-.44,5.44.45,10.88.09,16.31-.12,3.79-.08,8.8-.35,12.66v.28s.23,3.56.23,3.56l.03,3.43-.25,3.52-.02.22.02.24.29,3.45-.13,3.46v.1s0,.12,0,.12l.12,3.44-.3,3.45-.02.21c.14,2.44.26,4.87.36,7.31l-.29,7.14v.17s0,.19,0,.19l.27,3.43-.19,3.53.03,3.29-.73,2.6-1.63,1.68-2.6.77h-3.04s-3.49-.34-3.49-.34l-.16-.02h-.16c-3.59-.01-7.45.33-11.02.22l-3.36.21-3.35-.37-.32-.04-.31.03-3.48.34-7.06-.02c-1.66.01-5.47-.22-7.08-.33h-.11s-.1,0-.1,0l-3.69.02-3.53.19-3.45-.19h-.26s-.25.01-.25.01l-3.33.38-3.32-.28h-.11s-.11-.01-.11-.01l-3.62-.03h-.15s-.14.01-.14.01l-3.33.3-3.32-.34-.33-.03-.32.04-3.41.41c-1.85-.03-5.33-.23-7.01-.3-1.79.04-5.47-.02-7.25-.06h-.25s-3.55.24-3.55.24l-3.43.07-3.47-.25h-.16s-.15,0-.15,0l-3.48.13-3.48-.2h-.13c-1.89.02-5.6.18-7.48.37-.69-.07-4.3-.03-6.09-.15-6.4-.04-12.68.26-19.08-.1l-3.52.11-3.52-.13h-.35s-3.47.32-3.47.32l-3.45-.08h-.13s-.1,0-.1,0c.13,0-2.81.17-3.42.21-5.93-.45-12.09-.15-18.04.04l-3.47-.25c-.11-.08-3.78.27-3.97.23-5.59-.5-14.65.25-21.46-.19h-.23s-3.57.27-3.57.27c.17,0-2.59.1-3.34.15l-3.45-.4c-3.22.09-7.87.38-11.06.45l-3.47-.26h-.11s-.07,0-.07,0h-3.68s-3.55.24-3.55.24l-3.45-.19h-.23s-3.52.15-3.52.15l-3.5-.16h-.12s-.08,0-.08,0l-3.55.15c-2.93-.05-8.63-.05-10.66.18l-3.61-.23h-.16s-.13,0-.13,0l-3.51.25-3.48-.12c-1.84.05-3.7.15-5.5.16-.88.01-1.76.06-2.65,0l-2.66-.11h-.09s-.06,0-.06,0c-5.51.32-11.57-.11-16.19.79.03-.32.05-.64.07-.97.15-.46.24-.9.22-1.4-.03-.5-.06-1-.09-1.49.03-.75.05-1.43.09-1.97l.57-7.33c.04-1.8.04-5.56.05-7.35l.2-3.66v-3.52s.27-3.6.27-3.6v-.06s0-.21,0-.21l-.05-3.44.26-3.58v-.11s0-.26,0-.26l-.14-3.38c.19-1.91.33-5.62.34-7.48l-.02-.25-.3-3.23.39-3.33.03-.24-.02-.36-.18-3.31.33-3.43v-.08c.09-3.67-.05-9.32.01-12.96.01-3.61.19-9.25.26-12.87l-.02-.23-.29-3.24.36-3.26.02-.21c-.02-4.74-.1-9.17,0-13.93.01-1.53-.11-3-.17-4.5.16-3.3.07-7.77.08-11.03l-.23-3.75c.11-1.69.29-7.92.26-11.11l-.37-3.33c.1-1.91.16-5.32.11-7.05l.17-3.61.02-3.72v-.17s0-.11,0-.11l-.24-3.49.08-3.44v-.21s0-.14,0-.14l-.26-3.48c.07-1.9.05-5.36-.05-7.2.1-1.93.18-5.5.17-7.33l-.45-7.22.22-3.37v-.21s.01-.11.01-.11l-.11-3.64v-.17s-.01-.07-.01-.07l-.34-3.34.34-3.26.04-.41-.04-.32-.44-3.48c0-1.89,0-5.26.13-7.03l-.12-3.65.1-3.55v-.15c-.21-3.15-.26-8.9-.56-10.61l.3-3.64v-.16s.01-.07.01-.07l-.07-7.29v-.14s0-.07,0-.07l-.32-3.48.2-3.41v-.25s0-.17,0-.17l-.37-3.45.24-3.4v-.19s0-.14,0-.14l-.25-3.57-.08-3.51.22-3.51v-.21c-.1-1.87-.1-5.31,0-7.19-.07-1.9-.14-5.52-.11-7.42v-.1s-.45-3.51-.45-3.51l.07-3.53-.05-1.36,1.7,2.25c3.12,3.25,5.06,6.35,7.77,10.09,1.91,2.53,3.79,4.98,5.71,7.43l2.42,2.51,1.89,2.91.07.1.08.09,2.36,2.77c8.89,12.21,19.77,24.89,28.83,37.68l2.32,2.7c1.03,1.49,3.27,4.35,4.44,5.74l1.97,2.96.05.08.07.08,2.33,2.86,2.36,2.69,4.2,5.88.05.07.07.08,2.31,2.65,1.96,2.95.09.14.12.13,2.4,2.59,2.04,2.89.12.17.16.15,2.58,2.42.09.08.11.08,2.85,2.11.32.24c1.87.56,5.79,1.52,7.66,1.91l11.12-.2c3.34,0,7.66.29,11-.01,2.26.23,7.75.1,10.75.07l3.55.19h.11s.13,0,.13,0l3.63-.18c7.25.62,17.21-.21,25.37.37l.18-.02,3.39-.31,3.41.32.18.02h.2s3.46-.23,3.46-.23l3.48.23h.18s.2,0,.2,0l3.38-.29,3.4.37.24.03.26-.02,3.49-.33c13.96.09,30.59.85,43.38.33,2.92.23,6.48.24,9.35.01,3.24-.2,5.73-.26,8.81.03h.24s7.06-.19,7.06-.19l3.44.42c3.75-.02,7.56.03,11.32-.13,3.67-.14,7.28.04,10.97.2l7.11-.33,3.49.23h.37c5.84-.48,12.26-.06,18.62-.06.11,4.5.24,9.01-.13,13.49-.03,2.74.25,6.41.02,9.14ZM246.32,420.29l.08-3.44v-.21M640.7,390.26l-2.58-.17h-.14s-.13,0-.13,0l-7.18.16-3.51-.21h-.24s-.23,0-.23,0l-3.36.32-3.34-.33-.18-.02c-6.08.2-12.17.07-18.26.33l-3.47-.28c-2.56.04-5.12.22-7.67.34-1.45-.1-4.66-.07-7.11-.29-2.14.08-4.27.15-6.41.14-6.36.03-12.88-.31-19.25.27-.6-.04-1.25-.07-1.92-.09-.75-.03-1.54-.05-2.36-.07-.74-.02-1.5-.03-2.28-.04-4.9-.07-10.49-.03-15.07-.1h-.12s-.1,0-.1,0l-3.46.24-3.45-.21h-.16s-.16,0-.16,0l-7.13.36c-6.67-.36-16.28-.08-21.49.05l-3.64-.43-.41-.02-7.14.22c-4.52-.43-10.76.21-14.46.27l-3.64-.17h-.18c-10.8.6-21.82,0-32.65.1l-10.88-.11h-.17s-.13.01-.13.01l-3.39.34-3.37-.34h-.49c.15,0-2.78.24-3.43.32l-3.45-.21h-.17s-.15,0-.15,0l-3.44.24-3.43-.3h-.46c.17-.01-2.75.27-3.43.35-8.52-.53-17.02.39-25.53-.16l-3.51.2c-1.99-.13-5.33-.17-7.29-.09l-3.57.08-3.56-.13h-.09c-3.27.2-7.55.18-10.9.09-2.68.06-8.02.2-10.69.31-1.53-.34-4.42-1.01-6.15-1.51-.63-.46-2.04-1.48-2.43-1.76l-2.39-2.21-2.01-2.8-.18-.22-2.41-2.56-1.96-2.89-.16-.21-2.36-2.68-4.22-5.84-.07-.09-.06-.07-2.4-2.71-2.25-2.72-1.99-2.95-.06-.09c-1.21-1.42-3.44-4.2-4.5-5.74l-.05-.07-.05-.06-2.4-2.75c-6.15-8.87-14.76-18.86-21.7-27.98-2.24-3.24-4.9-6.32-7.18-9.51l-.05-.05-2.29-2.68-1.93-2.95-.1-.15-.12-.13-2.47-2.56-5.47-7.12c-2.5-3.41-4.86-7.12-7.88-10.19l-2.12-2.8-1.79-2.62-.2-1.33,1.18-.67,3.11-.15,3.56.19h.11s.12,0,.12,0l3.05-.21h.98s.06,0,.06,0h.07c.14-.02.29-.03.43-.04h2.54s3.59.05,3.59.05l3.6.23c5.74-.06,13.12-.03,18.16-.18,4.86.53,10.05.4,14.92-.08,1.29.21,4.38.24,7.08.42h.08s3.55-.12,3.55-.12l3.57.15h.12s.13,0,.13,0l3.34-.27h.19s.14.02.14.02h.04c3.97.35,10.5.36,14.28.3,3.92.11,10.56-.12,14.51-.21l3.55.22h.1s.11,0,.11,0l3.56-.13,3.56.13h.12s.14,0,.14,0l3.64-.3c1.67.21,7.83.2,10.68.19l3.57.19h.12s.13,0,.13,0l3.47-.2,3.48.28h.15s.16,0,.16,0l3.49-.19,3.5.24h.15s.17,0,.17,0c-.15,0,2.93-.2,3.48-.25l3.52.17h.14s.16,0,.16,0l3.43-.28,3.45.29h.12s.14,0,.14,0l5.4-.14c1.61-.11,3.95.1,5.57.12l3.5-.19,3.51.21h.14s.16,0,.16,0l3.42-.23,3.43.35c3.31-.14,8.59-.35,10.87-.31l3.63.41c3.25.04,9.04-.14,11.02-.39l3.63.24h.15s.16,0,.16,0l3.43-.19,3.45.34h.36s3.52-.15,3.52-.15l2.68.1c2.65.01,5.44-.08,8.1.09h.35s3.63-.36,3.63-.36c1.95.06,7.57.32,10.7.43h.16c-.2.01,2.68-.24,3.41-.3l3.53.04,3.55.27h.41s3.48-.29,3.48-.29c.75,0,8.32-.07,6.99-.05l3.63.28c5.76-.24,13.27.29,18.24-.05,3.79.25,7.71.04,11.54.16.64.02,1.27.05,1.9.1.15.01.31.02.46.03l1.4.63,1.31.59,2.61,1.44c1.49,1.62,2.97,3.26,4.43,4.91l4.17,5.85.08.11.1.11,22.59,28.79c4.51,7.23,13.64,17.56,19.8,25.69l1.92,3,.06.09.07.09,2.19,2.91.15.19,2.3,2.59,1.97,2.85.1.15.13.15,2.34,2.6,2.08,2.83.14.18,2.21,2.57,1.76,2.94.13.21.17.2,2.32,2.7c1.43,2.02,5.05,6.31,6.74,8.45.91,1.36,2.62,3.7,3.8,5.26l.05.47-.33.23Z"/>
  </g>
  <path class="cls-2" d="M339.1,487.12h16.16c3.45,0,6.26.94,8.44,2.81,2.62,2.13,3.99,5.17,4.1,9.11-.08,5.8-2.74,9.75-7.99,11.84l9.58,18.95h-7.44l-8.56-18.25h-8.02v18.25h-6.26v-42.71ZM345.37,505.84h9.5c2.35-.04,4.12-.74,5.29-2.11,1.16-1.27,1.73-2.84,1.73-4.7-.04-2.23-.73-3.85-2.08-4.85-1.06-.88-2.6-1.32-4.61-1.32h-9.84v12.98Z"/>
  <path class="cls-2" d="M375.17,499.42h5.91v18.13c0,2.05.56,3.66,1.67,4.81,1.1,1.15,2.5,1.73,4.2,1.73s3.09-.58,4.17-1.73c1.1-1.15,1.65-2.76,1.65-4.81v-18.13h5.91v30.41h-5.91v-3.25h-.11c-1.95,2.4-4.49,3.6-7.63,3.6-2.44-.04-4.64-.96-6.61-2.75-2.14-1.75-3.22-4.35-3.26-7.78v-20.23Z"/>
  <path class="cls-2" d="M407.39,487.12h5.91v15.53c1.08-1.07,2.26-1.95,3.55-2.64,1.19-.65,2.54-.97,4.05-.97,3.61.1,6.25,1.43,7.91,3.98.81.96,1.37,2.22,1.67,3.78.28,1.54.43,4.14.43,7.79s-.14,6.17-.43,7.73c-.3,1.64-.86,2.94-1.67,3.9-.81,1.17-1.88,2.11-3.2,2.81-1.3.72-2.87,1.1-4.71,1.14-3.1-.08-5.63-1.25-7.6-3.53v3.17h-5.91v-42.71ZM419.12,505.13c-1.33,0-2.38.28-3.15.85-.81.57-1.41,1.31-1.79,2.23-.36.92-.6,1.92-.71,3s-.17,2.2-.17,3.38c0,1.08.06,2.17.17,3.29.11,1.14.35,2.16.71,3.09.38.92.97,1.67,1.79,2.23.78.59,1.82.88,3.15.88,1.4,0,2.51-.27,3.32-.82.81-.57,1.39-1.29,1.73-2.17.38-.92.63-1.96.77-3.12.04-1.1.06-2.23.06-3.38,0-1.22-.02-2.4-.06-3.56-.13-1.08-.39-2.08-.77-3-.34-.92-.92-1.65-1.73-2.17-.82-.49-1.92-.74-3.32-.74Z"/>
  <path class="cls-2" d="M434.28,499.42h6.27l6.97,21.3h.11l6.95-21.3h6.29l-12.67,36.71c-.81,2.28-1.94,3.87-3.37,4.75-1.46.84-3.1,1.26-4.93,1.26h-1.96v-5.74h1.73c.78,0,1.49-.22,2.16-.65.66-.45,1.12-1.12,1.39-2l1.62-5.11-10.55-29.23Z"/>
</svg>