<?xml version="1.0" encoding="utf-8"?>
<!-- Generator: Adobe Illustrator 16.0.4, SVG Export Plug-In . SVG Version: 6.00 Build 0)  -->
<!DOCTYPE svg PUBLIC "-//W3C//DTD SVG 1.1//EN" "http://www.w3.org/Graphics/SVG/1.1/DTD/svg11.dtd">
<svg version="1.1" id="レイヤー_1" xmlns="http://www.w3.org/2000/svg" xmlns:xlink="http://www.w3.org/1999/xlink" x="0px"
	 y="0px" width="269px" height="231.375px" viewBox="25.729 0 269 231.375" enable-background="new 25.729 0 269 231.375"
	 xml:space="preserve">
<g>
	<path fill="#3F4A5A" d="M266.087,192.658c0,1.924-0.734,3.847-2.2,5.313c-1.468,1.467-3.392,2.201-5.312,2.201H60.741
		c-1.921,0-3.845-0.734-5.311-2.201c-1.468-1.466-2.201-3.39-2.201-5.313V68.203h212.858V192.658z"/>
</g>
<g>
	<path fill="#333C49" d="M266.087,68.203H53.229V37.402c0-1.924,0.733-3.846,2.201-5.313c1.466-1.469,3.39-2.202,5.311-2.202
		h197.833c1.922,0,3.845,0.733,5.312,2.2c1.466,1.469,2.2,3.391,2.2,5.314L266.087,68.203L266.087,68.203z"/>
</g>
<g>
	<rect x="72.01" y="172.09" fill="#CCCBCA" width="80.787" height="8.428"/>
</g>
<g>
	<rect x="72.01" y="155.244" fill="#FFFFFF" width="89.197" height="8.425"/>
</g>
<g>
	<rect x="99.972" y="138.398" fill="#CCCBCA" width="52.821" height="8.424"/>
</g>
<g>
	<rect x="72.01" y="104.706" fill="#FFFFFF" width="52.822" height="8.423"/>
</g>
<g>
	<rect x="72.01" y="87.86" fill="#CCCBCA" width="26.412" height="8.421"/>
</g>
<g>
	<rect x="161.207" y="172.09" fill="#FFFFFF" width="24.856" height="8.428"/>
</g>
<g>
	<rect x="169.621" y="155.244" fill="#CCCBCA" width="42.855" height="8.425"/>
</g>
<g>
	<rect x="161.207" y="138.398" fill="#FFFFFF" width="24.859" height="8.424"/>
</g>
<g>
	<rect x="72.01" y="138.398" fill="#FFFFFF" width="19.549" height="8.424"/>
</g>
<g>
	<rect x="133.244" y="104.706" fill="#CCCBCA" width="79.233" height="8.423"/>
</g>
<g>
	<rect x="106.835" y="87.86" fill="#FFFFFF" width="79.229" height="8.421"/>
</g>
<g>
	<rect x="194.479" y="172.09" fill="#CCCBCA" width="52.827" height="8.428"/>
</g>
<g>
	<rect x="220.893" y="155.244" fill="#FFFFFF" width="26.412" height="8.425"/>
</g>
<g>
	<rect x="194.483" y="138.398" fill="#FFFFFF" width="26.409" height="8.424"/>
</g>
<g>
	<rect x="220.893" y="104.706" fill="#FFFFFF" width="26.412" height="8.423"/>
</g>
<g>
	<path fill="#FFFFFF" d="M78.271,49.046c0,3.453-2.802,6.26-6.261,6.26c-3.459,0-6.261-2.807-6.261-6.26
		c0-3.459,2.803-6.263,6.261-6.263C75.468,42.785,78.271,45.587,78.271,49.046z"/>
</g>
<g>
	<path fill="#FFFFFF" d="M97.053,49.046c0,3.453-2.802,6.26-6.261,6.26c-3.458,0-6.26-2.807-6.26-6.26
		c0-3.459,2.802-6.263,6.26-6.263C94.25,42.785,97.053,45.587,97.053,49.046z"/>
</g>
<g>
	<path fill="#FFFFFF" d="M115.833,49.046c0,3.453-2.801,6.26-6.26,6.26c-3.458,0-6.26-2.807-6.26-6.26
		c0-3.459,2.802-6.263,6.26-6.263C113.033,42.785,115.833,45.587,115.833,49.046z"/>
</g>
</svg>
