<svg id="レイヤー_1" data-name="レイヤー 1" xmlns="http://www.w3.org/2000/svg" viewBox="0 0 200 200"><defs><style>.cls-1{fill:#3f4a5a;}.cls-2{fill:#333c49;}.cls-3{fill:#cccbca;}.cls-4{fill:#fff;}</style></defs><title>programming</title><path class="cls-1" d="M196.5,172.59a6.81,6.81,0,0,1-6.81,6.81H10.31a6.83,6.83,0,0,1-6.81-6.81V59.74h193Z"/><path class="cls-2" d="M196.5,59.74H3.5V31.81A6.83,6.83,0,0,1,10.31,25H189.69a6.81,6.81,0,0,1,6.81,6.81V59.74Z"/><rect class="cls-3" x="20.53" y="153.94" width="73.25" height="7.64"/><rect class="cls-4" x="20.53" y="138.66" width="80.88" height="7.64"/><rect class="cls-3" x="45.88" y="123.39" width="47.89" height="7.64"/><rect class="cls-4" x="20.53" y="92.84" width="47.89" height="7.64"/><rect class="cls-3" x="20.53" y="77.56" width="23.95" height="7.64"/><rect class="cls-4" x="101.4" y="153.94" width="22.54" height="7.64"/><rect class="cls-3" x="109.03" y="138.66" width="38.86" height="7.64"/><rect class="cls-4" x="101.4" y="123.39" width="22.54" height="7.64"/><rect class="cls-4" x="20.53" y="123.39" width="17.73" height="7.64"/><rect class="cls-3" x="76.05" y="92.84" width="71.84" height="7.64"/><rect class="cls-4" x="52.1" y="77.56" width="71.84" height="7.64"/><rect class="cls-3" x="131.57" y="153.94" width="47.9" height="7.64"/><rect class="cls-4" x="155.52" y="138.66" width="23.95" height="7.64"/><rect class="cls-4" x="131.58" y="123.39" width="23.95" height="7.64"/><rect class="cls-4" x="155.52" y="92.84" width="23.95" height="7.64"/><path class="cls-4" d="M26.21,42.37a5.68,5.68,0,1,1-5.68-5.68A5.68,5.68,0,0,1,26.21,42.37Z"/><path class="cls-4" d="M43.24,42.37a5.68,5.68,0,1,1-5.68-5.68A5.69,5.69,0,0,1,43.24,42.37Z"/><path class="cls-4" d="M60.26,42.37a5.68,5.68,0,1,1-5.67-5.68A5.68,5.68,0,0,1,60.26,42.37Z"/></svg>