<svg id="materials" xmlns="http://www.w3.org/2000/svg" viewBox="0 0 240 240"><defs><style>.cls-1{fill:#329ae0;}.cls-2{fill:#474747;}.cls-3{fill:#ffd9b6;}.cls-4{fill:#756c68;}.cls-5{fill:#e5e8ed;}.cls-6{fill:#fff;}</style></defs><title>programmer</title><path class="cls-1" d="M157.27,144.79c43.41,3.72,44.32,20.61,49.29,48.52,25.82,0,29,43.92,3.14,43.92H30.52c-25.87,0-22.68-43.92,3.13-43.92,5-27.75,5.88-44.6,48.54-48.45Z"/><path class="cls-2" d="M157.27,144.79l-.12,1.5c10.75.92,18.81,2.66,24.87,5.12a32.05,32.05,0,0,1,10.67,6.72c4,3.94,6.41,8.8,8.17,14.72s2.83,12.86,4.23,20.73l.22,1.23h1.25a18.24,18.24,0,0,1,8.38,1.95,19.43,19.43,0,0,1,8.27,8.53,26.35,26.35,0,0,1,2.87,12A20.75,20.75,0,0,1,222,230.17a14.31,14.31,0,0,1-5.05,4,16.81,16.81,0,0,1-7.27,1.52H30.52a16.78,16.78,0,0,1-7.27-1.52,14.77,14.77,0,0,1-6.82-6.79,22.1,22.1,0,0,1-2.29-10.14,25.42,25.42,0,0,1,5.05-15.41,18.42,18.42,0,0,1,6.09-5.11,18.23,18.23,0,0,1,8.37-1.95h1.26l.22-1.23c1.24-7,2.22-13.19,3.64-18.62A44.5,44.5,0,0,1,43,164.07,27.89,27.89,0,0,1,55.73,152.5c6.17-3,14.7-5.07,26.59-6.15l-.13-1.49v1.5l75.09-.07v-1.5l-.12,1.5.12-1.5v-1.5l-75.15.07h-.07c-10.76,1-19,2.76-25.32,5.4a34.77,34.77,0,0,0-11.46,7.37c-4.43,4.4-7,9.8-8.82,16s-2.88,13.16-4.27,20.94l1.47.26v-1.5a21.14,21.14,0,0,0-9.74,2.28,22.49,22.49,0,0,0-9.57,9.81,29.43,29.43,0,0,0-3.2,13.38A23.67,23.67,0,0,0,15.85,232,17.28,17.28,0,0,0,22,236.92a19.63,19.63,0,0,0,8.56,1.81H209.7a19.63,19.63,0,0,0,8.56-1.81,17.85,17.85,0,0,0,8.2-8.13,25.3,25.3,0,0,0,2.62-11.51A28.36,28.36,0,0,0,223.39,200a21.45,21.45,0,0,0-7.08-5.93,21.15,21.15,0,0,0-9.75-2.28v1.5l1.48-.26c-1.24-7-2.23-13.28-3.72-19a46.64,46.64,0,0,0-4.55-11.66,31.06,31.06,0,0,0-14.28-12.79c-6.76-3.19-15.78-5.29-28.09-6.35h-.13Z"/><path class="cls-3" d="M171.26,89.82c2.83-1.28,8.34-.19,8.34,8.62,0,14.52-4.93,20.14-11,20.14"/><path class="cls-2" d="M171.88,91.18a3.88,3.88,0,0,1,1.52-.31,4,4,0,0,1,1.56.32,4.45,4.45,0,0,1,2.1,2,11.14,11.14,0,0,1,1,5.2c0,7.1-1.23,11.87-3,14.72a8.63,8.63,0,0,1-3,3,7.16,7.16,0,0,1-3.55.91,1.5,1.5,0,0,0,0,3,10.11,10.11,0,0,0,5-1.31,13.1,13.1,0,0,0,5.5-7,37.84,37.84,0,0,0,2-13.29c0-3.68-.91-6.34-2.4-8.09a7.1,7.1,0,0,0-2.54-1.91,6.93,6.93,0,0,0-2.76-.57,6.67,6.67,0,0,0-2.75.58,1.5,1.5,0,1,0,1.23,2.73Z"/><path class="cls-3" d="M64.87,89.82c-2.83-1.28-8.34-.19-8.34,8.62,0,14.52,4.94,20.14,11,20.14"/><path class="cls-2" d="M65.49,88.45a6.71,6.71,0,0,0-2.76-.58,6.85,6.85,0,0,0-2.75.57,7.41,7.41,0,0,0-3.55,3.39A14,14,0,0,0,55,98.44c0,7.43,1.25,12.72,3.46,16.3a11.42,11.42,0,0,0,4,4,10,10,0,0,0,5,1.31,1.5,1.5,0,0,0,0-3,7.15,7.15,0,0,1-3.54-.91c-1.62-.92-3.09-2.63-4.19-5.51A34.88,34.88,0,0,1,58,98.44c0-3.22.79-5.1,1.69-6.15a4.05,4.05,0,0,1,1.45-1.1,4,4,0,0,1,1.56-.32,3.88,3.88,0,0,1,1.52.31,1.5,1.5,0,0,0,1.24-2.73Z"/><path class="cls-3" d="M118.66,32.75c-51.95,0-53.08,25.83-53.08,67.16,0,16.6,22,52.78,28.09,52.14h49.86c6.11.64,28.09-35.54,28.09-52.14,0-41.33-1.13-67.16-53.07-67.16"/><path class="cls-2" d="M118.66,31.25c-13.11,0-23.11,1.63-30.78,4.8a33.72,33.72,0,0,0-13.54,9.72c-5,6.1-7.57,13.88-8.87,23s-1.39,19.55-1.39,31.18c0,4.43,1.42,9.86,3.57,15.62a133.34,133.34,0,0,0,13,25.2,69.21,69.21,0,0,0,6.85,9,19.81,19.81,0,0,0,3,2.71,7.31,7.31,0,0,0,1.45.82,3.92,3.92,0,0,0,1.57.35l.31,0-.15-1.49v1.5h49.86v-1.5l-.15,1.49.32,0a4.42,4.42,0,0,0,2.05-.58,15.31,15.31,0,0,0,3.7-3,70,70,0,0,0,7.49-9.8,138.33,138.33,0,0,0,11-20.62,85.09,85.09,0,0,0,3.72-10.48,35.5,35.5,0,0,0,1.45-9.15c0-10.34-.06-19.75-1-28.09a63.76,63.76,0,0,0-3.93-16.95A34.41,34.41,0,0,0,162,44.77c-4-4.43-9.35-7.83-16.45-10.09s-15.95-3.43-27-3.43a1.5,1.5,0,0,0,0,3c12.86,0,22.48,1.61,29.63,4.57a30.84,30.84,0,0,1,12.37,8.85c4.53,5.5,6.95,12.69,8.22,21.49s1.36,19.14,1.35,30.75c0,3.79-1.28,9-3.37,14.56a130.92,130.92,0,0,1-12.69,24.6,66.82,66.82,0,0,1-6.53,8.56,18.51,18.51,0,0,1-2.54,2.31,5.6,5.6,0,0,1-.89.51,1.45,1.45,0,0,1-.4.11H93.51a2,2,0,0,1-.66-.23,13.15,13.15,0,0,1-2.94-2.45,67.35,67.35,0,0,1-7.13-9.36A134.44,134.44,0,0,1,72,118.37a79.81,79.81,0,0,1-3.59-10.1,32.74,32.74,0,0,1-1.35-8.36c0-10.32.07-19.64,1-27.76A60.67,60.67,0,0,1,71.78,56a31.2,31.2,0,0,1,5.65-9.23c3.59-4,8.43-7.1,15.13-9.24s15.24-3.28,26.1-3.28a1.5,1.5,0,0,0,0-3Z"/><ellipse class="cls-2" cx="143.49" cy="98.54" rx="6.43" ry="7.13"/><path class="cls-2" d="M102.82,98.54c0,3.94-2.88,7.13-6.44,7.13S90,102.48,90,98.54s2.88-7.13,6.43-7.13S102.82,94.6,102.82,98.54Z"/><path class="cls-4" d="M154.31,83.12c-.69.6-2,.36-2.9.06a24.58,24.58,0,0,0-5.76-1.07,43,43,0,0,0-12.25,1.1,2.44,2.44,0,0,1-2.69-1.43c-.44-1,.58-2.62,1.65-3.13,2.19-1.05,6.35-2.77,13.48-2.34,10.31.62,10.27,2.74,10.23,3.86A4.51,4.51,0,0,1,154.31,83.12Z"/><path class="cls-2" d="M154.31,83.12l-.66-.76a.85.85,0,0,1-.56.13,5.07,5.07,0,0,1-1.37-.26,20.43,20.43,0,0,0-2-.55,35.47,35.47,0,0,0-4-.56c-.84-.08-1.69-.11-2.53-.11a47,47,0,0,0-10.06,1.23l.25,1-.11-1-.3,0a1.5,1.5,0,0,1-.86-.23,1.48,1.48,0,0,1-.5-.63l0-.13a1.9,1.9,0,0,1,.37-.93,2.37,2.37,0,0,1,.82-.76,23.88,23.88,0,0,1,10.85-2.31c.68,0,1.39,0,2.14.07,4.76.28,7.23.91,8.35,1.49a1.85,1.85,0,0,1,.84.68.75.75,0,0,1,.11.46v.2h0a2.09,2.09,0,0,1-.35,1,5.53,5.53,0,0,1-1.07,1.22l.66.76.65.75a7.42,7.42,0,0,0,1.46-1.69,4.15,4.15,0,0,0,.65-2h0c0-.07,0-.15,0-.26a2.86,2.86,0,0,0-.38-1.48,3.47,3.47,0,0,0-1.11-1.12,10,10,0,0,0-3.35-1.25,42.21,42.21,0,0,0-6.34-.78c-.79,0-1.54-.07-2.26-.07a25.77,25.77,0,0,0-11.71,2.51,4.32,4.32,0,0,0-1.61,1.42,3.74,3.74,0,0,0-.71,2.07,2.18,2.18,0,0,0,.19,1,3.34,3.34,0,0,0,3.19,2,4.36,4.36,0,0,0,.51,0h.14l.2-.05A45,45,0,0,1,143.21,83c.79,0,1.58,0,2.35.1a32.57,32.57,0,0,1,3.72.53,18.58,18.58,0,0,1,1.82.49,7,7,0,0,0,2,.36,2.77,2.77,0,0,0,1.87-.62Z"/><path class="cls-4" d="M85.57,83.12c.68.6,2,.36,2.89.06a24.58,24.58,0,0,1,5.76-1.07,43,43,0,0,1,12.26,1.1,2.43,2.43,0,0,0,2.68-1.43c.45-1-.57-2.62-1.64-3.13-2.2-1.05-6.36-2.77-13.49-2.34-10.31.62-10.27,2.74-10.23,3.86A4.49,4.49,0,0,0,85.57,83.12Z"/><path class="cls-2" d="M85.57,83.12l-.66.75a2.77,2.77,0,0,0,1.87.62,7,7,0,0,0,2-.36,18.58,18.58,0,0,1,1.82-.49,32.57,32.57,0,0,1,3.72-.53c.77-.07,1.56-.1,2.35-.1a41.48,41.48,0,0,1,6.62.58c.9.15,1.64.3,2.16.41l.59.13.21.05h.13a4.36,4.36,0,0,0,.51,0,3.54,3.54,0,0,0,2-.57,3.49,3.49,0,0,0,1.21-1.47,2.35,2.35,0,0,0,.2-1,3.82,3.82,0,0,0-.72-2.07,4.37,4.37,0,0,0-1.6-1.42,25.82,25.82,0,0,0-11.72-2.51c-.72,0-1.47,0-2.26.07-4.9.3-7.55.91-9.14,1.71a3.89,3.89,0,0,0-1.66,1.45A2.84,2.84,0,0,0,82.79,80c0,.1,0,.18,0,.26h0a4.15,4.15,0,0,0,.65,2,7.42,7.42,0,0,0,1.46,1.69l.66-.75.65-.76a5.46,5.46,0,0,1-1.06-1.22,2.13,2.13,0,0,1-.36-1h0V80a.86.86,0,0,1,.11-.47,1.35,1.35,0,0,1,.49-.47,8.13,8.13,0,0,1,2.67-1,39.71,39.71,0,0,1,6-.73c.75,0,1.46-.07,2.14-.07a23.93,23.93,0,0,1,10.86,2.31,2.35,2.35,0,0,1,.81.76,1.9,1.9,0,0,1,.37.93l0,.13a1.57,1.57,0,0,1-.51.63,1.47,1.47,0,0,1-.86.23l-.3,0-.1,1,.24-1A46.84,46.84,0,0,0,96.66,81c-.84,0-1.69,0-2.53.11a35.47,35.47,0,0,0-4,.56,19.29,19.29,0,0,0-2,.55,5.21,5.21,0,0,1-1.38.26.85.85,0,0,1-.56-.13Z"/><path class="cls-4" d="M157.64,154.14c13-5.95,10.84-22.85,10.84-22.85,7-13.33,3.21-47.8,3.21-47.8l-7.32,40.33c-.35.56-14.71,12.21-17.47,5.65-1.83-4.35-8.75-15.42-27.62-9.37h-1.43c-22.65-6.51-24,3.72-26.25,9.14-2.75,6.56-18.41-4.86-18.77-5.42L65.45,83.49s-3.78,34.47,3.2,47.8c0,0-2.17,16.9,10.85,22.85"/><path class="cls-2" d="M158.26,155.5a18.44,18.44,0,0,0,6.34-4.69,21.77,21.77,0,0,0,4.57-9,31.65,31.65,0,0,0,1-7.77,23.6,23.6,0,0,0-.15-2.92l-1.49.19,1.33.7c1.81-3.48,2.88-8,3.53-13a121.17,121.17,0,0,0,.87-15.38c0-10.91-1-20.25-1-20.29l-1.12-10.25-9.16,50.48,1.47.27-1.27-.8.92.57-.79-.74a.79.79,0,0,0-.13.17l.92.57-.79-.74h0c-.06,0-.28.26-.59.51a47.13,47.13,0,0,1-5.8,4,26.12,26.12,0,0,1-3.67,1.83,8.85,8.85,0,0,1-3.06.71,2.23,2.23,0,0,1-1.15-.25,1.59,1.59,0,0,1-.67-.83,19.58,19.58,0,0,0-18.78-12,35,35,0,0,0-10.68,1.84l.46,1.43v-1.5h-1.43v1.5l.42-1.44a47.47,47.47,0,0,0-12.85-2.16,17.7,17.7,0,0,0-7.1,1.29,11.88,11.88,0,0,0-5.75,5.32,47.22,47.22,0,0,0-2.35,5.54,1.57,1.57,0,0,1-.7.83,2.75,2.75,0,0,1-1.35.28,11.88,11.88,0,0,1-4.14-1,43,43,0,0,1-6.87-3.66c-1-.64-1.81-1.22-2.39-1.65l-.68-.52-.14-.13h0l-.47.48.5-.45,0,0-.47.48.5-.45-1,.86L74.1,123a1.19,1.19,0,0,0-.13-.18l-1,.86L74.1,123l-1.27.8,1.48-.27L65.07,73.13,64,83.32s-1,9.39-1,20.3A121.27,121.27,0,0,0,63.79,119c.66,5,1.72,9.51,3.53,13l1.33-.7-1.49-.19A28.13,28.13,0,0,0,67,134,30,30,0,0,0,69,144.85a20.56,20.56,0,0,0,3.58,6,18.64,18.64,0,0,0,6.34,4.69l1.25-2.72a15.5,15.5,0,0,1-5.33-3.95,18.86,18.86,0,0,1-3.92-7.78,28.18,28.18,0,0,1-.85-7c0-.8,0-1.44.06-1.89,0-.22,0-.39,0-.5l0-.12v0h0l.06-.47-.22-.42c-1.54-2.92-2.59-7.21-3.21-12a116,116,0,0,1-.84-15c0-5.36.25-10.36.5-14,.13-1.83.26-3.32.35-4.35,0-.52.09-.92.12-1.19s0-.41,0-.41l-1.49-.16L64,83.76l7.44,40.61.15.25.16.21.19.19c.21.19.48.4.86.69a53.08,53.08,0,0,0,6.65,4.2,33,33,0,0,0,4.39,2,13.57,13.57,0,0,0,4.36.87,5.74,5.74,0,0,0,2.8-.65,4.57,4.57,0,0,0,2-2.29c.47-1.13.87-2.34,1.37-3.52a11,11,0,0,1,3.3-4.66,9.2,9.2,0,0,1,3-1.52,16,16,0,0,1,4.73-.62,44.53,44.53,0,0,1,12,2l.2.06h1.87l.23-.07a32,32,0,0,1,9.76-1.7,17,17,0,0,1,11.42,3.92,17.35,17.35,0,0,1,4.6,6.3,4.61,4.61,0,0,0,1.91,2.25,5.19,5.19,0,0,0,2.67.66,12.59,12.59,0,0,0,5-1.26,39.93,39.93,0,0,0,6.9-4c1-.68,1.77-1.31,2.37-1.8.3-.25.55-.45.74-.63l.25-.23.13-.13c0-.06.09-.1.18-.24l.16-.25,7.37-40.61-1.48-.27-1.49.16s0,.14,0,.41c.19,1.9,1,10.17,1,19.55a119.54,119.54,0,0,1-.84,15c-.62,4.77-1.67,9.06-3.22,12l-.21.42.06.47h0c0,.08.12,1.05.12,2.54a27,27,0,0,1-1.73,9.72,17.36,17.36,0,0,1-3,5.09,15.5,15.5,0,0,1-5.33,3.95l1.25,2.72Z"/><path class="cls-4" d="M175.29,64.78c2.85-64.34-92.83-58-99-32-13.71,5.62-14.91,20.56-14,30.62a5.45,5.45,0,0,0,9.18,3.46c4.72-4.49,10.4-10.93,13-17.81,7.55,6.84,43.79,18.39,44.28,10.7,9.53,7.93,27.19,11.3,37.54,12.65A8,8,0,0,0,175.29,64.78Z"/><path class="cls-2" d="M175.29,64.78l1.5.06c0-1,.07-1.91.07-2.84a48.24,48.24,0,0,0-5.29-22.88c-5-9.53-13.24-16.16-22.71-20.37a75.88,75.88,0,0,0-30.54-6.07c-10.46,0-20.48,1.9-28.34,5.25a35.22,35.22,0,0,0-9.93,6.14,16.8,16.8,0,0,0-5.24,8.34l1.46.34-.56-1.38a22.68,22.68,0,0,0-7.6,5,24.5,24.5,0,0,0-6,10.54,40.22,40.22,0,0,0-1.52,11.44c0,1.81.1,3.55.24,5.17a6.88,6.88,0,0,0,2.36,4.62,7.08,7.08,0,0,0,4.6,1.71,6.83,6.83,0,0,0,4.76-1.92,72.15,72.15,0,0,0,7.44-8.19,40.35,40.35,0,0,0,5.92-10.18L84.45,49l-1,1.11a20.85,20.85,0,0,0,3.13,2.25,91.5,91.5,0,0,0,18,7.62c3.45,1.09,6.92,2,10.14,2.7a44.68,44.68,0,0,0,8.62,1.06A11.29,11.29,0,0,0,127.8,63a4.5,4.5,0,0,0,1.66-1.22,3.56,3.56,0,0,0,.77-2l-1.5-.09-1,1.15c5,4.19,12,7.05,19,9.09a132.11,132.11,0,0,0,19.3,3.89,8.47,8.47,0,0,0,1.23.08,9.5,9.5,0,0,0,9.48-9.08l-1.5-.07-1.49-.07a6.51,6.51,0,0,1-6.49,6.22,6.15,6.15,0,0,1-.85-.05,130.14,130.14,0,0,1-18.85-3.81c-6.79-2-13.43-4.75-17.92-8.5l-2.27-1.89-.19,2.94a.44.44,0,0,1-.11.31,2.06,2.06,0,0,1-1.09.55,10.59,10.59,0,0,1-2.69.28A44.59,44.59,0,0,1,114,59.47,114.36,114.36,0,0,1,97.1,54.12,73.5,73.5,0,0,1,90,50.86a23.14,23.14,0,0,1-4.54-3l-1.63-1.48-.78,2.06a37.53,37.53,0,0,1-5.48,9.41,71.16,71.16,0,0,1-7.14,7.85,3.82,3.82,0,0,1-2.69,1.09,4,4,0,0,1-2.64-1,3.87,3.87,0,0,1-1.33-2.62c-.14-1.54-.23-3.19-.23-4.9a34.07,34.07,0,0,1,2.64-14,20.4,20.4,0,0,1,4-5.91,20,20,0,0,1,6.61-4.34l.72-.29.17-.75a13.76,13.76,0,0,1,4.35-6.82c3.44-3.17,8.71-5.85,15-7.71a76.6,76.6,0,0,1,21.22-2.89c13.29,0,27.27,3.2,37.8,10.57a40.3,40.3,0,0,1,12.8,14.27A45.41,45.41,0,0,1,173.86,62c0,.89,0,1.79-.07,2.71Z"/><path class="cls-3" d="M128.73,126.8c2.5-1.73,3.88-5,2.64-9l-5.51-15.86a5.9,5.9,0,0,0-5.69-3.38h-.47a5.9,5.9,0,0,0-5.69,3.38l-5.51,15.86c-1.24,4,.14,7.29,2.64,9a21.36,21.36,0,0,0,8.8,2.12A22.8,22.8,0,0,0,128.73,126.8Z"/><path class="cls-2" d="M128.73,126.8l.57.82a8.22,8.22,0,0,0,3.53-6.91,11.09,11.09,0,0,0-.5-3.22v0l-5.52-15.89v0a6,6,0,0,0-2.72-3,8,8,0,0,0-3.9-1h-.47a8.05,8.05,0,0,0-3.9,1,6,6,0,0,0-2.72,3v0l-5.53,15.89v0a11.09,11.09,0,0,0-.5,3.22,8.22,8.22,0,0,0,3.53,6.91l.2.13c.25.13.65.31,1.21.54a22.83,22.83,0,0,0,7.93,1.63h0a22.29,22.29,0,0,0,6.12-1c.85-.26,1.58-.53,2.12-.75.27-.11.5-.2.67-.29l.24-.11a1.35,1.35,0,0,0,.21-.13l-.57-.82-.57-.82.26.37-.22-.39,0,0,.26.37-.22-.39-.29.13a22.35,22.35,0,0,1-8,1.83v0h0a19.48,19.48,0,0,1-5.58-.93,18.13,18.13,0,0,1-1.89-.68l-.57-.25-.15-.08h0l-.17.28.19-.27h0l-.17.28.19-.27a6.21,6.21,0,0,1-2.67-5.27,8.92,8.92,0,0,1,.42-2.63l-1-.3.94.33L115,102.25l-.95-.33.94.37a4,4,0,0,1,1.83-2,6.07,6.07,0,0,1,2.92-.72h.47a6,6,0,0,1,2.92.72,4,4,0,0,1,1.84,2l.93-.37-1,.33,5.52,15.86.94-.33-1,.3a9.23,9.23,0,0,1,.41,2.63,6.19,6.19,0,0,1-2.67,5.27Z"/><path class="cls-2" d="M135.71,137.64h.79l-.7-.37a.8.8,0,0,0-.09.37h.79l-.7-.37.4.21-.36-.28,0,.07.4.21-.36-.28.12.09-.11-.1h0l.12.09-.11-.1-.09.07a6.62,6.62,0,0,1-1.85.75,34.72,34.72,0,0,1-5.85,1,79.46,79.46,0,0,1-8.12.4,67.47,67.47,0,0,1-11.94-.94,16.45,16.45,0,0,1-3.37-.93,3,3,0,0,1-.6-.35h0l-.29.27.36-.16-.07-.11-.29.27.36-.16-.73.34h.8a.91.91,0,0,0-.07-.34l-.73.34h.8a1.5,1.5,0,0,0-3,0,2.2,2.2,0,0,0,.27,1,3.17,3.17,0,0,0,1.14,1.16,10.52,10.52,0,0,0,2.79,1.12,40.13,40.13,0,0,0,6.31,1.06,80.11,80.11,0,0,0,8.27.4,70.85,70.85,0,0,0,12.49-1,18.71,18.71,0,0,0,4-1.15,5.24,5.24,0,0,0,1.41-.88,2.63,2.63,0,0,0,.57-.72,2.32,2.32,0,0,0,.26-1,1.5,1.5,0,0,0-3,0Z"/><path class="cls-3" d="M204.71,234.21c0,3.77-43.25,3.77-43.25,0,0-6.93,5-16.51,21.63-16.51S204.71,227.28,204.71,234.21Z"/><path class="cls-2" d="M204.71,234.21h-.58l-.75-.55a1,1,0,0,0-.17.55h.92l-.75-.55.36.26-.3-.33-.06.07.36.26-.3-.33h0a2.64,2.64,0,0,1-.65.3,18.73,18.73,0,0,1-3.08.69,120.5,120.5,0,0,1-16.62,1,136.46,136.46,0,0,1-14.69-.7,29.67,29.67,0,0,1-4.65-.83,4,4,0,0,1-1-.4l0,0h0l-.13.16.16-.14,0,0-.13.16.16-.14-.54.49.66-.3a1.32,1.32,0,0,0-.12-.19l-.54.49.66-.3-.89.41h1a.88.88,0,0,0-.08-.41l-.89.41h1a13.74,13.74,0,0,1,4.14-9.78,16.45,16.45,0,0,1,6.11-3.71,32.87,32.87,0,0,1,19.76,0,15.37,15.37,0,0,1,8,6,13.63,13.63,0,0,1,2.22,7.45h3a16.65,16.65,0,0,0-5-11.92,19.6,19.6,0,0,0-7.2-4.4,35.93,35.93,0,0,0-21.78,0,18.48,18.48,0,0,0-9.53,7.23,16.86,16.86,0,0,0-2.71,9.09,2.09,2.09,0,0,0,.42,1.23,2.8,2.8,0,0,0,.7.65,6.14,6.14,0,0,0,1.51.7,23.81,23.81,0,0,0,3.64.79,125.59,125.59,0,0,0,16.86,1,139.07,139.07,0,0,0,15-.72,31.36,31.36,0,0,0,5.16-.94,6.86,6.86,0,0,0,1.76-.75,3,3,0,0,0,.75-.69,2,2,0,0,0,.41-1.23Z"/><path class="cls-3" d="M72.71,234.21c0,3.77-43.25,3.77-43.25,0,0-6.93,5-16.51,21.63-16.51S72.71,227.28,72.71,234.21Z"/><path class="cls-2" d="M72.71,234.21h-.58l-.75-.55a1,1,0,0,0-.17.55h.92l-.75-.55.36.26-.3-.33-.06.07.36.26-.3-.33h0a2.64,2.64,0,0,1-.65.3,18.73,18.73,0,0,1-3.08.69,120.5,120.5,0,0,1-16.62,1,136.46,136.46,0,0,1-14.69-.7,29.67,29.67,0,0,1-4.65-.83,4,4,0,0,1-1-.4l0,0h0l-.13.16.16-.14,0,0-.13.16.16-.14-.54.49.66-.3a1.32,1.32,0,0,0-.12-.19l-.54.49.66-.3-.89.41h1a.88.88,0,0,0-.08-.41l-.89.41h1a13.74,13.74,0,0,1,4.14-9.78,16.45,16.45,0,0,1,6.11-3.71,29.18,29.18,0,0,1,9.88-1.52A29.18,29.18,0,0,1,61,220.72a15.44,15.44,0,0,1,8,6,13.7,13.7,0,0,1,2.21,7.45h3a16.65,16.65,0,0,0-5-11.92,19.6,19.6,0,0,0-7.2-4.4,32.22,32.22,0,0,0-10.89-1.69,32.22,32.22,0,0,0-10.89,1.69,18.48,18.48,0,0,0-9.53,7.23A16.86,16.86,0,0,0,28,234.21a2.09,2.09,0,0,0,.42,1.23,2.8,2.8,0,0,0,.7.65,6.14,6.14,0,0,0,1.51.7,23.81,23.81,0,0,0,3.64.79,125.59,125.59,0,0,0,16.86,1,139.07,139.07,0,0,0,15-.72,31.36,31.36,0,0,0,5.16-.94,6.86,6.86,0,0,0,1.76-.75,3,3,0,0,0,.75-.69,2,2,0,0,0,.41-1.23Z"/><path class="cls-5" d="M180.28,237l-125-.56c-4.77,0-8.79-4.16-9.41-9.68L39,166c-.76-6.69,3.7-12.61,9.47-12.59l139.08.62c5.77,0,10.19,6,9.4,12.67l-7.22,60.79C189.09,233,185.05,237.06,180.28,237Z"/><path class="cls-2" d="M180.6,237v-1.5l-125-.56a7.3,7.3,0,0,1-5.19-2.32,10.32,10.32,0,0,1-2.74-6l-6.87-60.85a11.62,11.62,0,0,1-.07-1.31,10.67,10.67,0,0,1,2.41-6.85,7.33,7.33,0,0,1,5.61-2.76h0l139.08.62a7.36,7.36,0,0,1,5.6,2.78,10.62,10.62,0,0,1,2.4,6.84,12.73,12.73,0,0,1-.08,1.37l-7.22,60.79a10.28,10.28,0,0,1-2.76,6,7.3,7.3,0,0,1-5.19,2.29h0v3h0a10.26,10.26,0,0,0,7.33-3.19,13.23,13.23,0,0,0,3.59-7.73l7.23-60.79h0a14.29,14.29,0,0,0,.1-1.72,13.61,13.61,0,0,0-3.11-8.78,10.35,10.35,0,0,0-7.88-3.84l-139.07-.62h0a10.35,10.35,0,0,0-7.9,3.82,13.63,13.63,0,0,0-3.12,8.79,15.48,15.48,0,0,0,.09,1.65L44.71,227a13.29,13.29,0,0,0,3.57,7.78A10.26,10.26,0,0,0,55.61,238l125,.56h0Z"/><path class="cls-6" d="M125.07,198.39a4,4,0,0,1-.51-2,4.14,4.14,0,0,1,.1-.87,4.37,4.37,0,0,1,2.19-2.82,6.14,6.14,0,0,1,.63-.31,6.85,6.85,0,0,0-4.74-2.27c-1.68-.14-4,.91-5.34.93h0c-1.29,0-3.65-1.07-5.34-.93a7.64,7.64,0,0,0-5.12,2.58,6,6,0,0,0-1.18,2.82,7.62,7.62,0,0,0-.09,1.38,9.89,9.89,0,0,0,.14,1.45,10.32,10.32,0,0,0,1,2.82,12.63,12.63,0,0,0,1.75,2.57c1.43,1.63,3.05,2.57,4,2.59,1.88,0,3.52-1,4.87-1h.12c1.34,0,3,1,4.87,1,.91,0,2.54-1,4-2.59a12.2,12.2,0,0,0,1.74-2.57,3.55,3.55,0,0,0,.21-.44A4.93,4.93,0,0,1,125.07,198.39Z"/><path class="cls-2" d="M125.07,198.39l.87-.48a3.13,3.13,0,0,1-.38-1.48,3.13,3.13,0,0,1,1.79-2.82l.52-.26,1.21-.51-.81-1a6.92,6.92,0,0,0-3.1-2.15,9.14,9.14,0,0,0-2.35-.49l-.4,0a11.67,11.67,0,0,0-2.93.5l-1.24.31a4.84,4.84,0,0,1-.86.13v0h0v0a4.63,4.63,0,0,1-.85-.13c-.55-.12-1.23-.32-2-.49a9.67,9.67,0,0,0-2.22-.32l-.41,0a9.52,9.52,0,0,0-2.55.6,7.63,7.63,0,0,0-3.28,2.36,6.91,6.91,0,0,0-1.38,3.28,8.79,8.79,0,0,0-.1,1.38V197h0a9.45,9.45,0,0,0,.16,1.61h0a11.16,11.16,0,0,0,1,3.09,13.81,13.81,0,0,0,1.88,2.78,11.47,11.47,0,0,0,2.4,2.08,7.22,7.22,0,0,0,1.17.6,3.54,3.54,0,0,0,1.14.25h.11a9.33,9.33,0,0,0,2.84-.53,7.84,7.84,0,0,1,1.88-.44h0l0-1-.06,1h.15l0-1,0,1h.14l0-1,0,1h0a7.84,7.84,0,0,1,1.88.44,9.39,9.39,0,0,0,2.84.53h.11a3.54,3.54,0,0,0,1.15-.25,9.87,9.87,0,0,0,3.56-2.68,13.44,13.44,0,0,0,1.89-2.78h0l.23-.48.48-1.09-1.15-.29a3.89,3.89,0,0,1-2.54-1.89l-.88.48-.88.47a5.89,5.89,0,0,0,3.81,2.88l.24-1-.91-.41c-.06.14-.12.27-.19.4h0a11.12,11.12,0,0,1-1.6,2.36,9.47,9.47,0,0,1-2,1.71,4.88,4.88,0,0,1-.81.42,1.5,1.5,0,0,1-.46.12h-.08a7.85,7.85,0,0,1-2.26-.44,8.75,8.75,0,0,0-2.46-.53h-.15l.05,1,0-1h-.09l0,1,.06-1h-.16a8.82,8.82,0,0,0-2.46.53,7.85,7.85,0,0,1-2.26.44h-.07a1.6,1.6,0,0,1-.47-.12,7.86,7.86,0,0,1-2.77-2.13,11.54,11.54,0,0,1-1.61-2.36,9.24,9.24,0,0,1-.86-2.55h0a7.83,7.83,0,0,1-.13-1.29h0v-.13a7,7,0,0,1,.08-1.07,4.78,4.78,0,0,1,1-2.36,5.54,5.54,0,0,1,2.42-1.72,7.52,7.52,0,0,1,2-.48h.24a10.87,10.87,0,0,1,2.42.43l1.31.33a6.17,6.17,0,0,0,1.27.18h.06a6.17,6.17,0,0,0,1.26-.18c.64-.14,1.32-.34,2-.49a8,8,0,0,1,1.76-.27h.24a7.44,7.44,0,0,1,1.84.39,4.89,4.89,0,0,1,2.2,1.5l.78-.62-.39-.92c-.25.11-.5.23-.73.36a5.42,5.42,0,0,0-2.68,3.48,4.83,4.83,0,0,0-.12,1.08,5.05,5.05,0,0,0,.63,2.43Z"/><path class="cls-6" d="M120.69,188.73a4,4,0,0,0,1.26-3.44,7,7,0,0,0-4,1.59,3.87,3.87,0,0,0-1.26,3.44A6.61,6.61,0,0,0,120.69,188.73Z"/><path class="cls-2" d="M120.69,188.73l.69.72a5.3,5.3,0,0,0,1.32-2,5.14,5.14,0,0,0,.31-1.72,2.12,2.12,0,0,0,0-.44,1.76,1.76,0,0,0-.06-.25l-.1-.21a1,1,0,0,0-.31-.32,1,1,0,0,0-.3-.14,1.72,1.72,0,0,0-.35,0,5.67,5.67,0,0,0-.82.1,8.37,8.37,0,0,0-3.76,1.77,4.83,4.83,0,0,0-1.34,2,5.51,5.51,0,0,0-.32,1.73,2.35,2.35,0,0,0,0,.47,1.85,1.85,0,0,0,.06.26l.1.2a.87.87,0,0,0,.32.34h0a.92.92,0,0,0,.31.14,1.11,1.11,0,0,0,.36,0,4.72,4.72,0,0,0,.83-.09,7.77,7.77,0,0,0,3.75-1.79l-.69-.72L120,188a4.94,4.94,0,0,1-1.86,1,6.1,6.1,0,0,1-.88.23,2,2,0,0,1-.46.06v.44l.06-.43h-.06v.44l.06-.43-.11.82.22-.8-.11,0-.11.82.22-.8-.25.92.53-.79a1,1,0,0,0-.28-.13l-.25.92.53-.79h0l-.53.79.82-.49a1.22,1.22,0,0,0-.29-.3l-.53.79.82-.49-.68.4.76-.2a.85.85,0,0,0-.08-.2l-.68.4.76-.2-.29.08.3,0v0l-.29.08.3,0v-.14a3.3,3.3,0,0,1,.2-1,2.94,2.94,0,0,1,.8-1.21,5.63,5.63,0,0,1,1.92-1.05,5.87,5.87,0,0,1,.89-.23l.3-.05h.13v-.53l-.08.53h.08v-.53l-.08.53.12-.85-.23.82.11,0,.12-.85-.23.82.26-.92-.54.8a1.24,1.24,0,0,0,.28.12l.26-.92-.54.8.54-.8-.82.5a.88.88,0,0,0,.28.29l.54-.79-.82.5.69-.42-.78.21a1,1,0,0,0,.09.21l.69-.42-.78.21.37-.1-.38.06v0l.37-.1-.38.06v.11a3.21,3.21,0,0,1-.2,1A3,3,0,0,1,120,188Z"/></svg>