<?xml version="1.0" encoding="UTF-8"?>
<svg id="_レイヤー_1" data-name="レイヤー_1" xmlns="http://www.w3.org/2000/svg" xmlns:xlink="http://www.w3.org/1999/xlink" viewBox="0 0 660 660">
  <defs>
    <style>
      .cls-1 {
        fill: none;
      }

      .cls-2, .cls-3 {
        fill: #4742c2;
      }

      .cls-3 {
        font-family: Katari-Regular, Katari;
        font-size: 78px;
      }

      .cls-3, .cls-4 {
        stroke: #4742c2;
        stroke-miterlimit: 10;
      }

      .cls-4 {
        stroke-width: 5px;
      }

      .cls-4, .cls-5 {
        fill: #ebebf7;
      }

      .cls-6 {
        fill: #fff;
      }

      .cls-7 {
        clip-path: url(#clippath);
      }
    </style>
    <clipPath id="clippath">
      <circle class="cls-1" cx="165" cy="134" r="100"/>
    </clipPath>
  </defs>
  <g>
    <circle class="cls-5" cx="165" cy="134" r="100"/>
    <g class="cls-7">
      <g>
        <path class="cls-5" d="M152.89,44.62l-7.02,8.57s-7.53,1.56-11.17,6.24c-3.64,4.68-4.16,9.87-4.16,9.87,0,0-8.63.93-7.3,13.84,1.33,12.92,10.42,12.4,17.44,11.88l7.79-.78s14.45,6.47,21.77-4.56l13.34-1.48,9.4,2.21s8.13-10.89,10.39-16.13c2.26-5.24,6.16-16.67-10.47-18.75,0,0-9.35-6.76-16.11-3.12,0,0-15.85-10.65-23.9-7.79Z"/>
        <path class="cls-5" d="M192.98,90.41l2.15,35.48s6.81-7.89,9.32-2.15-3.23,18.28-8.24,15.05c0,0-4.66,12.9,0,23.66,0,0,11.11-20.07,15.41-30.82,4.3-10.75,13.24-48.56-8.24-57.35-.74-.3-10.39,16.13-10.39,16.13Z"/>
        <path class="cls-1" d="M128.45,94.73s5.34.59,8.6,0c0,0,6.22,2.07,10.08-.89,0,0,17.19,8.6,23.12-4.15,0,0,7.71,2.07,13.34-1.48l9.4,2.21s1.57,17.95,1.57,23.88-.89,13.04-.89,13.04c0,0,3.85-7.71,7.71-5.34,3.85,2.37,6.57,14.63-5.16,16.8,0,0-3.43,13.73-2.25,19.07,1.19,5.34,4.74,5.34,4.74,5.34,0,0-6.22,11.86-33.79,32.01,0,0-15.41-11.26-18.38-26.97,0,0-16.6-9.19-21.93-29.35-5.34-20.16,3.85-44.17,3.85-44.17Z"/>
        <path class="cls-5" d="M83.75,252.66s-.88-9.47,1.1-25.24c.75-5.99,2.31-11.38,4.1-20.52,7.74-39.41,32.62-39.99,32.62-39.99,0,0-10.04,17.24,12.71,58.61,22.76,41.37,24.93,60.57,16.31,72.43.21-2.14-20.54-14.44-39.49-20.48-17.63-5.62-30.37-18.28-27.36-24.8Z"/>
        <path class="cls-5" d="M247.63,267.75s25.88-23.72,9.4-67.76c-8.54-22.83-28.96-26.89-28.96-26.89,0,0-8.96,20-26.89,33.1-17.93,13.1-40.57,43.66-41.95,54-.59,4.43-10.78,2.16-11.31,13.12-.3,6.21-2.7,24.61,5.92,24.61,0,0,37.74,8.63,93.8-30.19Z"/>
        <path class="cls-5" d="M223.93,171.03s-13.1,23.44-33.1,39.3c-20,15.86-35.17,46.89-35.17,46.89,0,0-8.27-24.82-20-41.37-5.7-8.05-10.95-20.34-12.62-30.85-1.76-11.09,2.37-20.18,2.37-20.18l-6.08,1.58s-5.77,14.64,11.51,52.9c13.86,30.69,19.45,28.05,22.45,55.04.58,5.19,2.18,11.47,2.7,19.29v-3.23s4.11-10.41,2.05-26.27c0,0,12.11-24.82,24.52-37.93,12.41-13.1,35.86-29.65,45.51-53.1l-4.14-2.07Z"/>
        <g>
          <path class="cls-6" d="M195.46,163.2l-1.74-14.04-5.18,4.96s.03-.06.04-.09c.47-1.02,1.17-1.89,1.75-2.85.24-.4.47-.79.7-1.19.03-.05.05-.09.07-.12,0-.03.01-.08.03-.14.14-.6.25-1.24.45-1.82.23-.68.6-1.32.88-1.98.02-.05.03-.07.04-.1,0-.03.02-.07.04-.16.1-.37.23-.74.34-1.1.05-.17.11-.34.16-.51,0-.36-.03-.72-.04-1.08-.02-.62-.05-1.08.15-1.66.15-.44.34-.87.53-1.29.03-.06.06-.14.09-.23-.11-.31-.1-1.63-.12-1.74-.03-.22,0-.41.08-.58.2-1.14,1.95-1.8,2.72-.52.19.31.4.61.61.9.3.01.6.05.87.12.25-.25.64-.45.91-.64.14-.1.27-.2.41-.3-.14.11-.61.47.07-.05.27-.21.54-.41.81-.62.21-.16.44-.31.64-.48.02-.07.35-.49.43-.59.17-.21.38-.43.54-.66,0-.03.05-.17.12-.37.16-.44.35-.93.57-1.35.25-.47.59-.99.92-1.41.04-.04.06-.07.08-.09,0-.01,0-.02,0-.04.1-.32.2-.65.29-.97.03-.09.1-.38.14-.53-.02-.17-.03-.5-.04-.56-.02-.31-.06-.62-.07-.93,0-.04,0-.06,0-.09,0,0,0,0,0-.01-.23-1.15-.49-2.27-.9-3.38,0,0,0,0,0,0-.06-.13-.14-.26-.21-.38-.12-.21-.27-.45-.39-.68.08-.08.12-.19-.04-.18-.01,0-.04-.01-.05-.01,0,0,0,0,0,0l-.16-.27c-.02.09-.02.16-.02.22-.23-.1-.52-.3-.64-.37-.07,0-.13,0-.19.01-.12.03-.65.12-.9.12-.03.02-.04.02-.08.04-.31.19-.66.35-.98.5-.13.06-.18.08-.2.08-.03.02-.06.06-.14.11-.26.2-.51.42-.76.63-.31.26-.55.49-.8.81-.34.41-.69.82-1.03,1.24.14.38.05.83-.34,1.05-.25.16-.55.25-.84.32-.34.33-.72.38-1.06.24-.16.04-.31.08-.47.11-1.1.21-2.18.42-3.25.75l-1.18.36-.16.05-.17.08c-.46.23-.92.46-1.38.68.02.13.05.26.06.39.1.86.11,1.45-.05,2.3-.07.37-.18.76-.23,1.15.02.03.03.28.04.33.03.23.04.47.06.7.14,1.49-.04,2.98-.71,4.33-.2.39-.42.79-.59,1.19,0,.01-.05.17-.07.24-.07.23-.14.46-.21.69-.24.79-.5,1.38-.93,2.09-.82,1.36-1.77,2.59-2.87,3.74-1.02,1.07-2.71,1.52-4.04,2.16-1.35.65-3.02.35-4.47.16-1.57-.2-2.86-.97-4.16-1.85-.71-.48-1.41-.79-2.2-1.14-.77-.34-1.16-.91-1.71-1.55-1.01-1.19-2.09-2.37-2.86-3.74-.71-1.25-1-2.9-1.45-4.28-.14-.44-.31-.89-.45-1.35-.32-.12-.59-.38-.67-.84-.05-.3-.13-.6-.22-.9-.18-.07-.35-.18-.43-.37-.19-.39-.36-.78-.52-1.18-.08-.21-.16-.41-.25-.62-.39-.1-.77-.2-1.16-.3-.23.5-.47,1.01-.6,1.52-.17.72-.09,1.5-.3,2.22-.38,1.33-.98,2.63-1.46,3.93-.16.43-.31.86-.45,1.3-.06.17-.12.34-.17.52,0,0,0,0,0,0-.04.73.08,1.58-.11,2.29-.1.37-.35.74-.52,1.07-.13.25-.28.73-.49.97-.02.14-.04.28-.06.41-.05.4-.1.8-.15,1.21-.1.76-.21,1.54-.41,2.28,0,.03-.01.04-.02.06,0,0,0,0,0,0-.01.18-.04.36-.05.54.3.08.6.15.89.24.49.15.97.32,1.46.48.17.06.34.11.52.16,0,0,0,0,.01,0,.81-.11,1.77-.07,2.59.03.42.05.85.12,1.27.18.24.03.52.04.75.11.08.02.92.26.3.15,1.64.28.94,2.78-.69,2.5,1.21.21.21.09-.17.06-.28-.02-.55-.1-.82-.15-.4-.08-.81-.16-1.21-.25-.02,0-.04,0-.08,0-.24,0-.48-.03-.73-.04-.45-.03-.91-.03-1.36-.08-.86-.09-1.68-.51-2.5-.76-.65-.2-1.31-.31-1.97-.43-.53-.09-.97-.72-.94-1.24.07-1.63.49-3.16.77-4.75.14-.77.21-1.44.6-2.12.24-.41.47-.83.73-1.22.02-.03.06-.1.09-.16.01-.07.03-.16.03-.19.06-.7.12-1.49.39-2.14.27-.65.58-1.29.86-1.94.28-.64.56-1.27.85-1.9.18-.4.37-.79.55-1.19.08-.17.17-.35.24-.53,0,0,0-.03.01-.1.15-.71.21-1.46.44-2.15.02-.07.06-.13.08-.2l-.1.06s.03-.03.03-.05l-.05.06h-.02c-.11.07-.04.05.01.01l-.2.24c-.16.19-.32.39-.49.58-.1.12-.19.23-.29.35.02.26.04.51.06.77.05.74-.85.87-1.25.43-.03.12-.06.27-.07.35-.03.22-.06.44-.09.67-.05.39-.06.83-.16,1.21-.37,1.39-1.16,2.99-1.82,4.27-.69,1.34-1.58,2.76-2.64,3.83-.53.53-1.26,1.19-1.92,1.56-.35.2-.8.27-1.18.39-.24.07-.47.15-.71.22-.05.02-.26.08-.36.11-.1.04-.33.14-.38.17-.27.12-.55.25-.82.37-.3.14-.6.28-.91.4-.73.28-1.57.69-2.35.76-1.65.15-3.28-.36-4.79-.98-1.51-.63-2.66-1.34-3.78-2.54-1.12-1.19-1.81-2.43-2.5-3.9-.69-1.45-1.26-2.78-1.58-4.37-.34-1.68-.17-3.32-.39-5-.12-.94-.04-1.37.34-2.23.36-.83.4-1.54.58-2.42.15-.73.46-1.44.76-2.13.17-.38.37-.74.56-1.11.12-.24.24-.48.35-.72.05-.11.05-.11.04-.07.69-1.54,1.42-3.18,3.05-3.92.45-.21.93-.37,1.39-.56.05-.02.14-.07.21-.11.13-.08.26-.15.38-.24.77-.53,1.47-.86,2.36-1.12,1.75-.51,3.36-.59,5.15-.37,1.77.21,3.17.8,4.74,1.6.65.33,1.41.57,2.01.98.66.45,1.15,1.32,1.59,1.98.42.61.77,1.27,1.19,1.88.04.05.14.19.17.24.17.22.34.44.5.65.21.27.49.53.66.83.37.66.36,1.53.56,2.27.02.03.13.32.16.38.1.22.2.44.3.66.15.33.4.7.48,1.06.12.5.07,1.05.03,1.58.01-.01.02-.02.03-.04.16-.17.38-.27.58-.39.37-.21.74-.42,1.11-.64.33-.2.58-.38,1-.31.32.06.64.13.95.2.38.08.77.17,1.15.25.15.03.26.1.36.18.13-1.03.35-2.07.72-2.89.32-.73.75-1.49,1.23-2.13.28-.37.6-.72.89-1.08.12-.14.24-.28.35-.43.02-.02.02-.03.04-.06.96-1.3,1.96-2.55,3.34-3.42,1.42-.9,2.87-1.24,4.41-1.87,1.64-.67,3.19-.8,4.93-.34,1.58.41,3.12.46,4.55,1.28.71.41,1.42.81,2.13,1.21,1.05.59,1,.71,1.92,1.52.71.62.9,1.2,1.14,2.09.08.29.16.57.25.85,0,.03.01.04.02.06.2.39.44.76.66,1.13.43.73.74,1.5.97,2.3.39-.2.78-.4,1.18-.59.59-.28,1.26-.42,1.88-.62.52-.16,1.03-.34,1.53-.53.48-.18.96-.38,1.45-.53.32-2.38.25-5.16.33-7.68.06-2.15-.07-4.25.08-6.4.15-2.28.22-4.67.08-6.94-.07-1.13-.07-2.25-.1-3.38-.04-1.53-.2-2.13-.56-3.56-.55-2.18-.71-4.28-.58-6.5-.37-.04-.73-.07-1.1-.12-1.24-.18-2.47-.63-3.7-.93-.97-.24-1.89-.61-2.84-.89-.14.25-.39.45-.78.51-1.43.23-2.64.7-4.12.53-.08,0-.14-.02-.17-.03-.02,0-.04,0-.07.01-.5.07-1,.15-1.5.21-.67.09-1.19,0-1.85-.14-.6-.13-1.2-.26-1.79-.41-.33-.09-.68-.16-1.01-.26-.84.11-1.69.22-2.54.31-1.27.89-3.21,4.24-6.48,4.96-1.43.32-2.58.85-3.99,1.18-.74.18-1.47.49-2.23.57-.68.07-1.42,0-2.11-.01-.76-.01-1.59.08-2.33-.07-.69-.14-1.36-.5-2.02-.72-1.48-.5-2.57-.86-3.89-1.72-.12-.08-.23-.17-.34-.25-.11.1-.25.18-.42.23.33-.11-.4.2-.55.28-.41.2-.81.39-1.24.56-.43.17-.86.34-1.29.51-1.37.54-2.31.78-3.78.69-1.18-.07-2.56-.58-3.51-1.3-.46-.35-.86-.76-1.3-1.13,0,0-.01,0-.02,0-.11-.05-.22-.12-.33-.17-.32-.15-.65-.32-.96-.5-.16-.09-.3-.2-.44-.3-.09.1-.2.22-.33.35q-1.08,1.08-4.69.95c-.17.29-.32.58-.42.87.03-.03-.06.56-.07.64-.05.38-.07.79-.16,1.17-.14.59-.47.98-.81,1.49-.16.24-.33.48-.49.72-.02.15-.04.29-.06.44-.17,1.31-.56,2.4-.87,3.68-.31,1.26-.5,2.61-.73,3.89-.02.08-.02.13-.03.17,0,0,0,.02,0,.06,0,.13,0,.27,0,.4.02.42.01.84,0,1.26-.03.59-.18,1.09-.34,1.66-.05.16-.21.77-.26.89,0,.09-.03.66-.04.8-.03.59-.06,1.17-.04,1.76.05,1.4-.18,2.61-.32,4,.06-.62,0,.64,0,.79-.01.34-.04.69-.03,1.03,0,.62.07,1.24.12,1.85.05.64.14,1.28.22,1.91.01.12.03.24.05.36,0,0,0,0,0,.01.06.39.12.78.17,1.16.1.64.16,1.21.13,1.85-.02.39-.03.78-.06,1.16,0,.06-.01.11-.02.14,0,.03.02.05.03.1.34,1.29.62,2.58.93,3.87.32,1.31.61,2.53.77,3.87.02.14.03.28.05.42,0,.01.02.04.03.1.11.38.21.76.32,1.14.03.13.19.64.18.68.1.22.21.43.31.64.27.56.56,1.09.7,1.69.09.38.12.77.18,1.15.02.14.17.69.09.6.29.56.7,1.07.99,1.63.28.54.48,1.13.73,1.69.49,1.08,1.13,2.05,1.49,3.19.13.4.25.81.39,1.21.05.1.1.2.16.29.3.51.55,1.05.86,1.55.22.35.46.69.7,1.04.06.08.31.44.39.56.13.12.48.48.56.56.25.26.52.51.76.77.75.82,1.46,1.73,2.01,2.69.22.39.43.78.67,1.16.07.07.13.14.2.21.4.41.76.87,1.18,1.26.44.41.91.82,1.39,1.2,0-.02.46.28.55.34.33.2.65.41.98.61,1.02.6,2.06,1.09,3.02,1.78.11.08.71.5.76.57.25.11.53.19.79.28.61.23,1.19.44,1.76.76.37.2.75.41,1.11.64.11.07.16.11.19.13.03.01.04.02.09.04.56.25,1.14.52,1.72.72.58.2,1.22.36,1.83.48-.13-.04.47.03.61.03.39.01.77.02,1.16.04,1.17.05,2.32.12,3.48.27,1.22.16,2.46-.05,3.67.14.44.07.88.18,1.31.28.09.02.22.03.34.06.52-.17,1.58-.53,1.68-.56.68-.16,1.42-.18,2.11-.25.12-.01.19-.02.23-.02,0,0,.04-.01.11-.03.44-.1.87-.18,1.31-.28.57-.12,1.15-.24,1.72-.37.24-.05.48-.1.72-.16.03-.03.43-.17.56-.24,1.1-.54,2-1.31,3.07-1.88.34-.18.73-.35,1.13-.49l-4.39,4.21-14.23,1.36-11.54-2.8-8.8-8.23-14.48,4.83c-3.45,14.48,0,28.27,14.48,54.47,14.48,26.2,17.93,37.92,17.93,37.92,2.07-8.96,18.62-33.79,35.17-46.89,16.55-13.1,33.1-39.3,33.1-39.3-9.65-6.21-28.46-7.84-28.46-7.84Z"/>
          <path class="cls-6" d="M185.77,131.79c-.14.88-.08-.14-.13-.49-.09-.6-.15-1.11-.35-1.67-.16-.45-.34-.94-.55-1.37,0,0-.02-.01-.06-.08-.11-.16-.23-.31-.34-.47-.35-.48-.73-.92-1-1.44-.22-.42-.6-1-.69-1.46,0-.03,0-.04,0-.06l-.09-.06c-.53-.34-1.02-.72-1.57-1.03-.66-.38-1.34-.73-2-1.11-.3-.17-.87-.37-1.14-.62-.81-.08-1.63-.19-2.42-.4-.44-.12-.88-.26-1.32-.38-.1,0-.21,0-.31,0-.42,0-.86-.06-1.29-.05.04.05-.7.26-.86.33-.57.22-1.12.43-1.71.61-.3.09-.61.2-.92.27-.04,0-.1.03-.15.05-.32.17-.62.37-.93.55-.18.1-.36.21-.54.31-.01,0-.01,0-.02.01-.27.22-.52.47-.79.7-.18.16-.37.32-.55.49.38-.34.11-.15,0,0-.29.37-.56.75-.85,1.13-.42.56-.87,1.09-1.32,1.63-.08.1-.17.2-.25.3-.04.07-.1.18-.12.22-.18.43-.46.88-.71,1.27-.02.03-.04.07-.06.12-.03.13-.07.26-.09.38-.08.43-.2.86-.3,1.29-.01.05-.02.07-.03.09-.02.19-.03.38-.05.57-.04.42-.08.83-.11,1.25,0,0,0,.02,0,.02.04.27.07.54.11.81.03.25.07.5.1.75,0,.04.11.7.02.2.08.48-.08.87-.35,1.14.17.59.36,1.18.56,1.76.37,1.1.51,1.44.96,2.45.34.77.63,1.04,1.3,1.92.41.53.08.15.51.66.32.38.64.77.96,1.15.21.25.42.49.62.73.18.22.36.44.55.65.03.04.18.17.18.19.62.4,1.41.58,2.04.98.65.41,1.24.89,1.92,1.25,1.09.58,1.11.64,2.15.79.34.05.69.11,1.04.15,0,0,.01,0,.11,0,.2.01.4.01.59.02,1.22.05,1.21.14,2.18-.26.56-.23,1.12-.45,1.68-.69,1.07-.45,1.13-.48,1.94-1.31.53-.54.66-.71,1.19-1.46.96-1.38,1.36-2.32,1.76-3.78.2-.73.53-1.38.85-2.06.31-.67.25-.68.4-1.65.16-1.11-.24-2.38.01-3.86.08-.47.17-.95.24-1.42Z"/>
          <path class="cls-6" d="M152.48,129.35c-.14-.29-.3-.59-.41-.9-.25-.7-.32-1.46-.5-2.18-.01-.01-.01-.01-.03-.03-.16-.15-.3-.34-.44-.5-.26-.29-.54-.57-.79-.87-.45-.54-.84-1.14-1.29-1.68-.36-.43-1.15-.96-1.41-1.48-.22-.07-.43-.16-.64-.23-.33-.12-.67-.23-1-.37-.34-.14-.67-.32-1-.48-.23-.12-.46-.23-.69-.35-.06-.03-.26-.12-.36-.17-.11-.02-.34-.08-.4-.09-.25-.05-.51-.11-.76-.17-.21-.05-.42-.1-.63-.14-.05-.01-.07-.02-.08-.02-.7-.1-1.43-.21-2.13-.16-.51.03-1.04.12-1.55.2-.24.04-.36.11-.06.02-.17.05-.34.11-.51.17-.28.11-.55.22-.83.31-.04.01-.19.07-.28.11-.09.06-.23.14-.26.16-.21.14-.43.27-.64.4-.66.41-1.34.68-2.06.96-.09.04-.24.12-.38.18-.26.33-.71.64-1.03.9-.06.05-.09.08-.12.1-.09.14-.16.29-.23.43-.2.37-.39.75-.61,1.12-.35.58-.77,1.12-1.09,1.71-.19.36-.35.74-.53,1.11-.08.18-.19.36-.26.54-.02.05.06-.17,0,.13-.16.73-.25,1.45-.56,2.14-.18.41-.33.88-.56,1.27.03.16.04.33.06.49.1.8.16,1.52.13,2.33-.01.27-.03.54-.03.81,0,.29-.03-.16-.01.12.04.47.13.96.21,1.42.13.71.36,1.4.55,2.1.13.47-.01.12.25.63.22.42.43.83.66,1.25.33.61.69,1.21,1.01,1.82.04.07.13.23.15.26.08.08.15.17.23.25.32.34.62.69.94,1.02.51.52,1.14.9,1.66,1.4.14.05.28.12.4.17.45.19.9.4,1.35.59.02,0,.03.01.04.02,0,0,0,0,.05.02.18.06.37.12.55.18.42.14.83.29,1.25.42.03,0,.04.01.05.02,0,0,0,0,0,0,.21.02.42.03.63.04.4.03.81.1,1.21.1.03,0,.06-.02.13-.04.21-.07.43-.14.64-.21.34-.11.69-.22,1.03-.33.08-.03.22-.08.3-.11.23-.1.47-.2.7-.3.33-.14.65-.29.99-.42.39-.14.79-.24,1.19-.36.23-.06.45-.15.68-.2.03,0,.08-.02.14-.04.07-.05.15-.1.19-.13.18-.16.38-.31.57-.46.25-.2.53-.39.76-.62.25-.26.46-.58.69-.87.15-.18.29-.37.44-.55.03-.04.16-.22.19-.25.08-.15.4-.71.51-.92.07-.12.43-.76.43-.73.29-.62.54-1.27.79-1.91.15-.37.28-.75.42-1.12.05-.13.31-.84.33-.78.15-.75.08-1.56.25-2.31.08-.36.23-.71.35-1.06.07-.22.13-.46.22-.68,0-.02.03-.07.05-.13,0-.06,0-.11-.02-.17-.05-.24-.09-.49-.12-.74-.04-.25-.06-.51-.08-.76,0-.08-.06-.51,0-.24-.14-.73.47-1.19,1.03-1.2Z"/>
        </g>
        <g>
          <path class="cls-2" d="M154.31,95.73s.01,0,.02,0c-.06-.03-.11-.05-.14-.05.04.02.08.03.12.05Z"/>
          <path class="cls-2" d="M136.58,72.96s-.02.14.06.33c0,0,0-.02,0-.03-.03-.1-.05-.2-.06-.3Z"/>
          <path class="cls-2" d="M191.92,71.62s.04.08.08.13c0,0,0,0,0,0-.03-.04-.05-.09-.08-.13Z"/>
          <path class="cls-2" d="M204.67,73.44s.03-.07.06-.18c0,0,0,.02-.01.03-.02.05-.03.1-.05.15Z"/>
          <path class="cls-2" d="M202.28,123.81c-.03-.06-.07-.13-.09-.19-.05,0-.11-.02-.18-.05-.01.37.17.34.27.24Z"/>
          <path class="cls-2" d="M134.5,115.06c1.13-.02,2.22-.31,3.25-.74.33-.14.65-.29.98-.43.15.04.48-.1.61-.13.33-.08.65-.15.98-.23,1.08-.26,1.86-1.12,2.56-1.95.02-.02.02-.03.03-.04.22-.16.44-.33.66-.49.37-.27.8-.48,1.14-.79.61-.58,1.18-1.27,1.7-1.94.34-.44.71-.86,1.03-1.32.33-.47.5-1.06.75-1.58.41-.88.67-1.8.95-2.73.27-.89-1.12-1.27-1.39-.38-.12.4-.25.81-.37,1.21-.07.23-.15.46-.21.69,0,.03,0,.04-.01.06-.01.02-.03.05-.05.09-.25.48-.5.95-.76,1.42-.06.11-.13.21-.13.21-.12.12-.24.25-.36.37-.34.34-.67.7-1.02,1.03l-.06.05c.15-.13.01-.01-.06.04-.24.17-.49.35-.73.52-.18.13-.38.25-.55.39-.03.02-.04.04-.05.05-.49.17-.97.33-1.47.48-.8.24-1.46.78-2.13,1.28-.76.02-1.56.03-2.27.25-.54.17-1.04.41-1.57.6-.34.12-.68.15-1.04.2-1.01.14-2.05.33-2.36,1.5-.34,1.26.73,2.33,1.96,2.31Z"/>
          <path class="cls-2" d="M163.83,105.8c.21.24.46.46.69.68.18.18.37.36.55.55.05.05.19.22.21.23.4.61.63,1.36,1.1,1.93.44.52,1.01,1.03,1.52,1.48,1.04.91,2.18,1.8,3.27,2.66,1.22.96,2.89,1.44,4.38,1.78.8.18,1.74.18,2.56.14.41-.02.81-.14,1.19-.26.26-.09.51-.19.77-.29.13-.05,1.03-.32.47-.18,1.38-.35.79-2.48-.59-2.13.49-.12,0,0-.13.02-.29.04-.56.08-.86.12-.35.05-.79.07-1.11.23.07-.03.11-.05.15-.06-.05,0-.11.01-.19.01-.21,0-.41,0-.62-.01-.22,0-.43,0-.65,0-.03,0-.18,0-.3,0-.08-.01-.19-.03-.24-.04-.2-.04-.41-.09-.61-.13-.24-.05-.47-.1-.71-.15-.03,0-.11-.02-.19-.03-.05-.02-.23-.06-.29-.09-.19-.08-.38-.16-.57-.25-.38-.16-.78-.3-1.15-.47.07,0-.46-.33-.6-.42-.36-.24-.71-.49-1.07-.72-.58-.37-1.16-.74-1.75-1.09-.01,0,0,0,0,0-.15-.12-.29-.23-.44-.35-.35-.28-.69-.56-1.03-.84,0,0,0,0,0,0-.11-.17-.22-.33-.33-.5-.24-.37-.47-.77-.72-1.13-.44-.62-1.1-1.08-1.61-1.64-.49-.53-.91-1.13-1.36-1.69-.58-.72-1.58.3-1.02,1.02.43.55.84,1.13,1.31,1.66Z"/>
          <path class="cls-2" d="M155.39,132.48h-.01s.02,0,.03-.01h-.02Z"/>
          <path class="cls-2" d="M143.96,134.09c-.29.1-.59.18-.88.29-.26.09-.73.17-.98.34h-.67c-.38,0-.75-.02-1.13,0-.25,0-.5.03-.75.04-.38.02-.82-.02-1.19.06-.17-.05-.36-.1-.53-.14-.4-.1-.81-.17-1.21-.26-.68-.14-1.34-.32-2-.53-.89-.27-1.25,1.09-.38,1.39.58.19,1.14.39,1.7.64.67.29,1.35.65,2.06.83.36.09.8.06,1.17.07.36.02.73.03,1.09.05.67.04,1.36.1,2.03.08.38-.01.75-.18,1.11-.3.26-.09.52-.16.78-.26.16-.06.96-.35.37-.15.57-.19.94-.76.78-1.37-.15-.55-.8-.97-1.37-.78ZM142.13,134.72c.11-.02.22,0,0,0h0Z"/>
          <path class="cls-2" d="M180.8,134.74c-.22-.38-.61-.47-1.01-.49-.61-.03-1.22.22-1.7.59-.2,0-.41.06-.6.09-.22.03-.44.07-.67.1-.44-.01-.9.09-1.35.14-.08,0-.27,0-.32.01-.07-.02-.14-.04-.21-.05-.85-.22-1.69-.4-2.55-.58l-.47-.1c-.1-.05-.19-.1-.29-.14-.4-.2-.8-.37-1.19-.59-.81-.45-1.52.77-.73,1.24.59.35,1.14.87,1.79,1.1.44.16.88.29,1.31.45.06.02.26.11.3.11.08.04.16.07.23.11.39.18.77.36,1.16.54.42.19.87.18,1.32.22.78.07,1.49.06,2.27.01.47-.03.89-.06,1.32-.3.26-.15.5-.31.73-.51.1-.09.18-.18.27-.28.12-.15.21-.27.29-.44.02-.04.16-.44.02-.07.15-.4.31-.75.07-1.16Z"/>
          <path class="cls-2" d="M147.73,161.39c.31.41.62.82.93,1.22.24.31.52.44.91.37.41-.08.81-.15,1.22-.23.44-.08.83-.11,1.18-.4.38-.32.76-.63,1.15-.93.28-.22.46-.48.66-.77.28-.39.57-.78.84-1.18.19-.28.17-.71,0-.99-.42-.69-.79-1.44-1.32-2.05-.35-.41-.7-.82-1.05-1.23-.33-.38-.74-.5-1.24-.43-.17.02-.34.05-.51.07-.5.07-1,.16-1.5.25-.49.09-.84.6-.88,1.09-.41-.11-.74.14-.88.5-.16.4-.31.8-.47,1.21-.18.46-.42.85-.19,1.33.36.73.64,1.5,1.14,2.14ZM148.6,157.18c.28.22.65.32,1.05.25.45-.08.89-.19,1.33-.29.08.08.16.16.25.24.17.16.34.32.51.48l.21.2.04.06c.13.18.25.35.37.53.09.13.18.25.27.38-.05.08-.09.16-.14.24-.14.25-.35.53-.47.81l-.08.08c-.15.14-.29.28-.44.42-.17.17-.35.32-.53.48-.43.08-.85.17-1.28.25-.12-.16-.25-.32-.37-.48-.14-.18-.27-.35-.41-.53l-.12-.16c.07.09.01.01-.01-.03l-.11-.19c-.12-.2-.23-.4-.35-.6-.11-.19-.21-.38-.32-.57.2-.53.4-1.06.61-1.59Z"/>
          <path class="cls-2" d="M158.6,281.31s0,.01,0,.02c0,0,0,0,0-.01,0,0,0,0,0,0Z"/>
          <path class="cls-2" d="M158.09,212.58c0,.28,0,.53.13.79.27.54.57,1.07.86,1.6.12.23.39.37.65.37.79,0,1.6.04,2.39,0,.4-.02.81-.33,1.17-.49.45-.2.91-.38,1.35-.6.36-.18.46-.51.62-.85.22-.47.45-.94.69-1.41.14-.28.21-.53.18-.86,0-.04,0-.05,0,0,0,0,0,0,0,0l.02.12c.02.11,0,.01,0-.03-.01-.1-.02-.21-.03-.31-.05-.51-.09-1.01-.12-1.52-.03-.54-.25-.98-.56-1.42-.27-.39-.53-.78-.82-1.15-.43-.56-.96-.82-1.66-.68-.38.08-.75.17-1.12.27-.47.13-.97.27-1.38.54-.09.05-.18.12-.25.19,0,0-.02.01-.03.02,0,0,0,0,.01,0-.28.28-.45.67-.42,1.06-.17.13-.34.25-.5.39-.4.34-.57.9-.79,1.37-.1.21-.21.43-.31.64-.14.3-.1.58-.09.89.01.35.02.7.03,1.05ZM159.89,210.6c.1-.19.19-.39.29-.58l.1-.21.15-.12c.11-.09.21-.19.31-.29.02,0,.04.02.07.02h-.08s.09.01.14.02c.02,0,.04,0,.06,0,.55.09,1.13-.06,1.66-.17.09-.02.18-.05.27-.07.05.05.1.1.15.15l.68.63.07.15c.05.1.09.2.14.31.01.03.04.09.06.12l.02.06c.1.25.21.51.31.76-.19.54-.39,1.07-.59,1.6-.58.31-1.16.61-1.75.89-.59,0-1.18-.02-1.77-.02-.19-.36-.37-.72-.56-1.08,0-.53-.02-1.05-.03-1.58.1-.2.2-.4.3-.6Z"/>
          <path class="cls-2" d="M166.11,211.15s0,0,0,0c0,.06.03.19.03.21v-.09s-.02-.02-.02-.05c0-.03,0-.05-.01-.07Z"/>
          <path class="cls-2" d="M157.74,228.23c.16.39.32,1.01.71,1.22.48.25,1.01.44,1.51.66.2.09.41.21.63.21.17,0,.36-.05.53-.07.56-.07,1.11-.11,1.67-.17.43-.04.68-.24,1.04-.47l1.44-.96c.25-.16.43-.33.55-.62.06-.15.12-.31.17-.46.21-.56.41-1.12.62-1.67.04-.1.09-.2.12-.3.08-.29-.01-.56-.08-.83-.15-.58-.25-1.16-.39-1.75-.03-.14-.06-.29-.1-.43-.13-.41-.43-.64-.75-.87-.48-.34-.95-.68-1.45-1-.13-.08-.25-.17-.39-.25-.35-.2-.73-.19-1.11-.21-.63-.02-1.26-.07-1.9-.07-.64,0-1.06.29-1.44.78-.15.2-.31.41-.46.61-.21.28-.43.55-.6.87-.06.11-.12.22-.18.34l-.05.09c-.08.17-.13.25-.16.3-.11.31-.07.69.09,1-.06.13-.12.27-.18.4-.1.24-.12.51-.15.76-.07.51-.19,1.04-.2,1.55,0,.18.06.3.13.46.12.29.24.58.36.87ZM158.91,225.16l.11-.24c.27-.01.52-.09.74-.25-.03.03-.06.06-.09.09.62-.41,1.08-1,1.53-1.59.46-.02.93-.05,1.39-.08.48.25.97.49,1.46.72.11.25.22.51.37.74,0,0,.04.04.07.11l.09.21.15.37c.02.05.04.1.06.15-.17.64-.37,1.28-.56,1.91-.2.16-.41.31-.61.47l-.68.52c-.07.05-.3.18-.38.27l-.11.02c-.26.04-.53.09-.79.13-.29.05-.61.09-.97.14-.46-.2-.92-.4-1.38-.61l-.61-1.43c.07-.55.14-1.11.21-1.66Z"/>
          <path class="cls-2" d="M157.69,223.18c.03-.09.07-.17.13-.25-.12.16-.2.35-.13.25Z"/>
          <path class="cls-2" d="M246.96,184.19s-.11-.07-.19-.11c0,0,0,0,0,.01.06.03.12.06.18.1Z"/>
          <path class="cls-2" d="M264.35,229.81c-.16-2.06-.1-4.11-.31-6.18-.12-1.19-.28-2.37-.46-3.56-.03-.17-.05-.34-.08-.5,0-.08-.06-.49-.07-.58-.07-.61-.1-1.23-.21-1.84-.18-1.04-.49-2.07-.78-3.08-.12-.43-.25-.85-.36-1.28-.09-.36-.17-.72-.25-1.09-.03-.13-.06-.27-.09-.4-.08-1.2-.04-2.11-.61-3.19-.13-.24-.25-.55-.41-.78.06-.51-.03-1.18-.09-1.67-.11-.95-.41-2.03-.89-2.85-.18-.31-.39-.6-.58-.9-.03-.05-.17-.28-.25-.4-.04-.15-.14-.49-.16-.55-.09-.35-.17-.71-.28-1.05-.66-2-2-3.66-2.97-5.51-.19-.37-.4-.67-.66-1-.21-.26-.41-.51-.62-.77-.12-.14-.44-.68-.38-.52-.47-.98-.76-1.84-1.51-2.67-1.37-1.51-2.62-3.22-4.28-4.42-.34-.25-.71-.59-1.1-.83.21.17-.04.2-.09.04-.02-.05-.06-.09-.09-.14-.05-.03-.1-.06-.15-.08.06.03.1.05.14.07-.07-.09-.16-.18-.22-.26-.23-.3-.46-.6-.69-.9-.32-.41-.6-.65-1.05-.9-.3-.17-.6-.34-.9-.51-.11-.06-.24-.12-.35-.19,0,0-.01,0-.02-.01-.01-.01-.02-.02-.03-.03-.83-.76-1.5-1.57-2.38-2.28-.81-.64-1.65-1.32-2.55-1.83-1.83-1.03-3.84-1.73-5.62-2.87-.76-.49-1.38-1.18-2.25-1.46-1.39-.45-1.97-.63-3.29-1.36-.76-.42-1.49-.94-2.3-1.25-.34-.13-.69-.23-1.03-.34-.36-.36-.89-.56-1.37-.45-.32-.1-.64-.2-.95-.31-.68-.24-1.55-.73-2.47-1.09-1.35-.53-1.87-.63-3.01-1.37-.83-.54-1.8-.89-2.77-1.09-.46-.1-.95-.11-1.41-.16-.24-.02-.48-.04-.72-.07-.12-.06-.24-.13-.35-.2-1.13-.7-1.91-.9-3.21-1.06-.75-.09-1.99-.51-2.62-.81-1.08-.51-1.91-.93-3.06-1.22-.95-.23-1.91-.35-2.89-.48-.12-.02-.23,0-.33.03.02-.05.04-.09.06-.14.17-.44.29-.9.44-1.34.04-.13.09-.27.13-.4.02-.03.07-.08.16-.21,1.08-1.41,1.87-3,2.43-4.67.08-.23.17-.46.23-.69.02-.08.03-.12.04-.16.18-.43.38-.86.57-1.29.32-.73.65-1.46,1-2.17.33-.68.73-1.33,1.05-2.01.19-.41.35-.84.52-1.25.09-.23.19-.46.28-.69.21-.52.11-.22.04-.1.39-.77.8-1.54,1.13-2.34.2-.49.39-.98.58-1.47.13-.21.25-.42.37-.63.48-.81.84-1.52,1.09-2.43.08-.27.17-.55.23-.83,0-.03.01-.04.02-.06.24-.35.48-.7.72-1.06.53-.78.76-1.57.94-2.51.02-.1.05-.21.08-.31.03-.07.06-.16.1-.23.26-.46.5-.94.72-1.42.67-1.48.8-3.07,1.21-4.61.41-1.55.92-3.1,1.37-4.64.46-1.6,1.06-3.11,1.06-4.79,0-.26,0-.53,0-.79,0-.08,0-.12,0-.15.09-.49.24-.99.36-1.47.2-.78.59-1.51.79-2.28.2-.79.04-1.65.07-2.47,0-.05,0-.1.02-.15.04-.28.09-.56.14-.84.06-.4.13-.8.19-1.2.43-3.14.86-6.54.44-9.69-.03-.23-.08-.46-.09-.69,0-.02,0,.01-.01.04,0-.03.01-.08.03-.18.08-.52.23-1.03.33-1.55.15-.79-.04-1.58-.13-2.38-.18-1.66-.24-3.2-.63-4.84-1.45-6.08-4.58-12.17-10.09-15.44-.65-.38-1.39-.66-2.08-.98-.13-.06-.25-.07-.36-.07.03-.11.07-.21.11-.32.03-.08.06-.16.09-.25,0,0,0-.05.05-.15.01-.04.03-.08.04-.12,0,.05-.02.06-.02.1.02-.04.03-.08.06-.14.46-.95,1.04-1.87,1.01-2.95-.05-1.72-.12-3.44-.01-5.16.12-1.95-.75-3.61-1.62-5.32-.96-1.88-2.79-2.75-4.5-3.83-.79-.5-1.46.71-.73,1.24.31.23.64.44.94.68.11.08.65.59.65.53.23.34.4.75.61,1.1.11.19.24.44.39.61.03.04.04.04.06.06.5,1.27.78,2.6,1.07,3.93-.28,2.06-.3,4.13-.28,6.21-.24.46-.48.94-.72,1.43,0-.14,0-.27,0-.4,0-.77.08-1.63-.08-2.39-.14-.67-.45-1.31-.61-1.98-.39-1.54-.53-2.62-1.55-3.9-.1-.12-.15-.18-.18-.2-.01-.03-.02-.05-.04-.1-.16-.38-.31-.76-.46-1.14-.29-.72-.64-1.31-1.09-1.95-.73-1.04-1.66-1.84-2.53-2.75-1-1.04-2.12-2.23-3.44-2.86-1.39-.66-2.69-.94-4.19-1.37-.89-.26-1.26,1.11-.38,1.39,1.5.47,2.16.68,3.48,1.38.79.42,1.59,1.69,2.12,2.39.34.46.69.92,1.04,1.36.24.3.49.6.73.9.11.13.22.26.33.4,0,.01.01.03.03.07.18.34.37.68.56,1.01.05.09.3.55.35.6.22.56.36,1.15.59,1.7.26.65.68,1.35,1.1,1.91.03.04.05.06.07.08,0,.03,0,.08,0,.14.01.43.17.9.25,1.32.1.49.24.96.39,1.44.07.24.15.49.22.74-.07-.13.03.68.03.9,0,1.16-.08,2.33,0,3.48.03.41.06.83.12,1.23.02.11.03.23.03.35-.25.72-.51,1.47-.62,2.22-.05.34-.08.69-.12,1.04-.02.13-.08.58-.11.79-.3-1.04-.64-2.07-.84-3.13-.17-.88-.3-1.66-.66-2.48-.2-.45-.4-.9-.59-1.35,0,0,0-.01,0-.02-.1-.27-.21-.54-.32-.81-.33-.83-.66-1.54-1.15-2.29-.14-.21-.26-.47-.43-.67-.05-.05-.06-.07-.09-.09-.19-.45-.33-.92-.51-1.37-.66-1.7-1.46-3.06-2.6-4.47-.03-.03-.06-.09-.1-.14-.06-.1-.13-.2-.18-.3-.26-.46-.53-.94-.84-1.36-.5-.7-1.24-1.19-1.87-1.78,0,0,0,0,0,0-.16-.21-.31-.43-.47-.64-.26-.36-.51-.82-.84-1.13-.3-.29-.73-.49-1.08-.7-.24-.15-.47-.3-.71-.44-.1-.06-.17-.1-.21-.14-1.09-1.07-2.01-2.74-3.42-3.39-.54-.25-1.12-.4-1.67-.64-.28-.12-.15-.08-.15-.07-.24-.14-.46-.32-.69-.48-.81-.56-1.64-1.11-2.46-1.65-1.52-1-3.4-1.28-5.16-1.59-.9-.16-1.29,1.22-.38,1.39.76.14,1.56.22,2.31.42.37.1.73.27,1.09.41.26.1.54.19.79.31.22.1.22.12.18.09,1.51.96,2.16,1.98,3.77,2.84.48.25.99.46,1.48.68.07.03.15.08.18.09.13.13.24.3.36.43.29.34.58.68.86,1.03.02.02.04.06.09.12.18.25.36.49.54.74.51.7.97,1.19,1.68,1.68l.85.59s.02.04.04.08c.15.27.34.53.51.79.45.7.93,1.24,1.52,1.83.18.18.35.36.53.53,0,0,.01,0,.02.02.25.45.49.9.74,1.34.38.66.82,1.4,1.35,1.94.06.06.1.1.12.12.05.11.09.22.14.33.19.46.4.91.57,1.37.58,1.51,1.08,2.78,1.92,4.14-.04-.09,0-.02.08.13.01.02.02.03.03.05-.01-.02-.02-.03-.03-.05.01.03.02.04.03.08.1.25.2.51.29.76.16.42.33.85.5,1.26.14.33.28.67.43,1,.1.24.21.49.31.73.18.44-.03-.02-.03-.02.13,1.77.78,3.49,1.23,5.2.07.28.14.57.22.84,0,.02,0,.02.01.03,0,.55.07,1.1.11,1.64.03.34.04.67.08,1.01.04.33.12.64.19.97.03.14.12.89.12.48,0,1.47,2.22,1.49,2.32.09,0,0,.01-.02.02-.03,0,.11.01.07.02-.03,1.56-2.02,2.66-3.97,3.09-6.5,1.24-1.16,2.46-2.42,3.09-4.03.03.02.04.04.07.05.68.32,1.43.6,2.07.99.35.21.68.49,1.01.73.19.14.38.27.56.41.26.19.1.07.21.16.59.45,1.24.9,1.75,1.43.58.6,1.16,1.41,1.45,1.84,1.87,2.74,2.95,5.58,3.77,8.57.21.78.4,1.55.57,2.34.06.27.12.54.17.81.02.08.03.19.04.22.04.46.04.92.06,1.38.03.8.12,1.59.21,2.38.02.18.05.36.06.54,0,0,0,0,0-.01,0,.03-.01.07-.03.15-.08.49-.22.96-.32,1.45-.17.82.03,1.57.1,2.4.07.77.02,1.56-.03,2.34-.04.73-.14,1.47-.2,2.2-.04.39-.07.79-.1,1.18-.02.23-.04.45-.06.68,0,.08-.01.12-.01.14,0,.02,0,.05-.01.09-.22,1.56-.69,3.16-.72,4.73,0,.45.04.94-.02,1.4-.01.02-.03.05-.06.14-.11.3-.24.59-.35.89-.31.79-.54,1.56-.76,2.38-.21.75-.21,1.49-.24,2.27,0,.16,0,.34-.02.51-.01.02-.03.05-.05.13-.18.51-.37,1.02-.55,1.54-.25.73-.5,1.46-.74,2.19-.1.31-.2.61-.3.92-.08.24-.17.47-.24.71l-.09.27c-.07.2-.03.1.01,0-.58,1.48-1.06,2.95-1.6,4.44-.17.47-.35.94-.53,1.41,0,0-.01.01-.02.03-.14.21-.26.45-.39.67-.46.82-.76,1.56-1,2.46-.06.23-.14.47-.19.71,0,.03,0,.04-.01.06-.27.38-.54.76-.81,1.15-.51.73-.72,1.53-.95,2.39-.03.11-.06.22-.09.33-.02.03-.03.05-.06.09-.3.44-.58.94-.83,1.41-.38.72-.63,1.51-.94,2.26-.02.03-.04.07-.07.13-.12.21-.22.43-.33.65-.22.44-.45.88-.64,1.34-.16.36-.3.73-.45,1.1-.08.2-.16.4-.24.59-.01.02-.03.04-.05.08-.85,1.32-1.45,2.85-2.09,4.28-.36.82-.71,1.63-1,2.49-.07.21-.45,1.15-.34.97-.19.39-.4.77-.6,1.16-.36.7-.86,1.3-1.28,1.96-.31.5-.54,1.09-.72,1.67-.03-.12-.06-.25-.08-.37,0-.03,0-.07.01-.13.04-.58.04-1.19.02-1.77-.01-.34-.09-.6-.2-.92-.1-.3-.31-1.29-.56-1.55.05-.23.08-.48.12-.71.07-.44.23-.93.22-1.37,0-.4-.14-.84-.21-1.23-.04-.26-.09-.52-.13-.78-.03-.16-.04-.29-.04-.32-.02-1.64.19-3.28.39-4.91.16-1.32.27-1.73.63-3.07.13-.47.24-.94.35-1.41.19.03.39.05.6.07.71.08,1.38.23,2.04-.12.64-.34,1.25-.95,1.82-1.4,1.18-.93,2.18-1.81,3.03-3.06.35-.52.54-1.09.77-1.69.08-.21.55-1.09.19-.49.21-.34.42-.68.63-1.02,1.45-2.36,1.19-5,.26-7.51-.46-1.23-1.07-2.54-1.87-3.59-.91-1.2-2.43-1.48-3.84-1.28-1.66.23-3,1.22-4.19,2.41,0-.92-.06-1.84-.02-2.77.1-2.4-.14-4.78-.06-7.17.08-2.31-.16-4.65-.38-6.95-.06-.56-.16-1.12-.25-1.68-.1-.64-.11-.83-.18-1.71-.08-1.05-.12-2.16-.33-3.19-.24-1.16-.76-2.93-.88-3.75-.19-1.28-.17-2.47-.1-3.73.05,0,.09.01.11.01.18.02,1.28.14.87.05,1.38.29,2.09-1.42,1.33-2.2,0-.12,0-.25-.03-.39.11.48.06-.11.05-.29-.02-.36-.09-.72-.16-1.08-.09-.47-.2-.89-.41-1.32-.38-.8-.76-1.59-1.28-2.31-.57-.78-1.04-1.49-1.49-2.34-.09-.17-.18-.34-.27-.51-.02-.06-.05-.13-.07-.22-.16-.52-.32-1.07-.52-1.58-.33-.85-.95-1.63-1.49-2.36-.31-.41-.64-.8-.96-1.2-.09-.11-.19-.23-.28-.34-.06-.11-.13-.21-.19-.33-.92-1.7-2.01-3.27-3.22-4.77-.04-.05-.14-.2-.2-.29-.05-.11-.12-.26-.14-.3-.21-.46-.43-.98-.7-1.4-.46-.72-1.12-1.34-1.67-1.98-.36-.41-.71-.83-1.08-1.23-.05-.06-.17-.19-.23-.26-.1-.13-.19-.27-.29-.4-.57-.79-1.14-1.56-1.78-2.3-1.14-1.33-2.53-2.31-3.8-3.5-1.28-1.19-2.33-2.53-3.84-3.48-.28-.18-.57-.37-.85-.54-.1-.06-.2-.12-.29-.18,0,0,0,0,0,0-.47-.37-.92-.78-1.36-1.18-.64-.58-1.22-1.24-1.89-1.78-1.74-1.4-3.31-2.21-4.9-3.58-.7-.6-1.72.41-1.02,1.02.6.52,1.19,1.1,1.84,1.55.88.6,1.55.88,2.19,1.46,1.35,1.21,2.41,2.68,3.73,3.92,1.17,1.1,2.38,1.98,3.44,3.22,1.19,1.4,2.49,2.66,3.73,4.01.04.05.23.27.3.34.05.07.11.15.16.22.31.42.64.83.94,1.25.51.71.94,1.47,1.48,2.16.53.67,1.08,1.33,1.64,1.98.27.32.58.65.84.99.01.04.03.09.07.19.12.34.33.69.49,1.02.42.87,1.06,1.58,1.65,2.35.3.38.02.04,0,.01.12.2.25.39.37.59.24.38.48.75.72,1.13.46.76.85,1.56,1.4,2.26.34.43.68.86,1.03,1.28.3.37.03.04,0,0,.15.23.31.46.46.69.17.25.32.57.53.79.02.02.03.03.04.04,0,0,0,0,0,0,.15.57.35,1.16.56,1.71.31.85.77,1.73,1.26,2.49.57.87,1.19,1.61,1.67,2.54.12.24.26.48.38.72,0,.05.02.13.05.26.01.06.03.11.05.17-.13-.03-.26-.06-.4-.08-.96-.14-1.86-.46-2.8-.71-1.15-.31-2.23-.65-3.36-1.02-.4-.13-.81-.23-1.22-.34-.28-.07-.55-.14-.83-.21-.11-.06-.22-.11-.32-.17-.28-.14-.55-.31-.84-.44-.09-.04-.18-.09-.26-.14-.44-.38-.86-.8-1.32-1.16-.47-.36-.99-.56-1.54-.8-.15-.07-.3-.13-.45-.2.09.02-.32-.26-.48-.43-.86-.91-1.73-1.55-2.79-2.21-.02-.02-.03-.04-.06-.07-.2-.24-.46-.45-.68-.68-.39-.38-.78-.72-1.21-1.05-.27-.21-.54-.42-.83-.62-.16-.38-.83-1.34-.92-1.49-.54-.82-1.37-1.4-2.01-2.13-.24-.27-.46-.56-.69-.84-.04-.04-.2-.26-.3-.37-.09-.15-.28-.45-.31-.5-.2-.32-.4-.64-.61-.96-.5-.77-1.04-1.52-1.49-2.32-.54-.98-1.07-1.96-1.55-2.97-.18-.38-.35-.77-.52-1.15-.11-.26-.23-.51-.34-.77-.05-.13-.1-.26-.15-.39-.42-1.08-.72-2.18-1.11-3.26-.15-.42-.37-.79-.58-1.19-.16-.29-.34-.58-.48-.88,0,0,0-.02-.01-.02-.04-.13-.08-.27-.11-.4-.15-.57-.29-1.17-.51-1.71-.24-.58-.66-1.13-.86-1.73.03.03-.07-.6-.08-.67-.06-.37-.1-.76-.18-1.13-.11-.55-.29-1.08-.45-1.61-.62-2.15-1.23-4.3-1.63-6.5-.17-.91-1.55-.52-1.39.38.37,2.04.92,4.01,1.47,6.01.36,1.33.55,1.91.68,3.17.11,1.05.61,1.81.91,2.81.33,1.1.43,2.1.88,3.17.38.9.48,1.84.75,2.78.58,2.06,1.42,4.09,2.31,6.04.85,1.86,1.88,3.73,3,5.45.63.96,1.39,1.85,2.18,2.68.19.2.39.4.58.61.01.03.03.07.05.12.26.6.64,1.38,1.1,1.86.71.74,1.63,1.27,2.36,2.02.78.81,1.64,1.3,2.53,1.95-.17-.11.26.28.37.39.25.26.49.54.75.79.39.38.76.58,1.26.8.31.14.64.33.97.42.05.01.08.02.1.02.02.02.02.02.04.04.36.33.73.67,1.11.98-.16-.02-.31-.04-.47-.05-.42-.04-.77-.04-1.2,0-.34.02-.76,0-1.09.09-.06.02-.1.03-.13.04-.03-.01-.05-.02-.09-.03-1.11-.35-2.34-.63-3.47-.88-.49-.11-.96-.13-1.47-.15-.15,0-.53.06-.55.15,0,0-1.52-.64-1.91-.86-.55-.31-1.02-.76-1.57-1.08-.46-.27-.99-.45-1.48-.65-.13-.05-.35-.18-.55-.27-.1-.08-.2-.15-.28-.22-1.61-1.38-3.29-2.65-4.95-3.96-.37-.29-.74-.58-1.09-.9-.26-.24-.51-.5-.76-.75-.22-.22-.65-.87-.33-.26-.59-1.09-.97-2.03-1.73-3.02-.6-.78-.9-1.69-1.43-2.51-.31-.49-.69-.93-1.02-1.41-.03-.07-.09-.2-.13-.34-.11-.4-.22-.79-.34-1.18-.62-2.06-1.12-4.11-1.63-6.2-.22-.93-.34-1.9-.49-2.85-.06-.36-.11-.72-.17-1.08-.01-.08-.02-.13-.03-.16,0-.02,0-.04,0-.07-.03-.35-.07-.71-.1-1.06-.01-.13-.06-.73-.09-.68.06-.62.3-1.23.37-1.85.07-.66-.05-1.31-.1-1.97-.11-1.37-.04-2.27.36-3.29.43-1.1.58-2.18.82-3.35.26-1.28.62-2.45,1.05-3.69.31-.88-1.08-1.25-1.39-.38-.35.99-.65,1.95-.88,2.96-.15-.47-.75-.8-1.18-.33-1.76,1.93-3.79,3.79-5.07,6.08-.15.28-.25.39-.27.41-.27.27-.61.49-.91.73-.65.52-.84.84-1.2,1.6-.37.79-.32.8-.87,1.35-.52.52-.96.93-1.29,1.58-.57,1.11-1.27,2.16-1.83,3.27-.61,1.21-1.01,2.53-1.57,3.77-.01,0-.3.6-.36.71-.17.34-.36.67-.49,1.02-.25.63-.39,1.32-.53,1.99-.26,1.22-.41,2.44-.16,3.66.04.19.06.43.09.67.05-.07.2.08.12.18-.02.03-.04.07-.05.12.02.08.04.15.08.22-.04-.08-.06-.13-.08-.19-.03.15-.05.35-.07.44-.15.69-.32,1.28-.2,1.97.21,1.23.6,2.56.95,3.75.36,1.25.91,2.43,1.29,3.67.2.64.2,1.37.45,1.99.28.7.95,1.26,1.41,1.85.07.09.11.13.13.15,0,.02.03.07.1.19.21.39.43.77.65,1.15.32.58.68,1.14,1.03,1.7.65,1.04,1.67,1.78,2.53,2.65.15.16.32.29.48.44-.11.02-.21.03-.32.05-.42.08-.82.18-1.23.29-.53.14-1.06.29-1.58.45-.22.07-.45.13-.67.2-.08,0-.17-.01-.25-.02-.32-.05-.65-.05-.97-.08-.06,0-.17-.02-.28-.04-.02,0-.04-.02-.06-.03-.33-.18-.72-.41-1.08-.51-.06-.02-.1-.03-.13-.03-.17-.14-.33-.29-.49-.44-.39-.34-.77-.73-1.2-1.02-.44-.29-.99-.59-1.48-.78-.03-.01-.04-.01-.06-.02-.17-.22-.37-.43-.55-.64-.17-.19-.34-.39-.5-.59,0-.03-.02-.08-.03-.14-.13-.5-.46-1.07-.71-1.52-.2-.37-.45-.73-.68-1.09-.08-.12-.15-.24-.23-.37.02-.01-.16-.46-.21-.63-.07-.27-.13-.54-.22-.81-.03-.1-.05-.17-.07-.21-.05-.54-.05-1.09-.1-1.63-.04-.49-.18-.84-.36-1.29-.11-.26-.2-.54-.33-.79-.05-.1-.08-.2-.13-.3,0-.02-.01-.02-.02-.03-.13-.99-.13-1.93-.03-2.92.1-1.01-.09-1.91-.14-2.92-.04-.83.07-1.69.16-2.52.05-.5.1-1,.17-1.49.01-.05.03-.14.06-.28.08-.37.14-.73.21-1.1.17-.87.53-1.69.82-2.53.29-.86.59-1.71.86-2.57.1-.32.2-.63.29-.95.05-.17.07-.26.09-.3.22-.54.46-1.07.7-1.6.2-.45.41-.9.62-1.35.36-.76.16-.51.79-1.07.84-.75,1.62-1.54,2.41-2.34.37-.38.76-.76,1.11-1.16l.27-.28s0,0,.01-.02c.29-.13.59-.23.88-.35,1.04-.41,1.86-.97,2.79-1.6.76-.52.05-1.76-.73-1.24-1.09.73-1.61,1.12-2.69,1.54-1.11.43-1.64,1.01-2.49,1.87-.7.71-1.41,1.4-1.99,1.77-1.09.71-1.67,1.22-2.39,2.3-.53.79-1.14,1.58-1.56,2.44-.26.52-.43,1.1-.64,1.64-.02.06-.15.39-.19.49,0,0,0,.02-.01.03-.09.2-.18.41-.27.61-.5,1.1-.97,2.16-1.36,3.25-.23-.4-.92-.58-1.3-.08-.73.97-1.2,1.61-1.91,2.27-.36.33-.87.66-1.14,1.08-.3.47-.41,1.17-.58,1.7-.3.9-.76,1.81-.98,2.73-.25,1.09-.14,2.14-.29,2.96-.21,1.14-.46,2.28-.61,3.43-.13.92.08,1.92.27,2.83.23,1.09.43,2.22.71,3.29.31,1.2.64,1.98,1.47,2.87.76.82,1.47,1.68,2.3,2.42.12.1.23.21.34.31-.43.88-.71,1.67-.83,2.79-.05.53-.37.86-.84,1.54-.38.55-.5.83-.58,1.49-.35,2.6-1.57,5.01-2.12,7.58-.15.67-.15,1.39-.21,2.08,0,.08,0,.14,0,.17-.01.02-.03.06-.06.16-.15.44-.29.88-.42,1.32-.34,1.19-.38,2.48-.38,3.71,0,.39,0,.79,0,1.18,0,.04,0,.06,0,.08-.02.16-.06.31-.08.47-.11.63-.25,1.26-.3,1.9-.13,1.37-.13,2.76-.02,4.13.11,1.43.37,2.84.55,4.26,0,.05.01.08.02.11,0,.02-.02.06-.03.18-.04.38-.05.78-.07,1.16-.04.64.02,1.12.18,1.74.31,1.21.55,2.43.85,3.65.1.42.21.84.32,1.26.04.17.09.34.13.51.01.05.02.08.03.1.09.62.12,1.24.22,1.86.23,1.44.74,2.73,1.36,4.04.08.17.21.62.21.55.04.24.08.49.12.73.12.75.21,1.28.58,1.93.65,1.14,1.16,2.24,1.72,3.42.27.56.61,1.09.89,1.65,0,.06.17.5.2.59.13.42.25.84.4,1.26.88,2.38,2.59,4.16,4.19,6.04.39.46.77.95,1.12,1.44,0,0,0,.02.04.09.07.14.15.28.23.41.18.33.36.66.54.99-1,.37-2.02.76-3.02.95-.88.16-1.63.23-2.46.57-.79.33-1.55.6-2.37.84-.82.24-1.6.38-2.44.52-.87.14-1.61.55-2.42.87-1.42.56-2.88,1.06-4.32,1.55-1.65.57-3.5.97-4.88,2.07-.36.28-.7.6-1.08.86,0,0-.03,0-.14.05-.29.13-.57.28-.86.42-.79.39-1.53.83-2.29,1.28-2.84,1.69-5.69,3.27-8.21,5.43-1.38,1.18-2.56,2.51-3.77,3.86-.54.61-1.09,1.24-1.57,1.9-.54.73-.78,1.68-1.12,2.52.02-.06.11-.25-.04.1-.11.26-.23.52-.34.78-.14.33-.28.66-.45.98-.43.77-.97,1.44-1.29,2.27-.31.81-.6,1.6-.82,2.44-.07.28-.16.57-.22.85-.01.07-.07.29-.08.36-.17.41-.38.81-.56,1.2-.78,1.67-1.09,3.22-1.34,5.01,0-.04,0-.03-.04.21-.04.24-.08.48-.12.72-.06.38-.11.77-.21,1.14-.21.79-.51,1.56-.76,2.34-.3.92-.57,1.66-.53,2.63,0,.15-.04,1,.02,1.28-.12.22-.22.47-.33.69-.44.91-.57,1.5-.55,2.52,0,.28.01.55.02.83,0,.04,0,.07,0,.1,0,0,0,0,0,0-.11.53-.29,1.05-.42,1.58-.2.78-.36,1.58-.48,2.38-.05.37-.07.74-.1,1.11-.02.29-.04.59-.06.88,0,.15-.02.24-.02.28-.34,1.67-.84,3.26-.89,4.98,0,.3-.02.6-.03.9,0,.06,0,.29,0,.41-.02.11-.04.33-.05.39-.05.33-.11.67-.16,1-.14.87-.19,1.74-.22,2.62,0,.1,0,.16,0,.19-.03.21-.08.42-.12.63-.08.43-.17.86-.24,1.3-.12.81-.19,1.63-.26,2.44-.07.83-.12,1.67-.16,2.51-.02.51-.03,1.01-.07,1.52,0,.01,0,.02,0,.03,0,.02,0,.04-.01.07-.06.31-.13.62-.19.93-.35,1.73-.42,3.51-.55,5.27-.11,1.49-.33,3.04-.27,4.53.03.86.23,1.67.13,2.52-.06.44-.09.9-.16,1.34-.02.04-.08.24-.12.34-.1.28-.17.57-.26.86-.31,1.03-.16,1.76.03,2.81.03.17.06.33.09.5,0,.05.01.13.02.21.05.56.06,1.14.14,1.7.13.91.81,1.59,1.27,2.37.42.72.71,1.52,1.19,2.19,1,1.41,2.14,2.27,3.53,3.28.42.31.86.6,1.28.92.01.01.03.02.05.05.23.19.44.4.66.6.65.59,1.28,1.19,1.91,1.8.7.69,1.55.93,2.45,1.3.06.02.2.1.28.14.11.07.22.14.33.22.41.29.84.6,1.28.85.64.36,1.36.6,1.99.98.76.45,1.41,1.03,2.25,1.33.48.18.98.31,1.46.51.01,0,.02,0,.03.01,0,0,.02.02.06.05.25.17.49.36.73.53.78.57,1.45.87,2.35,1.21.19.07.39.14.58.22.01.01.05.05.16.13.42.32.89.66,1.35.92.74.41,1.62.51,2.42.78.34.11.67.26,1,.39.25.1.51.18.75.3.02,0,.02.01.04.02,0,0,.03.04.12.1.7.5,1.38.99,2.16,1.36.84.39,1.58.73,2.48.94.28.07.56.14.84.2.08.02.12.03.15.03.48.28.91.67,1.38.97.76.48,1.65.46,2.51.7.31.08.59.21.89.33.24.1.47.2.71.29.04.02.07.03.1.04.41.55,1.55,1.22,2.11,1.49.39.19.81.33,1.21.5.19.08.38.15.57.23.03.02.11.06.27.16,1.52.89,3.15,1.55,4.81,2.13.23.08.47.15.69.24.02.02.05.04.1.07.47.32.96.62,1.45.91.64.39,1.28.81,1.95,1.13.37.18.78.29,1.18.42.26.09.54.22.82.27.45.56,1.38,1.11,1.97,1.48,1.49.95,3.05,1.82,4.61,2.65.17.09.35.18.52.28.03.02.06.04.09.07.42.34.84.69,1.25,1.04.56.48,1.21.95,1.72,1.49.82.89,2.14-.44,1.32-1.32-.52-.56-.85-1.27-1.4-1.81-.6-.59-1.3-1.18-2.02-1.61-1.49-.89-3.01-1.71-4.49-2.63-.2-.12-.39-.24-.59-.36-.03-.02.01.02.05.04-.02-.02-.03-.02-.08-.06-.45-.35-.87-.75-1.34-1.09-.76-.55-1.65-.69-2.51-1.02,0,0-.01,0-.02-.01-.22-.12-.44-.25-.67-.38-.35-.2-.71-.4-1.06-.61-.73-.43-1.41-.96-2.2-1.26-.78-.3-1.59-.52-2.36-.85-.42-.18-.85-.34-1.27-.53,0,0-.04-.03-.17-.1-.28-.16-.58-.31-.87-.46-.79-.42-1.6-.74-2.43-1.07-.1-.04-.21-.08-.32-.12-.02-.03-.14-.13-.22-.2-.37-.34-.82-.67-1.24-.94-.67-.43-1.55-.76-2.31-1-.33-.1-.68-.15-1.02-.22-.29-.06-.57-.12-.86-.17-.09-.01-.14-.02-.17-.03-.75-.42-1.32-1.08-2.16-1.32-.53-.15-1.07-.25-1.6-.38-.13-.03-.16-.03-.16-.03-.22-.09-.43-.2-.65-.3-.83-.39-1.51-.8-2.27-1.32-.74-.51-1.54-.79-2.38-1.1-.75-.28-1.56-.4-2.3-.69-.02-.01-.05-.04-.16-.12-.2-.14-.4-.27-.61-.41-.39-.26-.75-.52-1.17-.71-.39-.18-.81-.31-1.21-.46-.19-.07-.4-.13-.59-.22,0-.01-.09-.08-.24-.21-.71-.59-1.41-1.02-2.27-1.32-.38-.13-.8-.24-1.18-.4-.04-.03-.21-.14-.28-.2-.27-.2-.56-.37-.83-.55-.71-.47-1.48-.77-2.24-1.17-.68-.36-1.27-.88-1.95-1.24-.32-.17-.69-.28-1.03-.42-.27-.11-.55-.23-.83-.33-.02,0-.03-.01-.05-.02-.31-.57-1.17-1.13-1.65-1.58-.64-.59-1.27-1.16-1.98-1.67-.71-.51-1.41-1.02-2.12-1.54-.22-.16-.46-.31-.66-.48-.02-.01-.02-.02-.04-.03.02,0,.01,0-.04-.07-.35-.42-.68-.85-1.01-1.28-.26-.35-.07-.11-.08-.13-.11-.21-.21-.41-.31-.62-.2-.39-.38-.8-.6-1.18-.22-.38-.48-.75-.72-1.12-.06-.1-.2-.41-.31-.51,0-.86-.13-1.75-.28-2.59-.04-.22-.06-.94-.18-1.32.13-.29.19-.64.29-.94.27-.87.36-1.72.48-2.62.11-.85-.09-1.66-.12-2.52-.06-1.49.16-3.04.28-4.53.06-.83.13-1.67.2-2.5.04-.47.07-.94.12-1.41,0-.03.02-.09.04-.18.07-.32.13-.65.2-.97.34-1.69.28-3.44.41-5.15.02-.28.05-.55.08-.82.03-.3.06-.59.09-.89,0-.08.05-.37.05-.45.13-.78.32-1.55.39-2.33.04-.5.06-1.01.08-1.52,0-.06.02-.28.02-.36.02-.15.05-.3.07-.45.14-.89.26-1.75.29-2.65,0-.29.02-.57.02-.86,0-.14,0-.19,0-.21.05-.49.15-.99.24-1.48.14-.81.41-1.59.56-2.4.07-.35.08-.7.11-1.06.02-.26.03-.51.05-.77,0-.06.03-.39.03-.52.02-.11.06-.34.07-.4.06-.29.12-.58.18-.88.06-.3.12-.6.2-.89.22-.86.54-1.66.55-2.55,0-.3.13-1.13,0-1.46.12-.2.21-.44.31-.64.43-.87.64-1.43.61-2.4-.01-.36-.05-.74-.04-1.1.02-.06.07-.26.1-.34.12-.31.21-.64.32-.95.53-1.57,1.01-3.06,1.27-4.7.06-.36.1-.72.15-1.08.04-.31.08-.63.13-.94l.04-.28c.07-.32-.07.29.01.07.16-.46.33-.92.5-1.38.02-.06.1-.26.13-.37.06-.12.19-.41.22-.47.75-1.59,1.11-3.25,1.73-4.89.07-.19.13-.39.21-.57.02-.02.05-.06.12-.16.31-.44.61-.92.88-1.39.36-.65.64-1.37.93-2.06.18-.43.35-.86.52-1.29.08-.21.18-.42.25-.64.58-.42,1.05-1.32,1.54-1.86,1.2-1.31,2.34-2.63,3.69-3.79.62-.54,1.26-1.08,1.93-1.58.02,0,.05-.03.12-.07.23-.15.46-.3.69-.45.31-.2.62-.41.93-.6,1.42-.9,2.87-1.73,4.3-2.6,1.51-.93,3.04-1.63,4.42-2.76.1-.08.24-.17.35-.28.52-.15,1.04-.42,1.54-.62.54-.21,1.08-.4,1.62-.6,0,1.8.07,3.57.15,5.38.09,2.24,0,4.49.21,6.72.22,2.28.42,4.55.73,6.82.14,1.03.56,2.42.63,3.08.15,1.29.25,2.42.58,3.69.56,2.11,1.01,4.3,1.68,6.38.35,1.07.76,2.1,1.22,3.13.45.98.43,1.9.9,3.06.24.59.67,1.1.92,1.68.01.03.02.05.03.06.05.13.08.29.11.43.1.4.2.8.31,1.19.3,1.01.86,2.02,1.03,2.78.12.55.19,1.21.44,1.72.29.59.87,1.06,1.22,1.63.07.12.42,1.11.58,1.57.18.52.33,1.05.49,1.57.3,1.01,1.27,2.03,1.57,2.61.29.56.41,1.21.68,1.78.25.54.62,1.02.94,1.52,1.32,2.02,1.37,3.98,2.8,6.06.27.39.58.74.88,1.1.18.21.36.42.53.64-.09-.08.12.33.22.62.41,1.23.96,2.07,1.65,3.18,1.14,1.85,2.12,3.79,3.28,5.63,1.22,1.95,2.28,3.9,3.37,5.92,1.15,2.12,2.36,4.41,2.91,6.47.59,2.25.8,4.41,1.8,6.55.07.15.1.24.12.29.03.29.06.57.09.86.06.53.11,1.06.21,1.59.23,1.25.62,2.44.89,3.68,0,.02.03.15.06.5.03.38.06.76.09,1.14.05.55.11,1.09.18,1.64.13,1.1.35,2.18.7,3.24.05.15.11.29.16.43-.38-.13-.78-.23-1.13-.32-.87-.22-1.77-.34-2.64-.55-.03,0-.06-.01-.09-.02.33-.88-.34-2.1-1.5-1.74-.66.2-1.35.33-2.02.49-1.01.24-1.4,1.65-.62,2.37.94.86,1.67,1.44,2.9,1.81,1.01.31,2.05.45,3.06.73.93.27,1.75.64,2.7.77.08.78.26,1.55.45,2.32.16.64.45,1.27.57,1.92.02.11.02,1.3.03,1.79.02,1.01.09,2.02.1,3.03.01,1.19.15,2.41.12,3.6-.02.6-.19,1.2-.18,1.8,0,.07,0,.11,0,.15-.02.02-.04.05-.06.1-.18.34-.31.73-.46,1.08-.44,1.04-.47,2.04-.57,3.17-.08.92,1.36.92,1.44,0,.05-.62.16-1.26.16-1.89,0-.04,0-.06,0-.08.01-.02.03-.04.05-.08.2-.37.34-.8.51-1.19.41-.97.52-2.02.56-3.08.07-2.22-.16-4.48-.2-6.7-.02-1.4-.18-2.38-.55-3.73-.2-.74-.35-1.42-.44-2.05.74.06,1.48.12,2.22.21.02,0,.02,0,.03,0,.02.01.04.02.09.04.28.12.62.17.92.25,0,0,0,0,0,0-.01.3,0,.59.05.92.06.39.11.78.19,1.17,0,.05.01.08.02.12.01-.04.03-.09.05-.14-.02.04-.03.1-.05.15.05.35-.05.23,0,.01-.2.53-.22,1.35-.28,1.87-.13,1.02-.13,2.07-.1,3.09.04,1.33-.07,1.94-.34,3.36-.18.92,1.23,1.32,1.41.39.22-1.13.42-2.22.54-3.36.05-.47.1-.93.15-1.4.04-.37.08-.74.12-1.12.02-.14.03-.29.05-.43.05-.35,0,0,.02-.09.27-1.26.53-2.17.42-3.45-.02-.24-.06-.5-.07-.75,0,0,0,0,0,0,.31.01.62.03.93.04.08.01.34.04.47.07.4.09.81.18,1.22.26,1,.2,2.04.21,3.06.26.59.03,1.2.07,1.79.07.06.01.11.02.17.03.37.08.74.15,1.12.22,1.03.21,2.1.34,3.15.43.58.05,1.17.09,1.75.1.03,0,.05,0,.07,0,0,0,0,0,.02,0,.29.12.66.15.96.23.5.12,1,.28,1.52.26.63-.02,1.25-.21,1.87-.23.85-.03,1.73.16,2.59.21,1.2.07,2.39.24,3.59.3.44.02.84-.03,1.27-.11.35-.06.71-.13,1.06-.2.07-.01.14-.03.21-.04,1.08.24,2.28.19,3.38.17.36,0,2.5-.11,3.14-.33.33.06.66.13.98.19.58.11,1.08.16,1.67.01.54-.14,1.09-.29,1.61-.47.07,0,.13,0,.2,0,.41.02.83,0,1.25,0,2.06,0,4.1-.25,6.15-.23,1.05.01,1.92-.33,2.9-.62.07,0,.22-.03.4-.02.34.01.69,0,1.04.01.57,0,1.1-.07,1.67-.16.33-.05.67-.1,1-.16.06,0,.11-.02.17-.03.64-.05,1.28-.11,1.91-.19,1-.12,2.02-.36,2.99-.65.32-.1.65-.2.97-.3.11-.03.49-.15.57-.19.53-.07,1.09-.09,1.62-.15.99-.11,1.91-.52,2.86-.8,1.11-.33,2.22-.64,3.32-.98.41-.13.79-.27,1.17-.46.31-.16.61-.33.91-.5.06-.03.38-.2.54-.29.14-.05.39-.14.44-.15.35-.12.7-.24,1.06-.35.44-.14.89-.27,1.34-.4,1.14-.33,2.17-.8,3.23-1.33.42-.21.84-.44,1.26-.66.14-.07.28-.15.42-.22,0,.02.56-.21.68-.25,1.26-.42,2.08-.96,3.19-1.67.82-.53,1.79-.79,2.54-1.43.48-.41.94-.84,1.41-1.26-.17.15-.23.17.12-.1.33-.25.65-.5.99-.75.79-.59,1.84-.89,2.55-1.57.39-.37.79-.92,1.08-1.36.09-.14.13-.2.15-.23.25-.2.52-.38.78-.56,1.69-1.23,2.74-3,4.26-4.41,1.58-1.46,2.68-3.17,3.68-5.07.54-1.02,1-1.99,1.28-3.1.07-.29.17-.59.22-.89,0-.05,0-.07.01-.1.01-.02.02-.03.04-.06.32-.53.65-1.07.94-1.62.47-.89,1.01-1.84,1.18-2.85.2-1.21.55-2.19.91-3.36.6-1.95.94-4.3.65-6.31-.03-.19-.05-.41-.08-.63.22-.5.37-1.22.46-1.76.16-.97-.15-2.02-.22-3ZM184.47,59.15l.2.14c-.03.06-.12-.04-.2-.14ZM187.51,59.18c.18.18.15.2,0,0h0ZM190.38,62.6c-.08-.12-.13-.21,0,0h0ZM209.33,138.67c.04-.15.06-.12,0,0h0ZM207.63,142.63c.13-.34.14-.21-.01.03,0-.01,0-.02.01-.03ZM189.09,76.19c-.16-.22,0,0,.09.11-.03-.04-.06-.07-.09-.11ZM173.35,78.85c-.61-.42-.21-.21,0,0h0ZM123.1,283.4c.44.18.19.19,0,0h0ZM94.04,267.24c-.4-.14-.14-.11,0,0h0ZM84.03,253.26c-.03.1-.06.14,0,0h0ZM224.4,171.5s0,0,0,0c-.01.02-.02.03-.03.06.01-.02.02-.04.03-.06ZM197.78,167.52c.11-.14.24-.27.36-.41.22-.24.45-.46.65-.7.09-.1.52-.62.3-.39.52-.54.3-1.23-.16-1.59-.03-.17-.08-.33-.2-.47-.12-.14-.23-.28-.35-.41.41.09.82.17,1.22.19.09,0,.14,0,.18,0,.28.27.51.59.76.89.28.34.54.66.85.97.27.27.54.54.83.79.1.09.22.19.31.29.01.02.03.05.07.11.83,1.34,1.03,1.88,1.44,3.45.14.52.22,1.06.34,1.58.04.18.09.43.1.45.05.38.07.78.1,1.16.22,2.55-.82,4.02-1.03,6.67,0,.04,0,.08-.01.12-.15.14-.26.51-.36.69-.24.45-.49.9-.73,1.36-.67,1.28-.97,2.36-1.38,3.73-.01.05-.02.07-.02.1-.02.03-.06.07-.11.14-.24.34-.47.67-.71,1.01-.31.44-.61.87-.92,1.31-.61.87-1.27,1.71-1.86,2.59-.66.99-1.29,2.08-1.76,3.17-.08.19-.2.39-.19.4-.18.21-.38.41-.57.61-.36.39-.72.78-1.05,1.2-.25.32-.53.63-.76.97-.07.1-.1.15-.1.17-.48.43-1.07.74-1.56,1.15-.9.75-1.6,1.83-2.35,2.74-.29.36-.57.69-.9,1.01-.26.26-.55.51-.81.78-.1.11-.21.21-.32.31,0,0,0,0,0,0-1.1.8-2.09,1.57-3.08,2.5-.85.8-1.69,1.59-2.53,2.4-.15.14-.3.28-.44.43-.03.03-.12.11-.19.18-.05.04-.1.07-.11.08-.21.12-.41.26-.61.39-.49.31-.97.61-1.46.91-1.14.68-2.22,1.41-3.26,2.23-.3.24-.59.48-.88.72-.11.09-.7.55-.62.5-.14.1-.27.2-.41.29-.84-2.36-1.74-4.74-2.35-7.15-.18-.7-.14-1.5-.38-2.18-.24-.68-.9-1.3-1.32-1.87-.06-.09-.06-.07-.05-.04,0,0,0,0,0-.01-.09-.17-.15-.36-.22-.53-.18-.42-.35-.85-.53-1.27-.3-.69-.63-1.38-.97-2.05-.61-1.19-1.35-2.19-2.18-3.19,1.14-.81,2.35-1.47,3.5-2.26,1.41-.98,1.92-1.79,3.43-2.66,1.33-.77,2.72-1.33,3.93-2.31.57-.47,1.08-1.01,1.62-1.52.32-.3.64-.59.96-.89.14-.13.28-.26.42-.39.03-.02.05-.03.11-.06,1.3-.78,2.58-1.66,3.69-2.69,1.09-1.01,2.03-2.16,3.11-3.18,1.11-1.05,2.41-1.9,3.45-3,1.01-1.06,1.9-2.3,3.04-3.21,1.4-1.11,2.59-2.35,3.73-3.73.58-.7,1.01-1.48,1.27-2.36.04-.13.06-.19.07-.21ZM196.1,164.31c.29.25.6.48.92.7-.08.07-.15.14-.23.22-.25.25-.55.48-.78.74-.25.29-.44.64-.66.95-.14.2-.29.4-.42.61-.04.06-.17.28-.23.39-.05.06-.1.13-.12.15-.15.17-.3.35-.45.52-.24.28-.47.57-.72.83-.49.52-1,1.05-1.53,1.52-.55.48-1.21.85-1.73,1.35-.51.5-.92,1.12-1.39,1.65-1,1.13-2.07,2-3.19,2.99-1.12.98-2.1,2.06-3.1,3.15-.5.55-.99,1.12-1.55,1.62-.34.3-.71.59-1.05.88-.06.05-.12.1-.18.15-.06.04-.27.19-.34.24-1.27.85-2.29,1.79-3.36,2.89-.53.54-1.01,1.12-1.59,1.61-.76.66-1.15.95-1.68,1.26-1.59.93-2.9,2.06-4.22,3.34-.43.42-.34.36-.69.59-.46.29-.95.54-1.4.84-.62.4-1.19.87-1.78,1.31-.21-.24-.44-.47-.67-.69-.1-.1-.2-.21-.3-.31-.22-.3-.42-.62-.63-.93-.63-.91-1.39-1.6-2.22-2.32-.47-.41-.96-.79-1.44-1.18-.09-.07-.12-.09-.13-.09-.02-.03-.04-.06-.08-.1-.26-.32-.49-.66-.74-.99-.61-.82-1.2-1.67-1.84-2.46-.37-.45-.82-.88-1.16-1.36,0-.04-.21-.45-.25-.53-.19-.38-.37-.78-.6-1.14-.24-.37-.54-.68-.83-1.01-.22-.25-.47-.51-.67-.78-.01-.02-.07-.15-.21-.44-.52-1.09-1.09-2.15-1.73-3.17-.74-1.18-1.11-1.68-1.52-2.88-.6-1.77-1.21-3.3-2-4.9.13.07.26.15.38.22,1.02.58,2.15,1.06,3.27,1.38,2.6.74,5.32.51,7.99.83.63.07,1.23.03,1.87,0,.1,0,.69,0,.71-.04.32.05.64.13.95.2.68.14,1.24.29,1.93.1.37-.1.74-.25,1.11-.38.13-.05.27-.09.4-.14.12-.05.17-.07.18-.08,2.6-.49,5.27-.61,7.66-1.84.48-.25.92-.47,1.36-.78.32-.22.66-.45.96-.7.11-.09.24-.18.36-.26,0,0,.01,0,.02-.01.64-.28,1.42-.44,2.02-.8.64-.38,1.17-1.02,1.73-1.5.05-.04.07-.06.08-.07.08-.06.16-.12.25-.18.38-.28.75-.58,1.13-.85.53-.39,1.09-.73,1.63-1.11,1.01-.71,1.83-1.69,2.77-2.5.42-.36.85-.68,1.16-1.14.22-.33.4-.69.6-1.03.11-.18.38-.63.37-.64.4-.51.9-.96,1.28-1.48.43-.58.64-1.29.97-1.92.56-1.07,1.33-2.04,1.95-3.08.32-.54.56-.98.72-1.58.06-.21.11-.43.16-.65-.01.14-.03.26-.05.4-.09.93.12,1.8.13,2.73,0,.01,0,.01,0,.02,0,.03-.02.06-.03.11-.08.28-.16.55-.24.83-.14.48-.36,1.01-.32,1.52.04.41.23.83.35,1.23.08.28.16.56.25.83.02.05.03.07.04.1,0,.03-.01.06-.02.12-.13.97-.18,1.91.03,2.87.13.58.18,1.27.45,1.81.16.32.41.62.65.91.06.67.62,1.2,1.26,1.33ZM158.2,198.66c-.74.4-1.48.84-2.11,1.39-1.26,1.09-2.36,2.23-3.35,3.57-.28.38-.57.75-.83,1.13,0,0-.01.01-.02.02-.2.21-.37.43-.56.65-.54.64-1.09,1.27-1.64,1.9-.56.64-1.01,1.37-1.43,2.11-.44-.62-.93-1.18-1.26-1.87-.76-1.57-1.46-3.16-2.17-4.76-.6-1.35-1.57-3.06-1.95-4.21-.13-.39-.35-1.49-.53-2.17-.22-.82-.46-1.62-.66-2.44-.21-.9-.43-1.62-.83-2.45-.51-1.05-.53-1.28-.83-2.51-.12-.5-.08-.17-.08-.76,0-.51.04-1.06-.03-1.56-.1-.78-.45-1.52-.62-2.29-.1-.42-.14-.86-.21-1.28-.04-.22-.1-.46-.11-.69,0,.04.03,0,.05-.23.07-.89.24-1.66.06-2.54-.25-1.18-.3-1.51-.3-2.66,0-.86-.07-1.71-.1-2.57-.01-.38,0-.75,0-1.12,0-.33,0-.66.02-.99.01-.24,0-.26,0-.23.11-.98.4-1.87.34-2.86-.09-1.34.02-1.64.34-3,.09-.37.14-.75.17-1.13.48.34.97.67,1.49.98,1.19.69,2.33,1.48,3.51,2.16.29.17.6.3.92.41.98,1.78,1.94,3.97,2.55,5.75.45,1.29.89,2.2,1.6,3.37.51.85.97,1.74,1.37,2.64.52,1.17,1.15,1.97,1.85,3.03-.1-.15.08.14.18.37.17.39.33.78.5,1.16.21.48.46.81.78,1.24,1.35,1.77,2.35,3.89,4.01,5.38.46.41.92.82,1.38,1.24.28.26.57.52.85.79.03.03.04.03.05.05.06.09.12.18.18.27.41.59.83,1.19,1.3,1.74-.79.49-1.56.99-2.27,1.59-.36.31-.71.64-1.06.96-.13.12-.27.24-.4.36l-.14.08ZM158.33,198.58s-.02.02-.03.03c-.08.08-.13.08.03-.03ZM163.76,169.82s.04-.04.12-.03c-.07.02-.12.04-.12.03ZM176.72,168.06c-.36.23-.14.07,0,0h0ZM197.6,138.23c0-.06.06-.09.15-.11l-.15.11ZM201.29,123.16c-.18-.07-.31-.18,0,0h0ZM200.37,123.28c.21-.12.13-.05,0,0h0ZM147.34,62.89c.11-.31.17-.64.26-.95.14-.5.23-.93.23-1.45,0-.36-.02-.72-.04-1.08,0-.11,0-.76-.04-.63.11-.96.36-1.92.57-2.85.1-.44.17-.89.31-1.32.11-.34.26-.67.38-1.01.05-.15.09-.3.14-.45.02-.06.19-.54.05-.22.34-.77-.27-1.47-.9-1.56.13-.15.28-.3.33-.37.23-.25.47-.5.7-.76.92-1.03,1.8-2.08,2.72-3.1-.17.95-.28,2.05-.54,2.63-.25.56-.67,1.1-.85,1.69-.17.58-.18,1.27-.25,1.87-.06.5-.07.98-.07,1.48,0,.29.02.59,0,.89,0,.01,0,.02,0,.04-.05.21-.12.41-.18.62-.66,2.24-.36,4.47-.13,6.76.05.52.09,1.04.19,1.55.07.37.16.75.24,1.12.03.15.17.76.16.66.2,1.16.3,2.29.61,3.44.28,1.04.42,2.24.92,3.2.56,1.07,1.3,2,1.84,3.1.45.92,1.2,1.64,1.65,2.55.27.56.46,1.19.83,1.7.39.54.96,1.02,1.45,1.47,1.57,1.46,3.39,2.67,5.04,4.02,1.01.83,1.82,1.57,3.03,2.07.32.13.65.26.97.4.02.03.06.07.12.12.39.37.97.71,1.45.98-.35,0-.7-.02-1.05-.02-.54,0-1.1.02-1.64.07-.1.01-.15.02-.18.02-.37-.05-.73-.16-1.09-.24-.82-.18-1.67-.36-2.48-.63-.05-.04-.31-.15-.41-.21-.28-.17-.58-.32-.87-.48-.37-.2-.74-.41-1.11-.62-.89-.49-1.73-1-2.57-1.56-.13-.08-.26-.17-.39-.25-.04-.06-.23-.26-.29-.33-.21-.26-.44-.5-.66-.75-.06-.07-.27-.31-.37-.42-.07-.11-.22-.32-.25-.37l-.54-.8c-.23-.35-.47-.68-.74-1-.63-.77-1.28-1.51-1.94-2.25-.13-.14-.29-.38-.45-.54-.05-.51-.39-1.24-.54-1.67-.14-.38-.32-.73-.51-1.09-.13-.25-.26-.5-.39-.75-.07-.13-.22-.46-.23-.45-.64-1.74-1.04-3.55-1.72-5.27-.06-.16-.13-.31-.19-.47-.02-.08-.05-.22-.05-.35,0-.56-.05-1.12-.06-1.68-.01-.89.11-1.8-.07-2.68-.09-.43-.18-1.31-.42-1.76l.02-.06ZM147.26,63.19c.01.08,0,.15-.04.15l.04-.15ZM140.85,84.43c-.16-.18-.1-.24,0,0h0ZM144.47,89.62c-.1-.08-.14-.12-.17-.13-.01-.03-.04-.07-.1-.16-.23-.34-.45-.69-.67-1.03-.34-.51-.64-1.04-.95-1.57-.27-.47-.54-.88-.89-1.3-.26-.31-.51-.68-.8-.95,0,0,0,0,0,0-.03-.12-.07-.24-.08-.36-.16-1.24-.71-2.35-1.12-3.52-.43-1.23-.69-2.47-1-3.73-.11-.44-.18-1.21-.39-1.68.04-.15.05-.35.07-.44.09-.39.22-.79.27-1.19.07-.6-.11-1.2-.22-1.8-.02-.12-.07-.64-.09-.63.02-.38.1-.77.14-1.14.13-1.04.44-2.2.91-3.23.49-1.07.92-2.15,1.34-3.25.57-1.48.82-1.92,1.57-3.39.17-.34.32-.7.47-1.05.05-.11.35-.74.31-.74.42-.59,1.12-.99,1.5-1.61.35-.58.46-1.31.78-1.9,0,.12.61-.46.73-.56.06-.05.12-.09.18-.14-.03.08-.08.16-.11.25-.36,1.03-.62,2.05-.82,3.13-.2,1.07-.21,2.07-.14,3.16,0,.03,0,.05,0,.07-.01.03-.02.05-.04.09-.1.29-.17.61-.25.91-.16.59-.34,1.07-.25,1.69.08.54.28,1.12.43,1.64.04.13.06.32.08.38,0,.24,0,.48,0,.72-.01,1.03-.01,2.07.04,3.1.05.97.56,1.78.86,2.7.29.87.47,1.78.75,2.66.35,1.06.72,2,1.24,2.99.09.18.19.36.28.54.02.07.08.25.11.36.15.54.28,1.13.5,1.64.38.9,1.27,1.61,1.9,2.35.38.44.74.89,1.11,1.33.02.02.03.03.04.05,0,0,0,0,.01.02.2.3.4.6.6.9,1.2,1.79,2.55,3.11,4.4,4.23.82.5,1.69.93,2.53,1.4,1.11.61,1.93.87,3.18,1.06,1.04.16,2.18.4,3.23.26,1.11-.15,1.61-.29,2.37-.41-1.27.91-3.24,2.73-4.24,3.25-1.02.52-2.12.81-3.5.98-1.41.17-2.27.47-3.4.4-.53-.03-1.06-.06-1.59-.1-.4-.03-.83-.12-1.23-.1-.02,0-.03,0-.05,0,.06.02.11.04.18.09-.06-.04-.13-.07-.2-.1-.19,0-.22-.06-.12-.05-.05-.02-.1-.04-.14-.05-.56-.26-1.16-.49-1.74-.69-.32-.11-.65-.2-.97-.3-.16-.05-1.2-.43-.79-.22-1.11-.55-2.28-1.41-3.26-2.2,0,0-.02-.02-.08-.08-.16-.14-.3-.29-.46-.44-.28-.27-.55-.54-.83-.8-.47-.44-.95-.86-1.44-1.28ZM126.29,91.14c-.2-.22-.41-.44-.61-.66-.05-.05-.28-.33-.41-.45-.04-.14-.14-.41-.16-.47-.11-.34-.24-.68-.33-1.03-.24-.92-.39-1.88-.61-2.81-.16-.67-.19-.72-.26-1.27-.07-.56-.17-1.13-.15-1.37.09-1.06.38-2.14.57-3.18.19-1.05.2-2.08.34-3.13.01-.08.02-.12.02-.14,0,0,0,0,.02-.04.08-.28.2-.55.3-.82.15-.41.3-.82.45-1.24.21-.61.5-1.26.64-1.89,0,0,0-.01,0-.02.03-.02.08-.05.14-.1.3-.22.57-.52.84-.77.68-.63,1.22-1.36,1.77-2.09-.13.46-.24.92-.32,1.41-.2,1.16-.32,2.31-.4,3.48-.06.98.17,1.91.18,2.88,0,1.03-.22,1.99-.14,3.03.08.97.14,2.52.85,3.28.02.02.04.03.05.04,0,.02,0,.03,0,.06,0,.31.04.63.06.94.03.51.07.99.18,1.49.28,1.19.62,2.07,1.27,3.1.83,1.3,1.37,2.79,2.42,3.89-.41.3-1.01.92-1.81.92-1.08,0-2.52-1.2-2.92-1-.04-.03-.09-.06-.11-.09-.68-.6-1.26-1.28-1.87-1.95ZM126.71,99.93c.04-.24.09-.16,0,.03,0-.01,0-.02,0-.03ZM135.22,156.04c-.24-.27-.51-.52-.76-.77-.08-.08-.43-.44-.56-.56-.08-.12-.33-.48-.39-.56-.23-.34-.48-.68-.7-1.04-.31-.5-.56-1.04-.86-1.55-.06-.09-.11-.19-.16-.29-.14-.4-.26-.81-.39-1.21-.36-1.14-1-2.11-1.49-3.19-.25-.56-.45-1.15-.73-1.69-.29-.56-.71-1.07-.99-1.63.08.09-.07-.46-.09-.6-.06-.38-.1-.78-.18-1.15-.14-.6-.43-1.13-.7-1.69-.1-.21-.21-.43-.31-.64,0-.04-.15-.56-.18-.68-.11-.38-.21-.76-.32-1.14-.02-.06-.03-.09-.03-.1-.02-.14-.03-.28-.05-.42-.17-1.34-.45-2.56-.77-3.87-.31-1.29-.59-2.59-.93-3.87-.01-.05-.02-.07-.03-.1,0-.03.01-.07.02-.14.03-.39.04-.78.06-1.16.03-.64-.03-1.21-.13-1.85-.06-.39-.12-.78-.17-1.16,0,0,0,0,0-.01-.02-.12-.03-.24-.05-.36-.08-.64-.17-1.27-.22-1.91-.05-.61-.11-1.24-.12-1.85,0-.34.02-.69.03-1.03,0-.15.06-1.41,0-.79.14-1.39.36-2.6.32-4-.02-.59.01-1.17.04-1.76,0-.14.05-.71.04-.8.04-.12.21-.73.26-.89.16-.57.31-1.07.34-1.66.02-.42.02-.84,0-1.26,0-.13,0-.27,0-.4,0-.04,0-.05,0-.06,0-.04.02-.08.03-.17.23-1.28.42-2.64.73-3.89.32-1.27.7-2.37.87-3.68.02-.15.04-.29.06-.44.16-.24.33-.48.49-.72.35-.5.68-.9.81-1.49.09-.38.11-.78.16-1.17.01-.07.1-.66.07-.64.1-.29.25-.58.42-.87q3.61.13,4.69-.95c.13-.13.23-.24.33-.35.14.1.28.21.44.3.31.17.63.35.96.5.11.05.22.13.33.17.01,0,.01,0,.02,0,.44.37.84.79,1.3,1.13.95.73,2.33,1.23,3.51,1.3,1.47.09,2.41-.15,3.78-.69.43-.17.86-.33,1.29-.51.42-.17.83-.37,1.24-.56.15-.07.89-.38.55-.28.17-.05.31-.14.42-.23.12.08.22.17.34.25,1.32.87,2.41,1.23,3.89,1.72.67.22,1.33.59,2.02.72.74.15,1.58.06,2.33.07.69,0,1.43.09,2.11.01.76-.08,1.49-.39,2.23-.57,1.41-.34,2.56-.87,3.99-1.18,3.27-.72,5.21-4.07,6.48-4.96.85-.09,1.7-.2,2.54-.31.33.1.68.17,1.01.26.59.15,1.19.28,1.79.41.66.14,1.18.22,1.85.14.5-.06,1-.14,1.5-.21.03,0,.05,0,.07-.01.03,0,.09.02.17.03,1.49.17,2.69-.3,4.12-.53.39-.06.64-.26.78-.51.95.28,1.88.65,2.84.89,1.22.3,2.45.75,3.7.93.36.05.73.09,1.1.12-.13,2.22.03,4.32.58,6.5.36,1.43.52,2.03.56,3.56.03,1.13.03,2.25.1,3.38.14,2.28.08,4.67-.08,6.94-.14,2.15-.01,4.26-.08,6.4-.07,2.53,0,5.3-.33,7.68-.49.15-.97.35-1.45.53-.51.19-1.02.36-1.53.53-.62.19-1.29.34-1.88.62-.4.19-.79.39-1.18.59-.23-.8-.54-1.57-.97-2.3-.22-.37-.46-.75-.66-1.13,0-.02-.01-.03-.02-.06-.1-.28-.18-.57-.25-.85-.24-.89-.44-1.46-1.14-2.09-.92-.81-.87-.93-1.92-1.52-.71-.4-1.42-.8-2.13-1.21-1.43-.82-2.97-.87-4.55-1.28-1.74-.46-3.29-.33-4.93.34-1.53.63-2.98.97-4.41,1.87-1.39.88-2.39,2.12-3.34,3.42-.02.03-.03.04-.04.06-.12.14-.24.29-.35.43-.3.36-.61.71-.89,1.08-.48.64-.91,1.4-1.23,2.13-.36.83-.59,1.87-.72,2.89-.1-.08-.21-.15-.36-.18-.38-.08-.77-.17-1.15-.25-.32-.07-.63-.14-.95-.2-.42-.08-.67.11-1,.31-.37.22-.74.43-1.11.64-.2.11-.42.21-.58.39-.01.01-.02.02-.03.04.04-.54.08-1.09-.03-1.58-.08-.35-.33-.73-.48-1.06-.1-.22-.2-.44-.3-.66-.03-.06-.14-.35-.16-.38-.2-.74-.18-1.61-.56-2.27-.17-.3-.45-.56-.66-.83-.17-.22-.34-.43-.5-.65-.03-.04-.13-.19-.17-.24-.41-.62-.77-1.27-1.19-1.88-.45-.65-.93-1.53-1.59-1.98-.6-.41-1.36-.65-2.01-.98-1.57-.79-2.96-1.39-4.74-1.6-1.8-.21-3.41-.13-5.15.37-.89.26-1.59.59-2.36,1.12-.12.08-.25.16-.38.24-.07.04-.16.09-.21.11-.46.19-.94.36-1.39.56-1.64.74-2.37,2.38-3.05,3.92.01-.03.01-.04-.04.07-.11.24-.23.48-.35.72-.19.37-.4.73-.56,1.11-.3.69-.61,1.39-.76,2.13-.18.89-.22,1.59-.58,2.42-.37.87-.46,1.29-.34,2.23.22,1.68.05,3.32.39,5,.32,1.59.89,2.91,1.58,4.37.69,1.46,1.39,2.7,2.5,3.9,1.12,1.2,2.27,1.92,3.78,2.54,1.5.62,3.13,1.13,4.79.98.78-.07,1.62-.48,2.35-.76.31-.12.61-.26.91-.4.27-.12.55-.25.82-.37.05-.02.28-.12.38-.17.1-.03.3-.09.36-.11.24-.07.47-.15.71-.22.38-.12.83-.19,1.18-.39.66-.37,1.39-1.02,1.92-1.56,1.06-1.07,1.95-2.5,2.64-3.83.66-1.28,1.45-2.88,1.82-4.27.1-.38.11-.82.16-1.21.03-.22.06-.44.09-.67.01-.08.05-.24.07-.35.4.44,1.3.31,1.25-.43-.02-.25-.04-.51-.06-.77.1-.12.19-.23.29-.35.16-.19.32-.39.49-.58l.2-.24c-.06.04-.12.06-.01,0h.02s.05-.07.05-.07c0,.02-.01.03-.03.05l.1-.06c-.02.07-.06.13-.08.2-.23.69-.29,1.44-.44,2.15-.01.07-.02.09-.01.1-.07.18-.16.36-.24.53-.18.4-.37.79-.55,1.19-.29.63-.57,1.27-.85,1.9-.28.65-.59,1.29-.86,1.94-.27.65-.33,1.44-.39,2.14,0,.03-.02.12-.03.19-.03.06-.06.12-.09.16-.26.39-.49.81-.73,1.22-.39.68-.46,1.35-.6,2.12-.28,1.59-.7,3.12-.77,4.75-.02.52.41,1.15.94,1.24.66.12,1.33.23,1.97.43.82.25,1.65.67,2.5.76.45.05.91.05,1.36.08.24.01.48.04.73.04.03,0,.05,0,.08,0,.4.09.81.17,1.21.25.27.06.55.13.82.15.38.03,1.38.15.17-.06,1.63.28,2.33-2.21.69-2.5.62.11-.23-.13-.3-.15-.24-.07-.51-.07-.75-.11-.42-.06-.85-.13-1.27-.18-.82-.1-1.77-.14-2.59-.03,0,0,0,0-.01,0-.17-.05-.35-.11-.52-.16-.49-.16-.97-.33-1.46-.48-.29-.09-.59-.17-.89-.24.02-.18.04-.36.05-.54,0,0,0,0,0,0,0-.02,0-.03.02-.06.2-.74.31-1.52.41-2.28.05-.4.1-.8.15-1.21.02-.14.04-.27.06-.41.21-.25.36-.72.49-.97.18-.33.43-.7.52-1.07.19-.71.07-1.55.11-2.29,0,0,0,0,0,0,.06-.17.12-.35.17-.52.15-.43.29-.87.45-1.3.47-1.3,1.08-2.6,1.46-3.93.21-.72.13-1.5.3-2.22.12-.51.37-1.02.6-1.52.39.1.77.2,1.16.3.08.21.16.41.25.62.16.4.33.79.52,1.18.09.18.25.29.43.37.08.3.16.6.22.9.08.46.35.73.67.84.14.46.31.91.45,1.35.44,1.37.74,3.02,1.45,4.28.77,1.36,1.85,2.55,2.86,3.74.55.64.94,1.21,1.71,1.55.79.35,1.48.66,2.2,1.14,1.31.88,2.59,1.65,4.16,1.85,1.45.18,3.12.48,4.47-.16,1.33-.64,3.02-1.1,4.04-2.16,1.1-1.15,2.04-2.37,2.87-3.74.43-.71.69-1.29.93-2.09.07-.23.13-.46.21-.69.02-.07.07-.23.07-.24.17-.41.4-.8.59-1.19.67-1.35.84-2.85.71-4.33-.02-.23-.03-.47-.06-.7,0-.06-.02-.3-.04-.33.04-.38.16-.77.23-1.15.16-.85.15-1.44.05-2.3-.02-.13-.04-.26-.06-.39.46-.23.92-.46,1.38-.68l.17-.08.16-.05,1.18-.36c1.07-.33,2.16-.53,3.25-.75.16-.03.31-.07.47-.11.34.13.72.08,1.06-.24.29-.07.59-.16.84-.32.4-.22.48-.67.34-1.05.35-.41.69-.82,1.03-1.24.26-.31.49-.55.8-.81.25-.21.5-.43.76-.63.07-.06.11-.09.14-.11.02,0,.07-.02.2-.08.33-.16.67-.32.98-.5.03-.02.05-.03.08-.04.25,0,.78-.09.9-.12.06-.01.12-.01.19-.01.12.07.41.27.64.37,0-.07,0-.13.02-.22l.16.27s0,0,0,0c.02,0,.04.01.05.01.16-.02.12.1.04.18.12.23.27.47.39.68.07.12.14.25.21.38,0,0,0,0,0,0,.42,1.1.68,2.22.9,3.38,0,0,0,0,0,.01,0,.03,0,.05,0,.09.01.31.05.62.07.93,0,.06.02.4.04.56-.05.15-.12.44-.14.53-.1.32-.19.65-.29.97,0,.02,0,.03,0,.04-.02.02-.05.05-.08.09-.33.41-.67.94-.92,1.41-.22.42-.41.91-.57,1.35-.07.21-.13.35-.12.37-.16.23-.37.45-.54.66-.08.1-.4.52-.43.59-.21.17-.44.32-.64.48-.27.21-.54.41-.81.62-.68.52-.21.16-.07.05-.14.1-.27.2-.41.3-.27.2-.65.4-.91.64-.27-.07-.57-.11-.87-.12-.21-.3-.42-.59-.61-.9-.77-1.28-2.52-.62-2.72.52-.07.17-.11.36-.08.58.02.11,0,1.43.12,1.74-.03.08-.06.17-.09.23-.18.42-.38.85-.53,1.29-.21.59-.18,1.04-.15,1.66.01.36.05.72.04,1.08-.05.17-.11.34-.16.51-.11.37-.23.73-.34,1.1-.03.09-.04.14-.04.16-.01.03-.02.05-.04.1-.28.66-.64,1.3-.88,1.98-.2.58-.31,1.22-.45,1.82-.02.07-.02.11-.03.14-.02.03-.04.06-.07.12-.23.4-.46.8-.7,1.19-.57.96-1.27,1.83-1.75,2.85-.16.35-.34.69-.49,1.05-.04.1-.06.14-.06.17-.02.02-.05.06-.1.12-.44.56-.98,1.05-1.38,1.64-.36.53-.6,1.16-.97,1.68.03-.08-.3.26-.47.4-.31.27-.63.53-.94.8-.45.4-.88.82-1.3,1.25l-.28.28s-.02.02-.04.03c-.38.28-.78.52-1.17.78-.98.65-1.94,1.36-2.82,2.13-.31.27-.67.53-.95.82,0,0,0,.01-.02.02-.65.15-1.43.45-2.03.77-1.07.57-1.97,1.34-3.07,1.88-.12.06-.52.21-.56.24-.24.06-.48.1-.72.16-.57.12-1.15.25-1.72.37-.44.09-.88.18-1.31.28-.08.02-.11.03-.11.03-.05,0-.11,0-.23.02-.69.07-1.43.09-2.11.25-.1.02-1.17.39-1.68.56-.12-.02-.25-.04-.34-.06-.44-.09-.87-.2-1.31-.28-1.2-.2-2.44.02-3.67-.14-1.16-.15-2.31-.23-3.48-.27-.39-.02-.77-.03-1.16-.04-.14,0-.74-.08-.61-.03-.61-.13-1.25-.29-1.83-.48-.58-.19-1.16-.47-1.72-.72-.04-.02-.06-.03-.09-.04-.03-.02-.08-.06-.19-.13-.36-.23-.74-.44-1.11-.64-.57-.31-1.15-.53-1.76-.76-.25-.09-.53-.18-.79-.28-.05-.07-.65-.49-.76-.57-.96-.69-2-1.17-3.02-1.78-.33-.2-.65-.41-.98-.61-.09-.06-.55-.36-.55-.34-.48-.37-.95-.78-1.39-1.2-.42-.39-.78-.84-1.18-1.26-.06-.07-.13-.14-.2-.21-.23-.38-.44-.77-.67-1.16-.55-.96-1.26-1.87-2.01-2.69ZM185.51,137.08c-.14.98-.08.98-.4,1.65-.32.68-.65,1.33-.85,2.06-.4,1.46-.79,2.41-1.76,3.78-.52.74-.66.91-1.19,1.46-.81.83-.87.86-1.94,1.31-.56.24-1.11.47-1.68.69-.98.39-.96.31-2.18.26-.2,0-.4,0-.59-.02-.09,0-.12,0-.11,0-.35-.04-.69-.1-1.04-.15-1.03-.15-1.06-.21-2.15-.79-.68-.36-1.27-.85-1.92-1.25-.63-.39-1.42-.58-2.04-.98,0-.02-.15-.16-.18-.19-.19-.21-.37-.43-.55-.65-.21-.24-.42-.49-.62-.73-.32-.38-.64-.77-.96-1.15-.43-.51-.11-.13-.51-.66-.67-.88-.96-1.16-1.3-1.92-.45-1.01-.59-1.35-.96-2.45-.2-.58-.39-1.17-.56-1.76.27-.28.43-.67.35-1.14.09.5-.02-.16-.02-.2-.03-.25-.07-.5-.1-.75-.04-.27-.07-.54-.11-.81,0,0,0-.02,0-.02.03-.42.07-.84.11-1.25.02-.19.03-.38.05-.57,0-.03.01-.05.03-.09.11-.42.22-.86.3-1.29.02-.12.06-.25.09-.38.02-.04.04-.08.06-.12.25-.39.52-.84.71-1.27.02-.04.08-.14.12-.22.08-.1.17-.2.25-.3.45-.54.9-1.07,1.32-1.63.28-.37.56-.75.85-1.13.12-.15.39-.35,0,0,.18-.16.37-.32.55-.49.26-.23.52-.47.79-.7,0,0,.01,0,.02-.01.18-.11.36-.21.54-.31.31-.18.62-.38.93-.55.05-.02.11-.04.15-.05.31-.07.61-.18.92-.27.59-.17,1.14-.38,1.71-.61.16-.06.89-.28.86-.33.43-.01.87.05,1.29.05.1,0,.21,0,.31,0,.44.13.88.27,1.32.38.79.21,1.61.32,2.42.4.27.26.83.45,1.14.62.66.37,1.34.73,2,1.11.55.31,1.04.69,1.57,1.03l.09.06s0,.03,0,.06c.09.46.47,1.04.69,1.46.28.52.65.96,1,1.44.12.16.23.31.34.47.05.07.06.08.06.08.22.43.39.92.55,1.37.2.56.27,1.07.35,1.67.05.36,0,1.38.13.49-.07.48-.16.95-.24,1.42-.25,1.48.15,2.75-.01,3.86ZM162.14,132.64c-.02-.2.03-.44,0,0h0ZM162.7,124.22c-.09.12-.04.06,0,0h0ZM151.45,130.55c-.05-.27,0,.16,0,.24.02.25.05.51.08.76.03.24.07.49.12.74.01.06.02.12.02.17-.02.06-.04.11-.05.13-.09.21-.15.46-.22.68-.11.35-.27.7-.35,1.06-.17.75-.1,1.56-.25,2.31-.01-.07-.28.64-.33.78-.14.37-.28.75-.42,1.12-.25.63-.49,1.29-.79,1.91,0-.03-.36.61-.43.73-.11.2-.43.76-.51.92-.03.04-.16.22-.19.25-.15.18-.29.37-.44.55-.23.28-.43.61-.69.87-.23.23-.51.42-.76.62-.19.15-.38.3-.57.46-.04.04-.12.09-.19.13-.06.02-.11.03-.14.04-.23.05-.46.13-.68.2-.4.11-.8.21-1.19.36-.33.12-.66.28-.99.42-.23.1-.47.2-.7.3-.07.03-.22.08-.3.11-.34.12-.69.22-1.03.33-.21.07-.43.14-.64.21-.07.02-.1.03-.13.04-.4,0-.82-.07-1.21-.1-.21-.01-.42-.02-.63-.04,0,0,0,0,0,0,0,0-.02,0-.05-.02-.42-.13-.83-.28-1.25-.42-.18-.06-.37-.12-.55-.18-.05-.02-.06-.02-.05-.02-.01,0-.02,0-.04-.02-.45-.19-.9-.4-1.35-.59-.12-.05-.26-.12-.4-.17-.52-.5-1.15-.88-1.66-1.4-.32-.33-.62-.68-.94-1.02-.08-.08-.16-.16-.23-.25-.01-.04-.11-.19-.15-.26-.33-.61-.68-1.21-1.01-1.82-.22-.41-.44-.83-.66-1.25-.27-.51-.12-.15-.25-.63-.19-.7-.42-1.39-.55-2.1-.08-.46-.18-.95-.21-1.42-.02-.28,0,.16.01-.12,0-.27.02-.54.03-.81.03-.81-.03-1.53-.13-2.33-.02-.16-.03-.33-.06-.49.23-.39.38-.86.56-1.27.31-.69.4-1.4.56-2.14.07-.3-.01-.08,0-.13.07-.19.17-.37.26-.54.17-.37.33-.75.53-1.11.32-.6.74-1.13,1.09-1.71.22-.36.41-.74.61-1.12.08-.14.15-.3.23-.43.03-.02.06-.05.12-.1.32-.26.77-.57,1.03-.9.14-.06.29-.15.38-.18.72-.29,1.4-.55,2.06-.96.21-.13.44-.26.64-.4.03-.02.18-.11.26-.16.09-.03.24-.09.28-.11.28-.1.56-.21.83-.31.17-.06.34-.12.51-.17-.3.09-.18.02.06-.02.51-.08,1.03-.17,1.55-.2.7-.05,1.43.06,2.13.16.01,0,.03,0,.08.02.21.05.42.09.63.14.25.06.5.12.76.17.05.01.28.07.4.09.1.05.3.14.36.17.23.12.46.23.69.35.33.17.66.34,1,.48.33.14.67.24,1,.37.21.08.42.17.64.23.26.52,1.05,1.05,1.41,1.48.46.54.84,1.14,1.29,1.68.25.3.53.58.79.87.15.16.29.35.44.5.02.02.02.01.03.03.18.72.25,1.48.5,2.18.11.31.27.6.41.9-.56,0-1.17.47-1.03,1.2ZM147.66,121.74c.38.12.16.11,0,0h0ZM123.68,177.74c.03-.37.12-.74.18-1.1.08-.49.13-.9.11-1.4-.07-1.39.11-1.94.24-3.41.05-.58-.05-1.19-.1-1.77,0-.08-.02-.45-.04-.47.06-.34.23-.71.33-1.02.28-.85.35-1.67.41-2.53.09-.04.19-.09.28-.12.02,0,.03-.01.05-.02,0,0,0,0,.07,0,.27-.06.54-.1.8-.16.85-.17,1.62-.37,2.45-.65.76-.26,1.46-.58,2.19-.92.21-.1.41-.22.63-.29,0,0,0,0,.01,0-.03.01-.02.02.14-.01.54-.11,1.09-.18,1.62-.32.75-.2,1.41-.64,2.1-.98.22-.11.37-.16.85-.31.09-.03.18-.06.28-.09.52.6,1.1,1.15,1.68,1.65.08.07.16.13.24.2-.06.7-.11,1.45-.21,1.82-.23.91-.51,1.67-.45,2.6.11,1.71-.3,3.28-.33,5.21-.02,1.54-.08,3.32.12,4.85.05.39.16.78.24,1.17.05.24.14.51.16.76.01.15,0-.05-.03.29-.08.89-.25,1.66-.12,2.55.13.89.26,1.71.49,2.58.27,1.02.19,1.46.24,2.71.03.8.22,1.67.46,2.43.22.7.81,1.69.95,2.15.39,1.28.73,3.25,1.06,4.78.38,1.73,1.12,3.29,1.84,4.9.71,1.62,1.36,3.28,2.11,4.88.6,1.29,1.57,2.62,2.36,3.77-.09.16-.18.32-.28.48-.69,1.09.98,2.09,1.72,1.1,0,0,.01,0,.02,0-.06.1-.04.08.01,0,.69.04,1.42-.67.97-1.45.1-.16.2-.31.29-.47.23-.42.44-.85.66-1.27.09-.17.21-.35.28-.53,0-.01,0-.02,0-.02,0,0,.01-.01.02-.02,1.03-1.19,2.12-2.36,3.09-3.6.96-1.23,1.93-2.44,3.12-3.46.21-.18.43-.37.64-.55.03-.02.13-.11.21-.17.08-.05.19-.12.22-.14.26-.17.52-.35.77-.52.74-.5,1.22-.98,1.79-1.66.58-.69,1.23-1.29,1.85-1.94.03-.03.19-.18.21-.22.15-.12.32-.23.47-.33.15.12.3.26.46.37.32.21.66.2.95.07.29.33.57.65.69.82.21.31.76,1.26,1.05,1.81.34.63.63,1.3.93,1.95-.14-.31.02.05.05.13.09.21.17.42.26.63.15.36.27.73.45,1.08.34.69.95,1.22,1.33,1.88,0,.02,0,.05.02.09.05.21.07.42.11.63.07.43.12.87.22,1.3.31,1.35.84,2.71,1.25,4.03.4,1.26.84,2.51,1.28,3.77-1.24,1.18.19,3.5,1.69,2.43,1.04-.74,2.05-1.48,3.03-2.29.08-.07.51-.4.54-.44.2-.15.41-.3.61-.45.43-.32.85-.63,1.3-.92,1.03-.65,2.11-1.27,3.08-2,.99-.74,1.83-1.77,2.71-2.64.35-.34.69-.68,1.04-1.02.26-.26.55-.5.79-.77.02-.03.11-.11.16-.17.08-.06.16-.11.23-.17,1.08-.79,2.1-1.58,3-2.59.76-.85,1.44-1.8,2.16-2.7.05-.07.39-.49.41-.56.15-.12.31-.23.46-.34.58-.44,1.16-.83,1.63-1.4.36-.44.68-.92,1.04-1.37.06-.06.41-.44.46-.51.28-.31.6-.62.85-.95.7-.92,1.07-2.12,1.65-3.13,1.18-2.05,2.71-3.89,3.93-5.92.29-.48.36-.98.48-1.53.06-.29.11-.6.19-.89,0,.05.27-.62.33-.74.48-1,1.08-2.01,1.46-3.04.23-.62.21-1.33.27-1.98,0-.09.09-.63.07-.62.07-.29.17-.58.25-.86.33-1.12.57-2.29.58-3.47.04-2.78-.85-5.71-2.2-8.1-.34-.6-.7-.91-1.26-1.32-.33-.25-.67-.48-.99-.74.15.12-.28-.28-.44-.42-.08-.07-.15-.15-.23-.24.13.03.27.05.4.08.48.12,1.02.24,1.2.32.57.25,1.1.61,1.67.86.85.37,1.8.69,2.72.81.48.07,1.01.09,1.5.18.06.04.32.15.42.22.34.22.73.44,1.1.61.86.41,1.78.29,2.7.47-.02,0,.36.13.44.15.36.12.72.22,1.08.34.42.13.6.29,1.16.65.93.61,1.8.88,2.85,1.25.49.17,1.64.77,2.46,1.08.15.06.31.11.46.16-.75,1.48-1.47,3.05-2.37,4.43-.52.8-.89,1.64-1.34,2.48-.18.34-.39.66-.59.99-.14.23-.28.46-.42.7-.07.11-.07.13-.06.13-.02.03-.05.06-.08.11-1.19,1.61-2.15,3.35-3.37,4.94-.19.25-.16.18-.09.11-.15.14-.32.27-.47.41-.35.3-.79.59-1.1.94-.57.66-.89,1.53-1.37,2.25-.78,1.17-1,1.39-1.94,2.22-.71.62-1.34,1.31-1.97,2.02-.54.61-1.12,1.22-1.6,1.88-.32.45-.58.94-.88,1.4-.24.37-.31.38-.84.81-.82.67-1.34,1.37-2.04,2.17-.22.25-.21.24-.66.54-.39.26-.86.49-1.21.8-.33.29-.54.68-.79,1.05-.34.5-.57.86-.81,1.08-.69.65-1.43,1.26-2.16,1.86-.78.65-1.23,1.27-1.8,2.12-.06.09-.12.18-.18.27-.05.04-.23.21-.35.29-.44.29-.88.6-1.29.92-1.45,1.13-2.61,2.54-3.91,3.83-.72.71-1.29,1.43-1.84,2.28-.06.09-.13.17-.17.22-.14.1-.28.19-.42.28-.4.26-.82.51-1.21.8-1.27.97-2.79,2.37-3.58,3.76-.68,1.2-.84,1.36-1.91,2.2-.73.58-1.11,1.4-1.65,2.16-.02.01-.02.01-.05.03-.26.15-.49.37-.73.55-.35.26-.74.5-1.03.83-.67.75-1.06,1.51-1.55,2.1-1.21,1.46-2.2,3.06-3.37,4.55-.07.09,0,0-.2.22-.22.24-.44.48-.67.71-.26.28-.51.54-.73.85-.52.73-.95,1.53-1.44,2.28-.53.82-1.07,1.64-1.59,2.46-.31.49-1.16,1.2-1.58,1.96-.22.39-.31.89-.45,1.31-.2.61-.21.7-.45,1.08-.51.83-1.04,1.65-1.57,2.47-.78,1.19-2.13,2.63-2.95,4.15-.42.77-.75,1.61-1.08,2.42-.48,1.17-.72,1.57-1.38,2.65-.2.32-.38.65-.58.98-.24-.85-.41-1.72-.68-2.57-.36-1.15-.84-2.26-1.33-3.36-.03-.06-.19-.44-.25-.58-.05-.15-.17-.52-.19-.59-.19-.56-.36-1.13-.61-1.67-.25-.52-.55-1.02-.81-1.54-.03-.08-.12-.28-.16-.38-.16-.41-.31-.82-.47-1.22-.18-.46-.41-.88-.65-1.32-.16-.29-.34-.57-.48-.87-.04-.13-.07-.27-.11-.41-.56-2.27-1.76-4.04-2.89-6.05-.56-1-.95-2.16-1.54-3.12-.27-.43-.7-.78-1.05-1.14-.17-.17-.36-.34-.53-.53.01-.03-.27-.5-.32-.61-1.01-1.93-1.67-4.13-3.04-5.84-.23-.29-.51-.58-.72-.89,0-.01-.01-.06-.06-.19-.22-.56-.51-1.1-.77-1.64-.53-1.07-1.11-2.12-1.69-3.18-1.05-1.91-2.03-3.91-3.45-5.57l-.14-.18c-.08-.26-.2-.52-.29-.77-.19-.53-.37-1.04-.65-1.52-.16-.28-.35-.55-.53-.83-.05-.08-.35-.59-.37-.57-.22-.55-.33-1.15-.53-1.7-.34-.96-.83-1.87-1.28-2.78-.16-.33-.33-.67-.49-1-.03-.07-.07-.14-.1-.21,0-.02,0-.03-.02-.07-.18-.62-.26-1.28-.48-1.89-.2-.57-.53-1.11-.8-1.65-.05-.1-.14-.35-.17-.41-.07-.32-.11-.67-.17-.99-.09-.51-.16-.92-.39-1.38-.16-.32-.36-.63-.53-.94-.07-.12-.14-.3-.23-.41-.01-.02-.02-.03-.03-.04-.16-.22-.03-.31,0,0,.01-1.16-.31-2.28-.81-3.31-.1-.2-.19-.57-.35-.75,0-.08-.02-.16-.02-.24,0-.59-.02-1.27-.16-1.84-.14-.59-.46-1.16-.67-1.73-.05-.13-.06-.14-.07-.13,0-.03-.01-.08-.03-.17-.07-.4-.1-.81-.15-1.22-.05-.45-.12-.87-.24-1.3-.1-.36-.19-.73-.3-1.08-.16-.51-.08-.1-.09-.53-.03-1.22-.11-2.4-.19-3.62-.02-.35-.04.09,0-.37ZM158.58,273.75c-.1.56-.21,1.06-.17,1.62,0,.05,0,.15.02.28-.27-.06-.54-.12-.8-.15-.97-.13-1.95-.21-2.92-.25-.01,0-.03,0-.04,0-.14-.34-.3-.67-.41-1-.41-1.21-.59-2.09-.71-3.14-.13-1.12-.09-2.31-.3-3.41-.21-1.12-.64-2.23-.89-3.36-.2-.9-.14-2.01-.49-3.13-.44-1.38-.82-1.97-1.18-3.3-.28-1.02-.33-2.07-.59-3.09-.34-1.36-.83-2.33-1.44-3.58-.96-1.95-1.83-3.95-2.86-5.86-1.03-1.91-2.31-3.69-3.4-5.57-.64-1.11-1.25-2.24-1.91-3.34-.67-1.12-1.21-1.77-1.56-2.82-.16-.48-.28-.95-.55-1.37-.37-.57-.91-1.02-1.31-1.57-.57-.8-1.01-1.74-1.31-2.89-.25-.98-.71-1.89-1.21-2.76-.33-.57-.76-1.07-1.08-1.64-.05-.1-.44-1.13-.61-1.56-.19-.48-.44-.81-.75-1.23-.54-.72-.63-.73-.84-1.43-.33-1.11-.62-2.31-1.11-3.36-.25-.52-.67-1-1.03-1.45-.37-.46-.38-.77-.56-1.56-.22-.95-.87-2.28-1.04-2.85-.39-1.28-.67-2.26-1.33-3.43-.17-.3-.21-.43-.22-.46-.1-.32-.14-.67-.22-1-.11-.54-.22-.98-.45-1.47-.91-2.02-1.67-4.2-2.16-6.62-.2-1-.55-1.95-.82-2.93-.4-1.47-.4-2.14-.58-3.64-.12-.99-.48-1.93-.62-2.92-.15-1.12-.39-2.57-.48-3.52-.39-4.16-.6-8.86-.65-13.22-.01-.91,0-1.82.03-2.72,1.1-.42,2.21-.84,3.29-1.31-.08.67-.21,1.22-.49,2.08-.31.94.02,2.31-.04,2.88-.13,1.27-.37,2.27-.26,3.56.05.58,0,.63-.12,1.39-.09.53-.2,1.03-.2,1.56,0,1.2,0,2.42.02,3.62.01.48.12.9.23,1.37.19.82.24.91.28,1.46.1,1.36.41,2.34.78,3.64.01.04.02.05.02.05,0,.03,0,.08.01.16.03.41.04.82.06,1.23.03.55.12.96.35,1.46.15.34.3.7.47,1.03l.1.22c-.01.59.05,1.27.15,1.84.09.57.38,1.01.65,1.52.13.24.28.49.4.74,0,.02,0,.05.02.1.05.21.07.42.11.63.23,1.29.75,2.14,1.24,3.35-.1-.25.01.1.07.36.08.36.18.73.28,1.09.14.5.34.92.57,1.39.22.44.44.87.65,1.31.15.31.29.62.43.92.07.14.45,1.03.29.61.43,1.18.69,2.17,1.37,3.23.13.21.27.41.4.62.02.06.18.43.22.52.23.62.4,1.28.77,1.82.66.97,1.3,1.79,1.85,2.83,1.02,1.91,2.06,3.8,3,5.75.44.92.76,1.9,1.39,2.71.2.26.4.52.61.78.09.11.42.64.38.54.28.54.52,1.1.77,1.64.42.91.8,1.82,1.26,2.71.25.49.47,1,.82,1.43.41.51.97.9,1.39,1.41,0,.03.02.08.05.16.14.38.34.75.5,1.12.2.45.43.86.67,1.29.54.95,1.16,1.85,1.69,2.8.28.51.53,1.05.78,1.58.03.06.04.09.06.12,0,.02.01.06.02.12.1.43.23.86.34,1.29.13.48.29.87.52,1.3.16.29.31.59.48.89.07.13.14.26.21.39,0,.01.01.02.01.03.49,1.15.88,2.29,1.49,3.4.1.18.17.35.19.38.09.26.18.53.26.8.18.54.36,1.07.58,1.59.13.3.26.6.39.9.04.09.27.67.26.63.2.53.4,1.07.57,1.61.31.97.5,1.97.81,2.94.39,1.25.93,2.18,1.57,3.32,0,0,0,0,0,.01,0,.03.02.07.04.13.1.36.22.71.33,1.07.15.47.3.94.46,1.4.4,1.14.47,2.19.74,3.36.24,1.03.67,2.06,1.01,3.07.09.29.19.57.28.86.01.04.02.06.03.08,0,.06.01.12.02.18.05.66.06,1.37.2,2.02.11.51.3,1.12.51,1.6l.05.16c-.07.27-.08.61-.12.86ZM158.33,261.26c-.26-1.18-.58-2.34-1.09-3.43-.23-.48-.54-.96-.82-1.41.88-1.5,1.86-2.95,2.53-4.56.38-.92.6-1.58,1.15-2.6.18-.33.42-.63.63-.94.15-.22.3-.44.45-.66.18-.26-.03.03.22-.31,1.16-1.53,2.3-3.07,3.25-4.75.39-.69.53-1.47.81-2.2.03-.02.16-.25.26-.37.2-.22.38-.45.57-.67.24-.28.46-.55.67-.85,1.08-1.58,2.01-3.26,3.09-4.84.09-.13.42-.49.73-.82.29-.31.59-.61.85-.94.56-.71,1.05-1.47,1.57-2.2.97-1.37,2.05-2.83,3.24-4.29,0,.02.19-.18.32-.27.23-.16.45-.33.68-.5.34-.25.69-.47.96-.79.73-.87.93-1.52,1.67-2.1.88-.7,1.27-1.16,1.82-2.14.45-.79.94-1.28,1.75-2.07.6-.59,1.3-1.28,1.75-1.58.78-.54,1.51-.92,2.06-1.7,1.02-1.46,2.31-2.8,3.73-4.2,1.31-1.29,2.83-1.89,3.91-3.49.69-1.02,1-1.25,2.01-2.1.64-.54,1.36-1.06,1.9-1.69.31-.36.54-.8.81-1.19.11-.16.22-.33.33-.49.05-.04.12-.1.27-.19.86-.51,1.51-1,2.13-1.76.74-.89,1.19-1.16,2.18-2,.66-.56,1.03-1.36,1.55-2.05.02,0,.25-.28.31-.34.23-.25.45-.5.68-.75.25-.27.49-.54.75-.8.69-.71,1.36-1.35,2.13-1.97.75-.61,1.28-1.33,1.86-2.1.23-.31.44-.63.64-.95.18-.28.35-.57.54-.84.05-.07.08-.11.1-.14,0,0,0,0,.03-.02.69-.62,1.44-1.05,2.01-1.79.64-.82,1.21-1.61,1.74-2.5.12-.2.24-.4.36-.6.03-.05.08-.11.16-.2.35-.43.72-.84,1.05-1.28.52-.68.98-1.43,1.39-2.18.45-.82.79-1.65,1.35-2.41.57-.79,1.21-1.52,1.8-2.3.23-.31.41-.58.59-.92.19-.35.35-.69.5-1.05.03-.07.13-.3.19-.44.67.21,1.45.74,2.29,1.2.2.11.4.21.59.31-.89,1.76-1.87,3.46-2.87,5.16-.2.35-.34.68-.48,1.06-.1.28-.2.57-.3.85-.04.1-.08.2-.11.3-.68.57-1.26,1.5-1.79,2.19-.64.85-1.27,1.7-1.9,2.55-.05.07-.08.11-.1.13,0,0,0,0,0,0-.18.23-.37.46-.55.7-.29.37-.58.73-.86,1.1-.58.8-1.1,1.64-1.67,2.45-.18.26-.35.52-.53.77-.01.02-.02.02-.02.04-.02.01-.05.04-.1.08-.45.39-.95.79-1.34,1.23-.31.35-.52.79-.76,1.19-.14.23-.28.47-.41.7-.02.04-.04.06-.04.08-.03.02-.06.05-.12.11-.76.75-1.5,1.51-2.23,2.28-1.2,1.27-2.29,2.89-3.65,3.96-1.53,1.2-2.75,2.65-4.26,3.89-.77.63-1.51,1.19-2.07,2-.2.28-.4.55-.59.84-.04.05-.06.09-.09.13-.47.2-1.01.65-1.4.93-.37.26-.6.53-.86.9-.19.28-.38.56-.57.83-.06.09-.34.43-.35.46-.63.63-1.36,1.17-2,1.79-.23.23-.47.46-.7.68-.07.07-.1.1-.13.13,0,0-.01,0-.02.02-.51.36-1.1.61-1.6.98-.69.51-1.21,1.29-1.74,1.95-.65.81-1.22,1.54-2,2.21-.76.65-1.61,1.27-2.3,1.99-.29.31-.51.69-.74,1.05-.17.26-.33.55-.52.8-.04.06-.06.08-.07.1-.01,0-.05.02-.17.11-.85.66-1.67,1.34-2.48,2.04-.7.6-1.31,1.3-1.87,2.02-.29.37-.54.78-.81,1.17-.45.67-.32.55-.78.94-.87.72-1.5,1.46-2.18,2.35-.46.59-1.14,1.28-1.73,2.2-.23.37-.4.8-.59,1.19-.1.2-.19.43-.31.62-.02.01-.16.18-.28.3-.76.74-1.39,1.46-2.01,2.32-.59.82-1.05,1.75-1.26,2.75,0,.01,0,.02,0,.03-.18.15-.35.31-.52.47-.38.34-.82.66-1.14,1.06-.55.71-1.01,1.59-1.36,2.42-.55,1.3-.84,1.67-1.61,2.88-.45.71-.72,1.51-1.14,2.24-.49.86-1.11,1.54-1.43,2.49-.42,1.25-.61,1.71-1.29,2.88-.45.76-1.08,1.43-1.46,2.23-.5,1.06-.65,1.8-1.15,2.65-.46.8-1.01,1.49-1.52,2.24ZM200.44,206.85c-.21.28-.19.13,0,0h0ZM187.35,281.36c.05,0,.1-.02.15-.03.34-.08.01.02-.15.03ZM214.64,276.26c.16-.03.13-.02,0,0h0ZM261.54,236.89c.01.07.02.12.02.12-.02,0-.02-.05-.02-.12ZM261.31,235.27c.02.11.13.94.2,1.41-.01.05-.02.08-.03.15-.09.41-.14.82-.21,1.23-.15.86-.23,1.75-.47,2.59-.32,1.11-.7,2.05-.9,3.2-.03.18-.06.35-.09.53,0-.01-.11.37-.2.54-.22.45-.42.91-.66,1.36-.54,1.02-1.12,1.84-1.4,2.97-.08.33-.2.67-.25,1.01,0,.06-.01.1-.02.13-.25.57-.54,1.14-.84,1.7-.43.8-.88,1.61-1.39,2.36-.19.28-.39.57-.58.85-.09.13-.25.3-.27.34-.39.37-.8.72-1.19,1.1-.63.62-1.17,1.33-1.76,1.99-.39.45-.8.88-1.18,1.34,0,.01,0,.01-.01.02-.07.05-.14.1-.21.15-.31.22-.62.44-.93.66-.37.27-.66.52-.96.86-.21.24-.4.5-.6.75-.11.13-.49.51-.38.47-.8.55-1.72.93-2.51,1.51-.91.67-1.72,1.45-2.62,2.13-.03,0-.08.02-.16.05-.34.11-.69.33-1.02.48-.43.2-.78.4-1.18.67-.28.19-.58.36-.84.57-.12.09-.18.14-.22.17-.57.21-1.16.34-1.73.55-.92.34-1.78.87-2.67,1.29-.43.2-.87.43-1.32.62-.07.01-.36.1-.47.12-.4.09-.81.21-1.21.32-.92.26-1.89.5-2.76.91-.52.24-1.03.54-1.53.82-.05.03-.09.05-.13.07-.32.1-.65.2-.98.29-.97.29-1.95.55-2.92.84-.51.15-1.03.3-1.53.49-.1.04-.39.12-.46.15-.23.02-.47.04-.7.06-1.21.11-2.23.42-3.4.74-.39.11-.79.18-1.19.27-.27.06-.55.12-.82.18-.08.01-.2.03-.33.04-1.24.1-2.46.27-3.68.46-.54.08-.3,0-.1,0-.32-.01-.65-.01-.97-.02-.54-.01-1.07-.05-1.6.06-.54.12-1.2.3-1.7.53-.02,0-.03.01-.05.02-.37-.03-.75-.01-1.13-.02-1.95-.04-3.9.21-5.86.2-1.22,0-2.29.11-3.45.53-.18-.03-.37-.04-.48-.06-.61-.12-1.25-.31-1.88-.27-.6.04-1.21.2-1.8.31-.26.05-.89.04-.14.04-.34,0-.68,0-1.02,0-1.05,0-2.11-.21-3.15-.19-.48,0-.98.15-1.44.24-.31.06-.62.11-.93.18-.03-.01-.07-.03-.13-.05-1.03-.33-2.41-.24-3.48-.29-.88-.04-1.77-.24-2.65-.21-.52.02-1.28.06-1.77.23-.04.02-.07.03-.1.04-.3-.07-.61-.14-.91-.21-1.13-.26-2.2-.29-3.35-.38-.41-.03-.81-.09-1.21-.14-.24-.03-.49-.06-.73-.09-.07-.01-.23-.04-.42-.09-1.25-.27-2.42-.38-3.69-.43-.42-.02-.83-.04-1.24-.06-.33-.02-.66-.06-1-.06-.04,0-.06,0-.09,0-.01,0-.02,0-.04-.01-1.06-.3-2.13-.42-3.21-.48-.05-.31-.11-.62-.14-.92,0-.04,0-.07-.01-.09.01-.05.02-.1.03-.14.09-.42.18-.85.26-1.27.23-1.17-.22-2.04-.52-3.17.15.56-.01-.34-.02-.51-.02-.33-.04-.67-.07-1-.05-.6-.22-1.1-.41-1.68-.34-1.01-.79-2.03-1.04-3.06-.05-.23-.11-.46-.16-.69.24-.67.45-1.18.87-1.74.62-.82,1.15-1.62,1.65-2.52.18-.32.32-.63.45-.97.12-.32.24-.64.36-.95.04-.12.3-.7.19-.5.46-.84,1.12-1.58,1.59-2.43.52-.94.87-1.8,1.22-2.82.19-.56.1-.4.43-.86.31-.43.64-.87.9-1.33.5-.85.83-1.75,1.4-2.56.65-.91,1.01-1.75,1.49-2.76.17-.35.35-.66.56-.99.18-.28.34-.58.53-.85.23-.32.02-.07.22-.27.7-.69,1.49-1.09,1.85-2.04.51-1.37.63-1.63,1.47-2.77.36-.49.17-.25.63-.7.36-.35.8-.69,1.12-1.09.29-.37.47-.83.68-1.24.13-.24.24-.49.38-.73.07-.12-.08.1.14-.21.63-.86,1.37-1.67,2.03-2.51.59-.74,1.39-1.21,2.02-1.89.31-.34.56-.78.82-1.15.47-.67.34-.53.75-.97.72-.79,1.4-1.47,2.23-2.15.7-.58,1.56-1.07,2.16-1.74.34-.38.6-.88.89-1.3.09-.14.18-.3.29-.44.02.02.48-.38.54-.43.78-.66,1.6-1.29,2.35-1.98.61-.55,1.08-1.24,1.61-1.87.37-.44.75-.87,1.13-1.31.07-.09.11-.13.13-.16,0,0,0,0,.01,0,.28-.2.6-.36.9-.53.94-.56,1.62-1.24,2.43-1.97.63-.57,1.37-1.05,1.92-1.71.35-.42.74-.92,1-1.4.22-.06.55-.35.72-.46,1.06-.65,1.58-1.33,2.31-2.34.23-.31.28-.29.15-.18.18-.15.36-.29.54-.43.38-.31.76-.61,1.14-.92.81-.64,1.55-1.21,2.23-1.98.69-.77,1.47-1.29,2.23-1.98.61-.56,1.08-1.27,1.64-1.88,1.33-1.47,2.89-2.8,4.15-4.32.3-.36.52-.78.76-1.19.14-.23.27-.47.42-.7.02-.04.03-.06.04-.08.03-.02.06-.05.13-.11.85-.77,1.51-1.48,2.17-2.42.55-.79,1.08-1.6,1.63-2.39.04-.06.09-.13.14-.19.2-.26.41-.52.61-.78.27-.34.53-.69.78-1.04.59-.83,1.17-1.67,1.77-2.49.11-.15.22-.31.33-.46.06-.07.26-.32.29-.36.36-.43.79-.85,1.09-1.32.27-.42.38-.93.54-1.4.09-.27.17-.56.28-.83.05-.1.11-.19.17-.28.6-.93,1.01-1.87,1.4-2.9.25-.67.62-1.66,1-2.42.03-.06.03-.11.05-.17.29.11.59.22.9.32.24.07.48.14.72.23.06.04.15.09.29.21.43.35.87.72,1.32,1.03,1.72,1.21,3.7,1.98,5.51,3.03,1.88,1.08,2.89,2.37,4.51,4.01.32.32.66.52,1.04.76.27.17.56.41.85.52.03.01.05.01.07.02.55,1.06,1.38,1.86,2.31,2.57.24.18.5.36.72.55.12.11-.15-.15.13.16.4.44.84.84,1.23,1.29.64.73,1.21,1.53,1.83,2.27.21.25.41.54.64.77.1.53.45,1.17.67,1.64.22.47.52.84.84,1.25.2.26.42.51.61.78.04.05.06.08.08.11,0,.02.02.07.08.2.47,1.03,1.04,1.96,1.65,2.91.21.32.37.61.52.96.14.31.28.62.42.93.04.08.08.17.12.25,0,.01,0,.04.02.08.26,1.11.52,2,1.12,2.96.15.24.31.48.46.73.01.05.03.11.05.21.08.34.17.69.27,1.02.06.21.09.4.1.41.08,1.16.02,2.04.58,3.12.12.23.23.5.37.73-.09.47.04,1.24.08,1.67.19,2.01.91,4.19,1.47,6.14.02.07.03.11.05.15,0,.02,0,.02,0,.04.04.32.06.63.1.95.05.52.11,1.03.18,1.55.08.54.17,1.07.24,1.61,0,.07.03.29.04.42.04.41.09.82.13,1.24.2,1.97.12,3.93.26,5.91.03.42.06.83.11,1.24.04.34.08.68.12,1.01.02.2.05.72.09.52-.16,1.07-.62,1.9-.45,3.03Z"/>
        </g>
      </g>
    </g>
  </g>
  <rect class="cls-4" x="271.25" y="279.46" width="360.5" height="165" rx="39.87" ry="39.87"/>
  <rect class="cls-4" x="267.25" y="473.46" width="360.5" height="165" rx="39.87" ry="39.87"/>
  <line class="cls-4" x1="306.11" y1="129.35" x2="595.07" y2="129.35"/>
  <line class="cls-4" x1="306.11" y1="169.35" x2="595.07" y2="169.35"/>
  <line class="cls-4" x1="306.11" y1="209.35" x2="595.07" y2="209.35"/>
  <text class="cls-3" transform="translate(306.11 88.4)"><tspan x="0" y="0">Q.</tspan></text>
  <text class="cls-3" transform="translate(167.92 342.54)"><tspan x="0" y="0">A.</tspan></text>
  <text class="cls-3" transform="translate(167.92 532.54)"><tspan x="0" y="0">A.</tspan></text>
</svg>