<?xml version="1.0" encoding="utf-8"?>
<!-- Generator: Adobe Illustrator 16.0.4, SVG Export Plug-In . SVG Version: 6.00 Build 0)  -->
<!DOCTYPE svg PUBLIC "-//W3C//DTD SVG 1.1//EN" "http://www.w3.org/Graphics/SVG/1.1/DTD/svg11.dtd">
<svg version="1.1" id="レイヤー_1" xmlns="http://www.w3.org/2000/svg" xmlns:xlink="http://www.w3.org/1999/xlink" x="0px"
	 y="0px" width="101.667px" height="84px" viewBox="0 0 101.667 84" enable-background="new 0 0 101.667 84" xml:space="preserve">
<path fill="#EC4963" d="M100.321,41.134c0-21.839-22.093-39.542-49.346-39.542c-27.253,0-49.347,17.704-49.347,39.542
	s22.093,39.542,49.347,39.542c9.895,0,19.102-2.343,26.826-6.361l18.239,8.117l-7.85-15.348
	C95.739,60.14,100.321,51.069,100.321,41.134z"/>
<g>
	<path fill="#FFFFFF" d="M73.257,61.253h-7.923L62.062,57.9c-3.479,2.236-7.355,3.354-11.628,3.354
		c-5.535,0-10.447-1.875-14.738-5.625c-4.669-4.128-7.004-9.401-7.004-15.819c0-6.292,2.209-11.538,6.626-15.739
		c4.29-4.074,9.356-6.111,15.197-6.111c5.301,0,10.051,1.785,14.251,5.354c5.048,4.291,7.572,9.889,7.572,16.793
		c0,5.408-1.992,10.213-5.977,14.414L73.257,61.253z M55.923,43.973l6.058,6.031c2.668-2.776,4.003-6.21,4.003-10.303
		c0-4.489-1.487-8.248-4.463-11.276c-2.975-3.029-6.67-4.543-11.087-4.543c-4.471,0-8.148,1.515-11.033,4.543
		c-2.902,3.011-4.354,6.824-4.354,11.438c0,4.507,1.496,8.194,4.489,11.061c3.118,2.957,6.679,4.435,10.682,4.435
		c2.722,0,5.183-0.622,7.382-1.866l-9.816-9.519H55.923z"/>
</g>
</svg>
