<?xml version="1.0" encoding="UTF-8"?>
<svg id="_レイヤー_1" data-name="レイヤー 1" xmlns="http://www.w3.org/2000/svg" viewBox="0 0 660 660">
  <defs>
    <style>
      .cls-1 {
        fill: #4742c2;
      }

      .cls-2 {
        fill: #fff;
      }

      .cls-3 {
        fill: #ebebf7;
      }
    </style>
  </defs>
  <path class="cls-3" d="M227.09,390.36c.83,101.84,83.19,185.56,185,187.97,33.56.8,65.19-7.13,92.8-21.67,31.55,23.98,69.95,20.38,89.19,16.4,3.72-.77,4.25-5.84.78-7.41-26.98-12.17-36.16-34.18-39.26-47.81,31.6-33.99,50.87-79.58,50.71-129.68-.34-105.03-87.28-190.42-192.31-188.95-104.01,1.45-187.75,86.62-186.9,191.15Z"/>
  <path class="cls-1" d="M393.96,196.31c-97.61,10.63-173.12,95.94-172.09,194.09.18,56.27,27.2,110.66,70.4,146.38,58.61,49.4,144.97,58.54,212.41,22.34,5.31,4.09,11.04,7.68,17.12,10.6,22.06,10.27,47.46,11.65,71.11,7.16.4-.07,1.7-.33,2.05-.4,7.02-1.5,7.72-11.4,1.32-14.11-18.65-8.18-32.56-24.34-38.35-44.01,20.83-22.56,36.46-50.1,44.46-79.88,4.15-14.98,6.4-30.7,6.73-46.25,3.42-115.74-100.36-209.64-215.15-195.92ZM553.31,517.25c3.37,21.91,18.34,41.87,38.8,51.03l1.23.61.18.11.05.45c-22.87,5.02-47.71,4.32-69.59-4.62-6.69-2.78-12.96-6.49-18.97-10.58-63.09,33.85-144.77,26.6-200.74-17.87-44.81-34.56-71.65-89.6-71.96-146.05-1.65-93.43,69.86-174.86,162.62-185.66,101.69-12.98,196.59,63.06,207.32,164.78,6.08,53.39-12.17,108.54-48.94,147.81Z"/>
  <path class="cls-2" d="M477.3,281.72c-1.08,114.9-94.63,208.8-209.53,210.28-36.71.47-71.31-8.37-101.58-24.32-32.07,24.38-70.47,23.3-93.4,19.57-6.15-1-7.42-9.22-1.94-12.16,26.04-13.99,35.29-36.56,38.55-50.87-35.39-38.06-56.97-89.13-56.79-145.23.36-114.08,96.33-210.6,210.4-211.62,118.86-1.06,215.4,95.51,214.28,214.36Z"/>
  <path class="cls-1" d="M426.82,137.48c-57.8-66.42-157.17-91.27-238.79-57.41C96.81,116.79,38.88,211.48,52.89,309.57c5.85,42.74,25.14,83.28,54.17,115.16-5.71,18.66-17.88,35.23-34.93,44.89l-2.33,1.32-.58.33c-5.27,2.52-7.53,9.25-4.87,14.42,1.32,2.76,4.15,4.95,7.11,5.55,3.03.62,5.82.82,8.82,1.22,21.01,2.34,42.94.19,62.58-8.08,8.38-3.67,16.47-8.47,23.56-14.22,31.67,17.36,68.09,26.13,104.44,25.64,115.9-1.22,211.8-98.21,212.6-214.03.69-53.41-20.99-104.95-56.64-144.29ZM347.78,469.92c-56.8,25.78-124.94,24.06-180.6-4.07l-1.08-.58c-6.52,4.31-13.3,8.21-20.47,11.15-13.49,5.57-28,8.25-42.55,8.73-9.91.26-19.99-.41-29.76-2.08-2.02-.23-2.37-3.39-.61-4.27,21.01-11.34,35.41-31.86,38.98-55.2-41.63-43.63-62.66-105.7-56.12-165.66,4.7-42.5,23.02-83.21,51.24-115.28C236.19-3.84,473.49,84.98,471.13,281.66c-.14,80.54-50.08,155.47-123.36,188.26Z"/>
  <path class="cls-1" d="M264.96,336.25c-11.96,0-21.65-9.69-21.65-21.65,0-34.68,21.62-49.1,37.42-59.64,14.62-9.75,22.67-15.12,22.67-34.79,0-21.81-22.32-33.43-38.44-33.43-24.75,0-38.44,23.58-38.44,39.88,0,11.96-9.69,21.65-21.65,21.65s-21.65-9.69-21.65-21.65c0-23.2,9.28-44.69,26.14-60.51,15.36-14.41,35.63-22.68,55.6-22.68,39.31,0,81.74,29.34,81.74,76.73,0,42.83-25.24,59.67-41.95,70.81-14.7,9.81-18.14,13.16-18.14,23.61,0,11.96-9.69,21.65-21.65,21.65Z"/>
  <circle class="cls-1" cx="264.96" cy="383.22" r="28.65"/>
</svg>