<?xml version="1.0" encoding="UTF-8"?>
<svg id="_レイヤー_1" data-name="レイヤー_1" xmlns="http://www.w3.org/2000/svg" xmlns:xlink="http://www.w3.org/1999/xlink" viewBox="0 0 660 660">
  <defs>
    <style>
      .cls-1 {
        fill: none;
      }

      .cls-2 {
        stroke-linecap: round;
        stroke-width: 2px;
      }

      .cls-2, .cls-3, .cls-4 {
        fill: #4742c2;
      }

      .cls-2, .cls-5, .cls-4 {
        stroke: #4742c2;
        stroke-miterlimit: 10;
      }

      .cls-6 {
        fill: #1d9cce;
      }

      .cls-5 {
        fill: #ebebf7;
        stroke-width: 5px;
      }

      .cls-7 {
        fill: #fff;
      }

      .cls-8 {
        clip-path: url(#clippath);
      }
    </style>
    <clipPath id="clippath">
      <path class="cls-1" d="M498.79,83.38c-2.41-.07-4.87.08-7.31.01h.14s-2.45.13-2.45.13l.21-.02-2.43.39-.13.02h-.14s-2.46.07-2.46.07l.42-.05-2.4.57-.39.05c-3.02,0-5.96.71-9.36,1.38l-.12.03h-.15s-2.46.2-2.46.2l.42-.08c-2.4.73-4.82,1.28-7.2,2.01l-.11.02-2.42.44.31-.08c-2.12.66-5.43,1.91-7.01,2.19-1.16.44-3.53,1.24-4.72,1.59-.55.32-4.15,1.72-5.5,2.28-1.59.57-4.59,2.09-5.43,2.33l-2.11,1.16-2.04,1.26-.16.1-.18.07-2.29.91c-.82.39-4.28,2.57-5.91,3.76l-.12.06-2.18,1.15.36-.23-1.91,1.55-.09.07-.1.07-2.06,1.33c.77-.6-1.8,1.47-1.72,1.41l-.21.15-2.08,1.32.17-.12-1.94,1.5.15-.13-1.8,1.67-.07.06c-1.74,1.27-3.91,3.2-5.45,4.69l-1.66,1.73-.06.06-.07.07c-.9.77-2.69,2.4-3.53,3.26l.2-.22-1.53,1.93-.16.18-1.72,1.75.15-.17-1.57,1.95-1.64,1.88.14-.18c-2.57,3.46-5.05,6.72-7.14,10.5-2.29,3.33-3.5,6.53-5.79,10.09l.12-.22-2.04,4.48.12-.31-.68,2.37-.05.15-.83,2.27c-.66,2.12-1.67,5-2.56,7.04l.13-.46-.44,2.42-.02.12-.03.1c-.36,1.14-.98,3.47-1.23,4.64-.17.84-.51,3.34-.85,4.74l.03-.25-.19,2.45v.11s-.02.08-.02.08l-.4,2.42.02-.22c-.16,3.26-.51,6.54-.7,9.81v-.38s.28,2.44.28,2.44l.02.15v.13s-.04,2.44-.04,2.44v-.18s.17,2.5.17,2.5l.03,2.5-.03-.33c.53,2.85,1.12,6.91,1.49,9.71.31.91,1.45,5.8,1.5,6.95l.62,2.36-.12-.31,1.05,2.23c.56,1.58,1.06,3.18,1.67,4.74l.03.09.02.07.62,2.38-.11-.3c1.15,2.15,1.92,4.59,2.96,6.76.73,1.42,2.57,4.22,3.61,6.18.95,1.72,3,5.3,3.45,6.11l1.64,1.83.15.2,1.29,2.08c.81,1.09,3.69,4.61,4.24,5.62.86.89,2.54,2.68,3.32,3.63l3.34,3.52c1.52,1,3.65,3.45,5.48,4.83.81.9,2.54,2.58,3.45,3.37,2.06,1.71,5.39,3.85,7.82,5.64,1.78.83,4.21,2.76,6.07,4.03,6.06,3.97,12.79,6.86,19.43,9.78l.45.19.03.48.17,2.47.06,1.24c-.01.41.06.82.33,1.22l-.04.33c.24.7-.03,1.25-.18,1.84-.54,1.89-.72,3.88-1.34,5.76-1.25,2.17-2.38,4.4-3.62,6.61l-1.46,1.99-.04.05c-1.43,1.74-3.54,3.84-5.21,5.42l-1.77,1.76-1.86,1.66-.06.05-.06.04-2.05,1.37.07-.05-1.93,1.56.36-1.08.56,2.18-.98-.81,2.41.11h-.08s2.38-.07,2.38-.07l2.37-.22h.12s2.41.03,2.41.03h-.18s2.39-.34,2.39-.34h.09c1.21-.05,3.55-.27,4.73-.44h.04s.05,0,.05,0l2.42-.1-.27.04,2.34-.65.1-.02c2.24-.43,5.01-.9,7.16-1.5l2.42-.3-.26.06,2.29-.81h.03s.06-.03.06-.03l2.34-.63-.21.07,2.2-1.02.04-.02.07-.02,2.28-.82c2.7-1.03,8.06-4.45,10.07-5.63,1.82-1.56,3.53-3.21,5.29-4.86l-.13.14,1.57-1.9,1.7-1.79-.22.29,2.43-4.2.47-.81c1.66,0,4.24.02,5.91.13,1.23.02,3.71.17,4.94.3h-.23c1.97-.09,5.89-.28,7.28-.24,5.66-.49,11.46-1.03,16.99-2.27l2.45-.26-.25.04c1.21-.32,3.69-.82,4.94-1l-.34.09,2.33-.82.11-.04c7.13-1.46,13.98-4.06,20.78-6.68l-.16.07,2.21-1.07c3.02-1.03,5.73-2.59,8.89-4.13l-.15.08,4.25-2.49,2.09-1.2,2.03-1.29.08-.05.09-.05,2.18-1.14-.38.25,1.92-1.55.15-.12.18-.1,2.16-1.19-.39.27,1.87-1.61c2.05-1.45,4.07-2.81,5.99-4.43l-.29.27,1.65-1.85.2-.22.25-.17,2.06-1.38-.33.26c1.18-1.15,2.37-2.29,3.57-3.41-.85.98,1.41-1.78,1.32-1.68l.11-.14.14-.13,1.82-1.65-.27.29,1.52-1.93.1-.13.13-.12,1.78-1.7-.21.22,1.57-1.94,1.64-1.88-.18.23c.92-1.37,1.86-2.73,2.82-4.07l2.8-4.01-.11.18,1.22-2.13.08-.13.09-.13,1.49-1.96-.15.22,1.27-2.1c-.6,1.38.75-2,.72-1.93l.07-.19.1-.17,2.52-4.22-.12.24,1.02-2.23-.1.25c1.16-3.48,3.21-8.94,4.24-11.39l.67-2.36-.05.22c.54-3.26,1.49-6.54,2.31-9.75-.21,1.36.24-2.18.22-2.08v.18s.1-2.46.1-2.46v-.23s.07-.23.07-.23l.58-2.4-.06.44c.2-2.05.19-5.9.36-7.13-.19-2.4.06-5-.08-7.39l.03.34-.4-2.43c-.12-1.26-.12-2.56-.31-3.79-.11-1.23-.37-2.53-.52-3.8l-.11-2.47.05.38-.99-4.8.05.2c-.33-1.18-1.08-3.52-1.49-4.68l-.66-2.53-.5-2.48.2.59-1.08-2.22-.07-.15-.05-.14-.78-2.33.07.18-.99-2.34-.83-2.4.07.19-.99-2.25.1.21c-.98-1.77-2.99-5.41-3.38-6.32l-1.37-2.04-.09-.13-.07-.13-1.09-2.2.09.15-1.25-2.11.12.18c-.73-1.09-2.46-3.33-2.76-3.88l-1.57-1.89-.06-.08-.05-.07-1.41-2.01c-.44-.55-2.18-2.59-3.01-3.72l.12.14c-.79-.91-2.47-2.62-3.34-3.45l-.11-.1-.08-.11-1.53-1.93.2.22c-.83-.87-2.59-2.48-3.51-3.25l-.1-.09-.08-.09-1.66-1.81.42.36-2.07-1.37-.15-.1c-1-.88-2.81-2.61-3.75-3.55l.2.17-1.94-1.5.24.16-2.13-1.24-.2-.13-1.98-1.45-.07-.05-.06-.05-1.87-1.6c1.11.73-1.86-1.12-1.77-1.06-2.9-1.53-5.61-3.51-8.42-5.21l.4.2-2.31-.89c-1.57-.8-3.06-1.75-4.58-2.65l.34.16-2.3-.88-.11-.04-.07-.03c-7.08-3.19-15.06-6.31-22.59-8.2l.16.03-2.43-.39-.12-.02-.12-.03c-3.26-.9-6.29-1.7-9.32-2.13l.16.02-2.45-.2h-.13s-.11-.03-.11-.03l-2.41-.48.17.03-2.44-.28h.16s-2.46-.07-2.46-.07h-.21s-.19-.05-.19-.05l-2.41-.57.33.05c-1.77-.15-6-.42-7.06-.37l-2.46.19h-.15s-.14,0-.14,0l-2.41-.17Z"/>
    </clipPath>
  </defs>
  <path class="cls-7" d="M313.31,164.36s19.62-18.69,128.75-18.69,128.75,18.69,128.75,18.69v313.14c0,3.95-3.2,7.15-7.15,7.15-.94,0-1.87-.19-2.74-.55-14.31-5.79-47.4-14.31-118.83-14.31-109.1,0-128.75,19.62-128.75,19.62h-2.1s-19.62-19.62-128.75-19.62c-73.65,0-106.53,8.94-120.12,14.76-3.11,1.36-6.74-.07-8.1-3.18-.34-.77-.51-1.6-.51-2.44V164.22s19.62-18.69,128.75-18.69,128.75,18.69,128.75,18.69l2.05.14Z"/>
  <g>
    <path class="cls-3" d="M278.98,197.57s-.02,0-.03,0h-.04s-.09-.02-.09-.02c-.07-.01-.17-.03-.3-.05-.26-.04-.64-.11-1.15-.19-1.01-.16-2.51-.4-4.51-.68-3.99-.56-9.95-1.32-17.87-2.07-15.84-1.51-39.53-3.01-70.98-3.01-54.61,0-87.98,4.51-95.96,5.7-1.14.17-1.74.27-1.87.29-1.28.21-2.19,1.33-2.19,2.59,0,.14.01.29.04.43h0c.21,1.29,1.33,2.2,2.59,2.2.11,0,.22-.01.33-.03.11-.04.23-.07.35-.07h.3c4.32-.75,38.19-5.91,96.5-5.91,31.29,0,54.9,1.48,70.5,2.96,7.84.74,13.72,1.48,17.62,2.03h.01s4.36.67,4.36.67h.02s.99.18.99.18h.17l.25.03c.22.06.44.09.66.09,1.14,0,2.19-.77,2.49-1.92.06-.22.09-.44.09-.66,0-1.14-.77-2.19-1.92-2.49-.11-.03-.23-.05-.34-.07Z"/>
    <path class="cls-3" d="M278.92,234.3h-.01s-.09-.02-.09-.02c-.07-.01-.17-.03-.3-.05-.26-.04-.64-.11-1.15-.19-1.01-.16-2.51-.4-4.51-.68-3.99-.56-9.95-1.32-17.87-2.07-15.84-1.51-39.53-3.01-70.98-3.01-46.99,0-78.26,3.34-91.15,5.04-4.29.57-6.56.96-6.65.97h0s-.02,0-.02,0c-1.28.21-2.2,1.33-2.2,2.59,0,.14.01.29.04.43h0c.21,1.29,1.33,2.2,2.59,2.2.14,0,.29-.01.44-.04.12-.02.23-.01.35.01h.19c4.24-.7,38.17-5.86,96.5-5.87,31.29,0,54.9,1.5,70.5,2.98,7.84.74,13.72,1.48,17.62,2.03h.01s4.36.67,4.36.67h0s1,.16,1,.16h.19l.18.02c.16.03.33.05.49.05,1.24,0,2.35-.89,2.59-2.15.03-.17.05-.33.05-.49,0-1.24-.88-2.35-2.15-2.59Z"/>
    <path class="cls-3" d="M278.92,271.18h-.01s-.09-.02-.09-.02c-.07-.01-.17-.03-.3-.05-.26-.04-.64-.11-1.15-.19-1.01-.16-2.51-.4-4.51-.68-3.99-.56-9.95-1.32-17.87-2.07-15.84-1.51-39.53-3.01-70.98-3.01-54.61,0-87.98,4.51-95.96,5.7-1.14.17-1.74.27-1.87.29-1.28.21-2.19,1.33-2.19,2.59,0,.14.01.29.04.43h0c.21,1.29,1.33,2.2,2.59,2.2.14,0,.29-.01.44-.04.12-.02.23-.01.35.01h.19c4.21-.67,38.16-5.84,96.5-5.84,31.29,0,54.9,1.48,70.5,2.96,7.82.76,13.7,1.48,17.61,2.05h0c1.97.26,3.44.5,4.38.65h.03s.99.18.99.18h.17l.18.02c.16.03.33.05.49.05,1.24,0,2.35-.89,2.59-2.15.03-.17.05-.33.05-.49,0-1.24-.88-2.35-2.15-2.59Z"/>
    <path class="cls-3" d="M184.09,302.21c-54.61,0-87.98,4.51-95.96,5.7-1.14.17-1.74.27-1.87.29-1.28.21-2.19,1.33-2.19,2.59,0,.14.01.29.04.44h0c.21,1.28,1.33,2.19,2.59,2.19,0,0,0,0,0,0,.17-.13.38-.22.59-.22h.3c4.21-.67,38.16-5.84,96.5-5.84,1.42,0,2.57-1.15,2.58-2.58,0-1.42-1.15-2.57-2.58-2.58Z"/>
  </g>
  <path class="cls-3" d="M572.88,268.58v-105.42l-.8-.75c-.25-.23-1.68-1.52-5.41-3.37-3.74-1.85-9.78-4.24-19.19-6.62-18.82-4.76-51.22-9.51-105.9-9.51-54.68,0-87.08,4.77-105.9,9.51-14.12,3.56-20.67,7.1-23.23,8.87-.34.23-.78.24-1.12,0-2.61-1.77-9.14-5.33-23.14-8.87-18.82-4.76-51.22-9.51-105.9-9.51-54.68,0-87.08,4.77-105.9,9.51-16.47,4.14-22.63,8.29-24.18,9.58-.22.18-.35.31-.37.34l-.05.05-.79.75.12,327.68,23.43,21.57,1.36-.63s.08-.04.13-.07c.02-.01.04-.03.06-.04.45-.19,2.15-.84,5.77-1.75,3.62-.91,9.14-2.07,17.2-3.25,16.11-2.37,42.35-4.85,83.68-5.62h.02c4.75,0,9.3-.12,13.71-.12,47.3,0,73.52,4.94,87.7,9.73h0c4.75,1.45,9.26,3.61,13.38,6.39l.18.12c.75.52,1.43,1.14,2.03,1.83l.14.18c.04.06.06.12.09.19l.05.09s0,0,0,0c0,0,0,0,0,0l.66,1.2h22.42l.46-.84c.03-.23.13-.44.29-.6.01-.01.03-.02.04-.04,0,0,0-.02.01-.03.15-.19.33-.41.58-.64h0s.02-.02.03-.03c0,0,0,0,0,0h0c1.93-1.88,7.85-6.27,23.14-10.19,15.37-3.94,40.15-7.35,79.62-7.35,4.39,0,8.97,0,13.76.12h0c43.73.81,70.57,3.53,86.39,6.02,0,0,0,0,0,0h0s0,0,0,0c5.46.8,10.86,1.91,16.2,3.31,1.58.41,2.67.78,3.29,1h.02s.63.24.63.24c.05.01.11.01.15.03l1.56.72.59-.55,1.62-1.3,21.49-19.65v-221.87c-.07-.14-.12-.29-.12-.45ZM314.7,302.79h0v-135.83c0-.31.14-.6.38-.79.92-.72,6.79-4.92,23.94-9.05,18.54-4.46,50.25-8.82,102.9-8.83,54.39,0,86.39,4.65,104.65,9.26,6.24,1.44,12.32,3.53,18.13,6.24h0c.93.45,1.81.95,2.67,1.48.3.18.48.5.48.85v311.4c0,1.23-.5,2.4-1.38,3.25h0c-.87.83-2.01,1.3-3.21,1.31h-.05c-.59,0-1.17-.13-1.71-.36h0c-14.81-5.98-48.17-14.4-119.79-14.4-54.78,0-87.1,4.91-105.94,9.91-9.76,2.59-15.89,5.19-19.6,7.16-.31.16-.68.15-.98-.03s-.48-.51-.48-.86v-180.71ZM55.94,479.03V166.36c0-.34.17-.65.45-.84,2.21-1.45,8.65-4.99,23.13-8.48,18.54-4.46,50.15-8.8,102.9-8.8,54.39,0,86.39,4.65,104.65,9.26h0c6.24,1.44,12.32,3.53,18.13,6.24h0c1.18.57,2.32,1.21,3.41,1.93h0c.26.17.44.32.55.41.24.19.38.48.38.78v135.93h0v180.91c0,.35-.18.68-.49.86s-.68.19-.99.02c-3.67-1.99-9.89-4.68-19.97-7.35-18.81-4.98-51.23-9.91-105.94-9.91-73.83,0-107.09,8.94-121.2,14.96h-.01c-.45.19-.93.29-1.42.29h-.01c-.93,0-1.82-.36-2.49-1.01h0s0,0,0,0c0,0,0,0-.01-.01h0c-.68-.64-1.06-1.53-1.06-2.46v-.06ZM567.85,488.12c0,.28-.12.55-.32.74l-10.11,9.74c-.21-.07-.44-.14-.7-.22-1.19-.37-2.96-.89-5.33-1.52-4.74-1.25-11.87-2.91-21.49-4.56-19.25-3.31-48.5-6.61-88.6-6.61-54.04,0-84.16,4.91-100.95,9.92l-.57.16c-5.62,1.58-11.02,3.9-16.03,6.9-1.08.62-2.06,1.4-2.94,2.3-.19.2-.45.31-.73.31h-16.18c-.27,0-.53-.11-.72-.31-.88-.9-1.86-1.68-2.93-2.3l-.05-.03c-4.62-3.03-13.72-7.24-31.8-10.73-18.08-3.49-45.16-6.25-85.64-6.25-71.64,0-108.99,10.64-116.13,12.91l-10.03-9.42c-.34-.31-.42-.81-.2-1.21.22-.4.68-.61,1.13-.49.69.18,1.41.28,2.14.28h.07s0,0,0,0c1.2,0,2.38-.25,3.48-.71h0c13.1-5.61,45.61-14.55,119.1-14.55,54.39,0,86.37,4.77,104.61,9.74,6.26,1.5,12.33,3.69,18.11,6.53h0c1.19.59,2.34,1.27,3.42,2.03h0s.6.44.6.44l.12.1.66.66h4.23l.66-.66.03-.03c.17-.16,5.56-4.98,24.06-9.6,18.51-4.63,50.25-9.28,102.76-9.28,71.22,0,104,8.42,117.84,14.02h0c1.19.5,2.45.74,3.69.74,1.15,0,2.3-.21,3.38-.61.31-.11.65-.07.92.12s.43.49.43.82v.62Z"/>
  <g>
    <polygon class="cls-5" points="498.89 81.38 496.43 81.32 493.98 81.42 491.52 81.38 489.07 81.51 486.63 81.9 484.17 81.96 481.77 82.53 479.31 82.62 476.88 83 474.47 83.44 472.07 83.93 469.6 84.11 467.24 84.79 464.86 85.39 462.5 86.07 460.08 86.51 457.76 87.32 455.42 88.05 453.05 88.68 450.74 89.5 448.4 90.24 446.14 91.21 443.86 92.11 441.59 93.04 439.35 94.03 437.09 94.99 434.93 96.17 432.84 97.45 430.54 98.36 428.4 99.56 426.32 100.87 424.3 102.26 422.12 103.4 420.2 104.95 418.14 106.28 416.23 107.82 414.14 109.13 412.2 110.63 410.4 112.3 408.45 113.8 406.61 115.41 404.81 117.08 403.11 118.85 401.26 120.47 399.49 122.17 397.96 124.09 396.23 125.84 394.69 127.75 393.07 129.59 391.64 131.59 390.12 133.52 388.73 135.54 387.41 137.61 386.17 139.73 384.87 141.8 383.61 143.91 382.53 146.11 381.32 148.24 380.07 150.36 379.05 152.59 378.03 154.83 377.35 157.2 376.51 159.5 375.75 161.83 374.94 164.14 374 166.42 373.57 168.84 372.9 171.2 372.35 173.6 371.97 176.02 371.51 178.43 371.34 180.88 370.96 183.31 370.83 185.76 370.66 188.2 370.47 190.65 370.32 193.1 370.63 195.54 370.61 197.98 370.8 200.41 370.84 202.86 371.28 205.27 371.7 207.67 372.01 210.09 372.38 212.5 373.02 214.86 373.58 217.23 374 219.65 374.64 222 375.72 224.22 376.51 226.53 377.37 228.8 378.02 231.17 379.09 233.37 380.02 235.63 381.03 237.85 382.26 239.97 383.56 242.03 384.78 244.14 386.02 246.25 387.19 248.39 388.48 250.46 390.15 252.28 391.46 254.34 392.97 256.26 394.51 258.15 395.94 260.13 397.66 261.88 399.28 263.7 400.98 265.45 402.68 267.2 404.57 268.76 406.36 270.41 408.22 271.98 409.94 273.72 411.76 275.36 413.7 276.84 415.69 278.26 417.74 279.59 419.72 281.01 421.83 282.24 423.85 283.6 425.85 285.01 427.91 286.32 430.02 287.54 432.2 288.66 434.38 289.75 436.62 290.72 438.84 291.74 441.01 292.85 443.26 293.81 445.52 294.73 445.71 297.18 445.84 299.65 445.18 302.05 444.68 304.45 444.13 306.87 442.92 309.03 441.79 311.22 440.65 313.41 439.22 315.42 437.63 317.31 435.92 319.08 434.19 320.83 432.46 322.57 430.63 324.22 428.59 325.61 426.66 327.16 427.21 329.34 429.62 329.47 432.03 329.41 434.44 329.2 436.85 329.25 439.25 328.91 441.65 328.78 444.05 328.51 446.47 328.42 448.82 327.78 451.19 327.35 453.57 326.91 455.91 326.34 458.33 326.05 460.63 325.27 462.97 324.66 465.18 323.66 467.47 322.87 469.67 321.87 471.84 320.79 473.93 319.58 475.97 318.29 478.06 317.07 479.89 315.48 481.67 313.86 483.44 312.22 484.99 310.38 486.67 308.63 487.91 306.55 489.15 304.45 491.6 304.5 494.03 304.64 496.46 304.75 498.89 304.99 501.34 304.9 503.8 304.83 506.25 304.83 508.7 304.64 511.15 304.42 513.6 304.25 516.04 303.98 518.47 303.59 520.89 303.18 523.3 302.73 525.75 302.49 528.14 301.94 530.57 301.55 532.9 300.74 535.31 300.28 537.69 299.68 540.02 298.93 542.37 298.22 544.72 297.51 547.03 296.69 549.35 295.89 551.64 295.02 553.93 294.13 556.14 293.06 558.44 292.19 560.66 291.16 562.84 290.02 565.04 288.95 567.16 287.71 569.28 286.48 571.41 285.27 573.49 283.96 575.67 282.82 577.6 281.28 579.76 280.1 581.63 278.49 583.65 277.1 585.65 275.67 587.57 274.14 589.22 272.29 591.28 270.92 593.05 269.22 594.84 267.54 596.39 265.62 598.21 263.97 599.74 262.04 601.53 260.35 603.08 258.45 604.69 256.6 606.08 254.57 607.5 252.57 608.92 250.57 610.32 248.56 611.55 246.44 613.04 244.48 614.3 242.38 615.21 240.07 616.47 237.97 617.73 235.85 618.75 233.62 619.52 231.28 620.38 228.99 621.26 226.7 622.1 224.4 623.02 222.12 623.69 219.76 624.14 217.34 624.77 214.97 625.3 212.58 625.96 210.21 626.25 207.77 626.37 205.31 626.95 202.91 627.09 200.46 627.18 198 627.32 195.55 627.23 193.1 627.31 190.65 627.25 188.19 626.84 185.76 626.7 183.31 626.41 180.88 626.05 178.46 625.94 175.99 625.44 173.58 624.94 171.18 624.23 168.83 623.44 166.5 622.81 164.13 622.32 161.72 621.23 159.5 620.45 157.17 619.48 154.92 618.67 152.6 617.68 150.36 616.47 148.22 615.32 146.05 614.18 143.88 612.8 141.85 611.7 139.65 610.45 137.54 609 135.55 607.58 133.55 606.01 131.66 604.59 129.66 603.03 127.77 601.5 125.85 599.83 124.06 598.08 122.34 596.55 120.41 594.79 118.7 592.94 117.08 591.27 115.28 589.2 113.92 587.39 112.27 585.62 110.54 583.68 109.05 581.54 107.81 579.56 106.36 577.69 104.77 575.59 103.48 573.45 102.29 571.4 100.94 569.31 99.66 567.24 98.34 564.93 97.46 562.8 96.24 560.68 94.99 558.38 94.12 556.17 93.04 553.9 92.12 551.6 91.26 549.29 90.44 547.03 89.5 544.72 88.67 542.41 87.84 540.07 87.09 537.72 86.39 535.33 85.82 532.9 85.44 530.53 84.78 528.14 84.24 525.75 83.66 523.33 83.28 520.88 83.09 518.47 82.61 516.03 82.34 513.57 82.26 511.16 81.7 508.71 81.54 506.26 81.36 503.8 81.35 501.34 81.55 498.89 81.38"/>
    <path class="cls-2" d="M498.79,83.38c-2.41-.07-4.87.08-7.31.01h.14s-2.45.13-2.45.13l.21-.02-2.43.39-.13.02h-.14s-2.46.07-2.46.07l.42-.05-2.4.57-.39.05c-3.02,0-5.96.71-9.36,1.38l-.12.03h-.15s-2.46.2-2.46.2l.42-.08c-2.4.73-4.82,1.28-7.2,2.01l-.11.02-2.42.44.31-.08c-2.12.66-5.43,1.91-7.01,2.19-1.16.44-3.53,1.24-4.72,1.59-.55.32-4.15,1.72-5.5,2.28-1.59.57-4.59,2.09-5.43,2.33l-2.11,1.16-2.04,1.26-.16.1-.18.07-2.29.91c-.82.39-4.28,2.57-5.91,3.76l-.12.06-2.18,1.15.36-.23-1.91,1.55-.09.07-.1.07-2.06,1.33c.77-.6-1.8,1.47-1.72,1.41l-.21.15-2.08,1.32.17-.12-1.94,1.5.15-.13-1.8,1.67-.07.06c-1.74,1.27-3.91,3.2-5.45,4.69l-1.66,1.73-.06.06-.07.07c-.9.77-2.69,2.4-3.53,3.26l.2-.22-1.53,1.93-.16.18-1.72,1.75.15-.17-1.57,1.95-1.64,1.88.14-.18c-2.57,3.46-5.05,6.72-7.14,10.5-2.29,3.33-3.5,6.53-5.79,10.09l.12-.22-2.04,4.48.12-.31-.68,2.37-.05.15-.83,2.27c-.66,2.12-1.67,5-2.56,7.04l.13-.46-.44,2.42-.02.12-.03.1c-.36,1.14-.98,3.47-1.23,4.64-.17.84-.51,3.34-.85,4.74l.03-.25-.19,2.45v.11s-.02.08-.02.08l-.4,2.42.02-.22c-.16,3.26-.51,6.54-.7,9.81v-.38s.28,2.44.28,2.44l.02.15v.13s-.04,2.44-.04,2.44v-.18s.17,2.5.17,2.5l.03,2.5-.03-.33c.53,2.85,1.12,6.91,1.49,9.71.31.91,1.45,5.8,1.5,6.95l.62,2.36-.12-.31,1.05,2.23c.56,1.58,1.06,3.18,1.67,4.74l.03.09.02.07.62,2.38-.11-.3c1.15,2.15,1.92,4.59,2.96,6.76.73,1.42,2.57,4.22,3.61,6.18.95,1.72,3,5.3,3.45,6.11l1.64,1.83.15.2,1.29,2.08c.81,1.09,3.69,4.61,4.24,5.62.86.89,2.54,2.68,3.32,3.63l3.34,3.52c1.52,1,3.65,3.45,5.48,4.83.81.9,2.54,2.58,3.45,3.37,2.06,1.71,5.39,3.85,7.82,5.64,1.78.83,4.21,2.76,6.07,4.03,6.06,3.97,12.79,6.86,19.43,9.78l.45.19.03.48.17,2.47.06,1.24c-.01.41.06.82.33,1.22l-.04.33c.24.7-.03,1.25-.18,1.84-.54,1.89-.72,3.88-1.34,5.76-1.25,2.17-2.38,4.4-3.62,6.61l-1.46,1.99-.04.05c-1.43,1.74-3.54,3.84-5.21,5.42l-1.77,1.76-1.86,1.66-.06.05-.06.04-2.05,1.37.07-.05-1.93,1.56.36-1.08.56,2.18-.98-.81,2.41.11h-.08s2.38-.07,2.38-.07l2.37-.22h.12s2.41.03,2.41.03h-.18s2.39-.34,2.39-.34h.09c1.21-.05,3.55-.27,4.73-.44h.04s.05,0,.05,0l2.42-.1-.27.04,2.34-.65.1-.02c2.24-.43,5.01-.9,7.16-1.5l2.42-.3-.26.06,2.29-.81h.03s.06-.03.06-.03l2.34-.63-.21.07,2.2-1.02.04-.02.07-.02,2.28-.82c2.7-1.03,8.06-4.45,10.07-5.63,1.82-1.56,3.53-3.21,5.29-4.86l-.13.14,1.57-1.9,1.7-1.79-.22.29,2.43-4.2.47-.81c1.66,0,4.24.02,5.91.13,1.23.02,3.71.17,4.94.3h-.23c1.97-.09,5.89-.28,7.28-.24,5.66-.49,11.46-1.03,16.99-2.27l2.45-.26-.25.04c1.21-.32,3.69-.82,4.94-1l-.34.09,2.33-.82.11-.04c7.13-1.46,13.98-4.06,20.78-6.68l-.16.07,2.21-1.07c3.02-1.03,5.73-2.59,8.89-4.13l-.15.08,4.25-2.49,2.09-1.2,2.03-1.29.08-.05.09-.05,2.18-1.14-.38.25,1.92-1.55.15-.12.18-.1,2.16-1.19-.39.27,1.87-1.61c2.05-1.45,4.07-2.81,5.99-4.43l-.29.27,1.65-1.85.2-.22.25-.17,2.06-1.38-.33.26c1.18-1.15,2.37-2.29,3.57-3.41-.85.98,1.41-1.78,1.32-1.68l.11-.14.14-.13,1.82-1.65-.27.29,1.52-1.93.1-.13.13-.12,1.78-1.7-.21.22,1.57-1.94,1.64-1.88-.18.23c.92-1.37,1.86-2.73,2.82-4.07l2.8-4.01-.11.18,1.22-2.13.08-.13.09-.13,1.49-1.96-.15.22,1.27-2.1c-.6,1.38.75-2,.72-1.93l.07-.19.1-.17,2.52-4.22-.12.24,1.02-2.23-.1.25c1.16-3.48,3.21-8.94,4.24-11.39l.67-2.36-.05.22c.54-3.26,1.49-6.54,2.31-9.75-.21,1.36.24-2.18.22-2.08v.18s.1-2.46.1-2.46v-.23s.07-.23.07-.23l.58-2.4-.06.44c.2-2.05.19-5.9.36-7.13-.19-2.4.06-5-.08-7.39l.03.34-.4-2.43c-.12-1.26-.12-2.56-.31-3.79-.11-1.23-.37-2.53-.52-3.8l-.11-2.47.05.38-.99-4.8.05.2c-.33-1.18-1.08-3.52-1.49-4.68l-.66-2.53-.5-2.48.2.59-1.08-2.22-.07-.15-.05-.14-.78-2.33.07.18-.99-2.34-.83-2.4.07.19-.99-2.25.1.21c-.98-1.77-2.99-5.41-3.38-6.32l-1.37-2.04-.09-.13-.07-.13-1.09-2.2.09.15-1.25-2.11.12.18c-.73-1.09-2.46-3.33-2.76-3.88l-1.57-1.89-.06-.08-.05-.07-1.41-2.01c-.44-.55-2.18-2.59-3.01-3.72l.12.14c-.79-.91-2.47-2.62-3.34-3.45l-.11-.1-.08-.11-1.53-1.93.2.22c-.83-.87-2.59-2.48-3.51-3.25l-.1-.09-.08-.09-1.66-1.81.42.36-2.07-1.37-.15-.1c-1-.88-2.81-2.61-3.75-3.55l.2.17-1.94-1.5.24.16-2.13-1.24-.2-.13-1.98-1.45-.07-.05-.06-.05-1.87-1.6c1.11.73-1.86-1.12-1.77-1.06-2.9-1.53-5.61-3.51-8.42-5.21l.4.2-2.31-.89c-1.57-.8-3.06-1.75-4.58-2.65l.34.16-2.3-.88-.11-.04-.07-.03c-7.08-3.19-15.06-6.31-22.59-8.2l.16.03-2.43-.39-.12-.02-.12-.03c-3.26-.9-6.29-1.7-9.32-2.13l.16.02-2.45-.2h-.13s-.11-.03-.11-.03l-2.41-.48.17.03-2.44-.28h.16s-2.46-.07-2.46-.07h-.21s-.19-.05-.19-.05l-2.41-.57.33.05c-1.77-.15-6-.42-7.06-.37l-2.46.19h-.15s-.14,0-.14,0l-2.41-.17ZM498.98,79.39l2.49.16h-.3s2.46-.2,2.46-.2c2.3-.09,5.51.21,7.82.34l.17.04,2.41.55-.4-.05,2.46.07h.08s.09.01.09.01l2.44.27h.08s.09.03.09.03l2.41.47-.24-.03,2.45.19h.07s.08.02.08.02l2.43.37c2.06.46,6.01,1.37,7.15,1.76,2.9.36,5.9,1.16,8.67,2.08,5.87,2.06,11.8,4.05,17.44,6.71l-.18-.08,2.3.86c1.54.82,3.02,1.78,4.56,2.61l-.31-.14,2.31.87.2.08c1.97,1.12,4.92,3.13,6.3,3.99,1.22.68,3.47,1.9,4.61,2.72l1.88,1.59-.13-.1,1.98,1.44-.2-.13,2.14,1.23.24.16,1.95,1.49.1.08.1.1,1.73,1.69,1.79,1.62c-1.1-.8,1.87,1.2,1.79,1.13l.23.15.19.21,1.68,1.8-.18-.17,1.9,1.65,1.81,1.75.1.1.09.12,1.54,1.92-.19-.21,1.79,1.75,1.71,1.83.07.07c1.5,1.94,3.29,3.92,4.66,5.97l-.11-.15,1.58,1.88c1.02,1.43,2.06,2.85,3.09,4.28l1.26,2.11.04.07.04.08,1.1,2.2-.16-.27,1.38,2.03.13.23c1.17,2.21,2.29,4.36,3.53,6.49l.06.12,1,2.24.07.19.79,2.24.94,2.18.04.08.03.1.79,2.32-.12-.29,1.1,2.22.14.27.06.31.48,2.34.6,2.22c.43,1.2,1.19,3.56,1.54,4.79l.02.1,1,4.82.04.19v.19s.12,2.47.12,2.47l-.02-.25c.39,2.03.8,6.17.79,7.27l.4,2.43.03.17v.17c.1,2.39-.06,4.96.08,7.33-.15,2.57-.21,5.18-.39,7.82l-.05.2-.58,2.4.07-.46-.12,2.46v.09s-.01.09-.01.09l-.3,2.44-.02.17-.05.18c-.47,2.06-1.44,5.53-1.77,6.93l-.45,2.42-.02.11-.03.11-.67,2.36c-1.44,3.79-3.05,7.74-4.31,11.61-.12.34-1.07,2.4-1.24,2.72l-2.52,4.22.18-.36-.9,2.3-.08.19-.11.18-1.27,2.1-.07.11-.08.1-1.49,1.96.17-.26-1.23,2.12-.06.1-.06.08c-1.69,2.45-4.09,5.69-5.72,8.12l-.1.11-1.6,1.81-1.53,1.86-.1.12-.11.1-1.79,1.69.23-.25-1.53,1.92-.13.16-.14.13-1.83,1.64c.94-1.05-1.37,1.71-1.3,1.64l-.11.14-.11.1c-1.25,1.15-2.48,2.32-3.7,3.5l-.18.12-2.06,1.36.45-.39-1.66,1.84-.14.16-.15.11c-1.57,1.33-4.94,3.71-5.89,4.29-.29.21-1.97,1.75-2.27,1.87l-2.17,1.18.33-.22-1.93,1.54-.18.15-.2.1-2.19,1.13.17-.1-2.12,1.33c-1.39.78-5.05,2.89-6.48,3.72-2.64,1.28-6.88,3.53-9,4.13l-2.21,1.06-.08.04-.08.03c-6.96,2.67-14.09,5.2-21.45,6.59l.29-.08-2.34.78-.19.06-.16.02-2.36.36-2.34.51-.14.03h-.11s-2.45.23-2.45.23c-4.67,1.03-11.66,1.65-17.1,1.93-2.17-.03-5.25.02-7.45.08h-.13s-.09,0-.09,0l-2.38-.26-2.4-.14c-1.2-.1-3.61-.22-4.81-.23l1.44-.81-2.53,4.15-.1.17-.12.12-1.66,1.68-1.54,1.79c-1.88,1.73-3.8,3.52-5.82,5.12-4.04,2.44-8.93,5.37-13.07,6.54l-2.22.98-.11.05-.1.02-2.35.59.09-.03-2.3.76-.14.05h-.12s-2.42.28-2.42.28c-1.25.47-5.12,1.02-7.02,1.39l.1-.02-2.35.62-.14.04h-.13s-2.42.08-2.42.08h.09s-2.43.25-2.43.25l-2.44.12h.09s-2.39.31-2.39.31h-.1s-.08.01-.08.01l-2.41-.06h.12s-2.44.19-2.44.19l-2.45.05h-.05s-.04,0-.04,0l-2.41-.14-.8-.05-.19-.76c-.17-.6-.55-2.31-.7-2.84l.52-.42,1.93-1.56.03-.03.04-.03,2.03-1.39-.12.09,1.8-1.64c2.31-2.38,4.66-4.66,6.57-7.16l-.06.08,1.4-2.03-.09.15c1.05-2.09,2.28-4.65,3.44-6.61l-.14.36c.27-1.2.55-2.39.8-3.63.35-1.23.3-2.56,1.23-3.57l-.04.33c.41-.69.12-1.73.12-2.47l-.21-2.45.49.67c-2.26-.89-4.6-1.8-6.75-2.96-4.45-1.95-9.05-3.97-13.15-6.69-2.03-1.42-3.97-2.78-6.11-3.91-2.59-1.89-5.67-3.67-8.14-5.69-.96-.81-2.79-2.51-3.66-3.42-1.43-1.25-3.85-3.26-5.61-4.73l-3.46-3.48c-.8-.94-2.52-2.7-3.41-3.56-1.44-2.06-3.12-3.91-4.67-5.91l-1.34-2.05.15.2-1.68-1.8-.08-.09c-2.64-4.24-5.08-8.52-7.73-12.75-1.12-2.24-1.97-4.63-3.17-6.82l-.05-.17-.67-2.36c-.45-.68-1.13-3.15-1.67-4.46l.08.19-1.1-2.21-.07-.13-.05-.18-.67-2.35-.02-.06c-.39-2.42-.97-4.71-1.68-7.06-.51-2.99-1.03-6.96-1.67-9.95,0-1.28-.11-3.66-.26-4.93v-.07s0-.1,0-.1v-2.44s.03.28.03.28l-.33-2.44c.06-3.4.46-6.77.56-10.17v-.09s.02-.13.02-.13l.37-2.43-.02.18.15-2.45c.28-1.69.61-3.38.83-5.08l.02-.1.55-2.45.67-2.42-.05.21.43-2.42.04-.23.09-.22.91-2.21c.63-1.77,1.86-5.62,2.34-6.78l.68-2.37.04-.16.07-.16,2.02-4.46c1.28-2.2,2.55-4.29,3.61-6.6,2.31-3.75,4.41-7.61,7.05-11.15.98-1.19,1.8-2.4,2.68-3.59.9-.97,2.42-2.83,3.27-3.85l1.73-1.74-.16.18,1.54-1.92c.94-1.03,2.84-2.7,3.9-3.6l-.13.13c1.9-2.09,5.7-5.46,7.39-6.62l1.81-1.66.08-.07.07-.06,1.95-1.49.09-.07.08-.05,2.08-1.31-.21.15,1.91-1.54.1-.08.09-.06,2.07-1.32-.19.14,1.92-1.54.17-.14.19-.1,2.18-1.14c.84-.81,4.45-2.88,6.32-3.93l.14-.05,2.3-.9-.34.17c1.05-.68,3.23-1.94,4.35-2.51,2.75-1.25,5.88-2.5,8.71-3.64,1.02-.38,1.98-.85,2.99-1.24,1.16-.35,3.46-1.1,4.59-1.53,2.46-.64,4.82-1.36,7.21-2.22l.15-.03,2.42-.43-.21.05c2.51-.71,5.02-1.39,7.53-2.02l2.46-.17c1.09-.31,5.2-1.01,7.31-1.3l2.46-.09-.39.05,2.41-.56.21-.05h.21s2.46-.06,2.46-.06l-.27.02,2.43-.38.11-.02h.1s2.45-.13,2.45-.13h.14c2.4.07,4.99-.09,7.43.02Z"/>
    <g class="cls-8">
      <g>
        <path class="cls-7" d="M501.5,127.94c-12.89-.54-35.81,27.67-33.64,58.6,2.17,30.93,10.31,32.01,10.31,32.01l-11.94,17.36s7.6,20.62,30.93,20.08c23.33-.54,26.59-14.11,26.59-14.11l-4.88-4.34s16.28-6.51,20.62-24.96c4.34-18.45,2.71-24.96,3.26-35.27s-2.17-47.75-41.24-49.38Z"/>
        <path class="cls-6" d="M390.11,335.05s14.35,10.76,24.69,5.49c0,0-5.49,12.24-14.56,7.39-9.07-4.85-10.13-12.87-10.13-12.87Z"/>
        <path class="cls-7" d="M505.8,201.66s-17.83,1.49-22.66,7.06c0,0,5.94-25.63,22.66-7.06Z"/>
        <path class="cls-7" d="M520.66,200.55s12.26-2.6,16.71,2.6c0,0-2.97-19.31-16.71-2.6Z"/>
        <path class="cls-6" d="M575.81,324.91s14.35,10.76,24.69,5.49c0,0-5.49,12.24-14.56,7.39-9.07-4.85-10.13-12.87-10.13-12.87Z"/>
        <g>
          <path class="cls-7" d="M466.23,235.91l-22.79,12.92s-20.74,4.67-25.93,28.52c-5.19,23.85,11.41,36.3,11.93,43.56.52,7.26.69,15.77-8.99,24.74,0,0,5.88,10.3,24.55-15.63l-4.67,45.34s55.49,22.82,121.34-6.74l-2.59-54.97s9.33,19.71,25.93,23.34c0,0-14.58-8.6-9.88-28.67,0,0,7.81-32,5.22-45.48-2.59-13.48-25.41-14-30.08-15.56s-26.52-5.4-26.52-5.4c0,0-33.16,38.15-57.51-5.97Z"/>
          <path class="cls-4" d="M475.13,256.64c.82.91,1.39,1.69,2.53,2.14.34.14.7.26,1.03.41.32.14.23.11.32.16.57.37,1.07.9,1.67,1.22.89.48,2.07.67,3.06.93,1.19.31,2.29.68,3.44,1.13.97.38,1.87.83,2.9.99,1.19.18,2.37.42,3.57.6,2.28.35,4.63.48,6.93.41,1.2-.03,2.36-.09,3.51-.41.61-.17,1.25-.28,1.78-.63.64-.42,1.23-.97,1.83-1.44.85-.67-.25-2.08-1.15-1.5-.5.32-1.02.62-1.5.96-.24.17-.52.3-.27.21-.36.13-.77.2-1.14.29-.28.07-.56.15-.84.21-.36.08.29-.03.06,0-.13.02-.28.01-.41.02-.58.01-1.17.07-1.75.1-2.21.1-4.4-.04-6.6-.25-.93-.09-1.86-.24-2.79-.32-1.56-.13-1.91-.24-3.47-.75-2.01-.65-4.04-1.15-6.07-1.73-.3-.08-.4-.14-.43-.15-.32-.18-.6-.44-.9-.66-.49-.36-.89-.63-1.45-.85-.39-.15-.77-.32-1.16-.46-.1-.04-.24-.08-.34-.14-.32-.17.33.3.09.03-.46-.53-.95-1.05-1.42-1.57-.62-.69-1.64.33-1.02,1.02Z"/>
        </g>
        <g>
          <path class="cls-4" d="M492.28,178.08s0,.02-.01.03l-.08.22c.01.06.03.12.04.18.24-.06.17-.27.06-.43Z"/>
          <path class="cls-4" d="M531.1,175.61s0,0,0,0c0,0,0-.01.01-.02,0,0-.01.01-.02.02Z"/>
          <path class="cls-4" d="M559.08,169.46s0-.09,0-.14c0,.04,0,.08,0,.11,0,.01,0,.02.01.03Z"/>
          <path class="cls-4" d="M515.11,216.72c2.23.27,4.96.38,6.99-.76,1.02-.57,2.07-1.13,3.04-1.78,1.18-.79,1.93-1.66,2.92-2.66.53-.53.32-1.58-.46-1.74-.38-.08-.76-.16-1.14-.24-.25-.05-.62-.19-.88-.18,0,0,0,0,0,0-.44-.59-1.44-1.16-2.03-1.56-.45-.3-.91-.59-1.36-.87-.12-.08-.16-.1-.16-.1-.22-.17-.44-.36-.66-.53-.32-.26-.66-.5-.99-.75-.03-.04-.05-.08-.1-.15-.17-.28-.37-.54-.56-.8-.51-.74-.99-1.56-1.57-2.24-.09-.1-.14-.18-.17-.22-.01-.12-.02-.24-.03-.35-.07-.53-.07-1.1-.18-1.63-.07-.36-.21-.69-.34-1.04-.1-.28-.2-.56-.31-.83-.01-.03-.15-.45-.16-.4-.07-.48,0-1.04,0-1.53,0-.61-.04-.43.07-.94.29-1.37.41-1.86.96-3.15.36-.84.79-1.64,1.2-2.45.42-.83-.82-1.56-1.24-.73-1.74,3.43-3.37,6.96-1.8,10.77.21.51.16.31.2.92.03.53-.03,1.13.08,1.65.17.85.85,1.65,1.28,2.39.46.78.84,1.67,1.5,2.31.7.68,1.47,1.3,2.29,1.84.27.18.55.37.82.55.1.06.2.13.3.2.02.01.02.01.03.02.49.39.95.84,1.45,1.23.43.33.92.5,1.44.61-.05.07-.1.14-.14.22-.07.06-.15.11-.22.17-.32.22-.62.47-.94.69-.89.63-1.86,1.14-2.76,1.77-.72.51-.6.48-1.38.62-.66.12-1.07.2-1.43.25-1.26.16-2.28.11-3.55-.04-.95-.12-.95,1.38,0,1.5Z"/>
          <path class="cls-4" d="M504.73,198.69c-.89-.86-1.76-1.6-2.77-2.31-.84-.59-1.87-.93-2.82-1.3-1.11-.43-2.03-.87-3.21-.69-2.02.3-4.5.33-6.36,1.2-1.07.5-1.94,1.06-2.72,1.92-.77.84-1.7,1.56-2.45,2.41-1.61,1.82-2.18,4.42-2.64,6.72-.18.91,1.21,1.29,1.39.38.19-.94.33-1.9.68-2.8.17-.44.46-1.27.57-1.49.14-.27.65-1.06.92-1.52.07-.12.17-.26.18-.27.15-.16.34-.3.5-.45.38-.34.78-.66,1.15-1.02.43-.41.85-.84,1.25-1.28l.19-.2s0,0,.02-.01c.25-.16.54-.28.81-.42.3-.15.59-.33.9-.46.04-.02.07-.03.09-.04.02,0,.06,0,.14-.02.62-.14,1.24-.26,1.86-.39.07-.01.08-.02.08-.02.06,0,.11-.02.17-.02-.07.32-.13.64-.2.95-.1.45-.24.89-.12,1.35.16.61.34,1.22.52,1.83.08.27.12.55.36.73.18.14.41.18.62.24l1.85.52c.41.12.82.06,1.24.04.07,0,.14,0,.22,0-.57.24-1.09.6-1.66.83-.02,0-.03.01-.05.02,0,0-.01,0-.05,0-.16.04-.32.06-.48.09-.45.08-.94.12-1.37.25-1.27.38-2.48,1.27-3.69,1.83-.08.04-.12.05-.13.06-.19.07-.4.12-.6.18-.42.12-.88.21-1.29.38-.68.29-1.27.87-1.87,1.3-.74.54-.02,1.79.73,1.24.46-.34,1.27-1.03,1.58-1.18.34-.17,1.36-.34,1.92-.56,1.29-.5,2.44-1.38,3.73-1.87,0,0,0,0,.01,0-.03.01-.03.02.1,0,.17-.04.35-.06.52-.09.41-.07.87-.11,1.27-.23.66-.2,1.26-.62,1.89-.91.21-.1.09-.05.54-.16.44-.11.89-.25,1.33-.33.03,0,.05,0,.07-.01,0,0,.01,0,.03,0,.16,0,.33.01.5.02.45.02.92.06,1.37.05,1.47-.05,3.01-.44,4.46-.71.48-.09.64-.69.44-1.07-.51-.95-.9-1.95-1.68-2.71ZM494.91,198.92c-.05-.06-.09-.12-.14-.18l.23-.48c.08.3.24.58.4.87-.16-.07-.32-.14-.49-.21ZM496.7,198.6s.02.02.03.03c-.06,0-.11-.03-.14-.08l.11.05ZM499.84,198.39c-.12-.11-.23-.22-.35-.33-.08-.1-.16-.2-.23-.3.17.22-.09-.12-.16-.2l-.16-.18c.33.16.66.32.99.47.17.24.34.48.51.73-.04.09-.08.18-.12.26-.16-.15-.31-.31-.49-.45ZM494.71,196.46c-.2.15-.44.3-.66.47.04-.17.07-.34.11-.51,0,0,0,0,0,0,.25-.03.5-.07.75-.1-.06.05-.13.1-.2.15ZM496.2,200.86h-.04s0,0,0,0c.02,0,.03,0,.05,0ZM492.34,196.66s.02,0,.04,0c-.06,0-.12.02-.04,0ZM499.78,201.64c.11-.05.21-.11.31-.15.22-.09.45-.16.66-.27.3-.15.48-.46.67-.72l.16-.22v.02s.1-.13.1-.13c.12-.14.24-.28.36-.43.19-.23.35-.47.51-.72.03-.05.05-.11.07-.16.17.15.34.31.52.46.28.25.6.49.87.77.01.02.02.02.02.02.06.1.12.21.17.31.15.27.3.54.45.82-1.09.22-2.3.46-3.13.49-.32.01-1.14-.1-1.75-.1Z"/>
          <path class="cls-4" d="M521.34,201.29c.13.28.41.47.79.33.56-.2,1.14-.38,1.68-.61l.16-.06s.07,0,.11,0c.36.03.73.02,1.1.03.46.01.89,0,1.35-.05.35-.04.71-.06,1.06-.11l.23-.02s.05.01.09.03c1.11.42,2.25.62,3.41.81.48.08.96.12,1.44.17.28.03.57.08.85.09l.24.14c.52.31,1.04.67,1.6.9.34.14.69.26,1.04.38.01.77,1.26,1.03,1.54.16-.05.17.01,0,.09-.19.04-.07.07-.15.09-.23.01-.04.03-.07.03-.09.12-.3.24-.6.34-.91.17-.51.14-.85.05-1.38-.18-1.05-.44-1.94-.82-2.94-.29-.76-.83-1.83-1.49-2.31-.76-.56-1.68-.97-2.53-1.36-.93-.43-1.81-.61-2.8-.84-.79-.18-1.6-.52-2.42-.46-.9.06-2.11.01-2.89.5-.79.5-1.58,1.03-2.33,1.59-.46.34-1.03.7-1.4,1.14-.36.43-.49,1.19-.67,1.71-.34.95-.67,1.9-1.01,2.85-.25.71.59,1.07,1.1.74ZM527.79,200.78c-.07,0-.07-.01,0,0h0ZM530.61,197.3s0-.02,0-.02c0,.03.02.05.03.08-.01-.02-.02-.04-.03-.05ZM533.5,201.83l.09.05c-.05-.01-.09-.03-.09-.05ZM533.78,201.9s.03,0,0,0h0ZM536.19,198.19l.05.15c.11.32.23.63.35.95.15.41.21.7.26,1.13.03.33.06.66.11.98-.01.02-.02.03-.03.06-.05.11-.09.23-.12.35-.27-.1-.53-.2-.8-.28-.02,0-.06-.02-.09-.04-.05-.03-.14-.08-.15-.09-.32-.2-.65-.38-.97-.56-.24-.14-.45-.24-.66-.31.13-.1.24-.22.33-.38.11-.2.22-.39.33-.59.2-.36.41-.71.59-1.07.21-.42.17-.96-.14-1.32,0-.17-.03-.35-.11-.5.05.03.11.06.16.09.09.33.72,1.13.86,1.34.01.02.04.06.05.09ZM534.34,196.22c-.23,0-.46.08-.67.25,0,0-.01,0-.02.01,0-.02-.02-.04-.02-.06l-.07-.28v-.06s-.03-.15-.03-.15l-.04-.1s0,0,0-.01l-.03-.09c.3.16.59.32.88.49ZM523.03,197.04c.05-.18.05-.09,0,0h0ZM522.99,197.09s-.06.04-.11.04c.02,0,.06-.01.11-.04ZM522.44,198.7c.18-.5.44-1.02.55-1.53,0-.04.01-.06.02-.09.16-.09.39-.29.47-.34.73-.47,1.43-1,2.15-1.48l.85-.56c-.12-.03-.21-.09-.04-.07l.17-.02.12-.08s.01.04.01.06h0c.29-.03.57-.06.86-.09,0,0,0,0,0,.01.02.75.05,1.5.07,2.26v.28c.03.27.15.44.33.61.09.08.18.17.26.25,0,0,0,0,0,.01-.03.4-.06.8-.08,1.2,0,.1.02.19.04.28-.87-.17-1.77.14-2.66.12-.62-.01-1.34-.14-1.95,0-.58.14-1.15.41-1.71.62.18-.49.35-.97.53-1.46Z"/>
          <path class="cls-4" d="M526.75,194.59h-.13s-.13.1-.13.1c.12.03.27.03.26-.1Z"/>
          <path class="cls-4" d="M523.49,183.7c.14.55.41.84.75,1.28.41.53.71,1.21,1.23,1.63.52.42,1.09.78,1.65,1.15.94.61,2.04.5,3.07.89,1.07.41,2.13.89,3.22,1.26,1.39.47,2.72.58,4.17.66,1.7.09,1.69-2.55,0-2.64-.46-.02-.91-.06-1.37-.08-.11,0-.34-.06-.48-.04l-.13-.03c-.88-.22-1.7-.45-2.54-.77-.8-.31-1.61-.63-2.44-.87-.69-.2-1.46-.24-2.19-.28-.51-.24-1.01-.49-1.53-.71-.12-.05-.24-.11-.37-.17-.17-.2-.53-.4-.69-.54-.31-.27-.58-.57-.87-.86,0,0,0,0,0,0l-.03-.11c-.12-.69-.36-1.37-.53-2.05-.23-.9-1.62-.52-1.39.38l.48,1.91ZM525,183.71l-.04-.15c.04.06.07.12.04.15ZM524.96,183.56c-.19-.2-.08-.11,0,0h0Z"/>
          <path class="cls-4" d="M483.63,194.06c.55-.07.87-.28,1.18-.37.37-.11.77-.22,1.14-.34.35-.12.66-.37.97-.57.23-.14.46-.28.69-.42.12-.07.26-.12.27-.13.68-.14,1.45-.16,2.07-.46.35-.17.68-.42,1-.62.2-.12.41-.24.6-.37.01,0,.01-.01.02-.02.01,0,.02,0,.03,0,.72-.15,1.48-.31,2.15-.61.41-.18.81-.36,1.22-.54.11-.05.23-.11.35-.15.04,0,.26-.04.33-.05.75-.13,1.47-.2,2.19-.46.38-.14.79-.26,1.16-.43.37-.17.58-.46.85-.76.59-.66,1.15-1.34,1.7-2.05.52-.66.46-1.71.57-2.52.12-.92-1.32-.91-1.44,0-.07.52-.14,1.05-.21,1.57-.31.4-.62.81-.95,1.2-.26.3-.53.59-.8.89l-.3.33c-.63.14-1.18.49-1.82.6-.61.1-1.25.14-1.85.3-.62.17-1.21.45-1.83.6-.66.16-1.41.15-2.04.39-.63.24-1.17.7-1.76,1-.01,0-.03,0-.05,0-.18.02-.35.06-.53.09-.41.07-.86.1-1.27.21-.3.09-.56.26-.83.41-.29.17-.77.33-1.07.55-.17-.02-.37-.02-.53-.04-.11-.01-.23-.02-.34-.02,0,0-.2-.02-.28-.02-.2-.04-.33-.13-.58-.1-.78.09-1.46.6-1.46,1.46,0,.72.67,1.56,1.46,1.46Z"/>
          <path class="cls-4" d="M517.94,227.31s.01.02.02.03c0,0,0-.02-.01-.02h0Z"/>
          <path class="cls-4" d="M520.05,230.98s.04.03.06.05c.5.48,1.38.02,1.36-.65,0,0,0,.02,0,.03,0-.01,0-.02,0-.04,0-.03-.01-.07-.02-.1-.06-.74-.58-1.39-.94-2.01-.3-.52-.59-1.05-.88-1.57-.31-.55-.74-.92-1.21-1.34-.21-.19-.43-.39-.66-.56-.35-.25-.66-.24-1.06-.26-.62-.04-1.24-.2-1.85-.05-.6.15-1.32.22-1.85.54-.57.34-1.3.75-1.72,1.26-.4.48-.78,1-1.13,1.51-.19.28-.35.59-.53.88-.18.29-.46.62-.55.96-.09.34-.04.77-.05,1.12-.01.34-.02.69-.03,1.03-.03.93,1.41.93,1.44,0,0-.27.02-.54.03-.82,0-.26.1-.68.05-.96l.15-.24.62-1.02c.28-.46.63-.88.95-1.31.06-.08.13-.16.19-.25.29-.15.56-.38.82-.56.15-.1.31-.2.45-.31.03-.03.05-.04.07-.05.3-.03.63-.16.92-.23.21-.05.43-.11.64-.16.03,0,.08,0,.14,0,.17.03.35.04.53.06.23.03.52.12.77.15.07.09.16.18.24.26.25.27.51.54.77.8l.17.17s-.02-.05,0,0l.07.07s-.04-.02-.06-.05c0,.02,0,.02.02.04.27.58.6,1.15.9,1.71.19.35.38.71.55,1.07.11.23.24.46.42.64l.15.12.06.05ZM513.76,226.25c.06-.04.05-.02,0,0h0Z"/>
          <path class="cls-4" d="M469.11,230.09c.05-.07.05-.11,0,0h0Z"/>
          <path class="cls-4" d="M551.43,247.2c-1.09-.3-2.17-.63-3.27-.92-1.18-.32-2.33-.72-3.5-1.06-1.4-.4-2.63-.5-4.07-.57-.08,0-.12,0-.16,0-.02-.02-.07-.04-.16-.07-.38-.15-.77-.28-1.15-.43-.59-.22-1.02-.3-1.65-.31-1.19,0-2.5.06-3.68-.16.05-.02-.53-.21-.62-.24-.38-.13-.76-.28-1.15-.41-.58-.18-1.17-.3-1.76-.44-1.08-.25-2.05-.8-3.12-1.03-.47-.1-.97-.19-1.45-.23-.12-.01-.25-.03-.37-.06,0,0,0,0,0,0-.02-.01-.03-.02-.06-.03-.61-.32-1.16-.77-1.77-1.1-.64-.35-1.37-.58-1.97-.99-.55-.37-1.01-.93-1.49-1.38-.02-.02-.04-.02-.06-.04,2.63-1.06,5.3-2.21,7.4-4.08.76-.68,1.36-1.27,1.91-2.13.15-.23.36-.48.47-.73h0c.4-.13.97-.65,1.28-.86,1.37-.92,2.26-2.71,3.08-4.11.93-1.57,1.97-3.07,2.78-4.7.43-.87.72-1.74,1-2.67.02-.08.04-.12.05-.15.1-.19.21-.38.31-.57.26-.47.55-.94.75-1.44.24-.62.43-1.25.62-1.89.62.22,1.36.09,1.79-.65.32-.55.69-1.09,1.03-1.63.1-.08.19-.16.29-.23.38-.26.72-.59,1.07-.89.92-.8,1.79-1.62,2.45-2.64.22-.34.51-.68.68-1.05.01-.02.01-.03.02-.04.04-.04.09-.09.15-.17.26-.3.53-.59.77-.91.11-.14.15-.21.17-.25.02-.01.02-.01.04-.03.61-.43,1.39-.86,1.92-1.4.5-.51.9-1.37,1.18-2.02.03-.07.04-.11.05-.14.33-.42.66-.84.99-1.26.35-.45.64-.9.94-1.38.19-.3.4-.6.57-.91,0,0,0,0,0,0,.06-.08.13-.15.19-.23.45-.54.99-1.08,1.35-1.69.72-1.24,1.27-2.66,1.66-4.03,0-.02,0-.02,0-.04.03-.02.05-.03.09-.07.28-.25.49-.65.72-.95.48-.64.66-1.17.85-1.94.31-1.25.66-2.51.85-3.79.08-.57.12-1.18.22-1.75.06-.11.22-.59.26-.71.13-.41.31-.83.4-1.25.5-2.39.04-5.35-.3-7.74-.06-.41-.14-.83-.18-1.24-.03-.35.04.22.04.23,0-.17,0-.33,0-.5.02-.83.05-1.61-.23-2.39-.15-.4-.35-.78-.53-1.17-.01-.03-.03-.06-.04-.1,0,.05-.03.1-.07.13.03-.02.04-.09.05-.16-.04-.1-.08-.21-.13-.3-.27-.47.08-.13.14.19.03-.51-.13-1.56-.14-1.76-.11-1.38-.31-2.79-.64-4.13-.15-.63-.4-1.17-.68-1.76-.11-.24-.22-.53-.35-.79-.02-.09-.03-.19-.04-.27-.32-2.61-1.34-5.09-2.01-7.64-.16-.59-.39-1.13-.63-1.7-.11-.27-.23-.53-.34-.8-.02-.12-.08-.6-.1-.71-.19-1.41-.64-2.5-1.2-3.81-.51-1.19-1.02-2.37-1.52-3.56-.02-.05-.04-.1-.07-.16,0-.01,0-.03-.02-.09-.08-.35-.18-.7-.28-1.05-.19-.73-.38-1.27-.78-1.9-.13-.2-.25-.41-.38-.61-7.27-17.17-18.78-26.73-28.25-31.67-.26-.17-.52-.34-.78-.51-2.07-1.33-4.73-2.23-7.12-2.82-2.27-.56-4.91-.62-7.23-.36-1.4.16-2.34.42-3.54,1.11-1.07.62-2.24,1.04-3.24,1.75-1.04.75-2.03,1.53-3.03,2.33-.11.09-.17.19-.2.29-1.12.86-1.74,1.48-1.74,1.48,0,0-4.15-8.3-16.59-5.19s-43.04,27.18-49.26,46.88c-6.22,19.71,7.78,51.86,19.71,65.86.02.02.04.05.07.07-.1.24-.1.52.13.77.88.98,1.73,1.83,2.74,2.68.86.72,1.58,1.58,2.47,2.27.47.36.92.79,1.44,1.08.59.33,1.27.48,1.86.82.59.34,1.06.87,1.64,1.23.52.32,1.13.52,1.69.76,1.14.48,2.27.92,3.48,1.19.62.14,1.22.25,1.85.32.4.04.79.08,1.19.12.01,0,.02,0,.03,0,.15.05.31.1.45.17.52.23,1.1.47,1.67.53l-.12.21-.13.22s.02-.04.03-.06c-.01.02-.03.04-.04.06-.26.28-.5.56-.76.84-.34.38-.64.73-.9,1.17-.19.31-.38.62-.56.93-.06.09-.14.2-.18.3,0,0,0,0,0,0-.24.2-.46.46-.68.69-.14.15-.58.46-.64.66,0,0,0,0,0,0-.07.05-.14.1-.21.15-.32.23-.64.45-.96.69-.41.31-.8.64-1.18.98-.25.22-.51.44-.76.67-.01.01,0,0-.02.02l-.21.13c-1.06.66-14.49,8.7-15.53,9.39-1.22.8-.15,1.89,1.08,1.08.92-.6,11.89-6.49,15.15-8.48.91-.55,1.54-1.37,2.34-2.07.1-.09.21-.18.32-.27.47.87.96,1.65,1.69,2.4l.23.27c.13.31.23.63.35.94.22.58.35.98.76,1.41.28.29.61.56.92.81.11.09.23.19.33.3.16.16-.19-.23.05.04.44.5.78,1.08,1.2,1.6.79.98,1.62,1.82,2.62,2.56.72.53,1.01,1.9,2.04,2.5.43.25,1.29.7,1.41.81.52.48.88,1.13,1.43,1.58,1.81,1.45,4.08,2.3,6.12,3.36,2.08,1.07,4.57,2,6.91,1.89.85-.04,2.07.19,3.21.42.59.12,1.24.35,1.84.3.61-.05,1.26-.37,1.85-.51.15-.04.19-.05.19-.05,0,0,.04,0,.19,0,.39-.03.78-.01,1.17-.02.58,0,1.05-.07,1.62-.2,1.17-.27,2.4-.34,3.57-.62,2.19-.54,4.31-1.63,6.25-2.73,2.28-1.3,4.49-2.55,6.46-4.3.25-.23.5-.47.77-.69.01,0,.39-.25.53-.35.58-.37,1.17-.7,1.67-1.17.46-.43.94-.89,1.36-1.37.44-.5,1.08-1.55,1.26-1.77.77-.95-.58-2.32-1.36-1.36-.7.86-1.55,1.68-2.32,2.48-.18.18-.35.38-.54.56-.02-.01-.44.31-.52.36-.5.32-1.02.62-1.48,1-.5.4-.96.87-1.43,1.3-.07.06-.09.09-.09.09-.02.02-.05.04-.09.07-.36.29-.74.57-1.11.85-.79.59-1.65,1.09-2.5,1.6-2.08,1.27-3.63,2.22-5.74,3.12-1.89.81-4.54,1.56-6.55,1.62-1.2.03-2.15.35-3.29.61.05-.02-.21,0-.47-.05-.36-.07-.72-.14-1.08-.21-.58-.11-1.16-.21-1.75-.3-.44-.07-.84-.14-1.28-.14-.41,0-.83.03-1.24.06-.45.03-.36.03-.58-.03-1.17-.3-2.45-.73-3.58-1.14-.6-.22-2.07-1.03-3-1.44-.98-.43-1.84-1.02-2.75-1.57-.34-.21-.69-.42-1.04-.63-.18-.11-.45-.3-.38-.24-.49-.44-.82-1.07-1.33-1.5-.42-.36-1.02-.63-1.51-.87-.1-.05-.21-.11-.32-.17-.27-.37-.48-.81-.71-1.2-.62-1.04-1.74-1.59-2.54-2.49-.82-.92-1.33-1.87-2.33-2.83-.31-.3-.71-.75-1.08-.96-.07-.04-.12-.05-.15-.06,0-.03-.01-.08-.03-.15-.19-.66-.44-1.43-.82-2-.36-.56-.95-.98-1.33-1.53.09.13-.32-.65-.39-.8l-.22-.42s0,0,.01-.01c.4-.39.73-.87,1.08-1.31.32-.4.57-.8.82-1.24.17-.29.35-.58.5-.88.02-.05.07-.12.09-.14l.11-.13c.42-.49.94-.96,1.29-1.51.25-.4.48-.83.71-1.25.1-.01.19-.02.29-.03.06,0,.08-.01.1-.02,1.37.16,2.68.46,4.07.55,1.56.1,2.88-.08,4.43-.21-.64.05.54,0,.71,0,.34-.01.68-.04,1.02-.04.76,0,1.57.07,2.29-.2.42-.16.67-.56.66-.95.19.19.38.38.56.59,1.18,1.43,2.48,2.5,4,3.58.22.16.45.32.67.48t0,0s.02.01.03.02c.44.34.87.7,1.3,1.04.7.55,1.47.96,2.22,1.43.65.41,1.26.95,1.94,1.29.75.37,1.67.45,2.47.68.53.15,1.06.33,1.6.48.1.03.26.09.32.11.2.11.4.23.6.34.96.54,1.49.82,2.59.79.29,0,.58,0,.87-.02.06,0,.27,0,.37-.01.11.02.35.05.41.05.38.06.76.12,1.13.18.84.14,1.66.41,2.49.54.82.13,1.68.02,2.52.02.81,0,1.71.13,2.51-.03,1.63-.33,3.34-1.12,4.87-1.75.24-.1.48-.19.71-.29-.04.2,0,.41.2.59.92.91,1.8,1.77,2.79,2.59.62.52.63.51,1.26,1,.5.39,1,.85,1.6,1.05.67.23,1.43.21,2.11.42.63.19,1.22.5,1.85.72,1.04.36,2.14.49,3.19.85,1.34.47,2.54.67,3.97.73.6.03,1.21.02,1.8,0,.1,0,.21,0,.32,0,.01,0,.01,0,.03,0,.44.14.87.32,1.3.48.54.2.98.3,1.56.31.41,0,.82.03,1.23.03.04,0,.15,0,.23.02.11.03.22.05.32.08,1.19.32,2.34.67,3.52,1.01,1.32.39,2.67.74,4,1.11.67.19,1.34.34,2,.55.74.23,1.43.64,2.22.58.82-.07,1.35-1.05.7-1.69-.88-.87-2.42-1.14-3.6-1.46ZM529.87,230.62l.04-.06s-.02.04-.04.06ZM530.02,228.02c.11-.13.24-.16,0,0h0ZM529.93,228.16s.03-.07.05-.11c-.02.04-.04.07-.05.11ZM531.23,175.55s-.08.04-.12.05c-.01.02-.04.06-.05.08,0-.03.02-.05.04-.07-.17.07-.35.15-.52.22-.35.15-.7.33-1.06.46.01-.01-.03,0-.11,0l1.73-.74s-.02.03-.02.04c.02-.02.05-.05.08-.06l.12-.05c.14-.04.22-.02-.09.08ZM525.12,174.03c.04.15-.01.17,0,0h0ZM499.56,179.16c-.4-.11-.81-.25-1.21-.39-.01-.02-.02-.04-.03-.06l2.73.55c-.33-.02-.66-.03-1-.05-.16,0-.47-.06-.49-.05ZM498.58,154.19s0,0,0,0c0,0,0,0,0-.01,0,0,0,0,0,0ZM481.28,178.02s0,0,0,0l-.59-.17s-.05-.01-.08-.02l1.12.2s-.04,0-.06,0c-.13,0-.26,0-.39,0ZM481.42,178.06l-.06-.02s.06,0,.06.02ZM474.56,176.92c-.1-.07-.22-.14-.36-.2l1.18.2c-.2,0-.41-.01-.61,0h-.21ZM470.15,175.94l-.2-.07c-.14-.06-.29-.12-.43-.18.45-2,1.25-3.84,1.75-5.83.12-.48.25-.96.39-1.44-.42,4.1-.29,6.89-.24,7.61-.02,0-.04,0-.07,0-.38-.02-.75-.05-1.12-.08-.03,0-.06,0-.09-.01ZM470.14,175.94c-.09-.02-.13-.04,0,0h0ZM479.88,143.04c-.63.64-1.17,1.25-1.66,2.08-.55.93-.77,1.88-1.16,2.86.02-.09-.23.4-.27.48-.18.31-.35.63-.53.94-.23.39-.47.77-.71,1.15-.55.87-1.06,1.77-1.48,2.71-.21.48-.37.99-.55,1.49-.03.08-.17.47-.21.59-.07.13-.28.57-.33.67-.92,1.81-1.49,3.81-2.02,5.77-.18.67-.39,1.33-.61,1.99.29-1.18.58-2.35.86-3.53.24-1,.56-1.98.83-2.97.07-.25.14-.51.21-.76.02-.05.03-.09.03-.12,0,0,0,0,0,0,.3-.54.68-1.03.97-1.56.17-.31.25-.59.34-.94.08-.31.15-.63.22-.94.02-.1.21-.71.13-.6.35-.76.84-1.48,1.26-2.2.56-.96,1.02-1.88,1.43-2.91.08-.19.15-.38.23-.57.03-.06.11-.22.15-.3.26-.5.51-1.02.76-1.53.36-.75.65-1.54,1.1-2.24.56-.87,1.21-1.71,1.81-2.56.56-.8,1.02-1.65,1.52-2.49.23-.39.49-.76.74-1.13.11-.17.22-.37.35-.54.04-.01.34-.28.4-.33.77-.66,1.44-1.37,2.15-2.1.26-.27.51-.54.75-.83.19-.23.38-.46.57-.69.06-.07.58-.72.39-.53,1.14-1.1,2.56-1.97,3.97-2.74-5.03,4.6-8.81,9.52-11.65,14.41ZM484.24,176.05c-.19.75-.34,1.47-.51,2.2-.1-.03-.2-.07-.32-.08,0,0,0,0,0,0,.3.01.21,0,0-.02.16-.48.67-2.02,1.4-4.2,0,.02,0,.04,0,.06-.03.41-.4,1.32-.58,2.05ZM493.25,149.03c-.08.27-.15.53-.23.8-.08.27-.17.49-.31.75.19-.55.37-1.07.54-1.55ZM494.26,146.16c.34-.93.73-1.59,1.16-2.08-.03.07-.07.14-.1.2-.29.67-.4,1.42-.69,2.09,0,0,0,0,0,.01-.07.14-.17.27-.26.4-.22.34-.44.7-.65,1.05-.08.15-.16.3-.22.45.3-.87.56-1.59.75-2.13ZM518.63,148.24c.44.58.9,1.6,1.36,2.89,0-.01,0-.02-.01-.03-.4-1.02-.87-1.96-1.39-2.91.01.02.03.03.04.05ZM542.33,187.67c-.04-.2-.09-.4-.12-.6.01-.03.02-.06.05-.13.13-.3.25-.69.35-1.07.05,0,.1,0,.15,0-.08.84-.17,1.77-.27,2.75-.03-.3-.08-.61-.15-.96ZM554.23,150.45c-.02-.06-.05-.11-.07-.17-.09-.25.04.03.07.17ZM494.91,125.74s-.02-.04-.03-.06c.26-.16.41-.25.41-.25-.13.1-.25.21-.38.32ZM467.21,229.03c.19.03.38.13,0,0h0ZM517.45,236.57c-.81.34-1.63.63-2.45.92-.69.24-1.4.57-2.11.74,0-.02-.34.02-.42.02-.24,0-.49,0-.73,0-.37,0-.74,0-1.11,0-.52,0-1.03,0-1.55.03-.1,0-.21,0-.31,0-.06-.02-.42-.08-.5-.1-.87-.2-1.72-.39-2.6-.53-.93-.16-1.76-.2-2.71-.21-.14,0-.4-.05-.59-.04-.33-.33-1.01-.62-1.39-.83-.75-.42-1.63-.73-2.45-1.01-.3-.1-.61-.17-.92-.26-.28-.07-.55-.16-.83-.22-.13-.03-.32-.11-.37-.13-.65-.39-1.24-.88-1.88-1.29-.42-.27-.83-.54-1.26-.79-.09-.05-.19-.12-.24-.15-.13-.11-.27-.22-.4-.33-.71-.58-1.42-1.13-2.17-1.66-.22-.16-.45-.32-.67-.47-.05-.03-.2-.14-.26-.18-.36-.27-.7-.55-1.05-.83-.67-.52-1.13-1.19-1.69-1.83-.52-.6-1.13-1.11-1.7-1.68-.52-.52-1.13-1.03-1.59-1.6-.4-.51-.96-.35-1.28.05-.2-.2-.41-.4-.6-.6-.16-.17-.34-.49-.62-.99-.53-.96-.52-1.48-1.12-2.66-.41-.8-1.09-1.39-1.61-2.12,0-.01-.07-.15-.16-.32-.15-.31-.33-.6-.49-.9-.08-.14-.16-.29-.24-.43,0-.06-.18-.52-.2-.6-.33-1.05-.67-1.87-1.26-2.81-.5-.79-1.07-1.58-1.5-2.42,0,0,0,0,0-.01,0-.03-.02-.08-.04-.15-.08-.3-.15-.6-.23-.89-.09-.36-.18-.73-.29-1.09-.29-.95-.6-1.88-1.08-2.76-.16-.28-.31-.57-.47-.85-.04-.06-.19-.36-.2-.36-.23-.52-.43-1.09-.6-1.62-.24-.78-.22-1.62-.41-2.41-.21-.91-.6-1.79-.86-2.69-.31-1.07-.53-2.12-.76-3.2-.07-.31-.14-.61-.22-.91-.08-.31-.17-.62-.25-.93-.02-.09-.13-.48-.15-.51-.32-1.76-.2-3.57-.47-5.34-.05-.3-.09-.6-.14-.9,0-.06-.01-.1-.02-.13,0,0,0-.01,0-.03-.04-.42-.08-.84-.12-1.27,0-.29-.01-.58-.02-.87.04-.19.1-.39.14-.58.11-.48.3-1,.32-1.49.02-.46-.13-.97-.18-1.42-.02-.18-.05-.37-.07-.55,0-.06.02-.37.03-.49.11-.74.19-1.37.19-2.04.6.27,1.21.54,1.84.7.35.09.69.2,1.04.28.14.04.3.08.44.1.04,0,.06.01.09.02.52.26,1.04.55,1.55.82.5.27.98.35,1.54.39.36.02.73.04,1.09.05.13,0,.26.02.38.02.58.21,1.26.27,1.86.41.43.1.84.27,1.25.42.6.23,1.12.44,1.76.5.62.06,1.24.03,1.86.05.2.55,1.15.67,1.38-.04.44-1.36.65-2.66.99-4.03.14-.59.39-1.15.54-1.73.19-.69.15-1.39.16-2.11.01-.91.76-2.39,1.07-3.6.27-1.05.96-2.13,1.45-3.4.23-.6.45-1.14.55-1.77.13-.87.13-1.33.4-1.84.3-.57.64-1.14.85-1.75.13-.36.22-.74.32-1.11.06-.2.11-.41.18-.61,0-.01,0-.02,0-.03.01-.02.03-.05.06-.12.31-.62.76-1.2.99-1.86.09-.25.12-.52.17-.78.06-.25.12-.5.17-.76,0-.04.11-.46.1-.47.34-.9.89-1.72,1.37-2.57-.08.48-.15.97-.18,1.46-.1,1.57-.15,2.04-.6,3.64-.41,1.46-.65,2.68-.76,4.2-.04.57-.09,1.15-.14,1.72,0,.12-.02.24-.03.36,0,.03-.02.06-.02.09-.11.46-.26.91-.39,1.36-.36,1.19-.48,2.46-.61,3.69-.04.35-.06.71-.11,1.06,0,.01-.02.03-.04.1-.04.12-.08.26-.12.38-.23.59-.41,1.21-.54,1.83-.15.72-.33,1.52-.34,2.25,0,.47.05.97.13,1.43.02.1.03.22.04.33-.01.05-.02.11-.04.16-.32.81-.74,1.6-.67,2.48.06.71.25,1.43.36,2.13.26,1.63,2.73.94,2.48-.68.08.5-.09-.69-.11-.84-.03-.21-.05-.45-.08-.69-.04,0-.06.02-.12.02l.08-.2c-.02-.11-.03-.23-.07-.32-.07-.17.06-.08.17.07.2-.38.36-.86.49-1.28.35-1.14-.14-2.37,0-3.56.04-.34.07-.69.13-1.03,0-.01.01-.04.03-.1.03-.13.06-.26.1-.38.19-.65.38-1.32.44-2,.06-.65.05-1.32.08-1.97.03-.55.1-1.71.14-1.94.03-.23.34-1.35.43-1.9.11-.68.11-1.39.15-2.07.09-1.51.12-2.26.49-3.48.35-1.14.78-2.3.86-3.5.1-1.5.07-2.08.48-3.67.19-.73.48-1.43.59-2.18.07-.42.08-.85.12-1.28.01-.15.02-.31.04-.47.01-.08.02-.13.02-.17,0,0,.01,0,.03-.06.23-.71.62-1.38.75-2.11.11-.64.11-1.33.13-1.98,1.46.05,2.7,1.13,2.7,1.13l-.13,1.08c-.14.08-.26.21-.31.42-.33,1.41-.54,2.84-.86,4.25-.15.67-.48,1.32-.6,2-.13.74-.01,1.54-.02,2.29,0,.12,0,.12,0,.08-.02.21-.06.42-.08.62-.06.42-.08.86-.17,1.28-.15.67-.42,1.32-.59,1.98-.38,1.5-.41,2.88-.45,4.4-.02.63-.11,1.25-.19,1.87-.01.1-.03.2-.04.31-.03.06-.08.2-.09.23-.19.49-.37,1-.52,1.51-.4,1.36-.52,2.74-.53,4.15,0,.19,0,.38,0,.58,0,.02,0,.02,0,.03-.07.46-.18.91-.27,1.37-.15.79-.12,1.5-.09,2.31.05,1.38-.35,2.76.3,4.02.48.94.68,1.66,1.7,2.08.71.29,1.39.65,2.16.71,1.75.16,3.4.16,5.14,0,.69-.06,1.23-.53,1.26-1.26.07-2.16.39-4.25.16-6.42-.12-1.08-.08-2.08-.01-3.17.04-.6.07-1.21.14-1.8.02-.09.03-.18.05-.27.09-.42.17-.84.25-1.25.39-2.14.47-4.32.54-6.49,0-.14.01-.27.02-.41.02-.23-.05.41-.01.05.03-.32.09-.64.13-.95.07-.5.14-.99.23-1.48.23-1.2.53-2.36.82-3.54.19-.77.27-1.57.29-2.38.04.21.07.43.11.64.02.13.04.26.06.39,0,.05.01.07.01.09h0c.17,1.26.32,2.49.58,3.74.02.11.05.23.07.35,0,.02,0,.05,0,.1,0,.3-.03.61-.04.92-.02.57-.07,1.07.08,1.63.15.55.37,1.08.51,1.63-.03-.04.04.56.04.68.01.39.03.78.04,1.17.05,1.05.09,2.1.24,3.14.06.41.13.82.19,1.24,0,.05.01.08.02.12,0,0-.01,0-.02.06-.05.66-.11,1.33-.13,1.99-.04,1.21.03,2.32.28,3.5.06.29.14.58.19.88-.03-.07.02.77.02.92.02.54.03,1.08.08,1.62.1,1.18-.23,3.25.45,4.2.33.46,1.09.72,1.53.2.77-.93.66-2.34.55-3.5-.11-1.19-.09-2.39-.21-3.58-.06-.63-.24-1.27-.39-1.88-.03-.12-.06-.24-.08-.36,0,0,0-.01,0-.02-.01-.39-.01-.78-.02-1.17-.02-1.1.18-2.22.06-3.31-.07-.62-.23-1.24-.34-1.86,0-.06-.03-.26-.05-.44-.04-.44-.09-.89-.13-1.33-.1-1.05-.08-2.12-.4-3.12-.11-.34-.24-.68-.36-1.02-.03-.09-.16-.5-.19-.5-.07-.62.05-1.28-.02-1.91-.12-1.06-.53-2.09-.72-3.15-.11-.62-.22-1.23-.35-1.84-.09-.43-.2-.87-.27-1.3-.04-.23-.03-.12-.03-.59,0-.63.06-1.32-.1-1.93-.05-.18-.13-.37-.2-.55.64-.31,1.38-.64,2.17-.91.2.55.43,1.1.72,1.66.23.44.47.88.71,1.32.45.8.63,1.05.79,1.6.36,1.23.46,2.48.8,3.71.17.61.47,1.31.77,1.87,0,0,0,0,0,0-.06.43.02.96.04,1.4.05,1.19.68,2.17.96,3.31.14.56.26,1.13.4,1.69.08.33.16.67.24,1,.05.21.16,1.04.19.88,0,.6-.07,1.2-.05,1.8.02.62.29,1.12.52,1.68.11.26.2.65.35.93v.13c.01.64.08,1.28.08,1.93-.01,1.37.14,2.76.1,4.11-.05,1.5-.42,2.96.07,4.45.38,1.16,2.02,1.19,2.39,0,.39-1.24.26-2.75.4-4.05.12-1.08-.1-2.16-.05-3.25.06-1.31.25-2.86-.06-4.14-.12-.51-.44-1.33-.73-1.77-.03-.04-.05-.07-.07-.09,0-.02.01-.04.02-.08.06-.41.03-.86.04-1.28.03-1.16-.33-2.29-.63-3.42-.19-.7-.35-1.42-.62-2.09-.14-.34-.43-1.41-.72-1.78-.02-.39-.08-.78-.13-1.17-.08-.72-.27-1.25-.62-1.89-.19-.35-.4-.68-.58-1.03,0-.01,0,0-.01-.02-.04-.12-.08-.24-.11-.36-.2-.63-.39-1.26-.65-1.86-.58-1.33-1.28-2.45-2.07-3.66-.51-.78-.81-1.33-1.06-1.93,1.55-.33,3.14-.3,4.36.56-.47.03-.93.52-.63,1.07.65,1.17.98,1.77,1.43,2.91.4,1.01,1.07,1.67,1.62,2.6-.12-.21.16.37.2.48.13.31.26.62.38.93.18.47.3.94.43,1.44.26,1,.52,2.02.88,2.99.31.85.62,1.68.92,2.52.52,2.41,1.01,4.83,1.43,7.02,0,.8.04,1.6.15,2.41.08.58.25,1.13.42,1.69.04.13.07.32.13.45.02.05.03.08.04.11-.05.25-.09.51-.13.76-.23,1.24-.22,2.38-.2,3.64,0,.58.63,1.19,1.24.95.66-.26,1.32-.58,2-.78.6-.17,1.24-.15,1.86-.25,1.45-.24,2.64-.9,3.63-1.96,1.89-2.03.7-5.37.16-7.7-.14-.6-.26-1.22-.36-1.83.02.05-.06-.72-.07-.86-.03-.4-.04-.8-.09-1.19-.19-1.41-.67-2.7-1.33-3.95-.12-.22-.23-.44-.35-.66.04.03-.24-.67-.28-.8-.12-.34-.22-.68-.35-1.02-.02-.06-.03-.08-.04-.08-.03-.22-.06-.44-.09-.66-.09-.71-.14-1.41-.41-2.07-.03-.07-.06-.13-.09-.2.51.55,1.05,1.08,1.47,1.62.02.02.05.07.09.13.07.12.15.24.22.36.2.37.43.72.64,1.08.39.67.76,1.35,1.11,2.04.3.58.57,1.19.84,1.78.01.03.04.09.06.15.03.11.07.22.1.32.13.49.27,1,.44,1.48.45,1.3,1.14,2.56,1.72,3.81.28.61.63,1.18.97,1.76.1.17.2.33.29.5,0,0,0,0,0,.01.16.43.3.87.44,1.31.46,1.37.8,2.74,1.06,4.16.28,1.52.92,2.98,1.21,4.48-.07-.18-.05.75-.07.95-.02.36-.09.74-.07,1.1.01.19.04.39.08.58,0,.04,0,.07,0,.12.11.44.21.87.32,1.31.05.2.1.39.15.59,0,.05-.03.13-.07.25-.32.88-.53,1.68-.34,2.58.26,1.3.26,1.59.1,2.91-.1.84-.04,1.69-.09,2.54-.11,1.84-.67,2.73-.94,4.61-.25,1.79-.55,3.7-.28,5.5.02.12.02.26.02.32-.04.15-.1.29-.15.43-.15.46-.31.91-.44,1.38-.22.79-.47,1.65-.52,2.47-.04.52-.02,1.07,0,1.59,0,.12,0,.21-.02.28-.07.2-.15.39-.22.58-.34.9-.64,1.79-.91,2.72-.24.8-.43,1.62-.69,2.42-.02.03-.04.07-.06.12-.13.25-.26.5-.39.76-.2.37-.41.74-.56,1.14-.18.47-.3.97-.43,1.45-.01.05-.08.27-.11.38-.06.12-.18.39-.21.46-.4.85-.81,1.6-1.32,2.39-.9,1.4-1.59,2.92-2.5,4.31-.24.36-.52.7-.78,1.05-.08.11-.24.27-.34.42-.04.03-.08.05-.15.09-.79.47-1.52.92-2.02,1.69-.28.43-.52.9-.82,1.31-.02.01-.05.04-.16.14-.24.22-.48.45-.72.67-.17.16-.34.32-.51.47,0,0,.2-.15-.12.1-.43.34-.87.72-1.33,1.02-1.3.84-2.88,1.35-4.29,1.98-1.22.55-1.32.61-2.44,1.07ZM518.61,158.82c.08.25.03.58,0,0h0Z"/>
          <path class="cls-4" d="M586.8,329.86s.04.02,0,0h0ZM559.86,320.46c-.01-.16.02-.24,0,0h0Z"/>
        </g>
        <g>
          <path class="cls-7" d="M429.51,319s1.6,22.4-9.07,27.74c-10.67,5.33-35.2-5.33-33.6-28.27s20.27-47.47,28.8-64c8.53-16.53,19.73-38.94,18.13-45.34-1.6-6.4-9.6-19.2-10.13-24.53-.53-5.33.53-19.73,7.47-33.07,6.93-13.33,18.13-19.73,18.13-19.73,0,0,4.8,4.27.53,7.47-4.27,3.2-10.67,6.93-13.87,19.2,0,0,15.47-10.67,20.8-12.27s5.33.53,5.33.53c0,0,4.8.53-1.07,6.93l-5.87,6.4s8,2.67,1.07,9.07c-6.93,6.4-9.6,11.73-9.6,11.73,0,0,10.67,11.2,6.93,21.33-3.73,10.13-7.47,35.74-8.53,43.2-1.07,7.47-4.8,50.67-15.47,73.6Z"/>
          <path class="cls-4" d="M448.08,180.72c.87-1.47,1.7-2.95,2.45-4.48.22-.44.4-.93.66-1.34-.17.27.13-.12.2-.19.26-.26.51-.53.76-.79.67-.7,1.02-1.48,1.36-2.4.04-.1.21-.44.04-.2.12-.18.33-.34.47-.49.35-.36.71-.72,1.05-1.09.54-.59,1.04-1.21,1.57-1.81.66-.75,1.19-1.35,1.63-2.25.38-.76.77-1.53,1.06-2.32.34-.92.7-1.94.24-2.83-.52-.99-1.11-1.78-1.81-2.65-.58-.72-1.6.3-1.02,1.02.29.36.6.71.87,1.08.18.24.04.04.1.15.15.25.28.52.42.78l.36.67c-.1.05.1-.84-.16-.13-.09.24-.13.52-.19.78-.04.16-.17.67-.1.47-.28.81-.7,1.59-1.08,2.35-.12.23-.22.48-.35.7-.07.12.09-.1-.1.14-.31.4-.68.76-1.02,1.14-.51.58-1,1.18-1.52,1.75-.55.6-1.28,1.15-1.67,1.87-.25.46-.45.99-.64,1.47-.03.08-.27.55-.08.27-.12.18-.32.34-.47.49-.67.69-1.16,1.21-1.58,2.06-.85,1.72-1.75,3.39-2.72,5.04-.47.8.77,1.53,1.24.73Z"/>
          <path class="cls-4" d="M445.57,172.8c.31-.6.59-1.23.93-1.82.33-.56.74-1.07,1.07-1.62.13-.22-.15.17.01-.02.11-.13.22-.26.32-.39.28-.34.56-.68.84-1.02.4-.51.7-1.1,1.04-1.66.31-.51.69-.97,1.06-1.44.18-.23.35-.46.53-.68-.23.29,0,.01.04-.05.15-.18.29-.37.44-.55.35-.44.69-.88,1.06-1.31.28-.32.56-.65.85-.97.11-.13.24-.26.34-.39.18-.25-.11.03.04-.05,1.34-.64,2.67-1.28,4.01-1.9.84-.39.11-1.63-.73-1.24-1.24.57-2.47,1.15-3.7,1.75-.59.29-.91.73-1.35,1.23-.39.44-.77.89-1.13,1.34-.84,1.05-1.75,2.1-2.51,3.21-.37.54-.71,1.14-1.03,1.72,0,0,.16-.18-.02.03-.12.15-.24.29-.36.44-.26.32-.53.64-.79.97-.9,1.15-1.54,2.42-2.2,3.7-.42.82.82,1.55,1.24.73Z"/>
          <path class="cls-4" d="M441.51,164.69c.54-.73,1.12-1.45,1.57-2.24.74-1.3.92-1.54,2.02-2.52.75-.67,1.14-1.55,1.75-2.33.12-.16-.01.01-.03.03l.26-.25c.21-.19.41-.39.61-.58.3-.29.6-.58.9-.86,1.01-.98,1.36-1.33,2.44-2.02.34-.22.7-.41.99-.69.41-.4.68-.97,1.11-1.35-.22.19.24-.12.33-.17.27-.15.54-.3.81-.45.36-.21.7-.43,1.04-.67.86-.59,1.78-.9,2.68-1.41.85-.48,1.64-1.23,2.35-1.9.26-.25.53-.49.79-.75.09-.08.18-.2.29-.27-.18.12,0,.05.1,0,.54-.26,1.11-.47,1.66-.71-.33-.09-.66-.17-.99-.26.12.22,1.05,2.21,1.15,2.18-.35.08.11-.9-.13-.21-.08.23-.1.51-.15.75-.09.43-.15.89-.27,1.32-.1.34.06-.07-.03.1-.1.18-.26.35-.38.52-.33.44-.64.89-.98,1.32-.22.28.03-.03-.08.1-.14.16-.3.3-.45.45-.36.37-.72.74-1.09,1.11-1.06,1.06-2.15,2.12-3.25,3.15-1.28,1.19-2.05,1.73-3.45,2.74-.74.54-.03,1.79.73,1.24,2.11-1.53,3.94-3.21,5.83-5,.98-.92,2.02-1.85,2.87-2.89.47-.57.92-1.19,1.34-1.79.34-.49.39-.96.51-1.54.14-.68.47-1.48.19-2.15-.3-.73-.75-1.42-1.12-2.12-.2-.37-.64-.41-.99-.26-.91.39-1.76.67-2.48,1.34-.8.76-1.61,1.47-2.49,2.14l-.24.19c.22-.13.06-.07.01-.04-.28.14-.58.26-.86.39-.4.18-.8.35-1.18.58-.91.57-1.81,1.13-2.72,1.69-.33.2-.51.42-.76.72-.21.26-.42.53-.65.78-.26.29.08,0-.28.26-.91.61-1.73,1.1-2.51,1.86-.77.75-1.6,1.47-2.34,2.26-.24.25-.42.51-.61.8-.2.3-.4.61-.61.91-.1.14-.41.54-.27.39-.47.49-1.05.86-1.51,1.35-.34.37-.55.81-.8,1.25-.56.99-1.21,1.88-1.89,2.8-.55.75.7,1.47,1.24.73Z"/>
          <path class="cls-4" d="M437.01,159.7c.34-.36.68-.71,1.02-1.07.49-.51.36-.44.85-.72.99-.57,1.67-.91,2.31-1.84,1.06-1.53,2.5-2.65,4.03-4.13.26-.26.52-.53.77-.79.21-.22.47-.44.66-.68.32-.4-.23-.06.14-.12.87-.16,1.92-.56,2.61-1.12.46-.37.91-.76,1.37-1.13.11-.09-.41.07,0,.05.32-.01.68-.18.99-.26.99-.26,1.84-.64,2.77-1.07.49-.23.51-.22,1.23-.46.42-.15.85-.29,1.27-.45.59-.23,1.17-.53,1.77-.73-.03,0,.33-.11.13-.07-.14.03.26,0,.33,0,.29,0,.57,0,.86,0l-.7-.53c.09.28.18.57.27.85.28.88,1.67.51,1.39-.38-.09-.28-.18-.57-.27-.85-.1-.3-.37-.53-.69-.53-1.15,0-1.77.14-2.84.59-.91.38-1.85.65-2.76,1-.34.13-.67.29-1,.44-.29.14-.59.27-.88.41-.26.12-.46.18-.38.16-.96.29-1.95.35-2.74.99-.46.37-.91.75-1.37,1.13-.14.11.43-.11,0-.04-.36.06-.75.26-1.09.38-.42.14-.87.25-1.22.51-.45.34-.84.86-1.23,1.27-1.22,1.25-2.79,2.31-3.86,3.69-.43.55-.78,1.15-1.19,1.72-.11.16-.06-.01.17-.15-.1.06-.22.14-.33.19-.33.15-.64.37-.96.55-.98.56-1.65,1.35-2.43,2.17-.64.67.38,1.69,1.02,1.02Z"/>
          <path class="cls-4" d="M437.24,159.32c.03-.61.05-1.23.09-1.84.01-.17-.21.35.06-.11.23-.4.41-.87.59-1.29.48-1.15.59-2.02,1.05-3.02.89-1.94,1.42-4.05,2.25-6.04.55-1.31.85-1.93,1.83-3.11.18-.22-.05.04.2-.2.27-.26.56-.51.84-.76.35-.32.7-.63,1.06-.93.96-.79,1.91-1.54,2.82-2.38.57-.52,1.71-1.09,2.25-2.03.67-1.16.98-2.15.94-3.52-.05-1.57-.56-2.38-1.4-3.66-.23-.35-.82-.53-1.13-.15l-1.09,1.36c-.45.56-.45.54-1.16,1-1.08.7-1.79,1.44-2.66,2.38-1.59,1.71-3.07,2.72-5.03,4.21-1.56,1.18-3.03,3.05-4.15,4.64-1.28,1.82-2.43,3.74-3.73,5.54-.67.93-1.38,1.85-1.93,2.86-.68,1.24-.99,2.27-1.32,3.65-.21.9,1.18,1.29,1.39.38.32-1.37.45-1.97,1.05-3.09.47-.86,1.04-1.66,1.61-2.47,1.24-1.75,2.36-3.56,3.58-5.31,1.1-1.58,2.75-3.75,4.11-4.88.85-.71,1.84-1.3,2.72-1.96.94-.71,1.71-1.48,2.52-2.34.99-1.05,1.5-1.67,2.57-2.37,1.09-.7,1.72-1.57,2.54-2.59l-1.13-.15c.32.49.6,1.08.99,1.51.23.27.04-.39.07.22.02.42.14.85.15,1.27.01.54-.13,1.07-.15,1.61-.02.55.17-.17-.06.19-.22.34-.49.74-.64,1.12-.2.49.2-.05-.12.19-.29.21-.57.41-.86.61-.43.3-.8.62-1.19.98-.86.79-1.78,1.48-2.68,2.23-1.65,1.39-3.06,2.85-3.91,4.87-.45,1.08-.93,2.15-1.34,3.25-.14.38-.25.76-.37,1.16-.17.6-.36,1.24-.48,1.53-.49,1.17-.97,2.74-1.33,3.63-.25.61-.64,1.2-.76,1.85-.11.63-.07,1.31-.1,1.94-.05.93,1.39.92,1.44,0Z"/>
          <path class="cls-4" d="M428.41,154.88c-.34.73-.75,1.46-1.01,2.23-.35,1.03-.4,1.76-.83,2.47-.96,1.61-1.34,3.37-1.98,5.13-.32.86-.31,1.78-.47,2.68,0-.02-.14.55-.23.88-.11.42-.21.84-.32,1.26-.22.83-.52,1.65-.58,2.5-.07.91-.07,1.81-.16,2.72-.2,1.84-.3,3.58-.25,5.42.02.79-.12,1.6-.06,2.39.06.81.31,1.61.45,2.41.15.85.19,1.71.52,2.5.47,1.13.73,1.65,1.15,2.67.36.87.75,1.71,1.17,2.55.28.56.55,1.46.93,2.3.69,1.54,1.68,2.93,2.5,4.4.43.78.85,1.54,1.35,2.28.65.97.8,1.38,1.2,2.62,1.19,3.75,1.09,6.87.17,10.47-.48,1.88-1.21,3.61-1.86,5.43-.19.54-.14.38-.48.91-.28.43-.61.85-.83,1.31-.35.75-.53,1.6-.8,2.38-.42,1.2-.6,1.69-1.08,2.8-.38.89-.44,1.81-.75,2.71-.06.17.05-.09-.14.26-.14.25-.31.48-.46.72-.22.35-.45.67-.6,1.05-.18.47-.37,1.13-.43,1.63-.05.47.08.01,0,.13-.17.25-.38.48-.57.72-2.37,3-2.94,6.46-4.81,9.77-.49.86-.75,1.77-1.14,2.68-.08.19.05-.1-.09.19-.12.24-.25.48-.37.71-.2.38-.4.76-.59,1.14-.88,1.74-2.08,3.24-2.99,4.97-.15.29-.27.58-.38.9-.1.28-.2.56-.3.84-.1.26-.4.77-.07.34-.56.73-1.32,1.25-1.74,2.08-.85,1.71-1.69,3.44-2.72,5.05-.43.68-1.03,1.26-1.4,1.98-.24.48-.43,1.03-.61,1.53-.11.3-.25.46,0,.12-.18.24-.39.45-.59.68-.7.81-1.12,1.5-1.59,2.46-.39.79-1.01,1.45-1.4,2.23-.19.38-.3.81-.44,1.21-.1.29-.19.58-.3.87-.08.2.31-.26-.07.04-.73.58-1.35,1.33-1.7,2.18-.49,1.18-.7,1.52-1.42,2.58-.55.8-.67,1.74-1.05,2.62.16-.38.11-.19-.11.07-.19.23-.37.46-.56.69-.26.33-.52.63-.74.99-.51.84-.93,1.65-1.17,2.6-.33,1.28-.61,1.48-1.34,2.68-.18.29-.29.57-.41.89-.1.28-.2.56-.31.84-.03.09-.31.74-.18.48-.87,1.77-2.09,3.18-2.63,5.1-.07.24-.12.49-.2.73.11-.34-.04.07-.1.2-.23.5-.5.99-.7,1.5-.32.79-.47,1.64-.73,2.45-.59,1.87-1.06,3.75-1.64,5.62-.26.86-.25,1.81-.31,2.71-.03.45-.05.89-.08,1.34-.01.24,0,.51-.04.75.08-.46-.07.12-.12.28-1.13,3.54-.42,7.4-.28,11.04.04,1.03.06,2.07.12,3.1.06.91.36,1.78.58,2.66.21.83.34,1.71.71,2.48.41.87.9,1.69,1.31,2.56.81,1.74,1.68,3.27,2.92,4.75.52.63,1.06,1.33,1.72,1.81.75.54,1.6.98,2.39,1.45.81.48,1.64.92,2.46,1.39.71.41,1.3,1.12,2.05,1.45.72.31,1.69.37,2.48.46,1.22.15,1.75.18,2.81.36.98.17,1.66.09,2.65-.08.7-.12,1.51-.11,2.49-.12.93-.01.93-1.45,0-1.44-.82.01-1.65-.03-2.47.09-.55.08-1.09.2-1.64.28-.28.04.46.11,0-.02-.33-.1-.68-.13-1.02-.2-.88-.17-1.77-.26-2.66-.38-.32-.04-.13-.02-.26-.04-.25-.05-.49-.1-.73-.15-.26-.05-.55-.16-.82-.17-.51-.01.13.2-.16-.01-1.5-1.13-3.06-2.04-4.64-3.05-.7-.45-1.52-.85-2.13-1.4.26.24-.14-.22-.2-.31-.18-.24-.38-.46-.57-.69-.46-.55-.25-.28-.68-.87-.17-.24-.35-.48-.53-.72-.04-.06-.41-.63-.22-.26-.26-.5-.44-1.08-.64-1.6-.29-.75-.54-1.51-.86-2.25-.2-.45-.44-.89-.67-1.33-.12-.23-.26-.45-.36-.68-.12-.28.02.06.03.1-.04-.12-.07-.26-.09-.39-.18-.97-.46-1.94-.7-2.9-.05-.22-.12-.45-.17-.67.01.08.01.27.01-.11,0-.58-.02-1.16-.05-1.74-.03-.8-.09-1.59-.14-2.39-.12-1.93-.38-3.81-.34-5.74,0-.33.01-.67.01-1,0-.3.01-.6,0-.9,0-.3.05-.63,0-.35.21-.96.59-1.81.64-2.8.05-.96.11-1.93.18-2.89.02-.25,0-.51.05-.76-.08.41.04,0,.11-.17.21-.5.41-1.05.54-1.57.2-.77.23-1.57.45-2.34.27-.95.61-1.85.84-2.8.22-.95.59-1.76.93-2.68.12-.32.2-.62.28-.96.08-.33.17-.65.23-.98l.06-.28c.11-.36-.1.18,0-.02.78-1.76,1.8-3.28,2.39-5.13.19-.59.16-.57.41-.95.29-.45.71-.89.94-1.38.36-.77.47-1.92.71-2.4.55-1.12.85-1.55,1.58-2.46.66-.82.87-1.57,1.23-2.56.22-.59.92-1.35,1.33-2.17.2-.39.34-.82.51-1.23.09-.22.17-.49.29-.7-.27.44-.02.11.17-.07.72-.69,1.26-1.24,1.58-2.17.43-1.23.69-1.54,1.4-2.7.37-.61.84-1.77,1.03-2.06.5-.77,1.27-1.29,1.65-2.14.23-.52.37-1.1.64-1.61.1-.18-.05.1.13-.17.18-.26.38-.5.56-.75.58-.77,1.03-1.58,1.51-2.42.38-.66.79-1.3,1.14-1.98.24-.48.45-.98.67-1.48.18-.41.26-.46.71-.94.78-.83,1.07-1.37,1.46-2.45.28-.79.64-1.46,1.22-2.35.43-.67.98-1.26,1.37-1.96.47-.84.86-1.73,1.31-2.58.44-.84.77-1.67,1.1-2.56.23-.62.73-1.34,1.16-2.18.81-1.6,1.45-3.3,2.14-4.95.39-.93.63-1.56,1.2-2.58,0,.02.01-.03.14-.21.19-.27.42-.53.62-.79.25-.32.54-.62.7-1,.44-1.03.38-1.73.88-2.51.62-.97.85-1.58,1.09-2.71.13-.6.08-.5.28-.98.2-.47.42-.93.61-1.4.31-.76.56-1.54.82-2.31.39-1.16.54-1.67,1.12-2.56.56-.86.86-1.66,1.21-2.63,1.28-3.49,2.33-6.85,2.31-10.61-.01-1.66-.47-3.36-.97-4.94-.26-.84-.49-1.7-.97-2.44-.48-.75-.97-1.47-1.4-2.25-.87-1.59-1.88-3.1-2.7-4.72-.47-.94-1.5-3.36-1.92-4.36-.35-.84-.69-1.68-1.06-2.52-.49-1.11-.52-1.43-.73-2.71-.13-.83-.37-1.65-.46-2.48-.01-.12,0,.07,0-.24,0-.26.02-.53.03-.79.01-.39.04-.78.03-1.17-.02-1.77.02-3.42.21-5.18.1-.93.15-1.84.19-2.77.03-.71.3-1.51.56-2.48.2-.77.43-1.55.57-2.33.08-.44.12-.89.17-1.33.08-.65.06-.6.23-1.01.35-.86.66-1.7.88-2.6.28-1.13.46-1.38,1.1-2.48.44-.76.57-1.58.8-2.42.06-.21.06-.24.04-.19.07-.19.18-.38.26-.57.2-.44.41-.88.61-1.32.39-.84-.86-1.57-1.24-.73Z"/>
          <path class="cls-4" d="M446.2,179.77c.4.57.82,1.13,1.2,1.72.19.29.35.6.53.9.18.31.49.85.5.88.25.69.3,1.46.61,2.13.31.65.82,1.24,1.18,1.86.37.63.82,1.45.95,1.84.24.73.37,1.47.69,2.17.19.43.37.91.62,1.31.1.15.17.55.05-.03.03.16.04.34.05.5.04.78.15,1.55.16,2.34,0,.69.02,1.34.14,2.02.07.39.1.82.21,1.21.06.19,0,.55.05-.02-.02.24-.09.49-.14.73-.27,1.44-.57,2.88-.86,4.32-.19.95-.25,1.09-.71,2.02-.35.71-.54,1.36-.74,2.14-.37,1.45-.82,2.84-1.13,4.31-.14.66-.36,1.33-.45,1.99-.1.72,0,1.45-.03,2.18-.08,1.49-.22,2.46-.55,3.97-.32,1.45-.57,2.9-.88,4.35-.15.71-.35,1.41-.46,2.13-.14.93-.2,1.7-.32,2.28-.3,1.41-.75,2.91-.76,4.35,0,.92.07,1.45-.05,1.99-.16.7-.31,1.4-.4,2.11-.12.93-.16,1.55-.33,2.09-.24.76-.46,1.46-.44,2.26.01.46.08.93.07,1.39,0,.07-.03.48.04.09-.02.14-.1.3-.15.43-.27.69-.5,1.4-.65,2.13-.14.69-.33,1.38-.33,2.08,0,.46.02.93.06,1.39.05.6.1.17-.11.78-.49,1.43-.8,2.91-.95,4.42-.09.91-.13,1.35-.22,1.87-.13.78-.28,1.56-.31,2.35-.02.46,0,.95-.05,1.4-.05.39.08-.32-.02.06-.05.2-.14.41-.2.61-.28.82-.45,1.44-.48,2.3-.01.42,0,.85-.03,1.27.03-.4-.1.66-.12.82-.12.78-.22,1.55-.3,2.33-.02.17-.18,1.22-.08.82-.1.41-.25.82-.37,1.22-.23.75-.4,1.51-.57,2.27-.16.73-.13,1.38-.11,2.13,0,.21.03.43.02.65-.01.38.05-.25.01-.01-.08.47-.26.95-.39,1.41-.39,1.4-.63,2.87-.96,4.29-.17.71-.18,1.43-.2,2.16-.01.49-.17,1.2-.45,2.15-.2.67-.58,1.3-.77,1.98-.22.76-.15,1.61-.21,2.4-.03.4.06-.38,0,.02-.03.21-.07.42-.1.63-.07.41-.09.85-.19,1.25-.17.69-.52,1.34-.69,2.03-.16.67-.14,1.37-.3,2.04-.16.69-.44,1.36-.66,2.03-.91,2.7-2.3,5.43-2.8,8.24-.07.42-.1.86-.14,1.28-.02.21-.03.44-.07.64-.09.39.1-.37-.03,0-.26.71-.55,1.41-.84,2.11-.53,1.29-1.04,2.59-1.56,3.88-.18.45-.35.89-.53,1.33-.02.05-.23.53-.03.08-.07.15-.14.3-.22.45-.35.7-.68,1.4-1.02,2.1-.31.64-.62,1.27-.87,1.93-.16.43-.3.88-.49,1.31-.16.36.16-.32-.03.03-.14.26-.3.52-.44.77-.74,1.3-1.41,2.61-1.94,4.01-.07.18-.51,1.13-.29.78-.22.36-.51.69-.76,1.02-.48.64-.83,1.3-1.16,2.04-.06.15-.14.32-.23.45.24-.37-.02,0-.08.06-.28.3-.57.59-.85.9-.55.6-.92,1.27-1.34,1.97-.36.6-.72,1.2-1.05,1.82-.07.14-.15.31-.25.44.3-.39-.02-.03-.09.03-.41.35-.86.69-1.23,1.09-.51.53-.84,1.24-1.2,1.87-.04.06-.32.5-.01.08-.1.13-.22.26-.33.38-.34.37-.66.76-1,1.14-.95,1.08-2,1.96-2.99,2.99-.97,1.01-1.73,2.2-2.79,3.12-.97.85.45,2.26,1.42,1.42.52-.46,1.2-.76,1.7-1.26.5-.51.87-1.14,1.36-1.66,1-1.05,2.07-1.95,3.03-3.06.49-.57,1.05-1.12,1.47-1.74.24-.35.43-.74.64-1.11.11-.18.2-.38.32-.55.14-.21-.26.24.15-.13.56-.49,1.18-.95,1.6-1.57.42-.63.74-1.33,1.12-1.99.24-.42.49-.83.73-1.24.03-.06.32-.49.02-.09.1-.13.23-.26.33-.38.53-.61,1.06-1.2,1.38-1.93.29-.66.54-1.29.97-1.86.51-.67.95-1.23,1.25-2,.17-.44.33-.88.51-1.32.16-.37-.15.32.02-.03.09-.19.19-.37.29-.56.36-.7.73-1.39,1.12-2.07.36-.63.65-1.22.91-1.9.44-1.15.39-1.03.93-2.14.66-1.34,1.32-2.66,1.89-4.04.27-.65.53-1.29.79-1.94.08-.2.16-.39.24-.59.15-.37-.15.34,0-.02.21-.5.42-.99.63-1.48.64-1.5,1.04-2.77,1.23-4.38.02-.16.02-.35.06-.51-.12.52.05,0,.07-.05.17-.45.31-.91.46-1.36.23-.72.42-1.45.66-2.16.46-1.36,1.05-2.67,1.51-4.04.22-.65.5-1.32.66-1.99.16-.69.15-1.43.31-2.12.36-1.5.89-2.79,1.03-4.36.03-.35.03-.71.05-1.06,0-.19.15-1.28.02-.81.19-.72.58-1.38.78-2.09.2-.71.4-1.48.48-2.21.05-.42.03-.86.04-1.28,0-.21,0-.43.02-.64.02-.26-.08.32.05-.2.37-1.43.54-2.89.91-4.31.18-.71.41-1.38.41-2.11,0-.49-.04-.98-.07-1.47,0-.05,0-.58-.04-.11.02-.24.11-.49.16-.73.31-1.46.84-2.86.97-4.35.1-1.14.09-1.05.23-2.08.11-.79.18-1.54.2-2.34,0-.17.07-1.22,0-.84.08-.41.27-.82.4-1.22.27-.8.3-1.47.33-2.32,0-.21,0-.42.02-.64.02-.39-.05.33,0-.06.05-.47.15-.94.23-1.4.13-.78.2-1.57.28-2.36.02-.17.03-.34.05-.51-.06.43.03-.09.03-.12.09-.48.16-.97.26-1.44.16-.76.48-1.48.64-2.24.14-.66.06-1.4,0-2.07-.01-.14-.03-.31-.02-.45-.02.41.02-.07.03-.12.09-.54.19-1.09.32-1.61.16-.66.45-1.28.62-1.93.19-.71.1-1.47.03-2.2-.01-.14-.04-.31-.03-.45-.03.4.04-.06.06-.12.12-.48.28-.94.4-1.42.19-.77.23-1.56.33-2.35,0-.02.08-.55.01-.14.03-.17.06-.34.1-.5.1-.46.21-.93.28-1.4.11-.75,0-1.5,0-2.26,0-.03,0-.5-.03-.11.01-.16.06-.34.1-.5.09-.47.18-.93.26-1.4.14-.74.3-1.47.42-2.21.11-.74.14-1.49.25-2.22.03-.18.33-1.41.44-2.03.51-2.88,1.17-5.74,1.27-8.59.03-.89-.05-1.52.1-2.14.19-.79.35-1.58.52-2.38.3-1.46.77-2.92,1.19-4.34.12-.4.58-1.2.86-1.88.29-.7.37-1.46.53-2.2.28-1.35.73-2.81.82-4.18.05-.72-.2-1.45-.3-2.17-.06-.41-.02-1.41-.06-2.17-.04-.68-.06-1.43-.2-2.1-.17-.77-.65-1.44-.94-2.17,0-.01-.12-.42-.21-.73-.11-.4-.19-.83-.34-1.22-.27-.69-.7-1.37-1.08-2.01-.35-.59-.85-1.14-1.13-1.76-.11-.25-.31-1.52-.58-2.11-.57-1.25-1.48-2.4-2.26-3.52-.53-.75-1.78-.04-1.24.73Z"/>
        </g>
        <g>
          <path class="cls-7" d="M575.12,308.32s-12.8-21.87-16-38.4c-3.2-16.53-14.93-60.8-14.93-60.8,0,0,12.27-12.8,13.33-22.93,1.07-10.13-2.67-31.47-2.67-31.47,0,0,10.67,11.2,12.8,20.27,2.13,9.07-5.33,28.8-3.73,36.27,1.6,7.47,14.4,34.67,33.07,62.94,18.67,28.27,19.2,54.4-2.67,57.07-21.87,2.67-19.2-10.67-19.2-10.67v-12.27Z"/>
          <path class="cls-4" d="M544.37,209.65c.08,1.12.08,2.13.51,3.16.46,1.1.73,2.14,1.01,3.3.25,1.03.53,2.03.69,3.08.18,1.14.58,2.1.88,3.21.57,2.08,1.03,4.26,1.46,6.37.28,1.4.38,2.06.47,3.38.08,1.05.42,1.98.76,2.97.18.53.36,1.07.58,1.58.04.1.09.22.12.33.09.33-.03-.27.03.07.06.35.05.72.07,1.08.07,1.13.31,2.17.59,3.27.26,1.05.56,2.09.86,3.13.22.77.28.8.29,1.31.01.59-.02,1.23.08,1.81.17,1.06.63,2.06.79,3.14.17,1.12.4,2.2.72,3.29.16.53.33,1.08.53,1.59.05.12.09.26.13.38.06.21-.05-.36,0-.03.07.35.08.71.12,1.07.06.52.09,1.02.28,1.51.24.63.64,1.2.88,1.83-.09-.23.03.19.07.4.08.38.18.75.27,1.12.12.5.2,1,.29,1.5.05.31.11.62.16.93.06.34-.03-.25,0-.03.02.13.03.27.05.4.07.61.05,1.34.23,1.93.16.53.55,1.05.82,1.53.38.69.27.47.4,1.37.16,1.15.49,2.15.85,3.26.68,2.08,1.63,4.23,2.1,6.36.14.62.11,1.3.28,1.92.15.54.45,1.07.68,1.58.31.72.18.42.47,1.1.22.53.43,1.06.67,1.58.24.53.48,1.17.82,1.65.31.44.03-.43.05.12.01.39.11.79.16,1.18.16,1.19.71,1.97,1.28,3.02.63,1.17.89,1.77,1.18,2.82.32,1.14.82,2.08,1.32,3.15.42.9.72,1.8,1.3,2.6.21.29.42.58.63.87.07.09.16.19.21.29-.02-.04-.11-.26-.03-.02.23.64.22,1.36.44,2,.3.89.85,1.78,1.4,2.54.76,1.04,1.32,1.93,1.86,3.11.4.88.65,1.88,1.3,2.6.42.47.9.88,1.32,1.35-.43-.48-.18-.26-.04.19.13.42.25.84.39,1.25.15.46.36.74.7,1.09.28.29.56.58.85.86l.25.26c.23.27-.19-.29,0,0,.65,1.06,1.17,2.06,1.93,3.06,1.41,1.85,2.44,3.88,4.02,5.59.68.74,1.28,1.62,2.08,2.22.5.37,1.09.67,1.63.97.49.28-.16-.21.24.17.28.27.56.55.84.82.82.79,1.77,1.09,2.72,1.69,1.03.65,1.97-.98.95-1.62-.91-.57-1.65-1.28-2.39-2.06-.36-.38-.67-.72-1.1-1.01-.28-.19-.58-.36-.87-.54-.16-.1-.88-.56-.72-.42-1.53-1.31-2.71-3.15-3.82-4.79-.71-1.04-1.51-2.02-2.3-2.99-.16-.2-.34-.39-.49-.59.29.41-.17-.34-.22-.43-.29-.49-.55-1.05-.93-1.49-.37-.43-.9-.96-1.37-1.28-.47-.32.01.41-.03.03-.05-.38-.3-.84-.43-1.2-.16-.46-.28-.85-.6-1.21-.44-.51-1.09-.87-1.49-1.41.23.31-.09-.28-.14-.39-.15-.32-.31-.65-.46-.97-.21-.44-.43-.86-.65-1.29-.54-1.08-1.26-1.87-1.93-2.86-.14-.2,0,0,.02.02-.06-.1-.12-.21-.17-.31-.17-.31-.34-.62-.51-.93-.35-.64-.3-.55-.48-1.4-.11-.48-.15-1-.36-1.44-.29-.59-.83-1.08-1.17-1.64-.47-.79-.75-1.71-1.15-2.54-.17-.36-.35-.71-.52-1.07-.05-.1-.25-.59-.14-.28-.22-.63-.3-1.31-.51-1.94-.29-.88-.76-1.73-1.2-2.54-.18-.34-.38-.68-.57-1.02-.05-.08-.47-.86-.29-.42.17.41-.02-.37-.04-.51-.05-.42-.08-.84-.15-1.26-.08-.45-.21-.79-.41-1.2-.16-.32-.31-.65-.47-.97-.06-.12-.12-.24-.17-.36-.03-.07.09.22-.03-.07-.46-1.07-.89-2.17-1.34-3.24-.1-.25-.2-.49-.31-.74.31.71.06.04.01-.29-.08-.57-.11-1.18-.24-1.74-.29-1.18-.82-2.36-1.19-3.52-.31-.97-.61-1.94-.93-2.91-.4-1.24-.56-2.34-.82-3.6-.09-.44-.27-.76-.49-1.16-.17-.31-.33-.66-.53-.95-.42-.62-.1.43-.1-.16,0-1.17-.3-2.41-.51-3.56-.19-1.02-.37-2.1-.76-3.06-.22-.54-.49-1.21-.82-1.68-.32-.46-.03.47-.04-.09,0-.38-.09-.78-.14-1.16-.26-2.13-1.21-4.16-1.58-6.29-.08-.45-.15-.88-.29-1.31-.1-.34-.22-.67-.33-1.01-.06-.19-.24-.8-.2-.54-.2-1.17-.12-2.21-.48-3.36-.32-1.03-.63-2.06-.92-3.09-.16-.59-.32-1.19-.46-1.78-.08-.33-.05-.13-.07-.26-.06-.39-.07-.8-.1-1.2-.1-1.13-.5-2.01-.89-3.08-.48-1.29-.68-1.87-.76-3.08-.16-2.17-.67-4.34-1.24-6.44-.29-1.04-.42-2.12-.71-3.16-.28-1.03-.69-1.94-.85-3-.32-2.08-.78-4.34-1.6-6.28-.14-.33-.31-.66-.42-.99-.05-.15,0,.09-.05-.23-.1-.62-.09-1.27-.14-1.9-.07-.92-1.51-.93-1.44,0Z"/>
          <path class="cls-4" d="M553.84,154.06c.47.64.91,1.33,1.44,1.93.72.81,1.27,1.23,1.74,1.98,1.07,1.7,2.25,2.74,3.27,4.31,1.86,2.85,3.27,6,5.23,8.77.42.6.36,1.45.7,2.37.12.33.34.61.52.91.15.24.29.48.44.72.05.08.28.53.19.28.29.78.29,1.68.53,2.48.38,1.27.48,1.44.38,2.63-.07.89-.06,1.73-.02,2.62.04.82.29,1.73.17,2.53.04-.3-.08.13-.11.22-.1.27-.21.53-.3.8-.14.4-.26.79-.34,1.2-.08.44-.1.91-.15,1.35-.03.24-.03.49-.08.72-.03.15.05-.17-.1.18-.67,1.59-1.22,3.21-1.76,4.84-.55,1.66-1.29,3.2-1.63,4.93-.02.09-.14.61-.05.35.08-.25-.12.23-.16.32-.25.49-.52.99-.74,1.5-.37.87-.16,1.88-.17,2.81,0,1.6-.4,3.32-.23,4.9.16,1.5.48,3.22,1,4.64.29.81.68,1.55.89,2.38.22.87.44,1.7.74,2.55.31.89.67,1.72,1.07,2.57.09.19.18.38.27.57-.17-.37,0,0,.06.17.2.5.42,1,.6,1.51.54,1.55.91,3.12,1.62,4.61.78,1.64,1.7,3.2,2.43,4.87.65,1.52,1.64,2.72,2.43,4.14.24.43.41.93.62,1.39.03.08.26.59.16.36-.09-.22.17.4.2.48.36.87.72,1.7,1.16,2.54.46.88.98,1.52,1.64,2.26.14.16.3.31.42.48-.24-.33-.01.03.07.18.25.48.59.92.8,1.41-.2-.46.16.75.21.94.12.45.19.93.45,1.32.22.33.57.61.85.89.18.19.37.37.55.57.31.33,0-.06.09.12.4.8.66,1.61,1.16,2.35.51.76,1.02,1.52,1.51,2.3.12.19.25.39.37.58,0,.02-.11-.28.07.12.23.52.42,1.05.64,1.57.33.74.79,1.49,1.26,2.15.26.37.58.7.87,1.04.16.19.32.37.48.56.37.44-.06-.13.16.23.46.76.91,1.52,1.32,2.3.45.86.91,1.56,1.51,2.32.57.73.79,1.11,1.43,2.17.81,1.34,1.63,2.68,2.41,4.03.92,1.57,1.95,3.04,2.96,4.57.9,1.37,1.3,3.06,2.29,4.37.26.35.59.66.88.98.39.44.38.42.55.71.45.82.86,1.64,1.23,2.5.34.79.71,1.56,1.09,2.33.38.77,1,1.42,1.38,2.19-.13-.26-.03,0,.01.13.09.32.16.64.24.95.09.35.16.7.31,1.03.2.45.51.88.77,1.3.34.55.18.24.48.96.68,1.68.69,3.43,1.19,5.15.23.8.82,1.46,1.09,2.24-.15-.43,0,.27.02.33.04.25.09.5.14.75.04.22.1.45.12.67-.03-.27-.02.14-.03.38-.05.88-.02,1.7.09,2.58.12.97.01,1.79-.02,2.76-.03.66,0,1.96.35,2.51.08.13.14-.53-.03-.15-.1.23-.13.54-.19.78-.11.43-.26.88-.28,1.33-.03.46.08.94.13,1.39.08.73.17.33-.09.94-.42.97-.59,1.67-.65,2.71-.05,1.06-.23,1.37-.67,2.5-.17.43,0,.07-.05.14-.14.2-.3.38-.45.56-.29.36-.62.72-.88,1.1-.47.69-.66,1.56-1.12,2.25.19-.28-.11.07-.18.15-.21.2-.43.4-.64.61-.27.26-.54.52-.82.77-1.39,1.28-2.34,2.22-4.19,3.02-1.09.47-1.4.55-2.57.88-.81.23-1.5.17-2.61.06-.1-.01-.48-.09-.9-.18-.45-.1-.91-.18-1.35-.3-.76-.2-1.51-.48-2.26-.72-.89-.28-1.26,1.11-.38,1.39,1.55.5,3.14,1.07,4.76,1.27,1.84.22,3.4.04,5.12-.66,1.69-.68,3.26-1.43,4.63-2.65.67-.6,1.33-1.22,1.99-1.84.76-.72,1.03-1.19,1.4-2.18.4-1.06.57-1.23,1.34-2.23.52-.68.83-1.44,1.12-2.25.29-.78.3-1.65.31-2.48,0-.39-.24.32.08-.15.13-.19.23-.43.34-.64.23-.45.53-.88.61-1.38.07-.42.03-.89.03-1.31,0-.23,0-.46,0-.69-.01.2-.01.02.06-.25.26-1.01.45-1.79.26-2.8-.05-.29-.11-.58-.16-.88-.02-.11-.08-.61-.08-.4,0,.22.04-.31.05-.4.03-.33.05-.66.08-.99.06-.87-.18-1.68-.22-2.54-.09-1.66.2-3.34-.54-4.91-.23-.49-.52-.96-.75-1.46-.17-.37.03.13-.04-.13-.08-.28-.12-.58-.18-.86-.19-.91-.32-1.85-.52-2.75-.18-.81-.56-1.63-.93-2.38-.15-.3-.34-.58-.52-.87-.15-.24-.3-.48-.45-.72-.27-.44-.02.08-.14-.29-.29-.86-.37-1.7-.9-2.45-.56-.8-1.04-1.55-1.5-2.41-.77-1.47-1.25-3.15-2.23-4.5-.25-.35-.58-.65-.86-.97-.39-.44-.51-.58-.63-.81-.45-.82-.85-1.66-1.24-2.52-.73-1.61-1.85-2.93-2.73-4.44-.85-1.45-1.56-2.98-2.38-4.45-.88-1.58-1.9-3.01-2.88-4.53-.88-1.37-1.35-2.99-2.41-4.26-.37-.44-.77-.86-1.12-1.31-.17-.22.19.28-.05-.1-.17-.26-.33-.53-.49-.8-.13-.22-.27-.43-.4-.65-.15-.25.12.3-.06-.09-.24-.52-.42-1.07-.65-1.6-.66-1.5-1.85-2.7-2.58-4.16-.44-.88-.65-1.67-1.35-2.38-.09-.09-.91-1.09-1.03-1.06.09-.02.21.7.16.15-.03-.29-.16-.6-.23-.89-.5-1.92-1.62-3.18-2.83-4.69-.28-.35.08.15-.06-.09-.13-.22-.24-.45-.35-.68-.13-.25-.26-.51-.39-.76-.27-.51.04.15-.13-.25-.36-.83-.69-1.67-1.05-2.5-.75-1.71-1.89-3.14-2.72-4.82-.71-1.43-1.38-2.87-2.1-4.3-.24-.48-.49-.97-.72-1.45-.13-.27.12.31-.04-.09-.13-.33-.25-.67-.38-1-.32-.84-.53-1.69-.81-2.54-.24-.74-.54-1.47-.84-2.19-.19-.46-.41-.9-.62-1.35-.11-.23-.22-.46-.33-.7-.08-.17.09.26-.06-.18-.56-1.7-.92-3.45-1.59-5.12-.62-1.53-.99-3.38-1.13-5.03-.02-.29,0,.39.04-.04.03-.25.04-.51.07-.76.04-.42.08-.84.11-1.26.06-.8.12-1.61.11-2.41,0-.53,0-1.11-.08-1.64-.11-.73-.12.19-.17.16l.3-.65c.41-.9.75-1.67.93-2.64.32-1.74,1.05-3.35,1.5-5.06.21-.8.36-1.62.61-2.41.23-.75.67-1.46.84-2.22.09-.39.08-.83.12-1.23.02-.28.05-.56.07-.84.02-.26.05-.37.03-.26.2-.87.58-1.71.52-2.61-.12-1.83-.32-3.55-.17-5.38.08-.94-.2-1.62-.47-2.53-.24-.8-.25-1.7-.53-2.48-.12-.33-.34-.63-.52-.93-.15-.24-.29-.48-.44-.72-.05-.07-.29-.53-.19-.28-.32-.83-.24-1.74-.72-2.51-.96-1.56-1.9-3.11-2.79-4.72-.79-1.43-1.69-2.86-2.58-4.23-1.06-1.63-2.36-2.86-3.27-4.31-.49-.78-1.07-1.37-1.73-2.02-.32-.32-.25-.23-.6-.71-.29-.39-.57-.78-.86-1.17-.54-.74-1.8-.02-1.24.73Z"/>
        </g>
      </g>
    </g>
  </g>
</svg>