<svg id="materials" xmlns="http://www.w3.org/2000/svg" viewBox="0 0 240 240"><defs><style>.cls-1{fill:#62d2dd;}.cls-2{fill:#515556;}.cls-3{fill:#fff;}</style></defs><title>question</title><path class="cls-1" d="M26.41,127.84c-38.82-29.12-18-107.41,76.25-115.07C231.81,2.27,261.55,104,204.2,134.55c26.5,34.59-28.17,79.06-65,53.71-96.8,13.2-135-29.92-112.77-60.42"/><path class="cls-2" d="M30,123c-10.58-8-16-20-16.08-33.43,0-14.69,6.7-31,21.19-44.4s36.79-23.85,68-26.39q9.19-.75,17.67-.74c36.52,0,62.91,9.92,80.06,23.65S226.05,73,226.05,89A44.49,44.49,0,0,1,219.88,112a46.64,46.64,0,0,1-18.52,17.27,6,6,0,0,0-2,9c4.12,5.43,5.73,10.7,5.75,15.91A27.63,27.63,0,0,1,201.8,167a42.45,42.45,0,0,1-15.73,16.14,44.55,44.55,0,0,1-22.76,6.58,36,36,0,0,1-20.71-6.41,6,6,0,0,0-4.23-1,247.11,247.11,0,0,1-33.24,2.39c-27.39,0-47.58-5.52-60.48-13.25-6.45-3.85-11.08-8.22-14-12.64a23.59,23.59,0,0,1-4.31-13.22,23.91,23.91,0,0,1,5-14.17,6,6,0,1,0-9.75-7.11,34.59,34.59,0,0,0-.95,41.23c6.23,9.25,16.62,17,30.73,22.49s32.06,8.74,53.81,8.74a258.77,258.77,0,0,0,34.87-2.5l-.82-6-3.42,5a48.12,48.12,0,0,0,27.55,8.54,57.63,57.63,0,0,0,37-14.13,52,52,0,0,0,12.14-15,39.76,39.76,0,0,0,4.74-18.46A37.89,37.89,0,0,0,209,130.88l-4.79,3.67,2.83,5.33a58.79,58.79,0,0,0,23.22-21.76A56.54,56.54,0,0,0,238.12,89c0-20.08-10-41-29.69-56.76S159.5,6,120.82,6q-9,0-18.65.77C68.75,9.46,43.68,20.86,27,36.32S1.88,71.21,1.88,89.58c0,16.78,7.11,32.76,20.91,43.09A6,6,0,1,0,30,123Z"/><path class="cls-1" d="M197.46,215.74c-6.64,0-12.26-3.56-14.33-9.06-2.86-7.62,2-16.52,10.86-19.85a19.58,19.58,0,0,1,6.89-1.27c6.65,0,12.27,3.56,14.33,9.07,2.86,7.61-2,16.51-10.85,19.84A19.68,19.68,0,0,1,197.46,215.74Z"/><path class="cls-2" d="M200.88,191.6c4,0,7.46,1.9,8.68,5.14,1.69,4.52-1.59,9.92-7.33,12.08a13.66,13.66,0,0,1-4.77.89c-4,0-7.46-1.9-8.68-5.15-1.69-4.51,1.59-9.92,7.33-12.07a13.43,13.43,0,0,1,4.77-.89m0-12.07h0a25.35,25.35,0,0,0-9,1.66c-12,4.49-18.41,16.88-14.38,27.61,3,7.88,10.8,13,20,13a25.57,25.57,0,0,0,9-1.66c12-4.5,18.41-16.88,14.39-27.61C217.9,184.62,210.06,179.53,200.88,179.53Z"/><path class="cls-1" d="M216.63,228c-5.3,0-9.82-2.91-11.5-7.4-2.29-6.15,1.52-13.28,8.49-15.9a15.25,15.25,0,0,1,5.34-1c5.31,0,9.83,2.91,11.5,7.4,2.3,6.15-1.51,13.28-8.48,15.9A15.26,15.26,0,0,1,216.63,228Z"/><path class="cls-2" d="M219,209.74c2.69,0,5,1.28,5.85,3.47,1.14,3-1.08,6.69-4.95,8.14a9.16,9.16,0,0,1-3.23.6c-2.69,0-5-1.28-5.84-3.47-1.14-3,1.08-6.69,5-8.14a9.1,9.1,0,0,1,3.22-.6m0-12.07h0a21.18,21.18,0,0,0-7.47,1.37c-10.08,3.79-15.47,14.4-12,23.67,2.56,6.87,9.3,11.31,17.15,11.31a21.14,21.14,0,0,0,7.47-1.37c10.09-3.79,15.48-14.4,12-23.66C233.55,202.11,226.81,197.67,219,197.67Z"/><path class="cls-3" d="M155.27,159.74c-4.82,0-8.52-3.44-9.21-4.13l-6.5-5.89a52.2,52.2,0,0,1-21.62,4.33c-30,0-49.33-20.79-49.33-53S88,48.23,117.94,48.23s49.21,20.7,49.21,52.74c0,13.11-3,24.17-8.87,32.92l4.35,3.93c3.2,3.18,4.75,6.25,4.75,9.25C167.38,153.35,161.27,159.74,155.27,159.74ZM117.94,73.69c-7.81,0-20.91,3.56-20.91,27.4,0,22.51,11.76,26.93,19.67,27.35a11.93,11.93,0,0,1-2.1-6.53c0-6,6.16-12.44,12-12.44,4.53,0,8.2,3.09,9.23,4l1.12,1a42.93,42.93,0,0,0,1.79-13.44C138.73,77.25,125.7,73.69,117.94,73.69Z"/><path class="cls-2" d="M117.94,52.26c24.92,0,45.18,16.27,45.18,48.71,0,9.9-1.82,23-10.24,33.47l7.06,6.37c.68.68,3.41,3.42,3.41,6.26,0,4.1-4.32,8.65-8.08,8.65-3.19,0-5.92-2.5-6.37-3l-8.66-7.85c-3.75,1.93-10.92,5.12-22.3,5.12-24.47,0-45.3-15.59-45.3-48.94s20.83-48.83,45.3-48.83m.11,80.24a23.14,23.14,0,0,0,7.51-1L122,128.4c-1-.79-3.42-3.41-3.42-6.49,0-3.75,4.33-8.42,8-8.42a10.44,10.44,0,0,1,6.49,3l5.23,4.78c1.48-2.62,4.44-8,4.44-20.14,0-24.48-13.32-31.42-24.81-31.42C105.42,69.67,93,77.53,93,101.09c0,23.79,12.64,31.41,25,31.41m-.11-88.29c-32.41,0-53.35,22.33-53.35,56.88s20.94,57,53.35,57a56.86,56.86,0,0,0,20.79-3.68l4.65,4.22c1.45,1.4,5.89,5.15,11.89,5.15,8.29,0,16.13-8.12,16.13-16.7,0-4.1-1.94-8.12-5.76-11.94l-.31-.29-1.86-1.68c5.12-8.9,7.7-19.68,7.7-32.19C171.17,67,149.78,44.21,117.94,44.21ZM110.61,123c-6.34-3-9.55-10.27-9.55-21.88,0-10.66,2.92-23.37,16.88-23.37,11,0,16.76,8.08,16.76,23.37a51.68,51.68,0,0,1-.36,6.44,16.31,16.31,0,0,0-7.75-2.08c-8.08,0-16,8.15-16,16.46Z"/></svg>