<svg id="materials" xmlns="http://www.w3.org/2000/svg" viewBox="0 0 153.64 148.3"><defs><style>.cls-1{fill:#62d2dd;}.cls-2{fill:#474747;}.cls-3{fill:#fff;}</style></defs><title>question</title><path class="cls-1" d="M16,79.25C-9.29,60.31,4.27,9.4,65.54,4.42c84-6.83,103.33,59.34,66,79.19,17.24,22.49-18.31,51.42-42.28,34.93C26.34,127.12,1.53,99.08,16,79.25"/><path class="cls-2" d="M18.31,76.11c-6.88-5.18-10.44-13-10.46-21.74,0-9.56,4.36-20.17,13.78-28.87S45.56,10,65.86,8.33c4-.33,7.82-.48,11.49-.48,23.75,0,40.92,6.45,52.07,15.38S145.79,43.6,145.79,54a29.05,29.05,0,0,1-4,14.9,30.32,30.32,0,0,1-12,11.23A3.92,3.92,0,0,0,128.46,86a16.77,16.77,0,0,1,3.74,10.35A18,18,0,0,1,130,104.7a27.69,27.69,0,0,1-10.23,10.5A29,29,0,0,1,105,119.48a23.41,23.41,0,0,1-13.46-4.17,3.9,3.9,0,0,0-2.76-.65,161.62,161.62,0,0,1-21.61,1.55c-17.82,0-30.95-3.59-39.33-8.62a28.07,28.07,0,0,1-9.13-8.22,15.34,15.34,0,0,1-2.8-8.6,15.54,15.54,0,0,1,3.24-9.21,3.93,3.93,0,0,0-6.35-4.62,22.51,22.51,0,0,0-.61,26.81c4,6,10.8,11,20,14.63s20.86,5.68,35,5.68a168.53,168.53,0,0,0,22.67-1.63l-.53-3.89-2.22,3.24A31.25,31.25,0,0,0,105,127.33a37.52,37.52,0,0,0,24.09-9.19,33.88,33.88,0,0,0,7.9-9.79,25.85,25.85,0,0,0,3.08-12,24.64,24.64,0,0,0-5.36-15.12l-3.12,2.38,1.85,3.47a38.23,38.23,0,0,0,15.1-14.15A36.81,36.81,0,0,0,153.64,54c0-13.06-6.52-26.69-19.31-36.92S102.51,0,77.35,0c-3.89,0-7.93.16-12.13.51-21.73,1.76-38,9.17-48.91,19.22S0,42.42,0,54.37a34.44,34.44,0,0,0,13.6,28,3.93,3.93,0,0,0,4.71-6.28Z"/><path class="cls-1" d="M127.19,136.41c-4.31,0-8-2.31-9.32-5.89-1.86-5,1.31-10.74,7.06-12.9a12.7,12.7,0,0,1,4.49-.83c4.32,0,8,2.31,9.32,5.89,1.86,4.95-1.31,10.74-7.06,12.9A12.48,12.48,0,0,1,127.19,136.41Z"/><path class="cls-2" d="M129.42,120.71c2.59,0,4.85,1.24,5.64,3.35,1.1,2.93-1,6.45-4.76,7.85a8.94,8.94,0,0,1-3.11.58c-2.59,0-4.85-1.24-5.64-3.35-1.1-2.93,1-6.45,4.76-7.85a8.89,8.89,0,0,1,3.11-.58m0-7.85h0a16.79,16.79,0,0,0-5.87,1.08c-7.78,2.93-12,11-9.35,18,1.92,5.12,7,8.44,13,8.44a16.79,16.79,0,0,0,5.87-1.08c7.77-2.92,12-11,9.35-18C140.49,116.17,135.39,112.86,129.42,112.86Z"/><path class="cls-1" d="M139.66,144.38a7.76,7.76,0,0,1-7.48-4.81c-1.49-4,1-8.64,5.52-10.34a9.74,9.74,0,0,1,3.48-.64,7.76,7.76,0,0,1,7.48,4.8c1.49,4-1,8.64-5.52,10.35A10,10,0,0,1,139.66,144.38Z"/><path class="cls-2" d="M141.18,132.51a3.87,3.87,0,0,1,3.8,2.26c.74,2-.71,4.35-3.22,5.29a5.89,5.89,0,0,1-2.1.39,3.86,3.86,0,0,1-3.8-2.26c-.74-2,.7-4.34,3.22-5.29a6.08,6.08,0,0,1,2.1-.39m0-7.85h0a13.79,13.79,0,0,0-4.86.89c-6.56,2.46-10.07,9.37-7.81,15.39a11.62,11.62,0,0,0,11.15,7.36,13.83,13.83,0,0,0,4.86-.89c6.56-2.46,10.06-9.37,7.81-15.39A11.64,11.64,0,0,0,141.18,124.66Z"/><path class="cls-3" d="M99.76,100a9.22,9.22,0,0,1-6-2.69l-4.22-3.83A34,34,0,0,1,75.48,96.3C56,96.3,43.4,82.78,43.4,61.85S56,27.48,75.48,27.48s32,13.46,32,34.3c0,8.52-1.94,15.71-5.77,21.4l2.83,2.56c2.08,2.07,3.09,4.06,3.09,6C107.63,95.84,103.66,100,99.76,100ZM75.48,44c-5.08,0-13.6,2.31-13.6,17.81,0,14.64,7.65,17.52,12.79,17.79A7.78,7.78,0,0,1,73.3,75.4c0-3.94,4-8.1,7.8-8.1a9.49,9.49,0,0,1,6,2.63l.73.66A27.47,27.47,0,0,0,89,61.85C89,46.35,80.53,44,75.48,44Z"/><path class="cls-2" d="M75.48,30.1c16.21,0,29.38,10.58,29.38,31.68,0,6.44-1.18,15-6.66,21.76l4.59,4.14c.45.45,2.22,2.23,2.22,4.07,0,2.67-2.81,5.63-5.26,5.63a6.69,6.69,0,0,1-4.14-1.92L90,90.35a30.38,30.38,0,0,1-14.5,3.33C59.56,93.68,46,83.54,46,61.85S59.56,30.1,75.48,30.1m.07,52.18a14.87,14.87,0,0,0,4.89-.67l-2.3-2a6.06,6.06,0,0,1-2.22-4.22c0-2.45,2.81-5.48,5.18-5.48a6.78,6.78,0,0,1,4.22,1.92L88.73,75c1-1.7,2.88-5.18,2.88-13.1,0-15.91-8.66-20.43-16.13-20.43-8.14,0-16.21,5.11-16.21,20.43s8.21,20.43,16.28,20.43m-.07-57.42c-21.08,0-34.7,14.52-34.7,37S54.4,98.91,75.48,98.91A36.92,36.92,0,0,0,89,96.52l3,2.75a11.65,11.65,0,0,0,7.73,3.34c5.4,0,10.49-5.27,10.49-10.86,0-2.66-1.26-5.27-3.74-7.76l-.2-.19-1.21-1.09c3.32-5.79,5-12.8,5-20.93C110.1,39.7,96.18,24.86,75.48,24.86ZM70.71,76.08c-4.12-1.91-6.21-6.68-6.21-14.23,0-6.93,1.9-15.2,11-15.2,7.13,0,10.9,5.26,10.9,15.2A35.63,35.63,0,0,1,86.15,66a10.72,10.72,0,0,0-5.05-1.35c-5.25,0-10.41,5.3-10.41,10.71Z"/></svg>