<svg id="materials" xmlns="http://www.w3.org/2000/svg" viewBox="0 0 240 240"><defs><style>.cls-1{fill:#f4f4f4;}.cls-2{fill:#474747;}.cls-3{fill:#fff;}.cls-4{fill:#ea4c44;}</style></defs><title>question_1</title><path class="cls-1" d="M221.6,208.76c1.51-.38,1.73-2.18.28-2.6C206.46,201.7,202,190.32,202,190.32A68.92,68.92,0,1,0,181.3,206,67.19,67.19,0,0,0,221.6,208.76Z"/><path class="cls-2" d="M221.6,208.76l.37,1.45a3.24,3.24,0,0,0,1.72-1.06,2.85,2.85,0,0,0,.67-1.81,2.7,2.7,0,0,0-.56-1.63,2.89,2.89,0,0,0-1.51-1,31.42,31.42,0,0,1-15-9.15,25.45,25.45,0,0,1-3-4.15c-.3-.53-.52-1-.65-1.25a2.92,2.92,0,0,1-.14-.31l0-.08h0l-.39.16.39-.16h0l-.39.16.39-.16-1.4.55,1.11,1a70.39,70.39,0,1,0-21.19,16L181.3,206l-.62,1.37a67.56,67.56,0,0,0,25.45,4.81A65.08,65.08,0,0,0,222,210.21l-.37-1.45-.36-1.46a62.24,62.24,0,0,1-15.11,1.83,68.7,68.7,0,0,1-17.45-2.29c-2.16-.57-3.86-1.14-5-1.57-.58-.21-1-.38-1.32-.51l-.33-.13-.08,0h0l-.64-.29-.64.32a67.68,67.68,0,1,1,20.3-15.3l-.62.69.33.86a24.62,24.62,0,0,0,4.42,6.7,34.32,34.32,0,0,0,16.4,10h0l.15-.23-.24.13.09.1.15-.23-.24.13.31-.17h-.35l0,.17.31-.17h-.2l-.13-.1,0,.1h.15l-.13-.1s0,0-.14.06Z"/><path class="cls-3" d="M22.4,178.79a1.48,1.48,0,0,1-.15-2.89A30.77,30.77,0,0,0,41.5,152.77,74.7,74.7,0,1,1,64,169.72S44.62,184.08,22.4,178.79Z"/><path class="cls-2" d="M22.4,178.79l.46-1.94h0l-.16.39L23,177a.51.51,0,0,0-.17-.16l-.16.39L23,177l-.53.37h.65A.65.65,0,0,0,23,177l-.53.37h.11l.45.32a.68.68,0,0,0,.09-.32H22.6l.45.32-.26-.18.19.24.07-.06-.26-.18.19.24-.05-.07,0,.08h0l-.05-.07,0,.08h0a33.74,33.74,0,0,0,10.91-6.91A33,33,0,0,0,41.81,159a27.37,27.37,0,0,0,1.68-6l.11-.91-.62-.68a72.76,72.76,0,1,1,21.89,16.49l-1.09-.54-1,.73h0a52.67,52.67,0,0,1-9,5A52.92,52.92,0,0,1,32.49,178a41.65,41.65,0,0,1-9.63-1.11l-.46,1.94-.46,2A45.48,45.48,0,0,0,32.49,182a57,57,0,0,0,23.21-5.3,55.52,55.52,0,0,0,9.48-5.34L64,169.72l-.88,1.79A77,77,0,1,0,40,154.11l1.48-1.34-2-.25.47.06-.47-.06h0l.47.06-.47-.06A27.07,27.07,0,0,1,36.46,161a28.82,28.82,0,0,1-14.95,13,3.77,3.77,0,0,0-1.72,1.32,3.47,3.47,0,0,0-.65,2,3.39,3.39,0,0,0,.78,2.15,3.74,3.74,0,0,0,2,1.22Z"/><path class="cls-4" d="M72.88,87.89C60.48,87.89,63,75.08,63,75.08A23.58,23.58,0,0,1,69,63.54C75.06,56.59,84.43,53,96.55,53c19.38,0,31.5,9.16,31.5,23.7,0,6.43-2.11,11.38-6.53,15.49-2.53,2.32-3.58,3.06-12.75,8.75-3.94,2.53-5.63,5-6,8.91,0,.33,0,.65,0,1,0,1.89-.4,9.62-9.61,9.62-6.62,0-8.72-5.65-9.35-8.4a10.3,10.3,0,0,1-.24-2.35C83.71,103,85.1,99,88.33,95.05c2.53-3,3.37-3.59,10.85-8.12,5.16-3.05,6.85-5.26,6.85-8.74,0-5-3.69-7.9-10-7.9-4.74,0-8.22,1.68-10.22,4.95-.11.18-.22.35-.31.53A9.65,9.65,0,0,0,84.41,79C84.07,81.15,82.25,87.89,72.88,87.89Z"/><path class="cls-2" d="M72.88,87.89v-1.5a10.42,10.42,0,0,1-4.64-.92A6.44,6.44,0,0,1,65.05,82a11.83,11.83,0,0,1-.76-4.31,14.22,14.22,0,0,1,.1-1.7c0-.21,0-.37.06-.47l0-.12v0h0L63,75.08l1.46.33a24.56,24.56,0,0,1,2.08-5.92,23.08,23.08,0,0,1,3.51-4.94v0h0a27.33,27.33,0,0,1,11-7.46,43.4,43.4,0,0,1,15.52-2.56c9.46,0,17,2.24,22.11,6.1a19.43,19.43,0,0,1,5.85,6.93,22,22,0,0,1,.55,17.2,18.25,18.25,0,0,1-4.56,6.36h0a29,29,0,0,1-3.72,3c-1.67,1.15-4.22,2.76-8.8,5.6h0a15.86,15.86,0,0,0-4.77,4.36,11.65,11.65,0,0,0-1.86,5.7c0,.26,0,.52,0,.75V111a9.46,9.46,0,0,1-1.22,4.74A6.14,6.14,0,0,1,97.76,118a9.45,9.45,0,0,1-4.57,1,7.67,7.67,0,0,1-3.49-.76,7.53,7.53,0,0,1-3.07-3,12.43,12.43,0,0,1-1.32-3.44,8.29,8.29,0,0,1-.21-1.86v-.13a26.7,26.7,0,0,1,1.12-7.94A17.58,17.58,0,0,1,89.49,96l-1.16-1,1.14,1a23.85,23.85,0,0,1,1.63-1.78A17.76,17.76,0,0,1,94,92c1.33-.9,3.19-2,6-3.74l-.78-1.29.77,1.29a20,20,0,0,0,5.77-4.58,8.26,8.26,0,0,0,1.39-2.59,9.13,9.13,0,0,0,.42-2.86,9.53,9.53,0,0,0-.81-4,8.49,8.49,0,0,0-4.09-4.1A14.85,14.85,0,0,0,96,68.79a15.44,15.44,0,0,0-6.79,1.4,11.14,11.14,0,0,0-4.71,4.26h0c-.13.2-.24.4-.35.6a11.08,11.08,0,0,0-1.25,3.71,9.41,9.41,0,0,1-2,4.53A8.2,8.2,0,0,1,78,85.43a12.36,12.36,0,0,1-5.09,1v3a15.19,15.19,0,0,0,6.31-1.22,11.06,11.06,0,0,0,5.19-4.66,12.74,12.74,0,0,0,1.51-4.29,8.24,8.24,0,0,1,.91-2.72c.08-.15.17-.31.27-.46v0a8.05,8.05,0,0,1,3.46-3.13A12.49,12.49,0,0,1,96,71.79a10.19,10.19,0,0,1,6.44,1.77A5.19,5.19,0,0,1,104,75.49a6.49,6.49,0,0,1,.54,2.7,6.31,6.31,0,0,1-.27,1.94,6.09,6.09,0,0,1-1.69,2.53,22,22,0,0,1-4.15,3h0c-3.74,2.27-5.84,3.57-7.4,4.73a17.79,17.79,0,0,0-2,1.72c-.6.6-1.16,1.22-1.8,2v0h0a20.4,20.4,0,0,0-3.8,6.78,29.57,29.57,0,0,0-1.27,8.82l1.5,0-1.5,0v.2a11.34,11.34,0,0,0,.28,2.53,14.57,14.57,0,0,0,2.73,5.84,9.93,9.93,0,0,0,3.24,2.63A10.54,10.54,0,0,0,93.19,122a12.35,12.35,0,0,0,6-1.36,8.94,8.94,0,0,0,2.81-2.37,10.67,10.67,0,0,0,1.94-4.12,13.44,13.44,0,0,0,.36-3.1v-.52a4.18,4.18,0,0,1,0-.51,8.6,8.6,0,0,1,1.36-4.27,13,13,0,0,1,3.9-3.5l-.81-1.26.79,1.27c4.59-2.85,7.15-4.46,8.92-5.68a32.55,32.55,0,0,0,4-3.23h0a21.43,21.43,0,0,0,5.28-7.39,24.95,24.95,0,0,0-.62-19.7,24,24,0,0,0-11.52-10.89c-5.22-2.49-11.69-3.81-19.13-3.81A46.46,46.46,0,0,0,80,54.27a30.3,30.3,0,0,0-12.14,8.28l1.13,1-1.12-1a26.28,26.28,0,0,0-3.95,5.57,27.58,27.58,0,0,0-2.34,6.64v0a16.38,16.38,0,0,0-.24,2.89,15.8,15.8,0,0,0,.38,3.5,10.3,10.3,0,0,0,3.15,5.59,9.78,9.78,0,0,0,3.37,1.92,14.7,14.7,0,0,0,4.69.7Z"/><path class="cls-4" d="M105,136.69A11.59,11.59,0,1,1,93.36,125.1,11.59,11.59,0,0,1,105,136.69Z"/><path class="cls-2" d="M105,136.69h-1.5a10.09,10.09,0,1,1-3-7.13,10.07,10.07,0,0,1,3,7.13h3a13.09,13.09,0,1,0-13.09,13.09,13.09,13.09,0,0,0,13.09-13.09Z"/></svg>