<?xml version="1.0" encoding="utf-8"?>
<!-- Generator: Adobe Illustrator 16.0.4, SVG Export Plug-In . SVG Version: 6.00 Build 0)  -->
<!DOCTYPE svg PUBLIC "-//W3C//DTD SVG 1.1//EN" "http://www.w3.org/Graphics/SVG/1.1/DTD/svg11.dtd">
<svg version="1.1" id="レイヤー_1" xmlns="http://www.w3.org/2000/svg" xmlns:xlink="http://www.w3.org/1999/xlink" x="0px"
	 y="0px" width="512px" height="512px" viewBox="0 0 512 512" enable-background="new 0 0 512 512" xml:space="preserve">
<g>
	<g>
		<polygon fill="#4F4646" points="114.924,494 59.967,494 183.127,170.986 207.025,170.986 		"/>
		<polygon fill="#4F4646" points="454.762,494 399.806,494 330.907,170.986 354.806,170.986 		"/>
		<polygon fill="#4F4646" points="393.911,254.115 137.178,254.115 151.717,216.829 381.959,216.829 		"/>
		<polygon fill="#4F4646" points="416.998,321.351 109.159,321.351 124.983,284.065 403.952,284.065 		"/>
		<polygon fill="#4F4646" points="442.061,388.588 78.823,388.588 95.933,351.3 427.918,351.3 		"/>
		<polygon fill="#4F4646" points="469.095,455.822 46.171,455.822 64.565,418.535 453.858,418.535 		"/>
	</g>
</g>
<g>
	<polygon fill="#EF4D4D" points="166.688,14.287 361.165,14.288 263.883,284.065 	"/>
	<polygon fill="#F27171" points="166.688,14.287 107.986,111.584 205.641,111.584 	"/>
	<polygon fill="#F27171" points="361.165,14.288 322.548,111.584 420.201,111.584 	"/>
	<polygon fill="#BF3E3E" points="264.147,14.288 205.641,111.584 322.715,111.584 	"/>
	<polygon fill="#BF3E3E" points="107.986,111.584 263.888,284.065 205.641,111.584 	"/>
	<polygon fill="#BF3E3E" points="420.201,111.584 263.883,284.065 322.131,111.584 	"/>
</g>
</svg>
