<svg id="materials" xmlns="http://www.w3.org/2000/svg" viewBox="0 0 240 240"><defs><style>.cls-1{fill:#515556;}.cls-2{fill:#725b28;}.cls-3{fill:#9e915a;}.cls-4{fill:#bf3e3e;}.cls-5{fill:#ef4d4d;}.cls-6{fill:#f27171;}.cls-7{fill:#ef8b8b;}</style></defs><title>rails</title><polygon class="cls-1" points="58.59 219.37 58.59 224.45 102.32 70.01 101.71 68.16 58.59 219.37"/><polygon class="cls-1" points="181.15 219.37 181.15 224.45 148.06 70.01 148.9 68.16 181.15 219.37"/><polygon class="cls-2" points="34.42 218.3 91.26 69.23 100.29 69.23 57.79 218.3 34.42 218.3"/><path class="cls-1" d="M98.87,70.3,57,217.23H36L92,70.3h6.87m2.84-2.14H90.52L32.87,219.37H58.6Z"/><polygon class="cls-2" points="182.02 218.3 150.22 69.23 159.3 69.23 205.43 218.3 182.02 218.3"/><path class="cls-1" d="M158.51,70.3,204,217.23h-21.1L151.54,70.3h7m1.58-2.14H148.9l32.25,151.21h25.73Z"/><polygon class="cls-3" points="65.18 106 71.15 90.69 177.42 90.69 182.33 106 65.18 106"/><path class="cls-1" d="M176.64,91.76l4.22,13.17H66.74l5.14-13.17H176.64m1.56-2.14H70.42l-6.81,17.45H183.79Z"/><polygon class="cls-3" points="52.11 137.48 58.61 122.16 187.74 122.16 193.09 137.48 52.11 137.48"/><path class="cls-1" d="M187,123.23l4.6,13.18H53.73l5.59-13.18H187m1.51-2.14H57.91L50.5,138.55H194.6Z"/><polygon class="cls-3" points="37.97 168.95 44.99 153.64 198.97 153.64 204.78 168.95 37.97 168.95"/><path class="cls-1" d="M198.24,154.71l5,13.17H39.63l6-13.17H198.24m1.47-2.14H44.31L36.3,170h170Z"/><polygon class="cls-3" points="22.73 200.43 30.29 185.11 211.14 185.11 217.4 200.43 22.73 200.43"/><path class="cls-1" d="M210.42,186.18l5.38,13.18H24.45L31,186.18H210.42m1.44-2.14H29.62L21,201.5H219Z"/><rect class="cls-1" x="21.01" y="201.5" width="197.98" height="3.39"/><rect class="cls-1" x="36.3" y="170.02" width="170.04" height="3.39"/><rect class="cls-1" x="50.5" y="138.55" width="144.1" height="3.39"/><rect class="cls-1" x="63.61" y="107.07" width="120.18" height="3.39"/><rect class="cls-1" x="32.87" y="219.37" width="25.72" height="5.08"/><rect class="cls-1" x="181.15" y="219.37" width="25.73" height="5.08"/><path class="cls-4" d="M108.43,126.9a2.16,2.16,0,0,1-.71-.12,2.22,2.22,0,0,1-1.27-1.19l-33-78.43a2.15,2.15,0,0,1,.61-2.48l32.05-26.5a2.14,2.14,0,0,1,2.07-.37l67.16,23.53a2.16,2.16,0,0,1,1.39,1.58l8.61,40.74A2.15,2.15,0,0,1,184.3,86l-74.85,40.65A2.18,2.18,0,0,1,108.43,126.9Z"/><path class="cls-1" d="M107.5,19.83l67.16,23.53,8.62,40.75-74.85,40.65h0l-33-78.42,32-26.5m0-4.28a4.26,4.26,0,0,0-2.72,1L72.73,43a4.28,4.28,0,0,0-1.22,5l32.95,78.38a4.25,4.25,0,0,0,1.78,2.06,4.19,4.19,0,0,0,2.19.61,4.36,4.36,0,0,0,2-.52l74.85-40.65a4.28,4.28,0,0,0,2.14-4.65l-8.61-40.74a4.29,4.29,0,0,0-2.77-3.16L108.92,15.79A4.37,4.37,0,0,0,107.5,15.55Z"/><polygon class="cls-5" points="107.5 19.83 174.66 43.36 108.42 124.76 107.5 19.83"/><polygon class="cls-6" points="107.5 19.83 75.46 46.33 109.18 58.14 107.5 19.83"/><polygon class="cls-6" points="174.66 43.36 149.55 72.29 183.28 84.11 174.66 43.36"/><polygon class="cls-7" points="141.16 31.62 109.18 58.14 149.61 72.31 141.16 31.62"/><polygon class="cls-4" points="75.46 46.33 108.42 124.76 109.18 58.14 75.46 46.33"/><polygon class="cls-4" points="183.28 84.11 108.42 124.76 149.41 72.24 183.28 84.11"/></svg>