<?xml version="1.0" encoding="UTF-8"?>
<svg id="_レイヤー_1" xmlns="http://www.w3.org/2000/svg" version="1.1" viewBox="0 0 660 660">
  <!-- Generator: Adobe Illustrator 29.2.1, SVG Export Plug-In . SVG Version: 2.1.0 Build 116)  -->
  <defs>
    <style>
      .st0 {
        fill: #4742c2;
      }

      .st1 {
        fill: #ebebf7;
      }
    </style>
  </defs>
  <path class="st1" d="M454,82.7c-.6-2.9-1.8-5.5-2.2-8.5,0-.8-.8-1.6-1.2-2.3-1.3-2.5-2.3-5.3-4.3-7.4-3.5-3.8-7.1-7.4-12-9.6-5.5-2.5-11.3-3.5-17.2-4.3-10.5-1.3-21-.9-31.5-.9-3.8,0-7.6-.8-11.4-.7-.3,0-.6-.2-1.1-.4-5.3,0-10.3,0-15.4,0-1.9.4-3.9.3-5.8.1-4.4-.3-8.6.5-12.6,2.4-2.9,1.4-6.3,1.5-9.4,2.4-2.6.8-5.3,1.6-7.8,2.7-2,.9-4.1,1.4-6.1,2.4-2,1-3.9,2.2-6,3.1-3.4,1.5-7,2.5-10.5,3.7-.7.2-1.5.5-2.2.8-1.8.6-3.5,1.7-5.4,1.9-2.2.3-3.4,2.2-4.8,3.6-1.7,1.6-3.4,3.1-5.1,4.5-3,2.5-5.8,5.2-8.5,8-4.1,4.1-8.3,8.1-12.5,12-3,2.8-5.8,5.9-8.8,8.7-2.8,2.7-5.6,5.5-8.6,8-3.7,3-5.7,7-7.7,11-3.2,6.4-6.8,12.7-10.5,18.8-2.1,3.5-3.4,7.2-5.4,10.7-2.9,5.2-5.8,10.4-8.8,15.6-.8,1.4-1.4,2.8-2.3,4.1-.5.8-.8,1.8-.8,2.7.1,2.7-.3,5.4-.4,8.1,0,7.6-.6,15.2-1.2,22.8-.1,1.8-.2,3.5-.3,5.3-.2,4.6-.5,9.3-.9,13.9-.2,2.3,0,4.7,0,7,0,3.4-.9,6.6-.7,10,0,.3-.2.6-.4,1.1,0,3.5,0,6.8,0,10,.9,1.6.9,3.5,1.1,5.3.2,2.4.9,4.6,1.3,6.9.9,4.6,2.9,8.8,5.4,12.7,1.4,2.3,3.2,4.3,5.1,6.3,2.6,2.7,5.6,5.1,9.1,6.7,3.9,1.8,8,3.3,12.3,3.8,3.4.4,6.7,1,10.4,1.1,1.2,0,2.2,0,3.1,0,.6,0,1.1-.2,1.7-.2,5.2-.1,10.3-.3,15.5-.9,2.5-.3,4.9.3,7.4,0,4.2-.3,8.4,0,12.6-.5,3.6-.5,7.3-.7,10.9-.6,6.2.2,12.4,0,18.6-.8,3.7-.5,7.5-.5,11.2-.7,2.2-.1,4.4-.6,6.5-.5,3,.2,5.9-.7,8.8-.9,5.2-.3,10.5-.1,15.6-1.4.6-.1,1.1-.1,1.7-.1,4.7.1,9.3-.3,13.9-.8,2.5-.3,5.1-.2,7.6-.2,1.6,0,3.2,0,4.8-.2,7.3-.6,14.5-1.8,21.9-1.7,3.5,0,7,.1,10.5,0,4-.2,8-.3,12-1,2.5-.4,5-.3,7.5-.8,1.4-.3,2.2-1,2.3-2.4.1-1.7.2-3.5.4-5.1.3-2.2.3-4.4.4-6.5.1-3,0-5.9.3-8.9.5-5,.1-10.2,1-15.1,1.4-7.7,1.3-15.5,1.5-23.2.1-3.8.7-7.5,1.7-11.2.6-2.4.8-5.1.7-7.6-.2-5.8.6-11.6.8-17.4.2-5.7.7-11.4,1-17.2.3-6.4.8-12.7,1-19.1.1-5.2.6-10.5.9-15.7.2-3.7,1-7.3,1.4-11,.2-1.5.3-2.9.3-4.4-.1-7.7.7-15.3.9-23,.2-5.2-.5-10.3-1.6-15.4Z"/>
  <path class="st0" d="M357.8,48.6c5,0,10.1,0,15.4,0,.5.2.8.4,1.1.4,3.8-.1,7.6.7,11.4.7,10.5,0,21-.4,31.5.9,5.9.7,11.7,1.7,17.2,4.3,4.8,2.2,8.5,5.8,12,9.6,2,2.2,3,4.9,4.3,7.4.4.8,1.1,1.5,1.2,2.3.4,2.9,1.5,5.6,2.2,8.5,1.1,5.1,1.8,10.3,1.6,15.4-.3,7.7-1.1,15.3-.9,23,0,1.4-.2,2.9-.3,4.4-.4,3.7-1.2,7.3-1.4,11-.3,5.2-.8,10.5-.9,15.7-.2,6.4-.7,12.7-1,19.1-.3,5.7-.8,11.4-1,17.2-.2,5.8-1,11.6-.8,17.4,0,2.5-.1,5.2-.7,7.6-.9,3.7-1.5,7.5-1.7,11.2-.3,7.8,0,15.5-1.5,23.2-.9,4.9-.6,10.1-1,15.1-.3,2.9-.2,5.9-.3,8.9,0,2.2,0,4.3-.4,6.5-.2,1.6-.3,3.4-.4,5.1-.1,1.4-.9,2.1-2.3,2.4-2.5.5-5,.3-7.5.8-4,.7-8,.8-12,1-3.5.2-7,0-10.5,0-7.3,0-14.6,1.1-21.9,1.7-1.6.1-3.2.3-4.8.2-2.6,0-5.1-.1-7.6.2-4.6.5-9.2,1-13.9.8-.6,0-1.2,0-1.7.1-5.1,1.2-10.4,1-15.6,1.4-3,.2-5.8,1-8.8.9-2.2-.1-4.4.3-6.5.5-3.7.2-7.5.2-11.2.7-6.2.8-12.4,1-18.6.8-3.7-.1-7.3.1-10.9.6-4.2.6-8.4.2-12.6.5-2.5.2-5-.4-7.4,0-5.1.6-10.3.8-15.5.9-.6,0-1.1.1-1.7.2-1,0-1.9,0-3.1,0-3.7,0-7-.7-10.4-1.1-4.3-.5-8.4-1.9-12.3-3.8-3.5-1.6-6.5-4-9.1-6.7-1.9-1.9-3.6-4-5.1-6.3-2.5-3.9-4.5-8.1-5.4-12.7-.5-2.3-1.1-4.5-1.3-6.9-.2-1.8-.2-3.6-1.1-5.3,0-3.3,0-6.5,0-10,.2-.5.4-.8.4-1.1-.2-3.4.7-6.6.7-10,0-2.3-.1-4.7,0-7,.4-4.6.7-9.3.9-13.9,0-1.8.2-3.5.3-5.3.6-7.6,1.1-15.2,1.2-22.8,0-2.7.5-5.4.4-8.1,0-.9.3-1.9.8-2.7.8-1.3,1.5-2.8,2.3-4.1,2.9-5.2,5.9-10.4,8.8-15.6,1.9-3.5,3.3-7.3,5.4-10.7,3.7-6.2,7.3-12.4,10.5-18.8,2-4,4-8,7.7-11,3-2.4,5.8-5.3,8.6-8,3-2.9,5.8-5.9,8.8-8.7,4.3-3.9,8.5-7.9,12.5-12,2.7-2.8,5.6-5.5,8.5-8,1.7-1.5,3.4-3,5.1-4.5,1.4-1.4,2.6-3.2,4.8-3.6,2-.3,3.6-1.3,5.4-1.9.7-.2,1.5-.5,2.2-.8,3.5-1.1,7.1-2.2,10.5-3.7,2-.9,3.9-2.1,6-3.1,2-1,4.1-1.5,6.1-2.4,2.5-1.1,5.2-1.9,7.8-2.7,3.1-.9,6.4-1,9.4-2.4,4-1.9,8.2-2.7,12.6-2.4,1.9.1,3.9.2,5.8-.1ZM267.6,200.4c3-1.5,6.1-2.9,9.1-4.4,1-.5,2.3-.9,2.7-2,.5-1.3,1.5-1.5,2.6-1.7.6-.1,1.1-.2,1.6-.5,4.7-3,9-6.5,13.4-9.9,1-.7,2.1-1.2,3-2,2.7-2.4,5.7-4.4,8.2-7,2.5-2.6,5.3-5,7.9-7.6,1.7-1.8,3.6-3.5,5.4-5.1,1.4-1.3,2.9-2.5,4.2-3.9,3.3-3.7,6.3-7.7,9.4-11.5,1.5-1.8,2.8-3.7,4.4-5.5,2.5-2.8,4.4-6.1,6.6-9.2,1.9-2.6,3-5.7,4.4-8.6,1.6-3.6,2.9-7.4,4.7-10.9,2.2-4.2,3.9-8.6,4.8-13.3.4-2.1.5-4.3,1.2-6.4.3-1.1.9-2.2.9-3.5,0-2.5.6-4.8.8-7.3.2-2.9.3-5.9-.8-8.5-1.2-2.8-2.3-5.9-4.8-8.1-2-1.8-4.1-3.4-6.5-4.4-2-.8-4.2-1.3-6.4-1.5-3.4-.3-6.7,0-9.9.9-3.9,1.1-7.5,2.8-11.4,3.9-3.2.9-6.3,2.1-9.3,3.7-3.1,1.7-5.9,3.8-9,5.5-2,1.1-4,2.5-6,3.6-3.2,1.7-6.4,3.3-9.3,5.5-3.7,2.8-7.1,5.9-10.9,8.5-4.3,2.9-8,6.4-12,9.6-3.3,2.6-6.1,5.8-8.8,8.9-2.2,2.5-4.3,5-6.6,7.3-3.8,3.8-7.4,7.8-10.5,12.3-2.3,3.3-4.7,6.6-7.1,9.9-1.9,2.7-4,5.3-5.7,8.2-3.8,6.5-6.9,13.3-9.2,20.5-1.8,5.5-3,11.1-2.6,16.9.1,1.8-.2,3.7.2,5.5,1.1,4.8,2.5,9.4,5,13.7,1.7,3,3.9,5.2,7.1,6.4,4.4,1.6,9.1,1.1,13.5.7,5.2-.5,10.1-2.2,15-4.1,3.5-1.4,7-3.1,10.7-4.5ZM449.4,83.2c-.9-5.7-3.2-10.9-6.9-15.3-2.5-3.1-5.3-5.9-8.8-8.1-4-2.5-8.3-3.3-12.7-4.1-3-.6-6.2-.5-9.3-1-1.2-.2-2.6-.4-3.7.1-2.6,1.1-5.1,2.3-7.6,3.6-4.5,2.3-9,4.6-13.5,6.9-4.4,2.2-8.8,4.3-13.2,6.5-.6.3-1.2.6-1.6,1.4.8.7,1.6,1.6,2.6,2.2,4.4,2.7,8.2,6.1,12.5,9,3,2,5.6,4.4,8.5,6.6,2.8,2.1,5.7,4.2,8.6,6.2,4.2,2.9,8.2,6.1,12.3,9.1,3,2.2,6.1,4.1,9.1,6.4,4.2,3.2,8.4,6.4,12.7,9.5,2.7,1.9,5.3,4,7.9,5.9.8.6,1.1,1.4,1,2.3-.2.9-1,1.1-1.9,1.4-1.9.5-3.8-.2-5.6,0-1.8.3-3.6,0-5.3-.2-4.3-.4-8.7-.4-13-.4-5.5,0-10.9.3-16.4.4-8.9.2-17.8.1-26.6-.2-3-.1-6.1,0-9.1.2-3.9.2-7.8,0-11.7,0-1.1,0-1.4.4-1,1.5,1.3,3.3,1.8,6.7,2.9,10.1,1.1,3.5,1.8,7,2.9,10.5,1.2,4,2.6,8,3.4,12.1.3,1.8,1.2,3.4,1.6,5.1.6,2.6.9,5.3,1.5,7.9,1.3,5.1,2.2,10.4,3.8,15.5,1.7,5.5,3.5,10.9,4.9,16.5,1,3.9,2,7.9,3,11.8.2.7,0,1.8.9,1.9.9,0,1.6-.6,2.1-1.5.6-1.2,1.5-2.3,2.5-3.2,3.8-3.6,7.5-7.2,10.9-11.2.8-.9,1.7-1.7,2.3-2.7,1.8-2.9,4.2-5.3,6.2-8,1.7-2.2,3.9-3.9,5.4-6.3,1.4-2.1,3.3-3.8,4.9-5.6,1.3-1.5,3-2.8,4.2-4.4,2.2-3,4.5-6,6.7-9.2,3.8-5.6,7.7-11.1,11.3-16.9,2.5-4.1,4.8-8.3,6.8-12.7,1.2-2.6,2.8-5.2,2.9-8.1,0-5.2,1.9-10.2,1.8-15.4,0-1.4.3-2.7.4-4.2,0-4.3.7-8.5.8-12.8.2-6.4-.2-12.8-1.1-19.5ZM349.8,253.9c2-.9,3.4-2.6,5.1-3.8,3.9-2.8,7.6-5.9,11.4-8.8,3.7-2.8,7.4-5.5,10.6-8.9-.7-.6-1.4-.8-2.2-1-1.9-.5-4-.7-5.7-1.6-2.7-1.4-5.7-1.9-8.5-3.1-1.8-.7-3.8-1.2-5.6-1.9-3.9-1.5-7.9-3-11.9-4.3-6.2-2-12.3-4.2-18.5-6.4-2.6-.9-5.4-1.8-7.9-3.3-1.8-1.2-4.1-1.5-6.1-2.4-3.4-1.6-6.9-2.7-10.4-3.9-4.2-1.4-8.3-2.7-12.4-4.2-.9-.3-1.8-.6-2.7-1-1-.4-1.4,0-1.7,1-.3,1.4-.6,2.8-1,4.1-2.1,8.1-4.2,16.1-6.2,24.2-.7,2.8-1.6,5.6-2.2,8.5-1,4.4-2,8.8-3.2,13.2-2.1,7.9-3.9,15.9-6.1,23.8-.7,2.6-1.3,5.1-2,7.7-.6,2.4-1.4,4.8-2.1,7.2-.3,1-.9,1.9-.7,3.2,1.3-.5,2.6-.4,3.9-.5,2.5-.3,5-.1,7.5-.4,2.6-.3,5.1-.3,7.7,0,3.7.4,7.2,0,10.6-1.4,2.5-1,4.9-2.2,7.5-3.2,3.5-1.4,6.7-3.2,10-4.9,3.7-1.9,7.2-4.4,10.8-6.6,2.7-1.7,5.3-3.4,8-5.1,2.1-1.3,4.3-2.4,6.4-3.7,3.5-2.1,7.1-4,10.2-6.6,2.3-1.9,4.9-3.5,7.3-5.7ZM330.6,157.4c-1.6,2-3.4,3.9-5.3,5.8-2,2-4.4,3.6-6.4,5.6-3,3-6.3,5.7-9.5,8.5-3.1,2.9-6.6,5.4-10.1,7.8-3,2.1-5.8,4.4-9.1,6.1-1.2.6-2.4,1.4-3.3,2.7,3.3,1.5,6.6,2.6,9.9,3.8,4.1,1.4,8.5,2.3,12.5,4.1,4.6,2,9.5,3.3,14.2,5.3,3.3,1.4,6.6,2.8,10,3.9,4.2,1.4,8.3,2.9,12.4,4.6,2.8,1.2,5.8,1.6,8.5,2.9,1.8.9,4,.9,5.8,1.7,3.9,1.6,8.1,2.3,12,3.8.5.2,1.1.6,1.8.4-.2-2.1-1.2-4-1.3-6.2-.2-4.1-2.1-7.8-2.5-11.9,0-.8-.2-1.6-.5-2.3-1.3-3.1-1.8-6.5-3-9.7-1.3-3.3-1.3-6.8-2.5-10.2-.5-1.5-1.1-3.1-1.5-4.6-.3-1.4,0-2.8-.6-4.2-.8-2-1.5-4.1-1.7-6.2-.5-4.9-2.8-9.3-3.4-14.3-.4-3.3-1.6-6.5-2.5-9.8-.8-3-1.7-5.9-2.7-8.8-.5-1.3-.5-2.8-1.3-4.2-1.1,1.6-2.3,3-3.1,4.5-1.4,2.8-3.6,4.9-5.3,7.5-1.7,2.5-4.1,4.4-6.1,6.6-1.8,2-3.4,4.3-5.5,6.4ZM339.1,274.3c4.6,0,9.2,0,13.8.3,6.5.3,13.1-.3,19.6.3,1.8.2,3.7.2,5.5.3,2.6,0,5.2.2,7.7.8,2,.5,4,.8,6,1.1,5.7.8,11.5,1,17.3,1.6,6.3.7,12.5,1.3,18.8,2.2,3.1.4,6-.3,9.1-.8-.8-.7-1.3-1.4-2-2-2.1-1.5-4.1-3.1-6-4.7-3.8-3.3-7.7-6.5-11.6-9.6-1.6-1.3-3.4-2.4-5-3.8-2.2-1.9-4.3-3.8-6.6-5.5-3.1-2.3-5.9-4.9-8.9-7.3-2-1.6-3.8-3.4-5.8-5-3.5-2.7-6.8-5.7-10.1-8.6-.8-.7-1.5-.8-2.2.2-1.9,2.4-4.3,4.3-6.2,6.6-1.5,1.8-3.5,3.2-5.2,4.9-3.2,3.2-6.8,5.8-10.1,8.8-2.8,2.5-5.7,4.8-8.5,7.3-1,.9-1.9,1.8-2.9,2.6-1.9,1.4-3.9,2.6-5.8,4-2.5,1.9-4.9,3.9-7.8,5.3-.3.1-.6.3-.4,1,2.3,0,4.7,0,7.4,0ZM398,242.5c1.8,1.6,3.5,3.2,5.2,4.8,2.7,2.5,5.3,5.1,8.1,7.6,3,2.7,6.1,5.2,9.1,7.8,2.1,1.9,4.3,3.7,6.4,5.6,3,2.8,6.1,5.4,9.1,8.2.5.4.7,1.2,1.5.9.7-.3.3-1.1.4-1.7.8-5.8-1.5-11.2-2.1-16.9-.4-3.4-1.4-6.8-2.3-10.2-1.1-4.1-1.9-8.2-2.6-12.4-.8-5.6-1.5-11.2-2.2-16.9-.2-1.9-.8-3.8-.7-5.7.3-3.7-.7-7.4-1.1-11-.5-3.6-1.2-7.1-1.4-10.7-.1-2.5-.3-5.1-1-7.6-6.3,8.2-12.9,15.9-19.2,23.8-6.4,8-14,14.9-20.7,22.8,4.5,3.9,9.1,7.5,13.4,11.6ZM397.5,96.5c-9.6-7.1-18.6-14.9-28.6-22,0,2.8.3,5.2.1,7.5-.2,3.3-1,6.6-1.6,9.8-.8,4.6-2.3,8.9-3.7,13.3-1.1,3.7-2.7,7.3-4.5,10.7-1.4,2.7-2.3,5.6-4,8.1-.5.7-1,1.6-.8,2.5.7.3,1.3-.1,1.9-.1,6.4.3,12.7-.7,19.1,0,4.8.4,9.7.1,14.6.3,3.2.1,6.4.4,9.5.5,1.6,0,3.1-.2,4.7,0,3.5.5,7.1.4,10.7,0,3.2-.2,6.4-.3,9.6,0,4.5.4,9.1,0,13.7.2-.5-1.3-1.7-1.5-2.5-2.2-4-3.2-7.9-6.5-12.1-9.5-4.3-3.1-8.6-6.3-12.9-9.4-4.4-3.1-8.7-6.5-13.2-9.9ZM233.6,228.1c2.1,4.6,3.7,9.4,5.7,14,2,4.5,3.4,9.2,5.1,13.8,1.4,3.7,2.8,7.3,4.2,11,1.6,4.2,3.5,8.2,5,12.5.8,2.3,1.9,4.4,2.9,6.8.8-.9.9-1.8,1.2-2.6.3-1.2.3-2.4.7-3.5.8-2.2,1.8-4.3,2-6.6.4-4.2,2.2-7.9,3-12,.7-3.5,1.8-6.9,2.6-10.4,1.8-8.2,3.5-16.5,5.4-24.7,2-8.5,4.5-16.9,6.8-25.4.2-.6.2-1.2,0-1.9-.6-.1-1.1,0-1.5.3-4,2.3-8.2,4.2-12.6,5.7-7.2,2.5-14.3,5.3-21.9,6.2-3.3.4-6.6.3-9.9,0-2-.2-3.8-1.2-6.2-1.8,2.3,6.5,4.9,12.4,7.3,18.7ZM212.5,271.2c1.1,2.8,2.7,5.4,4.5,7.8,1.1,1.5,2.1,3.1,3.5,4.3,1.1.9,2,1.8,3.2,2.6,3,2,6.2,3.6,9.6,4.4,5,1.1,10.1,2.2,15.2,2.5,1.9.1,3.9-.2,6-.3-10.1-26.8-20.1-53.4-30.2-80.4-1.3,2.8-2.5,5.1-3.7,7.4-2.3,4.3-4.4,8.6-6.7,12.9-1.8,3.2-3.4,6.5-5.2,9.7-.2.4-.5.8-.5,1.3-.5,4.4-.6,8.9,0,13.3.7,5,2.1,9.7,4.2,14.6ZM441.5,224.3c.4-1.3.4-2.7.5-4,.2-2-.2-3.9.1-5.9.7-3.5.6-7.2,1.3-10.7.7-3.9.3-7.9,1-11.8.3-1.7.7-3.4.7-5.1.1-5.4.2-10.8.3-16.2,0-4.7.9-9.3,1.2-14,.2-3.2.4-6.5,0-10.1-.4.8-.8,1.2-.9,1.7-1.3,3.8-3.2,7.4-5,10.9-.8,1.6-1.5,3.5-2.8,4.8-1.3,1.3-2,3-3.1,4.5-2.9,4.1-5.5,8.4-8.2,12.6-.4.6-.5,1.2-.3,1.8,1,3.3,1.5,6.7,2.4,10,1.6,5.8,2.5,11.7,4,17.5.8,3.4,1.5,6.8,2.2,10.2.8,3.5,1.6,6.9,1.6,10.5,0,3.8.6,7.5.9,11.3.4,3.8,1.6,7.4,1.7,11.7.2-2.3.3-4.2.1-6-.4-4.7.9-9.1,1.1-13.7.1-3.2,1.4-6.2,1.1-9.7ZM332.6,276.2c-1.6,0-3.4-.7-4.9,0-1.5.6-3,1.5-4.4,2.3-2.5,1.4-4.9,3-7.5,4.2-3,1.3-5.9,2.9-9,4-1.3.5-2.4,1.4-3.8,1.6-1,.2-2,.9-3.4,1.6,2.1.5,3.9.2,5.5,0,3-.2,6,0,9.1-.4,2.8-.4,5.6,0,8.4-.4,6.6-.9,13.3-1.3,19.8-2.5,3.8-.7,7.6,0,11.4-.6,3.1-.4,6.3-.7,9.5-.8,2.6,0,5-1,7.6-1,5.1,0,10.2-1.1,15.3-.4,1.8.2,3.5-.6,5.3-.4,1.5.2,2.9-.4,4.4-.5-.5-.2-1-.2-1.5-.2-2.9.3-5.9-.2-8.8-.4-4.8-.5-9.6-1.3-14.4-1.8-1.7-.2-3.5,0-5.2-.4-3.9-.8-7.9-1.5-11.9-1.7-7.1-.4-14.1-1-21.4-2.1ZM393.2,60.1c3.7-1.8,7.3-3.7,11.2-5.6-2.9-1.2-50.1-2.8-52-1.6,1.5.7,2.9,1.5,4.4,2.1,1.7.7,3.2,1.8,4.4,3.2,3,3.6,5.1,7.8,6.7,12.2.4,1,.9,1.5,2.1.9,1.6-.7,3.1-1.6,4.8-2.4,3.3-1.5,6.6-2.9,9.8-4.5,2.9-1.4,5.7-2.9,8.7-4.4ZM210.4,188.8c0,4.4.2,8.8,0,13.1-.4,7.4-1.2,14.8-1.2,22.2,0,4-.1,7.9-.6,11.9,0,.7-.2,1.5.1,2.2.7-.3.8-.9,1-1.3.6-1.3,1.1-2.7,1.9-3.9,1.5-2.4,2.6-5,4-7.5,2.7-5.2,5-10.6,7.8-15.6.7-1.2.9-2.3-.6-3.2-.5-.3-1-.8-1.3-1.3-2.6-3.8-4.9-7.7-6.1-12.2-.8-3.2-1.6-6.4-1.7-9.7-.2-5.2.3-10.3,1.4-15.4-1.3,2.1-2.4,4.1-3.5,6.2-.2.4-.4.9-.4,1.3-.2,4.3-.4,8.5-.7,13.1ZM292.6,70.8c-2.6.6-3.7,3-5.5,4.5-1,.9-2.5,1.5-3,3,4.1-3.1,8-6.3,12.5-8.8-1.3.4-2.5.8-4,1.3ZM243.1,117.4c1.2-1.4,2.4-2.8,3.5-4.2-2.4,2.5-6.1,3.9-7.2,7.9,1.8-.9,2.3-2.6,3.6-3.8Z"/>
  <g>
    <g>
      <path class="st0" d="M378.7,438.7c-1,0-1.4-.7-1.9-1.2-4.1-4.1-7.8-8.6-12.4-12.2-4.7-3.8-9.7-7.2-14.6-10.8-4.9-3.6-10.3-6.3-15.5-9.4-2.4-1.4-4.8-2.9-7-4.6-3.4-2.7-7.5-4.7-10.8-7.4-4.4-3.7-9.4-6.4-14.6-8.7-4.9-2.2-10-4.2-15-6.2-3.1-1.2-6.3-2.6-9.5-3.4-5-1.3-9.9-3-14.9-4.5-3.2-1-6.4-2.1-9.8-2.3-2.6-.1-5.3-.6-7.8-1.6-3.7-1.5-7.7-1.6-11.6-1.9-2.9-.2-5.9,0-8.9-1-2.5,0-4.9,0-7.3.1-.6.6-1.3.6-2,.6-10.1-.4-19.9,1.9-29.8,3.8-.9.2-1.9.2-2.7.6-7.7,3.7-16.4,5-23.9,9.2-2.5,1.4-5.3,2.4-7.5,4.2-2.4,1.9-5.2,3.2-7.7,5-4,2.9-8.2,5.4-12.1,8.4-3.2,2.4-6.1,5.3-9.5,7.4-.8.5-1.8.6-2.4,1.5-1.3,2-3.6,3-5.1,4.9-.9,1.2-1.7,2.7-3.1,3.5-2.1,1.2-4,2.9-5.8,4.5-4.6,4.1-8.3,9.1-12.2,13.9-1.8,2.2-3.2,4.8-5.1,7-3.1,3.7-5.6,7.8-8.4,11.7-1.7,2.4-2.9,5.2-4.8,7.4-1.8,2-3.2,4.2-4.5,6.6-1.7,3.2-3.2,6.5-5.2,9.5-2.7,3.8-5.1,7.6-6.9,11.9-1.5,3.6-3.2,7.1-4.8,10.6-1.8,4.1-3.5,8.2-5.2,12.4-3,7.3-5.2,15-8.1,22.3-1.5,3.9-1.7,8.2-3.5,12.1-.8,1.8-1.8,3.6-2.1,5.7-.5,3.1-1.5,6-2.2,9-.8,3.4-1.8,6.7-2,10.1-.1,0-.3,0-.4,0-.2.6-.2,1-.2,1.4,0,.4.3.7.5.9,0,.8.1,1.7.3,2.5.9,0,1.7,0,2.5-.2,0-.6,0-1.3,0-1.9,4.5.1,9.1.3,13.6.4,3.4,0,6.8.6,10.2,1.1,3.5.5,7.1.8,10.6.9,2.8,0,5.4.9,8,1.3,4.5.6,9,1.1,13.6.7,3.1-.2,6.2,0,9.3.3,3.7.4,7.5-.4,11.2-.8,4.1-.5,8.3-.3,12.4-.1,4.5.2,8.9.3,13.3,0,3.7-.3,7.5-.4,11.2-.8,1.5-.2,3-.5,4.5-.4.8,0,1.5-.2,2-1.2,0-.8,0-1.3,0-1.8-.3,0-.7,0-1,0-.4-1.7-.5-6-.6-6.7-1.4-7.9-3-15.7-3-23.7,0-5-.7-10-.5-15,.2-3.8.3-7.6,1.1-11.3.5-2.4,1.1-4.8,1.5-7.3,1-6.3,1.9-12.7,4-18.8.6-1.8,1-3.7,1.4-5.5.9-3.7,1.8-7.4,3.8-10.7.9-1.4,1.7-2.8,2.3-4.4,3.1-7.3,7.1-14.1,11.8-20.4,2.3-3.1,4.9-6,7.7-8.7,3.2-3.1,6-6.7,9.8-9,2.6-1.6,5-3.5,7.4-5.4,3-2.3,6-4.6,9.7-5.6,2.9-.7,5.5-2,8.1-3.4,5.8-3.1,12-5,18.2-7.2,3.3-1.2,6.8-1.5,10.2-2.3,4.5-1,9-1.8,13.6-1.8,2.9,0,5.8.2,8.7.2,3.8,0,7.4.2,11.1,1.2,1.3.4,2.4,1,3.8,1.3,6.1,1.3,12.3,2.6,18.5,3.4,6,.8,12,2.3,17.7,4.3,4,1.4,7.8,3.3,11.2,5.8,3.7,2.7,7.5,5.1,11.7,6.9,2.7,1.2,5.4,2.3,7.7,4.2,5.5,4.5,11.4,8.4,17.6,11.9,1.5,1.2,3.2,1.9,4.7,3.1,1.4,1.1,2.7,1,3.9-.5.9-1.1,1.9-2.2,3.2-3.1,0-.8,0-1.4-.2-2ZM373.9,440.8c-.1.1-.2.2-.3.2-.7-.3-1.3-.7-2-1-1.6-1.4-3.6-2.2-5.3-3.4-1.2-.9-2-1.2-2.5-.9-1.3-.9-2.5-1.8-3.8-2.8-3.5-2.8-6.7-5.8-10.6-8.1-2.8-1.6-5.9-2.8-8.7-4.5-3.3-2-6.2-4.6-9.4-6.9-4.7-3.4-10.1-5-15.4-7-4-1.6-8.1-2.7-12.4-3-5.8-.4-11.4-1.8-16.9-3.6-5.6-1.8-11.2-3.1-17.1-3.4-1.9,0-4,.3-5.9-.9-3.1,0-6.1,0-9.2,0-1.4.3-2.6.3-3.9.6-3.6.9-7.1,1.8-10.8,2.2-4.5.6-8.8,1.7-12.9,3.7-2.6,1.3-5.3,2.5-8,3.5-7.5,2.7-15,5.3-21.3,10.3-3,2.3-6.5,3.7-9.4,6-2.6,2.1-5.4,3.9-7.5,6.7-1.8,2.5-3.7,4.9-5.9,7-3.1,3-6,6.1-8.1,10-2.8,5.5-5.7,10.9-8.5,16.3-2.7,5.2-5.1,10.5-6.1,16.4-.3,1.8-1,3.6-1.7,5.2-1.7,4-2.8,8.2-3,12.3-.4,6.9-2.4,13.5-3.1,20.5,0,6.6,0,13,0,19.3.2,0,.3-.1.4,0,0,0,.1.2.1.3.2,4.8.7,9.5,1.6,14.2.7,4,1.7,7.9,2,12,0,1.1.3,4.6.7,7.1-2.1,0-4.1,0-6.2.2-5.5.2-11,.4-16.6-.7-4.1-.8-8.3-.5-12.5-.7-6.1-.2-12.3-.4-18.4-.3-4.8,0-9.6-.3-14.4-.3-3.1,0-6.4-.2-9.8-1-.4,0-.6,0-.7,0-.6.6-1.3.6-2.1.6-2.6-.2-5.2.4-7.9-.5-7,0-13.8,0-20.6,0-2,.6-4.1.6-6.3.6,0-.4,0-.7.2-1.1,1.8-7.8,4.2-15.4,6.7-23,.4-1.2,1.2-2.4,1.3-3.7.2-2.9,1.6-5.4,2.6-8,1.3-3.6,3-7,4.3-10.6,1.4-3.9,2.5-8,4.4-11.7,1.7-3.3,3.5-6.7,4.7-10.2,1.9-6,5-11.4,8.1-16.8,2-3.6,4.4-7,6.3-10.6,1.3-2.5,2.8-5,4.8-7.2,2.4-2.6,4.4-5.6,6.4-8.6,2.1-3.3,3.8-6.7,6.4-9.7,2.3-2.6,4.6-5.2,6.4-8.1,3.6-5.7,8.1-10.6,13-15.1,1.4-1.3,2.8-2.8,4.4-3.9,2.7-1.9,4.5-4.9,7.2-6.8,3.6-2.5,7.5-4.7,10.6-7.6,5.3-5,11.4-8.9,17.5-12.8,3.1-2,5.9-4.3,9.1-6.1,2.8-1.6,5.8-2.6,8.7-3.9,2.3-1,4.8-1.9,7.3-2.7,3.7-1.1,6.8-3.8,10.7-3.9,3.7-.1,7.3-.9,10.9-1.9,6.3-1.7,12.8-2.4,19.3-2.2.4,0,.9-.1,1.3-.2,3.8-.3,7.6-.9,11.4-.8,3.9.1,7.7,1.1,11.6,1.5,5.1.5,10.1,1.6,15.1,2.7,4.3.9,8.3,2.9,12.6,3.9,5.9,1.5,11.9,2.5,17.3,5.5.7.4,1.6.7,2.4.9,6.7,1.3,12.9,4.1,18.8,7.3,4.6,2.5,8.9,5.5,13.3,8.6,5.5,3.9,10.8,8.2,17,11,2.2,1,4.3,2,6.4,3.2,3,1.8,5.9,3.9,8.8,5.8,4.4,2.9,9.2,5.5,13,9.2,3.3,3.2,6.7,6.4,10,9.7.5.5.8,1.1.2,1.8Z"/>
      <path class="st0" d="M66.6,423.6c0-.2,0-.3.1-.7,1.2-1.4,2.2-2.7,3.2-4,2.5-3.5,5.3-6.8,8.5-9.7.5,0,1.1,0,1.8,0,4.4,3.1,8.8,5.7,12.5,9.2,1.6,1.4,1.8,3.5.5,5.2-.5.6-1.2,1.2-1.7,1.7-2.7,2.8-5.5,5.5-8.1,8.4-2.5,2.8-3.6,2.7-6.5.2-3.7-3.2-6.5-7.2-10.2-10.3ZM80.8,428.2c1.9-1.8,2.8-4.4,4.5-6.4.5-.6,0-1.2-.5-1.6-1.4-1.2-2.8-2.3-4.2-3.5-.5-.4-1-.6-1.6-.3-2.9,1.9-5.2,4.6-8.3,6.6,2.8,2.1,5.3,3.9,7.8,5.7.8.6,1.4.2,2.2-.6Z"/>
      <path class="st0" d="M320.8,563.5c-.4-.2-.9-.3-1.1-.7-2.3-3.9-6.3-6-9.6-8.7-6-4.9-11.6-10.1-17-15.6-1.9-1.9-4-3.6-6.2-4.9.1,0,.3,0,.4-.1,5.3-1.4,10.3-3.2,14.6-6.7,3-2.4,5.6-5.1,7.3-8.7,1.5-3.2,3.4-6.1,4.5-9.5.9-3,1.8-6.1,1.7-9.3,0-4.1.2-8.2.7-12.3.3-2.2-.9-4-2-5.8-1.8-3.2-2.6-6.7-4.2-10-.8-1.8-1.8-3.5-3.5-4.7-.8-.6-1-1.4-1.4-2.2-.9-1.9-2.2-3.5-4.3-4.4-4.1-1.8-8.1-3.6-12.1-5.5-2.2-1.1-4.5-1.7-6.9-1.9-.6,0-1.1,0-1.9-.6-2.2,0-4.1,0-6.1,0-1.7,1.2-3.6.7-5.4.6-6.1-.3-12,.7-18,1.8-.3,0-.6,0-1,0-5.2-.1-10.4.5-15.7.5-3.2,0-6.3.5-9.5.7-1.1,0-2.3,0-3.4-.2-.3,0-.6,0-.9,0-1.1-.2-1.9-.2-2.8-.2-.4,1.2-.4,2.3-.2,3.7.3,1.6.1,3.5-.4,5-.9,2.5-.6,5-.7,7.5,0,.7,0,1.4-.5,2.3,0,1.8,0,3.4,0,4.9.8,3.1.7,6.3,0,9.6,0,.4,0,.6,0,.7.5.6.6,1.2.6,2,0,4.5.3,9.1.3,13.6,0,5,.3,10,.7,14.9.2,2-.2,4.1-.3,6.1-.1,3.5.3,7,.6,10.5.2,2.5.2,4.9-.2,7.4-.5,3,0,6.1.3,9.1.5,3.6,0,7.2.6,10.8.2,1.1.3,2.3.4,3.4h-.1v.3c0,.3,0,.6.2.8,0,.3,0,.6,0,1,0,1.1.6,1.4,1.5,1.4.6,0,.9-.2,1.1-.5,3.3.4,6.4.5,9.7.3,4.2-.2,8.5,0,12.7.4,2.2.2,4.3.2,6.5.2,1.5,0,2.4-1.3,2.5-3.2.2-3.3,0-6.7,0-10,0-2.1.3-4.1.4-6.1.8-.2,1.1.3,1.5.7,2.6,2.8,5.2,5.8,8,8.4,3.1,3,6.5,5.6,9.8,8.5,2.3,2,5.1,1.7,7.7,1.7,1.2,0,2.5-.2,3.8-.2,4.3,0,8.6-.3,12.9-.5.3,0,.5,0,.8.1,3.9.7,7.7.5,11.5.3,3.1-.2,6.1-.7,9.2.3,2,.7,3.7-.3,4.5-2.4.6-1.7-.2-3.5-2-4.4ZM266.9,554.6c-2-1.7-3.7-3.7-5.6-5.6-2.1-2.2-4.1-4.5-6.5-6.4-1.3-1-2.5-2.1-3.6-3.5-1.1,0-2,0-2.9.1-.7,1.2-1.1,2.4-1.2,3.7-.3,2.9-.2,5.7,0,8.6,0,1-.4,2.1,0,3,.9,2.9.8,5.9.9,8.9,0,.9-.3,1.6-1.4,1.7-1.6.1-3.2.3-4.7.4-2.7.2-5.4.5-8.1.7-3.3.2-6.6.4-9.9.4-.7,0-1.4,0-2.2-.1,0-2.3,0-4.5,0-6.8,0-7.1.6-14.2,1.1-21.3.2-2.7-.1-5.4,0-8.2,0-2.4.9-4.7,1-7.5,0-3.1,0-6,0-8.8-.4-3.7-1-7.4-.7-11.1.5-5.6-.9-11.1-1.5-16.6-.1-.9-.2-1.8-.2-2.6-.2-6.4.5-12.8-.7-19.2-.3-1.5.2-3.1.3-4.7,0-.1,0-.2,0-.4,4.9-.8,9.9-.7,14.9-.4,1.1,0,2.1.3,3.2.3,4.8.2,9.7-.5,14.5-.4,1.7,0,3.4,0,5.1-.2,5.4-.3,10.8-.4,16.2,0,2.6.1,5.1.2,7.7.8,4.6,1.1,8.6,3.3,12.9,5,1.6.6,3,1.6,3.6,3.4.4,1.2,1.3,2.3,2.4,3.2,1.9,1.6,3.8,3.2,4.2,5.9.2,1.8,1.1,3.4,1.7,5,1.1,2.9,3,5.5,2.7,9-.3,3.1-.4,6.3-.4,9.4,0,6.2-2,12-5,17.2-4.1,7.3-11.1,11.3-19.1,13.6-.9.2-1.5.4-1.9.6-.5-.4-1-.9-1.4-1.6-.6,0-1,0-1.4.1-.3.7-1,1-1.1,1.7.9,1.2,2,2.2,3.2,3.2,2,1.5,4.2,2.7,5.7,4.7,1.5,2,3.1,4.1,4.9,5.8,5.4,5.2,10,11.3,15.7,16.2.6.5,1.2.9,1.3,1.8-4.5,1.7-9.1,1.2-13.6.7-3.1-.3-6.2,0-9.3,0-.5,0-1.1,0-1.6,0-1.5,0-3,0-4.5.3-2.5.5-4.5-.4-6.3-2.4-2.4-2.7-5-5.3-7.8-7.7Z"/>
      <path class="st1" d="M308.8,561.8c-5.7-5-10.3-11-15.7-16.2-1.8-1.7-3.3-3.8-4.9-5.8-1.5-2-3.7-3.2-5.7-4.7-1.2-.9-2.3-2-3.2-3.2,0-.8.8-1.1,1.1-1.7.5-.1.9-.1,1.4-.1.4.7.8,1.2,1.4,1.6.4-.2,1-.4,1.9-.6,8-2.2,14.9-6.3,19.1-13.6,3-5.2,4.9-11,5-17.2,0-3.2,0-6.3.4-9.4.3-3.4-1.6-6-2.7-9-.6-1.6-1.5-3.2-1.7-5-.3-2.7-2.2-4.3-4.2-5.9-1.1-.9-2-2-2.4-3.2-.6-1.9-2.1-2.8-3.6-3.4-4.3-1.7-8.4-3.9-12.9-5-2.6-.6-5.2-.7-7.7-.8-5.4-.3-10.8-.2-16.2,0-1.7,0-3.4.2-5.1.2-4.8,0-9.7.6-14.5.4-1.1,0-2.1-.3-3.2-.3-5-.2-10-.3-14.9.4,0,.1,0,.2,0,.4,0,1.6-.5,3.2-.3,4.7,1.1,6.4.5,12.8.7,19.2,0,.9.1,1.8.2,2.6.7,5.5,2,11,1.5,16.6-.3,3.7.3,7.4.7,11.1,0,2.8,0,5.6,0,8.8-.1,2.7-.9,5-1,7.5,0,2.7.2,5.4,0,8.2-.5,7.1-1.1,14.2-1.1,21.3,0,2.3,0,4.5,0,6.8.7,0,1.4.1,2.2.1,3.3,0,6.6-.2,9.9-.4,2.7-.2,5.4-.5,8.1-.7,1.6-.1,3.2-.3,4.7-.4,1.1,0,1.4-.9,1.4-1.7-.1-3,0-6-.9-8.9-.3-.9.1-2,0-3-.1-2.9-.2-5.7,0-8.6.1-1.3.5-2.5,1.2-3.7,1-.1,1.9-.1,2.9-.1,1.1,1.3,2.3,2.4,3.6,3.5,2.4,1.9,4.4,4.2,6.5,6.4,1.8,1.9,3.6,3.9,5.6,5.6,2.8,2.4,5.4,5,7.8,7.7,1.8,2,3.8,2.9,6.3,2.4,1.5-.3,3-.3,4.5-.3.5,0,1.1,0,1.6,0,3.1-.1,6.2-.3,9.3,0,4.5.4,9.2,1,13.6-.7-.1-.9-.8-1.3-1.3-1.8ZM275.2,502.9c-1.1,1.9-3.2,2.4-5.2,2.6-2.2.2-4.2.8-6.3,1.3-1.8.5-3.6,1.1-5.6,1.1-1.8,0-3.6,0-5.5-.1-1.3,0-1.4-1.1-1.6-2.2-.8-4.8.2-9.6,0-14.3,0-1.9,0-3.9,0-6,2.2-.6,4.3.5,6.5,0,3.4-.1,6.6-.8,9.7,0,5.3,1.4,8.7,4.7,9.4,10.1.3,2.4-.3,5.2-1.5,7.4Z"/>
      <path class="st0" d="M276.7,484c-2.4-2.6-6-2.9-9.5-3.2-1.2,0-2.4.3-3.8-.5-3,0-5.6,0-8.3,0,.3.3.8.3,1.1,1.1-1.9.2-3.8.5-5.6.6-2.4.1-2.6.4-2.8,2.8-.4,4.1-.8,8.2-1.2,12.3,0,.3-.2.6-.5,1.1,0,4.6,0,8.9,0,13.2,1.8,2,4.2,1.9,6.9,2.2,3.2,0,6.2,0,9.1,0,4.1-.5,8.1-1,12.1-2.1,2.8-.8,5.2-2.3,7.1-4.5,1.7-1.9,1.4-4.4,1.8-6.6,1.2-6.7-2-11.9-6.3-16.5ZM275.2,502.9c-1.1,1.9-3.2,2.4-5.2,2.6-2.2.2-4.2.8-6.3,1.3-1.8.5-3.6,1.1-5.6,1.1-1.8,0-3.6,0-5.5-.1-1.3,0-1.4-1.1-1.6-2.2-.8-4.8.2-9.6,0-14.3,0-1.9,0-3.9,0-6,2.2-.6,4.3.5,6.5,0,3.4-.1,6.6-.8,9.7,0,5.3,1.4,8.7,4.7,9.4,10.1.3,2.4-.3,5.2-1.5,7.4Z"/>
      <path class="st0" d="M419.1,499.6c0-7.4-.9-14.8-1.6-22.1-.3-2.5-1.2-5-1.5-7.6-.2-1.6-1.7-2.5-2.5-3.8-2.4-4-5.5-7.2-9.8-9-2.9-1.3-6.1-1.9-9.2-2.9-3.1-1-6.2-1.7-9.5-1.6-.2,0-.4-.2-.9-.5-1.9,0-3.6,0-5.3,0-2,1.1-4.2.9-6.3,1-5.4.4-10.9-.3-16.3.4-5.1.7-10.2.9-15,3.2-2.4,1.2-4.4,3-6.4,4.7-3,2.6-5.7,5.5-7,9.3-.8,2.5-1.3,5-1.9,7.6-.1.6-.3,1.2-.7,1.7-1.5,1.9-1.9,4.2-2,6.6,0,1.2.3,2.4-.5,3.8,0,1.3,0,2.4,0,3.4,1,2.3,1.1,4.8,1.4,7.2.3,2.8,0,5.5-.3,8.3-.4,3.2.2,6.5.5,9.7.4,4.3.7,8.5.7,12.8,0,4.3-.1,8.7,0,13,.4,7.2.1,14.3.2,21.5,0,.9-.1,1.8.6,2.8,1,.1,1.8.1,2.5,0,0,0,0-.1,0-.2,3.1,0,6.2,0,9.3,0,5.4-.1,10.8.2,16.1,1.1,5.2.9,7.3-.7,7.2-6,0-.6-.1-1.1-.2-1.7-.5-3.1-.4-6.1.2-9.1.1-.7.3-1.3,1.1-1.3,3-.2,5.9-.5,8.9-.6,4.2-.1,8.3.5,12.5.1.9,0,1.3.3,1.4,1.1,0,1.6.5,3.2.4,4.9-.2,2.8-.2,5.6-.4,8.4-.2,3.1,1,4.3,4,4.3,3.6,0,7.2-.3,10.8-.7,2.1-.3,4.3-.7,6.4-.2,3,.7,6,.5,8.9-.2.4.1.9.2,1.3.3h.6c.1-.3.2-.6.2-.9,0,0,.2,0,.3,0v-1c0-.1,0-.3,0-.4,0-.7,0-1.4,0-2.1-.2-6,.3-12,.5-17.9.2-3.9.1-7.9.3-11.8,0-1.5,0-3-.3-4.6-.5-2.3,0-4.7.4-7,.6-3.4,1-6.8,1.3-10.5,0-2.5,0-4.7,0-6.9-.6-2.1-.3-4.3-.3-6.5ZM406.6,565.5c-3.2-.8-6.3-.2-9.4,0-2.1.2-4-.4-6.1-.3-.8,0-.9-.6-.9-1.2.2-4.1,0-8.2.3-12.3.1-1.4-.1-2.9-.4-4.3-.4-2.1-1.9-3-4.3-3.2-.8,0-1.4,0-1.9,0-.3.4-.8.6-1.3.6-1.8,0-3.6.2-5.6-.5-1.8,0-3.4,0-4.9,0-2.5,1.1-5,.5-7.7,0-1.2,0-2.1,0-3,0-.8.7-1.6.5-2.4.5-2.1.1-3.8,1-4.3,3.1-.4,1.7-.6,3.5-.5,5.4.3,3.8.8,7.6,1.3,11.6-2.6-.4-5-.5-7.3-.3-6.6.4-13.2.9-19.8,1.4,0-.5.1-1,0-1.5-.5-11.5,1-22.9.7-34.4,0-2.8.2-5.5,0-8.3-.4-4.4-.6-8.8-.1-13.1.5-4.3,0-8.5,0-12.7,0-4.4-.5-8.9,1.5-13.2.8-1.7,1.3-3.5,1.6-5.4.5-3,1-6.2,3.7-8.3,2-1.6,4.1-3.2,6-5,2.9-2.6,6.2-3.6,10.1-3.7,2.4,0,5,.3,7.4-.3,1.9-.5,3.8-.3,5.6-.1,4.3.3,8.5-.5,12.8-.4,3.2,0,6.3-.5,9.5.2,3.1.7,6.4,1,9.5,1.7,2.7.5,5.6,1.1,7.6,3.2,2.2,2.3,3.4,5.3,5.8,7.4.3.3.3.8.5,1.2,1.2,2.7,1.5,5.6,1.7,8.5.3,5.1,1,10.2,1.4,15.4.3,3.3.7,6.6.5,10-.2,3.6.5,7.2-.2,10.7-.2,1.2-.3,2.4-.3,3.6.3,9.4.3,18.8.7,28.2.2,5.2.3,10.4-.3,15.6,0,.2,0,.5,0,.7-2.5.3-5,0-7.3-.5Z"/>
      <path class="st1" d="M414.3,549.7c-.3-9.4-.4-18.8-.7-28.2,0-1.2,0-2.4.3-3.6.7-3.5,0-7.1.2-10.7.2-3.4-.3-6.7-.5-10-.4-5.1-1.1-10.2-1.4-15.4-.2-2.9-.5-5.8-1.7-8.5-.2-.4-.2-1-.5-1.2-2.4-2.1-3.6-5.1-5.8-7.4-2-2.2-4.9-2.7-7.6-3.2-3.2-.6-6.4-1-9.5-1.7-3.2-.7-6.3,0-9.5-.2-4.3-.1-8.5.7-12.8.4-1.8-.1-3.7-.3-5.6.1-2.4.6-4.9.3-7.4.3-3.9,0-7.2,1.1-10.1,3.7-1.9,1.7-4,3.3-6,5-2.7,2.1-3.2,5.3-3.7,8.3-.3,1.9-.8,3.7-1.6,5.4-2,4.2-1.5,8.7-1.5,13.2,0,4.2.5,8.4,0,12.7-.5,4.3-.3,8.7.1,13.1.2,2.7,0,5.5,0,8.3.3,11.5-1.2,22.9-.7,34.4,0,.5,0,1,0,1.5,6.6-.5,13.2-1,19.8-1.4,2.4-.2,4.8,0,7.3.3-.5-4-1-7.8-1.3-11.6-.1-1.9.1-3.7.5-5.4.5-2.1,2.2-3,4.3-3.1.8,0,1.7.2,2.4-.5,1,0,1.9,0,3,0,2.8.4,5.3,1,7.7,0,1.5,0,3.1,0,4.9,0,2,.7,3.8.4,5.6.5.5,0,1-.2,1.3-.6.5,0,1.1,0,1.9,0,2.3.2,3.8,1.2,4.3,3.2.3,1.4.6,2.9.4,4.3-.3,4.1-.1,8.2-.3,12.3,0,.6.1,1.2.9,1.2,2-.1,4,.4,6.1.3,3.1-.2,6.2-.8,9.4,0,2.4.6,4.9.9,7.3.5,0-.2,0-.5,0-.7.6-5.2.5-10.4.3-15.6ZM383.3,506.1c.3,2.1.2,4.2-.2,6.2-.2.8-.7,1.1-1.4,1.2-5.6.9-11.3.9-17,1.5-1.6.2-3.1.3-4.7.6-.9.1-1.3-.2-1.2-1.1.6-3.7-.2-7.4.2-11.1.4-3.9.3-7.8.4-11.7.8-3.1,2.9-4.4,5.6-4.8,2.7-.4,5.4-.3,8.1-.4.9,0,1.7.1,2.6,0,2.7-.5,4.9.6,6.8,2.5.3.2.5.7.5,1,0,2.9.8,5.7.2,8.7-.5,2.5-.4,5.1,0,7.6Z"/>
      <path class="st0" d="M354.3,506.4c0-6.1,0-12.2,0-18.6.3-.5.4-.8.6-1,2-2.7,4.1-5,7.8-5.4,2.6-.3,5.2-.6,7.8-1.1,2.1-.4,4.2-.4,6.2-1.3.7,0,1.3,0,2.2,0,2.7,1.1,5.1,2.2,7.3,3.7,1.8,1.2,3.1,2.6,3.6,4.8.8,3.5.6,6.9.4,10.5,0,1.7-.9,3.2-1,4.8-.2,3.5-.3,7.1-.7,10.6-.4,3.5-.3,4.3-3.1,5.1-9.5,0-19,0-28.8-.1-.8-.5-1-1.1-1-1.8,0-3-1-5.9-.8-9,0-.5-.3-1-.6-1.3ZM359.4,491.6c-.1,3.9,0,7.8-.4,11.7-.4,3.7.4,7.4-.2,11.1-.2.9.2,1.3,1.2,1.1,1.6-.2,3.1-.4,4.7-.6,5.6-.6,11.3-.6,17-1.5.8-.1,1.3-.4,1.4-1.2.4-2.1.5-4.1.2-6.2-.4-2.5-.5-5.1,0-7.6.6-3-.3-5.8-.2-8.7,0-.3-.2-.7-.5-1-1.9-1.9-4.1-3-6.8-2.5-.9.2-1.8,0-2.6,0-2.7,0-5.4,0-8.1.4-2.6.4-4.7,1.7-5.6,4.8Z"/>
      <path class="st0" d="M427.3,537.6c0-1.9,0-3.8,0-6.1.8-4.8,1.2-9.3.7-13.9-.4-4.1,0-8.4.1-12.6.1-4.4-.2-8.8-.2-13.2,0-.5-.2-1-.6-1.3,0-.2,0-.3.1-.7.2-.5.5-.8.5-1.1,0-3.2,0-6.3,0-9.5,0-.5-.2-1-.6-1.4,0-.3,0-.6,0-1.1.6-.7.5-1.3.4-1.8-.4-3-.1-6,0-9.1.1-1.9.7-3.8.2-5.8-.6-2.4.1-4.3,2.7-5.2.7,0,1.3,0,2.2.1.8.6,1.6.5,2.3.5,8.5,0,16.9,0,25.4,0,1.2,0,2,.3,2.1,1.5.2,1.4.2,2.8.4,4.2.3,3.4,0,6.7.4,10.1.4,3.8.4,7.6.3,11.4-.1,3.9-.9,7.9-.5,11.8.5,5.3,0,10.6.4,15.8.3,4.7.6,9.4.9,14.1.3,5.5.7,11,1,16.5.5,8.6,1.8,17.2.6,25.9-.2,1.8-1.2,2.8-2.8,2.8-4,0-8,.8-12.1.6-2.7-.1-5.4-1.1-8.1-.1-2,.7-4,1.2-6.1,1.4-.8,0-1.6,0-2.6,0-.8,0-1.3-.2-1.8-.2-2.5,0-4.5-2-4.3-4.5.4-5.6-.5-11.2-.5-16.8,0-.7-.2-1.2-.6-1.8,0-.2,0-.3,0-.7.2-3.4.4-6.5,0-9.6ZM432.5,462.3c-.8,4.8-.2,9.5.2,14.2.3,2.6.7,5.2.4,7.8-.3,3.5-.2,6.9.3,10.4.6,4.4.7,8.7.6,13.1,0,4.2-.7,8.3-.1,12.6.4,2.7.6,5.6.3,8.3-.5,4.6-.4,9.2-.4,13.7,0,6.8,2.1,13.4,1.7,20.3,0,.9.4,1.2,1.3,1.2.7,0,1.4-.3,2-.5,3.4-.7,6.8-1.6,10.3-.8,3,.7,6.1,1,9.2.8,1,0,1.6-.4,1.8-1.5.2-1.1.1-2.1.2-3.2.2-4.9.7-9.9.1-14.8-.7-5.7-1.2-11.4-1.1-17.1,0-2.6,0-5.2-.3-7.8-.2-2.4-.7-4.8-.5-7.2.3-4.2.4-8.3.8-12.5.2-2.6,0-5.2,0-7.7.3-6,.8-12,1-18,.2-4.1,0-8.1-.2-12.2-.2-2.2-.3-2.5-2.5-2.5-7.6-.2-15.2.3-22.8.7-1.8.1-2.6.6-2.3,2.7Z"/>
      <path class="st0" d="M620,455.1c6,0,12,0,18.2.1.8,1.2,1,2.4,1,3.6,0,8.5,0,16.9-.4,25.4,0,1.7-1.1,2.4-2.4,2.2-3.7-.4-7.5-.3-11.2-.1-8.4.5-16.8,1.2-25.3,1.2-3.1,0-6.3.5-9.5.7-.3,1.9-.5,3.6-.8,5.3-.3,1.8,0,2.3,1.9,2.4,2.5.1,5,.1,7.4.2,4.3.1,8.6.7,12.9.3,4.8-.4,9.8-.8,14.5,1.4,2.1,1,4.3,1.9,6.4,2.9,7.5,3.6,10.4,10,10.8,17.8.2,3.3.5,6.7.8,10,0,3.3,0,6.7,0,10.3-.3,2.8-.6,5.2-1,7.7-.7,4.5-1.8,9-4.9,12.4-3.3,3.7-6.9,7.2-11.2,9.7-3.6,2.1-7.7,2.8-11.7,2.3-2.5-.3-5-.7-7.4-.3-5.6.8-11.1-.1-16.7-.3-4.1-.1-8.1.1-12.1.4-3.1.2-6.2.6-9.3.5-2.4,0-4.8-.4-7.2-.4-2.7,0-4.8-2-4.7-4.7.1-3.4,0-6.7,0-10.1,0-3,1-5.9.7-8.9-.3-2.2-.3-4.4-.4-6.6,0-2.4,1.1-3.5,3.4-3.6.7,0,1.4,0,2.1,0,3.7,0,7.4.5,11,.2,4.8-.4,9.5-1.7,14.5-1.1,5.8.7,11.5-1,17.3-.7.8,0,1.6-.2,1.6-1,0-1.7,1.5-3.2.6-5-.2-.4-.7-.3-1-.3-1.8-.2-3.5-.5-5.3-.5-4.3-.2-8.6-.9-12.9-.5-4.8.5-9.5.4-13.9-1.7-3.7-1.8-7.6-3.4-10.7-6.1-4.4-3.9-6.5-9-6.8-14.8,0-1.7,0-3.6-1-5.1,0-.2,0-.3,0-.8.1-.6.2-.9.3-1.2.6-2.6.2-5.3.4-8,.3-4.4,1.2-8.8,1.9-13.2.6-4,1.5-8.1,4.1-11.4,2.9-3.7,6.6-6.4,10.8-8.6,2.1-1.1,4.5-1.1,6.6-2.1,8.6,0,17.1,0,26,0,4.3.2,8.3.4,12.3,0ZM585,492.1c0-1.9,0-3.8,0-5.7,0-2.4.8-3,3.1-3,3.7,0,7.5-.3,11.2-.3,8.5,0,17.1-.2,25.6-.5,2.8,0,5.6.5,8.4.4,1.4,0,2.1-.4,2.1-2-.3-6.9.5-13.8.4-20.7,0-2-.5-2.5-2.4-2.4-9,.3-17.9.6-26.9.8-2.7,0-5.5-.4-8.2-.2-4.4.3-8.9.7-13.3.9-6.1.3-11.1,2.6-15.2,6.9-4.2,4.4-5.3,10.2-6,16-.5,4.2-.3,8.5-.8,12.7-.2,1.8-.6,3.5-.3,5.3.5,3.1,1.1,6.1,2,9.1,1.4,4.5,4.6,7.3,8.4,9.5,5.1,2.9,10.7,3.9,16.7,3.6,7.6-.3,15.2-.3,22.8,1,1.6.3,2.5,1.1,2.7,2.7.5,4.1.3,8.2.2,12.2,0,1.9-1.8,3.6-3.5,3.7-2.5,0-5.1.3-7.6.3-6.5,0-12.9.7-19.4.8-5.7,0-11.4,1.1-17.1,0-2.8-.5-3.1,0-2.9,2.7,0,.4.1.8.2,1.1.4,2.3.9,4.7.4,7-.7,3.4.2,6.5.1,9.8,1.5.6,2.8.1,4.1.2,3.9.1,7.7.2,11.6-.1,3.7-.3,7.5-.1,11.2-.3,3.4-.2,6.8.4,10.2.8,4.5.6,9.1-.8,13.7-.3,3.5.4,6.5-.8,9.4-2.6,5-3,8.7-7.2,10.7-12.7,1.1-3,2.1-6.1,1.9-9.3-.2-2.2-.3-4.3-.2-6.5.1-2.4.8-4.8.6-7.2-.4-4-.9-7.9-2-11.8-1.1-4.3-4.2-7-7.7-9-4.3-2.3-8.9-3.7-13.9-3.5-4.2.2-8.3-.3-12.5-.2-5.2.2-10.3-1.1-15.6-1-1.4,0-2.2-1-2.2-2.4,0-1.9,0-3.7,0-5.9Z"/>
      <path class="st0" d="M508,453.2c1.5,1.1,1.5,2.6,1.6,4.2.3,4.4-.3,8.7,0,13.1.3,3.9,0,8-.2,12-.1,2.8.4,5.6.4,8.4,0,5.3-.4,10.7-.3,16,0,3.5.4,7-.4,10.4-.7,3.1,1,6,.8,9.1-.1,2.6-.5,5.2-.5,7.8,0,1.7.8,2.3,2.4,2,2.9-.5,5.8-.5,8.7-.7,5.3-.4,10.5-.6,15.8-.9,2.8-.1,5.5-.8,8.3-.5,1.9.2,3.6.8,5.6.4,1.3-.3,2.6,1.3,2.7,2.7.2,5.1.5,10.1.6,15.2,0,1.7.2,3.3.5,5,0,3.1,0,6,0,9.3-.8,2.2-2.2,3.2-4.3,3-.5,0-.9,0-1.3.2-3.1,1.7-6.6,1.5-10,1.4-1.7,0-3.4.8-5,0-2.4-1.1-4.6-.7-7-.2-2.5.5-5.1.9-7.4-.5-2.6-1.5-5.1-1.3-7.9-.5-3.3,1-6.8.7-10.1.5-3.4-.3-6.8-.3-10.2-.2-4.4.2-8.8.4-13.2.5-2.7,0-4.4-1.5-4.3-4.2,0-4.5-.7-8.9-.4-13.3,0-.7.2-1.6-.6-2.1,0-.2,0-.3,0-.7,1-1.5.2-3,.4-4.3.6-4.9,1.2-9.7.7-14.6-.5-4.7.6-9.5.5-14.3-.2-7.7.4-15.3.5-23,0-5.4,0-10.8.4-16.2.3-3.9.6-7.8.4-11.6-.2-2.8-.7-5.7,0-8.5.2-.8,0-1.4-.9-1.6-1.2-.3-.8-1.3-.8-2,0-.9.8-.9,1.4-.9.9,0,1.8,0,2.7,0,3.9-.1,7.8.3,11.6-.2,2.6,0,5.1,0,8,0,3.4.2,6.5.4,9.6,0h1.4ZM505.4,465.3c0-2-.1-4.1.3-6.1.4-2.1,0-2.5-2.1-2.5-4.2,0-8.4.1-12.6,0-3.3-.2-6.6-.6-9.9-.3-2.9.2-3,.4-3,3.3,0,4,.1,8,.3,12,.4,6.3-.4,12.7-.3,19,0,5.2.8,10.4.4,15.6-.4,5.8.5,11.5.4,17.3,0,3.2-1.1,6.5-.7,9.6.8,7.1-.2,14.1-.2,21.2,0,3.1.7,6,1.1,9,.1.9.6,1.4,1.5,1.4,2.6-.2,5.2-.2,7.7-.5,4-.5,8.1-.8,12.2-.4,3.1.3,6.2,1,9.4.2,3.9-1,7.9-1.6,11.9.2.9.4,2,.2,3,.2,2.3-.1,4.7-.2,7-.4.8,0,1.5.5,2.3.1,2.3-.9,4.7-.4,7.1-.4,1.4,0,2.7,0,4.1-.4,1.7-.3,2.1-1.4,1.7-3-.7-2.8-.1-5.7-.5-8.5-.4-2.7.4-5.4.4-8.1,0-1,.7-2.7-1.3-2.9-6.2-.7-12.3-.6-18.4.3-2.6.4-5.3.9-7.9.7-3.3-.2-6.5,0-9.7.5-4.6.7-6.6-1.7-6.4-6,.2-5.4,1.7-10.8.7-16.2-.5-3,1.1-6,.4-9.1-.4-1.5-.2-3-.2-4.5.1-3.4.9-6.7,1-10.1,0-4.9-.9-9.8-.4-14.7.2-2.3.8-4.7.7-7-.1-3.1-.5-6.2,0-9.6Z"/>
      <path class="st0" d="M15.9,503.9c0-.3,0-.6,0-1.1.4-.8.7-1.3.9-1.9,2-6.1,4.3-12.1,7-17.9,1.2,0,2.3,0,3.8,0,4.3,1.7,8.7,2.4,12.6,4.1,1.9.9,4.4.9,5.7,3,0,.9,0,1.8,0,3-2.5,5.4-5,10.6-7.1,15.9-1.4,3.6-2.2,4-5.8,2.7-4.4-1.5-8.6-3.6-12.7-5.7-1.4-.7-3.2-.9-4.3-2.3ZM25.1,493.1c-1,2.7-2.8,5-4.2,7.6-1,1.8-.9,2,1.1,2.5,3.4.9,6.9,1.6,10.1,2.9,1.3.5,1.7.1,2.3-1,1.8-3.5,2-7.4,3.4-11,.5-1.2-.5-1.6-1.3-1.8-1.7-.6-3.5-1.1-5.2-1.6-1.2-.4-2.4-1.7-3.7-1.1-1.2.6-1.6,2.2-2.6,3.5Z"/>
      <path class="st0" d="M129.7,371s0-.2,0-.4c3.8-3.9,7.9-7.1,12-10.2.6,0,1.3,0,2.2,0,4,3.8,7.1,8,9.9,12.4,0,.4,0,.8,0,1.5-.3,1.6-1.2,2.3-2.3,2.9-3.6,2-7.3,3.6-10.7,5.9-1.9,1.3-3.2,1-4.5-.9-1.2-1.7-2.4-3.5-3.4-5.4-1-2-1.8-4.2-3.4-5.8ZM143.7,374.6c.8-.7,1.6-1.4,2.4-2.1-1.2-1.6-2.1-3-3.1-4.3-.5-.7-1-.8-1.8-.5-2.4,1-4.6,2.4-7.1,3.6,1.2,1.5,2.2,2.7,3.3,3.9,2.2,2.4,3,2.3,5.5.1.2-.2.4-.4.7-.7Z"/>
      <path class="st0" d="M208.8,345.7c.4,0,.8,0,1.5,0,3.4.2,5.9,1.5,6.8,4.5.5,1.7,1,3.5,1.5,5.2,1.2,4.5-1.1,7-5.7,6-2.7-.6-5.4-.6-8.2-.3-4.2.5-6.7-.5-7.3-5.3-.1-1.1-.3-2.1-.4-3.2,0-1-.5-1.5-1.4-1.7,0-.9,0-1.8.1-2.8,1.9-.9,3.9-.2,5.7-.7,2.4-.7,4.9-1.2,7.4-1.8ZM202.8,356c2.2-.3,4.3-.7,6.5-1,.9-.1,2.1,0,1.9-1.4-.2-1.2-.2-2.5-2-2.7-2.4-.3-4.7.3-7.1.2-.7,0-1.4.2-1.1,1.1.4,1.3.5,2.7,1.8,3.8Z"/>
      <path class="st0" d="M269,369.9c0-2.8,0-5.6,0-8.6,1-2,.4-4.5,2.6-5.7.3,0,.6,0,1.1,0,2,1.1,4.1,1.1,6,1.7,3,1.1,5.7,2.9,8.9,3.5,1.8.3,2.1,1.4,2.3,2.8.5,3.1.4,6.3.4,9.4,0,3.4-1.7,4.5-4.8,3.3-1.7-.7-3.6-1.1-5.4-1.6-4-1-8.3-1.4-11.1-5ZM278.3,362.1c-2-.5-2.6,0-2.8,2-.2,2.1.6,3.4,2.6,3.9.7.2,1.4.6,2.1.8,1.8.5,3.4,1.5,5.3,1.7.4-1.9.7-3.6,1-5.3.1-.7,0-1.4-.8-1.5-2.5-.2-4.7-1.1-7.4-1.7Z"/>
      <path class="st0" d="M290.4,413c0,1.5,0,3,0,4.8-.4,2.5-1.6,3.5-4,2.9-.3,0-.6,0-.9,0-4.1,0-8.3.5-12.4.3-2.8-.1-4.3-1.5-4.3-4.3,0-1.2.1-2.5-.2-3.7,0-.2,0-.3,0-.7.8-1.1.5-2.2.5-3.1,0-2.8.9-3.9,3.6-4.8,1.5,0,3,0,4.8,0,3,1,5.8,1.2,8.6,1.6,3.2.4,4.1,1.3,4.1,4.5,0,.8.1,1.6.2,2.4Z"/>
      <path class="st0" d="M235.2,408.9c.2,0,.3,0,.7.1,2.1,3.1,3.6,6.4,4.7,9.8.7,2.3.4,3.5-1.8,4.7-3.4,1.8-6.7,3.7-10.1,5.5-2.9,1.6-4.9.8-6.5-2.1-1.2-2.3-1.5-4.9-3-7.1,0-1.5,0-3,.1-4.8,1.6-1.7,3.6-2.4,5.5-3.2,3.3-1.5,6.8-2,10.3-2.9ZM228.6,422.1c2-.8,3.9-1.6,5.9-2.4.8-.3,1.2-.9,1-1.8-.3-1.2-.5-2.4-.7-3.7-.2-1.2-.8-1.5-1.8-1.1-1.9.9-3.9,1.8-5.7,2.7-.9.5-1.6,1.2-1.1,2.3.6,1.3,1,2.8,2.5,3.8Z"/>
      <path class="st0" d="M191.1,432.9c.5,0,1,0,1.8.1,2.5,3.4,4.7,6.6,7,9.8,1.3,1.8,1.4,3.5.3,5.4-2,3.5-4.5,6.6-6.7,10-.7,1.1-1.8,1.7-3.1,2-.2,0-.3,0-.7,0-1.8-.8-3.3-1.7-4.1-3.2-1.5-3.2-3.6-6-5-9.2,0-1,0-2,.1-3.3,3.3-4.3,7.6-7.1,10.5-11.5ZM193,448.6c.6-.7,1.1-1.3,1.7-2,.4-.4.9-.9.6-1.5-1.1-2.3-2.3-4.5-3.5-6.8-2.7,2-3.7,4.8-5.5,7-.3.4-.2.8,0,1.2,1.3,1.5,2.7,3.1,4,4.6,1.3-.4,1.7-1.5,2.6-2.4Z"/>
      <path class="st0" d="M157.8,497.7c0-1.4,0-2.8.1-4.5,1.4-2.8,1.7-5.7,3.2-8.1,1.6-2.5.9-5.5,2.4-8,.4,0,.8,0,1.4.1,1.4.7,1.9,2.1,3.1,2.7,3,1.4,5.5,3.5,8.3,5.2,1.7,1,2.3,2.3,2,4-1.1,5.7-1.2,11.5-2.6,17.1-.3,1.4-.9,2.6-2.4,3.2-.9,0-1.8,0-2.9,0-3.8-4.6-8.6-7.7-12.5-11.7ZM164.3,490.2c-.3,1-.7,2-1,3.1-.4,1.2,0,2.3,1.1,2.9,1.9,1.1,3.7,2.3,5.4,3.7,1-1,.6-2.3,1-3.3.5-1.1.8-2.2,1.1-3.4,1.2-4.2,1.2-4.3-2-7.1-1.2-1-2.2-2.5-4-2.7-.5,2.2-1,4.3-1.5,6.8Z"/>
      <path class="st0" d="M156.3,535c.8,0,1.5,0,2.5.1.3,1,1,1.4,1.7,1.7,3.9,1.5,7.9,3,12.2,3.1,3,0,4,.8,4.5,3.3,1.2,5.9,3.1,11.7,4.1,17.6.3,1.8.4,3.6-1.3,4.8-1.6,1.2-3.3.8-5,0-4.7-2.3-9.3-5.1-14.5-6.3-2.5-.6-3.4-2.2-3.8-4.9-.8-6.5-.4-12.9-.4-19.4ZM168,543.7c-2.8-.4-5.2-2.1-8-3.1.6,4.4,1.2,8.5,1.8,12.6.1.9.8,1.3,1.6,1.4,3.2.6,6.4,1.2,9.3,2.8.3.1.6.3.9,0,.5-.5.1-1.1,0-1.6-.6-2.2-.4-4.5-.7-6.7-.4-4-.2-4-3.9-5-.2,0-.5-.2-1-.3Z"/>
    </g>
    <path class="st1" d="M373.9,440.8c-.1.1-.2.2-.3.2-.7-.3-1.3-.7-2-1-1.6-1.4-3.6-2.2-5.3-3.4-1.2-.9-2-1.2-2.5-.9-1.3-.9-2.5-1.8-3.8-2.8-3.5-2.8-6.7-5.8-10.6-8.1-2.8-1.6-5.9-2.8-8.7-4.5-3.3-2-6.2-4.6-9.4-6.9-4.7-3.4-10.1-5-15.4-7-4-1.6-8.1-2.7-12.4-3-5.8-.4-11.4-1.8-16.9-3.6-5.6-1.8-11.2-3.1-17.1-3.4-1.9,0-4,.3-5.9-.9-3.1,0-6.1,0-9.2,0-1.4.3-2.6.3-3.9.6-3.6.9-7.1,1.8-10.8,2.2-4.5.6-8.8,1.7-12.9,3.7-2.6,1.3-5.3,2.5-8,3.5-7.5,2.7-15,5.3-21.3,10.3-3,2.3-6.5,3.7-9.4,6-2.6,2.1-5.4,3.9-7.5,6.7-1.8,2.5-3.7,4.9-5.9,7-3.1,3-6,6.1-8.1,10-2.8,5.5-5.7,10.9-8.5,16.3-2.7,5.2-5.1,10.5-6.1,16.4-.3,1.8-1,3.6-1.7,5.2-1.7,4-2.8,8.2-3,12.3-.4,6.9-2.4,13.5-3.1,20.5,0,6.6,0,13,0,19.3.2,0,.3-.1.4,0,0,0,.1.2.1.3.2,4.8.7,9.5,1.6,14.2.7,4,1.7,7.9,2,12,0,1.1.3,4.6.7,7.1-2.1,0-4.1,0-6.2.2-5.5.2-11,.4-16.6-.7-4.1-.8-8.3-.5-12.5-.7-6.1-.2-12.3-.4-18.4-.3-4.8,0-9.6-.3-14.4-.3-3.1,0-6.4-.2-9.8-1-.4,0-.6,0-.7,0-.6.6-1.3.6-2.1.6-2.6-.2-5.2.4-7.9-.5-7,0-13.8,0-20.6,0-2,.6-4.1.6-6.3.6,0-.4,0-.7.2-1.1,1.8-7.8,4.2-15.4,6.7-23,.4-1.2,1.2-2.4,1.3-3.7.2-2.9,1.6-5.4,2.6-8,1.3-3.6,3-7,4.3-10.6,1.4-3.9,2.5-8,4.4-11.7,1.7-3.3,3.5-6.7,4.7-10.2,1.9-6,5-11.4,8.1-16.8,2-3.6,4.4-7,6.3-10.6,1.3-2.5,2.8-5,4.8-7.2,2.4-2.6,4.4-5.6,6.4-8.6,2.1-3.3,3.8-6.7,6.4-9.7,2.3-2.6,4.6-5.2,6.4-8.1,3.6-5.7,8.1-10.6,13-15.1,1.4-1.3,2.8-2.8,4.4-3.9,2.7-1.9,4.5-4.9,7.2-6.8,3.6-2.5,7.5-4.7,10.6-7.6,5.3-5,11.4-8.9,17.5-12.8,3.1-2,5.9-4.3,9.1-6.1,2.8-1.6,5.8-2.6,8.7-3.9,2.3-1,4.8-1.9,7.3-2.7,3.7-1.1,6.8-3.8,10.7-3.9,3.7-.1,7.3-.9,10.9-1.9,6.3-1.7,12.8-2.4,19.3-2.2.4,0,.9-.1,1.3-.2,3.8-.3,7.6-.9,11.4-.8,3.9.1,7.7,1.1,11.6,1.5,5.1.5,10.1,1.6,15.1,2.7,4.3.9,8.3,2.9,12.6,3.9,5.9,1.5,11.9,2.5,17.3,5.5.7.4,1.6.7,2.4.9,6.7,1.3,12.9,4.1,18.8,7.3,4.6,2.5,8.9,5.5,13.3,8.6,5.5,3.9,10.8,8.2,17,11,2.2,1,4.3,2,6.4,3.2,3,1.8,5.9,3.9,8.8,5.8,4.4,2.9,9.2,5.5,13,9.2,3.3,3.2,6.7,6.4,10,9.7.5.5.8,1.1.2,1.8Z"/>
    <path class="st1" d="M25.1,493.1c-1,2.7-2.8,5-4.2,7.6-1,1.8-.9,2,1.1,2.5,3.4.9,6.9,1.6,10.1,2.9,1.3.5,1.7.1,2.3-1,1.8-3.5,2-7.4,3.4-11,.5-1.2-.5-1.6-1.3-1.8-1.7-.6-3.5-1.1-5.2-1.6-1.2-.4-2.4-1.7-3.7-1.1-1.2.6-1.6,2.2-2.6,3.5Z"/>
    <path class="st1" d="M80.8,428.2c1.9-1.8,2.8-4.4,4.5-6.4.5-.6,0-1.2-.5-1.6-1.4-1.2-2.8-2.3-4.2-3.5-.5-.4-1-.6-1.6-.3-2.9,1.9-5.2,4.6-8.3,6.6,2.8,2.1,5.3,3.9,7.8,5.7.8.6,1.4.2,2.2-.6Z"/>
    <path class="st1" d="M143.7,374.6c.8-.7,1.6-1.4,2.4-2.1-1.2-1.6-2.1-3-3.1-4.3-.5-.7-1-.8-1.8-.5-2.4,1-4.6,2.4-7.1,3.6,1.2,1.5,2.2,2.7,3.3,3.9,2.2,2.4,3,2.3,5.5.1.2-.2.4-.4.7-.7Z"/>
    <path class="st1" d="M202.8,356c2.2-.3,4.3-.7,6.5-1,.9-.1,2.1,0,1.9-1.4-.2-1.2-.2-2.5-2-2.7-2.4-.3-4.7.3-7.1.2-.7,0-1.4.2-1.1,1.1.4,1.3.5,2.7,1.8,3.8Z"/>
    <path class="st1" d="M278.3,362.1c-2-.5-2.6,0-2.8,2-.2,2.1.6,3.4,2.6,3.9.7.2,1.4.6,2.1.8,1.8.5,3.4,1.5,5.3,1.7.4-1.9.7-3.6,1-5.3.1-.7,0-1.4-.8-1.5-2.5-.2-4.7-1.1-7.4-1.7Z"/>
    <path class="st1" d="M275.5,412.2c.8,3,.9,3.1,4.1,3.2.8,0,1.6,0,2.4,0,4.6,0,3.5.3,4.5-3.8.4-1.5-.1-1.9-1.5-1.9-2.3,0-4.6,0-7,0-2.4-.1-2.6,0-2.6,2.6Z"/>
    <path class="st1" d="M228.6,422.1c2-.8,3.9-1.6,5.9-2.4.8-.3,1.2-.9,1-1.8-.3-1.2-.5-2.4-.7-3.7-.2-1.2-.8-1.5-1.8-1.1-1.9.9-3.9,1.8-5.7,2.7-.9.5-1.6,1.2-1.1,2.3.6,1.3,1,2.8,2.5,3.8Z"/>
    <path class="st1" d="M193,448.6c.6-.7,1.1-1.3,1.7-2,.4-.4.9-.9.6-1.5-1.1-2.3-2.3-4.5-3.5-6.8-2.7,2-3.7,4.8-5.5,7-.3.4-.2.8,0,1.2,1.3,1.5,2.7,3.1,4,4.6,1.3-.4,1.7-1.5,2.6-2.4Z"/>
    <path class="st1" d="M164.3,490.2c-.3,1-.7,2-1,3.1-.4,1.2,0,2.3,1.1,2.9,1.9,1.1,3.7,2.3,5.4,3.7,1-1,.6-2.3,1-3.3.5-1.1.8-2.2,1.1-3.4,1.2-4.2,1.2-4.3-2-7.1-1.2-1-2.2-2.5-4-2.7-.5,2.2-1,4.3-1.5,6.8Z"/>
    <path class="st1" d="M432.5,462.3c-.8,4.8-.2,9.5.2,14.2.3,2.6.7,5.2.4,7.8-.3,3.5-.2,6.9.3,10.4.6,4.4.7,8.7.6,13.1,0,4.2-.7,8.3-.1,12.6.4,2.7.6,5.6.3,8.3-.5,4.6-.4,9.2-.4,13.7,0,6.8,2.1,13.4,1.7,20.3,0,.9.4,1.2,1.3,1.2.7,0,1.4-.3,2-.5,3.4-.7,6.8-1.6,10.3-.8,3,.7,6.1,1,9.2.8,1,0,1.6-.4,1.8-1.5.2-1.1.1-2.1.2-3.2.2-4.9.7-9.9.1-14.8-.7-5.7-1.2-11.4-1.1-17.1,0-2.6,0-5.2-.3-7.8-.2-2.4-.7-4.8-.5-7.2.3-4.2.4-8.3.8-12.5.2-2.6,0-5.2,0-7.7.3-6,.8-12,1-18,.2-4.1,0-8.1-.2-12.2-.2-2.2-.3-2.5-2.5-2.5-7.6-.2-15.2.3-22.8.7-1.8.1-2.6.6-2.3,2.7Z"/>
    <path class="st1" d="M505.4,465.3c0-2-.1-4.1.3-6.1.4-2.1,0-2.5-2.1-2.5-4.2,0-8.4.1-12.6,0-3.3-.2-6.6-.6-9.9-.3-2.9.2-3,.4-3,3.3,0,4,.1,8,.3,12,.4,6.3-.4,12.7-.3,19,0,5.2.8,10.4.4,15.6-.4,5.8.5,11.5.4,17.3,0,3.2-1.1,6.5-.7,9.6.8,7.1-.2,14.1-.2,21.2,0,3.1.7,6,1.1,9,.1.9.6,1.4,1.5,1.4,2.6-.2,5.2-.2,7.7-.5,4-.5,8.1-.8,12.2-.4,3.1.3,6.2,1,9.4.2,3.9-1,7.9-1.6,11.9.2.9.4,2,.2,3,.2,2.3-.1,4.7-.2,7-.4.8,0,1.5.5,2.3.1,2.3-.9,4.7-.4,7.1-.4,1.4,0,2.7,0,4.1-.4,1.7-.3,2.1-1.4,1.7-3-.7-2.8-.1-5.7-.5-8.5-.4-2.7.4-5.4.4-8.1,0-1,.7-2.7-1.3-2.9-6.2-.7-12.3-.6-18.4.3-2.6.4-5.3.9-7.9.7-3.3-.2-6.5,0-9.7.5-4.6.7-6.6-1.7-6.4-6,.2-5.4,1.7-10.8.7-16.2-.5-3,1.1-6,.4-9.1-.4-1.5-.2-3-.2-4.5.1-3.4.9-6.7,1-10.1,0-4.9-.9-9.8-.4-14.7.2-2.3.8-4.7.7-7-.1-3.1-.5-6.2,0-9.6Z"/>
    <path class="st1" d="M585,492.1c0-1.9,0-3.8,0-5.7,0-2.4.8-3,3.1-3,3.7,0,7.5-.3,11.2-.3,8.5,0,17.1-.2,25.6-.5,2.8,0,5.6.5,8.4.4,1.4,0,2.1-.4,2.1-2-.3-6.9.5-13.8.4-20.7,0-2-.5-2.5-2.4-2.4-9,.3-17.9.6-26.9.8-2.7,0-5.5-.4-8.2-.2-4.4.3-8.9.7-13.3.9-6.1.3-11.1,2.6-15.2,6.9-4.2,4.4-5.3,10.2-6,16-.5,4.2-.3,8.5-.8,12.7-.2,1.8-.6,3.5-.3,5.3.5,3.1,1.1,6.1,2,9.1,1.4,4.5,4.6,7.3,8.4,9.5,5.1,2.9,10.7,3.9,16.7,3.6,7.6-.3,15.2-.3,22.8,1,1.6.3,2.5,1.1,2.7,2.7.5,4.1.3,8.2.2,12.2,0,1.9-1.8,3.6-3.5,3.7-2.5,0-5.1.3-7.6.3-6.5,0-12.9.7-19.4.8-5.7,0-11.4,1.1-17.1,0-2.8-.5-3.1,0-2.9,2.7,0,.4.1.8.2,1.1.4,2.3.9,4.7.4,7-.7,3.4.2,6.5.1,9.8,1.5.6,2.8.1,4.1.2,3.9.1,7.7.2,11.6-.1,3.7-.3,7.5-.1,11.2-.3,3.4-.2,6.8.4,10.2.8,4.5.6,9.1-.8,13.7-.3,3.5.4,6.5-.8,9.4-2.6,5-3,8.7-7.2,10.7-12.7,1.1-3,2.1-6.1,1.9-9.3-.2-2.2-.3-4.3-.2-6.5.1-2.4.8-4.8.6-7.2-.4-4-.9-7.9-2-11.8-1.1-4.3-4.2-7-7.7-9-4.3-2.3-8.9-3.7-13.9-3.5-4.2.2-8.3-.3-12.5-.2-5.2.2-10.3-1.1-15.6-1-1.4,0-2.2-1-2.2-2.4,0-1.9,0-3.7,0-5.9Z"/>
    <path class="st1" d="M168,543.7c-2.8-.4-5.2-2.1-8-3.1.6,4.4,1.2,8.5,1.8,12.6.1.9.8,1.3,1.6,1.4,3.2.6,6.4,1.2,9.3,2.8.3.1.6.3.9,0,.5-.5.1-1.1,0-1.6-.6-2.2-.4-4.5-.7-6.7-.4-4-.2-4-3.9-5-.2,0-.5-.2-1-.3Z"/>
  </g>
</svg>