<svg id="レイヤー_1" data-name="レイヤー 1" xmlns="http://www.w3.org/2000/svg" viewBox="0 0 200 200"><defs><style>.cls-1{fill:#4f4646;}.cls-2{fill:#ef4d4d;}.cls-3{fill:#f27171;}.cls-4{fill:#bf3e3e;}</style></defs><title>rails</title><polygon class="cls-1" points="50.52 183.17 31.46 183.17 74.17 71.17 82.45 71.17 50.52 183.17"/><polygon class="cls-1" points="168.35 183.17 149.3 183.17 125.41 71.17 133.69 71.17 168.35 183.17"/><polygon class="cls-1" points="147.25 99.99 58.23 99.99 63.27 87.06 143.11 87.06 147.25 99.99"/><polygon class="cls-1" points="155.26 123.3 48.52 123.3 54 110.38 150.74 110.38 155.26 123.3"/><polygon class="cls-1" points="163.95 146.62 38 146.62 43.93 133.69 159.05 133.69 163.95 146.62"/><polygon class="cls-1" points="173.32 169.93 26.68 169.93 33.05 157 168.04 157 173.32 169.93"/><polygon class="cls-2" points="68.47 16.83 135.9 16.83 102.17 110.38 68.47 16.83"/><polygon class="cls-3" points="68.47 16.83 48.11 50.57 81.97 50.57 68.47 16.83"/><polygon class="cls-3" points="135.9 16.83 122.51 50.57 156.37 50.57 135.9 16.83"/><polygon class="cls-3" points="102.26 16.83 81.97 50.57 122.57 50.57 102.26 16.83"/><polygon class="cls-4" points="48.11 50.57 102.17 110.38 81.97 50.57 48.11 50.57"/><polygon class="cls-4" points="156.37 50.57 102.17 110.38 122.36 50.57 156.37 50.57"/></svg>