<?xml version="1.0" encoding="UTF-8"?>
<svg id="_レイヤー_1" xmlns="http://www.w3.org/2000/svg" version="1.1" viewBox="0 0 660 660">
  <!-- Generator: Adobe Illustrator 29.2.1, SVG Export Plug-In . SVG Version: 2.1.0 Build 116)  -->
  <defs>
    <style>
      .st0 {
        fill: #0c6baf;
      }

      .st1 {
        fill: #f1ab40;
      }
    </style>
  </defs>
  <g>
    <path class="st0" d="M469.6,351.4c58.1-33.5,82.9-102.9,62.6-164.3l-69.3,40c1.3,23-10.1,46-31.4,58.3-30.1,17.4-68.8,7-86.2-23.1-17.4-30.1-7-68.8,23.1-86.2,30.1-17.4,68.8-7,86.2,23.1l66-38.1c-38.4-66.5-123.7-89.4-190.2-50.9-45.2,26.1-70.2,73.9-69.6,122.7h0v254.6h76.2v-130.3l118,204.1,66-38.1-90.5-156.5c13.4-3,26.7-8.1,39.2-15.3h0Z"/>
    <path class="st1" d="M523.2,96l11.3,19.6-33.5,19.3-70.5,40.7-93.5,54c-.2,11.1,2.4,22.4,8.3,32.7.9,1.6,2,3.2,3,4.7l205.1-118.4,11.3,19.6,15.2-56.9-56.9-15.3h0Z"/>
  </g>
  <g>
    <path class="st1" d="M120.1,566.8l-13.9-26.7h-14v26.7h-12.2v-65.7h24.6c16.7,0,26.6,6.6,26.6,19.6s-4.7,14.9-13.1,17.6l15.4,28.5h-13.4,0ZM103.8,530.6c10.3,0,15.3-2.5,15.3-9.9s-5-10-15.3-10h-11.6v19.9h11.6Z"/>
    <path class="st1" d="M178.6,559.6c-3.7,5.8-9.5,8.1-18.7,8.1-15,0-23-8.8-23-21.5v-6.5c0-14,7.5-21.3,21.3-21.3s21.2,7.8,21.2,21.9v5.2h-31.3v.2c0,7.4,3.1,13.2,11.4,13.2s8.7-1.7,10.8-4.7l8.4,5.3h0ZM148.1,537.7h20c-.4-7-3.6-10.5-9.9-10.5s-9.5,4-10.1,10.5h0Z"/>
  </g>
  <g>
    <path class="st0" d="M201.3,558.5c16.9-6.5,34.2-21.8,42.5-43.5h-38.1v-9.6h51.6c-1,4.9-3.2,16.2-13.9,31.3,9.2,7.1,17.3,14,25.1,21.8l-8.5,8.4c-6.9-8.1-14.6-15.5-22.6-22.5-8.4,9.6-18.3,17.8-30.1,22.6l-6-8.4h0Z"/>
    <path class="st0" d="M297.1,501.2l10.3-.8,1.3,12.4,25.2-2.6.8,9.5-25,2.6,1.3,12.5,27.8-2.8.8,9.5-27.5,2.8,2.5,22.4-10.5.8-2.3-22.1-28.1,2.8-.9-9.6,28-2.8-1.3-12.4-24.3,2.6-.8-9.5,24.1-2.6-1.4-12.7h0Z"/>
    <path class="st0" d="M365,522.9c0,8.7-.8,16.7-2.4,24.1-1.9,8.9-5.7,16-11.7,21.6l-8.1-7.1c4.1-4,12-11.5,12-37v-20.1h10.3v18.5h0ZM385.5,554c4.5-1.7,9.4-4.1,13.4-10.8,1.7-2.9,4.8-8.3,6.1-17l9.4,4c-4.2,21-18,35.5-38.9,35.8v-64.1h10v52h0Z"/>
  </g>
</svg>