<?xml version="1.0" encoding="UTF-8"?>
<svg id="_レイヤー_1" data-name="レイヤー 1" xmlns="http://www.w3.org/2000/svg" viewBox="0 0 318.72 304">
  <defs>
    <style>
      .cls-1 {
        fill: #0c6baf;
      }

      .cls-2 {
        fill: #f1ab40;
      }
    </style>
  </defs>
  <g>
    <path class="cls-1" d="M248.32,165.61c37.04-21.38,52.84-65.61,39.91-104.71l-44.17,25.5c.83,14.69-6.43,29.31-20.02,37.15-19.2,11.08-43.83,4.48-54.91-14.71-11.08-19.2-4.48-43.83,14.71-54.92,19.2-11.08,43.83-4.48,54.91,14.71l42.06-24.28C256.33,1.98,201.94-12.6,159.55,11.88c-28.82,16.64-44.76,47.1-44.33,78.23h-.03v162.29h48.56v-83.07l75.19,130.08,42.06-24.28-57.66-99.75c8.57-1.91,16.99-5.14,24.98-9.75Z"/>
    <path class="cls-2" d="M282.47,2.86l7.2,12.48-21.35,12.32-44.95,25.96-59.57,34.39c-.14,7.08,1.53,14.27,5.32,20.84.6,1.04,1.26,2.03,1.94,3l130.74-75.48,7.2,12.48,9.71-36.26-36.26-9.73Z"/>
  </g>
  <g>
    <path class="cls-2" d="M25.58,302.93l-8.88-16.99H7.75v16.99H0v-41.88h15.69c10.62,0,16.96,4.19,16.96,12.5,0,5.77-3.01,9.47-8.35,11.23l9.82,18.15h-8.55ZM15.16,279.86c6.54,0,9.75-1.58,9.75-6.31s-3.21-6.37-9.75-6.37h-7.41v12.69h7.41Z"/>
    <path class="cls-2" d="M62.84,298.31c-2.34,3.7-6.08,5.16-11.95,5.16-9.55,0-14.63-5.64-14.63-13.72v-4.13c0-8.92,4.81-13.6,13.56-13.6s13.49,4.98,13.49,13.96v3.34h-19.97v.12c0,4.73,2,8.44,7.28,8.44,3.94,0,5.54-1.09,6.88-2.97l5.34,3.4ZM43.4,284.36h12.76c-.27-4.43-2.27-6.68-6.34-6.68s-6.08,2.55-6.41,6.68Z"/>
  </g>
  <g>
    <path class="cls-1" d="M77.35,297.61c10.77-4.13,21.77-13.89,27.06-27.73h-24.27v-6.15h32.87c-.62,3.12-2.07,10.33-8.84,19.94,5.86,4.52,11.01,8.94,16,13.89l-5.43,5.33c-4.42-5.14-9.28-9.9-14.42-14.37-5.33,6.15-11.68,11.34-19.18,14.42l-3.8-5.33Z"/>
    <path class="cls-1" d="M138.38,261.13l6.54-.53.86,7.93,16.05-1.68.53,6.06-15.91,1.68.86,7.98,17.69-1.78.53,6.06-17.54,1.78,1.59,14.27-6.68.48-1.49-14.08-17.93,1.78-.58-6.1,17.83-1.78-.82-7.88-15.52,1.63-.53-6.06,15.38-1.63-.87-8.12Z"/>
    <path class="cls-1" d="M181.68,274.93c0,5.57-.53,10.67-1.54,15.33-1.2,5.67-3.65,10.19-7.45,13.74l-5.19-4.52c2.64-2.55,7.64-7.35,7.64-23.6v-12.78h6.54v11.82ZM194.75,294.77c2.88-1.11,5.96-2.64,8.55-6.87,1.11-1.83,3.03-5.29,3.89-10.81l5.96,2.55c-2.69,13.36-11.48,22.64-24.8,22.83v-40.85h6.39v33.16Z"/>
  </g>
</svg>