<?xml version="1.0" encoding="utf-8"?>
<!-- Generator: Adobe Illustrator 16.0.4, SVG Export Plug-In . SVG Version: 6.00 Build 0)  -->
<!DOCTYPE svg PUBLIC "-//W3C//DTD SVG 1.1//EN" "http://www.w3.org/Graphics/SVG/1.1/DTD/svg11.dtd">
<svg version="1.1" id="レイヤー_1" xmlns="http://www.w3.org/2000/svg" xmlns:xlink="http://www.w3.org/1999/xlink" x="0px"
	 y="0px" width="310px" height="231.375px" viewBox="17.728 0 310 231.375" enable-background="new 17.728 0 310 231.375"
	 xml:space="preserve">
<g>
	<rect x="95.718" y="31.22" fill="#D3DCDC" width="26.337" height="43.604"/>
	<path fill="#F4866E" d="M255.496,104.086l-82.229-65.842l-82.23,65.842c-2.633,2.048-4.097,4.975-4.097,8.193v97.741
		c0,4.095,3.512,7.606,7.609,7.606h157.143c4.098,0,7.608-3.512,7.608-7.606V112.28
		C259.299,109.062,257.835,105.841,255.496,104.086z"/>
	<path fill="#474F5A" d="M87.231,194.509v15.512c0,4.095,3.512,7.606,7.608,7.606h157.144c4.098,0,7.609-3.512,7.609-7.606v-15.512
		H87.231z"/>
	<path fill="#474F5A" d="M176.484,40.877l91.303,72.866c3.804,3.218,9.363,3.218,13.167,0c5.268-4.39,5.268-12.291,0-16.681
		L179.997,16.589c-3.804-3.219-9.365-3.219-13.167,0L65.577,97.356c-5.267,4.39-5.267,12.29,0,16.68
		c3.805,3.218,9.364,3.218,13.169,0l91.301-72.866C172.095,39.414,174.729,39.414,176.484,40.877z"/>
	<rect x="148.685" y="119.303" fill="#474F5A" width="49.162" height="98.032"/>
	<path fill="#FFFFFF" d="M136.395,119.303h-28.678c-2.048,0-3.805,1.755-3.805,3.805v41.26c0,2.049,1.756,3.805,3.805,3.805h28.678
		c2.048,0,3.804-1.756,3.804-3.805V123.4C140.198,121.059,138.735,119.303,136.395,119.303z"/>
	<path fill="#00AFC0" d="M134.346,124.57h-24.289c-0.878,0-1.463,0.585-1.463,1.463v35.994c0,0.877,0.585,1.463,1.463,1.463h24.289
		c0.878,0,1.462-0.586,1.462-1.463v-35.994C135.516,125.156,134.931,124.57,134.346,124.57z"/>
	<circle fill="#EFF1F3" cx="173.266" cy="87.406" r="16.095"/>
	<path fill="#F4866E" d="M128.493,16.882H89.281c-1.171,0-2.05,0.878-2.05,2.049v10.242c0,1.171,0.878,2.048,2.05,2.048h39.211
		c1.171,0,2.048-0.877,2.048-2.048V18.931C130.541,18.052,129.664,16.882,128.493,16.882z"/>
</g>
</svg>
