<svg id="materials" xmlns="http://www.w3.org/2000/svg" viewBox="0 0 240 240"><defs><style>.cls-1{fill:#ef6f87;}.cls-2{fill:#474747;}.cls-3{fill:#fff;}.cls-4{fill:#f4866e;}.cls-5{fill:#f3d97f;}.cls-6{fill:#3f8943;}</style></defs><title>report</title><path class="cls-1" d="M221,194.18s-8.42-3.88-45.19-4.57c-45.19-.84-50.17,8.23-50.17,8.23h-8.13s-5-9.07-50.16-8.23c-36.77.69-45.19,4.57-45.19,4.57l-3.7-3.33s15.5-5.53,48.89-5.53c45.19,0,50.16,8.23,50.16,8.23h8.13s5-8.23,50.17-8.23c33.53,0,48.82,5.52,48.82,5.52Z"/><path class="cls-2" d="M221,194.18l.63-1.37c-.36-.15-8.92-4-45.8-4.7-2,0-3.95-.05-5.81-.05-20,0-31.26,2.07-37.61,4.22a22.91,22.91,0,0,0-6.33,3.06,6.14,6.14,0,0,0-1.75,1.78l1.31.72v-1.5h-8.13v1.5l1.32-.72a6.25,6.25,0,0,0-1.76-1.78c-1.8-1.33-5.29-3.14-12.07-4.63s-16.85-2.65-31.87-2.65c-1.86,0-3.79,0-5.81.05-36.88.7-45.43,4.55-45.79,4.7l.63,1.37,1-1.12-3.7-3.33-1,1.12.51,1.41h0c.32-.11,15.67-5.44,48.38-5.44,22.5,0,34.92,2.05,41.6,4.05a24.27,24.27,0,0,1,6.26,2.64,6.82,6.82,0,0,1,.94.74l.12.13h0l.65-.49-.69.42,0,.07.65-.49-.69.42.44.73h9.82l.44-.73-.9-.54.86.6,0-.06-.9-.54.86.6-.29-.2.28.21h0l-.29-.2.28.21.07-.08c.36-.39,2.47-2.3,9.58-4.07s19.16-3.42,39.28-3.42a219,219,0,0,1,36.73,2.73c4,.69,6.88,1.37,8.79,1.87,1,.26,1.66.47,2.13.61l.51.17.12,0h0l.51-1.41-1-1.11-3.63,3.34,1,1.11.63-1.37-.63,1.37,1,1.1,5.45-5-2.33-.84c-.16-.06-15.63-5.6-49.32-5.6-22.69,0-35.36,2.06-42.46,4.18a26.88,26.88,0,0,0-7.05,3,6.11,6.11,0,0,0-1.94,1.76l1.28.78v-1.5h-8.13v1.5l1.29-.78a6.24,6.24,0,0,0-1.94-1.76c-2-1.31-5.87-3.09-13.49-4.56s-19-2.63-36-2.63c-33.56,0-49.23,5.56-49.39,5.62l-2.37.84,6.3,5.67.89-.41-.39-.86.38.86h0l-.39-.86.38.86h0c.47-.21,9.62-3.78,44.59-4.43,2,0,3.91-.05,5.75-.05,19.81,0,30.77,2.07,36.65,4.06a20.55,20.55,0,0,1,5.51,2.63,6.25,6.25,0,0,1,.83.73l.11.14h0l.65-.43-.68.37,0,.06.65-.43-.68.37.43.78h9.9l.43-.78-.9-.49.87.54,0-.05-.9-.49.87.54-.25-.15.24.16h0l-.25-.15.24.16a2,2,0,0,1,.28-.31c.72-.71,3.13-2.54,9.53-4.18s16.76-3.07,33.29-3.07c1.84,0,3.76,0,5.76.05,18.33.34,29.57,1.48,36.18,2.52a61.89,61.89,0,0,1,6.75,1.38c.65.17,1.09.32,1.35.41l.27.1.05,0h0l.38-.85-.39.85h0l.38-.85-.39.85.91.42.73-.68Z"/><path class="cls-2" d="M11.61,93.15v93.4L21.83,196l.9-.42-.39-.86.38.86h0l-.39-.86.38.86h0c.47-.21,9.62-3.78,44.59-4.43,2,0,3.91-.05,5.75-.05,19.81,0,30.77,2.07,36.65,4.06a20.55,20.55,0,0,1,5.51,2.63,6.25,6.25,0,0,1,.83.73l.11.14h0l.65-.43-.68.37,0,.06.65-.43-.68.37.43.78h9.9l.43-.78-.9-.49.87.54,0-.05-.9-.49.87.54-.26-.15.25.16h0l-.26-.15.25.16a2,2,0,0,1,.28-.31c.72-.71,3.13-2.54,9.53-4.18s16.76-3.07,33.29-3.07c1.84,0,3.76,0,5.76.05,18.33.34,29.57,1.48,36.18,2.52a61.89,61.89,0,0,1,6.75,1.38c.65.17,1.09.32,1.35.41l.27.1.05,0h0l.38-.85-.39.85h0l.38-.85-.39.85.91.42,10.22-9.41V93.15h-3v92.08l-8.52,7.84,1,1.11.63-1.37c-.36-.15-8.92-4-45.8-4.7-2,0-3.95-.05-5.81-.05-20,0-31.26,2.07-37.61,4.22a22.91,22.91,0,0,0-6.33,3.06,6.14,6.14,0,0,0-1.75,1.78l1.31.72v-1.5h-8.13v1.5l1.32-.72a6.25,6.25,0,0,0-1.76-1.78c-1.8-1.33-5.29-3.14-12.07-4.63s-16.85-2.65-31.87-2.65c-1.86,0-3.79,0-5.81.05-36.88.7-45.43,4.55-45.79,4.7l.63,1.37,1-1.11-8.51-7.84V93.15Z"/><path class="cls-3" d="M122,49.44s8.23-7.84,54-7.84,54,7.84,54,7.84V180.78a3,3,0,0,1-4.15,2.77c-6-2.43-19.88-6-49.84-6-45.76,0-54,8.23-54,8.23h-.88s-8.23-8.23-54-8.23c-30.89,0-44.68,3.75-50.38,6.19a2.58,2.58,0,0,1-3.61-2.36v-132s8.23-7.84,54-7.84,54,7.84,54,7.84Z"/><path class="cls-2" d="M122,49.44l1,1.08-.49-.51.47.53,0,0-.49-.51.47.53s2.19-1.89,9.92-3.75,21-3.69,43.06-3.69c22.79,0,36.18,1.95,43.79,3.87a38.29,38.29,0,0,1,7.53,2.59,11.64,11.64,0,0,1,1.38.78c.12.08.2.15.24.18l0,0,.48-.54-.5.52,0,0,.48-.54-.5.52,1-1.08h-1.5V180.78a1.48,1.48,0,0,1-.45,1.07,1.55,1.55,0,0,1-1.06.43,1.37,1.37,0,0,1-.58-.12c-6.29-2.54-20.33-6.07-50.4-6.07-23,0-36.59,2.06-44.54,4.17s-10.26,4.25-10.51,4.5l1.06,1.06v-1.5h-.88v1.5l1.06-1.06c-.25-.25-2.57-2.4-10.51-4.5s-21.57-4.17-44.54-4.17c-31,0-45,3.75-51,6.31a1.19,1.19,0,0,1-.44.09,1.08,1.08,0,0,1-.76-.31,1,1,0,0,1-.32-.76v-132h-1.5l1,1.08L13.65,50l.47.53,0,0L13.65,50l.47.53s2.19-1.89,9.92-3.75S45,43.1,67.1,43.1c22.79,0,36.18,1.95,43.79,3.87a38.29,38.29,0,0,1,7.53,2.59,11.64,11.64,0,0,1,1.38.78c.12.08.2.15.24.18l0,0,.47-.53-.49.51,0,0,.47-.53-.49.51.44.42h2.08l.43-.42-1-1.08v-1.5h-.88v1.5l1-1.09c-.26-.24-2.56-2.28-10.5-4.29s-21.56-4-44.52-4-36.58,2-44.52,4-10.25,4-10.51,4.29l-.46.44V181.42a4.06,4.06,0,0,0,4.08,4.07,4.23,4.23,0,0,0,1.62-.33c5.41-2.32,19-6.07,49.79-6.07,22.79,0,36.17,2,43.77,4.07a36.22,36.22,0,0,1,7.52,2.71,10.43,10.43,0,0,1,1.38.82l.25.18,0,0,.47-.51-.49.49,0,0,.47-.51-.49.49.44.44h2.12l.44-.44-.5-.49.48.51,0,0-.5-.49.48.51s2.19-2,9.91-3.93,21-3.88,43-3.88c29.84,0,43.54,3.53,49.27,5.85a4.48,4.48,0,0,0,4.85-.94,4.45,4.45,0,0,0,1.37-3.22v-132l-.47-.44c-.26-.24-2.56-2.28-10.5-4.29s-21.56-4-44.52-4-36.58,2-44.52,4-10.25,4-10.51,4.29l1,1.09v0Z"/><path class="cls-2" d="M120,148.44v37.38a1.5,1.5,0,0,0,3,0V148.44a1.5,1.5,0,0,0-3,0"/><path class="cls-2" d="M120,49.44V107.5a1.5,1.5,0,0,0,3,0V49.44a1.5,1.5,0,0,0-3,0"/><circle class="cls-3" cx="34.2" cy="63.7" r="7.98"/><path class="cls-2" d="M42.19,63.7h-1.5a6.49,6.49,0,1,1-1.9-4.58,6.49,6.49,0,0,1,1.9,4.58h3a9.49,9.49,0,1,0-9.49,9.48,9.49,9.49,0,0,0,9.49-9.48Z"/><line class="cls-3" x1="62.87" y1="55.59" x2="75.91" y2="68.63"/><path class="cls-2" d="M61.81,56.65l13,13A1.5,1.5,0,0,0,77,67.57l-13-13a1.5,1.5,0,0,0-2.12,2.12"/><line class="cls-3" x1="75.91" y1="55.59" x2="62.87" y2="68.63"/><path class="cls-2" d="M74.85,54.53l-13,13a1.5,1.5,0,0,0,2.12,2.12l13-13a1.5,1.5,0,0,0-2.12-2.12"/><path class="cls-2" d="M49,69.89V59.06l0-.06h0l0,0v0h0l0,0v0h5.38v-.12l-.08.09.08,0v-.12l-.08.09,0,0h0v0l0,0h0V69.89a1.5,1.5,0,0,0,3,0V59a2.93,2.93,0,0,0-.83-2.07A2.86,2.86,0,0,0,54.41,56H49a3,3,0,0,0-2.14.91A3.06,3.06,0,0,0,46,59.06V69.89a1.5,1.5,0,0,0,3,0Z"/><path class="cls-2" d="M55.82,60.12H47.53a1.5,1.5,0,0,0,0,3h8.29a1.5,1.5,0,0,0,0-3"/><path class="cls-2" d="M55.82,64.2H47.53a1.5,1.5,0,0,0,0,3h8.29a1.5,1.5,0,1,0,0-3"/><path class="cls-2" d="M91.45,68.07H90a.5.5,0,0,1-.09.32l0,0,0,.06,0-.07h0l0,.06,0-.07.08.19v-.2h-.08l.08.19v-.2H84.49v.27l.12-.25-.12,0v.27l.12-.25,0,.09.07-.07,0,0,0,.09.07-.07a.37.37,0,0,1-.07-.24V59.33a.58.58,0,0,1,.09-.32l0,0-.05-.06,0,.07h0l-.05-.06,0,.07-.07-.19V59l.07,0-.07-.19V59H90v-.28l-.12.25L90,59v-.28l-.12.25,0-.09-.07.07,0,0,0-.09-.07.07a.32.32,0,0,1,.07.24v8.86h3V59.21a3.41,3.41,0,0,0-.76-2.16A2.81,2.81,0,0,0,90,56H84.59a2.87,2.87,0,0,0-2.23,1.07,3.48,3.48,0,0,0-.79,2.24v8.86a3.39,3.39,0,0,0,.76,2.16,2.85,2.85,0,0,0,2.16,1h5.45a2.92,2.92,0,0,0,2.22-1.07A3.52,3.52,0,0,0,93,68.07Z"/><path class="cls-2" d="M91.45,62.2H83.07a1.5,1.5,0,0,0,0,3h8.39a1.5,1.5,0,0,0,0-3"/><path class="cls-2" d="M27.2,86.89l.16,0C29,86.6,43.22,84.41,67.8,84.41c13.11,0,23,.62,29.53,1.24,3.28.31,5.74.62,7.37.85l1.83.28.45.08.11,0h0a1.5,1.5,0,1,0,.56-2.94c-.09,0-13.47-2.53-39.88-2.53s-41,2.51-41.1,2.52a1.5,1.5,0,0,0,.5,3Z"/><path class="cls-2" d="M27.2,102.34l.16,0c1.62-.27,15.86-2.46,40.44-2.46,13.11,0,23,.63,29.53,1.25,3.28.31,5.74.62,7.37.85l1.83.28.45.07.11,0h0a1.5,1.5,0,1,0,.56-3c-.09,0-13.47-2.53-39.88-2.53s-41,2.51-41.1,2.53a1.5,1.5,0,1,0,.5,3Z"/><path class="cls-2" d="M27.2,117.8l.16,0c1.62-.26,15.86-2.45,40.44-2.45,13.11,0,23,.62,29.53,1.24,3.28.32,5.74.62,7.37.86.82.11,1.43.21,1.83.27l.45.08.11,0h0a1.5,1.5,0,1,0,.56-3c-.09,0-13.47-2.53-39.88-2.53s-41,2.51-41.1,2.52a1.5,1.5,0,1,0,.5,3Z"/><path class="cls-2" d="M27.2,133.26l.16,0c1.62-.26,15.86-2.45,40.44-2.45a1.5,1.5,0,0,0,0-3c-26.41,0-41,2.51-41.1,2.52a1.5,1.5,0,0,0,.5,3Z"/><path class="cls-4" d="M110.21,139.45a1.5,1.5,0,0,1-1.09-2.14l4.41-8.86,6.26-12.33a1.6,1.6,0,0,1,.46-.54l.24-.17a1.46,1.46,0,0,1,1.11-.25h0a1.48,1.48,0,0,1,1,.6l13,18.27a1.47,1.47,0,0,1,.25,1.12,1.46,1.46,0,0,1-.6,1l-.24.17a1.44,1.44,0,0,1-.68.27l-13.65,1.67-10,1.24A2,2,0,0,1,110.21,139.45Z"/><path class="cls-2" d="M121.36,116.63l13,18.27-.24.17-13.64,1.67-10,1.24,4.41-8.87,6.25-12.31.24-.17m.49-2.94a2.94,2.94,0,0,0-2.22.51l-.24.17a2.93,2.93,0,0,0-.93,1.08l-6.25,12.31-4.43,8.88a3,3,0,0,0,2.18,4.28,3.09,3.09,0,0,0,.86,0l10-1.24L134.49,138a3.12,3.12,0,0,0,1.37-.53l.23-.17a3,3,0,0,0,1.22-1.94,3,3,0,0,0-.52-2.22l-13-18.27A3,3,0,0,0,121.85,113.69Z"/><path class="cls-4" d="M134.08,136.2a1.53,1.53,0,0,1-1-.61l-13-18.28a1.5,1.5,0,0,1,.36-2.09L198,60a1.48,1.48,0,0,1,2.08.35l13,18.29a1.49,1.49,0,0,1-.35,2.08l-77.5,55.18A1.54,1.54,0,0,1,134.08,136.2Z"/><path class="cls-2" d="M198.82,61.25l13,18.29-77.51,55.19-13-18.29,77.51-55.19m.49-2.94a3,3,0,0,0-2.22.51L119.58,114a3,3,0,0,0-.7,4.16l13,18.29a3,3,0,0,0,4.16.7L213.57,82a3,3,0,0,0,.7-4.16l-13-18.29A3,3,0,0,0,199.31,58.31Z"/><path class="cls-5" d="M120.35,137.47a.72.72,0,0,1-.47-.29l-5.61-7.63a.75.75,0,0,1-.07-.78l6.25-12.31.23-.27.24-.17a.78.78,0,0,1,.56-.13.73.73,0,0,1,.48.3l13,18.27a.75.75,0,0,1,.13.56.69.69,0,0,1-.31.48l-.23.17-.34.14-13.65,1.67Z"/><path class="cls-2" d="M121.36,116.63l13,18.27-.24.17-13.64,1.67-5.61-7.63,6.25-12.31.24-.17m.24-1.47a1.45,1.45,0,0,0-1.11.25l-.24.17a1.6,1.6,0,0,0-.46.54l-6.25,12.32a1.47,1.47,0,0,0,.13,1.56l5.61,7.62a1.45,1.45,0,0,0,1,.59,1.55,1.55,0,0,0,.43,0l13.65-1.67a1.55,1.55,0,0,0,.68-.27l.24-.17a1.5,1.5,0,0,0,.35-2.08l-13-18.27A1.49,1.49,0,0,0,121.6,115.16Z"/><path class="cls-2" d="M110.33,138.71a.73.73,0,0,1-.48-.3.74.74,0,0,1-.06-.77l4.41-8.86a.76.76,0,0,1,.61-.41H115a.72.72,0,0,1,.48.29l5.61,7.63a.71.71,0,0,1,.08.73.73.73,0,0,1-.59.45l-10,1.24Z"/><path class="cls-2" d="M114.87,129.11l5.61,7.63-10,1.24,4.41-8.87m.25-1.47-.38,0a1.52,1.52,0,0,0-1.21.83l-4.41,8.86a1.5,1.5,0,0,0,1.09,2.14,2,2,0,0,0,.43,0l10-1.24a1.49,1.49,0,0,0,1-2.37l-5.61-7.62A1.47,1.47,0,0,0,115.12,127.64Z"/><path class="cls-6" d="M134.21,135.46a.73.73,0,0,1-.49-.3l-13-18.29a.77.77,0,0,1-.13-.55.8.8,0,0,1,.31-.49l77.5-55.18a.75.75,0,0,1,.56-.13.71.71,0,0,1,.48.3l13,18.29a.74.74,0,0,1-.17,1l-77.51,55.18A.75.75,0,0,1,134.21,135.46Z"/><path class="cls-2" d="M198.82,61.25l13,18.29-77.51,55.19-13-18.29,77.51-55.19m.24-1.47A1.5,1.5,0,0,0,198,60l-77.5,55.18a1.45,1.45,0,0,0-.61,1,1.49,1.49,0,0,0,.25,1.12l13,18.28a1.49,1.49,0,0,0,2.09.35l77.5-55.18a1.53,1.53,0,0,0,.61-1,1.51,1.51,0,0,0-.26-1.11L200,60.39A1.5,1.5,0,0,0,199.06,59.78Z"/><path class="cls-2" d="M104.31,139.73v0a22,22,0,0,1-1.37,5.74,10,10,0,0,1-2.19,3.46,4.9,4.9,0,0,1-3.49,1.43H97a3.87,3.87,0,0,1-2.34-1A10.83,10.83,0,0,1,91.9,145a15.43,15.43,0,0,1-1-5.15,5.4,5.4,0,0,1,.33-2,1.15,1.15,0,0,1,.27-.4l.19-.08h0v-.06l0,.05h0v-.06l0,.05v0l0,0h0v0l0,0a.53.53,0,0,1,.13.15,3.13,3.13,0,0,1,.31,1,9.47,9.47,0,0,1,.13,1.64,23.27,23.27,0,0,1-2.45,9.75,15.73,15.73,0,0,1-3.06,4.27,8.52,8.52,0,0,1-4.14,2.26,10.13,10.13,0,0,1-2.07.22,8.85,8.85,0,0,1-4.64-1.29,13.11,13.11,0,0,1-4.73-5.3,13.91,13.91,0,0,1-1.64-6,4.13,4.13,0,0,1,.34-1.86,1,1,0,0,1,.3-.37.55.55,0,0,1,.33-.13h0s.07,0,.24.17a4,4,0,0,1,.79,1.75,13.43,13.43,0,0,1,.35,3.2A17.64,17.64,0,0,1,70,154.66a10.73,10.73,0,0,1-6.27,5.55,10.53,10.53,0,0,0-5.24,3.29,6.46,6.46,0,0,0-1.37,4,8.13,8.13,0,0,0,1,3.76,1,1,0,0,0,1.74-1h0a6.49,6.49,0,0,1-.69-2.77,4.41,4.41,0,0,1,1-2.78,8.55,8.55,0,0,1,4.28-2.62,12.76,12.76,0,0,0,7.43-6.53,19.81,19.81,0,0,0,2.06-8.86,13.59,13.59,0,0,0-.73-4.71,4.74,4.74,0,0,0-1-1.62,2.36,2.36,0,0,0-1.69-.79l-.26,0a2.68,2.68,0,0,0-1.29.52,3.42,3.42,0,0,0-1.13,1.67,7.1,7.1,0,0,0-.3,2.16,14.3,14.3,0,0,0,.84,4.55,17.06,17.06,0,0,0,4.27,6.79,11.37,11.37,0,0,0,7.9,3.28,11.86,11.86,0,0,0,2.47-.26,10.57,10.57,0,0,0,5.12-2.77A19.53,19.53,0,0,0,92.74,148a24.36,24.36,0,0,0,1.49-7.89,8.56,8.56,0,0,0-.46-3.07,3,3,0,0,0-.73-1.14,2,2,0,0,0-1.35-.53H91.5a2.36,2.36,0,0,0-1.31.56,3.53,3.53,0,0,0-1,1.74,8.68,8.68,0,0,0-.27,2.23,17.7,17.7,0,0,0,2,7.78,10.87,10.87,0,0,0,2.44,3.2,5.88,5.88,0,0,0,3.56,1.51h.37a6.92,6.92,0,0,0,5-2.1,14.49,14.49,0,0,0,3.37-6.56,24.32,24.32,0,0,0,.69-3.84,1,1,0,0,0-2-.15Z"/><path class="cls-2" d="M35.93,150.2a6.79,6.79,0,0,0-.83-.51,4.36,4.36,0,0,0-2-.51,3,3,0,0,0-2,.71,4.78,4.78,0,0,0-1.4,2.3,1,1,0,1,0,1.91.6,2.77,2.77,0,0,1,.77-1.36,1,1,0,0,1,.69-.25,2.46,2.46,0,0,1,1.06.3,3.57,3.57,0,0,1,.38.22l.1.06v0h0l.32-.42-.33.42h0l.32-.42-.33.42a1,1,0,0,0,1.24-1.58Z"/><path class="cls-2" d="M41.62,152.76h0a4.7,4.7,0,0,1-.41,1.61,4.45,4.45,0,0,1-2.46,2.34,3.31,3.31,0,0,1-1.26.24,5.13,5.13,0,0,1-2-.48c-.27-.13-.49-.25-.64-.34l-.16-.11,0,0h0l-.24.34.24-.33h0l-.24.34.24-.33a1,1,0,1,0-1.19,1.6,6.56,6.56,0,0,0,1.19.68,6.81,6.81,0,0,0,2.86.67,5.36,5.36,0,0,0,2-.39,6.45,6.45,0,0,0,3.58-3.49,6.53,6.53,0,0,0,.53-2.28,1,1,0,0,0-2,0Z"/><path class="cls-2" d="M43.85,147.31a4.79,4.79,0,0,0-.83-.51,4.36,4.36,0,0,0-2-.51,3,3,0,0,0-2,.71,4.65,4.65,0,0,0-1.39,2.3,1,1,0,0,0,.65,1.25,1,1,0,0,0,1.26-.66,2.78,2.78,0,0,1,.76-1.36,1,1,0,0,1,.69-.24,2.41,2.41,0,0,1,1.06.29,3.57,3.57,0,0,1,.38.22l.1.07h0l.33-.43-.33.42h0l.33-.43-.33.42a1,1,0,1,0,1.23-1.57Z"/><path class="cls-2" d="M41.88,166.06a14,14,0,0,0,6.71-5.5,15.09,15.09,0,0,0,2.67-8.14,9.45,9.45,0,0,0-.74-3.76,16.34,16.34,0,0,0-4.84-6.27,12.9,12.9,0,0,0-8-2.89,13.52,13.52,0,0,0-5.35,1.15l.4.92-.35-.94a13.42,13.42,0,0,0-6.52,4.72,11.23,11.23,0,0,0-2,6.57,15.77,15.77,0,0,0,1.37,6.23,10.26,10.26,0,0,0,4.63,5,13.77,13.77,0,0,0,6.49,1.54,15.42,15.42,0,0,0,6.05-1.22,1,1,0,0,0-.79-1.84,13.39,13.39,0,0,1-5.26,1.06,11.84,11.84,0,0,1-5.54-1.3,8.35,8.35,0,0,1-3.75-4,13.93,13.93,0,0,1-1.2-5.44,9.21,9.21,0,0,1,1.64-5.41,11.47,11.47,0,0,1,5.58-4h0a11.33,11.33,0,0,1,4.56-1A11,11,0,0,1,44.45,144a14.36,14.36,0,0,1,4.23,5.49,7.39,7.39,0,0,1,.58,3,13.09,13.09,0,0,1-2.33,7,12.09,12.09,0,0,1-5.72,4.73,1,1,0,0,0-.61,1.28,1,1,0,0,0,1.28.6Z"/></svg>