<svg id="materials" xmlns="http://www.w3.org/2000/svg" viewBox="0 0 240 240"><defs><style>.cls-1{fill:#8ccae5;}.cls-2{fill:#474747;}.cls-3{fill:#eaeae4;}.cls-4{fill:#a5a5a5;}.cls-5{fill:#aee5bd;}.cls-6{fill:#efefed;}.cls-7{fill:#ff0;}</style></defs><title>resume</title><path class="cls-1" d="M145.36,54.49a10.48,10.48,0,0,1,10.45,10.45v81.42a10.48,10.48,0,0,1-10.45,10.45h-121a10.48,10.48,0,0,1-10.45-10.45V64.94A10.48,10.48,0,0,1,24.31,54.49H96.39l4.94-11.86H136l4.95,11.86Z"/><path class="cls-2" d="M145.36,54.49v1.65a8.83,8.83,0,0,1,8.8,8.8v81.42a8.84,8.84,0,0,1-8.8,8.8h-121a8.84,8.84,0,0,1-8.8-8.8V64.94a8.83,8.83,0,0,1,8.8-8.8H97.49l4.94-11.86h32.44l4.95,11.86h5.54v-3.3H142l-5-11.87H100.23l-5,11.87h-71a12.12,12.12,0,0,0-12.1,12.1v81.42a12.12,12.12,0,0,0,12.1,12.1H145.36a12.12,12.12,0,0,0,12.1-12.1V64.94a12.12,12.12,0,0,0-12.1-12.1Z"/><path class="cls-3" d="M155.81,146.36a10.48,10.48,0,0,1-10.45,10.45h-121a10.48,10.48,0,0,1-10.45-10.45V79.22H80.13l5-11.86h70.73Z"/><path class="cls-3" d="M155.81,146.36a10.48,10.48,0,0,1-10.45,10.45h-121a10.48,10.48,0,0,1-10.45-10.45V96.43h72.7l5-11.86h64.3Z"/><path class="cls-2" d="M145.36,54.49v1.1a9.39,9.39,0,0,1,9.35,9.35v81.42a9.39,9.39,0,0,1-9.35,9.35h-121A9.39,9.39,0,0,1,15,146.36V64.94a9.39,9.39,0,0,1,9.35-9.35H97.12l4.95-11.86h33.17l4.94,11.86h5.18v-2.2h-3.71l-5-11.87H100.6L95.65,53.39H24.31A11.57,11.57,0,0,0,12.76,64.94v81.42a11.57,11.57,0,0,0,11.55,11.55H145.36a11.57,11.57,0,0,0,11.55-11.55V64.94a11.57,11.57,0,0,0-11.55-11.55Z"/><path class="cls-2" d="M13.86,80.32h67l5-11.86h70a1.1,1.1,0,0,0,0-2.2H84.34L79.4,78.12H13.86a1.1,1.1,0,0,0,0,2.2Z"/><path class="cls-2" d="M13.86,97.53H87.3l5-11.86h63.56a1.11,1.11,0,0,0,0-2.21h-65l-5,11.87h-72a1.1,1.1,0,0,0,0,2.2Z"/><rect class="cls-4" x="44.32" y="62.44" width="26.64" height="6.97"/><path class="cls-4" d="M31.11,65.93a3.81,3.81,0,1,1-3.81-3.81A3.82,3.82,0,0,1,31.11,65.93Z"/><path class="cls-4" d="M41.28,65.93a3.81,3.81,0,1,1-3.81-3.81A3.82,3.82,0,0,1,41.28,65.93Z"/><path class="cls-5" d="M215.67,83.07A11.32,11.32,0,0,1,227,94.36v88a11.32,11.32,0,0,1-11.28,11.29H84.92a11.32,11.32,0,0,1-11.29-11.29V94.36A11.32,11.32,0,0,1,84.92,83.07h77.85l5.34-12.81h37.42l5.34,12.81Z"/><path class="cls-2" d="M215.67,83.07v1.65a9.68,9.68,0,0,1,9.63,9.64v88a9.66,9.66,0,0,1-9.63,9.63H84.92a9.66,9.66,0,0,1-9.64-9.63V94.36a9.68,9.68,0,0,1,9.64-9.64h79l5.34-12.81h35.22l5.34,12.81h5.9v-3.3H212l-5.34-12.81H167l-5.34,12.81H84.92A13,13,0,0,0,72,94.36v88a13,13,0,0,0,12.94,12.94H215.67a13,13,0,0,0,12.93-12.94V94.36a13,13,0,0,0-12.93-12.94Z"/><path class="cls-6" d="M227,182.31a11.32,11.32,0,0,1-11.28,11.29H84.92a11.32,11.32,0,0,1-11.29-11.29V109.79h71.58L150.56,97H227Z"/><path class="cls-6" d="M227,182.31a11.32,11.32,0,0,1-11.28,11.29H84.92a11.32,11.32,0,0,1-11.29-11.29V128.37h78.53l5.35-12.81H227Z"/><path class="cls-2" d="M215.67,83.07v1.65a9.68,9.68,0,0,1,9.63,9.64v88a9.66,9.66,0,0,1-9.63,9.63H84.92a9.66,9.66,0,0,1-9.64-9.63V94.36a9.68,9.68,0,0,1,9.64-9.64h79l5.34-12.81h35.22l5.34,12.81h5.9v-3.3H212l-5.34-12.81H167l-5.34,12.81H84.92A13,13,0,0,0,72,94.36v88a13,13,0,0,0,12.94,12.94H215.67a13,13,0,0,0,12.93-12.94V94.36a13,13,0,0,0-12.93-12.94Z"/><path class="cls-2" d="M73.63,110.89h72.31l5.35-12.81H227a1.1,1.1,0,1,0,0-2.2H149.82l-5.34,12.81H73.63a1.1,1.1,0,0,0,0,2.2Z"/><path class="cls-2" d="M73.63,129.47H152.9l5.34-12.81H227a1.1,1.1,0,1,0,0-2.2H156.77l-5.34,12.81H73.63a1.1,1.1,0,0,0,0,2.2Z"/><rect class="cls-4" x="106.53" y="90.5" width="28.77" height="7.53"/><path class="cls-4" d="M92.26,94.26a4.12,4.12,0,1,1-4.12-4.11A4.11,4.11,0,0,1,92.26,94.26Z"/><path class="cls-4" d="M103.25,94.26a4.12,4.12,0,1,1-4.12-4.11A4.12,4.12,0,0,1,103.25,94.26Z"/><path class="cls-7" d="M71.4,75.94h0A20.93,20.93,0,0,0,81.92,64.42L82.44,63h.18l.52,1.38A20.93,20.93,0,0,0,93.66,75.94v.2A20.93,20.93,0,0,0,83.14,87.66L82.62,89h-.18l-.52-1.38A20.93,20.93,0,0,0,71.4,76.14"/><path class="cls-2" d="M72.12,77.42A22.55,22.55,0,0,0,83.47,65L84,63.62,82.44,63v1.65h.18V63l-1.54.58L81.59,65A22.55,22.55,0,0,0,92.94,77.42l.72-1.48H92v.2h1.66l-.72-1.48A22.56,22.56,0,0,0,81.59,87.08l-.51,1.38,1.54.58V87.39h-.18V89L84,88.46l-.51-1.38A22.56,22.56,0,0,0,72.12,74.66a1.65,1.65,0,1,0-1.43,3,19.3,19.3,0,0,1,9.68,10.61l.92,2.45h2.48l.91-2.45a19.35,19.35,0,0,1,9.69-10.61l.94-.45V74.9l-.94-.45a19.35,19.35,0,0,1-9.69-10.61l-.91-2.45H81.29l-.92,2.45a19.3,19.3,0,0,1-9.68,10.61,1.65,1.65,0,1,0,1.43,3Z"/><path class="cls-7" d="M4.52,123.31h0a26.34,26.34,0,0,0,13.23-14.49l.64-1.73h.24l.65,1.73A26.29,26.29,0,0,0,32.5,123.31v.26a26.27,26.27,0,0,0-13.22,14.48l-.65,1.73h-.24l-.64-1.73A26.32,26.32,0,0,0,4.52,123.57"/><path class="cls-2" d="M5.24,124.79A27.92,27.92,0,0,0,19.29,109.4l.65-1.73-1.55-.58v1.66h.24v-1.66l-1.55.58.65,1.73a27.92,27.92,0,0,0,14.05,15.39l.72-1.48H30.85v.26H32.5l-.72-1.49a28,28,0,0,0-14,15.39l-.65,1.73,1.55.58v-1.65h-.24v1.65l1.55-.58-.65-1.73a28,28,0,0,0-14-15.39,1.65,1.65,0,0,0-1.43,3A24.66,24.66,0,0,1,16.2,138.63l1.05,2.8h2.52l1.05-2.8a24.64,24.64,0,0,1,12.4-13.57l.93-.45v-2.34l-.93-.45a24.67,24.67,0,0,1-12.4-13.57l-1.05-2.81H17.25l-1.05,2.8A24.68,24.68,0,0,1,3.81,121.82a1.65,1.65,0,0,0,1.43,3Z"/><path class="cls-7" d="M213.22,57.07h0a20.93,20.93,0,0,0,10.52-11.52l.52-1.38h.18l.52,1.38a20.93,20.93,0,0,0,10.52,11.52v.21A20.9,20.9,0,0,0,225,68.8l-.52,1.37h-.18l-.52-1.37a20.9,20.9,0,0,0-10.52-11.52"/><path class="cls-2" d="M213.94,58.56a22.61,22.61,0,0,0,11.35-12.43l.51-1.38-1.54-.58v1.65h.18V44.17l-1.54.58.51,1.38a22.61,22.61,0,0,0,11.35,12.43l.72-1.49h-1.65v.21h1.65l-.72-1.49a22.58,22.58,0,0,0-11.35,12.43l-.51,1.37,1.54.58V68.52h-.18v1.65l1.54-.58-.51-1.37a22.58,22.58,0,0,0-11.35-12.43,1.65,1.65,0,1,0-1.43,3,19.3,19.3,0,0,1,9.68,10.61l.92,2.45h2.48l.91-2.45a19.35,19.35,0,0,1,9.69-10.61l.94-.45V56l-.94-.45A19.35,19.35,0,0,1,226.5,45l-.91-2.45h-2.48L222.19,45a19.3,19.3,0,0,1-9.68,10.61,1.65,1.65,0,1,0,1.43,3Z"/><path class="cls-7" d="M174.56,160.22h0a36.39,36.39,0,0,0,18.28-20l.89-2.39h.33l.89,2.39a36.37,36.37,0,0,0,18.27,20v.36a36.37,36.37,0,0,0-18.27,20l-.89,2.39h-.33l-.89-2.39a36.39,36.39,0,0,0-18.28-20"/><path class="cls-2" d="M175.28,161.71a38,38,0,0,0,19.1-20.92l.9-2.39-1.55-.58v1.65h.33v-1.65l-1.55.58.89,2.39a38,38,0,0,0,19.11,20.92l.71-1.49h-1.65v.36h1.65l-.71-1.49A38,38,0,0,0,193.4,180l-.89,2.4,1.55.57v-1.65h-.33V183l1.55-.57-.9-2.4a38,38,0,0,0-19.1-20.92,1.65,1.65,0,0,0-1.43,3,34.66,34.66,0,0,1,17.44,19.1l1.29,3.47h2.62l1.3-3.47a34.66,34.66,0,0,1,17.44-19.1l.93-.45v-2.44l-.93-.45a34.66,34.66,0,0,1-17.44-19.1l-1.3-3.46h-2.62l-1.29,3.46a34.66,34.66,0,0,1-17.44,19.1,1.65,1.65,0,0,0,1.43,3Z"/><path class="cls-7" d="M32.16,184.27h0a20.93,20.93,0,0,0,10.52-11.52l.51-1.38h.19l.51,1.38a20.93,20.93,0,0,0,10.52,11.52v.21A20.93,20.93,0,0,0,43.89,196l-.51,1.37h-.19L42.68,196a20.93,20.93,0,0,0-10.52-11.52"/><path class="cls-2" d="M55.13,182.78a19.25,19.25,0,0,1-9.69-10.61l-.92-2.45H42.05l-.92,2.45a19.25,19.25,0,0,1-9.69,10.61,1.83,1.83,0,0,0,0,3.19,19.22,19.22,0,0,1,9.69,10.61l.92,2.45h2.47l.92-2.45A19.22,19.22,0,0,1,55.13,186l.93-.45v-2.29Zm-11.84,10.5a22.58,22.58,0,0,0-8-8.91,22.49,22.49,0,0,0,8-8.9,22.46,22.46,0,0,0,8,8.9A22.48,22.48,0,0,0,43.29,193.28Z"/></svg>