<svg id="materials" xmlns="http://www.w3.org/2000/svg" viewBox="0 0 240 240"><defs><style>.cls-1{fill:#bf3e3e;}.cls-2{fill:#515556;}.cls-3{fill:#ef4d4d;}.cls-4{fill:#f27171;}.cls-5{fill:#ef8b8b;}</style></defs><title>ruby</title><path class="cls-1" d="M119.87,204.88a2.63,2.63,0,0,1-1.83-.76L22.85,98.81a2.59,2.59,0,0,1-.3-3.08L58.36,36.38a2.58,2.58,0,0,1,2.22-1.25H179.21a2.6,2.6,0,0,1,2.22,1.24l36,59.35a2.59,2.59,0,0,1-.29,3.09L121.8,204a2.56,2.56,0,0,1-1.86.85Z"/><path class="cls-2" d="M179.21,37.72l36,59.35L119.87,202.28h0L24.78,97.07l35.8-59.35H179.21m0-5.19H60.58A5.18,5.18,0,0,0,56.14,35L20.33,94.39a5.19,5.19,0,0,0,.6,6.16L116,205.71a5.17,5.17,0,0,0,3,1.69,6.23,6.23,0,0,0,.86.07,5.18,5.18,0,0,0,3.87-1.73l95.33-105.19a5.18,5.18,0,0,0,.59-6.17L183.65,35A5.19,5.19,0,0,0,179.21,32.53Z"/><polygon class="cls-3" points="60.58 37.72 179.21 37.72 119.87 202.28 60.58 37.72"/><polygon class="cls-4" points="60.58 37.72 24.77 97.07 84.34 97.07 60.58 37.72"/><polygon class="cls-4" points="179.21 37.72 155.66 97.07 215.22 97.07 179.21 37.72"/><polygon class="cls-5" points="120.03 37.72 84.34 97.07 155.76 97.07 120.03 37.72"/><polygon class="cls-1" points="24.77 97.07 119.88 202.28 84.34 97.07 24.77 97.07"/><polygon class="cls-1" points="215.22 97.07 119.87 202.28 155.4 97.07 215.22 97.07"/></svg>