<svg id="materials" xmlns="http://www.w3.org/2000/svg" viewBox="0 0 240 240"><defs><style>.cls-1{fill:#3fb34f;}.cls-2{fill:#515556;}.cls-3{fill:#aadd2d;}.cls-4{fill:#efefef;}.cls-5{fill:#eac359;}</style></defs><title>salary</title><path class="cls-1" d="M68.44,22.77h75.37a3.6,3.6,0,0,1,3.6,3.6V173.59a3.59,3.59,0,0,1-3.59,3.59H68.44a3.59,3.59,0,0,1-3.59-3.59V26.37A3.6,3.6,0,0,1,68.44,22.77Z"/><path class="cls-2" d="M68.44,177.19v1.86h75.37a5.47,5.47,0,0,0,5.46-5.46V26.37a5.45,5.45,0,0,0-5.46-5.45H68.44A5.46,5.46,0,0,0,63,26.37V173.59a5.48,5.48,0,0,0,5.46,5.46v-3.72a1.74,1.74,0,0,1-1.74-1.74V26.37a1.74,1.74,0,0,1,1.74-1.74h75.37a1.74,1.74,0,0,1,1.74,1.74V173.59a1.74,1.74,0,0,1-1.74,1.74H68.44Z"/><path class="cls-3" d="M77.26,151.13a12.75,12.75,0,0,1,12.66,12.66h32.16A12.85,12.85,0,0,1,135,151.13v-102h-.12A12.74,12.74,0,0,1,122.08,36.3v-.13H89.92v.13A12.74,12.74,0,0,1,77.26,49.09Z"/><path class="cls-2" d="M77.26,151.13v.93A11.81,11.81,0,0,1,89,163.8v.92h34v-.92a11.91,11.91,0,0,1,12-11.74h.93V48.16h-1A11.8,11.8,0,0,1,123,36.3V35.24H89V36.3A11.82,11.82,0,0,1,77.25,48.16h-.92V152.05h.92v-.93h.93v-102h-.93V50A13.68,13.68,0,0,0,90.85,36.3v-.13h-.93v.93h32.16v-.93h-.93v.13A13.66,13.66,0,0,0,134.87,50H135v-.93h-.92v102H135v-.93a13.78,13.78,0,0,0-13.84,13.58h.93v-.93H89.92v.93h.93A13.68,13.68,0,0,0,77.27,150.2v.93h0Z"/><path class="cls-2" d="M77.26,151.13v.93A11.82,11.82,0,0,1,89,163.8v.92h34v-.92a11.92,11.92,0,0,1,12-11.74h.93V48.16h-1A11.8,11.8,0,0,1,123,36.3V35.24H89V36.3A11.82,11.82,0,0,1,77.25,48.16h-.92V152.05h.92v-.93h.93v-102h-.93V50A13.68,13.68,0,0,0,90.85,36.3v-.13h-.93v.93h32.16v-.93h-.93v.13A13.66,13.66,0,0,0,134.87,50H135v-.93h-.92v102H135v-.93a13.78,13.78,0,0,0-13.84,13.58h.93v-.93H89.92v.93h.93A13.68,13.68,0,0,0,77.27,150.2v.93h0Z"/><path class="cls-1" d="M85.23,100a20.9,20.9,0,1,1,20.9,20.9A20.9,20.9,0,0,1,85.23,100Z"/><path class="cls-2" d="M85.23,100h.93A20,20,0,1,1,92,114.1,19.88,19.88,0,0,1,86.16,100H84.3a21.83,21.83,0,1,0,21.83-21.83A21.83,21.83,0,0,0,84.3,100Z"/><path class="cls-4" d="M93.56,110.4l1.11-.62,9.69-5.56v4.62h3.72v-6.7h1.45v6.7h3.71v-6.7h5.45V97.75h-5.45V91.12h-3.71v6.63h-1.45V91.12h-3.72v4.59l-9.71-5.53-1.09-.62V94.7l.38.21L101.52,99c1,.54,1.35.71,1.93,1-.31.15-.59.25-.9.43l-8.61,4.83-.38.21v4.93Z"/><path class="cls-2" d="M93.56,110.4l.46.81,1.1-.62,8.31-4.77v4H109v-6.7h.52v-.93h-.93v7.63h5.56v-6.7h5.46V96.82h-5.46V90.19H108.6v6.63h-.52v.93H109V90.19h-5.58v3.92l-8.32-4.74L94,88.75,92.63,88v7.29l.87.47h0l7.57,4.1h0c1,.55,1.39.72,2,1l.43-.83-.42-.83c-.23.12-.54.22-.94.45h0l-8.6,4.83.45.81-.44-.82-.38.21-.49.26v5.49h0v.93h1.18l.21-.12-.46-.81v-.93h0v.93h.93v-4.93h-.93l.45.81.37-.2,8.63-4.84h0c.22-.13.48-.21.85-.39l1.66-.82-1.65-.84c-.6-.31-.93-.46-1.91-1h0L94.29,94,94,93.88l-.45.82h.93V89.56h-.93l-.46.81,1.09.62,11.1,6.32V91.12h-.93v.93h3.72v-.93h-.93v7.56h3.31V91.12h-.93v.93h3.71v-.93h-.93v7.56h6.38v-.93h-.93v4.39h.93v-.93h-6.38v7.63h.93v-.93h-3.71v.93h.93v-7.63h-3.31v7.63h.93v-.93h-3.72v.93h.93v-6.23L94.2,109h0l-1.1.62.45.81v0Z"/><path class="cls-1" d="M77.52,168.1H152.9a3.59,3.59,0,0,0,3.59-3.59V17.29a3.6,3.6,0,0,0-3.59-3.6H77.52a3.6,3.6,0,0,0-3.59,3.6V164.51A3.59,3.59,0,0,0,77.52,168.1Z"/><path class="cls-2" d="M77.52,168.1V170H152.9a5.45,5.45,0,0,0,5.45-5.45V17.29a5.45,5.45,0,0,0-5.45-5.46H77.52a5.45,5.45,0,0,0-5.45,5.46V164.51h0A5.45,5.45,0,0,0,77.52,170v-3.72a1.74,1.74,0,0,1-1.74-1.73V17.29a1.75,1.75,0,0,1,1.74-1.74H152.9a1.74,1.74,0,0,1,1.73,1.74V164.51a1.73,1.73,0,0,1-1.73,1.73H77.52Z"/><path class="cls-3" d="M86.34,142.05A12.74,12.74,0,0,1,99,154.7h32.16a12.85,12.85,0,0,1,12.92-12.65V40H144a12.74,12.74,0,0,1-12.79-12.79v-.13H99v.13A12.75,12.75,0,0,1,86.34,40Z"/><path class="cls-2" d="M86.34,142.05V143a11.8,11.8,0,0,1,11.74,11.73v.92h34v-.92a11.91,11.91,0,0,1,12-11.73H145V39.08H144a11.81,11.81,0,0,1-11.86-11.86V26.16h-34v1.06A11.81,11.81,0,0,1,86.33,39.08h-.92V143h.92v-.93h.93V40h-.93v.93A13.69,13.69,0,0,0,99.93,27.22v-.13H99V28h32.16v-.93h-.93v.13A13.67,13.67,0,0,0,144,40.94h.13V40h-.93v102h.93v-.93a13.78,13.78,0,0,0-13.85,13.57h.93v-.93H99v.93h.93a13.67,13.67,0,0,0-13.58-13.57v.93h0Z"/><path class="cls-2" d="M86.34,142.05V143a11.8,11.8,0,0,1,11.74,11.73v.93h34v-.93a11.91,11.91,0,0,1,12-11.73H145V39.08H144a11.81,11.81,0,0,1-11.86-11.86V26.16h-34v1.06A11.81,11.81,0,0,1,86.33,39.08h-.92V143h.92v-.93h.93V40h-.93v.93A13.69,13.69,0,0,0,99.93,27.22v-.13H99V28h32.16v-.93h-.93v.13A13.67,13.67,0,0,0,144,40.94h.13V40h-.93v102h.93v-.93a13.79,13.79,0,0,0-13.85,13.58h.93v-.93H99v.93h.93a13.67,13.67,0,0,0-13.58-13.58v.93h0Z"/><path class="cls-1" d="M94.31,90.9a20.9,20.9,0,1,1,20.9,20.9A20.9,20.9,0,0,1,94.31,90.9Z"/><path class="cls-2" d="M94.31,90.9h.93A20,20,0,1,1,101.09,105,19.86,19.86,0,0,1,95.24,90.9H93.38a21.83,21.83,0,1,0,21.83-21.83A21.82,21.82,0,0,0,93.38,90.9Z"/><path class="cls-4" d="M102.65,101.32l1.1-.62,9.7-5.57v4.63h3.72v-6.7h1.44v6.7h3.71v-6.7h5.45V88.67h-5.45V82h-3.71v6.63h-1.44V82h-3.72v4.59l-9.71-5.53-1.09-.62v5.14l.37.2,7.58,4.1c1,.54,1.35.71,1.93,1-.3.15-.58.25-.9.42L103,96.18l-.37.2v4.94Z"/><path class="cls-2" d="M102.65,101.32l.45.81,1.1-.62,8.32-4.77v4h5.57V94h.52v-.93h-.93v7.63h5.57V94h5.45V87.74h-5.45V81.11h-5.57v6.63h-.51v.93h.92V81.11h-5.57V85l-8.32-4.74-1.09-.62-1.39-.79v7.29l.86.47.2.11,7.38,4h0c1,.54,1.38.72,2,1l.42-.83-.41-.83c-.24.12-.55.22-1,.45l-8.6,4.83.45.81-.44-.82-.38.21-.48.26v5.49h0v1.59l1.38-.78-.45-.81h.93V96.38h-.93l.44.82.38-.21h0l8.61-4.84h0c.23-.13.48-.22.85-.4l1.66-.82L113,90.09c-.59-.3-.93-.45-1.91-1h0l-7.78-4.2-.17-.1-.44.82h.93V80.48h-.93l-.46.8,1.08.62,11.1,6.33V82h-.92V83h3.72V82h-.93V89.6h3.3V82h-.93V83h3.71V82h-.93V89.6h6.38v-.93h-.93v4.39h.93v-.93h-6.38v7.63h.93v-.93h-3.71v.93h.93V92.13h-3.3v7.63h.93v-.93h-3.72v.93h.92V93.53l-11.08,6.36-1.1.62.46.81h0Z"/><path class="cls-1" d="M86.6,159H162a3.59,3.59,0,0,0,3.59-3.59V8.2A3.59,3.59,0,0,0,162,4.61H86.6A3.59,3.59,0,0,0,83,8.2V155.43A3.59,3.59,0,0,0,86.6,159Z"/><path class="cls-2" d="M86.6,159v1.86H162a5.45,5.45,0,0,0,5.45-5.45V8.2A5.45,5.45,0,0,0,162,2.75H86.6A5.45,5.45,0,0,0,81.15,8.2V155.43h0a5.45,5.45,0,0,0,5.45,5.45v-3.72a1.74,1.74,0,0,1-1.73-1.74V8.2A1.74,1.74,0,0,1,86.6,6.47H162a1.75,1.75,0,0,1,1.74,1.73V155.43a1.75,1.75,0,0,1-1.74,1.73H86.6Z"/><path class="cls-3" d="M95.42,133a12.75,12.75,0,0,1,12.66,12.66h32.16A12.85,12.85,0,0,1,153.16,133v-102H153a12.74,12.74,0,0,1-12.79-12.78V18H108.08v.13A12.74,12.74,0,0,1,95.42,30.92Z"/><path class="cls-2" d="M95.42,133v.93a11.81,11.81,0,0,1,11.74,11.74v.92h34v-.92a11.93,11.93,0,0,1,12-11.74h.93V30H153a11.8,11.8,0,0,1-11.86-11.85V17.08h-34v1.06A11.79,11.79,0,0,1,95.41,30h-.92V133.88h.92V133h.93v-102h-.93v.93A13.67,13.67,0,0,0,109,18.14V18h-.93v.93h32.16V18h-.93v.13A13.67,13.67,0,0,0,153,31.85h.13v-.93h-.93V133h.93V132a13.79,13.79,0,0,0-13.85,13.58h.93v-.93H108.08v.93H109A13.67,13.67,0,0,0,95.43,132V133h0Z"/><path class="cls-2" d="M95.42,133v.93a11.81,11.81,0,0,1,11.74,11.74v.92h34v-.92a11.93,11.93,0,0,1,12-11.74h.93V30H153a11.82,11.82,0,0,1-11.86-11.86V17.08h-34v1.06A11.81,11.81,0,0,1,95.41,30h-.92V133.88h.92V133h.93v-102h-.93v.92A13.67,13.67,0,0,0,109,18.14V18h-.93v.93h32.16V18h-.93v.13A13.67,13.67,0,0,0,153,31.85h.13v-.92h-.93V133h.93V132a13.77,13.77,0,0,0-13.85,13.57h.93v-.93H108.08v.93H109A13.67,13.67,0,0,0,95.43,132V133h0Z"/><path class="cls-1" d="M103.39,81.81a20.9,20.9,0,1,1,20.9,20.9A20.89,20.89,0,0,1,103.39,81.81Z"/><path class="cls-2" d="M103.39,81.81h.93a20,20,0,1,1,5.85,14.12,19.94,19.94,0,0,1-5.85-14.12h-1.85A21.83,21.83,0,1,0,124.29,60a21.82,21.82,0,0,0-21.82,21.82Z"/><path class="cls-4" d="M111.73,92.24l1.1-.62,9.7-5.57v4.63h3.72V84h1.44v6.71h3.71V84h5.45V79.59H131.4V73h-3.71v6.64h-1.44V73h-3.72v4.6L112.82,72l-1.09-.62v5.15l.38.2,7.57,4.1c1,.54,1.35.7,1.93,1-.3.15-.58.24-.9.42l-8.6,4.84-.38.2v4.94Z"/><path class="cls-2" d="M111.73,92.24l.45.81,1.11-.62,8.31-4.77v4h5.58V84.9h.51V84h-.93v7.64h5.57V84.9h5.45V78.66h-5.45V72h-5.57v6.63h-.51v.93h.93V72H121.6V76l-8.32-4.74-1.09-.62-1.39-.79v7.29l.86.47h0l7.57,4.1h0c1,.54,1.38.72,2,1l.42-.83L121.2,81c-.23.12-.54.23-.94.45h0l-8.61,4.83.46.82-.45-.82-.37.2-.49.27v5.49h0v1.58l1.38-.77-.45-.81h.93V87.3h-.93l.44.82.38-.21,8.62-4.84h0c.23-.13.48-.22.85-.4l1.67-.82L122,81c-.59-.3-.92-.45-1.91-1h0l-7.57-4.1-.38-.2-.44.82h.93V71.39h-.93l-.46.81,1.09.62,11.1,6.33V73h-.93v.93h3.72V73h-.93v7.57h3.3V73h-.93v.93h3.71V73h-.93v7.57h6.38v-.93h-.93V84h.93V83h-6.38v7.64h.93v-.93h-3.71v.93h.93V83h-3.3v7.64h.93v-.93h-3.72v.93h.93V84.45l-11.09,6.36-1.1.62.46.81h0Z"/><rect class="cls-5" x="43.29" y="57.19" width="153.42" height="178.2" rx="1.86" ry="1.86"/><path class="cls-2" d="M194.85,59.05V233.53H45.15V59.05h149.7m0-3.72H45.15a3.73,3.73,0,0,0-3.72,3.72V233.53a3.72,3.72,0,0,0,3.72,3.72h149.7a3.71,3.71,0,0,0,3.72-3.72V59.05A3.72,3.72,0,0,0,194.85,55.33Z"/><path class="cls-5" d="M45.15,60.91A1.88,1.88,0,0,1,43.54,60a1.85,1.85,0,0,1,0-1.85L55.64,36.62a1.87,1.87,0,0,1,1.62-.94H182.74a1.87,1.87,0,0,1,1.62.94l12.11,21.52a1.85,1.85,0,0,1,0,1.85,1.88,1.88,0,0,1-1.61.92Z"/><path class="cls-2" d="M182.74,37.54l12.11,21.51H45.15L57.26,37.54H182.74m0-3.72H57.26A3.72,3.72,0,0,0,54,35.71L41.91,57.23a3.72,3.72,0,0,0,3.24,5.54h149.7a3.72,3.72,0,0,0,3.24-5.54L186,35.71A3.72,3.72,0,0,0,182.74,33.82Z"/><path class="cls-2" d="M140.27,100.32c-5.46-3-9.57-12-10.29-15.59a41.28,41.28,0,0,1-13.59,16c.77.62,2.37,1.86,2.37,3.92a2.87,2.87,0,0,1-2.93,2.93c-1.45,0-2-1-2.32-2.37s-.36-1.49-.51-2.11l-2.37.77c.05,12.2,0,12.71.1,16.26,0,.67.16,3.66.16,4.27a2.73,2.73,0,0,1-.36,1.5,3.87,3.87,0,0,1-2.83,1.18c-1.85,0-1.85-.77-1.85-5.45,0-2.58.2-13.9.1-16.16-3.3,1-4.32,1.34-5.82,1.75a3.06,3.06,0,0,1-.41.87.5.5,0,0,1-.52.26c-.35,0-.51-.51-.61-.87l-2-5.61a10,10,0,0,0,3,.36c.82,0,4.43-.11,5.14-.11,3.56-5.86,6-12.4,6.59-16l6.13,3.3c.35.2.61.41.61.77s-.36.56-.56.67-1.34.36-1.55.41c-2.93,3.55-5.61,6.48-9.62,10.8,2.78-.05,4.42-.15,6.12-.3A11.74,11.74,0,0,0,110.94,99l.31-.41a18,18,0,0,1,4.63,1.75c3.34-4.37,8.85-15.12,8.8-20.68L131.57,82c.26.11.72.26.72.67,0,.67-.77,1-1.39,1.14A26.63,26.63,0,0,0,145,95.07v.47C141.86,97.18,141.45,97.75,140.27,100.32Zm-35.92,11.73c-1.44,4.22-3.6,8.85-7,12l-.31-.15a47,47,0,0,0,2.42-15.18l5.2,1.39c.41.1.88.26.88.77C105.54,111.59,104.71,112,104.35,112.05Zm6.18-27.73A89.73,89.73,0,0,1,104.4,91c2.57,1.75,2.57,3.5,2.57,4a2.86,2.86,0,0,1-2.87,2.83c-1.65,0-2-.87-3.09-3.55a16.55,16.55,0,0,0-3.81-5l.26-.46a20.78,20.78,0,0,1,5.5,1.39,32.42,32.42,0,0,0,2.37-10.14l6.33,2.52c.31.1.67.31.67.72C112.33,84,111,84.27,110.53,84.32Zm5.3,34.58c-2,0-2.21-1.49-2.52-3.45-.62-4.17-1.34-5.3-1.91-6.12l.36-.47c4.84,2.68,6.95,4.22,6.95,6.9A3,3,0,0,1,115.83,118.9Zm23.61-8.18c0,1.28,0,2.72.05,4.94,0,1.23.36,7.66.36,7.77,0,3-3.08,3-3.39,3-2.11,0-2.16-1.6-2.11-3.19h-9.52c0,1.13.21,3.4-3.29,3.4-1.7,0-1.7-1.24-1.7-2,0-.57.1-3.19.1-3.76,0-2.05,0-4,0-5.45a83,83,0,0,0-.46-9.93l5.61,2.52h8.49l1.6-2.11c.3-.41.66-.87,1.13-.87a2.09,2.09,0,0,1,1,.61l3.09,2.58c.16.15.62.51.62.87C141,109.84,140,110.46,139.44,110.72Zm-3.14-9.93h-9.62a29.47,29.47,0,0,0-5.55.36l-.83-1.91c3.09.31,6.74.31,7.31.31h2.21l1.91-2.78c.15-.25.46-.67.77-.67a1.64,1.64,0,0,1,1,.57l3.08,2.78c.31.26.52.46.52.77C137.08,100.73,136.67,100.79,136.3,100.79Zm-2,8.49h-9.52V122h9.52Z"/><path class="cls-2" d="M142.27,163.68h-12a49.54,49.54,0,0,1-2.41,10.75c-1.24,3.19-3.76,6.59-11.27,6.64-.11-4.27-3.29-6.33-5.46-7.72l.06-.41a36.22,36.22,0,0,0,8,1.34c2.22,0,4.12-.36,5.56-10.6H103a25.62,25.62,0,0,0-5.55.36l-.88-1.91c3.14.26,6.79.31,7.36.31h21a68.35,68.35,0,0,0,.57-8.8H111.35c-.36,1.65-.67,3.14-3.6,3.14-.52,0-2.73,0-2.73-1.59a8.92,8.92,0,0,1,.57-2.42c1.49-5.61,3.55-13.22,3.39-18.68l7,2.37c.36.1.62.26.62.72s-.57.87-2.06,1.54a35.49,35.49,0,0,0-1,4H128l2.31-3.4c.16-.26.52-.67.78-.67s.41.1,1,.57l4.38,3.39a1.06,1.06,0,0,1,.51.83c0,.46-.46.51-.77.51H113.36c-.57,2.83-1.49,7.36-1.75,8.44h13.27l1.85-2.21c.47-.52.52-.67.78-.67s.77.41,1,.56l3.92,2.94a1.06,1.06,0,0,1,.51.77c0,.51-1.34,1.54-2,2.06-.11,2.11-.21,4-.52,6.58h3.45l2.26-3.7c.1-.16.41-.67.83-.67.25,0,.35.15.92.56l4.63,3.71a1.11,1.11,0,0,1,.52.77C143.05,163.63,142.58,163.68,142.27,163.68Z"/><path class="cls-2" d="M76.88,215.89c-.36,0-3.58,0-4.54-4h.13a3.78,3.78,0,0,0,3.32,2.18,2.82,2.82,0,0,0,3-2.94,2.78,2.78,0,0,0-3.07-2.83A9.81,9.81,0,0,0,70.49,210c0,.76.27,4.34.27,4.52,0,1.76-.87,2.78-1.45,2.78s-1-.91-1.18-1.31a7.06,7.06,0,0,0-1.69-2.11c-.18.26-.49.64-.65.86-.29.41-.42.67-.82.67a2,2,0,0,1-1.67-2,2.74,2.74,0,0,1,.6-1.63,5.36,5.36,0,0,0,.29.82.53.53,0,0,0,.4.2c.16,0,.31-.11.6-.31,1.25-.87,2.85-2,3.76-2.56V206a6.36,6.36,0,0,1-1.87.35,2.38,2.38,0,0,1-2.47-2.24,2.55,2.55,0,0,0,1.76.62,7.76,7.76,0,0,0,2.61-.51,31.87,31.87,0,0,0-.16-3.72c-.2-.6-.73-.78-1.63-1.11a2.16,2.16,0,0,1,1.74-.74c.65,0,2.58.6,2.58,1.47a2.45,2.45,0,0,1-.17.73,6.71,6.71,0,0,0-.69,2.68,7.66,7.66,0,0,0,1-.56c.64-.45.82-.56,1.22-.56.58,0,1.27.38,1.27.92s-.53.89-1.71,1.4c-.34.15-1,.42-1.94.76-.09,1.47-.07,2.53,0,3.51a14,14,0,0,1,5.92-1.67c2.34,0,4.76,1.12,4.76,4.06A4.4,4.4,0,0,1,76.88,215.89ZM69,211.11a15,15,0,0,0-2.41,2.6,13.6,13.6,0,0,0,2.14.82c.18,0,.29,0,.29-.69C69,213.44,69,211.55,69,211.11Zm11.8-5.28c-.34,0-.45-.07-1.14-.43a2.91,2.91,0,0,0-1-.13,8.58,8.58,0,0,0-1.69.22v-.11c1.69-1.16,1.76-1.2,1.76-1.53s-.91-1.41-2.85-1.63a4.1,4.1,0,0,1,2.23-.56c2.16,0,3.6,1.45,3.6,3C81.73,205.78,80.89,205.83,80.78,205.83Z"/><path class="cls-2" d="M95,217.7c-.77,0-1.29,0-1.75-.09v-.18a12.12,12.12,0,0,0,6.59-2.56,4.5,4.5,0,0,0,1.89-3.68,2.38,2.38,0,0,0-2.58-2.62c-2.52,0-4.57,2.13-5.64,3.49-.13.16-.6.92-.73,1.05a.83.83,0,0,1-.63.29c-.62,0-1.62-1.29-1.62-2.05,0-.31,0-.42.42-1.4a38.5,38.5,0,0,0,1-5.08,8.14,8.14,0,0,1-1.36.11c-2.11,0-3.23-1.11-3.27-2.4a3.77,3.77,0,0,0,2.67.82,11,11,0,0,0,2.25-.31,18.57,18.57,0,0,0,.29-2.54c0-.56,0-1.51-2-1.71a2.35,2.35,0,0,1,1.74-.74c.91,0,3.2.56,3.2,1.56a1.26,1.26,0,0,1-.25.69,7.29,7.29,0,0,0-.88,2.18,11,11,0,0,0,2.42-1,1.82,1.82,0,0,1,1-.38c.69,0,1.82.51,1.82,1.13,0,.85-4.29,2-5.83,2.32a25.34,25.34,0,0,0-1,5.23,14.72,14.72,0,0,0,2.32-.93,11.62,11.62,0,0,1,4.52-1.12,4.45,4.45,0,0,1,4.54,4.34C104.21,215.78,100.31,217.7,95,217.7Z"/><path class="cls-2" d="M122.79,216.27c-2.92,0-3.05-2.27-3.19-4.47-.08-1.39-.2-2.86-1.49-2.86-2.67,0-4.23,3.77-5.34,6.44-.11.27-.49,1.16-1.29,1.16s-1-.56-1-1.49a4.27,4.27,0,0,1,1.09-2.65c1.54-2.3,5-8.73,6-10.78a3,3,0,0,0,.31-1c0-.56-.65-1-1.78-1.34a2.57,2.57,0,0,1,1.58-.51c1.6,0,3.07,1.4,3.07,2.25,0,.45-.09.56-1,1.65a39.11,39.11,0,0,0-4.94,7.1c1.73-1.22,2.46-1.76,4-1.76,2.43,0,2.63,1.38,2.94,3.68.15,1.15.4,2.07,1.49,2.07.36,0,3.16-.18,5.94-5l.21.09C128.76,211,126.89,216.27,122.79,216.27Z"/><path class="cls-2" d="M147.87,213.29c-.27,0-.34-.07-1-.6-1.49-1.25-4.79-1.72-5.84-1.72s-3.38.27-3.38,2.14c0,2.25,3.18,2.29,3.83,2.29a23.39,23.39,0,0,0,2.54-.18,8.55,8.55,0,0,1,1.09-.13c.89,0,1.87.62,1.87,1.29,0,1-.58,1.25-3.76,1.25-1.21,0-6.84-.09-6.84-3.88a3.06,3.06,0,0,1,1.31-2.51c1.12-.89,3.32-1,4.37-1a24.08,24.08,0,0,1,3.29.27c.14,0,.78.13.85.13s.18,0,.18-.11-2.07-2.76-2.45-3.3a13.68,13.68,0,0,1-4.59,1c-2.67,0-3.36-1.56-3.63-2.16a5.73,5.73,0,0,0,2.9.78,12.55,12.55,0,0,0,4.45-1c-.65-1.16-.93-1.74-1.11-2.1a8,8,0,0,1-2.85.63,3.2,3.2,0,0,1-3.1-1.79,4.31,4.31,0,0,0,2,.45,10.37,10.37,0,0,0,3.34-.67c-1.07-2.16-1.31-2.65-2.63-2.65a2.81,2.81,0,0,0-.78.11,2.64,2.64,0,0,1,2.61-1.64c1.29,0,1.89.4,2,1.2a9.61,9.61,0,0,0,.31,2.31c2-1.22,2.18-1.35,2.58-1.35.56,0,1.25.4,1.25.89s-.31.71-.78.93c-.71.36-1.69.74-2.56,1.09a14.67,14.67,0,0,0,1,2.05c.45-.22.54-.27,1.3-.71,1.51-.89,1.64-1,2-1s1.35.2,1.35,1c0,1-2,1.69-3.58,2.27a20.12,20.12,0,0,0,2.45,2.65c.82.73,1.22,1.09,1.22,1.93C149,212,148.71,213.29,147.87,213.29ZM150.31,203c-.39,0-.44,0-1.53-1.42a4.93,4.93,0,0,0-2-1.69c2.2,0,4.3.89,4.3,2.18A.84.84,0,0,1,150.31,203Zm1.85-1.69c-.33,0-.47-.18-1.06-.89a7.47,7.47,0,0,0-2.61-2c3.32-.15,4.43.92,4.43,2A.78.78,0,0,1,152.16,201.35Z"/><path class="cls-2" d="M169.52,216.27c-2.92,0-3.05-2.27-3.19-4.47-.08-1.39-.2-2.86-1.49-2.86-2.67,0-4.23,3.77-5.34,6.44-.11.27-.49,1.16-1.29,1.16s-1-.56-1-1.49a4.25,4.25,0,0,1,1.08-2.65c1.54-2.3,5-8.73,6-10.78a3,3,0,0,0,.31-1c0-.56-.65-1-1.78-1.34a2.57,2.57,0,0,1,1.58-.51c1.6,0,3.07,1.4,3.07,2.25,0,.45-.09.56-1,1.65a39.11,39.11,0,0,0-4.94,7.1c1.73-1.22,2.46-1.76,4-1.76,2.43,0,2.63,1.38,2.94,3.68.16,1.15.4,2.07,1.49,2.07.36,0,3.16-.18,5.95-5l.2.09C175.49,211,173.62,216.27,169.52,216.27Z"/></svg>