<?xml version="1.0" encoding="utf-8"?>
<!-- Generator: Adobe Illustrator 16.0.4, SVG Export Plug-In . SVG Version: 6.00 Build 0)  -->
<!DOCTYPE svg PUBLIC "-//W3C//DTD SVG 1.1//EN" "http://www.w3.org/Graphics/SVG/1.1/DTD/svg11.dtd">
<svg version="1.1" id="レイヤー_1" xmlns="http://www.w3.org/2000/svg" xmlns:xlink="http://www.w3.org/1999/xlink" x="0px"
	 y="0px" width="340.457px" height="231.375px" viewBox="0 0 340.457 231.375" enable-background="new 0 0 340.457 231.375"
	 xml:space="preserve">
<g>
	<polygon fill="#FAB816" points="36.392,215.236 22.375,215.236 25.879,187.205 32.888,187.205 	"/>
</g>
<g>
	<path fill="#554D57" d="M273.921,176.3l-98.113,49.057c-3.951,1.976-8.591,1.976-12.53,0L65.167,176.3
		c-4.751-2.383-7.75-7.232-7.75-12.545v-47.401H281.67v47.401C281.67,169.067,278.672,173.917,273.921,176.3z"/>
</g>
<g>
	<defs>
		<rect id="SVGID_1_" x="169.544" y="116.354" width="112.126" height="110.474"/>
	</defs>
	<clipPath id="SVGID_2_">
		<use xlink:href="#SVGID_1_"  overflow="visible"/>
	</clipPath>
	<g clip-path="url(#SVGID_2_)">
		<defs>
			<rect id="SVGID_3_" x="169.387" y="116.266" width="112.345" height="110.691"/>
		</defs>
		<clipPath id="SVGID_4_">
			<use xlink:href="#SVGID_3_"  overflow="visible"/>
		</clipPath>
		<g transform="matrix(1 0 0 1 -1.525879e-05 -7.629395e-06)" clip-path="url(#SVGID_4_)">
			
				<image overflow="visible" width="475" height="468" xlink:href="67366A9EA16A32F4.png"  transform="matrix(0.2365 0 0 0.2365 169.3867 116.2661)">
			</image>
		</g>
	</g>
</g>
<g>
	<defs>
		<rect id="SVGID_5_" x="57.416" y="116.354" width="224.254" height="62.539"/>
	</defs>
	<clipPath id="SVGID_6_">
		<use xlink:href="#SVGID_5_"  overflow="visible"/>
	</clipPath>
	<g clip-path="url(#SVGID_6_)">
		<defs>
			<rect id="SVGID_7_" x="57.276" y="116.266" width="224.456" height="62.678"/>
		</defs>
		<clipPath id="SVGID_8_">
			<use xlink:href="#SVGID_7_"  overflow="visible"/>
		</clipPath>
		<g transform="matrix(1 0 0 1 0 -7.629395e-06)" clip-path="url(#SVGID_8_)">
			
				<image overflow="visible" width="949" height="265" xlink:href="67366A9EA16A32F3.png"  transform="matrix(0.2365 0 0 0.2365 57.2759 116.2661)">
			</image>
		</g>
	</g>
</g>
<g>
	<path fill="#686072" d="M166.517,5.684L7.504,82.015c-5.298,2.55-5.298,10.091,0,12.642l159.012,76.317
		c1.92,0.926,4.149,0.926,6.068,0l159.012-76.317c5.299-2.55,5.299-10.092,0-12.642L172.571,5.684
		C170.666,4.771,168.422,4.771,166.517,5.684z"/>
</g>
<g>
	<path fill="#FAB816" d="M155.528,82.084v7.007c0,3.869,6.279,7.008,14.016,7.008c7.738,0,14.015-3.139,14.015-7.008v-7.007H155.528
		z"/>
</g>
<g>
	<ellipse fill="#FFD259" cx="169.543" cy="82.084" rx="14.016" ry="7.007"/>
</g>
<g>
	<path fill="#FFD259" d="M29.384,190.708c-1.935,0-3.504-1.569-3.504-3.503v-84.097c0-1.78,1.346-3.28,3.111-3.489l126.145-14.017
		c1.948-0.237,3.658,1.177,3.868,3.098c0.21,1.934-1.163,3.658-3.098,3.868L32.888,106.248v80.958
		C32.888,189.139,31.318,190.708,29.384,190.708z"/>
</g>
<g>
	<defs>
		<rect id="SVGID_9_" x="24.254" y="187.205" width="10.259" height="14.015"/>
	</defs>
	<clipPath id="SVGID_10_">
		<use xlink:href="#SVGID_9_"  overflow="visible"/>
	</clipPath>
	<g clip-path="url(#SVGID_10_)">
		<defs>
			<rect id="SVGID_11_" x="24.163" y="186.985" width="10.407" height="14.427"/>
		</defs>
		<clipPath id="SVGID_12_">
			<use xlink:href="#SVGID_11_"  overflow="visible"/>
		</clipPath>
		<g transform="matrix(1 0 0 1 -1.907349e-06 0)" clip-path="url(#SVGID_12_)">
			
				<image overflow="visible" width="44" height="61" xlink:href="67366A9EA16A32FC.png"  transform="matrix(0.2365 0 0 0.2365 24.1631 186.9854)">
			</image>
		</g>
	</g>
</g>
<circle fill="#F79D00" cx="29.384" cy="187.205" r="7.008"/>
</svg>
