<svg id="materials" xmlns="http://www.w3.org/2000/svg" viewBox="0 0 240 240"><defs><style>.cls-1{fill:#474747;}.cls-2{fill:#f37c5a;}.cls-3{fill:#c1523d;}.cls-4{fill:#ededed;}.cls-5{fill:#3db39e;}.cls-6{fill:#324d5b;}.cls-7{fill:#2b424d;}.cls-8{fill:#37a18e;}</style></defs><title>study</title><path class="cls-1" d="M108.56,184.09c-10.61,0-24.25-2.19-32.55-5.23-7.37-1.2-14.39-3.56-18.9-6.35a31.16,31.16,0,0,1-10.65-5.27c-3.73-1.48-9.53-4.32-11.2-8.22-2.8-1.29-7.59-4.25-9.43-10-3.76-3.81-3.66-6-3.15-8.31.27-1.21.53-2.36-2.37-6-3.14-3.53-2.19-6.4-1.49-8.51a6.23,6.23,0,0,0,.49-3c-1.15-7.57,0-10.36,1.59-13a5.53,5.53,0,0,0,.83-1.86l.13-.58-.06-.3c-1-8.42,2.27-12.77,4.67-15.94,1.6-2.1,2.36-3.18,2.16-4.72-.82-6.42,1.56-9.3,3.87-12.08a22.52,22.52,0,0,0,4-6.31A46.2,46.2,0,0,1,47,52.94a48.62,48.62,0,0,1,8.52-7.19A82.17,82.17,0,0,1,87.16,32.09a51.74,51.74,0,0,1,12.47-1.7c7.08,0,12.83,2,17.09,5.91a16,16,0,0,1,2.78,2.89l.08.11a20.94,20.94,0,0,1,5.19-4.93,30.67,30.67,0,0,1,2.76-1.49,22.77,22.77,0,0,1,10.72-2.64h.84c3.07,0,6,.28,9.13.57,1.69.15,3.4.31,5.14.43l.28,0,.48.11,2.68.87c3.3,1,6.7,2.13,9.86,3.44a43.45,43.45,0,0,1,6,2.62l.13,0A9.59,9.59,0,0,1,175.89,40a7.86,7.86,0,0,0,1.79,1.07l.32.15,1.46.81a47.88,47.88,0,0,1,8.74,5.65,48.2,48.2,0,0,1,15.44,20.38,17.65,17.65,0,0,0,2.62,4.8c5.75,5.51,5.42,10.11,5.22,12.86a7.86,7.86,0,0,0,0,1.74,16.66,16.66,0,0,0,1.91,3.16c2.34,3.41,5.86,8.54,5.07,15.6a3.86,3.86,0,0,0,.36,2.83c3.34,6.5,3,9.64,2.2,12.77a7.46,7.46,0,0,0-.32,2.2,7.38,7.38,0,0,0,.46,1.79c.72,2.11,1.79,5.26-1.73,8.91-2.81,3.46-2.63,4.7-2.42,6.13.34,2.28.34,4.47-2.91,7.92-1.19,4.41-4.56,8-9.4,10.12-.86,2.31-3.3,4.38-7.79,6.69l-3.47,1.51a31.06,31.06,0,0,1-10.71,5.3c-4.48,2.73-11.33,5-18.89,6.36a80.34,80.34,0,0,1-21.43,4.37l-.27,0a6.17,6.17,0,0,0-1,.15l-.27,0a74.68,74.68,0,0,1-9.93.69c-4.95,0-8.6-.56-10.9-1.66C117.69,183.52,113.92,184.09,108.56,184.09Z"/><path class="cls-1" d="M139.09,32.47c3,0,5.89.27,9,.56,1.67.16,3.39.32,5.16.43l.21,0,2.69.87c3.26,1,6.61,2.11,9.69,3.38a43.44,43.44,0,0,1,5.83,2.57l.52.19a7.32,7.32,0,0,1,2.26,1.15,9.89,9.89,0,0,0,2.41,1.46l.08,0,1.66.93a44.48,44.48,0,0,1,8.15,5.26A46,46,0,0,1,201.6,69c1.05,2.37,1.86,4.23,3.06,5.46,5.05,4.83,4.79,8.51,4.59,11.14a9.51,9.51,0,0,0,0,2.34,15.7,15.7,0,0,0,2.26,4c2.31,3.37,5.39,7.85,4.7,14.1a5.8,5.8,0,0,0,.55,4c3.27,6.38,2.62,9,2.06,11.31a9.44,9.44,0,0,0-.39,2.85,9.11,9.11,0,0,0,.59,2.42c.67,2,1.35,3.94-1.23,6.62-3.55,4.35-3.28,6.21-3,8s.48,3.25-2.73,6.48c-.95,4.33-4.33,7.78-9.26,9.59-.15,1.42-1.18,3.4-6.93,6.36l0,0-1.23.53-2.37,1a28.86,28.86,0,0,1-10.43,5.17c-4.31,2.69-11.06,4.95-18.55,6.25a78.15,78.15,0,0,1-21.05,4.31h-.08a8.94,8.94,0,0,0-1.53.2l-.07,0a73.52,73.52,0,0,1-9.63.66c-5.56,0-9.4-.75-10.94-2.07-1.46,1.38-5.42,2.15-11.39,2.15-10.31,0-24-2.19-32-5.16-7.29-1.17-14.2-3.48-18.54-6.24a29,29,0,0,1-10.41-5.16c-4.74-1.83-10-4.86-10.55-7.93-2.4-1-7.64-3.63-9.26-9.57-3.65-3.52-3.31-5-2.95-6.64s.75-3.4-2.81-7.85c-2.36-2.65-1.76-4.46-1.12-6.41a8.2,8.2,0,0,0,.58-4c-1.13-7.41.16-9.58,1.31-11.51a7.8,7.8,0,0,0,1.1-2.57l.08-.37a1.92,1.92,0,0,0,0-1.16v0C23.1,99.7,25.93,96,28.25,92.89c1.62-2.13,2.91-3.84,2.59-6.34-.7-5.46,1.18-7.72,3.38-10.38a24.56,24.56,0,0,0,4.34-6.89,44.05,44.05,0,0,1,10-14.77,47.35,47.35,0,0,1,8.18-6.91,80.27,80.27,0,0,1,30.8-13.32,50.12,50.12,0,0,1,12-1.66c6.5,0,11.76,1.8,15.58,5.32a14.56,14.56,0,0,1,2.51,2.58,28.84,28.84,0,0,1,2,3A17.4,17.4,0,0,1,126,36.22a25.69,25.69,0,0,1,2.46-1.33,20.6,20.6,0,0,1,9.76-2.42h.84m0-4.46h-.84a25.12,25.12,0,0,0-11.79,2.91,29.24,29.24,0,0,0-2.74,1.49l-.2.12a24,24,0,0,0-4,3.34,18,18,0,0,0-1.45-1.31c-4.67-4.25-10.89-6.4-18.49-6.4a54.31,54.31,0,0,0-13,1.76,84.47,84.47,0,0,0-32.38,14,51.19,51.19,0,0,0-8.84,7.47,48.32,48.32,0,0,0-11,16.23,20.08,20.08,0,0,1-3.64,5.69c-2.36,2.85-5.3,6.4-4.36,13.79.08.61-.3,1.2-1.72,3.08-2.48,3.28-6.23,8.24-5.11,17.53l-.05.22a3.75,3.75,0,0,1-.56,1.14c-1.71,2.89-3.14,6.16-1.88,14.46a4.29,4.29,0,0,1-.4,2c-.71,2.16-2,6.15,1.93,10.68,2.17,2.71,2,3.32,1.87,4-.71,3.21-.37,6.05,3.38,10a19.16,19.16,0,0,0,9.73,10.52c2.14,3.9,7.24,6.69,11.72,8.5a33.59,33.59,0,0,0,10.86,5.37C61,177.44,67.9,179.78,75.44,181c8.54,3.07,22.37,5.29,33.12,5.29,5.81,0,9.28-.68,11.46-1.54,2.6,1,6.19,1.46,10.87,1.46a77.51,77.51,0,0,0,10.23-.71l.19,0,.27-.05c.23,0,.53-.09.62-.1h.38a82.5,82.5,0,0,0,21.82-4.44c7.71-1.37,14.5-3.65,19.23-6.46a33.51,33.51,0,0,0,11-5.44l1.78-.77,1.23-.53.13-.06.18-.09c4.5-2.31,7.19-4.51,8.47-7a17.82,17.82,0,0,0,9.7-10.67c3.55-4,3.5-6.79,3.12-9.36-.14-1-.25-1.69,2-4.41,4.29-4.58,2.81-8.91,2.1-11a7.61,7.61,0,0,1-.35-1.21,5.52,5.52,0,0,1,.26-1.55c.84-3.44,1.29-7.12-2.38-14.32a1.81,1.81,0,0,1-.15-1.45l0-.12c.88-7.89-2.93-13.44-5.45-17.11a24.22,24.22,0,0,1-1.57-2.47c0-.23,0-.67.06-1,.21-2.92.61-8.35-5.88-14.61a18.49,18.49,0,0,1-2.14-4.11,50.34,50.34,0,0,0-16.1-21.23,48.2,48.2,0,0,0-8.85-5.74l-1.64-.91-.25-.13-.31-.14a6.12,6.12,0,0,1-1.17-.69,11.16,11.16,0,0,0-3.67-2l-.11,0-.15-.06a48.1,48.1,0,0,0-6.07-2.67c-3.2-1.31-6.59-2.39-9.86-3.43l-2.69-.86-.55-.14-.21-.05-.54-.06c-1.72-.12-3.41-.28-5-.43C145.28,28.29,142.27,28,139.09,28Z"/><path class="cls-2" d="M138.64,33.07c16.63,0,32.81,8.68,35.81,10.24.36.31.76.31,1.12.63,22.88,10.8,23.52,27.13,27.93,31.54,7.39,7.26,1.94,11.36,5.49,16,5.67,7.2,5.93,12.6,5.35,15.32-.84,4.5,4.91,7.49,2.79,15.15-1.48,4.93,3.53,7.07-.4,11.07-6.65,8.45,1,8.13-5.46,14.54C210.15,154.29,202,157,202,157c-.07,4-10.43,8-10.43,8-3.28,3-10.33,5-10.33,5-5.95,4.19-18.45,6.23-18.45,6.23-10.33,3.85-19.65,4-22.15,4.42-7.41,1.13-20.54,1.25-20.54-2.42L118.74,52.4C118.7,40.49,129.51,32.41,138.64,33.07Z"/><path class="cls-2" d="M101.21,33.07C79.14,32.74,46,49.12,39,71.33c-1.68,4.92-8.13,6.69-6.82,15,.58,5.63-8.57,10.6-7.05,20.28.85,4.51-4.83,7.7-2.39,15.36,1.47,4.93-3.54,7.07.4,11.07,7,8.77-1.44,7.8,5.45,14.54,1.12,6.68,9.22,9.38,9.22,9.38.07,4,10.43,8,10.43,8,3.28,3,10.32,5,10.32,5,5.95,4.19,18.45,6.23,18.45,6.23,10.33,3.85,19.66,4,22.16,4.42,7.4,1.13,20.53,1.25,20.53-2.42L121.1,52.4C121.15,40.49,110.34,32.41,101.21,33.07Z"/><path class="cls-3" d="M217.81,133.17c2.58-2.68,1.9-4.67,1.23-6.62a9.11,9.11,0,0,1-.59-2.42,9.44,9.44,0,0,1,.39-2.85c.56-2.29,1.21-4.93-2.06-11.31a5.8,5.8,0,0,1-.55-4c.69-6.25-2.39-10.73-4.7-14.1a15.7,15.7,0,0,1-2.26-4,9.08,9.08,0,0,1,0-2.34c.19-2.63.45-6.31-4.6-11.14-1.2-1.23-2-3.09-3.06-5.46a46,46,0,0,0-14.88-19.61,44.48,44.48,0,0,0-8.15-5.26l-1.66-.93-.08,0a9.89,9.89,0,0,1-2.41-1.46,7.32,7.32,0,0,0-2.26-1.15l-.52-.19a42.2,42.2,0,0,0-5.83-2.57c-3.08-1.27-6.43-2.34-9.69-3.38l-2.69-.87-.21,0c-1.77-.11-3.49-.27-5.16-.43-3.08-.29-6-.56-9-.56h-.84a20.6,20.6,0,0,0-9.76,2.42A25.69,25.69,0,0,0,126,36.22a17.4,17.4,0,0,0-6.34,7.31,28.84,28.84,0,0,0-2-3,14.56,14.56,0,0,0-2.51-2.58c-3.82-3.52-9.07-5.32-15.58-5.32a50.12,50.12,0,0,0-12,1.66A80.27,80.27,0,0,0,56.78,47.6a47.35,47.35,0,0,0-8.18,6.91,44.05,44.05,0,0,0-10,14.77,24.56,24.56,0,0,1-4.34,6.89c-2.2,2.66-4.08,4.92-3.38,10.38.32,2.5-1,4.21-2.59,6.34C25.93,96,23.1,99.7,24,107.22v0a1.92,1.92,0,0,1,0,1.16l-.08.37a7.8,7.8,0,0,1-1.1,2.57c-1.15,1.93-2.44,4.1-1.31,11.51a8.2,8.2,0,0,1-.58,4c-.64,1.95-1.24,3.76,1.12,6.41,3.56,4.45,3.16,6.27,2.81,7.85s-.7,3.12,2.95,6.64c1.62,5.94,6.86,8.62,9.26,9.57.56,3.07,5.81,6.1,10.55,7.93A29,29,0,0,0,58,170.46c4.34,2.76,11.25,5.07,18.54,6.24,8,3,21.68,5.16,32,5.16,6,0,9.93-.77,11.39-2.15,1.54,1.32,5.38,2.07,10.94,2.07a73.52,73.52,0,0,0,9.63-.66l.07,0a8.94,8.94,0,0,1,1.53-.2h.08a78.15,78.15,0,0,0,21.05-4.31c7.49-1.3,14.24-3.56,18.55-6.25a28.86,28.86,0,0,0,10.43-5.17l2.37-1,1.23-.53,0,0c5.75-3,6.78-4.94,6.93-6.36,4.93-1.81,8.31-5.26,9.26-9.59,3.21-3.23,3-4.8,2.73-6.48S214.26,137.52,217.81,133.17ZM114.11,38.71a19.26,19.26,0,0,1,4.31,6c.17.36.3.71.43,1.06a22.92,22.92,0,0,0-.59,2.58,6.79,6.79,0,0,0-.62-.54l-.8-.61-.81-.61-.09,0a20.81,20.81,0,0,0-9.5-2.27,19.77,19.77,0,0,0-3.3.28,44.51,44.51,0,0,0-9-2.43l-.16,0a.71.71,0,0,0-.65.35.53.53,0,0,0,.32.69,26,26,0,0,0,4,1.37c5.86,1.66,13.73,3.9,9.38,14.65-2.22-2.43-6.26-3.74-9.33-3.74a9.28,9.28,0,0,0-2.19.25.52.52,0,0,0-.44.51.63.63,0,0,0,.53.49c4.74,1.06,7.81,2.37,10.5,4.47a7.78,7.78,0,0,0,.4,5.74c-.29,0-.56.06-.84.09a12.61,12.61,0,0,1-1.58.13H104c-5.38.83-8.54,3-9,6.17a21.63,21.63,0,0,0-4.81-.54C85.27,72.76,78.1,74.4,72,82c-.16.2,0,.47.25.61l.4.08.47-.16c5.79-5.41,11-7.88,16.7-7.88a22.09,22.09,0,0,1,7.12,1.25l.3,0,.35-.07.14-.09a28.35,28.35,0,0,1,6.14,3.78l.51.16.23,0c.25-.06.42-.23.41-.42-.1-2.12-3.38-4.73-7.22-5a3.72,3.72,0,0,1,1.27-3,42.9,42.9,0,0,1,19,6l.13.06.08,15,.14,25.2.11,21.28.2,9.37-.1,8.7.11,19.39v1.76a1.54,1.54,0,0,1-.9,1.39c-1.25.85-4.59,1.35-9,1.35a71.38,71.38,0,0,1-9.14-.62c-.61-.1-1.49-.19-2.61-.29-1.79-.17-4.25-.4-7.14-.86,3.63-2.38,4.93-4.22,3.88-5.59-1.32-1.73-5.87-2.36-10.3-3-3.55-.49-6.93-1-8-1.94,3.19-.1,6.73-.92,8.45-2l0-.31-.38-.08-.23,0a27.86,27.86,0,0,1-8.15,1.46,14.52,14.52,0,0,1-9.59-3.59h.23a17.14,17.14,0,0,0,1.89-.13l.54-.06c.23,0,.37-.14.32-.26a.6.6,0,0,0-.53-.22,22.11,22.11,0,0,1-8.52-1.32l.07-.22a5.35,5.35,0,0,1,2.18-3.24,15.37,15.37,0,0,0,3,1.43c.38.17.73.28,1,.38l.42.15.14.05a10,10,0,0,1,1.3.36l.08,0c.37.12.81.23,1.25.34a10.28,10.28,0,0,1,1.51.45l.36.07.18,0,.25-.23c0-.09-.14-.28-.78-.57a22.15,22.15,0,0,0-2.71-1.06,18,18,0,0,1-9.73-6.81l.45-.5.22-.21,0-.17,0-.07a35,35,0,0,0,6.44.61c1.87.08,4.42.18,8.27.45l.21.13a14.27,14.27,0,0,1,2.09.89,7.75,7.75,0,0,1,2.8,2.46A9.64,9.64,0,0,0,81,159.1c3.6,2.34,7.57,2.42,11.4,2.5a29.5,29.5,0,0,1,7,.7l.33.12h0l.17.13a34.34,34.34,0,0,0,8.52,1.92h.12a.52.52,0,0,0,.45-.18c.07-.12-.07-.25-.32-.29a42.92,42.92,0,0,1-7.57-1.94,22.67,22.67,0,0,0-9-1.45H90.78c-6.47,0-8.22-1.66-10.29-3.62a16,16,0,0,0-3.92-3l-.67-.37c.77.06,1.65.11,2.56.11,3,0,5.17-.59,6.68-1.82a5.61,5.61,0,0,0,3,3.65,19.83,19.83,0,0,0,8.79,2.19,31,31,0,0,0,14,3.45,25.09,25.09,0,0,0,4.58-.41c.24-.05.37-.18.29-.31a.57.57,0,0,0-.47-.18h-.11a27.93,27.93,0,0,1-3.29.2,28.75,28.75,0,0,1-14-3.74l-.33-.08c-3.87-.19-6.75-1.06-8.58-2.63-2.26-1.93-3.23-5.54-.15-9.3.11-.13,0-.3-.24-.38l-.27,0-.42.12a11.59,11.59,0,0,0-2.91,6.16c-1.89,1.84-4,2.22-6.49,2.22-1.65,0-3.64-.18-5.93-.38-2.07-.19-4.41-.39-7.13-.54l-1.06,0a23.33,23.33,0,0,1-11-2.54,9.23,9.23,0,0,1-3.76-3.32c-.91-1.29-2.05-2.9-5.9-5.53l-.09,0-.16-.08v0l-.09-.13a18.4,18.4,0,0,1-6.22-8.74l-.45-1.4-.17-.52c0-.18-.34-.32-.65-.32s-.51.14-.45.32l.17.51a18.91,18.91,0,0,0,1.58,5.07c-.48,0-1,0-1.45,0a37.32,37.32,0,0,1-6.09-.64l-1.85-.29h-.15l-.4.14.14.35a16.24,16.24,0,0,0,7.38,1.77,9.06,9.06,0,0,0,2.89-.41,15.78,15.78,0,0,0,3.25,4,15.37,15.37,0,0,0,1.54,1.29l.48.37a24.45,24.45,0,0,1,4.39,4.37c2.11,2.54,4.06,4.9,10.21,6.32l-.26.21h-.07c-.25,0-.41.11-.39.24v.1a8.12,8.12,0,0,1-4.76,1.34c-3.1,0-6.5-1.19-9-2.07-.88-.31-1.64-.58-2.26-.75-.39-.12-.89-.24-1.57-.39-1.09-.3-2.19-.56-3.16-.8a18.32,18.32,0,0,1-3.93-1.18l-.1-.2c0-.15-.25-.28-.52-.3h-.1c-.23,0-.4.08-.42.2a.54.54,0,0,0,.27.51c.88.88,3.61,1.44,6.23,2l1.43.29a29.17,29.17,0,0,1,3.65,1.22A27.39,27.39,0,0,0,52.31,155a10,10,0,0,0,4.8-1,7.75,7.75,0,0,0,3.27,3.88c-2.25.63-3.3,2.2-3,3.51-1.06-.47-2-1-2.88-1.49a17,17,0,0,0-9.62-2.72l-1.37,0c-.54,0-1.1,0-1.67,0a15,15,0,0,1-3.36-.29v0l-.26-.23c-2.27-.86-7.75-3.47-8.95-9.18l-.06-.11c-3.16-3.23-2.86-5-2.54-6.82l.09-.56a11.08,11.08,0,0,1,4.68,3.19c2.24,2.18,5,4.83,12,6.64l.25,0,.38-.12c.11-.11,0-.26-.19-.35a37.14,37.14,0,0,1-10.65-6.6c-2.05-1.72-3.59-3-6.37-3.42.14-1.61-.2-3.51-3-6.55a4.38,4.38,0,0,1-.91-5.16,14.29,14.29,0,0,0,6.43,3.29l.22,0,.38-.11-.08-.37c-.37-.28-1.11-.73-2-1.26a46.36,46.36,0,0,1-4.46-3,6.86,6.86,0,0,0,.39-1.74,6.67,6.67,0,0,0,0-1.41,10.12,10.12,0,0,1,7.58-3.25,16.29,16.29,0,0,1,9.67,3.64,29.19,29.19,0,0,0,7.7,4.2c3.6,1.42,6.42,2.53,11.49,10.31a.73.73,0,0,0,.52.53c2.3,2.9,6.81,4.6,12.15,4.6a33.49,33.49,0,0,0,9-1.33l.14-.06.35-.09a3,3,0,0,0,.67-.18,18.45,18.45,0,0,1,3.78-.4c5.23,0,9.69,2.23,12.16,6l0,0,.25.34.2.3A24.9,24.9,0,0,1,95,150.64c-.82.43-1.83,1-3.14,1.71l0,.33.45.13h.14c2.67-.43,6.92-2.05,8.29-4.29a8.71,8.71,0,0,0,4.44,1c3.06,0,7.07-1,12-2.9.23-.09.28-.26.12-.38l-.43-.12-.28,0c-5.09,1.79-8.7,2.66-11.09,2.66-3,0-4-1.33-5.46-3.18l-.08-.1c-2.15-3.29-7.37-5.47-13.25-5.47a21.89,21.89,0,0,0-5.61.71,33.12,33.12,0,0,1-8.45,1.32c-6.69,0-9.31-3.5-12.16-7.31-1.91-2.54-3.92-5.23-7.28-6.67l0,0c3.72-4.83,5.17-6.13,5.73-6.34.21-.08.28-.25.15-.41a.82.82,0,0,0-.59-.22h-.08c-2.32.2-6.43,3.63-6.79,6.51-5.86-2.3-7.47-3.48-9.05-4.64-.51-.38-1-.76-1.68-1.18a3.73,3.73,0,0,0,.59-1.77c.26-2-.23-6.06-3.77-8.11l-.48-.12-.28,0a.25.25,0,0,0-.13.43c1.36,1.63,2.28,5.48,2.57,7.66,0,.09.07.56.11.91l0,.17a17.11,17.11,0,0,0-7.77-2,12.23,12.23,0,0,0-8,2.78l-.13-.59c-.52-2.25-1.06-4.61,2.15-10.51a5.73,5.73,0,0,0,.63-2.3,21.34,21.34,0,0,1,4.73-.55,20.1,20.1,0,0,1,15.7,7.77l.39.21.22,0,.26,0a19,19,0,0,1,6.15-1.11c3.67,0,8.71,1.38,11.9,7.76a13.59,13.59,0,0,1-4.81,4l-.07.36a.78.78,0,0,0,.57.21c3.09,0,5.78-1.9,6.1-4.31,3.43-1.19,8.35-2.59,12.61-2.59a10.61,10.61,0,0,1,5.61,1.29l.45.12.34-.07a.26.26,0,0,0,.06-.47c-1.64-1.25-4.07-1.88-7.21-1.88a43.12,43.12,0,0,0-11.63,2c-2.47-5-7.71-8.06-14-8.06a19.88,19.88,0,0,0-5.51.78A20.6,20.6,0,0,0,37,107.18c-3.12-4.21-3.9-7.46-2.3-9.85s5.21-3.76,11.23-4.47c.3,0,.48-.22.41-.43a.75.75,0,0,0-.68-.4q-.48,0-1,0c-4.42,0-9.36,1.41-11.73,3.33a9.65,9.65,0,0,0-1.6,1.88c-1.93,3.33,1.45,7.49,3.65,9.68a23.41,23.41,0,0,0-3.24-.22,19.89,19.89,0,0,0-5.4.7c0-.34,0-.69-.06-1.06-.16-2.36-.37-5.35,2.9-10.7.33-.56.7-1.07,1.06-1.57s.73-1,1.07-1.58a9,9,0,0,0,2-7c-.14-2.51-.28-5.16,4-9.66,1.16-1.17,2-3.13,3.18-5.66a50.59,50.59,0,0,1,9.36-14.92,64.07,64.07,0,0,1,8-6.75,55.47,55.47,0,0,1,6.54-3.73c9.12-4.54,16.92-7.6,23.7-9.31a55.93,55.93,0,0,1,10.37-1.05C105.13,34.37,110.56,35.89,114.11,38.71Zm76.74,126-.13.08a23.28,23.28,0,0,1-5.31,3.17c-.63,0-1.27.07-1.92.07a54.83,54.83,0,0,1-10.9-1.42,9.57,9.57,0,0,0,3.45-3,23.17,23.17,0,0,0,11.39-3.62l.11-.13v-.06a15.86,15.86,0,0,1,7.17-1.91c.47,0,1,0,1.55-.06a27.3,27.3,0,0,0,4.66-.43C200,160.54,194.29,163.31,190.85,164.72Zm-7.57,4.12c-.86.32-1.75.62-2.67.88l-.17.07a28.52,28.52,0,0,1-4.6,2.37l.22-.15.08-.1,0-.12c0-.11-.1-.2-.3-.22h-.11l-.44.13c-.71.55-2.64.84-5.56.84-1.43,0-2.82-.07-3.6-.1h-.47a13.36,13.36,0,0,0-6.58,1.46c-1.5.91-2,2.13-1.49,3.46a65,65,0,0,1-6.82,1.56c-2.63-2.35-3.4-4.07-2.31-5.23s4.73-1.76,8.13-2.21c3.87-.51,7.88-1,8.7-2.86a17.23,17.23,0,0,0,6.44-1.56,26.62,26.62,0,0,0,10,1.85C182.26,168.89,182.78,168.87,183.28,168.84ZM173.69,173a64.83,64.83,0,0,1-11.42,2.84l-.15,0c-1.13.42-2.24.79-3.34,1.13a3.15,3.15,0,0,1,1.84-2.63c1.74-.87,4.59-.91,7.34-1A30.25,30.25,0,0,0,173.69,173ZM101.06,70.1a13.49,13.49,0,0,1,3.26-.94,38.68,38.68,0,0,1,5.49-.26.75.75,0,0,0,.57-.23l0-.47c-3-4.26-1.78-6.84-.57-9.37,1.29-2.72,2.66-5.57-1.23-10.29a10.69,10.69,0,0,0-2.18-2c.63.1,1.07.18,1.62.29l2.35.42a4.12,4.12,0,0,0,.91.32l.52.17.13.08a29.12,29.12,0,0,1,6,3.48c-.14,2.29,0,4.6,0,6.85,0,1.17.1,2.37.11,3.53v.5l.07,13.67c-2.76-2.64-9.14-5.72-16.21-5.72Zm20.62,6.33.08-14c0-1.6,0-3,0-4.37,0-2.7.08-4.87,0-6.74,2.74-2.4,6.74-4.09,12.15-5.08-6.23,3.86-5.1,8-3.94,12.22.9,3.26,1.81,6.57-.57,10l0,.47a.75.75,0,0,0,.57.23c3.27,0,6.81.16,9.26,1.21-.38,0-.75,0-1.13,0C130.49,70.35,124.12,73.8,121.68,76.43ZM38.63,157.56a27.29,27.29,0,0,0,5.16.5,30.72,30.72,0,0,1,4,.29,14.45,14.45,0,0,1,4.8,1.76l.09.08a23.15,23.15,0,0,0,11.36,3.61,9.66,9.66,0,0,0,3.45,2.95,57.1,57.1,0,0,1-11.1,1.4c-.73,0-1.44,0-2.12-.08a20.67,20.67,0,0,1-5.45-3.27l-.16-.09C46.54,163.89,39.74,161,38.63,157.56Zm38.66,18.27a73.64,73.64,0,0,1-11.61-3,27.46,27.46,0,0,0,5.9.63h0c3.28.07,6.11.13,7.73,1a2.94,2.94,0,0,1,1.7,2.65c-1.17-.36-2.37-.76-3.59-1.21Zm-13.1-3.54a32.21,32.21,0,0,1-5.1-2.5l-.15-.07c-.76-.22-1.59-.48-2.45-.78.6,0,1.22.08,1.89.08a26.6,26.6,0,0,0,9.95-1.85,16.92,16.92,0,0,0,6.15,1.43c.82,1.82,4.83,2.35,8.7,2.86,3.4.45,6.9.92,8.13,2.21s.3,2.9-2.37,5.27a66,66,0,0,1-6.78-1.53,2.06,2.06,0,0,0,.21-1.38c-.57-3.24-5.38-3.52-9.86-3.52H70.16c-2.85,0-4.79-.14-5.68-.83l-.44-.13h-.15c-.21,0-.31.15-.23.27A1.87,1.87,0,0,0,64.19,172.29ZM127.36,37.13l.08-.06a13.64,13.64,0,0,1,1.85-1.19,21.63,21.63,0,0,1,9.31-2.21A59.86,59.86,0,0,1,152,35.28a73.87,73.87,0,0,1,12.11,4.12c1,.49,2,.9,2.94,1.29s1.9.78,2.87,1.26c.36.14.83.38,1.28.6s.89.44,1.27.61a7.49,7.49,0,0,0,1.34.79,5.56,5.56,0,0,1,1.17.69l.12.09a60.24,60.24,0,0,1,9.61,6,43.73,43.73,0,0,1,14.15,19,27.82,27.82,0,0,0,4.35,7.09c2.08,2.64,3.7,4.7,3.17,9.61a4.7,4.7,0,0,0,.1,2.24c.08.37.17.67.26,1s.18.57.25.91a3.25,3.25,0,0,0,1.33,1.75c.35.56.71,1.07,1.07,1.57s.72,1,1.05,1.56c3.17,5.31,3,7.65,2.9,9.87a16.73,16.73,0,0,0,0,2.14,20.15,20.15,0,0,0-5.49-.72,23.09,23.09,0,0,0-3.21.22c3.85-3.72,5-7.31,3.24-10.16S201.21,92,195.38,92c-.39,0-.77,0-1.17,0a.74.74,0,0,0-.68.39c-.07.21.11.4.41.44,6,.71,9.69,2.18,11.22,4.47s.82,5.64-2.3,9.85a20.64,20.64,0,0,0-11.14,6.67,19.88,19.88,0,0,0-5.51-.78c-6.34,0-11.58,3.05-14.05,8.06a43.12,43.12,0,0,0-11.63-2c-3.15,0-5.57.63-7.21,1.88a.26.26,0,0,0,.06.47l.34.07.44-.12a10.65,10.65,0,0,1,5.62-1.29c4.25,0,9.18,1.4,12.61,2.59.31,2.41,3,4.31,6.1,4.31a.78.78,0,0,0,.57-.21l-.08-.36-.58-.33c-1.33-.73-1.65-.91-4.22-3.7,1.78-3.56,5.29-7.85,11.71-7.85a19.15,19.15,0,0,1,6.33,1.2l.26,0,.22,0,.4-.21c4.16-5,9.58-7.77,15.56-7.77a20.17,20.17,0,0,1,4.74.59,13.32,13.32,0,0,0,1.27,3.68,11.57,11.57,0,0,1,1.31,9.22v.05a12.05,12.05,0,0,0-7.73-2.62,16.86,16.86,0,0,0-7.84,2v-.09c.24-2.23.7-6.48,2.7-8.66a.25.25,0,0,0-.13-.44l-.27,0-.52.15c-2.47,1.63-5.08,5.93-3.16,10-.63.39-1.18.77-1.72,1.14a38.55,38.55,0,0,1-9.06,4.7c-.36-2.89-4.46-6.31-6.79-6.51h-.08a.81.81,0,0,0-.58.22c-.13.16-.06.33.15.41,1.17.46,4.78,4.89,5.77,6.37-3.95,1.68-5.8,4.45-7.55,7.06s-3.32,5-6.74,6.11a16.82,16.82,0,0,1-5.55.95,30.73,30.73,0,0,1-6.8-1,31.51,31.51,0,0,0-7-1c-.4,0-.8,0-1.18,0-8.15.51-10.44,3.43-12.25,5.74-1.31,1.67-2.33,3-5.23,3-2.39,0-6-.87-11.11-2.68l-.28,0-.42.12c-.17.13-.11.3.12.39,4.91,1.92,8.92,2.89,12,2.89a8.76,8.76,0,0,0,4.48-1c1.27,1.83,4.65,3.86,8.27,4.31h.11l.46-.14-.06-.31c-5.38-2.88-5.51-2.95-7.69-4.62a7.84,7.84,0,0,0,.68-.95,6.37,6.37,0,0,1,.77-1l0,0c2-2.78,6.06-4.46,10.94-4.46a24.54,24.54,0,0,1,6.3.86,29.23,29.23,0,0,0,7.61,1.05c5.27,0,9.9-1.69,12.11-4.45a25,25,0,0,0,1.82-2.53c1.75-2.67,3.78-5.75,8.67-7.89a55.5,55.5,0,0,0,10.6-5.74c2.79-1.86,4.5-3,7.91-3h.41a13.41,13.41,0,0,1,7.61,2.92,6.38,6.38,0,0,0-.05,1.85,6.6,6.6,0,0,0,.4,2c-.82.63-2.28,1.53-3.36,2.19a25.42,25.42,0,0,0-2.83,1.89l0,.35.34.09.24,0a15.06,15.06,0,0,0,6.21-3.1,4.79,4.79,0,0,1-.85,4.8,22.62,22.62,0,0,0-2.53,4.12,5.9,5.9,0,0,0-.7,2.65c-2.54.47-4,1.67-5.85,3.27a37.72,37.72,0,0,1-10.83,6.7c-.22.09-.3.24-.19.35l.38.12.25,0c7-1.81,9.73-4.46,12-6.64a11.59,11.59,0,0,1,4.31-3.07c0,.36.11.71.18,1,.34,1.62.64,3-2.53,6.21l-.07.11c-1.17,5.69-6.11,8.18-8.92,9.17l-.25.19a15.61,15.61,0,0,1-2.66.17H196.1c-3.47,0-7.17.32-10.69,2.62l-.57.26-.09.05a13.31,13.31,0,0,1-2.58,1.32c.37-1.35-.61-2.89-3-3.53a8.34,8.34,0,0,0,3.28-3.94,9.26,9.26,0,0,0,5,1.21,28,28,0,0,0,9.7-2.1,39.16,39.16,0,0,1,4-1.21c3.75-1,7.66-2.06,7.48-3.38,0-.12-.19-.2-.42-.2h-.07c-.26,0-.49.13-.54.27-.3.82-3.73,1.67-6,2a42.28,42.28,0,0,0-5.16,1.49c-3,1-6.35,2.12-9.24,2.12a7.32,7.32,0,0,1-5.25-1.91c4.45-1.08,8.16-3.26,9.79-5.8a15.9,15.9,0,0,1,4.71-4.86,17.53,17.53,0,0,0,5.43-5.78,8.8,8.8,0,0,0,2.9.42,16.24,16.24,0,0,0,7.38-1.77l.15-.36-.4-.14h-.14l-2.32.34a37.53,37.53,0,0,1-5.78.59c-.45,0-.88,0-1.31,0a21.75,21.75,0,0,0,1.36-3.51,6.33,6.33,0,0,0,.23-1.31,4.29,4.29,0,0,1,.09-.61c.06-.18-.14-.32-.45-.32s-.6.14-.65.32l-.61,1.92c-1.63,5.12-4.65,7.47-7.52,9.7a19.93,19.93,0,0,0-5.16,5.16c-1.7,2.88-6.74,5.12-12.26,5.51l-2.05.09c-2.77.1-6.95.25-13.18.94-.38,0-.76,0-1.12,0a9.48,9.48,0,0,1-6.6-2.23,12.16,12.16,0,0,0-2.91-6.17l-.42-.13-.27,0c-.25.08-.35.25-.24.38,2,2.26,3.24,6.64,0,9.4-1.78,1.53-4.72,2.39-8.76,2.56l-.32.08a29.49,29.49,0,0,1-14.07,3.73,29.91,29.91,0,0,1-3.25-.18h-.11a.56.56,0,0,0-.47.18c-.07.13.07.26.31.31a26.5,26.5,0,0,0,4.37.35,32.07,32.07,0,0,0,14.25-3.4,19.83,19.83,0,0,0,8.79-2.19,5.62,5.62,0,0,0,3-3.78,8.71,8.71,0,0,0,2.82,1.37,11.8,11.8,0,0,0,3.87.65c.34,0,.69,0,1.08,0,.61-.06,1.16-.1,1.69-.13a14.85,14.85,0,0,0-4.72,3.31c-1.86,1.8-3.45,3.34-9.85,3.65-7.63.32-9.06.88-11,1.65a30.38,30.38,0,0,1-7.23,1.86c-.24,0-.39.17-.32.3a.53.53,0,0,0,.45.17h.1a36,36,0,0,0,8.12-1.69,20.77,20.77,0,0,1,7.81-1.13h1.49c5.23,0,10.32-1.8,12.13-4.36.73-1.38,2.39-2.63,5.09-3.8,4-.29,6.61-.39,8.53-.47a35.17,35.17,0,0,0,6.45-.61,4.86,4.86,0,0,0,.56.71,20.4,20.4,0,0,1-10.36,7.11,11.35,11.35,0,0,0-2.75,1.22l-.18.22c0,.12.13.22.36.24h.07a.67.67,0,0,0,.5-.17l0,0,.28-.09.06,0c.81-.27,1.58-.47,2.33-.66a19.49,19.49,0,0,0,5.9-2.3A5.28,5.28,0,0,1,180,162a20.61,20.61,0,0,1-6.95,1.33h-1.32c-.25,0-.48.09-.53.22s.09.23.33.26l.54.06A16.81,16.81,0,0,0,174,164h.22l-.24.2a12.76,12.76,0,0,1-3.8,2.36,11.54,11.54,0,0,1-5.37,1.09,28.21,28.21,0,0,1-8.36-1.39l-.23,0-.38.08,0,.31c1.72,1.08,5.26,1.9,8.46,2-1.08,1-4.53,1.52-8.16,2-4.37.6-8.86,1.22-10.16,2.91-1,1.35.24,3.17,3.82,5.52-2.62.42-5.3.71-8.12,1-.64.06-1.28.15-1.9.23s-1.23.17-1.85.23a59.28,59.28,0,0,1-6.86.39c-4.28,0-7.65-.46-9.27-1.24-.82-.4-1.21-.9-1.17-1.49v-1.93c0-1.93,0-2,.05-3.81s.12-5.43.29-15.13l.38-18.19.12-21.25.14-25.16.09-15h.07l.43-.11a40.38,40.38,0,0,1,19-6,3.69,3.69,0,0,1,1.26,3c-3.79.5-7.13,3.09-7.22,5,0,.18.15.35.39.42l.25,0,.47-.13,1.32-.9A32.79,32.79,0,0,1,142.46,76l.16.09.34.07.3,0a22.34,22.34,0,0,1,7.12-1.24c5.71,0,10.9,2.47,16.67,7.87l.47.16.4-.09c.3-.14.41-.4.25-.6C162.06,74.66,154.9,73,150,73a22,22,0,0,0-4.79.53c-.43-3.71-4.65-6.17-11.52-6.65a7.77,7.77,0,0,0,.41-5.72,26.29,26.29,0,0,1,10.5-4.49.67.67,0,0,0,.52-.43.44.44,0,0,0-.27-.51,5.14,5.14,0,0,0-2.29-.42,13.38,13.38,0,0,0-2.88.34,2.69,2.69,0,0,0-1.45.35,10.78,10.78,0,0,0-5,2.92c-2.89-7.29-1.77-11.59,10.74-15.09l1.12-.28a2.66,2.66,0,0,0,1.64-.48.49.49,0,0,0,.17-.69.76.76,0,0,0-.61-.28l-.2,0a83.24,83.24,0,0,0-8.95,2.44,24,24,0,0,0-2.94-.18c-5.43,0-10,1.76-12.72,4a15.66,15.66,0,0,0-.85-3,25.52,25.52,0,0,1,2-3.67,2.25,2.25,0,0,0,.45-.54l.27-.32.11-.11A13.8,13.8,0,0,1,127.36,37.13Z"/><path class="cls-3" d="M141.85,38.66a29.2,29.2,0,0,1,5.47-.53c4.75,0,8.78,1.27,11,3.45a6.34,6.34,0,0,1,1.85,6.12c7.38.45,10,4,12.16,6.84a15.84,15.84,0,0,0,2.34,2.72c2.23,1.73,5.11,2.34,7.88,2.93,3.36.71,6.81,1.45,8.85,4.11a4.41,4.41,0,0,1,.72,5.84l-.07.09-.38.46a2.6,2.6,0,0,1-.75.72l-.43.26-.51.14-.45-.14c-.22-.19-.15-.49.15-.68l.25-.15.22-.3a1.25,1.25,0,0,0,.29-.53l0-.09c2.56-5.11-6.1-6.94-11.32-8.05-1.15-.24-2.15-.45-2.82-.66a10,10,0,0,1-4.11-2.39,19,19,0,0,1-2.71-2.92l0,0c-1.76-3.35-5-5.6-9.75-6.66-.62,1.23-2.32,3.45-6.88,4.8,2.57,1.42,3.87,3.45,3.58,5.63-.33,2.54-2.71,4.86-6.68,6.59a6,6,0,0,0,3.3,3.65l.95.35,1.17.43a8,8,0,0,0,2.28.21,55.33,55.33,0,0,1,6.36.54c3.09.37,5.28,1.09,6.69,2.22l.66.51.65.52a4.26,4.26,0,0,1,.54.58l.39.45.07.07a5.73,5.73,0,0,0,2.09,1.65,6.2,6.2,0,0,0,2.79.68,7.19,7.19,0,0,0,2.94-.41,5.36,5.36,0,0,1,1.69-.58c.22-.11.47-.22.72-.32a6.56,6.56,0,0,0,.69-.33l.12-.06,2.47-1,1.14-.49.12,0c1-.29,2-.55,3.07-.77.59-.14,1.19-.26,1.78-.35,1.14-.2,2.29-.36,3.41-.47h.1c2.76,0,5.3,1.1,6.48,2.78l0,.05a9.44,9.44,0,0,1,1.07,4.41,8,8,0,0,1-.66,2.76c-.13.36-.26.7-.34,1l-.27.31-.49.13A2.91,2.91,0,0,0,199.55,86h0A15.62,15.62,0,0,1,198,87.74l-.15.12-.06,0-.22.27a.86.86,0,0,1-.68.29h-.1c-.3,0-.48-.21-.43-.42a1.16,1.16,0,0,1,.41-.56c.3-.34.8-.91,1.58-1.69a12.88,12.88,0,0,1,1.41-2.66,5.77,5.77,0,0,0,.84-3.25,7.49,7.49,0,0,0-1.17-3.64c-.67-1.1-2.43-1.82-4.48-1.82a15.43,15.43,0,0,0-2.38.19c-.55.09-1.11.2-1.66.32a18.23,18.23,0,0,0-2.9,1,26,26,0,0,0-3.13,1.47l-1.66,1-.19.08c-.35.11-.62.23-.91.35a10.7,10.7,0,0,1-1,.4,14.61,14.61,0,0,1-4.74.55,9.16,9.16,0,0,1-1.85-.19c0,.22,0,.31.1.42l.14.31-.13.72a6.49,6.49,0,0,1-2.37,4.61A11.28,11.28,0,0,1,171.05,87l.67.67c.85.87,1.08,1.11,4.12,2.1,2.88,1,3.67,3.06,2.1,5.31a3.19,3.19,0,0,0-.34,2.3,4.94,4.94,0,0,1,.07,1.11A26.91,26.91,0,0,1,189.21,96a22.89,22.89,0,0,1,11.26,2.61c.21.12.21.35,0,.52a1,1,0,0,1-.58.19l-.24,0a33.58,33.58,0,0,0-10-1.56,35,35,0,0,0-12.39,2.33,9,9,0,0,1-1.73,1.9,19,19,0,0,1-5.76,2.87c-.07.39-.12.77-.16,1.12.52,3.85,1.52,4.26,1.93,4.26l.5-.14,1.51-1.37c3.2-3.47,7.42-4,11.12-4,.9,0,1.79,0,2.65.06s1.59,0,2.33,0c2.48,0,4.39-.29,5.67-1.75a.83.83,0,0,1,.63-.25l.18,0c.29.06.41.27.28.46-1.78,2.64-4.91,2.86-8,2.86h-2.66c-3.66,0-7.49.29-10.41,3.66a5.78,5.78,0,0,1-3.94,1.84c-1.35,0-3.54-.72-3.05-5.64,0-.24-.06-.48-.09-.7a15.45,15.45,0,0,1-1.73.3c-.45.07-.91.13-1.71.29-7.74,1.52-8.41,3.5-9.31,6.18-.16.47-.32,1-.53,1.47l0,0a4,4,0,0,0-.4.83,5.56,5.56,0,0,1-.43.89,1.43,1.43,0,0,1-.26.54l-.17.37a1.88,1.88,0,0,1-.84,1c-1.63,2.06-1.78,4.73,1,5.95.24.1.28.3.09.46l-.49.14-.3,0a5.5,5.5,0,0,1-1.82-1.13,15,15,0,0,1,.67,1.5c.63,1.59,1.35,3.38,3.6,4.13.21.06.3.2.23.34a.59.59,0,0,1-.51.26H155a5.45,5.45,0,0,1-3.17-1.11,4.28,4.28,0,0,1-1.62-5.07.58.58,0,0,1,.53-.28h.06a.63.63,0,0,1,.46.18c-1.56-1.55-1.3-3.77-.07-5.62l0,0a.88.88,0,0,0,.33-.62l.25-.5.16-.28,0-.11a3.73,3.73,0,0,0,.4-.83,4.19,4.19,0,0,1,.44-.91c.21-.56.37-1.07.52-1.57a7.25,7.25,0,0,1,2.49-4.09,2.58,2.58,0,0,1-1.06-1.47l-.08-.18v0c-1.17-5.08-6.26-8.46-12.92-8.46a22.63,22.63,0,0,0-2.7.17,28.49,28.49,0,0,1-4.19.33c-5.25,0-8.16-1.77-8.72-3.54-.07-.21.12-.41.43-.48l.19,0a.66.66,0,0,1,.57.26c.94,1.56,2.7,2.23,5.89,2.23,1.36,0,2.83-.11,4.39-.23s3.31-.26,4.94-.26a18,18,0,0,1,4.55.5,13.81,13.81,0,0,1,5.67,2.85,16.8,16.8,0,0,1,2.72-1.34c-1.4-3.62,1.13-7.51,3.57-8.54l.36-.07.41.11.08.5c-1.43,1.63-1.88,4-2.27,6-.09.47-.17.92-.27,1.34a22.23,22.23,0,0,1,5.35-.68c3.78,0,7,1.12,8.7,3.06.15.16.07.38-.18.51l-.43.11-.37-.09a21.16,21.16,0,0,0-6.85-1.88c-.49,0-1,0-1.47,0a23.35,23.35,0,0,0-8.59,1.73,8.22,8.22,0,0,1,2.67,5.81,1.26,1.26,0,0,0,.45,1.22,23.59,23.59,0,0,1,7.24-2.39l.91-.16c3.09-.55,6-1.08,9.06-3.32,1.9-1.5,1.78-2.29,1.63-3.3a4.12,4.12,0,0,1,.46-2.93c1.3-2.2.73-2.44-1.13-3.21a15.24,15.24,0,0,1-5.56-3.58c-2.42-2.39-6.47-3.84-10.79-3.84a19.22,19.22,0,0,0-10.3,2.94,19.72,19.72,0,0,1-10.85,3.2c-3.93,0-7.39-1.18-9.52-3.26-.19-.19-.12-.45.16-.59l.39-.09.5.17c1.77,1.58,4.94,2.55,8.28,2.55a16.69,16.69,0,0,0,1.89-.11,15.52,15.52,0,0,0,7.55-2.81c.83-.52,1.68-1.06,2.75-1.62a23.08,23.08,0,0,1,9.86-2.17,19.74,19.74,0,0,1,10.9,3,8.07,8.07,0,0,0,1-.71,9.63,9.63,0,0,0,1.69-3.69l.13-.74.13-.74.08-.5h0l-.08-.17L173,79a8.47,8.47,0,0,1-2.49-2,4.41,4.41,0,0,1-.92-1.3,1.07,1.07,0,0,1-.36-.56l-.49-.39a20.82,20.82,0,0,0-5.74-2,26.12,26.12,0,0,0-4-.55c-.76-.06-1.47-.12-2.15-.22a13.31,13.31,0,0,1-5.29-1.66c-2-1.27-3.09-2.56-3.46-4.23a4.77,4.77,0,0,1-1.4.31.65.65,0,0,1-.61-.31.41.41,0,0,1,.19-.53c.42-.29.84-.57,1.28-.85,3.73-2.47,7.31-4.84,5.21-8.3a1.79,1.79,0,0,1-.41-.71l-.18-.38-.12-.13a3.14,3.14,0,0,0-.54-.66c-.2-.09-.41-.19-.63-.27a.51.51,0,0,1-.34-.42,16,16,0,0,1-4.42.48.63.63,0,0,1-.67-.46c0-.26.2-.51.55-.58,3.07-.68,9.48-2.09,11-4.92l.22-2c.23-6-9.31-6.64-13.42-6.64-.61,0-1.21,0-1.81,0h0a.67.67,0,0,1-.71-.49C141.21,39,141.47,38.74,141.85,38.66Z"/><path class="cls-3" d="M181.81,66.21a.64.64,0,0,1-.53-.22A3.74,3.74,0,0,0,178,64.4a13.57,13.57,0,0,0-4.81,1.19l-.14,0-.6.07a4.15,4.15,0,0,1-2.36-1,7.16,7.16,0,0,0-.83-.53,14.24,14.24,0,0,0-7.73-1.85c-.34,0-.61-.18-.63-.42s.2-.48.53-.56a15.19,15.19,0,0,1,3.49-.45,10.47,10.47,0,0,1,3.12.46,8.24,8.24,0,0,1,3.06,1.25,4,4,0,0,0,1.3.61,14.21,14.21,0,0,1,4.93-1c3,0,5,1.32,5.25,3.35,0,.23-.19.46-.51.56Z"/><path class="cls-3" d="M180.43,85.83a3.92,3.92,0,0,1-2.3-.84l0-.51a.88.88,0,0,1,.63-.24h.09a11.13,11.13,0,0,0,1.13.06c2.8,0,4.7-1.29,7.35-3.08L189.18,80l.52-.15.26,0c.24.09.35.28.27.47-.77,1.9-4.17,4.68-8.08,5.37,3.26,3.36,3,8.23.33,10.17L182,96l-.23,0c-.24-.07-.36-.24-.29-.43,1.19-3,.18-6.11-.65-8.67Z"/><path class="cls-3" d="M136.09,105c1.88-2.27,5.58-3.63,10.08-3.63q.53,0,1.05,0c.31,0,.54.18.53.38s-.27.37-.59.4c-8.14.55-9,3.43-9.73,5.93-.07.23-.14.46-.21.67a.58.58,0,0,1-.54.31h-.06a.63.63,0,0,1-.55-.24c-1.68-3-3.56-5.13-7.15-5.13a16.44,16.44,0,0,0-5.07,1l-.28,0-.5-.17c-.17-.16-.12-.38.11-.5a13.2,13.2,0,0,1,6.27-1.73A9.35,9.35,0,0,1,136.09,105Z"/><path class="cls-3" d="M137.67,115.53a19.56,19.56,0,0,0-8,13c0,.22-.08.41-.11.56s-.28.29-.56.29h0c-.28,0-.52-.13-.53-.3-.48-5.06,1.78-10.19,6.33-14,4-3.36,6.25-5.46,7.73-6.86a15.57,15.57,0,0,1,5.3-3.8l.37-.07.44.13c.2.15.16.38-.08.52a16.23,16.23,0,0,0-4.83,4.42A35.26,35.26,0,0,1,137.67,115.53Z"/><path class="cls-3" d="M127.15,135.83a10.72,10.72,0,0,0,2.8-1.11,3.73,3.73,0,0,0,1.12-.77c3.74-3.48,7-5.13,10.11-5.13,2.87,0,5,1.4,7.1,2.73s3.76,2.44,6,2.44a7.14,7.14,0,0,0,1.57-.18,9.85,9.85,0,0,1,2.62-.39c1.89,0,3.23.69,5.08,1.64a39.16,39.16,0,0,0,6.07,2.62c.23.08.29.25.13.39l-.5.17-.22,0a36.14,36.14,0,0,1-7-2.6,7.86,7.86,0,0,0-3.35-1.08,6.42,6.42,0,0,0-1.89.34,11,11,0,0,1-2.93.42c-3.13,0-5.48-1.52-7.58-2.89-1.69-1.09-3.29-2.13-4.86-2.13-3.51.14-5.83,2-7.85,3.62l-.7.55-.06,0a6.9,6.9,0,0,0-.72.47,5.83,5.83,0,0,1-.82.54,16.56,16.56,0,0,1-3.44,1.23l-.07,0a12.63,12.63,0,0,1-2.29.19,15.81,15.81,0,0,1-3.4-.37c-.26-.06-.4-.22-.31-.37a.62.62,0,0,1,.52-.21h.13a13.82,13.82,0,0,0,1.71.1A16.94,16.94,0,0,0,127.15,135.83Z"/><path class="cls-3" d="M122.51,142.29a.54.54,0,0,1-.51-.23c-.06-.14.08-.28.32-.33,8.76-1.87,10.31-3.27,12.23-6.54a8.34,8.34,0,0,1,6.48-3.81c.27,0,.48.11.51.26s-.13.3-.39.35c-2.57.48-3.53,2-4.61,3.69-1.75,2.75-3.88,6.1-14,6.6Z"/><path class="cls-3" d="M167.29,127.17a11.14,11.14,0,0,0-5.46,1.58l-.77.38-.39.08-.29-.05-.17-.37a6.09,6.09,0,0,1,2.93-2.33l-.13-.19a9.91,9.91,0,0,1-1.67-2.91l.2-.3.42-.1h.11c1.66.2,3.22,1.54,3.09,3a13.23,13.23,0,0,1,2-.15,8.91,8.91,0,0,1,5.29,1.48l-.05.4-.49.14-.19,0A20.27,20.27,0,0,0,167.29,127.17Z"/><path class="cls-3" d="M208.33,108.13l.23,0c2.85.87,5,5,1.91,9.19a.86.86,0,0,1-.64.26h0c-.26,0-.45-.1-.47-.25a13.11,13.11,0,0,1-.1-2.12c0-2.18,0-4.95-1.57-6.5-.13-.13-.08-.32.13-.46Z"/><path class="cls-3" d="M153.76,142l.22,0a14.46,14.46,0,0,1,7.07,3.77l.27.25a8.13,8.13,0,0,0,5.26,1.59,11.73,11.73,0,0,0,2.66-.3c1.33-.27,2.5-.44,3.54-.59,3.28-.49,5.45-.81,7.92-3.3a8.77,8.77,0,0,1,2.51-1.75,7,7,0,0,0,2.91-2.54,20.55,20.55,0,0,1,5.84-5,17.58,17.58,0,0,0,6.07-5.58c.61-1,1.13-1.76,1.15-1.79a.8.8,0,0,1,.61-.24h.07c.27,0,.44.16.39.32a9.17,9.17,0,0,1-.87,1.84,17.7,17.7,0,0,1-6.42,6.47,13.26,13.26,0,0,0-3.91,3.42,9.1,9.1,0,0,1-3.87,3.7,10.91,10.91,0,0,0-2.55,1.81c-3,2.79-6.07,3.21-9.58,3.69-1,.13-2,.27-3.05.47a15.62,15.62,0,0,1-3.24.33c-2.93,0-5.52-.79-6.94-2.12l-.31-.32c-1.3-1.4-2.34-2.51-6.07-3.65-.24-.07-.32-.24-.17-.38Z"/><path class="cls-3" d="M137.31,171c-.34.05-.71.11-1.24.17.32.85-.84,2-1.6,2.58,1-.08,1.82-.12,2.62-.12a15.74,15.74,0,0,1,5.47.87l.1.28-.41.12-.17,0a20.4,20.4,0,0,0-4.11-.42,33.37,33.37,0,0,0-6.27.74l-.86.16-.17,0-.36-.1,0-.26c3.73-2,4.68-3.16,4.72-3.77l-1,0c-.85,0-1.61,0-2.32-.11l-.9-.07c-.25,0-.41-.14-.36-.26a.53.53,0,0,1,.47-.19H131l.31,0,.56,0c.43,0,.84.05,1.24.05a25.73,25.73,0,0,0,3.65-.32c1.06-.14,2.27-.29,3.87-.42,8.85-.7,9.47-2.2,10.27-4.13s1.64-4,9.68-5.79c4.27-4.76,11.33-5.34,13.4-5.41h0c.25,0,.44.1.44.23s-.21.27-.47.29c-5.1.46-9.25,2.34-11.71,5.25a2,2,0,0,1,.59,3.3l-.46.14-.4-.14a4.54,4.54,0,0,1-.74-1.87,8.19,8.19,0,0,0-.23-.86c-6.5,1.45-7.47,3.34-8.4,5.14-1.08,2.11-2.09,4.06-11.94,4.55A28.64,28.64,0,0,0,137.31,171Z"/><path class="cls-3" d="M145.36,164.2a22.68,22.68,0,0,0-9.22,3.2c-2.45,1.42-4.74,2.75-12.42,2.75h-1.27c-.24,0-.43-.09-.45-.21s.15-.22.39-.24c2.61-.23,9.58-.85,11.12-2.3,1.21-1.26,6.51-3.39,11.7-3.66h0c.22,0,.41.08.45.19S145.59,164.16,145.36,164.2Z"/><path class="cls-3" d="M189.58,151.15l-.28,0-.35-.1.1-.35c4.58-2.35,9.32-5.1,11.49-10.05a.68.68,0,0,1,.56-.27h.06c.23,0,.41.09.44.21C202.09,143.44,198.12,148.6,189.58,151.15Z"/><path class="cls-3" d="M122.71,171.44h.12c.23,0,.37.15.33.26-.62,1.61.21,3.25,2.18,4.38a13.56,13.56,0,0,0,6.64,1.49c.64,0,1.31,0,2-.09h.09l.48,0a3.61,3.61,0,0,1,.73-.07c.63-.05,1.28-.08,1.92-.08a26.88,26.88,0,0,1,6.43.8l.19.27-.43.13h-.12a37.41,37.41,0,0,0-5-.4,38,38,0,0,0-4.16.29,22.45,22.45,0,0,1-2.56.14,14.46,14.46,0,0,1-7.91-2c-2.05-1.4-2.58-3.29-1.35-4.93Z"/><path class="cls-3" d="M99.1,39.48c-6.69,0-11.23,1-13.46,3-1.58,1.41-2.09,3.3-1.62,5.92,1.5,2.84,7.92,4.26,11,4.94.35.07.58.32.54.58a.63.63,0,0,1-.67.46,15.77,15.77,0,0,1-4.51-.51c-5.65,5.19-1.64,7.82,2.9,10.8.48.32,1,.63,1.42,1a.41.41,0,0,1,.19.53.65.65,0,0,1-.61.31,5.12,5.12,0,0,1-1.45-.32c-1.45,5-6,5.49-10.82,6.06-4.21.5-8.55,1-11.62,4.31a9.18,9.18,0,0,1-2.79,2c.08.31.17.61.25.91a13.38,13.38,0,0,0,2.85,6A19.45,19.45,0,0,1,82,82.16a22.89,22.89,0,0,1,9.84,2.17,17,17,0,0,1,2.69,1.49l1.19.75,1,.64a21,21,0,0,0,5.45,1.57,22.56,22.56,0,0,0,2.5.15,12,12,0,0,0,3.12-.36,11.43,11.43,0,0,0,4.6-2.24l.5-.16.41.09c.28.15.33.43.11.61a11.19,11.19,0,0,1-5.14,2.73,21.15,21.15,0,0,1-4.78.58,17.64,17.64,0,0,1-1.8-.09,25.11,25.11,0,0,1-6.3-1.7,17.34,17.34,0,0,1-2.72-1.48l-1.07-.68-1.15-.73a19.44,19.44,0,0,0-7.75-1.6c-4.39,0-8.59,1.48-11.2,3.92a15.53,15.53,0,0,1-5.73,3.55c-1.61.62-2.09.81-1.47,2.39v.06l.2.32.31.53a4.16,4.16,0,0,1,.42,2.91c-.15,1-.28,1.81,1.64,3.33,2.75,2.16,5.79,2.71,9,3.29A23.11,23.11,0,0,1,84,106.79a1.24,1.24,0,0,0,.46-1.19,8.23,8.23,0,0,1,2.68-5.85A30.42,30.42,0,0,0,78,98.11a16.83,16.83,0,0,0-7.8,1.82l-.35.08-.45-.12c-.24-.14-.31-.35-.16-.51,1.79-1.92,5.07-3,9-3a21.14,21.14,0,0,1,5.1.63c-.09-.42-.17-.87-.26-1.33-.38-2.05-.82-4.4-2.25-6l.08-.5.41-.11.36.07c2.44,1,5,4.94,3.54,8.58A16.12,16.12,0,0,1,88,99c3.52-2.88,8-3.23,11-3.23,1.78,0,3.52.14,5.2.26,1.47.11,2.86.22,4.11.22,3,0,4.58-.62,5.49-2.15a.68.68,0,0,1,.58-.26l.19,0c.31.06.5.27.43.48-1,2.86-4.48,3.25-8.13,3.25-.9,0-1.84,0-2.83,0s-2.08,0-3.14,0c-6.5,0-12.78,1-14.53,8.38l0,0-.07.19a2.55,2.55,0,0,1-1.12,1.49,17.48,17.48,0,0,1,2.47,4.67,26.71,26.71,0,0,0,2.22,4.48c1.36,1.92,1.66,4.34-.28,5.9h0a3.91,3.91,0,0,1-1.26,5,5.92,5.92,0,0,1-3.51,1.25H84.5a.6.6,0,0,1-.51-.26l.23-.34c2.26-.75,3-2.54,3.61-4.13.08-.22.17-.43.26-.64l-.22.09-.28,0-.48-.15c-.18-.14-.16-.34.06-.45,2.69-1.35,2.45-4,1-6a18,18,0,0,1-2.63-5.1c-1.13-3.07-1.76-4.79-9.21-6.13-.82-.17-1.28-.23-1.73-.29s-1-.14-1.8-.33l0,.11q0,.34-.09.72c.09,3.58-1.15,5.68-3.32,5.68a5,5,0,0,1-3.11-1.31l-.13-.2L66,110l-.29-.38c-3.22-3.53-7.71-3.63-12.05-3.71-3.71-.08-7.22-.15-8.92-2.75-.12-.2,0-.4.29-.47h.18a.85.85,0,0,1,.62.24c1.19,1.32,3,1.59,5.34,1.59.73,0,1.5,0,2.31-.05s1.76-.07,2.68-.07c4,0,8.46.55,11.85,4.55a9.07,9.07,0,0,0,1,.72,1.65,1.65,0,0,0,.64.16c.89,0,1.51-1.32,1.85-3.95,0-.43,0-.88-.1-1.34v0c-2.74-.84-5.93-2.42-7.45-4.61a35.22,35.22,0,0,0-12.36-2.29A34.68,34.68,0,0,0,41.47,99.1l-.24,0a.89.89,0,0,1-.58-.2c-.21-.17-.2-.39,0-.51A24.17,24.17,0,0,1,52,95.89a27.47,27.47,0,0,1,11.23,2.28A2.92,2.92,0,0,1,63.31,97a3.58,3.58,0,0,0,0-1.37,8.44,8.44,0,0,0-.54-1,2.72,2.72,0,0,1-.26-3.18.52.52,0,0,1,.24-.54v-.06l.13-.3.3-.23a5.68,5.68,0,0,1,2.58-1.13c.6-.09,1.15-.18,3.75-2.61l.23-.17c-2.86-1.63-4.5-4.46-4.1-7.08a11,11,0,0,1-2.63.33,11.33,11.33,0,0,1-3.9-.73,30.77,30.77,0,0,1-3.32-1.43A25.69,25.69,0,0,0,44.6,74.41,4.71,4.71,0,0,0,40.25,77c-1.54,3.12,0,7.85,3.41,10.76a.32.32,0,0,1,0,.58l-.34.07-.56-.17c-.67-.49-1.5-1.22-2.3-1.94s-1.6-1.42-2.23-1.88L38,84.3c-1.76-2.89-1.7-6.32.23-8.52a7.72,7.72,0,0,1,6-2.31h.77a27.52,27.52,0,0,1,11.46,3.27,32.13,32.13,0,0,0,3.09,1.36,6.68,6.68,0,0,0,5.69-.46A6.76,6.76,0,0,0,68,75.49a6.55,6.55,0,0,1,1.75-1.65c3.54-2,7.46-2.34,10.92-2.61,4.69-.36,8.43-.65,10.13-5-3.6-1.42-6-3.41-6.68-5.65-.63-2,.12-4,2.12-5.62.4-.32.8-.64,1.22-.93-4.78-1.39-6.46-3.73-7-4.94a6.5,6.5,0,0,0-2.9.8l-.07,0-.62.23A6.19,6.19,0,0,0,75,51l-.06,0a12.6,12.6,0,0,0-4.29,4.52c-1.52,2.43-2.94,4.7-11.3,6.51l-1.76.36c-2.89.57-5.17,1-7.28,3.84-1.56,2-.27,3.71.62,4.55a.37.37,0,0,1,0,.63l-.38.1L50,71.39a4.67,4.67,0,0,1-2.21-4.25c.21-2.6,2.61-5,6.28-6.3a6,6,0,0,1,1.21-.31,5.39,5.39,0,0,0,1-.25l.12,0c9.55-2,10.76-3.91,12.17-6.11a12.17,12.17,0,0,1,5.37-4.87,14.27,14.27,0,0,1,2.34-1c.28-.1.53-.18.75-.27l.15,0a34,34,0,0,1,3.7-.59,6.29,6.29,0,0,1,1.84-6.15c2.23-2.14,6.34-3.37,11.24-3.37a30.52,30.52,0,0,1,5.3.46c.38.07.64.34.61.63A.65.65,0,0,1,99.1,39.48Z"/><path class="cls-3" d="M61.41,62.47h.11a15.13,15.13,0,0,1,5.81,1l.56-.34a8.33,8.33,0,0,0,.8-.51l.13-.08a14.67,14.67,0,0,1,6-1.3,15.44,15.44,0,0,1,3.59.43.6.6,0,0,1,.54.56.58.58,0,0,1-.63.42A14.05,14.05,0,0,0,69.62,65a2.32,2.32,0,0,1-1.49.66H67l-.36-.07A13.23,13.23,0,0,0,62,64.43a3.68,3.68,0,0,0-3.34,1.81.65.65,0,0,1-.55.24l-.25,0c-.33-.09-.55-.33-.53-.56C57.42,64.43,58.74,62.8,61.41,62.47Z"/><path class="cls-3" d="M50.73,81.93a4.08,4.08,0,0,1-1.15-1.66c0-.18.09-.35.33-.42l.22,0,.53.15c.57.37,1.11.74,1.63,1.1C55,82.89,57,84.31,60,84.31a9.51,9.51,0,0,0,1-.06h.09a.88.88,0,0,1,.63.24l0,.51a4,4,0,0,1-2.31.84l-.35,1.07c-.83,2.56-1.84,5.68-.65,8.67.07.19,0,.36-.3.43l-.22,0-.54-.16c-2.46-1.82-3.45-6.43.33-10.18A12,12,0,0,1,50.73,81.93Z"/><path class="cls-3" d="M116.25,104.72l-.29,0a15.58,15.58,0,0,0-5-1c-3.44,0-5.33,2-7.23,5.17a.63.63,0,0,1-.54.23h-.09a.57.57,0,0,1-.52-.34l0-.17c-.46-2.28-1.18-5.81-9.89-6.4-.31,0-.57-.2-.58-.4s.21-.37.53-.38.65,0,1,0c3.55,0,7.94,1,10.15,3.63a9.68,9.68,0,0,1,6.78-2.67,12.23,12.23,0,0,1,6.13,1.74c.23.13.27.34.09.5Z"/><path class="cls-3" d="M101.68,112.26c6.64,5.89,10.18,9,9.65,16.83,0,.16-.24.29-.53.3h0c-.28,0-.52-.12-.56-.28-2-8.29-3.91-10-7.77-13.45a77,77,0,0,1-7-7A29.55,29.55,0,0,0,91.19,105a.29.29,0,0,1,0-.53l.39-.09.44.11a30.79,30.79,0,0,1,5,3.61C98.75,109.67,100.32,111.05,101.68,112.26Z"/><path class="cls-3" d="M93.15,130.63a7.4,7.4,0,0,1,5-1.73c2.35,0,6.11.88,10.56,5a12.18,12.18,0,0,0,7.18,2.32,13.56,13.56,0,0,0,1.55-.09h.11a.58.58,0,0,1,.51.21c.08.15,0,.31-.31.37a13.16,13.16,0,0,1-3,.32,13.6,13.6,0,0,1-7.81-2.43c-3.56-2.88-6.37-4.29-8.55-4.29-1.82,0-3.22.94-4.84,2a13.89,13.89,0,0,1-7.51,2.89h0a11.94,11.94,0,0,1-2.49-.26l-.44-.09h-.08a6.47,6.47,0,0,0-1.76-.26,7.93,7.93,0,0,0-3.73,1.2,20.92,20.92,0,0,1-2.26,1.05l0,0-4.47,1.32-.24,0-.5-.16c-.16-.14-.1-.32.14-.4a39.4,39.4,0,0,0,6.06-2.62c1.85-.95,3.2-1.64,5.09-1.64a9.85,9.85,0,0,1,2.64.4,6.53,6.53,0,0,0,1.36.14C88.41,134,91.54,131.88,93.15,130.63Z"/><path class="cls-3" d="M98.47,131.2h.06c4,.26,5.17,2,6.34,3.73,1.33,2,2.82,4.25,8.56,5.67l1.87.39c.58.12,1.17.24,1.9.41.23.05.37.18.32.32s-.26.24-.51.24a23.67,23.67,0,0,1-4.26-.5c-6.77-1.15-8.48-3.85-9.87-6.06-1-1.63-1.93-3.06-4.55-3.6-.26-.05-.42-.21-.37-.36S98.22,131.2,98.47,131.2Z"/><path class="cls-3" d="M79.43,129.16l-.29.05-.38-.08-.55-.27c-2.12-1-3.53-1.73-5.71-1.73a19,19,0,0,0-4.39.64l-.2,0-.48-.14-.05-.4a8.87,8.87,0,0,1,5.29-1.48,13.1,13.1,0,0,1,2,.15c-.12-1.42,1.44-2.76,3.1-3h.11l.41.1.2.3a6.72,6.72,0,0,1-1.21,2.18c-.24.34-.46.66-.63.93a7.24,7.24,0,0,1,3,2.32Z"/><path class="cls-3" d="M30.57,115.24a14.37,14.37,0,0,1-.1,2.12c0,.15-.21.25-.47.25h0a.86.86,0,0,1-.64-.26c-3.1-4.18-.94-8.32,1.91-9.19l.23,0,.52.15c.21.14.27.33.13.46C30.59,110.29,30.58,113.06,30.57,115.24Z"/><path class="cls-3" d="M86.38,142.56c-3.62,1.21-4.78,2.39-5.8,3.43a7.71,7.71,0,0,1-4.45,2.48,11.6,11.6,0,0,1-3.06.42,14.38,14.38,0,0,1-3.3-.45,14.79,14.79,0,0,0-2.44-.4c-5.37-.25-7.09-1.52-10-3.66-.82-.6-1.76-1.29-2.91-2.06a9.77,9.77,0,0,1-2.87-2.87,10.89,10.89,0,0,0-3.48-3.32c-4.83-3.06-7.53-6-8.17-9,0-.18.16-.31.45-.31h0a.76.76,0,0,1,.65.29c1.85,4.09,5.59,6.61,8.6,8.34a13,13,0,0,1,4,3.6,9.6,9.6,0,0,0,2.6,2.49c1.25.84,2.21,1.56,3.05,2.19,2.62,2,3.8,2.85,8.18,3.18a17,17,0,0,1,2.89.45,12.66,12.66,0,0,0,2.87.41,10,10,0,0,0,2-.23,7.5,7.5,0,0,0,3.95-2.09c1.21-1.08,2.59-2.31,6.59-3.37l.22,0,.49.15C86.68,142.32,86.62,142.49,86.38,142.56Z"/><path class="cls-3" d="M103,170.37a27.53,27.53,0,0,0,3.66.31c.4,0,.81,0,1.24,0l.57,0,.3,0h.08c.22,0,.42.07.47.18s-.11.24-.35.26l-.91.08c-.7,0-1.47.1-2.32.1-.33,0-.66,0-1,0,.22.87,2.1,2.07,3.49,3,.49.32.91.59,1.23.82l0,.26-.34.08-.19,0a33.83,33.83,0,0,0-7.05-.91,20.5,20.5,0,0,0-4.17.43h-.18l-.41-.11.1-.28a15.6,15.6,0,0,1,5.48-.87c.8,0,1.65,0,2.62.12-.76-.61-1.91-1.71-1.61-2.57l-1.24-.08c-8-.53-14.38-1-15.54-5.46-.65-2.49-5.88-4-8.17-4.61a8.59,8.59,0,0,0-.25.85,6,6,0,0,1-.71,1.87l-.4.14h0l-.45-.13a2,2,0,0,1,.58-3.3c-1.88-2.08-5.43-4.65-11.71-5.26-.27,0-.47-.15-.47-.29s.19-.23.44-.23h0c5.59.16,10.49,2.16,13.41,5.41,8.39,1.89,9.21,4,9.92,5.91s1.27,3.33,10,4C100.77,170.07,102,170.23,103,170.37Z"/><path class="cls-3" d="M117.8,169.93c0,.12-.21.21-.45.21h-1.27c-7.68,0-10-1.33-12.42-2.75a22.68,22.68,0,0,0-9.22-3.2c-.23,0-.39-.16-.35-.28s.23-.19.45-.19h0c5.49.32,7.49,1.4,9.59,2.54,2.34,1.27,4.95,2.69,13.23,3.42C117.65,169.71,117.81,169.81,117.8,169.93Z"/><path class="cls-3" d="M38.65,140.42h.07a.67.67,0,0,1,.55.28c2.19,5.25,6.7,7.57,10.26,9.41l1.23.64.1.34-.36.1-.27,0c-10.09-2.92-12.39-8.79-12-10.52C38.24,140.5,38.42,140.42,38.65,140.42Z"/><path class="cls-3" d="M96,178.08a31.41,31.41,0,0,1,6.83-.72c1.21,0,2.3.06,3.35.11.89.05,1.74.09,2.54.09a10.64,10.64,0,0,0,6.12-1.66c1.94-1.17,2.34-3,1.85-4.2,0-.11.1-.22.32-.25h.13l.43.14a2.68,2.68,0,0,1,.56,1.93c-.41,4.24-5,4.81-10,4.81-1.11,0-2.28,0-3.41,0s-2.39-.06-3.57-.06a36.28,36.28,0,0,0-4.84.26h-.12l-.44-.14C95.65,178.24,95.74,178.12,96,178.08Z"/><path class="cls-4" d="M69,210.87a29.52,29.52,0,1,1,29.52-29.52A29.55,29.55,0,0,1,69,210.87Z"/><path class="cls-1" d="M69,153a28.41,28.41,0,1,1-28.4,28.4A28.43,28.43,0,0,1,69,153m0-2.23a30.64,30.64,0,1,0,30.63,30.63A30.66,30.66,0,0,0,69,150.72Z"/><circle class="cls-5" cx="69.02" cy="181.35" r="15.98"/><circle class="cls-6" cx="69.02" cy="181.35" r="7.99"/><path class="cls-7" d="M70.35,188a8,8,0,0,1-8-8,7.93,7.93,0,0,1,1.73-4.92,8,8,0,1,0,11.19,11.18A7.69,7.69,0,0,1,70.35,188Z"/><path class="cls-8" d="M71.24,194.67a16,16,0,0,1-13.32-24.81,16,16,0,1,0,24.41,20.33A16,16,0,0,1,71.24,194.67Z"/><circle class="cls-4" cx="170.63" cy="180.17" r="29.52"/><path class="cls-1" d="M170.63,151.77a28.41,28.41,0,1,1-28.4,28.4,28.43,28.43,0,0,1,28.4-28.4m0-2.23a30.63,30.63,0,1,0,30.64,30.63A30.66,30.66,0,0,0,170.63,149.54Z"/><circle class="cls-5" cx="170.63" cy="180.17" r="15.98"/><circle class="cls-6" cx="170.63" cy="180.17" r="7.99"/><path class="cls-7" d="M172,186.83a8,8,0,0,1-8-8,7.87,7.87,0,0,1,1.73-4.92,7.91,7.91,0,0,0-3.06,6.25,8,8,0,0,0,14.24,4.93A7.64,7.64,0,0,1,172,186.83Z"/><path class="cls-8" d="M172.85,193.49a16,16,0,0,1-13.31-24.81A16,16,0,1,0,184,189,16,16,0,0,1,172.85,193.49Z"/></svg>