<?xml version="1.0" encoding="UTF-8"?>
<svg id="_レイヤー_1" data-name="レイヤー_1" xmlns="http://www.w3.org/2000/svg" viewBox="0 0 660 660">
  <defs>
    <style>
      .cls-1 {
        fill: #4742c2;
      }

      .cls-2 {
        fill: #fff;
      }

      .cls-3 {
        fill: #ebebf7;
      }
    </style>
  </defs>
  <polygon class="cls-2" points="28 537.1 489.45 537.1 559.68 166.05 98.22 166.05 28 537.1"/>
  <polygon class="cls-3" points="98.22 165.5 29.27 537.1 170.32 537.56 98.22 165.5"/>
  <g>
    <path class="cls-1" d="M268.76,539.88c-17.51,0-35.02-.02-52.51-.03-17.47-.02-34.92-.03-52.36-.03-7.44,0-14.86,0-22.29.01-6.95-.03-14.03-.05-21.17-.06-31.11-.07-63.27-.14-92.88-1.81-.14,0-.27-.08-.36-.18-.09-.11-.13-.25-.11-.39,8.43-53.96,18.91-108.98,29.05-162.19,2.96-15.52,5.91-31.02,8.81-46.49,2.66-13.46,5.45-27.85,8.4-43.08,4.86-25.05,9.88-50.95,14.46-73.38l.16-.8c3-14.95,6.1-30.42,9.24-45.58.09-.49.53-.85,1.03-.85h461.45c.14,0,.29.07.39.17.16.18.2.38.1,1.31.03.12.01.24-.04.35-1.77,14.67-28.37,153.66-47.82,255.25-11.61,60.65-21.65,113.07-21.8,115.08,0,.08,0,.17-.04.25-.08.17-.25.29-.44.29-74.83,1.92-150.56,2.18-221.25,2.18ZM259.82,534.28c22.91.18,46.72.23,69.75.28,53.14.12,108.1.24,158.93,1.91.39-2.03,2.16-11.47,4.7-25.03,42.05-224.07,63.06-334.1,65.76-344.34H99.11c-2.56,14.9-5.25,29.99-7.85,44.59l-.17.92c-5.81,32.54-13.67,75.7-21.04,115.45-2.68,14.08-5.33,28.15-7.97,42.21-10.24,54.42-20.82,110.68-33.04,165.94,43.34-1.75,86.48-1.99,123-1.99,12.96,0,25.92.03,38.89.07,12.98.03,25.97.07,38.97.07,10.97,0,20.75-.02,29.89-.07h0Z"/>
    <path class="cls-1" d="M98.22,165.5h461.45c.06,0,.05.37-.03,1.09,0,0,0,0-.01.01H98.69c.03-.15.05-.3.08-.45l-.54.45h.47c-2.64,15.34-5.36,30.64-8.08,45.93-6.34,35.54-14.43,79.78-21.04,115.44-13.27,69.75-25.77,139.28-41.15,208.76,41.41-1.69,82.53-2.02,123.63-2.02,25.93,0,51.84.13,77.83.13,9.97,0,19.94-.02,29.93-.07,75.51.6,155.96-.21,229.09,2.21,0,0,0,0,0,0,.05,0,68.65-367.02,70.73-370.38h0c-2.54,22.16-70.17,369.96-69.64,370.59-73.37,1.88-147.36,2.18-221.28,2.18-34.98,0-69.94-.07-104.83-.07-7.44,0-14.86,0-22.29.01-37.08-.18-77.59.19-114.02-1.87,10.85-69.47,24.85-139.38,37.86-208.66,7.11-36.01,15.54-80.64,22.85-116.46,3.1-15.48,6.21-30.95,9.4-46.38.05-.27.28-.45.54-.45M559.66,166.58s.01,0,.02.02h-.03s0,0,0-.01c0,0,.01,0,.01,0M559.68,164.5H98.22c-.75,0-1.39.53-1.53,1.27-3.16,15.26-6.28,30.84-9.3,45.9l-.09.46c-4.58,22.44-9.6,48.35-14.46,73.4-2.95,15.22-5.74,29.61-8.4,43.06-2.9,15.46-5.9,31.22-8.81,46.46-10.14,53.22-20.63,108.25-29.06,162.24-.04.28.03.56.21.78.18.22.44.35.72.37,29.62,1.68,61.79,1.74,92.9,1.81,7.15.02,14.22.03,21.17.07,7.44,0,14.86-.01,22.29-.01,17.43,0,34.88.02,52.34.03,17.49.02,34.98.03,52.48.03,70.71,0,146.46-.26,221.31-2.18.38,0,.73-.24.89-.59.06-.14.09-.29.09-.44.26-2.53,10.24-54.67,21.79-114.99,19.44-101.53,46.02-240.41,47.82-255.25.05-.15.07-.3.05-.45.09-.85.1-1.26-.23-1.63-.19-.21-.47-.34-.76-.34h0ZM99.53,167.61h458.81c-3.38,13.89-23.89,121.28-65.6,343.58-2.42,12.9-4.14,22.08-4.65,24.78-50.69-1.66-105.49-1.78-158.49-1.9-23.04-.05-46.86-.1-69.77-.28-9.16.05-18.95.07-29.94.07-13,0-26.19-.03-38.95-.07-12.74-.03-25.92-.06-38.87-.06-36.34,0-79.25.24-122.38,1.96,12.16-55.07,22.7-111.12,32.9-165.33,2.6-13.82,5.29-28.12,7.97-42.19,7.36-39.72,15.22-82.88,21.04-115.45l.11-.62c2.59-14.56,5.27-29.62,7.83-44.48h0Z"/>
  </g>
  <polygon class="cls-2" points="632.07 537.1 170.62 537.1 100.4 166.05 561.85 166.05 632.07 537.1"/>
  <path class="cls-2" d="M562.39,165.95c-.15-1.31-461.45-.01-462.08-.44-.31.05-.51.34-.46.65,5.09,31.06,10.51,62.07,15.9,93.07,4,23.15,12.48,69.82,16.6,92.94,9.15,50.34,20.6,112.26,30.09,162.45,1.37,7.83,2.89,15.7,7.8,22.83,19.2.89,38.81.48,58.18.9,133.72,1.17,270.37.62,404.07-.9-20.81-123.23-44.94-248.88-70.11-371.5Z"/>
  <g>
    <path class="cls-1" d="M377.89,539.48c-51.3,0-101.59-.21-149.46-.63-7.54-.16-15.24-.2-22.69-.24-11.69-.06-23.78-.12-35.51-.66-.16,0-.3-.09-.39-.21-5.16-7.49-6.67-16.1-7.88-23.02-9.01-47.66-20.54-109.91-30.09-162.45-1.33-7.46-3.11-17.36-5.05-28.13-4.14-23.03-8.84-49.13-11.55-64.82l-.88-5.06c-5.02-28.83-10.21-58.64-15.02-88.02-.05-.27,0-.55.17-.79s.41-.39.69-.44c.03,0,.05,0,.08,0,.03,0,.06,0,.09,0,.7.06,10.76.08,29.89.08,25.45,0,64.93-.05,109.9-.1,60.27-.07,128.57-.15,187.48-.15,42.18,0,73.5.04,95.75.13,39.38.15,39.39.27,39.47.92,28.01,136.5,50.95,258.02,70.1,371.47.02.14-.02.29-.11.4s-.23.18-.38.18c-89.11,1.02-174.77,1.53-254.62,1.53ZM101.7,167.1c6.12,28.54,12.06,57.59,17.81,85.68l1.13,5.51c3.55,17.16,9.46,46.98,14.21,70.94,1.63,8.23,3.12,15.7,4.3,21.65,7.77,39.34,18.59,95.21,26.93,139.03l4.43,23.18c1.42,7,3.02,14.92,1.28,23.38,56.02-1.29,118.03-1.92,189.56-1.92s144.84.62,215.47,1.23c18.15.15,36.23.31,54.21.45-24.08-115.15-47.03-236.04-70.14-369.53-4.34.21-37.44.45-220.07.45-58.06,0-116.96-.02-161.93-.04-27.77-.01-50.22-.02-63.89-.02-6.64,0-11.2,0-13.29,0Z"/>
    <path class="cls-1" d="M427.67,165.35c75.75,0,134.67.13,134.73.6,25.16,122.62,49.3,248.27,70.11,371.5-84.18.96-169.55,1.53-254.61,1.53-50.03,0-99.94-.2-149.46-.63-19.37-.42-38.99-.01-58.18-.9-4.91-7.12-6.43-14.99-7.8-22.83-9.49-50.19-20.94-112.11-30.09-162.45-4.12-23.12-12.6-69.79-16.6-92.94-5.4-31.01-10.81-62.01-15.9-93.07-.06-.31.15-.6.46-.65.1.07,11.22.09,29.96.09,59.1,0,193.94-.25,297.39-.25M100.4,166.61s0,0,0,0h0s.25,0,.68,0c6.56,30.56,12.8,61.18,19.07,91.8,4.78,23.1,13.9,69.47,18.51,92.58,8.15,41.26,19.07,97.72,26.93,139.03l4.43,23.18c1.56,7.71,3.03,15.44,1.15,23.8,62.12-1.44,125.94-1.93,190.19-1.93,90.31,0,181.5.98,270.29,1.68-25.75-123.09-48.92-246.81-70.34-370.57.02,0,.02-.01,0-.02,0,0,0,.01,0,.02-1.55.39-109.48.48-220.48.48-93.98,0-190.16-.06-225.91-.06-7.35,0-12.14,0-13.84,0-.05-.22-.09-.43-.14-.65l-.54.66M427.67,164.35c-58.92,0-127.24.08-187.51.15-45.31.05-84.44.1-109.88.1-18.91,0-28.93-.03-29.81-.08-.05,0-.1-.01-.15-.01-.05,0-.11,0-.16.01-.42.07-.78.29-1.02.64-.24.34-.33.77-.26,1.18,4.8,29.26,9.97,58.97,14.97,87.7l.93,5.36c2.7,15.64,7.39,41.66,11.52,64.62,1.95,10.85,3.75,20.83,5.08,28.32,9.55,52.54,21.08,114.79,30.09,162.46,1.22,6.96,2.74,15.63,7.96,23.21.18.26.46.42.78.43,11.75.55,23.84.61,35.53.66,7.45.04,15.14.08,22.68.24,47.9.42,98.19.63,149.48.63,79.86,0,165.53-.52,254.62-1.53.29,0,.57-.13.76-.36.19-.22.27-.52.22-.81-19.16-113.44-42.09-234.97-70.11-371.49-.12-.9-.56-.91-3.66-1-1.73-.05-4.34-.09-7.74-.13-6.45-.08-16.06-.14-28.56-.19-22.25-.08-53.57-.13-95.75-.13h0ZM340.83,167.66c175.31,0,213.29-.22,219.64-.44,23.05,133.07,45.93,253.63,69.94,368.52-17.78-.14-35.66-.29-53.6-.45-70.61-.6-143.63-1.23-215.43-1.23-71.29,0-133.12.62-188.98,1.9,1.56-8.33,0-16.09-1.4-22.97l-4.43-23.17c-8.35-43.9-19.17-99.78-26.93-139.03-1.19-5.96-2.68-13.47-4.31-21.72-4.75-23.93-10.65-53.72-14.2-70.86l-1.11-5.43c-5.71-27.93-11.62-56.79-17.7-85.17,2.29,0,6.59,0,12.6,0,13.64,0,36.07,0,63.82.02,43.87.02,103.96.04,162.09.04h0Z"/>
  </g>
  <path class="cls-3" d="M561.87,165.5c-9.62-.3-19.24-.51-28.86-.7-48.06-1.06-96.13-1.43-144.2-1.52-95.4-.09-193.11.39-288.42,2.22-.34,0-.59.33-.53.66l14.42,76.2c.05.26.27.45.54.45,37.3.64,78.32,1.1,115.77,1.36,114.03.5,232.21,1.67,346.11-1.56-5.13-25.46-8.83-52.16-14.83-77.11Z"/>
  <g>
    <path class="cls-1" d="M394.12,245.29c-39.98,0-80.41-.21-119.52-.41-14.73-.08-29.41-.15-44.02-.22-39.73-.28-80.85-.76-115.78-1.36-.5,0-.94-.36-1.03-.86l-14.42-76.19c-.06-.31.02-.62.22-.86.2-.24.49-.38.79-.39,78.01-1.5,165.53-2.23,267.56-2.23,6.97,0,13.92,0,20.87,0,56.06.11,101.88.59,144.21,1.52,9.21.18,19.09.4,28.86.7.22,0,.42.16.47.38,3.68,15.32,6.55,31.55,9.32,47.24,1.74,9.86,3.54,20.05,5.52,29.88.03.14,0,.29-.1.41s-.23.18-.38.19c-52.56,1.49-110.57,2.19-182.59,2.19ZM389.68,239.22c72.68,0,131.66.69,185.55,2.16-4.56-23.5-9.43-48.72-14.25-74.25-9.49.29-19.04.49-27.96.67-42.33.93-88.15,1.41-144.21,1.52-8.18.01-16.5.02-24.93.02-52.92,0-104.14-.23-148.12-.67-41.91-.33-79.24-.84-114.08-1.54l14.02,74.05c40.99-.67,80.43-1.14,114.08-1.35,11.41-.06,22.84-.12,34.3-.18,41.12-.22,83.63-.44,125.61-.44Z"/>
    <path class="cls-1" d="M367.89,163.27c6.99,0,13.95,0,20.92,0,48.07.09,96.14.47,144.2,1.52,9.62.19,19.24.4,28.86.7,6,24.94,9.71,51.64,14.83,77.11-60.07,1.71-121.35,2.19-182.57,2.19-54.85,0-109.65-.39-163.54-.62-37.45-.26-78.47-.72-115.77-1.36-.27,0-.5-.2-.54-.45l-14.42-76.2c-.06-.33.19-.65.53-.66,88.36-1.7,178.78-2.23,267.51-2.23M101.07,166.62l14.21,75.07c-.15,0-.31,0-.46,0l.54.45-.09-.46c36.96-.61,77.44-1.13,114.5-1.35,52.92-.26,106.4-.61,159.92-.61,62.25,0,124.55.48,186.15,2.18-4.88-25.14-9.71-50.17-14.45-75.28.15,0,.3,0,.46-.01l-.54-.45c.03.16.06.31.09.47-9.46.29-18.92.49-28.38.68-48.06,1.06-96.13,1.43-144.2,1.52-8.17.01-16.49.02-24.91.02-48.71,0-100.86-.2-148.14-.67-38.23-.3-76.46-.78-114.69-1.55l-.13-.67-.54.66c.22,0,.45,0,.67.01M367.89,162.27c-102,0-189.51.73-267.52,2.23-.45,0-.88.22-1.17.57-.29.36-.41.82-.33,1.27l14.42,76.2c.14.73.78,1.26,1.53,1.27,34.97.6,76.08,1.09,115.76,1.36,14.61.06,29.29.14,44.02.22,39.11.2,79.55.41,119.53.41,72.02,0,130.04-.7,182.6-2.19.29,0,.57-.15.75-.38.18-.23.26-.53.2-.82-1.98-9.83-3.78-20.02-5.52-29.87-2.77-15.7-5.64-31.93-9.32-47.27-.11-.44-.49-.75-.94-.77-9.77-.3-19.65-.51-28.87-.7-42.34-.93-88.17-1.41-144.22-1.52-6.97,0-13.93,0-20.92,0h0ZM116.1,240.68l-13.82-73.03c34.68.69,71.81,1.19,113.47,1.52,43.99.44,95.22.67,148.14.67,8.42,0,16.74,0,24.91-.02,56.05-.11,101.88-.59,144.22-1.52,8.79-.17,18.19-.38,27.54-.66,4.78,25.27,9.57,50.09,14.06,73.22-53.72-1.46-112.53-2.14-184.92-2.14-41.96,0-84.46.22-125.55.44-11.49.06-22.95.12-34.39.18-33.51.21-72.8.67-113.67,1.34h0Z"/>
  </g>
  <g>
    <g>
      <path class="cls-1" d="M557.9,506.57c-.5,0-.93-.36-1.03-.84-2.35-11.61-4.82-24.06-7.55-38.05-19.23.39-39.48.66-61.87.83,2.42,13.28,4.58,25.33,6.6,36.83.1.57-.29,1.12-.86,1.22-.03,0-.15.02-.18.02-.5,0-.93-.35-1.03-.84-2.33-11.28-4.77-23.45-7.46-37.2-17.14.12-35.47.18-56.03.18h-4.83c2.3,13.6,4.1,25.59,5.5,36.65.07.58-.33,1.1-.91,1.18-.02,0-.11,0-.13,0-.48,0-.9-.33-1.02-.79-2.83-11.18-5.6-23.3-8.47-37.05-9.87,0-19.73-.02-29.6-.05-10.2-.03-20.4-.07-30.6-.11,2.38,13.75,4.3,25.8,5.85,36.81.04.28-.03.56-.2.78s-.42.37-.7.41c-.02,0-.12.01-.15.01-.49,0-.91-.33-1.03-.81-2.71-11.45-5.38-23.63-8.18-37.22-21.41-.1-41.31-.24-60.79-.42,2.32,13.42,4.34,25.61,6.15,37.25.08.58-.32,1.12-.89,1.2-.02,0-.13.01-.15.01-.49,0-.91-.33-1.02-.81-2.63-11.44-5.28-23.77-8.12-37.68-20.7-.2-40.96-.46-60.22-.76.56,3.28,1.11,6.55,1.63,9.84,1.22,7.67,2.76,17.81,3.89,28.23.06.58-.36,1.1-.94,1.16-.02,0-.1,0-.11,0-.47,0-.89-.32-1.02-.78-3.06-11.38-5.93-23.63-9.01-38.55-15.74-.26-29.75-.52-42.8-.8-.58-.01-1.04-.49-1.03-1.08.01-.57.47-1.02,1.03-1.03,14.02-.25,28.04-.49,42.06-.71-.91-4.46-1.79-8.93-2.66-13.4-3.03-16-6.07-32.32-9.05-48.5-15.44-.18-29.41-.36-42.7-.55-.58,0-1.05-.49-1.04-1.07,0-.58.46-1.03,1.04-1.04,14.01-.16,28.05-.32,42.13-.47-4.02-21.88-7.56-41.6-10.82-60.27l-.05-.27-10.14-.09c-11.04-.1-22.09-.19-33.13-.28-.28,0-.55-.11-.74-.31-.2-.2-.31-.47-.3-.75,0-.57.47-1.04,1.05-1.04,14.13-.09,28.3-.19,42.49-.29h.3c-1.35-7.71-3.31-19.21-4.27-25l-.48-2.85c-1.4-8.26-2.84-16.8-4.18-25.21-.04-.28.02-.56.19-.78.17-.23.41-.38.69-.42.03,0,.14-.01.17-.01.49,0,.92.35,1.03.83,3.63,16.73,7.3,34.21,11.23,53.42,20.24-.14,40.53-.29,60.85-.42-2.28-12.52-4.99-28.08-7.39-41.84l-1.88-10.76c-.1-.57.28-1.12.86-1.22.03,0,.15-.02.18-.02.5,0,.93.36,1.03.84,2.69,13.49,5.44,27.12,8.2,40.83l2.45,12.14c14.01-.09,28.04-.17,42.07-.25-11.38-15.52-14.98-35.97-9.16-52.41l-.03-.51c-.02-.38-.04-.77-.05-1.15-.12-3.64.13-7.52.79-12.22.11-.54.54-.9,1.06-.9.58,0,1.03.45,1.04,1.05.02,2.22.14,4.5.36,6.81,4.43-7.73,11.05-13.51,19.71-17.2,6.98-2.81,14.48-4.24,22.32-4.24,23.21,0,46.13,12.46,58.37,31.75,4.74,7.24,8,15.85,9.19,24.24,1.27,9,.15,17.45-3.24,24.51,16.75,0,33.25.04,49.09.11-2.25-11.97-4.46-24.15-6.61-35.92-.99-5.42-1.97-10.83-2.96-16.25-.05-.28,0-.56.17-.79.16-.23.4-.39.68-.44.06-.01.13-.02.19-.02.5,0,.94.36,1.03.85,2.23,11.48,4.48,23.04,6.74,34.66l3.49,17.92c21.54.1,42.48.26,62.28.48-2.68-14.26-5.33-28.77-7.89-42.8l-1.8-9.86c-.05-.28.01-.56.17-.79.16-.23.4-.39.68-.44.06-.01.13-.02.19-.02.5,0,.94.36,1.03.85l1.21,6.23c3.01,15.46,6.05,31.1,9.1,46.85,16.56.19,31.65.4,46.12.65.58.01,1.05.5,1.03,1.08-.01.56-.46,1.02-1.03,1.03-14.07.31-28.95.55-45.45.75,4.29,22.18,8.05,41.73,11.48,59.75,6.65.09,13.29.18,19.92.29l4.51.09c7.06.14,14.36.29,21.55.51.58.02,1.04.51,1.02,1.09-.02.56-.47,1-1.02,1.02-7.24.22-14.6.37-21.72.51l-4.33.09c-6.33.13-12.73.24-19.18.34,4.25,22.38,8,42.37,11.44,61.06,6.7.12,13.39.25,20.09.4,8.5.21,17.29.43,26.06.75.28,0,.54.13.73.34.19.21.29.48.28.76-.02.55-.47.99-1.01,1.01-8.84.33-17.59.55-26.06.75-6.42.17-12.85.31-19.27.45,2.48,13.51,4.71,25.85,6.82,37.72.05.28-.01.56-.17.79-.16.23-.4.39-.68.43-.03,0-.15.02-.18.02ZM218.47,411.08c3.34,17.16,6.8,34.89,9.84,52.41,20-.31,40.11-.58,59.79-.81-4.34-21.57-8.42-43.55-11.51-60.42l-4.12-.03c-17.9-.1-36.17-.26-55.82-.47l1.82,9.33ZM486.31,462.25c21.8.2,42.14.47,62.12.84-3.38-17.41-7.07-36.81-11.6-60.96-18.9.28-39.08.47-61.67.58,4.2,22.02,7.85,41.51,11.16,59.55ZM281.12,402.29c4.32,22.34,7.97,42.09,11.17,60.34,21.47-.24,41.24-.42,60.43-.54-3.94-19.53-7.6-39.29-11.31-59.49-21.26-.08-44.24-.2-60.29-.31ZM422.51,461.92c20.05.02,40.49.13,60.79.3-4.13-21.25-8.19-42.89-11.29-59.5-12.6.05-25.64.08-39.85.08-6.94,0-13.87,0-20.75-.02l1.2,6.22c2.59,13.43,5.54,28.64,7.63,40.14.77,4.26,1.53,8.52,2.28,12.78ZM347.13,407.86c3.43,17.74,6.97,36.08,10.18,54.21,18.37-.1,36.58-.16,54.14-.16h5.77c-2.54-12.51-4.9-24.95-7.65-39.71-1.19-6.36-2.4-12.86-3.62-19.44-9.86-.02-19.64-.05-29.27-.08-8.13,0-18.87-.03-30.57-.07l1.01,5.24ZM204.01,338.05c3.52,17.26,7.12,35.32,11,55.2l1.02,5.25c20.3-.22,40.41-.41,59.78-.57-1.24-6.78-2.46-13.53-3.68-20.23-2.47-13.62-4.81-26.5-7.19-39.26l-4.48-.03c-19.28-.06-38.51-.21-56.46-.36ZM474.17,397.52c21.8.13,42.06.32,61.91.58-2.1-11.18-4.17-22.28-6.21-33.2-1.67-8.97-3.33-17.82-4.95-26.47-18.82.21-39.14.34-62.09.39,4.59,23.6,8.09,41.75,11.33,58.7ZM268.48,338.45c3.57,17.72,7.74,38.56,11.79,59.44,21.54-.18,41.24-.31,60.2-.4l-.07-.4c-1.9-10.33-3.79-20.63-5.71-30.87-1.44-7.95-2.97-16.43-4.52-25.12-.93-.75-1.86-1.54-2.84-2.42l-10.22-.03c1.14,1.53,2.32,2.98,3.51,4.32.27.27.36.69.2,1.07-.17.41-.58.7-1.01.7h0c-.25,0-.49-.09-.68-.27-2.04-1.68-4.06-3.64-6-5.83-16.06-.05-32.16-.12-44.65-.18ZM410.35,397.32c20.28,0,40.69.07,60.68.18l-3.19-17.15c-2.62-14.07-5.21-27.97-7.76-41.52-8.56.02-17.12.02-25.65.02-9,0-17.97,0-26.91-.02-1.15,1.67-2.44,3.24-3.85,4.67-1.04,1.03-2.15,2.01-3.39,2.98,3.07,15.26,6.2,31,9.29,46.79l.78,4.05ZM334.77,344.52c3.34,16.77,6.56,33.19,9.55,48.82l.8,4.13c20.36-.09,40.48-.14,59.83-.15-3.07-16.68-5.99-32.84-8.68-48.06-7.03,4.24-15.69,6.48-25.08,6.48-8.32,0-16.89-1.72-24.78-4.98-3.98-1.61-7.89-3.71-11.63-6.24ZM346.02,338.73c7.07,3.18,15.19,4.91,23.09,4.91s14.65-1.67,19.99-4.84l-24.44-.04c-5.27,0-11.63-.01-18.64-.03ZM305.02,304.83c.16,6.26,1.4,12.52,3.63,18.29,1.45,3.92,3.35,7.74,5.63,11.39l8.68-.04c-.08-.08-.16-.16-.24-.25-7.82-8.26-13.9-18.38-17.71-29.39ZM331.77,329.55c2.12,1.78,4.3,3.41,6.49,4.85,18.94-.08,37.56-.12,55.36-.14-1.38-7.83-3.22-18.47-4.15-24.02l-.81-4.75c-1.29-7.63-2.63-15.53-3.88-23.3-.01-.1-.02-.19,0-.29-4.57-4.42-9.73-8.01-15.35-10.67-8.52-4.09-17.67-6.26-26.45-6.26-5.57,0-10.83.88-15.64,2.62-13.01,4.5-18.4,14.85-20.63,22.8,3.93,13.59,11.07,25.72,20.7,35.21-2.9-16.43-5.43-31.02-7.51-43.4-.1-.57.29-1.12.86-1.22.03,0,.15-.01.18-.01.5,0,.93.35,1.03.84,3.23,15.44,6.53,31.5,9.8,47.75ZM387.47,284.67c3.05,14.2,6.23,29.42,9.7,46.42,3.23-5.1,4.38-11.49,3.42-19.02-1.35-9.95-5.87-19.39-13.12-27.4Z"/>
      <path class="cls-1" d="M345.84,254.26c22.77,0,45.71,12.24,57.95,31.52,9.15,13.98,13.31,33.8,5.56,48.98,16.85,0,33.68.04,50.5.11-3.3-17.57-6.46-35.17-9.68-52.76-.06-.3.14-.59.44-.64.03,0,.07,0,.1,0,.26,0,.49.18.54.45,3.39,17.49,6.84,35.18,10.3,52.98,21.14.1,42.25.25,63.3.49-3.34-17.74-6.56-35.5-9.8-53.26-.05-.3.14-.59.45-.64.03,0,.07,0,.1,0,.26,0,.49.18.54.45,3.42,17.61,6.9,35.48,10.39,53.48,15.54.18,31.05.39,46.52.65.31,0,.55.26.54.57,0,.3-.25.53-.54.54-15.14.33-30.53.57-46.04.75,3.9,20.14,7.81,40.44,11.67,60.73,6.78.09,13.56.18,20.33.29,8.68.18,17.37.34,26.05.6.31,0,.55.27.54.57,0,.29-.25.53-.54.54-8.68.27-17.37.42-26.05.6-6.53.13-13.13.25-19.77.35,3.95,20.76,7.84,41.5,11.62,62.04,6.83.13,13.67.26,20.5.41,8.68.21,17.37.43,26.05.75.31.01.54.27.53.57-.01.29-.25.52-.53.53-8.68.33-17.37.54-26.05.75-6.62.17-13.24.32-19.86.46,2.36,12.86,4.68,25.65,6.93,38.3.05.3-.15.59-.45.64-.03,0-.07,0-.1,0-.26,0-.49-.18-.54-.44-2.53-12.45-5.08-25.35-7.63-38.46-20.96.43-41.91.69-62.87.84,2.29,12.54,4.53,25.03,6.7,37.41.05.3-.15.59-.45.64-.03,0-.06,0-.09,0-.26,0-.49-.18-.54-.44-2.53-12.25-5.04-24.84-7.54-37.6-18.77.13-37.53.18-56.29.18-1.85,0-3.71,0-5.56,0,2.1,12.36,4.02,24.76,5.59,37.22.04.3-.18.58-.48.62-.02,0-.05,0-.07,0-.25,0-.48-.17-.54-.42-3.14-12.42-5.94-24.9-8.55-37.42-10,0-20-.02-30-.05-10.4-.03-20.8-.07-31.2-.12,2.18,12.53,4.21,25.02,5.95,37.38.04.3-.17.58-.47.63-.03,0-.05,0-.08,0-.25,0-.48-.18-.54-.43-2.94-12.43-5.66-24.98-8.25-37.6-20.6-.1-41.2-.24-61.8-.43,2.2,12.68,4.3,25.3,6.25,37.83.04.3-.17.58-.47.63-.03,0-.05,0-.08,0-.26,0-.48-.18-.54-.43-2.84-12.36-5.56-25.11-8.2-38.06-20.41-.2-40.82-.45-61.22-.77.59,3.47,1.17,6.95,1.73,10.42,1.49,9.37,2.86,18.75,3.89,28.2.03.31-.19.58-.49.61-.02,0-.04,0-.06,0-.25,0-.47-.17-.54-.41-3.47-12.88-6.39-25.87-9.08-38.91-14.4-.23-28.8-.5-43.2-.81-.31,0-.55-.26-.54-.57,0-.3.25-.54.54-.54,14.22-.26,28.44-.49,42.66-.72-.95-4.66-1.87-9.32-2.77-13.99-3.08-16.29-6.12-32.59-9.12-48.9-14.37-.16-28.74-.34-43.11-.56-.31,0-.55-.26-.55-.56,0-.3.25-.54.55-.55,14.2-.17,28.45-.33,42.72-.48-3.72-20.27-7.38-40.55-10.92-60.85-.04-.21-.08-.46-.12-.68-14.56-.13-29.13-.26-43.69-.37-.31,0-.55-.25-.55-.56,0-.3.25-.55.55-.55,14.43-.09,28.89-.2,43.38-.3-1.3-7.43-3.34-19.34-4.37-25.57-1.58-9.35-3.17-18.69-4.66-28.06-.05-.3.16-.59.46-.63.03,0,.06,0,.09,0,.26,0,.48.18.54.44,3.87,17.85,7.63,35.82,11.31,53.81,20.58-.15,41.2-.29,61.86-.42-2.93-16.07-6.64-37.59-9.37-53.18-.05-.3.15-.59.45-.64.03,0,.06,0,.1,0,.26,0,.49.18.54.44,3.51,17.6,7.12,35.43,10.73,53.38,14.48-.09,28.97-.18,43.47-.25-11.41-15.03-15.66-35.98-9.65-52.83-.03-.58-.07-1.16-.08-1.74-.14-4.07.22-8.14.78-12.14.06-.31.31-.47.56-.47.27,0,.53.19.54.56.03,2.82.21,5.63.53,8.44,4.07-7.77,10.67-14.31,20.23-18.38,7.1-2.86,14.6-4.2,22.12-4.2M328.17,327.03c-2.73-15.44-5.44-30.99-7.78-44.91-.05-.3.15-.59.45-.64.03,0,.06,0,.09,0,.26,0,.49.18.54.44,3.25,15.54,6.56,31.68,9.84,47.92,2.16,1.82,4.42,3.52,6.79,5.08,18.7-.07,37.41-.12,56.1-.14-1.32-7.46-3.26-18.63-4.25-24.6-1.58-9.35-3.19-18.69-4.68-28.05-.02-.13.01-.25.07-.36-4.59-4.49-9.92-8.24-15.7-10.98-8.16-3.92-17.48-6.3-26.67-6.3-5.4,0-10.76.82-15.81,2.65-11.38,3.94-18.08,12.83-20.98,23.27,3.99,13.88,11.55,26.77,21.98,36.64M396.92,332.36c3.55-5,5.27-11.71,4.17-20.36-1.49-10.98-6.84-21.05-14.49-29,3.52,16.37,6.95,32.85,10.31,49.35M314.01,335.01c3.38-.02,6.77-.03,10.16-.05-.36-.36-.72-.72-1.07-1.09-8.58-9.07-14.94-20.23-18.57-32.18-.23,7.36,1.06,14.89,3.66,21.6,1.51,4.07,3.47,8,5.82,11.71M215.62,399c20.21-.21,40.49-.41,60.79-.58-3.75-20.54-7.4-40.86-11.02-60.3-.01-.06-.02-.12-.03-.18-1.71,0-3.35-.02-4.89-.03-19.02-.06-38.05-.2-57.07-.36,3.8,18.62,7.5,37.26,11.13,55.8.36,1.89.73,3.77,1.09,5.66M536.68,398.6c-3.88-20.67-7.68-41.1-11.32-60.56,0-.04-.01-.08-.02-.12-20.89.23-42,.35-63.11.4,3.85,19.82,7.71,39.76,11.52,59.69,21.03.13,42.01.32,62.92.59M279.86,398.39c20.38-.17,40.79-.31,61.21-.41-1.96-10.66-3.91-21.29-5.89-31.85-1.45-8-2.99-16.55-4.55-25.3-1.06-.85-2.1-1.74-3.11-2.65-3.75-.01-7.57-.02-11.4-.03,1.28,1.78,2.65,3.51,4.12,5.16.37.37-.01.93-.44.93-.11,0-.23-.04-.34-.14-2.2-1.81-4.23-3.82-6.12-5.96-16.4-.05-32.85-.12-45.49-.19,4.04,20.05,8.07,40.24,11.99,60.44M369.11,344.14c8.08,0,15.82-1.83,21.7-5.84-8.78-.02-17.5-.03-26.15-.05-5.82,0-12.98-.02-20.87-.03,7.57,3.8,16.63,5.92,25.31,5.92M434.26,338.35c-9.03,0-18.04,0-27.01-.02-1.14,1.69-2.45,3.3-3.94,4.82-1.14,1.13-2.34,2.17-3.58,3.13,3.17,15.72,6.28,31.44,9.35,47.09.27,1.43.56,2.93.85,4.45,20.59,0,41.16.06,61.7.18-3.78-20.26-7.5-40.33-11.14-59.68-8.76.02-17.51.03-26.23.03M344.71,397.97c20.28-.09,40.57-.15,60.84-.15-3.03-16.45-6.07-33.27-8.92-49.37-7.53,4.74-16.44,6.79-25.45,6.79-8.48,0-17.03-1.82-24.59-4.94-4.44-1.79-8.64-4.13-12.55-6.89,3.38,16.93,6.68,33.8,9.79,50.02.29,1.51.58,3.03.87,4.54M227.9,464c20.27-.32,40.55-.59,60.82-.83-4.07-20.22-7.95-40.91-11.7-61.41-1.58-.01-3.11-.02-4.54-.04-18.81-.11-37.62-.27-56.43-.48,4.06,20.9,8.21,41.78,11.85,62.75M549.04,463.6c-3.95-20.38-7.91-41.28-11.8-61.97-20.57.31-41.6.49-62.69.58,3.86,20.24,7.66,40.46,11.35,60.54,21.05.19,42.1.47,63.14.85M291.88,463.14c20.48-.23,40.97-.42,61.46-.54-4.06-20.09-7.81-40.34-11.51-60.49-21.02-.08-44.44-.19-61.31-.32,3.96,20.49,7.79,40.99,11.36,61.35M356.89,462.57c18.28-.1,36.55-.16,54.83-.16,2.04,0,4.08,0,6.12,0-2.73-13.4-5.27-26.84-7.77-40.3-1.22-6.49-2.45-13.13-3.69-19.85-10-.02-19.92-.05-29.69-.08-8.27,0-19.24-.03-31.17-.07,3.85,19.94,7.8,40.22,11.38,60.45M432.23,402.3c-7.17,0-14.32,0-21.43-.02,2.94,15.21,6.5,33.5,8.94,46.95.8,4.39,1.58,8.79,2.35,13.19,20.61.02,41.21.13,61.81.31-3.88-19.96-7.71-40.3-11.48-60.51-13.42.06-26.85.08-40.2.08M345.84,253.26c-7.9,0-15.47,1.44-22.49,4.27-8.27,3.53-14.7,8.93-19.17,16.09-.14-1.77-.21-3.51-.23-5.22-.02-.89-.69-1.55-1.54-1.55-.76,0-1.39.52-1.54,1.27,0,.02,0,.04,0,.06-.66,4.72-.92,8.63-.79,12.31,0,.38.03.77.05,1.15,0,.14.02.27.02.41-5.73,16.29-2.31,36.47,8.69,51.99-13.57.07-27.14.15-40.69.24l-2.42-12.02c-2.69-13.34-5.47-27.14-8.15-40.54-.15-.73-.79-1.25-1.52-1.25-.09,0-.18,0-.27.02-.41.07-.77.3-1.01.64-.24.34-.33.75-.26,1.16.59,3.36,1.22,7,1.88,10.8,2.36,13.53,5.02,28.82,7.27,41.23-19.98.13-39.94.27-59.85.41-3.89-19.04-7.54-36.39-11.15-53.02-.16-.71-.8-1.22-1.52-1.22-.08,0-.16,0-.24.02-.41.07-.77.29-1.01.62s-.34.75-.28,1.16c1.32,8.33,2.75,16.78,4.13,24.95l.53,3.12c.95,5.72,2.81,16.61,4.17,24.42-14.09.1-28.16.2-42.2.29-.85,0-1.54.7-1.54,1.54,0,.86.69,1.56,1.54,1.57,11.07.08,22.13.18,33.2.28l9.66.08c3.23,18.5,6.73,37.99,10.69,59.56-13.87.15-27.72.3-41.53.47-.85.01-1.52.69-1.53,1.53-.01.86.67,1.56,1.53,1.58,13.27.2,27.11.37,42.29.55,2.96,16.08,5.98,32.26,8.97,48.09.92,4.72,1.75,8.93,2.54,12.82-14.16.23-28.1.46-41.45.7-.84.02-1.51.69-1.52,1.52-.02.86.66,1.57,1.52,1.59,12.85.28,26.73.54,42.41.79,3.05,14.75,5.9,26.9,8.93,38.18.18.68.8,1.15,1.5,1.15.06,0,.11,0,.17,0,.85-.09,1.47-.86,1.38-1.71-1.13-10.43-2.68-20.58-3.9-28.25-.48-2.98-.99-6.08-1.53-9.25,19.03.3,38.94.55,59.22.75,2.8,13.74,5.44,25.95,8.04,37.29.17.71.79,1.2,1.51,1.2.07,0,.15,0,.22-.02.85-.12,1.44-.91,1.32-1.76-1.8-11.51-3.78-23.52-6.05-36.68,19.24.18,38.82.31,59.79.41,2.77,13.46,5.42,25.51,8.1,36.84.17.71.79,1.2,1.51,1.2.07,0,.14,0,.22-.02.85-.12,1.44-.91,1.32-1.76-1.53-10.87-3.41-22.73-5.75-36.24,10,.04,20,.08,30,.11,9.73.02,19.46.04,29.19.05,2.84,13.6,5.59,25.6,8.39,36.67.17.69.79,1.17,1.51,1.17.06,0,.13,0,.2-.01.41-.05.78-.26,1.03-.59.25-.33.37-.74.31-1.15-1.37-10.9-3.14-22.72-5.4-36.09h4.38c20.36,0,38.51-.06,55.47-.17,2.65,13.55,5.07,25.6,7.38,36.8.15.72.79,1.24,1.52,1.24.09,0,.18,0,.27-.02.84-.15,1.41-.95,1.27-1.79-2-11.39-4.12-23.26-6.49-36.25,22.07-.17,42-.44,60.86-.82,2.69,13.83,5.14,26.16,7.47,37.64.15.72.79,1.25,1.52,1.25.09,0,.18,0,.27-.02.84-.15,1.41-.96,1.26-1.8-2.09-11.74-4.29-23.9-6.72-37.15,7.4-.16,13.2-.29,18.69-.44,8.51-.21,17.31-.43,26.06-.75.81-.03,1.46-.69,1.49-1.5.03-.86-.64-1.58-1.5-1.61-8.69-.33-17.52-.54-26.06-.76-6.56-.14-13.13-.27-19.69-.39-3.41-18.5-7.09-38.18-11.25-60.08,6.72-.11,12.82-.21,18.58-.33l4.38-.09c7.1-.14,14.45-.29,21.68-.51.82-.03,1.48-.69,1.51-1.51.03-.86-.65-1.58-1.51-1.6-7.17-.22-14.45-.37-21.5-.51l-4.56-.09c-6.5-.1-13.01-.19-19.52-.28-3.36-17.63-7.06-36.88-11.29-58.76,16.21-.19,30.89-.43,44.85-.74.83-.02,1.5-.69,1.52-1.52.02-.85-.66-1.57-1.52-1.59-14.27-.25-29.23-.46-45.72-.64-2.94-15.19-5.88-30.29-8.78-45.22l-1.45-7.47c-.14-.73-.78-1.26-1.53-1.26-.09,0-.19,0-.28.03-.84.15-1.4.96-1.25,1.81l1.73,9.44c2.55,13.97,5.19,28.41,7.86,42.62-19.67-.22-39.74-.37-61.27-.47l-3.37-17.31c-2.27-11.69-4.54-23.32-6.78-34.86-.14-.73-.78-1.26-1.53-1.26-.09,0-.19,0-.28.03-.84.15-1.4.97-1.25,1.81.99,5.39,1.97,10.78,2.95,16.17,2.11,11.61,4.3,23.6,6.51,35.41-15.52-.07-31.56-.1-47.7-.11,3.17-7,4.19-15.28,2.95-24.08-1.19-8.46-4.49-17.14-9.27-24.45-12.33-19.41-35.41-31.97-58.79-31.97h0ZM307.23,290.39c2.22-7.81,7.54-17.92,20.26-22.32,4.77-1.72,9.98-2.59,15.49-2.59,8.71,0,17.78,2.15,26.24,6.21,5.5,2.61,10.57,6.11,15.06,10.43,0,.05,0,.11.02.16,1.24,7.74,2.57,15.6,3.86,23.2l.82,4.87c.91,5.44,2.68,15.69,4.05,23.43-17.6.02-35.96.06-54.61.14-2.09-1.38-4.16-2.93-6.18-4.62-3.27-16.2-6.55-32.21-9.77-47.58-.15-.72-.79-1.24-1.52-1.24-.09,0-.17,0-.26.02-.84.14-1.41.95-1.27,1.79,2.02,12,4.45,26.07,7.24,41.83-8.97-9.22-15.65-20.81-19.41-33.73h0ZM397.4,329.72c-3.22-15.75-6.18-29.96-9.03-43.26,6.37,7.56,10.5,16.56,11.73,25.68.87,6.87-.04,12.77-2.7,17.58h0ZM314.56,334.01c-2.2-3.55-4.03-7.27-5.44-11.06-1.82-4.7-2.97-9.72-3.42-14.8,3.75,9.6,9.25,18.42,16.11,25.83h-1.15s-6.1.03-6.1.03h0ZM216.44,397.99l-.15-.78c-.26-1.35-.52-2.7-.78-4.06-3.84-19.66-7.4-37.54-10.88-54.6,17.82.15,36.87.3,55.84.35l4.06.02c2.36,12.66,4.67,25.42,7.12,38.92,1.18,6.49,2.36,13.02,3.56,19.58-18.91.16-38.68.35-58.77.56h0ZM463.44,339.32c22.46-.05,42.45-.18,61.07-.39,1.59,8.49,3.21,17.17,4.85,25.97,2.01,10.75,4.05,21.69,6.11,32.69-19.42-.25-39.37-.44-60.89-.57-4.03-21.07-8.04-41.75-11.14-57.7h0ZM280.68,397.39c-4-20.59-8.09-41-11.59-58.43,11.95.06,27.43.12,43.82.18,1.9,2.13,3.89,4.06,5.91,5.72.28.25.63.38.99.38.63,0,1.22-.4,1.47-1,.23-.56.12-1.17-.3-1.61-.97-1.09-1.93-2.25-2.86-3.47l9.02.03c.89.79,1.73,1.51,2.57,2.19,1.47,8.24,2.98,16.63,4.48,24.94,1.91,10.18,3.83,20.6,5.68,30.68-18.57.09-37.95.22-59.19.39h0ZM369.11,343.14c-6.99,0-14.16-1.37-20.6-3.91,6.03.01,11.51.02,16.15.02l18.08.03h4.41c-4.99,2.53-11.16,3.85-18.05,3.85h0ZM434.26,339.35c8.45,0,16.93,0,25.41-.02,2.51,13.32,5,26.7,7.63,40.85,1.04,5.58,2.08,11.2,3.13,16.82-19.72-.11-39.79-.17-59.67-.18l-.7-3.64c-3.07-15.68-6.17-31.32-9.23-46.49,1.15-.92,2.2-1.85,3.18-2.83,1.37-1.4,2.63-2.91,3.76-4.53,8.79.01,17.63.02,26.48.02h0ZM345.53,396.97l-.2-1.06-.51-2.67c-2.92-15.27-6.06-31.29-9.31-47.64,3.46,2.25,7.06,4.14,10.72,5.62,7.94,3.28,16.57,5.02,24.96,5.02,9.21,0,17.72-2.13,24.72-6.18,2.62,14.81,5.46,30.53,8.45,46.76-19.04,0-38.82.06-58.82.15h0ZM228.74,462.99c-3.03-17.38-6.45-34.96-9.77-51.97-.57-2.92-1.14-5.84-1.71-8.76,19.41.21,37.49.36,55.21.47l3.71.03c3.05,16.65,7.05,38.19,11.32,59.43-19.28.22-39.04.49-58.76.8h0ZM475.76,403.2c22.14-.1,42.01-.29,60.66-.57,4.43,23.61,8.07,42.72,11.41,59.94-19.64-.35-39.65-.62-61.09-.82-3.27-17.84-6.87-37.01-10.97-58.55h0ZM292.71,462.13c-3.15-17.95-6.75-37.38-10.98-59.33,15.92.11,38.4.23,59.26.31,3.65,19.87,7.25,39.3,11.12,58.5-18.85.12-38.3.29-59.4.53h0ZM357.73,461.57c-3.2-18.02-6.72-36.24-10.13-53.87l-.88-4.58c11.9.04,22.24.06,29.96.06,9.5.03,19.14.06,28.86.08,1.19,6.44,2.38,12.81,3.54,19.03,2.7,14.51,5.03,26.78,7.53,39.11h-4.9c-17.6,0-35.76.05-53.99.15h0ZM432.23,403.3c14,0,26.89-.02,39.37-.08,3.07,16.42,7.05,37.66,11.1,58.5-19.87-.17-39.96-.27-59.76-.3-.69-3.97-1.42-8.03-2.2-12.37-2.1-11.53-5.05-26.79-7.65-40.26l-1.06-5.51c6.71.01,13.45.02,20.22.02h0Z"/>
    </g>
    <g>
      <path class="cls-1" d="M170.58,538.13c-.17,0-.34-.05-.51-.14l-.74-.4H29.39s-.7.34-.88.42c-.14.07-.29.1-.45.1-.41,0-.79-.24-.96-.61-.2-.44-.08-.96.29-1.26,12.03-9.62,24.47-17.79,35.05-24.51,10.77-6.77,23.63-14.51,37.46-20.68v.02c.78-.2,5.46-.41,41.38-1.73,10.81-.4,20.15-.74,20.72-.79.02,0,.04,0,.07,0h.13c1.85,0,3.36,1.45,3.43,3.3.04.93-.3,1.82-.95,2.5-.65.67-1.55,1.06-2.47,1.06,0,0-.17,0-.18,0-.35-.02-5.74-.22-12.53-.48-13.34-.5-34.86-1.3-44.21-1.71,3.3,1.69,8.08,4.38,14.03,7.9,10.42,6.24,21.21,13.27,35,22.8,5.43,3.8,11.24,7.93,16.92,12.33.35.26.49.71.35,1.15-.15.45-.55.75-.99.75h0Z"/>
      <path class="cls-1" d="M162.2,489.03c1.57,0,2.87,1.24,2.93,2.82.07,1.66-1.28,3.05-2.92,3.05-.04,0-.08,0-.12,0,.05-.03-48.11-1.76-59.17-2.31,3.06,1.43,8.44,4.39,16.14,8.94,11.94,7.16,23.52,14.87,34.97,22.78,5.7,3.99,11.38,8.03,16.89,12.31.44.32.12,1-.34,1-.08,0-.17-.02-.26-.07-.29-.15-.57-.31-.85-.47H29.27c-.33.15-.65.32-.98.47-.08.04-.16.05-.23.05-.21,0-.41-.12-.51-.32-.11-.24-.04-.51.15-.67,11.16-8.92,22.98-16.84,35-24.48,12.07-7.59,24.32-14.82,37.39-20.65.24-.25,61.68-2.35,61.98-2.46.04,0,.08,0,.11,0M162.2,488.03h0c-.05,0-.1,0-.15,0-.03,0-.07,0-.1,0-.72.06-10.38.41-20.61.79-8.98.33-19.26.71-27.31,1.02-11.23.44-13.62.53-14.31.75v-.02c-13.86,6.18-26.75,13.94-37.53,20.71-10.6,6.74-23.06,14.92-35.1,24.55-.56.46-.74,1.22-.44,1.87.25.55.81.9,1.41.9.23,0,.45-.05.65-.14.19-.09.37-.18.55-.27.08-.04.15-.07.23-.11h139.72l.18.1c.15.08.3.17.46.25.22.12.48.19.73.19.66,0,1.25-.44,1.47-1.1.21-.64,0-1.31-.53-1.71-5.67-4.4-11.48-8.53-16.92-12.33-13.81-9.54-24.61-16.57-35.03-22.82-4.86-2.87-8.95-5.19-12.08-6.88,10.24.44,29.69,1.16,42.09,1.62,6.68.25,11.97.45,12.41.47.02,0,.04,0,.06,0,.06,0,.11,0,.17,0,1.06,0,2.09-.44,2.83-1.21.75-.78,1.14-1.8,1.09-2.87-.08-2.12-1.81-3.78-3.93-3.78h0Z"/>
    </g>
    <g>
      <path class="cls-1" d="M204.65,217c-6.65,0-13.14-5.72-14.47-12.75-.68-3.57.1-7.03,2.12-9.47,1.85-2.24,4.58-3.47,7.67-3.47s6.45,1.31,9.17,3.69c11.58-19.88,8.27-52.83-6.7-65.68-3.95-3.27-8.08-4.93-12.25-4.93-11,0-19.87,11.4-23.45,21.98-2.15,5.91-3.36,12.53-3.61,19.71,0,.57-.45,1.01-1.05,1.01h0c-.6,0-1.05-.44-1.06-1.02-.22-16.2,4.65-29.98,13.7-38.8,4.44-4.35,10.09-6.75,15.91-6.75,5.28,0,10.31,1.94,14.53,5.6,8.65,7.57,14.24,20.1,15.33,34.38,1.06,13.86-2.17,27.4-8.87,37.22,1.42,1.94,2.4,4.13,2.82,6.36.68,3.58-.1,7.03-2.12,9.47-1.85,2.24-4.58,3.47-7.67,3.47Z"/>
      <path class="cls-1" d="M190.64,121.01c4.97,0,9.96,1.79,14.2,5.47,18.2,15.93,20.18,51.09,6.17,71.23,1.44,1.88,2.5,4.08,2.94,6.44,1.29,6.82-2.87,12.35-9.3,12.35s-12.68-5.53-13.98-12.35,2.87-12.35,9.3-12.35c3.38,0,6.7,1.54,9.29,3.97,11.84-19.65,9.34-53.25-6.5-66.85-4.28-3.54-8.54-5.05-12.57-5.05-10.81,0-20.03,10.83-23.92,22.32-2.3,6.32-3.4,13.08-3.64,19.85,0,.35-.28.53-.55.53s-.55-.18-.56-.53c-.18-13.76,3.35-28.49,13.55-38.43,4.45-4.36,9.99-6.61,15.56-6.61M190.64,120.01c-5.95,0-11.72,2.45-16.26,6.9-9.15,8.92-14.07,22.82-13.85,39.16.01.86.68,1.52,1.56,1.52s1.55-.67,1.55-1.52c.25-7.09,1.45-13.67,3.58-19.51,3.53-10.45,12.23-21.67,22.98-21.67,4.05,0,8.07,1.62,11.94,4.82,7.25,6.22,12.09,17.34,13.27,30.47,1.12,12.52-1.2,24.85-6.39,34.05-2.71-2.21-5.88-3.42-9.03-3.42s-6.11,1.3-8.05,3.65c-2.12,2.56-2.93,6.16-2.23,9.88,1.37,7.26,8.08,13.16,14.96,13.16,3.24,0,6.11-1.3,8.05-3.65,2.12-2.56,2.93-6.16,2.23-9.88-.42-2.19-1.34-4.35-2.7-6.28,6.63-9.88,9.82-23.41,8.76-37.25-1.1-14.4-6.75-27.06-15.5-34.71-4.32-3.74-9.46-5.72-14.86-5.72h0Z"/>
    </g>
    <g>
      <path class="cls-1" d="M296.18,217c-6.65,0-13.14-5.72-14.47-12.75-.68-3.57.1-7.03,2.12-9.47,1.85-2.24,4.58-3.47,7.67-3.47,2.79,0,5.68,1.03,8.19,2.9,9.95-18.55,9.08-49.87-7.09-64.59-3.84-3.21-7.87-4.84-11.97-4.84-10.88,0-19.68,11.23-23.26,21.66-2.21,6.01-3.49,12.62-3.8,19.65,0,.56-.46,1-1.05,1h0c-.59,0-1.04-.44-1.06-1.01-.42-16.16,4.36-30.03,13.47-39.05,4.49-4.44,10.23-6.89,16.16-6.89,5.37,0,10.48,1.96,14.77,5.67,17.78,15.47,21.05,50.01,6.83,71.31,1.67,2.07,2.8,4.47,3.27,6.96.68,3.58-.1,7.03-2.12,9.47-1.85,2.24-4.58,3.47-7.67,3.47Z"/>
      <path class="cls-1" d="M281.09,120.62c5.05,0,10.13,1.82,14.45,5.55,18.22,15.86,20.32,50.68,6.54,70.96,1.68,1.99,2.91,4.41,3.4,7.03,1.29,6.82-2.87,12.35-9.3,12.35s-12.69-5.53-13.98-12.35,2.87-12.35,9.3-12.35c2.98,0,5.92,1.2,8.35,3.15,10.84-19.57,9.19-51.05-6.91-65.71-4.17-3.49-8.34-4.97-12.31-4.97-10.67,0-19.87,10.74-23.73,21.99-2.31,6.29-3.53,13.01-3.83,19.79,0,.35-.28.52-.55.52s-.55-.17-.56-.52c-.36-13.82,3.12-28.59,13.32-38.68,4.51-4.46,10.15-6.75,15.81-6.75M281.09,119.62c-6.06,0-11.93,2.5-16.52,7.04-9.21,9.12-14.04,23.12-13.62,39.42.02.85.69,1.5,1.56,1.5s1.54-.65,1.55-1.51c.31-6.95,1.58-13.5,3.77-19.45,5.03-14.67,15.34-21.34,22.8-21.34,3.98,0,7.9,1.6,11.66,4.74,7.38,6.71,12.08,17.5,13.21,30.34,1.04,11.82-1.14,23.81-5.98,33.11-2.48-1.72-5.29-2.66-8.02-2.66-3.24,0-6.11,1.3-8.05,3.65-2.12,2.56-2.93,6.16-2.23,9.88,1.37,7.26,8.08,13.16,14.96,13.16,3.24,0,6.11-1.3,8.05-3.65,2.12-2.56,2.93-6.16,2.23-9.88-.46-2.45-1.55-4.82-3.15-6.9,14.11-21.51,10.74-56.12-7.12-71.66-4.39-3.79-9.61-5.79-15.1-5.79h0Z"/>
    </g>
    <g>
      <path class="cls-1" d="M387.7,217c-6.65,0-13.14-5.72-14.47-12.75-.68-3.57.1-7.03,2.12-9.47,1.85-2.24,4.58-3.47,7.67-3.47,2.9,0,5.87,1.09,8.44,3.09,10.22-18.59,9.42-50.1-7.06-65.01-3.9-3.24-7.99-4.89-12.14-4.89-10.98,0-19.84,11.35-23.42,21.89-2.15,5.86-3.39,12.48-3.67,19.69,0,.57-.46,1-1.05,1h0c-.59,0-1.05-.44-1.06-1.02-.28-16.16,4.56-29.97,13.62-38.89,4.46-4.37,10.13-6.78,15.96-6.78,5.31,0,10.37,1.95,14.63,5.63,17.5,15.31,20.78,49.67,6.84,70.94,1.74,2.11,2.91,4.56,3.39,7.1.68,3.58-.1,7.03-2.12,9.47-1.85,2.24-4.58,3.47-7.67,3.47Z"/>
      <path class="cls-1" d="M372.63,120.89c5,0,10.02,1.81,14.3,5.51,18.06,15.8,20.06,50.33,6.54,70.6,1.74,2.02,3.02,4.49,3.52,7.16,1.29,6.82-2.87,12.35-9.3,12.35s-12.68-5.53-13.98-12.35,2.87-12.35,9.3-12.35c3.08,0,6.11,1.28,8.58,3.35,11.14-19.59,9.4-51.42-6.88-66.14-4.24-3.52-8.46-5.02-12.47-5.02-10.78,0-20.01,10.81-23.9,22.23-2.32,6.31-3.43,13.06-3.69,19.83,0,.35-.28.52-.55.52s-.55-.18-.56-.53c-.24-13.78,3.29-28.51,13.47-38.52,4.47-4.39,10.03-6.64,15.61-6.64M372.63,119.89c-5.96,0-11.76,2.46-16.31,6.92-9.16,9.01-14.05,22.95-13.77,39.25.01.86.68,1.51,1.56,1.51s1.54-.65,1.55-1.52c.28-7.13,1.5-13.7,3.63-19.49,3.54-10.4,12.23-21.57,22.96-21.57,4.03,0,8.01,1.61,11.84,4.79,16.14,14.6,17.05,45.38,7.2,63.86-2.54-1.84-5.44-2.84-8.27-2.84-3.24,0-6.11,1.3-8.05,3.65-2.12,2.56-2.93,6.16-2.23,9.88,1.37,7.26,8.08,13.16,14.96,13.16,3.24,0,6.11-1.3,8.05-3.65,2.12-2.56,2.93-6.16,2.23-9.88-.48-2.51-1.6-4.93-3.26-7.04,6.4-9.96,9.44-23.38,8.33-36.98-1.16-14.21-6.79-26.71-15.45-34.29-4.36-3.77-9.53-5.76-14.96-5.76h0Z"/>
    </g>
    <g>
      <path class="cls-1" d="M479.22,217c-6.65,0-13.14-5.72-14.47-12.75-.68-3.57.1-7.03,2.12-9.47,1.85-2.24,4.58-3.47,7.67-3.47s6.03,1.14,8.63,3.24c10.27-18.57,9.49-50.09-7.04-65.04-3.87-3.22-7.93-4.86-12.05-4.86-10.89,0-19.73,11.29-23.34,21.77-2.16,5.81-3.42,12.42-3.74,19.67,0,.56-.46,1-1.05,1h0c-.59,0-1.04-.44-1.06-1.01-.32-11.3,2.09-21.83,6.96-30.44,5.2-9.51,13.92-15.42,22.74-15.42,5.17,0,10.08,1.92,14.6,5.69,8.6,7.6,14.01,19.4,15.25,33.25,1.17,13.04-1.54,26.25-7.44,36.24-.36.62-.75,1.23-1.16,1.84,1.61,2.04,2.7,4.39,3.16,6.83.68,3.58-.1,7.03-2.12,9.47-1.85,2.24-4.58,3.47-7.67,3.47Z"/>
      <path class="cls-1" d="M464.6,120.71c4.75,0,9.65,1.71,14.28,5.58,18.1,16,19.53,48.8,7.71,68.85-.42.72-.87,1.43-1.35,2.13,1.62,1.97,2.8,4.34,3.28,6.89,1.29,6.82-2.87,12.35-9.3,12.35s-12.68-5.53-13.98-12.35,2.87-12.35,9.3-12.35c3.16,0,6.27,1.34,8.78,3.5,11.17-19.54,9.41-51.47-6.85-66.18-4.21-3.5-8.4-4.99-12.39-4.99-10.72,0-19.91,10.78-23.81,22.11-2.34,6.29-3.47,13.03-3.77,19.81,0,.35-.28.52-.55.52s-.55-.17-.56-.52c-.29-10.34,1.73-21.06,6.89-30.18,4.99-9.12,13.38-15.16,22.31-15.16M464.6,119.71c-9.01,0-17.89,6.01-23.19,15.68-4.91,8.68-7.33,19.29-7.01,30.69.02.85.69,1.5,1.56,1.5s1.54-.65,1.55-1.51c.32-7.16,1.57-13.72,3.71-19.47,3.56-10.35,12.22-21.46,22.87-21.46,4,0,7.95,1.6,11.75,4.76,13.38,12.1,19.15,41.76,7.19,63.89-2.59-1.93-5.56-2.98-8.48-2.98-3.24,0-6.11,1.3-8.05,3.65-2.12,2.56-2.93,6.16-2.23,9.88,1.37,7.26,8.08,13.16,14.96,13.16,3.24,0,6.11-1.3,8.05-3.65,2.12-2.56,2.93-6.16,2.23-9.88-.45-2.4-1.5-4.72-3.03-6.76.34-.52.66-1.04.97-1.57,11.58-19.63,11.18-53.25-7.91-70.11-4.57-3.82-9.73-5.83-14.94-5.83h0Z"/>
    </g>
  </g>
</svg>