<svg id="materials" xmlns="http://www.w3.org/2000/svg" viewBox="0 0 240 240"><defs><style>.cls-1{fill:#edecd6;}.cls-2{fill:#56c7e2;}.cls-3{fill:#e27171;}.cls-4{fill:#474747;}.cls-5{fill:#d1d2d3;}.cls-6{fill:#7fbe26;}.cls-7{fill:#bcd300;}.cls-8{fill:#ea8894;}.cls-9{fill:#3cade3;}.cls-10{fill:#f6aa00;}</style></defs><title>tada</title><path class="cls-1" d="M223.12,232.2l7.42,3.37a4.72,4.72,0,0,0,6.24-6.21l-24.7-57,0-.06-22.81-53.73c.34,3.1-6.13,3.45-7.57,7.57l-3.78,3.79c-2.77,8.06-5.48,3.38-13.89,12.62-1.47,1.66-.85,11-2.52,12.62-3.07,3-7,7.63-10.1,10.09-6.85,5.45-12.75,5.11-18.92,7.57-5.3,2.16-8.8,13.12-12.62,12.62l19,8.46,24.15,11L180.94,213l24.16,11h0l18,8.14Z"/><path class="cls-2" d="M137.07,184.23l1.78,9.69,24.15,11-6-32.67A81.55,81.55,0,0,1,137.07,184.23Z"/><path class="cls-3" d="M171,159.06l9.91,54,24.16,11-16.93-91.84C185.41,140.24,179.43,149.82,171,159.06Z"/><path class="cls-2" d="M236.78,229.36l-24.72-57,11.06,59.85,7.42,3.37A4.72,4.72,0,0,0,236.78,229.36Z"/><path class="cls-4" d="M187.83,128.94,207,174.1l.16.4L231.22,230l-5.53-2.51-.4-.2-17.94-8.14L207,219l-23.83-10.83L165.22,200,141,189l-10.47-4.66c4.58-3.86,11.37-10,21.74-19.9,13.93-13.27,28.14-27.48,35.53-35.53m1.42-10.36c.34,3.09-65.08,66.89-69.36,66.89h0l19,8.46,24.15,11L180.94,213l24.16,11h0l18,8.14,0,0,7.42,3.37a4.7,4.7,0,0,0,6.24-6.21l-24.7-57,0-.06Z"/><path class="cls-5" d="M126,185.29a13.83,13.83,0,0,1-2.17-.17c-3.23-.53-5.89-2.36-6.94-4.78a10.83,10.83,0,0,1-.61-5.25c.33-4.51,1.94-9.3,5-15.07a97.6,97.6,0,0,1,18-23.46c.76-.73,1.47-1.39,2.17-2.1,11.94-11.18,22.91-17.72,33.51-20a20.48,20.48,0,0,1,4.27-.5,8.35,8.35,0,0,1,8.92,8.31,22.52,22.52,0,0,1-1.54,9.38c-2.12,6.13-5.7,12.45-10.93,19.31a113.38,113.38,0,0,1-22.44,22.09c-7.05,5.22-13.57,8.75-19.92,10.79A23.78,23.78,0,0,1,126,185.29Z"/><path class="cls-4" d="M179.33,115.79a6.6,6.6,0,0,1,7.15,6.71,20.46,20.46,0,0,1-1.45,8.62c-2.07,5.94-5.56,12.1-10.67,18.8a111.47,111.47,0,0,1-22.08,21.75c-6.9,5.1-13.25,8.54-19.42,10.53a22.2,22.2,0,0,1-6.85,1.3,12.69,12.69,0,0,1-1.88-.14c-2.6-.43-4.79-1.89-5.6-3.75a9.21,9.21,0,0,1-.46-4.39c.32-4.24,1.86-8.81,4.84-14.36a96.18,96.18,0,0,1,17.67-23c.73-.69,1.46-1.38,2.19-2.11,11.72-11,22.4-17.36,32.67-19.52a18.81,18.81,0,0,1,3.89-.46m0-3.57a22.44,22.44,0,0,0-4.63.54c-13.14,2.76-24.8,11.43-34.41,20.44-.72.72-1.44,1.4-2.16,2.08a99.46,99.46,0,0,0-18.36,23.89c-2.65,4.92-4.85,10.22-5.27,15.79a12.85,12.85,0,0,0,.76,6.09c1.4,3.22,4.81,5.26,8.29,5.83a15.7,15.7,0,0,0,2.46.2,26.23,26.23,0,0,0,8-1.48,72,72,0,0,0,20.45-11.06,115.42,115.42,0,0,0,22.79-22.45c4.61-6.06,8.7-12.6,11.2-19.8A23.85,23.85,0,0,0,190,122.15a10.11,10.11,0,0,0-10.7-9.93Z"/><path class="cls-6" d="M133.92,162.47c-5.82-1.91,4-18.87-14.58-25L111.58,135C136.42,147,114.14,156,133.92,162.47Z"/><path class="cls-4" d="M133.92,162.47l.28-.85a1.61,1.61,0,0,1-1-.92,12.07,12.07,0,0,1-.61-4.51c-.09-3-.11-6.82-1.74-10.46s-4.93-7-11.22-9.08l-7.76-2.54a.89.89,0,0,0-.67,1.65c6.17,3,9.28,5.73,10.86,8.18a11.77,11.77,0,0,1,1.71,6.92c0,.46,0,.92,0,1.38a9.69,9.69,0,0,0,1.5,6c1.39,1.94,3.9,3.58,8.39,5.06a.89.89,0,0,0,.68-.06.87.87,0,0,0,.45-.51,1,1,0,0,0-.05-.69.9.9,0,0,0-.52-.44l-.28.85.28-.85c-4.33-1.42-6.46-2.93-7.5-4.39s-1.16-3-1.16-5v-1.38a13.47,13.47,0,0,0-2-7.89c-1.84-2.85-5.25-5.76-11.58-8.82l-.39.81-.28.84,7.76,2.55c4.52,1.48,7.2,3.57,8.87,5.88,2.49,3.45,2.74,7.56,2.84,11.13a26.72,26.72,0,0,0,.37,4.81,5.07,5.07,0,0,0,.8,1.91,3.37,3.37,0,0,0,1.7,1.24.89.89,0,0,0,.68-.06.87.87,0,0,0,.45-.51,1,1,0,0,0-.05-.69.9.9,0,0,0-.52-.44Z"/><path class="cls-6" d="M77.31,123.72c-.83-.27-5.67-1.87-7.65-2.49,8.76,2.85,4.09,21.51,14.37,24.88l8.34,2.74C77.1,140.4,86.5,129.74,77.31,123.72Z"/><path class="cls-4" d="M77.31,123.72l.27-.85c-.82-.27-5.66-1.87-7.65-2.49a.89.89,0,0,0-.54,1.7c1.87.61,3,2,4,4.12,1.36,3.12,1.91,7.54,3.08,11.56a18.57,18.57,0,0,0,2.49,5.56A9.41,9.41,0,0,0,83.75,147h0l8.34,2.73a.89.89,0,0,0,.71-1.63,18.47,18.47,0,0,1-7.17-6.33c-2-3.19-2.16-6.5-2.66-9.78a16.22,16.22,0,0,0-1.37-4.8A10.46,10.46,0,0,0,77.79,123l-.21-.1-.27.85-.49.74a8.66,8.66,0,0,1,3.72,4.82c.92,2.74.81,6.15,1.92,9.76s3.59,7.35,9.48,10.59l.43-.78.28-.85-8.34-2.74a8.2,8.2,0,0,1-4.83-4.46c-1.63-3.2-2.25-7.61-3.27-11.56a20,20,0,0,0-2.09-5.41,7.63,7.63,0,0,0-4.18-3.45.89.89,0,1,0-.54,1.7c1.95.62,6.8,2.22,7.63,2.49l.28-.85-.49.74Z"/><path class="cls-6" d="M37.26,110.59c-.82-.27-5.67-1.87-7.64-2.49C38.38,111,33.71,129.61,44,133l8.34,2.74C37.05,127.27,46.45,116.61,37.26,110.59Z"/><path class="cls-4" d="M37.26,110.59l.28-.85c-.83-.27-5.67-1.87-7.66-2.49a.89.89,0,0,0-.54,1.7c1.87.62,3,2,3.95,4.12,1.36,3.12,1.92,7.54,3.08,11.56a18.74,18.74,0,0,0,2.49,5.57,9.47,9.47,0,0,0,4.85,3.63l8.34,2.73a.87.87,0,0,0,1.09-.49.89.89,0,0,0-.38-1.14,18.5,18.5,0,0,1-7.18-6.32c-2-3.2-2.15-6.51-2.66-9.79a15.93,15.93,0,0,0-1.37-4.8,10.57,10.57,0,0,0-3.8-4.18l-.21-.1-.28.85-.49.75a8.68,8.68,0,0,1,3.73,4.81c.92,2.75.81,6.15,1.92,9.76s3.59,7.35,9.47,10.59l.43-.78.28-.85-8.34-2.74a8.2,8.2,0,0,1-4.83-4.46c-1.62-3.2-2.25-7.61-3.26-11.55a20.24,20.24,0,0,0-2.09-5.42,7.69,7.69,0,0,0-4.19-3.45l-.27.85-.27.85c2,.62,6.81,2.22,7.63,2.49l.28-.85-.49.75Z"/><path class="cls-7" d="M111.58,135a39.28,39.28,0,0,1,5.57,3.16c-5.69-1.65-14.65,14-24.92,10.68l-8.34-2.74C101.19,148.3,100.61,134.36,111.58,135Z"/><path class="cls-4" d="M111.58,135l-.4.79c.32.16,1.33.65,2.45,1.25a21.18,21.18,0,0,1,3,1.82l.56-.7.25-.86a4.33,4.33,0,0,0-1.13-.15,9,9,0,0,0-4.76,1.91c-2.41,1.65-5,4-7.77,6s-5.66,3.41-8.55,3.4A8.54,8.54,0,0,1,92.5,148l-8.34-2.73-.27.84-.12.89a29,29,0,0,0,3.69.25,18,18,0,0,0,8.39-1.87c3.31-1.7,5.46-4.19,7.6-6.13a15,15,0,0,1,3.32-2.42,8.94,8.94,0,0,1,4.14-.95l.62,0,0-.89-.4.79.4-.79,0-.9-.72,0a10.94,10.94,0,0,0-6.28,1.93c-2.56,1.72-4.45,4.13-6.92,6a15.52,15.52,0,0,1-10.25,3.4,27.23,27.23,0,0,1-3.46-.23.88.88,0,0,0-1,.69.87.87,0,0,0,.59,1L92,149.65a10.59,10.59,0,0,0,3.24.52,14,14,0,0,0,6.59-1.87,59.56,59.56,0,0,0,8.37-6,31.24,31.24,0,0,1,3.45-2.46,5.77,5.77,0,0,1,2.67-.92,2.18,2.18,0,0,1,.63.09.89.89,0,0,0,.81-1.55,21.84,21.84,0,0,0-3.24-2c-1.15-.62-2.2-1.13-2.48-1.27l-.36-.1Z"/><path class="cls-7" d="M69.6,121.19l7.71,2.53c-11.16-2.16-15,15.29-25.23,11.92l-8.34-2.74C61.05,135.14,58.62,120.6,69.6,121.19Z"/><path class="cls-4" d="M69.6,121.19l-.28.85L77,124.57l.28-.85.16-.88a10.46,10.46,0,0,0-2-.2,11.26,11.26,0,0,0-6.36,2.11c-2.75,1.87-5,4.55-7.3,6.7a18.28,18.28,0,0,1-3.45,2.69,7.25,7.25,0,0,1-3.64,1,7.41,7.41,0,0,1-2.31-.39h0L44,132.05l-.28.85-.11.89a28.29,28.29,0,0,0,3.53.24,15.77,15.77,0,0,0,8.14-2c3.09-1.81,4.9-4.45,6.76-6.48A12.47,12.47,0,0,1,65,123.05a7.69,7.69,0,0,1,4-1h.6l0-.89-.28.85.28-.85,0-.89-.69,0a9.49,9.49,0,0,0-6.08,2.06c-2.34,1.83-3.9,4.36-6.07,6.36s-4.84,3.53-9.64,3.54a26.7,26.7,0,0,1-3.3-.22.89.89,0,0,0-.4,1.73l8.34,2.74h0a9.36,9.36,0,0,0,2.87.47,10,10,0,0,0,5.85-2.12c2.56-1.87,4.77-4.54,7.14-6.68s4.79-3.74,7.76-3.73a9.5,9.5,0,0,1,1.72.16.89.89,0,0,0,.44-1.72l-7.71-2.53-.23,0Z"/><path class="cls-7" d="M29.55,108.06l7.71,2.53C26.1,108.43,22.31,125.88,12,122.51L3.7,119.77C21,122,18.58,107.47,29.55,108.06Z"/><path class="cls-4" d="M29.55,108.06l-.28.85L37,111.44l.28-.85.17-.88a11.39,11.39,0,0,0-2.06-.2A11.2,11.2,0,0,0,29,111.62c-2.76,1.87-5,4.55-7.31,6.71A18.91,18.91,0,0,1,18.27,121a7.29,7.29,0,0,1-3.65,1,7.41,7.41,0,0,1-2.31-.39L4,118.93l-.28.84-.12.89a28.44,28.44,0,0,0,3.54.24,15.7,15.7,0,0,0,8.13-2c3.1-1.81,4.9-4.45,6.76-6.48a12.19,12.19,0,0,1,2.94-2.5,7.63,7.63,0,0,1,4-1h.59l.05-.89-.28.85.28-.85.05-.89-.69,0a9.52,9.52,0,0,0-6.09,2.06c-2.34,1.83-3.9,4.37-6.07,6.36s-4.84,3.53-9.63,3.55a27,27,0,0,1-3.31-.23.88.88,0,0,0-1,.69.87.87,0,0,0,.59,1l8.34,2.74a9,9,0,0,0,2.86.47,9.82,9.82,0,0,0,5.85-2.12c2.57-1.87,4.78-4.53,7.14-6.68s4.79-3.74,7.76-3.73a8.71,8.71,0,0,1,1.72.17.9.9,0,0,0,.45-1.73l-7.71-2.53-.23,0Z"/><path class="cls-6" d="M166.14,138.88c-1.54-6-19.27,2.83-24.2-16.32l-2.05-8C150.36,140.39,160.91,118.53,166.14,138.88Z"/><path class="cls-4" d="M166.14,138.88l.87-.22a3.47,3.47,0,0,0-1.7-2.18,13.56,13.56,0,0,0-5.24-1.15c-3-.28-6.61-.56-9.75-2.23s-5.93-4.66-7.51-10.76l-2.06-8-.86.23-.83.33c2.65,6.54,5.35,10.17,8.08,12.21a12.32,12.32,0,0,0,6,2.37c1.41.2,2.72.21,3.91.31a7.14,7.14,0,0,1,4.56,1.66c1.33,1.19,2.63,3.44,3.71,7.65a.85.85,0,0,0,.41.54.88.88,0,0,0,.67.1.91.91,0,0,0,.55-.41.9.9,0,0,0,.1-.68l-.87.22.87-.22a24,24,0,0,0-2.3-6,8.17,8.17,0,0,0-5.43-4.27,28,28,0,0,0-4.45-.47,11.45,11.45,0,0,1-6.73-2.27c-2.33-1.77-4.84-5.09-7.38-11.36a.9.9,0,0,0-1.7.56l2.06,8c1.26,4.93,3.4,8.17,5.94,10.26,3.82,3.14,8.39,3.64,12,4a26.35,26.35,0,0,1,4.49.62,3.38,3.38,0,0,1,1.22.59,1.58,1.58,0,0,1,.55.87.85.85,0,0,0,.41.54.88.88,0,0,0,.67.1.91.91,0,0,0,.55-.41.9.9,0,0,0,.1-.68Z"/><path class="cls-6" d="M130.82,79.31c-.22-.85-1.51-5.84-2-7.86,2.3,9,21.41,5.53,24.12,16.1l2.21,8.58C147.64,80.19,136.28,89,130.82,79.31Z"/><path class="cls-4" d="M130.82,79.31l.86-.22c-.22-.85-1.51-5.84-2-7.86l-.87.22-.86.22a8.5,8.5,0,0,0,4.81,5.4c3.42,1.74,7.86,2.57,11.65,4a17.19,17.19,0,0,1,4.92,2.58,7.66,7.66,0,0,1,2.74,4.18h0c.62,2.39,1.13,4.38,2.21,8.57l.86-.22.81-.38a20.46,20.46,0,0,0-6.49-8.34c-3.52-2.5-7.21-2.91-10.33-3.61a14.4,14.4,0,0,1-4.23-1.49,8.87,8.87,0,0,1-3.31-3.44l-.77.44.86-.22-.86.22-.78.44a10.59,10.59,0,0,0,5.49,4.85c3.14,1.24,6.53,1.34,9.74,2.58s6.31,3.52,9.06,9.33a.9.9,0,0,0,1.68-.6c-1.08-4.19-1.59-6.19-2.21-8.58h0a10.1,10.1,0,0,0-5-6.26c-3.51-2.06-8-2.95-11.77-4.21a18.21,18.21,0,0,1-4.85-2.22,5.88,5.88,0,0,1-2.49-3.41.89.89,0,0,0-1.08-.65.9.9,0,0,0-.66,1.08c.5,2,1.79,7,2,7.87l.09.22Z"/><path class="cls-6" d="M120.22,38.1c-.22-.84-1.51-5.83-2-7.86,2.3,9,21.4,5.53,24.12,16.11.62,2.39,1.13,4.39,2.21,8.58C137,39,125.68,47.76,120.22,38.1Z"/><path class="cls-4" d="M120.22,38.1l.86-.22c-.22-.85-1.51-5.84-2-7.85l-.87.21-.86.22a8.51,8.51,0,0,0,4.81,5.41c3.42,1.74,7.86,2.56,11.65,4a16.94,16.94,0,0,1,4.92,2.58,7.64,7.64,0,0,1,2.74,4.17c.62,2.39,1.13,4.39,2.21,8.58l.86-.22.81-.38a20.5,20.5,0,0,0-6.49-8.35c-3.52-2.5-7.21-2.9-10.33-3.6a14.41,14.41,0,0,1-4.23-1.5A8.8,8.8,0,0,1,121,37.66l-.77.44.86-.22-.86.22-.78.44a10.54,10.54,0,0,0,5.49,4.85c3.14,1.25,6.53,1.34,9.74,2.59s6.31,3.51,9.06,9.33a.9.9,0,0,0,1.68-.61c-1.08-4.18-1.59-6.18-2.21-8.57a10,10,0,0,0-5-6.26c-3.51-2.06-8-3-11.77-4.21a18.52,18.52,0,0,1-4.85-2.22A5.87,5.87,0,0,1,119.08,30a.9.9,0,0,0-1.74.43c.5,2,1.79,7,2,7.88l.09.21Z"/><path class="cls-7" d="M139.89,114.58a40.4,40.4,0,0,0,2.83,5.81c-1.29-5.84,15.11-13.83,12.38-24.41-.61-2.39-1.13-4.39-2.2-8.58C154,105,140,103.48,139.89,114.58Z"/><path class="cls-4" d="M139.89,114.58l-.82.35c.12.29.57,1.38,1.11,2.58a22.79,22.79,0,0,0,1.81,3.4.89.89,0,0,0,1.6-.71,2,2,0,0,1-.05-.48,6.85,6.85,0,0,1,1.8-3.76c1.73-2.24,4.43-4.82,6.73-7.72s4.22-6.15,4.23-9.87a10.38,10.38,0,0,0-.33-2.61h0c-.62-2.39-1.13-4.39-2.21-8.58a.89.89,0,0,0-1-.66.9.9,0,0,0-.76.94c.05.66.07,1.29.07,1.89a17.67,17.67,0,0,1-1.92,8.57c-1.71,3.19-4.33,5.18-6.69,7.44a16.08,16.08,0,0,0-3.1,3.83,11.09,11.09,0,0,0-1.36,5.38l.07.36.82-.35h.89a9.32,9.32,0,0,1,1.92-5.74c1.7-2.31,4.44-4.15,6.83-6.92s4.34-6.57,4.32-12.58c0-.64,0-1.31-.06-2l-.89.05-.87.23c1.08,4.19,1.59,6.18,2.21,8.57h0a8.74,8.74,0,0,1,.28,2.17,11.74,11.74,0,0,1-1.87,5.94c-1.72,2.88-4.37,5.59-6.63,8.1a31.3,31.3,0,0,0-3,3.65,6.93,6.93,0,0,0-1.32,3.66,4.12,4.12,0,0,0,.09.86l.88-.19.72-.52a20.82,20.82,0,0,1-1.63-3.09c-.53-1.17-1-2.23-1.1-2.56l-.82.36h0Z"/><path class="cls-7" d="M128.78,71.38c.2.79,1.43,5.58,2,7.93-1.44-11.39,16.38-14.06,13.66-24.63l-2.21-8.58C143.39,63.68,128.9,60.28,128.78,71.38Z"/><path class="cls-4" d="M128.78,71.38l-.87.22c.21.8,1.44,5.59,2,7.93a.89.89,0,0,0,1.75-.33,9.68,9.68,0,0,1-.07-1.18,9.16,9.16,0,0,1,2-5.62c1.85-2.51,4.77-4.66,7.29-7a19.38,19.38,0,0,0,3.3-3.81,8.9,8.9,0,0,0,1.42-4.76,9.45,9.45,0,0,0-.31-2.36h0c-.61-2.4-1.13-4.39-2.21-8.58a.89.89,0,0,0-1.75.27c0,.64.06,1.25.06,1.82a15.28,15.28,0,0,1-2,8.22c-1.75,2.91-4.45,4.52-6.91,6.47a13.73,13.73,0,0,0-3.25,3.45,9.86,9.86,0,0,0-1.43,5.26l0,.23.87-.22h.89a7.93,7.93,0,0,1,2-5.42c1.74-2,4.58-3.52,7.08-6s4.54-6,4.52-12c0-.61,0-1.26-.06-1.93l-.89.06-.86.22c1.07,4.19,1.59,6.19,2.2,8.58h0a7.54,7.54,0,0,1,.26,1.92,7.9,7.9,0,0,1-2,5c-1.85,2.32-4.79,4.44-7.32,6.9a18.24,18.24,0,0,0-3.3,4.09A10.51,10.51,0,0,0,129.84,78a11.33,11.33,0,0,0,.09,1.4l.89-.11.86-.22c-.6-2.35-1.83-7.14-2-7.94l-.86.23h0Z"/><path class="cls-7" d="M118.18,30.17c.2.8,1.43,5.59,2,7.93-1.44-11.38,16.38-14,13.66-24.63-.62-2.39-1.13-4.39-2.21-8.58C132.79,22.48,118.3,19.08,118.18,30.17Z"/><path class="cls-4" d="M118.18,30.17l-.87.22c.21.8,1.44,5.59,2,7.94A.89.89,0,0,0,121.1,38a9.68,9.68,0,0,1-.07-1.18,9.13,9.13,0,0,1,2-5.61c1.85-2.51,4.77-4.67,7.29-7a18.78,18.78,0,0,0,3.29-3.82,8.85,8.85,0,0,0,1.43-4.75,9.53,9.53,0,0,0-.31-2.37c-.61-2.39-1.13-4.39-2.2-8.58a.9.9,0,0,0-1.76.28c0,.63.06,1.24.06,1.82a15.33,15.33,0,0,1-2,8.22c-1.75,2.9-4.45,4.52-6.91,6.46a13.9,13.9,0,0,0-3.25,3.45,9.91,9.91,0,0,0-1.43,5.26l0,.23.87-.22h.89a7.9,7.9,0,0,1,2-5.41c1.74-2.06,4.58-3.52,7.08-6s4.54-6,4.52-12c0-.62,0-1.26-.06-1.93l-.89,0-.86.23c1.07,4.19,1.59,6.18,2.2,8.58a7.48,7.48,0,0,1,.26,1.92,7.92,7.92,0,0,1-2,5c-1.85,2.32-4.79,4.44-7.32,6.9a18.24,18.24,0,0,0-3.3,4.09,10.44,10.44,0,0,0-1.41,5.21,11.36,11.36,0,0,0,.09,1.41l.89-.12.86-.22c-.6-2.34-1.84-7.13-2-7.93l-.86.22h0Z"/><path class="cls-2" d="M14.75,178.25a.88.88,0,0,1-.85-.62L12.12,172,8,171.49a.89.89,0,0,1-.66-.45.88.88,0,0,1-.05-.79c.2-.47,5-11.53,12.18-18,8.92-8,17.55-13,33-13,1.73,0,3.57.06,5.47.18,18.82,1.24,33,13.67,33.58,14.2a.89.89,0,0,1-.59,1.56L90.5,155c-.14-.07-13.46-7.8-29-8.38-.94,0-1.88-.05-2.83-.05-11.66,0-21.09,3.11-29.7,9.79-9.64,7.47-13.32,21.09-13.36,21.23a.89.89,0,0,1-.84.66Z"/><path class="cls-4" d="M52.49,140.08c1.71,0,3.51.06,5.41.19,18.73,1.23,33.05,14,33.05,14s-13.45-7.9-29.42-8.5c-.94,0-1.9,0-2.86,0-9.6,0-19.93,2-30.25,10-10,7.74-13.67,21.71-13.67,21.71L12.8,171.2l-4.71-.6s4.83-11.27,12-17.7c8.85-8,17.23-12.82,32.44-12.82m0-1.79h0c-15.77,0-24.56,5.08-33.64,13.28-7.33,6.62-12.19,17.85-12.4,18.33a1.78,1.78,0,0,0,.1,1.59,1.77,1.77,0,0,0,1.32.88l3.57.45,1.61,5.08a1.77,1.77,0,0,0,1.7,1.24h0a1.78,1.78,0,0,0,1.68-1.32c0-.14,3.67-13.49,13-20.76,8.45-6.55,17.72-9.6,29.16-9.6q1.41,0,2.79.06c15.34.57,28.45,8.18,28.58,8.25a1.78,1.78,0,0,0,2.09-2.87c-.6-.54-15-13.16-34.11-14.42C56.1,138.36,54.24,138.29,52.49,138.29Z"/><path class="cls-2" d="M114.59,163.1A38.62,38.62,0,0,1,104,161.59c-4.84-1.39-13.12-6.38-13.47-6.59a.89.89,0,0,1,.46-1.66l.43.11c.07,0,7.42,4,20,4,10.85,0,23.17-8.66,23.3-8.75a.86.86,0,0,1,.51-.16.91.91,0,0,1,.63.26A.89.89,0,0,1,136,150l-2,3,3.35,1.18a.89.89,0,0,1,.58.7.85.85,0,0,1-.32.84A39.17,39.17,0,0,1,114.59,163.1Z"/><path class="cls-4" d="M135.21,149.47l-2.66,3.93L137,155a38.65,38.65,0,0,1-22.4,7.24,37.63,37.63,0,0,1-10.39-1.48c-4.77-1.37-13.25-6.5-13.25-6.5s7.43,4.08,20.44,4.16h.13c11.14,0,23.69-8.92,23.69-8.92m0-1.78a1.78,1.78,0,0,0-1,.33c-.12.08-12.24,8.58-22.66,8.58h-.12c-12.33-.08-19.53-3.9-19.6-3.94a1.84,1.84,0,0,0-.85-.21,1.79,1.79,0,0,0-.93,3.31c.36.22,8.74,5.27,13.69,6.69A39.61,39.61,0,0,0,114.59,164a40.24,40.24,0,0,0,23.52-7.63,1.78,1.78,0,0,0-.52-3.08l-2.26-.8,1.36-2a1.79,1.79,0,0,0-.23-2.28A1.77,1.77,0,0,0,135.21,147.69Zm0,3.57h0Z"/><path class="cls-2" d="M113.69,114.91a.89.89,0,0,1-.82-.54c-.06-.15-6.35-14.75-18.88-24.8-6.95-5.58-16.85-12-31.85-12l-1.12,0C48.43,77.87,37,86.9,36.88,87a.92.92,0,0,1-.56.19A.89.89,0,0,1,35.47,86l2-5.77-3.12-3a.91.91,0,0,1,.17-1.42c.46-.26,11.22-6.48,21.17-7.43,2.67-.26,5-.38,7.22-.38,11.93,0,21.37,3.88,32.58,13.42,14.83,12.6,19,32.21,19.09,32.41a.89.89,0,0,1-.61,1Z"/><path class="cls-4" d="M62.9,68.9c10.5,0,19.91,2.92,32,13.21C109.67,94.66,113.69,114,113.69,114s-6.28-14.83-19.14-25.15C86.39,82.32,76.36,76.7,62.14,76.7H61C48,77,36.32,86.29,36.32,86.29L38.49,80,35,76.59s10.94-6.36,20.8-7.31c2.46-.24,4.83-.38,7.14-.38m0-1.79v0c-2.21,0-4.6.13-7.31.39-10.14,1-21.07,7.28-21.53,7.55a1.81,1.81,0,0,0-.87,1.33,1.76,1.76,0,0,0,.54,1.5l2.7,2.6-1.8,5.23a1.78,1.78,0,0,0,2.8,2c.11-.09,11.35-8.94,23.61-9.19h1.1c14.72,0,24.46,6.29,31.29,11.77,12.34,9.9,18.56,24.31,18.62,24.46a1.8,1.8,0,0,0,1.64,1.09,1.7,1.7,0,0,0,.54-.09,1.77,1.77,0,0,0,1.21-2.06c-.16-.82-4.32-20.12-19.38-32.91C84.67,71.06,75.06,67.11,62.9,67.11Z"/><path class="cls-2" d="M151.09,143.86A40.34,40.34,0,0,1,120,128.1c-3.15-4.12-6.94-13.35-7.1-13.74a.9.9,0,0,1,.47-1.16l.35-.07a.9.9,0,0,1,.82.52c0,.07,3.71,7.86,14.11,15.68,8.88,6.68,24.55,7.09,24.71,7.09a.9.9,0,0,1,.27,1.74l-3.53,1.23,2.07,3.08a.9.9,0,0,1,.06.9.92.92,0,0,1-.77.49Z"/><path class="cls-4" d="M113.69,114s3.66,8,14.39,16c9.22,6.93,25.23,7.28,25.23,7.28l-4.63,1.61,2.72,4h-.31a39.76,39.76,0,0,1-30.41-15.41c-3.11-4.07-7-13.54-7-13.54m0-1.79a1.76,1.76,0,0,0-.7.15,1.8,1.8,0,0,0-.95,2.32c.16.39,4,9.73,7.22,13.94a41.22,41.22,0,0,0,31.83,16.11h.38a1.79,1.79,0,0,0,1.52-1,1.74,1.74,0,0,0-.11-1.8l-1.42-2.12,2.43-.85a1.78,1.78,0,0,0-.55-3.47c-.15,0-15.55-.42-24.19-6.92-10.25-7.71-13.8-15.26-13.83-15.34A1.8,1.8,0,0,0,113.69,112.23Z"/><polygon class="cls-8" points="115.97 55.49 114.67 65.52 104.65 64.2 105.97 54.18 115.97 55.49"/><polygon class="cls-4" points="115.97 55.49 115.08 55.38 113.89 64.52 105.65 63.43 106.74 55.18 115.85 56.38 115.97 55.49 115.08 55.38 115.97 55.49 116.09 54.61 105.2 53.18 103.64 64.97 115.44 66.52 116.97 54.72 116.09 54.61 115.97 55.49"/><path class="cls-9" d="M80.86,110.33a.87.87,0,0,1-.62-.26l-8.18-7.93a.9.9,0,0,1-.21-1l2.29-6.11a.91.91,0,0,1,.6-.55l.24,0a.89.89,0,0,1,.56.2l8,6.49a.91.91,0,0,1,.3.93l-2.14,7.56a.93.93,0,0,1-.63.62Z"/><path class="cls-4" d="M75,95.4l8,6.48-2.14,7.55-8.17-7.93L75,95.4m0-1.79-.47.06a1.78,1.78,0,0,0-1.2,1.1l-2.3,6.1a1.78,1.78,0,0,0,.43,1.91l8.18,7.93a1.76,1.76,0,0,0,1.24.51l.46-.06a1.81,1.81,0,0,0,1.26-1.24l2.13-7.55a1.79,1.79,0,0,0-.59-1.88L76.1,94A1.79,1.79,0,0,0,75,93.61Z"/><path class="cls-10" d="M128.06,106.29a.91.91,0,0,1-.59-.35l-5.71-7.71a.88.88,0,0,1-.16-.67A.87.87,0,0,1,122,97l7.7-5.7a.89.89,0,0,1,.53-.18.88.88,0,0,1,.72.37l5.7,7.7a.89.89,0,0,1-.18,1.25l-7.7,5.7a.87.87,0,0,1-.53.18Z"/><path class="cls-4" d="M130.18,92l5.7,7.7-7.69,5.71-5.71-7.72,7.7-5.69m0-1.79a1.82,1.82,0,0,0-1.06.35l-7.7,5.7a1.75,1.75,0,0,0-.71,1.17,1.8,1.8,0,0,0,.33,1.33l5.71,7.71a1.77,1.77,0,0,0,1.17.7l.27,0a1.77,1.77,0,0,0,1.06-.35l7.7-5.71a1.77,1.77,0,0,0,.37-2.49l-5.7-7.7A1.77,1.77,0,0,0,130.18,90.21Z"/><polygon class="cls-8" points="104.91 132.1 100.07 123.09 90.99 121.23 92.48 130.18 104.91 132.1"/><polygon class="cls-4" points="104.91 132.1 105.69 131.68 100.65 122.3 89.9 120.09 91.71 130.97 106.54 133.26 105.69 131.68 104.91 132.1 105.04 131.22 93.26 129.4 92.09 122.37 99.48 123.88 104.12 132.53 104.91 132.1 105.04 131.22 104.91 132.1"/><path class="cls-9" d="M58.48,173a.86.86,0,0,1-.62-.25l-8.17-7.93a.89.89,0,0,1-.22-1l2.3-6.11a.87.87,0,0,1,.6-.55l.23,0a.89.89,0,0,1,.56.2l8,6.48a.91.91,0,0,1,.3.94l-2.14,7.55a.88.88,0,0,1-.63.62Z"/><path class="cls-4" d="M52.6,158.06l8,6.48-2.14,7.55-8.17-7.93,2.29-6.1m0-1.79-.47.06a1.78,1.78,0,0,0-1.2,1.1l-2.29,6.1a1.78,1.78,0,0,0,.43,1.91l8.17,7.93a1.77,1.77,0,0,0,1.24.51l.46-.06a1.81,1.81,0,0,0,1.26-1.24L62.34,165a1.79,1.79,0,0,0-.6-1.87l-8-6.48A1.79,1.79,0,0,0,52.6,156.27Z"/><path class="cls-10" d="M89.27,174.92a.92.92,0,0,1-.59-.36L83,166.85a.91.91,0,0,1,.19-1.25l7.7-5.69a.89.89,0,0,1,1.25.18l5.7,7.7a.89.89,0,0,1-.18,1.25l-7.7,5.71a.93.93,0,0,1-.53.17Z"/><path class="cls-4" d="M91.39,160.62l5.71,7.71L89.4,174l-5.71-7.71,7.7-5.7m0-1.78a1.75,1.75,0,0,0-1.06.35l-7.7,5.69a1.83,1.83,0,0,0-.71,1.18,1.79,1.79,0,0,0,.33,1.32L88,175.09a1.77,1.77,0,0,0,1.17.71l.27,0a1.77,1.77,0,0,0,1.06-.35l7.7-5.71a1.79,1.79,0,0,0,.37-2.5l-5.7-7.7A1.79,1.79,0,0,0,91.39,158.84Z"/><polygon class="cls-8" points="178.63 83.84 177.32 93.86 167.31 92.55 168.63 82.53 178.63 83.84"/><polygon class="cls-4" points="178.63 83.84 177.74 83.72 176.55 92.86 168.31 91.78 169.4 83.53 178.51 84.72 178.63 83.84 177.74 83.72 178.63 83.84 178.74 82.95 167.86 81.52 166.3 93.31 178.09 94.86 179.63 83.07 178.74 82.95 178.63 83.84"/></svg>