<svg id="レイヤー_1" data-name="レイヤー 1" xmlns="http://www.w3.org/2000/svg" viewBox="0 0 200 200"><defs><style>.cls-1{fill:#d1d2d3;}.cls-2{fill:#e0e1e2;}.cls-3{fill:#d9e2e2;}.cls-4{fill:#00b1a5;}.cls-5{fill:#df2c2c;}</style></defs><title>tada</title><path id="_パス_" data-name="&lt;パス&gt;" class="cls-1" d="M95.57,92.71a99.7,99.7,0,0,0-18.38,23.92c-2.66,4.93-4.85,10.23-5.27,15.8a12.76,12.76,0,0,0,.76,6.1c1.4,3.23,4.81,5.27,8.3,5.84a22.31,22.31,0,0,0,10.42-1.29A71.94,71.94,0,0,0,111.86,132a115.45,115.45,0,0,0,22.82-22.48A72.3,72.3,0,0,0,145.9,89.72a24.1,24.1,0,0,0,1.63-10.16,11.14,11.14,0,0,0-5.08-8.6c-3-1.74-6.86-1.52-10.27-.8C119,72.93,107.35,81.61,97.73,90.63,97,91.35,96.29,92,95.57,92.71Z"/><path id="_パス_2" data-name="&lt;パス&gt;" class="cls-2" d="M97.65,94.8a85.29,85.29,0,0,0-15.73,20.46,34.78,34.78,0,0,0-4.51,13.53,11.14,11.14,0,0,0,.65,5.23c1.21,2.77,4.13,4.51,7.09,5a19.37,19.37,0,0,0,8.9-1.1,61.35,61.35,0,0,0,17.51-9.48,98.42,98.42,0,0,0,19.52-19.21,63.13,63.13,0,0,0,9.63-16.94,20.25,20.25,0,0,0,1.4-8.68,9.48,9.48,0,0,0-4.36-7.35c-2.62-1.52-5.84-1.29-8.79-.69C117.7,78,107.73,85.4,99.47,93.09,98.86,93.62,98.26,94.23,97.65,94.8Z"/><path id="_パス_3" data-name="&lt;パス&gt;" class="cls-3" d="M123.8,121.44a108.2,108.2,0,0,1-9.36,8.26l6,32.71,18,8.15-9.93-54C127,118.18,125.47,119.81,123.8,121.44Z"/><path id="_パス_4" data-name="&lt;パス&gt;" class="cls-3" d="M80.6,144.29l15.69,7.13-1.78-9.7C89.2,143.88,84.43,144.79,80.6,144.29Z"/><path id="_パス_5" data-name="&lt;パス&gt;" class="cls-3" d="M147.41,78.62a25.85,25.85,0,0,1-1.7,11l16.94,91.94,18,8.15-11-59.92Z"/><path id="_パス_6" data-name="&lt;パス&gt;" class="cls-4" d="M94.51,141.72l1.78,9.7,24.18,11-6-32.71A82,82,0,0,1,94.51,141.72Z"/><path id="_パス_7" data-name="&lt;パス&gt;" class="cls-5" d="M128.5,116.52l9.93,54,24.18,11L145.67,89.61C142.9,97.68,136.92,107.27,128.5,116.52Z"/><path id="_パス_8" data-name="&lt;パス&gt;" class="cls-4" d="M194.33,186.89l-24.75-57.07,11.07,59.92,7.43,3.37A4.72,4.72,0,0,0,194.33,186.89Z"/><path id="_パス_9" data-name="&lt;パス&gt;" class="cls-4" d="M68.85,60.54,91.93,87.71,65.17,64.18a2.6,2.6,0,0,1-.11-3.79h0A2.59,2.59,0,0,1,68.85,60.54Z"/><path id="_パス_10" data-name="&lt;パス&gt;" class="cls-4" d="M32.35,102.61,65,117.05,30.61,107.5a2.6,2.6,0,0,1-1.74-3.38h0A2.58,2.58,0,0,1,32.35,102.61Z"/><path id="_パス_11" data-name="&lt;パス&gt;" class="cls-4" d="M114.82,31.62l5.65,35.17-10.73-34a2.59,2.59,0,0,1,1.9-3.3h0A2.6,2.6,0,0,1,114.82,31.62Z"/><path id="_パス_12" data-name="&lt;パス&gt;" class="cls-5" d="M81.39,19.34l25.36,53.82L76.66,21.84a2.59,2.59,0,0,1,1-3.6l.15-.07A2.56,2.56,0,0,1,81.39,19.34Z"/><path id="_パス_13" data-name="&lt;パス&gt;" class="cls-5" d="M25.15,73.84l52.61,27.74L22.88,78.69a2.61,2.61,0,0,1-1.37-3.48l.08-.16A2.6,2.6,0,0,1,25.15,73.84Z"/><polygon id="_パス_14" data-name="&lt;パス&gt;" class="cls-4" points="27.92 36.24 33.76 38.29 38.76 34.62 38.61 40.79 43.65 44.39 37.7 46.21 35.84 52.09 32.31 47.01 26.14 47.05 29.85 42.12 27.92 36.24"/><polygon id="_パス_15" data-name="&lt;パス&gt;" class="cls-4" points="37.96 131.33 40.46 132.24 42.66 130.65 42.59 133.34 44.78 134.9 42.21 135.65 41.37 138.23 39.86 136.03 37.16 136.03 38.8 133.91 37.96 131.33"/><polygon id="_パス_16" data-name="&lt;パス&gt;" class="cls-5" points="59.34 22.68 61.88 23.55 64.04 22 63.96 24.65 66.16 26.24 63.58 27 62.75 29.57 61.23 27.34 58.54 27.38 60.17 25.22 59.34 22.68"/><path class="cls-5" d="M18.48,91.81,14,93.17,12.57,97.6,9.92,93.78H5.25L8.1,90.06,6.62,85.63,11,87.18l3.75-2.77-.12,4.67ZM7,92.94h3.41l1.93,2.81,1-3.26,3.26-1-2.77-2,.08-3.41-2.77,2L7.91,87,9,90.21Z"/><path class="cls-4" d="M96.4,23.74l-3.49-5-6.1,0,3.72-4.89-1.94-5.8,5.76,2,4.93-3.6-.11,6.1,5,3.56L98.26,17.9Zm1.18-6.48,4.66-1.4L98.3,13l.11-4.85L94.51,11,89.92,9.45l1.52,4.62-3,3.87,4.85,0,2.77,4Z"/><polygon id="_パス_17" data-name="&lt;パス&gt;" class="cls-4" points="56.99 76.57 58.81 77.21 60.36 76.08 60.32 77.97 61.84 79.11 60.02 79.64 59.45 81.46 58.35 79.91 56.46 79.91 57.59 78.39 56.99 76.57"/><path class="cls-5" d="M134.15,57.73l-2.24.69-.72,2.23-1.32-1.89h-2.32L129,56.9l-.72-2.2,2.19.76,1.9-1.36,0,2.31ZM131.5,58l1.44-.42-1.22-.87,0-1.48-1.21.88-1.4-.5L129.6,57l-.91,1.17h1.48l.83,1.21Z"/></svg>