<?xml version="1.0" encoding="UTF-8"?><svg id="a" xmlns="http://www.w3.org/2000/svg" viewBox="0 0 240 240"><defs><style>.b{fill:#f8ed00;}.c{fill:#fff;}.d{fill:#ffbe0a;}.e{fill:#6a896b;}.f{fill:#bccebc;}.g{fill:#c5b823;}.h{fill:#62d2dd;}.i{fill:#474747;}.j{fill:#515556;}</style></defs><g><g><path class="d" d="M48.61261,231.81885c-4.84375,0-8.7832-3.94043-8.7832-8.78369V21.77783c0-.78271,.63379-1.41748,1.41699-1.41748h14.73242c.7832,0,1.41699,.63477,1.41699,1.41748V223.03516c0,4.84326-3.93945,8.78369-8.7832,8.78369Z"/><path class="i" d="M55.97882,21.77762V223.03494c0,4.06833-3.2981,7.36639-7.36646,7.36639s-7.36646-3.29807-7.36646-7.36639V21.77762h14.73291m0-2.83466h-14.73291c-1.56543,0-2.83472,1.2691-2.83472,2.83466V223.03494c0,5.62486,4.57617,10.20103,10.20117,10.20103s10.20117-4.57617,10.20117-10.20103V21.77762c0-1.56555-1.26929-2.83466-2.83472-2.83466h0Z"/></g><g><path class="h" d="M174.6839,146.70996c-16.43848,0-33.07031-3.76758-49.1543-7.41113-15.93262-3.60889-32.40723-7.34082-48.5293-7.34082-12.89746,0-24.40137,2.37158-35.16895,7.24951-.18652,.08447-.38574,.12646-.58496,.12646-.26855,0-.53516-.07617-.76758-.22607-.40527-.26123-.64941-.70996-.64941-1.19141V21.77783c0-.55664,.3252-1.06152,.83203-1.29102,11.14258-5.04834,23.0293-7.50244,36.33984-7.50244,16.43848,0,33.07031,3.76758,49.1543,7.41113,15.93262,3.60889,32.40723,7.34082,48.5293,7.34082,12.89746,0,24.40137-2.37158,35.16895-7.24951,.1875-.08496,.38672-.12646,.58496-.12646,.37402,0,.74219,.14844,1.01465,.42822,.41699,.42725,.52148,1.06982,.26074,1.60693-10.92383,22.55371-22.58691,43.76904-35.63867,64.82715,12.99121,20.91357,24.58691,37.19824,35.43652,49.76758,.29199,.33838,.40723,.79443,.31055,1.23096-.0957,.43652-.3916,.80176-.79883,.98633-11.14258,5.04834-23.0293,7.50244-36.33984,7.50244Z"/><path class="i" d="M77.00055,14.40179c32.56006,0,65.12329,14.75162,97.68335,14.75162,11.92065,0,23.83423-1.97531,35.75464-7.37579-12.01025,24.79767-24.02051,46.11908-36.03076,65.44492,12.01025,19.38721,24.02051,36.77875,36.03076,50.694-11.91699,5.39893-23.83765,7.37582-35.75464,7.37582-32.56006,0-65.12329-14.74957-97.68335-14.75162-11.92065-.00076-23.83423,1.97531-35.75464,7.37579V21.77762c11.91699-5.39893,23.83765-7.37582,35.75464-7.37582m0-2.83463c-13.51587,0-25.59399,2.49527-36.92432,7.62845-1.01392,.45923-1.66504,1.46915-1.66504,2.582v116.13892c0,.96313,.48901,1.86038,1.29858,2.38232,.46509,.2999,.99951,.45233,1.53638,.45233,.39746,0,.79639-.08356,1.16943-.25266,10.58008-4.79315,21.89062-7.12317,34.57812-7.12317,15.96851,.00101,32.36353,3.71451,48.21899,7.30579,16.16138,3.66061,32.87305,7.44583,49.47119,7.44583,13.51587,0,25.59399-2.49527,36.92432-7.62845,.81421-.36877,1.40649-1.09982,1.59863-1.9726,.19214-.87274-.03857-1.78503-.62231-2.46152-10.67358-12.36636-22.07959-28.35541-34.84082-48.84357,12.89355-20.85925,24.43213-41.88025,35.24609-64.20761,.52026-1.07428,.31177-2.35938-.52124-3.21414-.54541-.55954-1.28198-.8562-2.03076-.8562-.39502-.00003-.79346,.08258-1.16895,.25272-10.58008,4.79315-21.89282,7.12317-34.58496,7.12317-15.96289,0-32.35913-3.71402-48.21533-7.30576-16.1604-3.66061-32.87085-7.44586-49.46802-7.44586h0Z"/></g></g><g><path class="c" d="M148.15695,74.31703c-.34708,.17556-.69704,.34796-1.05128,.51554-.16869,.08005-.3396,.15729-.50978,.23551-.18548,.08496-.37179,.1689-.55912,.25169-5.82355,2.5832-12.48594,4.10701-19.59917,4.47824-.2348,.01249-.47007,.0234-.70566,.03335-.15303,.00632-.30464,.01639-.45806,.02165l-.28171,12.39169c8.73909,3.0893,14.89097,10.22551,15.20515,10.5958,.52797,.62066,.50833,1.48451-.04628,2.03571-.40699,.40733-10.12798,9.94914-22.1709,9.18777s-21.30166-11.50311-21.69012-11.96073c-.52688-.61957-.50725-1.48343,.04628-2.03571,.33101-.32951,6.78913-6.66862,15.64313-8.64559l.2817-12.39162c-.15007-.02418-.29813-.05288-.44777-.07803-.23918-.04043-.47796-.08184-.71622-.12481-7.06915-1.26771-13.63635-3.62553-19.32135-6.93206-.1909-.11073-.38068-.22253-.5695-.33535-.16063-.09622-.32206-.19157-.48121-.28933-.34855-.2136-.69255-.43152-1.03349-.65228-.09987-.06476-.19905-.13016-.29828-.19556-.37495-.24674-.74685-.49626-1.11201-.75165l-.39363-.27515c-5.11879,4.90299-8.24459,11.25981-8.40616,18.36682-.38776,17.0567,16.43642,31.96795,37.57755,33.30452,21.1411,1.33657,38.59345-11.40766,38.98121-28.46437,.15547-6.83883-2.45758-13.33152-7.00427-18.74381-.18697,.10004-.37531,.19858-.56453,.29623-.10464,.05408-.20925,.10817-.31451,.16153Zm-49.11028,6.05132c3.32758,.21037,5.9584,3.32332,5.87591,6.95211-.08252,3.6298-2.84713,6.40164-6.1747,6.19126s-5.95842-3.32332-5.87591-6.95312c.08249-3.62879,2.8471-6.40062,6.1747-6.19025Zm39.39848,15.65309c-3.32813-.21041-5.95896-3.32335-5.87644-6.95315,.08249-3.62879,2.8471-6.40062,6.17524-6.19021s5.95896,3.32335,5.87647,6.95214c-.08252,3.6298-2.84713,6.40164-6.17526,6.19123Z"/><path class="f" d="M167.34134,51.98875c.11025-4.8496-2.51764-9.35193-6.72377-12.47663,.27335,1.11065,.41708,2.25191,.3906,3.41664-.15914,7.00022-5.93243,10.81869-13.77369,11.63498,1.67735,3.64568,2.79515,7.62712,3.23502,11.7984,9.35314-.44374,16.69275-6.49543,16.87184-14.37339Z"/><path class="f" d="M78.83981,39.04997c.02648-1.16471,.22217-2.28453,.5446-3.3575-4.33592,2.58466-7.16069,6.74276-7.27093,11.59185-.17456,7.67868,6.51335,14.48615,15.46973,16.32922,.49268-4.13543,1.66158-8.00955,3.37762-11.49734-7.20976-1.96391-12.27267-6.39581-12.12103-13.06623Z"/><path class="e" d="M125.67067,62.39856l-.13689,6.02145c7.90197-.33539,15.21739-2.20364,21.28385-5.45053l.74186-.59669c-2.60101-11.64329-10.81489-21.0966-21.33354-24.4002l-.55529,24.42597Z"/><path class="e" d="M112.52104,67.59732l.13689-6.02145,.55529-24.42606c-10.67875,1.97339-19.32316,10.41908-22.4152,21.76556l.74775,.55974c5.90108,4.0035,13.11121,6.79007,20.97528,8.12221Z"/><path class="j" d="M89.69159,70.61847c.34094,.22076,.68494,.43867,1.03349,.65228-.34807-.21381-.6926-.43118-1.03349-.65228Z"/><path class="j" d="M91.20629,71.56008c.18882,.11282,.3786,.22462,.5695,.33535-.19067-.11091-.38084-.22232-.5695-.33535Z"/><path class="j" d="M147.10567,74.83258c.35424-.16759,.70419-.33999,1.05128-.51554-.34703,.17588-.69753,.34769-1.05128,.51554Z"/><path class="j" d="M146.03677,75.31978c.18733-.08279,.37364-.16674,.55912-.25169-.18537,.08518-.37202,.16871-.55912,.25169Z"/><path class="j" d="M125.73194,79.83137c.23558-.00995,.47086-.02086,.70566-.03335-.23479,.01224-.46991,.02361-.70566,.03335Z"/><path class="j" d="M111.09714,78.82749c.23826,.04297,.47704,.08439,.71622,.12481-.23936-.04024-.47799-.0821-.71622-.12481Z"/><path class="g" d="M122.75118,91.56373l.31294-13.76546c9.68758-.02691,18.48669-2.26506,25.32365-6.06022,.00942-.22103,.02543-.44014,.03049-.66246,.04859-2.13719-.09653-4.23556-.40814-6.2796-6.758,3.61733-15.34634,5.74472-24.78163,5.77226l.18896-8.31214,.56564-24.88133c-1.38451-.31019-2.80048-.52023-4.24563-.61159-1.44457-.09133-2.86659-.06072-4.26065,.07381l-.56564,24.88133-.18896,8.31214c-9.40694-1.21877-17.87406-4.42443-24.44899-8.88469-.40352,1.99883-.64347,4.07286-.69206,6.21004-.00505,.22233,.0015,.44286,.00032,.66441,6.64557,4.64755,15.31781,7.99027,24.97636,9.24026l-.31293,13.76539c1.37869-.17575,2.80293-.23735,4.26227-.14509,1.45951,.09227,2.87708,.33355,4.244,.68294Zm17.68487-22.34202c1.39947,.08848,2.51097,1.21228,2.48147,2.5101-.02949,1.2973-1.18884,2.27805-2.58831,2.18958s-2.51096-1.21279-2.48147-2.5101c.0295-1.29782,1.18884-2.27805,2.58831-2.18958Zm-10.31587,2.17138c1.39947,.08848,2.51097,1.21228,2.48147,2.5101s-1.18884,2.27804-2.58831,2.18956c-1.40056-.08855-2.51097-1.21228-2.48147-2.51008s1.18775-2.27812,2.58831-2.18958Zm-33.72188-.56314c-1.40002-.08851-2.51097-1.2123-2.48147-2.5101s1.18829-2.27809,2.58831-2.18958,2.51097,1.21228,2.48147,2.5101-1.18829,2.27809-2.58831,2.18958Zm10.18109,3.78126c-1.40002-.08851-2.51097-1.21228-2.48147-2.51008s1.18829-2.27809,2.58831-2.18958,2.51097,1.21228,2.48147,2.5101-1.18829,2.27807-2.58831,2.18956Zm12.36714-3.0564c1.40002,.08851,2.51097,1.2123,2.48147,2.5101s-1.18829,2.27809-2.58831,2.18958-2.51097-1.21228-2.48147-2.5101,1.1883-2.27809,2.58831-2.18958Zm-2.36869-7.47084c.0295-1.29782,1.1883-2.27809,2.58831-2.18958s2.51097,1.21228,2.48147,2.5101-1.18829,2.27809-2.58831,2.18958-2.51097-1.2123-2.48147-2.5101Zm3.02754-21.51046c1.40002,.08851,2.51097,1.21228,2.48147,2.5101s-1.18829,2.27809-2.58831,2.18958-2.51097-1.21228-2.48147-2.5101,1.1883-2.27809,2.58831-2.18958Zm-.21961,9.66044c1.40002,.08851,2.51097,1.21228,2.48147,2.5101s-1.18829,2.27809-2.58831,2.18958-2.51097-1.21228-2.48147-2.5101,1.1883-2.27809,2.58831-2.18958Zm-3.24715,31.17088c.02949-1.2973,1.1883-2.27809,2.58831-2.18958s2.51096,1.21279,2.48147,2.5101-1.18829,2.27809-2.58831,2.18958-2.51096-1.21279-2.48147-2.5101Z"/><path class="j" d="M98.74788,93.51172c3.32758,.21037,6.09219-2.56146,6.1747-6.19126,.08249-3.62879-2.54833-6.74173-5.87591-6.95211s-6.0922,2.56146-6.1747,6.19025c-.08252,3.6298,2.54831,6.74275,5.87591,6.95312Z"/><path class="j" d="M138.74394,82.87807c-3.32813-.21041-6.09274,2.56143-6.17524,6.19021-.08252,3.6298,2.54831,6.74275,5.87644,6.95315s6.09274-2.56143,6.17526-6.19123c.08249-3.62879-2.54833-6.74173-5.87647-6.95214Z"/><path class="b" d="M118.26216,101.47512l-.00395-.00032-.02582-.00169c-7.56284-.47847-14.54361-.34088-20.12075,.26261,2.05313,2.20356,10.09223,10.14139,19.90411,10.76171,9.81637,.6206,18.19572-6.28531,20.33878-8.22004-5.54291-1.30746-12.51137-2.32332-20.08656-2.8019l-.00581-.00037Z"/><path class="b" d="M118.47156,92.44735c-8.8592-.56009-16.55049,5.01236-19.54162,7.52644,5.52567-.51926,12.19228-.60345,19.37574-.15053,7.18638,.4564,13.82641,1.38148,19.31252,2.59858-2.86683-2.88344-10.28476-9.41423-19.14664-9.97449Z"/><g><polygon class="j" points="116.79956 34.3494 116.79991 34.34938 116.80041 34.34936 116.79956 34.3494"/><polygon class="j" points="123.51873 34.86035 123.51909 34.86041 123.51948 34.86049 123.51873 34.86035"/><path class="j" d="M169.90888,52.151c.1248-5.45429-2.70836-10.73399-7.74554-14.4743l-4.944-3.67287c-.10538-.07829-.24973-.08927-.36039-.02741-.11068,.06183-.1648,.18375-.13512,.30434l1.39198,5.65801-.00005-.00016c.2365,.96386,.34558,1.91524,.32482,2.82787-.05122,2.20393-.90496,4.4102-2.83887,6.15417-1.90277,1.71443-4.86716,2.98819-9.18668,3.33437-4.36893-8.05556-11.53716-14.21236-20.05856-16.71305l-.00888-.00247-1.5439-.40848-.01282-.00314-.31805-.07125c-.05379-.012-.09944-.02034-.13598-.02851l-.00075-.00017c-.22694-.04977-.45559-.0982-.68625-.14324-.04772-.0093-.09118-.01684-.13074-.02431-.24585-.04696-.49382-.09232-.74394-.13346-.04188-.00689-.07727-.01156-.10587-.0162-.24972-.04013-.50159-.07928-.75614-.11366-.28717-.03901-.57425-.07402-.86095-.10469l.00052,.00005c-.06033-.00654-.12095-.01297-.18217-.01917-.3596-.03623-.71967-.06753-1.07893-.09024-.35956-.02273-.72002-.03699-1.08042-.04628-.06092-.00152-.12106-.00274-.18067-.00394h-.00036c-.28747-.0055-.57557-.00685-.86399-.00419h.00033c-.25392,.00208-.50466,.00931-.75361,.01759l-.00129,.00004c-.0299,.00115-.06712,.00142-.11169,.00313-.25121,.00944-.50014,.02339-.74751,.03899-.04013,.00252-.08337,.00467-.12983,.00777h-.00035c-.2402,.01635-1.14988,.09849-1.15188,.09864l-.01504,.0017-1.55309,.21197-.00891,.00134c-9.01759,1.4846-16.73858,7.15358-21.41266,15.20761-3.83223-.98067-6.43046-2.60243-8.06774-4.48358-1.66965-1.91983-2.35245-4.118-2.3055-6.22148,.02073-.91264,.17269-1.84746,.45285-2.77857l1.64424-5.46549c.03504-.11652-.01339-.24488-.12093-.32053-.10755-.07563-.25197-.08291-.3606-.01815l-5.09594,3.03756c-5.19315,3.09353-8.2579,8.00093-8.38108,13.45489-.10185,4.46408,1.78752,8.67724,4.98005,12.02012,3.13545,3.28374,7.52931,5.73084,12.5435,6.78105-.01593,.28579-.03026,.57208-.03986,.86001-6.13014,5.4075-9.9306,12.65803-10.11572,20.81735-.2091,9.18276,4.1958,17.79667,11.45752,24.28183,7.26213,6.48643,17.38351,10.85369,28.63346,11.56512,11.25021,.71106,21.54076-2.36571,29.07635-7.91662,7.5351-5.5497,12.31817-13.58271,12.5266-22.76551,.16977-7.45253-2.70153-14.53144-7.67092-20.39995l.01744-.42317,.01169-.23191-.00003,.00057c.00814-.15512,.01612-.31206,.01978-.47309,.01917-.84305,.00588-1.6799-.02982-2.51148,5.19429-.29755,9.83941-2.14651,13.23279-5.03951,3.457-2.94658,5.61688-6.97961,5.72012-11.53585Zm-57.56528,9.40506l-.12937,5.69055c-7.68187-1.34705-14.71909-4.08968-20.48614-8.00137l-.57225-.42829c3.07146-11.02507,11.43179-19.22977,21.73423-21.29912l-.54647,24.03823Zm14.18773-23.1757c10.14768,3.35388,18.09418,12.5434,20.68159,23.87603l-.58443,.47001c-5.92526,3.16649-13.05952,5.00976-20.773,5.38263l.12937-5.69055,.54647-24.03812Zm24.21357,27.66971c-.44936-3.96192-1.50614-7.74941-3.07026-11.24182,3.80027-.44801,7.11758-1.60461,9.53761-3.5169,2.50366-1.97572,4.0318-4.76885,4.11017-8.34267,.02078-.91302-.06242-1.81095-.2271-2.6905,3.74314,3.04195,6.03345,7.22644,5.93172,11.71063-.08805,3.85541-1.9254,7.26488-4.89855,9.77413-2.90656,2.45231-6.89977,4.03352-11.38358,4.30714Zm-6.61402,47.44988c-6.99337,5.10692-16.56874,7.93992-27.06526,7.27614-10.49637-.6634-19.91576-4.69728-26.65734-10.67256-6.74199-5.97666-10.80392-13.88482-10.61252-22.32075,.15825-6.94407,3.17847-13.16173,8.14001-17.99584l.16413,.11474c.36878,.2578,.74331,.50901,1.11985,.75688,.09897,.06526,.19887,.13113,.30012,.19678,.34326,.22267,.69017,.44155,1.04069,.65678,.16239,.09967,.32479,.19565,.48423,.29119,.19076,.11428,.38217,.22631,.57314,.33749,5.72295,3.3285,12.32818,5.69915,19.43368,6.97341,.23919,.04285,.47906,.08494,.72001,.12543,.05414,.00909,.11359,.01951,.16933,.02949l-.27103,11.92223c-4.38695,1.02046-8.16407,3.07738-10.90117,4.93258-2.78327,1.88724-4.4923,3.56546-4.66696,3.7392-.32809,.32724-.49853,.74802-.5081,1.17725-.00995,.42919,.14092,.87012,.45321,1.23714,.2053,.24145,2.63092,3.05724,6.53041,5.91812,3.89884,2.85877,9.27738,5.77109,15.39629,6.15971,6.1191,.3851,11.6147-1.83974,15.6322-4.19805,4.01834-2.36042,6.56437-4.86151,6.78029-5.07715l-.00077,.00075c.32875-.32645,.49967-.74719,.50924-1.17654,.00995-.42938-.14135-.87063-.45415-1.23811l.00036,.00041c-.16631-.19596-1.79362-2.08468-4.48331-4.31807-2.64496-2.19546-6.31802-4.72338-10.64628-6.29484l.27103-11.9222c.0588-.00307,.1213-.00608,.17836-.0084,.23731-.00982,.47366-.02124,.70945-.03365,7.14973-.37315,13.85063-1.90486,19.71288-4.50515,.18778-.08316,.37569-.16723,.56294-.25321,.16883-.0778,.341-.1555,.51328-.23726,.35589-.16891,.70888-.34181,1.05843-.51903,.10662-.05411,.21173-.10851,.31632-.16245,.10925-.05639,.21778-.11417,.32664-.17138,4.39818,5.3212,6.91696,11.66357,6.76552,18.34216-.19218,8.43586-4.60129,15.80849-11.59511,20.91675Zm-29.43767-43.18021c.08715,.0113,.17302-.0112,.23831-.06244,.06531-.05124,.10312-.12578,.10497-.20689l.18896-8.31215,.55995-24.631c1.29362-.11235,2.60945-.13722,3.94549-.05276,1.33635,.08449,2.64681,.2754,3.93208,.55081l-.55995,24.63098-.18896,8.31215c-.00184,.08113,.03247,.16021,.09527,.21955,.06278,.05934,.14738,.09261,.23479,.09235,9.29578-.02749,17.77331-2.08483,24.51721-5.59666,.26475,1.88965,.38736,3.82395,.34262,5.79197-.00367,.16309-.01426,.33232-.02312,.50242-6.7659,3.72169-15.45979,5.92181-25.03255,5.94814-.16484,.00046-.2951,.1192-.29858,.27217l-.305,13.41618c-1.26958-.30405-2.58085-.51989-3.93084-.60522-1.34997-.08536-2.66705-.03571-3.94673,.10717l.30499-13.41616c.00348-.15297-.12104-.28782-.28537-.30909-9.54397-1.23492-18.11302-4.52641-24.69097-9.09175-.00109-.171-.00413-.34132-.00038-.50389,.04474-1.96803,.25495-3.88128,.60475-5.73209,6.56537,4.35327,14.92518,7.4751,24.19305,8.67621Zm3.55422,31.44604l.00803,.00079,.00583,.00037,.00081,.00005,.01042,.00064c7.29558,.46113,14.02245,1.42336,19.44396,2.6611-1.24235,1.07824-3.6564,2.99602-6.81854,4.66121-3.55853,1.87505-8.05477,3.42205-12.8755,3.11608-4.81867-.30345-9.23004-2.41212-12.69254-4.72998-3.07732-2.05901-5.39782-4.27584-6.58895-5.50891,5.45441-.5495,12.19396-.66379,19.47914-.20309l.0024,.00015,.0032,.0002,.02174,.00137Zm.06508-2.23381l-.00672,.29137,.00657-.29138c-6.77383-.42709-13.0888-.37763-18.43201,.06367,1.54998-1.23284,3.89961-2.89462,6.77459-4.27722,3.37263-1.6227,7.45903-2.85559,11.81007-2.57974,4.35234,.2744,8.37207,2.02055,11.66185,4.06508,2.80404,1.74199,5.07131,3.69584,6.56041,5.12053-5.3073-1.11597-11.59864-1.96194-18.37476-2.3923Zm-36.40033-51.99271c2.12943,2.16753,5.12309,3.75396,8.61733,4.75509-1.60543,3.34594-2.7132,7.03452-3.21493,10.96165-4.2769-.9439-8.0064-3.03605-10.65981-5.807-2.72052-2.84178-4.312-6.38682-4.22697-10.14476,.10212-4.48377,2.57606-8.3675,6.44664-10.92812-.20412,.85613-.32813,1.74093-.34887,2.65401-.07984,3.4049,1.18408,6.26962,3.38661,8.50912Z"/><polygon class="j" points="123.64966 34.88469 123.64983 34.88472 123.65006 34.88477 123.64966 34.88469"/></g><ellipse class="b" cx="119.55194" cy="44.92335" rx="2.33786" ry="2.55154" transform="translate(42.96493 147.12513) rotate(-73.74762)"/><ellipse class="b" cx="119.33233" cy="54.58379" rx="2.33786" ry="2.55154" transform="translate(33.53239 153.87107) rotate(-73.74762)"/><ellipse class="b" cx="119.11271" cy="64.24423" rx="2.33786" ry="2.55154" transform="translate(24.09985 160.61702) rotate(-73.74762)"/><ellipse class="b" cx="118.8931" cy="73.90465" rx="2.33786" ry="2.55154" transform="translate(14.66732 167.36295) rotate(-73.74762)"/><ellipse class="b" cx="130.06675" cy="73.74292" rx="2.33785" ry="2.55154" transform="translate(22.86961 177.97415) rotate(-73.7479)"/><ellipse class="b" cx="140.38263" cy="71.57155" rx="2.33786" ry="2.55154" transform="translate(32.38247 186.31358) rotate(-73.74762)"/><ellipse class="b" cx="106.6328" cy="72.26139" rx="2.33785" ry="2.55154" transform="translate(7.41712 154.41072) rotate(-73.74847)"/><ellipse class="b" cx="96.45171" cy="68.48011" rx="2.33786" ry="2.55154" transform="translate(3.71435 141.91198) rotate(-73.74762)"/><ellipse class="b" cx="118.67349" cy="83.56509" rx="2.33786" ry="2.55154" transform="translate(5.23478 174.10889) rotate(-73.74762)"/></g></svg>