<svg id="レイヤー_1" data-name="レイヤー 1" xmlns="http://www.w3.org/2000/svg" viewBox="0 0 200 200"><defs><style>.cls-1{fill:#324a5e;}.cls-2{fill:#fff;}.cls-3{fill:#84dbff;}.cls-4{fill:#f1543f;}.cls-5{fill:#ffd05b;}</style></defs><title>time</title><circle class="cls-1" cx="100" cy="100" r="86.12"/><circle class="cls-2" cx="100" cy="100" r="72.28"/><path class="cls-1" d="M105.39,100.22c0,2.32-3.36,26.42-4.79,36.5a.63.63,0,0,1-1.25,0c-1.42-10.08-4.78-34.13-4.78-36.5a5.41,5.41,0,0,1,10.82,0Z"/><path class="cls-1" d="M96.85,96c1.51-1.5,19.14-14.82,26.56-20.43a.58.58,0,0,1,.81.82c-5.56,7.42-18.92,25-20.43,26.55A4.91,4.91,0,1,1,96.85,96Z"/><rect class="cls-3" x="97.28" y="35.86" width="5.39" height="12.5"/><rect class="cls-3" x="97.28" y="151.6" width="5.39" height="12.5"/><rect class="cls-3" x="151.6" y="97.28" width="12.5" height="5.39"/><rect class="cls-3" x="35.86" y="97.28" width="12.5" height="5.39"/><rect class="cls-3" x="69.56" y="43.61" width="3.02" height="12.5" transform="translate(-15.41 42.22) rotate(-30)"/><rect class="cls-3" x="127.4" y="143.84" width="3.02" height="12.5" transform="translate(-57.78 84.56) rotate(-30)"/><rect class="cls-3" x="48.34" y="64.81" width="3.02" height="12.5" transform="matrix(0.5, -0.87, 0.87, 0.5, -36.62, 78.7)"/><rect class="cls-3" x="148.6" y="122.68" width="3.02" height="12.5" transform="translate(-36.6 194.46) rotate(-60)"/><rect class="cls-3" x="43.62" y="127.44" width="12.5" height="3.02" transform="translate(-57.8 42.21) rotate(-30)"/><rect class="cls-3" x="143.83" y="69.56" width="12.5" height="3.02" transform="translate(-15.43 84.56) rotate(-30)"/><rect class="cls-3" x="64.79" y="148.63" width="12.5" height="3.02" transform="translate(-94.51 136.59) rotate(-60)"/><rect class="cls-3" x="122.7" y="48.39" width="12.5" height="3.02" transform="translate(21.26 136.62) rotate(-60)"/><path class="cls-4" d="M100.91,98.92,67.28,81a1.49,1.49,0,0,0-1.42,2.63l33.62,18a1.38,1.38,0,0,0,.69.17,1.52,1.52,0,0,0,1.3-.77A1.44,1.44,0,0,0,100.91,98.92Z"/><circle class="cls-5" cx="100" cy="100" r="10.22"/></svg>