<svg id="materials" xmlns="http://www.w3.org/2000/svg" viewBox="0 0 240 240"><defs><style>.cls-1{fill:#48c0eb;}.cls-2{fill:#474747;}.cls-3{fill:#f3f3f3;}.cls-4{fill:#324a5e;}.cls-5{fill:#9ba4a5;}.cls-6{fill:#f1543f;}.cls-7{fill:#ffd05b;}.cls-8{fill:#e5e5e5;}.cls-9{fill:#f7f7f7;}.cls-10{fill:#e2e2e2;}.cls-11{fill:#f44f4e;}.cls-12{fill:#c7c6c8;}.cls-13{fill:#c63e3e;}.cls-14{fill:#b23939;}.cls-15{fill:#d3d3d3;}.cls-16{fill:#fcc447;}</style></defs><title>time</title><circle class="cls-1" cx="76.52" cy="76.52" r="73.21"/><path class="cls-2" d="M76.52,5.11A71.41,71.41,0,1,1,5.11,76.52,71.41,71.41,0,0,1,76.52,5.11m0-3.61a75,75,0,1,0,75,75A75.1,75.1,0,0,0,76.52,1.5Z"/><circle class="cls-3" cx="76.52" cy="76.52" r="60.84"/><path class="cls-2" d="M76.52,16.58A59.94,59.94,0,1,1,16.59,76.52,59.94,59.94,0,0,1,76.52,16.58m0-1.8a61.74,61.74,0,1,0,61.74,61.74A61.8,61.8,0,0,0,76.52,14.78Z"/><path class="cls-4" d="M76.5,108.33a1.42,1.42,0,0,1-1.42-1.26c-1.81-12.84-4-28.56-4-30.37a5.39,5.39,0,0,1,10.78,0c0,1.9-2.49,19.86-4,30.39A1.4,1.4,0,0,1,76.5,108.33Z"/><path class="cls-2" d="M76.48,72.23A4.48,4.48,0,0,1,81,76.7c0,1.93-2.79,21.9-4,30.27a.53.53,0,0,1-1,0C74.8,98.6,72,78.66,72,76.7a4.47,4.47,0,0,1,4.47-4.47m0-1.81a6.28,6.28,0,0,0-6.27,6.28c0,1.49,1.34,11.76,4,30.52a2.33,2.33,0,0,0,4.62,0c1.49-10.51,4-28.5,4-30.48A6.3,6.3,0,0,0,76.48,70.42Z"/><path class="cls-4" d="M76.79,81.07a5,5,0,0,1-3.52-1.45,5,5,0,0,1,0-7c1.11-1.12,11.58-9.06,21.66-16.69l.45-.33a1.31,1.31,0,0,1,.82-.28,1.41,1.41,0,0,1,1.24.76,1.33,1.33,0,0,1-.1,1.43c-4.09,5.46-15.68,20.79-17,22.14A4.94,4.94,0,0,1,76.79,81.07Z"/><path class="cls-2" d="M96.2,56.19a.49.49,0,0,1,.4.78C92,63.12,80.91,77.73,79.66,79a4.09,4.09,0,0,1-5.75,0,4.1,4.1,0,0,1,0-5.75c1.25-1.25,15.87-12.29,22-16.94l.28-.1m0-1.81a2.25,2.25,0,0,0-1.36.46l-.28.21C83.86,63.14,73.79,70.79,72.63,72a5.93,5.93,0,0,0,0,8.3,5.9,5.9,0,0,0,8.32,0C82.42,78.78,95,62.1,98.05,58.05a2.31,2.31,0,0,0-1.85-3.67Z"/><path class="cls-2" d="M74.27,27c0-2,1-3.61,2.23-3.61S78.73,25,78.73,27v3.14c0,2-1,3.61-2.23,3.61s-2.23-1.62-2.23-3.61Z"/><path class="cls-2" d="M74.27,122.91c0-2,1-3.61,2.23-3.61s2.23,1.62,2.23,3.61v3.14c0,2-1,3.61-2.23,3.61s-2.23-1.63-2.23-3.61Z"/><path class="cls-2" d="M119.3,76.5c0-1.23,1.62-2.23,3.61-2.23h3.14c2,0,3.61,1,3.61,2.23s-1.63,2.23-3.61,2.23h-3.14C120.92,78.73,119.3,77.73,119.3,76.5Z"/><path class="cls-2" d="M23.34,76.5c0-1.23,1.63-2.23,3.61-2.23h3.14c2,0,3.61,1,3.61,2.23s-1.62,2.23-3.61,2.23H27C25,78.73,23.34,77.73,23.34,76.5Z"/><path class="cls-5" d="M49.76,32.65c-.5-.86-.42-1.85.18-2.19s1.49.08,2,.94l3.37,5.85a1.61,1.61,0,0,1-.18,2.19c-.6.34-1.49-.08-2-.94Z"/><path class="cls-5" d="M97.71,115.75c-.49-.86-.41-1.85.18-2.19s1.49.08,2,.94l3.37,5.85c.5.86.42,1.84-.17,2.18s-1.5-.07-2-.93Z"/><path class="cls-5" d="M31.39,51.92c-.86-.5-1.29-1.39-.94-2s1.33-.67,2.19-.18l5.84,3.38c.87.5,1.29,1.39.94,2s-1.33.67-2.19.18Z"/><path class="cls-5" d="M114.52,99.9c-.86-.5-1.29-1.4-.94-2s1.33-.68,2.19-.18l5.84,3.37c.86.5,1.28,1.39.94,2s-1.33.68-2.19.18Z"/><path class="cls-5" d="M32.66,103.29c-.86.5-1.85.42-2.19-.18s.08-1.49.94-2l5.84-3.38c.86-.5,1.85-.41,2.19.18s-.07,1.49-.94,2Z"/><path class="cls-5" d="M115.74,55.3a1.62,1.62,0,0,1-2.19-.17c-.34-.6.08-1.49.94-2l5.85-3.38a1.63,1.63,0,0,1,2.19.18c.34.6-.08,1.49-.94,2Z"/><path class="cls-5" d="M51.9,121.64c-.49.86-1.39,1.28-2,.94a1.61,1.61,0,0,1-.18-2.19l3.37-5.85c.5-.86,1.39-1.28,2-.94a1.61,1.61,0,0,1,.18,2.19Z"/><path class="cls-5" d="M99.91,38.53c-.49.86-1.39,1.28-2,.94a1.62,1.62,0,0,1-.17-2.19l3.37-5.85c.5-.86,1.39-1.28,2-.94s.67,1.33.18,2.19Z"/><path class="cls-6" d="M76.66,78.85a2.09,2.09,0,0,1-1-.27L47.79,63.7a2.15,2.15,0,0,1-.88-2.9,2.12,2.12,0,0,1,1.89-1.13,2.22,2.22,0,0,1,1,.25L77.69,74.83a2.09,2.09,0,0,1,1,1.24,2.2,2.2,0,0,1-2.07,2.78Z"/><path class="cls-2" d="M48.8,60.57a1.26,1.26,0,0,1,.59.15l27.88,14.9a1.18,1.18,0,0,1,.46,1.68,1.23,1.23,0,0,1-1.07.65,1.11,1.11,0,0,1-.57-.15L48.21,62.9a1.24,1.24,0,0,1-.5-1.68,1.22,1.22,0,0,1,1.09-.65m0-1.8a3,3,0,0,0-2.69,1.61,3.11,3.11,0,0,0-.23,2.3,3,3,0,0,0,1.49,1.82L75.21,79.38a2.87,2.87,0,0,0,1.45.37,3.08,3.08,0,0,0,2.93-3.93A3,3,0,0,0,78.11,74L50.24,59.13A3,3,0,0,0,48.8,58.77Z"/><circle class="cls-7" cx="76.52" cy="76.52" r="9.37"/><path class="cls-2" d="M76.52,68.05a8.47,8.47,0,1,1-8.47,8.47,8.47,8.47,0,0,1,8.47-8.47m0-1.81A10.28,10.28,0,1,0,86.79,76.52,10.29,10.29,0,0,0,76.52,66.24Z"/><rect class="cls-8" x="88.01" y="131.77" width="148.47" height="105.58" rx="1.48"/><path class="cls-2" d="M235,133.25V235.88H89.49V133.25H235m0-3H89.49a3,3,0,0,0-2.95,3V235.88a3,3,0,0,0,2.95,3H235a3,3,0,0,0,3-3V133.25A3,3,0,0,0,235,130.29Z"/><rect class="cls-9" x="89.49" y="115.47" width="145.51" height="114.54"/><rect class="cls-10" x="89.49" y="133.79" width="145.51" height="3.02"/><rect class="cls-11" x="88.01" y="109.17" width="148.47" height="26.14" rx="1.48"/><path class="cls-2" d="M235,110.65v23.19H89.49V110.65H235m0-3H89.49a3,3,0,0,0-2.95,3v23.19a3,3,0,0,0,2.95,2.95H235a3,3,0,0,0,3-2.95V110.65A3,3,0,0,0,235,107.7Z"/><rect class="cls-12" x="103.5" y="153.45" width="11.42" height="11.42"/><rect class="cls-12" x="124.83" y="153.45" width="11.42" height="11.42"/><rect class="cls-12" x="145.89" y="153.45" width="11.42" height="11.42"/><rect class="cls-12" x="167.23" y="153.45" width="11.42" height="11.42"/><rect class="cls-12" x="188.24" y="153.45" width="11.42" height="11.42"/><rect class="cls-12" x="209.57" y="153.45" width="11.42" height="11.42"/><rect class="cls-12" x="103.5" y="174.73" width="11.42" height="11.42"/><rect class="cls-12" x="124.83" y="174.73" width="11.42" height="11.42"/><rect class="cls-12" x="145.89" y="174.73" width="11.42" height="11.42"/><rect class="cls-11" x="167.23" y="174.73" width="11.42" height="11.42"/><rect class="cls-12" x="188.24" y="174.73" width="11.42" height="11.42"/><rect class="cls-12" x="209.57" y="174.73" width="11.42" height="11.42"/><rect class="cls-12" x="103.5" y="195.79" width="11.42" height="11.42"/><rect class="cls-11" x="124.83" y="195.79" width="11.42" height="11.42"/><rect class="cls-12" x="145.89" y="195.79" width="11.42" height="11.42"/><rect class="cls-12" x="167.23" y="195.79" width="11.42" height="11.42"/><rect class="cls-12" x="188.24" y="195.79" width="11.42" height="11.42"/><rect class="cls-13" x="197.88" y="118.38" width="11.1" height="7.6"/><rect class="cls-10" x="197.88" y="140.57" width="11.1" height="7.6"/><rect class="cls-14" x="197.88" y="118.38" width="11.1" height="1.19"/><rect class="cls-15" x="197.88" y="140.57" width="11.1" height="0.86"/><rect class="cls-16" x="199.19" y="119.69" width="8.21" height="27.17"/><path class="cls-2" d="M206.67,120.42v25.7h-6.74v-25.7h6.74m1.47-1.47h-9.69V147.6h9.69V119Z"/><rect class="cls-13" x="115.78" y="118.38" width="11.1" height="7.6"/><rect class="cls-10" x="115.78" y="140.57" width="11.1" height="7.6"/><rect class="cls-14" x="115.78" y="118.38" width="11.1" height="1.19"/><rect class="cls-15" x="115.78" y="140.57" width="11.1" height="0.86"/><rect class="cls-16" x="117.41" y="119.69" width="8.21" height="27.17"/><path class="cls-2" d="M124.88,120.42v25.7h-6.73v-25.7h6.73m1.48-1.47h-9.69V147.6h9.69V119Z"/></svg>