<?xml version="1.0" encoding="utf-8"?>
<!-- Generator: Adobe Illustrator 16.0.4, SVG Export Plug-In . SVG Version: 6.00 Build 0)  -->
<!DOCTYPE svg PUBLIC "-//W3C//DTD SVG 1.1//EN" "http://www.w3.org/Graphics/SVG/1.1/DTD/svg11.dtd">
<svg version="1.1" id="レイヤー_1" xmlns="http://www.w3.org/2000/svg" xmlns:xlink="http://www.w3.org/1999/xlink" x="0px"
	 y="0px" width="350px" height="221.875px" viewBox="0 0 350 221.875" enable-background="new 0 0 350 221.875"
	 xml:space="preserve">
<g>
	<g>
		<circle fill="#324A5E" cx="177.235" cy="109.37" r="108.371"/>
	</g>
	<g>
		<circle fill="#FFFFFF" cx="177.235" cy="109.37" r="90.96"/>
	</g>
	<g>
		<path fill="#324A5E" d="M184.016,109.642c0,2.928-4.231,33.249-6.021,45.941c-0.109,0.921-1.465,0.921-1.573,0
			c-1.791-12.692-6.021-42.959-6.021-45.941c0-3.742,3.039-6.781,6.78-6.781C180.978,102.86,184.016,105.899,184.016,109.642z"/>
	</g>
	<g>
		<path fill="#324A5E" d="M173.275,104.379c1.898-1.898,24.082-18.657,33.413-25.708c0.649-0.489,1.518,0.324,1.028,1.031
			c-6.995,9.329-23.811,31.512-25.708,33.41c-2.387,2.387-6.346,2.387-8.733,0C170.888,110.672,170.888,106.767,173.275,104.379z"/>
	</g>
	<g>
		<rect x="173.818" y="28.661" fill="#84DBFF" width="6.78" height="15.729"/>
	</g>
	<g>
		<rect x="173.818" y="174.295" fill="#84DBFF" width="6.78" height="15.729"/>
	</g>
	<g>
		<rect x="242.159" y="105.953" fill="#84DBFF" width="15.729" height="6.78"/>
	</g>
	<g>
		<rect x="96.526" y="105.953" fill="#84DBFF" width="15.73" height="6.78"/>
	</g>
	<g>
		
			<rect x="138.929" y="38.415" transform="matrix(-0.8659 0.5001 -0.5001 -0.8659 285.9227 15.9209)" fill="#84DBFF" width="3.798" height="15.731"/>
	</g>
	<g>
		
			<rect x="211.71" y="164.537" transform="matrix(-0.866 0.5001 -0.5001 -0.866 484.8055 214.8625)" fill="#84DBFF" width="3.796" height="15.729"/>
	</g>
	<g>
		
			<rect x="112.228" y="65.092" transform="matrix(-0.5 0.866 -0.866 -0.5 234.3693 10.5952)" fill="#84DBFF" width="3.796" height="15.729"/>
	</g>
	<g>
		
			<rect x="238.392" y="137.903" transform="matrix(-0.5 0.866 -0.866 -0.5 486.6765 10.5577)" fill="#84DBFF" width="3.797" height="15.73"/>
	</g>
	<g>
		
			<rect x="112.258" y="137.939" transform="matrix(0.5 0.866 -0.866 0.5 183.3452 -25.9618)" fill="#84DBFF" width="3.797" height="15.729"/>
	</g>
	<g>
		
			<rect x="238.355" y="65.106" transform="matrix(0.4998 0.8662 -0.8662 0.4998 183.3876 -171.5955)" fill="#84DBFF" width="3.797" height="15.73"/>
	</g>
	<g>
		
			<rect x="138.897" y="164.603" transform="matrix(0.8661 0.5 -0.5 0.8661 105.0854 -47.29)" fill="#84DBFF" width="3.797" height="15.729"/>
	</g>
	<g>
		
			<rect x="211.76" y="38.462" transform="matrix(0.866 0.5001 -0.5001 0.866 51.8064 -100.6428)" fill="#84DBFF" width="3.797" height="15.729"/>
	</g>
	<g>
		<path fill="#F1543F" d="M178.373,108.014l-42.306-22.617c-0.922-0.488-2.061-0.163-2.55,0.759c-0.488,0.921-0.163,2.06,0.759,2.55
			l42.308,22.617c0.271,0.163,0.596,0.217,0.867,0.217c0.65,0,1.302-0.379,1.627-0.975
			C179.621,109.588,179.295,108.503,178.373,108.014z"/>
	</g>
	<g>
		<circle fill="#FFD05B" cx="177.235" cy="109.37" r="12.855"/>
	</g>
</g>
</svg>
