<svg id="レイヤー_1" data-name="レイヤー 1" xmlns="http://www.w3.org/2000/svg" viewBox="0 0 200 200"><defs><style>.cls-1{fill:#324a5e;}.cls-2{fill:#fff;}.cls-3{fill:#84dbff;}.cls-4{fill:#f1543f;}.cls-5{fill:#ffd05b;}</style></defs><title>time</title><circle class="cls-1" cx="100.38" cy="100.88" r="86.12"/><circle class="cls-2" cx="100.38" cy="100.88" r="72.28"/><path class="cls-1" d="M105.77,101.09c0,2.33-3.37,26.43-4.79,36.51a.63.63,0,0,1-1.25,0C98.31,127.52,95,103.47,95,101.09a5.41,5.41,0,0,1,10.82,0Z"/><path class="cls-1" d="M97.23,96.91c1.51-1.51,19.14-14.82,26.55-20.43a.59.59,0,0,1,.82.82c-5.56,7.42-18.92,25-20.43,26.55a4.91,4.91,0,0,1-6.94-6.94Z"/><rect class="cls-3" x="97.66" y="36.74" width="5.39" height="12.5"/><rect class="cls-3" x="97.66" y="152.47" width="5.39" height="12.5"/><rect class="cls-3" x="151.97" y="98.16" width="12.5" height="5.39"/><rect class="cls-3" x="36.24" y="98.16" width="12.5" height="5.39"/><rect class="cls-3" x="69.94" y="44.49" width="3.02" height="12.5" transform="translate(-15.8 42.52) rotate(-30)"/><rect class="cls-3" x="127.78" y="144.72" width="3.02" height="12.5" transform="translate(-58.16 84.87) rotate(-30)"/><rect class="cls-3" x="48.72" y="65.69" width="3.02" height="12.5" transform="translate(-37.19 79.47) rotate(-60)"/><rect class="cls-3" x="148.98" y="123.55" width="3.02" height="12.5" transform="translate(-37.17 195.23) rotate(-60)"/><rect class="cls-3" x="44" y="128.32" width="12.5" height="3.02" transform="translate(-58.18 42.52) rotate(-30)"/><rect class="cls-3" x="144.21" y="70.44" width="12.5" height="3.02" transform="translate(-15.82 84.87) rotate(-30)"/><rect class="cls-3" x="65.17" y="149.51" width="12.5" height="3.02" transform="translate(-95.08 137.36) rotate(-60)"/><rect class="cls-3" x="123.07" y="49.27" width="12.5" height="3.02" transform="translate(20.69 137.39) rotate(-60)"/><path class="cls-4" d="M101.28,99.8l-33.62-18a1.49,1.49,0,0,0-1.42,2.63l33.62,18a1.38,1.38,0,0,0,.69.17,1.49,1.49,0,0,0,1.29-.77A1.42,1.42,0,0,0,101.28,99.8Z"/><circle class="cls-5" cx="100.38" cy="100.88" r="10.22"/></svg>