<svg id="materials" xmlns="http://www.w3.org/2000/svg" viewBox="0 0 300 40"><defs><style>.cls-1{fill:#fff;}.cls-2{fill:#474747;}</style></defs><title>tos-page-title</title><path class="cls-1" d="M25.88,36.41a13.63,13.63,0,0,1-3.66-.32c-1.93-.55-3.14-2.41-3.14-4.86,0-.13,0-.27,0-.4h-.23a3.7,3.7,0,0,1-.76-.07v1.31c0,2.7-1.69,4.31-4.52,4.31-3.8,0-4.74-2.13-4.82-4a3.68,3.68,0,0,1-.82.08A5.2,5.2,0,0,1,3,27.24c0-1.75.88-2.68,2.46-4.37a15.84,15.84,0,0,0,2-2.58,4.19,4.19,0,0,1-4.19-4.44,4.69,4.69,0,0,1,1.3-3.58A5,5,0,0,1,3.6,9.19c0-1.53.56-4.13,4.32-4.34,2.8-.15,6.46-.42,8.37-.75a10.14,10.14,0,0,1,2.15-.27A4.18,4.18,0,0,1,22.11,6a6,6,0,0,1,1.7-.22A7.42,7.42,0,0,1,25.9,6a4.19,4.19,0,0,1,4.21-2.43c4.18,0,5.06,2.42,5.06,4.46V30c0,3.09-1.18,5.11-3.52,6A20.85,20.85,0,0,1,25.88,36.41Z"/><path class="cls-2" d="M30.11,5.59c2.19,0,3.06.66,3.06,2.46V30c0,1.26-.15,3.33-2.22,4.11a22.57,22.57,0,0,1-5.07.33,13,13,0,0,1-3.09-.24c-1.47-.42-1.71-2.1-1.71-2.94,0-2.46,1.26-2.94,2.73-2.94l1.92.06,1.29,0c.51,0,.51-.23.51-.65V8.05c0-.93.18-2.46,2.58-2.46m-11.67.24a2.48,2.48,0,0,1,2.34,2.76c0,1.89-1.2,2.34-4.68,2.67v1.86h2.16c.87,0,2.79.09,2.79,2.52,0,1.86-.84,2.67-2.79,2.67H16.1v.14a24,24,0,0,0,3.48,4.62,4.35,4.35,0,0,1,1.62,2.46c0-.14,0-.33,0-.45V10.24c0-.64,0-2.49,2.64-2.49,2.43,0,3,1.05,3,2.49V25.08c0,.63,0,2.49-2.64,2.49-1.89,0-2.64-.54-2.94-1.8,0,1.44-1.26,3.06-2.34,3.06s-1.74-.75-2.76-2.43v5.67c0,.66,0,2.31-2.52,2.31-2.37,0-2.82-.93-2.82-2.31v-4c-1.26,2.11-2.13,2.34-2.82,2.34A3.23,3.23,0,0,1,5,27.24c0-1,.48-1.47,1.92-3a20.83,20.83,0,0,0,3.81-5.93H8c-1.35,0-2.76-.37-2.76-2.46C5.24,14,6,13.12,8,13.12h2.76V11.74c-.72.06-2,.15-2.67.15-1.71,0-2.49-1-2.49-2.7C5.6,7.15,7,6.91,8,6.85c1.74-.09,6.21-.36,8.61-.78a8.84,8.84,0,0,1,1.8-.24M30.11,1.59a6.46,6.46,0,0,0-5.17,2.22,10.28,10.28,0,0,0-1.13-.06,8,8,0,0,0-.86,0,6.12,6.12,0,0,0-4.51-2,12.88,12.88,0,0,0-2.52.3c-1.83.32-5.38.58-8.1.72C3.23,3.11,1.6,6.29,1.6,9.19a7.32,7.32,0,0,0,.56,2.9,7.4,7.4,0,0,0-.92,3.76,6.25,6.25,0,0,0,2.9,5.51l-.1.11c-1.71,1.82-3,3.23-3,5.77a7.32,7.32,0,0,0,6.1,7.13c1,2.92,3.79,4,6.48,4a6.46,6.46,0,0,0,5.21-2.22A6,6,0,0,0,21.69,38a15.36,15.36,0,0,0,4.19.39c2.83,0,4.94,0,6.41-.56l.07,0c4.18-1.58,4.81-5.6,4.81-7.86V8.05C37.17,6.53,36.66,1.59,30.11,1.59Z"/><path class="cls-1" d="M40.64,36.56a5.28,5.28,0,0,1-5.57-5.09c0-1,.1-1.19,1.31-4l.08-.19a16.48,16.48,0,0,0,.86-6.33V11c0-2.92,1.11-6.38,6.38-6.38H60c5.27,0,6.38,3.46,6.38,6.38V30.57c0,5.93-4.58,5.93-7.61,5.93a8,8,0,0,1-4.17-.91,4.73,4.73,0,0,1-2.58.67c-4.08,0-4.94-2.55-4.94-4.7v-3.4h-.38a19.88,19.88,0,0,1-1.08,4.43C44.86,34.55,43.7,36.56,40.64,36.56Z"/><path class="cls-2" d="M60,6.58c2.61,0,4.38.87,4.38,4.38V30.57c0,3.93-2.34,3.93-5.61,3.93-1.68,0-4.14,0-4.14-3,0-.39,0-2.46,1.92-2.79.27,0,.84,0,1.23,0,.84,0,.84,0,.84-.79V26.16H54.44v5.4c0,1.32-.39,2.7-2.46,2.7S49,33.63,49,31.56v-5.4H44.81a18,18,0,0,1-1.11,5.73c-.78,2.13-1.62,2.67-3.06,2.67a3.33,3.33,0,0,1-3.57-3.09c0-.57,0-.63,1.23-3.45a18.05,18.05,0,0,0,1-7.11V11c0-3.57,1.83-4.38,4.38-4.38H60M54.44,14h4.14V12.48a.49.49,0,0,0-.51-.5H54.44v2m-9.33,0H49V12H45.62a.47.47,0,0,0-.51.5V14m9.33,7h4.14V19H54.44v2m-9.33,0H49V19H45.11v2M60,2.58H43.7c-5.33,0-8.38,3.05-8.38,8.38v10a14.89,14.89,0,0,1-.7,5.55l-.08.18c-1.25,2.93-1.47,3.46-1.47,4.83a7.26,7.26,0,0,0,7.57,7.09,6.47,6.47,0,0,0,5.59-2.83c1.16,1.63,3.14,2.53,5.75,2.53a7.24,7.24,0,0,0,2.52-.43,10.5,10.5,0,0,0,4.23.67,12.82,12.82,0,0,0,5.8-.9c1.74-.86,3.81-2.77,3.81-7V11C68.34,5.71,65.21,2.58,60,2.58Z"/><path class="cls-1" d="M72.3,36.47a5,5,0,0,1-5.06-4.79,5.47,5.47,0,0,1,1.07-3.14,15.67,15.67,0,0,0,2-4.46,4.2,4.2,0,0,1-3.17-4.34,4.49,4.49,0,0,1,2-4.1A4.82,4.82,0,0,1,67.57,12,4.31,4.31,0,0,1,71.1,7.39a4.19,4.19,0,0,1,4.44-3.86c3.54,0,4.62,2,4.84,3.92h0c.68-1.77,2.24-3.2,5.53-3.2h7.26c5,0,6,3.25,6,6V20.37a7.33,7.33,0,0,1-.67,3.29c1.06.69,1.6,2,1.6,3.86,0,4.65-.6,5.81-.79,6.19-1.18,2.22-3.6,2.4-6,2.4s-3.4-.06-4.51-.73A3.86,3.86,0,0,1,87,33.22l-.09.11c-.61.7-2.81,3-5.38,3a4.8,4.8,0,0,1-4.48-3.26c-.28.5-.49.82-.61,1A5,5,0,0,1,72.3,36.47Z"/><path class="cls-2" d="M75.54,5.53c1.92,0,2.88.63,2.88,2.73v1h.48c.93,0,2.7.18,2.7,2.52,0,1.92-.6,2.88-2.7,2.88h-.48v.51c0,.27,0,1.5,0,1.77h.87c1.35,0,2.43.35,2.67,1.92V10.24c0-3,1.35-4,4-4h7.26c2.58,0,4,.93,4,4V20.37c0,3.19-1.56,3.84-3.45,4v3.79c0,.71,0,.8.33.8s.36-.18.42-1.68c.06-1.08.12-2.19,1.74-2.19,1.89,0,1.89,1.2,1.89,2.44s-.06,4.28-.57,5.27-1.86,1.32-4.2,1.32-2.88-.09-3.48-.45c-1.2-.69-1.2-1.86-1.2-4V24.36h-.63A11.5,11.5,0,0,1,85.44,32c-.75.87-2.37,2.34-3.87,2.34a2.83,2.83,0,0,1-2.73-2.76,2,2,0,0,1,.9-1.74A2.45,2.45,0,0,1,79,30a2.57,2.57,0,0,1-2.22-1.38,16.47,16.47,0,0,1-2,4.38,2.91,2.91,0,0,1-2.52,1.5,3,3,0,0,1-3.06-2.79,3.52,3.52,0,0,1,.78-2.1,18.26,18.26,0,0,0,2.64-7.31h-.81a2.38,2.38,0,0,1-2.76-2.53c0-2.13,1-2.78,2.76-2.78h1.2V14.68h-.72A2.41,2.41,0,0,1,69.57,12,2.41,2.41,0,0,1,72.3,9.28h.75v-1c0-1,.21-2.73,2.49-2.73M87,11.59h5v-.45c0-.39-.21-.39-.42-.39H87.36c-.24,0-.39,0-.39.42v.42m0,4.22h5V15H87v.83M87.36,20H91.5c.24,0,.42,0,.42-.39v-.45H87v.42c0,.35.09.42.39.42M81,29a5.69,5.69,0,0,0,2.52-5.06c-1.35-.82-1.56-2.08-1.56-3.58-.24,1.47-1.14,2-2.67,2h-.78a20.84,20.84,0,0,0,2.07,2.93,3.39,3.39,0,0,1,.93,2.25A2.28,2.28,0,0,1,81,29M75.54,1.53a6.1,6.1,0,0,0-6.13,4.29A6.32,6.32,0,0,0,65.57,12a7.1,7.1,0,0,0,.79,3.41,7.18,7.18,0,0,0-1.27,4.32,6.37,6.37,0,0,0,2.72,5.42,13.57,13.57,0,0,1-1.16,2.27l0,.06a7.37,7.37,0,0,0-1.37,4.19,6.94,6.94,0,0,0,7.06,6.79A6.54,6.54,0,0,0,77,36.54a6.69,6.69,0,0,0,4.54,1.81,8.41,8.41,0,0,0,5.17-2.05,6.91,6.91,0,0,0,1.11.81c1.61,1,3.14,1,5.51,1,2.06,0,5.91,0,7.74-3.45.32-.62,1-2,1-7.14a7.29,7.29,0,0,0-.69-3.53,5.21,5.21,0,0,0-.58-.88,10.65,10.65,0,0,0,.34-2.74V10.24c0-5-3-8-8-8H85.92a8.58,8.58,0,0,0-5,1.41A6.82,6.82,0,0,0,75.54,1.53Z"/><path class="cls-1" d="M108.34,36.53a4,4,0,0,1-3.69-2,4.34,4.34,0,0,1-1,.1,3.71,3.71,0,0,1-4-3.74c0-.33.06-.86.16-1.69,0-.46.1-.9.11-1.09.12-3.5.18-4.26.46-4.95a5.15,5.15,0,0,1-.73-2.8c0-2.57,1.3-3.59,2.51-4l-.5-.59c-1.43-1.66-1.92-2.22-1.92-3.79a4.93,4.93,0,0,1,3.77-4.76l.25-.41c1-1.73,1.95-3.25,4-3.25a4.62,4.62,0,0,1,4.39,3,5.2,5.2,0,0,1,2.3.74c.48-1.84,1.25-3.9,4.5-3.9,2.26,0,4.7,1.13,4.92,3.6h2.13c5.87,0,5.87,4.36,5.87,7,0,.12,0,12.94-.89,17-1.14,5.42-4.28,5.42-9.48,5.42,0,0-3,0-3.85-.14a4.27,4.27,0,0,1-3.4-2.69,4.31,4.31,0,0,1-1,.1,6,6,0,0,1-.76,0C112.13,35.52,110.66,36.53,108.34,36.53Zm8.49-9.46.4-.13a3.58,3.58,0,0,1-.47-.55C116.79,26.62,116.81,26.85,116.83,27.07Zm4.93-10.76c.14.14.27.29.4.44,0-.15,0-.29,0-.44Z"/><path class="cls-2" d="M119,5.44c.63,0,2.94.21,2.94,2A6,6,0,0,1,121.63,9h4.44c3.87,0,3.87,2.22,3.87,5,0,.69-.06,12.89-.84,16.55-.81,3.84-2.43,3.84-7.53,3.84-.72,0-3,0-3.54-.12a2.6,2.6,0,0,1-2.1-2.79,2.68,2.68,0,0,1,3-2.79c.39,0,2.31.09,2.73.09,1.56,0,1.74-.3,2-1.8.36-2.46.54-9.06.54-12.06,0-.33,0-.63-.48-.63h-3.93a33.32,33.32,0,0,1-1.5,3,3.45,3.45,0,0,1,.66,0c1.17,0,1.62.47,2.43,1.89,1.2,2.12,2,3.45,2,4.37,0,1.83-2.07,2.58-3.09,2.58a2.17,2.17,0,0,1-1.83-.83c-.27-.4-1.14-2.5-1.38-3-.93-1.92-1.05-2.13-1.05-2.69a1.93,1.93,0,0,1,.33-1.08A3.21,3.21,0,0,1,114.7,18a18.66,18.66,0,0,1,.69,3.28A1.77,1.77,0,0,1,113.68,23c.6.22.78.78.9,1.69.3,2.58.45,4.94.45,5.3a1.55,1.55,0,0,1-1.68,1.65c-1.77,0-1.8-.9-1.83-2.85,0-.68-.27-4.1-.27-4.31A1.42,1.42,0,0,1,112.6,23a1.53,1.53,0,0,1-.78-1l-1.08.18v10.1c0,1.5-.51,2.28-2.4,2.28a2,2,0,0,1-2.19-2.25V22.69c-.33,0-1.68.17-2.31.17s-2.16,0-2.16-2.49c0-2.18,1.23-2.24,2.4-2.34.24-.26.51-.56,1-1.13a19.51,19.51,0,0,0-1.86-2.43c-1.38-1.59-1.44-1.68-1.44-2.49s.71-2.84,2.62-2.84l.29,0c.21-.31.27-.42.81-1.29,1-1.65,1.41-2.31,2.34-2.31.72,0,2.52.54,2.52,2,0,.93-1.83,3.51-2.52,4.32.18.24.33.42.51.69,1-1.59,1.5-2.37,1.71-2.76a1.87,1.87,0,0,1,1.8-1.23c1.2,0,2.61.81,2.61,1.92s-2.1,3.57-3,4.71a2.27,2.27,0,0,1,1.17-.3,1.41,1.41,0,0,1,.81.23,18,18,0,0,1,1-1.92,21.29,21.29,0,0,0,2-4.94c.48-1.92.72-2.85,2.67-2.85m-8.4,10.74c-.6.72-.72.84-1.35,1.55.78-.05.87-.08,1.53-.14-.27-1-.24-1.15-.18-1.41M104,23c1.56,0,1.56,1.34,1.56,3.56a33.37,33.37,0,0,1-.33,5.13,1.42,1.42,0,0,1-1.5.93c-.27,0-2,0-2-1.74,0-.45.27-2.37.27-2.75.12-3.51.18-3.94.36-4.33A1.58,1.58,0,0,1,104,23M119,1.44a5.78,5.78,0,0,0-5.57,3.11,6.49,6.49,0,0,0-5.62-3c-3.07,0-4.5,2.13-5.61,4A6.73,6.73,0,0,0,97.77,12a5.74,5.74,0,0,0,1.44,3.95,6.51,6.51,0,0,0-1.53,4.44,7.56,7.56,0,0,0,.59,3A33.65,33.65,0,0,0,98,28v0c0,.21-.06.57-.1.94a18,18,0,0,0-.17,1.92,5.69,5.69,0,0,0,6,5.74h0a6.28,6.28,0,0,0,4.65,1.89,6.17,6.17,0,0,0,5.27-2.37,6.21,6.21,0,0,0,3.88,2.1c1.1.15,3.77.15,4.08.15,5.12,0,10,0,11.44-7,.92-4.29.93-17.25.93-17.38,0-2.46,0-9-7.87-9h-.62C124.44,2.86,122,1.44,119,1.44Z"/></svg>