<svg id="materials" xmlns="http://www.w3.org/2000/svg" viewBox="0 0 460 39.07"><defs><style>.cls-1{fill:#fff;}.cls-2{fill:#474747;}</style></defs><title>tos-title</title><path class="cls-1" d="M188.41,36a14,14,0,0,1-3.66-.32c-1.93-.56-3.14-2.42-3.14-4.86,0-.14,0-.28,0-.41h-.23a3.69,3.69,0,0,1-.76-.08v1.32c0,2.7-1.69,4.31-4.52,4.31-3.8,0-4.74-2.14-4.81-4a4.58,4.58,0,0,1-.83.08,5.2,5.2,0,0,1-4.94-5.18c0-1.76.88-2.69,2.47-4.37a17,17,0,0,0,2-2.59,4.19,4.19,0,0,1-4.19-4.44,4.74,4.74,0,0,1,1.3-3.58,5,5,0,0,1-.94-3.08c0-1.53.56-4.13,4.32-4.34,2.8-.14,6.46-.41,8.38-.75A10.71,10.71,0,0,1,181,3.36a4.19,4.19,0,0,1,3.67,2.15,6,6,0,0,1,1.7-.23,7,7,0,0,1,2.09.28,4.18,4.18,0,0,1,4.21-2.44c4.18,0,5.06,2.43,5.06,4.46V29.51c0,3.09-1.18,5.1-3.52,6A20.34,20.34,0,0,1,188.41,36Z"/><path class="cls-2" d="M192.64,5.12c2.19,0,3.06.66,3.06,2.46V29.51c0,1.26-.15,3.33-2.22,4.11a22.57,22.57,0,0,1-5.07.33,13,13,0,0,1-3.09-.24c-1.47-.42-1.71-2.1-1.71-2.94,0-2.46,1.26-2.94,2.73-2.94l1.92.06,1.29,0c.51,0,.51-.24.51-.66V7.58c0-.93.18-2.46,2.58-2.46M181,5.36a2.48,2.48,0,0,1,2.34,2.76c0,1.89-1.2,2.34-4.68,2.67v1.86h2.16c.87,0,2.79.09,2.79,2.52,0,1.86-.84,2.67-2.79,2.67h-2.16V18a24.27,24.27,0,0,0,3.48,4.62,4.35,4.35,0,0,1,1.62,2.46c0-.15,0-.33,0-.45V9.77c0-.63,0-2.49,2.64-2.49,2.43,0,3,1,3,2.49V24.62c0,.63,0,2.49-2.64,2.49-1.89,0-2.64-.54-2.94-1.8,0,1.44-1.26,3.06-2.34,3.06s-1.74-.75-2.76-2.43v5.67c0,.66,0,2.31-2.52,2.31s-2.82-.93-2.82-2.31v-4C172,29.72,171.16,30,170.47,30a3.23,3.23,0,0,1-2.94-3.18c0-1,.48-1.47,1.92-3a21,21,0,0,0,3.81-5.94h-2.73c-1.35,0-2.76-.36-2.76-2.46,0-1.86.72-2.73,2.76-2.73h2.76V11.27c-.72.06-2,.15-2.67.15-1.71,0-2.49-1-2.49-2.7,0-2,1.35-2.28,2.43-2.34,1.74-.09,6.21-.36,8.61-.78a8.84,8.84,0,0,1,1.8-.24m11.67-4.24a6.49,6.49,0,0,0-5.17,2.22,10.28,10.28,0,0,0-1.13-.06,8,8,0,0,0-.86,0,6.12,6.12,0,0,0-4.51-2,12.71,12.71,0,0,0-2.51.3c-1.84.32-5.39.58-8.11.73-4.59.25-6.22,3.44-6.22,6.33a7.51,7.51,0,0,0,.56,2.91,7.36,7.36,0,0,0-.92,3.75,6.29,6.29,0,0,0,2.9,5.52l-.1.11c-1.71,1.81-3,3.22-3,5.77a7.32,7.32,0,0,0,6.1,7.12c1,2.92,3.8,4,6.48,4a6.45,6.45,0,0,0,5.21-2.22,6,6,0,0,0,2.9,1.85,15,15,0,0,0,4.19.4c2.83,0,4.94,0,6.41-.56l.07,0c4.18-1.58,4.81-5.6,4.81-7.85V7.58C199.7,6.06,199.19,1.12,192.64,1.12Z"/><path class="cls-1" d="M203.17,36.1A5.29,5.29,0,0,1,197.6,31c0-1,.1-1.2,1.31-4.05l.08-.18a16.54,16.54,0,0,0,.86-6.33v-10c0-2.91,1.11-6.38,6.38-6.38h16.26c5.27,0,6.38,3.47,6.38,6.38V30.11c0,5.93-4.58,5.93-7.61,5.93a8,8,0,0,1-4.17-.91,4.73,4.73,0,0,1-2.58.67c-4.08,0-4.94-2.56-4.94-4.7V27.7h-.38a19.94,19.94,0,0,1-1.08,4.42C207.39,34.09,206.24,36.1,203.17,36.1Z"/><path class="cls-2" d="M222.49,6.11c2.61,0,4.38.87,4.38,4.38V30.11c0,3.93-2.34,3.93-5.61,3.93-1.68,0-4.14,0-4.14-3,0-.39,0-2.46,1.92-2.79.27,0,.84,0,1.23,0,.84,0,.84,0,.84-.78V25.7H217v5.4c0,1.32-.39,2.7-2.46,2.7s-2.94-.63-2.94-2.7V25.7h-4.23a18,18,0,0,1-1.11,5.73c-.78,2.13-1.62,2.67-3.06,2.67A3.33,3.33,0,0,1,199.6,31c0-.57,0-.63,1.23-3.45a18.08,18.08,0,0,0,1-7.11v-10c0-3.57,1.83-4.38,4.38-4.38h16.26M217,13.55h4.14V12a.49.49,0,0,0-.51-.51H217v2m-9.33,0h3.93v-2h-3.42a.47.47,0,0,0-.51.51v1.53m9.33,7h4.14v-2H217v2m-9.33,0h3.93v-2h-3.93v2M222.49,2.11H206.23c-5.33,0-8.38,3.05-8.38,8.38v10a14.92,14.92,0,0,1-.7,5.55l-.08.18c-1.25,2.93-1.47,3.46-1.47,4.83a7.26,7.26,0,0,0,7.57,7.09,6.47,6.47,0,0,0,5.59-2.83c1.16,1.63,3.14,2.53,5.75,2.53a7,7,0,0,0,2.52-.44,10.36,10.36,0,0,0,4.23.68,12.69,12.69,0,0,0,5.8-.91c1.74-.85,3.81-2.77,3.81-7V10.49C230.87,5.24,227.74,2.11,222.49,2.11Z"/><path class="cls-1" d="M234.83,36a5,5,0,0,1-5.06-4.79,5.44,5.44,0,0,1,1.08-3.15,15.78,15.78,0,0,0,1.94-4.46,4.2,4.2,0,0,1-3.17-4.33,4.48,4.48,0,0,1,2-4.1,4.88,4.88,0,0,1-1.48-3.64,4.31,4.31,0,0,1,3.53-4.62,4.19,4.19,0,0,1,4.44-3.86c3.54,0,4.62,2,4.84,3.92h0c.68-1.76,2.24-3.2,5.53-3.2h7.26c5,0,6,3.26,6,6V19.91a7.36,7.36,0,0,1-.67,3.29c1.06.68,1.6,2,1.6,3.85,0,4.66-.6,5.81-.79,6.19-1.17,2.23-3.6,2.41-6,2.41s-3.4-.07-4.51-.74a3.83,3.83,0,0,1-1.81-2.16l-.09.11c-.61.7-2.81,3-5.38,3a4.79,4.79,0,0,1-4.48-3.27,10.66,10.66,0,0,1-.61,1A5,5,0,0,1,234.83,36Z"/><path class="cls-2" d="M238.07,5.06c1.92,0,2.88.63,2.88,2.73v1h.48c.93,0,2.7.18,2.7,2.52,0,1.92-.6,2.88-2.7,2.88H241v.51c0,.27,0,1.5,0,1.77h.87c1.35,0,2.43.36,2.67,1.92V9.77c0-3,1.35-4,4-4h7.26c2.58,0,4,.93,4,4V19.91c0,3.18-1.56,3.84-3.45,4v3.78c0,.72,0,.81.33.81s.36-.18.42-1.68c.06-1.08.12-2.19,1.74-2.19,1.89,0,1.89,1.2,1.89,2.43s-.06,4.29-.57,5.28-1.86,1.32-4.2,1.32-2.88-.09-3.48-.45c-1.2-.69-1.2-1.86-1.2-4V23.9h-.63A11.5,11.5,0,0,1,248,31.55c-.75.87-2.37,2.34-3.87,2.34a2.83,2.83,0,0,1-2.73-2.76,2,2,0,0,1,.9-1.74,2.45,2.45,0,0,1-.75.12,2.59,2.59,0,0,1-2.22-1.38,16.47,16.47,0,0,1-2,4.38,2.91,2.91,0,0,1-2.52,1.5,3,3,0,0,1-3.06-2.79,3.52,3.52,0,0,1,.78-2.1,18.24,18.24,0,0,0,2.64-7.32h-.81a2.38,2.38,0,0,1-2.76-2.52c0-2.13,1-2.79,2.76-2.79h1.2V14.21h-.72a2.41,2.41,0,0,1-2.76-2.67,2.41,2.41,0,0,1,2.73-2.73h.75v-1c0-1,.21-2.73,2.49-2.73m11.43,6.06h4.95v-.45c0-.39-.21-.39-.42-.39h-4.14c-.24,0-.39,0-.39.42v.42m0,4.23h4.95v-.84H249.5v.84m.39,4.2H254c.24,0,.42,0,.42-.39v-.45H249.5v.42c0,.36.09.42.39.42m-6.39,8.94A5.7,5.7,0,0,0,246,23.42c-1.35-.81-1.56-2.07-1.56-3.57-.24,1.47-1.14,1.95-2.67,1.95H241a20.28,20.28,0,0,0,2.07,2.94A3.39,3.39,0,0,1,244,27a2.28,2.28,0,0,1-.51,1.5M238.07,1.06a6.1,6.1,0,0,0-6.13,4.29,6.33,6.33,0,0,0-3.84,6.19,7.07,7.07,0,0,0,.79,3.41,7.22,7.22,0,0,0-1.27,4.33,6.36,6.36,0,0,0,2.72,5.41A13.57,13.57,0,0,1,229.18,27l0,.07a7.35,7.35,0,0,0-1.37,4.19A6.94,6.94,0,0,0,234.83,38a6.51,6.51,0,0,0,4.73-1.94,6.7,6.7,0,0,0,4.54,1.82,8.42,8.42,0,0,0,5.17-2.06,6.39,6.39,0,0,0,1.11.82c1.61,1,3.15,1,5.51,1,2.07,0,5.91,0,7.74-3.45.32-.63,1-2,1-7.15a7.25,7.25,0,0,0-.69-3.52,5.23,5.23,0,0,0-.58-.89,10.57,10.57,0,0,0,.34-2.73V9.77c0-5-3-8-8-8h-7.26a8.53,8.53,0,0,0-5,1.42A6.82,6.82,0,0,0,238.07,1.06Z"/><path class="cls-1" d="M270.87,36.07a4,4,0,0,1-3.69-2,4.21,4.21,0,0,1-1,.11,3.72,3.72,0,0,1-4-3.74c0-.33.06-.86.16-1.7.05-.45.1-.89.11-1.09.12-3.49.18-4.25.47-4.95a5,5,0,0,1-.74-2.79c0-2.58,1.3-3.6,2.51-4-.17-.2-.33-.4-.5-.59-1.43-1.65-1.92-2.21-1.92-3.79a4.93,4.93,0,0,1,3.77-4.76l.25-.4c1-1.74,1.95-3.26,4-3.26a4.61,4.61,0,0,1,4.39,3,5.34,5.34,0,0,1,2.3.75C277.53,5,278.3,3,281.55,3c2.27,0,4.7,1.13,4.92,3.6h2.13c5.87,0,5.87,4.37,5.87,7,0,.13,0,13-.89,17C292.44,36,289.3,36,284.1,36c0,0-3,0-3.85-.15a4.25,4.25,0,0,1-3.4-2.69,4.3,4.3,0,0,1-1,.11,5.94,5.94,0,0,1-.76,0C274.66,35.05,273.19,36.07,270.87,36.07Zm8.49-9.46.4-.13a3.44,3.44,0,0,1-.46-.55Zm4.93-10.76a5.36,5.36,0,0,1,.4.43c0-.14,0-.29,0-.43Z"/><path class="cls-2" d="M281.55,5c.63,0,2.94.21,2.94,2a6,6,0,0,1-.33,1.62h4.44c3.87,0,3.87,2.22,3.87,5,0,.69-.06,12.9-.84,16.56C290.82,34,289.2,34,284.1,34c-.72,0-3,0-3.54-.12a2.6,2.6,0,0,1-2.1-2.79,2.68,2.68,0,0,1,3-2.79c.39,0,2.31.09,2.73.09,1.56,0,1.74-.3,1.95-1.8.36-2.46.54-9.06.54-12.06,0-.33,0-.63-.48-.63H282.3c-.24.48-1,2.22-1.5,3a3.28,3.28,0,0,1,.66-.06c1.17,0,1.62.48,2.43,1.89,1.2,2.13,2,3.45,2,4.38,0,1.83-2.07,2.58-3.09,2.58A2.18,2.18,0,0,1,281,24.8c-.27-.39-1.14-2.49-1.38-3-.93-1.92-1.05-2.13-1.05-2.7a2,2,0,0,1,.33-1.08,3.23,3.23,0,0,1-1.62-.48,18.73,18.73,0,0,1,.69,3.27,1.78,1.78,0,0,1-1.71,1.74c.6.21.78.78.9,1.68.3,2.58.45,4.95.45,5.31a1.55,1.55,0,0,1-1.68,1.65c-1.77,0-1.8-.9-1.83-2.85,0-.69-.27-4.11-.27-4.32a1.41,1.41,0,0,1,1.35-1.56,1.53,1.53,0,0,1-.78-1l-1.08.18V31.79c0,1.5-.51,2.28-2.4,2.28a2,2,0,0,1-2.19-2.25v-9.6c-.33,0-1.68.18-2.31.18s-2.16,0-2.16-2.49c0-2.19,1.23-2.25,2.4-2.34.24-.27.51-.57,1-1.14A19.51,19.51,0,0,0,265.74,14c-1.38-1.59-1.44-1.68-1.44-2.49s.71-2.83,2.62-2.83h.29c.21-.3.27-.42.81-1.29,1-1.65,1.41-2.31,2.34-2.31.72,0,2.52.54,2.52,2,0,.93-1.83,3.51-2.52,4.32.18.24.33.42.51.69,1-1.59,1.5-2.37,1.71-2.76a1.87,1.87,0,0,1,1.8-1.23c1.2,0,2.61.81,2.61,1.92s-2.1,3.57-3,4.71a2.27,2.27,0,0,1,1.17-.3,1.35,1.35,0,0,1,.81.24,16.28,16.28,0,0,1,1-1.92,21.53,21.53,0,0,0,2-4.95c.48-1.92.72-2.85,2.67-2.85m-8.4,10.74c-.6.72-.72.84-1.35,1.56.78-.06.87-.09,1.53-.15-.27-1-.24-1.14-.18-1.41m-6.66,6.84c1.56,0,1.56,1.35,1.56,3.57a33.55,33.55,0,0,1-.33,5.13,1.42,1.42,0,0,1-1.5.93c-.27,0-2,0-2-1.74,0-.45.27-2.37.27-2.76.12-3.51.18-3.93.36-4.32a1.58,1.58,0,0,1,1.65-.81M281.55,1A5.8,5.8,0,0,0,276,4.08a6.5,6.5,0,0,0-5.62-3c-3.07,0-4.49,2.14-5.61,4a6.75,6.75,0,0,0-4.45,6.44,5.71,5.71,0,0,0,1.45,4,6.46,6.46,0,0,0-1.54,4.44,7.52,7.52,0,0,0,.59,3,33.8,33.8,0,0,0-.32,4.62v0c0,.21-.06.57-.1.95a18,18,0,0,0-.17,1.92,5.69,5.69,0,0,0,6,5.74h0a6.3,6.3,0,0,0,4.65,1.89,6.17,6.17,0,0,0,5.27-2.38,6.16,6.16,0,0,0,3.88,2.1c1.1.15,3.77.16,4.08.16,5.12,0,10,0,11.44-7,.92-4.29.93-17.26.93-17.39,0-2.46,0-9-7.87-9H288C287,2.39,284.57,1,281.55,1Z"/></svg>