<?xml version="1.0" encoding="UTF-8"?><svg id="a" xmlns="http://www.w3.org/2000/svg" viewBox="0 0 240 240"><defs><style>.b{fill:#f0f0f0;}.c{fill:#ef6833;}.d{fill:#fafafa;}.e{fill:#d2d2d2;}.f{fill:#e25f30;}.g{fill:#c8c8c8;}.h{fill:#474747;}</style></defs><g><path class="h" d="M55.78449,212.08691c-11.96289,0-21.69531-9.73291-21.69531-21.69629V61.95996c0-11.96338,9.73242-21.69629,21.69531-21.69629h4.86426v-3.69482c0-4.77295,3.88281-8.65576,8.65527-8.65576s8.6543,3.88281,8.6543,8.65576v3.69482h84.08301v-3.69482c0-4.77295,3.88281-8.65576,8.65527-8.65576s8.65527,3.88281,8.65527,8.65576v3.69482h4.86328c11.96387,0,21.69629,9.73291,21.69629,21.69629V190.39062c0,11.96338-9.73242,21.69629-21.69629,21.69629H55.78449Z"/><path class="h" d="M170.69635,29.33072c3.9812,0,7.23853,3.25684,7.23853,7.23804v5.11249h6.28076c11.15308,0,20.27832,9.1254,20.27832,20.27859V190.3907c0,11.15324-9.12524,20.27859-20.27832,20.27859H55.78473c-11.15332,0-20.27881-9.12535-20.27881-20.27859V61.95984c0-11.1532,9.12549-20.27859,20.27881-20.27859h6.28076v-5.11249c0-3.9812,3.25708-7.23804,7.23828-7.23804,3.98096,0,7.23804,3.25684,7.23804,7.23804v5.11249h86.91626v-5.11249c0-3.9812,3.25732-7.23804,7.23828-7.23804m0-2.83466c-5.5542,0-10.073,4.51859-10.073,10.07269v2.27783H79.37653v-2.27783c0-5.55411-4.51855-10.07269-10.07275-10.07269s-10.073,4.51859-10.073,10.07269v2.27783h-3.44604c-12.74487,0-23.11353,10.36856-23.11353,23.11325V190.3907c0,12.74467,10.36865,23.11324,23.11353,23.11324H184.21564c12.74463,0,23.11304-10.36856,23.11304-23.11324V61.95984c0-12.74469-10.36841-23.11325-23.11304-23.11325h-3.44604v-2.27783c0-5.55411-4.5188-10.07269-10.07324-10.07269h0Z"/></g><g><g><g><path class="d" d="M55.78449,212.08691c-11.96289,0-21.69531-9.73291-21.69531-21.69629V93.31787c0-.78271,.63379-1.41748,1.41699-1.41748H204.49445c.7832,0,1.41699,.63477,1.41699,1.41748v97.07275c0,11.96338-9.73242,21.69629-21.69629,21.69629H55.78449Z"/><path class="h" d="M204.49396,93.31805v97.07268c0,11.15323-9.12524,20.27856-20.27856,20.27856H55.78473c-11.15332,0-20.27881-9.12534-20.27881-20.27856V93.31805H204.49396m0-2.83466H35.50592c-1.56543,0-2.83472,1.2691-2.83472,2.83466v97.07268c0,12.74467,10.36865,23.1132,23.11353,23.1132H184.2154c12.74463,0,23.11328-10.36853,23.11328-23.1132V93.31805c0-1.56555-1.26929-2.83466-2.83472-2.83466h0Z"/></g><g><g><rect class="c" x="153.79768" y="123.47147" width="13.51898" height="13.51905" rx="1.35194" ry="1.35194"/><rect class="c" x="133.5191" y="123.47147" width="13.51905" height="13.51905" rx="1.35194" ry="1.35194"/><rect class="c" x="113.24052" y="123.47147" width="13.51905" height="13.51905" rx="1.35194" ry="1.35194"/><rect class="g" x="92.96194" y="123.47147" width="13.51905" height="13.51905" rx="1.35194" ry="1.35194"/><rect class="g" x="72.68343" y="123.47147" width="13.51899" height="13.51905" rx="1.35194" ry="1.35194"/><rect class="g" x="174.07619" y="123.47147" width="13.51905" height="13.51905" rx="1.35194" ry="1.35194"/><rect class="g" x="52.40485" y="123.47147" width="13.51905" height="13.51905" rx="1.35194" ry="1.35194"/></g><g><rect class="g" x="153.79768" y="143.75005" width="13.51898" height="13.51905" rx="1.35188" ry="1.35188"/><rect class="g" x="133.5191" y="143.75005" width="13.51905" height="13.51905" rx="1.35188" ry="1.35188"/><rect class="g" x="113.24052" y="143.75005" width="13.51905" height="13.51905" rx="1.35188" ry="1.35188"/><rect class="g" x="92.96194" y="143.75005" width="13.51905" height="13.51905" rx="1.35188" ry="1.35188"/><rect class="g" x="72.68343" y="143.75005" width="13.51899" height="13.51905" rx="1.35188" ry="1.35188"/><rect class="g" x="174.07619" y="143.75005" width="13.51905" height="13.51905" rx="1.35188" ry="1.35188"/><rect class="g" x="52.40485" y="143.75005" width="13.51905" height="13.51905" rx="1.35188" ry="1.35188"/></g><g><rect class="g" x="153.79768" y="164.02862" width="13.51898" height="13.51905" rx="1.35188" ry="1.35188"/><rect class="g" x="133.5191" y="164.02862" width="13.51905" height="13.51905" rx="1.35188" ry="1.35188"/><rect class="g" x="113.24052" y="164.02862" width="13.51905" height="13.51905" rx="1.35188" ry="1.35188"/><rect class="g" x="92.96194" y="164.02862" width="13.51905" height="13.51905" rx="1.35188" ry="1.35188"/><rect class="g" x="72.68343" y="164.02862" width="13.51899" height="13.51905" rx="1.35188" ry="1.35188"/><rect class="g" x="174.07619" y="164.02862" width="13.51905" height="13.51905" rx="1.35188" ry="1.35188"/><rect class="g" x="52.40485" y="164.02862" width="13.51905" height="13.51905" rx="1.35188" ry="1.35188"/></g><rect class="g" x="153.79768" y="103.19296" width="13.51898" height="13.51899" rx="1.35188" ry="1.35188"/><rect class="g" x="133.5191" y="103.19296" width="13.51905" height="13.51899" rx="1.35194" ry="1.35194"/><rect class="g" x="174.07619" y="103.19296" width="13.51905" height="13.51899" rx="1.35188" ry="1.35188"/><rect class="g" x="153.79768" y="184.3072" width="13.51898" height="13.51899" rx="1.35188" ry="1.35188"/><rect class="g" x="133.5191" y="184.3072" width="13.51905" height="13.51899" rx="1.35188" ry="1.35188"/><rect class="g" x="113.24052" y="184.3072" width="13.51905" height="13.51899" rx="1.35188" ry="1.35188"/><rect class="g" x="92.96194" y="184.3072" width="13.51905" height="13.51899" rx="1.35188" ry="1.35188"/><rect class="g" x="72.68343" y="184.3072" width="13.51899" height="13.51899" rx="1.35188" ry="1.35188"/><rect class="g" x="52.40485" y="184.3072" width="13.51905" height="13.51899" rx="1.35188" ry="1.35188"/></g><g><path class="c" d="M184.21548,41.68128H55.78462c-11.15323,0-20.27858,9.12535-20.27858,20.27858v29.08108H204.49406v-29.08108c0-11.15323-9.12535-20.27858-20.27858-20.27858Zm-114.91181,24.71444c-5.59974,0-10.13929-4.53942-10.13929-10.13929s4.53955-10.13929,10.13929-10.13929,10.13922,4.53955,10.13922,10.13929-4.53942,10.13929-10.13922,10.13929Zm101.39276,0c-5.59967,0-10.13929-4.53942-10.13929-10.13929s4.53962-10.13929,10.13929-10.13929,10.13929,4.53955,10.13929,10.13929-4.53955,10.13929-10.13929,10.13929Z"/><g><path class="f" d="M170.69643,42.73738c-7.46642,0-13.51905,6.05276-13.51905,13.51905s6.05263,13.51905,13.51905,13.51905,13.51905-6.05263,13.51905-13.51905-6.05263-13.51905-13.51905-13.51905Zm0,23.65834c-5.59967,0-10.13929-4.53942-10.13929-10.13929s4.53962-10.13929,10.13929-10.13929,10.13929,4.53955,10.13929,10.13929-4.53955,10.13929-10.13929,10.13929Z"/><path class="f" d="M69.30367,42.73738c-7.46629,0-13.51905,6.05276-13.51905,13.51905s6.05276,13.51905,13.51905,13.51905,13.51899-6.05263,13.51899-13.51905-6.05256-13.51905-13.51899-13.51905Zm0,23.65834c-5.59974,0-10.13929-4.53942-10.13929-10.13929s4.53955-10.13929,10.13929-10.13929,10.13922,4.53955,10.13922,10.13929-4.53942,10.13929-10.13922,10.13929Z"/></g><g><g><g><path class="e" d="M69.30402,64.91211c-4.77246,0-8.65527-3.88281-8.65527-8.65576v-19.6875c0-4.77295,3.88281-8.65576,8.65527-8.65576s8.65527,3.88281,8.65527,8.65576v19.6875c0,4.77295-3.88281,8.65576-8.65527,8.65576Z"/><path class="h" d="M69.30377,29.33069c3.98096,0,7.23804,3.25684,7.23804,7.23807v19.68768c0,3.98083-3.25708,7.23825-7.23804,7.23825-3.9812,0-7.23828-3.25742-7.23828-7.23825v-19.68768c0-3.98123,3.25708-7.23807,7.23828-7.23807m0-2.83466c-5.5542,0-10.073,4.51862-10.073,10.07272v19.68768c0,5.5542,4.5188,10.07291,10.073,10.07291s10.07275-4.51871,10.07275-10.07291v-19.68768c0-5.55411-4.51855-10.07272-10.07275-10.07272h0Z"/></g><g><path class="e" d="M170.6966,64.91211c-4.77246,0-8.65527-3.88281-8.65527-8.65576v-19.6875c0-4.77295,3.88281-8.65576,8.65527-8.65576s8.65527,3.88281,8.65527,8.65576v19.6875c0,4.77295-3.88281,8.65576-8.65527,8.65576Z"/><path class="h" d="M170.69635,29.33069c3.9812,0,7.23828,3.25684,7.23828,7.23807v19.68768c0,3.98083-3.25708,7.23825-7.23828,7.23825-3.98096,0-7.23804-3.25742-7.23804-7.23825v-19.68768c0-3.98123,3.25708-7.23807,7.23804-7.23807m0-2.83466c-5.5542,0-10.07275,4.51862-10.07275,10.07272v19.68768c0,5.5542,4.51855,10.07291,10.07275,10.07291s10.073-4.51871,10.073-10.07291v-19.68768c0-5.55411-4.5188-10.07272-10.073-10.07272h0Z"/></g></g><g><path class="b" d="M66.43599,33.85108c-1.05345,0-1.91526,.86207-1.91526,1.91565v21.29246c0,1.05286,.86181,1.915,1.91526,1.915,1.05325,0,1.91526-.86214,1.91526-1.915v-21.29246c0-1.05358-.86201-1.91565-1.91526-1.91565Z"/><path class="b" d="M167.82882,33.85108c-1.05345,0-1.91526,.86207-1.91526,1.91565v21.29246c0,1.05286,.86181,1.915,1.91526,1.915,1.05325,0,1.91519-.86214,1.91519-1.915v-21.29246c0-1.05358-.86194-1.91565-1.91519-1.91565Z"/></g></g></g></g><rect class="f" x="35.50604" y="84.28141" width="168.98802" height="6.75953"/></g></svg>