<svg id="materials" xmlns="http://www.w3.org/2000/svg" xmlns:xlink="http://www.w3.org/1999/xlink" viewBox="0 0 351.97 183.23"><defs><style>.cls-1,.cls-19{fill:none;}.cls-2{fill:#60605a;}.cls-3{fill:#515556;}.cls-4{fill:#fff;}.cls-5{fill:#e5d720;}.cls-6{fill:#474747;}.cls-7{fill:#e8e7df;}.cls-8{fill:#f4e90f;}.cls-9{fill:#bfd1bf;}.cls-10{fill:#6c8c6c;}.cls-11{fill:#cec015;}.cls-12{clip-path:url(#clip-path);}.cls-13{fill:#826427;}.cls-13,.cls-18,.cls-19{stroke:#515556;}.cls-13,.cls-18{stroke-miterlimit:10;stroke-width:2px;}.cls-14{fill:#2d88ea;}.cls-15{fill:#6d6d69;}.cls-16,.cls-18{fill:#f9e4d4;}.cls-17{fill:#b6ecf2;}.cls-19{stroke-linecap:round;stroke-linejoin:round;}</style><clipPath id="clip-path"><path class="cls-1" d="M68,82.91S59,93.37,48,93.37,28,82.91,28,82.91s9-10.47,20-10.47S68,82.91,68,82.91Z"/></clipPath></defs><title>trio</title><path class="cls-2" d="M300.2,171.56h-1.88c-25,0-43.22-17.56-43.22-41.77,0-13.63,4.42-22.42,8-29.49,2.37-4.71,4.24-8.43,4.24-12.3,0-3.11-.89-6.14-2-10A93.31,93.31,0,0,1,261,52.36,38.46,38.46,0,0,1,299,12.6h.47a38.46,38.46,0,0,1,38.06,39.76A93.7,93.7,0,0,1,333.22,78c-1.12,3.82-2,6.85-2,10,0,3.87,1.87,7.59,4.23,12.3,3.55,7.07,8,15.86,8,29.49C343.41,154,325.24,171.56,300.2,171.56Z"/><path class="cls-3" d="M299.49,13.6a37.46,37.46,0,0,1,37.06,38.73c-.7,20.38-6.33,27.56-6.33,35.67,0,10.2,12.19,19.37,12.19,41.79,0,24.49-18.38,40.77-42.21,40.77l-.94,0-.94,0c-23.83,0-42.22-16.28-42.22-40.77,0-22.42,12.2-31.59,12.2-41.79,0-8.11-5.63-15.29-6.33-35.67C261.23,31,278.56,13.6,299,13.6h.47m0-2H299a39.46,39.46,0,0,0-39,40.8,95.36,95.36,0,0,0,4.37,25.92c1.09,3.75,2,6.71,2,9.68,0,3.63-1.82,7.26-4.13,11.86-3.59,7.16-8.07,16.07-8.07,29.93,0,24.79,18.6,42.77,44.22,42.77h1.88c25.62,0,44.21-18,44.21-42.77,0-13.86-4.47-22.77-8.06-29.93-2.31-4.6-4.13-8.23-4.13-11.86,0-3,.86-5.93,2-9.68a95.76,95.76,0,0,0,4.37-25.92,39.46,39.46,0,0,0-39.06-40.8Z"/><path class="cls-4" d="M300,169.46h-1.41c-18.92,0-32.66-14.72-32.66-35,0-11.37,3.32-18.71,6-24.61,1.77-3.92,3.17-7,3.17-10.22a27.46,27.46,0,0,0-.78-5.47c-1.18-5.68-2.65-12.76,3-24,3.32-6.61,14.11-9,22.35-9s18.89,2.36,21.68,9c4.89,11.7,3.73,18.58,2.8,24.12a31.94,31.94,0,0,0-.61,5.3c0,3.21,1.39,6.3,3.16,10.22,2.67,5.9,6,13.24,6,24.61C332.62,154.74,318.89,169.46,300,169.46Z"/><path class="cls-3" d="M299.61,62.2c9.26,0,18.41,2.8,20.76,8.41,6.47,15.48,2.11,22.27,2.11,29,0,8.5,9.14,16.14,9.14,34.83,0,20.41-13.78,34-31.66,34l-.7,0-.71,0c-17.87,0-31.66-13.58-31.66-34,0-18.69,9.15-26.33,9.15-34.83,0-6.76-5.38-14.11,2.11-29C281,65,290.35,62.2,299.61,62.2m0-2c-8.52,0-19.72,2.49-23.25,9.51-5.8,11.56-4.23,19.14-3.08,24.66a26.74,26.74,0,0,1,.76,5.27c0,3-1.36,6-3.08,9.81-2.7,6-6.07,13.43-6.07,25,0,20.85,14.16,36,33.66,36H300c19.51,0,33.66-15.14,33.66-36,0-11.59-3.36-19-6.06-25-1.72-3.81-3.08-6.82-3.08-9.81a31.2,31.2,0,0,1,.59-5.13c1-5.67,2.15-12.71-2.86-24.67-3-7.12-14-9.64-22.6-9.64Z"/><path class="cls-4" d="M286.59,64.54c-5.2,0-9.44-6.16-9.44-13.74s4.24-13.74,9.44-13.74S296,43.22,296,50.8,291.8,64.54,286.59,64.54Z"/><path class="cls-3" d="M286.59,38.06c4.67,0,8.45,5.7,8.45,12.74s-3.78,12.74-8.45,12.74-8.44-5.7-8.44-12.74,3.78-12.74,8.44-12.74m0-2c-5.85,0-10.44,6.48-10.44,14.74s4.59,14.74,10.44,14.74S297,59.07,297,50.8s-4.59-14.74-10.45-14.74Z"/><path class="cls-4" d="M311.45,62.5c-4.94,0-9-5.7-9-12.72s4-12.72,9-12.72,9,5.71,9,12.72S316.4,62.5,311.45,62.5Z"/><path class="cls-3" d="M311.45,38.06c4.41,0,8,5.25,8,11.72s-3.57,11.72-8,11.72-8-5.24-8-11.72,3.57-11.72,8-11.72m0-2c-5.59,0-10,6-10,13.72s4.38,13.72,10,13.72,10-6,10-13.72-4.38-13.72-10-13.72Z"/><path class="cls-5" d="M298.32,82.89c-13.45,0-24-5.37-24-12.21s10.54-12.22,24-12.22,24,5.37,24,12.22S311.77,82.89,298.32,82.89Z"/><path class="cls-3" d="M298.32,59.46c12.69,0,23,5,23,11.22s-10.29,11.21-23,11.21-23-5-23-11.21,10.3-11.22,23-11.22m0-2c-14,0-25,5.81-25,13.22s11,13.21,25,13.21,25-5.81,25-13.21-11-13.22-25-13.22Z"/><path class="cls-5" d="M276,174.67c-6.4,0-13.3-7.11-15.27-9.29-8.16-9.08-11.25-14.35-10-17.1.53-1.21,1.77-1.82,3.67-1.82l.49,0h.69c4.39,0,4.47-2.2,4.59-5.25.08-2.14.17-4.56,2.35-5.67a4.62,4.62,0,0,1,2.1-.52c1.84,0,3.45,1.13,4.87,2.12a6.55,6.55,0,0,0,2.95,1.48h0c.34,0,.87-.11,1.56-1.07,1.84-2.55,3.4-3.73,4.91-3.73,3.53,0,5,6.1,6.45,17.37.72,5.54,1.58,18.84-5.91,22.65A7.5,7.5,0,0,1,276,174.67Z"/><path class="cls-3" d="M278.9,134.85c2.76,0,4.16,6.43,5.46,16.5,1.05,8.13.67,18.55-5.37,21.63a6.48,6.48,0,0,1-3,.69c-5.23,0-11.31-5.39-14.52-9-4.13-4.59-15.31-17.25-7.1-17.25h.44c.26,0,.51,0,.74,0,8.94,0,3.28-8.94,7.39-11a3.53,3.53,0,0,1,1.65-.41c2.91,0,5.43,3.6,7.82,3.6a2.93,2.93,0,0,0,2.37-1.48c1.65-2.28,3-3.32,4.1-3.32m0-2h0c-1.86,0-3.67,1.32-5.72,4.14-.11.16-.49.66-.75.66a7,7,0,0,1-2.38-1.3c-1.54-1.08-3.28-2.3-5.44-2.3a5.57,5.57,0,0,0-2.56.63c-2.69,1.37-2.81,4.35-2.89,6.52-.11,3-.16,4.29-3.59,4.29h-.64l-.54,0c-2.9,0-4.1,1.31-4.59,2.41-1.44,3.25,1.51,8.52,10.2,18.17,2,2.26,9.19,9.63,16,9.63a8.37,8.37,0,0,0,3.88-.91c3.34-1.69,8.6-7,6.45-23.67-1.56-12.1-3.15-18.24-7.44-18.24Z"/><path class="cls-5" d="M327,173.18a7.31,7.31,0,0,1-2.6-.47c-7.82-3-8.19-16.32-8-21.92.42-11.66,1.36-18,5.11-18,1.43,0,3,1,4.93,3.2.8.9,1.33.9,1.5.9.85,0,1.87-.88,2.95-1.81,1.44-1.25,3.07-2.66,5.13-2.66a4.87,4.87,0,0,1,1.66.31c2.27.87,2.59,3.28,2.87,5.4.4,3,.78,4.78,3.94,4.78h0a10.76,10.76,0,0,0,1.78-.16,9,9,0,0,1,1.31-.11,3.1,3.1,0,0,1,3.07,1.58c1.34,2.65-1.26,8.2-8.45,18C340.29,164.79,333.61,173.18,327,173.18Z"/><path class="cls-3" d="M336,133.44a3.65,3.65,0,0,1,1.3.25c4.07,1.55-.08,10.24,7.17,10.24a11.94,11.94,0,0,0,1.94-.17,7,7,0,0,1,1.15-.1c6.83,0-2.62,13.11-6.19,18-3,4.1-9,10.55-14.4,10.55a6.21,6.21,0,0,1-2.24-.41c-6.31-2.41-7.64-12.73-7.35-20.94.38-10.4,1.2-17,4.11-17,1.08,0,2.45.91,4.18,2.87a3.05,3.05,0,0,0,2.25,1.23c2.58,0,4.88-4.47,8.08-4.47m0-2h0c-2.43,0-4.29,1.61-5.79,2.9-.76.67-1.81,1.57-2.29,1.57-.12,0-.38-.15-.75-.56-2.14-2.41-3.94-3.54-5.68-3.54-5,0-5.72,8.21-6.11,18.95-.6,16.81,5.15,21.55,8.63,22.88a8.22,8.22,0,0,0,3,.54c7.12,0,14.06-8.7,16-11.37,7.64-10.4,10.12-15.91,8.54-19a4.07,4.07,0,0,0-4-2.13,8.7,8.7,0,0,0-1.47.13,11.2,11.2,0,0,1-1.62.14c-2.21,0-2.54-.74-3-3.91-.29-2.16-.68-5.12-3.51-6.2a5.64,5.64,0,0,0-2-.38Z"/><ellipse class="cls-6" cx="287.06" cy="51.27" rx="4.85" ry="8.19"/><ellipse class="cls-6" cx="311.45" cy="51.27" rx="4.85" ry="8.19"/><path class="cls-7" d="M318.29,113.89a34.93,34.93,0,0,0-18.37-5.74c-9.91,0-18.38,5.74-18.38,5.74s11.26-3.44,18.38-3.44S318.29,113.89,318.29,113.89Z"/><ellipse class="cls-2" cx="295.02" cy="63" rx="1.14" ry="1.71" transform="translate(208.63 352.04) rotate(-85.41)"/><ellipse class="cls-2" cx="302.39" cy="63" rx="1.71" ry="1.14" transform="translate(-5.11 33.82) rotate(-6.35)"/><path class="cls-4" d="M27.56,138.87c-7.23,0-13.65-8.44-14.93-19.63-1.34-11.65,3.65-21.82,11.12-22.68a8.77,8.77,0,0,1,1-.06c7.23,0,13.65,8.44,14.93,19.63C41,127.78,36.06,138,28.59,138.81A8.89,8.89,0,0,1,27.56,138.87Z"/><path class="cls-6" d="M24.78,97.59c6.54,0,12.63,8.08,13.85,18.67,1.27,11.06-3.28,20.68-10.16,21.47-.31,0-.61.05-.91.05-6.54,0-12.64-8.08-13.85-18.67C12.44,108,17,98.43,23.87,97.64a9.08,9.08,0,0,1,.91,0m0-2.18h0a8.92,8.92,0,0,0-1.16.07c-4.1.47-7.6,3.35-9.86,8.11a29.56,29.56,0,0,0-2.22,15.77c1.35,11.74,8.24,20.6,16,20.6a8.77,8.77,0,0,0,1.15-.07c4.11-.47,7.61-3.35,9.86-8.11A29.56,29.56,0,0,0,40.79,116C39.45,104.27,32.56,95.41,24.78,95.41Z"/><path class="cls-4" d="M68.39,138.87a9,9,0,0,1-1-.06c-7.46-.86-12.45-11-11.12-22.68C57.53,104.94,64,96.5,71.18,96.5a9,9,0,0,1,1,.06c7.46.86,12.45,11,11.12,22.68C82,130.43,75.62,138.87,68.39,138.87Z"/><path class="cls-6" d="M71.18,97.59c.3,0,.6,0,.9,0,6.88.79,11.43,10.4,10.16,21.47-1.21,10.59-7.3,18.67-13.85,18.67-.3,0-.6,0-.9-.05-6.88-.79-11.43-10.41-10.16-21.47,1.21-10.59,7.3-18.67,13.85-18.67m0-2.18c-7.79,0-14.67,8.86-16,20.6a29.56,29.56,0,0,0,2.22,15.77c2.25,4.76,5.75,7.64,9.86,8.11a8.88,8.88,0,0,0,1.15.07c7.79,0,14.67-8.86,16-20.6a29.56,29.56,0,0,0-2.22-15.77c-2.25-4.76-5.76-7.64-9.86-8.11A8.88,8.88,0,0,0,71.18,95.41Z"/><path class="cls-8" d="M31.27,182.41c-1.51,0-3.32-.26-3.92-.83a1.39,1.39,0,0,1-.45-1.17,1.88,1.88,0,0,1,.33-.81,5.23,5.23,0,0,1-1.52.32,1.29,1.29,0,0,1-1.06-.45,1,1,0,0,1-.2-.85,2.09,2.09,0,0,1,.79-1.15,2.47,2.47,0,0,1-.61.11,1,1,0,0,1-.74-.37.9.9,0,0,1-.11-.78c.94-2.72,4.91-5.35,9.89-6.53q1-.24,2-.39V136.77a.82.82,0,0,1,.82-.82h7.63a.82.82,0,0,1,.82.82V170.9A3.75,3.75,0,0,1,46.46,173c.88,3.71-4.57,6.85-10,8.55A17.73,17.73,0,0,1,31.27,182.41Z"/><path class="cls-6" d="M44.16,136.77v34.56a3.15,3.15,0,0,1,1.5,1.89c.67,2.79-3.68,5.77-9.4,7.58a16.78,16.78,0,0,1-5,.79,6.59,6.59,0,0,1-3.36-.61c-1.33-1.26,4.53-3.56,4-3.93l-.12,0c-.82,0-4.7,2.07-6.06,2.07a.51.51,0,0,1-.42-.14c-.64-.81,5.48-3.92,5.42-4.16l-.14-.06c-.86,0-5.27,2-5.94,2l-.08-.06c.83-2.39,4.52-4.87,9.3-6a24.67,24.67,0,0,1,2.68-.46V136.77h7.63m0-1.64H36.53a1.63,1.63,0,0,0-1.64,1.64v32c-.48.09-1,.18-1.41.29-5.32,1.27-9.43,4-10.47,7.06a1.64,1.64,0,0,0,.72,2,2,2,0,0,0-.09.33A1.84,1.84,0,0,0,24,180a2.05,2.05,0,0,0,1.7.77l.37,0a2.22,2.22,0,0,0,.7,1.46c1,1,3.7,1.06,4.49,1.06a18.76,18.76,0,0,0,5.48-.87c5.74-1.82,11.52-5.27,10.5-9.52a4.41,4.41,0,0,0-1.45-2.33V136.77A1.64,1.64,0,0,0,44.16,135.13Z"/><path class="cls-8" d="M65.18,182.41a17.73,17.73,0,0,1-5.23-.83c-5.4-1.7-10.84-4.84-10-8.55a3.75,3.75,0,0,1,1.48-2.13V136.77a.82.82,0,0,1,.82-.82h7.63a.82.82,0,0,1,.82.82v32.74q1,.15,2,.39c5,1.18,9,3.81,9.89,6.53a.9.9,0,0,1-.11.78,1,1,0,0,1-.75.37h0a2.48,2.48,0,0,1-.6-.11,2.15,2.15,0,0,1,.79,1.15,1,1,0,0,1-.2.85,1.29,1.29,0,0,1-1.06.45,5.35,5.35,0,0,1-1.53-.32,1.66,1.66,0,0,1,.33.81,1.35,1.35,0,0,1-.44,1.17C68.5,182.15,66.69,182.41,65.18,182.41Z"/><path class="cls-6" d="M59.92,136.77v33.46a24.09,24.09,0,0,1,2.67.46c4.79,1.14,8.48,3.62,9.31,6l-.09.06c-.67,0-5.08-2-5.93-2l-.14.06c-.06.24,6.06,3.35,5.42,4.16a.51.51,0,0,1-.42.14c-1.36,0-5.24-2.07-6.06-2.07l-.12,0c-.55.37,5.31,2.67,4,3.93a6.59,6.59,0,0,1-3.36.61,16.78,16.78,0,0,1-5-.79c-5.72-1.81-10.07-4.79-9.41-7.58a3.2,3.2,0,0,1,1.51-1.89V136.77h7.63m0-1.64H52.29a1.63,1.63,0,0,0-1.64,1.64v33.74a4.49,4.49,0,0,0-1.46,2.33c-1,4.25,4.77,7.7,10.51,9.52a18.71,18.71,0,0,0,5.48.87c.79,0,3.45-.08,4.48-1.06a2.19,2.19,0,0,0,.71-1.46l.37,0a2.05,2.05,0,0,0,1.7-.77,1.88,1.88,0,0,0,.37-1.49,2,2,0,0,0-.09-.33,1.72,1.72,0,0,0,.51-.46,1.76,1.76,0,0,0,.21-1.53c-1-3-5.15-5.79-10.47-7.06-.46-.11-.93-.2-1.41-.29v-32A1.64,1.64,0,0,0,59.92,135.13Z"/><path class="cls-4" d="M47.94,159.6C29.66,159,17.38,150.26,17.38,138c0-5.86,2.66-10.48,5-14.56,1.74-3,3.25-5.65,3.25-8.08a32.55,32.55,0,0,1,4.7-17.1C17.83,92.52,9.84,81,9.84,68.67,9.84,50.29,27,35.34,48,35.34S86.12,50.29,86.12,68.67c0,12.37-8,23.85-20.49,29.56a32.56,32.56,0,0,1,4.71,17.1c0,2.43,1.5,5,3.24,8.08,2.34,4.08,5,8.7,5,14.56,0,12.29-12.28,21-30.56,21.63h-.07Z"/><path class="cls-6" d="M48,36.43C68.44,36.43,85,50.86,85,68.67c0,12.81-8.59,23.88-21,29.08a31.07,31.07,0,0,1,5.24,17.58c0,6.17,8.23,12.69,8.23,22.64,0,12.83-13.52,20-29.5,20.54C32,158,18.47,150.8,18.47,138c0-9.95,8.24-16.47,8.24-22.64a31.06,31.06,0,0,1,5.23-17.58c-12.43-5.2-21-16.27-21-29.08,0-17.81,16.58-32.24,37.05-32.24m0-2.18c-21.63,0-39.23,15.44-39.23,34.42,0,12.44,7.78,24,20,30a34,34,0,0,0-4.24,16.63c0,2.14-1.44,4.64-3.1,7.54-2.29,4-5.14,8.95-5.14,15.1C16.29,150.89,29,160,47.9,160.69h.15C67,160,79.66,150.89,79.66,138c0-6.15-2.85-11.11-5.14-15.1-1.66-2.9-3.09-5.4-3.09-7.54A34,34,0,0,0,67.18,98.7c12.25-6,20-17.59,20-30C87.21,49.69,69.61,34.25,48,34.25Z"/><path class="cls-9" d="M75.81,44.38c-9.24,0-17.1-5.57-19.11-13.54L56,27.94l2.43,1.75a7,7,0,0,0,4.27,1.13c1,0,2-.09,3.09-.18s2.45-.22,3.74-.22c8,0,17.42-3.25,17.42-12.41a13.28,13.28,0,0,0-.42-3.27l-.74-2.91,2.43,1.76A16.58,16.58,0,0,1,95.41,27C95.41,36.6,86.62,44.38,75.81,44.38Z"/><path class="cls-6" d="M87.55,14.47A15.55,15.55,0,0,1,94.32,27c0,9-8.29,16.25-18.51,16.25-8.84,0-16.22-5.44-18.06-12.72a8,8,0,0,0,4.91,1.34c2.11,0,4.42-.4,6.83-.4C79.71,31.51,88,27,88,18a14.8,14.8,0,0,0-.45-3.54M84,9.2,85.43,15a12.06,12.06,0,0,1,.39,3c0,5.47-4.29,11.32-16.33,11.32-1.34,0-2.61.11-3.83.22-1.07.09-2.08.18-3,.18A5.84,5.84,0,0,1,59,28.8l-4.86-3.5,1.47,5.81c2.14,8.45,10.43,14.36,20.17,14.36C87.22,45.47,96.5,37.2,96.5,27A17.68,17.68,0,0,0,88.82,12.7Z"/><path class="cls-9" d="M20.69,45.75C9.88,45.75,1.09,38,1.09,28.41A16.58,16.58,0,0,1,8.32,15l2.42-1.75L10,16.11a13.28,13.28,0,0,0-.42,3.27C9.59,28.54,19,31.8,27,31.8c1.29,0,2.53.11,3.74.21s2.12.19,3.09.19a6.9,6.9,0,0,0,4.27-1.14l2.43-1.75-.74,2.9C37.79,40.18,29.93,45.75,20.69,45.75Z"/><path class="cls-6" d="M9,15.84a14.8,14.8,0,0,0-.45,3.54c0,9,8.29,13.51,18.51,13.51,2.41,0,4.72.4,6.83.4a8,8,0,0,0,4.91-1.35c-1.85,7.28-9.22,12.72-18.06,12.72-10.22,0-18.51-7.28-18.51-16.25A15.57,15.57,0,0,1,9,15.84m3.59-5.27-4.86,3.5A17.69,17.69,0,0,0,0,28.41C0,38.57,9.28,46.84,20.69,46.84c9.74,0,18-5.91,20.17-14.36l1.47-5.81-4.86,3.51a5.84,5.84,0,0,1-3.63.92c-.93,0-1.93-.08-3-.18s-2.49-.21-3.83-.21c-12,0-16.33-5.85-16.33-11.33a12.06,12.06,0,0,1,.39-3Z"/><path class="cls-10" d="M48,58.1c-10.8,0-21.13-3-29.07-8.32l-.47-.32s0-1.13,0-1.28c0-19.28,13.27-35,29.57-35s29.56,15.69,29.56,35c0,.15,0,1.28,0,1.28l-.48.32C69.1,55.14,58.78,58.1,48,58.1Z"/><path class="cls-6" d="M48,14.3c15.72,0,28.47,15.17,28.47,33.88,0,.23,0,.46,0,.7C69,53.92,59,57,48,57s-21-3.09-28.46-8.13c0-.24,0-.47,0-.7C19.5,29.47,32.25,14.3,48,14.3m0-2.18c-16.91,0-30.66,16.18-30.66,36.06,0,.17,0,.33,0,.49v.24l0,1.14.94.63C26.42,56.17,37,59.19,48,59.19s21.55-3,29.68-8.51l.94-.63,0-1.14v-.24c0-.16,0-.32,0-.49C78.63,28.3,64.88,12.12,48,12.12Z"/><path class="cls-11" d="M42.77,76.62V57.87a50.52,50.52,0,0,1-23.86-8.09l-.47-.32s0-1.13,0-1.28A41.74,41.74,0,0,1,19,41.49l.27-1.66,1.4.92a48.6,48.6,0,0,0,22.14,7.38V13.74l.9-.16a25.23,25.23,0,0,1,8.61,0l.9.16V48.13a48.56,48.56,0,0,0,22.14-7.38l1.4-.92L77,41.49a40.62,40.62,0,0,1,.55,6.69c0,.15,0,1.28,0,1.28l-.48.32a50.44,50.44,0,0,1-23.86,8.09V76.62Z"/><path class="cls-6" d="M48,14.3a24.25,24.25,0,0,1,4.11.36V49.31a50.27,50.27,0,0,0,23.83-7.65,41,41,0,0,1,.53,6.52c0,.23,0,.46,0,.7a50,50,0,0,1-24.34,8V75.53H43.86V56.86a50,50,0,0,1-24.34-8c0-.24,0-.47,0-.7A39.84,39.84,0,0,1,20,41.66a50.19,50.19,0,0,0,23.82,7.65V14.66A24.37,24.37,0,0,1,48,14.3m0-2.18a26.36,26.36,0,0,0-4.49.39l-1.81.31v34.1a47.17,47.17,0,0,1-20.45-7.08L18.43,38l-.55,3.31a42.83,42.83,0,0,0-.56,6.87c0,.17,0,.33,0,.49v.24l0,1.14.94.63a51.24,51.24,0,0,0,23.38,8.18V77.71H54.27V58.86a51.28,51.28,0,0,0,23.39-8.18l.94-.63,0-1.14v-.24c0-.16,0-.32,0-.49a42.83,42.83,0,0,0-.56-6.87L77.53,38l-2.81,1.84a47.17,47.17,0,0,1-20.45,7.08V12.82l-1.81-.31A26.16,26.16,0,0,0,48,12.12Z"/><ellipse class="cls-6" cx="28.94" cy="67.99" rx="5.83" ry="6.86"/><ellipse class="cls-6" cx="67.36" cy="67.99" rx="5.83" ry="6.86"/><path class="cls-8" d="M48,94.19c-11.29,0-20.23-10.31-20.61-10.75a.83.83,0,0,1,0-1.07c.38-.44,9.32-10.75,20.61-10.75s20.23,10.31,20.6,10.75a.83.83,0,0,1,0,1.07C68.21,83.88,59.26,94.19,48,94.19Z"/><path class="cls-6" d="M48,72.44c11,0,20,10.47,20,10.47S59,93.37,48,93.37,28,82.91,28,82.91s9-10.47,20-10.47m0-1.64c-11.66,0-20.84,10.59-21.23,11a1.65,1.65,0,0,0,0,2.13c.39.45,9.57,11,21.23,11S68.82,84.42,69.2,84a1.63,1.63,0,0,0,0-2.13C68.82,81.39,59.63,70.8,48,70.8Z"/><g class="cls-12"><path class="cls-6" d="M48,81.32a105.35,105.35,0,0,1,21.63,2l.57-.53A105.52,105.52,0,0,0,48,80.68a105,105,0,0,0-22.21,2.13l.58.53A105.35,105.35,0,0,1,48,81.32Z"/><path class="cls-6" d="M48,81.32v.54h0a104.69,104.69,0,0,1,21.5,2l.27.06.21-.19c.22-.2.42-.37.58-.53l.75-.7-1-.23A105.48,105.48,0,0,0,48,80.14a105.51,105.51,0,0,0-22.33,2.14l-1,.23.75.7.59.54.21.18.27-.06a104.38,104.38,0,0,1,21.47-2h0V80.77h0a105.38,105.38,0,0,0-21.7,2l.11.53.37-.41c-.23-.2-.42-.37-.57-.52l-.38.4.12.53A104.33,104.33,0,0,1,48,81.23a103.5,103.5,0,0,1,22.08,2.12l.12-.54-.37-.39-.57.51.37.41.11-.54a105.77,105.77,0,0,0-21.73-2h0Z"/></g><circle class="cls-8" cx="47.98" cy="22.82" r="2.45"/><circle class="cls-8" cx="47.98" cy="32.91" r="2.45"/><circle class="cls-8" cx="47.98" cy="42.99" r="2.45"/><circle class="cls-8" cx="47.98" cy="53.08" r="2.45"/><circle class="cls-8" cx="58.77" cy="52.17" r="2.45"/><circle class="cls-8" cx="68.69" cy="49.23" r="2.45"/><circle class="cls-8" cx="36.09" cy="52.17" r="2.45"/><circle class="cls-8" cx="26.17" cy="48.9" r="2.45"/><circle class="cls-8" cx="47.98" cy="63.16" r="2.45"/><path class="cls-7" d="M66,125.86a33.16,33.16,0,0,0-17.45-5.45c-9.4,0-17.44,5.45-17.44,5.45s10.68-3.27,17.44-3.27S66,125.86,66,125.86Z"/><path class="cls-13" d="M193.55,9A35.28,35.28,0,0,0,171.1,1a39.9,39.9,0,0,0-21.31,6c-11.11,5.87-19.42,16.72-22.35,31a31.12,31.12,0,0,0-1.17,7.77h.14c-.08,1.29-.14,2.59-.14,3.93,0,28.77,19.57,52.1,43.71,52.1s43.7-23.33,43.7-52.1C213.68,31.32,205.65,17,193.55,9Z"/><path class="cls-14" d="M157.46,177.78c-3.2,0-5.7-1.28-6.85-3.5-.7-1.34-1-3.59,1.64-6.73a22.72,22.72,0,0,1,6.83-5.3,12.65,12.65,0,0,1,5.74-1.71,5.86,5.86,0,0,1,5.45,3.5c2,3.81-.81,9.21-6.23,12A14.34,14.34,0,0,1,157.46,177.78Z"/><path class="cls-3" d="M164.82,161.54a4.9,4.9,0,0,1,4.56,3c1.74,3.33-.86,8.11-5.8,10.69a13.48,13.48,0,0,1-6.12,1.59c-2.69,0-5-1-6-3-1.73-3.33,3.11-8.12,8-10.69a11.86,11.86,0,0,1,5.28-1.59m0-2h0a13.66,13.66,0,0,0-6.2,1.82c-6.2,3.23-11.25,8.86-8.9,13.38,1.33,2.57,4.16,4,7.74,4a15.37,15.37,0,0,0,7-1.82c6-3.13,8.94-9,6.66-13.38a6.89,6.89,0,0,0-6.34-4Z"/><path class="cls-15" d="M161.51,170.8c-2.71,0-4.87-1.36-5.37-3.38s2.41-4,5.21-5.36l-2.21-34.38a.76.76,0,0,1,.2-.56.74.74,0,0,1,.55-.24h7.84a.74.74,0,0,1,.75.75v35.86a.85.85,0,0,1,0,.23,3.88,3.88,0,0,1,.21.63,4.29,4.29,0,0,1-1.09,3.85,7.74,7.74,0,0,1-4,2.35,8.38,8.38,0,0,1-2,.25Z"/><path class="cls-3" d="M167.74,127.63v35.86l-.14.23a3,3,0,0,1,.34.8c.53,2.18-1.51,4.55-4.57,5.3a7.57,7.57,0,0,1-1.86.23c-2.3,0-4.22-1.08-4.64-2.81s3.11-3.68,5.26-4.72l-2.24-34.89h7.85m0-1.5h-7.85a1.51,1.51,0,0,0-1.5,1.59l2.18,33.89c-2.27,1.16-5.82,3.27-5.16,6,.58,2.36,3,4,6.1,4a9.36,9.36,0,0,0,2.22-.27c3.92-1,6.41-4.09,5.66-7.11a5.34,5.34,0,0,0-.16-.53s0-.1,0-.15V127.63a1.5,1.5,0,0,0-1.5-1.5Z"/><path class="cls-14" d="M185.83,177.78a14.34,14.34,0,0,1-6.58-1.71c-5.42-2.82-8.22-8.22-6.23-12a5.86,5.86,0,0,1,5.45-3.5,12.65,12.65,0,0,1,5.74,1.71,22.72,22.72,0,0,1,6.83,5.3c2.62,3.14,2.34,5.39,1.64,6.73-1.15,2.22-3.65,3.5-6.85,3.5Z"/><path class="cls-3" d="M178.47,161.54a11.86,11.86,0,0,1,5.28,1.59c4.94,2.57,9.78,7.36,8.05,10.69-1,1.94-3.28,3-6,3a13.48,13.48,0,0,1-6.12-1.59c-4.94-2.58-7.54-7.36-5.8-10.69a4.9,4.9,0,0,1,4.56-3m0-2a6.89,6.89,0,0,0-6.34,4c-2.28,4.37.65,10.25,6.66,13.38a15.37,15.37,0,0,0,7,1.82c3.58,0,6.4-1.47,7.74-4,2.35-4.52-2.7-10.15-8.9-13.38a13.66,13.66,0,0,0-6.2-1.82Z"/><path class="cls-15" d="M181.78,170.8a8.38,8.38,0,0,1-2-.25c-3.45-.85-5.75-3.63-5.12-6.2a4.7,4.7,0,0,1,.22-.63.85.85,0,0,1,0-.23V127.63a.75.75,0,0,1,.75-.75h7.85a.71.71,0,0,1,.54.24.73.73,0,0,1,.21.56l-2.21,34.38c2.8,1.4,5.73,3.23,5.21,5.36S184.49,170.8,181.78,170.8Z"/><path class="cls-3" d="M183.4,127.63l-2.24,34.89c2.15,1,5.7,2.94,5.26,4.72s-2.34,2.81-4.64,2.81a7.57,7.57,0,0,1-1.86-.23c-3.06-.75-5.1-3.12-4.57-5.3a3,3,0,0,1,.34-.8,2.1,2.1,0,0,1-.14-.23V127.63h7.85m0-1.5h-7.85a1.5,1.5,0,0,0-1.5,1.5v35.86s0,.1,0,.15a3.56,3.56,0,0,0-.16.53c-.75,3,1.74,6.15,5.66,7.11a9.36,9.36,0,0,0,2.22.27c3.06,0,5.52-1.59,6.1-4,.66-2.72-2.89-4.83-5.16-6l2.18-33.89a1.51,1.51,0,0,0-1.5-1.59Z"/><path class="cls-16" d="M132.36,133.27a2.81,2.81,0,0,1-1-.19,3.61,3.61,0,0,1-1.7-4.78,3.82,3.82,0,0,1,3.43-2.62,2.81,2.81,0,0,1,1,.19,3,3,0,0,1,1.79,1.93,4.12,4.12,0,0,1-.09,2.85A3.82,3.82,0,0,1,132.36,133.27Z"/><path class="cls-3" d="M133.06,126.18a2.5,2.5,0,0,1,.85.15,3.13,3.13,0,0,1,1.42,4.14,3.37,3.37,0,0,1-3,2.3,2.29,2.29,0,0,1-.85-.16,3.12,3.12,0,0,1-1.42-4.13,3.36,3.36,0,0,1,3-2.3m0-1h0a4.34,4.34,0,0,0-3.9,2.94,4.62,4.62,0,0,0-.09,3.19,3.53,3.53,0,0,0,2.09,2.24,3.27,3.27,0,0,0,1.2.22,4.34,4.34,0,0,0,3.9-2.94,4.11,4.11,0,0,0-2-5.43,3.27,3.27,0,0,0-1.2-.22Z"/><path class="cls-15" d="M139.48,130.62a.73.73,0,0,1-.38-.11l-8.24-4.9a.77.77,0,0,1-.35-.48.79.79,0,0,1,.11-.58l27.28-41a.75.75,0,0,1,.56-.33h.07a.72.72,0,0,1,.53.23l2.63,2.67a.73.73,0,0,1,.14.86l-21.68,43.28a.75.75,0,0,1-.67.41Z"/><path class="cls-3" d="M158.53,83.92l2.63,2.67-21.68,43.28L131.24,125l27.29-41m0-1.5h-.14a1.51,1.51,0,0,0-1.11.66l-27.28,41a1.49,1.49,0,0,0,.48,2.12l8.23,4.91a1.51,1.51,0,0,0,1.19.15,1.53,1.53,0,0,0,.92-.77L162.5,87.26a1.49,1.49,0,0,0-.27-1.72l-2.63-2.67a1.51,1.51,0,0,0-1.07-.45Z"/><path class="cls-16" d="M209.74,133.27a3.84,3.84,0,0,1-3.43-2.62,3.61,3.61,0,0,1,1.71-4.78,2.77,2.77,0,0,1,1-.19,3.84,3.84,0,0,1,3.43,2.62,3.61,3.61,0,0,1-1.71,4.78,2.77,2.77,0,0,1-1,.19Z"/><path class="cls-3" d="M209.05,126.18a3.34,3.34,0,0,1,3,2.3,3.11,3.11,0,0,1-1.42,4.13,2.29,2.29,0,0,1-.85.16,3.35,3.35,0,0,1-3-2.3,3.11,3.11,0,0,1,1.42-4.14,2.45,2.45,0,0,1,.85-.15m0-1a3.29,3.29,0,0,0-1.21.22,4.11,4.11,0,0,0-2,5.43,4.34,4.34,0,0,0,3.9,2.94,3.33,3.33,0,0,0,1.21-.22,3.58,3.58,0,0,0,2.09-2.24,4.74,4.74,0,0,0-.09-3.19,4.35,4.35,0,0,0-3.9-2.94Z"/><path class="cls-15" d="M202.72,130.62a.66.66,0,0,1-.21,0,.81.81,0,0,1-.47-.38L180.36,86.93a.77.77,0,0,1,0-.71l1.51-2.66a.74.74,0,0,1,.62-.38h0a.74.74,0,0,1,.62.33l28.41,41a.77.77,0,0,1,.11.59.76.76,0,0,1-.35.49l-8.23,4.9A.76.76,0,0,1,202.72,130.62Z"/><path class="cls-3" d="M182.54,83.92,211,125l-8.23,4.91L181,86.59l1.51-2.67m0-1.5h-.06a1.48,1.48,0,0,0-1.24.76l-1.51,2.66a1.5,1.5,0,0,0,0,1.41l21.68,43.28a1.5,1.5,0,0,0,1.34.83,1.49,1.49,0,0,0,.77-.21l8.24-4.91a1.54,1.54,0,0,0,.7-1,1.51,1.51,0,0,0-.24-1.17l-28.4-41a1.52,1.52,0,0,0-1.24-.65Z"/><path class="cls-14" d="M171.06,152.16a51.73,51.73,0,0,1-19.61-4.63c-.08,0-7.79-3.67-7.77-5.23l0-1h0c.32-5.94,3.35-15,6-23,2.13-6.37,4.15-12.37,4.15-15a33.09,33.09,0,0,1,5.15-17.65c-1.1-.58-2-1.37-1.78-2.47.27-1.35,2.78-3,13.25-3s13,1.6,13.25,3c.22,1.1-.68,1.89-1.78,2.47a33.17,33.17,0,0,1,5.14,17.65c0,2.64,2,8.64,4.16,15,2.68,8,5.71,17,6,23h0l0,1c0,1.48-10.78,9.31-26.26,9.86h-.07Z"/><path class="cls-3" d="M170.54,81.28c8.19,0,16.38,1.34,10,4a32,32,0,0,1,5.62,18.06c0,6.35,10.22,28.74,10.22,39h0c.36,0-9,8.27-25.28,8.85-16.32-.58-26.76-8.85-26.41-8.85h0c0-10.22,10.22-32.61,10.22-39a32.06,32.06,0,0,1,5.62-18.06c-6.39-2.67,1.8-4,10-4m0-2c-13.48,0-14,2.72-14.24,3.75a3,3,0,0,0,1.39,3,34.11,34.11,0,0,0-4.77,17.32c0,2.47-2.08,8.68-4.1,14.69-2.57,7.65-5.44,16.21-6,22.26h-.07l0,2c0,1.12.64,1.73,2.78,3.12a43.08,43.08,0,0,0,5.57,3,53,53,0,0,0,20,4.72h.14a48.7,48.7,0,0,0,19.46-4.72,36.1,36.1,0,0,0,5.22-3.07c2.18-1.55,2.56-2.15,2.54-3.09l0-2h-.09c-.57-6-3.44-14.62-6-22.28-2-6-4.1-12.22-4.1-14.69A34.11,34.11,0,0,0,183.38,86a3,3,0,0,0,1.39-3c-.21-1-.75-3.75-14.23-3.75Z"/><path class="cls-17" d="M170,97.87c-7,0-9.47-4.31-9.47-8.34,0-4.6,4.25-8.35,9.47-8.35s9.46,3.75,9.46,8.35C179.44,93.56,177,97.87,170,97.87Z"/><path class="cls-3" d="M170,81.68c5,0,9,3.52,9,7.85s-2.83,7.84-9,7.84-9-3.51-9-7.84,4-7.85,9-7.85m0-1c-5.5,0-10,4-10,8.85,0,4.27,2.62,8.84,10,8.84s10-4.57,10-8.84c0-4.88-4.47-8.85-10-8.85Z"/><path class="cls-18" d="M202.54,45.82H157.65l-6.72-13.44-6,13.44h-8.66c0,.1,0,.19,0,.28-.23,4.09-5.69,8.87-5.54,17.84C131,79.28,147.64,88.82,169.12,89h.59c21.48-.21,38.11-9.75,38.36-25.09.15-9-5.31-13.75-5.53-17.84A2.61,2.61,0,0,1,202.54,45.82Z"/><ellipse class="cls-6" cx="150.79" cy="63.45" rx="4.59" ry="8.47"/><ellipse class="cls-6" cx="189.16" cy="63.45" rx="4.59" ry="8.47"/><path class="cls-19" d="M169,71.37c-2.17,0-3.92-1.16-3.92-2.59s1.75-2.58,3.92-2.58"/></svg>