<?xml version="1.0" encoding="UTF-8"?>
<svg id="_レイヤー_1" data-name="レイヤー_1" xmlns="http://www.w3.org/2000/svg" viewBox="0 0 660 660">
  <defs>
    <style>
      .cls-1 {
        fill: none;
      }

      .cls-2 {
        fill: #4742c2;
      }

      .cls-3 {
        fill: #fff;
      }

      .cls-4 {
        fill: #ebebf7;
      }
    </style>
  </defs>
  <g>
    <g>
      <path class="cls-4" d="M299.22,119.88l.15.11c-.16-.03,12.06,8.03,11.39,7.67l5.26,4.37,4.53,5.14.12.12,5.09,4.78c2.1,2.5,6.42,7.8,8.51,10.53,1.92,2.8,5.54,8.66,7.28,11.66l3.04,6.27c2.93,5.44,7.11,12.8,9.63,18.44,1.51,3.8,3.06,8.4,4.59,13.12-1.77.48-3.52.99-5.27,1.49l.37-.11c-2.47.44-4.98.77-7.4,1.41l-6.62,2.38c-3.64.55-14.15,2.95-20,4.7-13.41,2.91-33.73,4.45-47.65,6.87-3.29.39-7.87.69-11.59.84-.02-2.43-.07-4.76-.16-6.6l-.03-.39c.01.3-.67-5.63-.83-6.65l.15-6.68v-.26s-.34-6.64-.34-6.64l.66-6.72v-.6s-1.01-13.61-1.01-13.61l.48-6.63v-.75c-.54-3.36-1.18-9.99-1.31-13.47l.08-6.8v-.37s-.68-6.82-.68-6.82l-.17-6.7c.29-4.65.02-16.01-.1-20.9l-.04-.5-1.27-6.18c12.99,2.73,25.85,7.33,37.92,13.12l5.23,4.37Z"/>
      <path class="cls-4" d="M121.8,175.45v-.03s.08-.14.08-.14l2.68-6.36c2.97-5.86,7.7-11.96,11.06-17.23,2.19-2.68,6.18-8.16,8.2-11.14l5.14-4.39.12-.11,7.34-7.37c4.01-4.07,8.44-7.9,13.03-11.2,2.3-1.06,15.05-7.85,18.35-9.26l6.2-2.77,12.99-2.97-.02,5.73-.89,6.87c-.31,7.1.08,14.45-.44,21.52.39,7.26.76,13.89-.04,20.69v.57s.66,7.02.66,7.02c-.2,2.36-.35,9.57-.45,13.69.06,3.46-.07,10.49-.26,13.94.2,4.23.47,8.47.78,12.59.23,4.55.18,9.3.06,14.1-1.52-.05-3.05-.01-4.11-.28l.25.02-6.9-1.16-.32-.02c-7.03-.52-13.68-.38-20.34-1.22-.62-.17-6.91-1.45-6.61-1.41-3.52-.45-7.08-.7-10.57-1.36l-10.22-1.65c-3.43-1-16.48-4.36-19.5-4.51l-6.59-2.42c-3.81-.81-7.7-1.27-11.57-1.78l.76-2.81,2.73-6.27.08-.22,1.96-6.52,6.36-12.15Z"/>
      <path class="cls-4" d="M242.86,100.31c-.77,1.4-1.41,2.85-1.96,4.31-1.29,1.13-2.51,2.33-3.71,3.55-1.63.32-3.27.64-4.9.99-1.68-.31-3.37-.6-5.06-.88-1.28-1.08-2.58-2.15-3.88-3.21-.4-1.51-.8-3.01-1.23-4.51l5.94-.85c4.89-.14,9.84.08,14.8.6Z"/>
      <path class="cls-4" d="M227.35,138.84l5.29-1.67,5.1,1.37c1.15,1.38,2.3,2.75,3.42,4.16.61,1.72,1.28,3.36,1.94,4.97-.79,1.59-1.38,3.14-1.89,4.73l-3.2,4.12-4.95,1.51-5.15-.83-3.58-4.15c-.81-1.69-1.58-3.39-2.34-5.09l1.3-5.25,4.06-3.88Z"/>
      <path class="cls-4" d="M226.62,189.19c1.73-.54,3.48-1.04,5.22-1.54,1.71.66,3.4,1.35,5.1,2.04,1.32,1.11,2.63,2.23,3.93,3.37l.84,5.07c-.6,1.51-1.09,2.98-1.49,4.48-1.16,1.1-2.29,2.23-3.42,3.37l-4.67,1.82-5.03-.44-3.84-3.25c-.37-1.8-.74-3.6-1.05-5.41.16-1.87.35-3.74.56-5.61,1.27-1.31,2.56-2.6,3.85-3.89Z"/>
      <path class="cls-4" d="M242.36,259.56c-1.26,1.07-2.52,2.14-3.75,3.25l-4.74,1.69-4.79-.82-3.71-3.39-1.7-5c.25-1.78.54-3.56.81-5.33,1.23-1.34,2.45-2.69,3.71-4l5.26-1.55c1.73.56,3.45,1.13,5.17,1.73l3.9,3.62,1.13,5.22c-.52,1.55-.93,3.06-1.3,4.58Z"/>
      <path class="cls-4" d="M243.99,315.62c-1.14,1.14-2.27,2.29-3.38,3.46l-4.75,1.36-4.98-.63-3.8-3.25-1.59-5.16.59-5.39,4.28-3.61c1.72-.72,3.44-1.44,5.17-2.14,1.69.59,3.37,1.19,5.04,1.81,1.24,1.27,2.46,2.57,3.66,3.88l1.26,5.15c-.61,1.52-1.08,3.01-1.5,4.51Z"/>
      <path class="cls-4" d="M132.73,238.19c-1.02,1.18-2.02,2.37-3.03,3.56l-4.77,1.13-5.16-1-4.14-3.34c-.55-1.73-1.07-3.46-1.57-5.2.45-1.77.93-3.53,1.41-5.3l4.31-3.49,5.27-1.51,5.02,1.31c1.06,1.28,2.12,2.55,3.15,3.85l.83,5.26c-.58,1.59-.99,3.15-1.33,4.72Z"/>
      <path class="cls-4" d="M176.13,253.82l-4.79-.89c-1.27-1.1-2.52-2.21-3.77-3.34-.42-1.69-.81-3.38-1.2-5.08l1.3-5.3,3.51-4.16c1.72-.45,3.46-.86,5.19-1.27,1.67.56,3.33,1.16,5,1.75,1.04,1.24,2.07,2.47,3.1,3.73.18,1.81.31,3.59.4,5.29-.6,1.49-.97,2.94-1.25,4.43l-3.04,3.16-4.45,1.69Z"/>
      <path class="cls-4" d="M300.15,241.15c-.58,1.57-1.04,3.11-1.44,4.67-1.15,1.21-2.28,2.45-3.41,3.69l-4.67,1.71-4.87-1.31-3.78-3.8c-.61-1.66-1.23-3.31-1.81-4.98l1.63-5.08,3.85-3.94c1.68-.55,3.36-1.07,5.04-1.59l4.99,1.91"/>
      <path class="cls-4" d="M347.25,222.3c1.22,1.2,2.44,2.4,3.64,3.62l.82,5.11c-.58,1.57-1.04,3.11-1.44,4.67-1.15,1.21-2.28,2.45-3.41,3.69l-4.67,1.71-4.87-1.31-3.78-3.8c-.61-1.66-1.23-3.31-1.81-4.98l1.64-5.09,3.84-3.94c1.68-.55,3.36-1.07,5.04-1.59l4.99,1.91Z"/>
      <path class="cls-4" d="M260.71,366.03l5.74,1.84c.18.13,5.51,1.04,7.22,1.31,3.81,1.59,8.84,3.43,12.73,4.52l5.87,2.38,5.35,3.3.43.27.07.04,6.36,2.86c1.33,1.02,4.91,3.17,8.67,5.41h-4.07s.37,0,.37,0c-2.32-.26-4.64-.46-6.96-.65h-.31s-6.47.18-6.47.18c-.71-.13-7.04-.74-6.64-.73h-.7s-6.36.4-6.36.4c-3.79-.46-10.53-.98-14.21-.92l-6.66.56-6.45.14c-3.52-.31-10.3-.59-13.71-.58h-.46s-6.83.59-6.83.59c-4.81.19-13.98-.46-20.17-.23l-.41.02-6.39.73-6.27-.74c-.4-.1-7.22.16-7.72.17-9.12,1.06-18.04,1.45-26.64.62h-.71s-6.8,1-6.8,1c-.57-.05-1.69-.07-3.09-.07l3.25-1.98c2.04-.78,9.75-4.94,11.78-6.08l5.74-2.69c3.26-1.01,6.5-2,9.8-3.09,7.27-2.65,16.41-5.29,22.29-7.18,5.97-1.5,13.4-2.74,19.52-3.32l6.11-.41c1.47.2,6.83.73,6.64.73-.27-.03,5.63.2,6.82.21l6.46.98.11.02.47.05,6.25.34Z"/>
      <path class="cls-4" d="M305.91,403c-3.75,2.41-7.4,4.95-11.04,7.52-5.03,2.58-15.02,8.39-17.57,9.68l-6.16,2.49c-2.21.66-4.41,1.33-6.6,2.04.25-.07-5.23,1.9-6.35,2.34l-5.92,1.41-6.48.3-.45.04-6.77.89c-3.33.16-9.21.22-12.55.17-8.51-1.61-16.73-3.8-25.25-5.41-3.91-1.65-7.84-3.23-11.83-4.68-3.43-1.84-9.41-5.1-11.06-5.75-7.44-4.75-15.81-10.16-21.64-14.74-2.02-1.84-3.69-3.55-5.53-5.17l8.07.58h.28s.2-.02.2-.02l6.39-.52,6.56.87c8.41.8,21.61-.37,27.08-.16.83.07,7.09,1.28,7.83,1.1l6.57-.55h4.87c7.22.35,15.12.81,22.43,0l6.48.2,6.71.55h.35s.06.01.06.01l6.84-.05.36-.02,6.63-.64c3.46.03,9.83.32,13.08.6.25.13,5.88-.57,7.3-.69l6.44.29h.29s.3,0,.3,0l6.78-.71c2.28,0,4.57.02,6.85-.03l6.25-.75c-3.39,2.99-6.96,6.16-9.82,8.77Z"/>
    </g>
    <path class="cls-2" d="M243.47,255.52c-.02.06-.04.11-.05.15.02-.05.03-.1.05-.15Z"/>
    <path class="cls-2" d="M243.63,255.06s0,0,0,0c0,0,0,0,0,0Z"/>
    <path class="cls-2" d="M243.42,255.67s-.03.09-.04.12c.01-.03.02-.07.04-.12Z"/>
    <path class="cls-2" d="M243.59,255.18c-.02.06-.04.13-.07.2.02-.06.04-.13.07-.2Z"/>
    <path class="cls-2" d="M243.52,255.38s-.01.03-.02.04c0-.01.01-.03.02-.04Z"/>
    <path class="cls-2" d="M243.51,255.42s-.02.06-.03.1c0-.03.02-.06.03-.1Z"/>
    <path class="cls-2" d="M243.63,255.06s-.03.08-.04.12c.01-.04.03-.08.04-.12Z"/>
    <path class="cls-2" d="M243.38,255.79s-.01.03-.02.05c0-.01,0-.03.02-.05Z"/>
    <path class="cls-2" d="M248.34,246.93c-.16-1.17-5.56-4.69-6.35-5.49-2.32-1.29-5.21-1.47-7.72-2.39-.49-.15-1.02-.16-1.55,0l-6.7,2.1c-2.36,1.35-3.95,3.94-6.01,5.74-.36.37-.61.85-.7,1.39-.3,2.68-1.46,5.38-1.23,8.06.33.85,1.51,7.18,2.27,7.68,1.13,1.03,5.02,6.06,6.2,6.06l.27.07,6.61,1.69c.6.16,1.28.11,1.89-.1,1.01-.4,7.1-1.74,7.77-2.59,1.83-1.41,3.59-2.92,5.37-4.39,2.36-2.55,1.87-6.87,2.58-10.09l-2.61-7.46-.1-.29ZM242.36,259.56c-1.26,1.07-2.52,2.14-3.75,3.25l-4.74,1.69-4.79-.82-3.71-3.39-1.7-5c.25-1.78.54-3.56.81-5.33,1.23-1.34,2.45-2.69,3.71-4l5.26-1.55c1.73.56,3.45,1.13,5.17,1.73l3.9,3.62,1.13,5.22c-.52,1.55-.93,3.06-1.3,4.58Z"/>
    <path class="cls-2" d="M243.37,255.83s-.02.05,0,0h0Z"/>
    <path class="cls-2" d="M243.65,254.98s-.02.05-.03.08c.02-.05.03-.08.03-.08Z"/>
    <path class="cls-2" d="M184.87,244.55s-.04.09-.08.2c.03-.07.05-.13.08-.2Z"/>
    <path class="cls-2" d="M185.73,230.25c-2.35-1.7-5.89-1.47-8.64-2.4-2.79-.03-5.46,1.66-8.19,2.25-.49.14-.93.43-1.28.86-.41.65-4.84,5.68-4.84,6.39-.11.66-2.16,6.92-1.89,7.46.66,2.51.24,6.66,1.76,8.56,2.09,1.96,3.43,5.24,6.1,6.36l6.63,2.52c.69.31,1.57.16,2.3,0,1.06-.34,7.59-1.16,8.32-2.02l6.1-4.88c2.49-2.47,2.51-7.58,3.03-10.91-.19-.5-2.97-8.36-3.08-8.63-1.56-2.26-4.35-3.61-6.33-5.54ZM176.13,253.82l-4.79-.89c-1.27-1.1-2.52-2.21-3.77-3.34-.42-1.69-.81-3.38-1.2-5.08l1.3-5.3,3.51-4.16c1.72-.45,3.46-.86,5.19-1.27,1.67.56,3.33,1.16,5,1.75,1.04,1.24,2.07,2.47,3.1,3.73.18,1.81.31,3.59.4,5.29-.6,1.49-.97,2.94-1.25,4.43l-3.04,3.16-4.45,1.69Z"/>
    <path class="cls-2" d="M184.79,244.75c-.13.31-.2.49-.23.58.05-.13.16-.4.23-.58Z"/>
    <path class="cls-2" d="M184.53,245.38s-.01.03,0,0h0Z"/>
    <path class="cls-2" d="M184.55,245.34s-.01.03-.02.05c0-.01.01-.03.02-.05Z"/>
    <path class="cls-2" d="M351.56,231.47c-.02.05-.04.1-.05.14.02-.05.03-.1.05-.14Z"/>
    <path class="cls-2" d="M351.72,231.03s-.01.04-.04.1c.01-.03.02-.06.04-.1Z"/>
    <path class="cls-2" d="M351.5,231.62c-.04.11-.07.2-.09.24.01-.03.04-.11.09-.24Z"/>
    <path class="cls-2" d="M351.68,231.12c-.03.09-.07.18-.09.26.04-.1.07-.19.09-.26Z"/>
    <path class="cls-2" d="M351.59,231.38s-.02.06-.04.1c.01-.03.02-.06.04-.1Z"/>
    <path class="cls-2" d="M351.42,231.85s0,.03,0,0h0Z"/>
    <path class="cls-2" d="M300.15,241.15s-.01.03-.03.08c.01-.03.02-.05.03-.08Z"/>
    <path class="cls-2" d="M304.6,232.01c-2.18-1.53-4.03-3.58-6.34-4.89l-6.58-2.07c-.56-.2-1.16-.23-1.75-.01-2.47,1.08-5.35,1.45-7.6,2.93-.47.61-5.26,5.08-5.31,5.81l-2.32,6.52c-.19.53-.21,1.15-.01,1.72.97,2.51,1.11,5.43,2.54,7.72.74.69,4.54,5.94,5.56,6.08l.27.1,6.62,2.48c.6.22,1.27.27,1.93.08,1.29-.53,7.51-1.76,8.44-2.83,2-2.27,4.98-3.92,6.15-6.79.67-2.53,1.21-5.12,1.61-7.66l-2.21-7.49c-.16-.65-.43-1.27-1.01-1.7ZM300.15,241.15c-.58,1.57-1.04,3.11-1.44,4.67-1.15,1.21-2.28,2.45-3.41,3.69l-4.67,1.71-4.87-1.31-3.78-3.8c-.61-1.66-1.23-3.31-1.81-4.98l1.63-5.08,3.85-3.94c1.68-.55,3.36-1.07,5.04-1.59l4.99,1.91"/>
    <path class="cls-2" d="M299.93,241.74s-.04.1-.05.14c.01-.04.03-.08.05-.14Z"/>
    <path class="cls-2" d="M299.88,241.87c-.07.19-.05.14,0,0h0Z"/>
    <path class="cls-2" d="M300.11,241.23c-.08.22-.14.39-.19.51.06-.17.14-.39.19-.51Z"/>
    <path class="cls-2" d="M133.78,234.25s-.02.05-.02.06c0-.01.01-.03.02-.06Z"/>
    <path class="cls-2" d="M133.76,234.31s0,.02,0,0h0Z"/>
    <path class="cls-2" d="M139.18,224.28c-1.84-1.61-3.58-3.32-5.37-4.99-.61-.94-7.19-1.55-8.39-1.9-.82-.34-6.79,2.06-7.67,2.25-.59,0-5.67,4.5-6.23,4.9-.4.33-.7.78-.86,1.31-.55,2.74-2.16,5.44-2.05,8.23.95,2.62.69,6.35,2.43,8.46.68.52,5.23,5.57,6.07,5.61,1.16.25,7.05,2.58,8.2,2.35l.4-.05,7.02-.96c3.02-.9,4.93-4.31,7.31-6.3,1.93-2.74,1.87-6.67,2.48-9.87l-2.49-7.48c-.17-.56-.36-1.16-.85-1.55ZM132.73,238.19c-1.02,1.18-2.02,2.37-3.03,3.56l-4.77,1.13-5.16-1-4.14-3.34c-.55-1.73-1.07-3.46-1.57-5.2.45-1.77.93-3.53,1.41-5.3l4.31-3.49,5.27-1.51,5.02,1.31c1.06,1.28,2.12,2.55,3.15,3.85l.83,5.26c-.58,1.59-.99,3.15-1.33,4.72Z"/>
    <path class="cls-2" d="M133.97,233.73s0,.02-.01.03c0-.01,0-.02.01-.03Z"/>
    <path class="cls-2" d="M134.06,233.47s-.02.06-.04.1l.04-.1Z"/>
    <path class="cls-2" d="M133.96,233.76c-.06.18-.14.38-.18.49.03-.08.09-.23.18-.49Z"/>
    <path class="cls-2" d="M134.03,233.57s-.04.1-.06.16c.02-.05.04-.11.06-.16Z"/>
    <path class="cls-2" d="M245.4,311.34s-.02.04-.02.06c0-.02.02-.04.02-.06Z"/>
    <path class="cls-2" d="M245.47,311.16s-.04.1-.07.18c.02-.06.05-.11.07-.18Z"/>
    <path class="cls-2" d="M245.37,311.4c-.04.09-.08.2-.11.29.03-.08.07-.17.11-.29Z"/>
    <path class="cls-2" d="M245.26,311.69c-.04.09-.06.15-.08.2.02-.05.05-.12.08-.2Z"/>
    <path class="cls-2" d="M245.49,311.11s-.01.03-.02.05c.01-.03.02-.05.02-.05Z"/>
    <path class="cls-2" d="M245.18,311.89c-.04.09-.04.11,0,0h0Z"/>
    <path class="cls-2" d="M241.45,198.8c-.03.08-.05.13-.06.16.01-.03.03-.09.06-.16Z"/>
    <path class="cls-2" d="M223.35,213.21c.46.51,1.16.8,1.87.9,2.18.3,7.5,1.98,8.73,1.27,1.18-.48,7.23-1.74,8.01-2.79,2.14-2.16,5.35-3.61,6.46-6.57.71-2.62,1.24-5.31,1.61-7.94l-2.59-7.69-.17-.5c-1.46-2.45-4.77-3.39-6.92-5.23-2.35-1.2-5.09-1.59-7.56-2.56-.51-.17-1.08-.18-1.64,0-2.54,1.09-5.48,1.42-7.8,2.9-1.76,2.25-4.7,3.83-5.71,6.51-.25,2.53-.81,5.03-.99,7.56.31,2.37.51,4.75.76,7.13.05.67.43,1.31.93,1.79l4.99,5.22ZM226.62,189.19c1.73-.54,3.48-1.04,5.22-1.54,1.71.66,3.4,1.35,5.1,2.04,1.32,1.11,2.63,2.23,3.93,3.37l.84,5.07c-.6,1.51-1.09,2.98-1.49,4.48-1.16,1.1-2.29,2.23-3.42,3.37l-4.67,1.82-5.03-.44-3.84-3.25c-.37-1.8-.74-3.6-1.05-5.41.16-1.87.35-3.74.56-5.61,1.27-1.31,2.56-2.6,3.85-3.89Z"/>
    <path class="cls-2" d="M241.71,198.13s-.16.42-.26.67c.05-.13.13-.34.26-.67Z"/>
    <path class="cls-2" d="M241.39,198.95s-.01.03,0,0h0Z"/>
    <path class="cls-2" d="M242.73,148.42c-.04.07-.03.06,0,0h0Z"/>
    <path class="cls-2" d="M242.9,148.08c-.08.17-.14.28-.17.33.04-.07.1-.2.17-.33Z"/>
    <path class="cls-2" d="M242.73,148.42s0,0,0,0c0,0,0,0,0,0Z"/>
    <path class="cls-2" d="M243.06,147.76c-.04.08-.1.2-.16.32.04-.09.1-.19.16-.32Z"/>
    <path class="cls-2" d="M219.57,156.24l.13.17,4.21,5.6c.41.56,1.07.95,1.79,1.09l6.93,1.71c.48.13,1.04.09,1.54-.05,1.42-.5,7.9-1.31,8.64-2.62l.15-.18,4.65-5.3c1.61-2.79,2.16-6.3,2.96-9.35-1.22-2.7-2.42-5.35-3.72-7.92-1.66-1.97-3.63-3.72-5.37-5.64-.65-1.03-7.18-1.74-8.28-2.12-.98-.52-6.95,2.13-8.12,2.39-.7.05-5.34,4.97-5.94,5.45-.89.57-2.2,7.09-2.6,8.07-.15.54-.13,1.14.11,1.69,1.04,2.3,1.84,4.72,2.92,7ZM227.35,138.84l5.29-1.67,5.1,1.37c1.15,1.38,2.3,2.75,3.42,4.16.61,1.72,1.28,3.36,1.94,4.97-.79,1.59-1.38,3.14-1.89,4.73l-3.2,4.12-4.95,1.51-5.15-.83-3.58-4.15c-.81-1.69-1.58-3.39-2.34-5.09l1.3-5.25,4.06-3.88Z"/>
    <path class="cls-2" d="M243.07,147.73s-.01.02-.02.04c0-.01.01-.03.02-.04Z"/>
    <path class="cls-2" d="M243.1,147.67s-.01.02-.03.06c.01-.02.02-.03.03-.06Z"/>
    <path class="cls-2" d="M143.83,330.26l2.89,5.65.3.46,4.03,4.96.75.63,5.58,3.12.76.28,6.22,1.24c.39.08.8.06,1.18-.04l6.06-1.63.5-.19,5.62-2.86.78-.61,4.19-4.79.37-.56,2.81-5.69.17-.45,1.7-6.1.06-.29,1.01-6.31.02-.71-.73-6.36-.05-.28-1.41-6.28c-.08-.35-.22-.67-.44-.96l-3.79-5.19-.14-.18-4.11-4.7-.46-.42-5.15-3.62c-.34-.24-.75-.4-1.15-.45l-6.22-.83h-.6s-6.3.62-6.3.62c-.38.04-.75.16-1.07.35l-5.52,3.29-.8.74-3.66,5.22-.11.17-3.21,5.43-.29.72-1.46,6.14-.02.11-1.22,6.27v.91s1,6.3,1,6.3l.05.25,1.63,6.12.2.51Z"/>
    <path class="cls-2" d="M326.77,309.5l-1.88-6.13-.26-.59-3.31-5.44-.11-.16-3.74-5.21c-.22-.31-.52-.57-.85-.76l-5.64-3.13-.88-.3-6.29-.93-.9.02-6.15,1.25-.73.27-5.56,3.04-.7.55-4.25,4.77-.38.56-2.88,5.7-.16.39-1.92,6.09-.1.48-.73,6.38v.56s.65,6.39.65,6.39l.07.37,1.58,6.25.32.74,3.41,5.45.31.4,4.33,4.62.35.31,5.15,3.82c.34.25.75.42,1.17.48l6.37.93c.36.05.73.03,1.08-.07l6.06-1.7.46-.18,5.66-2.81.71-.52,4.47-4.62.54-.83,2.41-5.94.08-.22,1.85-6.05.11-.58.45-6.32v-.2s-.03-6.4-.03-6.4l-.11-.75Z"/>
    <path class="cls-2" d="M83.17,164.58s0,0,0,0c0,0,.01,0,0,0Z"/>
    <path class="cls-2" d="M427.79,158.97l-.26-5.3v-.13c-1.96-7.25-3.79-14.66-6.27-21.83-3.96-8.61-10.55-16.1-15.75-23.85-4.86-5.48-10.38-10.54-15.89-15.35-7.27-5.31-15.64-10.5-23.16-15.39-2.29-1.6-5.25,1.49-3.57,3.72,2.14,2.92,5.84,8.83,6.94,10.61,2.61,6.11,5.39,12.27,8.51,18.14l1.51,6.36.07.22,1.91,5.93.44,6.16-.02,6.35c-.59,4.2-1.05,8.42-1.54,12.64-1.48,3.93-2.86,7.89-4.25,11.85-2.61,4.21-3.93,6.08-7.2,10.08-2.85,2.85-9.24,9.44-13.46,13.5-2.46-4.71-5.49-9.85-7.73-13.97l-3.09-6.18v-.03s-.08-.12-.08-.12c-1.79-3.02-5.54-8.92-7.57-11.8-2.97-3.76-6.03-7.45-9.19-11.06l-5.07-4.69-4.56-5.16-.19-.18-5.37-4.45-.13-.1-11.48-7.71-5.33-4.44-.41-.25c-14.8-6.99-30.31-12.37-46.54-14.81-8.9-1.31-20.07-1.96-28.17-.26l-7,.14c-6.91,1.54-13.81,3.19-20.74,4.71-3.39,1.31-9.8,4.35-13.06,5.92l-12.48,6.27-.26.17c-7.29,4.84-14.57,12.57-20.87,18.62l-5.36,4.48-.33.37c-1.97,2.9-6.19,8.5-8.41,11.2-2.61,3.92-5.35,7.75-8.09,11.58l-3.48,6.05-.09.19-2.75,6.34-6.56,12.23-.16.39-.99,3.18c-3.01-1.89-6.09-3.66-9.22-5.33-2.7-3.03-8.03-7.9-9.81-9.19l-4.44-4.58c-.64-1.08-3.5-5.4-3.6-5.6-.16-.18-3.09-4.41-3.86-5.4-1.42-3.16-3.78-8.8-4.95-11.9-.32-1.38-1.37-6.03-1.44-6.26l-1.06-6.62c-.37-6.64-.04-13.4.56-20.03,1.04-3.42,3.25-15.25,4.47-19.44l4.97-12.79,3.28-5.89c1.23-2.06-1.1-4.67-3.3-3.67l-6.38,2.69c-7.06,4.28-16.43,11.72-22.97,16.94l-.35.34-4.66,5.18-.14.18-.07.1c-3.78,5-8.56,12.78-11.84,18.16-2.85,6.48-5.22,13.82-7.09,20.6-1.09,7.08-2.27,14.31-2.84,21.48.37,4.97.61,9.98,1.38,14.9l1.64,6.16.82,6.65c.11,1.3,2.57,5.47,3.58,7.37l2.11,6.27.32.73c.2.34,3.59,6.63,3.75,6.76l.11.14,4.04,5.38,3.78,5.57.63.76c7.88,8.36,16.59,17.62,26.72,23.24,5.33,2.59,10.27,4.19,15.41,5.77l-7.01,4.59-.41.34c-3.33,3.57-6.89,6.92-10.32,10.39l-4.21,5.71-.14.22-.08.14-3.35,6.02-3.92,5.92-.25.49c-1.41,3.46-3.84,10.28-4.9,13.88-1.41,4.84-2.97,9.63-4.05,14.5-.49,3.46-1.11,10.3-1.27,14.04l-1.18,6.92c.24,5.6.44,11.25.58,16.95l.4,5.38.08.52c1.07,4.56,2.22,9.09,3.44,13.61l1.06,6.82c.06.36.16.75.3,1.11l.12.32,2.53,6.54.19.41.15.29,2.97,5.72c1.63,4.37,4.05,10.01,6.37,14.05l7.82,11.26,3.57,5.87c.2.32.42.63.68.93l4.67,5.47,4.92,5.24.03.03.39.38c2.54,2.29,7.58,6.93,9.9,9.45l.56.51,5.23,4.23,4.9,4.62.1.09c10.24,7.09,21.74,13.37,32.47,19.57l6.23,2.27,5.94,2.93.46.21,6.49,2.63.59.21c5.44,1.82,11.68,3.26,17.26,4.7,5.57,1.67,11.88,2.8,17.66,3.51l6.55,1.51.57.1,7.18.97c6.34.65,14.98.62,21.43.5l6.51.75h.11c1.22.18,7.3-.76,8.63-.94,3.51.13,15.18-.86,21.17-1.89l6.42-1.41c3.91-.49,10.71-1.64,14.4-2.61,3.33-1.03,9.93-3.34,13.18-4.61l.61-.25,5.98-2.92,6.14-2.57.11-.05c6.44-3.51,13.46-6.14,19.84-9.96-.18.09,4.05-3.19,5.05-4.04l5.44-3.04c5.99-4.31,11.35-9.39,17.18-13.8l4.99-4.68.41-.41c4.41-5.33,9.67-10.06,14.09-15.45l4.04-5.33,4.38-4.93.42-.52c5.3-7.13,10.13-16.44,13.8-24.5l3.23-5.86.08-.14c3.61-10.03,6.29-20.75,7.98-31.23.44-3.73,1.47-7.22,1.98-10.87l.05-6.86v-.17s-.04-.58-.04-.58l-1.04-6.5.04-6.46c.02-.41-.03-.81-.15-1.22l-1.86-6.47c-1.05-6.82-3.32-13.61-5.53-20.08-2.92-6.47-6.42-12.67-9.48-18.98l-.34-.52-4.21-5.28-3.44-5.7-3.98-5.72c-3.78-4.16-7.95-8.46-12.25-12.22l8.95-3.98.26-.14.21-.14,5.64-3.72.09-.07.17-.14,5.16-4.23,5.33-4.02.43-.39c2.24-2.59,6.77-7.6,9.18-10.03l.32-.4,4.01-5.5c2.35-4.41,4.58-8.92,6.57-13.51l1.95-6.52.08-.32c.78-3.35,2.06-10.14,2.6-13.54.31-5.39.58-10.96.44-16.42ZM299.22,119.88l.15.11c-.16-.03,12.06,8.03,11.39,7.67l5.26,4.37,4.53,5.14.12.12,5.09,4.78c2.1,2.5,6.42,7.8,8.51,10.53,1.92,2.8,5.54,8.66,7.28,11.66l3.04,6.27c2.93,5.44,7.11,12.8,9.63,18.44,1.51,3.8,3.06,8.4,4.59,13.12-1.77.48-3.52.99-5.27,1.49l.37-.11c-2.47.44-4.98.77-7.4,1.41l-6.62,2.38c-3.64.55-14.15,2.95-20,4.7-13.41,2.91-33.73,4.45-47.65,6.87-3.29.39-7.87.69-11.59.84-.02-2.43-.07-4.76-.16-6.6l-.03-.39c.01.3-.67-5.63-.83-6.65l.15-6.68v-.26s-.34-6.64-.34-6.64l.66-6.72v-.6s-1.01-13.61-1.01-13.61l.48-6.63v-.75c-.54-3.36-1.18-9.99-1.31-13.47l.08-6.8v-.37s-.68-6.82-.68-6.82l-.17-6.7c.29-4.65.02-16.01-.1-20.9l-.04-.5-1.27-6.18c12.99,2.73,25.85,7.33,37.92,13.12l5.23,4.37ZM357.95,243.73c-2.25.69-4.68,1.48-7.14,2.31.38-.18.67-.35.82-.52,2.01-2.26,4.98-3.92,6.15-6.79.67-2.53,1.21-5.12,1.61-7.66l-2.21-7.49c-.16-.65-.43-1.27-1.01-1.7-2.18-1.53-4.03-3.58-6.34-4.89l-6.58-2.07c-.23-.08-.47-.13-.71-.15.13-.04.25-.07.38-.1l6.38-2.96c1.93-.43,7.4-2.4,11.2-4.31,1.62,5.09,3.19,10.01,4.6,13.89.9,5,2.41,12.09,3.65,17.82-3.49,1.29-7.74,3.13-10.8,4.61ZM331.78,252.17c-.63.12-7.08,1.55-6.76,1.48l-6.67,1.83-6.7,1.3-.33.08-6.61,1.84c-1.05.16-5.72.95-6.42,1.09l-6.83.62h-.16s-.17.04-.17.04l-6.85,1.27-6.64.7c-2.42,0-4.84-.04-7.26.06l-6.9,1.2c-.99.04-1.98.08-2.97.13l-.21-2.06c.24-3.38.54-6.72.67-10.19.37-5.68,0-12.28-.71-17.95.18-1.65.3-4.83.34-8.37,1.74.07,3.59-.05,4.81.22h7.11c16.51-1.46,33.24-1.8,49.54-5.2,5.91-1.69,11.86-3.1,17.79-4.73-2.04.68-4.19,1.16-5.95,2.32-.47.62-5.26,5.08-5.31,5.81l-2.32,6.52c-.2.53-.2,1.14-.01,1.72.97,2.51,1.11,5.43,2.54,7.72.74.69,4.54,5.94,5.56,6.08l.27.1,6.62,2.48c.6.22,1.27.27,1.93.07.67-.27,2.69-.74,4.6-1.28-3.3,1.13-6.58,2.27-9.52,3.27l-6.49,1.84ZM260.71,366.03l5.74,1.84c.18.13,5.51,1.04,7.22,1.31,3.81,1.59,8.84,3.43,12.73,4.52l5.87,2.38,5.35,3.3.43.27.07.04,6.36,2.86c1.33,1.02,4.91,3.17,8.67,5.41h-4.07s.37,0,.37,0c-2.32-.26-4.64-.46-6.96-.65h-.31s-6.47.18-6.47.18c-.71-.13-7.04-.74-6.64-.73h-.7s-6.36.4-6.36.4c-3.79-.46-10.53-.98-14.21-.92l-6.66.56-6.45.14c-3.52-.31-10.3-.59-13.71-.58h-.46s-6.83.59-6.83.59c-4.81.19-13.98-.46-20.17-.23l-.41.02-6.39.73-6.27-.74c-.4-.1-7.22.16-7.72.17-9.12,1.06-18.04,1.45-26.64.62h-.71s-6.8,1-6.8,1c-.57-.05-1.69-.07-3.09-.07l3.25-1.98c2.04-.78,9.75-4.94,11.78-6.08l5.74-2.69c3.26-1.01,6.5-2,9.8-3.09,7.27-2.65,16.41-5.29,22.29-7.18,5.97-1.5,13.4-2.74,19.52-3.32l6.11-.41c1.47.2,6.83.73,6.64.73-.27-.03,5.63.2,6.82.21l6.46.98.11.02.47.05,6.25.34ZM305.91,403c-3.75,2.41-7.4,4.95-11.04,7.52-5.03,2.58-15.02,8.39-17.57,9.68l-6.16,2.49c-2.21.66-4.41,1.33-6.6,2.04.25-.07-5.23,1.9-6.35,2.34l-5.92,1.41-6.48.3-.45.04-6.77.89c-3.33.16-9.21.22-12.55.17-8.51-1.61-16.73-3.8-25.25-5.41-3.91-1.65-7.84-3.23-11.83-4.68-3.43-1.84-9.41-5.1-11.06-5.75-7.44-4.75-15.81-10.16-21.64-14.74-2.02-1.84-3.69-3.55-5.53-5.17l8.07.58h.28s.2-.02.2-.02l6.39-.52,6.56.87c8.41.8,21.61-.37,27.08-.16.83.07,7.09,1.28,7.83,1.1l6.57-.55h4.87c7.22.35,15.12.81,22.43,0l6.48.2,6.71.55h.35s.06.01.06.01l6.84-.05.36-.02,6.63-.64c3.46.03,9.83.32,13.08.6.25.13,5.88-.57,7.3-.69l6.44.29h.29s.3,0,.3,0l6.78-.71c2.28,0,4.57.02,6.85-.03l6.25-.75c-3.39,2.99-6.96,6.16-9.82,8.77ZM204.44,265.73l-6.85-1.19-.27-.02h-.21s-6.69-.07-6.69-.07c-.73-.14-7.21-.96-6.8-.93-3.41-.18-10.26-.8-13.64-1.23l-6.52-.96-6.51-1.77-.74-.12c-2.22-.19-4.45-.32-6.67-.46l-13.22-2.91c-1.04-.39-6.9-2.37-9.57-3.12-2.9-.91-8.2-2.29-9.81-2.63l-6.52-2.42-.21-.08-.28-.08c.26.08-6.26-1.2-6.71-1.23l-4.4-1.42.59-4.65,1.69-6.67,1.24-6.77,2.15-6.44v-.04s.08-.26.08-.26c-.07.31,1.08-5.33,1.27-6.53l2.35-4.98c3.59,1.03,7.2,2.01,10.83,2.89l6.24,2.83.26.1c5.95,1.57,14.35,3.83,20.33,5.54,6.4,1.15,15.91,2.46,20.94,2.75l6.83,1.32.49.07,6.94.33h.19s.08.01.08.01c2.91-.16,11.87-.21,13.51-.27,3.28.33,7.68.57,11.4.53-.17,5.78-.31,11.56-.04,17.08l.04.47,1.02,6.78.24,6.74-.07,6.98v.25s.19,2.78.19,2.78l-3.17-.21ZM252.63,268.82s0-.02,0-.04c0-.02,0,0,0,.04ZM347.25,222.3c1.22,1.2,2.44,2.4,3.64,3.62l.82,5.11c-.58,1.57-1.04,3.11-1.44,4.67-1.15,1.21-2.28,2.45-3.41,3.69l-4.67,1.71-4.87-1.31-3.78-3.8c-.61-1.66-1.23-3.31-1.81-4.98l1.64-5.09,3.84-3.94c1.68-.55,3.36-1.07,5.04-1.59l4.99,1.91ZM242.86,100.31c-.77,1.4-1.41,2.85-1.96,4.31-1.29,1.13-2.51,2.33-3.71,3.55-1.63.32-3.27.64-4.9.99-1.68-.31-3.37-.6-5.06-.88-1.28-1.08-2.58-2.15-3.88-3.21-.4-1.51-.8-3.01-1.23-4.51l5.94-.85c4.89-.14,9.84.08,14.8.6ZM214.1,100.84l2.66-.05c.42,2.62-.15,6.58,1.61,8.44,2.19,1.91,3.78,4.9,6.58,5.89,2.63.52,5.22,1.62,7.9,1.64,2.33-.35,4.64-.77,6.96-1.18,2.95-.95,5.14-4.42,7.31-6.59,1.23-2.36,1.14-5.28,1.27-7.99.84.13,1.67.27,2.51.41-.12.36-.17.75-.1,1.2l.99,6.62-.3,13.66c-.31,3.51-.61,10.6-.57,14.11v.12s.44,6.67.44,6.67l-.25,6.83v.18c.04,3.63.5,10.09.96,13.8l-.64,6.58v.47s.67,13.59.67,13.59l-.75,6.66-.02.62c0-.25.25,6.04.3,6.74l-.21,6.85.02.57.81,6.97c.21,5.01,0,14.29-.35,20.78,1.17,8.73.59,17.59-.06,27.07l.02.75c-.02-.25.67,6.01.77,6.73.02,1.06.06,5.84.1,6.52l-.61,6.74-.02.44.12,7,.03.42.87,6.52-.56,6.48v.14s-.01.51-.01.51l.55,6.73-.02.26-2.83-7.36-.13-.36c-1.55-2.24-4.2-3.67-6.1-5.64-2.39-1.27-5.29-1.59-7.84-2.55-.56-.17-1.18-.15-1.76.12-2.32,1.16-4.85,1.93-7.1,3.21l-5.45,4.47c-.5.4-.84,1.01-.94,1.69-.03.75-1.46,7.5-1.07,8.09l1.46,6.76c.11.56.46,1.09.89,1.49.98.78,4.99,5.8,6.32,5.83l.31.07,6.69,1.45c.49.12,1.05.07,1.55-.06,1.27-.42,7.38-1.16,8.26-2.25,1.8-1.62,3.49-3.35,5.22-5.03,1.97-2.58,1.86-6.43,2.49-9.52l-.37,5.98v.14s.02.61.02.61c-.02-.35.77,5.65.95,6.68-.12,3.62.04,10.12.33,13.68l-.65,6.63v.62s.72,6.95.72,6.95v-.21s.03.76.03.76l-5.05-.85-.75-.07c-3.37-.07-10.12-.57-13.46-.99-.64-.1-7.36.43-8.17.56-3.11.31-6.5.82-9.87,1.46l-.84-5.94c0-3.5.33-10.39.69-13.74l-.03-.66-.98-7.01c-.2-4.14-.16-15.12-.06-20.64v-.24s-.02-.08-.02-.08l-.58-6.71.47-6.8v-.61s-.72-6.65-.72-6.65l.59-6.72v-.39c0-3.53-.28-10.67-.55-14.19.14-1.88.09-10.91-.08-13.94l-.04-.43-1.01-6.84c-.32-7.25-.1-17.05.14-24.18.27-7.77-.62-18.12-1.05-24.54.19-3.54.26-10.6.14-14.16,0-4.78.14-9.59.18-14.41l-.75-6.74.41-6.71c-.1-4.47-.46-10.76-.76-14.15.3-6.54-.25-15.49-.24-20.88l.69-7.02v-.09s.02-.24.02-.24l-.19-7.03s0-.03,0-.04l1.91-.44ZM243.99,315.62c-1.14,1.14-2.27,2.29-3.38,3.46l-4.75,1.36-4.98-.63-3.8-3.25-1.59-5.16.59-5.39,4.28-3.61c1.72-.72,3.44-1.44,5.17-2.14,1.69.59,3.37,1.19,5.04,1.81,1.24,1.27,2.46,2.57,3.66,3.88l1.26,5.15c-.61,1.52-1.08,3.01-1.5,4.51ZM121.8,175.45v-.03s.08-.14.08-.14l2.68-6.36c2.97-5.86,7.7-11.96,11.06-17.23,2.19-2.68,6.18-8.16,8.2-11.14l5.14-4.39.12-.11,7.34-7.37c4.01-4.07,8.44-7.9,13.03-11.2,2.3-1.06,15.05-7.85,18.35-9.26l6.2-2.77,12.99-2.97-.02,5.73-.89,6.87c-.31,7.1.08,14.45-.44,21.52.39,7.26.76,13.89-.04,20.69v.57s.66,7.02.66,7.02c-.2,2.36-.35,9.57-.45,13.69.06,3.46-.07,10.49-.26,13.94.2,4.23.47,8.47.78,12.59.23,4.55.18,9.3.06,14.1-1.52-.05-3.05-.01-4.11-.28l.25.02-6.9-1.16-.32-.02c-7.03-.52-13.68-.38-20.34-1.22-.62-.17-6.91-1.45-6.61-1.41-3.52-.45-7.08-.7-10.57-1.36l-10.22-1.65c-3.43-1-16.48-4.36-19.5-4.51l-6.59-2.42c-3.81-.81-7.7-1.27-11.57-1.78l.76-2.81,2.73-6.27.08-.22,1.96-6.52,6.36-12.15ZM74.46,147.66s0,.01,0-.03v.03ZM56.65,210.89c-2.02-2.89-5.84-7.93-8.02-10.56l-3-5.12-2.23-5.89-.09-.25c.02-.17-2.39-4.1-3.42-5.8l-1.01-5.72c.08-.15-1.74-5.59-2.17-6.93-.69-4.22-1.27-8.45-1.76-12.69.35-6.68.92-13.25,1.62-19.94.94-4.06,2.56-9.8,3.24-12.68l2.23-6.35c2.88-5.1,6.93-12.65,10.26-17.29l4.34-5.21c4.08-3.84,15.34-12.38,20.31-15.91-5.07,10.56-7.93,21.6-11.14,32.96-1.03,6.98-1.89,14.47-1.86,21.59l.02.23.7,6.93.02.14c.12.44,1.33,7.41,1.52,7.65,1.32,3.73,3.74,10.43,5.59,13.94l3.99,5.62,3.79,5.71.08.12c.05.29,5.23,5,5.57,5.38,4.16,3.19,7.04,5.31,10.96,8.76,2.19,1.53,4.97,2.08,7.42,3.15,1.31.3,2.99,1.31,4.64,2l-1.86,4.17-.11.29-1.26,4.44c-.69.64-1,1.65-.82,2.57l-2.76,5.7-.19.55-1.39,6.69-2.23,6.47-.09.33-1.3,6.75-1.76,6.64-.06.3-.3,2.2c-.77-.66-1.49-1.29-1.97-1.88-6.54-4.76-10.93-7.17-16.48-11.46-6.41-4.45-12.82-11.26-19.03-17.6ZM409.67,331.75v-.06s0,0,0,.06ZM383.57,257.62l3.61,5.71,3.23,5.94.25.38,3.9,5.24c2.77,5.53,6.29,14.2,8.25,17.83,1.1,3.78,3.11,10.41,3.6,12.67l1.06,6.77.05.24.03.13,1.52,6.01-.26,6.34.02.58.02.15.81,6.43c-.05,1.16-.23,4.8-.26,6-1.66,6.48-2.69,13.17-4.34,19.53-1.77,5.34-3.43,13.06-5.65,18.4-1.84,3-5.09,9.04-6.52,12.16-1.49,2.87-4.69,8.42-6.5,11.33l-3.71,5.13-4.47,4.84-.21.24c-4.96,6.97-11.75,12.74-17.97,19.74l-4.91,4.42c-3.34,2.1-10.27,8.36-15.22,11.85l-5.84,3.11-.88.58c.11-.06-3.67,2.79-4.94,3.8-5.79,2.96-11.88,5.32-17.76,8.32l-6.34,2.51-6.02,2.79-6.11,2.13-6.03,1.86-6.2,1.23-6.58.87-.43.07-.07.02c-8.38,2.02-17.01,2.62-26.76,2.88l-6.09.75-6.16-.78-.9-.05c-6,.07-14.22,0-20.19-.63l-6.33-.93-6.54-1.58-.63-.12c.25.03-5.19-.78-6.5-.96l-4.84-1.1c-4.2-1.11-12.52-3.43-14.81-3.79-.19-.06-5.07-1.6-6.28-1.97-.91-.37-4.92-2.01-5.94-2.42l-6.14-3.06-.72-.31-5.89-2.17c-4.76-3.04-9.8-5.65-14.55-8.58-3.96-2.59-9.87-5.7-13.84-8.56l-4.78-4.54-.41-.36-5.11-4.17c-2.53-2.57-7.23-7.24-9.92-9.54l-4.42-4.73c.07.11-2.98-3.56-4.01-4.74l-3.34-5.55-.27-.42-7.86-10.95-2.77-5.45c-.99-2.31-1.93-4.65-3.02-6.92l-3.4-5.88-2.38-5.39-1.26-6c-1.4-4.58-3.09-9.09-4.46-13.68-1.03-6.47-1.5-13.11-2.54-19.63.18-1.81.53-6.45.52-6.3l.04-.44v-.12s-.16-6.98-.16-6.98l.23-6.85c1.1-6.57,2.77-13.59,4.2-20.06l2.02-6.41,3.35-5.76.1-.16,3.05-6.31,3.84-5.64c1.66-1.42,6.44-6.79,9.27-9.82,3.35-2.39,6.76-4.68,10.19-6.95l5.12,2.24.14.05.25.07,6.36,1.74,6.25,2.74.15.06c5.99,1.74,14.17,4.77,20.11,6.81l13.46,3.21.63.09c2.2.18,4.4.35,6.6.47l6.35,1.61c3.7.62,10.72,1.32,14.47,1.64l6.91.18,6.8.56.45.02c-.3-.01,6.15-.25,6.77-.33l6.64.57.26.02,3.96-.14.14,5.41-.56,6.83v.7s.77,6.73.77,6.73l-.38,6.79.02.48.75,7.01c.03,4.4.09,15.73.56,21.27l1.11,6.71-.28,6.77.12,7.15.04.46,1.16,6.44c-2.14.5-4.22,1.05-6.15,1.63l-.24.07-12.88,4.55c-3.27,1.34-6.45,2.92-9.76,4.17-3.33,1.33-6.77,2.74-10.13,4.18l-5.95,3.51-.28.16-5.58,3.94-5.69,3.78-.3.2c-2.78,2.4-6.85,5.48-9.82,8.3-.83.26-1.35.87-1.58,1.6-.16.17-.31.34-.46.51.11.24.23.51.35.77.07.51.29,1,.64,1.39.94,1.99,2.04,4.12,3.39,5.94l4.35,5.14c2.54,2.5,7.68,7.05,10.39,9.36,8.07,6.21,14.38,10.67,23.27,15.78,3.03,1.31,9.12,4.05,12.07,5.52.46.24,6.83,1.82,7.46,1.96l6.45,1.8c4.81,1.16,9.53,2.6,14.37,3.36l7.01.25,7.01-.05.55-.04h.11s6.66-.83,6.66-.83l6.8-.25c.73.06,7.12-1.58,8-1.72.32-.01,6.69-2.39,7.16-2.52,4.15-1.13,9.53-3.2,13.49-5.03,6.37-3.27,12.52-7.77,18.5-11.54,4.02-3.19,7.81-6.7,11.68-10.08,4.63-5.46,9-11.26,12.92-17.26.83-1.15.71-2.78-.37-3.78-4.95-4.87-10.75-9.27-15.91-13.82l-.44-.27c.2.13-4.24-2.55-5.51-3.31l-5.5-4.27-.39-.25-.41-.21-6.22-3.15c-4.67-1.67-9.47-4.21-13.8-5.93l-.25-.05-6.42-1.4c-1.78-.61-6.56-2.75-7.75-2.63.12.02-1.09-.08-2.52-.18l.05-1.39v-.17s-.33-6.59-.33-6.59l1.04-6.7.02-.32v-7.05s.29-6.86.29-6.86v-.41s-.02-.12-.02-.12l-.7-6.53.64-6.64v-.41s0-.13,0-.13l-.3-6.58c.16-.98.77-7.08.76-6.68v-.91s-.82-6.68-.82-6.68l-.04-6.5.69-6.77.02-.44-.02-6.16c1.06.07,2.12.12,3.19.12l6.63-.53c2.3.19,4.61.3,6.91.44l7.68-.39,6.7-.86,6.93-.39.2-.02.13-.02,6.93-.97.46-.1,6.6-1.77,6.74-1.24.35-.08c3.29-1.01,9.96-2.74,13.33-3.44,6.47-1.83,13.96-4.88,20.1-7.59l6.45-2.52.25-.1.2-.1,5.92-3.53c1.05-.79,2.89-1.41,4.48-2.21,4.39,4.39,9.78,10.41,12.38,13.42ZM418.43,173.88c-.47,3.26-1.67,9.67-2.39,13l-1.76,6.09c-1.7,3.95-3.49,7.86-5.36,11.73-.75,1.1-3.02,4.42-3.43,5.07-2.24,2.56-6.31,7.41-8.41,10.12l-4.88,4.06c.29-.26-4.48,4.11-4.91,4.54l-5.2,4.05c-1.01.43-5.26,2.79-8.57,4.69-3.29-17.12-9.31-33.63-15.46-49.92.19-.05.38-.11.57-.21,6.24-3.08,11.69-7.37,16.95-11.87,3.67-3.79,7.05-7.93,9.46-12.64l4.58-13.87,1.02-13.43.02-.24v-.31l-.42-6.74-.97-7.28c.08-.16-2.42-6.33-2.64-6.91l-1.92-6.27c-1.54-3.24-3.79-6.19-5.34-9.42-1.7-3-3.09-6.24-4.67-9.34-.01-.02-.02-.04-.03-.05,2.11,1.42,4.2,2.82,6.23,4.11,7.23,5.13,13.49,11.76,19.54,18.97,1.78,3.2,9.02,14,10.83,16.94l2.94,6.41c.75,3.18,3.11,13.43,4.64,19.32.3,6.09-.25,15.44-.4,19.4Z"/>
  </g>
  <path class="cls-4" d="M628.43,551.29l-20.07-19.79-40.33-39.28-25.96-25.28c36.74-50.89,35.78-125.45-12.64-174.16-37.01-38.47-97.45-50.88-146.73-30.27-89.35,36.16-112.35,153.19-43.69,220.69,37.53,37.88,97.93,49.4,146.79,28.22,10.33-4.29,19.74-9.7,28.22-16.01l25.07,25.74,39.28,40.33,19.79,20.07c7.96,8.17,22.22,8.06,30.14-.13,8.2-7.91,8.29-22.18.13-30.14Z"/>
  <g>
    <circle class="cls-4" cx="434.54" cy="387.66" r="132.08"/>
    <circle class="cls-3" cx="434.54" cy="387.66" r="116.31"/>
    <path class="cls-3" d="M434.54,294.27c51.58,0,93.4,41.82,93.4,93.4"/>
    <g>
      <path class="cls-1" d="M434.54,295.22c-1.09-.08-1.18-1.81,0-1.91,38.08-3.73,76.43,21.5,89.47,57.29,4.44,11.87,6.26,24.7,4.88,37.06-.06.53-.53.91-1.06.85-.45-.05-.8-.41-.85-.85-1.39-12.09-4.38-23.72-9.32-34.43-14.64-32.91-47.27-55.17-83.12-58.02Z"/>
      <path class="cls-1" d="M517.08,493.06l25.38,24.72,40.33,39.28,20.03,19.71c5.48,5.57,15.25,5.45,20.63-.18,5.63-5.39,5.76-15.15.18-20.63l-19.71-20.03-39.28-40.33-24.89-25.56c-6.5,8.47-14.07,16.22-22.69,23.03Z"/>
      <g>
        <g>
          <path class="cls-2" d="M613.12,588.13c-5.88,0-11.47-2.27-15.32-6.22l-19.79-20.07-64.04-65.77c-8.61,6.36-18.02,11.67-27.98,15.81-16.15,7-33.59,10.55-51.83,10.55-36.2,0-71.01-14.17-95.5-38.89-32.42-31.87-46.45-77.74-37.51-122.7,8.91-44.85,39.33-81.79,81.37-98.8,15.71-6.57,32.63-9.91,50.27-9.91,37.01,0,72.37,14.69,97,40.29,22.97,23.11,36.61,53.86,38.4,86.59,1.72,31.39-7.32,62.58-25.46,87.87l65.98,64.25,20.08,19.79c3.97,3.87,6.23,9.48,6.22,15.39-.02,5.95-2.33,11.58-6.36,15.46-3.89,4.03-9.55,6.34-15.52,6.34h0ZM583.15,556.7l20.03,19.72c2.48,2.52,6.07,3.97,9.85,3.97s7.56-1.51,10.07-4.14c2.62-2.51,4.13-6.14,4.16-9.99.03-3.81-1.42-7.44-3.96-9.94l-19.72-20.03-63.76-65.48c-6.42,8.3-13.81,15.8-21.97,22.3l65.31,63.6ZM435,259.09c-17.44,0-34.1,3.4-49.53,10.1-39.38,16.53-67.9,51.64-76.3,93.91-4.01,20.16-3.21,41.12,2.29,60.6,5.88,20.82,16.7,39.27,32.16,54.86,24.38,24.73,56.83,38.35,91.39,38.35,27.22,0,54.3-8.68,76.26-24.44,1.02-.73,2.02-1.47,3.02-2.23,8.59-6.55,16.32-14.19,22.97-22.68.77-.98,1.53-1.98,2.27-2.99,6.13-8.32,11.29-17.43,15.33-27.07,20.32-47.38,8.49-105.52-28.78-141.39-23.39-23.53-56.59-37.02-91.1-37.02Z"/>
          <path class="cls-2" d="M432.78,252.63c35.8,0,71.59,14.1,96.64,40.14,48.43,48.72,49.38,123.28,12.64,174.16l25.96,25.28,40.33,39.28,20.07,19.79c8.16,7.96,8.07,22.23-.13,30.14-3.99,4.13-9.58,6.2-15.18,6.2s-11.01-2.02-14.96-6.07l-19.79-20.07-39.28-40.33-25.07-25.74c-8.48,6.3-17.9,11.72-28.22,16.01-16.35,7.09-34,10.52-51.64,10.52-35.08,0-70.17-13.54-95.14-38.74-68.66-67.5-45.66-184.53,43.69-220.69,15.92-6.66,33-9.87,50.09-9.87M435.02,517.43c27.2,0,54.17-8.47,76.56-24.53,1.02-.73,2.03-1.48,3.03-2.24,8.49-6.48,16.26-14.08,23.06-22.77.77-.99,1.53-1.99,2.28-3,6.02-8.18,11.23-17.24,15.39-27.18,20.39-47.54,8.32-106.12-28.89-141.94-24.03-24.17-57.74-37.16-91.44-37.16-16.99,0-33.99,3.3-49.73,10.14-83.91,35.22-106.19,145.45-42,210.19,25.8,26.18,58.93,38.5,91.74,38.5M613.03,580.88c3.85,0,7.71-1.44,10.43-4.29,5.63-5.39,5.76-15.15.18-20.63l-19.71-20.03-39.28-40.33-24.89-25.56c-6.5,8.47-14.07,16.22-22.69,23.03l25.38,24.72,40.33,39.28,20.03,19.71c2.7,2.75,6.45,4.11,10.2,4.11M432.78,251.63c-17.71,0-34.69,3.35-50.47,9.95-21.75,8.8-40.1,22.42-54.52,40.48-13.48,16.88-22.87,37.17-27.14,58.68-4.28,21.55-3.36,43.95,2.67,64.77,6.44,22.26,18.22,41.9,34.99,58.39,24.57,24.8,59.51,39.02,95.84,39.02,18.31,0,35.82-3.57,52.04-10.6,9.84-4.09,19.17-9.34,27.72-15.6l24.46,25.12,39.28,40.33,19.8,20.08c3.94,4.04,9.66,6.37,15.67,6.37s11.9-2.37,15.89-6.51c4.09-3.95,6.47-9.71,6.48-15.8.02-6.05-2.3-11.79-6.37-15.75l-20.07-19.79-40.34-39.28-25.34-24.68c18.03-25.32,27.02-56.47,25.3-87.83-.88-16.02-4.5-31.5-10.77-46-6.58-15.23-15.93-28.99-27.78-40.92-24.72-25.69-60.21-40.44-97.35-40.44h0ZM435.02,516.43c-34.42,0-66.75-13.57-91.03-38.2-15.4-15.53-26.17-33.91-32.03-54.65-5.48-19.41-6.27-40.29-2.28-60.37,4-20.16,12.76-39.23,25.32-55.15,13.41-16.99,30.45-29.91,50.67-38.4,15.37-6.68,31.97-10.07,49.34-10.07,34.37,0,67.44,13.44,90.73,36.87,17.89,17.22,30.59,40.68,35.77,66.07,5.2,25.44,2.68,51.99-7.09,74.77-4.02,9.61-9.16,18.68-15.27,26.98-.75,1.02-1.51,2.02-2.26,2.98-6.63,8.46-14.33,16.06-22.88,22.59-.99.76-2,1.5-3.01,2.23-21.88,15.7-48.86,24.35-75.97,24.35h0ZM518.59,493.14c7.87-6.33,15.01-13.58,21.26-21.58l24.08,24.73,39.28,40.33,19.72,20.03c2.46,2.42,3.85,5.91,3.82,9.59-.03,3.71-1.48,7.22-3.99,9.62-2.45,2.56-5.99,4.02-9.74,4.02s-7.1-1.39-9.49-3.81l-20.04-19.73-40.34-39.28-24.57-23.93h0Z"/>
        </g>
        <g>
          <path class="cls-2" d="M434.08,506.49c-31.89,0-62.56-12.47-84.15-34.22-28.66-28.11-41.06-68.61-33.17-108.32,7.87-39.61,34.73-72.2,71.85-87.18,13.81-5.76,28.67-8.68,44.18-8.68,32.69,0,63.94,12.98,85.74,35.61,19.94,20.09,31.91,46.81,33.72,75.23,1.74,27.36-5.83,54.72-21.31,77.06-.66.94-1.33,1.88-2.01,2.8-6.56,8.9-14.33,16.79-23.07,23.45-.91.7-1.83,1.38-2.77,2.05-7.15,5.11-14.95,9.44-23.19,12.87-14.27,6.2-29.68,9.34-45.8,9.34h0ZM435.15,274.67c-15.38,0-30.09,3.01-43.7,8.94-42.58,18.29-69.05,58.33-69.08,104.49-.03,46.03,26.33,86,68.79,104.3,13.91,6.01,28.68,9.06,43.9,9.06,22.94,0,46.08-7.23,65.16-20.35.92-.63,1.82-1.28,2.72-1.94,8.9-6.51,16.75-14.21,23.33-22.89.67-.89,1.33-1.79,1.98-2.7,4.89-6.86,8.99-14.28,12.2-22.06,17.89-41.69,7.45-92.83-25.39-124.38-20.5-20.65-49.62-32.49-79.91-32.49Z"/>
          <path class="cls-2" d="M432.79,268.59c31.62,0,63.25,12.48,85.37,35.45,42.03,42.35,43.4,106.87,12.36,151.65-.65.94-1.32,1.87-2,2.79-6.41,8.7-14.09,16.59-22.97,23.35-.91.69-1.83,1.37-2.76,2.04-7,5.01-14.71,9.33-23.09,12.81-14.44,6.27-30.03,9.3-45.62,9.3-30.89,0-61.79-11.9-83.8-34.08-60.65-59.49-40.37-162.85,38.51-194.69,13.99-5.83,28.99-8.64,43.99-8.64M435.06,501.96c23.38,0,46.31-7.28,65.44-20.44.92-.63,1.83-1.29,2.73-1.95,8.8-6.43,16.72-14.14,23.44-22.99.68-.89,1.33-1.8,1.98-2.71,4.83-6.78,8.96-14.18,12.25-22.15,17.96-41.85,7.28-93.43-25.51-124.93-21.09-21.25-50.68-32.63-80.26-32.62-15,0-30.01,2.93-43.9,8.98-92.26,39.64-92.65,169.9-.28,209.71,14.32,6.19,29.3,9.1,44.1,9.1M432.79,267.59c-15.57,0-30.5,2.93-44.38,8.72-19.22,7.76-35.43,19.78-48.17,35.72-11.91,14.91-20.2,32.83-23.97,51.82-3.78,19.04-2.96,38.83,2.37,57.23,5.7,19.66,16.11,37.01,30.94,51.56,21.67,21.83,52.47,34.36,84.5,34.36,16.19,0,31.68-3.16,46.01-9.39,8.26-3.43,16.09-7.78,23.28-12.92.88-.63,1.79-1.3,2.78-2.06,8.78-6.69,16.58-14.61,23.17-23.55.71-.96,1.38-1.9,2.02-2.82,15.54-22.42,23.14-49.9,21.4-77.37-.88-13.93-4.13-27.39-9.64-39.99-5.78-13.22-13.93-25.19-24.23-35.57-21.88-22.72-53.26-35.75-86.08-35.75h0ZM435.06,500.96c-15.15,0-29.85-3.03-43.7-9.02-21.65-9.33-39.42-24.38-51.4-43.53-11.19-17.89-17.1-38.74-17.09-60.31.01-21.61,5.97-42.52,17.22-60.46,12.04-19.19,29.86-34.26,51.55-43.57,13.56-5.91,28.19-8.9,43.51-8.9,30.15,0,59.15,11.78,79.55,32.33,15.75,15.13,26.94,35.75,31.51,58.08,4.59,22.37,2.38,45.73-6.22,65.75-3.2,7.75-7.28,15.14-12.15,21.97-.72,1.01-1.36,1.89-1.97,2.68-6.55,8.64-14.37,16.31-23.23,22.79-1,.73-1.88,1.36-2.71,1.93-19,13.06-42.04,20.26-64.88,20.26h0Z"/>
        </g>
        <g>
          <path class="cls-2" d="M527.77,389.01c-.68-.08-1.21-.61-1.29-1.29-1.44-12.52-4.56-24.05-9.28-34.27-14.33-32.22-46.8-54.88-82.71-57.73-.85-.06-1.31-.78-1.31-1.46,0-.78.53-1.38,1.31-1.44,2.49-.24,5.03-.37,7.55-.37,35.52,0,70.18,24.38,82.43,57.98,4.57,12.21,6.26,25.11,4.9,37.29-.08.74-.71,1.3-1.45,1.3,0,0-.11,0-.16,0Z"/>
          <path class="cls-2" d="M442.05,292.95c35.5,0,69.77,24.22,81.96,57.65,4.44,11.87,6.26,24.7,4.88,37.06-.05.49-.47.85-.95.85-.04,0-.07,0-.11,0-.45-.05-.8-.41-.85-.85-1.39-12.09-4.38-23.72-9.32-34.43-14.64-32.91-47.27-55.17-83.12-58.02-1.09-.08-1.18-1.81,0-1.91,2.51-.25,5.01-.37,7.51-.37M442.05,291.95c-2.54,0-5.1.12-7.61.37-1.02.09-1.76.9-1.75,1.94,0,1.04.77,1.88,1.78,1.96,17.51,1.39,34.46,7.46,49.02,17.56,14.69,10.19,26.19,23.97,33.26,39.87,4.7,10.19,7.81,21.67,9.24,34.14.1.91.82,1.62,1.73,1.73.07,0,.15.01.22.01,1,0,1.84-.75,1.95-1.74,1.37-12.26-.34-25.23-4.93-37.52-5.97-16.37-17.55-31.23-32.6-41.83-15.08-10.62-32.94-16.47-50.3-16.47h0Z"/>
        </g>
      </g>
    </g>
  </g>
</svg>