<svg id="materials" xmlns="http://www.w3.org/2000/svg" viewBox="0 0 460 39.07"><defs><style>.cls-1{fill:#fff;}.cls-2{fill:#474747;}</style></defs><title>tutorials-title</title><path class="cls-1" d="M181.13,9.92A11.39,11.39,0,0,1,180.05,7c0-1.38,1.68-1.8,2.64-1.8,1.14,0,1.53.51,2.16,1.8a6.2,6.2,0,0,1,.75,2.34,1.78,1.78,0,0,1-.09.54h2.82c.57-1.08.9-1.8,1.2-2.52.51-1.2.87-2,2.22-2,1,0,2.61.51,2.61,2,0,.66-.33,1.17-1.14,2.55,1.2,0,3.12.39,3.12,3.63v2.16c0,1.8-1.11,2.1-2.16,2.1a3.3,3.3,0,0,1-1.71-.39A2.85,2.85,0,0,1,191,20a27.2,27.2,0,0,1-4.56,2.46H195a1.9,1.9,0,0,1,2.19,2c0,1.86-1.32,2.07-2.19,2.07h-9.66v3.51c0,3.75-1.86,3.81-5.43,3.81a27,27,0,0,1-3.39-.12c-1.2-.3-1.38-1.74-1.38-2.22a1.88,1.88,0,0,1,2.1-2.07c.39,0,2.16.06,2.52,0,.63-.09.78-.39.78-1.23V26.54h-9.84a1.9,1.9,0,0,1-2.19-2c0-1.77,1.17-2.07,2.19-2.07h9.84c0-.75,0-1.29,1.14-1.53.27-.09,2.37-1,2.37-1.32,0-.21-.21-.21-.36-.21h-8.79c-.6,0-1.74,0-1.89-1.83a2.78,2.78,0,0,1-1.26.27c-1.47,0-2.4-.42-2.4-2.1V13.55c0-2.76,1.23-3.6,3.48-3.63-1.11-2-1.17-2.13-1.17-2.58,0-1.14,1.35-1.86,2.58-1.86.93,0,1.53.27,2.52,2.28a4.26,4.26,0,0,1,.63,2.16Zm-7.29,5.82a2.38,2.38,0,0,1,1.08-.3h14.73c1.14,0,1.68,0,2.19.42V14.42a.55.55,0,0,0-.63-.6H174.44a.54.54,0,0,0-.6.6Z"/><path class="cls-1" d="M224,6.17c2.25,0,3.57.75,3.57,3.54V16c0,1.32,0,2.79-1.2,3.36-.66.33-.93.36-3.45.36h-.81c-1.14,0-2.25,0-2.43-1.71a11.46,11.46,0,0,1-3.87.93,1.11,1.11,0,0,1,.63.93c0,.09-.15.6-.18.72h5.88c2.25,0,3.57.75,3.57,3.57v5.55c0,2.73-1.23,3.57-3.57,3.57H206.51c-2.34,0-3.54-.84-3.54-3.57V24.14c0-2.79,1.29-3.57,3.54-3.57h5.37c.42-1.05.48-1.17.69-1.38a4.71,4.71,0,0,1-2.64.51,24.91,24.91,0,0,1-3.06-.06c-.51-.09-1.2-.48-1.26-1.8-2.73,1.11-3.3,1.26-3.84,1.26-1.35,0-1.71-.93-1.71-1.86a1.59,1.59,0,0,1,1.29-1.68c.6-.24,3.27-1.14,3.81-1.35-.69.09-.81-.06-2.25-1.14s-1.8-1.29-1.8-2a1.91,1.91,0,0,1,.57-1.35,1.57,1.57,0,0,1-1.56-1.77A1.63,1.63,0,0,1,202,6.17h7.92c2.25,0,3.57.75,3.57,3.54V16c0,1.41,0,2.31-.78,3.06a2.62,2.62,0,0,1,1.53-.39,5.21,5.21,0,0,1,1.17.15,2.32,2.32,0,0,1-.9-1.92c0-.81.39-1.26,1.35-1.59.48-.18,2.64-.84,3.06-1-.39-.09-.54-.21-1.92-1.14-1.8-1.17-2-1.29-2-2.07a1.92,1.92,0,0,1,.6-1.38A1.61,1.61,0,0,1,214.22,8a1.64,1.64,0,0,1,1.89-1.8ZM204.68,9.74c2.07,1.35,2.28,1.71,2.28,2.4a2.17,2.17,0,0,1-1,1.77,2.22,2.22,0,0,1,.93-.24,1.76,1.76,0,0,1,1.53,2.22c.51,0,.75-.09.75-.81V10.52c0-.54-.27-.78-.75-.78Zm16.59,15.6v-1a.51.51,0,0,0-.57-.57H208.1a.51.51,0,0,0-.57.57v1Zm0,3H207.53v1a.51.51,0,0,0,.57.57h12.6a.51.51,0,0,0,.57-.57Zm2-17.85a.69.69,0,0,0-.78-.78h-3.87c2.25,1.29,2.52,1.8,2.52,2.46a2.44,2.44,0,0,1-.69,1.53,1.78,1.78,0,0,1,.51-.06c1.92,0,1.65,2.13,1.65,2.19.48,0,.66-.12.66-.87Z"/><path class="cls-1" d="M237.41,31.7a1.91,1.91,0,0,1-2.13,2.19c-1.74,0-2.46-.57-2.46-2.19V13.55c0-3.24,1.44-4.14,4.17-4.14h6.36V7.55a2,2,0,0,1,2.22-2.22c1.8,0,2.52.63,2.52,2.22V9.41h6.57c2.7,0,4.14.9,4.14,4.14V29.6c0,4.2-2.4,4.2-5.85,4.2a13.46,13.46,0,0,1-3-.21,2.19,2.19,0,0,1-1.26-2.19A2,2,0,0,1,251,29.15c.39,0,2.22.06,2.52,0a.88.88,0,0,0,.75-1V25.82A2.54,2.54,0,0,1,252,27.68c-1.08,0-2-.75-3.6-2.76a15.79,15.79,0,0,1-2.64-5.13,16.38,16.38,0,0,1-3.21,5.82c-1.8,2-2.61,2-3.06,2a2.28,2.28,0,0,1-2.07-1.38Zm0-7.92c.3-.45,2.28-2.37,2.7-2.82a13.91,13.91,0,0,0,3-7.14h-4.77a.84.84,0,0,0-.93.93Zm11-10a15,15,0,0,0,5.13,9.39,3.22,3.22,0,0,1,.75,1V14.75a.85.85,0,0,0-.93-.93Z"/><path class="cls-1" d="M266.6,26.24c0-.27,0-.54,0-1a4.38,4.38,0,0,1-1.41.3,2.24,2.24,0,0,1-2.07-2.37c0-1.35,1-1.68,1.8-1.95a23.93,23.93,0,0,0,8.52-4.17,5.34,5.34,0,0,1,3.9-1.44A4.93,4.93,0,0,1,281.15,17a22.76,22.76,0,0,0,8.55,4.26c1.08.36,1.8.75,1.8,2a2.29,2.29,0,0,1-2.07,2.43,4.9,4.9,0,0,1-1.38-.27,6.28,6.28,0,0,1,0,.78v3.6c0,2.82-1.29,3.63-3.63,3.63H270.23c-2.37,0-3.63-.81-3.63-3.63Zm20.73-18.6c2.37,0,3.66.81,3.66,3.63V13.1c0,.6-.09,2-2.13,2-1,0-2.4-.3-2.4-2v-.9a.73.73,0,0,0-.81-.81H269.06a.73.73,0,0,0-.81.81v.93a2,2,0,0,1-2.31,2c-1.59,0-2.19-.66-2.19-2V11.27c0-2.67,1.11-3.63,3.63-3.63h7.53V6.92c0-1.44,1.2-1.74,2.22-1.74,1.47,0,2.64.27,2.64,1.74v.72ZM273.2,16.19c-2,1.38-5.79,3.36-7,3.36a2.12,2.12,0,0,1-1.95-2.25c0-1.14.3-1.26,3-2.28a22.39,22.39,0,0,0,4.5-2.58,2.56,2.56,0,0,1,1.59-.6,2,2,0,0,1,2,2.16C275.42,14.51,275,15,273.2,16.19Zm10.29,10.68a.57.57,0,0,0-.63-.63H271.7a.55.55,0,0,0-.6.63V29a.56.56,0,0,0,.6.63h11.16a.57.57,0,0,0,.63-.63Zm-1.62-4.26c-1.65-1-3.66-2.55-4.11-2.91-.24-.21-.27-.24-.39-.24s-.27.09-.42.21a18.89,18.89,0,0,1-4.11,2.94Zm2.58-9.24a16.22,16.22,0,0,0,4.71,2.4,1.69,1.69,0,0,1,1.35,1.68,2.18,2.18,0,0,1-2,2.25c-1.26,0-3.69-1.44-5-2.28-3.93-2.46-4.17-3-4.17-3.69a2.13,2.13,0,0,1,2.34-1.89C282.35,11.84,282.59,12,284.45,13.37Z"/><path class="cls-2" d="M179.9,36.36a22.33,22.33,0,0,1-3.91-.18,4.61,4.61,0,0,1-3.36-4.66,4.81,4.81,0,0,1,.63-2.48h-2.57A4.33,4.33,0,0,1,166,24.5,4.24,4.24,0,0,1,169.69,20a4.33,4.33,0,0,1-2.85-4.3V13.55c0-2.46.84-4.24,2.42-5.22a3.9,3.9,0,0,1-.11-1c0-2.73,2.58-4.36,5.08-4.36a4.37,4.37,0,0,1,3.84,2.07,5.28,5.28,0,0,1,4.62-2.31c2.84,0,3.82,2,4.41,3.2l.18.37c.54-1.26,1.54-3.39,4.47-3.39,2.48,0,5.11,1.56,5.11,4.45a4.06,4.06,0,0,1-.15,1.13,6.09,6.09,0,0,1,2.13,5.05v2.16a4.2,4.2,0,0,1-2.79,4.3,4.26,4.26,0,0,1,3.63,4.46A4.34,4.34,0,0,1,195,29h-7.16v1C187.83,36.36,183.25,36.36,179.9,36.36Z"/><path class="cls-2" d="M182.69,5.24c1.14,0,1.53.51,2.16,1.8a6.2,6.2,0,0,1,.75,2.34,1.78,1.78,0,0,1-.09.54h2.82c.57-1.08.9-1.8,1.2-2.52.51-1.2.87-2,2.22-2,1,0,2.61.51,2.61,2,0,.66-.33,1.17-1.14,2.55,1.2,0,3.12.39,3.12,3.63v2.16c0,1.8-1.11,2.1-2.16,2.1a3.3,3.3,0,0,1-1.71-.39A2.85,2.85,0,0,1,191,20a27.2,27.2,0,0,1-4.56,2.46H195a1.9,1.9,0,0,1,2.19,2c0,1.86-1.32,2.07-2.19,2.07h-9.66v3.51c0,3.75-1.86,3.81-5.43,3.81a27,27,0,0,1-3.39-.12c-1.2-.3-1.38-1.74-1.38-2.22a1.88,1.88,0,0,1,2.1-2.07c.31,0,1.5,0,2.15,0h.37c.63-.09.78-.39.78-1.23V26.54h-9.84a1.9,1.9,0,0,1-2.19-2c0-1.77,1.17-2.07,2.19-2.07h9.84c0-.75,0-1.29,1.14-1.53.27-.09,2.37-1,2.37-1.32,0-.21-.21-.21-.36-.21h-8.79c-.6,0-1.74,0-1.89-1.83a2.78,2.78,0,0,1-1.26.27c-1.47,0-2.4-.42-2.4-2.1V13.55c0-2.76,1.23-3.6,3.48-3.63-1.11-2-1.17-2.13-1.17-2.58,0-1.14,1.35-1.86,2.58-1.86.93,0,1.53.27,2.52,2.28a4.26,4.26,0,0,1,.63,2.16h3.75A11.39,11.39,0,0,1,180.05,7c0-1.38,1.68-1.8,2.64-1.8m-8.85,10.5a2.38,2.38,0,0,1,1.08-.3h14.73c1.14,0,1.68,0,2.19.42V14.42a.55.55,0,0,0-.63-.6H174.44a.54.54,0,0,0-.6.6v1.32M182.69.24a8.46,8.46,0,0,0-4.64,1.32A6.83,6.83,0,0,0,174.23.48c-4.21,0-7.52,3-7.58,6.76a8.66,8.66,0,0,0-2.31,6.31v2.16a7.24,7.24,0,0,0,1,3.86,7.08,7.08,0,0,0-1.84,4.93,6.76,6.76,0,0,0,6.63,7,7.06,7.06,0,0,0,5.17,7.07l.18,0a22.76,22.76,0,0,0,4.42.23c2.14,0,4.36,0,6.4-1.08a7.61,7.61,0,0,0,3.95-6.24H195a6.83,6.83,0,0,0,7.19-7.07,7,7,0,0,0-1.85-4.91,7.41,7.41,0,0,0,1-3.85V13.55a9.08,9.08,0,0,0-2-6V7.37c0-3.9-3.34-6.95-7.61-6.95a6.66,6.66,0,0,0-4.44,1.52A6.65,6.65,0,0,0,182.69.24Z"/><path class="cls-2" d="M206.51,35.76c-3.9,0-6-2.16-6-6.07V24.14a8.06,8.06,0,0,1,.4-2.62,4.05,4.05,0,0,1-3.31-4.28,3.88,3.88,0,0,1,2.07-3.63,3.49,3.49,0,0,1-1-2.55v-.24a4.29,4.29,0,0,1-1-2.88A4.06,4.06,0,0,1,202,3.67h7.92a7.09,7.09,0,0,1,3.46.77,4.62,4.62,0,0,1,2.72-.77H224c5.28,0,6.07,3.78,6.07,6V16c0,1.46,0,4.13-2.31,5.45a7.88,7.88,0,0,1,.45,2.71v5.55c0,3.91-2.16,6.07-6.07,6.07Z"/><path class="cls-2" d="M224,6.17c2.25,0,3.57.75,3.57,3.54V16c0,1.32,0,2.79-1.2,3.36-.66.33-.93.36-3.45.36h-.81c-1.14,0-2.25,0-2.43-1.71a13.85,13.85,0,0,1-3.62.94h-.25a1.11,1.11,0,0,1,.63.93c0,.09-.15.6-.18.72h5.88c2.25,0,3.57.75,3.57,3.57v5.55c0,2.73-1.23,3.57-3.57,3.57H206.51c-2.34,0-3.54-.84-3.54-3.57V24.14c0-2.79,1.29-3.57,3.54-3.57h5.37c.42-1.05.48-1.17.69-1.38a4.71,4.71,0,0,1-2.64.51,24.91,24.91,0,0,1-3.06-.06c-.51-.09-1.2-.48-1.26-1.8-2.73,1.11-3.3,1.26-3.84,1.26-1.35,0-1.71-.93-1.71-1.86a1.59,1.59,0,0,1,1.29-1.68c.6-.24,3.27-1.14,3.81-1.35l-.28,0c-.48,0-.75-.25-2-1.16-1.44-1.08-1.8-1.29-1.8-2a1.91,1.91,0,0,1,.57-1.35,1.57,1.57,0,0,1-1.56-1.77A1.63,1.63,0,0,1,202,6.17h7.92c2.25,0,3.57.75,3.57,3.54V16c0,1.41,0,2.31-.78,3.06a2.62,2.62,0,0,1,1.53-.39,5.21,5.21,0,0,1,1.17.15,2.32,2.32,0,0,1-.9-1.92c0-.81.39-1.26,1.35-1.59.48-.18,2.64-.84,3.06-1-.39-.09-.54-.21-1.92-1.14-1.8-1.17-2-1.29-2-2.07a1.92,1.92,0,0,1,.6-1.38A1.61,1.61,0,0,1,214.22,8a1.64,1.64,0,0,1,1.89-1.8H224m-3.54,7.56a1.78,1.78,0,0,1,.51-.06c1.92,0,1.65,2.13,1.65,2.19.48,0,.66-.12.66-.87V10.52a.69.69,0,0,0-.78-.78h-3.87c2.25,1.29,2.52,1.8,2.52,2.46a2.44,2.44,0,0,1-.69,1.53M206,13.91a2.22,2.22,0,0,1,.93-.24,1.76,1.76,0,0,1,1.53,2.22c.51,0,.75-.09.75-.81V10.52c0-.54-.27-.78-.75-.78h-3.75c2.07,1.35,2.28,1.71,2.28,2.4a2.17,2.17,0,0,1-1,1.77m1.56,11.43h13.74v-1a.51.51,0,0,0-.57-.57H208.1a.51.51,0,0,0-.57.57v1M208.1,30h12.6a.51.51,0,0,0,.57-.57v-1H207.53v1a.51.51,0,0,0,.57.57M224,1.17h-7.92a7.58,7.58,0,0,0-2.83.52,10.37,10.37,0,0,0-3.35-.52H202a6.53,6.53,0,0,0-6.89,6.77,7,7,0,0,0,1,3.69,6.37,6.37,0,0,0,.3,1.47,6.78,6.78,0,0,0-1.37,4.14A6.74,6.74,0,0,0,198,23c0,.36-.05.73-.05,1.11v5.55c0,5.28,3.27,8.57,8.54,8.57h15.66c5.29,0,8.57-3.29,8.57-8.57V24.14a11.16,11.16,0,0,0-.13-1.77c2-2.14,2-5.11,2-6.39V9.71C232.6,4.44,229.32,1.17,224,1.17Z"/><path class="cls-2" d="M235.28,36.39c-4.48,0-5-3.28-5-4.69V13.55c0-3,1.16-6.64,6.67-6.64h3.89a4.38,4.38,0,0,1,4.69-4.08c3.94,0,4.82,2.5,5,4.08h4.1c5.49,0,6.64,3.61,6.64,6.64V29.6c0,6.7-5,6.7-8.35,6.7a11.43,11.43,0,0,1-3.91-.38,4.53,4.53,0,0,1-2.85-4.52,4.69,4.69,0,0,1,1.39-3.54c-.41-.45-.79-.93-1.17-1.41-.24-.3-.46-.61-.67-.91a17.23,17.23,0,0,1-1.32,1.72c-1.66,1.88-3,2.74-4.51,2.87V31.7A4.37,4.37,0,0,1,235.28,36.39Zm16.46-19.67v-.4h-.16C251.63,16.46,251.69,16.59,251.74,16.72Zm-11.83-.38v0Z"/><path class="cls-2" d="M245.57,5.33c1.8,0,2.52.63,2.52,2.22V9.41h6.57c2.7,0,4.14.9,4.14,4.14V29.6c0,4.2-2.4,4.2-5.85,4.2a13.46,13.46,0,0,1-3-.21,2.19,2.19,0,0,1-1.26-2.19A2,2,0,0,1,251,29.15c.31,0,1.55,0,2.18,0h.34a.88.88,0,0,0,.75-1V25.82A2.54,2.54,0,0,1,252,27.68c-1.08,0-2-.75-3.6-2.76a15.79,15.79,0,0,1-2.64-5.13,16.38,16.38,0,0,1-3.21,5.82c-1.8,2-2.61,2-3.06,2a2.28,2.28,0,0,1-2.07-1.38V31.7a1.91,1.91,0,0,1-2.13,2.19c-1.74,0-2.46-.57-2.46-2.19V13.55c0-3.24,1.44-4.14,4.17-4.14h6.36V7.55a2,2,0,0,1,2.22-2.22m8.67,18.84V14.75a.85.85,0,0,0-.93-.93h-4.95a15,15,0,0,0,5.13,9.39,3.22,3.22,0,0,1,.75,1M243.11,13.82h-4.77a.84.84,0,0,0-.93.93v9c.3-.45,2.28-2.37,2.7-2.82a13.91,13.91,0,0,0,3-7.14M245.57.33A6.88,6.88,0,0,0,239,4.41h-2c-5.74,0-9.17,3.42-9.17,9.14V31.7c0,4.37,2.93,7.19,7.46,7.19A6.82,6.82,0,0,0,242.4,32a7.29,7.29,0,0,0,1.29-.73v.1a7.05,7.05,0,0,0,4.52,6.88,13.57,13.57,0,0,0,4.74.52,13.73,13.73,0,0,0,6.49-1.07c2-1,4.36-3.25,4.36-8.13v-16c0-5.72-3.42-9.14-9.14-9.14h-2.17C251.41,1.86,248.93.33,245.57.33Z"/><path class="cls-2" d="M270.23,36c-5.33,0-6.13-3.84-6.13-6.13V27.9a4.83,4.83,0,0,1-3.45-4.72,4,4,0,0,1,1.75-3.49,4.91,4.91,0,0,1-.61-2.39,4.41,4.41,0,0,1,.22-1.49,4.66,4.66,0,0,1-.76-2.68V11.27c0-3.95,2.18-6.13,6.13-6.13h5.4a4.42,4.42,0,0,1,4.35-2.46c3,0,4.27,1.24,4.79,2.46h5.41c5.36,0,6.16,3.84,6.16,6.13V13.1a4.78,4.78,0,0,1-.78,2.73,4.24,4.24,0,0,1,.3,1.62,5,5,0,0,1-.64,2.41A4.07,4.07,0,0,1,294,23.3a4.89,4.89,0,0,1-3.42,4.77v1.77c0,3.95-2.18,6.13-6.13,6.13Z"/><path class="cls-2" d="M277.13,5.18c1.47,0,2.64.27,2.64,1.74v.72h7.56c2.37,0,3.66.81,3.66,3.63V13.1c0,.6-.09,2-2.13,2-1,0-2.4-.3-2.4-2v-.9a.73.73,0,0,0-.81-.81H269.06a.73.73,0,0,0-.81.81v.93a2,2,0,0,1-2.31,2c-1.59,0-2.19-.66-2.19-2V11.27c0-2.67,1.11-3.63,3.63-3.63h7.53V6.92c0-1.44,1.2-1.74,2.22-1.74m4.5,6.66c.72,0,1,.15,2.82,1.53a16.22,16.22,0,0,0,4.71,2.4,1.69,1.69,0,0,1,1.35,1.68,2.18,2.18,0,0,1-2,2.25c-1.26,0-3.69-1.44-5-2.28-3.93-2.46-4.17-3-4.17-3.69a2.13,2.13,0,0,1,2.34-1.89m-8.22,0a2,2,0,0,1,2,2.16c0,.51-.42,1-2.22,2.19-2,1.38-5.79,3.36-7,3.36a2.12,2.12,0,0,1-1.95-2.25c0-1.14.3-1.26,3-2.28a22.39,22.39,0,0,0,4.5-2.58,2.56,2.56,0,0,1,1.59-.6m4,3.78A4.93,4.93,0,0,1,281.15,17a22.76,22.76,0,0,0,8.55,4.26c1.08.36,1.8.75,1.8,2a2.29,2.29,0,0,1-2.07,2.43,4.9,4.9,0,0,1-1.38-.27,6.28,6.28,0,0,1,0,.78v3.6c0,2.82-1.29,3.63-3.63,3.63H270.23c-2.37,0-3.63-.81-3.63-3.63v-3.6c0-.27,0-.54,0-1a4.38,4.38,0,0,1-1.41.3,2.24,2.24,0,0,1-2.07-2.37c0-1.35,1-1.68,1.8-1.95a23.93,23.93,0,0,0,8.52-4.17,5.34,5.34,0,0,1,3.9-1.44m-4.53,7h9c-1.65-1-3.66-2.55-4.11-2.91-.24-.21-.27-.24-.39-.24s-.27.09-.42.21a18.89,18.89,0,0,1-4.11,2.94m-1.14,7.05h11.16a.57.57,0,0,0,.63-.63V26.87a.57.57,0,0,0-.63-.63H271.7a.55.55,0,0,0-.6.63V29a.56.56,0,0,0,.6.63M277.13.18a7.54,7.54,0,0,0-5.72,2.46h-4c-5.32,0-8.63,3.31-8.63,8.63v1.86a7.54,7.54,0,0,0,.61,3.07,8,8,0,0,0,.13,2.84,6.73,6.73,0,0,0-1.34,4.14,7.46,7.46,0,0,0,3.45,6.33v.33c0,5.32,3.31,8.63,8.63,8.63h14.22c5.32,0,8.63-3.31,8.63-8.63v-.18a7.51,7.51,0,0,0,3.42-6.36,6.9,6.9,0,0,0-1.22-4,7.5,7.5,0,0,0,.23-1.85,7.8,7.8,0,0,0-.12-1.31,7.63,7.63,0,0,0,.6-3V11.27c0-5.32-3.32-8.63-8.66-8.63h-4C282.1,1.21,280.13.18,277.13.18Z"/><path class="cls-1" d="M181.13,9.92A11.39,11.39,0,0,1,180.05,7c0-1.38,1.68-1.8,2.64-1.8,1.14,0,1.53.51,2.16,1.8a6.2,6.2,0,0,1,.75,2.34,1.78,1.78,0,0,1-.09.54h2.82c.57-1.08.9-1.8,1.2-2.52.51-1.2.87-2,2.22-2,1,0,2.61.51,2.61,2,0,.66-.33,1.17-1.14,2.55,1.2,0,3.12.39,3.12,3.63v2.16c0,1.8-1.11,2.1-2.16,2.1a3.3,3.3,0,0,1-1.71-.39A2.85,2.85,0,0,1,191,20a27.2,27.2,0,0,1-4.56,2.46H195a1.9,1.9,0,0,1,2.19,2c0,1.86-1.32,2.07-2.19,2.07h-9.66v3.51c0,3.75-1.86,3.81-5.43,3.81a27,27,0,0,1-3.39-.12c-1.2-.3-1.38-1.74-1.38-2.22a1.88,1.88,0,0,1,2.1-2.07c.39,0,2.16.06,2.52,0,.63-.09.78-.39.78-1.23V26.54h-9.84a1.9,1.9,0,0,1-2.19-2c0-1.77,1.17-2.07,2.19-2.07h9.84c0-.75,0-1.29,1.14-1.53.27-.09,2.37-1,2.37-1.32,0-.21-.21-.21-.36-.21h-8.79c-.6,0-1.74,0-1.89-1.83a2.78,2.78,0,0,1-1.26.27c-1.47,0-2.4-.42-2.4-2.1V13.55c0-2.76,1.23-3.6,3.48-3.63-1.11-2-1.17-2.13-1.17-2.58,0-1.14,1.35-1.86,2.58-1.86.93,0,1.53.27,2.52,2.28a4.26,4.26,0,0,1,.63,2.16Zm-7.29,5.82a2.38,2.38,0,0,1,1.08-.3h14.73c1.14,0,1.68,0,2.19.42V14.42a.55.55,0,0,0-.63-.6H174.44a.54.54,0,0,0-.6.6Z"/><path class="cls-1" d="M224,6.17c2.25,0,3.57.75,3.57,3.54V16c0,1.32,0,2.79-1.2,3.36-.66.33-.93.36-3.45.36h-.81c-1.14,0-2.25,0-2.43-1.71a11.46,11.46,0,0,1-3.87.93,1.11,1.11,0,0,1,.63.93c0,.09-.15.6-.18.72h5.88c2.25,0,3.57.75,3.57,3.57v5.55c0,2.73-1.23,3.57-3.57,3.57H206.51c-2.34,0-3.54-.84-3.54-3.57V24.14c0-2.79,1.29-3.57,3.54-3.57h5.37c.42-1.05.48-1.17.69-1.38a4.71,4.71,0,0,1-2.64.51,24.91,24.91,0,0,1-3.06-.06c-.51-.09-1.2-.48-1.26-1.8-2.73,1.11-3.3,1.26-3.84,1.26-1.35,0-1.71-.93-1.71-1.86a1.59,1.59,0,0,1,1.29-1.68c.6-.24,3.27-1.14,3.81-1.35-.69.09-.81-.06-2.25-1.14s-1.8-1.29-1.8-2a1.91,1.91,0,0,1,.57-1.35,1.57,1.57,0,0,1-1.56-1.77A1.63,1.63,0,0,1,202,6.17h7.92c2.25,0,3.57.75,3.57,3.54V16c0,1.41,0,2.31-.78,3.06a2.62,2.62,0,0,1,1.53-.39,5.21,5.21,0,0,1,1.17.15,2.32,2.32,0,0,1-.9-1.92c0-.81.39-1.26,1.35-1.59.48-.18,2.64-.84,3.06-1-.39-.09-.54-.21-1.92-1.14-1.8-1.17-2-1.29-2-2.07a1.92,1.92,0,0,1,.6-1.38A1.61,1.61,0,0,1,214.22,8a1.64,1.64,0,0,1,1.89-1.8ZM204.68,9.74c2.07,1.35,2.28,1.71,2.28,2.4a2.17,2.17,0,0,1-1,1.77,2.22,2.22,0,0,1,.93-.24,1.76,1.76,0,0,1,1.53,2.22c.51,0,.75-.09.75-.81V10.52c0-.54-.27-.78-.75-.78Zm16.59,15.6v-1a.51.51,0,0,0-.57-.57H208.1a.51.51,0,0,0-.57.57v1Zm0,3H207.53v1a.51.51,0,0,0,.57.57h12.6a.51.51,0,0,0,.57-.57Zm2-17.85a.69.69,0,0,0-.78-.78h-3.87c2.25,1.29,2.52,1.8,2.52,2.46a2.44,2.44,0,0,1-.69,1.53,1.78,1.78,0,0,1,.51-.06c1.92,0,1.65,2.13,1.65,2.19.48,0,.66-.12.66-.87Z"/><path class="cls-1" d="M237.41,31.7a1.91,1.91,0,0,1-2.13,2.19c-1.74,0-2.46-.57-2.46-2.19V13.55c0-3.24,1.44-4.14,4.17-4.14h6.36V7.55a2,2,0,0,1,2.22-2.22c1.8,0,2.52.63,2.52,2.22V9.41h6.57c2.7,0,4.14.9,4.14,4.14V29.6c0,4.2-2.4,4.2-5.85,4.2a13.46,13.46,0,0,1-3-.21,2.19,2.19,0,0,1-1.26-2.19A2,2,0,0,1,251,29.15c.39,0,2.22.06,2.52,0a.88.88,0,0,0,.75-1V25.82A2.54,2.54,0,0,1,252,27.68c-1.08,0-2-.75-3.6-2.76a15.79,15.79,0,0,1-2.64-5.13,16.38,16.38,0,0,1-3.21,5.82c-1.8,2-2.61,2-3.06,2a2.28,2.28,0,0,1-2.07-1.38Zm0-7.92c.3-.45,2.28-2.37,2.7-2.82a13.91,13.91,0,0,0,3-7.14h-4.77a.84.84,0,0,0-.93.93Zm11-10a15,15,0,0,0,5.13,9.39,3.22,3.22,0,0,1,.75,1V14.75a.85.85,0,0,0-.93-.93Z"/><path class="cls-1" d="M266.6,26.24c0-.27,0-.54,0-1a4.38,4.38,0,0,1-1.41.3,2.24,2.24,0,0,1-2.07-2.37c0-1.35,1-1.68,1.8-1.95a23.93,23.93,0,0,0,8.52-4.17,5.34,5.34,0,0,1,3.9-1.44A4.93,4.93,0,0,1,281.15,17a22.76,22.76,0,0,0,8.55,4.26c1.08.36,1.8.75,1.8,2a2.29,2.29,0,0,1-2.07,2.43,4.9,4.9,0,0,1-1.38-.27,6.28,6.28,0,0,1,0,.78v3.6c0,2.82-1.29,3.63-3.63,3.63H270.23c-2.37,0-3.63-.81-3.63-3.63Zm20.73-18.6c2.37,0,3.66.81,3.66,3.63V13.1c0,.6-.09,2-2.13,2-1,0-2.4-.3-2.4-2v-.9a.73.73,0,0,0-.81-.81H269.06a.73.73,0,0,0-.81.81v.93a2,2,0,0,1-2.31,2c-1.59,0-2.19-.66-2.19-2V11.27c0-2.67,1.11-3.63,3.63-3.63h7.53V6.92c0-1.44,1.2-1.74,2.22-1.74,1.47,0,2.64.27,2.64,1.74v.72ZM273.2,16.19c-2,1.38-5.79,3.36-7,3.36a2.12,2.12,0,0,1-1.95-2.25c0-1.14.3-1.26,3-2.28a22.39,22.39,0,0,0,4.5-2.58,2.56,2.56,0,0,1,1.59-.6,2,2,0,0,1,2,2.16C275.42,14.51,275,15,273.2,16.19Zm10.29,10.68a.57.57,0,0,0-.63-.63H271.7a.55.55,0,0,0-.6.63V29a.56.56,0,0,0,.6.63h11.16a.57.57,0,0,0,.63-.63Zm-1.62-4.26c-1.65-1-3.66-2.55-4.11-2.91-.24-.21-.27-.24-.39-.24s-.27.09-.42.21a18.89,18.89,0,0,1-4.11,2.94Zm2.58-9.24a16.22,16.22,0,0,0,4.71,2.4,1.69,1.69,0,0,1,1.35,1.68,2.18,2.18,0,0,1-2,2.25c-1.26,0-3.69-1.44-5-2.28-3.93-2.46-4.17-3-4.17-3.69a2.13,2.13,0,0,1,2.34-1.89C282.35,11.84,282.59,12,284.45,13.37Z"/></svg>