<svg id="materials" xmlns="http://www.w3.org/2000/svg" xmlns:xlink="http://www.w3.org/1999/xlink" viewBox="0 0 240 240"><defs><style>.cls-1{fill:none;}.cls-2{fill:#60605d;}.cls-3{fill:#515556;}.cls-4{fill:#62d2dd;}.cls-5{clip-path:url(#clip-path);}.cls-6{fill:#826427;}.cls-7{fill:#6d6d69;}.cls-8{fill:#f9e4d4;}.cls-9{fill:#2d88ea;}.cls-10{fill:#b6ecf2;}.cls-11{fill:#ddddd3;}.cls-12{fill:#f8ed00;}.cls-13{fill:#a39916;}</style><clipPath id="clip-path"><rect class="cls-1" x="31.74" y="84.5" width="173.23" height="102.41"/></clipPath></defs><title>video-chat</title><rect class="cls-2" x="18.11" y="69.98" width="200.49" height="136.67" rx="20.34" ry="20.34"/><path class="cls-3" d="M198.26,71.54A18.83,18.83,0,0,1,217,90.32v96a18.83,18.83,0,0,1-18.77,18.78H38.45a18.83,18.83,0,0,1-18.78-18.78v-96A18.83,18.83,0,0,1,38.45,71.54H198.26m0-3.13H38.45A21.94,21.94,0,0,0,16.54,90.32v96a21.94,21.94,0,0,0,21.91,21.91H198.26a21.93,21.93,0,0,0,21.9-21.91v-96A21.93,21.93,0,0,0,198.26,68.41Z"/><rect class="cls-4" x="30.95" y="83.72" width="174.8" height="103.97"/><path class="cls-3" d="M205,84.5V186.91H31.74V84.5H205m1.56-1.57H30.17V188.47H206.53V82.93Z"/><g class="cls-5"><path class="cls-6" d="M138.91,100.76a29.32,29.32,0,0,0-18.67-6.69,33.14,33.14,0,0,0-17.71,5C93.29,104,86.38,113,83.94,124.88a26.23,26.23,0,0,0-1,6.46h.12C83,132.41,83,133.5,83,134.6c0,23.93,16.27,43.33,36.34,43.33s36.34-19.4,36.34-43.33C155.65,119.29,149,107.36,138.91,100.76Z"/><path class="cls-3" d="M138.91,100.76l.52-.65a30.21,30.21,0,0,0-19.19-6.87,34,34,0,0,0-18.15,5.14l.44.71-.39-.73c-9.47,5-16.53,14.24-19,26.35l.81.17-.8-.21a26.65,26.65,0,0,0-1,6.67v.83h1v-.83l-.83-.05c-.07,1.08-.12,2.18-.12,3.31A48.5,48.5,0,0,0,93,165.77c6.7,8,16,13,26.33,13s19.63-5,26.33-13a48.5,48.5,0,0,0,10.84-31.17c0-15.55-6.8-27.78-17.11-34.54l-.46.7.52-.65-.52.65-.46.69c9.82,6.45,16.36,18.08,16.36,33.15a46.81,46.81,0,0,1-10.44,30.1c-6.45,7.69-15.3,12.4-25.06,12.4s-18.61-4.71-25.06-12.4A46.87,46.87,0,0,1,83.8,134.6c0-1.08,0-2.15.12-3.2l0-.89H83v.83h.83a24.74,24.74,0,0,1,1-6.24v0c2.4-11.67,9.14-20.46,18.16-25.22l0,0h0a32.33,32.33,0,0,1,17.28-4.89,28.48,28.48,0,0,1,18.15,6.5l0,0,0,0Z"/><path class="cls-7" d="M112.27,235.25c-2.26,0-4-1.13-4.46-2.81s2-3.29,4.33-4.45L110.3,199.4a.64.64,0,0,1,.17-.47.65.65,0,0,1,.45-.2h6.52a.63.63,0,0,1,.63.63v29.81l0,.2a4.56,4.56,0,0,1,.18.52,3.58,3.58,0,0,1-.91,3.2A6.45,6.45,0,0,1,114,235,7.13,7.13,0,0,1,112.27,235.25Z"/><path class="cls-3" d="M117.44,199.36v29.81l-.1.2a2.7,2.7,0,0,1,.27.66c.45,1.81-1.25,3.79-3.79,4.41a6.5,6.5,0,0,1-1.55.19c-1.91,0-3.51-.9-3.86-2.34s2.58-3.06,4.38-3.93l-1.87-29h6.52m0-1.25h-6.52a1.26,1.26,0,0,0-.91.39,1.29,1.29,0,0,0-.33.94l1.81,28.17c-1.89,1-4.84,2.72-4.29,5,.48,2,2.52,3.29,5.07,3.29a7.73,7.73,0,0,0,1.84-.23c3.26-.8,5.33-3.4,4.71-5.91a3.19,3.19,0,0,0-.13-.44V199.36A1.24,1.24,0,0,0,117.44,198.11Z"/><path class="cls-7" d="M129.12,235.25a7,7,0,0,1-1.69-.21c-2.87-.7-4.78-3-4.26-5.15a4.56,4.56,0,0,1,.18-.52l0-.2V199.36a.63.63,0,0,1,.63-.63h6.52a.63.63,0,0,1,.45.2.64.64,0,0,1,.17.47L129.25,228c2.33,1.16,4.77,2.68,4.34,4.45S131.38,235.25,129.12,235.25Z"/><path class="cls-3" d="M130.47,199.36l-1.86,29c1.79.87,4.73,2.45,4.37,3.93s-1.95,2.34-3.86,2.34a6.36,6.36,0,0,1-1.54-.19c-2.54-.62-4.24-2.6-3.8-4.41a2.38,2.38,0,0,1,.28-.66l-.11-.2V199.36h6.52m0-1.25H124a1.25,1.25,0,0,0-1.25,1.25V229.3a2.25,2.25,0,0,0-.14.44c-.62,2.51,1.45,5.11,4.71,5.91a7.73,7.73,0,0,0,1.84.23c2.55,0,4.59-1.33,5.07-3.29.55-2.26-2.4-4-4.29-5l1.81-28.17a1.29,1.29,0,0,0-.33-.94A1.26,1.26,0,0,0,130.47,198.11Z"/><path class="cls-8" d="M88,204.05a2.25,2.25,0,0,1-.85-.16,3,3,0,0,1-1.42-4,3.2,3.2,0,0,1,2.85-2.18,2.48,2.48,0,0,1,.86.16A2.54,2.54,0,0,1,91,199.5a3.46,3.46,0,0,1-.07,2.37A3.2,3.2,0,0,1,88,204.05Z"/><path class="cls-3" d="M88.61,198.15a1.94,1.94,0,0,1,.71.13,2.6,2.6,0,0,1,1.18,3.44A2.78,2.78,0,0,1,88,203.63a1.93,1.93,0,0,1-.7-.13,2.59,2.59,0,0,1-1.18-3.44,2.79,2.79,0,0,1,2.46-1.91m0-.83h0a3.61,3.61,0,0,0-3.24,2.45,4,4,0,0,0-.08,2.65A3,3,0,0,0,87,204.28a2.85,2.85,0,0,0,1,.18A3.61,3.61,0,0,0,91.28,202a3.44,3.44,0,0,0-1.66-4.52A2.87,2.87,0,0,0,88.61,197.32Z"/><path class="cls-7" d="M94,201.84l-.32-.08-6.84-4.08a.65.65,0,0,1-.29-.4.61.61,0,0,1,.09-.49l22.68-34.11a.61.61,0,0,1,.46-.28h.06a.63.63,0,0,1,.45.18l2.18,2.22a.62.62,0,0,1,.12.72l-18,36a.63.63,0,0,1-.38.32Z"/><path class="cls-3" d="M109.79,163l2.19,2.22-18,36-6.84-4.08L109.79,163m0-1.25h-.12a1.25,1.25,0,0,0-.92.55L86.07,196.45a1.24,1.24,0,0,0,.4,1.76l6.84,4.08a1.24,1.24,0,0,0,.64.18l.35-.05a1.26,1.26,0,0,0,.77-.64l18-36a1.26,1.26,0,0,0-.22-1.44l-2.19-2.22A1.3,1.3,0,0,0,109.79,161.77Z"/><path class="cls-8" d="M152.37,204.05a3.19,3.19,0,0,1-2.85-2.18,3,3,0,0,1,1.42-4,2.46,2.46,0,0,1,.85-.16,3.21,3.21,0,0,1,2.86,2.18,3,3,0,0,1-1.42,4A2.3,2.3,0,0,1,152.37,204.05Z"/><path class="cls-3" d="M151.79,198.15a2.81,2.81,0,0,1,2.47,1.91,2.59,2.59,0,0,1-1.18,3.44,1.94,1.94,0,0,1-.71.13,2.77,2.77,0,0,1-2.46-1.91,2.59,2.59,0,0,1,1.18-3.44,1.89,1.89,0,0,1,.7-.13m0-.83a2.85,2.85,0,0,0-1,.18,3.43,3.43,0,0,0-1.66,4.52,3.61,3.61,0,0,0,3.24,2.44,2.81,2.81,0,0,0,1-.18,2.93,2.93,0,0,0,1.74-1.86,3.9,3.9,0,0,0-.07-2.65A3.62,3.62,0,0,0,151.79,197.32Z"/><path class="cls-7" d="M146.53,201.84l-.18,0a.63.63,0,0,1-.38-.32l-18-36a.62.62,0,0,1,0-.59l1.26-2.22a.62.62,0,0,1,.51-.31h0a.63.63,0,0,1,.51.27l23.62,34.11a.62.62,0,0,1-.2.9l-6.84,4.08Z"/><path class="cls-3" d="M129.76,163l23.62,34.12-6.85,4.08-18-36,1.26-2.22m0-1.25h-.06a1.21,1.21,0,0,0-1,.63l-1.25,2.21a1.24,1.24,0,0,0,0,1.18l18,36a1.24,1.24,0,0,0,.76.64l.35.05a1.24,1.24,0,0,0,.64-.18l6.84-4.08a1.23,1.23,0,0,0,.58-.81,1.2,1.2,0,0,0-.19-1l-23.62-34.12A1.23,1.23,0,0,0,129.76,161.77Z"/><path class="cls-9" d="M120.21,219.75a43,43,0,0,1-16.3-3.85c-.07,0-6.48-3.05-6.46-4.35v-.81h0c.26-4.93,2.78-12.43,5-19.09,1.77-5.29,3.45-10.29,3.45-12.48a27.49,27.49,0,0,1,4.28-14.67c-.92-.49-1.67-1.14-1.48-2.06.22-1.12,2.32-2.45,11-2.45s10.79,1.33,11,2.45c.19.92-.56,1.57-1.48,2.06a27.49,27.49,0,0,1,4.28,14.67c0,2.19,1.68,7.19,3.45,12.48,2.24,6.65,4.76,14.15,5,19.08h0l0,.83c0,1.23-9,7.74-21.83,8.19h-.06Z"/><path class="cls-3" d="M119.77,160.82c6.82,0,13.63,1.11,8.32,3.34a26.65,26.65,0,0,1,4.67,15c0,5.28,8.5,23.89,8.5,32.39h0c.3,0-7.46,6.88-21,7.36-13.56-.48-22.24-7.36-21.95-7.36h0c0-8.5,8.5-27.11,8.5-32.39a26.65,26.65,0,0,1,4.67-15c-5.31-2.23,1.5-3.34,8.31-3.34m0-1.66c-11.2,0-11.66,2.26-11.83,3.12a2.45,2.45,0,0,0,1.16,2.49,28.37,28.37,0,0,0-4,14.4c0,2.06-1.74,7.22-3.41,12.21-2.14,6.36-4.53,13.48-5,18.51h-.07l0,1.65c0,.93.53,1.44,2.3,2.59a35.82,35.82,0,0,0,4.64,2.53,44,44,0,0,0,16.62,3.93h.12a40.47,40.47,0,0,0,16.18-3.93,30.14,30.14,0,0,0,4.34-2.55c1.81-1.29,2.13-1.79,2.12-2.57l0-1.63h-.07c-.48-5-2.87-12.16-5-18.53-1.67-5-3.41-10.15-3.41-12.21a28.37,28.37,0,0,0-4-14.4,2.45,2.45,0,0,0,1.16-2.49C131.44,161.42,131,159.16,119.77,159.16Z"/><path class="cls-10" d="M119.31,174.62c-5.8,0-7.87-3.59-7.87-6.94,0-3.83,3.53-6.94,7.87-6.94s7.87,3.11,7.87,6.94C127.18,171,125.11,174.62,119.31,174.62Z"/><path class="cls-3" d="M119.31,161.16c4.12,0,7.45,2.92,7.45,6.52s-2.35,6.52-7.45,6.52-7.46-2.92-7.46-6.52,3.34-6.52,7.46-6.52m0-.83c-4.57,0-8.29,3.29-8.29,7.35,0,3.55,2.18,7.35,8.29,7.35s8.28-3.8,8.28-7.35C127.59,163.62,123.88,160.33,119.31,160.33Z"/><path class="cls-8" d="M146.38,131.34H109.06l-5.59-11.18-5,11.18H91.3v.23c-.19,3.4-4.73,7.38-4.61,14.83.21,12.76,14,20.69,31.9,20.87h.49c17.86-.18,31.69-8.11,31.89-20.87.13-7.45-4.41-11.43-4.6-14.83Z"/><path class="cls-3" d="M146.38,131.34v-.83H109.06v.83l.74-.37-6.37-12.76L97.74,131l.76.34v-.83h-8v1h0a6.77,6.77,0,0,1-.73,2.37c-1.26,2.74-3.88,6.51-3.88,12.22v.31a17.21,17.21,0,0,0,2.69,9c2.53,4,6.66,7.12,11.83,9.26a49.36,49.36,0,0,0,18.2,3.38v-.83h-.83v.84h2.15v-.85h-.83v.83c9.05-.09,17.11-2.14,23-5.84a22.23,22.23,0,0,0,7-6.8,17.3,17.3,0,0,0,2.69-9v-.31a20,20,0,0,0-2.32-9.1c-.58-1.18-1.15-2.21-1.57-3.12a6.74,6.74,0,0,1-.72-2.36h0v-.17h-.78l.78.08v-.08h-.78l.78.08.1-.92h-.93v.83l-.82-.09v.09h0v.27h0a8.53,8.53,0,0,0,.87,3c1.39,3,3.73,6.33,3.73,11.52v.28a15.55,15.55,0,0,1-2.43,8.19c-2.29,3.62-6.12,6.56-11.06,8.6a47.62,47.62,0,0,1-17.58,3.26h-.82v.83h.83v-.83h-.51v.83h.83v-.82h-.82c-8.81-.09-16.6-2.1-22.14-5.59a20.47,20.47,0,0,1-6.5-6.27,15.64,15.64,0,0,1-2.44-8.19v-.28a18.28,18.28,0,0,1,2.15-8.37c.55-1.13,1.12-2.16,1.58-3.15a8.35,8.35,0,0,0,.88-3v-.28H91.3v.83H99l4.47-10.06,5,10.06h37.83v-.83l-.82-.09Z"/><ellipse class="cls-3" cx="103.36" cy="146" rx="3.81" ry="7.04"/><ellipse class="cls-3" cx="135.26" cy="146" rx="3.81" ry="7.04"/><path class="cls-3" d="M118.46,152.17a3.9,3.9,0,0,1-2.08-.56,1.28,1.28,0,0,1,0-2.35,3.81,3.81,0,0,1,2.08-.56.41.41,0,0,0,.41-.42.41.41,0,0,0-.41-.41,4.65,4.65,0,0,0-2.54.69,2.1,2.1,0,0,0,0,3.74,4.65,4.65,0,0,0,2.54.7.41.41,0,0,0,.41-.42A.41.41,0,0,0,118.46,152.17Z"/></g><path class="cls-11" d="M23.64,216.22c-5.55,0-13.12-3.35-16.86-7.46l-.42-.47c-2.86-3.15-2.47-5.48-2-6.59s2-3,6.21-3H98.86c5.28,0,11,1.51,11,4.83.27.39,3,1.7,7.83,1.7h4.72c4.88,0,7.56-1.31,7.85-1.85,0-3.17,5.65-4.68,10.93-4.68h88.27c4.26,0,5.72,1.86,6.21,3s.88,3.44-2,6.59l-.42.47c-3.74,4.11-11.31,7.46-16.86,7.46Z"/><path class="cls-3" d="M229.41,200.29c5.16,0,6.55,3.13,3.07,7l-.42.47c-3.47,3.82-10.54,6.94-15.7,6.94H23.64c-5.16,0-12.23-3.12-15.7-6.94l-.42-.47c-3.48-3.82-2.1-7,3.07-7H98.86c5.17,0,9.39,1.47,9.39,3.27s4.23,3.26,9.39,3.26h4.72c5.16,0,9.39-1.47,9.39-3.26s4.22-3.27,9.39-3.27h88.27m0-3.13H141.14c-5.37,0-11.57,1.45-12.42,5.44a15.64,15.64,0,0,1-6.36,1.09h-4.72a15.64,15.64,0,0,1-6.36-1.09c-.85-4-7-5.44-12.42-5.44H10.59c-5.14,0-7,2.45-7.64,3.91s-1.21,4.47,2.25,8.27l.42.47c4.07,4.47,12,8,18,8H216.36c6,0,13.95-3.5,18-8l.42-.46c3.46-3.81,2.89-6.83,2.25-8.28S234.55,197.16,229.41,197.16Z"/><path class="cls-11" d="M122.61,76.27A2.61,2.61,0,1,1,120,73.66,2.61,2.61,0,0,1,122.61,76.27Z"/><path class="cls-3" d="M122.61,76.27h-.78A1.83,1.83,0,1,1,120,74.44a1.83,1.83,0,0,1,1.83,1.83h1.56A3.39,3.39,0,1,0,120,79.66a3.39,3.39,0,0,0,3.39-3.39Z"/><path class="cls-12" d="M143,107.2a1.4,1.4,0,0,1-1.05-.48,1.39,1.39,0,0,1-.05-1.75c3.92-5.16,8.16-11.47,8.82-13.54-12.22-7.25-19.21-18.08-19.21-29.81,0-21,22.72-38,50.64-38s50.63,17,50.63,38-22.71,38-50.63,38a66.22,66.22,0,0,1-17.48-2.32c-2.09,0-13.56,5.69-21,9.72A1.3,1.3,0,0,1,143,107.2Z"/><path class="cls-3" d="M182.17,25c27.2,0,49.25,16.39,49.25,36.62s-22,36.62-49.25,36.62A64.82,64.82,0,0,1,165.06,96l-.3,0c-3.49,0-21.74,9.88-21.74,9.88s10.8-14.2,9-15.24c-11.61-6.7-19.09-17.18-19.09-28.95C132.92,41.39,155,25,182.17,25m0-2.78c-28.69,0-52,17.67-52,39.4C130.14,73.51,137,84.49,149,92a104.66,104.66,0,0,1-8.17,12.14,2.78,2.78,0,0,0,3.53,4.13c8.06-4.36,17.93-9.15,20.3-9.53A67.05,67.05,0,0,0,182.17,101c28.68,0,52-17.67,52-39.39S210.85,22.22,182.17,22.22Z"/><path class="cls-13" d="M213.34,74.51H152a1.14,1.14,0,0,1-1.13-1.13V72.24A1.14,1.14,0,0,1,152,71.11h61.31a1.14,1.14,0,0,1,1.13,1.13v1.14A1.14,1.14,0,0,1,213.34,74.51Zm0-8.45H152a1.14,1.14,0,0,1-1.13-1.14V63.79A1.14,1.14,0,0,1,152,62.65h61.31a1.14,1.14,0,0,1,1.13,1.14v1.13A1.14,1.14,0,0,1,213.34,66.06Zm0-8.46H152a1.14,1.14,0,0,1-1.13-1.13V55.33A1.14,1.14,0,0,1,152,54.2h61.31a1.14,1.14,0,0,1,1.13,1.13v1.14A1.14,1.14,0,0,1,213.34,57.6Zm0-8.45H152A1.14,1.14,0,0,1,150.9,48V46.88A1.14,1.14,0,0,1,152,45.74h61.31a1.14,1.14,0,0,1,1.13,1.14V48A1.14,1.14,0,0,1,213.34,49.15Z"/></svg>