<svg id="materials" xmlns="http://www.w3.org/2000/svg" viewBox="0 0 240 240"><defs><style>.cls-1{fill:#41b883;}.cls-2{fill:#474747;}.cls-3{fill:#34495e;}</style></defs><path class="cls-1" d="M120,202.26a1.83,1.83,0,0,1-1.58-.91L25.67,40.47a1.82,1.82,0,0,1,0-1.82,1.84,1.84,0,0,1,1.58-.91H97.92a1.81,1.81,0,0,1,1.56.89l20.45,34.5,19.85-34.48a1.84,1.84,0,0,1,1.58-.91h71.39a1.82,1.82,0,0,1,1.58,2.73L121.6,201.35A1.81,1.81,0,0,1,120,202.26Z"/><path class="cls-2" d="M212.75,39.56h0m0,0L120,200.44,27.25,39.56H97.92l22,37.17,21.41-37.17h71.39m0-3.64h-71.4a3.63,3.63,0,0,0-3.15,1.82l-18.3,31.78L101.05,37.7a3.66,3.66,0,0,0-3.13-1.78H27.25a3.64,3.64,0,0,0-3.16,5.46l92.78,160.88a3.64,3.64,0,0,0,6.31,0L215.85,41.48a3.7,3.7,0,0,0,.54-1.92A3.63,3.63,0,0,0,212.76,35.92Zm0,7.28h0Z"/><polygon class="cls-3" points="63.56 39.56 120.03 136.05 175.84 39.56 141.36 39.56 119.95 76.73 97.92 39.56 63.56 39.56"/></svg>