<svg id="materials" xmlns="http://www.w3.org/2000/svg" viewBox="0 0 240 240"><defs><style>.cls-1{fill:#ef4d4d;}.cls-2{fill:#474747;}.cls-3{fill:#fff;}</style></defs><title>warning</title><g id="warning"><path class="cls-1" d="M34.84,223.71A28.69,28.69,0,0,1,9.9,180.85L62.05,89l33-58.13a28.68,28.68,0,0,1,49.9,0l85.16,150a28.7,28.7,0,0,1-25,42.86Z"/><path class="cls-2" d="M120,21.63A23.29,23.29,0,0,1,140.3,33.46l85.17,150a23.36,23.36,0,0,1-20.32,34.88H34.84a23.35,23.35,0,0,1-20.3-34.88l85.15-150A23.33,23.33,0,0,1,120,21.63M120,11a34.09,34.09,0,0,0-29.6,17.24l-85.16,150a34,34,0,0,0,29.59,50.83H205.15a34,34,0,0,0,29.61-50.82l-85.17-150A34,34,0,0,0,120,11Z"/><path class="cls-3" d="M121.57,198.18a18.59,18.59,0,0,1-12.51-4.64c-3.71-3.24-5.67-7.86-5.67-13.37a17.87,17.87,0,0,1,18-17.92,18.05,18.05,0,0,1,12.83,5.18,17.55,17.55,0,0,1,5.37,12.74c0,5.5-1.87,10-5.59,13.29A18.26,18.26,0,0,1,121.57,198.18Z"/><path class="cls-2" d="M121.4,165.8A14.4,14.4,0,0,1,131.74,170,13.9,13.9,0,0,1,136,180.17a13.51,13.51,0,0,1-4.4,10.63,14.71,14.71,0,0,1-10.06,3.82,15.15,15.15,0,0,1-10.18-3.77c-2.94-2.57-4.44-6.16-4.44-10.68A14.32,14.32,0,0,1,121.4,165.8m0-7.11a21.43,21.43,0,0,0-21.57,21.48c0,6.57,2.38,12.12,6.88,16a22.38,22.38,0,0,0,14.86,5.53,22,22,0,0,0,14.78-5.61,20.66,20.66,0,0,0,6.8-16,21,21,0,0,0-6.42-15.25A21.54,21.54,0,0,0,121.4,158.69Z"/><path class="cls-3" d="M121.06,157.32A11.56,11.56,0,0,1,110,150.45c-1.47-3.21-2.46-7.65-3-13.59l-2.78-41.45c-.52-8.2-.77-14-.77-17.66,0-6.08,1.72-11,5.11-14.64a18.08,18.08,0,0,1,13.58-5.62c8.74,0,12.7,4.34,14.48,8,2,4.19,3,9.75,3,17a120.53,120.53,0,0,1-.63,12L135.26,137c-.46,5.73-1.47,10.14-3.09,13.44A11.81,11.81,0,0,1,121.06,157.32Z"/><path class="cls-2" d="M122.09,61.05c5.55,0,9.34,2,11.29,6,1.78,3.66,2.66,8.72,2.66,15.47a113.69,113.69,0,0,1-.62,11.69l-3.71,42.48c-.42,5.29-1.31,9.29-2.73,12.19a8.33,8.33,0,0,1-7.92,4.9,8.08,8.08,0,0,1-7.85-4.8c-1.29-2.81-2.18-6.87-2.72-12.44l-2.77-41.35C107.2,87,107,81.3,107,77.75c0-5.15,1.4-9.26,4.16-12.21a14.4,14.4,0,0,1,11-4.49m0-7.12a21.54,21.54,0,0,0-16.17,6.74c-4,4.33-6.08,10.07-6.08,17.08,0,3.81.26,9.65.78,17.88L103.39,137l0,.2c.62,6.43,1.68,11.11,3.33,14.72a15.14,15.14,0,0,0,14.32,9A15.42,15.42,0,0,0,135.37,152c1.81-3.71,2.94-8.53,3.44-14.75l3.7-42.43a121.74,121.74,0,0,0,.65-12.31c0-7.83-1.11-13.9-3.38-18.58C138,60.18,133.22,53.93,122.09,53.93Z"/></g></svg>