<svg id="materials" xmlns="http://www.w3.org/2000/svg" viewBox="0 0 240 240"><defs><style>.cls-1{fill:#f0f941;}.cls-2{fill:#515556;}.cls-3{fill:#788d9a;}.cls-4{fill:#f1786b;}.cls-5{fill:#fdc77c;}.cls-6{fill:#5ac8ae;}.cls-7{fill:#445c6c;}.cls-8{fill:#9b592c;}.cls-9{fill:#fff;}</style></defs><title>web-service</title><path class="cls-1" d="M4.5,59.25V204.57a8.94,8.94,0,0,0,9,9h213a8.94,8.94,0,0,0,9-9V59.25Z"/><path class="cls-2" d="M4.5,59.25H2.6V204.57A10.84,10.84,0,0,0,13.52,215.5h213a10.84,10.84,0,0,0,10.92-10.93V57.35H2.6v1.9H4.5v1.9H233.61V204.57a7.15,7.15,0,0,1-2.06,5.07,7.07,7.07,0,0,1-5.07,2.06h-213a7.07,7.07,0,0,1-5.07-2.06,7.15,7.15,0,0,1-2.06-5.07V59.25H4.5v0Z"/><path class="cls-3" d="M235.51,35.42a8.94,8.94,0,0,0-9-9h-213a8.93,8.93,0,0,0-9,9V59.61h231Z"/><path class="cls-2" d="M235.51,35.42h1.89A10.84,10.84,0,0,0,226.48,24.5h-213A10.84,10.84,0,0,0,2.6,35.42V61.51H237.4V35.42h-3.79V57.71H6.39V35.42a7.15,7.15,0,0,1,2.06-5.06,7.07,7.07,0,0,1,5.07-2.06h213a7.07,7.07,0,0,1,5.07,2.06,7.15,7.15,0,0,1,2.06,5.06Z"/><path class="cls-4" d="M30.48,36.87A6.14,6.14,0,1,1,24.35,43,6.14,6.14,0,0,1,30.48,36.87Z"/><path class="cls-2" d="M30.48,36.87v1A5.19,5.19,0,1,1,25.3,43a5.19,5.19,0,0,1,5.18-5.19v-1.9A7.09,7.09,0,1,0,37.57,43a7.08,7.08,0,0,0-7.09-7.09Z"/><path class="cls-5" d="M50,36.87A6.14,6.14,0,1,1,43.84,43,6.14,6.14,0,0,1,50,36.87Z"/><path class="cls-2" d="M50,36.87v1A5.19,5.19,0,1,1,44.79,43,5.19,5.19,0,0,1,50,37.82v-1.9A7.09,7.09,0,1,0,57.06,43,7.08,7.08,0,0,0,50,35.92Z"/><path class="cls-6" d="M69.83,36.87A6.14,6.14,0,1,1,63.69,43,6.13,6.13,0,0,1,69.83,36.87Z"/><path class="cls-2" d="M69.83,36.87v1A5.19,5.19,0,1,1,64.64,43a5.18,5.18,0,0,1,5.19-5.19v-1.9A7.09,7.09,0,1,0,76.91,43a7.08,7.08,0,0,0-7.08-7.09Z"/><path class="cls-7" d="M209.52,36.87H101.23a6.14,6.14,0,1,0,0,12.27H209.88c2.89-.36,5.77-2.89,5.77-6.13A6.08,6.08,0,0,0,209.52,36.87Z"/><path class="cls-2" d="M209.52,36.87v-.95H101.23a7.14,7.14,0,0,0-4.94,2A7,7,0,0,0,94.15,43a7.15,7.15,0,0,0,2,4.94,7,7,0,0,0,5.11,2.14H210a7.87,7.87,0,0,0,4.52-2.25A6.83,6.83,0,0,0,216.6,43a7,7,0,0,0-2.14-5.11,7.15,7.15,0,0,0-4.94-2v1.9A5.12,5.12,0,0,1,214.7,43a4.92,4.92,0,0,1-1.52,3.47,6,6,0,0,1-3.42,1.72l.12.94v-1H101.23a5.19,5.19,0,1,1,0-10.37H209.52Z"/><path class="cls-8" d="M109.29,92.75c-1.58,0-2.26.42-2.74,1.6-.3.7-.2,1.21.4,2.22a5.76,5.76,0,0,1,.88,4.92,20.3,20.3,0,0,1-1.73,3c-2.12,3.18-2.61,4.24-2.85,6.21a13.54,13.54,0,0,0,.18,3.61c.09.32,0,.4-1.22,1-5.75,3.06-9,6.38-10.35,10.72a9.72,9.72,0,0,0-.46,3.06,16.68,16.68,0,0,0,.1,2.84,30.2,30.2,0,0,0,.94,3.65l-.1.24a24.28,24.28,0,0,0-3.88,1.91c-5.72,3.65-7.84,9.75-6.06,17.41l.19.82-1.51.76a21.29,21.29,0,0,0-5.54,3.91,14.39,14.39,0,0,0-4.25,7.73,25.81,25.81,0,0,0,.08,6.67,11,11,0,0,0,1.68,4.75c3,4.54,7.94,6.44,15.07,5.82a96.06,96.06,0,0,0,9.75-1.49l5.57-1,1.42-.23,3.67.49c11,1.49,17.75,2.2,24.57,2.55,2.3.12,10.55-.05,12.64-.26a49.8,49.8,0,0,0,14.43-3.43,11.72,11.72,0,0,0,3.8-2.35,14.37,14.37,0,0,0,4.14-6.42,12,12,0,0,0-.5-7.14,17.86,17.86,0,0,0-9.49-9.33,4.58,4.58,0,0,1-1.1-.54c0-.05.18-.68.42-1.4a15,15,0,0,0,.93-5.7,12.48,12.48,0,0,0-2.06-7.38,20.14,20.14,0,0,0-4.5-4.53,35.27,35.27,0,0,0-4.09-2.23c-.17-.05-.17-.22,0-1.19a15.5,15.5,0,0,0,.16-4.4,11.6,11.6,0,0,0-6.63-8,27.27,27.27,0,0,0-4.1-1.52l-.57-.14,0-1c.23-4.52-3.06-10.79-8.5-16.2s-11.6-9-17-9.79A16,16,0,0,0,109.29,92.75Z"/><path class="cls-2" d="M109.29,92.75l0-1.57h-.21a5.57,5.57,0,0,0-1.3.13,3.45,3.45,0,0,0-1.72.9,4.26,4.26,0,0,0-1,1.54,3.24,3.24,0,0,0,0,2.54,7,7,0,0,0,.55,1.09,5.28,5.28,0,0,1,.89,2.66,2.79,2.79,0,0,1-.16.95h0l.41.14-.41-.16v0l.41.14-.41-.16v0a9.65,9.65,0,0,1-.56,1c-.28.48-.63,1-1,1.58a30,30,0,0,0-2.25,3.77,10.23,10.23,0,0,0-.85,3.12,9.27,9.27,0,0,0-.06,1.2c0,.51,0,1,.07,1.56a8.37,8.37,0,0,0,.21,1.41l1-.23h-1l0,.23,1-.23h.31l-1-.74a1.25,1.25,0,0,0-.23.74h1.28l-1-.74.77.54-.59-.74-.18.2.77.54-.59-.74.14.18-.14-.18h0l.14.18-.14-.18s-.3.19-.83.46a28.76,28.76,0,0,0-7.2,5.18,16.37,16.37,0,0,0-3.9,6.45,10.72,10.72,0,0,0-.39,1.58,18.2,18.2,0,0,0-.14,1.9c0,.33,0,.65,0,1a13.92,13.92,0,0,0,.13,2.19c.09.53.27,1.29.46,2.05.1.37.2.74.3,1.06s.17.6.26.84l1.17-.44H90.89a1.36,1.36,0,0,0,.08.44l1.17-.44h.18l-1.34-.5a1.43,1.43,0,0,0-.09.5h1.43l-1.34-.5,1.38.51-.74-1.27a1.53,1.53,0,0,0-.64.76l1.38.51-.74-1.27.72,1.22,0-1.41a1.39,1.39,0,0,0-.7.19l.72,1.22,0-1.41a1.69,1.69,0,0,0-.49.07,4.5,4.5,0,0,0-.44.16c-.5.2-1.19.53-1.9.89s-1.39.73-1.87,1a15.82,15.82,0,0,0-5.53,5.84,16.48,16.48,0,0,0-1.87,7.87,24.08,24.08,0,0,0,.65,5.39l.19.82,1.53-.36-.71-1.4-1.51.76a22.63,22.63,0,0,0-5.93,4.19,17.06,17.06,0,0,0-3,3.91,16.63,16.63,0,0,0-1.67,4.61,9.53,9.53,0,0,0-.17,1.42c0,.53,0,1.12,0,1.73s0,1.52.07,2.24a15.77,15.77,0,0,0,.22,1.91,21.77,21.77,0,0,0,.77,3.08,9.48,9.48,0,0,0,1.15,2.24,14,14,0,0,0,5.74,5,18.78,18.78,0,0,0,8.12,1.63q1.29,0,2.64-.12c2.43-.21,4.55-.54,9.9-1.51,2.28-.42,4.8-.87,5.55-1l1.18-.2,3.44.47c11,1.49,17.83,2.2,24.7,2.56.58,0,1.42,0,2.44,0,1.71,0,3.89,0,5.85-.09s3.68-.13,4.58-.22a51.82,51.82,0,0,0,14.9-3.54,17.6,17.6,0,0,0,2.26-1.13,15.45,15.45,0,0,0,1.95-1.48,16.3,16.3,0,0,0,2.85-3.36,13.88,13.88,0,0,0,1.78-3.85,12.17,12.17,0,0,0,.38-3.09,13.69,13.69,0,0,0-.94-5,18.08,18.08,0,0,0-4.13-6.05,19.37,19.37,0,0,0-6.23-4.15l-.68-.3-.09-.05,0,0-.4.69.48-.63-.08-.06-.4.69.48-.63-.85,1.13,1-1-.19-.18-.85,1.13,1-1-1.12,1,1.33-.76-.21-.27-1.12,1,1.33-.76-1.36.77,1.56-.05a1.69,1.69,0,0,0-.2-.72l-1.36.77,1.56-.05-1.57.05h.1l1.44.26a1,1,0,0,0,0-.26h-1.47l1.44.26-1-.17,1,.22v-.05l-1-.17,1,.22h0c0-.05.06-.23.13-.44s.15-.5.24-.78a21.35,21.35,0,0,0,.81-3.06,18.74,18.74,0,0,0,.2-3v-.11h0a16.37,16.37,0,0,0-.54-4.38,14,14,0,0,0-1.77-3.84,18.65,18.65,0,0,0-2.26-2.69,19.32,19.32,0,0,0-2.69-2.3c-.56-.37-1.45-.88-2.31-1.35-.44-.24-.85-.46-1.21-.64l-.5-.23a3.81,3.81,0,0,0-.45-.19h0l-.42,1.3.79-1.11-.37-.19-.42,1.3.79-1.11-.83,1.16,1.34-.49a1.42,1.42,0,0,0-.51-.67l-.83,1.16,1.34-.49L148,135h1.2a1.11,1.11,0,0,0-.08-.41L148,135h.64l.56,0v0h-.56l.56,0h0c0-.05.05-.29.13-.67a14,14,0,0,0,.21-1.61c.05-.59.07-1.2.07-1.76,0-.32,0-.62,0-.9a5.49,5.49,0,0,0-.11-.8,12.44,12.44,0,0,0-2.56-5.32,15,15,0,0,0-4.9-3.77,26.65,26.65,0,0,0-4.42-1.64l-.56-.15-.39,1.53,1.57.07.05-1c0-.17,0-.35,0-.52a18.12,18.12,0,0,0-2.48-8.35,37.15,37.15,0,0,0-6.5-8.53,44,44,0,0,0-8.84-6.87,26.28,26.28,0,0,0-9-3.35,17.87,17.87,0,0,0-2.11-.21l0,1.57,0,1.57a14.23,14.23,0,0,1,1.71.18,22.85,22.85,0,0,1,7.9,3,40.88,40.88,0,0,1,8.2,6.38,34,34,0,0,1,6,7.79,15.28,15.28,0,0,1,2.1,6.86v.37l-.05,1a1.56,1.56,0,0,0,1.18,1.6l.57.14a26.79,26.79,0,0,1,3.78,1.4,12,12,0,0,1,3.88,3,9.46,9.46,0,0,1,1.92,4s0,.15,0,.34,0,.42,0,.69c0,.47,0,1-.06,1.51a12,12,0,0,1-.15,1.2c-.06.26-.1.48-.14.68a3.72,3.72,0,0,0-.06.62,1.79,1.79,0,0,0,.25,1,1.84,1.84,0,0,0,.48.52,2.09,2.09,0,0,0,.47.24h0l.08-.27-.1.26h0l.08-.27-.1.26s.32.14.63.3c.47.24,1.1.57,1.68.9s1.13.66,1.41.84a16.18,16.18,0,0,1,2.2,1.91,15.49,15.49,0,0,1,1.85,2.17,10.91,10.91,0,0,1,1.39,3,13.55,13.55,0,0,1,.42,3.55h0v.12a14.45,14.45,0,0,1-.16,2.5,19.57,19.57,0,0,1-.69,2.61c-.12.36-.23.71-.31,1l-.1.35,0,.15,0,.1a2.85,2.85,0,0,0,0,.3v0a1.43,1.43,0,0,0,.18.68,2,2,0,0,0,.32.44l.28.21.29.16c.27.14.61.29,1,.46a16.42,16.42,0,0,1,5.21,3.48,15.14,15.14,0,0,1,3.42,5,10.77,10.77,0,0,1,.71,3.87,9.09,9.09,0,0,1-.28,2.29,10.66,10.66,0,0,1-1.38,3,13,13,0,0,1-2.27,2.69,11.81,11.81,0,0,1-1.54,1.18,14.29,14.29,0,0,1-1.84.91,48.5,48.5,0,0,1-14,3.31c-.7.07-2.44.15-4.36.2s-4.09.09-5.76.09c-1,0-1.81,0-2.28,0-6.76-.35-13.48-1-24.44-2.53l-3.67-.5h-.47l-1.41.23c-.81.13-3.31.58-5.61,1-5.34,1-7.31,1.27-9.59,1.47-.83.07-1.62.11-2.38.11a15.63,15.63,0,0,1-6.78-1.33,10.82,10.82,0,0,1-4.47-3.91,6.37,6.37,0,0,1-.8-1.55,19.42,19.42,0,0,1-.65-2.63,13.8,13.8,0,0,1-.17-1.51c0-.64-.06-1.36-.06-2s0-1.09,0-1.53a6.9,6.9,0,0,1,.11-1A13.33,13.33,0,0,1,74.18,165a13.68,13.68,0,0,1,2.47-3.19,19.28,19.28,0,0,1,5.14-3.61l1.51-.77a1.56,1.56,0,0,0,.82-1.75l-.19-.82a20.52,20.52,0,0,1-.57-4.68,13.26,13.26,0,0,1,1.5-6.39,12.6,12.6,0,0,1,4.45-4.67l.86-.5c.55-.29,1.21-.62,1.73-.87l.65-.29.14,0-.16-.48.12.49h0l-.16-.48.12.49-.31-1.28,0,1.31a1,1,0,0,0,.29,0l-.31-1.28,0,1.31a1.68,1.68,0,0,0,.54-.09,1.62,1.62,0,0,0,.86-.67,1.57,1.57,0,0,0,.27-.92,1.93,1.93,0,0,0-.12-.68c0-.07-.11-.31-.19-.59-.13-.43-.27-1-.4-1.5s-.23-1-.27-1.26A10.4,10.4,0,0,1,93,130c0-.28,0-.56,0-.85,0-.73.07-1.2.12-1.56a5.31,5.31,0,0,1,.27-1.08,13.12,13.12,0,0,1,3.17-5.23,25.68,25.68,0,0,1,6.42-4.59,11.1,11.1,0,0,0,1.18-.68,2.36,2.36,0,0,0,.56-.55,1.9,1.9,0,0,0,.34-1.06,3.09,3.09,0,0,0-.07-.52,8.22,8.22,0,0,1-.14-.94c0-.41,0-.87,0-1.28a5.67,5.67,0,0,1,0-.81,6.5,6.5,0,0,1,.59-2.2,26.71,26.71,0,0,1,2-3.34c.42-.65.83-1.31,1.17-1.88.16-.28.31-.55.43-.78a4.28,4.28,0,0,0,.31-.69h0a6.07,6.07,0,0,0,.32-1.94,8.35,8.35,0,0,0-1.34-4.28,3.89,3.89,0,0,1-.31-.59l0-.11h0v0l0-.1a2,2,0,0,1,.2-.4l.18-.14a2,2,0,0,1,.74-.09h.13Z"/><path class="cls-9" d="M135.19,132h-.32a8.43,8.43,0,0,0-5.63,2.79,14.1,14.1,0,0,0-3.72,9.27,14.78,14.78,0,0,0,3.82,11.15,8.09,8.09,0,0,0,5,2.59,17,17,0,0,0,2.4-.11,7.78,7.78,0,0,0,4.22-2.27,14.12,14.12,0,0,0,4-8.87,21.49,21.49,0,0,0-.11-3.92,15,15,0,0,0-3-7.19,12.64,12.64,0,0,0-1.91-1.83A8.31,8.31,0,0,0,135.19,132Zm-31.11,0a6.7,6.7,0,0,0-1.71.23,8.9,8.9,0,0,0-4,2.31A11.32,11.32,0,0,0,96,137.7a15.26,15.26,0,0,0-1.54,5.21,26.12,26.12,0,0,0,0,4.15,14.31,14.31,0,0,0,3,7.27,13.89,13.89,0,0,0,2.09,2,7.71,7.71,0,0,0,3.31,1.42,10.84,10.84,0,0,0,3.2-.16c4.25-1.09,7.55-6.08,7.82-11.86a14.7,14.7,0,0,0-4-11.29A8.15,8.15,0,0,0,104.08,132Zm31.32,5.65a4,4,0,0,1,2.91,1.35,8.51,8.51,0,0,1,1.87,3.72,12.61,12.61,0,0,1,0,4.5,7.54,7.54,0,0,1-2.51,4.27,4.39,4.39,0,0,1-1.39.59,5.15,5.15,0,0,1-1.58.09,4.85,4.85,0,0,1-2.49-1.71,7.77,7.77,0,0,1-1.57-3.59,19.94,19.94,0,0,1,0-3.63,8.07,8.07,0,0,1,1.4-3.54,9.39,9.39,0,0,1,1.58-1.53A3.8,3.8,0,0,1,135.4,137.61Zm-31.05.26a4,4,0,0,1,2.88,1.31,7.82,7.82,0,0,1,1.94,4,7.1,7.1,0,0,1,.15,2,8.59,8.59,0,0,1-.12,1.92,10.8,10.8,0,0,1-.78,2.39,5.28,5.28,0,0,1-3.48,3,3.42,3.42,0,0,1-2.17-.34,6.31,6.31,0,0,1-3-4.29,8.43,8.43,0,0,1-.27-2.76,8.34,8.34,0,0,1,.12-2,9.7,9.7,0,0,1,1.26-3A4.27,4.27,0,0,1,104.35,137.87Zm31.07,24.73a14.3,14.3,0,0,0-2.45.24c-3.37.47-5.64.69-9,.87-1.24.07-6.65.07-7.85,0-3.19-.17-5.22-.37-8.54-.81a18.38,18.38,0,0,0-3.18-.27,2.44,2.44,0,0,0-.81.1,1.07,1.07,0,0,0-.78,1c0,.37.23.73,1,1.55.53.58,1.86,1.89,2.51,2.47a19.94,19.94,0,0,0,8.93,4.71c.67.16,1.83.42,2.2.48.2,0,2.65,0,3.55,0a13.52,13.52,0,0,0,3.38-.42,21.18,21.18,0,0,0,6.47-2.88,23.87,23.87,0,0,0,4-3.35c1.48-1.48,2.06-2.22,2.15-2.75.06-.34-.21-.66-.67-.81A2.64,2.64,0,0,0,135.42,162.6Z"/><path class="cls-2" d="M135.19,132v-.52h-.34a8.91,8.91,0,0,0-6,2.95A14.59,14.59,0,0,0,125,144c0,.29,0,.59,0,.88a15,15,0,0,0,4,10.65,8.59,8.59,0,0,0,5.3,2.75h.42a19.1,19.1,0,0,0,2.11-.12,8.4,8.4,0,0,0,4.51-2.41,14.65,14.65,0,0,0,4.18-9.2c0-.34,0-.79,0-1.28a21.91,21.91,0,0,0-.16-2.77,15.49,15.49,0,0,0-3.09-7.44,13,13,0,0,0-2-1.92,8.79,8.79,0,0,0-5.06-1.72h-.05l0,.52v0l0,.52,0-.41v.42h0l0-.41v.42h0a7.73,7.73,0,0,1,4.45,1.52,11.79,11.79,0,0,1,1.82,1.73,14.61,14.61,0,0,1,2.87,6.94,22.74,22.74,0,0,1,.14,2.61c0,.47,0,.9,0,1.18a13.69,13.69,0,0,1-3.87,8.55,7.35,7.35,0,0,1-3.93,2.12,15.89,15.89,0,0,1-2,.11h-.32a7.54,7.54,0,0,1-4.65-2.44,14,14,0,0,1-3.69-9.92c0-.27,0-.55,0-.83a13.42,13.42,0,0,1,3.57-8.93,7.92,7.92,0,0,1,5.28-2.64h.33Zm-31.11,0v-.53a7.76,7.76,0,0,0-1.84.25A9.39,9.39,0,0,0,98,134.13a12,12,0,0,0-2.44,3.34A15.74,15.74,0,0,0,94,142.85a16.56,16.56,0,0,0-.08,1.92,21.09,21.09,0,0,0,.1,2.36,14.84,14.84,0,0,0,3.07,7.53,14.27,14.27,0,0,0,2.2,2.07,8.27,8.27,0,0,0,3.55,1.52,9.41,9.41,0,0,0,1.11.06,10.9,10.9,0,0,0,2.28-.23,10.07,10.07,0,0,0,5.71-4.39,15.93,15.93,0,0,0,2.5-7.95c0-.29,0-.57,0-.85a15,15,0,0,0-4.23-10.84,8.67,8.67,0,0,0-6-2.62h-.1V132l0,.52h.08a7.63,7.63,0,0,1,5.3,2.32,13.93,13.93,0,0,1,3.9,10.09c0,.26,0,.53,0,.8a14.9,14.9,0,0,1-2.33,7.42,9,9,0,0,1-5.1,4,9.88,9.88,0,0,1-2,.19,9.11,9.11,0,0,1-1,0,7.27,7.27,0,0,1-3.08-1.33,12.92,12.92,0,0,1-2-1.88A13.7,13.7,0,0,1,95,147a20.2,20.2,0,0,1-.09-2.22A16.31,16.31,0,0,1,95,143a14.59,14.59,0,0,1,1.49-5,10.7,10.7,0,0,1,2.22-3.06,8.5,8.5,0,0,1,3.78-2.19,7.23,7.23,0,0,1,1.59-.21h0Zm31.32,5.65v.53h0a3.43,3.43,0,0,1,2.51,1.18,8,8,0,0,1,1.74,3.47,10.39,10.39,0,0,1,.18,2,11.18,11.18,0,0,1-.21,2.25,8,8,0,0,1-.92,2.33,5.42,5.42,0,0,1-1.37,1.61,4,4,0,0,1-1.21.51,5.94,5.94,0,0,1-1,.1l-.35,0a2.68,2.68,0,0,1-1-.47,5.66,5.66,0,0,1-1.14-1.06,7.28,7.28,0,0,1-1.47-3.34,6.56,6.56,0,0,1-.06-.76c0-.34,0-.76,0-1.16a13,13,0,0,1,.07-1.54,7.4,7.4,0,0,1,1.31-3.31,6.16,6.16,0,0,1,.71-.78l.43-.39.28-.21a3,3,0,0,1,1.57-.45h0v-1a4.12,4.12,0,0,0-2.1.59l-.42.32a9.78,9.78,0,0,0-1.32,1.35,8.56,8.56,0,0,0-1.5,3.77,15.23,15.23,0,0,0-.07,1.7c0,.42,0,.84,0,1.21a7.83,7.83,0,0,0,1.77,4.72,6.64,6.64,0,0,0,1.36,1.25,3.66,3.66,0,0,0,1.45.65,3.84,3.84,0,0,0,.5,0,6.56,6.56,0,0,0,1.26-.12,5.1,5.1,0,0,0,1.59-.68,6.22,6.22,0,0,0,1.68-1.94,8.87,8.87,0,0,0,1-2.65,12,12,0,0,0,.23-2.46,11.28,11.28,0,0,0-.2-2.25,8.84,8.84,0,0,0-2-4,4.48,4.48,0,0,0-3.27-1.51h0Zm-31.05.26v.52h0a3.49,3.49,0,0,1,2.49,1.16,7.35,7.35,0,0,1,1.8,3.7,4.39,4.39,0,0,1,.11.69c0,.23,0,.56,0,1.16v.1a7,7,0,0,1-.11,1.72,9.51,9.51,0,0,1-.73,2.26,4.78,4.78,0,0,1-3.11,2.7l-.48,0a3.1,3.1,0,0,1-1.36-.34,5.77,5.77,0,0,1-2.73-4,6.4,6.4,0,0,1-.21-1.07,12,12,0,0,1,0-1.41V145c0-.65,0-1,0-1.28a3.21,3.21,0,0,1,.1-.62,8.51,8.51,0,0,1,1.18-2.79,3.76,3.76,0,0,1,3-1.92h0v-1a4.83,4.83,0,0,0-3.92,2.38,10.36,10.36,0,0,0-1.33,3.16,5.86,5.86,0,0,0-.11.78c0,.3,0,.68,0,1.34v.15c0,.7,0,1.13,0,1.52a9.53,9.53,0,0,0,.24,1.21,6.82,6.82,0,0,0,3.29,4.63,4,4,0,0,0,1.82.46,3.79,3.79,0,0,0,.67-.06,5.79,5.79,0,0,0,3.86-3.27,11.11,11.11,0,0,0,.82-2.52,8.37,8.37,0,0,0,.13-1.92v-.1c0-.6,0-.94,0-1.24a6.54,6.54,0,0,0-.14-.83,8.41,8.41,0,0,0-2.08-4.22,4.54,4.54,0,0,0-3.23-1.47h0Zm31.07,24.73v-.52a7.16,7.16,0,0,0-.93,0c-.34,0-.78.09-1.59.2-3.36.47-5.61.69-8.94.87-.6,0-2.29.05-3.95.05s-3.28,0-3.84-.05c-3.18-.17-5.19-.37-8.5-.81a23.31,23.31,0,0,0-3-.28h-.28a3.21,3.21,0,0,0-.94.13,1.57,1.57,0,0,0-1.15,1.47,1.63,1.63,0,0,0,.28.88,8.45,8.45,0,0,0,.82,1c.56.61,1.88,1.91,2.55,2.51a20.35,20.35,0,0,0,9.15,4.82c.69.18,1.84.43,2.25.49l.2,0h1c.83,0,1.88,0,2.42,0a14.47,14.47,0,0,0,3.49-.45,21.71,21.71,0,0,0,6.63-2.94,24.45,24.45,0,0,0,4.1-3.42,19.7,19.7,0,0,0,1.64-1.78,2.9,2.9,0,0,0,.65-1.25l0-.18a1.15,1.15,0,0,0-.32-.78,1.71,1.71,0,0,0-.73-.44l-.4-.08a4.19,4.19,0,0,0-.54,0h-.13v1h.12a3.28,3.28,0,0,1,.43,0l.2,0,.27.15,0,.07h0a2.1,2.1,0,0,1-.44.78,22.43,22.43,0,0,1-1.56,1.68,23.77,23.77,0,0,1-3.94,3.29,20.7,20.7,0,0,1-6.31,2.8,12.89,12.89,0,0,1-3.27.41c-.51,0-1.56,0-2.38,0h-1.06c-.34,0-1.51-.31-2.16-.47a19.31,19.31,0,0,1-8.71-4.59c-.63-.55-2-1.88-2.47-2.44a7.49,7.49,0,0,1-.71-.86.58.58,0,0,1-.12-.33.54.54,0,0,1,.41-.48,3.29,3.29,0,0,1,.67-.07h.24a20.63,20.63,0,0,1,2.85.27c3.32.44,5.38.64,8.58.81.63,0,2.25.05,3.9.05s3.35,0,4-.05c3.35-.18,5.65-.4,9-.87l1.55-.2c.3,0,.48,0,.83,0h0Z"/><path d="M135.42,137.64a3,3,0,0,0-.66.05,3.62,3.62,0,0,0-1.48.67,11.73,11.73,0,0,0-1.17,1.17,7.8,7.8,0,0,0-1.55,4.11c0,.47,0,1.87,0,2.47a5.91,5.91,0,0,0,.21,1.37,7,7,0,0,0,1.83,3.37,4.85,4.85,0,0,0,1.89,1.23,2.36,2.36,0,0,0,.63,0,4.5,4.5,0,0,0,1.83-.33,3.71,3.71,0,0,0,1.3-.9,8.33,8.33,0,0,0,1.91-3.82,12.9,12.9,0,0,0,.05-4.16,8.64,8.64,0,0,0-1.51-3.47,5.92,5.92,0,0,0-1.09-1.09,4.09,4.09,0,0,0-1.54-.67A3,3,0,0,0,135.42,137.64Zm-30.93.24a3.51,3.51,0,0,0-1.71.39,6.43,6.43,0,0,0-2.93,3.93,6.75,6.75,0,0,0-.3,1.25c0,.37-.06,1.89,0,2.57a8.13,8.13,0,0,0,2.13,5.2,4.23,4.23,0,0,0,2.32,1.19,4.34,4.34,0,0,0,1,0,5,5,0,0,0,3-2.3,8.8,8.8,0,0,0,1.07-2.67,14.21,14.21,0,0,0,0-4.57,7.17,7.17,0,0,0-2.45-4.15A3.86,3.86,0,0,0,104.49,137.88Z"/><path class="cls-2" d="M135.42,137.64v-1.57h-.49c-.16,0-.31,0-.51.07h0a5.11,5.11,0,0,0-2.16,1c-.22.19-.47.42-.72.68l-.36.36-.3.34a8.42,8.42,0,0,0-1.3,2.33,9.34,9.34,0,0,0-.6,2.66c0,.32,0,.78,0,1.29s0,1,0,1.38a7.26,7.26,0,0,0,.26,1.66,8.52,8.52,0,0,0,2.25,4.1,7.12,7.12,0,0,0,1.22,1,5,5,0,0,0,1.38.64h0l.52.08a4.1,4.1,0,0,0,.5,0h0a6,6,0,0,0,2.41-.45,5.29,5.29,0,0,0,1.83-1.27,9.58,9.58,0,0,0,1.45-2.12,9.92,9.92,0,0,0,.86-2.47,15.07,15.07,0,0,0,.23-2.57,14.89,14.89,0,0,0-.17-2.16,10.43,10.43,0,0,0-1.79-4.15,9.85,9.85,0,0,0-.68-.77,6.88,6.88,0,0,0-.77-.66h0a5.75,5.75,0,0,0-2.12-.93h0c-.19,0-.34-.05-.5-.07h-.54l.06,1.57v0l.05,1.57,0-1.23v1.23h0l0-1.23v1.23h.33l.05-.29-.07.29h0l.05-.29-.07.29h0a2.71,2.71,0,0,1,.95.42h0l.37.33.37.41a7.2,7.2,0,0,1,1.22,2.81,9.61,9.61,0,0,1,.13,1.63,11.09,11.09,0,0,1-.17,2,7,7,0,0,1-.59,1.67,5.82,5.82,0,0,1-.92,1.37,1.88,1.88,0,0,1-.77.53,2.62,2.62,0,0,1-1.19.21h-.29l0,.22,0-.21h0l0,.22,0-.21h0a1.77,1.77,0,0,1-.46-.24,4.07,4.07,0,0,1-.72-.58,5.48,5.48,0,0,1-1.42-2.65,4,4,0,0,1-.17-1.07c0-.24,0-.74,0-1.2s0-.93,0-1.07a6.2,6.2,0,0,1,.41-1.77,5.05,5.05,0,0,1,.8-1.47l.14-.15.45-.45.36-.34a2.15,2.15,0,0,1,.81-.35h0v0h0v0h.38Zm-30.93.24.06-1.57h-.18a5.15,5.15,0,0,0-2.29.55,6.5,6.5,0,0,0-2.26,1.95,10.45,10.45,0,0,0-1.46,2.89,8.07,8.07,0,0,0-.37,1.57l0,.37c0,.4,0,1,0,1.49,0,.35,0,.69,0,1a8.86,8.86,0,0,0,.29,2,8.7,8.7,0,0,0,2.32,4.26,5.85,5.85,0,0,0,3.19,1.62h0l.52,0,.5,0c.17,0,.32,0,.52-.07h0a6.56,6.56,0,0,0,4-3,10.23,10.23,0,0,0,1.29-3.16c0-.19.08-.35.11-.52a4.5,4.5,0,0,0,.1-.85c0-.3,0-.64,0-1.17v-.33a13.44,13.44,0,0,0,0-1.37,4.05,4.05,0,0,0-.09-.54c0-.17-.07-.33-.12-.53a8.67,8.67,0,0,0-3-5,5.37,5.37,0,0,0-3-1.12l-.06,1.57-.06,1.57a2.24,2.24,0,0,1,1.27.49,5.62,5.62,0,0,1,1.86,3.26c0,.2.08.34.1.43l0,.33c0,.17,0,.46,0,.94v.33c0,.71,0,1,0,1.2l0,.2c0,.09,0,.22-.1.41a7,7,0,0,1-.86,2.18,3.48,3.48,0,0,1-2,1.61h0v0h0v0l-.4,0h-.11l0,.39.05-.38h0l0,.39.05-.38h0a2.7,2.7,0,0,1-1.44-.77,5.59,5.59,0,0,1-1.46-2.76,6.21,6.21,0,0,1-.2-1.39c0-.18,0-.49,0-.81s0-.67,0-1l0-.37v-.16a4.83,4.83,0,0,1,.23-.95,6.9,6.9,0,0,1,1-2,3.23,3.23,0,0,1,1.15-1,1.85,1.85,0,0,1,.88-.22h.06Z"/></svg>