<?xml version="1.0" encoding="UTF-8"?><svg id="a" xmlns="http://www.w3.org/2000/svg" viewBox="0 0 240 240"><defs><style>.b{fill:#9fd661;}.c{fill:#43aaaf;}.d{fill:#62d2dd;}.e{fill:#474747;}</style></defs><path class="e" d="M125.51276,25.26581l3.05444,1.80963c.3562,.21106,36.14014,21.24451,68.60107,26.52881l5.02686,.81833v54.51773c0,15.37244-3.57812,30.78998-10.34717,44.586-6.77295,13.80273-16.78076,26.06439-28.94141,35.45929-9.86816,7.62344-21.43677,15.30469-34.38477,22.83014l-3.00952,1.74933-3.00952-1.74933c-12.948-7.52545-24.5166-15.2067-34.38477-22.83014-12.16064-9.3949-22.16846-21.65656-28.94116-35.45929-6.76929-13.79602-10.34741-29.21356-10.34741-44.586V54.42258l5.02686-.81833c32.46094-5.2843,68.24487-26.31775,68.60254-26.52963l3.05396-1.80881m0-5.66931c-.99927,0-1.99829,.26379-2.88916,.79138l-3.05396,1.80884c-.34741,.20523-35.35889,20.72223-66.62427,25.81192l-5.02686,.81833c-2.74341,.44659-4.7583,2.81616-4.7583,5.59561v54.51773c0,16.23315,3.77832,32.51431,10.927,47.08331,7.15259,14.57681,17.72168,27.52621,30.5647,37.44836,10.0647,7.77521,21.84106,15.59604,35.00195,23.2453l3.00928,1.74924c.88086,.51187,1.86499,.76782,2.84912,.76782s1.96826-.25595,2.84912-.76782l3.00952-1.74933c13.16064-7.64917,24.93701-15.47,35.00146-23.24515,12.84326-9.92212,23.41235-22.87149,30.56519-37.4483,7.14844-14.56931,10.92676-30.85046,10.92676-47.08344V54.42258c0-2.77945-2.01489-5.14902-4.7583-5.59561l-5.02686-.81833c-31.26855-5.09024-66.2749-25.60571-66.625-25.81232l-3.05176-1.80801c-.89087-.52783-1.89014-.79181-2.88965-.79181h0Z"/><g><g><path class="d" d="M125.51228,206.6377c13.72853-7.97934,24.8025-15.49295,33.73262-22.39191,23.32115-18.01669,36.96107-45.83559,36.96107-75.30551V59.51574c-34.01207-5.53685-70.69369-27.28875-70.69369-27.28875,0,0-36.68162,21.7519-70.69367,27.28875v49.42455c0,29.46992,13.6399,57.28882,36.96105,75.30551,8.93013,6.89896,20.00409,14.41257,33.73262,22.39191Z"/><path class="d" d="M125.51228,213.56505l-3.00962-1.7493c-12.94785-7.52544-24.51652-15.2067-34.38458-22.83018-12.16082-9.39486-22.16854-21.65653-28.94135-35.45925-6.76929-13.79607-10.34742-29.21356-10.34742-44.58603V54.42262l5.02702-.81839c32.46075-5.28425,68.24485-26.31775,68.60234-26.52961l3.05407-1.80884,3.0543,1.80965c.35632,.21104,36.14042,21.24454,68.60117,26.52879l5.02702,.81839v54.51769c0,15.37247-3.57813,30.78996-10.34742,44.58603-6.77281,13.80272-16.78053,26.06438-28.94135,35.45925-9.86805,7.62348-21.43672,15.30473-34.38458,22.83018l-3.00962,1.7493ZM60.80788,64.50414v44.43616c0,27.43233,12.94715,53.8122,34.63351,70.56594,8.68891,6.71246,18.79208,13.49404,30.07089,20.18589,11.27881-6.69185,21.38199-13.47343,30.07089-20.18589,21.68636-16.75374,34.63351-43.13361,34.63351-70.56594v-44.43616c-27.79006-5.6621-55.58852-20.29093-64.7044-25.37912-9.11588,5.0882-36.91434,19.71703-64.7044,25.37912Z"/></g><path class="c" d="M125.51228,202.96237l-1.80591-1.04953c-11.71419-6.8086-22.17579-13.75429-31.09397-20.64419-10.84529-8.37822-19.77026-19.31323-25.81031-31.62273-6.03701-12.30365-9.22818-26.05362-9.22818-39.76335V61.84101l3.01616-.49107c29.90596-4.86841,62.76138-24.18783,63.08987-24.38236l1.83257-1.0859,1.83259,1.08613c.32801,.1943,33.18344,19.51373,63.08939,24.38213l3.01616,.49107v48.04156c0,13.70973-3.19115,27.4597-9.22817,39.76335-6.04006,12.3095-14.96503,23.24452-25.81031,31.62273-8.9182,6.8899-19.37979,13.8356-31.09399,20.64419l-1.80591,1.04953ZM64.76104,67.9102v41.97237c0,25.54009,12.05414,50.10025,32.24506,65.69848,8.21163,6.34385,17.79403,12.75097,28.50618,19.06137,10.71216-6.3104,20.29455-12.71752,28.50618-19.06125,20.19092-15.59834,32.24506-40.15851,32.24506-65.6986v-41.97237c-26.54072-5.05884-53.5173-19.60895-60.75124-23.70365-7.23394,4.0947-34.21052,18.64481-60.75124,23.70365Z"/><g><path class="b" d="M116.1507,150.44873c-.11816,0-.23535-.01465-.35059-.04395-.25195-.05908-.48633-.18555-.67188-.37109l-29.06152-29.06152c-.26562-.26611-.41504-.62646-.41504-1.00244s.14941-.73633,.41504-1.00244l8.82031-8.81982c.27637-.27637,.63965-.41504,1.00195-.41504s.72559,.13867,1.00195,.41504l19.24902,19.24902,37.92773-37.92725c.27637-.27637,.63965-.41504,1.00195-.41504s.72559,.13867,1.00195,.41504l8.82031,8.81982c.26562,.26611,.41504,.62646,.41504,1.00244s-.14941,.73633-.41504,1.00244l-47.73926,47.73975c-.27637,.27637-.63867,.41504-1.00195,.41504Z"/><path class="e" d="M155.0694,92.47171l8.82056,8.82004-47.73975,47.73962-.01025-.01019-.01001,.01019-29.06152-29.06149,8.82056-8.82004,20.25098,20.25119,38.92944-38.92932m0-2.83466c-.72559,0-1.45093,.2767-2.00439,.83026l-36.92505,36.92493-18.24658-18.2468c-.55347-.55347-1.27905-.83023-2.00439-.83023-.72534-.00003-1.45093,.2767-2.00439,.83017l-8.82056,8.82004c-.53149,.53159-.83032,1.25259-.83032,2.00443s.29883,1.47281,.83032,2.00443l29.06152,29.06149c.53174,.53168,1.25293,.83026,2.00439,.83026l.01294-.00003c.17188-.00079,.34204-.01718,.50854-.04834,.55127-.09702,1.07861-.3573,1.50317-.78189l47.73975-47.73962c.53149-.53162,.83032-1.25262,.83032-2.00443s-.29883-1.47284-.83032-2.00443l-8.82056-8.82004c-.55347-.55341-1.27905-.8302-2.00439-.8302h0Z"/></g></g></svg>