<svg id="materials" xmlns="http://www.w3.org/2000/svg" viewBox="0 0 460 39.07"><defs><style>.cls-1{fill:#fff;}.cls-2{fill:#474747;}</style></defs><title>withdrawal-title</title><path class="cls-1" d="M82.17,36.1c-3.29,0-5-1.58-5-4.7V7.88c0-3,1.74-4.73,4.88-4.73,3.4,0,5.12,1.59,5.12,4.73V31.4C87.2,33.54,86.33,36.1,82.17,36.1Zm-14.73,0a49.22,49.22,0,0,1-5.67-.25,4.55,4.55,0,0,1-3.43-4.72,4.53,4.53,0,0,1,3-4.51c-4.15-.31-5-2.7-5-4.73a11.71,11.71,0,0,1,.17-1.63l.05-.37c.08-.46.24-1.79.37-2.86.25-2.07.3-2.45.37-2.71a4.59,4.59,0,0,1,.83-1.67,4.33,4.33,0,0,1-1.85-3.75c0-3.11,1.68-4.82,4.73-4.82H71c4.88,0,5.9,3.19,5.9,5.87v3.93a6,6,0,0,1-1.55,4.45c1,.84,1.82,2.26,1.82,4.67,0,.3,0,7.35-1.68,10.21S70.84,36.07,67.44,36.07Z"/><path class="cls-2" d="M82.08,5.15c1.89,0,3.12.39,3.12,2.73V31.4c0,1.92-.75,2.7-3,2.7-1.83,0-3-.36-3-2.7V7.88c0-1.65.57-2.73,2.88-2.73M71,6.05c2.55,0,3.9,1,3.9,3.87v3.93c0,2.91-1.35,3.9-3.9,3.9H64.74c-.23,0-.26.15-.3.3l0,.72a.29.29,0,0,0,.3.33h6.08c2.58,0,4.38.48,4.38,3.87,0,.63-.12,7-1.41,9.21-1.11,1.89-3.12,1.89-6.3,1.89a51.27,51.27,0,0,1-5.3-.21,2.62,2.62,0,0,1-1.8-2.76c0-2.82,2.31-2.82,3.09-2.82s3.56.09,4.17.09c1.22,0,1.55-.09,1.67-1.14,0-.18.21-2.22.21-2.25a.36.36,0,0,0-.36-.36H62.26c-1.32,0-4,0-4-2.76,0-.42.15-1.29.21-1.74.15-.84.59-5,.69-5.34.56-2.07,3-2.07,3.93-2.07h5.75c.25,0,.46-.12.46-.39v-.57c0-.33-.37-.39-.46-.39H60.94c-.79,0-2.73-.06-2.73-2.49,0-1.92.72-2.82,2.73-2.82H71m11.1-4.9a6.63,6.63,0,0,0-5.71,2.61A8.21,8.21,0,0,0,71,2.05h-10c-4.16,0-6.73,2.61-6.73,6.82A6.43,6.43,0,0,0,55.54,13c-.08.22-.16.46-.23.71l0,.08a26.3,26.3,0,0,0-.41,3c-.12.93-.29,2.34-.34,2.65l0,.18c0,.1,0,.22,0,.35a13.33,13.33,0,0,0-.19,1.92,6.43,6.43,0,0,0,3,5.6,7.32,7.32,0,0,0-.92,3.64c0,3.38,2,6.06,5,6.68h.07a48.58,48.58,0,0,0,6,.28c3.08,0,6.52,0,8.85-2.62.95,1.45,2.7,2.65,5.88,2.65,4.41,0,7-2.51,7-6.7V7.88a6.33,6.33,0,0,0-2.52-5.49A7.61,7.61,0,0,0,82.08,1.15Z"/><path class="cls-1" d="M104.07,35.08c-3.52,0-14.26,0-14.26-8.39a7.21,7.21,0,0,1,2-5.14,6.65,6.65,0,0,1-.68-.12,4.11,4.11,0,0,1-2.9-4.19,4.25,4.25,0,0,1,1.59-3.5,4.91,4.91,0,0,1-.51-2.23c0-2,.87-4.46,5-4.46h4.62c.48-2,2.42-3.34,5-3.34a4.33,4.33,0,0,1,4.48,2.94c.48,0,1-.11,1.89-.22a17.27,17.27,0,0,1,1.94-.17,4.19,4.19,0,0,1,4.49,4.46,4.83,4.83,0,0,1-.22,1.47,4.39,4.39,0,0,1,2.29,4,4.25,4.25,0,0,1-2.9,4.13,6,6,0,0,1-1,.24,5,5,0,0,1,.84,2.74,4.87,4.87,0,0,1-.63,2.39,4.81,4.81,0,0,1,1.53,3.64c0,2.44-1.31,4-3.91,4.72A31.51,31.51,0,0,1,104.07,35.08Z"/><path class="cls-2" d="M104,5.72c2.22,0,2.55,1.2,3,3a33.76,33.76,0,0,0,3.6-.33,16.49,16.49,0,0,1,1.68-.15,2.23,2.23,0,0,1,2.49,2.46A2.2,2.2,0,0,1,113.13,13a26.73,26.73,0,0,1-4.68.57l.33.84c1.68-.12,3.24-.3,4.23-.45a8.83,8.83,0,0,1,1.5-.21,2.26,2.26,0,0,1,2.31,2.46,2.26,2.26,0,0,1-1.59,2.25,22.85,22.85,0,0,1-3.93.57,13.12,13.12,0,0,0,1.83,2.46,2.92,2.92,0,0,1-2.25,4.77,5,5,0,0,1-1.47-.33,19.39,19.39,0,0,0-7-1.26c-1,0-4.68,0-4.68,1.59s4,1.56,5.46,1.56a30.68,30.68,0,0,0,6.63-.78,15.92,15.92,0,0,1,2.43-.42,2.48,2.48,0,0,1,2.43,2.73,2.71,2.71,0,0,1-2.43,2.79,29.47,29.47,0,0,1-8.19.93c-3.8,0-12.26-.15-12.26-6.39,0-5.22,5.79-6.36,9.84-6.36a29,29,0,0,1,3.89.24c-.39-.66-.51-.87-.66-1.17-6.57.27-7.11.3-9,.3a28.42,28.42,0,0,1-4.31-.21,2.13,2.13,0,0,1-1.41-2.25c0-2.31,1.86-2.37,2.61-2.37l4,.06c1.92,0,3.39,0,6-.15a8.55,8.55,0,0,1-.36-.93c-4,.15-4.22.15-5.91.15a15.32,15.32,0,0,1-3.84-.21,2.17,2.17,0,0,1-1.43-2.28c0-2.46,1.86-2.46,3-2.46h6.62a4.11,4.11,0,0,1-.11-1c0-1.95,2.09-2.34,3.14-2.34m0-4a7.08,7.08,0,0,0-6.38,3.34H94.3c-6.53,0-7,4.94-7,6.46a7,7,0,0,0,.2,1.73,6.58,6.58,0,0,0-1.28,4,6.31,6.31,0,0,0,2.53,5.23,9.64,9.64,0,0,0-.91,4.22c0,4.44,2.73,7.84,7.5,9.35a29.62,29.62,0,0,0,8.76,1A33.28,33.28,0,0,0,113.34,36c4.65-1.24,5.35-4.69,5.35-6.64a7.08,7.08,0,0,0-1.2-4,6.63,6.63,0,0,0,.3-2,6.94,6.94,0,0,0-.18-1.57,6.21,6.21,0,0,0,3.21-5.54,6.45,6.45,0,0,0-2.09-4.93,5.15,5.15,0,0,0,0-.56,6.19,6.19,0,0,0-6.49-6.46,18.62,18.62,0,0,0-2.21.19l-.49.06A6.22,6.22,0,0,0,104,1.72Z"/><path class="cls-1" d="M123.85,35.92A5,5,0,0,1,119,31.25c0-1.4.43-2,2.5-4.89.16-.21.51-.76.83-1.25l-.83-.76c-.06-.05-1-.83-1.3-1.14a3.72,3.72,0,0,1-1.29-2.82,5.21,5.21,0,0,1,1.77-3.75,3.45,3.45,0,0,1-.72-2.25,4.66,4.66,0,0,1,.42-1.86,4.2,4.2,0,0,1-1.56-3.42c0-2.74,1.74-4.37,4.66-4.37h1.63a4.78,4.78,0,0,1,4-1.53c2.26,0,3.46.73,4.1,1.53h4a4.78,4.78,0,0,1,3.95-1.53c2.19,0,3.41.67,4.07,1.53h1.57c3.45,0,4.67,2.16,4.67,4.19a4,4,0,0,1-2.25,4,4.42,4.42,0,0,1,.51,2.12,5.16,5.16,0,0,1-1.43,3.42l0,.06a4.77,4.77,0,0,1,.75.24,3.92,3.92,0,0,1,2.41,3.87,5.18,5.18,0,0,1-2.18,4.4c.05.77.05,1.76.05,3.16,0,5.51-3.73,5.51-6.2,5.51h-9.29c-3,0-4.73-.84-5.47-2.84C127.3,34.43,126.05,35.92,123.85,35.92Z"/><path class="cls-2" d="M141.06,5.21c1.95,0,2.64.54,2.79,1.53h2.85c.84,0,2.67.12,2.67,2.19,0,1.41-.42,2.49-2.67,2.49h-2.85c0,.45-.45.9-1,1.2h1.44c.63,0,3.36,0,3.36,2.46a3.2,3.2,0,0,1-1,2.13,21.72,21.72,0,0,1-2.7,2.55c.66.15,3.57.63,4.11.87a1.93,1.93,0,0,1,1.23,2c0,.89-.44,3.06-2.56,3.06h-.05c.48.72.48,1.44.48,4.5,0,3.42-1.53,3.51-4.2,3.51h-9.29c-3.09,0-3.91-.75-3.91-3.9v-1a6.92,6.92,0,0,1,.4-3,2.54,2.54,0,0,1-2.08-2.67c0-1.83,1.35-2.16,2.19-2.37,2.25-.54,2.37-.57,3.48-.9-.24-.21-.39-.36-.69-.66a4.52,4.52,0,0,1-2.25.87,2.68,2.68,0,0,1-2.36-2.52,2.25,2.25,0,0,1-1.81.81c-.84,0-1-.09-2.76-1.5s-2-1.59-2-2.52a2.81,2.81,0,0,1,2.6-2.73c.52,0,1.15,0,3.51,1.95,1.2,1,1.27,1.68,1.23,2.19.18-.15,2.64-1.53,3.13-1.83a16,16,0,0,0,2.18-1.62,2.46,2.46,0,0,1,1.74-.75,2.27,2.27,0,0,1,2,1h1.11c-.63-.36-1-.78-1-1.2h-6.57c0,.69-.81,1.83-2.66,1.83-2.22,0-2.79-1.26-2.79-1.83h-3c-1,0-2.66-.21-2.66-2.31,0-1.83,1.11-2.37,2.66-2.37h3c0-1.53,2.28-1.53,2.63-1.53,1.83,0,2.79.57,2.82,1.53h6.57c0-.75.63-1.53,2.64-1.53m-2.37,12.57c.9-.54,1.95-1.29,1.95-1.5s-.18-.15-.27-.15h-3.24a3.92,3.92,0,0,0-.36.33,19.23,19.23,0,0,0,1.92,1.32m-3.48,6.81h6.84a26.43,26.43,0,0,1-3.45-1.47,33.22,33.22,0,0,1-3.39,1.47m.36,4.89h6c.33,0,.33-.24.33-.6a.32.32,0,0,0-.33-.36h-6a.33.33,0,0,0-.36.36c0,.39,0,.6.36.6m-12-12c.8,0,1.76.66,3.09,1.86,1.08,1,1.46,1.53,1.46,2.34a3,3,0,0,1-1.5,2.52,2.32,2.32,0,0,1,2.29,2.16c0,1.14-1.08,3.18-1.78,4.41-1,1.92-1.83,3.12-3.26,3.12A3,3,0,0,1,121,31.25c0-.75.21-1.05,2.13-3.72.26-.36,1.29-2,1.5-2.28a2.44,2.44,0,0,1,.75-.72c-.75-.06-.91-.15-2.53-1.65-.21-.18-1.1-1-1.29-1.14a1.78,1.78,0,0,1-.65-1.35,3,3,0,0,1,2.67-2.88m17.51-16.3a7.17,7.17,0,0,0-4.76,1.53H134a7.48,7.48,0,0,0-5-1.53,7.2,7.2,0,0,0-4.81,1.53h-.77c-3.31,0-6.66,2-6.66,6.37A6.46,6.46,0,0,0,118.06,13a6.58,6.58,0,0,0-.13,1.35,5.72,5.72,0,0,0,.31,1.94,6.88,6.88,0,0,0-1.36,4.06,5.73,5.73,0,0,0,1.94,4.29c.21.2.54.49.85.76-2,2.81-2.7,3.82-2.7,5.81a7,7,0,0,0,6.88,6.67,6.14,6.14,0,0,0,4.33-1.74,8.61,8.61,0,0,0,5.51,1.56H143c2.25,0,8.2,0,8.2-7.51,0-.86,0-1.6,0-2.24a7.53,7.53,0,0,0,2.14-5.32,6,6,0,0,0-2.25-4.91,6.44,6.44,0,0,0,.57-2.68,6.59,6.59,0,0,0-.13-1.33,6.34,6.34,0,0,0,1.87-4.82c0-3.08-2.06-6.19-6.67-6.19H146A7.26,7.26,0,0,0,141.06,1.21Z"/><path class="cls-1" d="M167.46,34.87c-3.79,0-15.35,0-15.35-9.8,0-6.1,4.66-9.19,7.82-10.85-.14-.61-.34-1.42-.7-2.73l-.17-.65a10.37,10.37,0,0,1-.62-3c0-2.18,1.66-4.52,5.3-4.52,4.09,0,4.64,2.76,5.23,5.68.05.26.16.85.27,1.51a33.53,33.53,0,0,1,7.19-1.7,4.8,4.8,0,0,1,4.91,5.09c0,4-3.56,4.66-5.27,5-8.23,1.39-13.75,4-13.75,5.62a.8.8,0,0,0,0,.22h0s.75.48,4.34.48a39.68,39.68,0,0,0,7.13-.72l.28,0a13.49,13.49,0,0,1,1.91-.2,4.64,4.64,0,0,1,4.91,5c0,2.51-1.33,4.12-4,4.79A52.8,52.8,0,0,1,167.46,34.87Z"/><path class="cls-2" d="M163.74,5.36c2.43,0,2.67,1.11,3.27,4.08.12.6.54,3.21.64,3.75,1.58-.6,7.16-2.34,8.78-2.34a2.85,2.85,0,0,1,2.91,3.09c0,2.25-1.65,2.64-3.63,3-2.13.36-15.39,2.79-15.39,7.59,0,1.83,1.24,2.7,6.37,2.7a41.32,41.32,0,0,0,7.46-.75,17.19,17.19,0,0,1,1.86-.21,2.67,2.67,0,0,1,2.91,3c0,1.89-1,2.49-2.46,2.85a50.57,50.57,0,0,1-9,.75c-4.19,0-13.35-.15-13.35-7.8,0-5.82,5.16-8.31,8.08-9.75-.19-1-.3-1.68-1-4.35a13.13,13.13,0,0,1-.72-3.09c0-1.41,1.17-2.52,3.3-2.52m0-4c-4.79,0-7.3,3.28-7.3,6.52a11.92,11.92,0,0,0,.69,3.49l.18.65.31,1.2c-3.33,2-7.51,5.55-7.51,11.85,0,5,2.76,8.77,7.77,10.54a29.62,29.62,0,0,0,9.58,1.26,55.62,55.62,0,0,0,9.95-.87c4.8-1.22,5.51-4.74,5.51-6.73a6.65,6.65,0,0,0-6.91-7,15.32,15.32,0,0,0-2.21.22l-.16,0-.15,0a41.28,41.28,0,0,1-6,.69,45.42,45.42,0,0,1,8.84-2.34c1.76-.32,7-1.26,7-6.94a6.78,6.78,0,0,0-6.91-7.09A25.16,25.16,0,0,0,170.8,8C170.19,5.12,169,1.36,163.74,1.36Z"/><path class="cls-1" d="M197.52,35.05c-5.08,0-8.46-1.32-10.62-4.15-1.31-1.76-2-3.82-2-9.7,0-1.58.23-12.13.27-12.68.39-3,2.12-4.53,5.17-4.53s5,1.88,5,5c0,0,0,.5,0,1.07-.38,6.94-.48,9.13-.48,12.43,0,2.47,0,2.92,2.71,2.92,4.14,0,5.23-1.63,5.81-4.65.33-1.73.94-4.95,5-4.95,3.14,0,5.24,1.88,5.24,4.67a16,16,0,0,1-3.43,9.31C207.38,33.33,203.26,35.05,197.52,35.05Z"/><path class="cls-2" d="M190.32,6a2.67,2.67,0,0,1,3,3s0,.45,0,1c-.4,7.11-.49,9.27-.49,12.54,0,3,.4,4.92,4.71,4.92,5.4,0,7.08-2.67,7.77-6.27.33-1.74.63-3.33,3-3.33.33,0,3.24,0,3.24,2.67a14.13,14.13,0,0,1-3,8.07c-2.49,3.21-6.27,4.47-11,4.47-4.53,0-7.29-1.08-9-3.36-.8-1.08-1.61-2.49-1.61-8.49,0-1.83.23-12.15.27-12.51.17-1.41.62-2.7,3.17-2.7m0-4c-1.91,0-6.43.6-7.14,6.19l0,.17c-.06.7-.28,11.46-.28,12.85,0,6.41.88,8.84,2.41,10.89,3.4,4.45,8.61,5,12.23,5,6.31,0,11.08-2,14.17-6a18.14,18.14,0,0,0,3.84-10.52c0-3.93-3-6.67-7.24-6.67-5.71,0-6.65,4.95-7,6.58-.42,2.24-.84,3-3.84,3a6.13,6.13,0,0,1-.68,0c0-.21,0-.5,0-.89,0-3.1.08-5.06.48-12.32,0-.57,0-1,0-1.18A6.62,6.62,0,0,0,190.32,2Z"/><path class="cls-1" d="M230.61,34.75A4.58,4.58,0,0,1,226,31.52a8.08,8.08,0,0,1-3.8.92c-5.17,0-8.51-4.37-8.51-11.12,0-11.31,8.64-16.46,16.66-16.46,9.32,0,15.11,5.65,15.11,14.75,0,4.89-1.73,9-4.88,11.52A17.42,17.42,0,0,1,230.61,34.75Zm3.57-19.41a48.16,48.16,0,0,1-2.72,9.42c2.2-.47,4-1.51,4-5.45A5.6,5.6,0,0,0,234.18,15.34Z"/><path class="cls-2" d="M230.37,6.86c8,0,13.11,4.65,13.11,12.75,0,3.78-1.2,7.59-4.14,10a15.51,15.51,0,0,1-8.73,3.18,2.79,2.79,0,0,1-2.88-3c0-2.34,1.5-2.58,3.15-2.85,2.46-.39,6.57-1.29,6.57-7.59,0-3.3-1.38-6.27-4.83-6.87-.48,3.69-2,10.62-4.38,14.19-1.62,2.46-3.47,3.81-6,3.81-4.66,0-6.51-4.59-6.51-9.12,0-10.26,7.77-14.46,14.66-14.46m-3.47,5.79c-3.88,1.5-5.59,4.59-5.59,8.73,0,1.95.67,2.82,1.23,2.82,1,0,1.83-2.1,2.28-3.33a45.28,45.28,0,0,0,2.08-8.22m3.47-9.79A19.44,19.44,0,0,0,217.9,7.17c-2.83,2.34-6.19,6.71-6.19,14.15,0,7.85,4.22,13.12,10.51,13.12a10,10,0,0,0,2.86-.4,6.53,6.53,0,0,0,5.53,2.71,19.58,19.58,0,0,0,11.26-4.08c3.61-2.91,5.61-7.56,5.61-13.06C247.48,9.43,240.77,2.86,230.37,2.86Z"/><path class="cls-1" d="M252.78,35.11A4.79,4.79,0,0,1,248,30c0-3.53,2.72-4.15,4.52-4.55A28.69,28.69,0,0,0,257.6,24l-1.31-.78a6,6,0,0,1-1.67-1.36,6.05,6.05,0,0,1-3.43,1.22,5,5,0,0,1-4.84-5c0-2.19,1-2.88,3.79-4.95a17.43,17.43,0,0,0,4.65-5.77c1-1.78,2-3.43,4.8-3.43,2.26,0,4.64,1.21,5.14,3.48h5c3.47,0,5.54,2,5.54,5.24,0,2.16-1.49,11.4-8.8,17.14A29,29,0,0,1,252.78,35.11Z"/><path class="cls-2" d="M259.59,5.93c1.29,0,3.24.66,3.24,2.4a3.2,3.2,0,0,1-.24,1.08h7.11c2.7,0,3.54,1.41,3.54,3.24,0,.63-.75,9.84-8,15.57a27.23,27.23,0,0,1-12.42,4.89A2.83,2.83,0,0,1,250,30c0-1.95,1.15-2.19,3-2.61s5.7-1.26,8.37-3.24a28.39,28.39,0,0,0-4.05-2.7c-.69-.42-1.53-.9-1.53-2.1a2.78,2.78,0,0,1,.61-1.62c-3.07,2.91-4.29,3.3-5.2,3.3a3.07,3.07,0,0,1-2.84-3c0-1.17.33-1.41,3-3.33a19.39,19.39,0,0,0,5.22-6.42c1-1.68,1.38-2.4,3.06-2.4M257.16,17a2.55,2.55,0,0,1,1.59-.54c1.59,0,4.92,2.07,6.42,3.27a15.72,15.72,0,0,0,1.71-4.68c0-.27-.09-.27-.63-.27h-7.1c-.61.72-.94,1.14-2,2.22m2.43-15.1c-4,0-5.46,2.55-6.53,4.41A15.06,15.06,0,0,1,249,11.49c-2.91,2.12-4.64,3.38-4.64,6.59a7.27,7.27,0,0,0,4.57,6.55A5.75,5.75,0,0,0,246,30a6.79,6.79,0,0,0,6.79,7.09c2.64,0,10.08-2,14.89-5.74,9.16-7.2,9.57-18.61,9.57-18.72,0-4.4-3-7.24-7.54-7.24h-3.63A7.09,7.09,0,0,0,259.59,1.93Z"/><path class="cls-1" d="M293.82,35.26c-3.12,0-5.05-1.85-5.05-4.82V22.65l-.59.22c-2.35.87-4.77,1.71-6.33,1.71a5,5,0,0,1-4.91-5.24A4.33,4.33,0,0,1,280.39,15C289,12.32,293.2,10.12,299,5.16A4.79,4.79,0,0,1,302,4a5.34,5.34,0,0,1,5.33,5.21A4.85,4.85,0,0,1,305.47,13a60.17,60.17,0,0,1-6.53,4.57V30.44C298.94,33.41,297,35.26,293.82,35.26Z"/><path class="cls-2" d="M302,6a3.38,3.38,0,0,1,3.33,3.21,2.82,2.82,0,0,1-1.17,2.25,63.53,63.53,0,0,1-7.2,4.95v14c0,2.19-1.41,2.82-3.12,2.82-2.13,0-3.05-1-3.05-2.82V19.64c-.94.39-2.08.9-2.86,1.2-1.31.48-4.59,1.74-6.06,1.74-2.45,0-2.91-2.4-2.91-3.24a2.34,2.34,0,0,1,2-2.46c8.4-2.58,13-4.77,19.29-10.2A2.77,2.77,0,0,1,302,6m0-4a6.77,6.77,0,0,0-4.34,1.68c-5.57,4.77-9.41,6.8-17.83,9.39-4,1.25-4.87,4.1-4.87,6.28,0,3.51,2.43,7.24,6.91,7.24a16.36,16.36,0,0,0,4.92-1.08v4.94c0,4.08,2.83,6.82,7.05,6.82s7.12-2.74,7.12-6.82V18.62a52.78,52.78,0,0,0,5.83-4.16,6.8,6.8,0,0,0,2.54-5.26A7.36,7.36,0,0,0,302,2Z"/><path class="cls-1" d="M333.3,34.9a17.29,17.29,0,0,1-4.27-.81A96,96,0,0,0,314.46,32c-4-.34-4.81-2.71-4.81-4.63,0-3.14,1.78-5,4.89-5.06a4,4,0,0,1-3.1-4.15,5.4,5.4,0,0,1,1.11-3.3,4.61,4.61,0,0,1,1.79-1.26,4.13,4.13,0,0,1-2.92-4.2,5.56,5.56,0,0,1,1-3.24,4.91,4.91,0,0,1,4.32-1.67A114.89,114.89,0,0,1,332.1,6.31c1.91.43,5.06,1.14,5.06,4.93a4.92,4.92,0,0,1-3.46,5,3.91,3.91,0,0,1,1.87,3.61,5,5,0,0,1-2.85,4.8c2.65.58,5.4,1.42,5.4,4.89C338.12,32.14,336.62,34.9,333.3,34.9Z"/><path class="cls-2" d="M316.77,6.44a114.84,114.84,0,0,1,14.91,1.83c2.13.48,3.48.9,3.48,3,0,1.11-.51,3.15-2.55,3.15-.6,0-.72,0-3.69-.72A81.45,81.45,0,0,0,316.56,12c-1.32-.12-3.14-.39-3.14-2.64a3.54,3.54,0,0,1,.63-2c.6-.78,1.43-.87,2.72-.87m-.38,8.79a94.6,94.6,0,0,1,13.94,1.95c1.92.45,3.24.75,3.24,2.7,0,.54-.18,3.09-2.49,3.09a18.54,18.54,0,0,1-3.9-.78,89.18,89.18,0,0,0-10.49-1.56c-1.45-.15-3.25-.33-3.25-2.52a3.45,3.45,0,0,1,.66-2,2.78,2.78,0,0,1,2.29-.84m-1.62,9a112.75,112.75,0,0,1,16.94,2.25c2.94.63,4.41,1,4.41,3.06,0,.87-.36,3.33-2.82,3.33a15.8,15.8,0,0,1-3.78-.75A98.17,98.17,0,0,0,314.65,30c-1-.09-3-.27-3-2.64,0-2.13,1-3.06,3.12-3.06m2-21.82a6.89,6.89,0,0,0-5.9,2.43,7.61,7.61,0,0,0-1.45,4.48,6.54,6.54,0,0,0,1.5,4.3,7.35,7.35,0,0,0-1.48,4.46,6.47,6.47,0,0,0,.91,3.42,6.81,6.81,0,0,0-2.7,5.79c0,1.42.48,6.09,6.65,6.62A94.28,94.28,0,0,1,328.56,36a18.77,18.77,0,0,0,4.74.87c3.39,0,6.82-2.52,6.82-7.33a5.91,5.91,0,0,0-3.54-5.73,7.74,7.74,0,0,0,1-4,6.47,6.47,0,0,0-.71-3.11,7.35,7.35,0,0,0,2.3-5.53c0-5.39-4.62-6.43-6.6-6.87A115.62,115.62,0,0,0,316.77,2.44Z"/><path class="cls-1" d="M346.6,34.33c-3.21,0-4.88-2.71-4.88-5.39,0-4.18,3.54-4.65,4.88-4.83,7.54-1,11.37-4,14.1-10.77.09-.21.26-.72.42-1.18s.3-.86.36-1a4.15,4.15,0,0,1,4.1-2.91c3.18,0,5.39,2,5.39,4.76,0,1.91-2.84,11.29-10.9,16.72A30.45,30.45,0,0,1,346.6,34.33Zm5.67-15.27a4.94,4.94,0,0,1-2.89-1l-.94-.61A43.23,43.23,0,0,0,344,14.81c-1.2-.65-3.2-1.73-3.2-4.35A5.17,5.17,0,0,1,346,5.31c1.93,0,6.26,2.51,7.54,3.29,1.81,1.09,3.85,2.33,3.85,5S355.19,19.06,352.27,19.06Z"/><path class="cls-2" d="M346,7.31c1.24,0,5.32,2.28,6.51,3,2,1.2,2.88,1.89,2.88,3.3s-1.29,3.45-3.11,3.45a3.08,3.08,0,0,1-1.81-.69A53.93,53.93,0,0,0,344.94,13c-1.1-.6-2.13-1.17-2.13-2.58A3.18,3.18,0,0,1,346,7.31m19.59,2.94c1.74,0,3.39.84,3.39,2.76,0,1-2.4,9.93-10,15.06a28.54,28.54,0,0,1-12.35,4.26c-2.25,0-2.88-2.07-2.88-3.39,0-2.31,1.59-2.64,3.14-2.85,7.83-1.08,12.51-4.08,15.69-12,.15-.36.66-1.89.78-2.19a2.17,2.17,0,0,1,2.25-1.65M346,3.31a7.18,7.18,0,0,0-7.18,7.15c0,3.81,3,5.41,4.23,6.1a42.38,42.38,0,0,1,4.31,2.56l.95.61A7.64,7.64,0,0,0,351.2,21a22.29,22.29,0,0,1-4.88,1.16c-2.46.33-6.6,1.65-6.6,6.81,0,4.28,2.89,7.39,6.88,7.39a32.33,32.33,0,0,0,14.6-4.95C370,25.44,373,15.22,373,13c0-3.92-3.1-6.76-7.39-6.76a6.1,6.1,0,0,0-5.94,4.11l0,.05-.39,1.09-.09.28c-.74-2.58-3-3.94-4.56-4.89C351.85,5.25,348.17,3.31,346,3.31Z"/><path class="cls-1" d="M378.81,35.11A4.8,4.8,0,0,1,374,30c0-3.55,2.63-4.13,4.55-4.56,4.57-1,9.07-2.64,11.29-7.9h-4.65a29.23,29.23,0,0,1-4.23,4A5.8,5.8,0,0,1,377.37,23,5,5,0,0,1,372.44,18c0-2.15.94-2.87,3.21-4.62a18.34,18.34,0,0,0,4.6-5.87c.81-1.55,1.81-3.48,4.8-3.48,2.45,0,5,1.43,5.18,4.08h3.39l-.29-.84a4.2,4.2,0,0,1-.2-1.18,3.17,3.17,0,0,1,3.32-3.05,2.83,2.83,0,0,1,1.55.42A3.65,3.65,0,0,1,399.87,3C402,3,402.76,4.91,403,5.64l.09.26A11.14,11.14,0,0,1,403.79,9a3.06,3.06,0,0,1-2.86,3.12,7,7,0,0,1,.1,1.23,23.44,23.44,0,0,1-8.46,16.38A28,28,0,0,1,378.81,35.11Z"/><path class="cls-2" d="M399.87,5c.54,0,.87.27,1.29,1.38A11.64,11.64,0,0,1,401.79,9c0,1.14-1.17,1.14-1.26,1.14-.72,0-.9-.42-1-.87-.06-.21-.33-1.23-.39-1.41s-.39-1.14-.45-1.35a2,2,0,0,1-.09-.54c0-.9,1.05-1,1.32-1m-3.42.09c.54,0,.9.3,1.29,1.41a11.71,11.71,0,0,1,.63,2.64c0,1.14-1.17,1.14-1.26,1.14-.72,0-.9-.42-1.05-.84-.09-.24-.33-1.23-.39-1.44s-.39-1.14-.45-1.32a2,2,0,0,1-.09-.54c0-.9,1.05-1.05,1.32-1.05m-11.4,1c1.23,0,3.18.66,3.18,2.31a3.81,3.81,0,0,1-.51,1.77h7.77c2.52,0,3.54,1.2,3.54,3.24a21.45,21.45,0,0,1-7.71,14.82,26,26,0,0,1-12.51,4.92A2.83,2.83,0,0,1,376,30c0-1.95,1.11-2.19,3-2.61,3.84-.84,9.93-2.43,12.72-9.18a11.84,11.84,0,0,0,.75-2.43c0-.24-.09-.24-.66-.24h-7.56a27.6,27.6,0,0,1-4.5,4.44,3.82,3.82,0,0,1-2.37,1A3,3,0,0,1,374.44,18c0-1.14.24-1.35,2.42-3A19.82,19.82,0,0,0,382,8.45c.75-1.44,1.26-2.4,3-2.4M399.87,1a5.79,5.79,0,0,0-1.88.31,5.35,5.35,0,0,0-1.54-.22,5.22,5.22,0,0,0-5.21,4,7.57,7.57,0,0,0-6.19-3c-4.2,0-5.74,3-6.57,4.55a16.4,16.4,0,0,1-4.08,5.24c-2.39,1.83-4,3.06-4,6.18a7.15,7.15,0,0,0,4.61,6.54A5.74,5.74,0,0,0,372,30a6.81,6.81,0,0,0,6.82,7.09,29.46,29.46,0,0,0,15-5.78A25.47,25.47,0,0,0,403,13.59,5,5,0,0,0,405.79,9,12.72,12.72,0,0,0,405,5.28l0-.09-.09-.26C404.22,3.13,402.79,1,399.87,1ZM386.08,19.56h.18a9.59,9.59,0,0,1-1.46,1.33C385.2,20.49,385.64,20.05,386.08,19.56Z"/></svg>