<?xml version="1.0" encoding="utf-8"?>
<!-- Generator: Adobe Illustrator 16.0.4, SVG Export Plug-In . SVG Version: 6.00 Build 0)  -->
<!DOCTYPE svg PUBLIC "-//W3C//DTD SVG 1.1//EN" "http://www.w3.org/Graphics/SVG/1.1/DTD/svg11.dtd">
<svg version="1.1" id="レイヤー_1" xmlns="http://www.w3.org/2000/svg" xmlns:xlink="http://www.w3.org/1999/xlink" x="0px"
	 y="0px" width="340.457px" height="231.375px" viewBox="0 0 340.457 231.375" enable-background="new 0 0 340.457 231.375"
	 xml:space="preserve">
<g display="none">
	<polygon display="inline" fill="#FAB816" points="36.392,215.236 22.375,215.236 25.879,187.205 32.888,187.205 	"/>
</g>
<g display="none">
	<path display="inline" fill="#554D57" d="M273.921,176.3l-98.113,49.057c-3.951,1.976-8.591,1.976-12.53,0L65.167,176.3
		c-4.751-2.383-7.75-7.232-7.75-12.545v-47.401H281.67v47.401C281.67,169.067,278.672,173.917,273.921,176.3z"/>
</g>
<g display="none">
	<defs>
		<rect id="SVGID_1_" x="169.544" y="116.354" width="112.126" height="110.474"/>
	</defs>
	<clipPath id="SVGID_2_" display="inline">
		<use xlink:href="#SVGID_1_"  overflow="visible"/>
	</clipPath>
	<g display="inline" clip-path="url(#SVGID_2_)">
		<defs>
			<rect id="SVGID_3_" x="169.387" y="116.266" width="112.345" height="110.691"/>
		</defs>
		<clipPath id="SVGID_4_">
			<use xlink:href="#SVGID_3_"  overflow="visible"/>
		</clipPath>
		<g transform="matrix(1 0 0 1 -1.525879e-05 -7.629395e-06)" clip-path="url(#SVGID_4_)">
			
				<image overflow="visible" width="475" height="468" xlink:href="AC2BF22B12419FA5.png"  transform="matrix(0.2365 0 0 0.2365 169.3867 116.2661)">
			</image>
		</g>
	</g>
</g>
<g display="none">
	<defs>
		<rect id="SVGID_5_" x="57.416" y="116.354" width="224.254" height="62.539"/>
	</defs>
	<clipPath id="SVGID_6_" display="inline">
		<use xlink:href="#SVGID_5_"  overflow="visible"/>
	</clipPath>
	<g display="inline" clip-path="url(#SVGID_6_)">
		<defs>
			<rect id="SVGID_7_" x="57.276" y="116.266" width="224.456" height="62.678"/>
		</defs>
		<clipPath id="SVGID_8_">
			<use xlink:href="#SVGID_7_"  overflow="visible"/>
		</clipPath>
		<g transform="matrix(1 0 0 1 0 -7.629395e-06)" clip-path="url(#SVGID_8_)">
			
				<image overflow="visible" width="949" height="265" xlink:href="AC2BF22B12419FAC.png"  transform="matrix(0.2365 0 0 0.2365 57.2759 116.2661)">
			</image>
		</g>
	</g>
</g>
<g display="none">
	<path display="inline" fill="#686072" d="M166.517,5.684L7.504,82.015c-5.298,2.55-5.298,10.091,0,12.642l159.012,76.317
		c1.92,0.926,4.149,0.926,6.068,0l159.012-76.317c5.299-2.55,5.299-10.092,0-12.642L172.571,5.684
		C170.666,4.771,168.422,4.771,166.517,5.684z"/>
</g>
<g display="none">
	<path display="inline" fill="#FAB816" d="M155.528,82.084v7.007c0,3.869,6.279,7.008,14.016,7.008
		c7.738,0,14.015-3.139,14.015-7.008v-7.007H155.528z"/>
</g>
<g display="none">
	<ellipse display="inline" fill="#FFD259" cx="169.543" cy="82.084" rx="14.016" ry="7.007"/>
</g>
<g display="none">
	<path display="inline" fill="#FFD259" d="M29.384,190.708c-1.935,0-3.504-1.569-3.504-3.503v-84.097c0-1.78,1.346-3.28,3.111-3.489
		l126.145-14.017c1.948-0.237,3.658,1.177,3.868,3.098c0.21,1.934-1.163,3.658-3.098,3.868L32.888,106.248v80.958
		C32.888,189.139,31.318,190.708,29.384,190.708z"/>
</g>
<g display="none">
	<defs>
		<rect id="SVGID_9_" x="24.254" y="187.205" width="10.259" height="14.015"/>
	</defs>
	<clipPath id="SVGID_10_" display="inline">
		<use xlink:href="#SVGID_9_"  overflow="visible"/>
	</clipPath>
	<g display="inline" clip-path="url(#SVGID_10_)">
		<defs>
			<rect id="SVGID_11_" x="24.163" y="186.985" width="10.407" height="14.427"/>
		</defs>
		<clipPath id="SVGID_12_">
			<use xlink:href="#SVGID_11_"  overflow="visible"/>
		</clipPath>
		<g transform="matrix(1 0 0 1 -1.907349e-06 0)" clip-path="url(#SVGID_12_)">
			
				<image overflow="visible" width="44" height="61" xlink:href="AC2BF22B12419FAD.png"  transform="matrix(0.2365 0 0 0.2365 24.1631 186.9854)">
			</image>
		</g>
	</g>
</g>
<circle display="none" fill="#F79D00" cx="29.384" cy="187.205" r="7.008"/>
<g>
	<path fill="#333333" d="M308.111,189.078H32.606V23.775C32.606,16.172,38.778,10,46.382,10h247.953
		c7.605,0,13.776,6.172,13.776,13.775V189.078z"/>
	<g>
		<path fill="#C8CCD5" d="M314.999,216.628H25.718c-11.405,0-20.662-9.257-20.662-20.662v-6.888h330.605v6.888
			C335.662,207.371,326.404,216.628,314.999,216.628z"/>
	</g>
	<rect x="46.382" y="23.775" fill="#ECEFF0" width="247.953" height="151.527"/>
	<g>
		<path fill="#646464" d="M129.034,189.078c0,7.604,6.17,13.775,13.774,13.775h55.102c7.603,0,13.775-6.172,13.775-13.775H129.034z"
			/>
	</g>
	<rect x="46.382" y="23.775" fill="#686072" width="247.953" height="34.438"/>
	<circle fill="#FFCD00" cx="73.932" cy="40.994" r="10.332"/>
	<path fill="#ECEFF0" d="M166.915,44.438h-34.438c-1.887,0-3.443-1.556-3.443-3.444c0-1.887,1.556-3.444,3.443-3.444h34.438
		c1.901,0,3.444,1.557,3.444,3.444C170.358,42.882,168.816,44.438,166.915,44.438z"/>
	<g>
		<path fill="#ECEFF0" d="M222.015,44.438h-34.438c-1.899,0-3.443-1.556-3.443-3.444c0-1.887,1.544-3.444,3.443-3.444h34.438
			c1.901,0,3.443,1.557,3.443,3.444C225.458,42.882,223.917,44.438,222.015,44.438z"/>
	</g>
	<g>
		<path fill="#ECEFF0" d="M277.116,44.438h-34.437c-1.901,0-3.445-1.556-3.445-3.444c0-1.887,1.544-3.444,3.445-3.444h34.437
			c1.901,0,3.443,1.557,3.443,3.444C280.559,42.882,279.017,44.438,277.116,44.438z"/>
	</g>
	<rect x="46.382" y="58.214" fill="#65C6F2" width="247.953" height="75.764"/>
	<g>
		<path fill="#C8CCD5" d="M112.351,151.196H63.6c-1.901,0-3.443-1.544-3.443-3.442c0-1.902,1.542-3.445,3.443-3.445h48.751
			c1.9,0,3.444,1.543,3.444,3.445C115.795,149.652,114.251,151.196,112.351,151.196z"/>
	</g>
	<g>
		<path fill="#C8CCD5" d="M195.001,151.196h-48.75c-1.901,0-3.444-1.544-3.444-3.442c0-1.902,1.543-3.445,3.444-3.445h48.75
			c1.901,0,3.445,1.543,3.445,3.445C198.447,149.652,196.903,151.196,195.001,151.196z"/>
	</g>
	<g>
		<path fill="#C8CCD5" d="M277.654,151.196h-48.75c-1.901,0-3.445-1.544-3.445-3.442c0-1.902,1.544-3.445,3.445-3.445h48.75
			c1.9,0,3.442,1.543,3.442,3.445C281.096,149.652,279.554,151.196,277.654,151.196z"/>
	</g>
	<polygon fill="#0071A0" points="60.157,133.978 129.034,79.455 197.91,133.978 	"/>
	<polygon fill="#1EA8DB" points="115.258,133.978 197.91,65.68 280.559,133.978 	"/>
	<g>
		<path fill="#C8CCD5" d="M112.351,164.972H63.6c-1.901,0-3.443-1.543-3.443-3.444s1.542-3.443,3.443-3.443h48.751
			c1.9,0,3.444,1.542,3.444,3.443S114.251,164.972,112.351,164.972z"/>
	</g>
	<g>
		<path fill="#C8CCD5" d="M195.001,164.972h-48.75c-1.901,0-3.444-1.543-3.444-3.444s1.543-3.443,3.444-3.443h48.75
			c1.901,0,3.445,1.542,3.445,3.443S196.903,164.972,195.001,164.972z"/>
	</g>
	<g>
		<path fill="#C8CCD5" d="M277.654,164.972h-48.75c-1.901,0-3.445-1.543-3.445-3.444s1.544-3.443,3.445-3.443h48.75
			c1.9,0,3.442,1.542,3.442,3.443S279.554,164.972,277.654,164.972z"/>
	</g>
</g>
<rect x="95.718" y="31.22" display="none" fill="#D3DCDC" width="26.337" height="43.604"/>
<path display="none" fill="#F4866E" d="M255.496,104.086l-82.229-65.842l-82.23,65.842c-2.633,2.048-4.097,4.975-4.097,8.193v97.741
	c0,4.095,3.512,7.606,7.609,7.606h157.143c4.098,0,7.608-3.512,7.608-7.606V112.28C259.299,109.062,257.835,105.841,255.496,104.086
	z"/>
<path display="none" fill="#474F5A" d="M87.231,194.509v15.512c0,4.095,3.512,7.606,7.608,7.606h157.144
	c4.098,0,7.609-3.512,7.609-7.606v-15.512H87.231z"/>
<path display="none" fill="#474F5A" d="M176.484,40.877l91.303,72.866c3.804,3.218,9.363,3.218,13.167,0
	c5.268-4.39,5.268-12.291,0-16.681L179.997,16.589c-3.804-3.219-9.365-3.219-13.167,0L65.577,97.356
	c-5.267,4.39-5.267,12.29,0,16.68c3.805,3.218,9.364,3.218,13.169,0l91.301-72.866C172.095,39.414,174.729,39.414,176.484,40.877z"
	/>
<rect x="148.685" y="119.303" display="none" fill="#474F5A" width="49.162" height="98.032"/>
<path display="none" fill="#FFFFFF" d="M136.395,119.303h-28.678c-2.048,0-3.805,1.755-3.805,3.805v41.26
	c0,2.049,1.756,3.805,3.805,3.805h28.678c2.048,0,3.804-1.756,3.804-3.805V123.4C140.198,121.059,138.735,119.303,136.395,119.303z"
	/>
<path display="none" fill="#00AFC0" d="M134.346,124.57h-24.289c-0.878,0-1.463,0.585-1.463,1.463v35.994
	c0,0.877,0.585,1.463,1.463,1.463h24.289c0.878,0,1.462-0.586,1.462-1.463v-35.994C135.516,125.156,134.931,124.57,134.346,124.57z"
	/>
<circle display="none" fill="#EFF1F3" cx="173.266" cy="87.406" r="16.095"/>
<path display="none" fill="#F4866E" d="M128.493,16.882H89.281c-1.171,0-2.05,0.878-2.05,2.049v10.242
	c0,1.171,0.878,2.048,2.05,2.048h39.211c1.171,0,2.048-0.877,2.048-2.048V18.931C130.541,18.052,129.664,16.882,128.493,16.882z"/>
</svg>
