<svg id="materials" xmlns="http://www.w3.org/2000/svg" viewBox="0 0 240 240"><defs><style>.cls-1{fill:#8ccae5;}.cls-2{fill:#474747;}.cls-3{fill:#eaeae4;}.cls-4{fill:#a5a5a5;}.cls-5{fill:#aee5bd;}.cls-6{fill:#efefed;}.cls-7{fill:#ff0;}</style></defs><title>アートボード 23 のコピー</title><path class="cls-1" d="M133.15,60.51A9.52,9.52,0,0,1,142.64,70v73.94a9.52,9.52,0,0,1-9.49,9.49H23.23a9.52,9.52,0,0,1-9.49-9.49V70a9.52,9.52,0,0,1,9.49-9.49H88.68l4.49-10.77h31.46l4.49,10.77Z"/><path class="cls-2" d="M133.15,60.51V62a8,8,0,0,1,8,8v73.94a8,8,0,0,1-8,8H23.23a8,8,0,0,1-8-8V70a8,8,0,0,1,8-8H89.68l4.49-10.77h29.46L128.12,62h5V59h-3l-4.49-10.77H92.17L87.68,59H23.23a11,11,0,0,0-11,11v73.94a11,11,0,0,0,11,11H133.15a11,11,0,0,0,11-11V70a11,11,0,0,0-11-11Z"/><path class="cls-3" d="M142.64,143.94a9.52,9.52,0,0,1-9.49,9.49H23.23a9.52,9.52,0,0,1-9.49-9.49V83H73.92L78.41,72.2h64.23Z"/><path class="cls-3" d="M142.64,143.94a9.52,9.52,0,0,1-9.49,9.49H23.23a9.52,9.52,0,0,1-9.49-9.49V98.59h66l4.49-10.77h58.39Z"/><path class="cls-2" d="M133.15,60.51v1A8.5,8.5,0,0,1,141.64,70v73.94a8.52,8.52,0,0,1-8.49,8.49H23.23a8.52,8.52,0,0,1-8.49-8.49V70a8.5,8.5,0,0,1,8.49-8.49H89.35l4.49-10.77H124l4.49,10.77h4.7v-2h-3.36l-4.5-10.77H92.51L88,59.51H23.23A10.51,10.51,0,0,0,12.74,70v73.94a10.51,10.51,0,0,0,10.49,10.49H133.15a10.51,10.51,0,0,0,10.49-10.49V70a10.51,10.51,0,0,0-10.49-10.49Z"/><path class="cls-2" d="M13.74,84H74.58l4.5-10.77h63.56a1,1,0,0,0,0-2H77.74L73.25,82H13.74a1,1,0,1,0,0,2Z"/><path class="cls-2" d="M13.74,99.59H80.43l4.49-10.77h57.72a1,1,0,0,0,0-2h-59l-4.5,10.77H13.74a1,1,0,1,0,0,2Z"/><rect class="cls-4" x="41.4" y="67.73" width="24.19" height="6.33"/><path class="cls-4" d="M29.4,70.9a3.46,3.46,0,1,1-3.46-3.46A3.46,3.46,0,0,1,29.4,70.9Z"/><path class="cls-4" d="M38.64,70.9a3.46,3.46,0,1,1-3.46-3.46A3.46,3.46,0,0,1,38.64,70.9Z"/><path class="cls-5" d="M216.75,89.19A10.28,10.28,0,0,1,227,99.44v79.87a10.28,10.28,0,0,1-10.25,10.25H98a10.28,10.28,0,0,1-10.25-10.25V99.44A10.28,10.28,0,0,1,98,89.19h70.69l4.86-11.63h34l4.85,11.63Z"/><path class="cls-2" d="M216.75,89.19v1.5a8.77,8.77,0,0,1,8.75,8.75v79.87a8.77,8.77,0,0,1-8.75,8.75H98a8.77,8.77,0,0,1-8.75-8.75V99.44A8.77,8.77,0,0,1,98,90.69h71.69l4.86-11.63h32l4.85,11.63h5.36v-3h-3.36l-4.85-11.63h-36l-4.86,11.63H98A11.78,11.78,0,0,0,86.27,99.44v79.87A11.78,11.78,0,0,0,98,191.06H216.75a11.79,11.79,0,0,0,11.75-11.75V99.44a11.79,11.79,0,0,0-11.75-11.75Z"/><path class="cls-6" d="M227,179.31a10.28,10.28,0,0,1-10.25,10.25H98a10.28,10.28,0,0,1-10.25-10.25V113.45h65l4.85-11.63H227Z"/><path class="cls-6" d="M227,179.31a10.28,10.28,0,0,1-10.25,10.25H98a10.28,10.28,0,0,1-10.25-10.25v-49h71.31l4.86-11.64H227Z"/><path class="cls-2" d="M216.75,89.19v1.5a8.77,8.77,0,0,1,8.75,8.75v79.87a8.77,8.77,0,0,1-8.75,8.75H98a8.77,8.77,0,0,1-8.75-8.75V99.44A8.77,8.77,0,0,1,98,90.69h71.69l4.86-11.63h32l4.85,11.63h5.36v-3h-3.36l-4.85-11.63h-36l-4.86,11.63H98A11.78,11.78,0,0,0,86.27,99.44v79.87A11.78,11.78,0,0,0,98,191.06H216.75a11.79,11.79,0,0,0,11.75-11.75V99.44a11.79,11.79,0,0,0-11.75-11.75Z"/><path class="cls-2" d="M87.77,114.45h65.67l4.85-11.63H227a1,1,0,0,0,0-2H157l-4.86,11.63H87.77a1,1,0,0,0,0,2Z"/><path class="cls-2" d="M87.77,131.33h72l4.85-11.64H227a1,1,0,0,0,0-2H163.27l-4.85,11.64H87.77a1,1,0,0,0,0,2Z"/><rect class="cls-4" x="117.65" y="95.94" width="26.13" height="6.83"/><path class="cls-4" d="M104.69,99.35A3.74,3.74,0,1,1,101,95.62,3.74,3.74,0,0,1,104.69,99.35Z"/><path class="cls-4" d="M114.66,99.35a3.74,3.74,0,1,1-3.74-3.73A3.73,3.73,0,0,1,114.66,99.35Z"/><path class="cls-7" d="M66,80h0a19,19,0,0,0,9.55-10.47L76,68.27h.17l.47,1.25A19,19,0,0,0,86.2,80v.18a19,19,0,0,0-9.55,10.47l-.47,1.25H76l-.47-1.25A19,19,0,0,0,66,80.17"/><path class="cls-2" d="M66.64,81.34A20.5,20.5,0,0,0,77,70.05l.47-1.25L76,68.27v1.5h.17v-1.5l-1.4.53.46,1.25A20.57,20.57,0,0,0,85.55,81.34L86.2,80H84.7v.18h1.5l-.65-1.35A20.57,20.57,0,0,0,75.24,90.11l-.46,1.25,1.4.53v-1.5H76v1.5l1.41-.53L77,90.11A20.5,20.5,0,0,0,66.64,78.82a1.5,1.5,0,0,0-1.3,2.71,17.43,17.43,0,0,1,8.8,9.63L75,93.39h2.25l.83-2.23a17.51,17.51,0,0,1,8.8-9.63l.85-.41V79l-.85-.41A17.54,17.54,0,0,1,78.05,69l-.83-2.23H75L74.14,69a17.47,17.47,0,0,1-8.8,9.63,1.5,1.5,0,0,0,1.3,2.71Z"/><path class="cls-7" d="M5.26,123h0a23.88,23.88,0,0,0,12-13.15l.59-1.57h.21l.59,1.57a23.88,23.88,0,0,0,12,13.15v.24a23.88,23.88,0,0,0-12,13.15L18.07,138h-.21l-.59-1.57a23.88,23.88,0,0,0-12-13.15"/><path class="cls-2" d="M5.91,124.35a25.35,25.35,0,0,0,12.76-14l.59-1.57-1.4-.53v1.5h.21v-1.5l-1.4.53.58,1.57a25.4,25.4,0,0,0,12.77,14l.65-1.35h-1.5v.24h1.5L30,121.89a25.42,25.42,0,0,0-12.77,14l-.58,1.57,1.4.52v-1.5h-.21V138l1.4-.52-.59-1.57a25.37,25.37,0,0,0-12.76-14,1.5,1.5,0,0,0-1.3,2.7,22.38,22.38,0,0,1,11.25,12.33l1,2.54h2.29l.95-2.54a22.4,22.4,0,0,1,11.26-12.33l.85-.41v-2.12l-.85-.41a22.38,22.38,0,0,1-11.26-12.32l-.95-2.55H16.82l-1,2.55A22.37,22.37,0,0,1,4.61,121.65a1.5,1.5,0,0,0,1.3,2.7Z"/><path class="cls-7" d="M214.53,62.85h0a19,19,0,0,0,9.55-10.46l.47-1.25h.17l.47,1.25a19,19,0,0,0,9.55,10.46V63a19,19,0,0,0-9.55,10.46l-.47,1.25h-.17l-.47-1.25A19,19,0,0,0,214.53,63"/><path class="cls-2" d="M215.18,64.2a20.48,20.48,0,0,0,10.31-11.28l.47-1.25-1.41-.53v1.5h.17v-1.5l-1.41.53.47,1.25A20.48,20.48,0,0,0,234.09,64.2l.65-1.35h-1.5V63h1.5l-.65-1.35A20.5,20.5,0,0,0,223.78,73l-.47,1.25,1.41.52v-1.5h-.17v1.5l1.41-.52L225.49,73a20.5,20.5,0,0,0-10.31-11.29,1.5,1.5,0,1,0-1.3,2.7,17.52,17.52,0,0,1,8.8,9.64l.83,2.22h2.25l.83-2.22a17.52,17.52,0,0,1,8.8-9.64l.85-.41V61.91l-.85-.41a17.52,17.52,0,0,1-8.8-9.64l-.83-2.22h-2.25l-.83,2.22a17.52,17.52,0,0,1-8.8,9.64,1.5,1.5,0,1,0,1.3,2.7Z"/><path class="cls-7" d="M179.42,156.52h0A33,33,0,0,0,196,138.35l.81-2.17h.29l.82,2.17a33,33,0,0,0,16.59,18.17v.33A33,33,0,0,0,197.94,175l-.82,2.18h-.29L196,175a33,33,0,0,0-16.6-18.17"/><path class="cls-2" d="M180.08,157.88a34.5,34.5,0,0,0,17.34-19l.82-2.17-1.41-.53v1.5h.29v-1.5l-1.4.53.81,2.17a34.51,34.51,0,0,0,17.35,19l.65-1.36H213v.33h1.5l-.65-1.35a34.51,34.51,0,0,0-17.35,19l-.81,2.17,1.4.53v-1.5h-.29v1.5l1.41-.53-.82-2.17a34.5,34.5,0,0,0-17.34-19,1.5,1.5,0,1,0-1.31,2.7,31.5,31.5,0,0,1,15.84,17.35l1.18,3.15h2.37l1.18-3.15a31.53,31.53,0,0,1,15.84-17.35l.85-.41v-2.21l-.85-.41a31.51,31.51,0,0,1-15.84-17.34l-1.18-3.15h-2.37l-1.18,3.15a31.48,31.48,0,0,1-15.84,17.34,1.51,1.51,0,0,0,1.31,2.71Z"/><path class="cls-7" d="M50.11,178.36h0a19,19,0,0,0,9.55-10.46l.47-1.25h.17l.46,1.25a19,19,0,0,0,9.56,10.46v.19A19,19,0,0,0,60.76,189l-.46,1.25h-.17L59.66,189a19.06,19.06,0,0,0-9.55-10.46"/><path class="cls-2" d="M71,177a17.5,17.5,0,0,1-8.8-9.63l-.83-2.23H59.09l-.84,2.23A17.52,17.52,0,0,1,49.46,177a1.65,1.65,0,0,0,0,2.89,17.5,17.5,0,0,1,8.79,9.64l.84,2.22h2.25l.83-2.22A17.49,17.49,0,0,1,71,179.9l.85-.41v-2.07Zm-10.76,9.53A20.39,20.39,0,0,0,53,178.46a20.42,20.42,0,0,0,7.25-8.09,20.42,20.42,0,0,0,7.25,8.09A20.39,20.39,0,0,0,60.21,186.54Z"/></svg>