<svg id="レイヤー_1" data-name="レイヤー 1" xmlns="http://www.w3.org/2000/svg" viewBox="0 0 500 300"><defs><style>.cls-1{fill:none;}</style></defs><path d="M86.5,50.07a5.38,5.38,0,0,1-1.38,3.32L53.4,85.12a5.41,5.41,0,0,1-3.33,1.38,5.4,5.4,0,0,1-3.32-1.38L14.88,53.25a5.4,5.4,0,0,1-1.38-3.32,5.41,5.41,0,0,1,1.38-3.33L36.73,24.74,45,33a5.59,5.59,0,0,0,3,7.33v20a5.6,5.6,0,0,0-1.83,9.13,6.44,6.44,0,0,0,4,1.63,6.41,6.41,0,0,0,3.95-1.63,5.59,5.59,0,0,0-1.48-9V40.71l7.56,7.55a5.59,5.59,0,1,0,3.34-3.16L55.45,37a5.59,5.59,0,0,0-7.07-7.12L40,21.5l6.62-6.62a5.4,5.4,0,0,1,3.32-1.38,5.41,5.41,0,0,1,3.33,1.38L85.12,46.75A5.4,5.4,0,0,1,86.5,50.07Z"/><path d="M171.73,38.36a3.13,3.13,0,0,1,0,3.33L147.34,83.81a3.31,3.31,0,0,1-6.09-2.5l6.37-26.88H131.13a3.13,3.13,0,0,1-2.49-1.1,3.38,3.38,0,0,1-.83-2.64l4.43-33.25a3.1,3.1,0,0,1,1.11-2.08,3.3,3.3,0,0,1,2.21-.83h18.85A3.09,3.09,0,0,1,157,15.85a3.14,3.14,0,0,1,.55,2.84l-4.71,18h15.94A3.16,3.16,0,0,1,171.73,38.36Z"/><path d="M278.94,32.71c0,5.21-13,9.45-28.94,9.45s-28.94-4.24-28.94-9.45v-5.9c0-5.21,13-9.45,28.94-9.45s28.94,4.24,28.94,9.45Zm0,20.67c0,5.21-13,9.45-28.94,9.45s-28.94-4.24-28.94-9.45V40.09c6.22,4.28,17.6,6.28,28.94,6.28s22.72-2,28.94-6.28Zm0,20.67c0,5.21-13,9.45-28.94,9.45s-28.94-4.24-28.94-9.45V60.76C227.28,65.05,238.66,67,250,67s22.72-2,28.94-6.28Z"/><path d="M380.21,15.18l-5.49,62.28L350,85.68l-24.72-8.22-5.49-62.28ZM330.94,27.77l.92,7.44H351.2l-1,.43L332.53,43l.57,7.29h0l26.17.08L358.72,60l-8.61,2.43-8.28-2.1-.5-6h-7.7l1,11.63,15.55,4.59,15.45-4.51,2-23.08h-17.5l18.14-7.76.76-7.44Z"/><path d="M483.32,74.38A9.36,9.36,0,0,1,474,83.75h-47.9a9.36,9.36,0,0,1-1.48-18.6,9.34,9.34,0,0,1,5.65-16.8h1.83a8.3,8.3,0,0,1,5.45-14.58h2.09A10.38,10.38,0,0,0,448,17.3a12.65,12.65,0,0,1,2-.19A12.5,12.5,0,0,1,462.5,29.6a12.34,12.34,0,0,1-.77,4.17h.77A8.3,8.3,0,0,1,468,48.35h1.83a9.34,9.34,0,0,1,5.65,16.8A9.36,9.36,0,0,1,483.32,74.38Zm-21.9-7.29H438.58a1.06,1.06,0,0,0-1,1.43c1.37,3.63,7.61,6.9,12.43,6.9s11.06-3.27,12.43-6.9A1.06,1.06,0,0,0,461.42,67.09ZM437.5,54.59a4.17,4.17,0,1,0,4.17-4.16A4.17,4.17,0,0,0,437.5,54.59Zm25,0a4.17,4.17,0,1,0-4.17,4.17A4.17,4.17,0,0,0,462.5,54.59Z"/><path d="M55.85,139.63l-13-21.46a4,4,0,0,0-3.42-1.92H-3.49a4,4,0,0,0-3.42,1.93l-12.95,21.46a4,4,0,0,0,.46,4.75L15,182.4a4,4,0,0,0,6,0L55.4,144.39A4,4,0,0,0,55.85,139.63ZM24.16,169.18l8.44-25H46.8Zm-12.43,0-22.54-24.93H3.31l4.35,12.86Zm6.22,2.8L8.59,144.21H27.32ZM34.7,139.21h-.12l5.3-13.37L48,139.21Zm-8.19,0h-17L18,125.1Zm-21-3.1L0,122.25H13.89Zm-4.15,3.1H-12l8.07-13.37Zm34.52-17-5.48,13.81-8.32-13.81Z"/><path d="M156.85,116.73,118,183.27,79.15,116.73h30.53L118,132.09l9.71-15.36h29.14ZM118,172.26l29.17-50h-9.33L118,156.65,98.14,122.28H88.81Z"/><path d="M251.65,154.77a3.73,3.73,0,0,1-1.32,2.89,4.36,4.36,0,0,1-3,1.18h-7.23v2.1a18.16,18.16,0,0,1-1.84,8l8,7.89a4.36,4.36,0,0,1,1.18,3,4.27,4.27,0,0,1-4.2,4.21,4.41,4.41,0,0,1-3-1.19l-7.09-7.22a18.68,18.68,0,0,1-12,4.2V147.8a1.52,1.52,0,0,0-.46-1.12,1.53,1.53,0,0,0-1.11-.46h-3.16a1.57,1.57,0,0,0-1.57,1.58v32.07a18.68,18.68,0,0,1-12-4.2l-7.09,7.22a4.41,4.41,0,0,1-3,1.19,4.27,4.27,0,0,1-4.2-4.21,4.36,4.36,0,0,1,1.18-3l8-7.89a18.16,18.16,0,0,1-1.84-8v-2.1h-7.23a4.36,4.36,0,0,1-3-1.18,3.82,3.82,0,0,1-1.32-3,4.12,4.12,0,0,1,1.25-3,4.05,4.05,0,0,1,3-1.25h7.36v-7.76l-6.18-6a4.4,4.4,0,0,1-1.18-3,4.27,4.27,0,0,1,4.2-4.2,4.4,4.4,0,0,1,3,1.18l7.09,7.23h30.24l7.09-7.23a4.4,4.4,0,0,1,3-1.18,4.27,4.27,0,0,1,4.2,4.2,4.4,4.4,0,0,1-1.18,3l-6.18,6v7.76h7.36a4.05,4.05,0,0,1,3,1.25A4.2,4.2,0,0,1,251.65,154.77Zm-33.52-38a14.72,14.72,0,0,0-14.72,14.72h29.44a14.72,14.72,0,0,0-14.72-14.72Z"/><path d="M350,167.26c-5.44,11-20.4,10.74-31.12,10.74-10.88,0-26.74.39-32.39-10.74a30.7,30.7,0,0,1-2.9-13.64,24.72,24.72,0,0,1,5.95-16.32,22.67,22.67,0,0,1-1.1-7c0-3.08.7-4.63,2.1-7.43,6.5,0,10.67,1.29,15.62,5.17a54.47,54.47,0,0,1,12.74-1.44,49.77,49.77,0,0,1,11.54,1.32c4.89-3.83,9.05-5,15.48-5,1.41,2.8,2.1,4.35,2.1,7.43a22,22,0,0,1-1.11,6.93,24.73,24.73,0,0,1,5.6,16.4C352.46,158.2,352,163.05,350,167.26ZM332.68,149a58.05,58.05,0,0,0-8.05.86,42.12,42.12,0,0,1-6.47.46,42.61,42.61,0,0,1-6.48-.46,57,57,0,0,0-8-.86c-6.72,0-10.56,5.55-10.56,11.86,0,12.61,11.55,14.54,21.6,14.54h6.92c10.1,0,21.63-1.92,21.63-14.54C343.23,154.56,339.4,149,332.68,149ZM305,168.78c-3.71,0-5.27-4.91-5.27-7.91S301.28,153,305,153s5.27,4.92,5.27,7.92S308.69,168.78,305,168.78Zm31.65-7.91c0,3-1.57,7.91-5.27,7.91s-5.27-4.91-5.27-7.91,1.56-7.92,5.27-7.92S336.64,157.87,336.64,160.87Z"/><path d="M448.25,167.25c-2,5.91-8.68,19.06-16.49,19.18-4.52,0-7.17-2.88-12.28-2.88-5.28,0-8.14,2.78-12.19,2.88-7.74.24-15.17-14.23-17.23-20.13a40.13,40.13,0,0,1-2.31-13.05c0-14.26,9.53-21.27,18.5-21.41,4.34,0,9.87,3.16,12.28,3.16s8.52-3.77,14.23-3.33c6,.47,10.59,2.85,13.61,7.17-5.4,3.28-8.07,7.74-8,13.64C438.33,152.78,437.77,162.31,448.25,167.25Zm-30.19-35.66A15.4,15.4,0,0,1,422.18,120a17,17,0,0,1,10.91-5.61,15.09,15.09,0,0,1-3.86,11.65C426.08,129.76,422.26,131.92,418.06,131.59Z"/><path d="M555.85,139.63l-13-21.46a4,4,0,0,0-3.42-1.92h-42.9a4,4,0,0,0-3.42,1.93l-12.95,21.46a4,4,0,0,0,.46,4.75l34.35,38a4,4,0,0,0,6,0l34.48-38.05A4,4,0,0,0,555.85,139.63Zm-31.69,29.55,8.44-25h14.2Zm-12.43,0-22.54-24.93h14.12l4.35,12.86Zm6.22,2.8-9.36-27.73h18.73Zm16.75-32.73h-.12l5.3-13.37L548,139.21Zm-8.19,0h-17L518,125.1Zm-20.95-3.1L500,122.25h13.88Zm-4.15,3.1H488l8.07-13.37Zm34.52-17-5.48,13.81-8.32-13.81Z"/><path d="M15.23,237.47H-43.23a4,4,0,0,1-2.94-1.24,4,4,0,0,1-1.24-2.94v-8.35A4,4,0,0,1-46.17,222a4,4,0,0,1,2.94-1.23H15.23a4.22,4.22,0,0,1,4.18,4.17v8.35a4.23,4.23,0,0,1-4.18,4.18Zm0,20.88H-43.23a4,4,0,0,1-2.94-1.24,4,4,0,0,1-1.24-2.93v-8.36a4,4,0,0,1,1.24-2.93,4,4,0,0,1,2.94-1.24H15.23a4,4,0,0,1,2.94,1.24,4,4,0,0,1,1.24,2.93v8.36a4,4,0,0,1-1.24,2.93A4,4,0,0,1,15.23,258.35Zm0,20.88H-43.23A4,4,0,0,1-46.17,278a4,4,0,0,1-1.24-2.94v-8.35a4,4,0,0,1,1.24-2.94,4,4,0,0,1,2.94-1.24H15.23a4.23,4.23,0,0,1,4.18,4.18v8.35a4.22,4.22,0,0,1-4.18,4.17ZM.62,226a3,3,0,0,0-2.22.91,3.14,3.14,0,0,0,0,4.44,3,3,0,0,0,2.22.91,3,3,0,0,0,2.22-.91,3.16,3.16,0,0,0,0-4.44A3,3,0,0,0,.62,226Zm0,20.88a3,3,0,0,0-2.22.91,3.14,3.14,0,0,0,0,4.44,3,3,0,0,0,2.22.91,3,3,0,0,0,2.22-.91,3.16,3.16,0,0,0,0-4.44A3,3,0,0,0,.62,246.87Zm0,20.88a3.06,3.06,0,0,0-2.22.91,3.14,3.14,0,0,0,0,4.44A3,3,0,0,0,.62,274a3,3,0,0,0,2.22-.91,3.16,3.16,0,0,0,0-4.44A3.06,3.06,0,0,0,.62,267.75ZM9,226a3.13,3.13,0,1,0,0,6.26A3.13,3.13,0,1,0,9,226Zm0,20.88a3.13,3.13,0,1,0,0,6.26,3.13,3.13,0,1,0,0-6.26Zm0,20.88a3.06,3.06,0,0,0-2.22.91A3.13,3.13,0,0,0,9,274a3.14,3.14,0,0,0,2.22-5.35A3.06,3.06,0,0,0,9,267.75Z"/><path d="M318.38,218.05V282.8H253.62V218.05Zm-29.52,29.73h-6.08v20.68c0,3.06-1.28,3.83-3.27,3.83s-3-1.43-3.92-3.11l-4.95,3a9.44,9.44,0,0,0,9.13,5.56c5.39,0,9.09-2.88,9.09-9.18Zm24.47,21.48c0-5.09-2.9-7.36-8.08-9.57l-1.51-.65c-2.62-1.14-3.75-1.88-3.75-3.7a2.65,2.65,0,0,1,2.91-2.6c1.74,0,2.87.74,3.91,2.6l4.74-3c-2-3.53-4.77-4.87-8.64-4.87-5.42,0-8.9,3.46-8.9,8,0,5,2.9,7.32,7.3,9.18l1.51.65c2.79,1.23,4.44,2,4.44,4.05,0,1.75-1.62,3-4.13,3-3,0-4.7-1.58-6-3.71l-5,2.87c1.78,3.52,5.43,6.21,11.09,6.21S313.33,274.72,313.33,269.26Z"/><polygon class="cls-1" points="203.01 261.74 202.17 257.79 171.85 257.79 170.73 261.74 203.01 261.74"/><polygon class="cls-1" points="178.95 250.04 177.29 246.09 175.17 246.09 174.05 250.04 178.95 250.04"/><polygon class="cls-1" points="200.51 250.04 199.66 246.09 195.68 246.09 188.4 250.04 200.51 250.04"/><polygon class="cls-1" points="205.52 273.45 204.67 269.49 168.54 269.49 167.42 273.45 205.52 273.45"/><polygon points="153.6 286.58 153.6 288.47 163.17 288.47 165.23 281.2 155.65 281.2 153.6 286.58"/><polygon points="207.18 281.2 208.74 288.47 218.31 288.47 218.31 286.58 216.64 281.2 207.18 281.2"/><path d="M165.06,256.53h48.68L211.47,250H207l-1.23-3.95h-6.11l.85,3.95H188.4l7.28-3.95,2.32-1.26h11.72L208,239.4l2.51-1.36a2,2,0,0,0,1-2.17l-3.21-15.15a2,2,0,0,0-1.29-1.47l-25-8.75a1.88,1.88,0,0,0-.66-.12,2,2,0,0,0-1.27.46l-11.92,9.86a2,2,0,0,0-.57,2.31L173,235.79l-1,2.55h-4.44L165,244.83h11.73l.53,1.26L179,250h-4.9l1.12-3.95H169L167.53,250h-4.62l-2.76,6.49h4.91Zm25.6-11.7-2.32,1.26-.69.37.31-.37,1-1.26,5.28-6.49,3-3.64.72-.89,4.53,1.59,3.37,1.18-2.57,1.4ZM207.51,234l-6.14-2.16-1.42-.49.81-1,4.75-5.83Zm-3.76-12.17-5.89,6.78-2-9.54ZM195,229.61l-10-3.52,7.93-6.58Zm-4.13-12.3-7.53,6.24-.39-9Zm-11-1.76.08,8.78-2.73-1-4.79-1.68Zm-5.11,15.51-2.64-6.29,7.86,2.75.09,10.82,0,5.46-2.3-5.46-.28-.67Zm8.5,13.77.07-6.49.11-9.6,11,3.86L190,238.34l-5.07,6.49-1,1.26-.69.89v-2.15Z"/><polygon points="168.9 268.23 204.4 268.23 212.63 268.23 218.1 268.23 215.64 261.74 210.62 261.74 209.4 257.79 202.17 257.79 203.01 261.74 170.73 261.74 171.85 257.79 164.58 257.79 163.07 261.74 157.85 261.74 154.87 268.23 160.6 268.23 168.9 268.23"/><polygon points="222.81 279.94 220.16 273.45 214.24 273.45 213.02 269.49 204.67 269.49 205.52 273.45 167.42 273.45 168.54 269.49 160.12 269.49 158.61 273.45 152.39 273.45 149.19 279.94 156.13 279.94 165.58 279.94 206.91 279.94 216.25 279.94 222.81 279.94"/><path d="M116.31,214.64l-5.51,62.48-24.88,8.24L61.2,277.12l-5.51-62.48ZM105,227.3H67l2,23H95.35l-.95,9.82-8.48,2.29-8.45-2.29-.55-6H69.39l1,12,15.58,4.31h.17v-.05l15.46-4.26,2.15-23.43H76l-.65-7.8h29Z"/><path d="M415.29,279.22,413.41,283a2.11,2.11,0,0,1-2.83.95L386,272l-24.58,12a2.11,2.11,0,0,1-2.83-.95l-1.88-3.77a2.11,2.11,0,0,1,.94-2.83l18.71-9.1-18.71-9.1a2.1,2.1,0,0,1-.94-2.82l1.88-3.78a2.11,2.11,0,0,1,2.83-.94l24.58,12,24.58-12a2.11,2.11,0,0,1,2.83.94l1.88,3.78a2.1,2.1,0,0,1-.94,2.82l-18.71,9.1,18.71,9.1A2.11,2.11,0,0,1,415.29,279.22ZM367,233.56c0-9.31,8.49-16.86,19-16.86s19,7.55,19,16.86c0,6.13-3.71,11.45-9.22,14.4l.72,3.41a2.56,2.56,0,0,1-2.16,3.27H377.69a2.56,2.56,0,0,1-2.16-3.27l.72-3.41C370.74,245,367,239.69,367,233.56Zm7.37,2.11a4.22,4.22,0,1,0,4.22-4.22A4.23,4.23,0,0,0,374.4,235.67Zm14.76,0a4.22,4.22,0,1,0,4.22-4.22A4.22,4.22,0,0,0,389.16,235.67Z"/><path d="M515.23,237.47H456.77a4.23,4.23,0,0,1-4.18-4.18v-8.35a4.22,4.22,0,0,1,4.18-4.17h58.46a4.22,4.22,0,0,1,4.18,4.17v8.35a4.23,4.23,0,0,1-4.18,4.18Zm0,20.88H456.77a4.24,4.24,0,0,1-4.18-4.17v-8.36a4.24,4.24,0,0,1,4.18-4.17h58.46a4.24,4.24,0,0,1,4.18,4.17v8.36a4.24,4.24,0,0,1-4.18,4.17Zm0,20.88H456.77a4.22,4.22,0,0,1-4.18-4.17v-8.35a4.23,4.23,0,0,1,4.18-4.18h58.46a4.23,4.23,0,0,1,4.18,4.18v8.35a4.22,4.22,0,0,1-4.18,4.17ZM500.62,226a3.13,3.13,0,1,0,2.22,5.35,3.16,3.16,0,0,0,0-4.44A3,3,0,0,0,500.62,226Zm0,20.88a3.13,3.13,0,1,0,2.22,5.35,3.16,3.16,0,0,0,0-4.44A3,3,0,0,0,500.62,246.87Zm0,20.88a3.13,3.13,0,0,0-2.22,5.35,3.16,3.16,0,0,0,4.44,0,3.13,3.13,0,0,0-2.22-5.35ZM509,226a3.11,3.11,0,1,0,2.22.91A3,3,0,0,0,509,226Zm0,20.88a3.11,3.11,0,1,0,2.22.91A3,3,0,0,0,509,246.87Zm0,20.88a3.06,3.06,0,0,0-2.22.91,3.13,3.13,0,1,0,4.44,0A3.06,3.06,0,0,0,509,267.75Z"/></svg>