<?xml version="1.0" encoding="utf-8"?>
<!-- Generator: Adobe Illustrator 24.3.0, SVG Export Plug-In . SVG Version: 6.00 Build 0)  -->
<svg version="1.1" id="レイヤー_1" xmlns="http://www.w3.org/2000/svg" xmlns:xlink="http://www.w3.org/1999/xlink" x="0px"
	 y="0px" viewBox="0 0 300 300" style="enable-background:new 0 0 300 300;" xml:space="preserve">
<style type="text/css">
	.st0{fill:#FFCB2B;}
	.st1{fill:#6E351D;}
</style>
<path id="XMLID_3854_" class="st0" d="M150.1,0C232.9,0,300,67.1,300,149.9s-67.1,149.9-149.9,149.9S0.2,232.7,0.2,149.9
	S67.3,0,150.1,0z"/>
<circle id="XMLID_3832_" class="st1" cx="219.3" cy="133.8" r="23.1"/>
<circle id="XMLID_3824_" class="st1" cx="80.9" cy="133.8" r="23.1"/>
<path id="XMLID_535_" class="st1" d="M203.5,199.1c0.6,1.3-0.4,3.1-7.7,5.8c-7.3,2.6-21.1,6.4-45.6,6.5c-24.8-0.2-38.4-4-45.7-6.5
	c-7.3-2.7-8.4-4.6-7.7-5.8c0.7-1.4,1.6-2.2,8.4-1c3.4,0.5,8.3,1.5,15.5,2.5c7.2,1,16.8,1.9,29.4,2c12.9-0.1,22.2-1,29.5-2
	c7.2-1,12.1-1.9,15.5-2.5C201.8,196.9,202.8,197.7,203.5,199.1z"/>
</svg>
