<svg id="レイヤー_1" data-name="レイヤー 1" xmlns="http://www.w3.org/2000/svg" xmlns:xlink="http://www.w3.org/1999/xlink" viewBox="0 0 1200 630"><defs><style>.cls-1{fill:none;}.cls-2{fill:#cbcbcb;}.cls-3{opacity:0.5;}.cls-4{fill:#fff;}.cls-5{fill:#2c2c2c;}.cls-6{fill:#cecece;}.cls-7{fill:#838383;}.cls-8{fill:#aeaeae;}.cls-9{fill:#d5d5d5;}.cls-10{clip-path:url(#clip-path);}</style><clipPath id="clip-path"><path class="cls-1" d="M690.29,438.65s-41,48-91.54,48-91.54-48-91.54-48,41-47.95,91.54-47.95S690.29,438.65,690.29,438.65Z"/></clipPath></defs><title>work-blank</title><rect class="cls-2" width="1200" height="630"/><g class="cls-3"><path class="cls-4" d="M679.63,508.86c57.21-26.17,93.84-78.74,93.84-135.41,0-84.21-78.38-152.72-174.72-152.72S424,289.24,424,373.45c0,56.67,36.63,109.24,93.84,135.41,0,0,34,16.32,82.17,16.32S679.63,508.86,679.63,508.86Z"/><path class="cls-5" d="M598.75,225.72c93.74,0,169.73,66.14,169.73,147.73,0,58.68-33.7,146.84-167,146.84S429,432.13,429,373.45c0-81.59,76-147.73,169.73-147.73M778.47,373.45c0-87-80.62-157.72-179.72-157.72S419,286.48,419,373.45c0,0-.75,155.56,182.22,155.56S778.47,373.45,778.47,373.45Z"/><path class="cls-6" d="M726.26,262.15c-42.32,0-78.32-25.5-87.56-62l-3.36-13.3,11.12,8c5,3.6,11,5.21,19.55,5.2,4.46,0,9.18-.41,14.18-.85,5.5-.48,11.19-1,17.12-1,36.81,0,79.79-14.9,79.79-56.89a61.3,61.3,0,0,0-1.92-15l-3.37-13.3,11.13,8c21,15.17,33.1,37.63,33.1,61.61C816,226.51,775.77,262.15,726.26,262.15Z"/><path class="cls-5" d="M780,125.14c18.94,13.66,31,34.37,31,57.56,0,41.12-38,74.45-84.79,74.45-40.48,0-74.29-24.93-82.72-58.25,6.71,4.84,14.27,6.15,22.47,6.15,9.68,0,20.24-1.83,31.3-1.83,46.82,0,84.79-20.76,84.79-61.88a66,66,0,0,0-2.08-16.2M763.61,101l6.73,26.61a56.23,56.23,0,0,1,1.76,13.74c0,25.09-19.64,51.89-74.79,51.89-6.15,0-11.95.51-17.56,1-4.88.43-9.5.83-13.74.83-7.51,0-12.48-1.27-16.63-4.26l-22.25-16.05,6.73,26.6c9.8,38.74,47.79,65.79,92.4,65.79,52.26,0,94.78-37.88,94.78-84.44,0-25.61-12.82-49.54-35.18-65.66Z"/><path class="cls-6" d="M473.74,268.44C424.23,268.44,384,232.8,384,189c0-24,12.06-46.45,33.1-61.61l11.12-8-3.36,13.29a61.56,61.56,0,0,0-1.92,15c0,42,43,56.88,79.79,56.88,5.93,0,11.62.5,17.12,1,5,.44,9.72.85,14.18.85,8.53,0,14.56-1.6,19.55-5.2l11.13-8-3.37,13.3C552.06,242.93,516.06,268.44,473.74,268.44Z"/><path class="cls-5" d="M420,131.43a65.93,65.93,0,0,0-2.08,16.2c0,41.12,38,61.88,84.79,61.88,11.06,0,21.62,1.82,31.3,1.82,8.2,0,15.76-1.3,22.47-6.14-8.43,33.32-42.23,58.25-82.72,58.25C426.91,263.44,389,230.11,389,189c0-23.19,12.09-43.91,31-57.56m16.42-24.15-22.26,16C391.78,139.44,379,163.38,379,189c0,46.56,42.52,84.44,94.78,84.44,44.61,0,82.6-27.05,92.4-65.79l6.73-26.6-22.25,16.05c-4.14,3-9.12,4.25-16.63,4.25-4.24,0-8.86-.4-13.74-.83-5.61-.49-11.41-1-17.56-1-55.15,0-74.79-26.81-74.79-51.89a56.31,56.31,0,0,1,1.76-13.75Z"/><path class="cls-7" d="M598.75,325c-49.48,0-96.77-13.54-133.17-38.12l-2.15-1.45s-.11-5.17-.11-5.86c0-88.34,60.75-160.22,135.43-160.22s135.43,71.88,135.43,160.22c0,.69-.11,5.86-.11,5.86l-2.15,1.45C695.52,311.47,648.23,325,598.75,325Z"/><path class="cls-5" d="M598.75,124.36c72,0,130.44,69.49,130.44,155.22,0,1.06-.05,2.12-.07,3.17-34.21,23.11-80,37.27-130.37,37.27s-96.16-14.16-130.37-37.27c0-1.05-.07-2.11-.07-3.17,0-85.73,58.4-155.22,130.44-155.22m0-10c-77.43,0-140.43,74.11-140.43,165.21,0,.75,0,1.49,0,2.23l0,1.11.09,5.2,4.31,2.91c37.2,25.13,85.49,39,136,39s98.76-13.85,136-39l4.31-2.91.09-5.2,0-1.11c0-.74,0-1.48,0-2.23C739.18,188.48,676.18,114.37,598.75,114.37Z"/><path class="cls-8" d="M574.9,409.87V324c-41-3.63-78.72-16.4-109.32-37.07l-2.15-1.45s-.11-5.17-.11-5.86a190.46,190.46,0,0,1,2.5-30.68l1.24-7.57,6.42,4.2c28.59,18.68,63.55,30.33,101.42,33.81V121.79l4.14-.71a113.79,113.79,0,0,1,39.42,0l4.14.71V279.34c37.87-3.48,72.83-15.13,101.42-33.81l6.42-4.2,1.24,7.57a190.64,190.64,0,0,1,2.5,30.68c0,.69-.11,5.86-.11,5.86l-2.15,1.45c-30.6,20.67-68.31,33.44-109.32,37.07v85.91Z"/><path class="cls-5" d="M598.75,124.36A110,110,0,0,1,617.61,126V284.76c41.77-3,79.58-15.73,109.14-35a185.15,185.15,0,0,1,2.44,29.87c0,1.06-.05,2.12-.07,3.17-29.89,20.19-68.62,33.54-111.51,36.59v85.54H579.89V319.34c-42.89-3-81.62-16.4-111.51-36.59,0-1.05-.07-2.11-.07-3.17a185.15,185.15,0,0,1,2.44-29.87c29.56,19.32,67.37,32.07,109.14,35V126a110,110,0,0,1,18.86-1.64m0-10a121.77,121.77,0,0,0-20.56,1.78l-8.29,1.43V273.81c-34.95-4-67.15-15.12-93.68-32.46L463.37,233l-2.48,15.14a196,196,0,0,0-2.57,31.49c0,.74,0,1.49,0,2.22l0,1.12.09,5.2,4.31,2.91c30.16,20.37,67,33.24,107.11,37.46v86.38h57.7V328.49c40.09-4.22,76.95-17.09,107.11-37.46l4.31-2.91.09-5.2,0-1.11c0-.74,0-1.48,0-2.23a196,196,0,0,0-2.57-31.49L734.13,233l-12.85,8.4c-26.53,17.34-58.73,28.47-93.68,32.46V117.58l-8.29-1.43A121.77,121.77,0,0,0,598.75,114.37Z"/><ellipse class="cls-5" cx="511.53" cy="370.3" rx="26.72" ry="31.43"/><ellipse class="cls-5" cx="687.54" cy="370.3" rx="26.72" ry="31.43"/><path class="cls-9" d="M598.75,490.34c-51.69,0-92.67-47.25-94.39-49.26a3.74,3.74,0,0,1,0-4.87c1.72-2,42.7-49.26,94.39-49.26s92.67,47.25,94.39,49.26a3.74,3.74,0,0,1,0,4.87C691.42,443.09,650.44,490.34,598.75,490.34Z"/><path class="cls-5" d="M598.75,390.7c50.56,0,91.54,47.95,91.54,47.95s-41,48-91.54,48-91.54-48-91.54-48,41-47.95,91.54-47.95m0-7.49c-53.4,0-95.47,48.5-97.24,50.57a7.51,7.51,0,0,0,0,9.74c1.77,2.06,43.84,50.57,97.24,50.57s95.47-48.51,97.24-50.57a7.51,7.51,0,0,0,0-9.74C694.22,431.71,652.15,383.21,598.75,383.21Z"/><g class="cls-10"><path class="cls-5" d="M598.76,431.38c38.12,0,72.87,3.51,99.07,9.25,1-.91,1.9-1.71,2.63-2.4-26.78-6.06-62.43-9.75-101.7-9.75s-75,3.68-101.72,9.74c.73.69,1.62,1.5,2.65,2.42C525.89,434.91,560.63,431.37,598.76,431.38Z"/><path class="cls-5" d="M598.76,431.38l0,2.5h0c37.94,0,72.55,3.5,98.5,9.19l1.25.27,1-.85q1.54-1.38,2.67-2.43l3.44-3.22-4.59-1c-27-6.12-62.83-9.81-102.26-9.82s-75.26,3.7-102.27,9.81l-4.6,1,3.44,3.22c.75.71,1.65,1.53,2.7,2.47l1,.84,1.24-.27c25.93-5.67,60.48-9.2,98.38-9.2h.18l0-2.5v-2.5h-.17c-38.22,0-73.05,3.55-99.44,9.32l.53,2.44,1.66-1.86c-1-.91-1.89-1.71-2.61-2.38l-1.7,1.82.55,2.44c26.52-6,62.07-9.69,101.17-9.69s74.62,3.69,101.15,9.7l.55-2.44-1.7-1.82c-.71.66-1.58,1.45-2.59,2.36l1.66,1.86.54-2.44c-26.43-5.79-61.31-9.3-99.57-9.31h-.07l0,2.5v0Z"/></g><circle class="cls-9" cx="598.75" cy="209.6" r="11.24"/><circle class="cls-9" cx="598.75" cy="255.8" r="11.24"/><circle class="cls-9" cx="598.75" cy="302.01" r="11.24"/><circle class="cls-9" cx="648.2" cy="297.86" r="11.24"/><circle class="cls-9" cx="693.66" cy="284.38" r="11.24"/><circle class="cls-9" cx="544.3" cy="297.86" r="11.24"/><circle class="cls-9" cx="498.84" cy="282.88" r="11.24"/><circle class="cls-9" cx="598.75" cy="348.21" r="11.24"/></g></svg>