<svg id="レイヤー_1" data-name="レイヤー 1" xmlns="http://www.w3.org/2000/svg" xmlns:xlink="http://www.w3.org/1999/xlink" viewBox="0 0 1480 98.98"><defs><style>.cls-1{fill:#4f3ccc;}.cls-2{fill:url(#名称未設定グラデーション_157);}.cls-3{fill:url(#名称未設定グラデーション_157-2);}</style><linearGradient id="名称未設定グラデーション_157" x1="1011.51" y1="323.23" x2="1011.51" y2="0.73" gradientUnits="userSpaceOnUse"><stop offset="0" stop-color="#fff"/><stop offset="1" stop-color="#6f66e2"/></linearGradient><linearGradient id="名称未設定グラデーション_157-2" x1="82.56" y1="323.23" x2="82.56" y2="0.73" xlink:href="#名称未設定グラデーション_157"/></defs><path class="cls-1" d="M0,0V1.07C33.39-.49,86,2.8,165.12,21c9.55-1.23,19.46-2.63,29.8-4.22,222.27-34.15,250-6.72,314.83,18,11.56,4.41,22.62,8,33.27,10.92,45.47-13.69,96.06-28.12,173.3-29.9C843.65,12.85,874.61,61.66,1052,13.92,1102.55.31,1157.51,2.31,1198.21,7.54,1295.29,20,1371.28,34.67,1480,9V0Z"/><path class="cls-1" d="M1198.21,7.54c-40.7-5.23-95.66-7.23-146.23,6.38-177.37,47.74-208.33-1.07-335.66,1.87C639.08,17.57,588.49,32,543,45.69,645.94,74,710.2,39.7,804.53,74.82c104.09,38.76,201.56,28.1,373-12.19S1434.61,45.89,1480,60.86V9C1371.28,34.67,1295.29,20,1198.21,7.54Z"/><path class="cls-2" d="M1198.21,7.54c-40.7-5.23-95.66-7.23-146.23,6.38-177.37,47.74-208.33-1.07-335.66,1.87C639.08,17.57,588.49,32,543,45.69,645.94,74,710.2,39.7,804.53,74.82c104.09,38.76,201.56,28.1,373-12.19S1434.61,45.89,1480,60.86V9C1371.28,34.67,1295.29,20,1198.21,7.54Z"/><path class="cls-1" d="M165.12,21C86,2.8,33.39-.49,0,1.07V24.75C34.46,29.88,86.72,31.11,165.12,21Z"/><path class="cls-3" d="M165.12,21C86,2.8,33.39-.49,0,1.07V24.75C34.46,29.88,86.72,31.11,165.12,21Z"/></svg>