<svg id="レイヤー_1" data-name="レイヤー 1" xmlns="http://www.w3.org/2000/svg" viewBox="0 0 695.04 100.73"><defs><style>.cls-1{fill:#fff;}</style></defs><path class="cls-1" d="M695,0V24.83a4.74,4.74,0,0,0-4.26,2.29,5.9,5.9,0,0,0-.7,3.4q.52,7.1,1.06,14.18a24,24,0,0,1-.21,7.23c-.88,3.68-3.87,7.16-8.69,5.77a8,8,0,0,1-3.51-2.12c-2.69-2.76-3.43-6.7-3.59-10.46-.14-3.34.11-6.72-.46-10a11.65,11.65,0,0,0-2.62-6A6.41,6.41,0,0,0,666.15,27c-3,.67-4.8,3.94-5,7s.83,6.08,1.47,9.09a37.19,37.19,0,0,1,.12,14.64c-.76,3.94-2.87,8.42-7.2,8.45a6.57,6.57,0,0,1-5.94-4C647.35,57,649.49,52,650.77,47c1-3.9,1.38-8.4-1-11.61a7.85,7.85,0,0,0-14.09,4.22c-.18,2.7,1,5.31,1.11,8,.09,2.92-2.17,6.44-5.17,5.27a3.44,3.44,0,0,1-1.47-1.15c-2.54-3.35.15-7.95-2.21-11.36a2.64,2.64,0,0,0-2.28-1.21c-1.42.1-2,1.39-2.41,2.57-5,14.57-.53,22.92,3.43,45.27.82,4.62-1,10.21-5.4,12.83a7.13,7.13,0,0,1-5.89.44c-8-2.68-8.36-11.33-8.68-19.49-.3-7.34,1.79-14.52,3.4-21.68,1.71-7.59,3.51-15.6.82-23a15.46,15.46,0,0,0-1.53-3,4.21,4.21,0,0,0-6.56-.76c-4.55,4.91-1.62,10.51-2.5,13.64-1.09,3.86-4.63,4.25-5.39,3.89-4.12,0-6.06-4-6-7.63s2.6-8.8.79-21.37c-.58-4.09-4.16-8.72-8.2-6a6.23,6.23,0,0,0-2.61,4.57,135.12,135.12,0,0,0,1.28,36c.75,4.38,1.73,8.83,1.15,13.25-.75,5.67-4.69,11.45-11.28,10.87a11.73,11.73,0,0,1-9-6.17c-3.24-5.78-2.27-12.68-.35-18.85,2.14-6.87,5.44-13.46,5.34-20.86a5.46,5.46,0,0,0-4.88-5.46c-5.77-.45-5.89,8.58-10.85,9.5-4.21.78-7-5.12-7.87-8.47a6.69,6.69,0,0,0-4.76-4.89c-4.64-1.13-6.84,4-7.75,8.08-.82,3.72-2.51,8.3-6.32,8.49-4.52.23-6.28-5.85-5.94-10.36.36-4.68.72-10.65-3.78-12.51a6.3,6.3,0,0,0-7.11,1.92c-3.31,3.88-2.82,8.88-2.29,13.54L506.59,52c.29,2.53.57,5.15-.19,7.58-1.09,3.51-4.95,6.54-8.94,3.33a8.82,8.82,0,0,1-2.85-4.5,60,60,0,0,1-.91-29.71c.75-3.33,1.53-7.46-1.32-9.51a5.13,5.13,0,0,0-7.72,2.25c-2.9,6.28,1.18,11.69,1.81,17.61.5,4.71-3.17,10.66-7.81,8.85a5.88,5.88,0,0,1-3.41-4.19c-1.46-6,3.4-11.57.43-17.54a4.69,4.69,0,0,0-5.79-2.41c-5.79,2.25-1.3,14.11-7.23,15.08-5.77.95-7.2-11.7-12.68-10.09a4.26,4.26,0,0,0-2.93,3.68C446.35,39,449.16,45,451.28,51c2.31,6.55,3.81,14.06-.82,20a8.92,8.92,0,0,1-10.85,2.89c-4.91-2.4-5.35-8.48-5.32-13.64q0-12.91.1-25.82c0-2.95-.15-6.33-3-7.89a5.81,5.81,0,0,0-6.74,1.14c-2.27,2.19-3,5-3.17,8-.31,5.2-6.43,8-10.31,4.57a8,8,0,0,1-.93-1c-2.67-3.48-2.93-8.18-3.09-12.57s-.48-9.1-3.23-12.52c-2.41-3-6.05-3.8-10-4.08-.18.17-.36,0-.6,0-4.78.23-6.42,3.12-9.91,4-4.76,1.17-9.53,2.29-14.3,3.4-3.4.8-6.9,1.64-9.72,3.69a10.29,10.29,0,0,0-3.89,5.52c-.91,3.55-5.78,4.25-7.35.94a3.25,3.25,0,0,1-.18-.43c-1.32-3.54-1.19-8-5-9.81a6.41,6.41,0,0,0-7.13,1.33c-3.87,3.67-3.68,9-2.86,13.86.66,3.93,1.68,7.91,1,11.83-.81,4.83-5.12,9.63-10.5,7.44a8.42,8.42,0,0,1-4.47-4.61c-2-4.81-.66-9.82.34-14.67s1.61-10.19-1.73-14.35A7,7,0,0,0,311,15.48c-4.19.79-5.54,5-6,8.73-2,16.76,6.55,33.14,6.46,50a20.8,20.8,0,0,1-2.08,10c-1.65,3-4.76,5.38-8.18,5.35-3.7,0-6.93-2.84-8.5-6.18a23.35,23.35,0,0,1-1.82-10.85c.22-5.92,1.77-10.47,4.1-20.86,1-4.24,1.34-19.62-1.56-23.5a5.12,5.12,0,0,0-6.15-1.77c-5.53,2.48-1.34,11.3-5.37,15.26-2.05,2-5.54,1.95-7.56,4-4.83,4.88,3.93,13.79-1.16,19.66-2.28,2.62-6.62,3.07-9.63,1.33-5.86-3.37-6.69-10.49-5.78-16.66.77-5.22,2.57-10.32,2.56-15.6s-2.29-12-7.27-13.79c-1.79-2.5-6,.44-7.18,2.87a4.92,4.92,0,0,1-3.78,2.89c-4.33.46-3.1-4.59-6.91-4.84a4.94,4.94,0,0,0-5,3.59c-.89,2.9.26,6,1.34,8.8,1.88,5,3.56,10.49,1.67,15.44-2.18,5.7-11.33,8.78-14,1.84a7.6,7.6,0,0,1-.51-2.78c0-4.36,2.41-7.93,3.5-11.93a18.64,18.64,0,0,0-4.94-17.93c-2.76-2.67-6.66-4.47-10.45-3.77a8.21,8.21,0,0,0-5.73,4.44,10.23,10.23,0,0,1-9,5.69c-3.1.09-5.94-.69-7.71-3.18-1.65-2.31-1.8-5.6-5.55-6.43a7.36,7.36,0,0,0-7.46,3c-2.81,3.9-2.38,8.94-1.87,13.59q1.8,16.38,3.59,32.76c.54,4.85.49,10.9-4.06,13a7.14,7.14,0,0,1-7-.75c-3.62-2.48-4.89-6.78-5.28-10.93-.7-7.43,1-14.86,2.87-22.1,1.38-5.45,2.8-11.35-.61-16.39a7.28,7.28,0,0,0-8.22-3.08c-4.06,1.36-5,6-4.79,9.93.19,3.49,1,7.09-.13,10.4-1.54,4.61-8.85,7.92-10.75-.54a5.64,5.64,0,0,1,.22-2.82c.58-2-1.45-4.92-4-7a3.9,3.9,0,0,0-6.14,1.77c-1.54,4.48-2.78,7.09-2.9,13.14a127.18,127.18,0,0,0,.81,14.55c1.1,9.36,1.28,13,.89,19.53-.17,2.73-1,5.81-3.9,6.67a5.52,5.52,0,0,1-5.29-1.5c-2.55-2.44-4.11-7-4.35-10.35-.71-10,.78-19.1,2.22-29a17.63,17.63,0,0,0,.17-6.51c-.5-2.13-2.1-4.16-4.26-4.44-1.67-.21-3.35.62-5,.31-2.78-.51-4-3.85-4.08-6.68S99.8,26,98.2,23.66c-1.45-2.11-5.21-2.43-7.61.6-.41.51-.59,1.17-1,1.68a18.55,18.55,0,0,0-4,12.43c.16,3,1.06,5.94.11,8.92A5.27,5.27,0,0,1,83,50.56c-3.61,1.56-6.86-2.39-7.27-6-.38-3.42.67-6.9.12-10.3-.62-3.91-4.91-7.89-8.46-4.63a5.86,5.86,0,0,0-1.79,4.81l2.19,26.39c.25,3.11.5,6.33-.89,9.21a7.14,7.14,0,0,1-2.45,2.86c-3.92,2.58-7.86-.42-9.12-4-1-2.71-.73-5.68-.48-8.54L56.64,39.2c.27-3.13.52-6.4-1.2-9.21a5.65,5.65,0,0,0-3.29-2.59c-3.24-.88-5.56,1.58-7.47,3.83l-6,7c-1.15,1.36-2.49,2.83-4.52,2.38a4,4,0,0,1-2.69-2.29c-1.6-3.34.14-7.14-1.05-10.47a6.26,6.26,0,0,0-11.62-.43c-1.29,2.91-.22,6.26-.09,9.44.14,3.39-1.9,7.65-5.48,6.84a4.43,4.43,0,0,1-2.91-2.44c-1.34-2.71-.75-5.62-.9-8.47-.67-12.26-9-10.1-9.43-8v76.43H695.67V0Z"/></svg>