<svg id="レイヤー_1" data-name="レイヤー 1" xmlns="http://www.w3.org/2000/svg" xmlns:xlink="http://www.w3.org/1999/xlink" viewBox="0 0 598.92 526.5"><defs><style>.cls-1{opacity:0.5;fill:url(#名称未設定グラデーション_297);}.cls-2{fill:url(#名称未設定グラデーション_323);}.cls-3{fill:url(#名称未設定グラデーション_317);}.cls-4{fill:url(#名称未設定グラデーション_267);}.cls-5{fill:url(#名称未設定グラデーション_269);}.cls-6{fill:url(#名称未設定グラデーション_280);}.cls-7{fill:url(#名称未設定グラデーション_288);}.cls-8{fill:#b1b1ef;}.cls-9{fill:#c6c6f7;}.cls-10{fill:#a6a6e8;}.cls-11,.cls-13{fill:#fff;}.cls-12{fill:#15156d;}.cls-13{fill-opacity:0.06;}.cls-14{fill:#dba585;}.cls-15{fill:#2c3d54;}.cls-16{fill:#1f2a38;}.cls-17{fill:#202b3a;}.cls-18{fill:#39516e;}.cls-19{fill:#3a5271;}.cls-20{fill:#cd7250;}.cls-21{fill:#040000;}.cls-22{fill:#9eb74c;}.cls-23{fill:#f9cc00;}.cls-24{fill:#e9686a;}.cls-25{fill:#6bb72d;}.cls-26{fill:#5a554e;}.cls-27{fill:#1d2a38;}.cls-28{fill:#2a3d54;}.cls-29{fill:#3e4148;}.cls-30{fill:#ddd05b;}.cls-31{fill:#c1b246;}.cls-32{fill:#55bc8d;}.cls-33,.cls-34,.cls-35,.cls-36,.cls-37,.cls-38{fill:none;stroke:#55bc8d;stroke-linecap:round;stroke-miterlimit:10;stroke-width:5px;}.cls-34{stroke-dasharray:4.4 8.8;}.cls-35{stroke-dasharray:4.91 9.82;}.cls-36{stroke-dasharray:5.19 10.38;}.cls-37{stroke-dasharray:5.15 10.31;}.cls-38{stroke-dasharray:5.61 11.22;}.cls-39{fill:url(#名称未設定グラデーション_358);}.cls-40{fill:url(#名称未設定グラデーション_358-2);}.cls-41{fill:#f9e603;}.cls-42{fill:url(#名称未設定グラデーション_335);}.cls-43{fill:url(#名称未設定グラデーション_335-2);}.cls-44{fill:#e2e2e2;}.cls-45{fill:url(#名称未設定グラデーション_352);}.cls-46{fill:#cecece;}.cls-47{fill:url(#名称未設定グラデーション_352-2);}.cls-48{fill:url(#名称未設定グラデーション_342);}.cls-49{fill:url(#名称未設定グラデーション_348);}.cls-50{fill:#474747;}.cls-51{fill:#cec015;}.cls-52{fill:url(#名称未設定グラデーション_362);}.cls-53{fill:url(#名称未設定グラデーション_362-2);}.cls-54{fill:#e8e7df;}</style><linearGradient id="名称未設定グラデーション_297" x1="118.14" y1="545.89" x2="475.32" y2="188.71" gradientUnits="userSpaceOnUse"><stop offset="0" stop-color="#78eaea"/><stop offset="1" stop-color="#6ba4dd"/></linearGradient><linearGradient id="名称未設定グラデーション_323" x1="312.32" y1="328.9" x2="312.32" y2="103.85" gradientUnits="userSpaceOnUse"><stop offset="0" stop-color="#242489"/><stop offset="1" stop-color="#121260"/></linearGradient><linearGradient id="名称未設定グラデーション_317" x1="185.39" y1="343.3" x2="439.25" y2="89.44" gradientUnits="userSpaceOnUse"><stop offset="0" stop-color="#7c95e8"/><stop offset="1" stop-color="#8b71ea"/></linearGradient><linearGradient id="名称未設定グラデーション_267" x1="312.32" y1="430.87" x2="312.32" y2="331.37" gradientUnits="userSpaceOnUse"><stop offset="0" stop-color="#9e9eef"/><stop offset="1" stop-color="#6e6ce5"/></linearGradient><linearGradient id="名称未設定グラデーション_269" x1="312.32" y1="430.87" x2="312.32" y2="421.11" gradientUnits="userSpaceOnUse"><stop offset="0" stop-color="#8989e5"/><stop offset="1" stop-color="#6e6ce5"/></linearGradient><linearGradient id="名称未設定グラデーション_280" x1="312.32" y1="389.53" x2="312.32" y2="342.69" gradientUnits="userSpaceOnUse"><stop offset="0" stop-color="#7373e5"/><stop offset="1" stop-color="#5959e2"/></linearGradient><linearGradient id="名称未設定グラデーション_288" x1="312.32" y1="417.81" x2="312.32" y2="391.87" gradientUnits="userSpaceOnUse"><stop offset="0" stop-color="#b5b5f7"/><stop offset="1" stop-color="#9e9ef2"/></linearGradient><linearGradient id="名称未設定グラデーション_358" x1="371.77" y1="261.71" x2="390.23" y2="261.71" gradientUnits="userSpaceOnUse"><stop offset="0" stop-color="#d3d2cb"/><stop offset="1" stop-color="#e8e7df"/></linearGradient><linearGradient id="名称未設定グラデーション_358-2" x1="410.27" y1="275.93" x2="410.27" y2="247.5" xlink:href="#名称未設定グラデーション_358"/><linearGradient id="名称未設定グラデーション_335" x1="406.73" y1="210.89" x2="424.3" y2="193.31" gradientUnits="userSpaceOnUse"><stop offset="0" stop-color="#859985"/><stop offset="1" stop-color="#bfd1bf"/></linearGradient><linearGradient id="名称未設定グラデーション_335-2" x1="368.55" y1="210.59" x2="383.69" y2="195.45" xlink:href="#名称未設定グラデーション_335"/><linearGradient id="名称未設定グラデーション_352" x1="395.64" y1="289.84" x2="395.64" y2="206.45" gradientUnits="userSpaceOnUse"><stop offset="0" stop-color="#e8e8e8"/><stop offset="1" stop-color="#fff"/></linearGradient><linearGradient id="名称未設定グラデーション_352-2" x1="395.66" y1="251.26" x2="395.66" y2="207.67" xlink:href="#名称未設定グラデーション_352"/><linearGradient id="名称未設定グラデーション_342" x1="395.64" y1="221.73" x2="395.64" y2="191.61" gradientUnits="userSpaceOnUse"><stop offset="0" stop-color="#587758"/><stop offset="1" stop-color="#6c8c6c"/></linearGradient><linearGradient id="名称未設定グラデーション_348" x1="395.64" y1="234.16" x2="395.64" y2="191.61" gradientUnits="userSpaceOnUse"><stop offset="0" stop-color="#bcab11"/><stop offset="1" stop-color="#cec015"/></linearGradient><linearGradient id="名称未設定グラデーション_362" x1="395.64" y1="199.7" x2="395.64" y2="196.41" gradientUnits="userSpaceOnUse"><stop offset="0" stop-color="#f9e603"/><stop offset="1" stop-color="#fff6b6"/></linearGradient><linearGradient id="名称未設定グラデーション_362-2" x1="393.99" y1="204.82" x2="397.28" y2="204.82" xlink:href="#名称未設定グラデーション_362"/></defs><path class="cls-1" d="M551,470.46c53.68-42.1,66.5-128,16.78-187.8-41.44-49.8-117.77-101-214-116s-180.46-14.92-216.9,4.81c-29.82,16.15-16,38.64-6.61,57.74,12.49,25.51,14.33,45.77-37,82.82-58.63,42.3-74.5,58.19-77.44,99.09-2.39,33.27,31.42,78,75.79,84.43,61.76,8.92,107.24-5.95,142.58-13.65,49.24-10.73,102.54-8.44,133.47,13.95C407.31,524.6,472.19,532.23,551,470.46Z"/><path class="cls-2" d="M482.16,121.11V311.62c0,9.5-8.62,17.28-19.14,17.28H161.63a19.79,19.79,0,0,1-15.7-7.43,16,16,0,0,1-3.44-9.85V121.11c0-9.48,8.61-17.26,19.14-17.26H463C473.54,103.85,482.16,111.63,482.16,121.11Z"/><path class="cls-3" d="M469.56,121.11V311.63c0,2.2-2.8,4.67-6.54,4.67H161.63c-3.74,0-6.54-2.47-6.54-4.67V121.11c0-2.2,2.8-4.66,6.54-4.66H463C466.76,116.45,469.56,118.91,469.56,121.11Z"/><path class="cls-4" d="M520,409.59,491.43,346c-3.66-8.16-12.38-14.58-19.53-14.58H152.76c-7.15,0-15.89,6.42-19.56,14.58l-28.53,63.64c-3.06,6.82-3.24,13-1,17a8.44,8.44,0,0,0,7.83,4.32H513.16a8.48,8.48,0,0,0,7.83-4.32C523.21,422.61,523,416.39,520,409.59Z"/><path class="cls-5" d="M102.19,421.11a12.33,12.33,0,0,0,1.48,5.44,8.44,8.44,0,0,0,7.83,4.32H513.16a8.48,8.48,0,0,0,7.83-4.32,12.39,12.39,0,0,0,1.45-5.44Z"/><polygon class="cls-6" points="467.03 342.69 157.61 342.69 138.32 389.53 486.32 389.53 467.03 342.69"/><polygon class="cls-7" points="347.6 391.87 312.32 391.87 277.05 391.87 271.23 417.81 312.32 417.81 353.41 417.81 347.6 391.87"/><rect class="cls-8" x="171.01" y="324.69" width="17.9" height="14.12"/><rect class="cls-9" x="171.01" y="324.69" width="17.9" height="3.24"/><rect class="cls-10" x="171.01" y="335.57" width="17.9" height="3.24"/><rect class="cls-8" x="435.74" y="324.69" width="17.9" height="14.12"/><polyline class="cls-9" points="453.64 324.69 453.64 327.94 435.74 327.94 435.74 324.69"/><rect class="cls-10" x="435.74" y="335.57" width="17.9" height="3.24"/><circle class="cls-11" cx="312.32" cy="110.07" r="2.19"/><path class="cls-12" d="M201.32,372.56c10.54,0,9.89-.41,8.79,3.4s-.06,3.57-11.59,3.58c-11.13,0-9.86.25-8.71-3.36a.78.78,0,0,1,.05-.14C191.28,372.12,189.75,372.59,201.32,372.56Z"/><path class="cls-12" d="M210.33,355.91c-10.87-.05-9.86.46-8.69-3.11,1.06-3.26,0-2.83,10-2.82,10.74,0,9.91-.56,9,3.09C219.71,356.47,220.16,355.83,210.33,355.91Z"/><path class="cls-12" d="M190.39,363.45c-10.94,0-10,.48-8.63-3.25,1.24-3.29.33-2.95,10.1-2.94,11.54,0,10.39-.54,9.19,3.38C200,364,200.47,363.4,190.39,363.45Z"/><path class="cls-12" d="M214.54,371.24c-10.72-.05-9.84.52-8.71-3.32s.11-3.29,10.47-3.28c11.06,0,10.25-.6,9.27,3.47C224.66,371.88,225.52,371.16,214.54,371.24Z"/><path class="cls-12" d="M153.93,388.16c-10.27-.07-10.32.68-8.4-3.42s1.17-3.49,12.22-3.52,10.08-.42,8.52,3.3C164.5,388.72,166.45,388.11,153.93,388.16Z"/><path class="cls-12" d="M214.4,357.25c10.27.09,10-.63,9,3.19-.92,3.58-.62,3-9.92,3-12,0-10.57.52-9.36-3.42C205.05,356.91,203.92,357.29,214.4,357.25Z"/><path class="cls-12" d="M232.16,355.91c-10.68-.05-9.63.47-8.65-3,.92-3.29-.76-2.95,10.26-2.88,9.56.07,9.25-.57,8.43,3C241.44,356.34,242.8,355.87,232.16,355.91Z"/><path class="cls-12" d="M299.13,387.61c-15.09,0-30.17,0-45.26,0-4,0-5.54-.42-5.07-1.79a21.42,21.42,0,0,0,.72-3.79c.14-1,1.45-1.4,4.43-1.4q36.63,0,73.29,0c6,0,11.94,0,17.91,0,2.92,0,4.28.38,4.32,1.39a17.67,17.67,0,0,0,.44,3.93c.32,1.25-1.12,1.67-4.69,1.66C329.85,387.58,314.49,387.61,299.13,387.61Z"/><path class="cls-12" d="M448,372c7.17,0,14.35,0,21.51,0,3,0,4.57.37,5,1.44a34.53,34.53,0,0,0,1.88,4.16c.49.95-.59,1.38-3.27,1.38h-45.5c-3,0-4.2-.52-4.43-1.49a20,20,0,0,0-1.21-3.88c-.51-1.17.64-1.65,4.13-1.62C433.43,372,440.73,372,448,372Z"/><path class="cls-12" d="M169.24,372c4.78,0,9.54,0,14.32,0,3.17,0,4.56.37,4.06,1.5a33,33,0,0,0-1.41,4c-.29,1-1.71,1.48-4.61,1.48h-30c-2.69,0-3.82-.43-3.4-1.36.67-1.48,1.32-3,2-4.42.4-.84,1.86-1.21,4.31-1.2C159.43,372,164.34,372,169.24,372Z"/><path class="cls-12" d="M453.78,370.68c-5,0-10.07,0-15.09,0-2.41,0-3.88-.28-4.17-1.16-.46-1.44-1-2.87-1.47-4.29-.29-.82.81-1.17,3.24-1.17q15.4,0,30.81,0c2.19,0,3.58.29,3.93,1.08.64,1.46,1.28,2.93,2,4.41.39.82-.67,1.12-2.95,1.12C464.64,370.67,459.21,370.68,453.78,370.68Z"/><path class="cls-12" d="M167.82,364.12c3.12,0,6.24,0,9.37,0,2.55,0,3.86.32,3.51,1.22-.54,1.42-1.08,2.85-1.59,4.29-.31.87-1.8,1.23-4.18,1.23h-20.3c-2.43,0-3.49-.41-3.11-1.25.67-1.44,1.29-2.87,1.95-4.29.38-.81,1.77-1.2,4.19-1.19Z"/><path class="cls-12" d="M452.66,349.27h8.24c2.29,0,3.6.34,3.92,1.08.53,1.27,1.12,2.55,1.78,3.84.39.78-.69,1.11-3,1.11H446.06c-2.16,0-3.39-.33-3.65-1.05-.48-1.33-1-2.65-1.54-3.95-.3-.7.69-1,2.8-1Z"/><path class="cls-12" d="M367.51,387.61c-2.91,0-5.82,0-8.72,0s-4.44-.3-4.46-1.38a28.41,28.41,0,0,0-.49-4.22c-.16-.9.71-1.38,3.59-1.37q9.38,0,18.73,0c2.51,0,3.93.34,4.1,1.21.3,1.49.57,3,.87,4.5.18.9-1.08,1.27-3.65,1.25C374.15,387.58,370.83,387.6,367.51,387.61Z"/><path class="cls-12" d="M230.81,387.6c-3,0-6.08,0-9.13,0-2.79,0-4-.37-3.72-1.34.44-1.46.79-2.91,1.16-4.35.21-.85,1.46-1.27,4-1.26q9.56,0,19.13,0c2.38,0,3.41.36,3.24,1.17-.31,1.48-.62,3-.83,4.49-.12.9-1.28,1.32-3.94,1.29C237.46,387.58,234.13,387.6,230.81,387.6Z"/><path class="cls-12" d="M165.21,363.07c-12.2-.05-11.27.58-9.42-3.53,1.23-2.76,1.27-2.76,9.81-2.76,3.31,0,6.61,0,9.92,0,2.54,0,3.6.36,3.24,1.19-.58,1.33-1.08,2.66-1.61,4-.29.73-1.52,1.1-3.77,1.1Z"/><path class="cls-12" d="M270.05,372c10.61,0,9.83-.38,9.46,3.41s.89,3.57-10.88,3.57c-10.81,0-9.93.23-9.42-3.38S258.27,371.88,270.05,372Z"/><path class="cls-12" d="M395.2,375.39c.88,4,1.76,3.57-9.63,3.59s-9.86.23-10.5-3.47c-.69-3.91-1.89-3.51,9.56-3.5C394.85,372,394.29,371.45,395.2,375.39Z"/><path class="cls-12" d="M292.94,372c10.23,0,9.89-.51,9.75,3.39s.83,3.58-10.59,3.59c-11.25,0-9.93.27-9.62-3.47C282.82,371.6,281.44,372,292.94,372Z"/><path class="cls-12" d="M372.1,375.5c.58,3.7,1.65,3.49-9.48,3.48-11.44,0-10.42.34-10.82-3.63-.35-3.42-1.4-3.4,9.38-3.31h.4C372.8,371.92,371.38,371.8,372.1,375.5Z"/><path class="cls-12" d="M338.53,372c9.75.08,9.91-.67,10.33,3.51.38,3.82,1.08,3.46-10,3.47-10,0-10,0-10.15-3.52C328.49,371.43,328,372.06,338.53,372Z"/><path class="cls-12" d="M236.37,375.44c.95-3.86-.75-3.41,10.63-3.43,9.84,0,9.88,0,9.28,3.38-.68,3.8,1.09,3.6-11,3.59C233.91,379,235.75,379.21,236.37,375.44Z"/><path class="cls-12" d="M179.74,387.61c-11.81-.06-10.63.54-9-3.52,1.52-3.9.12-3.43,11.29-3.42,11.36,0,10.74-.61,9.33,3.52S191,387.54,179.74,387.61Z"/><path class="cls-12" d="M356.62,359.77c.36,3.57,1.65,3.13-9.05,3.12-11.15,0-10,.57-10.36-3.31-.29-3.31-.7-2.84,8.57-2.88h1.15C357.45,356.74,356.05,356.29,356.62,359.77Z"/><path class="cls-12" d="M390.76,356.7c10.49.05,9.47-.5,10.42,3.09s1.48,3.08-8.7,3.1c-10.74,0-10,.38-10.71-3.24C381.11,356.27,380,356.74,390.76,356.7Z"/><path class="cls-12" d="M298,355.35c-10.47,0-9.49.44-9.22-2.94s-1.11-3,9.48-3c10.42,0,9.55-.52,9.54,3.05C307.8,355.82,308.22,355.32,298,355.35Z"/><path class="cls-12" d="M420.74,370.68c-11.25-.05-9.6.55-10.72-3.4-1-3.62-2.06-3.17,8.38-3.21h4.29c5.84,0,6,.06,6.73,2.1.36,1,.61,2.05,1,3.09s-.57,1.52-3.75,1.43C424.71,370.64,422.73,370.68,420.74,370.68Z"/><path class="cls-12" d="M373.93,364.1h1.95c7.52,0,7.68-.55,8.36,2.77.18.89.32,1.79.53,2.68s-.84,1.15-3.17,1.14c-4.23,0-8.46,0-12.69,0-2.57,0-4-.38-4.05-1.31a17.83,17.83,0,0,0-.61-3.6c-.37-1.21.72-1.85,4.62-1.71,1.68.07,3.37,0,5.06,0Z"/><path class="cls-12" d="M445.53,359.77c1.3,3.54,2.38,3.13-8.26,3.12-11,0-9.84.59-11.2-3.31-1.16-3.33-1.34-2.84,7.83-2.88h.76C445.6,356.74,444,356.27,445.53,359.77Z"/><path class="cls-12" d="M385.92,355.35c-10.44,0-9.37.43-10-3s-1.75-3,8.74-3,9.37-.5,10.32,3.06C395.88,355.87,396.06,355.3,385.92,355.35Z"/><path class="cls-12" d="M283.54,370.68c-11.17-.06-10.14.6-9.74-3.46.34-3.59-.22-3.15,9.54-3.14,11.82,0,10.43-.54,10.24,3.49C293.41,371.21,294.54,370.63,283.54,370.68Z"/><path class="cls-12" d="M191.89,370.68c-10.86-.06-10.16.6-8.75-3.37,1.32-3.73.55-3.23,10.86-3.23,11,0,10.09-.49,8.88,3.4C201.72,371.22,203.06,370.63,191.89,370.68Z"/><path class="cls-12" d="M394.68,387.61c-11.64-.05-10,.51-10.78-3.46s-2.22-3.49,9.33-3.48c10.72,0,10.13-.67,11.19,3.46S405.82,387.53,394.68,387.61Z"/><path class="cls-12" d="M255.37,349.41c10.32,0,9.19-.42,8.72,2.92s.63,3-10,3c-9.89,0-9.73.6-9-2.92S244.79,349.48,255.37,349.41Z"/><path class="cls-12" d="M187.83,355.35c-9.92,0-9.49.44-8.13-2.89,1.44-3.53.21-3,10.8-3,10,0,9.48-.47,8.31,2.89C197.58,355.87,198.67,355.3,187.83,355.35Z"/><path class="cls-12" d="M286,352.27c-.33,3.57.67,3.07-10.1,3.07-10.23,0-9.45.46-9-3s-.59-2.91,9.86-3h.38C286.91,349.46,286.2,349,286,352.27Z"/><path class="cls-12" d="M363.88,355.35c-10.19,0-9.38.48-9.8-3s-1.26-3,9-3,9.36-.48,10,2.95S374.41,355.31,363.88,355.35Z"/><path class="cls-12" d="M245.44,359.75c-.84,3.61.72,3.15-10.35,3.14-10.25,0-10,.62-9.05-3.16.92-3.56.32-3,10.29-3h.39C247.33,356.74,246,356.3,245.44,359.75Z"/><path class="cls-12" d="M257.67,362.9c-10.84-.06-10,.54-9.31-3.24.61-3.39-.05-3,9.47-3,11.79,0,10.28-.51,9.84,3.36C267.3,363.32,268.1,362.86,257.67,362.9Z"/><path class="cls-12" d="M280.1,362.9c-11,0-9.9.48-9.47-3.25.38-3.3-.51-3,9.28-2.94,11.47,0,10.25-.58,10.06,3.37C289.8,363.44,290.15,362.84,280.1,362.9Z"/><path class="cls-12" d="M302,362.9c-10.29,0-9.28.37-9.05-2.94.27-3.76-1.36-3.24,10.35-3.25,9.05,0,9.06-.51,9,2.94C312.2,363.58,312.9,362.81,302,362.9Z"/><path class="cls-12" d="M369.88,362.9c-11.1,0-9.84.49-10.38-3.23-.5-3.38-1.3-3,8.83-3,11.09,0,9.85-.52,10.59,3.23S379.83,362.81,369.88,362.9Z"/><path class="cls-12" d="M213.19,375.37c1.15-3.74-.49-3.36,10.66-3.36,11.4,0,10-.36,9.14,3.45s.93,3.53-10.51,3.52C210.46,379,212.27,379.32,213.19,375.37Z"/><path class="cls-12" d="M468.84,359.8c1.52,3.51,2.72,3.1-8.1,3.09-10.61,0-9.79.61-11.36-3.21-1.43-3.5-1.46-2.93,8.09-3h.39C468.77,356.73,467.1,356.3,468.84,359.8Z"/><path class="cls-12" d="M306.25,370.68c-10.86-.05-9.9.55-9.74-3.26s-.87-3.33,10.28-3.34c10.15,0,9.55-.51,9.56,3.15C316.36,371.29,317.47,370.62,306.25,370.68Z"/><path class="cls-12" d="M397.87,370.68c-11-.06-9.77.58-10.63-3.38-.8-3.69-1.59-3.22,9-3.22,10.76,0,9.82-.54,10.82,3.27S408.91,370.62,397.87,370.68Z"/><path class="cls-12" d="M305.75,375.48C306,371.59,304.22,372,316,372c10.74,0,9.44-.28,9.52,3.2.09,4.17,2.13,3.75-10.88,3.77C304,379,305.87,379.1,305.75,375.48Z"/><path class="cls-12" d="M418.17,375.51c1,3.76,2.7,3.46-9.25,3.47-11.38,0-9.72.18-10.55-3.38-.94-4-2.58-3.58,9.41-3.59C418.67,372,416.9,371.68,418.17,375.51Z"/><path class="cls-12" d="M204,387.61c-12,0-10.61.5-9.32-3.63,1.19-3.79.22-3.33,10.9-3.31,11.26,0,10.73-.72,9.6,3.63C214.32,387.58,214.31,387.58,204,387.61Z"/><path class="cls-12" d="M261.91,364.08c10.58,0,9.2-.42,8.91,3.18,0,.36-.07.72-.12,1.07-.39,2.58.64,2.21-7.54,2.48-2.87.09-5.77-.06-8.66-.07-2.56,0-3.82-.35-3.56-1.3a25.37,25.37,0,0,0,.74-4.14c.09-.92,1.43-1.26,4-1.23C257.75,364.1,259.84,364.08,261.91,364.08Z"/><path class="cls-12" d="M428.31,349.41c10.12,0,8.78-.37,10,2.88,1.32,3.46,2.38,3.06-8.34,3s-9.11.47-10.3-2.95C418.65,349.41,418.69,349.41,428.31,349.41Z"/><path class="cls-12" d="M338.79,367.48c.14,3.7,1.63,3.17-9.34,3.2-10.09,0-10.13,0-10.15-3.44,0-3.6-1.21-3.16,9.36-3.16C340.09,364.09,338.35,363.59,338.79,367.48Z"/><path class="cls-12" d="M361.58,367.48c0,3.6,2.34,3.18-8.78,3.19-12.16,0-10.31.59-10.72-3.43-.37-3.61-1.4-3.16,9.13-3.16C362.49,364.09,360.9,363.56,361.58,367.48Z"/><path class="cls-12" d="M329.38,352.34c.07,3.46,1.39,3-9.47,3-10.5,0-9.23.47-9.2-3s-1.4-2.93,9.39-2.94C330.49,349.42,329.08,349,329.38,352.34Z"/><path class="cls-12" d="M334.34,359.81c.12,3.52,1.46,3.08-9.3,3.08-11.27,0-9.76.49-9.83-3.22-.06-3.35-1.19-2.94,9.09-3h.38C335.49,356.74,334,356.28,334.34,359.81Z"/><path class="cls-12" d="M423.23,359.77c1,3.61,2.37,3.11-8.81,3.12-10.78,0-9.29.46-10.3-3.11s-1.81-3.06,8.82-3.07S422,356.29,423.23,359.77Z"/><path class="cls-12" d="M351.23,352.34c.34,3.46,1.41,3-9.3,3-10.43,0-9.09.45-9.35-2.87-.25-3.06-.2-3.07,9.18-3.05C352.07,349.44,350.73,349,351.23,352.34Z"/><path class="cls-12" d="M248,367.44c-.87,3.75,1,3.21-10,3.24-10.21,0-10.23,0-9.36-3.53.83-3.37-.36-3.06,9.64-3.08h.39C248.61,364.08,248.61,364.08,248,367.44Z"/><path class="cls-12" d="M406.65,349.41c10.14,0,8.82-.37,9.82,2.86,1.09,3.52,2.32,3.06-8.79,3.08-10.4,0-9.05.26-9.85-2.94C397,348.94,395.61,349.46,406.65,349.41Z"/><path class="cls-12" d="M176,352.34c-1.44,3.5-.56,3-10.9,3-7.69,0-7.69,0-6.55-2.44.39-.84.81-1.68,1.25-2.51.34-.66,1.51-1,3.71-1,3.11,0,6.22,0,9.35,0,3.34-.06,4.4.39,3.79,1.39A9.82,9.82,0,0,0,176,352.34Z"/><path class="cls-12" d="M432.7,347.93H429c-5.48,0-7.31-.67-6.31-2.52a4.5,4.5,0,0,1,2.58-.75c4.16-.09,8.39-.05,12.59,0,3.17,0,3.3.84,3.5,1.57s1.25,1.68-2.27,1.72c-2.11,0-4.24,0-6.35,0Z"/><path class="cls-12" d="M192.64,347.92h-4.49c-4.57,0-4.64-.11-4.28-1.7.28-1.26,1.88-1.7,5.36-1.62s6.91,0,10.38,0,3.32.79,3,1.65-.4,1.72-4,1.67C196.65,347.89,194.64,347.92,192.64,347.92Z"/><path class="cls-12" d="M280,347.92h-4.1c-5.07,0-5.47-.19-5.18-1.92.15-.95,1.16-1.43,4.09-1.39,3.81,0,7.64,0,11.47,0,3.63,0,3.15.91,3.15,1.73s-.09,1.61-3.45,1.57c-2,0-4,0-6,0Z"/><path class="cls-12" d="M236.45,347.92h-4.11c-5,0-6.89-1.07-4.52-2.65a7.84,7.84,0,0,1,3-.62c4.08-.07,8.16,0,12.24,0,3.64,0,3.12.9,2.95,1.72s-.16,1.73-3.91,1.56c-1.83-.08-3.74,0-5.6,0Z"/><path class="cls-12" d="M367.21,347.92h-4.5c-4.61,0-4.65-.09-5.08-1.7-.32-1.24.94-1.71,4.51-1.62,3.33.08,6.69.06,10,0,3.63-.06,4.1.71,4.23,1.66s.3,1.8-3.56,1.68c-1.86-.06-3.74,0-5.61,0Z"/><path class="cls-12" d="M410.85,347.92H407.1c-5.55,0-7-.52-6.12-2.43a3.85,3.85,0,0,1,2.41-.82c4.29-.09,8.63-.07,13,0,3.44,0,3.14,1,3.4,1.72s.66,1.56-2.55,1.56h-6.36Z"/><path class="cls-12" d="M389.16,347.92H385c-5.26,0-5.41-.1-5.78-1.89-.22-1.06.88-1.47,3.91-1.43,3.71.06,7.42,0,11.12,0s3.53.89,3.76,1.7.53,1.64-2.91,1.6c-2,0-4,0-6,0Z"/><path class="cls-12" d="M258.08,347.92H254c-4.89,0-5.21-.15-5-1.82.13-1,1.34-1.51,4.38-1.48,3.68,0,7.38,0,11.07,0,3.5,0,3.43.78,3.31,1.65s-.12,1.71-3.7,1.66c-2,0-4,0-6,0Z"/><path class="cls-12" d="M169.69,347.92H166c-5,0-6.65-1.05-4-2.64a8.46,8.46,0,0,1,3-.63c4.21-.07,8.41,0,12.58,0,3.69,0,2.43,1,2.29,1.81s-.69,1.5-3.77,1.47c-2.1,0-4.23,0-6.34,0Z"/><path class="cls-12" d="M301.56,347.92h-3.73c-5,0-7-1-5-2.64a6.63,6.63,0,0,1,2.78-.63c4.18-.07,8.38,0,12.58,0,3.68,0,2.83,1,2.95,1.81s-.14,1.51-3.23,1.48c-2.11,0-4.23,0-6.35,0Z"/><path class="cls-12" d="M214.47,347.92H210c-4.55,0-4.68-.13-4.42-1.69.21-1.23,1.68-1.71,5.2-1.63s6.89,0,10.34,0,3.36.79,3.15,1.64-.17,1.73-3.83,1.67C218.46,347.9,216.46,347.92,214.47,347.92Z"/><path class="cls-12" d="M454.57,347.92h-4.11c-4.69,0-7.43-1.27-5.78-2.73a5.21,5.21,0,0,1,2.4-.54c4.16-.06,8.36,0,12.56,0,3.7,0,3.34,1,3.76,1.79s.67,1.52-2.49,1.5Z"/><path class="cls-12" d="M446.14,383.91c-1.63,0-3.27,0-4.9,0-3.21,0-5.54-.16-6.05-1.57s1.27-1.75,4.87-1.7c3.79.05,7.57,0,11.35,0,3.07,0,4,.63,4.41,1.54s.27,1.69-3.15,1.69h-6.54Z"/><path class="cls-12" d="M345.25,347.92h-3.72c-5.35,0-5.52-.1-5.57-2,0-.91.8-1.35,3.56-1.32,3.81,0,7.63,0,11.44,0,3.61,0,3.43.84,3.55,1.68s.33,1.7-3.3,1.64c-2,0-4,0-6,0Z"/><path class="cls-12" d="M323.62,347.92h-3.37c-5.62,0-7.29-.74-5.63-2.62a5.56,5.56,0,0,1,2.62-.64c4.19-.07,8.4-.06,12.6,0,3.49,0,2.86,1,3,1.7s.46,1.57-2.81,1.57h-6.36Z"/><path class="cls-12" d="M447.4,387.6h-5c-5.14,0-6.7-.54-6.09-2.24.14-.39,1.5-.91,2.53-.93,4.75-.11,9.57-.09,14.39,0,3.41,0,3.57.95,3.94,1.76s.18,1.45-2.72,1.44H447.4Z"/><path class="cls-12" d="M470.34,387.59c-1.8,0-3.62,0-5.39,0-3.27.09-5.33-.23-5.89-1.54s.81-1.78,4.49-1.72c3.86.06,7.69,0,11.51,0s4.38.78,4.89,1.78-.27,1.53-3.39,1.47C474.47,387.56,472.41,387.59,470.34,387.59Z"/><path class="cls-12" d="M422.63,387.6h-4.55c-5.14,0-6.25-.35-5.82-2.1.11-.43,1.73-1,2.91-1.07,4.43-.13,9-.06,13.48-.05,3.63,0,3.81.88,4.16,1.77s-.13,1.49-3.16,1.45c-2.35,0-4.68,0-7,0Z"/><path class="cls-13" d="M382.59,103.85,145.93,321.47a16,16,0,0,1-3.44-9.85V121.11c0-9.48,8.61-17.26,19.14-17.26Z"/><path class="cls-14" d="M523.8,526.06h-2.14s.71-8.11-1.28-8.19-6.91,6.6-9.86,7.63-18,1.91-18.12-.87,5.8-3.9,7.63-4.69,10.74-9.46,12.33-10.5,4.3-8.22,4.3-8.22l8.43-.37s.48,6.72,1,10.27a31.59,31.59,0,0,1,.35,3.33C526.51,517.47,523.8,526.06,523.8,526.06Z"/><path class="cls-14" d="M561.12,524.46h-1.79v-7.55c-1.49.12-6.5,4.86-8.06,6.24s-3.67,1.31-10.2,1.72-7.15-3.49-6.11-4.82,4.37-1.92,6.11-2.75,8.6-8.56,10.42-10.39,3-7.07,3-7.07l7.63.66a46.72,46.72,0,0,0,.82,8.82h0s0,0,0,0c.07.34.15.68.24,1C564.28,514.54,561.12,524.46,561.12,524.46Z"/><path class="cls-15" d="M537,363.54s-2.71,6.4-2.94,8-8.73,22.74-9.32,28.92-2.38,22.92-3,25.31,1.43,13.05,1.75,15.44.16,41.38-2.71,60.64c0,0,6.69,2.87,11.78,0,0,0,8.44-30.08,8-47.43s-2.68-24.67,0-31.68,18.45-28,20-30.24,11.56-14.55,2.12-27.89S537,363.54,537,363.54Z"/><path class="cls-15" d="M571.08,420.21c-.87,5.74,0,13.29,1.85,34.29s-3.16,46.43-3.16,46.43c-6.23,2.13-13.41,0-13.41,0,.16-1.48,0-51.19,0-55.62s-1.28-9.46-1.6-14.54c-.23-3.47-1.84-9.86-3.65-16.38l-1.65-5.82h0c-.31-1.07-.61-2.12-.91-3.13-2.55-8.86-6-43.07-6-43.07s19-15.33,28.31-.9,4.51,24.94,4.18,26.74S571.94,414.47,571.08,420.21Z"/><path class="cls-16" d="M563.18,389.35c-.14.33-9.63,21.39-12.07,25l-1.65-5.82h0S562.87,389.82,563.18,389.35Z"/><path class="cls-17" d="M561.12,524.46h-1.79v-7.55c-1.49.12-6.5,4.86-8.06,6.24s-3.67,1.31-10.2,1.72-7.15-3.49-6.11-4.82,4.37-1.92,6.11-2.75c7,.38,15.51-9.44,19.6-9.42,2.17,0,2.15,1.21,2.22,1.44h0s0,0,0,0c.07.34.15.68.24,1C564.28,514.54,561.12,524.46,561.12,524.46Z"/><path class="cls-17" d="M523.8,526.06h-2.14s.71-8.11-1.28-8.19-6.91,6.6-9.86,7.63-18,1.91-18.12-.87,5.8-3.9,7.63-4.69c6.23,0,16.36-6.87,19.51-8.26a11.36,11.36,0,0,1,6.54-.56,31.59,31.59,0,0,1,.35,3.33C526.51,517.47,523.8,526.06,523.8,526.06Z"/><path class="cls-18" d="M578.41,379.05l-8.07-1.94s1.4-28.48,6.26-40.54c0-.11.22,0,.32.06,0-.28-.09-.55-.14-.82-.11-.57-.21-1.13-.32-1.69-1.23-6.42-2.66-12-2.66-12s-10.18-25.62,2.2-23.62a17.44,17.44,0,0,1,7.8,11.79c1.4,8.19,2.81,20.26,2.56,25.08s-1.62,10.56-2.84,16.33C583.52,351.67,578.74,377.32,578.41,379.05Z"/><path class="cls-14" d="M553.8,283.23s3,8,.68,14.25c0,0,11.14-.73,11.56-2s-.45-13.34,1.08-16.9S553.8,283.23,553.8,283.23Z"/><path class="cls-19" d="M552.73,294.76s-6.59,2.34-9.56,3-9.2,3.6-8.7,14.7,2.37,20.72,3,25.49.26,16.91-.84,22.81a83.41,83.41,0,0,0,34.35,0s-3.29-10.06-3.21-12.66,11-24,11.48-27.4,2.7-18.3-2.28-21.59-9-2.87-11.14-4.34S555.8,293.7,552.73,294.76Z"/><path class="cls-19" d="M578.13,378.19c-27,7.15-48.42,0-48.42,0a67,67,0,0,0,4.43-11.91h0a71.66,71.66,0,0,0,1.65-8h0a72.25,72.25,0,0,0-.66-25.93c3.11-25.62,41.87-33.27,45-25.15s-6,43-6.47,46S578.13,378.19,578.13,378.19Z"/><path class="cls-14" d="M563.51,251c-4.48-1.54-16.58-3.18-19.68,15.41s3.65,18.9,10.59,18.37,17.79-13.07,18.62-16.89S576.29,255.36,563.51,251Z"/><path class="cls-20" d="M546.32,258.11s3.7,7.91,8.55,10.67c0,0,3,8.41,9.62,11.81,0,0,17.46-11.57,7.33-25.32S547.46,252.47,546.32,258.11Z"/><path class="cls-14" d="M554.44,266c.39-1,3-2.54,4.18.11s-3,7.33-4.19,7.07S553,269.71,554.44,266Z"/><path class="cls-20" d="M571.23,257.4c.38-.6,11.94-5.95,14.35,5.23s-9.32,24.2-11.37,29.79.93,18.7.93,18.7-7-6.66-9.19-13.64C563.61,289.82,562.83,270.5,571.23,257.4Z"/><path class="cls-19" d="M571.81,257a11.64,11.64,0,0,0-4,7.21s-.66-3.44.77-5.55A3.17,3.17,0,0,1,571.81,257Z"/><path class="cls-14" d="M510.68,382.55s-.57,2.37-.93,3.57-.57,2.67.27,3.3,2.65,2.8,3.87,3.8,8.16-2,8.93-3.2-.74-7.8-2.85-9.12-5.3-3.19-5.3-3.19Z"/><path class="cls-19" d="M541.31,298.36s-9.24,3.66-9.79,16.49-1,19.53-1.54,21.52-1.46,9.94-3.79,14.73-11.93,27.21-11.93,27.21l8.42,4.87s14.25-26.69,15.5-30.47,6.41-30.12,6.82-34.56C545.33,314.57,550.05,298.63,541.31,298.36Z"/><path class="cls-19" d="M540.93,341.36a16.63,16.63,0,0,1-10.54-2.31,126.86,126.86,0,0,1-4.2,12.05c-1.46,3.08-11.93,27.21-11.93,27.21l8.42,4.87s14.28-25.78,15.5-30.47S540.93,341.36,540.93,341.36Z"/><path class="cls-15" d="M534.15,366.29a71.66,71.66,0,0,0,1.65-8h0s1.78-3.78,2.38-5.58,5.07-24,5.07-24S548,349.55,534.15,366.29Z"/><path class="cls-15" d="M579,327.86s-5.34,24.6-5.36,25.36,1.5,10.81,2,13.07Z"/><rect class="cls-11" x="179.46" y="190.93" width="163.04" height="114.56" rx="3.56"/><rect class="cls-21" x="179.46" y="197.29" width="163.04" height="101.83"/><circle class="cls-22" cx="336.84" cy="194.2" r="1.48"/><circle class="cls-23" cx="332.25" cy="194.2" r="1.48"/><circle class="cls-24" cx="327.66" cy="194.2" r="1.48"/><rect class="cls-21" x="179.46" y="197.29" width="10.38" height="101.83"/><rect class="cls-25" x="188.87" y="204.87" width="39.7" height="2.7" rx="1.3"/><rect class="cls-25" x="193.52" y="210.02" width="23.06" height="2.7" rx="1.3"/><rect class="cls-25" x="200.93" y="215.17" width="25.76" height="2.7" rx="1.3"/><rect class="cls-25" x="200.93" y="220.31" width="39.7" height="2.7" rx="1.3"/><rect class="cls-25" x="193.52" y="225.46" width="16.2" height="2.7" rx="1.3"/><rect class="cls-25" x="193.52" y="230.61" width="25.44" height="2.7" rx="1.3"/><rect class="cls-25" x="200.93" y="235.75" width="9.39" height="2.7" rx="1.3"/><rect class="cls-25" x="218.96" y="210.02" width="39.7" height="2.7" rx="1.3"/><rect class="cls-25" x="229.11" y="215.17" width="23.71" height="2.7" rx="1.3"/><rect class="cls-25" x="242.95" y="220.31" width="16.97" height="2.7" rx="1.3"/><rect class="cls-25" x="212.27" y="225.46" width="39.7" height="2.7" rx="1.3"/><rect class="cls-25" x="221.12" y="230.61" width="19.85" height="2.7" rx="1.3"/><rect class="cls-25" x="213.12" y="235.75" width="17.92" height="2.7" rx="1.3"/><rect class="cls-25" x="260.71" y="210.02" width="26.58" height="2.7" rx="1.3"/><rect class="cls-25" x="298.65" y="215.17" width="26.58" height="2.7" rx="1.3"/><rect class="cls-25" x="256.04" y="215.17" width="39.7" height="2.7" rx="1.3"/><rect class="cls-25" x="263.32" y="220.31" width="39.7" height="2.7" rx="1.3"/><rect class="cls-25" x="254.15" y="225.46" width="15.44" height="2.7" rx="1.3"/><rect class="cls-25" x="234.3" y="235.75" width="27.17" height="2.7" rx="1.3"/><rect class="cls-25" x="188.87" y="242.88" width="28.74" height="2.7" rx="1.3"/><rect class="cls-25" x="193.52" y="248.02" width="23.06" height="2.7" rx="1.3"/><rect class="cls-25" x="200.93" y="253.17" width="25.76" height="2.7" rx="1.3"/><rect class="cls-25" x="200.93" y="258.32" width="39.7" height="2.7" rx="1.3"/><rect class="cls-25" x="242.92" y="280.21" width="16.2" height="2.7" rx="1.3"/><rect class="cls-25" x="193.52" y="268.61" width="25.44" height="2.7" rx="1.3"/><rect class="cls-25" x="200.93" y="273.76" width="9.39" height="2.7" rx="1.3"/><rect class="cls-25" x="218.96" y="248.02" width="39.7" height="2.7" rx="1.3"/><rect class="cls-25" x="229.11" y="253.17" width="23.71" height="2.7" rx="1.3"/><rect class="cls-25" x="242.95" y="258.32" width="16.97" height="2.7" rx="1.3"/><rect class="cls-25" x="261.68" y="280.21" width="39.7" height="2.7" rx="1.3"/><rect class="cls-25" x="221.12" y="268.61" width="19.85" height="2.7" rx="1.3"/><rect class="cls-25" x="192.85" y="280.21" width="25.44" height="2.7" rx="1.3"/><rect class="cls-25" x="220.45" y="280.21" width="19.85" height="2.7" rx="1.3"/><rect class="cls-25" x="213.12" y="273.76" width="17.92" height="2.7" rx="1.3"/><rect class="cls-25" x="260.71" y="248.02" width="26.58" height="2.7" rx="1.3"/><rect class="cls-25" x="263.32" y="258.32" width="17.67" height="2.7" rx="1.3"/><rect class="cls-25" x="218.56" y="263.46" width="16.97" height="2.7" rx="1.3"/><rect class="cls-25" x="238.93" y="263.46" width="17.67" height="2.7" rx="1.3"/><rect class="cls-25" x="200.56" y="263.46" width="15.44" height="2.7" rx="1.3"/><rect class="cls-25" x="234.3" y="273.76" width="27.17" height="2.7" rx="1.3"/><path class="cls-26" d="M30.75,455.63s-.66,4.82-.74,5.55-7.32-.43-7.32-.43L22.1,455S29.85,455,30.75,455.63Z"/><path class="cls-27" d="M30.09,460.56a19.94,19.94,0,0,0,4.51,4.18c2.22,1.26,5.7,1.76,7,3.08,1,.94,3.45,5-5.76,4.94s-13.65.57-14.64-1,1.43-11.53,1.43-11.53S24.82,461.06,30.09,460.56Z"/><path class="cls-26" d="M82.61,455.63s-.66,4.82-.74,5.55-7.32-.43-7.32-.43L74,455S81.71,455,82.61,455.63Z"/><path class="cls-27" d="M82,460.56a19.94,19.94,0,0,0,4.51,4.18c2.22,1.26,10.38,2.3,11.69,3.61.95.95,2.52,4.76-10.44,4.41-9.21-.26-13.65.57-14.64-1s1.43-11.53,1.43-11.53S76.55,461.12,82,460.56Z"/><path class="cls-28" d="M33.32,331.08s-3.85,12-3.34,22.29S28,375,27,385.75c-1.13,12-5.8,40.46-6,46.89s.72,26.94.72,26.94l9.33.23s7.83-49.73,9.86-54.8,12.1-41.24,12.44-45.3S33.32,331.08,33.32,331.08Z"/><path class="cls-28" d="M72.55,333.21s5.12,28.28,5.8,34.59,1.12,30.56,1.46,34.5,2.26,51.64,4.06,57.51H73.47s-10.68-34.68-10.68-51.08-7.08-35.66-11.64-46.49-15-11.07-17.83-31.16C33.32,331.08,68.75,326.85,72.55,333.21Z"/><path class="cls-14" d="M53.84,238.93s9.55-2,12.63,5.56.53,21.2-4.28,22.18-11.5-1-13.16-5.64-2.78-11.2-2-15.34S51.29,239.76,53.84,238.93Z"/><path class="cls-14" d="M106.23,340.48s2.88,3.1,3.84,3.44,2.89-1.24,9.8-1.48c.61,0,1.65.56,1.37,1.35s-2.75,4-4,4.28-8.06,1.3-11,0-4.77-5.13-4.77-5.13Z"/><path class="cls-14" d="M61.16,266.83s-.76,2.37-.33,3.67S49,269.9,49,269.9a82.29,82.29,0,0,0-1-12.49C46.92,251.6,61.16,266.83,61.16,266.83Z"/><path class="cls-29" d="M48,257.41s.63,1.53,4.18,1.53,8.51-3.95,10-4.23,1.68-1.12,1.68-1.12l.7,1.46,1.52.34s-.76-4.35,1.62-5.7-.1-13.69-11.83-11.55c0,0-8.9,1-9.35,5.92S46.42,254.69,48,257.41Z"/><path class="cls-30" d="M60.83,270.5A43.3,43.3,0,0,1,73.73,277s7.85,3.66,8.69,12.17c.44,4.52,4.42,21.74,5.32,23.77s19.43,27.59,19.81,28.27-4.77,4.24-5.37,3.94S80.9,322.52,79.93,320.33c0,0-6.38-12.91-6.53-15.54,0,0-.16,7.5-.46,9.61s2.74,29.07,2.59,30.2-20.59,5.17-30.13,4.12A50.67,50.67,0,0,1,29,344.07s4.45-18.32,3.85-21.86-1.73-23.75-1.73-23.75L24.6,308l10.45,15.71-2.48,10.22s-18.11-23.23-18.72-25.78.38-5,1.36-7.14,6.54-12,8-14.21,5.71-9.24,12.18-11.43S49,269.9,49,269.9Z"/><path class="cls-31" d="M61.89,271s0-2.32-1.1-2.54-11.6-1.24-12.89-.73v2.7S50.38,271.91,61.89,271Z"/><path class="cls-14" d="M63.88,251.78c-.06-.84-1.77-3.49-3-1.13s.28,6,1.43,5.92S64.05,253.93,63.88,251.78Z"/><path class="cls-31" d="M31.72,331.7s1.86-8.8.89-11.65L31,317.69A75.76,75.76,0,0,1,31.72,331.7Z"/><circle class="cls-32" cx="456.83" cy="46.9" r="46.9"/><line class="cls-33" x1="404.8" y1="43.57" x2="402.3" y2="43.57"/><line class="cls-34" x1="393.5" y1="43.57" x2="358.31" y2="43.57"/><polyline class="cls-33" points="353.92 43.57 351.42 43.57 351.39 46.07"/><line class="cls-35" x1="351.32" y1="55.88" x2="350.77" y2="124.59"/><line class="cls-33" x1="350.73" y1="129.49" x2="350.71" y2="131.99"/><circle class="cls-32" cx="46.9" cy="182.27" r="46.9"/><line class="cls-33" x1="98.93" y1="178.94" x2="101.43" y2="178.94"/><line class="cls-36" x1="111.81" y1="178.94" x2="168.89" y2="178.94"/><line class="cls-33" x1="174.08" y1="178.94" x2="176.58" y2="178.94"/><circle class="cls-32" cx="244.75" cy="49.49" r="39.98"/><line class="cls-33" x1="245.72" y1="144" x2="245.66" y2="141.5"/><line class="cls-37" x1="245.45" y1="131.2" x2="244.91" y2="105.44"/><line class="cls-33" x1="244.8" y1="100.29" x2="244.75" y2="97.79"/><circle class="cls-32" cx="559.8" cy="197.86" r="38.26"/><line class="cls-33" x1="517.35" y1="196.14" x2="514.85" y2="196.14"/><line class="cls-38" x1="503.63" y1="196.14" x2="458.76" y2="196.14"/><line class="cls-33" x1="453.15" y1="196.14" x2="450.65" y2="196.14"/><circle class="cls-32" cx="111.37" cy="74.17" r="34.83"/><circle class="cls-32" cx="546.8" cy="103.85" r="29.69"/><path class="cls-39" d="M390.09,260.67c-.86-7.51-5.17-13.17-10-13.17a5.32,5.32,0,0,0-.69,0c-5,.57-8.36,7.4-7.47,15.22.87,7.51,5.17,13.17,10,13.17a5.32,5.32,0,0,0,.69,0C387.64,275.31,391,268.49,390.09,260.67Z"/><path class="cls-40" d="M411.89,247.54a5.32,5.32,0,0,0-.69,0c-4.85,0-9.16,5.66-10,13.17-.89,7.82,2.45,14.64,7.46,15.22a5.32,5.32,0,0,0,.69,0c4.86,0,9.16-5.66,10-13.17C420.25,254.94,416.9,248.11,411.89,247.54Z"/><path class="cls-41" d="M384.43,305.15a4.87,4.87,0,0,1-2.64-.56.94.94,0,0,1-.3-.78,1.25,1.25,0,0,1,.23-.55,3.47,3.47,0,0,1-1,.22.85.85,0,0,1-.71-.31.74.74,0,0,1-.14-.56,1.51,1.51,0,0,1,.54-.78,1.69,1.69,0,0,1-.41.08.68.68,0,0,1-.5-.25.62.62,0,0,1-.07-.53c.63-1.82,3.3-3.58,6.63-4.38.45-.1.91-.19,1.37-.26v-22A.55.55,0,0,1,388,274h5.12a.55.55,0,0,1,.55.55v22.91a2.46,2.46,0,0,1,1,1.43c.59,2.48-3.07,4.59-6.68,5.73A12,12,0,0,1,384.43,305.15Z"/><path class="cls-41" d="M393.07,274.52v23.19a2.13,2.13,0,0,1,1,1.27c.45,1.87-2.47,3.87-6.31,5.08a11.13,11.13,0,0,1-3.34.54,4.48,4.48,0,0,1-2.26-.41c-.89-.85,3-2.39,2.67-2.64h-.08c-.55,0-3.15,1.39-4.07,1.39a.33.33,0,0,1-.28-.1c-.43-.54,3.68-2.63,3.64-2.79l-.1,0c-.57,0-3.53,1.36-4,1.36l-.05-.05c.55-1.6,3-3.26,6.24-4A15,15,0,0,1,388,297V274.52h5.12"/><path class="cls-41" d="M407.18,305.15a12,12,0,0,1-3.51-.56c-3.62-1.14-7.27-3.25-6.68-5.73a2.45,2.45,0,0,1,1-1.43V274.52a.55.55,0,0,1,.55-.55h5.12a.55.55,0,0,1,.55.55v22c.47.07.93.16,1.37.26,3.34.8,6,2.56,6.63,4.38a.62.62,0,0,1-.07.53.68.68,0,0,1-.5.25h0a1.69,1.69,0,0,1-.41-.08,1.51,1.51,0,0,1,.54.78.67.67,0,0,1-.14.56.85.85,0,0,1-.71.31,3.35,3.35,0,0,1-1-.22,1.23,1.23,0,0,1,.22.55.94.94,0,0,1-.3.78A4.85,4.85,0,0,1,407.18,305.15Z"/><path class="cls-41" d="M403.65,274.52V297a15,15,0,0,1,1.79.32c3.22.76,5.69,2.42,6.25,4l-.06.05c-.45,0-3.41-1.36-4-1.36l-.1,0c0,.16,4.07,2.25,3.64,2.79a.33.33,0,0,1-.28.1c-.92,0-3.52-1.39-4.07-1.39h-.08c-.37.25,3.57,1.79,2.67,2.64a4.46,4.46,0,0,1-2.25.41,11.19,11.19,0,0,1-3.35-.54c-3.84-1.21-6.76-3.21-6.31-5.08a2.13,2.13,0,0,1,1-1.27V274.52h5.12"/><path class="cls-42" d="M422.62,191.86,421,190.69l.49,1.94a8.85,8.85,0,0,1,.28,2.2c0,6.15-6.3,8.33-11.69,8.33-.87,0-1.7.07-2.51.14s-1.42.13-2.07.13a4.66,4.66,0,0,1-2.87-.77L401,201.49l.5,1.95c1.35,5.35,6.62,9.08,12.82,9.08,7.25,0,13.15-5.22,13.15-11.63A11.13,11.13,0,0,0,422.62,191.86Z"/><path class="cls-43" d="M389,203.59a4.67,4.67,0,0,1-2.86.76c-.65,0-1.35-.06-2.08-.13s-1.64-.14-2.5-.14c-5.4,0-11.69-2.18-11.69-8.33a8.85,8.85,0,0,1,.28-2.2l.49-1.94L369,192.78a11.14,11.14,0,0,0-4.85,9c0,6.41,5.9,11.63,13.15,11.63,6.2,0,11.48-3.73,12.83-9.08l.49-2Z"/><ellipse class="cls-44" cx="395.59" cy="231.59" rx="22.77" ry="19.99"/><path class="cls-45" d="M410.64,260.13a21.79,21.79,0,0,0-3.09-11.35,29.6,29.6,0,0,1-23.81,0,21.88,21.88,0,0,0-3.11,11.39c0,1.63-1,3.39-2.17,5.43-1.57,2.73-3.35,5.84-3.35,9.76,0,8.25,8.24,14.09,20.5,14.52h.05c12.26-.43,20.5-6.27,20.5-14.52,0-3.92-1.78-7-3.35-9.76C411.65,263.52,410.64,261.76,410.64,260.13Z"/><path class="cls-46" d="M407.55,250l-.07-.11c8.38-3.84,13.75-11.54,13.75-19.84,0-.35,0-.69,0-1-1-11.22-12.05-20.06-25.52-20.06-14.13,0-25.59,9.74-25.59,21.77q0,.5,0,1c.65,7.65,5.85,14.6,13.67,18.18a.56.56,0,0,0-.05.08,29.54,29.54,0,0,0,23.81,0Z"/><path class="cls-47" d="M407.55,248.78a.75.75,0,0,0-.07-.12c8.38-3.83,13.75-11.53,13.75-19.83q0-.53,0-1.05c-1-11.22-12.05-20.06-25.52-20.06-14.13,0-25.59,9.75-25.59,21.77q0,.49,0,1c.65,7.66,5.85,14.6,13.67,18.18a.56.56,0,0,1-.05.08,29.6,29.6,0,0,0,23.81,0Z"/><path class="cls-48" d="M395.64,191.61c-10.94,0-19.84,10.52-19.84,23.47,0,.1,0,.85,0,.85l.32.22a36.88,36.88,0,0,0,39,0l.32-.22s0-.75,0-.85C415.47,202.13,406.57,191.61,395.64,191.61Z"/><path class="cls-44" d="M415.11,211.18l-.18-1.11-.95.62a32.61,32.61,0,0,1-14.85,4.95V192.56l-.61-.1a16.77,16.77,0,0,0-5.77,0l-.61.1v23.08a32.66,32.66,0,0,1-14.85-4.95l-.94-.62-.19,1.11a28.32,28.32,0,0,0-.36,4.49c0,.11,0,.86,0,.86l.32.22a33.93,33.93,0,0,0,16,5.42v12.59h7V222.17a33.93,33.93,0,0,0,16-5.42l.32-.22s0-.75,0-.86A28.32,28.32,0,0,0,415.11,211.18Z"/><path class="cls-49" d="M415.11,210.58l-.18-1.11-.95.62A32.61,32.61,0,0,1,399.13,215V192l-.61-.1a16.77,16.77,0,0,0-5.77,0l-.61.1V215a32.66,32.66,0,0,1-14.85-4.95l-.94-.62-.19,1.11a28.35,28.35,0,0,0-.36,4.5c0,.1,0,.85,0,.85l.32.22a34.05,34.05,0,0,0,16,5.43v12.58h7V221.58a34.05,34.05,0,0,0,16-5.43l.32-.22s0-.75,0-.85A28.35,28.35,0,0,0,415.11,210.58Z"/><path class="cls-50" d="M386.77,228.37c0,2.54-1.75,4.6-3.91,4.6s-3.91-2.06-3.91-4.6,1.75-4.61,3.91-4.61S386.77,225.82,386.77,228.37Z"/><path class="cls-50" d="M412.55,228.37c0,2.54-1.75,4.6-3.91,4.6s-3.91-2.06-3.91-4.6,1.75-4.61,3.91-4.61S412.55,225.82,412.55,228.37Z"/><path class="cls-44" d="M409.51,239a.56.56,0,0,0-.05-.08c-.25-.3-6.25-7.22-13.82-7.22s-13.58,6.92-13.83,7.22l-.05.07a.55.55,0,0,0-.05.45.5.5,0,0,0,.1.19c.25.3,6.25,7.22,13.83,7.22s13.57-6.92,13.82-7.22a.5.5,0,0,0,.1-.19A.52.52,0,0,0,409.51,239Z"/><path class="cls-51" d="M381.71,238.55a.46.46,0,0,0,.1.18c.25.3,6.25,7.22,13.83,7.22s13.57-6.92,13.82-7.22a.44.44,0,0,0,.1-.19,72.64,72.64,0,0,0-13.92-1.23A71.81,71.81,0,0,0,381.71,238.55Z"/><path class="cls-41" d="M409.51,238.1a.56.56,0,0,0-.05-.08c-.25-.3-6.25-7.22-13.82-7.22s-13.58,6.92-13.83,7.22a.56.56,0,0,0-.05.08.54.54,0,0,0-.05.45,71.81,71.81,0,0,1,13.93-1.24,72.64,72.64,0,0,1,13.92,1.23A.52.52,0,0,0,409.51,238.1Z"/><path class="cls-52" d="M397.28,198.06a1.65,1.65,0,1,1-1.64-1.65A1.64,1.64,0,0,1,397.28,198.06Z"/><path class="cls-53" d="M397.28,204.82a1.65,1.65,0,1,1-1.64-1.64A1.65,1.65,0,0,1,397.28,204.82Z"/><path class="cls-41" d="M397.28,211.59a1.65,1.65,0,1,1-1.64-1.64A1.65,1.65,0,0,1,397.28,211.59Z"/><path class="cls-41" d="M397.28,218.36a1.65,1.65,0,1,1-1.64-1.65A1.65,1.65,0,0,1,397.28,218.36Z"/><path class="cls-41" d="M404.53,217.75a1.65,1.65,0,1,1-1.65-1.64A1.65,1.65,0,0,1,404.53,217.75Z"/><path class="cls-41" d="M411.18,215.78a1.65,1.65,0,0,1-3.29,0,1.65,1.65,0,1,1,3.29,0Z"/><path class="cls-41" d="M386,217.75a1.65,1.65,0,1,0,1.65-1.64A1.65,1.65,0,0,0,386,217.75Z"/><path class="cls-41" d="M379.35,215.56a1.65,1.65,0,1,0,1.65-1.65A1.64,1.64,0,0,0,379.35,215.56Z"/><path class="cls-41" d="M397.28,225.13a1.65,1.65,0,1,1-1.64-1.65A1.65,1.65,0,0,1,397.28,225.13Z"/><path class="cls-54" d="M407.71,267.2A22.24,22.24,0,0,0,396,263.54a23.5,23.5,0,0,0-11.71,3.66S391.46,265,396,265,407.71,267.2,407.71,267.2Z"/></svg>