<?xml version="1.0" encoding="utf-8"?>
<!-- Generator: Adobe Illustrator 26.2.1, SVG Export Plug-In . SVG Version: 6.00 Build 0)  -->
<svg version="1.1" id="a" xmlns="http://www.w3.org/2000/svg" xmlns:xlink="http://www.w3.org/1999/xlink" x="0px" y="0px"
	 viewBox="0 0 239.4 239.4" style="enable-background:new 0 0 239.4 239.4;" xml:space="preserve">
<style type="text/css">
	.st0{fill:#FFFFFF;}
</style>
<path d="M43,0h153.4c23.7,0,43,19.3,43,43v153.4c0,23.7-19.3,43-43,43H43c-23.7,0-43-19.3-43-43V43C0,19.3,19.3,0,43,0z"/>
<g>
	<path id="b" class="st0" d="M160.5,147.9c-1.5,3.4-3.3,6.7-5.4,9.8c-2.8,4.1-5.2,6.9-7,8.5c-2.8,2.6-5.8,3.9-9,4
		c-2.3,0-5.1-0.6-8.3-2c-2.8-1.2-5.8-1.9-8.9-1.9c-3.2,0.1-6.3,0.7-9.2,1.9c-3.3,1.3-5.9,2-8,2.1c-3.1,0.1-6.1-1.2-9.2-4.1
		c-1.9-1.7-4.4-4.6-7.3-8.8c-3.3-4.7-5.9-9.9-7.7-15.4c-2.2-6.3-3.3-12.4-3.3-18.3c0-6.8,1.4-12.6,4.4-17.5c2.2-3.8,5.4-7,9.2-9.3
		c3.7-2.3,8-3.5,12.4-3.5c2.4,0,5.7,0.8,9.6,2.3s6.5,2.3,7.6,2.3c0.9,0,3.7-0.9,8.5-2.6c4.5-1.6,8.4-2.3,11.5-2
		c8.5,0.7,14.9,4,19.1,10.1c-7.6,4.6-11.4,11-11.3,19.3c0.1,6.5,2.4,11.8,7,16.1c2,1.9,4.4,3.5,7,4.6
		C161.7,144.9,161.1,146.4,160.5,147.9L160.5,147.9L160.5,147.9z M141,71.3c0,5.1-1.8,9.8-5.5,14.1c-4.4,5.2-9.8,8.2-15.6,7.7
		c-0.1-0.6-0.1-1.3-0.1-1.9c0-4.9,2.1-10,5.9-14.3c2-2.3,4.4-4.1,7.1-5.4c2.5-1.3,5.3-2.1,8.2-2.3C140.9,69.9,141,70.6,141,71.3
		L141,71.3z"/>
</g>
</svg>
