<?xml version="1.0" encoding="UTF-8"?><svg id="a" xmlns="http://www.w3.org/2000/svg" viewBox="0 0 239.43 239.43"><defs><style>.b{fill:#00c7fd;}.c{fill:#0068b5;}.d{fill:#fff;}</style></defs><rect class="c" width="239.43" height="239.43" rx="43" ry="43"/><g><rect class="b" x="35.09" y="87.73" width="12.83" height="12.83"/><path class="d" d="M47.61,154.59v-46.27h-12.19v46.22h12.19v.05Zm80.75,.46v-11.33c-1.78,0-3.29-.09-4.38-.27-1.28-.18-2.24-.64-2.88-1.28-.64-.64-1.05-1.55-1.28-2.79-.18-1.14-.27-2.65-.27-4.48v-16.12h8.81v-10.46h-8.81v-17.99h-12.19v44.71c0,3.79,.32,6.99,.96,9.55,.64,2.51,1.74,4.57,3.24,6.12s3.52,2.65,5.94,3.33c2.47,.69,5.57,1,9.27,1h1.6Zm69.79-.46V86.77h-12.19v67.82h12.19Zm-102.53-41.7c-3.38-3.65-8.13-5.48-14.16-5.48-2.92,0-5.62,.59-7.99,1.78-2.42,1.19-4.43,2.83-6.07,4.93l-.64,.87v-6.67h-12.01v46.22h12.1v-23.75c.14-4.34,1.19-7.54,3.2-9.59,2.15-2.19,4.75-3.29,7.72-3.29,3.52,0,6.21,1.1,7.99,3.2,1.74,2.1,2.65,5.07,2.65,8.86h0v.14h0v24.43h12.29v-26.22c.05-6.58-1.69-11.78-5.07-15.44Zm84.04,18.5c0-3.33-.59-6.44-1.74-9.36-1.19-2.88-2.83-5.44-4.89-7.63-2.1-2.19-4.61-3.88-7.54-5.12-2.92-1.23-6.17-1.83-9.68-1.83-3.33,0-6.49,.64-9.41,1.87-2.92,1.28-5.48,2.97-7.63,5.12s-3.88,4.7-5.12,7.63c-1.28,2.92-1.87,6.07-1.87,9.41s.59,6.49,1.78,9.41c1.19,2.92,2.88,5.48,4.98,7.63,2.1,2.15,4.7,3.88,7.72,5.12,3.01,1.28,6.35,1.92,9.91,1.92,10.32,0,16.72-4.7,20.55-9.09l-8.77-6.67c-1.83,2.19-6.21,5.16-11.69,5.16-3.43,0-6.26-.78-8.4-2.37-2.15-1.55-3.61-3.75-4.38-6.44l-.14-.41h36.31v-4.34h0Zm-36.22-4.25c0-3.38,3.88-9.27,12.24-9.32,8.36,0,12.29,5.89,12.29,9.27l-24.53,.05Zm68.6,21.6c-.23-.55-.55-1-.96-1.42-.41-.41-.87-.73-1.42-.96s-1.14-.37-1.74-.37c-.64,0-1.19,.14-1.74,.37-.55,.23-1,.55-1.42,.96-.41,.41-.73,.87-.96,1.42-.23,.55-.37,1.14-.37,1.74,0,.64,.14,1.19,.37,1.74s.55,1,.96,1.42c.41,.41,.87,.73,1.42,.96s1.14,.37,1.74,.37c.64,0,1.19-.14,1.74-.37,.55-.23,1-.55,1.42-.96,.41-.41,.73-.87,.96-1.42,.23-.55,.37-1.14,.37-1.74s-.14-1.19-.37-1.74Zm-.73,3.2c-.18,.46-.46,.87-.78,1.19-.32,.32-.73,.59-1.19,.78s-.91,.27-1.46,.27c-.5,0-1-.09-1.46-.27-.46-.18-.87-.46-1.19-.78s-.59-.73-.78-1.19c-.18-.46-.27-.91-.27-1.46,0-.5,.09-1,.27-1.46s.46-.87,.78-1.19c.32-.32,.73-.59,1.19-.78s.91-.27,1.46-.27c.5,0,1,.09,1.46,.27,.46,.18,.87,.46,1.19,.78s.59,.73,.78,1.19c.18,.46,.27,.91,.27,1.46s-.09,1-.27,1.46Zm-2.56-1.05c.37-.05,.64-.18,.87-.41s.37-.55,.37-1c0-.5-.14-.87-.46-1.14-.27-.27-.78-.41-1.37-.41h-2.01v5.16h.96v-2.1h.69l1.28,2.1h1l-1.32-2.19Zm-.5-.78h-1.14v-1.46h1.14c.14,0,.27,.05,.41,.09,.14,.05,.23,.14,.27,.23,.09,.09,.09,.23,.09,.41s-.05,.32-.09,.41c-.09,.09-.18,.18-.27,.23-.14,.05-.27,.09-.41,.09Z"/></g></svg>