<?xml version="1.0" encoding="UTF-8"?><svg id="a" xmlns="http://www.w3.org/2000/svg" viewBox="0 0 239.43 239.43"><defs><style>.b{fill:#f4f42f;}.c{fill:#ea5d26;}.d{fill:#fff;}.e{fill:#e8e7df;}.f{fill:#474747;}.g{fill:#60605a;}</style></defs><rect class="c" width="239.43" height="239.43" rx="43" ry="43"/><g><path class="g" d="M120.55,212.32s-.79,.02-1.01,.02c-27.86,0-48.09-19.55-48.09-46.49,0-15.14,4.9-24.9,8.83-32.74,2.6-5.17,4.65-9.26,4.65-13.46,0-3.4-.97-6.72-2.2-10.93-1.83-6.25-4.33-14.8-4.8-28.46-.4-11.7,3.87-22.79,12.03-31.25,8-8.28,19.06-13.04,30.35-13.04h.52c11.28,0,22.35,4.75,30.35,13.04,8.16,8.45,12.44,19.55,12.03,31.24-.47,13.66-2.97,22.22-4.8,28.46-1.23,4.2-2.2,7.53-2.2,10.93,0,4.2,2.05,8.29,4.65,13.46,3.94,7.84,8.83,17.6,8.83,32.74,0,26.94-20.22,46.49-48.09,46.49-.22,0-1.06-.02-1.06-.02Z"/><path class="f" d="M120.83,37.4c22.63,0,41.78,19.19,40.97,42.82-.78,22.54-7,30.47-7,39.44,0,11.27,13.48,21.41,13.48,46.2,0,27.07-20.32,45.07-46.67,45.07-.35,0-.69-.02-1.04-.02-.35,0-.69,.02-1.04,.02-26.35,0-46.67-18.01-46.67-45.07,0-24.79,13.48-34.93,13.48-46.2,0-8.97-6.22-16.9-7-39.44-.82-23.63,18.34-42.82,40.97-42.82h.52m0-2.83h-.52c-11.66,0-23.1,4.91-31.36,13.47-8.43,8.73-12.85,20.19-12.43,32.28,.48,13.84,3.01,22.49,4.85,28.81,1.2,4.1,2.14,7.33,2.14,10.53,0,3.87-1.98,7.82-4.5,12.83-4,7.97-8.99,17.9-8.99,33.37,0,27.76,20.82,47.9,49.5,47.9,.24,0,.48,0,.72-.01h.63c.24,0,.48,.01,.72,.01,28.68,0,49.5-20.15,49.5-47.9,0-15.48-4.98-25.4-8.99-33.37-2.51-5.01-4.5-8.96-4.5-12.83,0-3.2,.95-6.44,2.14-10.53,1.85-6.32,4.38-14.97,4.86-28.81,.42-12.09-4-23.55-12.43-32.28-8.27-8.56-19.7-13.47-31.36-13.47Z"/><path class="d" d="M120.54,210s-.56,.02-.75,.02c-21.1,0-36.42-16.4-36.42-38.98,0-12.65,3.68-20.79,6.64-27.34,1.94-4.3,3.47-7.69,3.47-11.17,0-1.85-.4-3.77-.86-5.99-1.32-6.33-2.95-14.21,3.34-26.75,3.73-7.44,15.8-10.08,24.99-10.08s21.11,2.66,24.25,10.17c5.44,13.01,4.15,20.67,3.11,26.83-.36,2.13-.67,3.97-.67,5.81,0,3.48,1.53,6.87,3.47,11.17,2.96,6.55,6.64,14.69,6.64,27.34,0,22.59-15.32,38.98-36.42,38.98-.18,0-.81-.02-.81-.02Z"/><path class="f" d="M120.96,91.13c10.24,0,20.35,3.1,22.95,9.3,7.16,17.11,2.33,24.62,2.33,32.1,0,9.39,10.11,17.84,10.11,38.51,0,22.56-15.24,37.57-35,37.57-.26,0-.52-.01-.78-.02-.26,0-.52,.02-.78,.02-19.76,0-35-15.01-35-37.57,0-20.66,10.11-29.12,10.11-38.51,0-7.48-5.95-15.6,2.33-32.1,3.11-6.2,13.48-9.3,23.73-9.3m0-2.83c-9.6,0-22.23,2.84-26.25,10.86-6.52,12.98-4.75,21.47-3.46,27.67,.44,2.14,.83,3.99,.83,5.7,0,3.17-1.48,6.44-3.35,10.58-3.01,6.67-6.76,14.97-6.76,27.92,0,23.41,15.91,40.4,37.83,40.4,.19,0,.38,0,.57-.01h.41c.19,0,.38,.01,.57,.01,21.92,0,37.83-16.99,37.83-40.4,0-12.95-3.75-21.25-6.76-27.92-1.87-4.14-3.35-7.41-3.35-10.58,0-1.72,.3-3.51,.65-5.58,1.07-6.34,2.4-14.22-3.2-27.61-2.23-5.33-10.12-11.03-25.56-11.03Z"/><ellipse class="d" cx="106.57" cy="78.53" rx="10.75" ry="15.5"/><path class="f" d="M106.57,64.44c5.16,0,9.33,6.31,9.33,14.09s-4.18,14.09-9.33,14.09-9.33-6.31-9.33-14.09,4.18-14.09,9.33-14.09m0-2.83c-6.82,0-12.16,7.43-12.16,16.91s5.34,16.91,12.16,16.91,12.16-7.43,12.16-16.91-5.34-16.91-12.16-16.91Z"/><path class="d" d="M134.05,91.78c-5.64,0-10.23-6.45-10.23-14.37s4.59-14.37,10.23-14.37,10.23,6.45,10.23,14.37-4.59,14.37-10.23,14.37Z"/><path class="f" d="M134.05,64.44c4.87,0,8.82,5.8,8.82,12.96s-3.95,12.96-8.82,12.96-8.82-5.8-8.82-12.96,3.95-12.96,8.82-12.96m0-2.83c-6.53,0-11.65,6.93-11.65,15.79s5.12,15.79,11.65,15.79,11.65-6.93,11.65-15.79-5.12-15.79-11.65-15.79Z"/><path class="b" d="M119.53,114.31c-15.04,0-26.83-6.07-26.83-13.81s11.78-13.81,26.83-13.81,26.83,6.07,26.83,13.81-11.78,13.81-26.83,13.81Z"/><path class="f" d="M119.53,88.11c14.03,0,25.41,5.55,25.41,12.4s-11.38,12.39-25.41,12.39-25.41-5.55-25.41-12.39,11.38-12.4,25.41-12.4m0-2.83c-16.1,0-28.24,6.55-28.24,15.23s12.14,15.22,28.24,15.22,28.24-6.55,28.24-15.22-12.14-15.23-28.24-15.23Z"/><path class="b" d="M94.86,215.78c-7.2,0-14.91-7.94-17.1-10.38-9.24-10.27-12.57-16.02-11.14-19.23,.45-1,1.56-2.19,4.34-2.19,.18,0,.36,0,.56,.01,.26,.01,.51,.02,.75,.02,4.55,0,4.63-2.08,4.76-5.51,.09-2.45,.2-5.22,2.76-6.53,.79-.4,1.62-.61,2.46-.61,2.14,0,3.96,1.27,5.57,2.39,1.12,.78,2.27,1.59,3.08,1.59h0c.2,0,.71,0,1.47-1.06,2.1-2.9,3.9-4.25,5.67-4.25,4.16,0,5.77,6.56,7.44,19.47,.8,6.19,1.75,21.06-6.7,25.36-1.2,.61-2.52,.92-3.94,.92Z"/><path class="f" d="M98.06,171.45c3.06,0,4.6,7.11,6.04,18.24,1.16,8.99,.75,20.51-5.94,23.92-1.04,.53-2.15,.76-3.29,.76-5.78,0-12.5-5.96-16.05-9.91-4.56-5.07-16.92-19.06-7.85-19.06,.16,0,.32,0,.49,.01,.29,.02,.56,.02,.82,.02,9.88,0,3.63-9.88,8.17-12.2,.62-.32,1.23-.45,1.82-.45,3.22,0,6.01,3.98,8.65,3.98,.89,0,1.76-.45,2.62-1.65,1.82-2.51,3.29-3.67,4.53-3.67m0-2.83c-2.98,0-5.32,2.76-6.82,4.84-.19,.27-.33,.4-.41,.46-.47-.11-1.54-.86-2.19-1.32-1.69-1.18-3.79-2.65-6.38-2.65-1.07,0-2.12,.26-3.11,.76-3.31,1.68-3.44,5.18-3.53,7.73-.13,3.44-.16,4.15-3.35,4.15-.22,0-.44,0-.68-.02-.22-.01-.43-.02-.63-.02-3.73,0-5.13,1.9-5.63,3.03-1.74,3.9,1.45,9.72,11.38,20.75,2.29,2.55,10.37,10.85,18.15,10.85,1.64,0,3.18-.36,4.58-1.07,3.83-1.95,9.89-8.03,7.46-26.81-1.81-14.03-3.6-20.7-8.84-20.7Z"/><path class="b" d="M151.2,214.13c-1.04,0-2.04-.18-2.99-.54-8.82-3.37-9.25-18.27-9.03-24.53,.48-13.38,1.54-20.18,5.96-20.18,1.67,0,3.48,1.16,5.68,3.64,.79,.89,1.27,.89,1.43,.89,.82,0,1.96-.98,3.05-1.93,1.63-1.41,3.49-3.01,5.88-3.01,.65,0,1.3,.12,1.94,.37,2.69,1.03,3.05,3.78,3.37,6.21,.43,3.3,.81,5.02,4.05,5.02h0c.57,0,1.22-.06,1.92-.17,.54-.09,1.04-.13,1.5-.13,2.24,0,3.23,1.04,3.67,1.92,1.56,3.09-1.24,9.13-9.37,20.2-2.11,2.87-9.57,12.24-17.06,12.24Z"/><path class="f" d="M161.19,169.89c.46,0,.94,.08,1.44,.27,4.5,1.72-.09,11.32,7.93,11.32,.63,0,1.34-.06,2.14-.19,.47-.08,.89-.11,1.27-.11,7.56,0-2.89,14.5-6.84,19.87-3.33,4.53-9.93,11.66-15.92,11.66-.84,0-1.67-.14-2.48-.45-6.97-2.66-8.44-14.08-8.12-23.15,.41-11.5,1.32-18.81,4.54-18.81,1.19,0,2.7,1,4.62,3.17,.87,.98,1.69,1.37,2.48,1.37,2.85,0,5.4-4.94,8.93-4.94m0-2.83h0c-2.92,0-5.07,1.86-6.8,3.36-.61,.53-1.61,1.39-2.08,1.56-.08-.05-.22-.17-.42-.39-2.49-2.81-4.63-4.12-6.74-4.12-6.11,0-6.93,9.34-7.37,21.54-.68,18.97,5.93,24.37,9.94,25.9,1.1,.42,2.28,.64,3.49,.64,8.16,0,15.99-9.81,18.2-12.82,8.61-11.72,11.36-18,9.49-21.68-.51-1-1.83-2.69-4.94-2.69-.54,0-1.1,.05-1.72,.15-.63,.1-1.2,.15-1.7,.15-1.88,0-2.18-.23-2.65-3.79-.33-2.54-.79-6.02-4.27-7.35-.8-.3-1.62-.46-2.44-.46Z"/><path class="f" d="M112.44,79.05c0,5-2.4,9.05-5.36,9.05s-5.36-4.05-5.36-9.05,2.4-9.06,5.36-9.06,5.36,4.05,5.36,9.06Z"/><path class="f" d="M139.41,79.05c0,5-2.4,9.05-5.36,9.05s-5.36-4.05-5.36-9.05,2.4-9.06,5.36-9.06,5.36,4.05,5.36,9.06Z"/><path class="e" d="M141.61,148.28s-8.89-6.35-20.31-6.35-20.31,6.35-20.31,6.35c0,0,12.44-3.81,20.31-3.81s20.31,3.81,20.31,3.81Z"/><path class="g" d="M117.77,92.17c-.06,.7-.95,1.19-1.99,1.11-1.04-.08-1.84-.71-1.78-1.41,.06-.69,.95-1.19,1.99-1.11,1.04,.08,1.84,.71,1.79,1.41Z"/><path class="g" d="M125.91,91.81c.08,.69-.7,1.35-1.74,1.46-1.04,.11-1.94-.35-2.02-1.04-.08-.69,.7-1.35,1.74-1.46,1.04-.11,1.94,.35,2.02,1.04Z"/></g></svg>