<?xml version="1.0" encoding="UTF-8"?><svg id="a" xmlns="http://www.w3.org/2000/svg" viewBox="0 0 239.43 239.43"><defs><style>.c{fill:#fff;}</style></defs><rect width="239.43" height="239.43" rx="43" ry="43"/><g><path id="b" class="c" d="M93.18,134.19c-1.05,2.45-2.35,4.79-3.88,6.97-2.03,2.91-3.7,4.91-4.97,6.03-2,1.82-4.12,2.76-6.4,2.82-1.64,0-3.61-.45-5.91-1.43-2.01-.87-4.17-1.35-6.37-1.39-2.25,.04-4.48,.51-6.55,1.39-2.33,.94-4.21,1.43-5.67,1.49-2.18,.09-4.37-.88-6.55-2.91-1.39-1.21-3.12-3.3-5.21-6.25-2.35-3.37-4.2-7.06-5.52-10.95-1.55-4.49-2.33-8.82-2.33-13.04,0-4.82,1.03-8.97,3.12-12.46,1.58-2.73,3.84-5.02,6.55-6.64,2.67-1.61,5.73-2.48,8.85-2.52,1.73,0,4.03,.55,6.85,1.61,2.82,1.06,4.64,1.61,5.43,1.61,.61,0,2.61-.64,6.03-1.88,3.23-1.15,5.96-1.64,8.19-1.46,6.06,.49,10.61,2.88,13.64,7.19-5.43,3.27-8.1,7.88-8.03,13.77,.06,4.61,1.73,8.43,5,11.46,1.46,1.37,3.14,2.48,4.97,3.27-.36,1.15-.79,2.24-1.24,3.3h0Zm-13.89-54.64c0,3.61-1.3,6.97-3.94,10.07-3.15,3.7-7,5.82-11.13,5.49-.06-.45-.09-.91-.09-1.36,0-3.46,1.52-7.16,4.18-10.19,1.42-1.61,3.15-2.91,5.09-3.82,1.81-.93,3.79-1.49,5.82-1.64,.03,.49,.06,.97,.06,1.46Z"/><path class="c" d="M152.39,148.83v-36.86h-.25l-15.01,36.86h-6.33l-15.01-36.86h-.25v36.86h-8.39v-51.94h10.76l15.91,39.63h.29l15.91-39.63h10.72v51.94h-8.35Z"/><path class="c" d="M183.85,106.21h-.22l-13.67,9.38v-8.69l13.82-9.71h9.35v52.9h-9.27v-43.88Z"/></g></svg>