<?xml version="1.0" encoding="utf-8"?>
<!-- Generator: Adobe Illustrator 26.2.1, SVG Export Plug-In . SVG Version: 6.00 Build 0)  -->
<svg version="1.1" id="レイヤー_1" xmlns="http://www.w3.org/2000/svg" xmlns:xlink="http://www.w3.org/1999/xlink" x="0px"
	 y="0px" viewBox="0 0 717 112" style="enable-background:new 0 0 717 112;" xml:space="preserve">
<style type="text/css">
	.st0{fill:#D6D6DE;}
	.st1{font-family:'ArialMT';}
	.st2{font-size:12px;}
	.st3{display:none;fill:#D6D6DE;enable-background:new;}
</style>
<g transform="translate(15, 20)">
	<g transform="translate(0, 0)">
		<path class="st0" d="M16,0h6c1.1,0,2,0.9,2,2v6c0,1.1-0.9,2-2,2h-6c-1.1,0-2-0.9-2-2V2C14,0.9,14.9,0,16,0z"/>
		<path class="st0" d="M16,13h6c1.1,0,2,0.9,2,2v6c0,1.1-0.9,2-2,2h-6c-1.1,0-2-0.9-2-2v-6C14,13.9,14.9,13,16,13z"/>
		<path class="st0" d="M16,26h6c1.1,0,2,0.9,2,2v6c0,1.1-0.9,2-2,2h-6c-1.1,0-2-0.9-2-2v-6C14,26.9,14.9,26,16,26z"/>
		<path class="st0" d="M16,39h6c1.1,0,2,0.9,2,2v6c0,1.1-0.9,2-2,2h-6c-1.1,0-2-0.9-2-2v-6C14,39.9,14.9,39,16,39z"/>
		<path class="st0" d="M16,52h6c1.1,0,2,0.9,2,2v6c0,1.1-0.9,2-2,2h-6c-1.1,0-2-0.9-2-2v-6C14,52.9,14.9,52,16,52z"/>
		<path class="st0" d="M16,65h6c1.1,0,2,0.9,2,2v6c0,1.1-0.9,2-2,2h-6c-1.1,0-2-0.9-2-2v-6C14,65.9,14.9,65,16,65z"/>
		<path class="st0" d="M16,78h6c1.1,0,2,0.9,2,2v6c0,1.1-0.9,2-2,2h-6c-1.1,0-2-0.9-2-2v-6C14,78.9,14.9,78,16,78z"/>
	</g>
	<g transform="translate(14, 0)">
		<path class="st0" d="M15,0h6c1.1,0,2,0.9,2,2v6c0,1.1-0.9,2-2,2h-6c-1.1,0-2-0.9-2-2V2C13,0.9,13.9,0,15,0z"/>
		<path class="st0" d="M15,13h6c1.1,0,2,0.9,2,2v6c0,1.1-0.9,2-2,2h-6c-1.1,0-2-0.9-2-2v-6C13,13.9,13.9,13,15,13z"/>
		<path class="st0" d="M15,26h6c1.1,0,2,0.9,2,2v6c0,1.1-0.9,2-2,2h-6c-1.1,0-2-0.9-2-2v-6C13,26.9,13.9,26,15,26z"/>
		<path class="st0" d="M15,39h6c1.1,0,2,0.9,2,2v6c0,1.1-0.9,2-2,2h-6c-1.1,0-2-0.9-2-2v-6C13,39.9,13.9,39,15,39z"/>
		<path class="st0" d="M15,52h6c1.1,0,2,0.9,2,2v6c0,1.1-0.9,2-2,2h-6c-1.1,0-2-0.9-2-2v-6C13,52.9,13.9,52,15,52z"/>
		<path class="st0" d="M15,65h6c1.1,0,2,0.9,2,2v6c0,1.1-0.9,2-2,2h-6c-1.1,0-2-0.9-2-2v-6C13,65.9,13.9,65,15,65z"/>
		<path class="st0" d="M15,78h6c1.1,0,2,0.9,2,2v6c0,1.1-0.9,2-2,2h-6c-1.1,0-2-0.9-2-2v-6C13,78.9,13.9,78,15,78z"/>
	</g>
	<g transform="translate(28, 0)">
		<path class="st0" d="M14,0h6c1.1,0,2,0.9,2,2v6c0,1.1-0.9,2-2,2h-6c-1.1,0-2-0.9-2-2V2C12,0.9,12.9,0,14,0z"/>
		<path class="st0" d="M14,13h6c1.1,0,2,0.9,2,2v6c0,1.1-0.9,2-2,2h-6c-1.1,0-2-0.9-2-2v-6C12,13.9,12.9,13,14,13z"/>
		<path class="st0" d="M14,26h6c1.1,0,2,0.9,2,2v6c0,1.1-0.9,2-2,2h-6c-1.1,0-2-0.9-2-2v-6C12,26.9,12.9,26,14,26z"/>
		<path class="st0" d="M14,39h6c1.1,0,2,0.9,2,2v6c0,1.1-0.9,2-2,2h-6c-1.1,0-2-0.9-2-2v-6C12,39.9,12.9,39,14,39z"/>
		<path class="st0" d="M14,52h6c1.1,0,2,0.9,2,2v6c0,1.1-0.9,2-2,2h-6c-1.1,0-2-0.9-2-2v-6C12,52.9,12.9,52,14,52z"/>
		<path class="st0" d="M14,65h6c1.1,0,2,0.9,2,2v6c0,1.1-0.9,2-2,2h-6c-1.1,0-2-0.9-2-2v-6C12,65.9,12.9,65,14,65z"/>
		<path class="st0" d="M14,78h6c1.1,0,2,0.9,2,2v6c0,1.1-0.9,2-2,2h-6c-1.1,0-2-0.9-2-2v-6C12,78.9,12.9,78,14,78z"/>
	</g>
	<g transform="translate(42, 0)">
		<path class="st0" d="M13,0h6c1.1,0,2,0.9,2,2v6c0,1.1-0.9,2-2,2h-6c-1.1,0-2-0.9-2-2V2C11,0.9,11.9,0,13,0z"/>
		<path class="st0" d="M13,13h6c1.1,0,2,0.9,2,2v6c0,1.1-0.9,2-2,2h-6c-1.1,0-2-0.9-2-2v-6C11,13.9,11.9,13,13,13z"/>
		<path class="st0" d="M13,26h6c1.1,0,2,0.9,2,2v6c0,1.1-0.9,2-2,2h-6c-1.1,0-2-0.9-2-2v-6C11,26.9,11.9,26,13,26z"/>
		<path class="st0" d="M13,39h6c1.1,0,2,0.9,2,2v6c0,1.1-0.9,2-2,2h-6c-1.1,0-2-0.9-2-2v-6C11,39.9,11.9,39,13,39z"/>
		<path class="st0" d="M13,52h6c1.1,0,2,0.9,2,2v6c0,1.1-0.9,2-2,2h-6c-1.1,0-2-0.9-2-2v-6C11,52.9,11.9,52,13,52z"/>
		<path class="st0" d="M13,65h6c1.1,0,2,0.9,2,2v6c0,1.1-0.9,2-2,2h-6c-1.1,0-2-0.9-2-2v-6C11,65.9,11.9,65,13,65z"/>
		<path class="st0" d="M13,78h6c1.1,0,2,0.9,2,2v6c0,1.1-0.9,2-2,2h-6c-1.1,0-2-0.9-2-2v-6C11,78.9,11.9,78,13,78z"/>
	</g>
	<g transform="translate(56, 0)">
		<path class="st0" d="M12,0h6c1.1,0,2,0.9,2,2v6c0,1.1-0.9,2-2,2h-6c-1.1,0-2-0.9-2-2V2C10,0.9,10.9,0,12,0z"/>
		<path class="st0" d="M12,13h6c1.1,0,2,0.9,2,2v6c0,1.1-0.9,2-2,2h-6c-1.1,0-2-0.9-2-2v-6C10,13.9,10.9,13,12,13z"/>
		<path class="st0" d="M12,26h6c1.1,0,2,0.9,2,2v6c0,1.1-0.9,2-2,2h-6c-1.1,0-2-0.9-2-2v-6C10,26.9,10.9,26,12,26z"/>
		<path class="st0" d="M12,39h6c1.1,0,2,0.9,2,2v6c0,1.1-0.9,2-2,2h-6c-1.1,0-2-0.9-2-2v-6C10,39.9,10.9,39,12,39z"/>
		<path class="st0" d="M12,52h6c1.1,0,2,0.9,2,2v6c0,1.1-0.9,2-2,2h-6c-1.1,0-2-0.9-2-2v-6C10,52.9,10.9,52,12,52z"/>
		<path class="st0" d="M12,65h6c1.1,0,2,0.9,2,2v6c0,1.1-0.9,2-2,2h-6c-1.1,0-2-0.9-2-2v-6C10,65.9,10.9,65,12,65z"/>
		<path class="st0" d="M12,78h6c1.1,0,2,0.9,2,2v6c0,1.1-0.9,2-2,2h-6c-1.1,0-2-0.9-2-2v-6C10,78.9,10.9,78,12,78z"/>
	</g>
	<g transform="translate(70, 0)">
		<path class="st0" d="M11,0h6c1.1,0,2,0.9,2,2v6c0,1.1-0.9,2-2,2h-6c-1.1,0-2-0.9-2-2V2C9,0.9,9.9,0,11,0z"/>
		<path class="st0" d="M11,13h6c1.1,0,2,0.9,2,2v6c0,1.1-0.9,2-2,2h-6c-1.1,0-2-0.9-2-2v-6C9,13.9,9.9,13,11,13z"/>
		<path class="st0" d="M11,26h6c1.1,0,2,0.9,2,2v6c0,1.1-0.9,2-2,2h-6c-1.1,0-2-0.9-2-2v-6C9,26.9,9.9,26,11,26z"/>
		<path class="st0" d="M11,39h6c1.1,0,2,0.9,2,2v6c0,1.1-0.9,2-2,2h-6c-1.1,0-2-0.9-2-2v-6C9,39.9,9.9,39,11,39z"/>
		<path class="st0" d="M11,52h6c1.1,0,2,0.9,2,2v6c0,1.1-0.9,2-2,2h-6c-1.1,0-2-0.9-2-2v-6C9,52.9,9.9,52,11,52z"/>
		<path class="st0" d="M11,65h6c1.1,0,2,0.9,2,2v6c0,1.1-0.9,2-2,2h-6c-1.1,0-2-0.9-2-2v-6C9,65.9,9.9,65,11,65z"/>
		<path class="st0" d="M11,78h6c1.1,0,2,0.9,2,2v6c0,1.1-0.9,2-2,2h-6c-1.1,0-2-0.9-2-2v-6C9,78.9,9.9,78,11,78z"/>
	</g>
	<g transform="translate(84, 0)">
		<path class="st0" d="M10,0h6c1.1,0,2,0.9,2,2v6c0,1.1-0.9,2-2,2h-6c-1.1,0-2-0.9-2-2V2C8,0.9,8.9,0,10,0z"/>
		<path class="st0" d="M10,13h6c1.1,0,2,0.9,2,2v6c0,1.1-0.9,2-2,2h-6c-1.1,0-2-0.9-2-2v-6C8,13.9,8.9,13,10,13z"/>
		<path class="st0" d="M10,26h6c1.1,0,2,0.9,2,2v6c0,1.1-0.9,2-2,2h-6c-1.1,0-2-0.9-2-2v-6C8,26.9,8.9,26,10,26z"/>
		<path class="st0" d="M10,39h6c1.1,0,2,0.9,2,2v6c0,1.1-0.9,2-2,2h-6c-1.1,0-2-0.9-2-2v-6C8,39.9,8.9,39,10,39z"/>
		<path class="st0" d="M10,52h6c1.1,0,2,0.9,2,2v6c0,1.1-0.9,2-2,2h-6c-1.1,0-2-0.9-2-2v-6C8,52.9,8.9,52,10,52z"/>
		<path class="st0" d="M10,65h6c1.1,0,2,0.9,2,2v6c0,1.1-0.9,2-2,2h-6c-1.1,0-2-0.9-2-2v-6C8,65.9,8.9,65,10,65z"/>
		<path class="st0" d="M10,78h6c1.1,0,2,0.9,2,2v6c0,1.1-0.9,2-2,2h-6c-1.1,0-2-0.9-2-2v-6C8,78.9,8.9,78,10,78z"/>
	</g>
	<g transform="translate(98, 0)">
		<path class="st0" d="M9,0h6c1.1,0,2,0.9,2,2v6c0,1.1-0.9,2-2,2H9c-1.1,0-2-0.9-2-2V2C7,0.9,7.9,0,9,0z"/>
		<path class="st0" d="M9,13h6c1.1,0,2,0.9,2,2v6c0,1.1-0.9,2-2,2H9c-1.1,0-2-0.9-2-2v-6C7,13.9,7.9,13,9,13z"/>
		<path class="st0" d="M9,26h6c1.1,0,2,0.9,2,2v6c0,1.1-0.9,2-2,2H9c-1.1,0-2-0.9-2-2v-6C7,26.9,7.9,26,9,26z"/>
		<path class="st0" d="M9,39h6c1.1,0,2,0.9,2,2v6c0,1.1-0.9,2-2,2H9c-1.1,0-2-0.9-2-2v-6C7,39.9,7.9,39,9,39z"/>
		<path class="st0" d="M9,52h6c1.1,0,2,0.9,2,2v6c0,1.1-0.9,2-2,2H9c-1.1,0-2-0.9-2-2v-6C7,52.9,7.9,52,9,52z"/>
		<path class="st0" d="M9,65h6c1.1,0,2,0.9,2,2v6c0,1.1-0.9,2-2,2H9c-1.1,0-2-0.9-2-2v-6C7,65.9,7.9,65,9,65z"/>
		<path class="st0" d="M9,78h6c1.1,0,2,0.9,2,2v6c0,1.1-0.9,2-2,2H9c-1.1,0-2-0.9-2-2v-6C7,78.9,7.9,78,9,78z"/>
	</g>
	<g transform="translate(112, 0)">
		<path class="st0" d="M8,0h6c1.1,0,2,0.9,2,2v6c0,1.1-0.9,2-2,2H8c-1.1,0-2-0.9-2-2V2C6,0.9,6.9,0,8,0z"/>
		<path class="st0" d="M8,13h6c1.1,0,2,0.9,2,2v6c0,1.1-0.9,2-2,2H8c-1.1,0-2-0.9-2-2v-6C6,13.9,6.9,13,8,13z"/>
		<path class="st0" d="M8,26h6c1.1,0,2,0.9,2,2v6c0,1.1-0.9,2-2,2H8c-1.1,0-2-0.9-2-2v-6C6,26.9,6.9,26,8,26z"/>
		<path class="st0" d="M8,39h6c1.1,0,2,0.9,2,2v6c0,1.1-0.9,2-2,2H8c-1.1,0-2-0.9-2-2v-6C6,39.9,6.9,39,8,39z"/>
		<path class="st0" d="M8,52h6c1.1,0,2,0.9,2,2v6c0,1.1-0.9,2-2,2H8c-1.1,0-2-0.9-2-2v-6C6,52.9,6.9,52,8,52z"/>
		<path class="st0" d="M8,65h6c1.1,0,2,0.9,2,2v6c0,1.1-0.9,2-2,2H8c-1.1,0-2-0.9-2-2v-6C6,65.9,6.9,65,8,65z"/>
		<path class="st0" d="M8,78h6c1.1,0,2,0.9,2,2v6c0,1.1-0.9,2-2,2H8c-1.1,0-2-0.9-2-2v-6C6,78.9,6.9,78,8,78z"/>
	</g>
	<g transform="translate(126, 0)">
		<path class="st0" d="M7,0h6c1.1,0,2,0.9,2,2v6c0,1.1-0.9,2-2,2H7c-1.1,0-2-0.9-2-2V2C5,0.9,5.9,0,7,0z"/>
		<path class="st0" d="M7,13h6c1.1,0,2,0.9,2,2v6c0,1.1-0.9,2-2,2H7c-1.1,0-2-0.9-2-2v-6C5,13.9,5.9,13,7,13z"/>
		<path class="st0" d="M7,26h6c1.1,0,2,0.9,2,2v6c0,1.1-0.9,2-2,2H7c-1.1,0-2-0.9-2-2v-6C5,26.9,5.9,26,7,26z"/>
		<path class="st0" d="M7,39h6c1.1,0,2,0.9,2,2v6c0,1.1-0.9,2-2,2H7c-1.1,0-2-0.9-2-2v-6C5,39.9,5.9,39,7,39z"/>
		<path class="st0" d="M7,52h6c1.1,0,2,0.9,2,2v6c0,1.1-0.9,2-2,2H7c-1.1,0-2-0.9-2-2v-6C5,52.9,5.9,52,7,52z"/>
		<path class="st0" d="M7,65h6c1.1,0,2,0.9,2,2v6c0,1.1-0.9,2-2,2H7c-1.1,0-2-0.9-2-2v-6C5,65.9,5.9,65,7,65z"/>
		<path class="st0" d="M7,78h6c1.1,0,2,0.9,2,2v6c0,1.1-0.9,2-2,2H7c-1.1,0-2-0.9-2-2v-6C5,78.9,5.9,78,7,78z"/>
	</g>
	<g transform="translate(140, 0)">
		<path class="st0" d="M6,0h6c1.1,0,2,0.9,2,2v6c0,1.1-0.9,2-2,2H6c-1.1,0-2-0.9-2-2V2C4,0.9,4.9,0,6,0z"/>
		<path class="st0" d="M6,13h6c1.1,0,2,0.9,2,2v6c0,1.1-0.9,2-2,2H6c-1.1,0-2-0.9-2-2v-6C4,13.9,4.9,13,6,13z"/>
		<path class="st0" d="M6,26h6c1.1,0,2,0.9,2,2v6c0,1.1-0.9,2-2,2H6c-1.1,0-2-0.9-2-2v-6C4,26.9,4.9,26,6,26z"/>
		<path class="st0" d="M6,39h6c1.1,0,2,0.9,2,2v6c0,1.1-0.9,2-2,2H6c-1.1,0-2-0.9-2-2v-6C4,39.9,4.9,39,6,39z"/>
		<path class="st0" d="M6,52h6c1.1,0,2,0.9,2,2v6c0,1.1-0.9,2-2,2H6c-1.1,0-2-0.9-2-2v-6C4,52.9,4.9,52,6,52z"/>
		<path class="st0" d="M6,65h6c1.1,0,2,0.9,2,2v6c0,1.1-0.9,2-2,2H6c-1.1,0-2-0.9-2-2v-6C4,65.9,4.9,65,6,65z"/>
		<path class="st0" d="M6,78h6c1.1,0,2,0.9,2,2v6c0,1.1-0.9,2-2,2H6c-1.1,0-2-0.9-2-2v-6C4,78.9,4.9,78,6,78z"/>
	</g>
	<g transform="translate(154, 0)">
		<path class="st0" d="M5,0h6c1.1,0,2,0.9,2,2v6c0,1.1-0.9,2-2,2H5c-1.1,0-2-0.9-2-2V2C3,0.9,3.9,0,5,0z"/>
		<path class="st0" d="M5,13h6c1.1,0,2,0.9,2,2v6c0,1.1-0.9,2-2,2H5c-1.1,0-2-0.9-2-2v-6C3,13.9,3.9,13,5,13z"/>
		<path class="st0" d="M5,26h6c1.1,0,2,0.9,2,2v6c0,1.1-0.9,2-2,2H5c-1.1,0-2-0.9-2-2v-6C3,26.9,3.9,26,5,26z"/>
		<path class="st0" d="M5,39h6c1.1,0,2,0.9,2,2v6c0,1.1-0.9,2-2,2H5c-1.1,0-2-0.9-2-2v-6C3,39.9,3.9,39,5,39z"/>
		<path class="st0" d="M5,52h6c1.1,0,2,0.9,2,2v6c0,1.1-0.9,2-2,2H5c-1.1,0-2-0.9-2-2v-6C3,52.9,3.9,52,5,52z"/>
		<path class="st0" d="M5,65h6c1.1,0,2,0.9,2,2v6c0,1.1-0.9,2-2,2H5c-1.1,0-2-0.9-2-2v-6C3,65.9,3.9,65,5,65z"/>
		<path class="st0" d="M5,78h6c1.1,0,2,0.9,2,2v6c0,1.1-0.9,2-2,2H5c-1.1,0-2-0.9-2-2v-6C3,78.9,3.9,78,5,78z"/>
	</g>
	<g transform="translate(168, 0)">
		<path class="st0" d="M4,0h6c1.1,0,2,0.9,2,2v6c0,1.1-0.9,2-2,2H4c-1.1,0-2-0.9-2-2V2C2,0.9,2.9,0,4,0z"/>
		<path class="st0" d="M4,13h6c1.1,0,2,0.9,2,2v6c0,1.1-0.9,2-2,2H4c-1.1,0-2-0.9-2-2v-6C2,13.9,2.9,13,4,13z"/>
		<path class="st0" d="M4,26h6c1.1,0,2,0.9,2,2v6c0,1.1-0.9,2-2,2H4c-1.1,0-2-0.9-2-2v-6C2,26.9,2.9,26,4,26z"/>
		<path class="st0" d="M4,39h6c1.1,0,2,0.9,2,2v6c0,1.1-0.9,2-2,2H4c-1.1,0-2-0.9-2-2v-6C2,39.9,2.9,39,4,39z"/>
		<path class="st0" d="M4,52h6c1.1,0,2,0.9,2,2v6c0,1.1-0.9,2-2,2H4c-1.1,0-2-0.9-2-2v-6C2,52.9,2.9,52,4,52z"/>
		<path class="st0" d="M4,65h6c1.1,0,2,0.9,2,2v6c0,1.1-0.9,2-2,2H4c-1.1,0-2-0.9-2-2v-6C2,65.9,2.9,65,4,65z"/>
		<path class="st0" d="M4,78h6c1.1,0,2,0.9,2,2v6c0,1.1-0.9,2-2,2H4c-1.1,0-2-0.9-2-2v-6C2,78.9,2.9,78,4,78z"/>
	</g>
	<g transform="translate(182, 0)">
		<path class="st0" d="M3,0h6c1.1,0,2,0.9,2,2v6c0,1.1-0.9,2-2,2H3c-1.1,0-2-0.9-2-2V2C1,0.9,1.9,0,3,0z"/>
		<path class="st0" d="M3,13h6c1.1,0,2,0.9,2,2v6c0,1.1-0.9,2-2,2H3c-1.1,0-2-0.9-2-2v-6C1,13.9,1.9,13,3,13z"/>
		<path class="st0" d="M3,26h6c1.1,0,2,0.9,2,2v6c0,1.1-0.9,2-2,2H3c-1.1,0-2-0.9-2-2v-6C1,26.9,1.9,26,3,26z"/>
		<path class="st0" d="M3,39h6c1.1,0,2,0.9,2,2v6c0,1.1-0.9,2-2,2H3c-1.1,0-2-0.9-2-2v-6C1,39.9,1.9,39,3,39z"/>
		<path class="st0" d="M3,52h6c1.1,0,2,0.9,2,2v6c0,1.1-0.9,2-2,2H3c-1.1,0-2-0.9-2-2v-6C1,52.9,1.9,52,3,52z"/>
		<path class="st0" d="M3,65h6c1.1,0,2,0.9,2,2v6c0,1.1-0.9,2-2,2H3c-1.1,0-2-0.9-2-2v-6C1,65.9,1.9,65,3,65z"/>
		<path class="st0" d="M3,78h6c1.1,0,2,0.9,2,2v6c0,1.1-0.9,2-2,2H3c-1.1,0-2-0.9-2-2v-6C1,78.9,1.9,78,3,78z"/>
	</g>
	<g transform="translate(196, 0)">
		<path class="st0" d="M2,0h6c1.1,0,2,0.9,2,2v6c0,1.1-0.9,2-2,2H2c-1.1,0-2-0.9-2-2V2C0,0.9,0.9,0,2,0z"/>
		<path class="st0" d="M2,13h6c1.1,0,2,0.9,2,2v6c0,1.1-0.9,2-2,2H2c-1.1,0-2-0.9-2-2v-6C0,13.9,0.9,13,2,13z"/>
		<path class="st0" d="M2,26h6c1.1,0,2,0.9,2,2v6c0,1.1-0.9,2-2,2H2c-1.1,0-2-0.9-2-2v-6C0,26.9,0.9,26,2,26z"/>
		<path class="st0" d="M2,39h6c1.1,0,2,0.9,2,2v6c0,1.1-0.9,2-2,2H2c-1.1,0-2-0.9-2-2v-6C0,39.9,0.9,39,2,39z"/>
		<path class="st0" d="M2,52h6c1.1,0,2,0.9,2,2v6c0,1.1-0.9,2-2,2H2c-1.1,0-2-0.9-2-2v-6C0,52.9,0.9,52,2,52z"/>
		<path class="st0" d="M2,65h6c1.1,0,2,0.9,2,2v6c0,1.1-0.9,2-2,2H2c-1.1,0-2-0.9-2-2v-6C0,65.9,0.9,65,2,65z"/>
		<path class="st0" d="M2,78h6c1.1,0,2,0.9,2,2v6c0,1.1-0.9,2-2,2H2c-1.1,0-2-0.9-2-2v-6C0,78.9,0.9,78,2,78z"/>
	</g>
	<g transform="translate(210, 0)">
		<path class="st0" d="M1,0h6c1.1,0,2,0.9,2,2v6c0,1.1-0.9,2-2,2H1c-1.1,0-2-0.9-2-2V2C-1,0.9-0.1,0,1,0z"/>
		<path class="st0" d="M1,13h6c1.1,0,2,0.9,2,2v6c0,1.1-0.9,2-2,2H1c-1.1,0-2-0.9-2-2v-6C-1,13.9-0.1,13,1,13z"/>
		<path class="st0" d="M1,26h6c1.1,0,2,0.9,2,2v6c0,1.1-0.9,2-2,2H1c-1.1,0-2-0.9-2-2v-6C-1,26.9-0.1,26,1,26z"/>
		<path class="st0" d="M1,39h6c1.1,0,2,0.9,2,2v6c0,1.1-0.9,2-2,2H1c-1.1,0-2-0.9-2-2v-6C-1,39.9-0.1,39,1,39z"/>
		<path class="st0" d="M1,52h6c1.1,0,2,0.9,2,2v6c0,1.1-0.9,2-2,2H1c-1.1,0-2-0.9-2-2v-6C-1,52.9-0.1,52,1,52z"/>
		<path class="st0" d="M1,65h6c1.1,0,2,0.9,2,2v6c0,1.1-0.9,2-2,2H1c-1.1,0-2-0.9-2-2v-6C-1,65.9-0.1,65,1,65z"/>
		<path class="st0" d="M1,78h6c1.1,0,2,0.9,2,2v6c0,1.1-0.9,2-2,2H1c-1.1,0-2-0.9-2-2v-6C-1,78.9-0.1,78,1,78z"/>
	</g>
	<g transform="translate(224, 0)">
		<path class="st0" d="M0,0h6c1.1,0,2,0.9,2,2v6c0,1.1-0.9,2-2,2H0c-1.1,0-2-0.9-2-2V2C-2,0.9-1.1,0,0,0z"/>
		<path class="st0" d="M0,13h6c1.1,0,2,0.9,2,2v6c0,1.1-0.9,2-2,2H0c-1.1,0-2-0.9-2-2v-6C-2,13.9-1.1,13,0,13z"/>
		<path class="st0" d="M0,26h6c1.1,0,2,0.9,2,2v6c0,1.1-0.9,2-2,2H0c-1.1,0-2-0.9-2-2v-6C-2,26.9-1.1,26,0,26z"/>
		<path class="st0" d="M0,39h6c1.1,0,2,0.9,2,2v6c0,1.1-0.9,2-2,2H0c-1.1,0-2-0.9-2-2v-6C-2,39.9-1.1,39,0,39z"/>
		<path class="st0" d="M0,52h6c1.1,0,2,0.9,2,2v6c0,1.1-0.9,2-2,2H0c-1.1,0-2-0.9-2-2v-6C-2,52.9-1.1,52,0,52z"/>
		<path class="st0" d="M0,65h6c1.1,0,2,0.9,2,2v6c0,1.1-0.9,2-2,2H0c-1.1,0-2-0.9-2-2v-6C-2,65.9-1.1,65,0,65z"/>
		<path class="st0" d="M0,78h6c1.1,0,2,0.9,2,2v6c0,1.1-0.9,2-2,2H0c-1.1,0-2-0.9-2-2v-6C-2,78.9-1.1,78,0,78z"/>
	</g>
	<g transform="translate(238, 0)">
		<path class="st0" d="M-1,0h6c1.1,0,2,0.9,2,2v6c0,1.1-0.9,2-2,2h-6c-1.1,0-2-0.9-2-2V2C-3,0.9-2.1,0-1,0z"/>
		<path class="st0" d="M-1,13h6c1.1,0,2,0.9,2,2v6c0,1.1-0.9,2-2,2h-6c-1.1,0-2-0.9-2-2v-6C-3,13.9-2.1,13-1,13z"/>
		<path class="st0" d="M-1,26h6c1.1,0,2,0.9,2,2v6c0,1.1-0.9,2-2,2h-6c-1.1,0-2-0.9-2-2v-6C-3,26.9-2.1,26-1,26z"/>
		<path class="st0" d="M-1,39h6c1.1,0,2,0.9,2,2v6c0,1.1-0.9,2-2,2h-6c-1.1,0-2-0.9-2-2v-6C-3,39.9-2.1,39-1,39z"/>
		<path class="st0" d="M-1,52h6c1.1,0,2,0.9,2,2v6c0,1.1-0.9,2-2,2h-6c-1.1,0-2-0.9-2-2v-6C-3,52.9-2.1,52-1,52z"/>
		<path class="st0" d="M-1,65h6c1.1,0,2,0.9,2,2v6c0,1.1-0.9,2-2,2h-6c-1.1,0-2-0.9-2-2v-6C-3,65.9-2.1,65-1,65z"/>
		<path class="st0" d="M-1,78h6c1.1,0,2,0.9,2,2v6c0,1.1-0.9,2-2,2h-6c-1.1,0-2-0.9-2-2v-6C-3,78.9-2.1,78-1,78z"/>
	</g>
	<g transform="translate(252, 0)">
		<path class="st0" d="M-2,0h6c1.1,0,2,0.9,2,2v6c0,1.1-0.9,2-2,2h-6c-1.1,0-2-0.9-2-2V2C-4,0.9-3.1,0-2,0z"/>
		<path class="st0" d="M-2,13h6c1.1,0,2,0.9,2,2v6c0,1.1-0.9,2-2,2h-6c-1.1,0-2-0.9-2-2v-6C-4,13.9-3.1,13-2,13z"/>
		<path class="st0" d="M-2,26h6c1.1,0,2,0.9,2,2v6c0,1.1-0.9,2-2,2h-6c-1.1,0-2-0.9-2-2v-6C-4,26.9-3.1,26-2,26z"/>
		<path class="st0" d="M-2,39h6c1.1,0,2,0.9,2,2v6c0,1.1-0.9,2-2,2h-6c-1.1,0-2-0.9-2-2v-6C-4,39.9-3.1,39-2,39z"/>
		<path class="st0" d="M-2,52h6c1.1,0,2,0.9,2,2v6c0,1.1-0.9,2-2,2h-6c-1.1,0-2-0.9-2-2v-6C-4,52.9-3.1,52-2,52z"/>
		<path class="st0" d="M-2,65h6c1.1,0,2,0.9,2,2v6c0,1.1-0.9,2-2,2h-6c-1.1,0-2-0.9-2-2v-6C-4,65.9-3.1,65-2,65z"/>
		<path class="st0" d="M-2,78h6c1.1,0,2,0.9,2,2v6c0,1.1-0.9,2-2,2h-6c-1.1,0-2-0.9-2-2v-6C-4,78.9-3.1,78-2,78z"/>
	</g>
	<g transform="translate(266, 0)">
		<path class="st0" d="M-3,0h6c1.1,0,2,0.9,2,2v6c0,1.1-0.9,2-2,2h-6c-1.1,0-2-0.9-2-2V2C-5,0.9-4.1,0-3,0z"/>
		<path class="st0" d="M-3,13h6c1.1,0,2,0.9,2,2v6c0,1.1-0.9,2-2,2h-6c-1.1,0-2-0.9-2-2v-6C-5,13.9-4.1,13-3,13z"/>
		<path class="st0" d="M-3,26h6c1.1,0,2,0.9,2,2v6c0,1.1-0.9,2-2,2h-6c-1.1,0-2-0.9-2-2v-6C-5,26.9-4.1,26-3,26z"/>
		<path class="st0" d="M-3,39h6c1.1,0,2,0.9,2,2v6c0,1.1-0.9,2-2,2h-6c-1.1,0-2-0.9-2-2v-6C-5,39.9-4.1,39-3,39z"/>
		<path class="st0" d="M-3,52h6c1.1,0,2,0.9,2,2v6c0,1.1-0.9,2-2,2h-6c-1.1,0-2-0.9-2-2v-6C-5,52.9-4.1,52-3,52z"/>
		<path class="st0" d="M-3,65h6c1.1,0,2,0.9,2,2v6c0,1.1-0.9,2-2,2h-6c-1.1,0-2-0.9-2-2v-6C-5,65.9-4.1,65-3,65z"/>
		<path class="st0" d="M-3,78h6c1.1,0,2,0.9,2,2v6c0,1.1-0.9,2-2,2h-6c-1.1,0-2-0.9-2-2v-6C-5,78.9-4.1,78-3,78z"/>
	</g>
	<g transform="translate(280, 0)">
		<path class="st0" d="M-4,0h6c1.1,0,2,0.9,2,2v6c0,1.1-0.9,2-2,2h-6c-1.1,0-2-0.9-2-2V2C-6,0.9-5.1,0-4,0z"/>
		<path class="st0" d="M-4,13h6c1.1,0,2,0.9,2,2v6c0,1.1-0.9,2-2,2h-6c-1.1,0-2-0.9-2-2v-6C-6,13.9-5.1,13-4,13z"/>
		<path class="st0" d="M-4,26h6c1.1,0,2,0.9,2,2v6c0,1.1-0.9,2-2,2h-6c-1.1,0-2-0.9-2-2v-6C-6,26.9-5.1,26-4,26z"/>
		<path class="st0" d="M-4,39h6c1.1,0,2,0.9,2,2v6c0,1.1-0.9,2-2,2h-6c-1.1,0-2-0.9-2-2v-6C-6,39.9-5.1,39-4,39z"/>
		<path class="st0" d="M-4,52h6c1.1,0,2,0.9,2,2v6c0,1.1-0.9,2-2,2h-6c-1.1,0-2-0.9-2-2v-6C-6,52.9-5.1,52-4,52z"/>
		<path class="st0" d="M-4,65h6c1.1,0,2,0.9,2,2v6c0,1.1-0.9,2-2,2h-6c-1.1,0-2-0.9-2-2v-6C-6,65.9-5.1,65-4,65z"/>
		<path class="st0" d="M-4,78h6c1.1,0,2,0.9,2,2v6c0,1.1-0.9,2-2,2h-6c-1.1,0-2-0.9-2-2v-6C-6,78.9-5.1,78-4,78z"/>
	</g>
	<g transform="translate(294, 0)">
		<path class="st0" d="M-5,0h6c1.1,0,2,0.9,2,2v6c0,1.1-0.9,2-2,2h-6c-1.1,0-2-0.9-2-2V2C-7,0.9-6.1,0-5,0z"/>
		<path class="st0" d="M-5,13h6c1.1,0,2,0.9,2,2v6c0,1.1-0.9,2-2,2h-6c-1.1,0-2-0.9-2-2v-6C-7,13.9-6.1,13-5,13z"/>
		<path class="st0" d="M-5,26h6c1.1,0,2,0.9,2,2v6c0,1.1-0.9,2-2,2h-6c-1.1,0-2-0.9-2-2v-6C-7,26.9-6.1,26-5,26z"/>
		<path class="st0" d="M-5,39h6c1.1,0,2,0.9,2,2v6c0,1.1-0.9,2-2,2h-6c-1.1,0-2-0.9-2-2v-6C-7,39.9-6.1,39-5,39z"/>
		<path class="st0" d="M-5,52h6c1.1,0,2,0.9,2,2v6c0,1.1-0.9,2-2,2h-6c-1.1,0-2-0.9-2-2v-6C-7,52.9-6.1,52-5,52z"/>
		<path class="st0" d="M-5,65h6c1.1,0,2,0.9,2,2v6c0,1.1-0.9,2-2,2h-6c-1.1,0-2-0.9-2-2v-6C-7,65.9-6.1,65-5,65z"/>
		<path class="st0" d="M-5,78h6c1.1,0,2,0.9,2,2v6c0,1.1-0.9,2-2,2h-6c-1.1,0-2-0.9-2-2v-6C-7,78.9-6.1,78-5,78z"/>
	</g>
	<g transform="translate(308, 0)">
		<path class="st0" d="M-6,0h6c1.1,0,2,0.9,2,2v6c0,1.1-0.9,2-2,2h-6c-1.1,0-2-0.9-2-2V2C-8,0.9-7.1,0-6,0z"/>
		<path class="st0" d="M-6,13h6c1.1,0,2,0.9,2,2v6c0,1.1-0.9,2-2,2h-6c-1.1,0-2-0.9-2-2v-6C-8,13.9-7.1,13-6,13z"/>
		<path class="st0" d="M-6,26h6c1.1,0,2,0.9,2,2v6c0,1.1-0.9,2-2,2h-6c-1.1,0-2-0.9-2-2v-6C-8,26.9-7.1,26-6,26z"/>
		<path class="st0" d="M-6,39h6c1.1,0,2,0.9,2,2v6c0,1.1-0.9,2-2,2h-6c-1.1,0-2-0.9-2-2v-6C-8,39.9-7.1,39-6,39z"/>
		<path class="st0" d="M-6,52h6c1.1,0,2,0.9,2,2v6c0,1.1-0.9,2-2,2h-6c-1.1,0-2-0.9-2-2v-6C-8,52.9-7.1,52-6,52z"/>
		<path class="st0" d="M-6,65h6c1.1,0,2,0.9,2,2v6c0,1.1-0.9,2-2,2h-6c-1.1,0-2-0.9-2-2v-6C-8,65.9-7.1,65-6,65z"/>
		<path class="st0" d="M-6,78h6c1.1,0,2,0.9,2,2v6c0,1.1-0.9,2-2,2h-6c-1.1,0-2-0.9-2-2v-6C-8,78.9-7.1,78-6,78z"/>
	</g>
	<g transform="translate(322, 0)">
		<path class="st0" d="M-7,0h6c1.1,0,2,0.9,2,2v6c0,1.1-0.9,2-2,2h-6c-1.1,0-2-0.9-2-2V2C-9,0.9-8.1,0-7,0z"/>
		<path class="st0" d="M-7,13h6c1.1,0,2,0.9,2,2v6c0,1.1-0.9,2-2,2h-6c-1.1,0-2-0.9-2-2v-6C-9,13.9-8.1,13-7,13z"/>
		<path class="st0" d="M-7,26h6c1.1,0,2,0.9,2,2v6c0,1.1-0.9,2-2,2h-6c-1.1,0-2-0.9-2-2v-6C-9,26.9-8.1,26-7,26z"/>
		<path class="st0" d="M-7,39h6c1.1,0,2,0.9,2,2v6c0,1.1-0.9,2-2,2h-6c-1.1,0-2-0.9-2-2v-6C-9,39.9-8.1,39-7,39z"/>
		<path class="st0" d="M-7,52h6c1.1,0,2,0.9,2,2v6c0,1.1-0.9,2-2,2h-6c-1.1,0-2-0.9-2-2v-6C-9,52.9-8.1,52-7,52z"/>
		<path class="st0" d="M-7,65h6c1.1,0,2,0.9,2,2v6c0,1.1-0.9,2-2,2h-6c-1.1,0-2-0.9-2-2v-6C-9,65.9-8.1,65-7,65z"/>
		<path class="st0" d="M-7,78h6c1.1,0,2,0.9,2,2v6c0,1.1-0.9,2-2,2h-6c-1.1,0-2-0.9-2-2v-6C-9,78.9-8.1,78-7,78z"/>
	</g>
	<g transform="translate(336, 0)">
		<path class="st0" d="M-8,0h6c1.1,0,2,0.9,2,2v6c0,1.1-0.9,2-2,2h-6c-1.1,0-2-0.9-2-2V2C-10,0.9-9.1,0-8,0z"/>
		<path class="st0" d="M-8,13h6c1.1,0,2,0.9,2,2v6c0,1.1-0.9,2-2,2h-6c-1.1,0-2-0.9-2-2v-6C-10,13.9-9.1,13-8,13z"/>
		<path class="st0" d="M-8,26h6c1.1,0,2,0.9,2,2v6c0,1.1-0.9,2-2,2h-6c-1.1,0-2-0.9-2-2v-6C-10,26.9-9.1,26-8,26z"/>
		<path class="st0" d="M-8,39h6c1.1,0,2,0.9,2,2v6c0,1.1-0.9,2-2,2h-6c-1.1,0-2-0.9-2-2v-6C-10,39.9-9.1,39-8,39z"/>
		<path class="st0" d="M-8,52h6c1.1,0,2,0.9,2,2v6c0,1.1-0.9,2-2,2h-6c-1.1,0-2-0.9-2-2v-6C-10,52.9-9.1,52-8,52z"/>
		<path class="st0" d="M-8,65h6c1.1,0,2,0.9,2,2v6c0,1.1-0.9,2-2,2h-6c-1.1,0-2-0.9-2-2v-6C-10,65.9-9.1,65-8,65z"/>
		<path class="st0" d="M-8,78h6c1.1,0,2,0.9,2,2v6c0,1.1-0.9,2-2,2h-6c-1.1,0-2-0.9-2-2v-6C-10,78.9-9.1,78-8,78z"/>
	</g>
	<g transform="translate(350, 0)">
		<path class="st0" d="M-9,0h6c1.1,0,2,0.9,2,2v6c0,1.1-0.9,2-2,2h-6c-1.1,0-2-0.9-2-2V2C-11,0.9-10.1,0-9,0z"/>
		<path class="st0" d="M-9,13h6c1.1,0,2,0.9,2,2v6c0,1.1-0.9,2-2,2h-6c-1.1,0-2-0.9-2-2v-6C-11,13.9-10.1,13-9,13z"/>
		<path class="st0" d="M-9,26h6c1.1,0,2,0.9,2,2v6c0,1.1-0.9,2-2,2h-6c-1.1,0-2-0.9-2-2v-6C-11,26.9-10.1,26-9,26z"/>
		<path class="st0" d="M-9,39h6c1.1,0,2,0.9,2,2v6c0,1.1-0.9,2-2,2h-6c-1.1,0-2-0.9-2-2v-6C-11,39.9-10.1,39-9,39z"/>
		<path class="st0" d="M-9,52h6c1.1,0,2,0.9,2,2v6c0,1.1-0.9,2-2,2h-6c-1.1,0-2-0.9-2-2v-6C-11,52.9-10.1,52-9,52z"/>
		<path class="st0" d="M-9,65h6c1.1,0,2,0.9,2,2v6c0,1.1-0.9,2-2,2h-6c-1.1,0-2-0.9-2-2v-6C-11,65.9-10.1,65-9,65z"/>
		<path class="st0" d="M-9,78h6c1.1,0,2,0.9,2,2v6c0,1.1-0.9,2-2,2h-6c-1.1,0-2-0.9-2-2v-6C-11,78.9-10.1,78-9,78z"/>
	</g>
	<g transform="translate(364, 0)">
		<path class="st0" d="M-10,0h6c1.1,0,2,0.9,2,2v6c0,1.1-0.9,2-2,2h-6c-1.1,0-2-0.9-2-2V2C-12,0.9-11.1,0-10,0z"/>
		<path class="st0" d="M-10,13h6c1.1,0,2,0.9,2,2v6c0,1.1-0.9,2-2,2h-6c-1.1,0-2-0.9-2-2v-6C-12,13.9-11.1,13-10,13z"/>
		<path class="st0" d="M-10,26h6c1.1,0,2,0.9,2,2v6c0,1.1-0.9,2-2,2h-6c-1.1,0-2-0.9-2-2v-6C-12,26.9-11.1,26-10,26z"/>
		<path class="st0" d="M-10,39h6c1.1,0,2,0.9,2,2v6c0,1.1-0.9,2-2,2h-6c-1.1,0-2-0.9-2-2v-6C-12,39.9-11.1,39-10,39z"/>
		<path class="st0" d="M-10,52h6c1.1,0,2,0.9,2,2v6c0,1.1-0.9,2-2,2h-6c-1.1,0-2-0.9-2-2v-6C-12,52.9-11.1,52-10,52z"/>
		<path class="st0" d="M-10,65h6c1.1,0,2,0.9,2,2v6c0,1.1-0.9,2-2,2h-6c-1.1,0-2-0.9-2-2v-6C-12,65.9-11.1,65-10,65z"/>
		<path class="st0" d="M-10,78h6c1.1,0,2,0.9,2,2v6c0,1.1-0.9,2-2,2h-6c-1.1,0-2-0.9-2-2v-6C-12,78.9-11.1,78-10,78z"/>
	</g>
	<g transform="translate(378, 0)">
		<path class="st0" d="M-11,0h6c1.1,0,2,0.9,2,2v6c0,1.1-0.9,2-2,2h-6c-1.1,0-2-0.9-2-2V2C-13,0.9-12.1,0-11,0z"/>
		<path class="st0" d="M-11,13h6c1.1,0,2,0.9,2,2v6c0,1.1-0.9,2-2,2h-6c-1.1,0-2-0.9-2-2v-6C-13,13.9-12.1,13-11,13z"/>
		<path class="st0" d="M-11,26h6c1.1,0,2,0.9,2,2v6c0,1.1-0.9,2-2,2h-6c-1.1,0-2-0.9-2-2v-6C-13,26.9-12.1,26-11,26z"/>
		<path class="st0" d="M-11,39h6c1.1,0,2,0.9,2,2v6c0,1.1-0.9,2-2,2h-6c-1.1,0-2-0.9-2-2v-6C-13,39.9-12.1,39-11,39z"/>
		<path class="st0" d="M-11,52h6c1.1,0,2,0.9,2,2v6c0,1.1-0.9,2-2,2h-6c-1.1,0-2-0.9-2-2v-6C-13,52.9-12.1,52-11,52z"/>
		<path class="st0" d="M-11,65h6c1.1,0,2,0.9,2,2v6c0,1.1-0.9,2-2,2h-6c-1.1,0-2-0.9-2-2v-6C-13,65.9-12.1,65-11,65z"/>
		<path class="st0" d="M-11,78h6c1.1,0,2,0.9,2,2v6c0,1.1-0.9,2-2,2h-6c-1.1,0-2-0.9-2-2v-6C-13,78.9-12.1,78-11,78z"/>
	</g>
	<g transform="translate(392, 0)">
		<path class="st0" d="M-12,0h6c1.1,0,2,0.9,2,2v6c0,1.1-0.9,2-2,2h-6c-1.1,0-2-0.9-2-2V2C-14,0.9-13.1,0-12,0z"/>
		<path class="st0" d="M-12,13h6c1.1,0,2,0.9,2,2v6c0,1.1-0.9,2-2,2h-6c-1.1,0-2-0.9-2-2v-6C-14,13.9-13.1,13-12,13z"/>
		<path class="st0" d="M-12,26h6c1.1,0,2,0.9,2,2v6c0,1.1-0.9,2-2,2h-6c-1.1,0-2-0.9-2-2v-6C-14,26.9-13.1,26-12,26z"/>
		<path class="st0" d="M-12,39h6c1.1,0,2,0.9,2,2v6c0,1.1-0.9,2-2,2h-6c-1.1,0-2-0.9-2-2v-6C-14,39.9-13.1,39-12,39z"/>
		<path class="st0" d="M-12,52h6c1.1,0,2,0.9,2,2v6c0,1.1-0.9,2-2,2h-6c-1.1,0-2-0.9-2-2v-6C-14,52.9-13.1,52-12,52z"/>
		<path class="st0" d="M-12,65h6c1.1,0,2,0.9,2,2v6c0,1.1-0.9,2-2,2h-6c-1.1,0-2-0.9-2-2v-6C-14,65.9-13.1,65-12,65z"/>
		<path class="st0" d="M-12,78h6c1.1,0,2,0.9,2,2v6c0,1.1-0.9,2-2,2h-6c-1.1,0-2-0.9-2-2v-6C-14,78.9-13.1,78-12,78z"/>
	</g>
	<g transform="translate(406, 0)">
		<path class="st0" d="M-13,0h6c1.1,0,2,0.9,2,2v6c0,1.1-0.9,2-2,2h-6c-1.1,0-2-0.9-2-2V2C-15,0.9-14.1,0-13,0z"/>
		<path class="st0" d="M-13,13h6c1.1,0,2,0.9,2,2v6c0,1.1-0.9,2-2,2h-6c-1.1,0-2-0.9-2-2v-6C-15,13.9-14.1,13-13,13z"/>
		<path class="st0" d="M-13,26h6c1.1,0,2,0.9,2,2v6c0,1.1-0.9,2-2,2h-6c-1.1,0-2-0.9-2-2v-6C-15,26.9-14.1,26-13,26z"/>
		<path class="st0" d="M-13,39h6c1.1,0,2,0.9,2,2v6c0,1.1-0.9,2-2,2h-6c-1.1,0-2-0.9-2-2v-6C-15,39.9-14.1,39-13,39z"/>
		<path class="st0" d="M-13,52h6c1.1,0,2,0.9,2,2v6c0,1.1-0.9,2-2,2h-6c-1.1,0-2-0.9-2-2v-6C-15,52.9-14.1,52-13,52z"/>
		<path class="st0" d="M-13,65h6c1.1,0,2,0.9,2,2v6c0,1.1-0.9,2-2,2h-6c-1.1,0-2-0.9-2-2v-6C-15,65.9-14.1,65-13,65z"/>
		<path class="st0" d="M-13,78h6c1.1,0,2,0.9,2,2v6c0,1.1-0.9,2-2,2h-6c-1.1,0-2-0.9-2-2v-6C-15,78.9-14.1,78-13,78z"/>
	</g>
	<g transform="translate(420, 0)">
		<path class="st0" d="M-14,0h6c1.1,0,2,0.9,2,2v6c0,1.1-0.9,2-2,2h-6c-1.1,0-2-0.9-2-2V2C-16,0.9-15.1,0-14,0z"/>
		<path class="st0" d="M-14,13h6c1.1,0,2,0.9,2,2v6c0,1.1-0.9,2-2,2h-6c-1.1,0-2-0.9-2-2v-6C-16,13.9-15.1,13-14,13z"/>
		<path class="st0" d="M-14,26h6c1.1,0,2,0.9,2,2v6c0,1.1-0.9,2-2,2h-6c-1.1,0-2-0.9-2-2v-6C-16,26.9-15.1,26-14,26z"/>
		<path class="st0" d="M-14,39h6c1.1,0,2,0.9,2,2v6c0,1.1-0.9,2-2,2h-6c-1.1,0-2-0.9-2-2v-6C-16,39.9-15.1,39-14,39z"/>
		<path class="st0" d="M-14,52h6c1.1,0,2,0.9,2,2v6c0,1.1-0.9,2-2,2h-6c-1.1,0-2-0.9-2-2v-6C-16,52.9-15.1,52-14,52z"/>
		<path class="st0" d="M-14,65h6c1.1,0,2,0.9,2,2v6c0,1.1-0.9,2-2,2h-6c-1.1,0-2-0.9-2-2v-6C-16,65.9-15.1,65-14,65z"/>
		<path class="st0" d="M-14,78h6c1.1,0,2,0.9,2,2v6c0,1.1-0.9,2-2,2h-6c-1.1,0-2-0.9-2-2v-6C-16,78.9-15.1,78-14,78z"/>
	</g>
	<g transform="translate(434, 0)">
		<path class="st0" d="M-15,0h6c1.1,0,2,0.9,2,2v6c0,1.1-0.9,2-2,2h-6c-1.1,0-2-0.9-2-2V2C-17,0.9-16.1,0-15,0z"/>
		<path class="st0" d="M-15,13h6c1.1,0,2,0.9,2,2v6c0,1.1-0.9,2-2,2h-6c-1.1,0-2-0.9-2-2v-6C-17,13.9-16.1,13-15,13z"/>
		<path class="st0" d="M-15,26h6c1.1,0,2,0.9,2,2v6c0,1.1-0.9,2-2,2h-6c-1.1,0-2-0.9-2-2v-6C-17,26.9-16.1,26-15,26z"/>
		<path class="st0" d="M-15,39h6c1.1,0,2,0.9,2,2v6c0,1.1-0.9,2-2,2h-6c-1.1,0-2-0.9-2-2v-6C-17,39.9-16.1,39-15,39z"/>
		<path class="st0" d="M-15,52h6c1.1,0,2,0.9,2,2v6c0,1.1-0.9,2-2,2h-6c-1.1,0-2-0.9-2-2v-6C-17,52.9-16.1,52-15,52z"/>
		<path class="st0" d="M-15,65h6c1.1,0,2,0.9,2,2v6c0,1.1-0.9,2-2,2h-6c-1.1,0-2-0.9-2-2v-6C-17,65.9-16.1,65-15,65z"/>
		<path class="st0" d="M-15,78h6c1.1,0,2,0.9,2,2v6c0,1.1-0.9,2-2,2h-6c-1.1,0-2-0.9-2-2v-6C-17,78.9-16.1,78-15,78z"/>
	</g>
	<g transform="translate(448, 0)">
		<path class="st0" d="M-16,0h6c1.1,0,2,0.9,2,2v6c0,1.1-0.9,2-2,2h-6c-1.1,0-2-0.9-2-2V2C-18,0.9-17.1,0-16,0z"/>
		<path class="st0" d="M-16,13h6c1.1,0,2,0.9,2,2v6c0,1.1-0.9,2-2,2h-6c-1.1,0-2-0.9-2-2v-6C-18,13.9-17.1,13-16,13z"/>
		<path class="st0" d="M-16,26h6c1.1,0,2,0.9,2,2v6c0,1.1-0.9,2-2,2h-6c-1.1,0-2-0.9-2-2v-6C-18,26.9-17.1,26-16,26z"/>
		<path class="st0" d="M-16,39h6c1.1,0,2,0.9,2,2v6c0,1.1-0.9,2-2,2h-6c-1.1,0-2-0.9-2-2v-6C-18,39.9-17.1,39-16,39z"/>
		<path class="st0" d="M-16,52h6c1.1,0,2,0.9,2,2v6c0,1.1-0.9,2-2,2h-6c-1.1,0-2-0.9-2-2v-6C-18,52.9-17.1,52-16,52z"/>
		<path class="st0" d="M-16,65h6c1.1,0,2,0.9,2,2v6c0,1.1-0.9,2-2,2h-6c-1.1,0-2-0.9-2-2v-6C-18,65.9-17.1,65-16,65z"/>
		<path class="st0" d="M-16,78h6c1.1,0,2,0.9,2,2v6c0,1.1-0.9,2-2,2h-6c-1.1,0-2-0.9-2-2v-6C-18,78.9-17.1,78-16,78z"/>
	</g>
	<g transform="translate(462, 0)">
		<path class="st0" d="M-17,0h6c1.1,0,2,0.9,2,2v6c0,1.1-0.9,2-2,2h-6c-1.1,0-2-0.9-2-2V2C-19,0.9-18.1,0-17,0z"/>
		<path class="st0" d="M-17,13h6c1.1,0,2,0.9,2,2v6c0,1.1-0.9,2-2,2h-6c-1.1,0-2-0.9-2-2v-6C-19,13.9-18.1,13-17,13z"/>
		<path class="st0" d="M-17,26h6c1.1,0,2,0.9,2,2v6c0,1.1-0.9,2-2,2h-6c-1.1,0-2-0.9-2-2v-6C-19,26.9-18.1,26-17,26z"/>
		<path class="st0" d="M-17,39h6c1.1,0,2,0.9,2,2v6c0,1.1-0.9,2-2,2h-6c-1.1,0-2-0.9-2-2v-6C-19,39.9-18.1,39-17,39z"/>
		<path class="st0" d="M-17,52h6c1.1,0,2,0.9,2,2v6c0,1.1-0.9,2-2,2h-6c-1.1,0-2-0.9-2-2v-6C-19,52.9-18.1,52-17,52z"/>
		<path class="st0" d="M-17,65h6c1.1,0,2,0.9,2,2v6c0,1.1-0.9,2-2,2h-6c-1.1,0-2-0.9-2-2v-6C-19,65.9-18.1,65-17,65z"/>
		<path class="st0" d="M-17,78h6c1.1,0,2,0.9,2,2v6c0,1.1-0.9,2-2,2h-6c-1.1,0-2-0.9-2-2v-6C-19,78.9-18.1,78-17,78z"/>
	</g>
	<g transform="translate(476, 0)">
		<path class="st0" d="M-18,0h6c1.1,0,2,0.9,2,2v6c0,1.1-0.9,2-2,2h-6c-1.1,0-2-0.9-2-2V2C-20,0.9-19.1,0-18,0z"/>
		<path class="st0" d="M-18,13h6c1.1,0,2,0.9,2,2v6c0,1.1-0.9,2-2,2h-6c-1.1,0-2-0.9-2-2v-6C-20,13.9-19.1,13-18,13z"/>
		<path class="st0" d="M-18,26h6c1.1,0,2,0.9,2,2v6c0,1.1-0.9,2-2,2h-6c-1.1,0-2-0.9-2-2v-6C-20,26.9-19.1,26-18,26z"/>
		<path class="st0" d="M-18,39h6c1.1,0,2,0.9,2,2v6c0,1.1-0.9,2-2,2h-6c-1.1,0-2-0.9-2-2v-6C-20,39.9-19.1,39-18,39z"/>
		<path class="st0" d="M-18,52h6c1.1,0,2,0.9,2,2v6c0,1.1-0.9,2-2,2h-6c-1.1,0-2-0.9-2-2v-6C-20,52.9-19.1,52-18,52z"/>
		<path class="st0" d="M-18,65h6c1.1,0,2,0.9,2,2v6c0,1.1-0.9,2-2,2h-6c-1.1,0-2-0.9-2-2v-6C-20,65.9-19.1,65-18,65z"/>
		<path class="st0" d="M-18,78h6c1.1,0,2,0.9,2,2v6c0,1.1-0.9,2-2,2h-6c-1.1,0-2-0.9-2-2v-6C-20,78.9-19.1,78-18,78z"/>
	</g>
	<g transform="translate(490, 0)">
		<path class="st0" d="M-19,0h6c1.1,0,2,0.9,2,2v6c0,1.1-0.9,2-2,2h-6c-1.1,0-2-0.9-2-2V2C-21,0.9-20.1,0-19,0z"/>
		<path class="st0" d="M-19,13h6c1.1,0,2,0.9,2,2v6c0,1.1-0.9,2-2,2h-6c-1.1,0-2-0.9-2-2v-6C-21,13.9-20.1,13-19,13z"/>
		<path class="st0" d="M-19,26h6c1.1,0,2,0.9,2,2v6c0,1.1-0.9,2-2,2h-6c-1.1,0-2-0.9-2-2v-6C-21,26.9-20.1,26-19,26z"/>
		<path class="st0" d="M-19,39h6c1.1,0,2,0.9,2,2v6c0,1.1-0.9,2-2,2h-6c-1.1,0-2-0.9-2-2v-6C-21,39.9-20.1,39-19,39z"/>
		<path class="st0" d="M-19,52h6c1.1,0,2,0.9,2,2v6c0,1.1-0.9,2-2,2h-6c-1.1,0-2-0.9-2-2v-6C-21,52.9-20.1,52-19,52z"/>
		<path class="st0" d="M-19,65h6c1.1,0,2,0.9,2,2v6c0,1.1-0.9,2-2,2h-6c-1.1,0-2-0.9-2-2v-6C-21,65.9-20.1,65-19,65z"/>
		<path class="st0" d="M-19,78h6c1.1,0,2,0.9,2,2v6c0,1.1-0.9,2-2,2h-6c-1.1,0-2-0.9-2-2v-6C-21,78.9-20.1,78-19,78z"/>
	</g>
	<g transform="translate(504, 0)">
		<path class="st0" d="M-20,0h6c1.1,0,2,0.9,2,2v6c0,1.1-0.9,2-2,2h-6c-1.1,0-2-0.9-2-2V2C-22,0.9-21.1,0-20,0z"/>
		<path class="st0" d="M-20,13h6c1.1,0,2,0.9,2,2v6c0,1.1-0.9,2-2,2h-6c-1.1,0-2-0.9-2-2v-6C-22,13.9-21.1,13-20,13z"/>
		<path class="st0" d="M-20,26h6c1.1,0,2,0.9,2,2v6c0,1.1-0.9,2-2,2h-6c-1.1,0-2-0.9-2-2v-6C-22,26.9-21.1,26-20,26z"/>
		<path class="st0" d="M-20,39h6c1.1,0,2,0.9,2,2v6c0,1.1-0.9,2-2,2h-6c-1.1,0-2-0.9-2-2v-6C-22,39.9-21.1,39-20,39z"/>
		<path class="st0" d="M-20,52h6c1.1,0,2,0.9,2,2v6c0,1.1-0.9,2-2,2h-6c-1.1,0-2-0.9-2-2v-6C-22,52.9-21.1,52-20,52z"/>
		<path class="st0" d="M-20,65h6c1.1,0,2,0.9,2,2v6c0,1.1-0.9,2-2,2h-6c-1.1,0-2-0.9-2-2v-6C-22,65.9-21.1,65-20,65z"/>
		<path class="st0" d="M-20,78h6c1.1,0,2,0.9,2,2v6c0,1.1-0.9,2-2,2h-6c-1.1,0-2-0.9-2-2v-6C-22,78.9-21.1,78-20,78z"/>
	</g>
	<g transform="translate(518, 0)">
		<path class="st0" d="M-21,0h6c1.1,0,2,0.9,2,2v6c0,1.1-0.9,2-2,2h-6c-1.1,0-2-0.9-2-2V2C-23,0.9-22.1,0-21,0z"/>
		<path class="st0" d="M-21,13h6c1.1,0,2,0.9,2,2v6c0,1.1-0.9,2-2,2h-6c-1.1,0-2-0.9-2-2v-6C-23,13.9-22.1,13-21,13z"/>
		<path class="st0" d="M-21,26h6c1.1,0,2,0.9,2,2v6c0,1.1-0.9,2-2,2h-6c-1.1,0-2-0.9-2-2v-6C-23,26.9-22.1,26-21,26z"/>
		<path class="st0" d="M-21,39h6c1.1,0,2,0.9,2,2v6c0,1.1-0.9,2-2,2h-6c-1.1,0-2-0.9-2-2v-6C-23,39.9-22.1,39-21,39z"/>
		<path class="st0" d="M-21,52h6c1.1,0,2,0.9,2,2v6c0,1.1-0.9,2-2,2h-6c-1.1,0-2-0.9-2-2v-6C-23,52.9-22.1,52-21,52z"/>
		<path class="st0" d="M-21,65h6c1.1,0,2,0.9,2,2v6c0,1.1-0.9,2-2,2h-6c-1.1,0-2-0.9-2-2v-6C-23,65.9-22.1,65-21,65z"/>
		<path class="st0" d="M-21,78h6c1.1,0,2,0.9,2,2v6c0,1.1-0.9,2-2,2h-6c-1.1,0-2-0.9-2-2v-6C-23,78.9-22.1,78-21,78z"/>
	</g>
	<g transform="translate(532, 0)">
		<path class="st0" d="M-22,0h6c1.1,0,2,0.9,2,2v6c0,1.1-0.9,2-2,2h-6c-1.1,0-2-0.9-2-2V2C-24,0.9-23.1,0-22,0z"/>
		<path class="st0" d="M-22,13h6c1.1,0,2,0.9,2,2v6c0,1.1-0.9,2-2,2h-6c-1.1,0-2-0.9-2-2v-6C-24,13.9-23.1,13-22,13z"/>
		<path class="st0" d="M-22,26h6c1.1,0,2,0.9,2,2v6c0,1.1-0.9,2-2,2h-6c-1.1,0-2-0.9-2-2v-6C-24,26.9-23.1,26-22,26z"/>
		<path class="st0" d="M-22,39h6c1.1,0,2,0.9,2,2v6c0,1.1-0.9,2-2,2h-6c-1.1,0-2-0.9-2-2v-6C-24,39.9-23.1,39-22,39z"/>
		<path class="st0" d="M-22,52h6c1.1,0,2,0.9,2,2v6c0,1.1-0.9,2-2,2h-6c-1.1,0-2-0.9-2-2v-6C-24,52.9-23.1,52-22,52z"/>
		<path class="st0" d="M-22,65h6c1.1,0,2,0.9,2,2v6c0,1.1-0.9,2-2,2h-6c-1.1,0-2-0.9-2-2v-6C-24,65.9-23.1,65-22,65z"/>
		<path class="st0" d="M-22,78h6c1.1,0,2,0.9,2,2v6c0,1.1-0.9,2-2,2h-6c-1.1,0-2-0.9-2-2v-6C-24,78.9-23.1,78-22,78z"/>
	</g>
	<g transform="translate(546, 0)">
		<path class="st0" d="M-23,0h6c1.1,0,2,0.9,2,2v6c0,1.1-0.9,2-2,2h-6c-1.1,0-2-0.9-2-2V2C-25,0.9-24.1,0-23,0z"/>
		<path class="st0" d="M-23,13h6c1.1,0,2,0.9,2,2v6c0,1.1-0.9,2-2,2h-6c-1.1,0-2-0.9-2-2v-6C-25,13.9-24.1,13-23,13z"/>
		<path class="st0" d="M-23,26h6c1.1,0,2,0.9,2,2v6c0,1.1-0.9,2-2,2h-6c-1.1,0-2-0.9-2-2v-6C-25,26.9-24.1,26-23,26z"/>
		<path class="st0" d="M-23,39h6c1.1,0,2,0.9,2,2v6c0,1.1-0.9,2-2,2h-6c-1.1,0-2-0.9-2-2v-6C-25,39.9-24.1,39-23,39z"/>
		<path class="st0" d="M-23,52h6c1.1,0,2,0.9,2,2v6c0,1.1-0.9,2-2,2h-6c-1.1,0-2-0.9-2-2v-6C-25,52.9-24.1,52-23,52z"/>
		<path class="st0" d="M-23,65h6c1.1,0,2,0.9,2,2v6c0,1.1-0.9,2-2,2h-6c-1.1,0-2-0.9-2-2v-6C-25,65.9-24.1,65-23,65z"/>
		<path class="st0" d="M-23,78h6c1.1,0,2,0.9,2,2v6c0,1.1-0.9,2-2,2h-6c-1.1,0-2-0.9-2-2v-6C-25,78.9-24.1,78-23,78z"/>
	</g>
	<g transform="translate(560, 0)">
		<path class="st0" d="M-24,0h6c1.1,0,2,0.9,2,2v6c0,1.1-0.9,2-2,2h-6c-1.1,0-2-0.9-2-2V2C-26,0.9-25.1,0-24,0z"/>
		<path class="st0" d="M-24,13h6c1.1,0,2,0.9,2,2v6c0,1.1-0.9,2-2,2h-6c-1.1,0-2-0.9-2-2v-6C-26,13.9-25.1,13-24,13z"/>
		<path class="st0" d="M-24,26h6c1.1,0,2,0.9,2,2v6c0,1.1-0.9,2-2,2h-6c-1.1,0-2-0.9-2-2v-6C-26,26.9-25.1,26-24,26z"/>
		<path class="st0" d="M-24,39h6c1.1,0,2,0.9,2,2v6c0,1.1-0.9,2-2,2h-6c-1.1,0-2-0.9-2-2v-6C-26,39.9-25.1,39-24,39z"/>
		<path class="st0" d="M-24,52h6c1.1,0,2,0.9,2,2v6c0,1.1-0.9,2-2,2h-6c-1.1,0-2-0.9-2-2v-6C-26,52.9-25.1,52-24,52z"/>
		<path class="st0" d="M-24,65h6c1.1,0,2,0.9,2,2v6c0,1.1-0.9,2-2,2h-6c-1.1,0-2-0.9-2-2v-6C-26,65.9-25.1,65-24,65z"/>
		<path class="st0" d="M-24,78h6c1.1,0,2,0.9,2,2v6c0,1.1-0.9,2-2,2h-6c-1.1,0-2-0.9-2-2v-6C-26,78.9-25.1,78-24,78z"/>
	</g>
	<g transform="translate(574, 0)">
		<path class="st0" d="M-25,0h6c1.1,0,2,0.9,2,2v6c0,1.1-0.9,2-2,2h-6c-1.1,0-2-0.9-2-2V2C-27,0.9-26.1,0-25,0z"/>
		<path class="st0" d="M-25,13h6c1.1,0,2,0.9,2,2v6c0,1.1-0.9,2-2,2h-6c-1.1,0-2-0.9-2-2v-6C-27,13.9-26.1,13-25,13z"/>
		<path class="st0" d="M-25,26h6c1.1,0,2,0.9,2,2v6c0,1.1-0.9,2-2,2h-6c-1.1,0-2-0.9-2-2v-6C-27,26.9-26.1,26-25,26z"/>
		<path class="st0" d="M-25,39h6c1.1,0,2,0.9,2,2v6c0,1.1-0.9,2-2,2h-6c-1.1,0-2-0.9-2-2v-6C-27,39.9-26.1,39-25,39z"/>
		<path class="st0" d="M-25,52h6c1.1,0,2,0.9,2,2v6c0,1.1-0.9,2-2,2h-6c-1.1,0-2-0.9-2-2v-6C-27,52.9-26.1,52-25,52z"/>
		<path class="st0" d="M-25,65h6c1.1,0,2,0.9,2,2v6c0,1.1-0.9,2-2,2h-6c-1.1,0-2-0.9-2-2v-6C-27,65.9-26.1,65-25,65z"/>
		<path class="st0" d="M-25,78h6c1.1,0,2,0.9,2,2v6c0,1.1-0.9,2-2,2h-6c-1.1,0-2-0.9-2-2v-6C-27,78.9-26.1,78-25,78z"/>
	</g>
	<g transform="translate(588, 0)">
		<path class="st0" d="M-26,0h6c1.1,0,2,0.9,2,2v6c0,1.1-0.9,2-2,2h-6c-1.1,0-2-0.9-2-2V2C-28,0.9-27.1,0-26,0z"/>
		<path class="st0" d="M-26,13h6c1.1,0,2,0.9,2,2v6c0,1.1-0.9,2-2,2h-6c-1.1,0-2-0.9-2-2v-6C-28,13.9-27.1,13-26,13z"/>
		<path class="st0" d="M-26,26h6c1.1,0,2,0.9,2,2v6c0,1.1-0.9,2-2,2h-6c-1.1,0-2-0.9-2-2v-6C-28,26.9-27.1,26-26,26z"/>
		<path class="st0" d="M-26,39h6c1.1,0,2,0.9,2,2v6c0,1.1-0.9,2-2,2h-6c-1.1,0-2-0.9-2-2v-6C-28,39.9-27.1,39-26,39z"/>
		<path class="st0" d="M-26,52h6c1.1,0,2,0.9,2,2v6c0,1.1-0.9,2-2,2h-6c-1.1,0-2-0.9-2-2v-6C-28,52.9-27.1,52-26,52z"/>
		<path class="st0" d="M-26,65h6c1.1,0,2,0.9,2,2v6c0,1.1-0.9,2-2,2h-6c-1.1,0-2-0.9-2-2v-6C-28,65.9-27.1,65-26,65z"/>
		<path class="st0" d="M-26,78h6c1.1,0,2,0.9,2,2v6c0,1.1-0.9,2-2,2h-6c-1.1,0-2-0.9-2-2v-6C-28,78.9-27.1,78-26,78z"/>
	</g>
	<g transform="translate(602, 0)">
		<path class="st0" d="M-27,0h6c1.1,0,2,0.9,2,2v6c0,1.1-0.9,2-2,2h-6c-1.1,0-2-0.9-2-2V2C-29,0.9-28.1,0-27,0z"/>
		<path class="st0" d="M-27,13h6c1.1,0,2,0.9,2,2v6c0,1.1-0.9,2-2,2h-6c-1.1,0-2-0.9-2-2v-6C-29,13.9-28.1,13-27,13z"/>
		<path class="st0" d="M-27,26h6c1.1,0,2,0.9,2,2v6c0,1.1-0.9,2-2,2h-6c-1.1,0-2-0.9-2-2v-6C-29,26.9-28.1,26-27,26z"/>
		<path class="st0" d="M-27,39h6c1.1,0,2,0.9,2,2v6c0,1.1-0.9,2-2,2h-6c-1.1,0-2-0.9-2-2v-6C-29,39.9-28.1,39-27,39z"/>
		<path class="st0" d="M-27,52h6c1.1,0,2,0.9,2,2v6c0,1.1-0.9,2-2,2h-6c-1.1,0-2-0.9-2-2v-6C-29,52.9-28.1,52-27,52z"/>
		<path class="st0" d="M-27,65h6c1.1,0,2,0.9,2,2v6c0,1.1-0.9,2-2,2h-6c-1.1,0-2-0.9-2-2v-6C-29,65.9-28.1,65-27,65z"/>
		<path class="st0" d="M-27,78h6c1.1,0,2,0.9,2,2v6c0,1.1-0.9,2-2,2h-6c-1.1,0-2-0.9-2-2v-6C-29,78.9-28.1,78-27,78z"/>
	</g>
	<g transform="translate(616, 0)">
		<path class="st0" d="M-28,0h6c1.1,0,2,0.9,2,2v6c0,1.1-0.9,2-2,2h-6c-1.1,0-2-0.9-2-2V2C-30,0.9-29.1,0-28,0z"/>
		<path class="st0" d="M-28,13h6c1.1,0,2,0.9,2,2v6c0,1.1-0.9,2-2,2h-6c-1.1,0-2-0.9-2-2v-6C-30,13.9-29.1,13-28,13z"/>
		<path class="st0" d="M-28,26h6c1.1,0,2,0.9,2,2v6c0,1.1-0.9,2-2,2h-6c-1.1,0-2-0.9-2-2v-6C-30,26.9-29.1,26-28,26z"/>
		<path class="st0" d="M-28,39h6c1.1,0,2,0.9,2,2v6c0,1.1-0.9,2-2,2h-6c-1.1,0-2-0.9-2-2v-6C-30,39.9-29.1,39-28,39z"/>
		<path class="st0" d="M-28,52h6c1.1,0,2,0.9,2,2v6c0,1.1-0.9,2-2,2h-6c-1.1,0-2-0.9-2-2v-6C-30,52.9-29.1,52-28,52z"/>
		<path class="st0" d="M-28,65h6c1.1,0,2,0.9,2,2v6c0,1.1-0.9,2-2,2h-6c-1.1,0-2-0.9-2-2v-6C-30,65.9-29.1,65-28,65z"/>
		<path class="st0" d="M-28,78h6c1.1,0,2,0.9,2,2v6c0,1.1-0.9,2-2,2h-6c-1.1,0-2-0.9-2-2v-6C-30,78.9-29.1,78-28,78z"/>
	</g>
	<g transform="translate(630, 0)">
		<path class="st0" d="M-29,0h6c1.1,0,2,0.9,2,2v6c0,1.1-0.9,2-2,2h-6c-1.1,0-2-0.9-2-2V2C-31,0.9-30.1,0-29,0z"/>
		<path class="st0" d="M-29,13h6c1.1,0,2,0.9,2,2v6c0,1.1-0.9,2-2,2h-6c-1.1,0-2-0.9-2-2v-6C-31,13.9-30.1,13-29,13z"/>
		<path class="st0" d="M-29,26h6c1.1,0,2,0.9,2,2v6c0,1.1-0.9,2-2,2h-6c-1.1,0-2-0.9-2-2v-6C-31,26.9-30.1,26-29,26z"/>
		<path class="st0" d="M-29,39h6c1.1,0,2,0.9,2,2v6c0,1.1-0.9,2-2,2h-6c-1.1,0-2-0.9-2-2v-6C-31,39.9-30.1,39-29,39z"/>
		<path class="st0" d="M-29,52h6c1.1,0,2,0.9,2,2v6c0,1.1-0.9,2-2,2h-6c-1.1,0-2-0.9-2-2v-6C-31,52.9-30.1,52-29,52z"/>
		<path class="st0" d="M-29,65h6c1.1,0,2,0.9,2,2v6c0,1.1-0.9,2-2,2h-6c-1.1,0-2-0.9-2-2v-6C-31,65.9-30.1,65-29,65z"/>
		<path class="st0" d="M-29,78h6c1.1,0,2,0.9,2,2v6c0,1.1-0.9,2-2,2h-6c-1.1,0-2-0.9-2-2v-6C-31,78.9-30.1,78-29,78z"/>
	</g>
	<g transform="translate(644, 0)">
		<path class="st0" d="M-30,0h6c1.1,0,2,0.9,2,2v6c0,1.1-0.9,2-2,2h-6c-1.1,0-2-0.9-2-2V2C-32,0.9-31.1,0-30,0z"/>
		<path class="st0" d="M-30,13h6c1.1,0,2,0.9,2,2v6c0,1.1-0.9,2-2,2h-6c-1.1,0-2-0.9-2-2v-6C-32,13.9-31.1,13-30,13z"/>
		<path class="st0" d="M-30,26h6c1.1,0,2,0.9,2,2v6c0,1.1-0.9,2-2,2h-6c-1.1,0-2-0.9-2-2v-6C-32,26.9-31.1,26-30,26z"/>
		<path class="st0" d="M-30,39h6c1.1,0,2,0.9,2,2v6c0,1.1-0.9,2-2,2h-6c-1.1,0-2-0.9-2-2v-6C-32,39.9-31.1,39-30,39z"/>
		<path class="st0" d="M-30,52h6c1.1,0,2,0.9,2,2v6c0,1.1-0.9,2-2,2h-6c-1.1,0-2-0.9-2-2v-6C-32,52.9-31.1,52-30,52z"/>
		<path class="st0" d="M-30,65h6c1.1,0,2,0.9,2,2v6c0,1.1-0.9,2-2,2h-6c-1.1,0-2-0.9-2-2v-6C-32,65.9-31.1,65-30,65z"/>
		<path class="st0" d="M-30,78h6c1.1,0,2,0.9,2,2v6c0,1.1-0.9,2-2,2h-6c-1.1,0-2-0.9-2-2v-6C-32,78.9-31.1,78-30,78z"/>
	</g>
	<g transform="translate(658, 0)">
		<path class="st0" d="M-31,0h6c1.1,0,2,0.9,2,2v6c0,1.1-0.9,2-2,2h-6c-1.1,0-2-0.9-2-2V2C-33,0.9-32.1,0-31,0z"/>
		<path class="st0" d="M-31,13h6c1.1,0,2,0.9,2,2v6c0,1.1-0.9,2-2,2h-6c-1.1,0-2-0.9-2-2v-6C-33,13.9-32.1,13-31,13z"/>
		<path class="st0" d="M-31,26h6c1.1,0,2,0.9,2,2v6c0,1.1-0.9,2-2,2h-6c-1.1,0-2-0.9-2-2v-6C-33,26.9-32.1,26-31,26z"/>
		<path class="st0" d="M-31,39h6c1.1,0,2,0.9,2,2v6c0,1.1-0.9,2-2,2h-6c-1.1,0-2-0.9-2-2v-6C-33,39.9-32.1,39-31,39z"/>
		<path class="st0" d="M-31,52h6c1.1,0,2,0.9,2,2v6c0,1.1-0.9,2-2,2h-6c-1.1,0-2-0.9-2-2v-6C-33,52.9-32.1,52-31,52z"/>
		<path class="st0" d="M-31,65h6c1.1,0,2,0.9,2,2v6c0,1.1-0.9,2-2,2h-6c-1.1,0-2-0.9-2-2v-6C-33,65.9-32.1,65-31,65z"/>
		<path class="st0" d="M-31,78h6c1.1,0,2,0.9,2,2v6c0,1.1-0.9,2-2,2h-6c-1.1,0-2-0.9-2-2v-6C-33,78.9-32.1,78-31,78z"/>
	</g>
	<g transform="translate(672, 0)">
		<path class="st0" d="M-32,0h6c1.1,0,2,0.9,2,2v6c0,1.1-0.9,2-2,2h-6c-1.1,0-2-0.9-2-2V2C-34,0.9-33.1,0-32,0z"/>
		<path class="st0" d="M-32,13h6c1.1,0,2,0.9,2,2v6c0,1.1-0.9,2-2,2h-6c-1.1,0-2-0.9-2-2v-6C-34,13.9-33.1,13-32,13z"/>
		<path class="st0" d="M-32,26h6c1.1,0,2,0.9,2,2v6c0,1.1-0.9,2-2,2h-6c-1.1,0-2-0.9-2-2v-6C-34,26.9-33.1,26-32,26z"/>
		<path class="st0" d="M-32,39h6c1.1,0,2,0.9,2,2v6c0,1.1-0.9,2-2,2h-6c-1.1,0-2-0.9-2-2v-6C-34,39.9-33.1,39-32,39z"/>
		<path class="st0" d="M-32,52h6c1.1,0,2,0.9,2,2v6c0,1.1-0.9,2-2,2h-6c-1.1,0-2-0.9-2-2v-6C-34,52.9-33.1,52-32,52z"/>
		<path class="st0" d="M-32,65h6c1.1,0,2,0.9,2,2v6c0,1.1-0.9,2-2,2h-6c-1.1,0-2-0.9-2-2v-6C-34,65.9-33.1,65-32,65z"/>
		<path class="st0" d="M-32,78h6c1.1,0,2,0.9,2,2v6c0,1.1-0.9,2-2,2h-6c-1.1,0-2-0.9-2-2v-6C-34,78.9-33.1,78-32,78z"/>
	</g>
	<g transform="translate(686, 0)">
		<path class="st0" d="M-33,0h6c1.1,0,2,0.9,2,2v6c0,1.1-0.9,2-2,2h-6c-1.1,0-2-0.9-2-2V2C-35,0.9-34.1,0-33,0z"/>
		<path class="st0" d="M-33,13h6c1.1,0,2,0.9,2,2v6c0,1.1-0.9,2-2,2h-6c-1.1,0-2-0.9-2-2v-6C-35,13.9-34.1,13-33,13z"/>
		<path class="st0" d="M-33,26h6c1.1,0,2,0.9,2,2v6c0,1.1-0.9,2-2,2h-6c-1.1,0-2-0.9-2-2v-6C-35,26.9-34.1,26-33,26z"/>
		<path class="st0" d="M-33,39h6c1.1,0,2,0.9,2,2v6c0,1.1-0.9,2-2,2h-6c-1.1,0-2-0.9-2-2v-6C-35,39.9-34.1,39-33,39z"/>
		<path class="st0" d="M-33,52h6c1.1,0,2,0.9,2,2v6c0,1.1-0.9,2-2,2h-6c-1.1,0-2-0.9-2-2v-6C-35,52.9-34.1,52-33,52z"/>
		<path class="st0" d="M-33,65h6c1.1,0,2,0.9,2,2v6c0,1.1-0.9,2-2,2h-6c-1.1,0-2-0.9-2-2v-6C-35,65.9-34.1,65-33,65z"/>
		<path class="st0" d="M-33,78h6c1.1,0,2,0.9,2,2v6c0,1.1-0.9,2-2,2h-6c-1.1,0-2-0.9-2-2v-6C-35,78.9-34.1,78-33,78z"/>
	</g>
	<g transform="translate(700, 0)">
		<path class="st0" d="M-34,0h6c1.1,0,2,0.9,2,2v6c0,1.1-0.9,2-2,2h-6c-1.1,0-2-0.9-2-2V2C-36,0.9-35.1,0-34,0z"/>
		<path class="st0" d="M-34,13h6c1.1,0,2,0.9,2,2v6c0,1.1-0.9,2-2,2h-6c-1.1,0-2-0.9-2-2v-6C-36,13.9-35.1,13-34,13z"/>
		<path class="st0" d="M-34,26h6c1.1,0,2,0.9,2,2v6c0,1.1-0.9,2-2,2h-6c-1.1,0-2-0.9-2-2v-6C-36,26.9-35.1,26-34,26z"/>
		<path class="st0" d="M-34,39h6c1.1,0,2,0.9,2,2v6c0,1.1-0.9,2-2,2h-6c-1.1,0-2-0.9-2-2v-6C-36,39.9-35.1,39-34,39z"/>
		<path class="st0" d="M-34,52h6c1.1,0,2,0.9,2,2v6c0,1.1-0.9,2-2,2h-6c-1.1,0-2-0.9-2-2v-6C-36,52.9-35.1,52-34,52z"/>
		<path class="st0" d="M-34,65h6c1.1,0,2,0.9,2,2v6c0,1.1-0.9,2-2,2h-6c-1.1,0-2-0.9-2-2v-6C-36,65.9-35.1,65-34,65z"/>
		<path class="st0" d="M-34,78h6c1.1,0,2,0.9,2,2v6c0,1.1-0.9,2-2,2h-6c-1.1,0-2-0.9-2-2v-6C-36,78.9-35.1,78-34,78z"/>
	</g>
	<g transform="translate(714, 0)">
		<path class="st0" d="M-35,0h6c1.1,0,2,0.9,2,2v6c0,1.1-0.9,2-2,2h-6c-1.1,0-2-0.9-2-2V2C-37,0.9-36.1,0-35,0z"/>
		<path class="st0" d="M-35,13h6c1.1,0,2,0.9,2,2v6c0,1.1-0.9,2-2,2h-6c-1.1,0-2-0.9-2-2v-6C-37,13.9-36.1,13-35,13z"/>
		<path class="st0" d="M-35,26h6c1.1,0,2,0.9,2,2v6c0,1.1-0.9,2-2,2h-6c-1.1,0-2-0.9-2-2v-6C-37,26.9-36.1,26-35,26z"/>
		<path class="st0" d="M-35,39h6c1.1,0,2,0.9,2,2v6c0,1.1-0.9,2-2,2h-6c-1.1,0-2-0.9-2-2v-6C-37,39.9-36.1,39-35,39z"/>
		<path class="st0" d="M-35,52h6c1.1,0,2,0.9,2,2v6c0,1.1-0.9,2-2,2h-6c-1.1,0-2-0.9-2-2v-6C-37,52.9-36.1,52-35,52z"/>
		<path class="st0" d="M-35,65h6c1.1,0,2,0.9,2,2v6c0,1.1-0.9,2-2,2h-6c-1.1,0-2-0.9-2-2v-6C-37,65.9-36.1,65-35,65z"/>
		<path class="st0" d="M-35,78h6c1.1,0,2,0.9,2,2v6c0,1.1-0.9,2-2,2h-6c-1.1,0-2-0.9-2-2v-6C-37,78.9-36.1,78-35,78z"/>
	</g>
	<g transform="translate(728, 0)">
		<path class="st0" d="M-36,0h6c1.1,0,2,0.9,2,2v6c0,1.1-0.9,2-2,2h-6c-1.1,0-2-0.9-2-2V2C-38,0.9-37.1,0-36,0z"/>
		<path class="st0" d="M-36,13h6c1.1,0,2,0.9,2,2v6c0,1.1-0.9,2-2,2h-6c-1.1,0-2-0.9-2-2v-6C-38,13.9-37.1,13-36,13z"/>
		<path class="st0" d="M-36,26h6c1.1,0,2,0.9,2,2v6c0,1.1-0.9,2-2,2h-6c-1.1,0-2-0.9-2-2v-6C-38,26.9-37.1,26-36,26z"/>
		<path class="st0" d="M-36,39h6c1.1,0,2,0.9,2,2v6c0,1.1-0.9,2-2,2h-6c-1.1,0-2-0.9-2-2v-6C-38,39.9-37.1,39-36,39z"/>
	</g>
	<text transform="matrix(1 0 0 1 14 -7)" class="st0 st1 st2">Jun</text>
	<text transform="matrix(1 0 0 1 66 -7)" class="st0 st1 st2">Jul</text>
	<text transform="matrix(1 0 0 1 118 -7)" class="st0 st1 st2">Aug</text>
	<text transform="matrix(1 0 0 1 183 -7)" class="st0 st1 st2">Sep</text>
	<text transform="matrix(1 0 0 1 235 -7)" class="st0 st1 st2">Oct</text>
	<text transform="matrix(1 0 0 1 300 -7)" class="st0 st1 st2">Nov</text>
	<text transform="matrix(1 0 0 1 352 -7)" class="st0 st1 st2">Dec</text>
	<text transform="matrix(1 0 0 1 404 -7)" class="st0 st1 st2">Jan</text>
	<text transform="matrix(1 0 0 1 469 -7)" class="st0 st1 st2">Feb</text>
	<text transform="matrix(1 0 0 1 521 -7)" class="st0 st1 st2">Mar</text>
	<text transform="matrix(1 0 0 1 573 -7)" class="st0 st1 st2">Apr</text>
	<text transform="matrix(1 0 0 1 625 -7)" class="st0 st1 st2">May</text>
	<text transform="matrix(1 0 0 1 -15 8)" class="st3 st1 st2">Sun</text>
	<text transform="matrix(1 0 0 1 -15 22)" class="st0 st1 st2">Mon</text>
	<text transform="matrix(1 0 0 1 -15 32)" class="st3 st1 st2">Tue</text>
	<text transform="matrix(1 0 0 1 -15 48)" class="st0 st1 st2">Wed</text>
	<text transform="matrix(1 0 0 1 -15 57)" class="st3 st1 st2">Thu</text>
	<text transform="matrix(1 0 0 1 -15 73)" class="st0 st1 st2">Fri</text>
	<text transform="matrix(1 0 0 1 -15 81)" class="st3 st1 st2">Sat</text>
</g>
</svg>
