<?xml version="1.0" encoding="UTF-8"?>
<svg id="_レイヤー_1" data-name="レイヤー 1" xmlns="http://www.w3.org/2000/svg" viewBox="0 0 510 200">
  <defs>
    <style>
      .cls-1 {
        fill: #000;
        stroke-width: 0px;
      }
    </style>
  </defs>
  <path class="cls-1" d="M492.84,139.64c-2.69,1.63-4.9,3.65-7.39,4.32-10.94,2.88-21.89,6.53-33.5,6.24-4.51-.19-9.02-.67-13.54-.86-11.04-.29-22.08-.38-33.12-.48-17.47-.19-35.04-.29-52.51-.58-16.61-.29-33.12-1.06-49.73-1.06-11.04,0-22.18,1.34-33.22,1.15-17.95-.29-36-1.34-53.95-2.02-22.56-.96-45.22-2.21-67.78-2.69-14.11-.29-28.32.48-42.53,1.06-16.9.58-33.79,1.44-50.69,2.21-2.21.1-4.42.77-6.62.86-10.37.1-20.74,0-31.1-.1,57.31-7.1,114.91-6.91,172.42-9.7-8.64-11.52-11.04-25.34-7.49-40.99-2.4.38-4.03.19-5.28.86-8.74,4.61-21.22-2.78-21.22-12.58,0-.58-.19-1.34,0-1.82,1.06-2.98,10.18-6.14,13.15-4.99,4.13,1.63,8.54,2.88,13.15,4.42.58-6.05.96-10.94,1.54-15.84.19-1.73.58-3.65,1.63-4.9,1.34-1.73,3.36-2.78,5.09-4.22,1.54,2.3,4.03,4.42,4.32,6.82.67,5.86.19,11.81.19,18.62,4.42-.38,8.93-.38,13.44-1.06,6.24-.96,12.48-2.78,17.76,2.88,1.34,1.44,4.22,1.34,6.14,2.3,2.59,1.25,3.26,2.88.58,4.99-2.88,2.3-5.86,2.98-9.7,2.98-9.5-.1-19.1.77-29.86,1.25-.38,9.7-.96,19.49-.96,29.28,0,3.07,1.54,6.24,2.5,9.31.96,2.88,2.88,4.22,6.05,4.13,18.43-.19,36.96-.19,55.39-.19,5.57,0,11.14.86,16.61.86,14.11.1,28.32,0,42.43,0,3.36,0,6.72.1,10.08-.19,1.92-.19,3.84-1.25,5.76-1.73,1.54-.38,3.07-.77,4.61-.67,5.38.48,10.75,1.54,16.13,1.63,5.76.1,11.52-.77,17.28-.86,12.96-.19,26.02,0,38.98-.38,8.83-.29,17.76-1.34,26.59-1.92,12.38-.77,24.86-1.54,37.25-2.21,7.97-.38,15.26,1.63,21.12,5.86Z"/>
  <path class="cls-1" d="M385.22,122.64c-1.63-3.07-3.07-6.82-2.98-10.18.67-17.18,1.63-34.37,2.88-51.55.29-4.61-.96-7.78-5.09-9.7-4.03-1.82-8.93-2.3-11.62.96-2.02,2.4-3.17,7.58-2.02,10.46,3.65,9.5-1.25,18.43.38,27.84-16.51-1.63-25.63,7.3-32.35,19.87-12.1-18.53-32.26-23.52-58.56-8.45-.38-5.09-3.94-6.24-7.68-4.8-3.26,1.34-7.97,3.94-8.54,6.72-1.63,8.16-1.63,16.61-1.92,24.96,0,.96,2.02,2.59,3.36,2.88,4.32.86,8.83,1.06,13.15,1.82,3.94.67,9.89-2.21,10.08-5.86.19-5.86-.29-11.71-.48-17.47,4.61,0,8.06,2.3,9.98,7.01,2.4,5.95,4.99,11.9,7.58,18.14,5.95-4.61,12.1-2.59,17.95-1.15,8.35,2.11,13.25.58,18.14-6.14,10.37,7.39,19.97,2.11,29.76-1.44,1.44,6.91,3.74,8.06,10.46,5.38,1.15-.48,2.4-.86,3.65-.96,6.05-.58,6.82-2.88,3.84-8.35ZM367.08,102.39c.38,3.84.67,6.72.96,9.98-5.95-2.5-6.24-4.32-.96-9.98Z"/>
  <path class="cls-1" d="M158.95,104.02c-4.7,1.44-9.31,2.69-13.63,4.32-1.54.58-2.59,2.3-3.84,3.46,1.73,1.15,3.36,2.59,5.28,3.36,1.25.48,2.88.19,4.22,0,4.32-.67,7.78.29,11.14,3.65,2.4,2.5,2.02,4.22-.29,4.99-3.55,1.25-7.58,2.3-11.33,2.11-6.72-.38-12.96-2.59-18.24-7.3-3.94-3.46-5.09-7.3-3.84-12.38,2.4-9.31,9.5-15.07,19.01-14.88,3.36.1,6.14,1.25,7.68,4.7.96,2.69,2.4,5.18,3.84,7.97Z"/>
  <path class="cls-1" d="M410.18,104.79c1.15,2.78,2.3,5.57,3.46,8.35.86,1.92,1.73,3.74,2.59,5.57,1.73,3.46,1.34,5.86-2.98,6.91-2.02.48-3.74,2.88-5.76,3.07-3.55.38-8.45,1.15-10.46-.67-2.11-1.92-2.3-6.91-2.02-10.46.38-5.09,2.11-10.18,3.07-15.26.29-1.34.58-3.26-.1-4.13-2.88-3.84-1.06-4.51,2.59-4.8,8.64-.86,10.85,1.44,9.6,11.42Z"/>
  <path class="cls-1" d="M229.03,115.83c.96-1.63,2.3-4.13,3.74-6.62.96-1.63,1.54-3.55,2.88-4.8,1.44-1.44,3.46-2.98,5.28-2.98,1.25,0,2.88,2.4,3.65,4.03,3.07,7.1,3.26,14.21-.38,21.31-1.63,3.07-7.01,6.43-10.18,5.66-.96-.29-2.11-1.63-2.3-2.59-1.06-4.13-1.73-8.35-2.69-14.02Z"/>
  <path class="cls-1" d="M249.77,81.84c.77.77,3.07,2.02,3.74,3.94,1.06,2.98-.29,5.47-3.84,6.43-2.88.77-5.66,1.82-8.54,2.5-1.06.29-2.88,0-3.46-.67-.86-1.15-1.73-3.17-1.44-4.51.96-3.26,8.35-7.78,13.54-7.68Z"/>
  <path class="cls-1" d="M400.3,90.77c-1.82-1.54-4.03-2.88-5.18-4.8-.48-.77,1.15-3.65,2.5-4.42,3.55-1.92,7.3-3.65,11.14-4.61,3.17-.86,5.09,2.3,3.84,5.66-1.92,5.28-5.86,7.58-12.29,8.16Z"/>
  <path class="cls-1" d="M128.33,117.27c-6.43-4.03-10.66-9.41-13.06-16.7-.96-2.78-4.22-4.8-6.43-7.1-1.25-1.34-3.36-2.21-4.03-3.74-6.34-14.21-19.39-17.09-30.62-19.49-19.68.29-33.89,7.39-43.97,21.89-9.6,13.82-5.86,32.16,8.54,37.06,7.39,2.5,16.32,1.44,24.48.96,4.8-.29,9.41-3.74,14.11-3.65,11.04.1,21.12-1.54,30.14-8.35,1.54-1.15,4.51-1.34,6.53-.86,4.32.96,8.45,2.69,12.77,3.84.96.19,2.21-.67,3.36-.96-.58-.96-.96-2.3-1.82-2.88ZM91.66,113.62c-3.26,3.26-7.01,2.21-10.75-2.59-3.07-3.94-2.78-5.38,1.54-8.35,9.79-6.82,10.85-7.2,16.51-6.14.77,7.3-2.69,12.58-7.3,17.09Z"/>
</svg>