<?xml version="1.0" encoding="UTF-8"?>
<svg id="_レイヤー_1" data-name="レイヤー 1" xmlns="http://www.w3.org/2000/svg" viewBox="0 0 410 200">
  <defs>
    <style>
      .cls-1 {
        fill: #595757;
      }

      .cls-1, .cls-2, .cls-3 {
        stroke-width: 0px;
      }

      .cls-2 {
        fill: #e63976;
      }

      .cls-3 {
        fill: #00a4e3;
      }
    </style>
  </defs>
  <path class="cls-3" d="M111.35,100c0-18.97-13.41-34.86-31.24-38.71l1.35,1.19c1.33,1.17,2.09,2.82,2.09,4.52s-.76,3.35-2.09,4.52l-1,.88c11.71,3.71,20.22,14.67,20.22,27.59,0,14.53-10.77,26.59-24.74,28.63v-5.16c0-2.43-1.49-3.1-3.31-1.5l-9.19,8.1c-1.82,1.61-1.82,4.24,0,5.84l9.19,8.1c1.82,1.61,3.31.93,3.31-1.5v-3.14c19.87-2.1,35.4-18.96,35.4-39.38"/>
  <path class="cls-2" d="M59.95,132.99c0-1.7.76-3.35,2.09-4.52l1-.88c-11.71-3.71-20.22-14.67-20.22-27.59,0-14.53,10.76-26.59,24.74-28.63v5.16c0,2.43,1.49,3.1,3.31,1.5l9.19-8.1c1.82-1.61,1.82-4.23,0-5.84l-9.19-8.1c-1.82-1.61-3.31-.93-3.31,1.5v3.14c-19.87,2.1-35.4,18.96-35.4,39.38,0,18.97,13.41,34.86,31.24,38.71l-1.35-1.19c-1.33-1.17-2.09-2.82-2.09-4.52"/>
  <rect class="cls-1" x="365.52" y="61.04" width="12.33" height="73.41"/>
  <path class="cls-1" d="M278.26,61.04h-12.33v15.74h-9.29v12.33h9.29v20.2c0,16.77,9.66,25.15,21.58,25.15v-6.5c-6.3,0-9.25-5.33-9.25-18.65v-20.2h9.25v-12.33h-9.25v-15.74Z"/>
  <path class="cls-1" d="M345.86,109.33v-8.66c0-13.36-10.82-24.17-24.18-24.17s-24.17,10.81-24.18,24.17v12.1c0,13.35,10.82,24.18,24.18,24.18,7.38,0,13.99-3.32,18.42-8.52,3.89,4.02,9.17,6.03,15,6.03v-6.5c-6.3,0-9.24-5.33-9.25-18.62M333.53,112.76c-.01,6.54-5.31,11.84-11.85,11.86-6.54-.02-11.84-5.31-11.85-11.86v-12.1c.01-6.54,5.31-11.85,11.85-11.85,6.55,0,11.84,5.31,11.85,11.85v12.1Z"/>
  <path class="cls-1" d="M244.94,109.33v-8.66c0-13.36-10.83-24.17-24.18-24.17s-24.17,10.81-24.18,24.17v12.1c.01,13.35,10.83,24.18,24.18,24.18,7.39,0,14-3.32,18.43-8.52,3.89,4.02,9.18,6.03,15,6.03v-6.5c-6.3,0-9.24-5.33-9.24-18.62M232.61,112.76c-.01,6.54-5.31,11.84-11.86,11.86-6.53-.02-11.84-5.31-11.85-11.86v-12.1c.01-6.54,5.32-11.85,11.85-11.85,6.54,0,11.84,5.31,11.85,11.85v12.1Z"/>
  <path class="cls-1" d="M132.05,98.92c.01,21,17.02,38.02,38.03,38.02,6.01,0,11.7-1.4,16.75-3.89v-14.68c-4.5,3.88-10.35,6.23-16.75,6.25-14.19-.03-25.67-11.51-25.7-25.7.03-14.19,11.51-25.66,25.7-25.69,6.4,0,12.25,2.36,16.75,6.24v-14.68c-5.05-2.49-10.74-3.89-16.75-3.89-21.01,0-38.01,17.02-38.03,38.02"/>
</svg>