<?xml version="1.0" encoding="UTF-8"?>
<svg id="_レイヤー_1" data-name="レイヤー 1" xmlns="http://www.w3.org/2000/svg" viewBox="0 0 570 200">
  <defs>
    <style>
      .cls-1 {
        fill: #000;
        stroke-width: 0px;
      }
    </style>
  </defs>
  <path class="cls-1" d="M69.35,131.41h-20.91c-1.93,0-2.95-1.11-2.95-2.95v-56.93c0-1.84,1.01-2.95,2.95-2.95h20.54c1.93,0,2.95,1.11,2.95,2.95v1.57c0,1.93-1.01,2.95-2.95,2.95h-15.02v19.81h12.34c1.93,0,2.95,1.11,2.95,2.95v1.66c0,1.84-1.01,2.95-2.95,2.95h-12.34v20.63h15.38c1.93,0,2.95,1.01,2.95,2.95v1.57c0,1.84-1.01,2.86-2.95,2.86Z"/>
  <path class="cls-1" d="M84.55,131.41h-1.84c-1.93,0-2.95-1.11-2.95-2.95v-56.93c0-1.84,1.01-2.95,2.95-2.95h2.95c1.75,0,2.86.83,3.41,2.4l14.92,40.9v-40.35c0-1.84,1.11-2.95,2.95-2.95h1.84c1.93,0,2.95,1.11,2.95,2.95v56.93c0,1.84-1.01,2.95-2.95,2.95h-2.58c-1.75,0-2.76-.83-3.32-2.4l-15.29-42.28v41.82c0,1.84-1.11,2.86-3.04,2.86Z"/>
  <path class="cls-1" d="M127.75,131.41h-2.49c-1.93,0-2.95-1.11-2.95-2.95v-56.93c0-1.84,1.01-2.95,2.95-2.95h2.49c1.84,0,2.95,1.11,2.95,2.95v56.93c0,1.93-1.11,2.95-2.95,2.95Z"/>
  <path class="cls-1" d="M166.9,90.7h-2.3c-1.93,0-2.95-1.11-2.95-2.95v-5.53c0-5.07-2.4-7-6.72-7s-6.72,1.93-6.72,7v4.33c0,3.78,1.38,5.16,4.97,7.19l8.2,4.51c5.44,3.04,8.84,6.08,8.84,12.16v8.75c0,9.4-5.53,13.08-15.02,13.08h-.18c-9.49,0-15.02-3.59-15.02-13.08v-7.74c0-1.84,1.01-2.95,2.95-2.95h2.3c1.93,0,2.95,1.11,2.95,2.95v6.26c0,4.97,2.4,7.19,6.82,7.19s6.82-2.21,6.82-7.19v-4.97c0-3.78-1.38-5.44-5.07-7.46l-8.11-4.51c-5.71-3.32-8.84-5.99-8.84-12.07v-7.92c0-9.12,6.26-12.9,14.92-12.9h.18c8.66,0,14.92,3.87,14.92,12.9v7c0,1.93-1.01,2.95-2.95,2.95Z"/>
  <path class="cls-1" d="M181.64,68.49h2.49c1.84,0,2.95,1.11,2.95,2.95v24.14h14.83v-24.04c0-1.84,1.11-2.95,2.95-2.95h2.49c1.93,0,2.95,1.11,2.95,2.95v56.93c0,1.84-1.01,2.95-2.95,2.95h-2.49c-1.84,0-2.95-1.11-2.95-2.95v-25.24h-14.83v25.24c0,1.84-1.11,2.95-2.95,2.95h-2.49c-1.93,0-2.95-1.11-2.95-2.95v-56.93c0-1.93.92-3.04,2.95-3.04Z"/>
  <path class="cls-1" d="M226.32,131.41h-2.49c-1.93,0-2.95-1.11-2.95-2.95v-56.93c0-1.84,1.01-2.95,2.95-2.95h2.49c1.84,0,2.95,1.11,2.95,2.95v56.93c0,1.93-1.11,2.95-2.95,2.95Z"/>
  <path class="cls-1" d="M280.21,71.53v1.57c0,1.93-1.01,2.95-2.95,2.95h-8.01v52.51c0,1.84-1.11,2.95-2.95,2.95h-2.49c-1.84,0-2.95-1.11-2.95-2.95v-52.51h-8.11c-1.84,0-2.95-1.01-2.95-2.95v-1.57c0-1.84,1.11-2.95,2.95-2.95h24.41c2.03-.09,3.04,1.01,3.04,2.95Z"/>
  <path class="cls-1" d="M309.87,131.41h-20.82c-1.93,0-2.95-1.11-2.95-2.95v-56.93c0-1.84,1.01-2.95,2.95-2.95h20.54c1.93,0,2.95,1.11,2.95,2.95v1.57c0,1.93-1.01,2.95-2.95,2.95h-15.11v19.81h12.34c1.93,0,2.95,1.11,2.95,2.95v1.66c0,1.84-1.01,2.95-2.95,2.95h-12.34v20.63h15.38c1.93,0,2.95,1.01,2.95,2.95v1.57c0,1.84-1.01,2.86-2.95,2.86Z"/>
  <path class="cls-1" d="M350.68,109.03v9.76c0,9.4-5.71,13.27-15.29,13.27h-.18c-9.49,0-15.29-3.78-15.29-13.27v-37.77c0-9.12,5.71-13.27,15.29-13.27h.18c9.49,0,15.29,4.24,15.29,13.27v8.29c0,1.84-1.01,2.95-2.95,2.95h-2.49c-1.84,0-2.95-1.11-2.95-2.95v-6.63c0-5.53-2.3-7.46-6.91-7.46s-6.91,1.93-6.91,7.46v34.55c0,5.53,2.3,7.46,6.91,7.46s6.91-1.93,6.91-7.46v-8.2c0-1.84,1.11-2.95,2.95-2.95h2.49c1.93,0,2.95,1.11,2.95,2.95Z"/>
  <path class="cls-1" d="M362.93,68.49h2.49c1.84,0,2.95,1.11,2.95,2.95v24.14h14.83v-24.04c0-1.84,1.11-2.95,2.95-2.95h2.49c1.93,0,2.95,1.11,2.95,2.95v56.93c0,1.84-1.01,2.95-2.95,2.95h-2.49c-1.84,0-2.95-1.11-2.95-2.95v-25.24h-14.83v25.24c0,1.84-1.11,2.95-2.95,2.95h-2.49c-1.93,0-2.95-1.11-2.95-2.95v-56.93c0-1.93,1.01-3.04,2.95-3.04Z"/>
  <path class="cls-1" d="M421.98,131.41h-2.49c-1.93,0-2.95-1.11-2.95-2.95v-56.93c0-1.84,1.01-2.95,2.95-2.95h2.49c1.84,0,2.95,1.11,2.95,2.95v56.93c0,1.93-1.01,2.95-2.95,2.95Z"/>
  <path class="cls-1" d="M440.22,131.41h-1.84c-1.93,0-2.95-1.11-2.95-2.95v-56.93c0-1.84,1.01-2.95,2.95-2.95h2.95c1.75,0,2.86.83,3.41,2.4l14.92,40.9v-40.35c0-1.84,1.11-2.95,2.95-2.95h1.84c1.93,0,2.95,1.11,2.95,2.95v56.93c0,1.84-1.01,2.95-2.95,2.95h-2.58c-1.75,0-2.76-.83-3.32-2.4l-15.38-42.28v41.82c0,1.84-1.01,2.86-2.95,2.86Z"/>
  <path class="cls-1" d="M507.93,109.03v9.76c0,9.4-5.71,13.27-15.29,13.27h-.18c-9.49,0-15.29-3.78-15.29-13.27v-37.77c0-9.12,5.71-13.27,15.29-13.27h.18c9.49,0,15.29,4.24,15.29,13.27v8.29c0,1.84-1.01,2.95-2.95,2.95h-2.58c-1.84,0-2.95-1.11-2.95-2.95v-6.63c0-5.53-2.3-7.46-6.91-7.46s-6.91,1.93-6.91,7.46v34.55c0,5.53,2.3,7.46,6.91,7.46s6.91-1.93,6.91-7.46v-8.2c0-1.84,1.11-2.95,2.95-2.95h2.49c2.03,0,3.04,1.11,3.04,2.95Z"/>
  <path class="cls-1" d="M524.51,124.5v3.96c0,1.84-1.01,2.95-2.95,2.95h-2.58c-1.84,0-2.95-1.11-2.95-2.95v-3.96c0-1.84,1.11-2.95,2.95-2.95h2.49c2.03,0,3.04,1.11,3.04,2.95Z"/>
</svg>