<?xml version="1.0" encoding="UTF-8"?>
<svg id="_レイヤー_1" data-name="レイヤー 1" xmlns="http://www.w3.org/2000/svg" xmlns:xlink="http://www.w3.org/1999/xlink" viewBox="0 0 420 200">
  <defs>
    <style>
      .cls-1 {
        fill: url(#radial-gradient);
      }

      .cls-1, .cls-2, .cls-3, .cls-4, .cls-5 {
        stroke-width: 0px;
      }

      .cls-2 {
        fill: #4d4d4d;
      }

      .cls-3 {
        fill: url(#radial-gradient-2);
      }

      .cls-4 {
        fill: #f9be00;
      }

      .cls-5 {
        fill: #004097;
      }
    </style>
    <radialGradient id="radial-gradient" cx="96.65" cy="166.86" fx="96.65" fy="166.86" r="86.99" gradientUnits="userSpaceOnUse">
      <stop offset=".15" stop-color="#37a0da"/>
      <stop offset=".55" stop-color="#004097"/>
      <stop offset=".64" stop-color="#043b8e"/>
      <stop offset=".78" stop-color="#0f3075"/>
      <stop offset=".9" stop-color="#1b245c"/>
    </radialGradient>
    <radialGradient id="radial-gradient-2" cx="96.65" cy="113.99" fx="96.65" fy="113.99" r="56.29" gradientUnits="userSpaceOnUse">
      <stop offset="0" stop-color="#fff"/>
      <stop offset=".4" stop-color="#37a0da"/>
      <stop offset=".8" stop-color="#004097"/>
    </radialGradient>
  </defs>
  <g>
    <path class="cls-1" d="M55.33,147.65c-3.27,0-6.47-.81-9.08-2.88h0c-2.62-2.03-4.18-5.46-4.12-8.71h0c0-2.66.84-5.17,2.18-7.5h0l39.86-69.03c1.16-2.01,2.62-3.75,4.49-5.05h0c1.85-1.31,4.15-2.13,6.53-2.12h0c2.38,0,4.68.81,6.53,2.12h0c1.86,1.31,3.33,3.05,4.49,5.05h0l14.02,24.28c1.6,2.77,2.37,5.83,2.37,8.83h0c0,6.11-3.17,12.09-8.85,15.38h0l-48.19,27.86h70.97l-12.11-21.18c-1.63-2.83-.66-6.44,2.16-8.07h0c2.82-1.63,6.44-.66,8.07,2.16h0l11.41,19.77c1.34,2.32,2.17,4.84,2.18,7.5h0c.06,3.25-1.5,6.67-4.12,8.71h0c-2.6,2.07-5.8,2.88-9.08,2.88H55.33ZM59.66,125.6l48.18-27.82c1.87-1.07,2.94-3.08,2.94-5.15h0c0-1.01-.25-1.99-.78-2.92h0l-14.81-25.86-35.53,61.75Z"/>
    <path class="cls-3" d="M70.42,106.9l24.77-43.05,14.81,25.86c.53.93.78,1.91.78,2.92,0,.81-.17,1.61-.48,2.35,4.01-.89,8.11-1.73,12.29-2.5-.02-2.95-.79-5.95-2.36-8.67l-14.02-24.28c-1.16-2.01-2.63-3.75-4.49-5.05-1.85-1.31-4.15-2.13-6.53-2.12-2.38,0-4.68.82-6.53,2.12-1.86,1.31-3.33,3.05-4.49,5.05l-32.13,55.65c5.65-2.94,11.8-5.71,18.38-8.28Z"/>
  </g>
  <g>
    <g>
      <path class="cls-4" d="M177.11,97.77l21.07-5.12c8.84-2.1,15.93-10.14,15.99-19.62-.02-11.13-9.22-19.93-20.59-19.95h-11.53c-11.37.02-20.57,8.82-20.59,19.95v22.04c.03,15.15,12.08,27.35,27.25,27.38h22.9v-14.28h-22.9c-5.97-.01-10.9-4.57-11.61-10.4ZM177.02,82.84v-9.81c0-3.15,2.5-5.67,5.03-5.68h11.53c1.2,0,2.46.57,3.44,1.63.97,1.05,1.6,2.52,1.6,4.04-.08,3.29-1.66,4.9-3.94,5.48l-17.66,4.33Z"/>
      <path class="cls-5" d="M261.36,83.01l-17.16-4.48c-2.16-.6-3.89-2.54-3.91-5.5,0-1.53.62-2.99,1.6-4.04.98-1.06,2.23-1.64,3.44-1.63h28.28v-14.27h-28.28c-11.37.02-20.57,8.82-20.59,19.95-.01,9.96,7.23,17.25,16.08,19.48l16.67,4.23c2.9.91,4.29,2.35,4.41,5.75,0,1.53-.62,2.99-1.6,4.04-.98,1.05-2.23,1.64-3.43,1.63h-30.84v14.27h30.84c11.37-.02,20.57-8.82,20.59-19.95-.01-9.72-7.18-17.21-16.09-19.48Z"/>
      <path class="cls-5" d="M357.92,53.08h-5.38c-6.27,0-12.31,2.31-16.9,6.43-3.76-3.83-9.01-6.42-14.87-6.43h-5.77c-4.86,0-9.6,1.48-13.56,4.45l-2.97-4.45h-10.47v69.37h15.56v-43.26c.02-6.57,5.02-11.82,11.44-11.83h5.77c2.33,0,4.39,2,4.39,4.52v50.57h15.56v-43.26c0-6.46,5.36-11.82,11.82-11.83h5.38c2.34,0,4.39,2,4.39,4.52v50.57h15.56v-49.42c-.02-11.06-8.89-19.93-19.95-19.95Z"/>
    </g>
    <g>
      <path class="cls-2" d="M168.16,136.87v1.88c-.18,1.7-.84,3.29-1.98,4.75-1.15,1.47-2.54,2.44-4.2,2.93v-2.29c.99-.33,1.85-.99,2.59-1.98.74-.99,1.18-2.09,1.34-3.28h-3.93v-2.01h6.18ZM176.91,130.17v1.97h-13.26v-1.97h13.26ZM171.8,133.46v11.02c0,.69-.2,1.24-.6,1.65-.4.41-.98.62-1.73.62h-2.48v-2.16h2.01c.45,0,.68-.2.68-.6v-8.53h-6.03v-2.01h8.15ZM175.34,134.43c0,.45,0,.9.02,1.34.01.44.04.87.07,1.27l3.42-3.66v2.8l-3.12,3.27c.26,1.16.64,2.12,1.13,2.86.49.74,1.15,1.32,1.99,1.75v2.48c-1.82-.74-3.19-2.05-4.13-3.94-1.01-2.04-1.52-4.76-1.52-8.15h2.14Z"/>
      <path class="cls-2" d="M188.97,129.87v2.1c-.7.29-1.54.49-2.52.62v2.01h2.95v2.03h-2.95v1.16l2.95,2.1v2.33l-2.95-2.29v6.82h-2.2v-5.62c-.45.74-.9,1.37-1.35,1.9-.49.58-1.05,1.11-1.69,1.62v-2.91c.72-.56,1.36-1.34,1.94-2.32.58-.98.93-1.91,1.07-2.79h-3.01v-2.03h3.04v-1.84l-3.04.08v-1.97c2.24,0,3.91-.07,5.02-.22,1.1-.14,2.02-.4,2.74-.78ZM197.61,130.28v16.25h-7.29v-16.25h7.29ZM192.46,144.46h2.99v-12.11h-2.99v12.11Z"/>
      <path class="cls-2" d="M200.42,138.1v-2.08c2.5.1,5.82.38,8.27.77v2.11c-2.5-.38-5.9-.75-8.27-.81ZM200.59,132.46v-2.08c2.48.1,5.76.4,8.26.77v2.13c-2.46-.37-5.88-.75-8.26-.83ZM200.91,146.46v-2.13c8.36-.35,12.38-3.3,13.28-11.03h2.32c-.86,9.42-6.57,12.99-15.61,13.17Z"/>
      <path class="cls-2" d="M227.61,140.34c-2.73,3.21-6.3,5.25-9.71,6.19v-2.19c4.65-1.42,9.51-5.48,11.2-11.53h-10.28v-2.08h13.07c-.44,2.94-1.44,5.48-2.81,7.61,1.29,2.9,3.42,4.71,5.38,6v2.4c-2.96-1.34-5.34-3.73-6.86-6.4Z"/>
      <path class="cls-2" d="M247.3,137.65c-.61,5.36-4.21,8.21-9.13,8.98v-2.13c3.96-.75,6.29-3.23,6.67-6.84h-8.53v-2.02h17.09v2.02h-6.09ZM237.65,132.56v-2.04h14.45v2.04h-14.45Z"/>
      <path class="cls-2" d="M255.46,146.25v-1.96c1.83-3.54,4.07-9.51,5.27-13.99h2.38c-1.55,5.61-3.4,9.92-5.23,13.9h11.67c-.9-2.59-2.6-5.88-4.02-8.38h2.44c1.65,2.85,3.44,6.54,4.71,10.44h-17.22Z"/>
      <path class="cls-2" d="M281.61,142.06c1.15,1.56,2.25,3.13,3.1,4.48h-2.77c-2-3.17-4.84-6.94-7.21-9.71h2.81c.85,1.02,1.83,2.25,2.81,3.56,3.17-1.52,5.4-3.9,6.35-7.42h-14.42v-2.1h17.12v.19c-.69,5.79-3.82,9.17-7.78,11Z"/>
      <path class="cls-2" d="M300.73,139.25v7.86h-2.15v-6.65c-2.4,1.21-5.23,2.19-7.5,2.75v-2.08c2.84-.77,5.52-1.85,7.86-3.15,1.92-1.08,3.71-2.38,5.17-3.79h-11.74v-2.04h6.07v-2.61h2.19v2.61h6.57v2c-1.9,1.94-4.13,3.65-6.48,5.1ZM302.06,141.25v-2.09c2.23.52,4.61,1.27,6.5,2v2.21c-2.04-.81-4.42-1.56-6.5-2.11Z"/>
      <path class="cls-2" d="M310.39,138.1v-2.08c2.5.1,5.82.38,8.27.77v2.11c-2.5-.38-5.9-.75-8.27-.81ZM310.56,132.46v-2.08c2.48.1,5.77.4,8.26.77v2.13c-2.46-.37-5.88-.75-8.26-.83ZM310.89,146.46v-2.13c8.36-.35,12.38-3.3,13.28-11.03h2.32c-.86,9.42-6.57,12.99-15.61,13.17ZM322.27,132.44v-3.02h1.44v3.02h-1.44ZM324.63,132.44v-3.02h1.42v3.02h-1.42Z"/>
      <path class="cls-2" d="M337.95,140.02c-2.25,3.56-5.56,5.56-9.99,6.73v-2.11c3.46-1.04,6.23-2.67,8.05-5.57-2.48-1.21-4.32-1.92-6.71-2.61v-2.17c2.54.75,4.75,1.59,7.69,2.94,1.12-2.4,1.58-4.69,1.9-7.23h2.25c-.31,2.71-.94,5.55-2.19,8.19,1.98,1.04,3.65,2.02,5.25,3.09v2.65c-1.92-1.38-3.86-2.65-6.25-3.9Z"/>
      <path class="cls-2" d="M346.2,132.91v-2.23c2.52.25,5.56.67,8.17,1.29v2.31c-2.67-.67-5.61-1.15-8.17-1.37ZM346.45,146.36v-2.19c6.84-.58,11.76-2.75,12.84-10.8h2.35c-1.02,9.13-6.63,12.57-15.19,12.99Z"/>
      <path class="cls-2" d="M366.49,137.58v9.21h-2.29v-17.03h2.29v5.59c4,.88,7.73,1.77,11.36,2.9v2.33c-3.9-1.15-7.54-2.13-11.36-3Z"/>
    </g>
  </g>
</svg>