<?xml version="1.0" encoding="UTF-8"?>
<svg id="_レイヤー_1" data-name="レイヤー 1" xmlns="http://www.w3.org/2000/svg" viewBox="0 0 490 200">
  <defs>
    <style>
      .cls-1 {
        fill: none;
      }

      .cls-1, .cls-2, .cls-3, .cls-4 {
        stroke-width: 0px;
      }

      .cls-2 {
        fill: #555;
      }

      .cls-3 {
        fill: #568e53;
      }

      .cls-4 {
        fill: #9c2330;
      }
    </style>
  </defs>
  <g>
    <polygon class="cls-3" points="71.51 69.16 88.07 40.36 88.07 97.96 71.51 69.16"/>
    <polygon class="cls-3" points="89.99 40.36 106.55 69.16 89.99 97.96 89.99 40.36"/>
    <polygon class="cls-3" points="89.99 40.36 106.55 69.16 89.99 97.96 89.99 40.36"/>
    <polygon class="cls-1" points="89.99 40.36 106.55 69.16 89.99 97.96 89.99 40.36"/>
    <polygon class="cls-3" points="52.55 100.36 35.99 71.56 85.67 100.36 52.55 100.36"/>
    <polygon class="cls-3" points="36.71 70.12 70.07 70.12 86.63 98.92 36.71 70.12"/>
    <polygon class="cls-3" points="147.83 68.44 197.75 39.64 180.95 68.44 147.83 68.44"/>
    <polygon class="cls-3" points="147.83 68.44 197.75 39.64 180.95 68.44 147.83 68.44"/>
    <polygon class="cls-3" points="163.67 37.96 196.79 37.96 146.87 66.76 163.67 37.96"/>
    <polygon class="cls-3" points="89.99 104.68 106.55 133.48 89.99 162.04 89.99 104.68"/>
    <polygon class="cls-3" points="71.51 133.48 88.07 104.68 88.07 162.04 71.51 133.48"/>
    <polygon class="cls-3" points="117.59 116.92 117.11 116.68 92.15 102.28 125.51 102.28 142.07 131.08 117.59 116.92"/>
    <polygon class="cls-3" points="107.99 132.52 91.43 103.72 141.35 132.52 107.99 132.52"/>
    <polygon class="cls-1" points="107.99 132.52 91.43 103.72 141.35 132.52 107.99 132.52"/>
    <polygon class="cls-4" points="107.99 70.12 141.35 70.12 91.43 98.92 107.99 70.12"/>
    <polygon class="cls-4" points="92.39 100.36 142.07 71.56 125.51 100.36 92.39 100.36"/>
  </g>
  <g>
    <g>
      <path class="cls-2" d="M176.63,103.72c0,.72-.24.96-.96.96h-1.92l1.92,5.52,1.44,3.6c.24.48,0,.96-.48,1.2l-.48.24c-.48.48-.96.24-1.2-.48s-.72-2.16-1.44-3.84v14.64c0,.72-.24.96-.96.96h-.48c-.72,0-.96-.24-.96-.96v-12.96c-.48,1.92-1.2,3.6-1.92,5.52-.24.72-.96.72-1.2,0l-.48-.48c-.24-.24-.24-.48-.24-.96,1.44-3.6,2.64-7.68,3.36-12h-2.16c-.72,0-.96-.24-.96-.96,0-.48.24-.96.96-.96h2.64v-4.8c0-.72.24-.96.96-.96h.72c.72,0,.96.24.96.96v4.8h1.92c.48,0,.96.24.96.96ZM192.95,110.2c.72,0,.96.24.96.96,0,.48-.24.96-.96.96h-6c1.2,3.84,3.6,7.68,6.48,10.32.48.48.48.72.24,1.2v.48c-.24.72-.72.72-1.44.24-2.4-2.4-4.32-5.04-5.76-7.68v9.12c0,.72-.24.96-.96.96h-.96c-.72,0-.96-.24-.96-.96v-9.36c-1.68,2.88-4.08,5.76-6.96,7.92-.48.48-.96.24-1.2-.24l-.24-.48c-.24-.48,0-.96.24-1.2,3.36-2.88,6.24-6.48,7.68-10.56h-6c-.72,0-.96-.24-.96-.96,0-.48.24-.96.96-.96h6.24v-7.2h-2.88c-.48,1.68-1.2,3.36-2.16,5.28-.24.72-.72.72-1.44.24l-.24-.24c-.48-.48-.48-.72-.24-1.44,1.2-2.4,1.92-5.28,2.64-8.64,0-.72.48-.96,1.2-.72h.48c.72.24.96.48.72,1.2-.24.72-.24,1.44-.48,2.4h2.4v-2.88c0-.72.24-.96.96-.96h.96c.72,0,.96.24.96.96v3.12h5.52c.72,0,.96.24.96.96,0,.48-.24.96-.96.96h-5.28v7.44l6.48-.24h0Z"/>
      <path class="cls-2" d="M227.51,103.24c0,.48-.24.96-.96.96h-6.72c.24,5.04,1.2,10.08,1.92,12.96.72,3.12,1.68,5.28,2.16,6,.72,1.2,1.44-.96,1.68-4.56,0-.72.48-.96,1.2-.72l.72.24c.48.24.72.48.72,1.2-.48,4.8-1.44,7.2-3.6,7.2-1.2,0-2.4-.96-3.6-3.12-1.44-2.4-2.4-5.52-3.12-10.56-.48-2.88-.72-5.76-.96-8.64h-13.92c-.72,0-.96-.24-.96-.96,0-.48.24-.96.96-.96h13.92v-4.8c0-.72.24-.96.96-.96h.96c.72,0,.96.48.96.96v4.56h6.72c.48.24.96.48.96,1.2ZM203.51,109.48c0-.48.24-.72.96-.72h11.28c.72,0,.96.24.96.96,0,.48-.24.72-.96.72h-4.08v11.52c2.16-.48,3.84-.96,5.04-1.68.72-.24.96,0,1.2.72,0,.48,0,.96-.72,1.2-3.12,1.2-7.68,2.4-13.2,3.36-.72,0-.96-.24-1.2-.72,0-.48.24-.96.72-.96,1.68-.24,3.36-.72,5.04-.96v-12.24h-4.32c-.24-.24-.72-.48-.72-1.2ZM223.91,101.08c-1.2-.96-2.16-1.68-3.12-2.4-.48-.24-.72-.72-.24-1.44h0c.24-.48.72-.72,1.2-.24,1.2.72,2.4,1.68,3.6,2.64.48.48.48.96.24,1.44l-.24.24c-.24.24-.72.24-1.44-.24Z"/>
      <path class="cls-2" d="M236.15,106.12c3.6-2.4,7.2-5.52,10.32-8.88.24-.48.72-.48,1.2-.48h1.92c.48,0,.96.24,1.2.48,3.36,3.36,6.72,6.48,10.32,8.88.48.24.72.72.48,1.2l-.24.24c-.24.72-.72.72-1.2.48-4.32-2.88-8.16-6.24-11.52-9.6-3.12,3.6-6.96,6.72-11.52,9.6-.48.48-.96.24-1.2-.48h-.24c-.24-.72,0-.96.48-1.44ZM244.07,123.64c4.32-.48,8.16-.96,12-1.44-.24-.72-.72-1.44-.96-1.92l-.96-1.68c0-.24-.24-.48-.24-.48-.24-.24,0-.72.48-.96l.48-.24c.48-.24.96-.24,1.2.48,1.44,2.88,2.88,5.52,4.08,8.16.24.48.24.96-.48,1.2h-.48c-.48.24-.96.24-1.2-.48-.48-.96-.72-1.92-1.2-2.4-6.24,1.2-12.48,1.92-18.72,2.16-.72,0-.96-.24-.96-.96,0-.48.24-.96.96-.96,1.2,0,2.16,0,2.88-.24,1.2-2.4,2.16-5.76,3.36-9.36h-6.96c-.72,0-.96-.24-.96-.96,0-.48.24-.96.96-.96h22.32c.72,0,.96.24.96.96,0,.48-.24.96-.96.96h-12.48c-.72,2.88-1.68,6-3.12,9.12ZM256.79,107.56c0,.48-.24.72-.96.72h-14.4c-.72,0-.96-.24-.96-.96,0-.48.24-.72.96-.72h14.4c.48,0,.96.24.96.96Z"/>
      <path class="cls-2" d="M274.55,97h.96c.72,0,.96.24.96.96v4.32h3.12c.72,0,.96.24.96.96v.48c0,.48,0,.72-.24,1.2-.72,2.16-1.68,4.08-2.88,6,1.68,1.92,3.12,3.6,4.32,5.04.24.48.24.96,0,1.44l-.48.48c-.48.48-.96.48-1.44,0-1.2-1.44-2.16-2.88-3.6-4.08v12.48c0,.72-.24.96-.96.96h-.72c-.72,0-.96-.24-.96-.96v-11.52c-.96.96-1.92,1.92-3.12,2.64-.48.48-.96.24-1.2-.48v-.24c-.24-.48,0-.96.48-1.2,3.6-2.64,6.24-6.48,7.92-11.52h-7.2c-.72,0-.96-.24-.96-.96s.24-.96.96-.96h3.12v-4.08c0-.72.24-.96.96-.96ZM295.43,104.92c0,.72-.24.96-.96.96h-4.32v17.76h4.8c.72,0,.96.24.96.96s-.24.96-.96.96h-14.4c-.72,0-.96-.24-.96-.96s.24-.96.96-.96h6.48v-17.76h-5.04c-.72,0-.96-.24-.96-.96,0-.48.24-.96.96-.96h5.04v-5.76c0-.72.24-.96.96-.96h.96c.72,0,.96.24.96.96v5.76h4.32c.96,0,1.2.48,1.2.96Z"/>
    </g>
    <g>
      <path class="cls-2" d="M376.31,77.32h-34.32c0,6-.24,11.04-.48,15.36h29.52c1.44,0,1.92.72,1.92,1.92v1.68c0,10.32-.48,18-1.2,23.04-1.44,9.36-4.56,12-12.48,12-2.64,0-7.2-.24-13.44-.72-1.2,0-1.92-.72-1.92-2.16v-.24c0-1.44.72-2.16,2.16-1.92,5.52.48,9.84.72,12.72.72,1.44,0,2.4-.24,3.6-1.92.48-.72,1.44-3.84,2.16-8.4.48-4.08.96-10.56.96-18.96v-1.2h-24.24c-1.92,16.08-7.2,24.96-19.92,35.52-.96.96-1.92.72-2.88-.24l-1.2-1.2c-.72-.96-.72-1.92.24-2.88,8.64-7.2,13.2-14.64,15.36-26.4,1.2-6,1.68-14.16,1.68-24.24h-18.48c-1.44,0-1.92-.72-1.92-1.92v-.24c0-1.44.72-1.92,1.92-1.92h60.48c1.44,0,1.92.72,1.92,1.92v.24c0,1.44-.72,2.16-2.16,2.16Z"/>
      <path class="cls-2" d="M453.11,89.08c0,1.2-.72,1.68-1.92,1.68h-7.92v6.72c0,1.44-.72,1.92-1.92,1.92h-26.16c-1.44,0-1.92-.72-1.92-1.92v-6.72h-8.16v13.2h41.76c1.44,0,1.92.72,1.92,1.92,0,.96-.72,1.44-1.92,1.44h-22.08v5.04h26.16c1.44,0,1.92.72,1.92,1.92,0,.96-.72,1.68-1.92,1.68h-24c6.72,5.04,15.12,9.12,25.68,12.72,1.2.48,1.68,1.44,1.2,2.64v.24c-.48,1.2-1.44,1.68-2.64,1.2-11.52-4.08-20.16-8.4-26.4-12.72v12c0,1.44-.72,1.92-1.92,1.92h-3.6c-1.44,0-1.92-.72-1.92-1.92v-12c-6,4.56-14.88,8.64-26.4,12.72-1.2.48-1.92,0-2.64-1.2l-.24-.24c-.48-1.2,0-2.16,1.2-2.64,10.56-3.6,19.2-7.68,25.68-12.72h-24c-1.44,0-1.92-.72-1.92-1.92,0-.96.72-1.68,1.92-1.68h26.16v-4.8h-17.52c-1.44,0-1.92-.72-1.92-1.92v-14.88h-7.2c-1.44,0-1.92-.72-1.92-1.92s.72-1.68,1.92-1.68h7.2v-2.64c0-1.44.72-1.92,1.92-1.92h3.6c1.44,0,1.92.72,1.92,1.92v2.64h8.16v-2.64c0-1.44.72-1.92,1.92-1.92h3.36c1.44,0,1.92.72,1.92,1.92v2.64h15.36v-2.64c0-1.44.72-1.92,1.92-1.92h3.36c1.44,0,1.92.72,1.92,1.92v2.64h7.92c1.44,0,2.16.48,2.16,1.92ZM453.11,75.16c0,1.2-.72,1.68-1.92,1.68h-14.4v2.4c0,1.44-.72,1.92-1.92,1.92h-3.6c-1.44,0-1.92-.72-1.92-1.92v-2.4h-17.52v2.4c0,1.44-.72,1.92-1.92,1.92h-3.36c-1.44,0-1.92-.72-1.92-1.92v-2.4h-14.4c-1.44,0-1.92-.72-1.92-1.92s.72-1.68,1.92-1.68h14.4v-3.12c0-1.44.72-1.92,1.92-1.92h3.36c1.44,0,1.92.72,1.92,1.92v3.12h17.52v-3.12c0-1.44.72-1.92,1.92-1.92h3.36c1.44,0,1.92.72,1.92,1.92v3.12h14.4c1.44,0,2.16.48,2.16,1.92ZM435.59,90.76h-15.36v5.76h15.36v-5.76Z"/>
    </g>
  </g>
</svg>