<?xml version="1.0" encoding="UTF-8"?>
<svg id="_レイヤー_1" data-name="レイヤー 1" xmlns="http://www.w3.org/2000/svg" xmlns:xlink="http://www.w3.org/1999/xlink" viewBox="0 0 330 80">
  <defs>
    <style>
      .cls-1 {
        fill: none;
      }

      .cls-2 {
        fill: url(#_名称未設定グラデーション_3);
        opacity: .44;
      }

      .cls-3 {
        fill: #010000;
      }

      .cls-4 {
        fill: #f1911c;
      }

      .cls-5 {
        clip-path: url(#clippath);
      }
    </style>
    <clipPath id="clippath">
      <polygon class="cls-1" points="83.03 46.54 88.81 40.75 68.72 20.66 55.78 33.6 70.09 47.91 68.72 49.28 40.09 20.66 20 40.75 40.09 60.85 53.03 47.91 40.11 34.99 34.33 40.77 41.47 47.91 40.09 49.28 31.57 40.75 40.09 32.23 68.72 60.85 81.66 47.91 67.34 33.6 68.72 32.23 83.03 46.54"/>
    </clipPath>
    <linearGradient id="_名称未設定グラデーション_3" data-name="名称未設定グラデーション 3" x1="54.41" y1="105.04" x2="54.41" y2="41.95" gradientUnits="userSpaceOnUse">
      <stop offset=".44" stop-color="#fff" stop-opacity="0"/>
      <stop offset="1" stop-color="#fff"/>
    </linearGradient>
  </defs>
  <g>
    <g class="cls-5">
      <g>
        <rect class="cls-4" x="19.26" y="19.98" width="70.29" height="41.54"/>
        <path class="cls-2" d="M89.55,61.53v-13.63c-9.88-3.74-22.02-5.95-35.15-5.95s-25.26,2.21-35.15,5.95v13.63h70.29Z"/>
      </g>
    </g>
    <circle class="cls-4" cx="45.98" cy="20.66" r="3"/>
    <path class="cls-4" d="M77.75,20.66c0,1.66-1.34,3-3,3s-3-1.34-3-3,1.34-3,3-3,3,1.34,3,3Z"/>
  </g>
  <g>
    <g>
      <path class="cls-3" d="M115.67,41.9c-1.55.53-4.47,1.25-7.4,1.25-4.05,0-6.97-1.02-9.01-2.99-2.04-1.91-3.16-4.8-3.12-8.06.03-7.37,5.39-11.58,12.66-11.58,2.86,0,5.06.56,6.15,1.09l-1.05,4.01c-1.22-.53-2.73-.95-5.16-.95-4.18,0-7.33,2.37-7.33,7.17s2.86,7.27,6.97,7.27c1.15,0,2.07-.13,2.47-.33v-4.64h-3.42v-3.91h8.25v11.67Z"/>
      <path class="cls-3" d="M123.27,36.47c.16,2.07,2.2,3.06,4.54,3.06,1.71,0,3.09-.23,4.44-.66l.66,3.39c-1.64.66-3.65.99-5.82.99-5.46,0-8.58-3.16-8.58-8.19,0-4.08,2.53-8.58,8.12-8.58,5.2,0,7.17,4.05,7.17,8.02,0,.86-.1,1.61-.16,1.97h-10.36ZM129.15,33.05c0-1.22-.53-3.26-2.83-3.26-2.1,0-2.96,1.91-3.09,3.26h5.92Z"/>
      <path class="cls-3" d="M136.78,31.96c0-2.01-.07-3.72-.13-5.13h4.34l.23,2.2h.1c.66-1.02,2.3-2.56,4.97-2.56,3.29,0,5.76,2.17,5.76,6.91v9.54h-5v-8.91c0-2.07-.72-3.49-2.53-3.49-1.38,0-2.2.95-2.53,1.87-.13.3-.2.79-.2,1.25v9.27h-5v-10.95Z"/>
      <path class="cls-3" d="M155.93,42.91c.07-1.05.13-2.99.13-4.8v-18.55h5v9.18h.07c.95-1.38,2.63-2.27,4.87-2.27,3.85,0,6.68,3.19,6.64,8.12,0,5.79-3.68,8.68-7.37,8.68-1.87,0-3.68-.69-4.83-2.6h-.07l-.2,2.24h-4.24ZM161.06,36.07c0,.33.03.62.1.89.33,1.35,1.48,2.37,2.93,2.37,2.14,0,3.45-1.64,3.45-4.54,0-2.5-1.12-4.47-3.45-4.47-1.35,0-2.6,1.02-2.93,2.47-.07.3-.1.59-.1.92v2.37Z"/>
      <path class="cls-3" d="M184.87,42.91l-.3-1.61h-.1c-1.05,1.28-2.7,1.97-4.6,1.97-3.26,0-5.2-2.37-5.2-4.93,0-4.18,3.75-6.18,9.44-6.15v-.23c0-.86-.46-2.07-2.93-2.07-1.64,0-3.39.56-4.44,1.22l-.92-3.22c1.12-.62,3.32-1.41,6.25-1.41,5.36,0,7.07,3.16,7.07,6.94v5.59c0,1.55.07,3.03.23,3.91h-4.51ZM184.27,35.32c-2.63-.03-4.67.59-4.67,2.53,0,1.28.86,1.91,1.97,1.91,1.25,0,2.27-.82,2.6-1.84.07-.26.1-.56.1-.86v-1.74Z"/>
      <path class="cls-3" d="M193.42,37.75c1.35.69,3.42,1.38,5.56,1.38,2.3,0,3.52-.95,3.52-2.4s-1.05-2.17-3.72-3.12c-3.68-1.28-6.08-3.32-6.08-6.54,0-3.78,3.16-6.68,8.39-6.68,2.5,0,4.34.53,5.66,1.12l-1.12,4.05c-.89-.43-2.47-1.05-4.64-1.05s-3.22.99-3.22,2.14c0,1.41,1.25,2.04,4.11,3.12,3.91,1.45,5.76,3.49,5.76,6.61,0,3.72-2.86,6.87-8.95,6.87-2.53,0-5.03-.66-6.28-1.35l1.02-4.14Z"/>
      <path class="cls-3" d="M226.01,37.75c0,2.1.07,3.81.13,5.16h-4.34l-.23-2.27h-.1c-.62.99-2.14,2.63-5.03,2.63-3.26,0-5.66-2.04-5.66-7.01v-9.44h5.03v8.65c0,2.34.76,3.75,2.5,3.75,1.38,0,2.17-.95,2.5-1.74.13-.3.16-.69.16-1.09v-9.57h5.03v10.92Z"/>
      <path class="cls-3" d="M230.02,32.23c0-2.1-.07-3.91-.13-5.39h4.34l.23,2.24h.07c1.18-1.71,3.03-2.6,5.36-2.6,3.52,0,6.68,3.06,6.68,8.19,0,5.85-3.72,8.62-7.3,8.62-1.94,0-3.45-.79-4.18-1.84h-.07v7.99h-5v-17.2ZM235.02,36.01c0,.39.03.76.1,1.05.33,1.35,1.48,2.37,2.93,2.37,2.17,0,3.45-1.81,3.45-4.54,0-2.57-1.15-4.51-3.39-4.51-1.41,0-2.66,1.05-2.99,2.53-.07.26-.1.59-.1.89v2.2Z"/>
      <path class="cls-3" d="M249.69,32.23c0-2.1-.07-3.91-.13-5.39h4.34l.23,2.24h.07c1.18-1.71,3.03-2.6,5.36-2.6,3.52,0,6.68,3.06,6.68,8.19,0,5.85-3.72,8.62-7.3,8.62-1.94,0-3.45-.79-4.18-1.84h-.07v7.99h-5v-17.2ZM254.68,36.01c0,.39.03.76.1,1.05.33,1.35,1.48,2.37,2.93,2.37,2.17,0,3.45-1.81,3.45-4.54,0-2.57-1.15-4.51-3.39-4.51-1.41,0-2.66,1.05-2.99,2.53-.07.26-.1.59-.1.89v2.2Z"/>
      <path class="cls-3" d="M285.24,34.69c0,5.89-4.18,8.58-8.48,8.58-4.7,0-8.32-3.09-8.32-8.29s3.42-8.52,8.58-8.52,8.22,3.39,8.22,8.22ZM273.59,34.86c0,2.76,1.15,4.83,3.29,4.83,1.94,0,3.19-1.94,3.19-4.83,0-2.4-.92-4.83-3.19-4.83-2.4,0-3.29,2.47-3.29,4.83Z"/>
      <path class="cls-3" d="M288.33,32.13c0-2.37-.07-3.91-.13-5.29h4.31l.16,2.96h.13c.82-2.33,2.8-3.32,4.34-3.32.46,0,.69,0,1.05.07v4.7c-.36-.07-.79-.13-1.35-.13-1.84,0-3.09.99-3.42,2.53-.07.33-.1.72-.1,1.12v8.16h-5v-10.79Z"/>
      <path class="cls-3" d="M306.42,22.23v4.6h3.58v3.68h-3.58v5.82c0,1.94.46,2.83,1.97,2.83.63,0,1.12-.07,1.48-.13l.03,3.78c-.66.26-1.84.43-3.26.43-1.61,0-2.96-.56-3.75-1.38-.92-.95-1.38-2.5-1.38-4.77v-6.58h-2.14v-3.68h2.14v-3.49l4.9-1.12Z"/>
    </g>
    <g>
      <path class="cls-3" d="M99.65,51.24c.37.49,1.44,2.1,1.68,2.48l-.88,1.2c-.17-.44-.48-1.08-.8-1.68v5.63h-1.48v-5.06c-.37,1.07-.81,2.04-1.29,2.72-.13-.44-.49-1.07-.73-1.45.8-1.07,1.53-2.9,1.9-4.52h-1.57v-1.48h1.69v-2.77l1.82.11c-.01.12-.11.2-.35.24v2.42h1.47v1.48h-1.47v.68ZM108.74,53.33h-2.26c.72,1.24,1.7,2.49,2.6,3.26-.37.28-.92.84-1.2,1.26-.71-.77-1.46-1.9-2.09-3.09v4.1h-1.58v-3.96c-.72,1.27-1.61,2.4-2.53,3.16-.25-.37-.76-.95-1.12-1.24,1.15-.79,2.26-2.1,3.01-3.5h-2.45v-1.48h3.09v-1.82h-1.25c-.19.57-.39,1.12-.64,1.57-.33-.21-.92-.52-1.28-.65.6-1.11.97-2.88,1.13-4.17l1.76.37c-.04.09-.15.17-.32.17-.07.36-.16.79-.25,1.24h.85v-2.25l1.94.11c-.01.13-.12.21-.36.27v1.88h2.58v1.46h-2.58v1.82h2.96v1.48Z"/>
      <path class="cls-3" d="M121.92,50.16h-3.62c.25,3.74,1.05,7.01,2.02,7.02.29,0,.48-.75.53-2.44.37.39.95.81,1.4.99-.25,2.57-.8,3.17-2.08,3.17-2.3-.01-3.28-4.08-3.6-8.74h-6.7v-1.56h6.62c-.03-.75-.04-1.49-.04-2.22l2.16.12c0,.15-.12.24-.39.28-.01.61-.01,1.21,0,1.82h2.12c-.37-.45-1.04-1.03-1.58-1.42l1.05-.88c.61.43,1.4,1.04,1.77,1.49l-.93.81h1.26v1.56ZM114.01,53.18v3.05c.83-.15,1.69-.31,2.52-.47l.11,1.41c-2.16.49-4.46.97-5.93,1.27-.03.13-.13.21-.24.24l-.59-1.77c.69-.11,1.57-.24,2.54-.41v-3.32h-2.05v-1.49h5.74v1.49h-2.1Z"/>
      <path class="cls-3" d="M126.07,51.83v-.99c-.72.49-1.49.96-2.29,1.33-.19-.36-.6-.99-.93-1.31,2.32-1.03,4.5-2.96,5.49-4.55l2.16.11c-.04.13-.16.24-.35.27,1.24,1.66,3.48,3.17,5.5,3.9-.4.4-.76.97-1.04,1.46-.75-.35-1.53-.8-2.28-1.31v1.08h-6.26ZM123.69,54.42v-1.49h11.12v1.49h-6.26l.4.13c-.05.11-.19.16-.4.16-.28.65-.67,1.41-1.07,2.12,1.32-.03,2.76-.07,4.2-.11-.45-.52-.93-1.03-1.4-1.45l1.41-.73c1.2,1.04,2.45,2.44,3.08,3.45l-1.49.91c-.15-.27-.35-.56-.57-.88-3.01.19-6.1.35-8.14.44-.03.12-.13.2-.25.21l-.56-1.76c.56-.01,1.23-.01,1.97-.04.39-.75.77-1.65,1.07-2.45h-3.1ZM131.79,50.36c-1.04-.77-1.98-1.65-2.6-2.49-.57.81-1.44,1.69-2.48,2.49h5.07Z"/>
      <path class="cls-3" d="M142.05,49.32c-.04.09-.12.16-.23.2-.4,1.04-.97,2.06-1.65,3,.65.45,1.76,1.26,2.06,1.5l-.93,1.32c-.31-.37-.83-.89-1.33-1.36v4.91h-1.58v-4.33c-.52.49-1.05.91-1.6,1.25-.13-.41-.52-1.2-.77-1.51,1.53-.85,3-2.38,3.89-4.08h-3.48v-1.44h1.96v-2.48l1.94.11c-.01.13-.12.21-.36.25v2.12h.79l.24-.07,1.05.59ZM146.06,56.93h2.86v1.57h-7.62v-1.57h3.1v-4.91h-2.56v-1.54h2.56v-4.02l2.01.12c-.01.13-.12.21-.36.25v3.65h2.54v1.54h-2.54v4.91Z"/>
      <path class="cls-3" d="M154.46,54.26l.19,1.37c-1.61.47-3.33.96-4.45,1.27-.01.12-.11.21-.21.24l-.6-1.65c.53-.11,1.2-.27,1.93-.44v-2.74h-1.5v-1.46h1.5v-2.34h-1.62v-1.48h4.7v1.48h-1.53v2.34h1.4v1.46h-1.4v2.36l1.6-.4ZM157.67,54.84c-.03.11-.13.21-.35.23-.33,1.64-.88,3.01-3.68,3.82-.16-.4-.56-1.03-.88-1.32,2.44-.55,2.85-1.52,3.05-2.92l1.85.19ZM159.84,57.01c0,.39.03.44.25.44h.56c.24,0,.29-.21.32-1.56.31.24.93.49,1.33.59-.13,1.84-.49,2.34-1.48,2.34h-1.01c-1.24,0-1.51-.45-1.51-1.81v-2.64h-3.38v-7.54h6.57v7.54h-1.65v2.64ZM156.42,48.14v.83h3.52v-.83h-3.52ZM156.42,50.17v.84h3.52v-.84h-3.52ZM156.42,52.23v.84h3.52v-.84h-3.52Z"/>
      <path class="cls-3" d="M175.42,53.06h-5.42c-.12.23-.24.44-.37.65h4.39l.32-.03.85.13c-.01.12-.04.27-.07.39-.19,2.69-.41,3.77-.77,4.17-.36.41-.77.49-1.69.49-.17,0-.36,0-.56-.01-.03-.36-.13-.88-.33-1.21-.35.53-.73,1.01-1.12,1.36-.28-.31-.75-.68-1.15-.91.92-.65,1.7-1.86,2.2-3.12h-.76c-.71,1.32-1.9,2.73-3.02,3.49-.25-.31-.69-.71-1.05-.95.97-.52,1.96-1.51,2.65-2.54h-.84c-.51.57-1.08,1.07-1.66,1.45-.24-.25-.71-.71-1-.92.08-.04.16-.08.24-.13h0c-1,.45-1.96.88-2.65,1.19,0,.13-.09.23-.2.27l-.64-1.74c.45-.15,1.03-.36,1.65-.59v-3.88h-1.37v-1.51h1.37v-2.8l1.82.11c-.01.13-.11.2-.33.24v2.45h1.23v1.51h-1.23v3.29l1.12-.44s.01.05.24,1.08c.45-.44.85-.95,1.17-1.49h-1.58v-1.35h8.56v1.35ZM174.49,46.64v4.54h-6.37v-4.54h6.37ZM173.01,48.39v-.64h-3.46v.64h3.46ZM173.01,50.08v-.64h-3.46v.64h3.46ZM173.01,54.98c-.28.89-.71,1.82-1.21,2.62.4.04.75.04.92.04s.28-.03.39-.16c.19-.2.36-.88.49-2.5h-.59Z"/>
      <path class="cls-3" d="M188.26,51.16h-2.46v.59c0,2.78-.93,5.21-4.18,6.75-.31-.35-.81-.85-1.23-1.16,3.05-1.37,3.72-3.4,3.72-5.58v-.6h-3.44v3.01h-1.68v-3.01h-2.3v-1.6h2.3v-2.66l2.08.13c-.01.13-.15.29-.4.33v2.2h3.44v-2.84l2.09.12c-.01.15-.15.27-.4.31v2.41h2.46v1.6Z"/>
      <path class="cls-3" d="M193.71,52.9c-.61,1.52-1.37,2.88-2.33,3.84l-1.4-.85c.91-.85,1.66-2.05,2.21-3.57l1.52.59ZM196.63,51v5.43c0,.85-.32,1.41-.88,1.69-.56.31-1.31.31-2.64.29-.08-.43-.27-1.07-.45-1.54.59.03,1.52.04,1.78.04.36,0,.48-.16.48-.45v-5.46h-4.2v-1.58h4.2v-2.58l2.09.09c-.01.16-.13.28-.39.32v2.17h4.18v1.58h-4.18ZM199,52.2c.95,1.08,1.97,2.58,2.57,3.68l-1.52.88c-.51-1.12-1.64-2.92-2.42-3.85l1.37-.71ZM200.53,46.06c.8,0,1.45.65,1.45,1.45s-.65,1.45-1.45,1.45-1.45-.65-1.45-1.45.68-1.45,1.45-1.45ZM201.48,47.51c0-.52-.43-.95-.95-.95s-.95.43-.95.95.43.95.95.95c.55,0,.95-.45.95-.95Z"/>
      <path class="cls-3" d="M203.45,51.56h11.12v1.68h-10.56c-.08.13-.27.23-.45.25l-.11-1.93Z"/>
      <path class="cls-3" d="M226.15,54.2c-1.11-.64-2.85-1.46-4.17-2v6.23h-1.78v-11.71l2.18.11c-.01.16-.12.29-.4.33v3.76l.33-.45c1.46.52,3.46,1.4,4.78,2.09l-.95,1.64Z"/>
    </g>
  </g>
</svg>