<?xml version="1.0" encoding="UTF-8"?>
<svg id="_レイヤー_1" data-name="レイヤー 1" xmlns="http://www.w3.org/2000/svg" xmlns:xlink="http://www.w3.org/1999/xlink" viewBox="0 0 650 200">
  <defs>
    <style>
      .cls-1 {
        fill: #1f7acc;
      }

      .cls-1, .cls-2, .cls-3, .cls-4 {
        stroke-width: 0px;
      }

      .cls-5 {
        clip-path: url(#clippath);
      }

      .cls-2 {
        fill: none;
      }

      .cls-3 {
        fill: #005bac;
      }

      .cls-4 {
        fill: #393c41;
      }
    </style>
    <clipPath id="clippath">
      <rect class="cls-2" x="39.33" y="71.67" width="571.34" height="56.66"/>
    </clipPath>
  </defs>
  <g class="cls-5">
    <g>
      <path class="cls-3" d="M177.93,123.87h3.76c.21-.01.4-.12.52-.3l15.56-25.47,8.46,29.14c.06.19.24.33.44.33h16.33c.13.01.24-.08.26-.21,0-.04,0-.08-.02-.11l-17.22-54.52c-.07-.19-.25-.32-.45-.33h-6.13c-.21,0-.41.12-.53.3l-20.98,32.51-20.97-32.51c-.12-.18-.32-.29-.54-.3h-6.13c-.2.01-.38.14-.45.33l-17.22,54.52c-.05.12,0,.25.13.3.04.02.08.02.12.02h16.32c.2,0,.38-.14.44-.33l8.46-29.14,15.56,25.47c.12.18.31.29.52.3h3.76Z"/>
      <path class="cls-3" d="M133.36,96.72h0c-.04-.17-.18-.29-.34-.29h-46.51c-2.46,0-4.46,2-4.45,4.46,0,2.46,1.99,4.45,4.45,4.45h27.64c-3.29,8.7-14.43,15.09-27.64,15.09-15.82,0-28.63-9.15-28.63-20.44s12.82-20.45,28.63-20.45c8.64,0,16.37,2.73,21.63,7.06.02.01.04.03.05.05.06.03.12.05.19.05h19.01c.19,0,.35-.15.35-.34,0-.08-.03-.16-.08-.21-.01-.02-.03-.02-.03-.04-8.1-8.63-23.47-14.44-41.12-14.44-26.05,0-47.18,12.68-47.18,28.33s21.12,28.33,47.18,28.33,47.17-12.68,47.17-28.33c0-1.1-.1-2.2-.31-3.28"/>
      <path class="cls-3" d="M269.36,71.67c-26.05,0-47.17,12.68-47.17,28.33s21.12,28.33,47.17,28.33,47.18-12.68,47.18-28.33-21.12-28.33-47.18-28.33M269.36,120.44c-15.81,0-28.63-9.15-28.63-20.44s12.82-20.45,28.63-20.45,28.64,9.16,28.64,20.45-12.82,20.44-28.64,20.44"/>
      <path class="cls-4" d="M515.4,126.7c-.04.44.29.84.73.87.03,0,.05,0,.08,0h9.85c.49,0,.9-.39.95-.88l1.69-22.56c.04-.45-.29-.84-.74-.88-.03,0-.05,0-.08,0h-9.85c-.49,0-.9.39-.95.88l-1.69,22.56Z"/>
      <path class="cls-4" d="M572.41,103.27c-.44,0-.81.35-.82.79,0,.03,0,.06,0,.08l1.71,22.56c.05.49.45.87.95.88h9.85c.49,0,1.41-.39,1.37-.88l-2.27-22.56c-.05-.49-.46-.87-.95-.88h-9.85Z"/>
      <path class="cls-4" d="M582.88,92.09c.49,0,.88-.4.88-.88v-9.48c0-.48-.4-.88-.88-.88h-26.34c-.49,0-.88-.39-.88-.88h0v-6.68c0-.48-.4-.88-.88-.88h-9.48c-.49,0-.88.39-.88.88v6.68c0,.49-.39.88-.88.88h-26.15c-.49,0-.88.39-.88.88v9.48c0,.49.4.88.88.88h26.15c.49,0,.88.39.88.88v33.73c0,.49.39.88.88.88h9.48c.48,0,.88-.39.88-.88v-33.73c0-.49.39-.88.88-.88h26.34Z"/>
      <path class="cls-4" d="M331.14,110.97c-.23.23-.23.61,0,.84l7.11,7.11c.23.23.61.23.84,0l25.77-25.77c.23-.23.61-.23.84,0,0,0,0,0,0,0l33.66,33.72c.23.23.61.23.84,0l7.11-7.11c.23-.23.23-.61,0-.84l-41.6-41.68c-.23-.23-.61-.23-.84,0l-33.73,33.73Z"/>
      <path class="cls-4" d="M426.1,126.99c-.04.28.15.54.43.58.03,0,.06,0,.09,0h10.92c.34,0,.62-.26.66-.59l5.91-49.11c.04-.28-.15-.54-.43-.58-.03,0-.06,0-.09,0h-10.92c-.34,0-.62.26-.66.59l-5.9,49.11Z"/>
      <path class="cls-4" d="M470.34,77.3c-.28,0-.52.22-.53.5,0,.03,0,.06,0,.09l5.96,49.11c.05.33.33.58.66.59h10.92c.29,0,.52-.22.53-.5,0-.03,0-.06,0-.09l-5.96-49.11c-.05-.33-.33-.58-.66-.59h-10.92Z"/>
      <path class="cls-1" d="M590.14,71.67h6.68c.49,0,.88.39.88.88v12.98c0,.49-.39.88-.88.88h-6.68c-.49,0-.88-.39-.88-.88v-12.98c0-.49.39-.88.88-.88Z"/>
      <path class="cls-1" d="M603.11,71.67h6.68c.49,0,.88.39.88.88v12.98c0,.49-.39.88-.88.88h-6.68c-.49,0-.88-.39-.88-.88v-12.98c0-.49.39-.88.88-.88Z"/>
      <path class="cls-1" d="M400.16,88.28c4.59,0,8.3-3.72,8.3-8.31s-3.72-8.3-8.31-8.3c-4.59,0-8.3,3.72-8.3,8.31,0,4.59,3.72,8.3,8.3,8.3h0"/>
      <path class="cls-1" d="M497.95,71.67c-4.59,0-8.31,3.72-8.31,8.3,0,4.59,3.72,8.31,8.3,8.31s8.31-3.72,8.31-8.3h0c0-4.59-3.72-8.3-8.3-8.31"/>
    </g>
  </g>
</svg>