<?xml version="1.0" encoding="UTF-8"?>
<svg id="_レイヤー_1" data-name="レイヤー 1" xmlns="http://www.w3.org/2000/svg" viewBox="0 0 280 80">
  <defs>
    <style>
      .cls-1 {
        fill: #3cdbc0;
      }
    </style>
  </defs>
  <path class="cls-1" d="M62,8.69l21.01,21.01v20.61l-20.65,20.65-41.41-20.71L41.72,8.69h20.27M62.68,7.04h-21.97l-21.97,43.95,43.95,21.97,21.97-21.97v-21.97L62.68,7.04Z"/>
  <path d="M49.99,44.94h3.41v14.56h-3.41v-14.56ZM51.69,37.53c-1.37,0-2.47,1.11-2.47,2.47s1.11,2.47,2.47,2.47,2.47-1.11,2.47-2.47-1.11-2.47-2.47-2.47Z"/>
  <path d="M210.38,48.3l.43-2.42h-4.77v-3.52h-3.35v11.87c0,2.41.2,5.6,4.47,5.6,1.12,0,2.36-.14,3.65-.49l-.43-2.45c-.72.21-1.74.4-2.65.4-1.63,0-1.69-1.54-1.69-3.08v-5.91h4.34Z"/>
  <path d="M165.15,48.4c-3.35-.59-4.63-1.33-4.63-3.1,0-1.63,1.85-2.29,3.68-2.29s3.58.49,4.74,1.11l.53-2.98c-1.3-.54-3.27-1.15-5.79-1.15-3.67,0-6.77,1.92-6.77,5.96,0,2.53,1.81,4.74,5.27,5.35,2.88.51,4.6,1.07,4.6,3.05s-2.38,2.56-4.18,2.56c-2.17,0-4.17-.93-5.04-1.42l-.54,3.03c.99.59,3.31,1.41,6.11,1.41,4.84,0,7.29-2.51,7.29-6.24s-2.59-4.83-5.26-5.3Z"/>
  <path d="M182.67,55.76c-.53.77-1.78,1.53-2.85,1.53-1.56,0-2.65-.81-2.65-3.36v-8.06h-3.35v8.06c0,4.44,2.66,5.9,5.29,5.9,1.49,0,2.71-.58,3.55-1.42v1.09c0,3.28-2.27,4.26-4.14,4.26-.83,0-1.94-.28-2.58-.61l-.44,2.52c.74.35,2.19.64,3.33.64,3.52,0,7.19-2.05,7.19-6.81v-13.62h-3.35v9.89Z"/>
  <path d="M219.06,45.55c-3.82,0-6.41,3-6.41,7.14,0,4.99,3.09,7.14,7.01,7.14,2.61,0,4.03-.57,4.8-.9l-.43-2.43c-.68.3-1.95.79-3.79.79-2.32,0-4.03-.9-4.35-3.62h9.13s.04-.48.04-.99c0-5.45-2.98-7.13-6-7.13ZM219.02,48.08c2.28,0,2.8,2.1,2.9,3.21h-5.94c.31-1.55,1.17-3.21,3.04-3.21Z"/>
  <path d="M243.24,45.55c-1.73,0-3.07.83-4.05,2.32-.91-1.69-2.54-2.32-4.27-2.32s-2.85.79-3.68,1.87l-.27-1.54h-2.69v13.62h3.35v-9.89c.53-.76,1.51-1.53,2.59-1.53,1.57,0,2.39.82,2.39,3.36v8.06h3.35v-8.06c0-.61-.05-1.16-.13-1.66.77-1.08,1.73-1.7,2.72-1.7,1.57,0,2.39.82,2.39,3.36v8.06h3.35v-8.06c0-4.44-2.4-5.9-5.03-5.9Z"/>
  <path d="M141.02,46.95c-.74-.77-2-1.4-3.61-1.4-2.44,0-6,1.7-6,6.95s2.5,7.34,5.99,7.34c2.39,0,3.66-1.37,4.01-1.87l.27,1.54h2.69v-20.22h-3.35v7.66ZM138.16,57.29c-1.99,0-3.4-1.23-3.4-4.61,0-2.88,1.41-4.61,3.41-4.61,1.22,0,2.38.9,2.85,1.54v6.14c-.3.51-1.56,1.53-2.86,1.53Z"/>
  <path d="M77.06,56.92c-4.33,0-6.43-2.75-6.43-6.95,0-3.36,1.83-6.95,6.43-6.95,1.8,0,3.34.5,4.27.91l.52-2.93c-.7-.33-2.5-1.01-4.78-1.01-6.63,0-10.16,4.51-10.16,9.97,0,6.52,4.15,9.97,10.16,9.97,2.38,0,4.29-.74,4.89-1.01l-.52-2.94c-.65.29-2.37.93-4.37.93Z"/>
  <path d="M94.22,55.76c-.53.77-1.78,1.53-2.85,1.53-1.56,0-2.65-.81-2.65-3.36v-8.06h-3.35v8.06c0,4.44,2.66,5.9,5.29,5.9,1.74,0,3.12-.79,3.94-1.87l.27,1.54h2.69v-13.62h-3.35v9.89Z"/>
  <path d="M108.33,45.55c-1.63,0-2.83.61-3.61,1.4v-7.66h-3.35v19.03c1.38.75,3.55,1.52,5.93,1.52,4.1,0,6.92-2.97,6.92-7.38,0-5.28-3.38-6.9-5.89-6.9ZM107.12,57.29c-1.1,0-1.94-.18-2.4-.37v-7.3c.46-.64,1.64-1.54,2.85-1.54,2.06,0,3.29,1.7,3.29,4.59s-1.52,4.62-3.74,4.62Z"/>
  <path d="M123.15,45.55c-3.82,0-6.41,3-6.41,7.14,0,4.99,3.09,7.14,7.01,7.14,2.61,0,4.03-.57,4.8-.9l-.43-2.43c-.68.3-1.95.79-3.79.79-2.32,0-4.03-.9-4.35-3.62h9.13s.04-.48.04-.99c0-5.45-2.98-7.13-6-7.13ZM123.11,48.08c2.28,0,2.8,2.1,2.9,3.21h-5.94c.31-1.55,1.17-3.21,3.04-3.21Z"/>
  <path d="M257.34,51.38c-2.14-.38-3.08-.82-3.08-1.93,0-1.18,1.27-1.38,2.19-1.38,1.09,0,2.89.44,3.69.87l.44-2.49c-1.26-.57-3.03-.91-4.48-.91-2.98,0-5.16,1.65-5.16,4.37,0,2.38,2.12,3.63,4.25,4,1.93.34,2.76.82,2.76,1.78,0,.89-.63,1.6-2.57,1.6-1.56,0-3.05-.57-4-1.1l-.44,2.49c.91.49,2.64,1.14,4.79,1.14,3.4,0,5.54-1.69,5.54-4.59,0-2.29-1.68-3.46-3.93-3.86Z"/>
  <path d="M195.84,51.38c-2.14-.38-3.08-.82-3.08-1.93,0-1.18,1.27-1.38,2.19-1.38,1.09,0,2.89.44,3.69.87l.44-2.49c-1.26-.57-3.03-.91-4.48-.91-2.98,0-5.16,1.65-5.16,4.37,0,2.38,2.12,3.63,4.25,4,1.93.34,2.76.82,2.76,1.78,0,.89-.63,1.6-2.57,1.6-1.56,0-3.05-.57-4-1.1l-.44,2.49c.91.49,2.64,1.14,4.79,1.14,3.4,0,5.54-1.69,5.54-4.59,0-2.29-1.68-3.46-3.93-3.86Z"/>
</svg>