<?xml version="1.0" encoding="UTF-8"?>
<svg id="_レイヤー_1" data-name="レイヤー 1" xmlns="http://www.w3.org/2000/svg" viewBox="0 0 500 200">
  <defs>
    <style>
      .cls-1 {
        fill: #c71108;
      }

      .cls-1, .cls-2 {
        fill-rule: evenodd;
        stroke-width: 0px;
      }

      .cls-2 {
        fill: #000;
      }
    </style>
  </defs>
  <g id="_レイヤー_2" data-name="レイヤー 2">
    <g id="_レイヤー_1-2" data-name="レイヤー 1-2">
      <path class="cls-2" d="M36.6,98.32v-11.37h67.58l1.3-.96,10.46,5.87c-3.86,10.26-7.15,21.66-14.94,29.51-9.39,9.67-22.81,14.04-35.1,17.75l-4.67-4.99c20.36-9.73,30.81-21.02,31.16-35.81h-55.78ZM45.88,80.68v-11.01h56.36v11.01h-56.36Z"/>
      <path class="cls-2" d="M170.55,67.28h11.01v8.69h-11.01v-8.69ZM188.01,67.28h10.67v8.54h-10.56l-.11-8.54ZM121.06,100.95c14.72-8.07,21.06-21.83,24.58-35.81l17.61,4.76-3.56,7.02h24.54l1.47-1.58,12.16,5.85c-9.57,26.11-27.86,45.21-54.84,57.3l-5.74-4.8c22.83-11.2,34.14-28.04,37.77-45.65h-23.37c-5.57,7.19-13.12,12.8-21.79,19.42l-8.83-6.51Z"/>
      <path class="cls-1" d="M276.57,66.42h8.81v8.92h-8.81v-8.92ZM288.16,66.57h9.18v8.77h-9.18v-8.77ZM205.19,90.47v-9.18h17.5v-15.58h15.26v15.39h19.76v-16.24h15.51v16.33h17.65v10.78h-17.07c0,9.11,1.17,19.89-5.76,28.1-2.62,3.14-21.34,14.94-25.39,15.9-6.62,1.64-6.76,0-5.76-3.35,7.11-4.87,14.94-11.42,18.93-18.69,3.8-6.83,2.99-14.3,2.94-21.81h-20.59v18.63h-15.22v-18.14h-17.75v-2.13Z"/>
      <path class="cls-2" d="M293.28,106.86c28.81-12.91,44-31.05,59.15-45.99l17.97,11.1c-8.25,7.54-17.38,14.04-27.21,19.36v43.13h-15.98v-34.95c-8.84,4.72-17.99,8.84-27.38,12.33l-6.55-4.97Z"/>
      <path class="cls-2" d="M377.02,78.69v-11.05h74.22l1.22-.98,10.95,7.87c-7.74,11.85-17.4,22.32-28.6,30.99l-5.44-6.23c6.72-4.27,10.2-9.33,9.11-20.59h-61.46ZM382.35,130.76c10.67-5.01,17.07-16.26,19.7-23.37,2.82-6.4,1.56-14.62,1.66-25.12h19.78c-.81,11.97-.64,23.47-6.25,31.48-6.02,8.54-17.07,14.94-28.42,20.59l-6.47-3.59Z"/>
    </g>
  </g>
</svg>