<?xml version="1.0" encoding="UTF-8"?>
<svg id="_レイヤー_1" data-name="レイヤー 1" xmlns="http://www.w3.org/2000/svg" viewBox="0 0 390 200">
  <defs>
    <style>
      .cls-1 {
        fill: #005ead;
        stroke-width: 0px;
      }
    </style>
  </defs>
  <g>
    <path class="cls-1" d="M53.48,143.95h-11.8v-3.24h6.99v-3.68h3.49v3.68h6.36v2c-1.57,2.08-3.12,3.76-4.65,5.04,3.24,1.34,5.67,2.65,7.3,3.92l-2.28,2.89c-2.61-1.92-4.86-3.38-6.73-4.34v8.64h-3.37v-7.42c-2.09,1.22-4.51,2.21-7.24,2.99l-2.22-3.21c5.68-1.08,10.4-3.5,14.15-7.28Z"/>
    <path class="cls-1" d="M63.68,143.75l2.94-1.02c1.22,1.95,2.18,4.12,2.87,6.55l-3,1.18c-.65-2.29-1.6-4.53-2.82-6.71ZM77.75,142.14l3.21.86c-.15,2.04-.51,4.11-1.08,6.23-1.38,5.23-5.52,8.4-12.42,9.52l-1.75-3.17c1.77-.02,3.66-.42,5.64-1.21,2.57-1.01,4.37-2.97,5.37-5.88.45-1.32.79-3.44,1.04-6.35ZM69.62,142.51l2.86-.94c1.05,2.19,1.87,4.44,2.42,6.74l-2.91,1.19c-.67-2.75-1.47-5.08-2.37-6.99Z"/>
    <path class="cls-1" d="M86.81,158.35v-20.97h3.71v6.13c5.35,1.72,9.34,3.38,11.98,4.99l-2.08,3.29c-3.3-1.99-6.59-3.59-9.89-4.77v11.33h-3.71Z"/>
    <path class="cls-1" d="M106.07,148.89v-10.07h19.1c0,3.91-.27,7.01-.79,9.29-1.29,6.51-6.28,9.98-15.02,10.39l-1.85-3.56c5.7-.1,9.54-1.39,11.5-3.89,1.42-1.68,2.16-4.64,2.2-8.87h-11.53v6.7h-3.62Z"/>
    <path class="cls-1" d="M128.59,149.72v-3.52h18.37v3.52h-18.37Z"/>
    <path class="cls-1" d="M157.46,137.16l3.94.21c-.21.85-.49,1.68-.82,2.5h9.63c-.45,5.22-1.87,9.37-4.28,12.45-2.26,2.93-6.36,5.1-12.3,6.52l-2.16-3.31c4.32-.82,7.49-2.01,9.5-3.59,2.59-1.86,4.25-4.79,4.97-8.77h-6.97c-1.52,2.86-3.57,5.29-6.16,7.29l-2.35-2.87c2.21-1.74,3.8-3.44,4.77-5.08.88-1.48,1.62-3.27,2.23-5.36Z"/>
    <path class="cls-1" d="M174.79,139.07h8.52v-2.25h3.6v2.25h8.1v3.06h-16.94v4.15c-.04,3.23-.22,5.55-.52,6.95-.44,2.06-1.12,3.92-2.04,5.59l-2.72-2.35c1.34-2.34,2-4.85,2-7.52v-9.87ZM179.4,146.65l2.8,1.21c-.45,4.46-1.13,7.83-2.01,10.08l-2.75-1.76c1-2.19,1.65-5.37,1.95-9.54ZM182.58,144.18l2.26-1.97c2.24,1.12,4.08,2.46,5.54,4.02l-2.33,2.52c-1.49-1.71-3.31-3.23-5.47-4.57ZM182.77,146.7h3.16v8.26c0,.49.17.73.52.73.9,0,1.4-.14,1.48-.42.1-.32.16-1.22.23-2.68l2.76,1.01c-.03,2.23-.16,3.59-.4,4.1-.21.44-.6.74-1.15.89-.56.15-1.56.23-3.01.23-1.59,0-2.58-.12-2.99-.37-.4-.21-.6-.77-.6-1.65v-10.09ZM189.58,148.38l2.87-1.19c1.49,2.71,2.52,5.65,3.06,8.8l-3.14,1.45c-.33-2.62-1.26-5.65-2.79-9.07Z"/>
    <path class="cls-1" d="M200.17,137.71h19.82v18.57c0,1.01-.15,1.69-.42,2.01-.42.51-1.25.76-2.5.76-.56,0-1.56-.02-3-.07l-1.21-3.22c.58,0,.95,0,1.11.02.61.02,1.1.03,1.47.03.87,0,1.3-.33,1.3-.99v-3.13h-5.44v6.74h-3.25v-6.74h-4.74c-.08,2.76-.91,5.26-2.51,7.52l-2.67-2.23c1.32-1.95,2-4.57,2.03-7.84v-11.42ZM203.42,143.39h4.63v-2.77h-4.63v2.77ZM203.42,148.86h4.63v-2.74h-4.63v2.74ZM211.31,143.39h5.44v-2.77h-5.44v2.77ZM211.31,148.86h5.44v-2.74h-5.44v2.74Z"/>
    <path class="cls-1" d="M223.04,155.35c1.29-.88,2.29-1.62,2.98-2.23v-5.05h-2.66v-3.21h5.81v8.54c.45.79,1.09,1.39,1.93,1.79.78.37,2.44.55,5,.55,3.67,0,7.04-.13,10.13-.38l-1.59,3.58c-1.71.03-3.28.04-4.68.04-5.18,0-8.29-.22-9.33-.66-1.09-.45-2.09-1.35-3-2.69-.88,1.21-1.81,2.31-2.78,3.31l-1.83-3.58ZM223.61,138.79l2.46-1.97c1.65,1.57,2.93,2.92,3.87,4.05l-2.54,2.28c-1.1-1.54-2.37-2.98-3.79-4.35ZM230.01,139.95v-2.57h13.83v1.58c-1.38,1.04-2.91,2.13-4.58,3.27h5.48v10.52c0,1.08-.4,1.76-1.19,2.01-.48.15-1.17.22-2.06.22-.24,0-.59-.01-1.04-.03l-.82-2.58c.6.03,1,.04,1.24.04.58,0,.86-.17.86-.53v-.76h-2.85v3.56h-2.78v-3.56h-2.6v3.71h-2.9v-12.6h2.93l-1.6-1.02,1.5-1.27h-3.42ZM233.5,145.66h2.6v-1.27h-2.6v1.27ZM233.5,149.03h2.6v-1.27h-2.6v1.27ZM234.21,139.95c.97.55,1.84,1.07,2.56,1.57l1.92-1.57h-4.48ZM238.86,149.03h2.87v-1.27h-2.87v1.27ZM238.89,145.66h2.85v-1.27h-2.85v1.27Z"/>
    <path class="cls-1" d="M251.56,136.82l3.27.22c-.41,1.91-.95,3.71-1.65,5.42v16.64h-3.04v-11c-.4.74-.83,1.39-1.26,1.95l-1.43-3.27c1.98-2.46,3.36-5.79,4.11-9.96ZM254.34,143.66v-2.66h16.2v2.66h-16.2ZM254.77,158.95v-8.06h14.48v8.13h-3.07v-.84h-8.4v.77h-3.01ZM255.58,140.14v-2.41h12.98v2.41h-12.98ZM255.58,146.81v-2.38h12.98v2.38h-12.98ZM255.58,149.96v-2.35h12.98v2.35h-12.98ZM257.78,155.55h8.4v-2.17h-8.4v2.17Z"/>
    <path class="cls-1" d="M276.92,140.8h-3.24v-3.15h9.37v3.15h-2.91c-.56,1.68-1.16,3.18-1.8,4.5h4.71v11.31h-4.86v1.76h-2.85v-7.75c-.63.66-1.1,1.2-1.45,1.61l-1.29-3.58c1.75-1.79,3.2-4.41,4.31-7.84ZM278.2,153.62h2.07v-5.47h-2.07v5.47ZM285.51,149.48h-1.84v-3.16h1.91v-5.55h-1.86v-3.15h11.38v3.18h-1.67v5.52h2.11v3.16h-2.11v9.61h-3v-9.61h-2.06c-.04,2.56-.29,4.5-.76,5.84-.53,1.37-1.41,2.69-2.65,3.96l-2.52-2.08c1.32-1.05,2.19-2.25,2.59-3.61.25-.77.4-2.14.47-4.11ZM288.43,146.32h2.01v-5.55h-2.01v5.55Z"/>
    <path class="cls-1" d="M304.78,141.63h-2.83v2.41h-3.28v-5.12h8.9v-2.04h3.44v2.04h8.94v4.73h-3.29v-2.02h-3.08v2.66c0,.55.1.9.31,1.03.18.11.74.18,1.68.18s1.48-.11,1.63-.32c.05-.1.11-.5.17-1.21l3.08.71c-.05,1.43-.19,2.33-.41,2.7-.31.53-1.7.79-4.17.79s-4.15-.12-4.71-.37c-.51-.25-.75-.86-.75-1.86v-4.33h-2.49c-.09,2.7-.97,4.63-2.62,5.78-1.14.73-3.04,1.21-5.7,1.46l-1.62-2.81c2.71-.17,4.46-.46,5.23-.89.94-.55,1.45-1.72,1.54-3.54ZM305.84,152.19h-6.62v-2.77h6.86v-2.13h3.29v2.13h6.6l-.03.84-.05,1.82c-.04,1.31-.07,2.09-.07,2.32,0,.69.04,1.11.12,1.28.08.2.31.29.69.29.53,0,.81-.57.81-1.72,0-.5.02-.87.02-1.14l2.95.86c-.04,1.94-.17,3.21-.41,3.81-.24.55-.66.9-1.27,1.07-.5.11-1.32.18-2.47.18-2.02,0-3.15-.27-3.39-.82-.17-.38-.26-1.33-.26-2.85,0-.33,0-1.19.04-2.57v-.6h-3.42c-.67,4.08-3.75,6.52-9.24,7.35l-1.97-2.82c2.05-.28,3.67-.7,4.86-1.26,1.49-.71,2.48-1.8,2.96-3.27Z"/>
    <path class="cls-1" d="M324.1,142.7h9.43v9.94h-3v-1.18h-3.43c-.18,3.25-1,5.83-2.43,7.72l-2.46-2.25c1.24-1.75,1.87-3.72,1.89-5.9v-8.34ZM322.99,140.63v-3h11.16v3h-11.16ZM327.13,148.75h3.39v-3.21h-3.39v3.21ZM342.89,136.82l2.13,2.85c-1.57.58-3.86,1.14-6.87,1.69v3.29h7.02v3.13h-2.17v11.4h-3.09v-11.4h-1.81c.02,2.42-.2,4.43-.66,6.06-.6,2.02-1.76,3.85-3.51,5.47l-2.27-2.4c1.47-1.27,2.44-2.68,2.9-4.24.31-1.05.5-2.6.56-4.64v-9.02c2.1-.27,4.71-1,7.78-2.17Z"/>
  </g>
  <g>
    <path class="cls-1" d="M144.02,50.24l-20,70.32h-24.54l-22.84-45.24-12.73,45.24h-23.56l20-70.32h24.12l23.5,44.01,12.34-44.01h23.71Z"/>
    <path class="cls-1" d="M181.8,114.87c-1.48,1.3-.27.67-3.73,2.28-5.69,2.67-12.5,3.38-18.64,3.47-14.24.22-27.88-5.41-23.6-19.7,3.94-13.11,21.27-13.69,37.84-14.45,14.51-.67,14.79-1.83,17.23-3.65,2.25-1.68,2.23-8.75-7.84-8.75-11.01,0-14.12,3.84-15.08,7.09l-23.06-.17c2.42-6.61,5.07-12.96,20.35-16.76,6.46-1.63,14.66-1.45,21.27-1.45,10.23,0,20.8,1.51,26.06,6.07,5.14,4.46,4.04,9.77,1.3,19.1l-4.91,16.72c-2.62,8.89-2.69,10.19-2.22,14.97h-23.59l-1.36-4.78ZM178.67,96.11c-10.76.69-17.21,1.87-18.71,6.96-.35,1.2.83,6.31,8.54,6.31,6.77,0,11.58-1.96,14.29-4.78,2.94-3.04,3.96-7.05,4.6-9.77-2.05.54-3.57.93-8.72,1.27Z"/>
    <path class="cls-1" d="M287.96,75.36c-.41-11.29-11.49-11.79-15.18-11.79-6.34,0-14.1,3.47-17.5,6.47-3.88,3.57-7.05,8.3-8.41,16.27-.47,2.78-1.35,11.29,4.89,16.76,3.43,3.02,7.28,3.49,12.74,3.49,2.81,0,13.84,0,19.94-12.45l24.69-.17c-6.78,23.4-27.27,27.72-50.59,27.38-26.77-.38-39.59-15.76-36.35-36.68,3.4-21.89,23.38-36.19,49.09-36.19,14.26,0,40.01,1.83,41.64,26.9h-24.96Z"/>
    <path class="cls-1" d="M350.66,40.46l-19.45,69.67c-.04.38.06.76.42.89h9.55s-2.71,9.54-2.71,9.54c0,0-16.25.56-19.95-1.62-4.05-2.25-5.15-7.42-5.22-12.36-.11-3.04,13.46-50.26,13.46-50.26,0,0,.74-1.58-.04-1.58l-5.06.02,3.56-14.3h25.43Z"/>
  </g>
</svg>