<?xml version="1.0" encoding="UTF-8"?>
<svg id="_レイヤー_1" data-name="レイヤー 1" xmlns="http://www.w3.org/2000/svg" viewBox="0 0 670 200">
  <defs>
    <style>
      .cls-1 {
        fill: #53565a;
      }

      .cls-1, .cls-2 {
        stroke-width: 0px;
      }

      .cls-2 {
        fill: #97999b;
      }

      .cls-3 {
        opacity: 0;
      }
    </style>
  </defs>
  <path class="cls-2" d="M81.14,131.61h36.12v-63.36h-22.17v41.17h-15.85l1.9,22.19Z"/>
  <path class="cls-2" d="M76.09,90.42h15.82l-1.9-22.17h-36.12v82.36h22.19v-60.19Z"/>
  <path class="cls-2" d="M111.24,158.65c-3.62.04-6.52,3.01-6.47,6.62s3.01,6.52,6.62,6.47c3.59-.04,6.47-2.96,6.47-6.55,0-3.61-2.92-6.55-6.54-6.55-.03,0-.06,0-.09,0ZM111.24,169.69c-2.48.1-4.57-1.83-4.67-4.31-.1-2.48,1.83-4.57,4.31-4.67,2.48-.1,4.57,1.83,4.67,4.31,0,.06,0,.12,0,.18.04,2.43-1.89,4.44-4.31,4.49h0Z"/>
  <path class="cls-2" d="M57.49,166.14h6.32v-2.01h-6.32v-3.24h7.09v-2.03h-9.36v12.67h9.5v-2.01h-7.22v-3.37Z"/>
  <path class="cls-2" d="M126.87,169.51v-10.66h-2.3v12.67h8.87v-2.01h-6.57Z"/>
  <path class="cls-2" d="M43.99,158.85h-5.01v12.67h2.28v-4.04h2.73c2.47.16,4.59-1.71,4.75-4.17,0-.05,0-.09,0-.14.09-2.31-1.7-4.26-4.01-4.35-.25-.01-.5,0-.75.04ZM43.79,165.45h-2.52v-4.55h2.53c1.88,0,2.73,1.03,2.73,2.28s-.98,2.28-2.72,2.28h0Z"/>
  <path class="cls-2" d="M82.32,163.17c.1-2.31-1.7-4.26-4-4.35-.25-.01-.51,0-.76.04h-5.01v12.67h2.28v-4.04h2.48l2.84,4.04h2.66l-3.13-4.47c1.59-.64,2.63-2.18,2.64-3.89ZM77.39,165.44h-2.53v-4.55h2.53c1.88,0,2.73,1.03,2.73,2.28s-.98,2.28-2.73,2.28Z"/>
  <path class="cls-2" d="M97.21,165.09c-.93-.52-1.93-.88-2.97-1.07-2.17-.54-2.5-.94-2.5-1.66,0-1.1,1.07-1.59,2.12-1.59,1.25.05,2.45.46,3.46,1.18.4.26.77.58,1.1.94v-2.79c-1.34-.93-2.92-1.44-4.55-1.48-2.14-.21-4.04,1.35-4.25,3.49,0,.08-.01.16-.02.24,0,2.7,2.59,3.35,4.14,3.73,2.39.6,2.95.96,2.95,1.97.02.44-.2.87-.58,1.1-.61.32-1.3.47-1.99.42-1.65-.14-3.2-.81-4.43-1.92v2.69s.07.05.11.07c1.3.8,2.79,1.26,4.31,1.34,2.9,0,4.72-1.41,4.72-3.67.05-1.22-.57-2.36-1.62-2.98Z"/>
  <g class="cls-3">
    <path class="cls-2" d="M79.24,90.58h15.85v41.17h22.17v-63.36h-36.12l-1.9,22.19Z"/>
    <path class="cls-2" d="M76.09,49.39h-22.19v82.36h36.12l1.9-22.17h-15.82v-60.19Z"/>
    <path class="cls-2" d="M111.33,41.35c3.61,0,6.54-2.94,6.54-6.55,0-3.59-2.89-6.51-6.47-6.55-3.62-.04-6.58,2.86-6.62,6.47s2.86,6.58,6.47,6.62c.03,0,.06,0,.09,0ZM111.24,30.31c2.43.05,4.36,2.06,4.31,4.49,0,.06,0,.12,0,.18-.1,2.48-2.19,4.41-4.67,4.31-2.48-.1-4.41-2.19-4.31-4.67.1-2.48,2.19-4.41,4.67-4.31h0Z"/>
    <path class="cls-2" d="M57.49,30.49h7.22v-2.01h-9.5v12.67h9.36v-2.03h-7.09v-3.24h6.32v-2.01h-6.32v-3.37Z"/>
    <path class="cls-2" d="M133.44,30.49v-2.01h-8.87v12.67h2.3v-10.66h6.57Z"/>
    <path class="cls-2" d="M44.75,41.18c2.31-.09,4.1-2.04,4.01-4.35,0-.05,0-.09,0-.14-.16-2.47-2.29-4.33-4.75-4.17h-2.73v-4.04h-2.28v12.67h5.01c.25.03.5.05.75.04ZM43.79,34.55c1.74,0,2.72,1.04,2.72,2.28s-.85,2.28-2.73,2.28h-2.53v-4.55h2.53Z"/>
    <path class="cls-2" d="M79.69,32.94l3.13-4.47h-2.66l-2.84,4.04h-2.48v-4.04h-2.28v12.67h5.01c.25.04.5.05.76.04,2.31-.1,4.1-2.04,4-4.35,0-1.71-1.05-3.25-2.64-3.89ZM80.11,36.83c0,1.24-.85,2.28-2.73,2.28h-2.53v-4.55h2.53c1.74,0,2.73,1.03,2.73,2.28Z"/>
    <path class="cls-2" d="M98.83,31.93c0-2.26-1.82-3.67-4.72-3.67-1.53.08-3.01.54-4.31,1.34-.05.02-.07.04-.11.07v2.69c1.22-1.11,2.78-1.79,4.43-1.92.69-.04,1.38.11,1.99.42.38.23.61.65.58,1.1,0,1.01-.56,1.36-2.95,1.97-1.55.37-4.14,1.02-4.14,3.73,0,.08,0,.16.02.24.21,2.14,2.12,3.7,4.25,3.49,1.63-.04,3.21-.55,4.55-1.48v-2.79c-.32.36-.69.67-1.1.94-1.01.73-2.22,1.14-3.46,1.18-1.05,0-2.12-.49-2.12-1.59,0-.72.34-1.12,2.5-1.66,1.04-.19,2.05-.56,2.97-1.07,1.05-.62,1.67-1.77,1.62-2.98Z"/>
  </g>
  <path class="cls-1" d="M193.63,82.58c7.59,14.31,12.75,29.79,15.26,45.79l6.3-1.52c-2.76-16.4-8.24-32.22-16.23-46.8l-5.34,2.53Z"/>
  <path class="cls-1" d="M161.29,126.51l5.59,3c4.2-6.68,13.03-20.78,16.16-48.27l-6.04-.89c-3.04,25.57-10.44,37.97-15.71,46.17Z"/>
  <path class="cls-1" d="M213.52,72.34c-4.88.01-8.82,3.98-8.81,8.85.01,4.88,3.98,8.82,8.85,8.81,4.87-.01,8.81-3.96,8.81-8.83,0-4.88-3.96-8.83-8.84-8.83,0,0,0,0-.01,0ZM213.52,86.06c-2.7.06-4.94-2.09-5-4.79s2.09-4.94,4.79-5c.07,0,.13,0,.2,0h0c2.7.06,4.85,2.29,4.79,5-.05,2.62-2.17,4.74-4.79,4.79Z"/>
  <rect class="cls-1" x="225.33" y="100.96" width="54.69" height="6.03"/>
  <path class="cls-1" d="M301.74,99.43c-3.1-6.24-7.08-11.99-11.82-17.1l-4.97,2.79c4.52,5.3,8.31,11.17,11.26,17.48l5.52-3.17Z"/>
  <path class="cls-1" d="M289.94,125.69l3.69,5.1c30.02-7.58,37.21-29.64,41.21-48.97l-6.37-1.14c-4.18,23.51-13.34,39.47-38.53,45.01Z"/>
  <path class="cls-1" d="M369.75,123.27v-45.03h-5.72v52.07c22.5-1.97,27.74-16.54,30.53-29.26l-5.41-2.28c-3.44,19.6-11.58,22.08-19.4,24.49Z"/>
  <path class="cls-1" d="M347.58,95.99c0,16.92-3.75,24.16-10.82,31.22l4.2,4.27c6.55-6.37,12.27-15.4,12.27-35.94v-15.51h-5.66v15.96Z"/>
  <path class="cls-1" d="M469.28,104.57l-24.36,2.38-1.32-12.99,20.92-1.97-.45-5.48-21.05,1.97-1.21-11.13-5.92.51,1.21,11.2-20.72,1.97.45,5.48,20.85-1.97,1.34,12.9-24.36,2.36.45,5.38,24.47-2.28,2.03,18.95,5.92-.31-2.03-19.21,24.16-2.28-.38-5.48Z"/>
  <path class="cls-1" d="M493.83,87.62l-5.27.58,1.72,10.75-12.65,1.86.69,4.97,12.72-1.9,4.31,27.91,5.41-.58-4.51-28.15,18.88-2.86c-1.47,6.21-5.45,11.53-11,14.68l3.93,3.75c8.01-5.47,12.91-14.46,13.16-24.16l-25.75,3.69-1.65-10.56Z"/>
  <path class="cls-1" d="M563.41,105.77c0,16.23-12.2,19.02-29.39,19.85l1.72,5.54c16.23-1.03,33.64-4.51,33.64-25.75v-27.04h-5.96v27.4Z"/>
  <rect class="cls-1" x="531.08" y="79.4" width="5.86" height="34.15"/>
  <path class="cls-1" d="M579.65,125.64l3.89,4.76c20.61-9.92,21.57-26.39,21.68-38.73l-5.92-.07c.07,14.14-2.17,26.55-19.65,34.04Z"/>
  <path class="cls-1" d="M578.49,80.23v5.48h45.28c-1.41,5.03-4.07,11.31-16.4,16.4l3.69,4.58c8.2-4.2,17.48-9.61,19.96-26.46h-52.52Z"/>
</svg>