<?xml version="1.0" encoding="UTF-8"?>
<svg id="_レイヤー_1" data-name="レイヤー 1" xmlns="http://www.w3.org/2000/svg" viewBox="0 0 370 200">
  <defs>
    <style>
      .cls-1 {
        fill: #0096fa;
        stroke-width: 0px;
      }
    </style>
  </defs>
  <path class="cls-1" d="M122.9,80.68c-7.56-6.6-18.14-10.41-30.44-10.41-32.05,0-53.86,24.72-53.86,24.72l6.14,9.75s3.4.28,1.6-5.46c1.55-2.93,4.6-6.88,10.53-11.44v64.91c-2.56.72-5.94,2.08-3.64,4.39h17.65c2.33-2.33-1.34-3.73-3.58-4.39v-15.31s12.1,4.75,25.14,4.75c11.46,0,21.89-3.41,29.65-9.56,7.76-6.12,12.75-15.26,12.72-25.7.02-10.26-4.37-19.67-11.93-26.24ZM113.55,127.5c-5.36,5.29-13.16,8.64-22.16,8.63-10.04,0-18.49-1.94-24.07-4.68v-48.7c6.12-4.35,16.05-7.03,24.07-7.01,9.74,0,17.39,3.69,22.56,9.27,5.16,5.62,7.98,13.08,8.01,21.75-.03,8.45-3.04,15.41-8.41,20.74Z"/>
  <path class="cls-1" d="M146.85,70.27h3.59c1.59,0,2.89,1.29,2.89,2.89v66.39c0,1.59-1.29,2.89-2.89,2.89h-3.59c-1.59,0-2.89-1.29-2.89-2.89v-66.39c0-1.59,1.29-2.89,2.89-2.89Z"/>
  <path class="cls-1" d="M240.79,70.27h3.59c1.59,0,2.89,1.29,2.89,2.89v66.39c0,1.59-1.29,2.89-2.89,2.89h-3.59c-1.59,0-2.89-1.29-2.89-2.89v-66.39c0-1.59,1.29-2.89,2.89-2.89Z"/>
  <path class="cls-1" d="M328.89,70.27h-3.34c-2.63,0-3.35.34-4.54,2.71-1.18,2.36-27.21,53.94-27.21,53.94,0,0-26.03-51.58-27.21-53.94-1.18-2.37-1.91-2.71-4.54-2.71h-3.34c-2.46,0-3.79,1.09-2.4,3.88,1.39,2.79,33.45,65.71,33.45,65.71.84,1.59,2.38,2.58,4.05,2.58s3.2-.98,4.05-2.58h0c.06-.12,32.06-62.93,33.44-65.71,1.39-2.78.06-3.88-2.4-3.88Z"/>
  <path class="cls-1" d="M216,140.02c1.36,1.73,2.33,2.41,4.96,2.41h5.39c3.39,0,2.2-1.54,1.24-2.81-2.4-3.16-26.02-33.19-26.02-33.19,0,0,24.47-30.2,26.87-33.36.96-1.26,2.15-2.8-1.24-2.8h-5.39c-2.63,0-3.6.68-4.96,2.41-1.36,1.73-21.25,26.18-21.25,26.18,0,0-19.9-24.45-21.26-26.18-1.36-1.73-2.33-2.41-4.96-2.41h-5.39c-3.39,0-2.2,1.54-1.24,2.8,2.4,3.16,26.89,33.36,26.89,33.36,0,0-24.34,30.03-26.73,33.19-.96,1.26-2.15,2.81,1.24,2.81h5.39c2.63,0,3.6-.68,4.96-2.41,1.36-1.73,21.11-26.02,21.11-26.02,0,0,19.04,24.29,20.39,26.02Z"/>
  <path class="cls-1" d="M148.64,42.39c-2.14,0-3.93.72-5.36,2.14-1.43,1.43-2.14,3.21-2.14,5.36s.71,3.93,2.14,5.36c1.43,1.43,3.21,2.14,5.36,2.14s3.93-.72,5.35-2.14c1.43-1.43,2.14-3.21,2.14-5.36s-.71-3.93-2.14-5.36c-1.43-1.43-3.21-2.14-5.35-2.14Z"/>
  <path class="cls-1" d="M242.58,42.39c-2.14,0-3.93.72-5.35,2.14-1.43,1.43-2.14,3.21-2.14,5.36s.71,3.93,2.14,5.36c1.43,1.43,3.21,2.14,5.35,2.14s3.93-.72,5.36-2.14c1.43-1.43,2.14-3.21,2.14-5.36s-.72-3.93-2.14-5.36c-1.43-1.43-3.21-2.14-5.36-2.14Z"/>
</svg>