<?xml version="1.0" encoding="UTF-8"?>
<svg id="_レイヤー_1" data-name="レイヤー 1" xmlns="http://www.w3.org/2000/svg" viewBox="0 0 580 200">
  <defs>
    <style>
      .cls-1 {
        fill: #c91c1d;
      }

      .cls-1, .cls-2 {
        stroke-width: 0px;
      }

      .cls-2 {
        fill: #323333;
      }
    </style>
  </defs>
  <g id="_レイヤー_2" data-name="レイヤー 2">
    <g id="_デザイン" data-name="デザイン">
      <path class="cls-1" d="M108.33,95.94c-.89,0-1.61-.72-1.61-1.61v-10.53c.12-.9.95-1.53,1.85-1.41.73.1,1.31.68,1.41,1.41v10.53c-.02.9-.75,1.61-1.64,1.61Z"/>
      <path class="cls-1" d="M95.86,97.64c.63-.6.65-1.61.05-2.24-.02-.02-.03-.03-.05-.05l-7.45-7.45c-.63-.63-1.66-.63-2.29,0s-.63,1.66,0,2.29h0l7.45,7.45c.3.3.71.47,1.14.47.43,0,.84-.16,1.14-.47Z"/>
      <path class="cls-1" d="M123.11,97.64l7.45-7.45c.63-.63.63-1.66,0-2.29-.63-.63-1.66-.63-2.29,0l-7.45,7.48c-.63.6-.65,1.61-.05,2.24.02.02.03.03.05.05.3.31.71.48,1.14.47.43,0,.85-.18,1.14-.5Z"/>
      <path class="cls-1" d="M109.06,138.9l6.69-3.34c.79-.41,1.12-1.37.73-2.17-.42-.8-1.39-1.12-2.2-.73l-5.87,2.93-5.87-2.93c-.81-.4-1.79-.06-2.18.75-.4.81-.06,1.79.75,2.18l6.69,3.34c.22.12.46.18.7.18.2-.03.39-.1.56-.21Z"/>
      <path class="cls-1" d="M173.14,146.97V53c0-.56-.29-1.08-.76-1.38-.49-.28-1.09-.28-1.58,0l-39.77,19.83v-18.45c0-.56-.29-1.08-.76-1.38-.49-.28-1.09-.28-1.58,0l-39.77,19.83v-18.45c0-.57-.3-1.09-.79-1.38-.48-.28-1.07-.28-1.55,0l-42.12,21c-.56.26-.91.82-.91,1.44v72.91c0,.89.72,1.61,1.61,1.61.87.02,1.6-.68,1.61-1.55,0-.02,0-.04,0-.06v-71.91l38.89-19.42v18.42c0,.56.29,1.08.76,1.38.5.26,1.09.26,1.58,0l39.77-19.8v18.42c0,.57.32,1.1.82,1.38.48.27,1.07.27,1.55,0l39.77-19.8v89.6h-37.51c7.81-13.3,3.35-30.41-9.94-38.21-13.3-7.81-30.41-3.35-38.21,9.94-2.53,4.3-3.85,9.2-3.84,14.19-.02.89.69,1.63,1.58,1.64,0,0,.02,0,.03,0,.9-.02,1.61-.75,1.61-1.64-.05-13.65,10.98-24.76,24.64-24.81,13.65-.05,24.76,10.98,24.81,24.64.02,5.42-1.74,10.69-5.01,15.01-.35.5-.41,1.15-.15,1.7.28.54.83.88,1.44.88h42.17c.89,0,1.61-.72,1.61-1.61h0Z"/>
      <circle class="cls-1" cx="115.01" cy="127.79" r="1.94"/>
      <circle class="cls-1" cx="101.67" cy="127.79" r="1.94"/>
      <path class="cls-2" d="M271.1,99.43l15.19-15.4c1.12-1.14,1.12-2.97,0-4.11h0c-1.14-1.14-2.99-1.14-4.14,0l-19.27,19.5c-1.12,1.14-1.12,2.97,0,4.11l19.27,19.42c1.14,1.14,2.99,1.14,4.14,0h0c1.12-1.14,1.12-2.97,0-4.11l-15.16-15.31c-1.13-1.13-1.14-2.96-.03-4.11Z"/>
      <rect class="cls-2" x="396.36" y="78.08" width="5.84" height="17.51" rx="1" ry="1"/>
      <path class="cls-2" d="M394.39,83.91h0c-.02-1.06-.87-1.92-1.94-1.94h-7.8c-1.07,0-1.94-.87-1.94-1.94,0,0,0-.02,0-.03h0c-.02-1.05-.86-1.9-1.91-1.94h-1.94c-1.07,0-1.94.87-1.94,1.94h0c0,1.09-.88,1.96-1.96,1.96h-1.94c-1.09,0-1.96-.88-1.96-1.96h0c0-1.07-.87-1.94-1.93-1.94-.02,0-.04,0-.06,0h-1.94c-1.07,0-1.95.86-1.96,1.94v3.9c0,1.09.88,1.96,1.96,1.96h8.8c.53-.02.98.4,1,.94,0,0,0,.02,0,.03h0c-.02.54-.46.97-1,.97h-8.8c-1.07,0-1.95.86-1.96,1.94h0c0,1.09.88,1.96,1.96,1.96h8.8c.54,0,.98.43,1,.97h0c-.02.54-.46.97-1,.97h-8.33c-1.34,0-2.43,1.09-2.43,2.43h0v6.8c0,1.34,1.09,2.43,2.43,2.43h1c1.33-.02,2.4-1.1,2.4-2.43v-3.87c0-1.34,1.09-2.43,2.43-2.43h2.43c.53-.02.98.4,1,.94,0,0,0,.02,0,.03v5.34c0,1.34,1.09,2.43,2.43,2.43h.97c1.34,0,2.43-1.09,2.43-2.43h0v-5.34c0-.53.43-.97.97-.97h2.43c1.34,0,2.43,1.09,2.43,2.43h0c0,1.34,1.09,2.43,2.43,2.43h.97c1.34,0,2.43-1.09,2.43-2.43h0v-2.93c0-1.34-1.09-2.43-2.43-2.43h-8.21c-.53,0-.97-.43-.97-.97h0c0-.53.43-.97.97-.97h8.8c1.07-.02,1.94-.89,1.94-1.96h0c-.02-1.06-.87-1.92-1.94-1.94h-8.8c-.53,0-.97-.43-.97-.97h0c0-.53.43-.97.97-.97h8.8c1.04-.06,1.85-.92,1.85-1.96Z"/>
      <path class="cls-2" d="M406.07,81.01v15.57c0,1.62-1.31,2.93-2.93,2.93h-3.9c-1.62,0-2.93,1.31-2.93,2.93h0c0,1.62,1.31,2.93,2.93,2.93h9.74c1.62,0,2.93-1.31,2.93-2.93v-21.44c0-1.62-1.31-2.93-2.93-2.93h0c-1.61.02-2.9,1.32-2.9,2.93Z"/>
      <path class="cls-2" d="M409.97,107.29h-15.57c-1.07,0-1.94-.87-1.94-1.94,0,0,0-.02,0-.03h0c-.02-1.07-.89-1.94-1.96-1.94h-1.94c-1.07,0-1.95.86-1.96,1.94h0c.02,1.07-.84,1.95-1.91,1.96,0,0-.02,0-.03,0h-17.6c-1.07-.02-1.95.84-1.96,1.91,0,0,0,.02,0,.03h0c0,1.07.87,1.94,1.94,1.94,0,0,.02,0,.03,0h3.26c1.07-.01,1.94.85,1.96,1.91,0,.54-.21,1.06-.61,1.43l-5.13,5.02c-.77.77-.77,2.01,0,2.78,0,0,0,0,0,0h0c.74.75,1.94.77,2.7.03.01-.01.02-.02.03-.03l4.25-4.14c.79-.75,2.03-.71,2.78.08.34.36.53.83.54,1.33v3.28c0,1.07.87,1.94,1.94,1.94h17.6c1.07,0,1.95-.86,1.96-1.94h0c0-1.09-.88-1.96-1.96-1.96h-11.73c-1.05.02-1.92-.82-1.94-1.88,0-.02,0-.04,0-.06v-5.87c-.02-1.07.84-1.95,1.91-1.96,0,0,.02,0,.03,0h5.46c.51,0,.99.2,1.35.56l12.44,11.73c.75.73,1.95.73,2.7,0h0c.77-.74.79-1.97.05-2.74-.02-.02-.03-.03-.05-.05l-.67-.65c-.77-.74-.79-1.97-.05-2.74.02-.02.03-.03.05-.05l5.48-5.48c.36-.37.56-.86.56-1.38v-1.14c0-1.05-.85-1.91-1.91-1.91-.02,0-.04,0-.06,0ZM400.23,114.68h-.15c-.78-.76-.79-2-.04-2.78.36-.37.86-.59,1.39-.59h.26c1.09.01,1.96.9,1.94,1.99,0,.51-.21.99-.56,1.36h0c-.74.79-1.98.84-2.78.1-.02-.02-.05-.04-.07-.07Z"/>
      <path class="cls-2" d="M474.19,85.76h0c0-1.62-1.31-2.93-2.93-2.93h-8.8c-.68,0-1.23-.56-1.22-1.24,0-.21.06-.42.16-.61h0c.35-.58.16-1.34-.42-1.69,0,0-.01,0-.02-.01l-1.47-.85c-1.4-.8-3.18-.31-3.99,1.09l-8.97,15.54c-.8,1.39-.33,3.17,1.06,3.99h0c1.39.8,3.17.33,3.99-1.06l4.55-7.86c.52-.9,1.48-1.46,2.52-1.47h1.03c1.62,0,2.93,1.31,2.93,2.93v30.18c0,1.62,1.31,2.93,2.93,2.93h0c1.62,0,2.93-1.31,2.93-2.93v-2.93c0-1.62,1.31-2.93,2.93-2.93h0c1.62,0,2.93-1.31,2.93-2.93h0c0-1.62-1.31-2.93-2.93-2.93h0c-1.62,0-2.93-1.31-2.93-2.93v-1.94c0-1.62,1.31-2.93,2.93-2.93h0c1.62,0,2.93-1.31,2.93-2.93h0c0-1.62-1.31-2.93-2.93-2.93h0c-1.62,0-2.93-1.31-2.93-2.93v-1.96c0-1.62,1.31-2.93,2.93-2.93h0c1.51-.07,2.71-1.28,2.79-2.79Z"/>
      <path class="cls-2" d="M440.85,78.46h0c-1.4-.8-3.18-.31-3.99,1.09l-8.97,15.54c-.8,1.39-.33,3.17,1.06,3.99l1.85,1.09c.9.52,1.46,1.48,1.47,2.52v19.09c0,1.62,1.31,2.93,2.93,2.93h0c1.62,0,2.93-1.31,2.93-2.93v-31.94c.01-.51.15-1,.41-1.44l3.4-5.87c.84-1.39.39-3.19-1-4.03-.03-.02-.06-.03-.09-.05Z"/>
      <path class="cls-2" d="M492.7,78.08h13.61c1.62,0,2.93,1.31,2.93,2.92h0c0,1.61-1.31,2.92-2.93,2.92h-13.61c-1.62,0-2.93-1.31-2.93-2.92h0c0-1.61,1.31-2.92,2.93-2.92Z"/>
      <path class="cls-2" d="M533.58,93.65h-8.45c-1.15,0-2.09-.92-2.09-2.07,0-.76.4-1.46,1.07-1.83l8.8-5.16c1.4-.81,1.88-2.59,1.09-3.99h0c-.81-1.4-2.61-1.87-4.01-1.06,0,0,0,0,0,0l-15.46,8.95c-.9.52-1.46,1.48-1.47,2.52v24.9c0,1.62,1.31,2.93,2.93,2.93h0c1.62,0,2.93-1.31,2.93-2.93v-13.49c0-1.62,1.31-2.93,2.93-2.93h3.87c1.62,0,2.93,1.31,2.93,2.93v19.36c0,1.62,1.31,2.93,2.93,2.93h0c1.62,0,2.93-1.31,2.93-2.93v-21.32c0-.53.43-.97.97-.97h0c.53,0,.97-.43.97-.97h0v-1.94c0-1.6-1.28-2.9-2.87-2.93Z"/>
      <path class="cls-2" d="M489.77,90.72v31.06c0,1.62,1.31,2.93,2.93,2.93h0c1.62,0,2.93-1.31,2.93-2.93v-11.73c0-1.62,1.31-2.93,2.93-2.93h7.8c1.62,0,2.93-1.31,2.93-2.93v-13.46c0-1.62-1.31-2.93-2.93-2.93h-13.64c-1.62-.02-2.95,1.28-2.96,2.9,0,0,0,.02,0,.03ZM499.5,101.45h0c-2.14-.02-3.87-1.76-3.87-3.9h0c-.02-2.14,1.7-3.88,3.84-3.9,0,0,.02,0,.03,0h0c2.14-.02,3.88,1.7,3.9,3.84,0,.02,0,.04,0,.06h0c0,2.15-1.75,3.9-3.9,3.9h0Z"/>
      <path class="cls-2" d="M242.33,107.73c-1.21,6.52-6.95,11.21-13.58,11.12-7.52-.16-13.51-6.33-13.46-13.84v-23.99c0-1.62-1.31-2.93-2.93-2.93h0c-1.62,0-2.93,1.31-2.93,2.93v24.08c-.17,10.75,8.4,19.61,19.16,19.78,9.58.15,17.85-6.68,19.5-16.12.28-1.6-.8-3.11-2.39-3.39-.18-.03-.36-.05-.54-.04h0c-1.39.03-2.57,1.04-2.82,2.4Z"/>
      <path class="cls-2" d="M346.71,103.39h0c-1.62,0-2.93-1.31-2.93-2.93h0c0-1.62-1.31-2.93-2.93-2.93h0c-1.62,0-2.93,1.31-2.93,2.93h0c0,1.62-1.31,2.93-2.93,2.93h-7.74c-1.62,0-2.93-1.31-2.93-2.93v-19.44c0-1.62-1.31-2.93-2.93-2.93h-5.87c-1.62,0-2.93,1.31-2.93,2.93h0c0,1.62,1.31,2.93,2.93,2.93h0c1.62,0,2.93,1.31,2.93,2.93v13.61c0,1.62-1.31,2.93-2.93,2.93h-1.76c-5.84-.04-10.66,4.55-10.91,10.38-.04,5.91,4.72,10.74,10.63,10.78,5.91.04,10.74-4.72,10.78-10.63v-1.76c0-1.62,1.31-2.93,2.93-2.93h7.8c1.62,0,2.93,1.31,2.93,2.93v9.59c0,1.62,1.31,2.93,2.93,2.93h0c1.62,0,2.93-1.31,2.93-2.93v-9.62c0-1.62,1.31-2.93,2.93-2.93h0c1.62,0,2.93-1.31,2.93-2.93h0c-.02-1.61-1.32-2.9-2.93-2.9ZM318.46,114.09c0,2.69-2.18,4.87-4.87,4.87s-4.87-2.18-4.87-4.87,2.18-4.87,4.87-4.87h1.96c1.62,0,2.93,1.31,2.93,2.93l-.03,1.94Z"/>
    </g>
  </g>
</svg>