<?xml version="1.0" encoding="UTF-8"?>
<svg id="_レイヤー_1" data-name="レイヤー 1" xmlns="http://www.w3.org/2000/svg" viewBox="0 0 450 200">
  <defs>
    <style>
      .cls-1 {
        fill: #178cff;
        stroke-width: 0px;
      }
    </style>
  </defs>
  <path class="cls-1" d="M147.65,101.47v36.55c0,3.57-3.02,6.59-6.59,6.59s-6.59-3.02-6.59-6.59v-36.55h-8.24c-3.3,0-6.05-2.75-6.05-6.05s2.75-6.05,6.05-6.05h7.97v-13.74c0-3.57,3.02-6.59,6.59-6.59s6.59,3.02,6.59,6.59v13.46h6.32c3.3,0,6.05,2.75,6.05,6.05s-2.75,6.05-6.05,6.05l-6.05.27Z"/>
  <path class="cls-1" d="M182,118.51h35.17c1.65,0,3.3-.82,4.4-2.2s1.65-3.02,1.37-4.67c-1.37-12.91-6.87-17.59-6.87-17.59-4.95-5.22-11.82-7.69-20.33-7.69-7.69-.27-15.11,2.47-20.33,7.97-5.22,5.77-7.97,13.46-7.69,21.16,0,8.79,2.75,15.94,7.97,21.16,5.5,5.5,13.19,8.24,20.88,7.97,2.75,0,5.77-.27,8.52-.82,2.47-.55,4.95-1.65,7.14-2.75,2.2-1.37,4.4-3.02,6.32-4.95l.82-.82c1.37-1.37,1.92-3.3,1.65-5.22s-1.65-3.57-3.3-4.4c-2.75-1.37-6.05-.82-7.97,1.65-1.1,1.65-2.75,3.02-4.12,4.12-2.47,1.65-5.5,2.47-8.24,2.2-4.12,0-7.97-1.65-10.72-4.12-3.02-3.02-4.67-6.87-4.67-10.99ZM196.29,97.9c7.14,0,11.82,3.3,13.46,10.17h-27.2c.55-1.65,1.1-3.02,1.92-4.4.82-1.1,1.92-2.2,3.02-3.3,1.1-.82,2.47-1.65,3.85-1.92,1.65-.27,3.3-.55,4.95-.55Z"/>
  <path class="cls-1" d="M288.34,94.87c-4.95-5.5-12.09-8.52-19.51-8.24-6.87-.27-13.46,2.75-18.14,7.69v-40.39c0-3.57-3.02-6.59-6.59-6.59s-6.59,3.02-6.59,6.59v83.81c0,3.57,3.02,6.59,6.59,6.59s6.59-3.02,6.59-6.59v-.27c5.22,4.95,12.09,7.42,18.96,7.42,7.14-.27,13.74-3.02,18.69-8.24,5.22-5.77,8.24-13.19,7.97-21.16.27-7.69-2.75-15.11-7.97-20.61ZM285.31,116.03c0,4.4-1.65,9.07-4.95,12.37-3.02,3.3-7.14,4.95-11.54,4.95-4.4.27-8.79-1.65-11.82-4.95-3.02-3.57-4.67-8.24-4.4-12.91,0-4.67,1.65-9.07,4.67-12.64,3.3-3.3,7.42-5.22,12.09-4.95,4.4,0,8.52,1.92,11.54,5.22,3.02,3.57,4.67,8.24,4.4,12.91Z"/>
  <path class="cls-1" d="M309.22,96.25c0-3.57,3.02-6.59,6.59-6.59s6.59,3.02,6.59,6.59v41.77c0,3.57-3.02,6.59-6.59,6.59s-6.59-3.02-6.59-6.59v-41.77Z"/>
  <path class="cls-1" d="M309.22,71.24c0-3.57,3.02-6.59,6.59-6.59s6.59,3.02,6.59,6.59v1.37c0,3.57-3.02,6.59-6.59,6.59s-6.59-3.02-6.59-6.59v-1.37Z"/>
  <path class="cls-1" d="M354.29,55.58v51.11s0,.27.27.27h.27l16.76-15.66c1.1-1.1,2.75-1.65,4.12-1.65,2.47,0,4.67,1.65,5.77,3.85.82,2.2.27,4.95-1.65,6.59l-13.74,12.64v.55l17.59,20.88c1.65,1.92,1.92,4.67.82,7.14-1.1,2.2-3.3,3.85-6.05,3.85-1.92,0-3.85-.82-5.22-2.47l-17.04-20.61h-.55l-1.92,1.65v14.84c0,1.65-.82,3.57-1.92,4.67-1.37,1.37-3.02,1.92-4.67,1.92h-.27c-3.57,0-6.59-3.02-6.59-6.59V55.86c0-3.85,3.02-6.87,6.87-6.87,4.12,0,6.87,2.75,7.14,6.59Z"/>
  <path class="cls-1" d="M398.53,71.24c0-3.57,3.02-6.59,6.59-6.59s6.59,3.02,6.59,6.59v1.37c0,3.57-3.02,6.59-6.59,6.59s-6.59-3.02-6.59-6.59v-1.37Z"/>
  <path class="cls-1" d="M398.53,96.25c0-3.57,3.02-6.59,6.59-6.59s6.59,3.02,6.59,6.59v41.77c0,3.57-3.02,6.59-6.59,6.59s-6.59-3.02-6.59-6.59v-41.77Z"/>
  <path class="cls-1" d="M49.83,44.31l47.81,22.26c1.65.55,2.75,2.2,2.75,3.85v57.15c0,1.65-1.1,3.3-2.75,4.12l-53.03,23.91c-1.37.55-3.02.55-4.12-.27-1.37-.82-2.2-2.2-2.2-3.85v-56.88c0-1.65,1.1-3.3,2.75-4.12l2.75-1.37v-40.94c0-1.37.82-2.75,1.92-3.57,1.37-.55,2.75-.82,4.12-.27ZM80.6,72.62c.82-.27,1.37-1.1,1.37-2.2h0c0-.82-.55-1.65-1.37-2.2l-25.01-11.54c-.27-.27-.55-.27-.82-.27-.55,0-.82,0-1.37.27-.55.55-1.1,1.37-1.1,2.2v22.81c0,.82.55,1.65,1.1,1.92.55.55,1.65.55,2.2.27l25.01-11.27Z"/>
</svg>