<?xml version="1.0" encoding="UTF-8"?>
<svg id="_レイヤー_1" data-name="レイヤー 1" xmlns="http://www.w3.org/2000/svg" xmlns:xlink="http://www.w3.org/1999/xlink" viewBox="0 0 350 80">
  <defs>
    <style>
      .cls-1 {
        fill: none;
      }

      .cls-2 {
        fill: #040000;
      }

      .cls-3 {
        clip-path: url(#clippath-1);
      }

      .cls-4 {
        clip-path: url(#clippath);
      }

      .cls-5 {
        fill: #0075c2;
      }

      .cls-6 {
        fill: url(#_名称未設定グラデーション_16);
      }

      .cls-7 {
        fill: url(#_名称未設定グラデーション_17);
      }
    </style>
    <clipPath id="clippath">
      <polygon class="cls-1" points="41.01 17.26 27.67 53.92 57.11 53.92 59.53 47.26 37.13 47.26 48.04 17.26 41.01 17.26"/>
    </clipPath>
    <linearGradient id="_名称未設定グラデーション_17" data-name="名称未設定グラデーション 17" x1="-846.09" y1="303.32" x2="-845.77" y2="303.32" gradientTransform="translate(-62737.1851 22190.1155) rotate(-179.7092) scale(74.0886)" gradientUnits="userSpaceOnUse">
      <stop offset="0" stop-color="#fff"/>
      <stop offset="1" stop-color="#0075c2"/>
    </linearGradient>
    <clipPath id="clippath-1">
      <path class="cls-1" d="M33.01,20.23c-8.89,8.25-15.17,21.75-12.32,34.13,8.61-8.92,14.54-14.56,22.2-19.02,5.44-3.17,14.22-7.48,24.43-10.54-13.02,1.6-23.6,2.67-39.99,15.6.41-5.8,4.17-16.33,9.1-23.19-1.15.9-2.25,1.93-3.42,3.02Z"/>
    </clipPath>
    <linearGradient id="_名称未設定グラデーション_16" data-name="名称未設定グラデーション 16" x1="-839.28" y1="302.33" x2="-838.96" y2="302.33" gradientTransform="translate(-105218.6036 108326.2513) rotate(148.0588) scale(168.6124 119.7553) skewX(-5.7527)" gradientUnits="userSpaceOnUse">
      <stop offset="0" stop-color="#fff"/>
      <stop offset="1" stop-color="#e4007f"/>
    </linearGradient>
  </defs>
  <g>
    <path class="cls-2" d="M73.36,34.28v2.08h-1.48v.59l1.57,2.51-.47,2.67-1.1-2.06v8.61h-2.08v-8.09c-.2.63-.41,1.2-.65,1.72-.24.52-.49.99-.77,1.4l-.7-2.91c.41-.54.79-1.18,1.12-1.92.33-.74.62-1.58.85-2.53h-1.65v-2.08h1.8v-3.03h2.08v3.03s1.48,0,1.48,0ZM77.98,32.13l-.27,1.72h1.21v-2.58h2.08v2.58h3.68v2.08h-3.68v2.14h4.33v2.08h-2.99c.43.81.91,1.59,1.43,2.33.52.74,1.09,1.45,1.7,2.13l-1.04,2.26c-.46-.39-.96-.98-1.53-1.77-.62-.89-1.26-1.96-1.9-3.22v6.86h-2.08v-6.59c-.48,1.04-1.01,1.96-1.58,2.78-.57.82-1.18,1.54-1.83,2.17l-1.3-2.24c.7-.62,1.35-1.33,1.94-2.11.59-.79,1.13-1.65,1.62-2.6h-3.2v-2.08h4.35v-2.14h-1.72c-.09.3-.18.57-.28.84-.1.26-.22.5-.35.72l-2.17-.83c.34-.6.63-1.3.85-2.1.23-.79.38-1.68.47-2.65l2.26.23Z"/>
    <path class="cls-2" d="M104.16,33.74v2.17h-4.1c.14,2.67.5,4.93,1.06,6.79.46,1.53.86,2.29,1.18,2.29.07,0,.14-.1.21-.31.07-.21.15-.51.24-.92l1.64,2.29c-.35.91-.68,1.57-1,1.98-.34.44-.7.66-1.09.66-.94,0-1.84-1.09-2.72-3.26-.99-2.46-1.59-5.63-1.82-9.52h-11.05v-2.17h11.05v-2.4h2.27v2.4h1.59l-.82-1.75,2.07-.55.92,1.88-1.44.42h1.8ZM96.68,38.58v2.27h-3.56v4.24l3.75-.43.09,2.18-9.71,1.42-.42-2.5,4.01-.43v-4.48h-3.42v-2.27h9.25Z"/>
    <path class="cls-2" d="M119.54,38.35h-10.37v-1.65c-.38.17-.77.33-1.16.49-.39.15-.78.29-1.17.43l-1.23-2.2c1.57-.49,2.98-1.07,4.23-1.74,1.25-.67,2.33-1.4,3.24-2.22h2.73c.74.67,1.71,1.32,2.91,1.96,1.25.67,2.72,1.31,4.41,1.92l-1.14,2.27c-.36-.14-.74-.28-1.15-.44-.41-.16-.85-.35-1.31-.56v1.74h0ZM123.1,40.32v2.09h-10.09c-.22.64-.44,1.25-.68,1.84-.24.59-.5,1.14-.79,1.66l6.65-.5c-.23-.3-.46-.59-.7-.87-.24-.28-.47-.55-.7-.81l2.29-.79c.78.79,1.48,1.59,2.11,2.39.63.81,1.19,1.61,1.67,2.41l-2.48.95-.8-1.26-12.66,1.06-.21-2.26,2.09-.15c.31-.53.6-1.1.88-1.71s.54-1.27.79-1.98h-4.75v-2.09h17.39ZM109.9,36.36h9.16c-.77-.38-1.54-.81-2.31-1.31-.77-.5-1.55-1.05-2.33-1.68-.62.54-1.3,1.06-2.06,1.56-.75.5-1.58.98-2.46,1.43"/>
    <path class="cls-2" d="M129.77,31.39v2.64h2.31c-.1.81-.28,1.58-.55,2.33-.27.75-.65,1.48-1.16,2.2.25.16.57.38.94.66.48.36,1,.76,1.54,1.22l-.93,2.1c-.46-.4-.9-.77-1.31-1.1-.32-.25-.6-.46-.84-.64v7.7h-2.18v-7.37c-.34.34-.68.65-1.03.91-.34.26-.7.5-1.05.7l-.89-2.18c1.23-.63,2.23-1.33,2.99-2.07.76-.75,1.29-1.57,1.59-2.46h-4.1v-2h2.5v-2.64h2.18ZM141.49,35.89v2.08h-3.2v8.05h3.63v2.08h-9.71v-2.08h3.81v-8.05h-3.36v-2.08h3.36v-4.5h2.27v4.5h3.2Z"/>
    <path class="cls-2" d="M153.22,29.52v8.62c0,1.66-.05,3.07-.14,4.23-.09,1.16-.31,2.23-.65,3.22-.1.3-.27.77-.52,1.39-.24.62-.66,1.31-1.25,2.05-.59.74-1.41,1.48-2.45,2.22-1.04.74-2.41,1.38-4.11,1.9v-3.82c2.15-.94,3.62-2.27,4.42-3.99.8-1.72,1.15-3.97,1.04-6.75v-9.08h3.65ZM165.06,29.87v6.3c-.03,3.58.3,6.43.98,8.55.68,2.12,2.16,3.64,4.44,4.57v3.82c-3.42-.98-5.8-2.75-7.13-5.33-1.33-2.57-1.98-6.17-1.93-10.8v-7.11h3.65ZM166.85,29.79h-2.55v-2.95h2.55v2.95ZM170.47,29.79h-2.52v-2.95h2.52v2.95Z"/>
    <path class="cls-2" d="M172.36,39.28h1.08c1.25,0,2.36-.14,3.36-.43.99-.29,1.94-.68,2.84-1.19.5-.29,1.16-.68,1.99-1.18.83-.5,2.18-1.38,4.06-2.64,1.7-1.15,3.28-2.18,4.73-3.08,1.46-.9,3.13-1.36,5.01-1.38h1.51v3.43h-1.08c-1.24,0-2.45.32-3.63.95-1.19.63-2.52,1.48-3.99,2.54v16.61h-3.68v-14.12c-1.86,1.3-3.6,2.28-5.21,2.95-1.61.66-3.49,1-5.63,1h-1.36v-3.46h0Z"/>
    <path class="cls-2" d="M208.45,28.42l-.29,2.48h14.55v5.36c-.07,2.38-.32,4.66-.73,6.82-.41,2.17-1.5,4.09-3.27,5.76-1.14,1.1-2.36,1.95-3.64,2.56-2.31,1.09-5.07,1.63-8.29,1.63h-4.68v-3.35h3.94c1.38,0,2.66-.09,3.82-.26,1.16-.16,2.21-.46,3.14-.91,1.01-.48,1.95-1.13,2.84-1.94,1.24-1.13,2.06-2.36,2.46-3.7h-11.5v-3.32h12.22l.14-5.36h-11.88c-.7,1.79-1.77,3.28-3.2,4.46-1.43,1.19-3.2,2.03-5.31,2.54v-3.74c2-.45,3.5-1.43,4.5-2.93,1-1.5,1.53-3.54,1.61-6.12h3.57Z"/>
    <path class="cls-2" d="M232.54,30.63v11c.03,1.17,0,2.24-.08,3.2-.07.79-.17,1.45-.3,1.97-.35,1.32-.91,2.45-1.69,3.39-1.26,1.52-3.03,2.5-5.29,2.92v-3.57c1.5-.48,2.55-1.28,3.13-2.41.58-1.13.87-2.68.87-4.65v-11.85h3.36ZM240.24,29.52v19.71h.35c1.18-.06,2.27-.34,3.25-.86,1.3-.67,2.29-1.69,2.98-3.06.28-.53.5-1.26.68-2.21.21-1.12.32-2.46.32-4.03v-3.9h3.43v3c0,2.28-.12,4.3-.37,6.08-.25,1.77-.95,3.34-2.12,4.69-1.25,1.48-2.68,2.51-4.31,3.1-1.63.59-3.64.87-6.04.84h-1.73v-23.36h3.57Z"/>
    <path class="cls-2" d="M258.4,42.93h-3.65v-13.44h3.65v13.44ZM275.95,29.41v12.61c.04,2.11-.29,3.94-.98,5.48-.58,1.29-1.41,2.36-2.48,3.2-.78.6-1.68,1.09-2.73,1.48-1.51.56-3.14.84-4.87.84h-5.33v-3.35h3.81c2.55,0,4.52-.39,5.9-1.2.79-.46,1.48-1.17,2.06-2.13.29-.47.51-1.09.68-1.87.19-.9.29-2.04.29-3.4v-11.65h3.65Z"/>
    <rect class="cls-2" x="279.65" y="38.6" width="24.44" height="3.65"/>
    <path class="cls-2" d="M311.86,28.44v8.19l17.41.62v3.46l-17.41-.65v12.82h-3.68v-24.44h3.68ZM326.35,30.09h-2.55v-2.95h2.55v2.95ZM330,30.09h-2.55v-2.95h2.55v2.95Z"/>
  </g>
  <g class="cls-4">
    <polygon class="cls-7" points="59.53 54.08 27.48 53.92 27.67 17.1 59.72 17.26 59.53 54.08"/>
  </g>
  <g class="cls-3">
    <polygon class="cls-6" points="80.21 46.33 28.54 78.54 4.96 25.24 56.63 -6.97 80.21 46.33"/>
  </g>
  <g>
    <polygon class="cls-5" points="20.02 56.54 22.04 56.54 21.82 61.04 24.84 56.54 26.8 56.54 22.21 62.79 20.11 62.79 20.02 56.54"/>
    <polygon class="cls-5" points="26.73 57.78 28.29 57.78 26.47 62.78 24.91 62.78 26.73 57.78"/>
    <polygon class="cls-5" points="28.86 57.78 33.55 57.78 33.1 59.01 31.53 59.01 30.16 62.78 28.62 62.78 29.99 59.01 28.41 59.01 28.86 57.78"/>
    <polygon class="cls-5" points="38.6 57.78 40.14 57.78 38.78 61.54 41.19 61.54 40.74 62.78 36.78 62.78 38.6 57.78"/>
    <polygon class="cls-5" points="44.37 56.54 46.3 56.54 44.59 61.25 47.61 61.25 47.04 62.79 42.1 62.79 44.37 56.54"/>
    <polygon class="cls-5" points="49.45 57.79 53.6 57.79 53.21 58.86 50.62 58.86 50.32 59.66 52.73 59.66 52.36 60.68 49.95 60.68 49.6 61.67 52.26 61.67 51.85 62.79 47.63 62.79 49.45 57.79"/>
    <path class="cls-5" d="M59.96,57.79h2.29c.45,0,.8.06,1.03.18.23.12.4.3.5.53s.13.5.1.8c-.03.3-.11.63-.23.97-.19.53-.41.95-.63,1.24-.23.29-.49.54-.78.74-.29.2-.57.33-.84.4-.37.09-.7.14-.97.14h-2.29l1.82-5ZM61.09,58.92l-.99,2.73h.38c.32,0,.57-.04.73-.11.16-.07.31-.2.46-.37.14-.18.29-.47.43-.87.19-.53.24-.89.14-1.09-.1-.2-.35-.29-.75-.29h-.39Z"/>
    <polygon class="cls-5" points="36.4 57.78 30.84 62.78 34.2 62.78 34.61 61.64 33.55 61.64 36.28 59.07 34.93 62.78 36.29 62.78 38.1 57.78 36.4 57.78"/>
    <polygon class="cls-5" points="57.69 57.79 52.12 62.79 55.49 62.79 55.9 61.66 54.84 61.66 57.56 59.09 56.21 62.79 57.57 62.79 59.39 57.79 57.69 57.79"/>
  </g>
</svg>