<?xml version="1.0" encoding="UTF-8"?>
<svg id="_レイヤー_1" data-name="レイヤー 1" xmlns="http://www.w3.org/2000/svg" viewBox="0 0 390 200">
  <defs>
    <style>
      .cls-1 {
        fill: #595757;
      }

      .cls-1, .cls-2, .cls-3, .cls-4, .cls-5 {
        stroke-width: 0px;
      }

      .cls-2 {
        fill: none;
      }

      .cls-3 {
        fill: gray;
      }

      .cls-4 {
        fill: #be0008;
      }

      .cls-5 {
        fill: #e50012;
      }
    </style>
  </defs>
  <g>
    <path class="cls-1" d="M39.27,150.97v-10.26h1.56v10.26h-1.56Z"/>
    <path class="cls-1" d="M47.19,142.12v8.86h-1.55v-8.86h-2.82v-1.4h7.2v1.4h-2.82Z"/>
    <path class="cls-1" d="M58.98,151.06c-1.07,0-1.99-.39-2.69-1.09-1.01-1.01-.99-2.14-.99-4.12s-.01-3.11.99-4.12c.71-.71,1.63-1.09,2.69-1.09,1.89,0,3.3,1.11,3.66,3.15h-1.58c-.25-1.04-.94-1.76-2.08-1.76-.6,0-1.15.23-1.51.62-.5.55-.62,1.14-.62,3.2s.12,2.65.62,3.2c.36.39.91.62,1.51.62,1.14,0,1.84-.72,2.09-1.76h1.57c-.35,2.05-1.8,3.15-3.66,3.15Z"/>
    <path class="cls-1" d="M70.94,149.97c-.71.7-1.61,1.09-2.71,1.09s-1.99-.39-2.69-1.09c-1.01-1.01-.99-2.14-.99-4.12s-.01-3.11.99-4.12c.71-.71,1.6-1.09,2.69-1.09s2,.39,2.71,1.09c1.01,1.01.98,2.15.98,4.12,0,1.98.03,3.11-.98,4.12ZM69.76,142.66c-.36-.39-.92-.63-1.53-.63s-1.17.25-1.53.63c-.5.55-.61,1.12-.61,3.18s.1,2.63.61,3.18c.36.39.92.63,1.53.63s1.17-.25,1.53-.63c.5-.55.61-1.12.61-3.18s-.1-2.63-.61-3.18Z"/>
    <path class="cls-1" d="M80.73,150.97l-4.74-7.21v7.21h-1.56v-10.26h1.43l4.74,7.2v-7.2h1.55v10.26h-1.43Z"/>
    <path class="cls-1" d="M87.77,151.06c-1.54,0-2.65-.36-3.63-1.35l1.04-1.02c.75.75,1.57.98,2.62.98,1.34,0,2.12-.58,2.12-1.57,0-.45-.13-.82-.4-1.07-.26-.25-.52-.35-1.12-.43l-1.21-.18c-.84-.11-1.5-.4-1.95-.82-.5-.48-.75-1.13-.75-1.96,0-1.79,1.3-3.01,3.43-3.01,1.36,0,2.31.34,3.18,1.17l-.99.98c-.63-.6-1.37-.79-2.23-.79-1.21,0-1.87.69-1.87,1.6,0,.38.11.71.39.95.26.23.68.4,1.15.47l1.17.17c.95.15,1.48.37,1.92.76.56.49.83,1.22.83,2.1,0,1.89-1.54,3.01-3.69,3.01Z"/>
    <path class="cls-1" d="M97.27,151.06c-2.09,0-3.67-1.42-3.67-3.54v-6.8h1.56v6.73c0,1.37.84,2.22,2.12,2.22s2.13-.85,2.13-2.22v-6.73h1.55v6.8c0,2.12-1.6,3.54-3.69,3.54Z"/>
    <path class="cls-1" d="M103.69,150.97v-10.26h1.55v8.86h4.94v1.4h-6.49Z"/>
    <path class="cls-1" d="M115.63,142.12v8.86h-1.55v-8.86h-2.82v-1.4h7.2v1.4h-2.82Z"/>
    <path class="cls-1" d="M120.44,150.97v-10.26h1.56v10.26h-1.56Z"/>
    <path class="cls-1" d="M131.18,150.97l-4.74-7.21v7.21h-1.56v-10.26h1.43l4.74,7.2v-7.2h1.56v10.26h-1.43Z"/>
    <path class="cls-1" d="M141.63,149.9c-.78.82-1.74,1.17-2.82,1.17s-1.99-.39-2.69-1.09c-1.01-1.01-.99-2.14-.99-4.12s-.01-3.11.99-4.12c.71-.71,1.6-1.09,2.69-1.09,2.17,0,3.44,1.42,3.73,3.18h-1.57c-.26-1.12-1.01-1.79-2.16-1.79-.6,0-1.15.25-1.51.63-.5.55-.62,1.12-.62,3.18s.12,2.65.62,3.2c.36.39.91.62,1.51.62.68,0,1.27-.26,1.67-.72.38-.43.52-.95.52-1.61v-.58h-2.19v-1.33h3.74v1.57c0,1.33-.24,2.18-.92,2.9Z"/>
    <path class="cls-1" d="M155.35,150.97l-.84-1.01c-.45.39-1.28,1.09-2.84,1.09-2.13,0-3.31-1.19-3.31-3.05,0-1.43,1.02-2.23,2.03-2.89-.46-.53-1.07-1.25-1.07-2.2,0-1.31.98-2.28,2.51-2.28s2.43.98,2.43,2.29c0,.81-.45,1.37-1.1,1.82,0,0-.5.35-.75.52l2.16,2.58c.38-.53.53-1.12.55-2.06h1.41c-.04,1.31-.33,2.35-1.02,3.15l1.71,2.04h-1.89ZM151.2,146.04c-.75.52-1.38.99-1.38,1.94,0,1.02.79,1.74,1.86,1.74.69,0,1.28-.19,1.96-.79l-2.43-2.89ZM151.84,141.92c-.63,0-1.01.43-1.01,1.01,0,.42.27.81.79,1.41.16-.1.49-.33.49-.33.4-.27.75-.59.75-1.07,0-.58-.42-1.02-1.02-1.02Z"/>
    <path class="cls-1" d="M165.84,151.06c-1.54,0-2.65-.36-3.63-1.35l1.04-1.02c.75.75,1.57.98,2.62.98,1.34,0,2.12-.58,2.12-1.57,0-.45-.13-.82-.4-1.07-.26-.25-.52-.35-1.12-.43l-1.21-.18c-.84-.11-1.5-.4-1.95-.82-.5-.48-.75-1.13-.75-1.96,0-1.79,1.29-3.01,3.43-3.01,1.35,0,2.31.34,3.18,1.17l-.99.98c-.63-.6-1.37-.79-2.23-.79-1.21,0-1.87.69-1.87,1.6,0,.38.11.71.39.95.26.23.68.4,1.15.47l1.17.17c.95.15,1.48.37,1.91.76.56.49.84,1.22.84,2.1,0,1.89-1.54,3.01-3.69,3.01Z"/>
    <path class="cls-1" d="M177.85,149.97c-.7.7-1.61,1.09-2.71,1.09s-1.99-.39-2.69-1.09c-1.01-1.01-.99-2.14-.99-4.12s-.01-3.11.99-4.12c.71-.71,1.6-1.09,2.69-1.09s2,.39,2.71,1.09c1.01,1.01.98,2.15.98,4.12s.03,3.11-.98,4.12ZM176.67,142.66c-.36-.39-.92-.63-1.53-.63s-1.17.25-1.53.63c-.5.55-.61,1.12-.61,3.18s.1,2.63.61,3.18c.36.39.92.63,1.53.63s1.17-.25,1.53-.63c.51-.55.6-1.12.6-3.18,0-2.06-.1-2.63-.6-3.18Z"/>
    <path class="cls-1" d="M181.34,150.97v-10.26h1.56v8.86h4.94v1.4h-6.5Z"/>
    <path class="cls-1" d="M193.34,151.06c-2.09,0-3.67-1.42-3.67-3.54v-6.8h1.56v6.73c0,1.37.84,2.22,2.12,2.22s2.13-.85,2.13-2.22v-6.73h1.56v6.8c0,2.12-1.6,3.54-3.69,3.54Z"/>
    <path class="cls-1" d="M203.23,142.12v8.86h-1.55v-8.86h-2.82v-1.4h7.2v1.4h-2.82Z"/>
    <path class="cls-1" d="M208.03,150.97v-10.26h1.56v10.26h-1.56Z"/>
    <path class="cls-1" d="M218.5,149.97c-.71.7-1.61,1.09-2.71,1.09s-1.99-.39-2.69-1.09c-1.01-1.01-.99-2.14-.99-4.12s-.02-3.11.99-4.12c.71-.71,1.6-1.09,2.69-1.09s2,.39,2.71,1.09c1.01,1.01.98,2.15.98,4.12s.03,3.11-.98,4.12ZM217.32,142.66c-.36-.39-.92-.63-1.53-.63s-1.17.25-1.53.63c-.5.55-.61,1.12-.61,3.18s.1,2.63.61,3.18c.36.39.92.63,1.53.63s1.17-.25,1.53-.63c.5-.55.6-1.12.6-3.18,0-2.06-.1-2.63-.6-3.18Z"/>
    <path class="cls-1" d="M228.29,150.97l-4.74-7.21v7.21h-1.56v-10.26h1.43l4.74,7.2v-7.2h1.56v10.26h-1.43Z"/>
    <path class="cls-1" d="M237.83,142.12v3.13h4.26v1.4h-4.26v4.33h-1.56v-10.26h6.55v1.4h-5Z"/>
    <path class="cls-1" d="M250.93,149.97c-.71.7-1.61,1.09-2.71,1.09s-1.99-.39-2.69-1.09c-1.01-1.01-.99-2.14-.99-4.12s-.01-3.11.99-4.12c.71-.71,1.6-1.09,2.69-1.09s2,.39,2.71,1.09c1.01,1.01.98,2.15.98,4.12,0,1.98.03,3.11-.98,4.12ZM249.75,142.66c-.36-.39-.92-.63-1.53-.63s-1.17.25-1.53.63c-.51.55-.61,1.12-.61,3.18s.1,2.63.61,3.18c.36.39.92.63,1.53.63s1.16-.25,1.53-.63c.5-.55.61-1.12.61-3.18,0-2.06-.1-2.63-.61-3.18Z"/>
    <path class="cls-1" d="M260.09,150.97l-2.16-4.32h-1.94v4.32h-1.56v-10.26h3.98c1.94,0,3.18,1.26,3.18,3,0,1.47-.89,2.4-2.05,2.72l2.36,4.54h-1.81ZM258.28,142.12h-2.31v3.21h2.31c1.04,0,1.74-.59,1.74-1.6s-.71-1.62-1.74-1.62Z"/>
    <path class="cls-1" d="M271.21,142.12v8.86h-1.56v-8.86h-2.82v-1.4h7.2v1.4h-2.82Z"/>
    <path class="cls-1" d="M281.73,150.97v-4.48h-4.16v4.48h-1.55v-10.26h1.55v4.38h4.16v-4.38h1.56v10.26h-1.56Z"/>
    <path class="cls-1" d="M286.18,150.97v-10.26h6.55v1.4h-5v3h4.26v1.38h-4.26v3.08h5v1.4h-6.55Z"/>
    <path class="cls-1" d="M302.63,146.94h-2.33v4.03h-1.56v-10.26h3.89c2,0,3.28,1.33,3.28,3.11s-1.28,3.11-3.28,3.11ZM302.55,142.12h-2.25v3.41h2.25c1.08,0,1.82-.62,1.82-1.7s-.73-1.71-1.82-1.71Z"/>
    <path class="cls-1" d="M308.02,150.97v-10.26h6.55v1.4h-5v3h4.26v1.38h-4.26v3.08h5v1.4h-6.55Z"/>
    <path class="cls-1" d="M322.93,149.97c-.71.7-1.61,1.09-2.71,1.09s-1.99-.39-2.69-1.09c-1.01-1.01-.99-2.14-.99-4.12s-.01-3.11.99-4.12c.71-.71,1.6-1.09,2.69-1.09s2,.39,2.71,1.09c1.01,1.01.98,2.15.98,4.12s.03,3.11-.98,4.12ZM321.75,142.66c-.36-.39-.92-.63-1.53-.63s-1.17.25-1.53.63c-.5.55-.61,1.12-.61,3.18s.1,2.63.61,3.18c.36.39.92.63,1.53.63s1.17-.25,1.53-.63c.51-.55.61-1.12.61-3.18,0-2.06-.1-2.63-.61-3.18Z"/>
    <path class="cls-1" d="M330.32,146.94h-2.33v4.03h-1.56v-10.26h3.89c2,0,3.28,1.33,3.28,3.11,0,1.79-1.28,3.11-3.28,3.11ZM330.23,142.12h-2.25v3.41h2.25c1.08,0,1.81-.62,1.81-1.7,0-1.08-.73-1.71-1.81-1.71Z"/>
    <path class="cls-1" d="M335.7,150.97v-10.26h1.55v8.86h4.94v1.4h-6.5Z"/>
    <path class="cls-1" d="M344.18,150.97v-10.26h6.55v1.4h-5v3h4.26v1.38h-4.26v3.08h5v1.4h-6.55Z"/>
  </g>
  <g>
    <polygon class="cls-5" points="184.79 74.27 174.34 94.72 174.34 94.72 174.34 94.72 174.34 129.94 195.23 129.94 195.23 94.72 195.24 94.72 184.79 74.27"/>
    <path class="cls-2" d="M319.16,112.01c4.99,0,7.71-1.82,9.53-4.54,1.59-2.27,2.16-4.42,2.16-18.15s-.57-15.88-2.16-18.15c-1.81-2.72-4.54-4.54-9.53-4.54h-7.69v45.37h7.69Z"/>
    <path class="cls-5" d="M342.3,56.88c-5.56-5.56-13.38-7.94-21.78-7.94h-9.05v17.7h7.69c4.99,0,7.71,1.81,9.53,4.54,1.59,2.27,2.16,4.54,2.16,18.15s-.57,15.88-2.16,18.15c-1.81,2.72-4.54,4.54-9.53,4.54h-7.69v17.69h9.05c8.39,0,16.22-2.38,21.78-7.94,9.42-9.42,8.39-19.74,8.39-32.44,0-12.7,1.02-23.03-8.39-32.44Z"/>
    <polygon class="cls-5" points="60.17 48.94 39.27 48.94 61.1 129.94 61.12 129.94 71.56 91.22 60.17 48.94"/>
    <polygon class="cls-5" points="82.96 48.94 71.56 91.22 82 129.94 82.02 129.94 93.41 87.69 82.96 48.94 82.96 48.94"/>
    <polygon class="cls-4" points="61.12 129.94 82 129.94 71.56 91.22 61.12 129.94"/>
    <polygon class="cls-5" points="126.61 48.94 115.23 91.15 125.68 129.9 147.51 48.94 126.61 48.94"/>
    <polygon class="cls-3" points="104.78 129.94 104.79 129.94 104.79 129.9 104.78 129.94"/>
    <polygon class="cls-3" points="125.69 129.94 125.68 129.9 125.67 129.94 125.69 129.94"/>
    <polygon class="cls-5" points="103.85 48.94 103.85 48.94 93.41 87.69 104.79 129.9 115.23 91.15 103.85 48.94"/>
    <polygon class="cls-4" points="82.96 48.94 93.41 87.69 103.85 48.94 82.96 48.94"/>
    <polygon class="cls-4" points="104.79 129.9 104.79 129.94 125.67 129.94 125.68 129.9 115.23 91.15 104.79 129.9"/>
    <polygon class="cls-3" points="195.24 94.72 195.24 94.72 195.23 94.72 195.24 94.72"/>
    <polygon class="cls-5" points="171.84 48.94 150.94 48.94 174.34 94.72 184.79 74.27 171.84 48.94"/>
    <polygon class="cls-3" points="174.34 94.72 174.34 94.72 174.34 94.72 174.34 94.72"/>
    <polygon class="cls-5" points="197.74 48.94 184.79 74.27 195.24 94.72 218.63 48.94 197.74 48.94"/>
    <polygon class="cls-4" points="174.34 94.72 174.34 94.72 195.23 94.72 195.24 94.72 184.79 74.27 174.34 94.72"/>
    <rect class="cls-5" x="222.48" y="66.75" width="20.89" height="16.33"/>
    <rect class="cls-5" x="222.48" y="99.66" width="20.89" height="30.28"/>
    <rect class="cls-5" x="290.58" y="66.63" width="20.9" height="45.37"/>
    <polygon class="cls-4" points="311.47 48.94 278.79 48.94 290.58 66.63 311.47 66.63 311.47 48.94"/>
    <rect class="cls-4" x="290.58" y="112.01" width="20.9" height="17.69"/>
    <path class="cls-5" d="M282.03,74.91c0-13.27-9.64-25.98-27.56-25.98h-11.09v17.81h10.19c5.45,0,8.62,3.97,8.62,8.17s-3.18,8.17-8.62,8.17h-10.19v16.56h5.65l14.29,30.06h23.03l-17.47-33.69c6.35-3.18,13.16-10.1,13.16-21.1Z"/>
    <rect class="cls-4" x="222.48" y="83.08" width="20.89" height="16.58"/>
    <rect class="cls-4" x="222.48" y="48.94" width="20.89" height="17.81"/>
  </g>
</svg>