<?xml version="1.0" encoding="UTF-8"?>
<svg id="_レイヤー_1" data-name="レイヤー 1" xmlns="http://www.w3.org/2000/svg" viewBox="0 0 170 80">
  <defs>
    <style>
      .cls-1 {
        stroke-width: 1.94px;
      }

      .cls-1, .cls-2 {
        fill: none;
        stroke: #4cb55b;
        stroke-miterlimit: 10;
      }

      .cls-2 {
        stroke-linecap: round;
        stroke-width: 2px;
      }

      .cls-3 {
        fill: #4cb55b;
      }
    </style>
  </defs>
  <path id="logo" class="cls-2" d="M30.77,63.56l-8.75-5.03c-.65-.37-1.05-1.07-1.05-1.82v-24.7c0-2.17,2.9-2.91,3.94-1l9.78,18.1c.17.31.25.65.25,1v14.73c0,.75.4,1.44,1.05,1.82l15,8.6c.65.37,1.44.37,2.09,0l28.97-16.72c.65-.37,1.05-1.07,1.05-1.81V23.28c0-.75-.4-1.44-1.05-1.81L53.09,4.75c-.65-.37-1.45-.37-2.09,0l-26.87,15.51c-1.4.81-1.4,2.82,0,3.63l24.77,14.3c1.4.81,1.4,2.83,0,3.63l-9.56,5.49"/>
  <g id="YOU">
    <path class="cls-3" d="M97.44,35.36v-6.61s0-.05-.02-.07l-6.06-9.68h.82l5.51,8.84s.07.07.12.07.09-.03.12-.07l5.51-8.84h.82l-6.06,9.68s-.02.05-.02.07v6.61h-.73Z"/>
    <path class="cls-3" d="M114.27,35.64c-4.61,0-8.23-3.72-8.23-8.46s3.61-8.46,8.23-8.46,8.23,3.72,8.23,8.46-3.54,8.46-8.23,8.46ZM114.27,19.4c-4.25,0-7.45,3.34-7.45,7.77s3.2,7.77,7.45,7.77,7.45-3.27,7.45-7.77-3.2-7.77-7.45-7.77Z"/>
    <path class="cls-3" d="M131.94,35.64c-3.63,0-5.8-2.13-5.8-5.71v-10.93h.73v10.93c0,3.14,1.89,5.02,5.07,5.02s5.07-1.88,5.07-5.02v-10.93h.73v10.93c0,3.57-2.17,5.71-5.8,5.71Z"/>
  </g>
  <g id="CUBE">
    <path class="cls-3" d="M99.82,61.85c-4.74,0-8.46-3.72-8.46-8.46s3.72-8.46,8.46-8.46c1.8,0,3.49.42,5.02,1.24v.73c-1.72-.86-3.37-1.28-5.02-1.28-4.38,0-7.68,3.34-7.68,7.77s3.3,7.77,7.68,7.77c1.67,0,3.4-.42,5.13-1.26v.73c-1.07.56-2.81,1.22-5.13,1.22Z"/>
    <path class="cls-3" d="M114.04,61.85c-3.63,0-5.8-2.13-5.8-5.71v-10.93h.73v10.93c0,3.14,1.89,5.02,5.07,5.02s5.07-1.88,5.07-5.02v-10.93h.73v10.93c0,3.57-2.17,5.71-5.8,5.71Z"/>
    <path class="cls-3" d="M124.75,61.57v-16.37h4.95c2.79,0,4.67,1.71,4.67,4.25,0,1.53-.74,2.79-1.98,3.39-.05.02-.08.08-.08.13s.04.11.09.13c1.36.54,2.73,2.02,2.73,4.1,0,2.57-1.94,4.37-4.71,4.37h-5.66ZM125.63,53.36c-.08,0-.14.06-.14.14v7.33c0,.08.06.14.14.14h4.51c2.52,0,4.21-1.55,4.21-3.86,0-2.1-1.57-3.75-3.56-3.75h-5.16ZM125.63,45.8c-.08,0-.14.06-.14.14v6.73c0,.08.06.14.14.14h5.6s.02,0,.03,0c1.16-.26,2.33-1.38,2.33-3.31,0-2.32-1.5-3.7-4.03-3.7h-3.93Z"/>
    <path class="cls-3" d="M139.22,61.57v-16.37h9.45v.6h-8.58c-.08,0-.14.06-.14.14v6.91c0,.08.06.14.14.14h7.3v.6h-7.3c-.08,0-.14.06-.14.14v7.1c0,.08.06.14.14.14h8.92v.6h-9.8Z"/>
  </g>
  <line class="cls-1" x1="91.36" y1="40.57" x2="149.02" y2="40.57"/>
</svg>