<?xml version="1.0" encoding="UTF-8"?>
<svg id="materials" xmlns="http://www.w3.org/2000/svg" version="1.1" viewBox="0 0 240 240">
  <defs>
    <style>
      .cls-1 {
        fill: #000;
      }

      .cls-1, .cls-2, .cls-3 {
        stroke-width: 0px;
      }

      .cls-2 {
        fill-rule: evenodd;
      }

      .cls-2, .cls-3 {
        fill: #fff;
      }
    </style>
  </defs>
  <rect class="cls-1" width="240" height="240"/>
  <g>
    <path class="cls-3" d="M150.9,101.1h32.7v6h-13v31.8h-6.5v-31.8h-13.2v-6Z"/>
    <path class="cls-3" d="M97.1,101.1v6h-26.2v9.7h21.1v6h-21.1v10h26.2v6h-32.7v-31.8h0v-6h32.7Z"/>
    <path class="cls-3" d="M113.5,101.1h-8.5l30.4,37.8h8.5l-15.2-18.9,15.2-18.9h-8.5s-10.9,13.6-10.9,13.6l-11-13.6Z"/>
    <path class="cls-3" d="M122.2,128.1l-4.3-5.3-13,16.1h8.5l8.7-10.8Z"/>
    <path class="cls-2" d="M64.7,138.9l-30.5-37.8h-8.1v37.8h6.5v-29.7l23.9,29.7h8.2Z"/>
    <path class="cls-3" d="M185.1,138.7c-.5,0-.9-.2-1.2-.5-.3-.3-.5-.7-.5-1.2,0-.5.2-.9.5-1.2s.7-.5,1.2-.5.9.2,1.2.5c.3.3.5.7.5,1.2,0,.3,0,.6-.2.9-.2.3-.4.5-.6.6-.3.2-.5.2-.8.2Z"/>
    <path class="cls-3" d="M196.2,122.7h2.9v11.1c0,1-.2,1.9-.7,2.6-.4.7-1,1.3-1.8,1.7-.8.4-1.7.6-2.7.6s-1.8-.2-2.5-.5c-.7-.3-1.3-.8-1.8-1.5-.4-.6-.7-1.5-.7-2.4h2.9c0,.4.1.8.3,1.1s.4.5.8.7c.3.2.7.2,1.1.2s.9,0,1.2-.3c.3-.2.6-.5.7-.9.2-.4.3-.8.3-1.4v-11.1Z"/>
    <path class="cls-3" d="M210.9,127.1c0-.7-.4-1.2-.9-1.6-.5-.4-1.2-.6-2.1-.6s-1.1,0-1.6.3c-.4.2-.8.4-1,.7-.2.3-.3.7-.4,1.1,0,.3,0,.6.2.9.2.2.4.4.6.6.3.2.6.3.9.4.3.1.7.2,1,.3l1.5.4c.6.1,1.2.3,1.7.6.6.2,1.1.5,1.5.9.4.4.8.8,1.1,1.3.3.5.4,1.1.4,1.8s-.2,1.7-.7,2.4c-.5.7-1.2,1.2-2.1,1.6-.9.4-2,.6-3.3.6s-2.3-.2-3.2-.6c-.9-.4-1.6-.9-2.1-1.7-.5-.7-.8-1.6-.8-2.7h2.8c0,.5.2,1,.5,1.4.3.4.7.6,1.2.8.5.2,1,.3,1.6.3s1.2,0,1.7-.3c.5-.2.8-.4,1.1-.8.3-.3.4-.7.4-1.2,0-.4-.1-.8-.4-1-.2-.3-.6-.5-1-.7-.4-.2-.9-.3-1.5-.5l-1.8-.5c-1.3-.3-2.4-.8-3.1-1.5-.8-.7-1.1-1.6-1.1-2.7s.3-1.7.8-2.4c.5-.7,1.2-1.2,2.1-1.6.9-.4,1.9-.6,3-.6s2.1.2,3,.6c.9.4,1.5.9,2,1.6.5.7.7,1.5.8,2.4h-2.8Z"/>
  </g>
</svg>