<?xml version="1.0" encoding="UTF-8"?>
<svg id="materials" xmlns="http://www.w3.org/2000/svg" version="1.1" viewBox="0 0 240 240">
  <defs>
    <style>
      .cls-1 {
        fill: #d30001;
      }

      .cls-1, .cls-2 {
        stroke-width: 0px;
      }

      .cls-2 {
        fill: #fff;
      }
    </style>
  </defs>
  <rect class="cls-1" width="240" height="240"/>
  <path class="cls-2" d="M216.5,119.4v9h-16v4.2h8.1c4.3,0,8.9,3.2,9.2,8.7v.5s0,3.5,0,3.5c-.2,6.6-5.6,9-8.9,9.2h-.3s-16.2,0-16.2,0v-8.9h16.4v-4.4h-2.6s-.8,0-.8,0h-.2s-.3,0-.3,0h0s-.1,0-.1,0h0s0,0,0,0h.1c0,0,.1,0,.2,0h.2s-.3,0-.3,0c-.7,0-1.9,0-3.8,0-3.9,0-8.9-2.9-9.2-8.6v-.5s0-3.1,0-3.1c0-5.9,5-9.1,8.9-9.3h.4s15.3,0,15.3,0ZM175.7,119.4v25.9h13.5v9h-23.5v-35h10ZM161.6,119.4v35h-10v-35h10ZM138,119.4c2.3,0,8.9,1.6,9.2,8.6v.6s0,25.8,0,25.8h-9.3v-6.2h-9v6.2h-9.6v-25.8c0-2.9,2.2-8.8,8.6-9.2h.6s9.6,0,9.6,0ZM85.2,119.4h18.8c.4,0,10.4,1.2,10.4,12.1s-8.3,11.8-8.6,11.8h0s10.9,11,10.9,11h-13.9l-8.1-8.4v8.4h-9.4v-35ZM134.2,113.5h0c0,0-.8.7-1.7,1.4-28.1-20.8-45.2-11-50.6-8.4-24.5,13.6-17.4,47.2-17.2,47.8h0s-39,0-39,0c0,0,1.5-14.6,11.9-31.9,10.4-17.3,28.1-30.4,42.4-31.7,27.7-2.8,52.7,21.2,54.2,22.7h0ZM66.2,144.5l5.3,1.9c.2,1.9.6,3.8,1,5.4l.2,1-5.9-2.1c-.2-1.5-.5-3.6-.6-6.2ZM135,127.8h-3.3c-2.5,0-2.9,1.3-3,1.8h0c0,.1,0,.2,0,.2v8.6s9,0,9,0v-8.6c0-.2-.2-1.9-2.7-1.9ZM24.7,128.5l5.7,2.1c-.7,1.6-1.6,3.7-2.2,5.3l-.3.7-5.7-2.1c.5-1.3,1.5-3.8,2.5-5.9h0ZM102.1,128.2h-7.6v8h7.5s2.2-.8,2.2-4-2.1-4-2.1-4ZM68.4,126.5l3.6,2.8c-.4,1.5-.7,3.1-.9,4.6v1.2c-.1,0-4.1-3.2-4.1-3.2.4-1.8.8-3.6,1.5-5.4h0ZM77.1,112.7l2.2,3.4c-.9.9-1.7,1.8-2.4,2.8l-.5.7-2.4-3.6c.9-1.1,1.9-2.3,3.1-3.3h0ZM41.8,105.4l3.5,3.1c-.9.9-1.8,1.9-2.6,2.9l-.8,1-3.8-3.3c1.1-1.2,2.4-2.5,3.7-3.7h0ZM90.7,105.2l1.1,3.3c-1.1.4-2.3.8-3.4,1.3l-.9.4-1.1-3.4c1.2-.5,2.7-1.1,4.3-1.6h0ZM102.3,104c1.3,0,2.6.2,3.9.5l1,.2-.2,3.1c-1.3-.3-2.6-.5-3.9-.5h-1s.2-3.2.2-3.2ZM61.7,90.4l2.2,3.4c-1,.5-1.9,1-2.8,1.6l-1,.6-2.3-3.5c1.3-.8,2.6-1.5,3.9-2.1h0ZM102.4,88.5c2.9.8,4.2,1.4,4.7,1.7h0s-.2,3.4-.2,3.4c-1.1-.4-2.1-.8-3.2-1.2l-1.6-.6.2-3.3ZM83.5,85.6l1,3h-.5c-1.1,0-2.1,0-3.2.1h-1.1c0,0-.9-2.8-.9-2.8,1.6-.2,3.2-.3,4.7-.3Z"/>
</svg>