<svg id="レイヤー_1" data-name="レイヤー 1" xmlns="http://www.w3.org/2000/svg" viewBox="0 0 148 180"><defs><style>.cls-1{fill:#d6d6d6;}.cls-2{opacity:0.5;}.cls-3{fill:#606060;}.cls-4{fill:#cecece;}.cls-5{fill:#fff;}.cls-6{fill:#c7c7c7;}.cls-7{fill:#7c7c7c;}.cls-8{fill:#acacac;}.cls-9{fill:#545454;}</style></defs><rect class="cls-1" y="-0.5" width="148" height="181"/><g class="cls-2"><path class="cls-3" d="M15.75,129.61c0-.21.09-.3.3-.3h3.62a.56.56,0,0,1,.51.3l7.25,12.92h.15V129.61c0-.21.09-.3.3-.3h3.41c.21,0,.3.09.3.3v19.92c0,.21-.09.3-.3.3H27.7a.56.56,0,0,1-.51-.3l-7.28-12.89h-.15v12.89c0,.21-.09.3-.3.3H16.05c-.21,0-.3-.09-.3-.3Z"/><path class="cls-3" d="M34,142.53a11.3,11.3,0,0,1,.49-3.54c.84-2.62,3.2-4.1,6.33-4.1s5.5,1.48,6.34,4.1a13,13,0,0,1,0,7.07c-.84,2.62-3.2,4.1-6.34,4.1s-5.49-1.48-6.33-4.1A11.28,11.28,0,0,1,34,142.53Zm9.36,0a8.76,8.76,0,0,0-.27-2.51,2.13,2.13,0,0,0-2.27-1.57A2.12,2.12,0,0,0,38.53,140a11.76,11.76,0,0,0,0,5,2.12,2.12,0,0,0,2.26,1.57A2.13,2.13,0,0,0,43.06,145,8.73,8.73,0,0,0,43.33,142.53Z"/><path class="cls-3" d="M56.36,129.61c0-.21.09-.3.3-.3H60.5c.21,0,.3.09.3.3v19.92c0,.21-.09.3-.3.3H56.66c-.21,0-.3-.09-.3-.3Z"/><path class="cls-3" d="M81.77,149.83c-.21,0-.3-.09-.3-.3v-8.39c0-1.66-.81-2.66-2.29-2.66s-2.27,1.06-2.27,2.66v8.39c0,.21-.09.3-.3.3H73c-.21,0-.3-.09-.3-.3v-8.39c0-1.66-.79-2.66-2.27-2.66s-2.29,1.06-2.29,2.66v8.39c0,.21-.09.3-.3.3H64.21c-.21,0-.3-.09-.3-.3v-14c0-.21.09-.3.3-.3h3.62c.21,0,.3.09.3.3v1h0a4.32,4.32,0,0,1,3.77-1.66,4.48,4.48,0,0,1,3.93,1.84h0a6,6,0,0,1,4.58-1.84c3.39,0,5.23,2.14,5.23,5.43v9.21c0,.21-.09.3-.31.3Z"/><path class="cls-3" d="M97.19,149.83c-.21,0-.3-.09-.3-.3v-1h0a4.8,4.8,0,0,1-4,1.6c-2.77,0-4.86-1.54-4.86-4.47,0-3.13,2.33-4.7,6.07-4.7h2.6a.16.16,0,0,0,.18-.18v-.55c0-1.42-.73-2-3-2a5.25,5.25,0,0,0-3.26.94.24.24,0,0,1-.39-.06l-1.36-2.39a.29.29,0,0,1,.09-.42,9.16,9.16,0,0,1,5.43-1.45c4.71,0,6.49,1.57,6.49,5.28v9.36c0,.21-.09.3-.3.3ZM96.83,145v-1c0-.13-.06-.19-.18-.19H94.59c-1.72,0-2.59.55-2.59,1.66s.69,1.54,2.11,1.54C95.92,147,96.83,146.33,96.83,145Z"/><path class="cls-3" d="M105.91,155a5.41,5.41,0,0,1-2.33-1.57.3.3,0,0,1,0-.45l2.15-2.17a.27.27,0,0,1,.45,0,4.49,4.49,0,0,0,3,1.26c2,0,2.93-1.08,2.93-3.23v-1.23h0a4.12,4.12,0,0,1-3.75,1.69,4.69,4.69,0,0,1-4.89-3.53,12.3,12.3,0,0,1-.48-3.66,12,12,0,0,1,.48-3.65,4.69,4.69,0,0,1,4.89-3.53,4.09,4.09,0,0,1,3.75,1.69h0v-1.06c0-.21.09-.3.3-.3h3.62c.21,0,.3.09.3.3v12.74c0,4.89-2.41,7.33-7.27,7.33A8.52,8.52,0,0,1,105.91,155Zm6-10.83a6.7,6.7,0,0,0,.28-2.06,6.63,6.63,0,0,0-.28-2,2.06,2.06,0,0,0-2.17-1.57,2.1,2.1,0,0,0-2.17,1.57,8.66,8.66,0,0,0,0,4.11,2.1,2.1,0,0,0,2.17,1.56A2.06,2.06,0,0,0,111.88,144.13Z"/><path class="cls-3" d="M119.21,146a11.3,11.3,0,0,1-.51-3.47,11,11,0,0,1,.48-3.51c.85-2.62,3.17-4.13,6.28-4.13s5.46,1.54,6.31,4.1a15.73,15.73,0,0,1,.48,4.5c0,.21-.12.3-.33.3h-8.84c-.12,0-.18.06-.18.19a3.21,3.21,0,0,0,.18.81c.39,1.3,1.42,1.93,3,1.93a4.72,4.72,0,0,0,3.35-1.3c.18-.15.33-.15.42,0l2,1.87c.15.16.18.28,0,.43a8.11,8.11,0,0,1-6.22,2.44C122.38,150.16,120.06,148.65,119.21,146Zm8.7-5a.16.16,0,0,0,.18-.18,4.1,4.1,0,0,0-.15-1.09,2.67,2.67,0,0,0-4.89,0,4.1,4.1,0,0,0-.15,1.09.16.16,0,0,0,.18.18Z"/></g><g class="cls-2"><circle class="cls-4" cx="69.64" cy="31.17" r="2.61"/><path class="cls-5" d="M109.45,83c0,17.52-16.32,31.72-36.44,31.72S36.56,100.5,36.56,83a29,29,0,0,1,7.6-19.37l.38.25c.71.48,1.44.93,2.18,1.37l.58.34c.69.39,1.39.77,2.1,1.13l.83.4c.48.23,1,.45,1.47.67l1.32.56c.54.22,1.08.42,1.62.62s.87.31,1.3.45.82.27,1.23.39c.65.2,1.31.39,2,.56l1.32.34,1.22.28c.76.16,1.52.31,2.3.44l.93.14c.75.12,1.51.22,2.27.31l.36,0V84.63c-8.38,2.6-14.38,9.52-14.69,9.88a1.62,1.62,0,0,0,0,2.09c.38.44,9.42,10.86,20.88,10.86S94.23,97,94.61,96.6a1.62,1.62,0,0,0,0-2.09c-.31-.36-6.31-7.28-14.68-9.88V71.9l.36-.05c.76-.08,1.51-.18,2.26-.3l.94-.14c.77-.13,1.53-.28,2.29-.44L87,70.69l1.32-.33c.67-.18,1.33-.37,2-.57l1.21-.38,1.3-.46c.54-.19,1.07-.4,1.6-.61s.9-.37,1.35-.57l1.46-.67.83-.4c.72-.36,1.42-.74,2.1-1.13l.59-.34c.55-.33,1.09-.67,1.63-1A29,29,0,0,1,109.45,83Z"/><path class="cls-6" d="M112.65,30.44a13.83,13.83,0,0,1,.45,3.48c0,6.91-5,11.13-12,12.64a39.55,39.55,0,0,1,1.56,4.91c.23.91.43,1.84.6,2.78v0l0,.34c0,.15,0,.29.06.44.06.39.12.77.17,1.16l.06.51c0,.4.09.8.12,1.2,0,.22,0,.43,0,.64,8.79-1.14,15.54-7.76,15.54-15.79A15.29,15.29,0,0,0,112.65,30.44Z"/><path class="cls-6" d="M44.79,51.47a39.45,39.45,0,0,1,1.93-5.8c-6.9-1.54-11.82-5.75-11.82-12.6a13.83,13.83,0,0,1,.45-3.48A15.29,15.29,0,0,0,28.68,42c0,7.89,6.51,14.42,15.07,15.73,0-.3.06-.6.09-.9l.06-.54c.05-.38.11-.75.16-1.12,0-.16,0-.32.07-.48l.06-.38h0Q44.45,52.85,44.79,51.47Z"/><path class="cls-7" d="M49.83,44c-.17.33-.32.67-.47,1s-.34.68-.49,1a37.26,37.26,0,0,0-2.18,6.65l.73.48a39.44,39.44,0,0,0,3.53,2q1.13.59,2.31,1.11c.24.11.48.23.72.33.49.21,1,.38,1.49.57s.93.38,1.41.55a50.14,50.14,0,0,0,10.66,2.38V28.9C60.06,30.91,53.71,36.47,49.83,44Z"/><path class="cls-7" d="M99,46.93c-.14-.35-.31-.69-.46-1s-.3-.68-.45-1c-3.84-8-10.38-13.9-18.13-16V60.16a50.57,50.57,0,0,0,10-2.18c.46-.15.9-.33,1.35-.49s1-.33,1.43-.52l.68-.28c.79-.33,1.57-.68,2.33-1A40.33,40.33,0,0,0,100,53.19l.73-.48A37.71,37.71,0,0,0,99,46.93Z"/><path class="cls-8" d="M101.73,60.9c0-.17,0-.34,0-.51s0-.38,0-.56v-.08c0-.34,0-.66-.06-1,0-.13,0-.26,0-.39s0-.15,0-.23c-.07-.84-.17-1.66-.29-2.48l-.06-.43c0-.08,0-.15,0-.24-1.1.72-2.27,1.38-3.47,2-.68.36-1.37.71-2.08,1l-.09,0c-.48.21-1,.4-1.48.61s-1,.42-1.46.61a53.05,53.05,0,0,1-14.84,3.21V28.44c-.6-.11-1.2-.19-1.81-.25l-.36,0c-.62-.05-1.25-.09-1.88-.09s-1.26,0-1.88.09l-.35,0c-.61.06-1.22.14-1.82.25V62.51A52.38,52.38,0,0,1,54,59c-.52-.21-1-.45-1.52-.68s-.94-.4-1.39-.61l-.24-.13c-.65-.31-1.29-.64-1.9-1-.92-.5-1.8-1-2.65-1.58v0c-.08.5-.15,1-.22,1.52v.07c-.05.42-.1.84-.13,1.27l0,.24,0,.53c0,.1,0,.2,0,.3v0c0,.25,0,.49-.05.74s0,.2,0,.3c0,.46,0,.91,0,1.37,0,.19,0,.37,0,.55v.13c.73.5,1.5,1,2.28,1.42l.34.21c.75.42,1.53.83,2.32,1.22.14.08.29.15.44.22.8.38,1.62.75,2.46,1.09l.37.15c.89.35,1.79.69,2.71,1h0c.93.31,1.88.59,2.84.84l.4.11c.92.24,1.87.46,2.82.65l.49.1c1,.18,1.94.34,2.93.48l.38.05c1,.13,2.09.24,3.16.32h0V84.08a19.29,19.29,0,0,1,8.1,0V69.94h0c1.06-.08,2.11-.19,3.15-.32l.38-.05c1-.14,2-.3,2.93-.48l.49-.1c1-.19,1.9-.41,2.83-.65l.39-.11c1-.25,1.91-.53,2.84-.84h0c.93-.31,1.83-.65,2.72-1l.36-.15c.84-.34,1.66-.71,2.46-1.09.15-.07.3-.14.44-.22.8-.39,1.57-.8,2.32-1.22l.35-.21c.5-.29,1-.6,1.46-.91.27-.17.55-.33.81-.51,0-.22,0-.45,0-.68S101.73,61.07,101.73,60.9ZM52.28,64.52a2.41,2.41,0,1,1,2.41-2.41A2.41,2.41,0,0,1,52.28,64.52ZM62,67.74a2.42,2.42,0,1,1,2.41-2.41A2.41,2.41,0,0,1,62,67.74ZM73.73,34a2.42,2.42,0,1,1-2.41,2.41A2.41,2.41,0,0,1,73.73,34Zm0,9.92a2.42,2.42,0,1,1-2.41,2.41A2.41,2.41,0,0,1,73.73,44Zm0,9.92a2.42,2.42,0,1,1-2.41,2.42A2.41,2.41,0,0,1,73.73,53.88Zm0,9.92a2.42,2.42,0,1,1-2.41,2.42A2.41,2.41,0,0,1,73.73,63.8Zm0,14.75a2.42,2.42,0,1,1,2.41-2.41A2.41,2.41,0,0,1,73.73,78.55ZM84.35,67.74a2.42,2.42,0,1,1,2.41-2.41A2.41,2.41,0,0,1,84.35,67.74Zm9.76-2.9a2.41,2.41,0,1,1,2.41-2.41A2.41,2.41,0,0,1,94.11,64.84Z"/><path class="cls-4" d="M73.73,94.53h0a107.86,107.86,0,0,0-19.12,1.58c2,2.11,9.8,9.74,19.15,9.74S90.9,98.22,92.89,96.1A108.34,108.34,0,0,0,73.73,94.53Z"/><path class="cls-4" d="M92.16,94.26a33.74,33.74,0,0,0-12.23-7.92L78.85,86c-.35-.1-.71-.19-1.07-.27a17.68,17.68,0,0,0-8.1,0c-.36.08-.72.17-1.07.27l-1.07.34a33.48,33.48,0,0,0-12.23,7.92,112.28,112.28,0,0,1,18.42-1.43A112.32,112.32,0,0,1,92.16,94.26Z"/><path class="cls-4" d="M73.73,34a2.42,2.42,0,1,0,2.41,2.41A2.41,2.41,0,0,0,73.73,34Z"/><path class="cls-4" d="M73.73,44a2.42,2.42,0,1,0,2.41,2.41A2.41,2.41,0,0,0,73.73,44Z"/><path class="cls-4" d="M73.73,53.88a2.42,2.42,0,1,0,2.41,2.42A2.41,2.41,0,0,0,73.73,53.88Z"/><path class="cls-4" d="M73.73,63.8a2.42,2.42,0,1,0,2.41,2.42A2.41,2.41,0,0,0,73.73,63.8Z"/><circle class="cls-4" cx="84.35" cy="65.33" r="2.41"/><path class="cls-4" d="M94.11,60a2.41,2.41,0,1,0,2.41,2.41A2.41,2.41,0,0,0,94.11,60Z"/><circle class="cls-4" cx="62.04" cy="65.33" r="2.41"/><path class="cls-4" d="M52.28,59.7a2.41,2.41,0,1,0,2.41,2.41A2.41,2.41,0,0,0,52.28,59.7Z"/><path class="cls-4" d="M71.32,76.14a2.41,2.41,0,1,0,2.41-2.42A2.41,2.41,0,0,0,71.32,76.14Z"/><path class="cls-9" d="M60.74,80.88c0-3.73-2.57-6.75-5.74-6.75s-5.73,3-5.73,6.75,2.57,6.75,5.73,6.75S60.74,84.61,60.74,80.88Z"/><path class="cls-9" d="M92.8,74.13c-3.17,0-5.74,3-5.74,6.75s2.57,6.75,5.74,6.75,5.73-3,5.73-6.75S96,74.13,92.8,74.13Z"/><path class="cls-9" d="M121.46,42.8a17.38,17.38,0,0,0-7.55-14.1l-4.78-3.45L110.57,31a11.73,11.73,0,0,1,.38,3c0,4.47-2.92,9.18-10.68,10.66-4.16-9-11.55-15.73-20.34-17.9v-.06l-1.53-.27-.21,0H78.1c-.65-.11-1.3-.19-1.95-.25l-.4,0c-.68-.06-1.35-.09-2-.09s-1.34,0-2,.09l-.4,0c-.65.06-1.31.14-2,.26h-.08l-.22,0-1.52.27v.06c-8.51,2.1-15.7,8.43-19.93,17-7.67-1.5-10.56-6.19-10.56-10.64a11.65,11.65,0,0,1,.38-2.95l1.44-5.71-4.78,3.44A17.38,17.38,0,0,0,26.54,42c0,9,7.41,16.47,17.07,17.87,0,.43,0,.86,0,1.29A31.33,31.33,0,0,0,34.42,83c0,18.68,17.31,33.87,38.59,33.87S111.59,101.66,111.59,83a31.1,31.1,0,0,0-7.73-20.31V61.4c0-.22,0-.44,0-.66C113.79,59.53,121.46,52,121.46,42.8ZM35.35,29.59a13.83,13.83,0,0,0-.45,3.48c0,6.85,4.92,11.06,11.82,12.6a39.45,39.45,0,0,0-1.93,5.8q-.34,1.38-.6,2.79h0l-.06.38c0,.16,0,.32-.07.48-.05.37-.11.74-.16,1.12l-.06.54c0,.3-.07.6-.09.9C35.19,56.37,28.68,49.84,28.68,42A15.29,15.29,0,0,1,35.35,29.59ZM49.36,45c.15-.33.3-.67.47-1,3.88-7.56,10.23-13.12,17.71-15.13V60.16a50.14,50.14,0,0,1-10.66-2.38c-.48-.17-.94-.37-1.41-.55s-1-.36-1.49-.57c-.24-.1-.48-.22-.72-.33Q52.08,55.8,51,55.22a39.44,39.44,0,0,1-3.53-2l-.73-.48a37.26,37.26,0,0,1,2.18-6.65C49,45.71,49.19,45.37,49.36,45ZM69.68,54V28.44c.6-.11,1.21-.19,1.82-.25l.35,0c.62-.05,1.25-.09,1.88-.09s1.26,0,1.88.09l.36,0c.61.06,1.21.14,1.81.25V62.51A53.05,53.05,0,0,0,92.62,59.3c.5-.19,1-.41,1.46-.61s1-.4,1.48-.61l.09,0c.71-.33,1.4-.68,2.08-1,1.2-.63,2.37-1.29,3.47-2,0,.09,0,.16,0,.24l.06.43c.12.82.22,1.64.29,2.48,0,.08,0,.15,0,.23s0,.26,0,.39c0,.33,0,.65.06,1v.08c0,.18,0,.37,0,.56s0,.34,0,.51,0,.33,0,.5,0,.46,0,.68c-.26.18-.54.34-.81.51-.48.31-1,.62-1.46.91l-.35.21c-.75.42-1.52.83-2.32,1.22-.14.08-.29.15-.44.22-.8.38-1.62.75-2.46,1.09l-.36.15c-.89.35-1.79.69-2.72,1h0c-.93.31-1.88.59-2.84.84l-.39.11c-.93.24-1.87.46-2.83.65l-.49.1c-1,.18-1.94.34-2.93.48l-.38.05c-1,.13-2.09.24-3.15.32h0V84.08a19.29,19.29,0,0,0-8.1,0V69.94h0c-1.07-.08-2.12-.19-3.16-.32l-.38-.05c-1-.14-2-.3-2.93-.48l-.49-.1c-.95-.19-1.9-.41-2.82-.65l-.4-.11c-1-.25-1.91-.53-2.84-.84h0c-.92-.31-1.82-.65-2.71-1l-.37-.15c-.84-.34-1.66-.71-2.46-1.09-.15-.07-.3-.14-.44-.22-.79-.39-1.57-.8-2.32-1.22L48,63.5c-.78-.45-1.55-.92-2.28-1.42V62c0-.18,0-.36,0-.55,0-.46,0-.91,0-1.37,0-.1,0-.2,0-.3s0-.49.05-.74v0c0-.1,0-.2,0-.3l0-.53,0-.24c0-.43.08-.85.13-1.27v-.07c.07-.51.14-1,.22-1.52v0c.85.55,1.73,1.08,2.65,1.58.61.34,1.25.67,1.9,1l.24.13c.45.21.93.4,1.39.61s1,.47,1.52.68a52.38,52.38,0,0,0,15.73,3.54ZM98.51,45.9c.15.34.32.68.46,1a37.71,37.71,0,0,1,1.8,5.78l-.73.48a40.33,40.33,0,0,1-4.31,2.45c-.76.37-1.54.72-2.33,1l-.68.28c-.47.19-1,.35-1.43.52s-.89.34-1.35.49a50.57,50.57,0,0,1-10,2.18V28.9c7.75,2.09,14.29,8,18.13,16C98.21,45.22,98.35,45.56,98.51,45.9ZM73.73,92.83a112.28,112.28,0,0,0-18.42,1.43,33.48,33.48,0,0,1,12.23-7.92L68.61,86c.35-.1.71-.19,1.07-.27a17.68,17.68,0,0,1,8.1,0c.36.08.72.17,1.07.27l1.08.34a33.74,33.74,0,0,1,12.23,7.92A112.32,112.32,0,0,0,73.73,92.83ZM92.89,96.1c-2,2.12-9.8,9.75-19.16,9.75s-17.16-7.63-19.15-9.74A107.86,107.86,0,0,1,73.7,94.53h0A108.34,108.34,0,0,1,92.89,96.1Zm10.89-37.51c0-.21,0-.42,0-.64,0-.4-.08-.8-.12-1.2l-.06-.51c0-.39-.11-.77-.17-1.16,0-.15,0-.29-.06-.44l0-.34v0c-.17-.94-.37-1.87-.6-2.78a39.55,39.55,0,0,0-1.56-4.91c7-1.51,12-5.73,12-12.64a13.83,13.83,0,0,0-.45-3.48,15.29,15.29,0,0,1,6.67,12.36C119.32,50.83,112.57,57.45,103.78,58.59ZM109.45,83c0,17.52-16.32,31.72-36.44,31.72S36.56,100.5,36.56,83a29,29,0,0,1,7.6-19.37l.38.25c.71.48,1.44.93,2.18,1.37l.58.34c.69.39,1.39.77,2.1,1.13l.83.4c.48.23,1,.45,1.47.67l1.32.56c.54.22,1.08.42,1.62.62s.87.31,1.3.45.82.27,1.23.39c.65.2,1.31.39,2,.56l1.32.34,1.22.28c.76.16,1.52.31,2.3.44l.93.14c.75.12,1.51.22,2.27.31l.36,0V84.63c-8.38,2.6-14.38,9.52-14.69,9.88a1.62,1.62,0,0,0,0,2.09c.38.44,9.42,10.86,20.88,10.86S94.23,97,94.61,96.6a1.62,1.62,0,0,0,0-2.09c-.31-.36-6.31-7.28-14.68-9.88V71.9l.36-.05c.76-.08,1.51-.18,2.26-.3l.94-.14c.77-.13,1.53-.28,2.29-.44L87,70.69l1.32-.33c.67-.18,1.33-.37,2-.57l1.21-.38,1.3-.46c.54-.19,1.07-.4,1.6-.61s.9-.37,1.35-.57l1.46-.67.83-.4c.72-.36,1.42-.74,2.1-1.13l.59-.34c.55-.33,1.09-.67,1.63-1A29,29,0,0,1,109.45,83Z"/></g></svg>