<svg id="レイヤー_1" data-name="レイヤー 1" xmlns="http://www.w3.org/2000/svg" xmlns:xlink="http://www.w3.org/1999/xlink" viewBox="0 0 220 61.75"><defs><style>.cls-1{fill:url(#radial-gradient);}.cls-2{fill:url(#radial-gradient-2);}.cls-3{fill:#f9be00;}.cls-4{fill:#004097;}</style><radialGradient id="radial-gradient" cx="35.33" cy="74.2" r="56.37" gradientUnits="userSpaceOnUse"><stop offset="0.15" stop-color="#36a0da"/><stop offset="0.55" stop-color="#004097"/><stop offset="0.64" stop-color="#043c8e"/><stop offset="0.78" stop-color="#0f3076"/><stop offset="0.9" stop-color="#1b245c"/></radialGradient><radialGradient id="radial-gradient-2" cx="35.33" cy="39.94" r="36.48" gradientUnits="userSpaceOnUse"><stop offset="0" stop-color="#fff"/><stop offset="0.4" stop-color="#36a0da"/><stop offset="0.8" stop-color="#004097"/></radialGradient></defs><title>esm</title><path class="cls-1" d="M8.55,61.75a9.22,9.22,0,0,1-5.88-1.87h0A7.15,7.15,0,0,1,0,54.24H0a9.82,9.82,0,0,1,1.41-4.86h0L27.24,4.65a10.09,10.09,0,0,1,2.91-3.28h0A7.39,7.39,0,0,1,34.38,0h0a7.42,7.42,0,0,1,4.24,1.37h0a10.33,10.33,0,0,1,2.91,3.28h0l9.08,15.73a11.43,11.43,0,0,1,1.54,5.72h0a11.52,11.52,0,0,1-5.74,10h0l-31.23,18h46L53.33,40.4a3.83,3.83,0,0,1,1.4-5.23h0A3.83,3.83,0,0,1,60,36.57h0l7.39,12.81a9.71,9.71,0,0,1,1.41,4.86h0a7.15,7.15,0,0,1-2.67,5.64h0a9.2,9.2,0,0,1-5.88,1.87H8.55Zm2.81-14.28,31.22-18a3.82,3.82,0,0,0,1.91-3.34h0A3.7,3.7,0,0,0,44,24.21h0L34.38,7.45Z"/><path class="cls-2" d="M18.33,35.35,34.38,7.45,44,24.21a3.7,3.7,0,0,1,.51,1.89,4,4,0,0,1-.31,1.53q3.9-.87,8-1.62a11.41,11.41,0,0,0-1.53-5.63L41.53,4.65a10.33,10.33,0,0,0-2.91-3.28,7.23,7.23,0,0,0-8.47,0,10.09,10.09,0,0,0-2.91,3.28L6.42,40.71A121.19,121.19,0,0,1,18.33,35.35Z"/><path class="cls-3" d="M89.9,36.1l13.66-3.32a13.47,13.47,0,0,0,10.36-12.71A13.11,13.11,0,0,0,100.58,7.14H93.1A13.1,13.1,0,0,0,79.76,20.07V34.35A17.67,17.67,0,0,0,97.42,52.09h14.84V42.84H97.42A7.63,7.63,0,0,1,89.9,36.1Zm-.06-9.67V20.07a3.59,3.59,0,0,1,3.26-3.68h7.48a3.06,3.06,0,0,1,2.22,1.06,3.91,3.91,0,0,1,1,2.62c0,2.13-1.08,3.18-2.56,3.55Z"/><path class="cls-4" d="M144.5,26.54l-11.12-2.91a3.53,3.53,0,0,1-2.54-3.56,3.91,3.91,0,0,1,1-2.62,3.06,3.06,0,0,1,2.22-1.06h18.33V7.14H134.1a13.11,13.11,0,0,0-13.34,12.93c0,6.45,4.69,11.18,10.42,12.62L142,35.43a3.51,3.51,0,0,1,2.86,3.73,3.91,3.91,0,0,1-1,2.63,3.08,3.08,0,0,1-2.22,1.05h-20v9.25h20a13.11,13.11,0,0,0,13.34-12.93C154.91,32.86,150.27,28,144.5,26.54Z"/><path class="cls-4" d="M207.07,7.14h-3.49a16.41,16.41,0,0,0-11,4.17A13.58,13.58,0,0,0,183,7.14h-3.73A14.51,14.51,0,0,0,170.47,10l-1.92-2.88h-6.79v45h10.08v-28a7.51,7.51,0,0,1,7.42-7.66H183a2.92,2.92,0,0,1,2.85,2.93V52.09h10.08v-28a7.74,7.74,0,0,1,7.66-7.66h3.49a2.93,2.93,0,0,1,2.85,2.93V52.09H220v-32A12.91,12.91,0,0,0,207.07,7.14Z"/></svg>