<svg id="レイヤー_1" data-name="レイヤー 1" xmlns="http://www.w3.org/2000/svg" viewBox="0 0 240 54.47"><defs><style>.cls-1{fill:#6ea250;}</style></defs><title>feedforce</title><path class="cls-1" d="M27.07,0A27.23,27.23,0,0,0,0,24.35H8.24v-.74A14.85,14.85,0,0,1,23.07,8.79v5.77A9.07,9.07,0,0,0,14,23.62v.73h9.65v-.73A14.84,14.84,0,0,1,38.49,8.79v5.77a9.06,9.06,0,0,0-9,9.06v.73h9.05v5.77h-9v12.1H23.66V30.12H14v12.1H8.24V30.12H0A27.23,27.23,0,1,0,27.07,0"/><path d="M92,24.8a6.22,6.22,0,0,1,5.73,3.84H86.26A6.2,6.2,0,0,1,92,24.8M81,31a11,11,0,0,0,18.6,7.87l-3.31-3.41a6.2,6.2,0,0,1-10-2.08H103V31A11,11,0,0,0,81,31"/><path d="M113.64,24.8a6.2,6.2,0,0,1,5.72,3.84H107.91a6.22,6.22,0,0,1,5.73-3.84m-11,6.21a11,11,0,0,0,18.6,7.87L118,35.47a6.21,6.21,0,0,1-10.06-2.08h16.7V31a11,11,0,0,0-21.93,0"/><path d="M79.92,18.9V14.15a11,11,0,0,0-11,10.7H63.41V29.6H69V41.31h4.75V29.6h6.21V24.85H73.74a6.21,6.21,0,0,1,6.18-6"/><path class="cls-1" d="M170.93,31a6.21,6.21,0,1,1,6.21,6.21A6.22,6.22,0,0,1,170.93,31m-4.75,0a11,11,0,1,0,11-11,11,11,0,0,0-11,11"/><path class="cls-1" d="M189.47,31v10.3h4.75V31a6.22,6.22,0,0,1,6.2-6.21V20.05a11,11,0,0,0-10.95,11"/><path class="cls-1" d="M203.57,23.26a11,11,0,1,0,15.5,15.51l-3.36-3.37a6.21,6.21,0,1,1,0-8.78l3.36-3.36a11,11,0,0,0-15.5,0"/><path class="cls-1" d="M229,24.8a6.2,6.2,0,0,1,5.73,3.84H223.31A6.2,6.2,0,0,1,229,24.8m-11,6.21a11,11,0,0,0,18.6,7.87l-3.31-3.41a6.2,6.2,0,0,1-10.05-2.08H240V31a11,11,0,0,0-21.93,0"/><path class="cls-1" d="M165,18.9V14.15a11,11,0,0,0-10.95,10.7h-5.56V29.6H154V41.31h4.75V29.6H165V24.85h-6.19A6.21,6.21,0,0,1,165,18.9Z"/><path d="M135.24,37.22A6.21,6.21,0,1,1,141.45,31a6.22,6.22,0,0,1-6.21,6.21m6.21-22.12V22a10.82,10.82,0,0,0-6.21-1.94,11,11,0,1,0,11,11V15.1Z"/></svg>