<svg id="レイヤー_1" data-name="レイヤー 1" xmlns="http://www.w3.org/2000/svg" viewBox="0 0 280 48.89"><defs><style>.cls-1{fill:#030000;}.cls-2{fill:#e1740d;}</style></defs><title>moneyforward</title><path class="cls-1" d="M83.25,20h-.06L78,34.6H76.4L71.35,20h0l-2,14.3H64.72L68.6,10.63h3.18l5.69,15.2,5.44-15.2h3.25l3.45,23.66H85.08Z"/><path class="cls-1" d="M107,26.8a7.89,7.89,0,1,1-15.77,0,7.89,7.89,0,1,1,15.77,0Zm-11.43,0c0,2,1.34,4.2,3.55,4.2s3.54-2.18,3.54-4.2-1.35-4.21-3.54-4.21S95.54,24.73,95.54,26.8Z"/><path class="cls-1" d="M114,20.66h.07A4.46,4.46,0,0,1,118,18.79c4,0,5.2,2.85,5.2,6.33v9.17h-4.28V26.35c0-1.81.09-4.13-2.33-4.13S114,25.06,114,26.87v7.42h-4.28v-15H114Z"/><path class="cls-1" d="M130.48,27.48c0,1.89.73,4,3,4a3.13,3.13,0,0,0,2.87-2l4,.64a6.92,6.92,0,0,1-6.82,4.68c-4.65,0-7.49-3.31-7.49-7.86s2.41-8.14,7.27-8.14,7.13,3.64,7.13,8.17v.52Zm5.84-2.66c-.21-1.53-1.19-3-2.84-3s-2.66,1.47-2.88,3Z"/><path class="cls-1" d="M141,19.28h4.86l3.58,8.54,3.85-8.54h4.77l-10.92,23h-4.71l5-10.3Z"/><path class="cls-2" d="M171.54,15.16v5.07h6.51v3.92h-6.51V34.29H167v-23h11.44v3.92Z"/><path class="cls-2" d="M195.08,26.8a7.89,7.89,0,1,1-15.78,0,7.89,7.89,0,1,1,15.78,0Zm-11.44,0c0,2,1.35,4.2,3.55,4.2s3.55-2.18,3.55-4.2-1.35-4.21-3.55-4.21S183.64,24.73,183.64,26.8Z"/><path class="cls-2" d="M202.14,20.84h.06a4.31,4.31,0,0,1,3.73-2.05,5.15,5.15,0,0,1,1.78.37l-.52,4a3.07,3.07,0,0,0-1.78-.55c-3,0-3.27,2.63-3.27,4.95v6.75h-4.28v-15h4.28Z"/><path class="cls-2" d="M233,22.11,227.05,34.6h-2.17l-3.21-9.14-3.58,9.14h-2.2L209,19.28h4.68L217,27.21l3.48-8.42h2.37l3.4,8.27,2.93-6.4s3.72-9.29,12.35-9.33l.84,3.61S236.31,14.51,233,22.11Z"/><path class="cls-2" d="M250,34.29h-4.22V32.92h-.06a5.21,5.21,0,0,1-4.07,1.87c-4.4,0-6.91-4-6.91-8.08s2.54-7.92,6.85-7.92a5.57,5.57,0,0,1,4.19,1.9V19.28H250Zm-3.79-7.51c0-2-1.38-4.19-3.58-4.19S239,24.76,239,26.78,240.38,31,242.58,31,246.16,28.79,246.16,26.78Z"/><path class="cls-2" d="M258.08,20.84h.06a4.31,4.31,0,0,1,3.73-2.05,5,5,0,0,1,1.77.37l-.52,4a3,3,0,0,0-1.77-.55c-3,0-3.27,2.63-3.27,4.95v6.75H253.8v-15h4.28Z"/><path class="cls-2" d="M275.72,32.89h-.06a5,5,0,0,1-4,1.9c-4.4,0-6.91-4-6.91-8.08s2.54-7.92,6.85-7.92a5.32,5.32,0,0,1,4.1,1.87h.06V11.24H280v23h-4.28Zm.43-6.11c0-2-1.35-4.19-3.55-4.19s-3.55,2.17-3.55,4.19S270.4,31,272.6,31,276.15,28.79,276.15,26.78Z"/><path class="cls-2" d="M36.44,30.8a3.7,3.7,0,0,1-3.16-1.59l-4.13-5.9L26,32.65a3.72,3.72,0,0,1-6.44,1.1L16.7,30.18l-2,6.56a3.71,3.71,0,0,1-3.55,2.61,3.55,3.55,0,0,1-1.1-.17,3.72,3.72,0,0,1-2.45-4.65L11.7,21.22A3.72,3.72,0,0,1,18.17,20l3,3.76L24.48,14a3.71,3.71,0,0,1,3-2.48,3.76,3.76,0,0,1,3.57,1.55l5.07,7.26L43,9.14a24.25,24.25,0,1,0,4.19,7.4L39.5,29A3.73,3.73,0,0,1,36.44,30.8Z"/><path class="cls-2" d="M55,4.82A4.83,4.83,0,1,1,50.2,0,4.82,4.82,0,0,1,55,4.82Z"/></svg>