<svg id="レイヤー_1" data-name="レイヤー 1" xmlns="http://www.w3.org/2000/svg" viewBox="0 0 224.45 62.53"><defs><style>.cls-1{fill:#7e7d7e;}.cls-2{fill:#00bdd4;}.cls-3{fill:#231815;}</style></defs><title>nexway</title><g id="レイヤー_2" data-name="レイヤー 2"><g id="LOGO_OL" data-name="LOGO OL"><path class="cls-1" d="M50.21,43.58,62.53,31.27,60.28,29H50.21Z"/><path class="cls-2" d="M0,31.27,24.57,55.83V6.7Z"/><path class="cls-1" d="M26.74,29V58l4.52,4.53L48,45.75V29Zm31.37-2.17L31.26,0,26.74,4.53V26.84Zm110.22,28V47a3.19,3.19,0,0,1,3.19-3.19H178v1.37a.24.24,0,0,1-.26.24h-6.18a1.43,1.43,0,0,0-1.43,1.43V55a1.43,1.43,0,0,0,1.43,1.43h3.88A1.59,1.59,0,0,0,177,55v-3.4h-3.42a.25.25,0,0,1-.24-.25V50h5a.26.26,0,0,1,.25.24V55a2.91,2.91,0,0,1-3.2,3h-3.88a3.19,3.19,0,0,1-3.19-3.19ZM186,48.56v1.35a.21.21,0,0,1-.21.21h-2.35a.91.91,0,0,0-.88.84v7h-1.43a.21.21,0,0,1-.21-.2V48.55h1.43a.19.19,0,0,1,.21.18h0v.41a1.56,1.56,0,0,1,1.27-.62Zm4.07,9.51a2.73,2.73,0,0,1-2.74-2.72V51.17a2.75,2.75,0,0,1,2.73-2.77h2.46a2.77,2.77,0,0,1,2.76,2.74v4.17a2.75,2.75,0,0,1-2.76,2.74Zm-1.11-7v4.29a1.12,1.12,0,0,0,1.11,1.12h2.45a1.13,1.13,0,0,0,1.13-1.13V51.09A1.12,1.12,0,0,0,192.55,50H190.1a1.11,1.11,0,0,0-1.1,1.11Zm10.11-2.55a.21.21,0,0,1,.21.21v6.53a1.09,1.09,0,0,0,1.1,1.09h2.46A1.11,1.11,0,0,0,204,55.31V48.74a.21.21,0,0,1,.2-.21h1.43v6.68a2.75,2.75,0,0,1-2.76,2.73h-2.45a2.73,2.73,0,0,1-2.74-2.72h0V48.54ZM213,57.94h-2.16a1.59,1.59,0,0,1-1.27-.61v5a.21.21,0,0,1-.21.21H208V49.14a.61.61,0,0,1,.62-.61H213a2.48,2.48,0,0,1,2.74,2.64v4.1A2.63,2.63,0,0,1,213.21,58Zm1.11-6.74a1,1,0,0,0-.83-1.1.66.66,0,0,0-.28,0H209.8a.21.21,0,0,0-.21.2v5.13a1.05,1.05,0,0,0,.91.94H213a1.11,1.11,0,0,0,1.11-1.11Zm-131-7.35v1.37a.24.24,0,0,1-.24.24h-4V57.72a.23.23,0,0,1-.23.24H77.15V45.46H73V44.12a.25.25,0,0,1,.25-.25ZM85.69,57.7V43.85h1.52a.25.25,0,0,1,.25.24V57.94H85.94A.26.26,0,0,1,85.69,57.7Zm12-1.37a1.4,1.4,0,0,0,1.39-1.41V53.2a.51.51,0,0,0-.34-.46l-7.21-2.4a1.63,1.63,0,0,1-1-1.43V46.68a2.91,2.91,0,0,1,3.2-2.84h6.68v1.37a.24.24,0,0,1-.23.25H93.7a1.33,1.33,0,0,0-1.44,1.22.19.19,0,0,0,0,.08v1.83a.51.51,0,0,0,.34.48l7.21,2.38a1.56,1.56,0,0,1,1,1.45v2A3,3,0,0,1,97.85,58H90.5v-1.4a.24.24,0,0,1,.24-.24h7Zm11.36,1.37V43.85h1.52a.25.25,0,0,1,.25.24V57.94h-1.52A.26.26,0,0,1,109.06,57.7Zm14.58-2.31c-.19-1.46-.19-2.65-.28-4V44.12a.25.25,0,0,1,.24-.25h1.52V58h-1.63a.48.48,0,0,1-.36-.22l-6.41-12a.61.61,0,0,0-.51-.3h-.32V57.71a.25.25,0,0,1-.25.25h-1.51V44.12a.25.25,0,0,1,.24-.25h2.14a2,2,0,0,1,1.59,1l3.83,7.2Zm13.65-11.54v1.37a.24.24,0,0,1-.24.24h-4V57.72a.24.24,0,0,1-.24.24h-1.53V45.46h-4.2V44.12a.25.25,0,0,1,.24-.25Zm3.41,3v3.56a1.23,1.23,0,0,1,.92-.37h6.18v1.39a.24.24,0,0,1-.24.24H140.7v3.21a1.44,1.44,0,0,0,1.45,1.41h6.09a.24.24,0,0,1,.24.24v1.37h-6.33A3.18,3.18,0,0,1,139,54.76h0V47a3.18,3.18,0,0,1,3.18-3.19h6.32v1.37a.24.24,0,0,1-.24.24h-6.07a1.42,1.42,0,0,0-1.44,1.41v0Zm10,.15a3.18,3.18,0,0,1,3.18-3.19H160v1.37a.24.24,0,0,1-.24.24h-6a1.43,1.43,0,0,0-1.43,1.43h0v8a1.43,1.43,0,0,0,1.43,1.42h6a.25.25,0,0,1,.24.25V58h-6.19a3.19,3.19,0,0,1-3.19-3.19Z"/><path class="cls-3" d="M91.94,28.25c-.38-2.92-.38-5.28-.57-8V5.7a.51.51,0,0,1,.49-.49h3.06V33.35H91.66A.93.93,0,0,1,91,32.9L78.12,9a1.3,1.3,0,0,0-1-.62h-.61V32.86a.5.5,0,0,1-.48.49H72.94V5.7a.51.51,0,0,1,.49-.49h4.29A4,4,0,0,1,80.9,7.13l7.64,14.42Zm11.13-17v7.1a2.42,2.42,0,0,1,1.84-.75h12.32v2.74a.49.49,0,0,1-.48.48H103.07v6.43a2.85,2.85,0,0,0,2.84,2.85h12.15a.49.49,0,0,1,.48.48v2.73H105.92A6.35,6.35,0,0,1,99.55,27V11.58a6.37,6.37,0,0,1,6.35-6.37h12.64V8a.5.5,0,0,1-.49.48H105.91a2.85,2.85,0,0,0-2.84,2.83Zm35.36,9.82,5.88,12.25h-3.38a.84.84,0,0,1-.72-.45l-4.83-10.15c-.19-.34-.61-.86-1-.86H133c-.41,0-.86.52-1,.86L127.11,32.9a.87.87,0,0,1-.71.45H123l5.85-12.14A2.88,2.88,0,0,1,130,20.05,2.47,2.47,0,0,1,128.84,19L122.21,5.21h3.4a.82.82,0,0,1,.71.45L132,17.3c.15.38.62,1,1,1h1.39c.37,0,.82-.67,1-1L141,5.66a.79.79,0,0,1,.67-.45H145l-6.68,14a2.55,2.55,0,0,1-1,.86A2.66,2.66,0,0,1,138.43,21.1ZM174.88,5.21v26a2.18,2.18,0,0,1-2.18,2.17H154.84a6.24,6.24,0,0,1-6.4-6.08V5.21h3.06a.51.51,0,0,1,.49.49V27.43a2.73,2.73,0,0,0,2.76,2.7h5.92a2.42,2.42,0,0,1-.75-1.79V5.21H163a.51.51,0,0,1,.49.49V29.41a.71.71,0,0,0,.71.71h6.46a.73.73,0,0,0,.71-.71V5.7a.51.51,0,0,1,.49-.49Zm20,.27a.54.54,0,0,0-.45-.27H190a3.16,3.16,0,0,0-3,2.11l-9.14,26H181a.72.72,0,0,0,.67-.49l2.52-7.23h14.31L201,32.86a.71.71,0,0,0,.68.49h3.06Zm-9.63,16.93L190,8.93a.7.7,0,0,1,.67-.49h1.84l4.9,14Zm39.18-17.2-5.71,14.57A3,3,0,0,1,216,21.92h-1.68V32.86a.5.5,0,0,1-.49.49h-3.07V21.92l-1.49,0a3,3,0,0,1-3-2.1L200.52,5.21h3.3a.88.88,0,0,1,.67.45l4.68,12.26a1.17,1.17,0,0,0,1,.67h4.69a1.17,1.17,0,0,0,1-.67l4.68-12.26a.88.88,0,0,1,.68-.45Z"/></g></g></svg>