<svg id="レイヤー_1" data-name="レイヤー 1" xmlns="http://www.w3.org/2000/svg" viewBox="0 0 326.95 32.59"><defs><style>.cls-1{fill:#393c41;}.cls-2{fill:#3e6f99;}.cls-3{fill:#005aac;}</style></defs><title>pepabo</title><path class="cls-1" d="M272.22,32.09a.46.46,0,0,0,.47.5h5.66a.54.54,0,0,0,.54-.5l1-13a.46.46,0,0,0-.47-.5h-5.66a.56.56,0,0,0-.55.5Z"/><path class="cls-1" d="M305,18.63a.45.45,0,0,0-.46.5l1,13a.54.54,0,0,0,.54.5h5.66c.28,0,.81-.22.79-.5l-1.3-13a.56.56,0,0,0-.55-.5Z"/><path class="cls-1" d="M311,12.21a.5.5,0,0,0,.5-.51V6.26a.5.5,0,0,0-.5-.51H295.86a.51.51,0,0,1-.51-.51V1.4a.51.51,0,0,0-.5-.5H289.4a.51.51,0,0,0-.51.5V5.24a.5.5,0,0,1-.5.51h-15a.51.51,0,0,0-.5.51V11.7a.51.51,0,0,0,.5.51h15a.5.5,0,0,1,.5.5V32.09a.5.5,0,0,0,.51.5h5.45a.5.5,0,0,0,.5-.5V12.71a.5.5,0,0,1,.51-.5Z"/><rect class="cls-2" x="314.65" y="0.48" width="4.85" height="8.47" rx="0.51" ry="0.51"/><rect class="cls-2" x="322.1" y="0.48" width="4.85" height="8.47" rx="0.51" ry="0.51"/><path class="cls-1" d="M166.38,23.05a.33.33,0,0,0,0,.48l4.08,4.08a.33.33,0,0,0,.48,0l14.81-14.8a.34.34,0,0,1,.48,0l19.34,19.37a.34.34,0,0,0,.48,0l4.08-4.08a.36.36,0,0,0,0-.49L186.23,3.67a.34.34,0,0,0-.48,0Z"/><path class="cls-2" d="M206,10a4.77,4.77,0,1,0-4.77-4.77A4.78,4.78,0,0,0,206,10"/><path class="cls-1" d="M220.93,32.25a.29.29,0,0,0,.3.34h6.27a.39.39,0,0,0,.38-.34l3.39-28.2a.29.29,0,0,0-.3-.34H224.7a.39.39,0,0,0-.38.34Z"/><path class="cls-1" d="M246.34,3.71a.3.3,0,0,0-.3.34l3.42,28.2a.4.4,0,0,0,.38.34h6.28a.3.3,0,0,0,.3-.34L253,4.05a.39.39,0,0,0-.38-.34Z"/><path class="cls-2" d="M262.2.48A4.77,4.77,0,1,0,267,5.25,4.76,4.76,0,0,0,262.2.48"/><path class="cls-3" d="M79.35,29.89H81.5a.39.39,0,0,0,.31-.17l8.9-14.58,4.84,16.69a.29.29,0,0,0,.26.19h9.35a.14.14,0,0,0,.14-.19L95.44.61a.31.31,0,0,0-.26-.19H91.67a.42.42,0,0,0-.31.17l-12,18.62L67.34.59A.4.4,0,0,0,67,.42H63.53a.29.29,0,0,0-.26.19L53.41,31.83a.14.14,0,0,0,.14.19H62.9a.29.29,0,0,0,.25-.19L68,15.14,76.9,29.72a.38.38,0,0,0,.3.17Z"/><path class="cls-3" d="M53.84,14.35h0a.2.2,0,0,0-.19-.16H27a2.55,2.55,0,0,0,0,5.1H42.83c-1.88,5-8.25,8.65-15.82,8.65-9.06,0-16.4-5.24-16.4-11.71S18,4.52,27,4.52a19.66,19.66,0,0,1,12.38,4l0,0a.2.2,0,0,0,.11,0H50.41a.2.2,0,0,0,.2-.2.25.25,0,0,0,0-.12l0,0C45.92,3.33,37.11,0,27,0,12.09,0,0,7.26,0,16.22S12.09,32.44,27,32.44s27-7.26,27-16.22a10.57,10.57,0,0,0-.17-1.87"/><path class="cls-3" d="M131.7,0c-14.92,0-27,7.26-27,16.22s12.09,16.22,27,16.22,27-7.26,27-16.22S146.61,0,131.7,0m0,27.93c-9.06,0-16.39-5.24-16.39-11.71s7.33-11.7,16.39-11.7,16.39,5.24,16.39,11.7-7.34,11.71-16.39,11.71"/></svg>