<svg id="レイヤー_1" data-name="レイヤー 1" xmlns="http://www.w3.org/2000/svg" viewBox="0 0 270 48.02"><defs><style>.cls-1{fill:#00c4cc;}</style></defs><title>smarthr</title><path class="cls-1" d="M22.24,28.87a2,2,0,0,1-.54-.07,9.6,9.6,0,1,1,11.44-13,2,2,0,1,1-3.69,1.57A5.43,5.43,0,0,0,27.58,15a5.6,5.6,0,0,0-7.8,1.26,5.6,5.6,0,0,0,1.27,7.8,5.72,5.72,0,0,0,1.74.84,2,2,0,0,1-.55,3.93Z"/><path class="cls-1" d="M23.86,38a9.57,9.57,0,0,1-5.6-1.8A9.7,9.7,0,0,1,14.63,31,2,2,0,0,1,18.49,30a5.59,5.59,0,1,0,7.66-6.6,2,2,0,1,1,1.64-3.66,9.47,9.47,0,0,1,1.69,1A9.59,9.59,0,0,1,23.86,38Z"/><path class="cls-1" d="M32.65,4A11.36,11.36,0,0,1,44,15.37V32.65A11.35,11.35,0,0,1,32.65,44H15.37A11.36,11.36,0,0,1,4,32.65V15.37A11.37,11.37,0,0,1,15.37,4H32.65m0-4H15.37A15.37,15.37,0,0,0,0,15.37V32.65A15.37,15.37,0,0,0,15.37,48H32.65A15.37,15.37,0,0,0,48,32.65V15.37A15.38,15.38,0,0,0,43.52,4.5,15.38,15.38,0,0,0,32.65,0Z"/><path class="cls-1" d="M127.7,17.52Q130,20,130,25.72V42.4a.85.85,0,0,1-.84.84h-6.34a.85.85,0,0,1-.84-.84V26.9a6.37,6.37,0,0,0-.43-2.62A2.46,2.46,0,0,0,120.3,23a5.39,5.39,0,0,0-2.09-.35,4.39,4.39,0,0,0-2.54.72,4.92,4.92,0,0,0-1.66,2v17a.85.85,0,0,1-.84.84h-6.31a.84.84,0,0,1-.84-.84V27a6.55,6.55,0,0,0-.44-2.67A2.43,2.43,0,0,0,104.33,23a5.48,5.48,0,0,0-2.1-.35,4.69,4.69,0,0,0-2.46.63,4.83,4.83,0,0,0-1.72,1.78V42.4a.85.85,0,0,1-.84.84H90.9a.85.85,0,0,1-.84-.84v-26a.85.85,0,0,1,.84-.84h5.89a.85.85,0,0,1,.84.78l.19,2.37A9.36,9.36,0,0,1,101.2,16a10.46,10.46,0,0,1,4.53-1,8.88,8.88,0,0,1,4.41,1A6.81,6.81,0,0,1,113,19.21a9.31,9.31,0,0,1,3.44-3.11A10.06,10.06,0,0,1,121.2,15,8.38,8.38,0,0,1,127.7,17.52Z"/><path class="cls-1" d="M157.08,43.24h-6a.85.85,0,0,1-.84-.84V40.78a8.5,8.5,0,0,1-6.86,3,10.64,10.64,0,0,1-4.74-1.06,8.5,8.5,0,0,1-3.41-3A7.72,7.72,0,0,1,134,35.43a7.86,7.86,0,0,1,3.24-6.75q3.24-2.37,9.64-2.37h3V24.8a4.3,4.3,0,0,0-.91-2.91,3.55,3.55,0,0,0-2.81-1,3.88,3.88,0,0,0-2.62.81,2.65,2.65,0,0,0-.88,1.6.84.84,0,0,1-.81.72h-6.32a.84.84,0,0,1-.84-.93,7.59,7.59,0,0,1,1.42-3.63,9.79,9.79,0,0,1,4.2-3.23A15.68,15.68,0,0,1,146.63,15a14.37,14.37,0,0,1,5.85,1.12,8.93,8.93,0,0,1,4,3.31,9.68,9.68,0,0,1,1.44,5.41V42.4A.84.84,0,0,1,157.08,43.24Zm-9-6.19a4.44,4.44,0,0,0,1.78-1.7V30.82H147A5.33,5.33,0,0,0,143.25,32a3.9,3.9,0,0,0-1.23,3,2.57,2.57,0,0,0,.88,2,3.38,3.38,0,0,0,2.35.79A5.75,5.75,0,0,0,148.13,37.05Z"/><path class="cls-1" d="M198,38v4.44a.84.84,0,0,1-.59.81,15,15,0,0,1-4.07.53,8.66,8.66,0,0,1-6.16-2q-2.15-2-2.14-6.38V21.8h-2.95a.84.84,0,0,1-.84-.84V15.85a.84.84,0,0,1,.84-.84H185V9.5a.84.84,0,0,1,.84-.84h6.31a.85.85,0,0,1,.84.84V15h3.79a.85.85,0,0,1,.85.84V21a.85.85,0,0,1-.85.84H193V34.38a3,3,0,0,0,.64,2.22,3.16,3.16,0,0,0,2.18.59,11.83,11.83,0,0,0,1.22,0A.85.85,0,0,1,198,38Z"/><path class="cls-1" d="M178.7,16l-.08,5a.84.84,0,0,1-.92.82,13.42,13.42,0,0,0-1.86-.07A6.5,6.5,0,0,0,172.42,23a5.17,5.17,0,0,0-1.93,3.7V42.4a.85.85,0,0,1-.84.84h-6.31a.84.84,0,0,1-.84-.84v-26a.84.84,0,0,1,.84-.84h5.88a.84.84,0,0,1,.84.78l.18,2.07a6.31,6.31,0,0,1,2.62-2.56,6.47,6.47,0,0,1,3.52-.8,8.53,8.53,0,0,1,1.61.13A.84.84,0,0,1,178.7,16Z"/><path class="cls-1" d="M78.44,21.61,73,19.45c-3.22-1.26-5.54-2.18-5.54-4.41s1.85-3.55,5-3.55a12.41,12.41,0,0,1,7.35,2.43.83.83,0,0,0,1.12-.17l3.34-4.21a.85.85,0,0,0-.12-1.17A18.13,18.13,0,0,0,72.41,4.06c-7.9,0-13.86,5-13.86,11.51S64,25.07,66.28,26l5.66,2.38c3,1.27,5,2.1,5,4.4,0,1.38-.7,3.71-5.39,3.71a15.62,15.62,0,0,1-8.82-3.37.82.82,0,0,0-1.14.13L57.71,38a.84.84,0,0,0,.1,1.17A21.51,21.51,0,0,0,71.36,44C81.4,44,86,37.78,86,32,86,27,83.57,23.68,78.44,21.61Z"/><path class="cls-1" d="M269.91,42l-7.29-14.27a11.47,11.47,0,0,0,4.89-4,11.51,11.51,0,0,0,1.69-6.56,10.87,10.87,0,0,0-1.68-6.16,10.38,10.38,0,0,0-4.81-3.82,19.56,19.56,0,0,0-7.44-1.29H241.84a.84.84,0,0,0-.84.84V42.4a.84.84,0,0,0,.84.84h6.64a.84.84,0,0,0,.84-.84V29h5.14l6.92,13.76a.86.86,0,0,0,.75.46h7A.85.85,0,0,0,269.91,42ZM259.46,21a6.16,6.16,0,0,1-4.18,1.27h-5.94v-9.6h5.94a6.09,6.09,0,0,1,4.19,1.27,4.5,4.5,0,0,1,1.42,3.55A4.44,4.44,0,0,1,259.46,21Z"/><path class="cls-1" d="M235,6.74V42.4a.85.85,0,0,1-.84.84h-6.63a.85.85,0,0,1-.84-.84V28.91H212.49V42.4a.85.85,0,0,1-.84.84H205a.85.85,0,0,1-.84-.84V6.74A.85.85,0,0,1,205,5.9h6.66a.85.85,0,0,1,.84.84V22.22h14.15V6.74a.85.85,0,0,1,.84-.84h6.63A.85.85,0,0,1,235,6.74Z"/></svg>