<svg id="レイヤー_1" data-name="レイヤー 1" xmlns="http://www.w3.org/2000/svg" viewBox="0 0 270 51.99"><defs><style>.cls-1{fill:#231916;}</style></defs><title>storesjp</title><polygon class="cls-1" points="81.5 15.51 81.5 21.46 91.15 21.46 91.15 51.53 97.11 51.53 97.11 21.46 106.76 21.46 106.76 15.51 81.5 15.51"/><path class="cls-1" d="M125.57,15.05c-9.41,0-12.91,11.3-12.91,18.42,0,7.45,3.43,18.52,12.91,18.52s12.91-11.07,12.91-18.52C138.48,26.35,135,15.05,125.57,15.05Zm0,5.95c6,0,6.49,9.74,6.49,12.73,0,2.05-.31,12.31-6.49,12.31-6,0-6.5-9.42-6.5-12.31C119.07,29.9,119.71,21,125.57,21Z"/><path class="cls-1" d="M74.2,41.37v-.09h0a10.36,10.36,0,0,0-.82-4c-1.51-3.41-5.19-5.12-8.15-6.5l-1.08-.5c-2.59-1.19-4.31-2-5.15-3.1a3.53,3.53,0,0,1-.7-2.34h0v0h0v0c0-3.15,2.62-3.81,4.8-3.81a4.79,4.79,0,0,1,3.52,1.28,3.27,3.27,0,0,1,.82,2.55l0,.6h6.46V24.2c0-5.47-5.5-9.15-10.65-9.15-6.33,0-11.08,4.12-11.3,9.82A9.45,9.45,0,0,0,53,29.43c1.52,2.76,4.2,4.06,7,5.26,3.25,1.36,6.06,2.54,7.22,4.68a4,4,0,0,1,.55,2.05h0c0,.11,0,.22,0,.34,0,3.16-2.69,4.28-5.2,4.28-3.06,0-5.07-1.87-5.11-4.75v-.55H51.06v1.64c0,6,5.86,9.61,11.53,9.61s11.62-3.53,11.62-10.28C74.21,41.59,74.21,41.48,74.2,41.37Z"/><path class="cls-1" d="M233.72,41.37v-.09h0a10.36,10.36,0,0,0-.82-4c-1.51-3.41-5.19-5.12-8.15-6.5l-1.08-.5c-2.59-1.19-4.3-2-5.15-3.1a3.48,3.48,0,0,1-.69-2.34h0v0h0v0c0-3.14,2.61-3.8,4.79-3.8a4.83,4.83,0,0,1,3.53,1.28,3.26,3.26,0,0,1,.81,2.55l0,.6h6.45V24.2c0-5.47-5.5-9.15-10.64-9.15-6.34,0-11.09,4.12-11.31,9.82a9.45,9.45,0,0,0,1.05,4.56c1.52,2.76,4.2,4.06,7,5.26,3.25,1.36,6.06,2.54,7.23,4.68a4.08,4.08,0,0,1,.54,2.05h0c0,.11,0,.22,0,.34,0,3.16-2.69,4.28-5.21,4.28C219,46,217,44.17,217,41.29v-.55h-6.41v1.64c0,6,5.86,9.61,11.53,9.61s11.62-3.53,11.62-10.28Z"/><polygon class="cls-1" points="185.79 45.58 185.79 35.73 199.39 35.73 199.39 29.77 185.79 29.77 185.79 21.46 201.39 21.46 201.39 15.51 179.84 15.51 179.84 51.53 202.01 51.53 202.01 45.58 185.79 45.58"/><path class="cls-1" d="M162.47,35.8c4-1.09,6.64-4.83,6.64-9.54,0-6.63-4.53-10.75-11.83-10.75H147.05v36H153V37.06h3.33l8,14.47h7.38ZM153,21.47h3.3c4,0,6.4.75,6.4,4.59s-1.66,5.05-6.35,5.05H153Z"/><path class="cls-1" d="M37.66,15.81,18.83,0,0,15.81V51.53H37.66Zm-28.93-.3L18.83,7l10.09,8.48Zm23,30.07H6V21.47H31.7Z"/><path class="cls-1" d="M256.14,15.05A13.86,13.86,0,1,0,270,28.9,13.86,13.86,0,0,0,256.14,15.05Zm-1.88,17.58a3.74,3.74,0,0,1-7.48,0V30.94h2.82v1.59c0,1,.47,1.09.93,1.09s.91-.13.91-1.09V22h2.82Zm7-2H259v5.43h-2.82V22h5.1c2.85,0,4.7,1.7,4.7,4.33S264.05,30.63,261.24,30.63Z"/><path class="cls-1" d="M261.2,24.6H259V28h2.24c1.2,0,1.86-.61,1.86-1.7A1.63,1.63,0,0,0,261.2,24.6Z"/></svg>