<?xml version="1.0" encoding="UTF-8"?><svg id="Pattern_Tile" xmlns="http://www.w3.org/2000/svg" viewBox="0 0 3778 1890"><defs><style>.cls-1{fill:none;}.cls-2{opacity:.05;}.cls-3{fill:#fff;}.cls-4{fill:#d6d6d6;}.cls-5{fill:#adadad;}</style></defs><g class="cls-2"><rect id="Bounding_Box" class="cls-1" width="3778" height="1890"/><g id="Floral_Elements"><path class="cls-4" d="M3772.5,1882.5h-300c0-165.6853,134.3147-300,300-300v300Z"/><path class="cls-3" d="M3157.5,1582.5h300c0,165.6853-134.3147,300-300,300v-300Z"/><path class="cls-3" d="M3142.5,1882.5h-300c0-165.6853,134.3147-300,300-300v300Z"/><path class="cls-3" d="M3772.5,1267.5v300c-165.6853,0-300-134.3147-300-300h300Z"/><path class="cls-5" d="M3157.5,1567.5v-300c165.6853,0,300,134.3147,300,300h-300Z"/><path class="cls-3" d="M3142.5,1267.5v300c-165.6853,0-300-134.3147-300-300h300Z"/><path class="cls-3" d="M3472.5,1252.5v-300c165.6853,0,300,134.3147,300,300h-300Z"/><path class="cls-5" d="M3157.5,952.5h300c0,165.6853-134.3147,300-300,300v-300Z"/><path class="cls-3" d="M3142.5,1252.5h-300c0-165.6853,134.3147-300,300-300v300Z"/><path class="cls-3" d="M637.5,1582.5h300c0,165.6853-134.3147,300-300,300v-300Z"/><path class="cls-3" d="M622.5,1882.5H322.5c0-165.6853,134.3146-300,300-300v300Z"/><path class="cls-4" d="M7.5,1882.5v-300c165.6853,0,300,134.3147,300,300H7.5Z"/><path class="cls-3" d="M937.5,1267.5v300c-165.6854,0-300-134.3147-300-300h300Z"/><path class="cls-3" d="M322.5,1267.5h300c0,165.6853-134.3147,300-300,300v-300Z"/><path class="cls-3" d="M7.5,1267.5H307.5c0,165.6853-134.3147,300-300,300v-300Z"/><path class="cls-3" d="M637.5,1252.5v-300c165.6853,0,300,134.3147,300,300h-300Z"/><path class="cls-3" d="M622.5,1252.5H322.5c0-165.6853,134.3146-300,300-300v300Z"/><path class="cls-3" d="M307.5,1252.5H7.5c0-165.6853,134.3147-300,300-300v300Z"/><path class="cls-3" d="M3772.5,937.5h-300c0-165.6853,134.3147-300,300-300v300Z"/><path class="cls-3" d="M3457.5,637.5v300c-165.6853,0-300-134.3147-300-300h300Z"/><path class="cls-3" d="M2842.5,637.5h300c0,165.6853-134.3147,300-300,300v-300Z"/><path class="cls-3" d="M3772.5,322.5v300c-165.6853,0-300-134.3147-300-300h300Z"/><path class="cls-3" d="M3157.5,622.5V322.5c165.6853,0,300,134.3147,300,300h-300Z"/><path class="cls-3" d="M3142.5,622.5h-300c0-165.6853,134.3147-300,300-300v300Z"/><path class="cls-4" d="M3472.5,7.5h300c0,165.68531-134.3147,300-300,300V7.5Z"/><path class="cls-3" d="M3157.5,307.5V7.5c165.6853,0,300,134.31471,300,300h-300Z"/><path class="cls-3" d="M3142.5,7.5V307.5c-165.6853,0-300-134.31469-300-300h300Z"/><path class="cls-3" d="M2527.5,1582.5h300c0,165.6853-134.3147,300-300,300v-300Z"/><path class="cls-5" d="M2512.5,1882.5h-300c0-165.6853,134.3147-300,300-300v300Z"/><path class="cls-3" d="M1897.5,1582.5h300c0,165.6853-134.31472,300-300,300v-300Z"/><path class="cls-3" d="M1882.5,1882.5h-300c0-165.6853,134.31469-300,300-300v300Z"/><path class="cls-3" d="M1567.5,1582.5v300c-165.6854,0-300-134.3147-300-300h300Z"/><path class="cls-3" d="M952.5,1582.5h300c0,165.6853-134.3147,300-300,300v-300Z"/><path class="cls-3" d="M2527.5,1567.5v-300c165.6853,0,300,134.3147,300,300h-300Z"/><path class="cls-5" d="M2512.5,1267.5v300c-165.6853,0-300-134.3147-300-300h300Z"/><path class="cls-3" d="M1882.5,1267.5v300c-165.68531,0-300-134.3147-300-300h300Z"/><path class="cls-3" d="M1267.5,1567.5v-300c165.6853,0,300,134.3147,300,300h-300Z"/><path class="cls-3" d="M1252.5,1567.5h-300c0-165.6853,134.3146-300,300-300v300Z"/><path class="cls-3" d="M2527.5,1252.5v-300c165.6853,0,300,134.3147,300,300h-300Z"/><path class="cls-3" d="M2512.5,952.5v300c-165.6853,0-300-134.3147-300-300h300Z"/><path class="cls-4" d="M1897.5,952.5h300c0,165.6853-134.31472,300-300,300v-300Z"/><path class="cls-4" d="M1882.5,952.5v300c-165.68531,0-300-134.3147-300-300h300Z"/><path class="cls-3" d="M1267.5,1252.5v-300c165.6853,0,300,134.3147,300,300h-300Z"/><path class="cls-3" d="M1252.5,952.5v300c-165.6854,0-300-134.3147-300-300h300Z"/><path class="cls-3" d="M2527.5,637.5h300c0,165.6853-134.3147,300-300,300v-300Z"/><path class="cls-3" d="M2512.5,937.5h-300c0-165.6853,134.3147-300,300-300v300Z"/><path class="cls-4" d="M2197.5,937.5h-300c0-165.6853,134.31468-300,300-300v300Z"/><path class="cls-3" d="M1897.5,1567.5v-300c165.68528,0,300,134.3147,300,300h-300Z"/><path class="cls-4" d="M1582.5,937.5v-300c165.68529,0,300,134.3147,300,300h-300Z"/><path class="cls-3" d="M1267.5,637.5h300c0,165.6853-134.3147,300-300,300v-300Z"/><path class="cls-3" d="M1252.5,937.5h-300c0-165.6853,134.3146-300,300-300v300Z"/><path class="cls-3" d="M2827.5,322.5v300c-165.6853,0-300-134.3147-300-300h300Z"/><path class="cls-3" d="M2212.5,322.5h300c0,165.6853-134.3147,300-300,300V322.5Z"/><path class="cls-3" d="M1897.5,322.5h300c0,165.6853-134.31472,300-300,300V322.5Z"/><path class="cls-3" d="M1882.5,322.5v300c-165.68531,0-300-134.3147-300-300h300Z"/><path class="cls-5" d="M1267.5,322.5h300c0,165.6853-134.3147,300-300,300V322.5Z"/><path class="cls-3" d="M1252.5,622.5h-300c0-165.6853,134.3146-300,300-300v300Z"/><path class="cls-3" d="M2527.5,307.5V7.5c165.6853,0,300,134.31471,300,300h-300Z"/><path class="cls-3" d="M2512.5,307.5h-300c0-165.68529,134.3147-300,300-300V307.5Z"/><path class="cls-3" d="M2197.5,307.5h-300c0-165.68529,134.31468-300,300-300V307.5Z"/><path class="cls-3" d="M1582.5,307.5V7.5c165.68529,0,300,134.31471,300,300h-300Z"/><path class="cls-5" d="M1267.5,307.5V7.5c165.6853,0,300,134.31471,300,300h-300Z"/><path class="cls-3" d="M1252.5,7.5V307.5c-165.6854,0-300-134.31469-300-300h300Z"/><path class="cls-3" d="M637.5,637.5h300c0,165.6853-134.3147,300-300,300v-300Z"/><path class="cls-5" d="M622.5,937.5H322.5c0-165.6853,134.3146-300,300-300v300Z"/><path class="cls-3" d="M7.5,637.5H307.5c0,165.6853-134.3147,300-300,300v-300Z"/><path class="cls-3" d="M637.5,622.5V322.5c165.6853,0,300,134.3147,300,300h-300Z"/><path class="cls-5" d="M622.5,322.5v300c-165.6854,0-300-134.3147-300-300h300Z"/><path class="cls-3" d="M637.5,307.5V7.5c165.6853,0,300,134.31471,300,300h-300Z"/><path class="cls-3" d="M622.5,7.5V307.5c-165.6854,0-300-134.31469-300-300h300Z"/><path class="cls-4" d="M307.5,7.5V307.5C141.8147,307.5,7.5,173.18531,7.5,7.5H307.5Z"/><path class="cls-3" d="M7.5,622.5V322.5c165.6853,0,300,134.3147,300,300H7.5Z"/></g></g></svg>