<?xml version="1.0" encoding="UTF-8"?><svg id="_レイヤー_1" xmlns="http://www.w3.org/2000/svg" viewBox="0 0 1554.85609 235.33988"><defs><style>.cls-1{fill:#4843c2;}</style></defs><path class="cls-1" d="m729.65446,169.41729c4.25052,0,5.36895-1.23003,6.26378-6.15177l10.90666-61.76886c.18458-1.04533,1.26999-1.6425,2.26445-1.27123,2.38358.88989,6.04319,1.40914,11.3248,1.40914,5.03753,0,8.8176-.57201,11.50346-1.42942,1.20638-.38512,2.38439.64485,2.16317,1.89173l-11.76538,66.31358c-1.00642,5.81616-2.79607,10.51471-5.14494,13.7584-4.80974,6.71058-12.63956,9.17145-25.27913,9.17145h-10.63195c-1.04634,0-1.83829-.9459-1.65435-1.97594l3.31472-18.56199c.14313-.80148.84018-1.38509,1.65435-1.38509h5.08038Zm18.67933-81.98834c1.34244-8.05384,6.48779-10.62631,16.55448-10.62631,9.84308,0,14.09319,2.57247,12.75116,10.62631-1.45404,7.82983-6.37579,10.51389-16.55448,10.51389-10.73791,0-14.2052-2.46087-12.75116-10.51389Z"/><path class="cls-1" d="m785.24565,160.58064c-9.73107-6.48738-12.41555-17.89651-10.06668-32.32532l.1116-.55962c3.5793-19.46215,16.89009-30.53567,35.56942-30.53567,8.05343,0,14.54081,1.56564,19.35055,4.80933,9.61948,6.4882,12.86317,18.00893,10.2907,33.10896l-.11201.67122c-1.00683,6.15177-3.02009,11.29671-5.70456,15.77125-5.36895,8.83666-14.65282,13.87-29.30564,13.87-8.72424,0-15.32363-1.56646-20.13337-4.81015Zm29.97686-28.4104c1.78965-9.28387-.22401-13.08718-5.48096-13.08718-4.80974,0-7.60622,3.13209-9.28387,12.08035-1.45404,8.72424.78282,11.96875,5.48096,11.96875,4.36212,0,7.82942-2.23768,9.28387-10.96192Z"/><path class="cls-1" d="m854.32891,98.27846h17.8855c.8582,0,1.57853.64664,1.67078,1.49987l.52912,4.89373c.17113,1.58277,2.24675,2.06115,3.08876.71005,3.9422-6.32571,10.18211-8.22207,19.48542-8.22207h1.01659c1.0451,0,1.83673.94378,1.65488,1.97293l-4.32745,24.49057c-.14187.80288-.83956,1.3881-1.65488,1.3881h-7.31505c-8.72465,0-11.40913,2.68407-12.86317,10.96192l-4.56813,26.34577c-.13964.80533-.83846,1.39341-1.65581,1.39341h-23.87552c-1.04468,0-1.8362-.94306-1.65506-1.97192l10.92896-62.07324c.14144-.80335.83935-1.38912,1.65506-1.38912Z"/><path class="cls-1" d="m917.79184,164.83116c-15.10044,0-23.37747-12.08035-19.46256-35.56901,4.25052-22.14703,14.0936-31.99053,27.73959-31.99053,6.81381,0,11.27039,2.58183,13.64822,7.22814.74389,1.45357,2.88042,1.18213,3.16357-.42599l4.42024-25.1038c.14098-.80069.83659-1.38451,1.64959-1.38451h22.5474c1.0416,0,1.83061.94058,1.64944,1.9663l-14.62036,82.77733c-.14135.80028-.83677,1.38364-1.64944,1.38364h-19.51629c-.87929,0-1.60889-.67991-1.67081-1.55702l-.18653-2.64219c-.10854-1.53751-2.04473-2.10917-2.99547-.89598-3.27254,4.17593-7.94306,6.21362-14.7166,6.21362Zm20.46898-32.66093c1.78965-9.28387-.2236-12.97477-5.03334-12.97477-4.69773,0-7.60581,3.01968-9.28387,11.96793-1.45404,8.72424,1.00683,12.19195,5.48096,12.19195,4.02651,0,7.38221-2.79648,8.83625-11.18511Z"/><path class="cls-1" d="m980.63273,84.56703c.14166-.80311.83946-1.3886,1.65497-1.3886h30.02086c6.48738,0,11.74433.78282,16.44247,2.46087,9.17186,3.46771,13.53398,10.2907,11.40872,22.03462-1.15056,6.3293-3.94552,10.52115-8.31431,13.35011-.96305.62361-1.06438,2.02221-.15463,2.72129,4.675,3.59243,6.7912,9.20804,5.22525,17.82037-2.34887,14.09319-12.75116,22.14703-33.44375,22.14703h-34.79697c-1.04489,0-1.83647-.94343-1.65497-1.97243l13.61236-77.17327Zm15.92179,55.02275c-.18392,1.03003.60802,1.97591,1.65435,1.97591h4.03301c6.15177,0,8.38904-1.45404,8.94826-4.47372.55921-3.46771-.67122-4.92175-7.27061-4.92175h-4.63315c-.81417,0-1.51124.58362-1.65435,1.38512l-1.0775,6.03443Zm5.13724-28.96426c-.17992,1.02833.61142,1.97015,1.65537,1.97015h5.04652c4.47413,0,6.26378-1.45404,6.71099-4.47372.55962-3.13209-.78282-4.47454-5.03334-4.47454h-5.74659c-.81638,0-1.51467.58672-1.65537,1.39088l-.97757,5.58722Z"/><path class="cls-1" d="m1053.02332,160.58064c-9.73107-6.48738-12.41555-17.89651-10.06668-32.32532l.1116-.55962c3.5793-19.46215,16.89009-30.53567,35.56942-30.53567,8.05343,0,14.54081,1.56564,19.35055,4.80933,9.61948,6.4882,12.86317,18.00893,10.2907,33.10896l-.11201.67122c-1.00642,6.15177-3.02009,11.29671-5.70456,15.77125-5.36895,8.83666-14.65282,13.87-29.30523,13.87-8.72465,0-15.32404-1.56646-20.13378-4.81015Zm29.97645-28.4104c1.78965-9.28387-.2236-13.08718-5.48055-13.08718-4.80974,0-7.60622,3.13209-9.28387,12.08035-1.45404,8.72424.78282,11.96875,5.48096,11.96875,4.36212,0,7.82942-2.23768,9.28346-10.96192Z"/><path class="cls-1" d="m1123.93856,160.58064c-9.73107-6.48738-12.41555-17.89651-10.06668-32.32532l.1116-.55962c3.5793-19.46215,16.88968-30.53567,35.56983-30.53567,8.05302,0,14.5404,1.56564,19.35055,4.80933,9.61948,6.4882,12.86317,18.00893,10.28988,33.10896l-.1116.67122c-1.00683,6.15177-3.01968,11.29671-5.70456,15.77125-5.36895,8.83666-14.65282,13.87-29.30564,13.87-8.72424,0-15.32404-1.56646-20.13337-4.81015Zm29.97686-28.4104c1.78965-9.28387-.22401-13.08718-5.48137-13.08718-4.80933,0-7.60581,3.13209-9.28305,12.08035-1.45486,8.72424.78282,11.96875,5.48055,11.96875,4.36212,0,7.82983-2.23768,9.28387-10.96192Z"/><path class="cls-1" d="m1210.8511,163.71273c-6.7114,0-11.74474-1.11843-15.21244-3.01968-7.04619-4.02733-8.27703-12.41596-5.92776-25.72634l2.00376-11.45265c.17992-1.02833-.61142-1.97014-1.65537-1.97014h-5.72853c-1.04475,0-1.8363-.94319-1.65503-1.9721l3.2372-18.37419c.12945-.73477.72939-1.29646,1.47097-1.37827,2.54423-.28067,4.92318-.59429,7.13632-1.6525,2.79648-1.34244,4.58613-3.46771,6.04017-6.7114,1.038-2.16941,1.67741-4.5775,2.18794-6.95606.16572-.7721.85029-1.32097,1.63998-1.32097h17.32027c1.04583,0,1.83765.94503,1.65456,1.97471l-1.98265,11.15061c-.18308,1.02968.60874,1.97471,1.65456,1.97471h9.63451c1.04587,0,1.8377.9451,1.65455,1.9748l-3.5403,19.90443c-.14265.80201-.83995,1.38623-1.65455,1.38623h-10.82109c-.81855,0-1.51802.58976-1.65635,1.39653l-1.103,6.43329c-.44721,2.79648-.55962,5.03334-.44721,6.48738.44721,2.79648,2.90808,3.69172,8.61264,3.69172h1.68891c1.04459,0,1.83609.94291,1.6551,1.9717l-3.65921,20.79885c-.14135.80345-.83931,1.38933-1.6551,1.38933h-10.89288Z"/><path class="cls-1" d="m1296.64358,151.18517c-6.15177,10.2907-15.54806,14.20561-30.42407,14.20561-9.17227,0-15.99526-1.78965-21.1402-5.03334-10.1791-6.93541-12.97477-19.79858-9.84349-38.0307l.11242-.6704c1.67723-9.73189,4.13811-17.56172,7.71741-23.37788,7.04701-11.85634,17.5609-16.77808,32.10212-16.77808,23.04145,0,34.45058,12.52756,30.42407,35.56983l-.2051,1.17978c-.13994.805-.83861,1.39269-1.65568,1.39269h-23.76373c-1.04495,0-1.83655-.94353-1.65494-1.97259l.32309-1.83073c1.45404-8.38863-.67122-11.07352-5.48137-11.07352-6.04017,0-8.05302,4.92175-10.4023,18.45614-.78282,4.69773-1.23003,8.38863-1.34244,10.9611-.1116,5.36977,1.45404,7.27102,5.70456,7.27102,5.59297,0,7.49422-3.0205,8.94826-11.74474l.09155-.51861c.1413-.80046.83524-1.38505,1.64806-1.38837l24.09019-.09842c1.0512-.00429,1.84826.9467,1.6603,1.98098l-.08571.47164c-1.45404,8.83666-3.80332,15.77125-6.82299,21.02861Z"/><path class="cls-1" d="m1344.22552,157.61355c-.44617-1.00548-1.82804-1.17764-2.44686-.26817-3.38464,4.9744-8.78962,8.04541-18.96236,8.04541-14.09402,0-20.5814-7.82983-18.45614-19.68616,1.00683-6.26419,4.25052-11.18593,9.84267-14.42963,4.81015-2.79566,11.85716-4.47372,20.69299-5.48055,8.38945-1.00683,12.19195-1.90125,12.75157-4.92175.44721-2.23686-.44721-3.6909-3.91491-3.6909-3.83437,0-5.93926,1.54718-6.64296,4.8066-.14029.64977-.70619,1.12198-1.37094,1.12198h-23.86349c-.92704,0-1.59283-.88155-1.35903-1.77863,4.10409-15.74707,14.1972-24.17172,34.69047-24.17172,22.37023,0,29.86444,10.4023,26.73317,27.51599l-2.46087,13.19878c-.55962,3.24369,0,3.8025,3.24369,3.8025h.00004c.87502,0,1.53755.79062,1.38449,1.65215l-3.41526,19.22309c-.11925.67121-.70277,1.1602-1.38449,1.1602h-9.78356c-9.21773,0-13.54365-2.19014-15.27822-6.09918Zm-.38143-16.60666l.28722-1.60079c.18508-1.03151-.78347-1.92012-1.78393-1.60811-.76346.23809-1.64723.43685-2.64139.63561-3.05155.54523-4.51024,1.09047-5.72155,1.84211-.06416.03981-.12648.0837-.18522.13114-.95626.77245-1.59753,1.75878-1.92305,3.06009-.33561,2.34928,1.00683,3.69172,4.13811,3.69172,4.47454,0,7.27102-2.68489,7.82983-6.15177Z"/><path class="cls-1" d="m1376.74227,161.7408l10.92974-62.07324c.14145-.80334.83936-1.3891,1.65506-1.3891h19.04075c.88932,0,1.62467.69285,1.67754,1.5806l.18517,3.10871c.08837,1.48356,1.94107,2.15118,2.91823,1.0314,3.79739-4.35162,8.97476-6.83913,15.92899-6.83913,7.90366,0,13.13228,2.67504,15.68534,8.16386.54758,1.17724,2.13697,1.31349,2.89759.26126,3.89008-5.38148,9.42503-8.42512,17.09849-8.42512,14.20561,0,20.24579,9.28387,17.22529,26.39756l-6.80227,38.76508c-.14104.80379-.83916,1.39007-1.65523,1.39007h-22.65318c-1.04307,0-1.83419-.94032-1.65574-1.96801l5.69845-32.81817c1.00683-5.70456,1.23003-9.28387-3.24369-9.28387-4.69855,0-5.70456,3.8025-6.93541,9.95509l-5.68574,32.72214c-.13989.80506-.83858,1.39282-1.65571,1.39282h-22.65079c-1.04307,0-1.83419-.94032-1.65574-1.96801l5.69845-32.81817c1.00683-5.70456,1.11843-9.28387-3.35611-9.28387-4.69773,0-5.59215,3.8025-6.82299,9.95509l-5.68574,32.72214c-.13989.80506-.83858,1.39282-1.65571,1.39282h-22.87c-1.04469,0-1.83621-.94308-1.65506-1.97194Z"/><path class="cls-1" d="m1509.01654,159.39191l-4.41483,25.0787c-.14142.80337-.83935,1.38916-1.65507,1.38916h-22.53722c-1.0448,0-1.83636-.94327-1.65501-1.97222l14.84407-84.22027c.14157-.80321.83942-1.38882,1.65501-1.38882h19.50301c.88324,0,1.61575.68373,1.67653,1.56487l.23889,3.46328c.10216,1.48102,1.95533,2.12992,2.92488,1.00573,3.70964-4.3013,8.80744-6.70511,15.74323-6.70511,4.69855,0,8.50105,1.34244,11.74474,3.91491,6.5998,5.25736,9.50788,15.54806,6.7114,31.3193-1.34244,7.94142-3.46771,14.20479-6.15177,18.90334-5.25736,9.39546-12.63997,13.08636-21.58741,13.08636-6.7876,0-11.36975-2.26611-14.01914-6.11896-.84513-1.22903-2.76272-.78927-3.02131.6797Zm19.05329-27.22167c1.78965-9.28387-.22401-12.97477-5.03334-12.97477-4.69773,0-7.60581,3.01968-9.28387,11.96793-1.45404,8.72424,1.00683,12.19195,5.48055,12.19195,4.02733,0,7.38262-2.79648,8.83666-11.18511Z"/><path class="cls-1" d="m741.62942,83.17843h-52.51054c-.81549,0-1.51333.58547-1.65498,1.3886l-13.61275,77.17327c-.1815,1.02899.61009,1.97243,1.65498,1.97243h22.31756c.81364,0,1.51045-.58296,1.6541-1.38383l3.97769-22.17591c.14365-.80087.84046-1.38378,1.6541-1.38378h26.8262c.81513,0,1.51271-.58496,1.65482-1.38757l3.54351-20.01603c.18222-1.0293-.60947-1.97346-1.65482-1.97346h-25.6369c-1.04401,0-1.83535-.94191-1.65539-1.97023l.97786-5.58722c.14073-.80415.83898-1.39081,1.65533-1.39081h27.26854c.81462,0,1.51189-.58424,1.65457-1.38619l3.54063-19.90443c.18319-1.02976-.60865-1.97484-1.65451-1.97484Z"/><path class="cls-1" d="m357.16822,112.86767h-3.8381c31.29629,0,56.64226-25.47469,56.43288-56.8194C409.55499,24.90809,383.72109,0,352.58021,0h-122.90659c-9.49009,0-17.18333,7.69324-17.18333,17.18333v168.39863c0,6.53697-5.29926,11.83623-11.83623,11.83623h-.00002c-6.53697,0-11.83623,5.29926-11.83623,11.83623v14.15474c0,6.53697,5.29926,11.83623,11.83623,11.83623l157.28256-.01156c33.94546,0,61.43348-27.64445,61.18099-61.64782-.2505-33.73485-28.21358-60.71834-61.94936-60.71834Zm-30.88868,67.38175c0,9.6716-7.84112,17.51189-17.51205,17.51189h-.00063c-9.67156,0-17.51126-7.84029-17.51126-17.51189v-32.59275c0-9.6716,7.8397-17.51193,17.51126-17.51193h.00063c9.67093,0,17.51205,7.84033,17.51205,17.51193v32.59275Zm0-100.09656c0,9.67156-7.84049,17.51189-17.51205,17.51189s-17.51189-7.84033-17.51189-17.51189v-27.19592c0-9.67156,7.84033-17.51197,17.51189-17.51197s17.51205,7.84041,17.51205,17.51197v27.19592Z"/><path class="cls-1" d="m140.14418.09603h-43.86695s-79.09403,0-79.09403,0c-.6572,0-1.3032.04513-1.94122.1171C6.66713,1.17825,0,8.4466,0,17.27951v203.2451c0,8.18295,6.63413,14.81627,14.81708,14.81527l66.64671-.00817c8.18154-.001,14.81345-6.63373,14.81345-14.81527v-67.81146c0-3.82006,3.09677-6.91682,6.91682-6.91682h45.26239c4.37043,0,7.91336-3.54293,7.91336-7.91336v-21.1579c0-4.37043-3.54293-7.91336-7.91336-7.91336h-45.26243c-3.82003,0-6.91678-3.09675-6.91678-6.91678V35.65187c0-3.2734,3.29452-5.50839,6.34529-4.32183,6.53466,2.54157,11.16664,8.89325,11.16664,16.32708,0,0-.01188,12.68663-.02506,22.45827-.00826,6.12705,4.95649,11.09458,11.08354,11.09458l59.24855-.00005c4.8707,0,9.15309-3.18185,10.60909-7.82984,1.74315-5.56465,2.64925-11.4986,2.56302-17.65781C196.83988,25.12003,170.74942.09603,140.14418.09603Z"/><path class="cls-1" d="m638.90398,177.41381c.11242,1.81826-.09321,3.64867-.72764,5.47319-2.29739,6.6069-7.06554,12.12736-11.62346,17.2932-4.80615,5.44719-9.97819,10.3372-15.90213,14.55621-11.97771,8.5305-25.85359,14.20734-40.17527,17.37036-8.25093,1.82226-16.50805,2.54169-24.92178,3.01095-23.33089,1.30122-46.2847-5.11381-64.93105-17.64463-71.51535-47.20853-67.97605-159.50434,4.20294-202.26262,8.99136-5.68635,19.01106-9.69415,29.36877-12.12744,10.53974-2.45934,21.44418-3.30509,32.2314-2.58943,5.16583.35136,10.30561,1.05399,15.36724,2.13403,5.088,1.07996,10.09753,2.53733,14.9641,4.3721,4.47646,1.7046,8.83538,3.73451,13.03831,6.05065,4.22899,2.34227,8.31501,4.95775,12.20567,7.83341,3.63047,2.68052,7.09162,5.58231,10.37074,8.66621,11.33363,10.66999,20.49431,23.66931,25.97243,37.77456,1.93881,4.95767,3.40905,10.09753,4.34621,15.34143.84567,4.74951,1.15795,9.51204,1.15795,14.33954.01302,12.59586-6.08965,24.17681-16.12205,31.37255-6.3241,4.55429-14.09238,7.22187-22.4722,7.22187h-8.61427c-21.32696,0-38.60728-17.28032-38.60728-38.60744v-29.39466c0-12.19248,5.66046-23.08374,14.50855-30.14947,2.60245-2.08193,2.00394-6.15478-1.09283-7.37793-.09117-.039-.18235-.07807-.2605-.11707-27.82007-9.74625-45.73798,14.70384-45.65983,40.72837v41.91245c0,12.20516,3.94636,24.24112,11.60397,33.78849,7.25449,9.04476,17.3725,15.5005,28.372,19.00502,11.44621,3.64684,23.85233,4.1627,35.57614,1.56622,3.0587-.67739,6.15008-1.55199,9.08675-2.61694,4.73481-1.71702,9.24837-4.47987,14.46397-4.3073,6.31768.20916,10.81075,6.01625,12.89309,11.44692.74703,1.94823,1.25631,3.93536,1.38007,5.9372Z"/></svg>